<svg id="ok" xmlns="http://www.w3.org/2000/svg" xmlns:xlink="http://www.w3.org/1999/xlink" viewBox="0 0 54.21 54.21"><defs><linearGradient id="Dégradé_sans_nom_54" x1="28.8" y1="4.19" x2="28.8" y2="53.4" gradientUnits="userSpaceOnUse"><stop offset="0" stop-color="#ffbe99"/><stop offset="1" stop-color="#ff4340"/></linearGradient></defs><title>Sudoku</title><path d="M26.9,53.4c-.86,0-1.73,0-2.6,0l-1.43-.09c-.38,0-.74-.07-1.11-.12l-.35,0c-.82-.09-1.78-.21-2.73-.39a28.17,28.17,0,0,1-3.67-1,19.33,19.33,0,0,1-6.43-3.54l-.39-.35A10.24,10.24,0,0,1,5.5,44.14a10.53,10.53,0,0,1-.77-3.89V37.14c0-3.09,2-5.43,4.59-5.43l6.4.25q-1.08-.45-2-.9c-.46-.21-.9-.43-1.29-.64a19.36,19.36,0,0,1-5.76-4.59,10.55,10.55,0,0,1-2.45-6.89,11.48,11.48,0,0,1,3.43-8.26A15.79,15.79,0,0,1,9.17,9.33a18.86,18.86,0,0,1,5-2.56A44.35,44.35,0,0,1,23,4.7c1.16-.15,2.35-.28,3.53-.36,1.4-.1,2.8-.15,4.17-.15.87,0,1.74,0,2.6.06q.72,0,1.44.09c.37,0,.74.07,1.1.11l.35,0c.82.1,1.78.22,2.74.4a26.52,26.52,0,0,1,3.66,1A19.38,19.38,0,0,1,49,9.39l.38.34a10.12,10.12,0,0,1,2.69,3.73,10.44,10.44,0,0,1,.77,3.88v3.11c0,3.1-2,5.43-4.6,5.43l-6.4-.24c.72.3,1.41.59,2,.89.46.22.9.44,1.29.65A19.49,19.49,0,0,1,51,31.76a10.54,10.54,0,0,1,2.45,6.9A11.46,11.46,0,0,1,50,46.92a14.66,14.66,0,0,1-1.54,1.34,18.64,18.64,0,0,1-5,2.56,43.5,43.5,0,0,1-8.78,2.07c-1.16.16-2.34.28-3.53.37-1.39.09-2.79.14-4.17.14Z" transform="translate(-1.69 -1.69)" fill="url(#Dégradé_sans_nom_54)"/><path d="M30.69,6.69q1.24,0,2.49.06l1.36.08c.46,0,.91.1,1.36.15.86.1,1.71.2,2.55.36a25,25,0,0,1,3.33.87,17.07,17.07,0,0,1,5.6,3.07l0,0,.32.29a7.68,7.68,0,0,1,2,2.79v0a7.92,7.92,0,0,1,.58,2.93v3.1c0,1.56-.78,2.93-2.1,2.93l-23.61-.89q2,.84,9.23,3a65.36,65.36,0,0,1,9,3.29h0c.41.19.81.38,1.16.58a17,17,0,0,1,5,4,8.11,8.11,0,0,1,1.87,5.31,9,9,0,0,1-2.7,6.49,14.05,14.05,0,0,1-1.28,1.12,16,16,0,0,1-4.39,2.2,42.91,42.91,0,0,1-8.26,2c-1.12.15-2.24.26-3.38.34-1.32.1-2.65.14-4,.14-.82,0-1.65,0-2.48,0l-1.37-.08-1.35-.15c-.87-.1-1.72-.21-2.56-.37a24.84,24.84,0,0,1-3.32-.87,17,17,0,0,1-5.61-3.06l0,0L9.86,46a7.53,7.53,0,0,1-2-2.79l0,0a7.92,7.92,0,0,1-.58-2.93V38.64s0-.7,0-1.49c0-1.56.78-2.94,2.09-2.94l23.61.9q-1.95-.84-9.23-3a67.77,67.77,0,0,1-9-3.29h0c-.41-.2-.8-.39-1.16-.58a17,17,0,0,1-5-4,8.07,8.07,0,0,1-1.88-5.3,9,9,0,0,1,2.7-6.5,11.71,11.71,0,0,1,1.29-1.11,16.16,16.16,0,0,1,4.38-2.21,41.89,41.89,0,0,1,8.27-1.94c1.11-.15,2.24-.27,3.37-.35,1.32-.09,2.66-.14,4-.14m0-5c-1.43,0-2.89.05-4.34.16-1.24.08-2.49.21-3.7.38a45.59,45.59,0,0,0-9.28,2.19A20.93,20.93,0,0,0,7.66,7.34,17.59,17.59,0,0,0,5.85,8.91a14,14,0,0,0-4.16,10,13,13,0,0,0,3,8.49A18.29,18.29,0,0,0,6.9,29.66a7.72,7.72,0,0,0-4.66,7.49c0,.69,0,1.29,0,1.45v1.66A12.8,12.8,0,0,0,3.15,45a.17.17,0,0,1,0,.07,12.57,12.57,0,0,0,3.33,4.65l.15.14.19.17.1.09a21.94,21.94,0,0,0,7.26,4,29.66,29.66,0,0,0,4,1c1,.2,2.06.33,2.92.43l.32,0c.41.05.82.1,1.23.13s1,.07,1.51.09c.89,0,1.81.06,2.71.06,1.44,0,2.9,0,4.35-.15,1.24-.09,2.48-.22,3.69-.38a46.1,46.1,0,0,0,9.28-2.19,21.29,21.29,0,0,0,5.72-2.93,18.54,18.54,0,0,0,1.81-1.57,14,14,0,0,0,4.15-10,12.94,12.94,0,0,0-3-8.49,18.41,18.41,0,0,0-2.19-2.23,7.73,7.73,0,0,0,4.67-7.49V17.34a12.84,12.84,0,0,0-.94-4.78,12.5,12.5,0,0,0-3.34-4.68l-.15-.14-.21-.19,0,0a21.86,21.86,0,0,0-7.3-4,29.28,29.28,0,0,0-4-1c-1-.2-2.05-.32-2.91-.42l-.33,0c-.41-.05-.82-.1-1.23-.13l-1.5-.09c-.9,0-1.81-.06-2.72-.06Z" transform="translate(-1.69 -1.69)" fill="#1d1d30"/></svg>