<svg id="carré_txt_rouge" data-name="carré txt rouge" xmlns="http://www.w3.org/2000/svg" viewBox="0 0 57.6 57.6"><title>carré lettrage rouge</title><path d="M26.84,54.1q-1.35,0-2.7-.06L22.66,54c-.39,0-.77-.08-1.16-.12l-.35,0c-.84-.1-1.83-.22-2.82-.41a28.14,28.14,0,0,1-3.77-1A20,20,0,0,1,8,48.77l-.4-.37a10.2,10.2,0,0,1-2.71-3.75,10.58,10.58,0,0,1-.78-3.93v-4.2c0-2.59,0-4.47,2.33-4.47,8.85,0,17.51,4.41,21.17,6.54l1.73-2.15c-1.45-.48-3.52-1.13-6.45-2a72.49,72.49,0,0,1-9.61-3.53l-.12-.06c-.44-.21-.87-.42-1.25-.62A19.91,19.91,0,0,1,6,25.52a10.65,10.65,0,0,1-2.48-7A11.62,11.62,0,0,1,7,10.16,15.4,15.4,0,0,1,8.56,8.79a18.93,18.93,0,0,1,5.17-2.62A45.9,45.9,0,0,1,22.8,4c1.19-.16,2.42-.29,3.65-.38,1.44-.1,2.9-.15,4.32-.15.9,0,1.79,0,2.69.06.5,0,1,0,1.48.09s.76.07,1.13.12l.37,0c.85.1,1.84.22,2.83.41a28.14,28.14,0,0,1,3.77,1,19.9,19.9,0,0,1,6.59,3.62L50,9.2A10.28,10.28,0,0,1,52.75,13a10.54,10.54,0,0,1,.78,3.93s0,3.58,0,4.56c0,2.11,0,4.1-2.32,4.1-8.86,0-17.52-4.4-21.18-6.53l-1.73,2.15c1.45.48,3.52,1.13,6.46,2a72.49,72.49,0,0,1,9.61,3.53l.1.05q.67.32,1.26.63a19.88,19.88,0,0,1,5.9,4.7,10.67,10.67,0,0,1,2.48,7,11.62,11.62,0,0,1-3.48,8.38A15.4,15.4,0,0,1,49,48.81a19.08,19.08,0,0,1-5.17,2.62,45.37,45.37,0,0,1-9.07,2.14c-1.19.16-2.42.29-3.65.38C29.71,54.05,28.26,54.1,26.84,54.1Z" fill="#ff2d62"/><path d="M30.77,5.8q1.29,0,2.58.06c.48,0,.95,0,1.42.09s.95.09,1.42.15c.89.1,1.78.21,2.65.38a26.54,26.54,0,0,1,3.46.9,17.78,17.78,0,0,1,5.83,3.19l0,0,.33.3a7.85,7.85,0,0,1,2.11,2.9l0,0a8.36,8.36,0,0,1,.6,3.05v1.67c0,.13,0,4.68,0,4.68C40.34,23.24,29.49,16,29.49,16l-5,6.24c1.36.59,4.56,1.63,9.6,3.15a70,70,0,0,1,9.34,3.42h0c.43.2.84.4,1.21.6a17.81,17.81,0,0,1,5.23,4.14,8.43,8.43,0,0,1,1.95,5.52A9.39,9.39,0,0,1,49,45.82,11.7,11.7,0,0,1,47.65,47a16.43,16.43,0,0,1-4.56,2.3,43.4,43.4,0,0,1-8.6,2c-1.16.16-2.33.28-3.5.36-1.38.1-2.77.15-4.16.15q-1.29,0-2.58-.06c-.48,0-.95-.05-1.42-.09s-.95-.1-1.41-.15c-.9-.1-1.79-.21-2.66-.38a25.05,25.05,0,0,1-3.46-.91A17.58,17.58,0,0,1,9.47,47l0,0-.33-.3A7.93,7.93,0,0,1,7,43.79l0,0a8.36,8.36,0,0,1-.6-3V39c0-.14,0-4.69,0-4.69,10.86,0,21.71,7.26,21.71,7.26l5-6.24c-1.36-.59-4.56-1.63-9.6-3.15a70,70,0,0,1-9.34-3.42h0c-.43-.2-.84-.4-1.21-.6a17.81,17.81,0,0,1-5.23-4.14A8.43,8.43,0,0,1,5.8,18.54a9.39,9.39,0,0,1,2.81-6.76A12.84,12.84,0,0,1,10,10.62a16.77,16.77,0,0,1,4.56-2.29,43.4,43.4,0,0,1,8.6-2c1.16-.16,2.33-.28,3.5-.36,1.38-.1,2.77-.15,4.16-.15m0-4.6c-1.48,0-3,.05-4.48.16-1.28.09-2.56.22-3.8.39A46.84,46.84,0,0,0,13,4,21.28,21.28,0,0,0,7.17,7,17.64,17.64,0,0,0,5.35,8.54a13.91,13.91,0,0,0-4.15,10,12.9,12.9,0,0,0,3,8.45A19.57,19.57,0,0,0,7,29.76H6.4c-.18,0-4.55.06-4.61,5.13,0,.37,0,.87,0,1.4,0,1,0,2.17,0,2.59v1.85a12.91,12.91,0,0,0,.93,4.75l0,.05A12.32,12.32,0,0,0,6,50.11l.16.15.21.19.07,0a22.17,22.17,0,0,0,7.36,4.07,30.86,30.86,0,0,0,4.08,1.07c1.06.2,2.11.33,3,.43l.35,0c.41,0,.83.1,1.24.13l1.55.1c.93,0,1.87.06,2.8.06,1.48,0,3,0,4.48-.16,1.28-.09,2.56-.22,3.8-.39a47.51,47.51,0,0,0,9.54-2.25,21.28,21.28,0,0,0,5.78-3,17.64,17.64,0,0,0,1.82-1.58,13.91,13.91,0,0,0,4.15-10,12.88,12.88,0,0,0-3-8.45,19.57,19.57,0,0,0-2.83-2.77h.64c.18,0,4.55-.05,4.61-5.12,0-.37,0-.87,0-1.4,0-1,0-2.16,0-2.59V16.88a12.87,12.87,0,0,0-.93-4.75l0-.06a12.36,12.36,0,0,0-3.29-4.58l-.16-.15-.21-.19,0,0A22.3,22.3,0,0,0,43.78,3,30.86,30.86,0,0,0,39.7,2c-1.06-.2-2.11-.33-3-.43l-.35,0c-.41-.05-.83-.1-1.24-.13l-1.55-.1c-.93,0-1.87-.06-2.8-.06Z" fill="#1a0a26"/></svg>