<?xml version="1.0" encoding="UTF-8" standalone="no"?>
<!DOCTYPE svg PUBLIC "-//W3C//DTD SVG 1.1//EN"
 "http://www.w3.org/Graphics/SVG/1.1/DTD/svg11.dtd">
<!-- Generated by graphviz version 12.2.1 (20241206.2353)
 -->
<!-- Title: src/main/java/fr/softsf/sudokufx/configuration/database/keystore/ApplicationKeystore.java Pages: 1 -->
<svg width="2228pt" height="120pt"
 viewBox="0.00 0.00 2227.75 120.00" xmlns="http://www.w3.org/2000/svg" xmlns:xlink="http://www.w3.org/1999/xlink">
<g id="graph0" class="graph" transform="scale(1 1) rotate(0) translate(4 116)">
<title>src/main/java/fr/softsf/sudokufx/configuration/database/keystore/ApplicationKeystore.java</title>
<!-- Node1 -->
<g id="Node000001" class="node">
<title>Node1</title>
<g id="a_Node000001"><a xlink:title=" ">
<polygon fill="#999999" stroke="#666666" points="1373.75,-112 1163.5,-112 1163.5,-68 1373.75,-68 1373.75,-112"/>
<text text-anchor="start" x="1171.5" y="-98.5" font-family="Helvetica,sans-Serif" font-size="10.00">src/main/java/fr/softsf</text>
<text text-anchor="start" x="1171.5" y="-86.5" font-family="Helvetica,sans-Serif" font-size="10.00">/sudokufx/configuration</text>
<text text-anchor="middle" x="1268.62" y="-74.5" font-family="Helvetica,sans-Serif" font-size="10.00">/database/keystore/ApplicationKeystore.java</text>
</a>
</g>
</g>
<!-- Node2 -->
<g id="Node000002" class="node">
<title>Node2</title>
<g id="a_Node000002"><a xlink:title=" ">
<polygon fill="#e0e0e0" stroke="#999999" points="195.25,-32 0,-32 0,0 195.25,0 195.25,-32"/>
<text text-anchor="start" x="8" y="-18.5" font-family="Helvetica,sans-Serif" font-size="10.00">fr.softsf.sudokufx.annotations.</text>
<text text-anchor="middle" x="97.62" y="-6.5" font-family="Helvetica,sans-Serif" font-size="10.00">ExcludedFromCoverageReportGenerated</text>
</a>
</g>
</g>
<!-- Node1&#45;&gt;Node2 -->
<g id="edge1_Node000001_Node000002" class="edge">
<title>Node1&#45;&gt;Node2</title>
<g id="a_edge1_Node000001_Node000002"><a xlink:title=" ">
<path fill="none" stroke="#63b8ff" d="M1163.34,-86.4C973.93,-81.07 562.98,-66.44 206.8,-32.26"/>
<polygon fill="#63b8ff" stroke="#63b8ff" points="207.28,-28.79 196.99,-31.31 206.61,-35.76 207.28,-28.79"/>
</a>
</g>
</g>
<!-- Node3 -->
<g id="Node000003" class="node">
<title>Node3</title>
<g id="a_Node000003"><a xlink:title=" ">
<polygon fill="#e0e0e0" stroke="#999999" points="354.25,-32 213,-32 213,0 354.25,0 354.25,-32"/>
<text text-anchor="start" x="221" y="-18.5" font-family="Helvetica,sans-Serif" font-size="10.00">fr.softsf.sudokufx.interfaces.</text>
<text text-anchor="middle" x="283.62" y="-6.5" font-family="Helvetica,sans-Serif" font-size="10.00">IOsFolderFactory</text>
</a>
</g>
</g>
<!-- Node1&#45;&gt;Node3 -->
<g id="edge2_Node000001_Node000003" class="edge">
<title>Node1&#45;&gt;Node3</title>
<g id="a_edge2_Node000001_Node000003"><a xlink:title=" ">
<path fill="none" stroke="#63b8ff" d="M1163.25,-86.63C996.05,-81.94 659.61,-68.64 365.92,-32.32"/>
<polygon fill="#63b8ff" stroke="#63b8ff" points="366.48,-28.87 356.12,-31.1 365.61,-35.81 366.48,-28.87"/>
</a>
</g>
</g>
<!-- Node4 -->
<g id="Node000004" class="node">
<title>Node4</title>
<g id="a_Node000004"><a xlink:title=" ">
<polygon fill="#e0e0e0" stroke="#999999" points="493.12,-26 372.12,-26 372.12,-6 493.12,-6 493.12,-26"/>
<text text-anchor="middle" x="432.62" y="-12.5" font-family="Helvetica,sans-Serif" font-size="10.00">lombok.extern.slf4j.Slf4j</text>
</a>
</g>
</g>
<!-- Node1&#45;&gt;Node4 -->
<g id="edge3_Node000001_Node000004" class="edge">
<title>Node1&#45;&gt;Node4</title>
<g id="a_edge3_Node000001_Node000004"><a xlink:title=" ">
<path fill="none" stroke="#63b8ff" d="M1163.29,-85.83C1014.99,-80.32 736.51,-66.09 501.62,-32 495.48,-31.11 489.07,-29.98 482.74,-28.75"/>
<polygon fill="#63b8ff" stroke="#63b8ff" points="483.48,-25.33 472.98,-26.75 482.07,-32.19 483.48,-25.33"/>
</a>
</g>
</g>
<!-- Node5 -->
<g id="Node000005" class="node">
<title>Node5</title>
<g id="a_Node000005"><a xlink:title=" ">
<polygon fill="#e0e0e0" stroke="#999999" points="728.12,-32 511.12,-32 511.12,0 728.12,0 728.12,-32"/>
<text text-anchor="start" x="519.12" y="-18.5" font-family="Helvetica,sans-Serif" font-size="10.00">org.springframework.beans.factory.annotation.</text>
<text text-anchor="middle" x="619.62" y="-6.5" font-family="Helvetica,sans-Serif" font-size="10.00">Autowired</text>
</a>
</g>
</g>
<!-- Node1&#45;&gt;Node5 -->
<g id="edge4_Node000001_Node000005" class="edge">
<title>Node1&#45;&gt;Node5</title>
<g id="a_edge4_Node000001_Node000005"><a xlink:title=" ">
<path fill="none" stroke="#63b8ff" d="M1163.02,-78.28C1058.33,-67.51 893.05,-50.12 739.62,-32.22"/>
<polygon fill="#63b8ff" stroke="#63b8ff" points="740.43,-28.79 730.1,-31.11 739.62,-35.74 740.43,-28.79"/>
</a>
</g>
</g>
<!-- Node6 -->
<g id="Node000006" class="node">
<title>Node6</title>
<g id="a_Node000006"><a xlink:title=" ">
<polygon fill="#e0e0e0" stroke="#999999" points="902.75,-32 746.5,-32 746.5,0 902.75,0 902.75,-32"/>
<text text-anchor="start" x="754.5" y="-18.5" font-family="Helvetica,sans-Serif" font-size="10.00">org.springframework.stereotype.</text>
<text text-anchor="middle" x="824.62" y="-6.5" font-family="Helvetica,sans-Serif" font-size="10.00">Component</text>
</a>
</g>
</g>
<!-- Node1&#45;&gt;Node6 -->
<g id="edge5_Node000001_Node000006" class="edge">
<title>Node1&#45;&gt;Node6</title>
<g id="a_edge5_Node000001_Node000006"><a xlink:title=" ">
<path fill="none" stroke="#63b8ff" d="M1163.13,-72.51C1094.87,-61.75 1003.78,-47.25 914.09,-32.4"/>
<polygon fill="#63b8ff" stroke="#63b8ff" points="914.8,-28.97 904.36,-30.79 913.66,-35.87 914.8,-28.97"/>
</a>
</g>
</g>
<!-- Node7 -->
<g id="Node000007" class="node">
<title>Node7</title>
<g id="a_Node000007"><a xlink:title=" ">
<polygon fill="#e0e0e0" stroke="#999999" points="1052.75,-26 920.5,-26 920.5,-6 1052.75,-6 1052.75,-26"/>
<text text-anchor="middle" x="986.62" y="-12.5" font-family="Helvetica,sans-Serif" font-size="10.00">javax.crypto.KeyGenerator</text>
</a>
</g>
</g>
<!-- Node1&#45;&gt;Node7 -->
<g id="edge6_Node000001_Node000007" class="edge">
<title>Node1&#45;&gt;Node7</title>
<g id="a_edge6_Node000001_Node000007"><a xlink:title=" ">
<path fill="none" stroke="#63b8ff" d="M1184.78,-67.59C1135.81,-55.09 1075.76,-39.76 1034.69,-29.27"/>
<polygon fill="#63b8ff" stroke="#63b8ff" points="1035.65,-25.91 1025.1,-26.82 1033.92,-32.69 1035.65,-25.91"/>
</a>
</g>
</g>
<!-- Node8 -->
<g id="Node000008" class="node">
<title>Node8</title>
<g id="a_Node000008"><a xlink:title=" ">
<polygon fill="#e0e0e0" stroke="#999999" points="1188.62,-26 1070.62,-26 1070.62,-6 1188.62,-6 1188.62,-26"/>
<text text-anchor="middle" x="1129.62" y="-12.5" font-family="Helvetica,sans-Serif" font-size="10.00">javax.crypto.SecretKey</text>
</a>
</g>
</g>
<!-- Node1&#45;&gt;Node8 -->
<g id="edge7_Node000001_Node000008" class="edge">
<title>Node1&#45;&gt;Node8</title>
<g id="a_edge7_Node000001_Node000008"><a xlink:title=" ">
<path fill="none" stroke="#63b8ff" d="M1227.3,-67.59C1204.91,-56 1177.83,-41.97 1157.87,-31.63"/>
<polygon fill="#63b8ff" stroke="#63b8ff" points="1159.7,-28.64 1149.21,-27.14 1156.48,-34.85 1159.7,-28.64"/>
</a>
</g>
</g>
<!-- Node9 -->
<g id="Node000009" class="node">
<title>Node9</title>
<g id="a_Node000009"><a xlink:title=" ">
<polygon fill="#e0e0e0" stroke="#999999" points="1331,-32 1206.25,-32 1206.25,0 1331,0 1331,-32"/>
<text text-anchor="start" x="1214.25" y="-18.5" font-family="Helvetica,sans-Serif" font-size="10.00">javax.crypto.spec.Secret</text>
<text text-anchor="middle" x="1268.62" y="-6.5" font-family="Helvetica,sans-Serif" font-size="10.00">KeySpec</text>
</a>
</g>
</g>
<!-- Node1&#45;&gt;Node9 -->
<g id="edge8_Node000001_Node000009" class="edge">
<title>Node1&#45;&gt;Node9</title>
<g id="a_edge8_Node000001_Node000009"><a xlink:title=" ">
<path fill="none" stroke="#63b8ff" d="M1268.62,-67.79C1268.62,-60.18 1268.62,-51.52 1268.62,-43.52"/>
<polygon fill="#63b8ff" stroke="#63b8ff" points="1272.13,-43.64 1268.63,-33.64 1265.13,-43.64 1272.13,-43.64"/>
</a>
</g>
</g>
<!-- Node10 -->
<g id="Node000010" class="node">
<title>Node10</title>
<g id="a_Node000010"><a xlink:title=" ">
<polygon fill="#e0e0e0" stroke="#999999" points="1465.88,-26 1349.38,-26 1349.38,-6 1465.88,-6 1465.88,-26"/>
<text text-anchor="middle" x="1407.62" y="-12.5" font-family="Helvetica,sans-Serif" font-size="10.00">java.io.FileInputStream</text>
</a>
</g>
</g>
<!-- Node1&#45;&gt;Node10 -->
<g id="edge9_Node000001_Node000010" class="edge">
<title>Node1&#45;&gt;Node10</title>
<g id="a_edge9_Node000001_Node000010"><a xlink:title=" ">
<path fill="none" stroke="#63b8ff" d="M1309.95,-67.59C1332.34,-56 1359.42,-41.97 1379.38,-31.63"/>
<polygon fill="#63b8ff" stroke="#63b8ff" points="1380.77,-34.85 1388.04,-27.14 1377.55,-28.64 1380.77,-34.85"/>
</a>
</g>
</g>
<!-- Node11 -->
<g id="Node000011" class="node">
<title>Node11</title>
<g id="a_Node000011"><a xlink:title=" ">
<polygon fill="#e0e0e0" stroke="#999999" points="1607.62,-26 1483.62,-26 1483.62,-6 1607.62,-6 1607.62,-26"/>
<text text-anchor="middle" x="1545.62" y="-12.5" font-family="Helvetica,sans-Serif" font-size="10.00">java.io.FileOutputStream</text>
</a>
</g>
</g>
<!-- Node1&#45;&gt;Node11 -->
<g id="edge10_Node000001_Node000011" class="edge">
<title>Node1&#45;&gt;Node11</title>
<g id="a_edge10_Node000001_Node000011"><a xlink:title=" ">
<path fill="none" stroke="#63b8ff" d="M1350.98,-67.59C1398.99,-55.12 1457.82,-39.82 1498.16,-29.34"/>
<polygon fill="#63b8ff" stroke="#63b8ff" points="1499.01,-32.73 1507.81,-26.83 1497.25,-25.96 1499.01,-32.73"/>
</a>
</g>
</g>
<!-- Node12 -->
<g id="Node000012" class="node">
<title>Node12</title>
<g id="a_Node000012"><a xlink:title=" ">
<polygon fill="#e0e0e0" stroke="#999999" points="1727.38,-26 1625.88,-26 1625.88,-6 1727.38,-6 1727.38,-26"/>
<text text-anchor="middle" x="1676.62" y="-12.5" font-family="Helvetica,sans-Serif" font-size="10.00">java.io.IOException</text>
</a>
</g>
</g>
<!-- Node1&#45;&gt;Node12 -->
<g id="edge11_Node000001_Node000012" class="edge">
<title>Node1&#45;&gt;Node12</title>
<g id="a_edge11_Node000001_Node000012"><a xlink:title=" ">
<path fill="none" stroke="#63b8ff" d="M1374.12,-74.04C1443.33,-63.65 1535.68,-48.72 1616.62,-32 1620.94,-31.11 1625.41,-30.12 1629.88,-29.08"/>
<polygon fill="#63b8ff" stroke="#63b8ff" points="1630.5,-32.53 1639.41,-26.8 1628.87,-25.73 1630.5,-32.53"/>
</a>
</g>
</g>
<!-- Node13 -->
<g id="Node000013" class="node">
<title>Node13</title>
<g id="a_Node000013"><a xlink:title=" ">
<polygon fill="#e0e0e0" stroke="#999999" points="1872.12,-32 1745.12,-32 1745.12,0 1872.12,0 1872.12,-32"/>
<text text-anchor="start" x="1753.12" y="-18.5" font-family="Helvetica,sans-Serif" font-size="10.00">java.nio.charset.Standard</text>
<text text-anchor="middle" x="1808.62" y="-6.5" font-family="Helvetica,sans-Serif" font-size="10.00">Charsets</text>
</a>
</g>
</g>
<!-- Node1&#45;&gt;Node13 -->
<g id="edge12_Node000001_Node000013" class="edge">
<title>Node1&#45;&gt;Node13</title>
<g id="a_edge12_Node000001_Node000013"><a xlink:title=" ">
<path fill="none" stroke="#63b8ff" d="M1374,-78.73C1466.4,-69.13 1604.56,-53.35 1733.44,-32.45"/>
<polygon fill="#63b8ff" stroke="#63b8ff" points="1733.89,-35.93 1743.19,-30.86 1732.76,-29.02 1733.89,-35.93"/>
</a>
</g>
</g>
<!-- Node14 -->
<g id="Node000014" class="node">
<title>Node14</title>
<g id="a_Node000014"><a xlink:title=" ">
<polygon fill="#e0e0e0" stroke="#999999" points="1967.38,-26 1889.88,-26 1889.88,-6 1967.38,-6 1967.38,-26"/>
<text text-anchor="middle" x="1928.62" y="-12.5" font-family="Helvetica,sans-Serif" font-size="10.00">java.security.*</text>
</a>
</g>
</g>
<!-- Node1&#45;&gt;Node14 -->
<g id="edge13_Node000001_Node000014" class="edge">
<title>Node1&#45;&gt;Node14</title>
<g id="a_edge13_Node000001_Node000014"><a xlink:title=" ">
<path fill="none" stroke="#63b8ff" d="M1374.03,-86.11C1496.97,-81.15 1705.8,-67.79 1881.62,-32 1884.96,-31.32 1888.39,-30.49 1891.81,-29.58"/>
<polygon fill="#63b8ff" stroke="#63b8ff" points="1892.48,-33.03 1901.09,-26.85 1890.51,-26.31 1892.48,-33.03"/>
</a>
</g>
</g>
<!-- Node15 -->
<g id="Node000015" class="node">
<title>Node15</title>
<g id="a_Node000015"><a xlink:title=" ">
<polygon fill="#e0e0e0" stroke="#999999" points="2123.75,-32 1985.5,-32 1985.5,0 2123.75,0 2123.75,-32"/>
<text text-anchor="start" x="1993.5" y="-18.5" font-family="Helvetica,sans-Serif" font-size="10.00">java.security.cert.Certificate</text>
<text text-anchor="middle" x="2054.62" y="-6.5" font-family="Helvetica,sans-Serif" font-size="10.00">Exception</text>
</a>
</g>
</g>
<!-- Node1&#45;&gt;Node15 -->
<g id="edge14_Node000001_Node000015" class="edge">
<title>Node1&#45;&gt;Node15</title>
<g id="a_edge14_Node000001_Node000015"><a xlink:title=" ">
<path fill="none" stroke="#63b8ff" d="M1373.97,-84.13C1510.25,-77.02 1755.16,-61.5 1973.98,-32.26"/>
<polygon fill="#63b8ff" stroke="#63b8ff" points="1974.43,-35.74 1983.87,-30.93 1973.49,-28.8 1974.43,-35.74"/>
</a>
</g>
</g>
<!-- Node16 -->
<g id="Node000016" class="node">
<title>Node16</title>
<g id="a_Node000016"><a xlink:title=" ">
<polygon fill="#e0e0e0" stroke="#999999" points="2219.75,-26 2141.5,-26 2141.5,-6 2219.75,-6 2219.75,-26"/>
<text text-anchor="middle" x="2180.62" y="-12.5" font-family="Helvetica,sans-Serif" font-size="10.00">java.util.UUID</text>
</a>
</g>
</g>
<!-- Node1&#45;&gt;Node16 -->
<g id="edge15_Node000001_Node000016" class="edge">
<title>Node1&#45;&gt;Node16</title>
<g id="a_edge15_Node000001_Node000016"><a xlink:title=" ">
<path fill="none" stroke="#63b8ff" d="M1373.94,-85.18C1571.36,-77.49 1990.02,-58.6 2132.62,-32 2136.19,-31.34 2139.86,-30.49 2143.5,-29.55"/>
<polygon fill="#63b8ff" stroke="#63b8ff" points="2144.14,-33 2152.79,-26.89 2142.22,-26.27 2144.14,-33"/>
</a>
</g>
</g>
</g>
</svg>
