<?xml version="1.0" encoding="UTF-8" standalone="no"?>
<!DOCTYPE svg PUBLIC "-//W3C//DTD SVG 1.1//EN"
 "http://www.w3.org/Graphics/SVG/1.1/DTD/svg11.dtd">
<!-- Generated by graphviz version 12.2.1 (20241206.2353)
 -->
<!-- Title: src/main/java/fr/softsf/sudokufx/view/CrashScreenView.java Pages: 1 -->
<!--zoomable 108 -->

<svg id="main" version="1.1" xmlns="http://www.w3.org/2000/svg" xmlns:xlink="http://www.w3.org/1999/xlink" xml:space="preserve" onload="init(evt)">

<style type="text/css"><![CDATA[
.node, .edge {opacity: 0.7;}
.node.selected, .edge.selected {opacity: 1;}
.edge:hover path { stroke: red; }
.edge:hover polygon { stroke: red; fill: red; }
]]></style>

<defs>
  <circle id="rim" cx="0" cy="0" r="7"/>
  <circle id="rim2" cx="0" cy="0" r="3.5"/>
  <g id="zoomPlus">
    <use xlink:href="#rim" fill="#404040"><set attributeName="fill" to="#808080" begin="zoomplus.mouseover" end="zoomplus.mouseout"/></use>
    <path d="M-4,0h8M0,-4v8" fill="none" stroke="white" stroke-width="1.5" pointer-events="none"/>
  </g>
  <g id="zoomMin">
    <use xlink:href="#rim" fill="#404040"><set attributeName="fill" to="#808080" begin="zoomminus.mouseover" end="zoomminus.mouseout"/></use>
    <path d="M-4,0h8" fill="none" stroke="white" stroke-width="1.5" pointer-events="none"/>
  </g>
  <g id="arrowUp" transform="translate(30 24)">
    <use xlink:href="#rim"/>
    <path pointer-events="none" fill="none" stroke="white" stroke-width="1.5" d="M0,-3.0v7 M-2.5,-0.5L0,-3.0L2.5,-0.5"/>
  </g>
  <g id="arrowRight" transform="rotate(90) translate(36 -43)">
    <use xlink:href="#rim"/>
    <path pointer-events="none" fill="none" stroke="white" stroke-width="1.5" d="M0,-3.0v7 M-2.5,-0.5L0,-3.0L2.5,-0.5"/>
  </g>
  <g id="arrowDown" transform="rotate(180) translate(-30 -48)">
    <use xlink:href="#rim"/>
    <path pointer-events="none" fill="none" stroke="white" stroke-width="1.5" d="M0,-3.0v7 M-2.5,-0.5L0,-3.0L2.5,-0.5"/>
  </g>
  <g id="arrowLeft" transform="rotate(270) translate(-36 17)">
    <use xlink:href="#rim"/>
    <path pointer-events="none" fill="none" stroke="white" stroke-width="1.5" d="M0,-3.0v7 M-2.5,-0.5L0,-3.0L2.5,-0.5"/>
  </g>
  <g id="resetDef">
    <use xlink:href="#rim2" fill="#404040"><set attributeName="fill" to="#808080" begin="reset.mouseover" end="reset.mouseout"/></use>
  </g>
</defs>
<script type="application/ecmascript">
var viewWidth = 4730;
var viewHeight = 108;
var sectionId = 'dynsection-0';
</script>
<script type="application/ecmascript" xlink:href="svg.min.js"/>
<svg id="graph" class="graph">
<g id="viewport">
<title>src/main/java/fr/softsf/sudokufx/view/CrashScreenView.java</title>
<!-- Node1 -->
<g id="Node000001" class="node">
<title>Node1</title>
<g id="a_Node000001"><a xlink:title=" ">
<polygon fill="#999999" stroke="#666666" points="2566.5,-100 2382.5,-100 2382.5,-68 2566.5,-68 2566.5,-100"/>
<text text-anchor="start" x="2390.5" y="-86.5" font-family="Helvetica,sans-Serif" font-size="10.00">src/main/java/fr/softsf</text>
<text text-anchor="middle" x="2474.5" y="-74.5" font-family="Helvetica,sans-Serif" font-size="10.00">/sudokufx/view/CrashScreenView.java</text>
</a>
</g>
</g>
<!-- Node2 -->
<g id="Node000002" class="node">
<title>Node2</title>
<g id="a_Node000002"><a xlink:title=" ">
<polygon fill="#e0e0e0" stroke="#999999" points="139,-26 0,-26 0,-6 139,-6 139,-26"/>
<text text-anchor="middle" x="69.5" y="-12.5" font-family="Helvetica,sans-Serif" font-size="10.00">fr.softsf.sudokufx.SudoMain</text>
</a>
</g>
</g>
<!-- Node1&#45;&gt;Node2 -->
<g id="edge1_Node000001_Node000002" class="edge">
<title>Node1&#45;&gt;Node2</title>
<g id="a_edge1_Node000001_Node000002"><a xlink:title=" ">
<path fill="none" stroke="#63b8ff" d="M2382.08,-83.05C2006.31,-82.93 592.02,-79.27 147.5,-32 139.58,-31.16 131.26,-29.93 123.13,-28.54"/>
<polygon fill="#63b8ff" stroke="#63b8ff" points="123.77,-25.1 113.3,-26.75 122.51,-31.98 123.77,-25.1"/>
</a>
</g>
</g>
<!-- Node3 -->
<g id="Node000003" class="node">
<title>Node3</title>
<g id="a_Node000003"><a xlink:title=" ">
<polygon fill="#e0e0e0" stroke="#999999" points="324.25,-32 156.75,-32 156.75,0 324.25,0 324.25,-32"/>
<text text-anchor="start" x="164.75" y="-18.5" font-family="Helvetica,sans-Serif" font-size="10.00">fr.softsf.sudokufx.configuration.os.</text>
<text text-anchor="middle" x="240.5" y="-6.5" font-family="Helvetica,sans-Serif" font-size="10.00">IOsFolderFactory</text>
</a>
</g>
</g>
<!-- Node1&#45;&gt;Node3 -->
<g id="edge2_Node000001_Node000003" class="edge">
<title>Node1&#45;&gt;Node3</title>
<g id="a_edge2_Node000001_Node000003"><a xlink:title=" ">
<path fill="none" stroke="#63b8ff" d="M2382.3,-82.5C2029.3,-80.32 762.63,-70.03 336.12,-32.24"/>
<polygon fill="#63b8ff" stroke="#63b8ff" points="336.45,-28.76 326.18,-31.34 335.82,-35.73 336.45,-28.76"/>
</a>
</g>
</g>
<!-- Node4 -->
<g id="Node000004" class="node">
<title>Node4</title>
<g id="a_Node000004"><a xlink:title=" ">
<polygon fill="#e0e0e0" stroke="#999999" points="487,-26 342,-26 342,-6 487,-6 487,-26"/>
<text text-anchor="middle" x="414.5" y="-12.5" font-family="Helvetica,sans-Serif" font-size="10.00">fr.softsf.sudokufx.interfaces.*</text>
</a>
</g>
</g>
<!-- Node1&#45;&gt;Node4 -->
<g id="edge3_Node000001_Node000004" class="edge">
<title>Node1&#45;&gt;Node4</title>
<g id="a_edge3_Node000001_Node000004"><a xlink:title=" ">
<path fill="none" stroke="#63b8ff" d="M2382.18,-82.52C2043.45,-80.47 869.26,-70.66 496.5,-32 487.99,-31.12 479.04,-29.84 470.31,-28.4"/>
<polygon fill="#63b8ff" stroke="#63b8ff" points="470.95,-24.96 460.5,-26.7 469.75,-31.86 470.95,-24.96"/>
</a>
</g>
</g>
<!-- Node5 -->
<g id="Node000005" class="node">
<title>Node5</title>
<g id="a_Node000005"><a xlink:title=" ">
<polygon fill="#e0e0e0" stroke="#999999" points="621.75,-32 505.25,-32 505.25,0 621.75,0 621.75,-32"/>
<text text-anchor="start" x="513.25" y="-18.5" font-family="Helvetica,sans-Serif" font-size="10.00">fr.softsf.sudokufx.utils.</text>
<text text-anchor="middle" x="563.5" y="-6.5" font-family="Helvetica,sans-Serif" font-size="10.00">FileSystemManager</text>
</a>
</g>
</g>
<!-- Node1&#45;&gt;Node5 -->
<g id="edge4_Node000001_Node000005" class="edge">
<title>Node1&#45;&gt;Node5</title>
<g id="a_edge4_Node000001_Node000005"><a xlink:title=" ">
<path fill="none" stroke="#63b8ff" d="M2382.09,-82.76C2061.66,-81.56 998.44,-74.5 633.37,-32"/>
<polygon fill="#63b8ff" stroke="#63b8ff" points="633.83,-28.53 623.49,-30.82 633,-35.48 633.83,-28.53"/>
</a>
</g>
</g>
<!-- Node6 -->
<g id="Node000006" class="node">
<title>Node6</title>
<g id="a_Node000006"><a xlink:title=" ">
<polygon fill="#e0e0e0" stroke="#999999" points="786.75,-26 640.25,-26 640.25,-6 786.75,-6 786.75,-26"/>
<text text-anchor="middle" x="713.5" y="-12.5" font-family="Helvetica,sans-Serif" font-size="10.00">fr.softsf.sudokufx.enums.I18n</text>
</a>
</g>
</g>
<!-- Node1&#45;&gt;Node6 -->
<g id="edge5_Node000001_Node000006" class="edge">
<title>Node1&#45;&gt;Node6</title>
<g id="a_edge5_Node000001_Node000006"><a xlink:title=" ">
<path fill="none" stroke="#63b8ff" d="M2382.02,-82.03C2077.36,-78.53 1106.89,-65.02 795.5,-32 787.09,-31.11 778.26,-29.84 769.62,-28.42"/>
<polygon fill="#63b8ff" stroke="#63b8ff" points="770.38,-25 759.93,-26.74 769.18,-31.9 770.38,-25"/>
</a>
</g>
</g>
<!-- Node7 -->
<g id="Node000007" class="node">
<title>Node7</title>
<g id="a_Node000007"><a xlink:title=" ">
<polygon fill="#e0e0e0" stroke="#999999" points="958.5,-32 804.5,-32 804.5,0 958.5,0 958.5,-32"/>
<text text-anchor="start" x="812.5" y="-18.5" font-family="Helvetica,sans-Serif" font-size="10.00">fr.softsf.sudokufx.configuration.</text>
<text text-anchor="middle" x="881.5" y="-6.5" font-family="Helvetica,sans-Serif" font-size="10.00">JVMApplicationProperties</text>
</a>
</g>
</g>
<!-- Node1&#45;&gt;Node7 -->
<g id="edge6_Node000001_Node000007" class="edge">
<title>Node1&#45;&gt;Node7</title>
<g id="a_edge6_Node000001_Node000007"><a xlink:title=" ">
<path fill="none" stroke="#63b8ff" d="M2382.22,-81.56C2102.48,-76.92 1265.61,-61.06 969.92,-32.12"/>
<polygon fill="#63b8ff" stroke="#63b8ff" points="970.59,-28.67 960.29,-31.15 969.89,-35.64 970.59,-28.67"/>
</a>
</g>
</g>
<!-- Node8 -->
<g id="Node000008" class="node">
<title>Node8</title>
<g id="a_Node000008"><a xlink:title=" ">
<polygon fill="#e0e0e0" stroke="#999999" points="1144.25,-32 976.75,-32 976.75,0 1144.25,0 1144.25,-32"/>
<text text-anchor="start" x="984.75" y="-18.5" font-family="Helvetica,sans-Serif" font-size="10.00">fr.softsf.sudokufx.configuration.os.</text>
<text text-anchor="middle" x="1060.5" y="-6.5" font-family="Helvetica,sans-Serif" font-size="10.00">OsFolderFactoryManager</text>
</a>
</g>
</g>
<!-- Node1&#45;&gt;Node8 -->
<g id="edge7_Node000001_Node000008" class="edge">
<title>Node1&#45;&gt;Node8</title>
<g id="a_edge7_Node000001_Node000008"><a xlink:title=" ">
<path fill="none" stroke="#63b8ff" d="M2382.15,-83.28C2168.22,-83.1 1622.01,-77.85 1155.93,-32.15"/>
<polygon fill="#63b8ff" stroke="#63b8ff" points="1156.39,-28.68 1146.1,-31.18 1155.7,-35.65 1156.39,-28.68"/>
</a>
</g>
</g>
<!-- Node9 -->
<g id="Node000009" class="node">
<title>Node9</title>
<g id="a_Node000009"><a xlink:title=" ">
<polygon fill="#e0e0e0" stroke="#999999" points="1278.75,-32 1162.25,-32 1162.25,0 1278.75,0 1278.75,-32"/>
<text text-anchor="start" x="1170.25" y="-18.5" font-family="Helvetica,sans-Serif" font-size="10.00">fr.softsf.sudokufx.utils.</text>
<text text-anchor="middle" x="1220.5" y="-6.5" font-family="Helvetica,sans-Serif" font-size="10.00">IFileSystem</text>
</a>
</g>
</g>
<!-- Node1&#45;&gt;Node9 -->
<g id="edge8_Node000001_Node000009" class="edge">
<title>Node1&#45;&gt;Node9</title>
<g id="a_edge8_Node000001_Node000009"><a xlink:title=" ">
<path fill="none" stroke="#63b8ff" d="M2382.29,-81.11C2145.78,-75.94 1520.71,-60.13 1290.32,-32.01"/>
<polygon fill="#63b8ff" stroke="#63b8ff" points="1290.85,-28.55 1280.49,-30.77 1289.97,-35.5 1290.85,-28.55"/>
</a>
</g>
</g>
<!-- Node10 -->
<g id="Node000010" class="node">
<title>Node10</title>
<g id="a_Node000010"><a xlink:title=" ">
<polygon fill="#e0e0e0" stroke="#999999" points="1451.88,-26 1297.12,-26 1297.12,-6 1451.88,-6 1451.88,-26"/>
<text text-anchor="middle" x="1374.5" y="-12.5" font-family="Helvetica,sans-Serif" font-size="10.00">javafx.animation.FadeTransition</text>
</a>
</g>
</g>
<!-- Node1&#45;&gt;Node10 -->
<g id="edge9_Node000001_Node000010" class="edge">
<title>Node1&#45;&gt;Node10</title>
<g id="a_edge9_Node000001_Node000010"><a xlink:title=" ">
<path fill="none" stroke="#63b8ff" d="M2382.27,-82.13C2203.75,-79.62 1798.8,-69.87 1460.5,-32 1451.82,-31.03 1442.68,-29.73 1433.74,-28.31"/>
<polygon fill="#63b8ff" stroke="#63b8ff" points="1434.5,-24.89 1424.06,-26.7 1433.35,-31.79 1434.5,-24.89"/>
</a>
</g>
</g>
<!-- Node11 -->
<g id="Node000011" class="node">
<title>Node11</title>
<g id="a_Node000011"><a xlink:title=" ">
<polygon fill="#e0e0e0" stroke="#999999" points="1601.25,-26 1469.75,-26 1469.75,-6 1601.25,-6 1601.25,-26"/>
<text text-anchor="middle" x="1535.5" y="-12.5" font-family="Helvetica,sans-Serif" font-size="10.00">javafx.application.Platform</text>
</a>
</g>
</g>
<!-- Node1&#45;&gt;Node11 -->
<g id="edge10_Node000001_Node000011" class="edge">
<title>Node1&#45;&gt;Node11</title>
<g id="a_edge10_Node000001_Node000011"><a xlink:title=" ">
<path fill="none" stroke="#63b8ff" d="M2382.24,-81.83C2223.65,-78.86 1889.39,-68.43 1609.5,-32 1602.51,-31.09 1595.18,-29.9 1587.98,-28.59"/>
<polygon fill="#63b8ff" stroke="#63b8ff" points="1588.78,-25.18 1578.3,-26.73 1587.46,-32.05 1588.78,-25.18"/>
</a>
</g>
</g>
<!-- Node12 -->
<g id="Node000012" class="node">
<title>Node12</title>
<g id="a_Node000012"><a xlink:title=" ">
<polygon fill="#e0e0e0" stroke="#999999" points="1712.12,-26 1618.88,-26 1618.88,-6 1712.12,-6 1712.12,-26"/>
<text text-anchor="middle" x="1665.5" y="-12.5" font-family="Helvetica,sans-Serif" font-size="10.00">javafx.fxml.FXML</text>
</a>
</g>
</g>
<!-- Node1&#45;&gt;Node12 -->
<g id="edge11_Node000001_Node000012" class="edge">
<title>Node1&#45;&gt;Node12</title>
<g id="a_edge11_Node000001_Node000012"><a xlink:title=" ">
<path fill="none" stroke="#63b8ff" d="M2382.26,-82.5C2239.64,-80.43 1957.39,-71.2 1721.5,-32 1716.92,-31.24 1712.17,-30.27 1707.47,-29.18"/>
<polygon fill="#63b8ff" stroke="#63b8ff" points="1708.68,-25.87 1698.13,-26.86 1706.99,-32.67 1708.68,-25.87"/>
</a>
</g>
</g>
<!-- Node13 -->
<g id="Node000013" class="node">
<title>Node13</title>
<g id="a_Node000013"><a xlink:title=" ">
<polygon fill="#e0e0e0" stroke="#999999" points="1828.38,-26 1730.62,-26 1730.62,-6 1828.38,-6 1828.38,-26"/>
<text text-anchor="middle" x="1779.5" y="-12.5" font-family="Helvetica,sans-Serif" font-size="10.00">javafx.scene.Node</text>
</a>
</g>
</g>
<!-- Node1&#45;&gt;Node13 -->
<g id="edge12_Node000001_Node000013" class="edge">
<title>Node1&#45;&gt;Node13</title>
<g id="a_edge12_Node000001_Node000013"><a xlink:title=" ">
<path fill="none" stroke="#63b8ff" d="M2382.11,-80.61C2257.63,-76.26 2029.51,-64.27 1837.5,-32 1832.83,-31.21 1827.98,-30.23 1823.17,-29.15"/>
<polygon fill="#63b8ff" stroke="#63b8ff" points="1824.12,-25.78 1813.58,-26.84 1822.48,-32.59 1824.12,-25.78"/>
</a>
</g>
</g>
<!-- Node14 -->
<g id="Node000014" class="node">
<title>Node14</title>
<g id="a_Node000014"><a xlink:title=" ">
<polygon fill="#e0e0e0" stroke="#999999" points="1948.62,-26 1846.38,-26 1846.38,-6 1948.62,-6 1948.62,-26"/>
<text text-anchor="middle" x="1897.5" y="-12.5" font-family="Helvetica,sans-Serif" font-size="10.00">javafx.scene.Scene</text>
</a>
</g>
</g>
<!-- Node1&#45;&gt;Node14 -->
<g id="edge13_Node000001_Node000014" class="edge">
<title>Node1&#45;&gt;Node14</title>
<g id="a_edge13_Node000001_Node000014"><a xlink:title=" ">
<path fill="none" stroke="#63b8ff" d="M2382.43,-78C2278.61,-71.43 2105.02,-57.57 1957.5,-32 1952.61,-31.15 1947.52,-30.12 1942.48,-29"/>
<polygon fill="#63b8ff" stroke="#63b8ff" points="1943.59,-25.67 1933.06,-26.79 1941.99,-32.48 1943.59,-25.67"/>
</a>
</g>
</g>
<!-- Node15 -->
<g id="Node000015" class="node">
<title>Node15</title>
<g id="a_Node000015"><a xlink:title=" ">
<polygon fill="#e0e0e0" stroke="#999999" points="2102.12,-26 1966.88,-26 1966.88,-6 2102.12,-6 2102.12,-26"/>
<text text-anchor="middle" x="2034.5" y="-12.5" font-family="Helvetica,sans-Serif" font-size="10.00">javafx.scene.control.Button</text>
</a>
</g>
</g>
<!-- Node1&#45;&gt;Node15 -->
<g id="edge14_Node000001_Node000015" class="edge">
<title>Node1&#45;&gt;Node15</title>
<g id="a_edge14_Node000001_Node000015"><a xlink:title=" ">
<path fill="none" stroke="#63b8ff" d="M2382.17,-71.4C2308.68,-61.83 2203.29,-47.38 2111.5,-32 2105.13,-30.93 2098.48,-29.75 2091.87,-28.52"/>
<polygon fill="#63b8ff" stroke="#63b8ff" points="2092.81,-25.14 2082.33,-26.72 2091.51,-32.02 2092.81,-25.14"/>
</a>
</g>
</g>
<!-- Node16 -->
<g id="Node000016" class="node">
<title>Node16</title>
<g id="a_Node000016"><a xlink:title=" ">
<polygon fill="#e0e0e0" stroke="#999999" points="2250.5,-26 2120.5,-26 2120.5,-6 2250.5,-6 2250.5,-26"/>
<text text-anchor="middle" x="2185.5" y="-12.5" font-family="Helvetica,sans-Serif" font-size="10.00">javafx.scene.control.Label</text>
</a>
</g>
</g>
<!-- Node1&#45;&gt;Node16 -->
<g id="edge15_Node000001_Node000016" class="edge">
<title>Node1&#45;&gt;Node16</title>
<g id="a_edge15_Node000001_Node000016"><a xlink:title=" ">
<path fill="none" stroke="#63b8ff" d="M2406.74,-67.53C2355.16,-55.74 2285.18,-39.77 2237.85,-28.96"/>
<polygon fill="#63b8ff" stroke="#63b8ff" points="2238.93,-25.61 2228.4,-26.8 2237.37,-32.44 2238.93,-25.61"/>
</a>
</g>
</g>
<!-- Node17 -->
<g id="Node000017" class="node">
<title>Node17</title>
<g id="a_Node000017"><a xlink:title=" ">
<polygon fill="#e0e0e0" stroke="#999999" points="2390.75,-32 2268.25,-32 2268.25,0 2390.75,0 2390.75,-32"/>
<text text-anchor="start" x="2276.25" y="-18.5" font-family="Helvetica,sans-Serif" font-size="10.00">javafx.scene.effect.Drop</text>
<text text-anchor="middle" x="2329.5" y="-6.5" font-family="Helvetica,sans-Serif" font-size="10.00">Shadow</text>
</a>
</g>
</g>
<!-- Node1&#45;&gt;Node17 -->
<g id="edge16_Node000001_Node000017" class="edge">
<title>Node1&#45;&gt;Node17</title>
<g id="a_edge16_Node000001_Node000017"><a xlink:title=" ">
<path fill="none" stroke="#63b8ff" d="M2440.5,-67.53C2420.67,-58.5 2395.42,-47 2374.01,-37.26"/>
<polygon fill="#63b8ff" stroke="#63b8ff" points="2375.46,-34.08 2364.91,-33.12 2372.56,-40.45 2375.46,-34.08"/>
</a>
</g>
</g>
<!-- Node18 -->
<g id="Node000018" class="node">
<title>Node18</title>
<g id="a_Node000018"><a xlink:title=" ">
<polygon fill="#e0e0e0" stroke="#999999" points="2539.88,-26 2409.12,-26 2409.12,-6 2539.88,-6 2539.88,-26"/>
<text text-anchor="middle" x="2474.5" y="-12.5" font-family="Helvetica,sans-Serif" font-size="10.00">javafx.scene.image.Image</text>
</a>
</g>
</g>
<!-- Node1&#45;&gt;Node18 -->
<g id="edge17_Node000001_Node000018" class="edge">
<title>Node1&#45;&gt;Node18</title>
<g id="a_edge17_Node000001_Node000018"><a xlink:title=" ">
<path fill="none" stroke="#63b8ff" d="M2474.5,-67.69C2474.5,-58.8 2474.5,-47.46 2474.5,-37.77"/>
<polygon fill="#63b8ff" stroke="#63b8ff" points="2478,-37.83 2474.5,-27.83 2471,-37.83 2478,-37.83"/>
</a>
</g>
</g>
<!-- Node19 -->
<g id="Node000019" class="node">
<title>Node19</title>
<g id="a_Node000019"><a xlink:title=" ">
<polygon fill="#e0e0e0" stroke="#999999" points="2686.75,-26 2558.25,-26 2558.25,-6 2686.75,-6 2686.75,-26"/>
<text text-anchor="middle" x="2622.5" y="-12.5" font-family="Helvetica,sans-Serif" font-size="10.00">javafx.scene.layout.HBox</text>
</a>
</g>
</g>
<!-- Node1&#45;&gt;Node19 -->
<g id="edge18_Node000001_Node000019" class="edge">
<title>Node1&#45;&gt;Node19</title>
<g id="a_edge18_Node000001_Node000019"><a xlink:title=" ">
<path fill="none" stroke="#63b8ff" d="M2509.2,-67.53C2533.95,-56.49 2566.95,-41.77 2590.95,-31.07"/>
<polygon fill="#63b8ff" stroke="#63b8ff" points="2592.2,-34.35 2599.9,-27.08 2589.35,-27.95 2592.2,-34.35"/>
</a>
</g>
</g>
<!-- Node20 -->
<g id="Node000020" class="node">
<title>Node20</title>
<g id="a_Node000020"><a xlink:title=" ">
<polygon fill="#e0e0e0" stroke="#999999" points="2839.75,-26 2705.25,-26 2705.25,-6 2839.75,-6 2839.75,-26"/>
<text text-anchor="middle" x="2772.5" y="-12.5" font-family="Helvetica,sans-Serif" font-size="10.00">javafx.scene.layout.Region</text>
</a>
</g>
</g>
<!-- Node1&#45;&gt;Node20 -->
<g id="edge19_Node000001_Node000020" class="edge">
<title>Node1&#45;&gt;Node20</title>
<g id="a_edge19_Node000001_Node000020"><a xlink:title=" ">
<path fill="none" stroke="#63b8ff" d="M2544.37,-67.53C2597.67,-55.72 2670.02,-39.7 2718.83,-28.89"/>
<polygon fill="#63b8ff" stroke="#63b8ff" points="2719.3,-32.37 2728.31,-26.79 2717.79,-25.53 2719.3,-32.37"/>
</a>
</g>
</g>
<!-- Node21 -->
<g id="Node000021" class="node">
<title>Node21</title>
<g id="a_Node000021"><a xlink:title=" ">
<polygon fill="#e0e0e0" stroke="#999999" points="2985.38,-26 2857.62,-26 2857.62,-6 2985.38,-6 2985.38,-26"/>
<text text-anchor="middle" x="2921.5" y="-12.5" font-family="Helvetica,sans-Serif" font-size="10.00">javafx.scene.layout.VBox</text>
</a>
</g>
</g>
<!-- Node1&#45;&gt;Node21 -->
<g id="edge20_Node000001_Node000021" class="edge">
<title>Node1&#45;&gt;Node21</title>
<g id="a_edge20_Node000001_Node000021"><a xlink:title=" ">
<path fill="none" stroke="#63b8ff" d="M2566.98,-72.14C2642.83,-62.82 2752.9,-48.32 2848.5,-32 2854.48,-30.98 2860.71,-29.83 2866.91,-28.63"/>
<polygon fill="#63b8ff" stroke="#63b8ff" points="2867.36,-32.11 2876.49,-26.74 2866,-25.25 2867.36,-32.11"/>
</a>
</g>
</g>
<!-- Node22 -->
<g id="Node000022" class="node">
<title>Node22</title>
<g id="a_Node000022"><a xlink:title=" ">
<polygon fill="#e0e0e0" stroke="#999999" points="3125.38,-26 3003.62,-26 3003.62,-6 3125.38,-6 3125.38,-26"/>
<text text-anchor="middle" x="3064.5" y="-12.5" font-family="Helvetica,sans-Serif" font-size="10.00">javafx.scene.paint.Color</text>
</a>
</g>
</g>
<!-- Node1&#45;&gt;Node22 -->
<g id="edge21_Node000001_Node000022" class="edge">
<title>Node1&#45;&gt;Node22</title>
<g id="a_edge21_Node000001_Node000022"><a xlink:title=" ">
<path fill="none" stroke="#63b8ff" d="M2566.95,-77.11C2671.24,-69.73 2845.71,-55.16 2994.5,-32 3000.56,-31.06 3006.89,-29.92 3013.16,-28.7"/>
<polygon fill="#63b8ff" stroke="#63b8ff" points="3013.71,-32.16 3022.81,-26.73 3012.32,-25.3 3013.71,-32.16"/>
</a>
</g>
</g>
<!-- Node23 -->
<g id="Node000023" class="node">
<title>Node23</title>
<g id="a_Node000023"><a xlink:title=" ">
<polygon fill="#e0e0e0" stroke="#999999" points="3288,-26 3143,-26 3143,-6 3288,-6 3288,-26"/>
<text text-anchor="middle" x="3215.5" y="-12.5" font-family="Helvetica,sans-Serif" font-size="10.00">javafx.scene.shape.SVGPath</text>
</a>
</g>
</g>
<!-- Node1&#45;&gt;Node23 -->
<g id="edge22_Node000001_Node000023" class="edge">
<title>Node1&#45;&gt;Node23</title>
<g id="a_edge22_Node000001_Node000023"><a xlink:title=" ">
<path fill="none" stroke="#63b8ff" d="M2566.91,-78.95C2694.84,-72.65 2932.94,-58.37 3134.5,-32 3142.03,-31.02 3149.91,-29.79 3157.69,-28.48"/>
<polygon fill="#63b8ff" stroke="#63b8ff" points="3158.21,-31.94 3167.46,-26.76 3157,-25.04 3158.21,-31.94"/>
</a>
</g>
</g>
<!-- Node24 -->
<g id="Node000024" class="node">
<title>Node24</title>
<g id="a_Node000024"><a xlink:title=" ">
<polygon fill="#e0e0e0" stroke="#999999" points="3403.38,-26 3305.62,-26 3305.62,-6 3403.38,-6 3403.38,-26"/>
<text text-anchor="middle" x="3354.5" y="-12.5" font-family="Helvetica,sans-Serif" font-size="10.00">javafx.stage.Stage</text>
</a>
</g>
</g>
<!-- Node1&#45;&gt;Node24 -->
<g id="edge23_Node000001_Node000024" class="edge">
<title>Node1&#45;&gt;Node24</title>
<g id="a_edge23_Node000001_Node000024"><a xlink:title=" ">
<path fill="none" stroke="#63b8ff" d="M2566.79,-83.14C2719.7,-82.05 3034.79,-74.29 3297.5,-32 3302.22,-31.24 3307.11,-30.26 3311.96,-29.16"/>
<polygon fill="#63b8ff" stroke="#63b8ff" points="3312.73,-32.58 3321.61,-26.8 3311.06,-25.78 3312.73,-32.58"/>
</a>
</g>
</g>
<!-- Node25 -->
<g id="Node000025" class="node">
<title>Node25</title>
<g id="a_Node000025"><a xlink:title=" ">
<polygon fill="#e0e0e0" stroke="#999999" points="3541.62,-26 3421.38,-26 3421.38,-6 3541.62,-6 3541.62,-26"/>
<text text-anchor="middle" x="3481.5" y="-12.5" font-family="Helvetica,sans-Serif" font-size="10.00">javafx.stage.StageStyle</text>
</a>
</g>
</g>
<!-- Node1&#45;&gt;Node25 -->
<g id="edge24_Node000001_Node000025" class="edge">
<title>Node1&#45;&gt;Node25</title>
<g id="a_edge24_Node000001_Node000025"><a xlink:title=" ">
<path fill="none" stroke="#63b8ff" d="M2566.83,-82.86C2735.53,-81.51 3104.61,-73.57 3412.5,-32 3418.96,-31.13 3425.71,-29.97 3432.36,-28.69"/>
<polygon fill="#63b8ff" stroke="#63b8ff" points="3432.8,-32.17 3441.89,-26.73 3431.39,-25.31 3432.8,-32.17"/>
</a>
</g>
</g>
<!-- Node26 -->
<g id="Node000026" class="node">
<title>Node26</title>
<g id="a_Node000026"><a xlink:title=" ">
<polygon fill="#e0e0e0" stroke="#999999" points="3657.38,-26 3559.62,-26 3559.62,-6 3657.38,-6 3657.38,-26"/>
<text text-anchor="middle" x="3608.5" y="-12.5" font-family="Helvetica,sans-Serif" font-size="10.00">javafx.util.Duration</text>
</a>
</g>
</g>
<!-- Node1&#45;&gt;Node26 -->
<g id="edge25_Node000001_Node000026" class="edge">
<title>Node1&#45;&gt;Node26</title>
<g id="a_edge25_Node000001_Node000026"><a xlink:title=" ">
<path fill="none" stroke="#63b8ff" d="M2566.72,-81.07C2791.31,-75.96 3362.01,-60.53 3550.5,-32 3555.49,-31.24 3560.68,-30.24 3565.81,-29.1"/>
<polygon fill="#63b8ff" stroke="#63b8ff" points="3566.46,-32.54 3575.36,-26.8 3564.82,-25.73 3566.46,-32.54"/>
</a>
</g>
</g>
<!-- Node27 -->
<g id="Node000027" class="node">
<title>Node27</title>
<g id="a_Node000027"><a xlink:title=" ">
<polygon fill="#e0e0e0" stroke="#999999" points="3796,-26 3675,-26 3675,-6 3796,-6 3796,-26"/>
<text text-anchor="middle" x="3735.5" y="-12.5" font-family="Helvetica,sans-Serif" font-size="10.00">lombok.extern.slf4j.Slf4j</text>
</a>
</g>
</g>
<!-- Node1&#45;&gt;Node27 -->
<g id="edge26_Node000001_Node000027" class="edge">
<title>Node1&#45;&gt;Node27</title>
<g id="a_edge26_Node000001_Node000027"><a xlink:title=" ">
<path fill="none" stroke="#63b8ff" d="M2566.74,-81.1C2808.1,-75.8 3454.27,-59.4 3666.5,-32 3673.04,-31.16 3679.88,-30 3686.61,-28.71"/>
<polygon fill="#63b8ff" stroke="#63b8ff" points="3687.17,-32.17 3696.26,-26.73 3685.76,-25.31 3687.17,-32.17"/>
</a>
</g>
</g>
<!-- Node28 -->
<g id="Node000028" class="node">
<title>Node28</title>
<g id="a_Node000028"><a xlink:title=" ">
<polygon fill="#e0e0e0" stroke="#999999" points="3902.88,-26 3814.12,-26 3814.12,-6 3902.88,-6 3902.88,-26"/>
<text text-anchor="middle" x="3858.5" y="-12.5" font-family="Helvetica,sans-Serif" font-size="10.00">java.nio.file.Path</text>
</a>
</g>
</g>
<!-- Node1&#45;&gt;Node28 -->
<g id="edge27_Node000001_Node000028" class="edge">
<title>Node1&#45;&gt;Node28</title>
<g id="a_edge27_Node000001_Node000028"><a xlink:title=" ">
<path fill="none" stroke="#63b8ff" d="M2566.61,-82.31C2827.2,-79.92 3566.25,-69.89 3805.5,-32 3809.89,-31.3 3814.43,-30.37 3818.93,-29.3"/>
<polygon fill="#63b8ff" stroke="#63b8ff" points="3819.64,-32.73 3828.43,-26.82 3817.87,-25.96 3819.64,-32.73"/>
</a>
</g>
</g>
<!-- Node29 -->
<g id="Node000029" class="node">
<title>Node29</title>
<g id="a_Node000029"><a xlink:title=" ">
<polygon fill="#e0e0e0" stroke="#999999" points="4014.5,-26 3920.5,-26 3920.5,-6 4014.5,-6 4014.5,-26"/>
<text text-anchor="middle" x="3967.5" y="-12.5" font-family="Helvetica,sans-Serif" font-size="10.00">java.nio.file.Paths</text>
</a>
</g>
</g>
<!-- Node1&#45;&gt;Node29 -->
<g id="edge28_Node000001_Node000029" class="edge">
<title>Node1&#45;&gt;Node29</title>
<g id="a_edge28_Node000001_Node000029"><a xlink:title=" ">
<path fill="none" stroke="#63b8ff" d="M2566.97,-82.45C2841.81,-80.38 3650.73,-71.04 3911.5,-32 3916.26,-31.29 3921.19,-30.32 3926.07,-29.21"/>
<polygon fill="#63b8ff" stroke="#63b8ff" points="3926.91,-32.61 3935.78,-26.81 3925.23,-25.82 3926.91,-32.61"/>
</a>
</g>
</g>
<!-- Node30 -->
<g id="Node000030" class="node">
<title>Node30</title>
<g id="a_Node000030"><a xlink:title=" ">
<polygon fill="#e0e0e0" stroke="#999999" points="4110.62,-26 4032.38,-26 4032.38,-6 4110.62,-6 4110.62,-26"/>
<text text-anchor="middle" x="4071.5" y="-12.5" font-family="Helvetica,sans-Serif" font-size="10.00">java.time.Year</text>
</a>
</g>
</g>
<!-- Node1&#45;&gt;Node30 -->
<g id="edge29_Node000001_Node000030" class="edge">
<title>Node1&#45;&gt;Node30</title>
<g id="a_edge29_Node000001_Node000030"><a xlink:title=" ">
<path fill="none" stroke="#63b8ff" d="M2566.76,-83.22C2855.73,-83.4 3740.89,-79.9 4023.5,-32 4027.16,-31.38 4030.93,-30.55 4034.66,-29.6"/>
<polygon fill="#63b8ff" stroke="#63b8ff" points="4035.54,-32.99 4044.2,-26.89 4033.62,-26.26 4035.54,-32.99"/>
</a>
</g>
</g>
<!-- Node31 -->
<g id="Node000031" class="node">
<title>Node31</title>
<g id="a_Node000031"><a xlink:title=" ">
<polygon fill="#e0e0e0" stroke="#999999" points="4214.75,-26 4128.25,-26 4128.25,-6 4214.75,-6 4214.75,-26"/>
<text text-anchor="middle" x="4171.5" y="-12.5" font-family="Helvetica,sans-Serif" font-size="10.00">java.util.Objects</text>
</a>
</g>
</g>
<!-- Node1&#45;&gt;Node31 -->
<g id="edge30_Node000001_Node000031" class="edge">
<title>Node1&#45;&gt;Node31</title>
<g id="a_edge30_Node000001_Node000031"><a xlink:title=" ">
<path fill="none" stroke="#63b8ff" d="M2566.83,-83.17C2867.57,-83.23 3816.95,-79.56 4119.5,-32 4123.81,-31.32 4128.28,-30.4 4132.69,-29.33"/>
<polygon fill="#63b8ff" stroke="#63b8ff" points="4133.22,-32.81 4141.99,-26.87 4131.43,-26.05 4133.22,-32.81"/>
</a>
</g>
</g>
<!-- Node32 -->
<g id="Node000032" class="node">
<title>Node32</title>
<g id="a_Node000032"><a xlink:title=" ">
<polygon fill="#e0e0e0" stroke="#999999" points="4360.38,-32 4232.62,-32 4232.62,0 4360.38,0 4360.38,-32"/>
<text text-anchor="start" x="4240.62" y="-18.5" font-family="Helvetica,sans-Serif" font-size="10.00">fr.softsf.sudokufx.enums.</text>
<text text-anchor="middle" x="4296.5" y="-6.5" font-family="Helvetica,sans-Serif" font-size="10.00">Paths.DATA_FOLDER</text>
</a>
</g>
</g>
<!-- Node1&#45;&gt;Node32 -->
<g id="edge31_Node000001_Node000032" class="edge">
<title>Node1&#45;&gt;Node32</title>
<g id="a_edge31_Node000001_Node000032"><a xlink:title=" ">
<path fill="none" stroke="#63b8ff" d="M2566.74,-82.42C2876.04,-80.16 3875.8,-70.11 4221.24,-32.08"/>
<polygon fill="#63b8ff" stroke="#63b8ff" points="4221.46,-35.58 4231,-30.97 4220.67,-28.62 4221.46,-35.58"/>
</a>
</g>
</g>
<!-- Node33 -->
<g id="Node000033" class="node">
<title>Node33</title>
<g id="a_Node000033"><a xlink:title=" ">
<polygon fill="#e0e0e0" stroke="#999999" points="4542.75,-32 4378.25,-32 4378.25,0 4542.75,0 4542.75,-32"/>
<text text-anchor="start" x="4386.25" y="-18.5" font-family="Helvetica,sans-Serif" font-size="10.00">fr.softsf.sudokufx.enums.</text>
<text text-anchor="middle" x="4460.5" y="-6.5" font-family="Helvetica,sans-Serif" font-size="10.00">Paths.LOGO_SUDO_PNG_PATH</text>
</a>
</g>
</g>
<!-- Node1&#45;&gt;Node33 -->
<g id="edge32_Node000001_Node000033" class="edge">
<title>Node1&#45;&gt;Node33</title>
<g id="a_edge32_Node000001_Node000033"><a xlink:title=" ">
<path fill="none" stroke="#63b8ff" d="M2566.86,-82.19C2893,-79.05 3990.69,-66.24 4366.77,-32.14"/>
<polygon fill="#63b8ff" stroke="#63b8ff" points="4367.09,-35.63 4376.72,-31.22 4366.44,-28.66 4367.09,-35.63"/>
</a>
</g>
</g>
<!-- Node34 -->
<g id="Node000034" class="node">
<title>Node34</title>
<g id="a_Node000034"><a xlink:title=" ">
<polygon fill="#e0e0e0" stroke="#999999" points="4721.88,-32 4561.12,-32 4561.12,0 4721.88,0 4721.88,-32"/>
<text text-anchor="start" x="4569.12" y="-18.5" font-family="Helvetica,sans-Serif" font-size="10.00">fr.softsf.sudokufx.enums.</text>
<text text-anchor="middle" x="4641.5" y="-6.5" font-family="Helvetica,sans-Serif" font-size="10.00">ScreenSize.DISPOSABLE_SIZE</text>
</a>
</g>
</g>
<!-- Node1&#45;&gt;Node34 -->
<g id="edge33_Node000001_Node000034" class="edge">
<title>Node1&#45;&gt;Node34</title>
<g id="a_edge33_Node000001_Node000034"><a xlink:title=" ">
<path fill="none" stroke="#63b8ff" d="M2566.88,-82.46C2913.18,-80.17 4135.12,-69.63 4549.67,-32.04"/>
<polygon fill="#63b8ff" stroke="#63b8ff" points="4549.96,-35.53 4559.6,-31.11 4549.31,-28.56 4549.96,-35.53"/>
</a>
</g>
</g>
</g>
</svg>

<g id="navigator" transform="translate(0 0)" fill="#404254">
  <rect fill="#f2f5e9" fill-opacity="0.5" stroke="#606060" stroke-width=".5" x="0" y="0" width="60" height="60"/>
  <use id="zoomplus" xlink:href="#zoomPlus" x="17" y="9" onmousedown="handleZoom(evt,'in')"/>
  <use id="zoomminus" xlink:href="#zoomMin" x="42" y="9" onmousedown="handleZoom(evt,'out')"/>
  <use id="reset" xlink:href="#resetDef" x="30" y="36" onmousedown="handleReset()"/>
   <use id="arrowup" xlink:href="#arrowUp" x="0" y="0" onmousedown="handlePan(0,-1)"/>
  <use id="arrowright" xlink:href="#arrowRight" x="0" y="0" onmousedown="handlePan(1,0)"/>
  <use id="arrowdown" xlink:href="#arrowDown" x="0" y="0" onmousedown="handlePan(0,1)"/>
  <use id="arrowleft" xlink:href="#arrowLeft" x="0" y="0" onmousedown="handlePan(-1,0)"/>
</g>
<svg viewBox="0 0 15 15" width="100%" height="30px" preserveAspectRatio="xMaxYMin meet">
 <g id="arrow_out" transform="scale(0.3 0.3)">
  <a xlink:href="_crash_screen_view_8java__incl_org.svg" target="_base">
   <rect id="button" ry="5" rx="5" y="6" x="6" height="38" width="38"
        fill="#f2f5e9" fill-opacity="0.5" stroke="#606060" stroke-width="1.0"/>
   <path id="arrow"
     d="M 11.500037,31.436501 C 11.940474,20.09759 22.043105,11.32322 32.158766,21.979434 L 37.068811,17.246167 C 37.068811,17.246167 37.088388,32 37.088388,32 L 22.160133,31.978069 C 22.160133,31.978069 26.997745,27.140456 26.997745,27.140456 C 18.528582,18.264221 13.291696,25.230495 11.500037,31.436501 z"
     style="fill:#404040;"/>
  </a>
 </g>
</svg>

<style type='text/css'>
<![CDATA[
[data-mouse-over-selected='false'] { opacity: 0.7; }
[data-mouse-over-selected='true']  { opacity: 1.0; }
]]>
</style>
<script type="application/ecmascript"><![CDATA[
document.addEventListener('DOMContentLoaded', (event) => {
  highlightEdges();
  highlightAdjacentNodes();
});
]]></script>
</svg>
