<?xml version="1.0" encoding="UTF-8" standalone="no"?>
<!DOCTYPE svg PUBLIC "-//W3C//DTD SVG 1.1//EN"
 "http://www.w3.org/Graphics/SVG/1.1/DTD/svg11.dtd">
<!-- Generated by graphviz version 12.2.1 (20241206.2353)
 -->
<!-- Title: src/main/java/fr/softsf/sudokufx/view/CrashScreenView.java Pages: 1 -->
<!--zoomable 120 -->

<svg id="main" version="1.1" xmlns="http://www.w3.org/2000/svg" xmlns:xlink="http://www.w3.org/1999/xlink" xml:space="preserve" onload="init(evt)">

<style type="text/css"><![CDATA[
.node, .edge {opacity: 0.7;}
.node.selected, .edge.selected {opacity: 1;}
.edge:hover path { stroke: red; }
.edge:hover polygon { stroke: red; fill: red; }
]]></style>

<defs>
  <circle id="rim" cx="0" cy="0" r="7"/>
  <circle id="rim2" cx="0" cy="0" r="3.5"/>
  <g id="zoomPlus">
    <use xlink:href="#rim" fill="#404040"><set attributeName="fill" to="#808080" begin="zoomplus.mouseover" end="zoomplus.mouseout"/></use>
    <path d="M-4,0h8M0,-4v8" fill="none" stroke="white" stroke-width="1.5" pointer-events="none"/>
  </g>
  <g id="zoomMin">
    <use xlink:href="#rim" fill="#404040"><set attributeName="fill" to="#808080" begin="zoomminus.mouseover" end="zoomminus.mouseout"/></use>
    <path d="M-4,0h8" fill="none" stroke="white" stroke-width="1.5" pointer-events="none"/>
  </g>
  <g id="arrowUp" transform="translate(30 24)">
    <use xlink:href="#rim"/>
    <path pointer-events="none" fill="none" stroke="white" stroke-width="1.5" d="M0,-3.0v7 M-2.5,-0.5L0,-3.0L2.5,-0.5"/>
  </g>
  <g id="arrowRight" transform="rotate(90) translate(36 -43)">
    <use xlink:href="#rim"/>
    <path pointer-events="none" fill="none" stroke="white" stroke-width="1.5" d="M0,-3.0v7 M-2.5,-0.5L0,-3.0L2.5,-0.5"/>
  </g>
  <g id="arrowDown" transform="rotate(180) translate(-30 -48)">
    <use xlink:href="#rim"/>
    <path pointer-events="none" fill="none" stroke="white" stroke-width="1.5" d="M0,-3.0v7 M-2.5,-0.5L0,-3.0L2.5,-0.5"/>
  </g>
  <g id="arrowLeft" transform="rotate(270) translate(-36 17)">
    <use xlink:href="#rim"/>
    <path pointer-events="none" fill="none" stroke="white" stroke-width="1.5" d="M0,-3.0v7 M-2.5,-0.5L0,-3.0L2.5,-0.5"/>
  </g>
  <g id="resetDef">
    <use xlink:href="#rim2" fill="#404040"><set attributeName="fill" to="#808080" begin="reset.mouseover" end="reset.mouseout"/></use>
  </g>
</defs>
<script type="application/ecmascript">
var viewWidth = 4486;
var viewHeight = 120;
var sectionId = 'dynsection-0';
</script>
<script type="application/ecmascript" xlink:href="svg.min.js"/>
<svg id="graph" class="graph">
<g id="viewport">
<title>src/main/java/fr/softsf/sudokufx/view/CrashScreenView.java</title>
<!-- Node1 -->
<g id="Node000001" class="node">
<title>Node1</title>
<g id="a_Node000001"><a xlink:title=" ">
<polygon fill="#999999" stroke="#666666" points="2383.5,-112 2199.5,-112 2199.5,-80 2383.5,-80 2383.5,-112"/>
<text text-anchor="start" x="2207.5" y="-98.5" font-family="Helvetica,sans-Serif" font-size="10.00">src/main/java/fr/softsf</text>
<text text-anchor="middle" x="2291.5" y="-86.5" font-family="Helvetica,sans-Serif" font-size="10.00">/sudokufx/view/CrashScreenView.java</text>
</a>
</g>
</g>
<!-- Node2 -->
<g id="Node000002" class="node">
<title>Node2</title>
<g id="a_Node000002"><a xlink:title=" ">
<polygon fill="#e0e0e0" stroke="#999999" points="139,-32 0,-32 0,-12 139,-12 139,-32"/>
<text text-anchor="middle" x="69.5" y="-18.5" font-family="Helvetica,sans-Serif" font-size="10.00">fr.softsf.sudokufx.SudoMain</text>
</a>
</g>
</g>
<!-- Node1&#45;&gt;Node2 -->
<g id="edge1_Node000001_Node000002" class="edge">
<title>Node1&#45;&gt;Node2</title>
<g id="a_edge1_Node000001_Node000002"><a xlink:title=" ">
<path fill="none" stroke="#63b8ff" d="M2199.24,-94.11C1814.97,-90.21 352.08,-73.54 147.5,-44 134.75,-42.16 121.1,-38.93 108.85,-35.56"/>
<polygon fill="#63b8ff" stroke="#63b8ff" points="110.08,-32.27 99.5,-32.87 108.14,-39 110.08,-32.27"/>
</a>
</g>
</g>
<!-- Node3 -->
<g id="Node000003" class="node">
<title>Node3</title>
<g id="a_Node000003"><a xlink:title=" ">
<polygon fill="#e0e0e0" stroke="#999999" points="302,-32 157,-32 157,-12 302,-12 302,-32"/>
<text text-anchor="middle" x="229.5" y="-18.5" font-family="Helvetica,sans-Serif" font-size="10.00">fr.softsf.sudokufx.interfaces.*</text>
</a>
</g>
</g>
<!-- Node1&#45;&gt;Node3 -->
<g id="edge2_Node000001_Node000003" class="edge">
<title>Node1&#45;&gt;Node3</title>
<g id="a_edge2_Node000001_Node000003"><a xlink:title=" ">
<path fill="none" stroke="#63b8ff" d="M2199.28,-95.37C1860.22,-96.32 683.16,-95.7 311.5,-44 297.99,-42.12 283.5,-38.84 270.51,-35.43"/>
<polygon fill="#63b8ff" stroke="#63b8ff" points="271.58,-32.09 261.01,-32.83 269.73,-38.84 271.58,-32.09"/>
</a>
</g>
</g>
<!-- Node4 -->
<g id="Node000004" class="node">
<title>Node4</title>
<g id="a_Node000004"><a xlink:title=" ">
<polygon fill="#e0e0e0" stroke="#999999" points="436.75,-38 320.25,-38 320.25,-6 436.75,-6 436.75,-38"/>
<text text-anchor="start" x="328.25" y="-24.5" font-family="Helvetica,sans-Serif" font-size="10.00">fr.softsf.sudokufx.utils.</text>
<text text-anchor="middle" x="378.5" y="-12.5" font-family="Helvetica,sans-Serif" font-size="10.00">FileSystemManager</text>
</a>
</g>
</g>
<!-- Node1&#45;&gt;Node4 -->
<g id="edge3_Node000001_Node000004" class="edge">
<title>Node1&#45;&gt;Node4</title>
<g id="a_edge3_Node000001_Node000004"><a xlink:title=" ">
<path fill="none" stroke="#63b8ff" d="M2199.01,-93.94C1849.3,-89.73 618.83,-72.98 445.5,-44 441.23,-43.29 436.85,-42.36 432.48,-41.31"/>
<polygon fill="#63b8ff" stroke="#63b8ff" points="433.71,-38.01 423.15,-38.83 431.91,-44.78 433.71,-38.01"/>
</a>
</g>
</g>
<!-- Node5 -->
<g id="Node000005" class="node">
<title>Node5</title>
<g id="a_Node000005"><a xlink:title=" ">
<polygon fill="#e0e0e0" stroke="#999999" points="590.12,-32 454.88,-32 454.88,-12 590.12,-12 590.12,-32"/>
<text text-anchor="middle" x="522.5" y="-18.5" font-family="Helvetica,sans-Serif" font-size="10.00">fr.softsf.sudokufx.utils.I18n</text>
</a>
</g>
</g>
<!-- Node1&#45;&gt;Node5 -->
<g id="edge4_Node000001_Node000005" class="edge">
<title>Node1&#45;&gt;Node5</title>
<g id="a_edge4_Node000001_Node000005"><a xlink:title=" ">
<path fill="none" stroke="#63b8ff" d="M2199.25,-95.08C1893.02,-94.91 911.96,-90.65 599.5,-44 587.04,-42.14 573.71,-38.95 561.71,-35.61"/>
<polygon fill="#63b8ff" stroke="#63b8ff" points="562.71,-32.26 552.13,-32.83 560.76,-38.98 562.71,-32.26"/>
</a>
</g>
</g>
<!-- Node6 -->
<g id="Node000006" class="node">
<title>Node6</title>
<g id="a_Node000006"><a xlink:title=" ">
<polygon fill="#e0e0e0" stroke="#999999" points="762.5,-38 608.5,-38 608.5,-6 762.5,-6 762.5,-38"/>
<text text-anchor="start" x="616.5" y="-24.5" font-family="Helvetica,sans-Serif" font-size="10.00">fr.softsf.sudokufx.configuration.</text>
<text text-anchor="middle" x="685.5" y="-12.5" font-family="Helvetica,sans-Serif" font-size="10.00">JVMApplicationProperties</text>
</a>
</g>
</g>
<!-- Node1&#45;&gt;Node6 -->
<g id="edge5_Node000001_Node000006" class="edge">
<title>Node1&#45;&gt;Node6</title>
<g id="a_edge5_Node000001_Node000006"><a xlink:title=" ">
<path fill="none" stroke="#63b8ff" d="M2199.08,-94.39C1913.79,-92.12 1049.51,-82.19 771.5,-44 765.41,-43.16 759.12,-42.08 752.85,-40.84"/>
<polygon fill="#63b8ff" stroke="#63b8ff" points="753.61,-37.42 743.1,-38.77 752.16,-44.27 753.61,-37.42"/>
</a>
</g>
</g>
<!-- Node7 -->
<g id="Node000007" class="node">
<title>Node7</title>
<g id="a_Node000007"><a xlink:title=" ">
<polygon fill="#e0e0e0" stroke="#999999" points="948.25,-38 780.75,-38 780.75,-6 948.25,-6 948.25,-38"/>
<text text-anchor="start" x="788.75" y="-24.5" font-family="Helvetica,sans-Serif" font-size="10.00">fr.softsf.sudokufx.configuration.os.</text>
<text text-anchor="middle" x="864.5" y="-12.5" font-family="Helvetica,sans-Serif" font-size="10.00">OsFolderFactoryManager</text>
</a>
</g>
</g>
<!-- Node1&#45;&gt;Node7 -->
<g id="edge6_Node000001_Node000007" class="edge">
<title>Node1&#45;&gt;Node7</title>
<g id="a_edge6_Node000001_Node000007"><a xlink:title=" ">
<path fill="none" stroke="#63b8ff" d="M2199.28,-93.68C1938.35,-89.6 1198.22,-75.51 957.5,-44 950.74,-43.12 943.75,-41.97 936.78,-40.68"/>
<polygon fill="#63b8ff" stroke="#63b8ff" points="937.47,-37.24 926.98,-38.74 936.11,-44.11 937.47,-37.24"/>
</a>
</g>
</g>
<!-- Node8 -->
<g id="Node000008" class="node">
<title>Node8</title>
<g id="a_Node000008"><a xlink:title=" ">
<polygon fill="#e0e0e0" stroke="#999999" points="1120.88,-32 966.12,-32 966.12,-12 1120.88,-12 1120.88,-32"/>
<text text-anchor="middle" x="1043.5" y="-18.5" font-family="Helvetica,sans-Serif" font-size="10.00">javafx.animation.FadeTransition</text>
</a>
</g>
</g>
<!-- Node1&#45;&gt;Node8 -->
<g id="edge7_Node000001_Node000008" class="edge">
<title>Node1&#45;&gt;Node8</title>
<g id="a_edge7_Node000001_Node000008"><a xlink:title=" ">
<path fill="none" stroke="#63b8ff" d="M2199.4,-93.28C1962.35,-88.5 1335.4,-73.37 1129.5,-44 1115.47,-42 1100.4,-38.72 1086.85,-35.33"/>
<polygon fill="#63b8ff" stroke="#63b8ff" points="1087.9,-31.99 1077.34,-32.87 1086.15,-38.77 1087.9,-31.99"/>
</a>
</g>
</g>
<!-- Node9 -->
<g id="Node000009" class="node">
<title>Node9</title>
<g id="a_Node000009"><a xlink:title=" ">
<polygon fill="#e0e0e0" stroke="#999999" points="1270.25,-32 1138.75,-32 1138.75,-12 1270.25,-12 1270.25,-32"/>
<text text-anchor="middle" x="1204.5" y="-18.5" font-family="Helvetica,sans-Serif" font-size="10.00">javafx.application.Platform</text>
</a>
</g>
</g>
<!-- Node1&#45;&gt;Node9 -->
<g id="edge8_Node000001_Node000009" class="edge">
<title>Node1&#45;&gt;Node9</title>
<g id="a_edge8_Node000001_Node000009"><a xlink:title=" ">
<path fill="none" stroke="#63b8ff" d="M2199.12,-93.02C1983.9,-87.98 1454.09,-72.95 1278.5,-44 1266.84,-42.08 1254.4,-38.97 1243.11,-35.74"/>
<polygon fill="#63b8ff" stroke="#63b8ff" points="1244.31,-32.44 1233.72,-32.93 1242.3,-39.15 1244.31,-32.44"/>
</a>
</g>
</g>
<!-- Node10 -->
<g id="Node000010" class="node">
<title>Node10</title>
<g id="a_Node000010"><a xlink:title=" ">
<polygon fill="#e0e0e0" stroke="#999999" points="1381.12,-32 1287.88,-32 1287.88,-12 1381.12,-12 1381.12,-32"/>
<text text-anchor="middle" x="1334.5" y="-18.5" font-family="Helvetica,sans-Serif" font-size="10.00">javafx.fxml.FXML</text>
</a>
</g>
</g>
<!-- Node1&#45;&gt;Node10 -->
<g id="edge9_Node000001_Node000010" class="edge">
<title>Node1&#45;&gt;Node10</title>
<g id="a_edge9_Node000001_Node000010"><a xlink:title=" ">
<path fill="none" stroke="#63b8ff" d="M2199.33,-93.31C2001.72,-89.1 1542.85,-76.1 1390.5,-44 1382.28,-42.27 1373.67,-39.53 1365.73,-36.61"/>
<polygon fill="#63b8ff" stroke="#63b8ff" points="1367.06,-33.37 1356.47,-32.97 1364.5,-39.88 1367.06,-33.37"/>
</a>
</g>
</g>
<!-- Node11 -->
<g id="Node000011" class="node">
<title>Node11</title>
<g id="a_Node000011"><a xlink:title=" ">
<polygon fill="#e0e0e0" stroke="#999999" points="1497.38,-32 1399.62,-32 1399.62,-12 1497.38,-12 1497.38,-32"/>
<text text-anchor="middle" x="1448.5" y="-18.5" font-family="Helvetica,sans-Serif" font-size="10.00">javafx.scene.Node</text>
</a>
</g>
</g>
<!-- Node1&#45;&gt;Node11 -->
<g id="edge10_Node000001_Node000011" class="edge">
<title>Node1&#45;&gt;Node11</title>
<g id="a_edge10_Node000001_Node000011"><a xlink:title=" ">
<path fill="none" stroke="#63b8ff" d="M2199.18,-92.27C2021.11,-86.46 1636.34,-71.15 1506.5,-44 1498,-42.22 1489.06,-39.46 1480.81,-36.52"/>
<polygon fill="#63b8ff" stroke="#63b8ff" points="1482.12,-33.27 1471.52,-33.01 1479.64,-39.82 1482.12,-33.27"/>
</a>
</g>
</g>
<!-- Node12 -->
<g id="Node000012" class="node">
<title>Node12</title>
<g id="a_Node000012"><a xlink:title=" ">
<polygon fill="#e0e0e0" stroke="#999999" points="1617.62,-32 1515.38,-32 1515.38,-12 1617.62,-12 1617.62,-32"/>
<text text-anchor="middle" x="1566.5" y="-18.5" font-family="Helvetica,sans-Serif" font-size="10.00">javafx.scene.Scene</text>
</a>
</g>
</g>
<!-- Node1&#45;&gt;Node12 -->
<g id="edge11_Node000001_Node000012" class="edge">
<title>Node1&#45;&gt;Node12</title>
<g id="a_edge11_Node000001_Node000012"><a xlink:title=" ">
<path fill="none" stroke="#63b8ff" d="M2199,-95.45C2069.56,-94.38 1827.66,-86.16 1626.5,-44 1617.64,-42.14 1608.29,-39.32 1599.69,-36.34"/>
<polygon fill="#63b8ff" stroke="#63b8ff" points="1600.91,-33.06 1590.32,-32.92 1598.51,-39.64 1600.91,-33.06"/>
</a>
</g>
</g>
<!-- Node13 -->
<g id="Node000013" class="node">
<title>Node13</title>
<g id="a_Node000013"><a xlink:title=" ">
<polygon fill="#e0e0e0" stroke="#999999" points="1771.12,-32 1635.88,-32 1635.88,-12 1771.12,-12 1771.12,-32"/>
<text text-anchor="middle" x="1703.5" y="-18.5" font-family="Helvetica,sans-Serif" font-size="10.00">javafx.scene.control.Button</text>
</a>
</g>
</g>
<!-- Node1&#45;&gt;Node13 -->
<g id="edge12_Node000001_Node000013" class="edge">
<title>Node1&#45;&gt;Node13</title>
<g id="a_edge12_Node000001_Node000013"><a xlink:title=" ">
<path fill="none" stroke="#63b8ff" d="M2199.47,-90.45C2096.65,-84.29 1925.59,-70.83 1780.5,-44 1768.63,-41.8 1755.91,-38.67 1744.31,-35.49"/>
<polygon fill="#63b8ff" stroke="#63b8ff" points="1745.62,-32.22 1735.04,-32.87 1743.71,-38.96 1745.62,-32.22"/>
</a>
</g>
</g>
<!-- Node14 -->
<g id="Node000014" class="node">
<title>Node14</title>
<g id="a_Node000014"><a xlink:title=" ">
<polygon fill="#e0e0e0" stroke="#999999" points="1919.5,-32 1789.5,-32 1789.5,-12 1919.5,-12 1919.5,-32"/>
<text text-anchor="middle" x="1854.5" y="-18.5" font-family="Helvetica,sans-Serif" font-size="10.00">javafx.scene.control.Label</text>
</a>
</g>
</g>
<!-- Node1&#45;&gt;Node14 -->
<g id="edge13_Node000001_Node000014" class="edge">
<title>Node1&#45;&gt;Node14</title>
<g id="a_edge13_Node000001_Node000014"><a xlink:title=" ">
<path fill="none" stroke="#63b8ff" d="M2199.14,-85.56C2125.42,-77.18 2019.72,-63.26 1928.5,-44 1917.54,-41.69 1905.82,-38.64 1895.01,-35.58"/>
<polygon fill="#63b8ff" stroke="#63b8ff" points="1896.19,-32.27 1885.61,-32.84 1894.23,-38.99 1896.19,-32.27"/>
</a>
</g>
</g>
<!-- Node15 -->
<g id="Node000015" class="node">
<title>Node15</title>
<g id="a_Node000015"><a xlink:title=" ">
<polygon fill="#e0e0e0" stroke="#999999" points="2059.75,-38 1937.25,-38 1937.25,-6 2059.75,-6 2059.75,-38"/>
<text text-anchor="start" x="1945.25" y="-24.5" font-family="Helvetica,sans-Serif" font-size="10.00">javafx.scene.effect.Drop</text>
<text text-anchor="middle" x="1998.5" y="-12.5" font-family="Helvetica,sans-Serif" font-size="10.00">Shadow</text>
</a>
</g>
</g>
<!-- Node1&#45;&gt;Node15 -->
<g id="edge14_Node000001_Node000015" class="edge">
<title>Node1&#45;&gt;Node15</title>
<g id="a_edge14_Node000001_Node000015"><a xlink:title=" ">
<path fill="none" stroke="#63b8ff" d="M2218.99,-79.53C2175.48,-69.95 2119.13,-57.03 2069.5,-44 2066.41,-43.19 2063.25,-42.34 2060.07,-41.46"/>
<polygon fill="#63b8ff" stroke="#63b8ff" points="2061.23,-38.15 2050.66,-38.82 2059.34,-44.89 2061.23,-38.15"/>
</a>
</g>
</g>
<!-- Node16 -->
<g id="Node000016" class="node">
<title>Node16</title>
<g id="a_Node000016"><a xlink:title=" ">
<polygon fill="#e0e0e0" stroke="#999999" points="2208.88,-32 2078.12,-32 2078.12,-12 2208.88,-12 2208.88,-32"/>
<text text-anchor="middle" x="2143.5" y="-18.5" font-family="Helvetica,sans-Serif" font-size="10.00">javafx.scene.image.Image</text>
</a>
</g>
</g>
<!-- Node1&#45;&gt;Node16 -->
<g id="edge15_Node000001_Node000016" class="edge">
<title>Node1&#45;&gt;Node16</title>
<g id="a_edge15_Node000001_Node000016"><a xlink:title=" ">
<path fill="none" stroke="#63b8ff" d="M2259.75,-79.55C2234.04,-67.04 2198.09,-49.56 2173,-37.35"/>
<polygon fill="#63b8ff" stroke="#63b8ff" points="2174.85,-34.36 2164.33,-33.13 2171.79,-40.66 2174.85,-34.36"/>
</a>
</g>
</g>
<!-- Node17 -->
<g id="Node000017" class="node">
<title>Node17</title>
<g id="a_Node000017"><a xlink:title=" ">
<polygon fill="#e0e0e0" stroke="#999999" points="2355.75,-32 2227.25,-32 2227.25,-12 2355.75,-12 2355.75,-32"/>
<text text-anchor="middle" x="2291.5" y="-18.5" font-family="Helvetica,sans-Serif" font-size="10.00">javafx.scene.layout.HBox</text>
</a>
</g>
</g>
<!-- Node1&#45;&gt;Node17 -->
<g id="edge16_Node000001_Node000017" class="edge">
<title>Node1&#45;&gt;Node17</title>
<g id="a_edge16_Node000001_Node000017"><a xlink:title=" ">
<path fill="none" stroke="#63b8ff" d="M2291.5,-79.73C2291.5,-69.18 2291.5,-55.03 2291.5,-43.5"/>
<polygon fill="#63b8ff" stroke="#63b8ff" points="2295,-43.82 2291.5,-33.82 2288,-43.82 2295,-43.82"/>
</a>
</g>
</g>
<!-- Node18 -->
<g id="Node000018" class="node">
<title>Node18</title>
<g id="a_Node000018"><a xlink:title=" ">
<polygon fill="#e0e0e0" stroke="#999999" points="2508.75,-32 2374.25,-32 2374.25,-12 2508.75,-12 2508.75,-32"/>
<text text-anchor="middle" x="2441.5" y="-18.5" font-family="Helvetica,sans-Serif" font-size="10.00">javafx.scene.layout.Region</text>
</a>
</g>
</g>
<!-- Node1&#45;&gt;Node18 -->
<g id="edge17_Node000001_Node000018" class="edge">
<title>Node1&#45;&gt;Node18</title>
<g id="a_edge17_Node000001_Node000018"><a xlink:title=" ">
<path fill="none" stroke="#63b8ff" d="M2323.68,-79.55C2349.74,-67.04 2386.18,-49.56 2411.61,-37.35"/>
<polygon fill="#63b8ff" stroke="#63b8ff" points="2412.9,-40.61 2420.4,-33.13 2409.87,-34.3 2412.9,-40.61"/>
</a>
</g>
</g>
<!-- Node19 -->
<g id="Node000019" class="node">
<title>Node19</title>
<g id="a_Node000019"><a xlink:title=" ">
<polygon fill="#e0e0e0" stroke="#999999" points="2654.38,-32 2526.62,-32 2526.62,-12 2654.38,-12 2654.38,-32"/>
<text text-anchor="middle" x="2590.5" y="-18.5" font-family="Helvetica,sans-Serif" font-size="10.00">javafx.scene.layout.VBox</text>
</a>
</g>
</g>
<!-- Node1&#45;&gt;Node19 -->
<g id="edge18_Node000001_Node000019" class="edge">
<title>Node1&#45;&gt;Node19</title>
<g id="a_edge18_Node000001_Node000019"><a xlink:title=" ">
<path fill="none" stroke="#63b8ff" d="M2365.04,-79.54C2409.36,-69.94 2466.85,-56.99 2517.5,-44 2527.43,-41.45 2538.06,-38.52 2548.05,-35.66"/>
<polygon fill="#63b8ff" stroke="#63b8ff" points="2548.9,-39.06 2557.54,-32.92 2546.96,-32.34 2548.9,-39.06"/>
</a>
</g>
</g>
<!-- Node20 -->
<g id="Node000020" class="node">
<title>Node20</title>
<g id="a_Node000020"><a xlink:title=" ">
<polygon fill="#e0e0e0" stroke="#999999" points="2794.38,-32 2672.62,-32 2672.62,-12 2794.38,-12 2794.38,-32"/>
<text text-anchor="middle" x="2733.5" y="-18.5" font-family="Helvetica,sans-Serif" font-size="10.00">javafx.scene.paint.Color</text>
</a>
</g>
</g>
<!-- Node1&#45;&gt;Node20 -->
<g id="edge19_Node000001_Node000020" class="edge">
<title>Node1&#45;&gt;Node20</title>
<g id="a_edge19_Node000001_Node000020"><a xlink:title=" ">
<path fill="none" stroke="#63b8ff" d="M2383.92,-86.36C2459.62,-78.32 2569.22,-64.47 2663.5,-44 2673.68,-41.79 2684.53,-38.84 2694.57,-35.85"/>
<polygon fill="#63b8ff" stroke="#63b8ff" points="2695.51,-39.22 2704.04,-32.93 2693.46,-32.53 2695.51,-39.22"/>
</a>
</g>
</g>
<!-- Node21 -->
<g id="Node000021" class="node">
<title>Node21</title>
<g id="a_Node000021"><a xlink:title=" ">
<polygon fill="#e0e0e0" stroke="#999999" points="2957,-32 2812,-32 2812,-12 2957,-12 2957,-32"/>
<text text-anchor="middle" x="2884.5" y="-18.5" font-family="Helvetica,sans-Serif" font-size="10.00">javafx.scene.shape.SVGPath</text>
</a>
</g>
</g>
<!-- Node1&#45;&gt;Node21 -->
<g id="edge20_Node000001_Node000021" class="edge">
<title>Node1&#45;&gt;Node21</title>
<g id="a_edge20_Node000001_Node000021"><a xlink:title=" ">
<path fill="none" stroke="#63b8ff" d="M2383.65,-90.12C2486.61,-83.67 2657.96,-69.96 2803.5,-44 2816.09,-41.75 2829.6,-38.57 2841.91,-35.36"/>
<polygon fill="#63b8ff" stroke="#63b8ff" points="2842.61,-38.79 2851.36,-32.82 2840.79,-32.03 2842.61,-38.79"/>
</a>
</g>
</g>
<!-- Node22 -->
<g id="Node000022" class="node">
<title>Node22</title>
<g id="a_Node000022"><a xlink:title=" ">
<polygon fill="#e0e0e0" stroke="#999999" points="3072.38,-32 2974.62,-32 2974.62,-12 3072.38,-12 3072.38,-32"/>
<text text-anchor="middle" x="3023.5" y="-18.5" font-family="Helvetica,sans-Serif" font-size="10.00">javafx.stage.Stage</text>
</a>
</g>
</g>
<!-- Node1&#45;&gt;Node22 -->
<g id="edge21_Node000001_Node000022" class="edge">
<title>Node1&#45;&gt;Node22</title>
<g id="a_edge21_Node000001_Node000022"><a xlink:title=" ">
<path fill="none" stroke="#63b8ff" d="M2383.7,-91.2C2541.78,-84.15 2857.98,-67.61 2966.5,-44 2974.86,-42.18 2983.65,-39.41 2991.75,-36.46"/>
<polygon fill="#63b8ff" stroke="#63b8ff" points="2992.78,-39.82 3000.85,-32.96 2990.26,-33.28 2992.78,-39.82"/>
</a>
</g>
</g>
<!-- Node23 -->
<g id="Node000023" class="node">
<title>Node23</title>
<g id="a_Node000023"><a xlink:title=" ">
<polygon fill="#e0e0e0" stroke="#999999" points="3210.62,-32 3090.38,-32 3090.38,-12 3210.62,-12 3210.62,-32"/>
<text text-anchor="middle" x="3150.5" y="-18.5" font-family="Helvetica,sans-Serif" font-size="10.00">javafx.stage.StageStyle</text>
</a>
</g>
</g>
<!-- Node1&#45;&gt;Node23 -->
<g id="edge22_Node000001_Node000023" class="edge">
<title>Node1&#45;&gt;Node23</title>
<g id="a_edge22_Node000001_Node000023"><a xlink:title=" ">
<path fill="none" stroke="#63b8ff" d="M2383.87,-95.91C2532.21,-95.83 2832.19,-89.35 3081.5,-44 3092.18,-42.06 3103.53,-39.02 3113.88,-35.86"/>
<polygon fill="#63b8ff" stroke="#63b8ff" points="3114.74,-39.26 3123.2,-32.88 3112.61,-32.59 3114.74,-39.26"/>
</a>
</g>
</g>
<!-- Node24 -->
<g id="Node000024" class="node">
<title>Node24</title>
<g id="a_Node000024"><a xlink:title=" ">
<polygon fill="#e0e0e0" stroke="#999999" points="3326.38,-32 3228.62,-32 3228.62,-12 3326.38,-12 3326.38,-32"/>
<text text-anchor="middle" x="3277.5" y="-18.5" font-family="Helvetica,sans-Serif" font-size="10.00">javafx.util.Duration</text>
</a>
</g>
</g>
<!-- Node1&#45;&gt;Node24 -->
<g id="edge23_Node000001_Node000024" class="edge">
<title>Node1&#45;&gt;Node24</title>
<g id="a_edge23_Node000001_Node000024"><a xlink:title=" ">
<path fill="none" stroke="#63b8ff" d="M2383.73,-93.35C2585.71,-89.18 3061.7,-76.18 3219.5,-44 3228.18,-42.23 3237.31,-39.41 3245.69,-36.4"/>
<polygon fill="#63b8ff" stroke="#63b8ff" points="3246.66,-39.78 3254.76,-32.96 3244.17,-33.24 3246.66,-39.78"/>
</a>
</g>
</g>
<!-- Node25 -->
<g id="Node000025" class="node">
<title>Node25</title>
<g id="a_Node000025"><a xlink:title=" ">
<polygon fill="#e0e0e0" stroke="#999999" points="3465,-32 3344,-32 3344,-12 3465,-12 3465,-32"/>
<text text-anchor="middle" x="3404.5" y="-18.5" font-family="Helvetica,sans-Serif" font-size="10.00">lombok.extern.slf4j.Slf4j</text>
</a>
</g>
</g>
<!-- Node1&#45;&gt;Node25 -->
<g id="edge24_Node000001_Node000025" class="edge">
<title>Node1&#45;&gt;Node25</title>
<g id="a_edge24_Node000001_Node000025"><a xlink:title=" ">
<path fill="none" stroke="#63b8ff" d="M2383.88,-93.4C2603.89,-89.13 3154.03,-75.55 3335.5,-44 3346.28,-42.13 3357.74,-39.08 3368.16,-35.89"/>
<polygon fill="#63b8ff" stroke="#63b8ff" points="3369.09,-39.27 3377.54,-32.88 3366.95,-32.6 3369.09,-39.27"/>
</a>
</g>
</g>
<!-- Node26 -->
<g id="Node000026" class="node">
<title>Node26</title>
<g id="a_Node000026"><a xlink:title=" ">
<polygon fill="#e0e0e0" stroke="#999999" points="3571.88,-32 3483.12,-32 3483.12,-12 3571.88,-12 3571.88,-32"/>
<text text-anchor="middle" x="3527.5" y="-18.5" font-family="Helvetica,sans-Serif" font-size="10.00">java.nio.file.Path</text>
</a>
</g>
</g>
<!-- Node1&#45;&gt;Node26 -->
<g id="edge25_Node000001_Node000026" class="edge">
<title>Node1&#45;&gt;Node26</title>
<g id="a_edge25_Node000001_Node000026"><a xlink:title=" ">
<path fill="none" stroke="#63b8ff" d="M2383.8,-94.98C2624.48,-94.31 3266.92,-88.28 3474.5,-44 3482.3,-42.34 3490.45,-39.64 3497.95,-36.72"/>
<polygon fill="#63b8ff" stroke="#63b8ff" points="3499.07,-40.04 3506.96,-32.97 3496.38,-33.58 3499.07,-40.04"/>
</a>
</g>
</g>
<!-- Node27 -->
<g id="Node000027" class="node">
<title>Node27</title>
<g id="a_Node000027"><a xlink:title=" ">
<polygon fill="#e0e0e0" stroke="#999999" points="3683.5,-32 3589.5,-32 3589.5,-12 3683.5,-12 3683.5,-32"/>
<text text-anchor="middle" x="3636.5" y="-18.5" font-family="Helvetica,sans-Serif" font-size="10.00">java.nio.file.Paths</text>
</a>
</g>
</g>
<!-- Node1&#45;&gt;Node27 -->
<g id="edge26_Node000001_Node000027" class="edge">
<title>Node1&#45;&gt;Node27</title>
<g id="a_edge26_Node000001_Node000027"><a xlink:title=" ">
<path fill="none" stroke="#63b8ff" d="M2383.61,-95.16C2638.83,-94.98 3351.36,-90.25 3580.5,-44 3588.9,-42.31 3597.7,-39.52 3605.77,-36.53"/>
<polygon fill="#63b8ff" stroke="#63b8ff" points="3606.8,-39.88 3614.81,-32.95 3604.23,-33.37 3606.8,-39.88"/>
</a>
</g>
</g>
<!-- Node28 -->
<g id="Node000028" class="node">
<title>Node28</title>
<g id="a_Node000028"><a xlink:title=" ">
<polygon fill="#e0e0e0" stroke="#999999" points="3793.38,-32 3701.62,-32 3701.62,-12 3793.38,-12 3793.38,-32"/>
<text text-anchor="middle" x="3747.5" y="-18.5" font-family="Helvetica,sans-Serif" font-size="10.00">java.util.Calendar</text>
</a>
</g>
</g>
<!-- Node1&#45;&gt;Node28 -->
<g id="edge27_Node000001_Node000028" class="edge">
<title>Node1&#45;&gt;Node28</title>
<g id="a_edge27_Node000001_Node000028"><a xlink:title=" ">
<path fill="none" stroke="#63b8ff" d="M2383.78,-95.57C2654.15,-96.63 3441.17,-95.09 3692.5,-44 3700.67,-42.34 3709.22,-39.61 3717.07,-36.65"/>
<polygon fill="#63b8ff" stroke="#63b8ff" points="3718.23,-39.96 3726.2,-32.98 3715.61,-33.46 3718.23,-39.96"/>
</a>
</g>
</g>
<!-- Node29 -->
<g id="Node000029" class="node">
<title>Node29</title>
<g id="a_Node000029"><a xlink:title=" ">
<polygon fill="#e0e0e0" stroke="#999999" points="3897.75,-32 3811.25,-32 3811.25,-12 3897.75,-12 3897.75,-32"/>
<text text-anchor="middle" x="3854.5" y="-18.5" font-family="Helvetica,sans-Serif" font-size="10.00">java.util.Objects</text>
</a>
</g>
</g>
<!-- Node1&#45;&gt;Node29 -->
<g id="edge28_Node000001_Node000029" class="edge">
<title>Node1&#45;&gt;Node29</title>
<g id="a_edge28_Node000001_Node000029"><a xlink:title=" ">
<path fill="none" stroke="#63b8ff" d="M2383.93,-93.76C2690.83,-89.37 3664.36,-73.27 3802.5,-44 3810.09,-42.39 3817.99,-39.75 3825.28,-36.87"/>
<polygon fill="#63b8ff" stroke="#63b8ff" points="3826.51,-40.15 3834.35,-33.02 3823.78,-33.71 3826.51,-40.15"/>
</a>
</g>
</g>
<!-- Node30 -->
<g id="Node000030" class="node">
<title>Node30</title>
<g id="a_Node000030"><a xlink:title=" ">
<polygon fill="#e0e0e0" stroke="#999999" points="4079,-38 3916,-38 3916,-6 4079,-6 4079,-38"/>
<text text-anchor="start" x="3924" y="-24.5" font-family="Helvetica,sans-Serif" font-size="10.00">fr.softsf.sudokufx.utils.</text>
<text text-anchor="middle" x="3997.5" y="-12.5" font-family="Helvetica,sans-Serif" font-size="10.00">MyEnums.Paths.DATA_FOLDER</text>
</a>
</g>
</g>
<!-- Node1&#45;&gt;Node30 -->
<g id="edge29_Node000001_Node000030" class="edge">
<title>Node1&#45;&gt;Node30</title>
<g id="a_edge29_Node000001_Node000030"><a xlink:title=" ">
<path fill="none" stroke="#63b8ff" d="M2383.87,-94.45C2680.83,-92.32 3608.93,-82.66 3906.5,-44 3913.25,-43.12 3920.24,-41.97 3927.2,-40.65"/>
<polygon fill="#63b8ff" stroke="#63b8ff" points="3927.49,-44.16 3936.6,-38.76 3926.11,-37.3 3927.49,-44.16"/>
</a>
</g>
</g>
<!-- Node31 -->
<g id="Node000031" class="node">
<title>Node31</title>
<g id="a_Node000031"><a xlink:title=" ">
<polygon fill="#e0e0e0" stroke="#999999" points="4251.5,-44 4097.5,-44 4097.5,0 4251.5,0 4251.5,-44"/>
<text text-anchor="start" x="4105.5" y="-30.5" font-family="Helvetica,sans-Serif" font-size="10.00">fr.softsf.sudokufx.utils.</text>
<text text-anchor="start" x="4105.5" y="-18.5" font-family="Helvetica,sans-Serif" font-size="10.00">MyEnums.Paths.LOGO_SUDO</text>
<text text-anchor="middle" x="4174.5" y="-6.5" font-family="Helvetica,sans-Serif" font-size="10.00">_PNG_PATH</text>
</a>
</g>
</g>
<!-- Node1&#45;&gt;Node31 -->
<g id="edge30_Node000001_Node000031" class="edge">
<title>Node1&#45;&gt;Node31</title>
<g id="a_edge30_Node000001_Node000031"><a xlink:title=" ">
<path fill="none" stroke="#63b8ff" d="M2383.83,-94.95C2698.95,-94.39 3731.55,-89.18 4085.99,-44.15"/>
<polygon fill="#63b8ff" stroke="#63b8ff" points="4086.33,-47.63 4095.79,-42.86 4085.42,-40.69 4086.33,-47.63"/>
</a>
</g>
</g>
<!-- Node32 -->
<g id="Node000032" class="node">
<title>Node32</title>
<g id="a_Node000032"><a xlink:title=" ">
<polygon fill="#e0e0e0" stroke="#999999" points="4477.5,-38 4269.5,-38 4269.5,-6 4477.5,-6 4477.5,-38"/>
<text text-anchor="start" x="4277.5" y="-24.5" font-family="Helvetica,sans-Serif" font-size="10.00">fr.softsf.sudokufx.utils.</text>
<text text-anchor="middle" x="4373.5" y="-12.5" font-family="Helvetica,sans-Serif" font-size="10.00">MyEnums.ScreenSize.DISPOSABLE_SIZE</text>
</a>
</g>
</g>
<!-- Node1&#45;&gt;Node32 -->
<g id="edge31_Node000001_Node000032" class="edge">
<title>Node1&#45;&gt;Node32</title>
<g id="a_edge31_Node000001_Node000032"><a xlink:title=" ">
<path fill="none" stroke="#63b8ff" d="M2383.98,-94.54C2721.95,-92.57 3889.71,-83.01 4260.5,-44 4269.53,-43.05 4278.92,-41.77 4288.25,-40.32"/>
<polygon fill="#63b8ff" stroke="#63b8ff" points="4288.79,-43.78 4298.09,-38.71 4287.66,-36.87 4288.79,-43.78"/>
</a>
</g>
</g>
</g>
</svg>

<g id="navigator" transform="translate(0 0)" fill="#404254">
  <rect fill="#f2f5e9" fill-opacity="0.5" stroke="#606060" stroke-width=".5" x="0" y="0" width="60" height="60"/>
  <use id="zoomplus" xlink:href="#zoomPlus" x="17" y="9" onmousedown="handleZoom(evt,'in')"/>
  <use id="zoomminus" xlink:href="#zoomMin" x="42" y="9" onmousedown="handleZoom(evt,'out')"/>
  <use id="reset" xlink:href="#resetDef" x="30" y="36" onmousedown="handleReset()"/>
   <use id="arrowup" xlink:href="#arrowUp" x="0" y="0" onmousedown="handlePan(0,-1)"/>
  <use id="arrowright" xlink:href="#arrowRight" x="0" y="0" onmousedown="handlePan(1,0)"/>
  <use id="arrowdown" xlink:href="#arrowDown" x="0" y="0" onmousedown="handlePan(0,1)"/>
  <use id="arrowleft" xlink:href="#arrowLeft" x="0" y="0" onmousedown="handlePan(-1,0)"/>
</g>
<svg viewBox="0 0 15 15" width="100%" height="30px" preserveAspectRatio="xMaxYMin meet">
 <g id="arrow_out" transform="scale(0.3 0.3)">
  <a xlink:href="_crash_screen_view_8java__incl_org.svg" target="_base">
   <rect id="button" ry="5" rx="5" y="6" x="6" height="38" width="38"
        fill="#f2f5e9" fill-opacity="0.5" stroke="#606060" stroke-width="1.0"/>
   <path id="arrow"
     d="M 11.500037,31.436501 C 11.940474,20.09759 22.043105,11.32322 32.158766,21.979434 L 37.068811,17.246167 C 37.068811,17.246167 37.088388,32 37.088388,32 L 22.160133,31.978069 C 22.160133,31.978069 26.997745,27.140456 26.997745,27.140456 C 18.528582,18.264221 13.291696,25.230495 11.500037,31.436501 z"
     style="fill:#404040;"/>
  </a>
 </g>
</svg>

<style type='text/css'>
<![CDATA[
[data-mouse-over-selected='false'] { opacity: 0.7; }
[data-mouse-over-selected='true']  { opacity: 1.0; }
]]>
</style>
<script type="application/ecmascript"><![CDATA[
document.addEventListener('DOMContentLoaded', (event) => {
  highlightEdges();
  highlightAdjacentNodes();
});
]]></script>
</svg>
