<?xml version="1.0" encoding="UTF-8" standalone="no"?>
<!DOCTYPE svg PUBLIC "-//W3C//DTD SVG 1.1//EN"
 "http://www.w3.org/Graphics/SVG/1.1/DTD/svg11.dtd">
<!-- Generated by graphviz version 12.2.1 (20241206.2353)
 -->
<!-- Title: src/main/java/fr/softsf/sudokufx/configuration/database/DataSourceConfigCds.java Pages: 1 -->
<svg width="1071pt" height="120pt"
 viewBox="0.00 0.00 1071.25 120.00" xmlns="http://www.w3.org/2000/svg" xmlns:xlink="http://www.w3.org/1999/xlink">
<g id="graph0" class="graph" transform="scale(1 1) rotate(0) translate(4 116)">
<title>src/main/java/fr/softsf/sudokufx/configuration/database/DataSourceConfigCds.java</title>
<!-- Node1 -->
<g id="Node000001" class="node">
<title>Node1</title>
<g id="a_Node000001"><a xlink:title=" ">
<polygon fill="#999999" stroke="#666666" points="593.38,-112 412.38,-112 412.38,-68 593.38,-68 593.38,-112"/>
<text text-anchor="start" x="420.38" y="-98.5" font-family="Helvetica,sans-Serif" font-size="10.00">src/main/java/fr/softsf</text>
<text text-anchor="start" x="420.38" y="-86.5" font-family="Helvetica,sans-Serif" font-size="10.00">/sudokufx/configuration</text>
<text text-anchor="middle" x="502.88" y="-74.5" font-family="Helvetica,sans-Serif" font-size="10.00">/database/DataSourceConfigCds.java</text>
</a>
</g>
</g>
<!-- Node2 -->
<g id="Node000002" class="node">
<title>Node2</title>
<g id="a_Node000002"><a xlink:title=" ">
<polygon fill="#e0e0e0" stroke="#999999" points="121.75,-32 0,-32 0,0 121.75,0 121.75,-32"/>
<text text-anchor="start" x="8" y="-18.5" font-family="Helvetica,sans-Serif" font-size="10.00">com.zaxxer.hikari.Hikari</text>
<text text-anchor="middle" x="60.88" y="-6.5" font-family="Helvetica,sans-Serif" font-size="10.00">DataSource</text>
</a>
</g>
</g>
<!-- Node1&#45;&gt;Node2 -->
<g id="edge1_Node000001_Node000002" class="edge">
<title>Node1&#45;&gt;Node2</title>
<g id="a_edge1_Node000001_Node000002"><a xlink:title=" ">
<path fill="none" stroke="#63b8ff" d="M412.04,-76.61C339.22,-66.32 234.16,-50.7 132.96,-32.32"/>
<polygon fill="#63b8ff" stroke="#63b8ff" points="133.87,-28.93 123.4,-30.57 132.61,-35.82 133.87,-28.93"/>
</a>
</g>
</g>
<!-- Node3 -->
<g id="Node000003" class="node">
<title>Node3</title>
<g id="a_Node000003"><a xlink:title=" ">
<polygon fill="#e0e0e0" stroke="#999999" points="335.5,-32 140.25,-32 140.25,0 335.5,0 335.5,-32"/>
<text text-anchor="start" x="148.25" y="-18.5" font-family="Helvetica,sans-Serif" font-size="10.00">fr.softsf.sudokufx.annotations.</text>
<text text-anchor="middle" x="237.88" y="-6.5" font-family="Helvetica,sans-Serif" font-size="10.00">ExcludedFromCoverageReportGenerated</text>
</a>
</g>
</g>
<!-- Node1&#45;&gt;Node3 -->
<g id="edge2_Node000001_Node000003" class="edge">
<title>Node1&#45;&gt;Node3</title>
<g id="a_edge2_Node000001_Node000003"><a xlink:title=" ">
<path fill="none" stroke="#63b8ff" d="M424.08,-67.59C386.48,-57.37 341.92,-45.27 305.82,-35.46"/>
<polygon fill="#63b8ff" stroke="#63b8ff" points="306.94,-32.14 296.37,-32.89 305.1,-38.89 306.94,-32.14"/>
</a>
</g>
</g>
<!-- Node4 -->
<g id="Node000004" class="node">
<title>Node4</title>
<g id="a_Node000004"><a xlink:title=" ">
<polygon fill="#e0e0e0" stroke="#999999" points="494.5,-32 353.25,-32 353.25,0 494.5,0 494.5,-32"/>
<text text-anchor="start" x="361.25" y="-18.5" font-family="Helvetica,sans-Serif" font-size="10.00">fr.softsf.sudokufx.interfaces.</text>
<text text-anchor="middle" x="423.88" y="-6.5" font-family="Helvetica,sans-Serif" font-size="10.00">IKeystore</text>
</a>
</g>
</g>
<!-- Node1&#45;&gt;Node4 -->
<g id="edge3_Node000001_Node000004" class="edge">
<title>Node1&#45;&gt;Node4</title>
<g id="a_edge3_Node000001_Node000004"><a xlink:title=" ">
<path fill="none" stroke="#63b8ff" d="M479.6,-67.79C469.88,-58.93 458.58,-48.63 448.71,-39.63"/>
<polygon fill="#63b8ff" stroke="#63b8ff" points="451.34,-37.3 441.59,-33.15 446.62,-42.47 451.34,-37.3"/>
</a>
</g>
</g>
<!-- Node5 -->
<g id="Node000005" class="node">
<title>Node5</title>
<g id="a_Node000005"><a xlink:title=" ">
<polygon fill="#e0e0e0" stroke="#999999" points="653.5,-32 512.25,-32 512.25,0 653.5,0 653.5,-32"/>
<text text-anchor="start" x="520.25" y="-18.5" font-family="Helvetica,sans-Serif" font-size="10.00">fr.softsf.sudokufx.interfaces.</text>
<text text-anchor="middle" x="582.88" y="-6.5" font-family="Helvetica,sans-Serif" font-size="10.00">IOsFolderFactory</text>
</a>
</g>
</g>
<!-- Node1&#45;&gt;Node5 -->
<g id="edge4_Node000001_Node000005" class="edge">
<title>Node1&#45;&gt;Node5</title>
<g id="a_edge4_Node000001_Node000005"><a xlink:title=" ">
<path fill="none" stroke="#63b8ff" d="M526.44,-67.79C536.28,-58.93 547.73,-48.63 557.73,-39.63"/>
<polygon fill="#63b8ff" stroke="#63b8ff" points="559.85,-42.43 564.94,-33.14 555.17,-37.23 559.85,-42.43"/>
</a>
</g>
</g>
<!-- Node6 -->
<g id="Node000006" class="node">
<title>Node6</title>
<g id="a_Node000006"><a xlink:title=" ">
<polygon fill="#e0e0e0" stroke="#999999" points="866.12,-26 671.62,-26 671.62,-6 866.12,-6 866.12,-26"/>
<text text-anchor="middle" x="768.88" y="-12.5" font-family="Helvetica,sans-Serif" font-size="10.00">org.springframework.context.annotation.*</text>
</a>
</g>
</g>
<!-- Node1&#45;&gt;Node6 -->
<g id="edge5_Node000001_Node000006" class="edge">
<title>Node1&#45;&gt;Node6</title>
<g id="a_edge5_Node000001_Node000006"><a xlink:title=" ">
<path fill="none" stroke="#63b8ff" d="M581.96,-67.59C627.96,-55.14 684.31,-39.89 723.04,-29.41"/>
<polygon fill="#63b8ff" stroke="#63b8ff" points="723.77,-32.83 732.51,-26.84 721.94,-26.08 723.77,-32.83"/>
</a>
</g>
</g>
<!-- Node7 -->
<g id="Node000007" class="node">
<title>Node7</title>
<g id="a_Node000007"><a xlink:title=" ">
<polygon fill="#e0e0e0" stroke="#999999" points="1063.25,-32 884.5,-32 884.5,0 1063.25,0 1063.25,-32"/>
<text text-anchor="start" x="892.5" y="-18.5" font-family="Helvetica,sans-Serif" font-size="10.00">fr.softsf.sudokufx.utils.</text>
<text text-anchor="middle" x="973.88" y="-6.5" font-family="Helvetica,sans-Serif" font-size="10.00">MyEnums.Paths.DATABASE_NAME</text>
</a>
</g>
</g>
<!-- Node1&#45;&gt;Node7 -->
<g id="edge6_Node000001_Node000007" class="edge">
<title>Node1&#45;&gt;Node7</title>
<g id="a_edge6_Node000001_Node000007"><a xlink:title=" ">
<path fill="none" stroke="#63b8ff" d="M593.69,-75.12C673.68,-62.89 790.04,-45.1 872.93,-32.43"/>
<polygon fill="#63b8ff" stroke="#63b8ff" points="873.29,-35.92 882.64,-30.95 872.23,-29 873.29,-35.92"/>
</a>
</g>
</g>
</g>
</svg>
