<?xml version="1.0" encoding="UTF-8" standalone="no"?>
<!DOCTYPE svg PUBLIC "-//W3C//DTD SVG 1.1//EN"
 "http://www.w3.org/Graphics/SVG/1.1/DTD/svg11.dtd">
<!-- Generated by graphviz version 12.2.1 (20241206.2353)
 -->
<!-- Title: src/main/java/fr/softsf/sudokufx/configuration/database/DataSourceConfig.java Pages: 1 -->
<svg width="1685pt" height="132pt"
 viewBox="0.00 0.00 1685.00 132.00" xmlns="http://www.w3.org/2000/svg" xmlns:xlink="http://www.w3.org/1999/xlink">
<g id="graph0" class="graph" transform="scale(1 1) rotate(0) translate(4 128)">
<title>src/main/java/fr/softsf/sudokufx/configuration/database/DataSourceConfig.java</title>
<!-- Node1 -->
<g id="Node000001" class="node">
<title>Node1</title>
<g id="a_Node000001"><a xlink:title=" ">
<polygon fill="#999999" stroke="#666666" points="901.38,-124 738.38,-124 738.38,-80 901.38,-80 901.38,-124"/>
<text text-anchor="start" x="746.38" y="-110.5" font-family="Helvetica,sans-Serif" font-size="10.00">src/main/java/fr/softsf</text>
<text text-anchor="start" x="746.38" y="-98.5" font-family="Helvetica,sans-Serif" font-size="10.00">/sudokufx/configuration</text>
<text text-anchor="middle" x="819.88" y="-86.5" font-family="Helvetica,sans-Serif" font-size="10.00">/database/DataSourceConfig.java</text>
</a>
</g>
</g>
<!-- Node2 -->
<g id="Node000002" class="node">
<title>Node2</title>
<g id="a_Node000002"><a xlink:title=" ">
<polygon fill="#e0e0e0" stroke="#999999" points="121.75,-38 0,-38 0,-6 121.75,-6 121.75,-38"/>
<text text-anchor="start" x="8" y="-24.5" font-family="Helvetica,sans-Serif" font-size="10.00">com.zaxxer.hikari.Hikari</text>
<text text-anchor="middle" x="60.88" y="-12.5" font-family="Helvetica,sans-Serif" font-size="10.00">Config</text>
</a>
</g>
</g>
<!-- Node1&#45;&gt;Node2 -->
<g id="edge1_Node000001_Node000002" class="edge">
<title>Node1&#45;&gt;Node2</title>
<g id="a_edge1_Node000001_Node000002"><a xlink:title=" ">
<path fill="none" stroke="#63b8ff" d="M737.99,-99.74C608.17,-96.51 347.58,-85 130.88,-44 126.84,-43.24 122.7,-42.33 118.55,-41.33"/>
<polygon fill="#63b8ff" stroke="#63b8ff" points="119.63,-37.99 109.07,-38.87 117.87,-44.77 119.63,-37.99"/>
</a>
</g>
</g>
<!-- Node3 -->
<g id="Node000003" class="node">
<title>Node3</title>
<g id="a_Node000003"><a xlink:title=" ">
<polygon fill="#e0e0e0" stroke="#999999" points="261.75,-38 140,-38 140,-6 261.75,-6 261.75,-38"/>
<text text-anchor="start" x="148" y="-24.5" font-family="Helvetica,sans-Serif" font-size="10.00">com.zaxxer.hikari.Hikari</text>
<text text-anchor="middle" x="200.88" y="-12.5" font-family="Helvetica,sans-Serif" font-size="10.00">DataSource</text>
</a>
</g>
</g>
<!-- Node1&#45;&gt;Node3 -->
<g id="edge2_Node000001_Node000003" class="edge">
<title>Node1&#45;&gt;Node3</title>
<g id="a_edge2_Node000001_Node000003"><a xlink:title=" ">
<path fill="none" stroke="#63b8ff" d="M738.23,-97.32C630.36,-91.37 434.84,-76.8 270.88,-44 267.03,-43.23 263.08,-42.34 259.13,-41.37"/>
<polygon fill="#63b8ff" stroke="#63b8ff" points="260.04,-37.99 249.48,-38.84 258.26,-44.76 260.04,-37.99"/>
</a>
</g>
</g>
<!-- Node4 -->
<g id="Node000004" class="node">
<title>Node4</title>
<g id="a_Node000004"><a xlink:title=" ">
<polygon fill="#e0e0e0" stroke="#999999" points="475.5,-38 280.25,-38 280.25,-6 475.5,-6 475.5,-38"/>
<text text-anchor="start" x="288.25" y="-24.5" font-family="Helvetica,sans-Serif" font-size="10.00">fr.softsf.sudokufx.annotations.</text>
<text text-anchor="middle" x="377.88" y="-12.5" font-family="Helvetica,sans-Serif" font-size="10.00">ExcludedFromCoverageReportGenerated</text>
</a>
</g>
</g>
<!-- Node1&#45;&gt;Node4 -->
<g id="edge3_Node000001_Node000004" class="edge">
<title>Node1&#45;&gt;Node4</title>
<g id="a_edge3_Node000001_Node000004"><a xlink:title=" ">
<path fill="none" stroke="#63b8ff" d="M738.2,-87.7C670.31,-76.49 571.19,-59.81 484.88,-44 478.94,-42.91 472.82,-41.77 466.66,-40.6"/>
<polygon fill="#63b8ff" stroke="#63b8ff" points="467.52,-37.21 457.04,-38.77 466.21,-44.08 467.52,-37.21"/>
</a>
</g>
</g>
<!-- Node5 -->
<g id="Node000005" class="node">
<title>Node5</title>
<g id="a_Node000005"><a xlink:title=" ">
<polygon fill="#e0e0e0" stroke="#999999" points="647.88,-38 493.88,-38 493.88,-6 647.88,-6 647.88,-38"/>
<text text-anchor="start" x="501.88" y="-24.5" font-family="Helvetica,sans-Serif" font-size="10.00">fr.softsf.sudokufx.configuration.</text>
<text text-anchor="middle" x="570.88" y="-12.5" font-family="Helvetica,sans-Serif" font-size="10.00">MyLogbackConfig</text>
</a>
</g>
</g>
<!-- Node1&#45;&gt;Node5 -->
<g id="edge4_Node000001_Node000005" class="edge">
<title>Node1&#45;&gt;Node5</title>
<g id="a_edge4_Node000001_Node000005"><a xlink:title=" ">
<path fill="none" stroke="#63b8ff" d="M751.51,-79.58C713.8,-67.77 667.4,-53.24 631.07,-41.86"/>
<polygon fill="#63b8ff" stroke="#63b8ff" points="632.18,-38.54 621.59,-38.89 630.09,-45.22 632.18,-38.54"/>
</a>
</g>
</g>
<!-- Node6 -->
<g id="Node000006" class="node">
<title>Node6</title>
<g id="a_Node000006"><a xlink:title=" ">
<polygon fill="#e0e0e0" stroke="#999999" points="833.62,-38 666.12,-38 666.12,-6 833.62,-6 833.62,-38"/>
<text text-anchor="start" x="674.12" y="-24.5" font-family="Helvetica,sans-Serif" font-size="10.00">fr.softsf.sudokufx.configuration.os.</text>
<text text-anchor="middle" x="749.88" y="-12.5" font-family="Helvetica,sans-Serif" font-size="10.00">IOsFolderFactory</text>
</a>
</g>
</g>
<!-- Node1&#45;&gt;Node6 -->
<g id="edge5_Node000001_Node000006" class="edge">
<title>Node1&#45;&gt;Node6</title>
<g id="a_edge5_Node000001_Node000006"><a xlink:title=" ">
<path fill="none" stroke="#63b8ff" d="M800.75,-79.69C791.51,-69.4 780.41,-57.02 770.93,-46.46"/>
<polygon fill="#63b8ff" stroke="#63b8ff" points="773.73,-44.34 764.44,-39.23 768.52,-49.02 773.73,-44.34"/>
</a>
</g>
</g>
<!-- Node7 -->
<g id="Node000007" class="node">
<title>Node7</title>
<g id="a_Node000007"><a xlink:title=" ">
<polygon fill="#e0e0e0" stroke="#999999" points="928.25,-32 851.5,-32 851.5,-12 928.25,-12 928.25,-32"/>
<text text-anchor="middle" x="889.88" y="-18.5" font-family="Helvetica,sans-Serif" font-size="10.00">lombok.Setter</text>
</a>
</g>
</g>
<!-- Node1&#45;&gt;Node7 -->
<g id="edge6_Node000001_Node000007" class="edge">
<title>Node1&#45;&gt;Node7</title>
<g id="a_edge6_Node000001_Node000007"><a xlink:title=" ">
<path fill="none" stroke="#63b8ff" d="M839,-79.69C849.99,-67.44 863.63,-52.25 874.01,-40.67"/>
<polygon fill="#63b8ff" stroke="#63b8ff" points="876.45,-43.2 880.52,-33.42 871.24,-38.52 876.45,-43.2"/>
</a>
</g>
</g>
<!-- Node8 -->
<g id="Node000008" class="node">
<title>Node8</title>
<g id="a_Node000008"><a xlink:title=" ">
<polygon fill="#e0e0e0" stroke="#999999" points="1073.75,-32 946,-32 946,-12 1073.75,-12 1073.75,-32"/>
<text text-anchor="middle" x="1009.88" y="-18.5" font-family="Helvetica,sans-Serif" font-size="10.00">org.flywaydb.core.Flyway</text>
</a>
</g>
</g>
<!-- Node1&#45;&gt;Node8 -->
<g id="edge7_Node000001_Node000008" class="edge">
<title>Node1&#45;&gt;Node8</title>
<g id="a_edge7_Node000001_Node000008"><a xlink:title=" ">
<path fill="none" stroke="#63b8ff" d="M872.04,-79.58C905.36,-65.91 947.56,-48.58 976.44,-36.73"/>
<polygon fill="#63b8ff" stroke="#63b8ff" points="977.48,-40.08 985.41,-33.05 974.83,-33.61 977.48,-40.08"/>
</a>
</g>
</g>
<!-- Node9 -->
<g id="Node000009" class="node">
<title>Node9</title>
<g id="a_Node000009"><a xlink:title=" ">
<polygon fill="#e0e0e0" stroke="#999999" points="1305.5,-32 1092.25,-32 1092.25,-12 1305.5,-12 1305.5,-32"/>
<text text-anchor="middle" x="1198.88" y="-18.5" font-family="Helvetica,sans-Serif" font-size="10.00">org.springframework.context.annotation.Bean</text>
</a>
</g>
</g>
<!-- Node1&#45;&gt;Node9 -->
<g id="edge8_Node000001_Node000009" class="edge">
<title>Node1&#45;&gt;Node9</title>
<g id="a_edge8_Node000001_Node000009"><a xlink:title=" ">
<path fill="none" stroke="#63b8ff" d="M901.65,-84.17C974.11,-69.26 1078.05,-47.87 1141.86,-34.73"/>
<polygon fill="#63b8ff" stroke="#63b8ff" points="1142.34,-38.21 1151.43,-32.77 1140.93,-31.35 1142.34,-38.21"/>
</a>
</g>
</g>
<!-- Node10 -->
<g id="Node000010" class="node">
<title>Node10</title>
<g id="a_Node000010"><a xlink:title=" ">
<polygon fill="#e0e0e0" stroke="#999999" points="1514.25,-38 1323.5,-38 1323.5,-6 1514.25,-6 1514.25,-38"/>
<text text-anchor="start" x="1331.5" y="-24.5" font-family="Helvetica,sans-Serif" font-size="10.00">org.springframework.context.annotation.</text>
<text text-anchor="middle" x="1418.88" y="-12.5" font-family="Helvetica,sans-Serif" font-size="10.00">DependsOn</text>
</a>
</g>
</g>
<!-- Node1&#45;&gt;Node10 -->
<g id="edge9_Node000001_Node000010" class="edge">
<title>Node1&#45;&gt;Node10</title>
<g id="a_edge9_Node000001_Node000010"><a xlink:title=" ">
<path fill="none" stroke="#63b8ff" d="M901.62,-93.72C1000,-84.48 1170.05,-66.92 1314.88,-44 1321.56,-42.94 1328.47,-41.75 1335.4,-40.5"/>
<polygon fill="#63b8ff" stroke="#63b8ff" points="1335.6,-44.02 1344.79,-38.75 1334.32,-37.14 1335.6,-44.02"/>
</a>
</g>
</g>
<!-- Node11 -->
<g id="Node000011" class="node">
<title>Node11</title>
<g id="a_Node000011"><a xlink:title=" ">
<polygon fill="#e0e0e0" stroke="#999999" points="1677,-44 1532.75,-44 1532.75,0 1677,0 1677,-44"/>
<text text-anchor="start" x="1540.75" y="-30.5" font-family="Helvetica,sans-Serif" font-size="10.00">fr.softsf.sudokufx.utils.</text>
<text text-anchor="start" x="1540.75" y="-18.5" font-family="Helvetica,sans-Serif" font-size="10.00">MyEnums.Paths.DATABASE</text>
<text text-anchor="middle" x="1604.88" y="-6.5" font-family="Helvetica,sans-Serif" font-size="10.00">_MIGRATION_PATH</text>
</a>
</g>
</g>
<!-- Node1&#45;&gt;Node11 -->
<g id="edge10_Node000001_Node000011" class="edge">
<title>Node1&#45;&gt;Node11</title>
<g id="a_edge10_Node000001_Node000011"><a xlink:title=" ">
<path fill="none" stroke="#63b8ff" d="M901.61,-98.87C1031.14,-94.51 1291.49,-81.71 1521.31,-44.09"/>
<polygon fill="#63b8ff" stroke="#63b8ff" points="1521.79,-47.56 1531.09,-42.47 1520.65,-40.65 1521.79,-47.56"/>
</a>
</g>
</g>
</g>
</svg>
