<?xml version="1.0" encoding="UTF-8" standalone="no"?>
<!DOCTYPE svg PUBLIC "-//W3C//DTD SVG 1.1//EN"
 "http://www.w3.org/Graphics/SVG/1.1/DTD/svg11.dtd">
<!-- Generated by graphviz version 12.2.1 (20241206.2353)
 -->
<!-- Title: src/main/java/fr/softsf/sudokufx/configuration/database/DataSourceConfig.java Pages: 1 -->
<svg width="2149pt" height="132pt"
 viewBox="0.00 0.00 2149.00 132.00" xmlns="http://www.w3.org/2000/svg" xmlns:xlink="http://www.w3.org/1999/xlink">
<g id="graph0" class="graph" transform="scale(1 1) rotate(0) translate(4 128)">
<title>src/main/java/fr/softsf/sudokufx/configuration/database/DataSourceConfig.java</title>
<!-- Node1 -->
<g id="Node000001" class="node">
<title>Node1</title>
<g id="a_Node000001"><a xlink:title=" ">
<polygon fill="#999999" stroke="#666666" points="1156.38,-124 993.38,-124 993.38,-80 1156.38,-80 1156.38,-124"/>
<text text-anchor="start" x="1001.38" y="-110.5" font-family="Helvetica,sans-Serif" font-size="10.00">src/main/java/fr/softsf</text>
<text text-anchor="start" x="1001.38" y="-98.5" font-family="Helvetica,sans-Serif" font-size="10.00">/sudokufx/configuration</text>
<text text-anchor="middle" x="1074.88" y="-86.5" font-family="Helvetica,sans-Serif" font-size="10.00">/database/DataSourceConfig.java</text>
</a>
</g>
</g>
<!-- Node2 -->
<g id="Node000002" class="node">
<title>Node2</title>
<g id="a_Node000002"><a xlink:title=" ">
<polygon fill="#e0e0e0" stroke="#999999" points="121.75,-38 0,-38 0,-6 121.75,-6 121.75,-38"/>
<text text-anchor="start" x="8" y="-24.5" font-family="Helvetica,sans-Serif" font-size="10.00">com.zaxxer.hikari.Hikari</text>
<text text-anchor="middle" x="60.88" y="-12.5" font-family="Helvetica,sans-Serif" font-size="10.00">Config</text>
</a>
</g>
</g>
<!-- Node1&#45;&gt;Node2 -->
<g id="edge1_Node000001_Node000002" class="edge">
<title>Node1&#45;&gt;Node2</title>
<g id="a_edge1_Node000001_Node000002"><a xlink:title=" ">
<path fill="none" stroke="#63b8ff" d="M993.17,-98.49C795.47,-92.03 295.46,-73.25 130.88,-44 126.57,-43.24 122.16,-42.3 117.74,-41.24"/>
<polygon fill="#63b8ff" stroke="#63b8ff" points="118.85,-37.91 108.29,-38.8 117.1,-44.69 118.85,-37.91"/>
</a>
</g>
</g>
<!-- Node3 -->
<g id="Node000003" class="node">
<title>Node3</title>
<g id="a_Node000003"><a xlink:title=" ">
<polygon fill="#e0e0e0" stroke="#999999" points="261.75,-38 140,-38 140,-6 261.75,-6 261.75,-38"/>
<text text-anchor="start" x="148" y="-24.5" font-family="Helvetica,sans-Serif" font-size="10.00">com.zaxxer.hikari.Hikari</text>
<text text-anchor="middle" x="200.88" y="-12.5" font-family="Helvetica,sans-Serif" font-size="10.00">DataSource</text>
</a>
</g>
</g>
<!-- Node1&#45;&gt;Node3 -->
<g id="edge2_Node000001_Node000003" class="edge">
<title>Node1&#45;&gt;Node3</title>
<g id="a_edge2_Node000001_Node000003"><a xlink:title=" ">
<path fill="none" stroke="#63b8ff" d="M993.11,-101.13C846.94,-100.05 531.71,-91.77 270.88,-44 266.76,-43.25 262.55,-42.34 258.33,-41.33"/>
<polygon fill="#63b8ff" stroke="#63b8ff" points="259.24,-37.95 248.68,-38.84 257.49,-44.73 259.24,-37.95"/>
</a>
</g>
</g>
<!-- Node4 -->
<g id="Node000004" class="node">
<title>Node4</title>
<g id="a_Node000004"><a xlink:title=" ">
<polygon fill="#e0e0e0" stroke="#999999" points="475.5,-38 280.25,-38 280.25,-6 475.5,-6 475.5,-38"/>
<text text-anchor="start" x="288.25" y="-24.5" font-family="Helvetica,sans-Serif" font-size="10.00">fr.softsf.sudokufx.annotations.</text>
<text text-anchor="middle" x="377.88" y="-12.5" font-family="Helvetica,sans-Serif" font-size="10.00">ExcludedFromCoverageReportGenerated</text>
</a>
</g>
</g>
<!-- Node1&#45;&gt;Node4 -->
<g id="edge3_Node000001_Node000004" class="edge">
<title>Node1&#45;&gt;Node4</title>
<g id="a_edge3_Node000001_Node000004"><a xlink:title=" ">
<path fill="none" stroke="#63b8ff" d="M992.97,-95.62C878.76,-87.55 665.36,-70.37 484.88,-44 477.72,-42.96 470.32,-41.75 462.91,-40.47"/>
<polygon fill="#63b8ff" stroke="#63b8ff" points="463.63,-37.04 453.17,-38.73 462.4,-43.93 463.63,-37.04"/>
</a>
</g>
</g>
<!-- Node5 -->
<g id="Node000005" class="node">
<title>Node5</title>
<g id="a_Node000005"><a xlink:title=" ">
<polygon fill="#e0e0e0" stroke="#999999" points="647.88,-38 493.88,-38 493.88,-6 647.88,-6 647.88,-38"/>
<text text-anchor="start" x="501.88" y="-24.5" font-family="Helvetica,sans-Serif" font-size="10.00">fr.softsf.sudokufx.configuration.</text>
<text text-anchor="middle" x="570.88" y="-12.5" font-family="Helvetica,sans-Serif" font-size="10.00">MyLogbackConfig</text>
</a>
</g>
</g>
<!-- Node1&#45;&gt;Node5 -->
<g id="edge4_Node000001_Node000005" class="edge">
<title>Node1&#45;&gt;Node5</title>
<g id="a_edge4_Node000001_Node000005"><a xlink:title=" ">
<path fill="none" stroke="#63b8ff" d="M993.16,-92.4C908.61,-82.91 772.91,-66.02 656.88,-44 651.99,-43.07 646.96,-42.04 641.91,-40.95"/>
<polygon fill="#63b8ff" stroke="#63b8ff" points="642.85,-37.58 632.32,-38.82 641.32,-44.41 642.85,-37.58"/>
</a>
</g>
</g>
<!-- Node6 -->
<g id="Node000006" class="node">
<title>Node6</title>
<g id="a_Node000006"><a xlink:title=" ">
<polygon fill="#e0e0e0" stroke="#999999" points="903.5,-38 666.25,-38 666.25,-6 903.5,-6 903.5,-38"/>
<text text-anchor="start" x="674.25" y="-24.5" font-family="Helvetica,sans-Serif" font-size="10.00">fr.softsf.sudokufx.configuration.database.keystore.</text>
<text text-anchor="middle" x="784.88" y="-12.5" font-family="Helvetica,sans-Serif" font-size="10.00">IKeystore</text>
</a>
</g>
</g>
<!-- Node1&#45;&gt;Node6 -->
<g id="edge5_Node000001_Node000006" class="edge">
<title>Node1&#45;&gt;Node6</title>
<g id="a_edge5_Node000001_Node000006"><a xlink:title=" ">
<path fill="none" stroke="#63b8ff" d="M995.25,-79.58C950.76,-67.62 895.9,-52.86 853.35,-41.42"/>
<polygon fill="#63b8ff" stroke="#63b8ff" points="854.28,-38.04 843.72,-38.83 852.47,-44.8 854.28,-38.04"/>
</a>
</g>
</g>
<!-- Node7 -->
<g id="Node000007" class="node">
<title>Node7</title>
<g id="a_Node000007"><a xlink:title=" ">
<polygon fill="#e0e0e0" stroke="#999999" points="1088.62,-38 921.12,-38 921.12,-6 1088.62,-6 1088.62,-38"/>
<text text-anchor="start" x="929.12" y="-24.5" font-family="Helvetica,sans-Serif" font-size="10.00">fr.softsf.sudokufx.configuration.os.</text>
<text text-anchor="middle" x="1004.88" y="-12.5" font-family="Helvetica,sans-Serif" font-size="10.00">IOsFolderFactory</text>
</a>
</g>
</g>
<!-- Node1&#45;&gt;Node7 -->
<g id="edge6_Node000001_Node000007" class="edge">
<title>Node1&#45;&gt;Node7</title>
<g id="a_edge6_Node000001_Node000007"><a xlink:title=" ">
<path fill="none" stroke="#63b8ff" d="M1055.75,-79.69C1046.51,-69.4 1035.41,-57.02 1025.93,-46.46"/>
<polygon fill="#63b8ff" stroke="#63b8ff" points="1028.73,-44.34 1019.44,-39.23 1023.52,-49.02 1028.73,-44.34"/>
</a>
</g>
</g>
<!-- Node8 -->
<g id="Node000008" class="node">
<title>Node8</title>
<g id="a_Node000008"><a xlink:title=" ">
<polygon fill="#e0e0e0" stroke="#999999" points="1183.25,-32 1106.5,-32 1106.5,-12 1183.25,-12 1183.25,-32"/>
<text text-anchor="middle" x="1144.88" y="-18.5" font-family="Helvetica,sans-Serif" font-size="10.00">lombok.Setter</text>
</a>
</g>
</g>
<!-- Node1&#45;&gt;Node8 -->
<g id="edge7_Node000001_Node000008" class="edge">
<title>Node1&#45;&gt;Node8</title>
<g id="a_edge7_Node000001_Node000008"><a xlink:title=" ">
<path fill="none" stroke="#63b8ff" d="M1094,-79.69C1104.99,-67.44 1118.63,-52.25 1129.01,-40.67"/>
<polygon fill="#63b8ff" stroke="#63b8ff" points="1131.45,-43.2 1135.52,-33.42 1126.24,-38.52 1131.45,-43.2"/>
</a>
</g>
</g>
<!-- Node9 -->
<g id="Node000009" class="node">
<title>Node9</title>
<g id="a_Node000009"><a xlink:title=" ">
<polygon fill="#e0e0e0" stroke="#999999" points="1328.75,-32 1201,-32 1201,-12 1328.75,-12 1328.75,-32"/>
<text text-anchor="middle" x="1264.88" y="-18.5" font-family="Helvetica,sans-Serif" font-size="10.00">org.flywaydb.core.Flyway</text>
</a>
</g>
</g>
<!-- Node1&#45;&gt;Node9 -->
<g id="edge8_Node000001_Node000009" class="edge">
<title>Node1&#45;&gt;Node9</title>
<g id="a_edge8_Node000001_Node000009"><a xlink:title=" ">
<path fill="none" stroke="#63b8ff" d="M1127.04,-79.58C1160.36,-65.91 1202.56,-48.58 1231.44,-36.73"/>
<polygon fill="#63b8ff" stroke="#63b8ff" points="1232.48,-40.08 1240.41,-33.05 1229.83,-33.61 1232.48,-40.08"/>
</a>
</g>
</g>
<!-- Node10 -->
<g id="Node000010" class="node">
<title>Node10</title>
<g id="a_Node000010"><a xlink:title=" ">
<polygon fill="#e0e0e0" stroke="#999999" points="1560.5,-32 1347.25,-32 1347.25,-12 1560.5,-12 1560.5,-32"/>
<text text-anchor="middle" x="1453.88" y="-18.5" font-family="Helvetica,sans-Serif" font-size="10.00">org.springframework.context.annotation.Bean</text>
</a>
</g>
</g>
<!-- Node1&#45;&gt;Node10 -->
<g id="edge9_Node000001_Node000010" class="edge">
<title>Node1&#45;&gt;Node10</title>
<g id="a_edge9_Node000001_Node000010"><a xlink:title=" ">
<path fill="none" stroke="#63b8ff" d="M1156.65,-84.17C1229.11,-69.26 1333.05,-47.87 1396.86,-34.73"/>
<polygon fill="#63b8ff" stroke="#63b8ff" points="1397.34,-38.21 1406.43,-32.77 1395.93,-31.35 1397.34,-38.21"/>
</a>
</g>
</g>
<!-- Node11 -->
<g id="Node000011" class="node">
<title>Node11</title>
<g id="a_Node000011"><a xlink:title=" ">
<polygon fill="#e0e0e0" stroke="#999999" points="1769.25,-38 1578.5,-38 1578.5,-6 1769.25,-6 1769.25,-38"/>
<text text-anchor="start" x="1586.5" y="-24.5" font-family="Helvetica,sans-Serif" font-size="10.00">org.springframework.context.annotation.</text>
<text text-anchor="middle" x="1673.88" y="-12.5" font-family="Helvetica,sans-Serif" font-size="10.00">Configuration</text>
</a>
</g>
</g>
<!-- Node1&#45;&gt;Node11 -->
<g id="edge10_Node000001_Node000011" class="edge">
<title>Node1&#45;&gt;Node11</title>
<g id="a_edge10_Node000001_Node000011"><a xlink:title=" ">
<path fill="none" stroke="#63b8ff" d="M1156.62,-93.72C1255,-84.48 1425.05,-66.92 1569.88,-44 1576.56,-42.94 1583.47,-41.75 1590.4,-40.5"/>
<polygon fill="#63b8ff" stroke="#63b8ff" points="1590.6,-44.02 1599.79,-38.75 1589.32,-37.14 1590.6,-44.02"/>
</a>
</g>
</g>
<!-- Node12 -->
<g id="Node000012" class="node">
<title>Node12</title>
<g id="a_Node000012"><a xlink:title=" ">
<polygon fill="#e0e0e0" stroke="#999999" points="1978.25,-38 1787.5,-38 1787.5,-6 1978.25,-6 1978.25,-38"/>
<text text-anchor="start" x="1795.5" y="-24.5" font-family="Helvetica,sans-Serif" font-size="10.00">org.springframework.context.annotation.</text>
<text text-anchor="middle" x="1882.88" y="-12.5" font-family="Helvetica,sans-Serif" font-size="10.00">DependsOn</text>
</a>
</g>
</g>
<!-- Node1&#45;&gt;Node12 -->
<g id="edge11_Node000001_Node000012" class="edge">
<title>Node1&#45;&gt;Node12</title>
<g id="a_edge11_Node000001_Node000012"><a xlink:title=" ">
<path fill="none" stroke="#63b8ff" d="M1156.67,-97.46C1288.11,-91.09 1554.29,-75.31 1777.88,-44 1785.09,-42.99 1792.55,-41.8 1800.02,-40.5"/>
<polygon fill="#63b8ff" stroke="#63b8ff" points="1800.62,-43.95 1809.84,-38.73 1799.38,-37.06 1800.62,-43.95"/>
</a>
</g>
</g>
<!-- Node13 -->
<g id="Node000013" class="node">
<title>Node13</title>
<g id="a_Node000013"><a xlink:title=" ">
<polygon fill="#e0e0e0" stroke="#999999" points="2141,-44 1996.75,-44 1996.75,0 2141,0 2141,-44"/>
<text text-anchor="start" x="2004.75" y="-30.5" font-family="Helvetica,sans-Serif" font-size="10.00">fr.softsf.sudokufx.utils.</text>
<text text-anchor="start" x="2004.75" y="-18.5" font-family="Helvetica,sans-Serif" font-size="10.00">MyEnums.Paths.DATABASE</text>
<text text-anchor="middle" x="2068.88" y="-6.5" font-family="Helvetica,sans-Serif" font-size="10.00">_MIGRATION_PATH</text>
</a>
</g>
</g>
<!-- Node1&#45;&gt;Node13 -->
<g id="edge12_Node000001_Node000013" class="edge">
<title>Node1&#45;&gt;Node13</title>
<g id="a_edge12_Node000001_Node000013"><a xlink:title=" ">
<path fill="none" stroke="#63b8ff" d="M1156.57,-101.03C1314.95,-99.97 1674.7,-92.11 1985.56,-44.03"/>
<polygon fill="#63b8ff" stroke="#63b8ff" points="1985.76,-47.54 1995.1,-42.53 1984.68,-40.62 1985.76,-47.54"/>
</a>
</g>
</g>
</g>
</svg>
