<?xml version="1.0" encoding="UTF-8" standalone="no"?>
<!DOCTYPE svg PUBLIC "-//W3C//DTD SVG 1.1//EN"
 "http://www.w3.org/Graphics/SVG/1.1/DTD/svg11.dtd">
<!-- Generated by graphviz version 12.2.1 (20241206.2353)
 -->
<!-- Title: src/main/java/fr/softsf/sudokufx/configuration/database/DataSourceConfigCds.java Pages: 1 -->
<svg width="1193pt" height="120pt"
 viewBox="0.00 0.00 1193.25 120.00" xmlns="http://www.w3.org/2000/svg" xmlns:xlink="http://www.w3.org/1999/xlink">
<g id="graph0" class="graph" transform="scale(1 1) rotate(0) translate(4 116)">
<title>src/main/java/fr/softsf/sudokufx/configuration/database/DataSourceConfigCds.java</title>
<!-- Node1 -->
<g id="Node000001" class="node">
<title>Node1</title>
<g id="a_Node000001"><a xlink:title=" ">
<polygon fill="#999999" stroke="#666666" points="672.38,-112 491.38,-112 491.38,-68 672.38,-68 672.38,-112"/>
<text text-anchor="start" x="499.38" y="-98.5" font-family="Helvetica,sans-Serif" font-size="10.00">src/main/java/fr/softsf</text>
<text text-anchor="start" x="499.38" y="-86.5" font-family="Helvetica,sans-Serif" font-size="10.00">/sudokufx/configuration</text>
<text text-anchor="middle" x="581.88" y="-74.5" font-family="Helvetica,sans-Serif" font-size="10.00">/database/DataSourceConfigCds.java</text>
</a>
</g>
</g>
<!-- Node2 -->
<g id="Node000002" class="node">
<title>Node2</title>
<g id="a_Node000002"><a xlink:title=" ">
<polygon fill="#e0e0e0" stroke="#999999" points="121.75,-32 0,-32 0,0 121.75,0 121.75,-32"/>
<text text-anchor="start" x="8" y="-18.5" font-family="Helvetica,sans-Serif" font-size="10.00">com.zaxxer.hikari.Hikari</text>
<text text-anchor="middle" x="60.88" y="-6.5" font-family="Helvetica,sans-Serif" font-size="10.00">DataSource</text>
</a>
</g>
</g>
<!-- Node1&#45;&gt;Node2 -->
<g id="edge1_Node000001_Node000002" class="edge">
<title>Node1&#45;&gt;Node2</title>
<g id="a_edge1_Node000001_Node000002"><a xlink:title=" ">
<path fill="none" stroke="#63b8ff" d="M491.27,-79.85C402.55,-70.36 263.33,-54.09 133.25,-32.31"/>
<polygon fill="#63b8ff" stroke="#63b8ff" points="133.83,-28.86 123.39,-30.65 132.67,-35.77 133.83,-28.86"/>
</a>
</g>
</g>
<!-- Node3 -->
<g id="Node000003" class="node">
<title>Node3</title>
<g id="a_Node000003"><a xlink:title=" ">
<polygon fill="#e0e0e0" stroke="#999999" points="335.5,-32 140.25,-32 140.25,0 335.5,0 335.5,-32"/>
<text text-anchor="start" x="148.25" y="-18.5" font-family="Helvetica,sans-Serif" font-size="10.00">fr.softsf.sudokufx.annotations.</text>
<text text-anchor="middle" x="237.88" y="-6.5" font-family="Helvetica,sans-Serif" font-size="10.00">ExcludedFromCoverageReportGenerated</text>
</a>
</g>
</g>
<!-- Node1&#45;&gt;Node3 -->
<g id="edge2_Node000001_Node000003" class="edge">
<title>Node1&#45;&gt;Node3</title>
<g id="a_edge2_Node000001_Node000003"><a xlink:title=" ">
<path fill="none" stroke="#63b8ff" d="M491.04,-69.99C438.93,-59.08 373.92,-45.48 322.83,-34.78"/>
<polygon fill="#63b8ff" stroke="#63b8ff" points="323.8,-31.41 313.3,-32.79 322.37,-38.26 323.8,-31.41"/>
</a>
</g>
</g>
<!-- Node4 -->
<g id="Node000004" class="node">
<title>Node4</title>
<g id="a_Node000004"><a xlink:title=" ">
<polygon fill="#e0e0e0" stroke="#999999" points="590.5,-32 353.25,-32 353.25,0 590.5,0 590.5,-32"/>
<text text-anchor="start" x="361.25" y="-18.5" font-family="Helvetica,sans-Serif" font-size="10.00">fr.softsf.sudokufx.configuration.database.keystore.</text>
<text text-anchor="middle" x="471.88" y="-6.5" font-family="Helvetica,sans-Serif" font-size="10.00">IKeystore</text>
</a>
</g>
</g>
<!-- Node1&#45;&gt;Node4 -->
<g id="edge3_Node000001_Node000004" class="edge">
<title>Node1&#45;&gt;Node4</title>
<g id="a_edge3_Node000001_Node000004"><a xlink:title=" ">
<path fill="none" stroke="#63b8ff" d="M549.17,-67.59C535.17,-58.43 518.86,-47.75 504.83,-38.57"/>
<polygon fill="#63b8ff" stroke="#63b8ff" points="507.1,-35.87 496.82,-33.32 503.27,-41.73 507.1,-35.87"/>
</a>
</g>
</g>
<!-- Node5 -->
<g id="Node000005" class="node">
<title>Node5</title>
<g id="a_Node000005"><a xlink:title=" ">
<polygon fill="#e0e0e0" stroke="#999999" points="775.62,-32 608.12,-32 608.12,0 775.62,0 775.62,-32"/>
<text text-anchor="start" x="616.12" y="-18.5" font-family="Helvetica,sans-Serif" font-size="10.00">fr.softsf.sudokufx.configuration.os.</text>
<text text-anchor="middle" x="691.88" y="-6.5" font-family="Helvetica,sans-Serif" font-size="10.00">IOsFolderFactory</text>
</a>
</g>
</g>
<!-- Node1&#45;&gt;Node5 -->
<g id="edge4_Node000001_Node000005" class="edge">
<title>Node1&#45;&gt;Node5</title>
<g id="a_edge4_Node000001_Node000005"><a xlink:title=" ">
<path fill="none" stroke="#63b8ff" d="M614.58,-67.59C628.58,-58.43 644.89,-47.75 658.92,-38.57"/>
<polygon fill="#63b8ff" stroke="#63b8ff" points="660.48,-41.73 666.93,-33.32 656.65,-35.87 660.48,-41.73"/>
</a>
</g>
</g>
<!-- Node6 -->
<g id="Node000006" class="node">
<title>Node6</title>
<g id="a_Node000006"><a xlink:title=" ">
<polygon fill="#e0e0e0" stroke="#999999" points="988.12,-26 793.62,-26 793.62,-6 988.12,-6 988.12,-26"/>
<text text-anchor="middle" x="890.88" y="-12.5" font-family="Helvetica,sans-Serif" font-size="10.00">org.springframework.context.annotation.*</text>
</a>
</g>
</g>
<!-- Node1&#45;&gt;Node6 -->
<g id="edge5_Node000001_Node000006" class="edge">
<title>Node1&#45;&gt;Node6</title>
<g id="a_edge5_Node000001_Node000006"><a xlink:title=" ">
<path fill="none" stroke="#63b8ff" d="M672.5,-67.88C726.84,-55.22 793.97,-39.58 839.35,-29.01"/>
<polygon fill="#63b8ff" stroke="#63b8ff" points="839.98,-32.45 848.92,-26.78 838.39,-25.64 839.98,-32.45"/>
</a>
</g>
</g>
<!-- Node7 -->
<g id="Node000007" class="node">
<title>Node7</title>
<g id="a_Node000007"><a xlink:title=" ">
<polygon fill="#e0e0e0" stroke="#999999" points="1185.25,-32 1006.5,-32 1006.5,0 1185.25,0 1185.25,-32"/>
<text text-anchor="start" x="1014.5" y="-18.5" font-family="Helvetica,sans-Serif" font-size="10.00">fr.softsf.sudokufx.utils.</text>
<text text-anchor="middle" x="1095.88" y="-6.5" font-family="Helvetica,sans-Serif" font-size="10.00">MyEnums.Paths.DATABASE_NAME</text>
</a>
</g>
</g>
<!-- Node1&#45;&gt;Node7 -->
<g id="edge6_Node000001_Node000007" class="edge">
<title>Node1&#45;&gt;Node7</title>
<g id="a_edge6_Node000001_Node000007"><a xlink:title=" ">
<path fill="none" stroke="#63b8ff" d="M672.6,-76.91C754.08,-65.96 877.31,-49.2 994.7,-32.3"/>
<polygon fill="#63b8ff" stroke="#63b8ff" points="995.14,-35.77 1004.54,-30.88 994.14,-28.85 995.14,-35.77"/>
</a>
</g>
</g>
</g>
</svg>
