<?xml version="1.0" encoding="UTF-8" standalone="no"?>
<!DOCTYPE svg PUBLIC "-//W3C//DTD SVG 1.1//EN"
 "http://www.w3.org/Graphics/SVG/1.1/DTD/svg11.dtd">
<!-- Generated by graphviz version 12.2.1 (20241206.2353)
 -->
<!-- Title: src/main/java/fr/softsf/sudokufx/view/DefaultView.java Pages: 1 -->
<!--zoomable 108 -->

<svg id="main" version="1.1" xmlns="http://www.w3.org/2000/svg" xmlns:xlink="http://www.w3.org/1999/xlink" xml:space="preserve" onload="init(evt)">

<style type="text/css"><![CDATA[
.node, .edge {opacity: 0.7;}
.node.selected, .edge.selected {opacity: 1;}
.edge:hover path { stroke: red; }
.edge:hover polygon { stroke: red; fill: red; }
]]></style>

<defs>
  <circle id="rim" cx="0" cy="0" r="7"/>
  <circle id="rim2" cx="0" cy="0" r="3.5"/>
  <g id="zoomPlus">
    <use xlink:href="#rim" fill="#404040"><set attributeName="fill" to="#808080" begin="zoomplus.mouseover" end="zoomplus.mouseout"/></use>
    <path d="M-4,0h8M0,-4v8" fill="none" stroke="white" stroke-width="1.5" pointer-events="none"/>
  </g>
  <g id="zoomMin">
    <use xlink:href="#rim" fill="#404040"><set attributeName="fill" to="#808080" begin="zoomminus.mouseover" end="zoomminus.mouseout"/></use>
    <path d="M-4,0h8" fill="none" stroke="white" stroke-width="1.5" pointer-events="none"/>
  </g>
  <g id="arrowUp" transform="translate(30 24)">
    <use xlink:href="#rim"/>
    <path pointer-events="none" fill="none" stroke="white" stroke-width="1.5" d="M0,-3.0v7 M-2.5,-0.5L0,-3.0L2.5,-0.5"/>
  </g>
  <g id="arrowRight" transform="rotate(90) translate(36 -43)">
    <use xlink:href="#rim"/>
    <path pointer-events="none" fill="none" stroke="white" stroke-width="1.5" d="M0,-3.0v7 M-2.5,-0.5L0,-3.0L2.5,-0.5"/>
  </g>
  <g id="arrowDown" transform="rotate(180) translate(-30 -48)">
    <use xlink:href="#rim"/>
    <path pointer-events="none" fill="none" stroke="white" stroke-width="1.5" d="M0,-3.0v7 M-2.5,-0.5L0,-3.0L2.5,-0.5"/>
  </g>
  <g id="arrowLeft" transform="rotate(270) translate(-36 17)">
    <use xlink:href="#rim"/>
    <path pointer-events="none" fill="none" stroke="white" stroke-width="1.5" d="M0,-3.0v7 M-2.5,-0.5L0,-3.0L2.5,-0.5"/>
  </g>
  <g id="resetDef">
    <use xlink:href="#rim2" fill="#404040"><set attributeName="fill" to="#808080" begin="reset.mouseover" end="reset.mouseout"/></use>
  </g>
</defs>
<script type="application/ecmascript">
var viewWidth = 2517;
var viewHeight = 108;
var sectionId = 'dynsection-0';
</script>
<script type="application/ecmascript" xlink:href="svg.min.js"/>
<svg id="graph" class="graph">
<g id="viewport">
<title>src/main/java/fr/softsf/sudokufx/view/DefaultView.java</title>
<!-- Node1 -->
<g id="Node000001" class="node">
<title>Node1</title>
<g id="a_Node000001"><a xlink:title=" ">
<polygon fill="#999999" stroke="#666666" points="1421.75,-100 1263.25,-100 1263.25,-68 1421.75,-68 1421.75,-100"/>
<text text-anchor="start" x="1271.25" y="-86.5" font-family="Helvetica,sans-Serif" font-size="10.00">src/main/java/fr/softsf</text>
<text text-anchor="middle" x="1342.5" y="-74.5" font-family="Helvetica,sans-Serif" font-size="10.00">/sudokufx/view/DefaultView.java</text>
</a>
</g>
</g>
<!-- Node2 -->
<g id="Node000002" class="node">
<title>Node2</title>
<g id="a_Node000002"><a xlink:title=" ">
<polygon fill="#e0e0e0" stroke="#999999" points="139,-26 0,-26 0,-6 139,-6 139,-26"/>
<text text-anchor="middle" x="69.5" y="-12.5" font-family="Helvetica,sans-Serif" font-size="10.00">fr.softsf.sudokufx.SudoMain</text>
</a>
</g>
</g>
<!-- Node1&#45;&gt;Node2 -->
<g id="edge1_Node000001_Node000002" class="edge">
<title>Node1&#45;&gt;Node2</title>
<g id="a_edge1_Node000001_Node000002"><a xlink:title=" ">
<path fill="none" stroke="#63b8ff" d="M1262.82,-83.64C1070.41,-84.31 565.42,-80.83 147.5,-32 139.77,-31.1 131.66,-29.86 123.72,-28.49"/>
<polygon fill="#63b8ff" stroke="#63b8ff" points="124.6,-25.09 114.13,-26.74 123.34,-31.98 124.6,-25.09"/>
</a>
</g>
</g>
<!-- Node3 -->
<g id="Node000003" class="node">
<title>Node3</title>
<g id="a_Node000003"><a xlink:title=" ">
<polygon fill="#e0e0e0" stroke="#999999" points="284.38,-32 156.62,-32 156.62,0 284.38,0 284.38,-32"/>
<text text-anchor="start" x="164.62" y="-18.5" font-family="Helvetica,sans-Serif" font-size="10.00">fr.softsf.sudokufx.enums.</text>
<text text-anchor="middle" x="220.5" y="-6.5" font-family="Helvetica,sans-Serif" font-size="10.00">Paths</text>
</a>
</g>
</g>
<!-- Node1&#45;&gt;Node3 -->
<g id="edge2_Node000001_Node000003" class="edge">
<title>Node1&#45;&gt;Node3</title>
<g id="a_edge2_Node000001_Node000003"><a xlink:title=" ">
<path fill="none" stroke="#63b8ff" d="M1262.85,-83.3C1088.93,-83.06 662.13,-77.55 295.86,-32.16"/>
<polygon fill="#63b8ff" stroke="#63b8ff" points="296.36,-28.69 286,-30.92 295.49,-35.64 296.36,-28.69"/>
</a>
</g>
</g>
<!-- Node4 -->
<g id="Node000004" class="node">
<title>Node4</title>
<g id="a_Node000004"><a xlink:title=" ">
<polygon fill="#e0e0e0" stroke="#999999" points="444.12,-32 302.88,-32 302.88,0 444.12,0 444.12,-32"/>
<text text-anchor="start" x="310.88" y="-18.5" font-family="Helvetica,sans-Serif" font-size="10.00">fr.softsf.sudokufx.interfaces.</text>
<text text-anchor="middle" x="373.5" y="-6.5" font-family="Helvetica,sans-Serif" font-size="10.00">IMainStageView</text>
</a>
</g>
</g>
<!-- Node1&#45;&gt;Node4 -->
<g id="edge3_Node000001_Node000004" class="edge">
<title>Node1&#45;&gt;Node4</title>
<g id="a_edge3_Node000001_Node000004"><a xlink:title=" ">
<path fill="none" stroke="#63b8ff" d="M1263.01,-81.92C1108.94,-79.06 758.8,-68.88 455.7,-32.3"/>
<polygon fill="#63b8ff" stroke="#63b8ff" points="456.34,-28.85 445.99,-31.11 455.5,-35.8 456.34,-28.85"/>
</a>
</g>
</g>
<!-- Node5 -->
<g id="Node000005" class="node">
<title>Node5</title>
<g id="a_Node000005"><a xlink:title=" ">
<polygon fill="#e0e0e0" stroke="#999999" points="603.12,-32 461.88,-32 461.88,0 603.12,0 603.12,-32"/>
<text text-anchor="start" x="469.88" y="-18.5" font-family="Helvetica,sans-Serif" font-size="10.00">fr.softsf.sudokufx.interfaces.</text>
<text text-anchor="middle" x="532.5" y="-6.5" font-family="Helvetica,sans-Serif" font-size="10.00">ISceneProvider</text>
</a>
</g>
</g>
<!-- Node1&#45;&gt;Node5 -->
<g id="edge4_Node000001_Node000005" class="edge">
<title>Node1&#45;&gt;Node5</title>
<g id="a_edge4_Node000001_Node000005"><a xlink:title=" ">
<path fill="none" stroke="#63b8ff" d="M1262.96,-80.52C1130.39,-75.72 855.75,-62.9 614.59,-32.31"/>
<polygon fill="#63b8ff" stroke="#63b8ff" points="615.36,-28.88 605,-31.08 614.47,-35.83 615.36,-28.88"/>
</a>
</g>
</g>
<!-- Node6 -->
<g id="Node000006" class="node">
<title>Node6</title>
<g id="a_Node000006"><a xlink:title=" ">
<polygon fill="#e0e0e0" stroke="#999999" points="762.12,-32 620.88,-32 620.88,0 762.12,0 762.12,-32"/>
<text text-anchor="start" x="628.88" y="-18.5" font-family="Helvetica,sans-Serif" font-size="10.00">fr.softsf.sudokufx.interfaces.</text>
<text text-anchor="middle" x="691.5" y="-6.5" font-family="Helvetica,sans-Serif" font-size="10.00">ISplashScreenView</text>
</a>
</g>
</g>
<!-- Node1&#45;&gt;Node6 -->
<g id="edge5_Node000001_Node000006" class="edge">
<title>Node1&#45;&gt;Node6</title>
<g id="a_edge5_Node000001_Node000006"><a xlink:title=" ">
<path fill="none" stroke="#63b8ff" d="M1262.79,-78.31C1154.43,-71.4 954.42,-56.71 773.86,-32.24"/>
<polygon fill="#63b8ff" stroke="#63b8ff" points="774.42,-28.78 764.04,-30.89 773.47,-35.72 774.42,-28.78"/>
</a>
</g>
</g>
<!-- Node7 -->
<g id="Node000007" class="node">
<title>Node7</title>
<g id="a_Node000007"><a xlink:title=" ">
<polygon fill="#e0e0e0" stroke="#999999" points="934.88,-26 780.12,-26 780.12,-6 934.88,-6 934.88,-26"/>
<text text-anchor="middle" x="857.5" y="-12.5" font-family="Helvetica,sans-Serif" font-size="10.00">javafx.animation.FadeTransition</text>
</a>
</g>
</g>
<!-- Node1&#45;&gt;Node7 -->
<g id="edge6_Node000001_Node000007" class="edge">
<title>Node1&#45;&gt;Node7</title>
<g id="a_edge6_Node000001_Node000007"><a xlink:title=" ">
<path fill="none" stroke="#63b8ff" d="M1262.86,-73.9C1182.22,-64.44 1053.98,-48.69 943.5,-32 936.05,-30.87 928.25,-29.62 920.52,-28.33"/>
<polygon fill="#63b8ff" stroke="#63b8ff" points="921.22,-24.9 910.77,-26.68 920.05,-31.8 921.22,-24.9"/>
</a>
</g>
</g>
<!-- Node8 -->
<g id="Node000008" class="node">
<title>Node8</title>
<g id="a_Node000008"><a xlink:title=" ">
<polygon fill="#e0e0e0" stroke="#999999" points="1046.12,-26 952.88,-26 952.88,-6 1046.12,-6 1046.12,-26"/>
<text text-anchor="middle" x="999.5" y="-12.5" font-family="Helvetica,sans-Serif" font-size="10.00">javafx.fxml.FXML</text>
</a>
</g>
</g>
<!-- Node1&#45;&gt;Node8 -->
<g id="edge7_Node000001_Node000008" class="edge">
<title>Node1&#45;&gt;Node8</title>
<g id="a_edge7_Node000001_Node000008"><a xlink:title=" ">
<path fill="none" stroke="#63b8ff" d="M1262.96,-70.91C1204.92,-61.61 1124.48,-47.71 1054.5,-32 1050.77,-31.16 1046.9,-30.23 1043.04,-29.26"/>
<polygon fill="#63b8ff" stroke="#63b8ff" points="1044.27,-25.97 1033.71,-26.84 1042.5,-32.74 1044.27,-25.97"/>
</a>
</g>
</g>
<!-- Node9 -->
<g id="Node000009" class="node">
<title>Node9</title>
<g id="a_Node000009"><a xlink:title=" ">
<polygon fill="#e0e0e0" stroke="#999999" points="1209,-26 1064,-26 1064,-6 1209,-6 1209,-26"/>
<text text-anchor="middle" x="1136.5" y="-12.5" font-family="Helvetica,sans-Serif" font-size="10.00">javafx.geometry.Rectangle2D</text>
</a>
</g>
</g>
<!-- Node1&#45;&gt;Node9 -->
<g id="edge8_Node000001_Node000009" class="edge">
<title>Node1&#45;&gt;Node9</title>
<g id="a_edge8_Node000001_Node000009"><a xlink:title=" ">
<path fill="none" stroke="#63b8ff" d="M1294.2,-67.53C1258.52,-56.09 1210.49,-40.71 1176.85,-29.93"/>
<polygon fill="#63b8ff" stroke="#63b8ff" points="1178.06,-26.64 1167.47,-26.92 1175.92,-33.31 1178.06,-26.64"/>
</a>
</g>
</g>
<!-- Node10 -->
<g id="Node000010" class="node">
<title>Node10</title>
<g id="a_Node000010"><a xlink:title=" ">
<polygon fill="#e0e0e0" stroke="#999999" points="1324.38,-26 1226.62,-26 1226.62,-6 1324.38,-6 1324.38,-26"/>
<text text-anchor="middle" x="1275.5" y="-12.5" font-family="Helvetica,sans-Serif" font-size="10.00">javafx.scene.Node</text>
</a>
</g>
</g>
<!-- Node1&#45;&gt;Node10 -->
<g id="edge9_Node000001_Node000010" class="edge">
<title>Node1&#45;&gt;Node10</title>
<g id="a_edge9_Node000001_Node000010"><a xlink:title=" ">
<path fill="none" stroke="#63b8ff" d="M1326.96,-67.69C1316.81,-57.7 1303.54,-44.63 1293.02,-34.26"/>
<polygon fill="#63b8ff" stroke="#63b8ff" points="1295.62,-31.9 1286.04,-27.38 1290.7,-36.89 1295.62,-31.9"/>
</a>
</g>
</g>
<!-- Node11 -->
<g id="Node000011" class="node">
<title>Node11</title>
<g id="a_Node000011"><a xlink:title=" ">
<polygon fill="#e0e0e0" stroke="#999999" points="1478.12,-26 1342.88,-26 1342.88,-6 1478.12,-6 1478.12,-26"/>
<text text-anchor="middle" x="1410.5" y="-12.5" font-family="Helvetica,sans-Serif" font-size="10.00">javafx.scene.control.Button</text>
</a>
</g>
</g>
<!-- Node1&#45;&gt;Node11 -->
<g id="edge10_Node000001_Node000011" class="edge">
<title>Node1&#45;&gt;Node11</title>
<g id="a_edge10_Node000001_Node000011"><a xlink:title=" ">
<path fill="none" stroke="#63b8ff" d="M1358.27,-67.69C1368.57,-57.7 1382.04,-44.63 1392.72,-34.26"/>
<polygon fill="#63b8ff" stroke="#63b8ff" points="1395.08,-36.85 1399.82,-27.37 1390.2,-31.82 1395.08,-36.85"/>
</a>
</g>
</g>
<!-- Node12 -->
<g id="Node000012" class="node">
<title>Node12</title>
<g id="a_Node000012"><a xlink:title=" ">
<polygon fill="#e0e0e0" stroke="#999999" points="1626.5,-26 1496.5,-26 1496.5,-6 1626.5,-6 1626.5,-26"/>
<text text-anchor="middle" x="1561.5" y="-12.5" font-family="Helvetica,sans-Serif" font-size="10.00">javafx.scene.control.Label</text>
</a>
</g>
</g>
<!-- Node1&#45;&gt;Node12 -->
<g id="edge11_Node000001_Node000012" class="edge">
<title>Node1&#45;&gt;Node12</title>
<g id="a_edge11_Node000001_Node000012"><a xlink:title=" ">
<path fill="none" stroke="#63b8ff" d="M1393.85,-67.53C1432.11,-55.99 1483.73,-40.44 1519.54,-29.65"/>
<polygon fill="#63b8ff" stroke="#63b8ff" points="1520.1,-33.13 1528.66,-26.9 1518.08,-26.43 1520.1,-33.13"/>
</a>
</g>
</g>
<!-- Node13 -->
<g id="Node000013" class="node">
<title>Node13</title>
<g id="a_Node000013"><a xlink:title=" ">
<polygon fill="#e0e0e0" stroke="#999999" points="1774.88,-26 1644.12,-26 1644.12,-6 1774.88,-6 1774.88,-26"/>
<text text-anchor="middle" x="1709.5" y="-12.5" font-family="Helvetica,sans-Serif" font-size="10.00">javafx.scene.image.Image</text>
</a>
</g>
</g>
<!-- Node1&#45;&gt;Node13 -->
<g id="edge12_Node000001_Node000013" class="edge">
<title>Node1&#45;&gt;Node13</title>
<g id="a_edge12_Node000001_Node000013"><a xlink:title=" ">
<path fill="none" stroke="#63b8ff" d="M1422.2,-69.74C1481.18,-59.78 1563.45,-45.57 1635.5,-32 1641.07,-30.95 1646.88,-29.83 1652.67,-28.68"/>
<polygon fill="#63b8ff" stroke="#63b8ff" points="1653.14,-32.16 1662.26,-26.78 1651.77,-25.3 1653.14,-32.16"/>
</a>
</g>
</g>
<!-- Node14 -->
<g id="Node000014" class="node">
<title>Node14</title>
<g id="a_Node000014"><a xlink:title=" ">
<polygon fill="#e0e0e0" stroke="#999999" points="1896,-26 1793,-26 1793,-6 1896,-6 1896,-26"/>
<text text-anchor="middle" x="1844.5" y="-12.5" font-family="Helvetica,sans-Serif" font-size="10.00">javafx.stage.Screen</text>
</a>
</g>
</g>
<!-- Node1&#45;&gt;Node14 -->
<g id="edge13_Node000001_Node000014" class="edge">
<title>Node1&#45;&gt;Node14</title>
<g id="a_edge13_Node000001_Node000014"><a xlink:title=" ">
<path fill="none" stroke="#63b8ff" d="M1422.21,-76.82C1510.87,-69.25 1658.15,-54.57 1783.5,-32 1788.34,-31.13 1793.37,-30.1 1798.37,-28.99"/>
<polygon fill="#63b8ff" stroke="#63b8ff" points="1798.76,-32.5 1807.71,-26.83 1797.17,-25.68 1798.76,-32.5"/>
</a>
</g>
</g>
<!-- Node15 -->
<g id="Node000015" class="node">
<title>Node15</title>
<g id="a_Node000015"><a xlink:title=" ">
<polygon fill="#e0e0e0" stroke="#999999" points="2011.38,-26 1913.62,-26 1913.62,-6 2011.38,-6 2011.38,-26"/>
<text text-anchor="middle" x="1962.5" y="-12.5" font-family="Helvetica,sans-Serif" font-size="10.00">javafx.stage.Stage</text>
</a>
</g>
</g>
<!-- Node1&#45;&gt;Node15 -->
<g id="edge14_Node000001_Node000015" class="edge">
<title>Node1&#45;&gt;Node15</title>
<g id="a_edge14_Node000001_Node000015"><a xlink:title=" ">
<path fill="none" stroke="#63b8ff" d="M1421.84,-79.99C1531.34,-74.89 1734.65,-62 1905.5,-32 1910.09,-31.19 1914.86,-30.2 1919.58,-29.11"/>
<polygon fill="#63b8ff" stroke="#63b8ff" points="1920.11,-32.58 1928.98,-26.8 1918.44,-25.79 1920.11,-32.58"/>
</a>
</g>
</g>
<!-- Node16 -->
<g id="Node000016" class="node">
<title>Node16</title>
<g id="a_Node000016"><a xlink:title=" ">
<polygon fill="#e0e0e0" stroke="#999999" points="2149.62,-26 2029.38,-26 2029.38,-6 2149.62,-6 2149.62,-26"/>
<text text-anchor="middle" x="2089.5" y="-12.5" font-family="Helvetica,sans-Serif" font-size="10.00">javafx.stage.StageStyle</text>
</a>
</g>
</g>
<!-- Node1&#45;&gt;Node16 -->
<g id="edge15_Node000001_Node000016" class="edge">
<title>Node1&#45;&gt;Node16</title>
<g id="a_edge15_Node000001_Node000016"><a xlink:title=" ">
<path fill="none" stroke="#63b8ff" d="M1422.22,-80.59C1549.35,-75.95 1805.57,-63.29 2020.5,-32 2026.64,-31.11 2033.05,-29.98 2039.39,-28.75"/>
<polygon fill="#63b8ff" stroke="#63b8ff" points="2040.05,-32.18 2049.14,-26.74 2038.65,-25.32 2040.05,-32.18"/>
</a>
</g>
</g>
<!-- Node17 -->
<g id="Node000017" class="node">
<title>Node17</title>
<g id="a_Node000017"><a xlink:title=" ">
<polygon fill="#e0e0e0" stroke="#999999" points="2265.38,-26 2167.62,-26 2167.62,-6 2265.38,-6 2265.38,-26"/>
<text text-anchor="middle" x="2216.5" y="-12.5" font-family="Helvetica,sans-Serif" font-size="10.00">javafx.util.Duration</text>
</a>
</g>
</g>
<!-- Node1&#45;&gt;Node17 -->
<g id="edge16_Node000001_Node000017" class="edge">
<title>Node1&#45;&gt;Node17</title>
<g id="a_edge16_Node000001_Node000017"><a xlink:title=" ">
<path fill="none" stroke="#63b8ff" d="M1422.11,-83.04C1568.73,-82.01 1890.93,-74.56 2158.5,-32 2163.43,-31.22 2168.55,-30.2 2173.61,-29.06"/>
<polygon fill="#63b8ff" stroke="#63b8ff" points="2174.14,-32.54 2183.05,-26.79 2172.5,-25.73 2174.14,-32.54"/>
</a>
</g>
</g>
<!-- Node18 -->
<g id="Node000018" class="node">
<title>Node18</title>
<g id="a_Node000018"><a xlink:title=" ">
<polygon fill="#e0e0e0" stroke="#999999" points="2404,-26 2283,-26 2283,-6 2404,-6 2404,-26"/>
<text text-anchor="middle" x="2343.5" y="-12.5" font-family="Helvetica,sans-Serif" font-size="10.00">lombok.extern.slf4j.Slf4j</text>
</a>
</g>
</g>
<!-- Node1&#45;&gt;Node18 -->
<g id="edge17_Node000001_Node000018" class="edge">
<title>Node1&#45;&gt;Node18</title>
<g id="a_edge17_Node000001_Node000018"><a xlink:title=" ">
<path fill="none" stroke="#63b8ff" d="M1422.07,-82.91C1583.54,-81.78 1960.95,-74.38 2274.5,-32 2280.96,-31.13 2287.71,-29.97 2294.36,-28.68"/>
<polygon fill="#63b8ff" stroke="#63b8ff" points="2294.79,-32.17 2303.89,-26.73 2293.39,-25.31 2294.79,-32.17"/>
</a>
</g>
</g>
<!-- Node19 -->
<g id="Node000019" class="node">
<title>Node19</title>
<g id="a_Node000019"><a xlink:title=" ">
<polygon fill="#e0e0e0" stroke="#999999" points="2508.75,-26 2422.25,-26 2422.25,-6 2508.75,-6 2508.75,-26"/>
<text text-anchor="middle" x="2465.5" y="-12.5" font-family="Helvetica,sans-Serif" font-size="10.00">java.util.Objects</text>
</a>
</g>
</g>
<!-- Node1&#45;&gt;Node19 -->
<g id="edge18_Node000001_Node000019" class="edge">
<title>Node1&#45;&gt;Node19</title>
<g id="a_edge18_Node000001_Node000019"><a xlink:title=" ">
<path fill="none" stroke="#63b8ff" d="M1421.97,-81.62C1636.26,-77.5 2222.74,-63.61 2413.5,-32 2417.64,-31.31 2421.91,-30.41 2426.15,-29.39"/>
<polygon fill="#63b8ff" stroke="#63b8ff" points="2426.94,-32.8 2435.7,-26.86 2425.14,-26.04 2426.94,-32.8"/>
</a>
</g>
</g>
</g>
</svg>

<g id="navigator" transform="translate(0 0)" fill="#404254">
  <rect fill="#f2f5e9" fill-opacity="0.5" stroke="#606060" stroke-width=".5" x="0" y="0" width="60" height="60"/>
  <use id="zoomplus" xlink:href="#zoomPlus" x="17" y="9" onmousedown="handleZoom(evt,'in')"/>
  <use id="zoomminus" xlink:href="#zoomMin" x="42" y="9" onmousedown="handleZoom(evt,'out')"/>
  <use id="reset" xlink:href="#resetDef" x="30" y="36" onmousedown="handleReset()"/>
   <use id="arrowup" xlink:href="#arrowUp" x="0" y="0" onmousedown="handlePan(0,-1)"/>
  <use id="arrowright" xlink:href="#arrowRight" x="0" y="0" onmousedown="handlePan(1,0)"/>
  <use id="arrowdown" xlink:href="#arrowDown" x="0" y="0" onmousedown="handlePan(0,1)"/>
  <use id="arrowleft" xlink:href="#arrowLeft" x="0" y="0" onmousedown="handlePan(-1,0)"/>
</g>
<svg viewBox="0 0 15 15" width="100%" height="30px" preserveAspectRatio="xMaxYMin meet">
 <g id="arrow_out" transform="scale(0.3 0.3)">
  <a xlink:href="_default_view_8java__incl_org.svg" target="_base">
   <rect id="button" ry="5" rx="5" y="6" x="6" height="38" width="38"
        fill="#f2f5e9" fill-opacity="0.5" stroke="#606060" stroke-width="1.0"/>
   <path id="arrow"
     d="M 11.500037,31.436501 C 11.940474,20.09759 22.043105,11.32322 32.158766,21.979434 L 37.068811,17.246167 C 37.068811,17.246167 37.088388,32 37.088388,32 L 22.160133,31.978069 C 22.160133,31.978069 26.997745,27.140456 26.997745,27.140456 C 18.528582,18.264221 13.291696,25.230495 11.500037,31.436501 z"
     style="fill:#404040;"/>
  </a>
 </g>
</svg>

<style type='text/css'>
<![CDATA[
[data-mouse-over-selected='false'] { opacity: 0.7; }
[data-mouse-over-selected='true']  { opacity: 1.0; }
]]>
</style>
<script type="application/ecmascript"><![CDATA[
document.addEventListener('DOMContentLoaded', (event) => {
  highlightEdges();
  highlightAdjacentNodes();
});
]]></script>
</svg>
