<?xml version="1.0" encoding="UTF-8" standalone="no"?>
<!DOCTYPE svg PUBLIC "-//W3C//DTD SVG 1.1//EN"
 "http://www.w3.org/Graphics/SVG/1.1/DTD/svg11.dtd">
<!-- Generated by graphviz version 12.2.1 (20241206.2353)
 -->
<!-- Title: src/main/java/fr/softsf/sudokufx/view/DefaultView.java Pages: 1 -->
<svg width="4129pt" height="108pt"
 viewBox="0.00 0.00 4128.75 108.00" xmlns="http://www.w3.org/2000/svg" xmlns:xlink="http://www.w3.org/1999/xlink">
<g id="graph0" class="graph" transform="scale(1 1) rotate(0) translate(4 104)">
<title>src/main/java/fr/softsf/sudokufx/view/DefaultView.java</title>
<!-- Node1 -->
<g id="Node000001" class="node">
<title>Node1</title>
<g id="a_Node000001"><a xlink:title=" ">
<polygon fill="#999999" stroke="#666666" points="2242.75,-100 2084.25,-100 2084.25,-68 2242.75,-68 2242.75,-100"/>
<text text-anchor="start" x="2092.25" y="-86.5" font-family="Helvetica,sans-Serif" font-size="10.00">src/main/java/fr/softsf</text>
<text text-anchor="middle" x="2163.5" y="-74.5" font-family="Helvetica,sans-Serif" font-size="10.00">/sudokufx/view/DefaultView.java</text>
</a>
</g>
</g>
<!-- Node2 -->
<g id="Node000002" class="node">
<title>Node2</title>
<g id="a_Node000002"><a xlink:title=" ">
<polygon fill="#e0e0e0" stroke="#999999" points="139,-26 0,-26 0,-6 139,-6 139,-26"/>
<text text-anchor="middle" x="69.5" y="-12.5" font-family="Helvetica,sans-Serif" font-size="10.00">fr.softsf.sudokufx.SudoMain</text>
</a>
</g>
</g>
<!-- Node1&#45;&gt;Node2 -->
<g id="edge1_Node000001_Node000002" class="edge">
<title>Node1&#45;&gt;Node2</title>
<g id="a_edge1_Node000001_Node000002"><a xlink:title=" ">
<path fill="none" stroke="#63b8ff" d="M2083.98,-82.74C1759.26,-81.4 532.79,-73.63 147.5,-32 139.58,-31.14 131.26,-29.91 123.13,-28.51"/>
<polygon fill="#63b8ff" stroke="#63b8ff" points="123.77,-25.07 113.3,-26.72 122.51,-31.96 123.77,-25.07"/>
</a>
</g>
</g>
<!-- Node3 -->
<g id="Node000003" class="node">
<title>Node3</title>
<g id="a_Node000003"><a xlink:title=" ">
<polygon fill="#e0e0e0" stroke="#999999" points="298.12,-32 156.88,-32 156.88,0 298.12,0 298.12,-32"/>
<text text-anchor="start" x="164.88" y="-18.5" font-family="Helvetica,sans-Serif" font-size="10.00">fr.softsf.sudokufx.interfaces.</text>
<text text-anchor="middle" x="227.5" y="-6.5" font-family="Helvetica,sans-Serif" font-size="10.00">IMainStageView</text>
</a>
</g>
</g>
<!-- Node1&#45;&gt;Node3 -->
<g id="edge2_Node000001_Node000003" class="edge">
<title>Node1&#45;&gt;Node3</title>
<g id="a_edge2_Node000001_Node000003"><a xlink:title=" ">
<path fill="none" stroke="#63b8ff" d="M2083.8,-82.51C1778.4,-80.38 681.73,-70.26 309.8,-32.22"/>
<polygon fill="#63b8ff" stroke="#63b8ff" points="310.29,-28.76 299.98,-31.19 309.56,-35.72 310.29,-28.76"/>
</a>
</g>
</g>
<!-- Node4 -->
<g id="Node000004" class="node">
<title>Node4</title>
<g id="a_Node000004"><a xlink:title=" ">
<polygon fill="#e0e0e0" stroke="#999999" points="457.12,-32 315.88,-32 315.88,0 457.12,0 457.12,-32"/>
<text text-anchor="start" x="323.88" y="-18.5" font-family="Helvetica,sans-Serif" font-size="10.00">fr.softsf.sudokufx.interfaces.</text>
<text text-anchor="middle" x="386.5" y="-6.5" font-family="Helvetica,sans-Serif" font-size="10.00">ISceneProvider</text>
</a>
</g>
</g>
<!-- Node1&#45;&gt;Node4 -->
<g id="edge3_Node000001_Node000004" class="edge">
<title>Node1&#45;&gt;Node4</title>
<g id="a_edge3_Node000001_Node000004"><a xlink:title=" ">
<path fill="none" stroke="#63b8ff" d="M2083.99,-82.28C1796.11,-79.4 807.79,-67.22 468.78,-32.22"/>
<polygon fill="#63b8ff" stroke="#63b8ff" points="469.3,-28.76 458.98,-31.18 468.56,-35.72 469.3,-28.76"/>
</a>
</g>
</g>
<!-- Node5 -->
<g id="Node000005" class="node">
<title>Node5</title>
<g id="a_Node000005"><a xlink:title=" ">
<polygon fill="#e0e0e0" stroke="#999999" points="616.12,-32 474.88,-32 474.88,0 616.12,0 616.12,-32"/>
<text text-anchor="start" x="482.88" y="-18.5" font-family="Helvetica,sans-Serif" font-size="10.00">fr.softsf.sudokufx.interfaces.</text>
<text text-anchor="middle" x="545.5" y="-6.5" font-family="Helvetica,sans-Serif" font-size="10.00">ISplashScreenView</text>
</a>
</g>
</g>
<!-- Node1&#45;&gt;Node5 -->
<g id="edge4_Node000001_Node000005" class="edge">
<title>Node1&#45;&gt;Node5</title>
<g id="a_edge4_Node000001_Node000005"><a xlink:title=" ">
<path fill="none" stroke="#63b8ff" d="M2084.07,-81.96C1814.42,-78.2 934.32,-63.83 627.62,-32.08"/>
<polygon fill="#63b8ff" stroke="#63b8ff" points="628.34,-28.64 618.02,-31.06 627.59,-35.6 628.34,-28.64"/>
</a>
</g>
</g>
<!-- Node6 -->
<g id="Node000006" class="node">
<title>Node6</title>
<g id="a_Node000006"><a xlink:title=" ">
<polygon fill="#e0e0e0" stroke="#999999" points="764.5,-32 634.5,-32 634.5,0 764.5,0 764.5,-32"/>
<text text-anchor="start" x="642.5" y="-18.5" font-family="Helvetica,sans-Serif" font-size="10.00">fr.softsf.sudokufx.service.</text>
<text text-anchor="middle" x="699.5" y="-6.5" font-family="Helvetica,sans-Serif" font-size="10.00">FxmlService</text>
</a>
</g>
</g>
<!-- Node1&#45;&gt;Node6 -->
<g id="edge5_Node000001_Node000006" class="edge">
<title>Node1&#45;&gt;Node6</title>
<g id="a_edge5_Node000001_Node000006"><a xlink:title=" ">
<path fill="none" stroke="#63b8ff" d="M2083.81,-81.79C1831.57,-77.69 1051.65,-62.9 775.95,-32.12"/>
<polygon fill="#63b8ff" stroke="#63b8ff" points="776.62,-28.68 766.28,-31.01 775.81,-35.63 776.62,-28.68"/>
</a>
</g>
</g>
<!-- Node7 -->
<g id="Node000007" class="node">
<title>Node7</title>
<g id="a_Node000007"><a xlink:title=" ">
<polygon fill="#e0e0e0" stroke="#999999" points="898.75,-32 782.25,-32 782.25,0 898.75,0 898.75,-32"/>
<text text-anchor="start" x="790.25" y="-18.5" font-family="Helvetica,sans-Serif" font-size="10.00">fr.softsf.sudokufx.utils.</text>
<text text-anchor="middle" x="840.5" y="-6.5" font-family="Helvetica,sans-Serif" font-size="10.00">MyEnums</text>
</a>
</g>
</g>
<!-- Node1&#45;&gt;Node7 -->
<g id="edge6_Node000001_Node000007" class="edge">
<title>Node1&#45;&gt;Node7</title>
<g id="a_edge6_Node000001_Node000007"><a xlink:title=" ">
<path fill="none" stroke="#63b8ff" d="M2084.01,-81.64C1848.8,-77.33 1157.81,-62.49 910.31,-32.18"/>
<polygon fill="#63b8ff" stroke="#63b8ff" points="911.08,-28.75 900.72,-30.96 910.2,-35.69 911.08,-28.75"/>
</a>
</g>
</g>
<!-- Node8 -->
<g id="Node000008" class="node">
<title>Node8</title>
<g id="a_Node000008"><a xlink:title=" ">
<polygon fill="#e0e0e0" stroke="#999999" points="1042.62,-32 916.38,-32 916.38,0 1042.62,0 1042.62,-32"/>
<text text-anchor="start" x="924.38" y="-18.5" font-family="Helvetica,sans-Serif" font-size="10.00">fr.softsf.sudokufx.utils.</text>
<text text-anchor="middle" x="979.5" y="-6.5" font-family="Helvetica,sans-Serif" font-size="10.00">SecureRandomGenerator</text>
</a>
</g>
</g>
<!-- Node1&#45;&gt;Node8 -->
<g id="edge7_Node000001_Node000008" class="edge">
<title>Node1&#45;&gt;Node8</title>
<g id="a_edge7_Node000001_Node000008"><a xlink:title=" ">
<path fill="none" stroke="#63b8ff" d="M2083.91,-83.69C1902.62,-84.33 1444.99,-80.65 1054.26,-32.21"/>
<polygon fill="#63b8ff" stroke="#63b8ff" points="1054.87,-28.76 1044.51,-30.99 1054,-35.71 1054.87,-28.76"/>
</a>
</g>
</g>
<!-- Node9 -->
<g id="Node000009" class="node">
<title>Node9</title>
<g id="a_Node000009"><a xlink:title=" ">
<polygon fill="#e0e0e0" stroke="#999999" points="1268.12,-32 1060.88,-32 1060.88,0 1268.12,0 1268.12,-32"/>
<text text-anchor="start" x="1068.88" y="-18.5" font-family="Helvetica,sans-Serif" font-size="10.00">fr.softsf.sudokufx.view.components.toaster.</text>
<text text-anchor="middle" x="1164.5" y="-6.5" font-family="Helvetica,sans-Serif" font-size="10.00">ToasterVBox</text>
</a>
</g>
</g>
<!-- Node1&#45;&gt;Node9 -->
<g id="edge8_Node000001_Node000009" class="edge">
<title>Node1&#45;&gt;Node9</title>
<g id="a_edge8_Node000001_Node000009"><a xlink:title=" ">
<path fill="none" stroke="#63b8ff" d="M2083.84,-80.44C1930.24,-75.07 1582.25,-60.75 1279.7,-32.26"/>
<polygon fill="#63b8ff" stroke="#63b8ff" points="1280.29,-28.8 1270.01,-31.34 1279.63,-35.77 1280.29,-28.8"/>
</a>
</g>
</g>
<!-- Node10 -->
<g id="Node000010" class="node">
<title>Node10</title>
<g id="a_Node000010"><a xlink:title=" ">
<polygon fill="#e0e0e0" stroke="#999999" points="1431,-32 1286,-32 1286,0 1431,0 1431,-32"/>
<text text-anchor="start" x="1294" y="-18.5" font-family="Helvetica,sans-Serif" font-size="10.00">fr.softsf.sudokufx.viewmodel.</text>
<text text-anchor="middle" x="1358.5" y="-6.5" font-family="Helvetica,sans-Serif" font-size="10.00">FullMenuViewModel</text>
</a>
</g>
</g>
<!-- Node1&#45;&gt;Node10 -->
<g id="edge9_Node000001_Node000010" class="edge">
<title>Node1&#45;&gt;Node10</title>
<g id="a_edge9_Node000001_Node000010"><a xlink:title=" ">
<path fill="none" stroke="#63b8ff" d="M2083.78,-80.26C1952.35,-75.1 1681.8,-61.82 1442.67,-32.17"/>
<polygon fill="#63b8ff" stroke="#63b8ff" points="1443.17,-28.71 1432.81,-30.94 1442.3,-35.66 1443.17,-28.71"/>
</a>
</g>
</g>
<!-- Node11 -->
<g id="Node000011" class="node">
<title>Node11</title>
<g id="a_Node000011"><a xlink:title=" ">
<polygon fill="#e0e0e0" stroke="#999999" points="1603.88,-26 1449.12,-26 1449.12,-6 1603.88,-6 1603.88,-26"/>
<text text-anchor="middle" x="1526.5" y="-12.5" font-family="Helvetica,sans-Serif" font-size="10.00">javafx.animation.FadeTransition</text>
</a>
</g>
</g>
<!-- Node1&#45;&gt;Node11 -->
<g id="edge10_Node000001_Node000011" class="edge">
<title>Node1&#45;&gt;Node11</title>
<g id="a_edge10_Node000001_Node000011"><a xlink:title=" ">
<path fill="none" stroke="#63b8ff" d="M2083.89,-77.65C1976.56,-69.98 1779.62,-54.27 1612.5,-32 1604.55,-30.94 1596.21,-29.68 1587.98,-28.34"/>
<polygon fill="#63b8ff" stroke="#63b8ff" points="1588.81,-24.93 1578.37,-26.73 1587.65,-31.83 1588.81,-24.93"/>
</a>
</g>
</g>
<!-- Node12 -->
<g id="Node000012" class="node">
<title>Node12</title>
<g id="a_Node000012"><a xlink:title=" ">
<polygon fill="#e0e0e0" stroke="#999999" points="1767.38,-26 1621.62,-26 1621.62,-6 1767.38,-6 1767.38,-26"/>
<text text-anchor="middle" x="1694.5" y="-12.5" font-family="Helvetica,sans-Serif" font-size="10.00">javafx.beans.binding.Bindings</text>
</a>
</g>
</g>
<!-- Node1&#45;&gt;Node12 -->
<g id="edge11_Node000001_Node000012" class="edge">
<title>Node1&#45;&gt;Node12</title>
<g id="a_edge11_Node000001_Node000012"><a xlink:title=" ">
<path fill="none" stroke="#63b8ff" d="M2084.03,-73.7C2005.68,-64.26 1882.61,-48.69 1776.5,-32 1769.56,-30.91 1762.3,-29.69 1755.09,-28.43"/>
<polygon fill="#63b8ff" stroke="#63b8ff" points="1755.81,-25.01 1745.35,-26.71 1754.59,-31.9 1755.81,-25.01"/>
</a>
</g>
</g>
<!-- Node13 -->
<g id="Node000013" class="node">
<title>Node13</title>
<g id="a_Node000013"><a xlink:title=" ">
<polygon fill="#e0e0e0" stroke="#999999" points="1911.25,-26 1785.75,-26 1785.75,-6 1911.25,-6 1911.25,-26"/>
<text text-anchor="middle" x="1848.5" y="-12.5" font-family="Helvetica,sans-Serif" font-size="10.00">javafx.event.ActionEvent</text>
</a>
</g>
</g>
<!-- Node1&#45;&gt;Node13 -->
<g id="edge12_Node000001_Node000013" class="edge">
<title>Node1&#45;&gt;Node13</title>
<g id="a_edge12_Node000001_Node000013"><a xlink:title=" ">
<path fill="none" stroke="#63b8ff" d="M2089.28,-67.53C2040.92,-57.44 1976.46,-43.97 1919.5,-32 1914.58,-30.97 1909.47,-29.89 1904.35,-28.81"/>
<polygon fill="#63b8ff" stroke="#63b8ff" points="1905.18,-25.41 1894.67,-26.77 1903.73,-32.26 1905.18,-25.41"/>
</a>
</g>
</g>
<!-- Node14 -->
<g id="Node000014" class="node">
<title>Node14</title>
<g id="a_Node000014"><a xlink:title=" ">
<polygon fill="#e0e0e0" stroke="#999999" points="2022.12,-26 1928.88,-26 1928.88,-6 2022.12,-6 2022.12,-26"/>
<text text-anchor="middle" x="1975.5" y="-12.5" font-family="Helvetica,sans-Serif" font-size="10.00">javafx.fxml.FXML</text>
</a>
</g>
</g>
<!-- Node1&#45;&gt;Node14 -->
<g id="edge13_Node000001_Node000014" class="edge">
<title>Node1&#45;&gt;Node14</title>
<g id="a_edge13_Node000001_Node000014"><a xlink:title=" ">
<path fill="none" stroke="#63b8ff" d="M2119.42,-67.53C2087.14,-56.19 2043.79,-40.97 2013.12,-30.21"/>
<polygon fill="#63b8ff" stroke="#63b8ff" points="2014.47,-26.97 2003.87,-26.96 2012.15,-33.58 2014.47,-26.97"/>
</a>
</g>
</g>
<!-- Node15 -->
<g id="Node000015" class="node">
<title>Node15</title>
<g id="a_Node000015"><a xlink:title=" ">
<polygon fill="#e0e0e0" stroke="#999999" points="2145.12,-26 2039.88,-26 2039.88,-6 2145.12,-6 2145.12,-26"/>
<text text-anchor="middle" x="2092.5" y="-12.5" font-family="Helvetica,sans-Serif" font-size="10.00">javafx.geometry.Pos</text>
</a>
</g>
</g>
<!-- Node1&#45;&gt;Node15 -->
<g id="edge14_Node000001_Node000015" class="edge">
<title>Node1&#45;&gt;Node15</title>
<g id="a_edge14_Node000001_Node000015"><a xlink:title=" ">
<path fill="none" stroke="#63b8ff" d="M2147.03,-67.69C2136.17,-57.6 2121.94,-44.36 2110.73,-33.95"/>
<polygon fill="#63b8ff" stroke="#63b8ff" points="2113.34,-31.59 2103.63,-27.35 2108.57,-36.72 2113.34,-31.59"/>
</a>
</g>
</g>
<!-- Node16 -->
<g id="Node000016" class="node">
<title>Node16</title>
<g id="a_Node000016"><a xlink:title=" ">
<polygon fill="#e0e0e0" stroke="#999999" points="2308,-26 2163,-26 2163,-6 2308,-6 2308,-26"/>
<text text-anchor="middle" x="2235.5" y="-12.5" font-family="Helvetica,sans-Serif" font-size="10.00">javafx.geometry.Rectangle2D</text>
</a>
</g>
</g>
<!-- Node1&#45;&gt;Node16 -->
<g id="edge15_Node000001_Node000016" class="edge">
<title>Node1&#45;&gt;Node16</title>
<g id="a_edge15_Node000001_Node000016"><a xlink:title=" ">
<path fill="none" stroke="#63b8ff" d="M2180.2,-67.69C2191.21,-57.6 2205.65,-44.36 2217.01,-33.95"/>
<polygon fill="#63b8ff" stroke="#63b8ff" points="2219.21,-36.68 2224.22,-27.34 2214.48,-31.52 2219.21,-36.68"/>
</a>
</g>
</g>
<!-- Node17 -->
<g id="Node000017" class="node">
<title>Node17</title>
<g id="a_Node000017"><a xlink:title=" ">
<polygon fill="#e0e0e0" stroke="#999999" points="2423.38,-26 2325.62,-26 2325.62,-6 2423.38,-6 2423.38,-26"/>
<text text-anchor="middle" x="2374.5" y="-12.5" font-family="Helvetica,sans-Serif" font-size="10.00">javafx.scene.Node</text>
</a>
</g>
</g>
<!-- Node1&#45;&gt;Node17 -->
<g id="edge16_Node000001_Node000017" class="edge">
<title>Node1&#45;&gt;Node17</title>
<g id="a_edge16_Node000001_Node000017"><a xlink:title=" ">
<path fill="none" stroke="#63b8ff" d="M2212.97,-67.53C2249.68,-56.04 2299.14,-40.57 2333.62,-29.79"/>
<polygon fill="#63b8ff" stroke="#63b8ff" points="2334.31,-33.24 2342.81,-26.91 2332.22,-26.56 2334.31,-33.24"/>
</a>
</g>
</g>
<!-- Node18 -->
<g id="Node000018" class="node">
<title>Node18</title>
<g id="a_Node000018"><a xlink:title=" ">
<polygon fill="#e0e0e0" stroke="#999999" points="2577.12,-26 2441.88,-26 2441.88,-6 2577.12,-6 2577.12,-26"/>
<text text-anchor="middle" x="2509.5" y="-12.5" font-family="Helvetica,sans-Serif" font-size="10.00">javafx.scene.control.Button</text>
</a>
</g>
</g>
<!-- Node1&#45;&gt;Node18 -->
<g id="edge17_Node000001_Node000018" class="edge">
<title>Node1&#45;&gt;Node18</title>
<g id="a_edge17_Node000001_Node000018"><a xlink:title=" ">
<path fill="none" stroke="#63b8ff" d="M2242.97,-68.04C2296.54,-57.93 2368.78,-44.25 2432.5,-32 2438.12,-30.92 2443.98,-29.79 2449.83,-28.65"/>
<polygon fill="#63b8ff" stroke="#63b8ff" points="2450.4,-32.11 2459.55,-26.77 2449.07,-25.24 2450.4,-32.11"/>
</a>
</g>
</g>
<!-- Node19 -->
<g id="Node000019" class="node">
<title>Node19</title>
<g id="a_Node000019"><a xlink:title=" ">
<polygon fill="#e0e0e0" stroke="#999999" points="2725.5,-26 2595.5,-26 2595.5,-6 2725.5,-6 2725.5,-26"/>
<text text-anchor="middle" x="2660.5" y="-12.5" font-family="Helvetica,sans-Serif" font-size="10.00">javafx.scene.control.Label</text>
</a>
</g>
</g>
<!-- Node1&#45;&gt;Node19 -->
<g id="edge18_Node000001_Node000019" class="edge">
<title>Node1&#45;&gt;Node19</title>
<g id="a_edge18_Node000001_Node000019"><a xlink:title=" ">
<path fill="none" stroke="#63b8ff" d="M2242.9,-75.34C2328.1,-66.68 2467.29,-51.24 2586.5,-32 2592.8,-30.98 2599.38,-29.81 2605.91,-28.58"/>
<polygon fill="#63b8ff" stroke="#63b8ff" points="2606.15,-32.1 2615.29,-26.75 2604.81,-25.23 2606.15,-32.1"/>
</a>
</g>
</g>
<!-- Node20 -->
<g id="Node000020" class="node">
<title>Node20</title>
<g id="a_Node000020"><a xlink:title=" ">
<polygon fill="#e0e0e0" stroke="#999999" points="2873.88,-26 2743.12,-26 2743.12,-6 2873.88,-6 2873.88,-26"/>
<text text-anchor="middle" x="2808.5" y="-12.5" font-family="Helvetica,sans-Serif" font-size="10.00">javafx.scene.image.Image</text>
</a>
</g>
</g>
<!-- Node1&#45;&gt;Node20 -->
<g id="edge19_Node000001_Node000020" class="edge">
<title>Node1&#45;&gt;Node20</title>
<g id="a_edge19_Node000001_Node000020"><a xlink:title=" ">
<path fill="none" stroke="#63b8ff" d="M2242.8,-78.7C2353.36,-72.08 2559.93,-57.41 2734.5,-32 2741.06,-31.04 2747.93,-29.88 2754.71,-28.63"/>
<polygon fill="#63b8ff" stroke="#63b8ff" points="2755.34,-32.07 2764.5,-26.74 2754.02,-25.2 2755.34,-32.07"/>
</a>
</g>
</g>
<!-- Node21 -->
<g id="Node000021" class="node">
<title>Node21</title>
<g id="a_Node000021"><a xlink:title=" ">
<polygon fill="#e0e0e0" stroke="#999999" points="3020.75,-26 2892.25,-26 2892.25,-6 3020.75,-6 3020.75,-26"/>
<text text-anchor="middle" x="2956.5" y="-12.5" font-family="Helvetica,sans-Serif" font-size="10.00">javafx.scene.layout.HBox</text>
</a>
</g>
</g>
<!-- Node1&#45;&gt;Node21 -->
<g id="edge20_Node000001_Node000021" class="edge">
<title>Node1&#45;&gt;Node21</title>
<g id="a_edge20_Node000001_Node000021"><a xlink:title=" ">
<path fill="none" stroke="#63b8ff" d="M2243.11,-80.71C2376.08,-76.14 2651.56,-63.46 2882.5,-32 2889.32,-31.07 2896.46,-29.89 2903.5,-28.6"/>
<polygon fill="#63b8ff" stroke="#63b8ff" points="2904.14,-32.04 2913.3,-26.72 2902.82,-25.17 2904.14,-32.04"/>
</a>
</g>
</g>
<!-- Node22 -->
<g id="Node000022" class="node">
<title>Node22</title>
<g id="a_Node000022"><a xlink:title=" ">
<polygon fill="#e0e0e0" stroke="#999999" points="3151.88,-26 3039.12,-26 3039.12,-6 3151.88,-6 3151.88,-26"/>
<text text-anchor="middle" x="3095.5" y="-12.5" font-family="Helvetica,sans-Serif" font-size="10.00">javafx.scene.text.Text</text>
</a>
</g>
</g>
<!-- Node1&#45;&gt;Node22 -->
<g id="edge21_Node000001_Node000022" class="edge">
<title>Node1&#45;&gt;Node22</title>
<g id="a_edge21_Node000001_Node000022"><a xlink:title=" ">
<path fill="none" stroke="#63b8ff" d="M2243.04,-82.68C2396.09,-81.1 2741.9,-72.87 3029.5,-32 3035.46,-31.15 3041.68,-30.04 3047.82,-28.81"/>
<polygon fill="#63b8ff" stroke="#63b8ff" points="3048.17,-32.32 3057.22,-26.81 3046.71,-25.47 3048.17,-32.32"/>
</a>
</g>
</g>
<!-- Node23 -->
<g id="Node000023" class="node">
<title>Node23</title>
<g id="a_Node000023"><a xlink:title=" ">
<polygon fill="#e0e0e0" stroke="#999999" points="3273,-26 3170,-26 3170,-6 3273,-6 3273,-26"/>
<text text-anchor="middle" x="3221.5" y="-12.5" font-family="Helvetica,sans-Serif" font-size="10.00">javafx.stage.Screen</text>
</a>
</g>
</g>
<!-- Node1&#45;&gt;Node23 -->
<g id="edge22_Node000001_Node000023" class="edge">
<title>Node1&#45;&gt;Node23</title>
<g id="a_edge22_Node000001_Node000023"><a xlink:title=" ">
<path fill="none" stroke="#63b8ff" d="M2242.9,-80.89C2446.58,-75.16 2983.99,-57.98 3160.5,-32 3165.82,-31.22 3171.35,-30.18 3176.81,-29.02"/>
<polygon fill="#63b8ff" stroke="#63b8ff" points="3177.41,-32.47 3186.37,-26.82 3175.84,-25.65 3177.41,-32.47"/>
</a>
</g>
</g>
<!-- Node24 -->
<g id="Node000024" class="node">
<title>Node24</title>
<g id="a_Node000024"><a xlink:title=" ">
<polygon fill="#e0e0e0" stroke="#999999" points="3388.38,-26 3290.62,-26 3290.62,-6 3388.38,-6 3388.38,-26"/>
<text text-anchor="middle" x="3339.5" y="-12.5" font-family="Helvetica,sans-Serif" font-size="10.00">javafx.stage.Stage</text>
</a>
</g>
</g>
<!-- Node1&#45;&gt;Node24 -->
<g id="edge23_Node000001_Node000024" class="edge">
<title>Node1&#45;&gt;Node24</title>
<g id="a_edge23_Node000001_Node000024"><a xlink:title=" ">
<path fill="none" stroke="#63b8ff" d="M2242.88,-81.57C2463.64,-77.23 3081.72,-62.64 3282.5,-32 3287.41,-31.25 3292.51,-30.25 3297.55,-29.11"/>
<polygon fill="#63b8ff" stroke="#63b8ff" points="3298.04,-32.59 3306.92,-26.82 3296.38,-25.79 3298.04,-32.59"/>
</a>
</g>
</g>
<!-- Node25 -->
<g id="Node000025" class="node">
<title>Node25</title>
<g id="a_Node000025"><a xlink:title=" ">
<polygon fill="#e0e0e0" stroke="#999999" points="3526.62,-26 3406.38,-26 3406.38,-6 3526.62,-6 3526.62,-26"/>
<text text-anchor="middle" x="3466.5" y="-12.5" font-family="Helvetica,sans-Serif" font-size="10.00">javafx.stage.StageStyle</text>
</a>
</g>
</g>
<!-- Node1&#45;&gt;Node25 -->
<g id="edge24_Node000001_Node000025" class="edge">
<title>Node1&#45;&gt;Node25</title>
<g id="a_edge24_Node000001_Node000025"><a xlink:title=" ">
<path fill="none" stroke="#63b8ff" d="M2242.85,-81.51C2478.68,-76.81 3172.86,-60.84 3397.5,-32 3404.04,-31.16 3410.88,-30.01 3417.61,-28.72"/>
<polygon fill="#63b8ff" stroke="#63b8ff" points="3418.17,-32.18 3427.26,-26.74 3416.76,-25.32 3418.17,-32.18"/>
</a>
</g>
</g>
<!-- Node26 -->
<g id="Node000026" class="node">
<title>Node26</title>
<g id="a_Node000026"><a xlink:title=" ">
<polygon fill="#e0e0e0" stroke="#999999" points="3642.38,-26 3544.62,-26 3544.62,-6 3642.38,-6 3642.38,-26"/>
<text text-anchor="middle" x="3593.5" y="-12.5" font-family="Helvetica,sans-Serif" font-size="10.00">javafx.util.Duration</text>
</a>
</g>
</g>
<!-- Node1&#45;&gt;Node26 -->
<g id="edge25_Node000001_Node000026" class="edge">
<title>Node1&#45;&gt;Node26</title>
<g id="a_edge25_Node000001_Node000026"><a xlink:title=" ">
<path fill="none" stroke="#63b8ff" d="M2243.12,-82.3C2496.72,-79.7 3283.58,-68.82 3535.5,-32 3540.56,-31.26 3545.81,-30.25 3551,-29.11"/>
<polygon fill="#63b8ff" stroke="#63b8ff" points="3551.77,-32.52 3560.67,-26.78 3550.13,-25.71 3551.77,-32.52"/>
</a>
</g>
</g>
<!-- Node27 -->
<g id="Node000027" class="node">
<title>Node27</title>
<g id="a_Node000027"><a xlink:title=" ">
<polygon fill="#e0e0e0" stroke="#999999" points="3781,-26 3660,-26 3660,-6 3781,-6 3781,-26"/>
<text text-anchor="middle" x="3720.5" y="-12.5" font-family="Helvetica,sans-Serif" font-size="10.00">lombok.extern.slf4j.Slf4j</text>
</a>
</g>
</g>
<!-- Node1&#45;&gt;Node27 -->
<g id="edge26_Node000001_Node000027" class="edge">
<title>Node1&#45;&gt;Node27</title>
<g id="a_edge26_Node000001_Node000027"><a xlink:title=" ">
<path fill="none" stroke="#63b8ff" d="M2243.16,-82.16C2510.63,-79.04 3375.29,-66.47 3651.5,-32 3658.05,-31.18 3664.89,-30.05 3671.61,-28.76"/>
<polygon fill="#63b8ff" stroke="#63b8ff" points="3672.17,-32.22 3681.27,-26.79 3670.77,-25.36 3672.17,-32.22"/>
</a>
</g>
</g>
<!-- Node28 -->
<g id="Node000028" class="node">
<title>Node28</title>
<g id="a_Node000028"><a xlink:title=" ">
<polygon fill="#e0e0e0" stroke="#999999" points="4016,-32 3799,-32 3799,0 4016,0 4016,-32"/>
<text text-anchor="start" x="3807" y="-18.5" font-family="Helvetica,sans-Serif" font-size="10.00">org.springframework.beans.factory.annotation.</text>
<text text-anchor="middle" x="3907.5" y="-6.5" font-family="Helvetica,sans-Serif" font-size="10.00">Autowired</text>
</a>
</g>
</g>
<!-- Node1&#45;&gt;Node28 -->
<g id="edge27_Node000001_Node000028" class="edge">
<title>Node1&#45;&gt;Node28</title>
<g id="a_edge27_Node000001_Node000028"><a xlink:title=" ">
<path fill="none" stroke="#63b8ff" d="M2243.22,-83.21C2478.16,-83.26 3188.4,-79.25 3787.09,-32.22"/>
<polygon fill="#63b8ff" stroke="#63b8ff" points="3787.35,-35.71 3797.04,-31.44 3786.79,-28.74 3787.35,-35.71"/>
</a>
</g>
</g>
<!-- Node29 -->
<g id="Node000029" class="node">
<title>Node29</title>
<g id="a_Node000029"><a xlink:title=" ">
<polygon fill="#e0e0e0" stroke="#999999" points="4120.75,-26 4034.25,-26 4034.25,-6 4120.75,-6 4120.75,-26"/>
<text text-anchor="middle" x="4077.5" y="-12.5" font-family="Helvetica,sans-Serif" font-size="10.00">java.util.Objects</text>
</a>
</g>
</g>
<!-- Node1&#45;&gt;Node29 -->
<g id="edge28_Node000001_Node000029" class="edge">
<title>Node1&#45;&gt;Node29</title>
<g id="a_edge28_Node000001_Node000029"><a xlink:title=" ">
<path fill="none" stroke="#63b8ff" d="M2243.08,-82.01C2575.99,-77.7 3848,-59.57 4025.5,-32 4029.82,-31.33 4034.28,-30.41 4038.69,-29.35"/>
<polygon fill="#63b8ff" stroke="#63b8ff" points="4039.22,-32.83 4047.99,-26.88 4037.43,-26.06 4039.22,-32.83"/>
</a>
</g>
</g>
</g>
</svg>
