<?xml version="1.0" encoding="UTF-8" standalone="no"?>
<!DOCTYPE svg PUBLIC "-//W3C//DTD SVG 1.1//EN"
 "http://www.w3.org/Graphics/SVG/1.1/DTD/svg11.dtd">
<!-- Generated by graphviz version 12.2.1 (20241206.2353)
 -->
<!-- Title: src/main/java/fr/softsf/sudokufx/annotations/ExcludedFromCoverageReportGenerated.java Pages: 1 -->
<svg width="814pt" height="120pt"
 viewBox="0.00 0.00 813.75 120.00" xmlns="http://www.w3.org/2000/svg" xmlns:xlink="http://www.w3.org/1999/xlink">
<g id="graph0" class="graph" transform="scale(1 1) rotate(0) translate(4 116)">
<title>src/main/java/fr/softsf/sudokufx/annotations/ExcludedFromCoverageReportGenerated.java</title>
<!-- Node1 -->
<g id="Node000001" class="node">
<title>Node1</title>
<g id="a_Node000001"><a xlink:title=" ">
<polygon fill="#999999" stroke="#666666" points="522.38,-112 303.12,-112 303.12,-68 522.38,-68 522.38,-112"/>
<text text-anchor="start" x="311.12" y="-98.5" font-family="Helvetica,sans-Serif" font-size="10.00">src/main/java/fr/softsf</text>
<text text-anchor="start" x="311.12" y="-86.5" font-family="Helvetica,sans-Serif" font-size="10.00">/sudokufx/annotations</text>
<text text-anchor="middle" x="412.75" y="-74.5" font-family="Helvetica,sans-Serif" font-size="10.00">/ExcludedFromCoverageReportGenerated.java</text>
</a>
</g>
</g>
<!-- Node2 -->
<g id="Node000002" class="node">
<title>Node2</title>
<g id="a_Node000002"><a xlink:title=" ">
<polygon fill="#e0e0e0" stroke="#999999" points="161.5,-26 0,-26 0,-6 161.5,-6 161.5,-26"/>
<text text-anchor="middle" x="80.75" y="-12.5" font-family="Helvetica,sans-Serif" font-size="10.00">java.lang.annotation.Documented</text>
</a>
</g>
</g>
<!-- Node1&#45;&gt;Node2 -->
<g id="edge1_Node000001_Node000002" class="edge">
<title>Node1&#45;&gt;Node2</title>
<g id="a_edge1_Node000001_Node000002"><a xlink:title=" ">
<path fill="none" stroke="#63b8ff" d="M314.04,-67.59C255.64,-54.93 183.87,-39.36 135.48,-28.87"/>
<polygon fill="#63b8ff" stroke="#63b8ff" points="136.31,-25.47 125.79,-26.77 134.83,-32.31 136.31,-25.47"/>
</a>
</g>
</g>
<!-- Node3 -->
<g id="Node000003" class="node">
<title>Node3</title>
<g id="a_Node000003"><a xlink:title=" ">
<polygon fill="#e0e0e0" stroke="#999999" points="327.75,-26 179.75,-26 179.75,-6 327.75,-6 327.75,-26"/>
<text text-anchor="middle" x="253.75" y="-12.5" font-family="Helvetica,sans-Serif" font-size="10.00">java.lang.annotation.Retention</text>
</a>
</g>
</g>
<!-- Node1&#45;&gt;Node3 -->
<g id="edge2_Node000001_Node000003" class="edge">
<title>Node1&#45;&gt;Node3</title>
<g id="a_edge2_Node000001_Node000003"><a xlink:title=" ">
<path fill="none" stroke="#63b8ff" d="M365.48,-67.59C339.4,-55.78 307.75,-41.45 284.8,-31.06"/>
<polygon fill="#63b8ff" stroke="#63b8ff" points="286.55,-28.01 275.99,-27.07 283.66,-34.39 286.55,-28.01"/>
</a>
</g>
</g>
<!-- Node4 -->
<g id="Node000004" class="node">
<title>Node4</title>
<g id="a_Node000004"><a xlink:title=" ">
<polygon fill="#e0e0e0" stroke="#999999" points="479.25,-26 346.25,-26 346.25,-6 479.25,-6 479.25,-26"/>
<text text-anchor="middle" x="412.75" y="-12.5" font-family="Helvetica,sans-Serif" font-size="10.00">java.lang.annotation.Target</text>
</a>
</g>
</g>
<!-- Node1&#45;&gt;Node4 -->
<g id="edge3_Node000001_Node000004" class="edge">
<title>Node1&#45;&gt;Node4</title>
<g id="a_edge3_Node000001_Node000004"><a xlink:title=" ">
<path fill="none" stroke="#63b8ff" d="M412.75,-67.79C412.75,-58.32 412.75,-47.2 412.75,-37.78"/>
<polygon fill="#63b8ff" stroke="#63b8ff" points="416.25,-37.82 412.75,-27.82 409.25,-37.82 416.25,-37.82"/>
</a>
</g>
</g>
<!-- Node5 -->
<g id="Node000005" class="node">
<title>Node5</title>
<g id="a_Node000005"><a xlink:title=" ">
<polygon fill="#e0e0e0" stroke="#999999" points="639.75,-32 497.75,-32 497.75,0 639.75,0 639.75,-32"/>
<text text-anchor="start" x="505.75" y="-18.5" font-family="Helvetica,sans-Serif" font-size="10.00">java.lang.annotation.Element</text>
<text text-anchor="middle" x="568.75" y="-6.5" font-family="Helvetica,sans-Serif" font-size="10.00">Type.*</text>
</a>
</g>
</g>
<!-- Node1&#45;&gt;Node5 -->
<g id="edge4_Node000001_Node000005" class="edge">
<title>Node1&#45;&gt;Node5</title>
<g id="a_edge4_Node000001_Node000005"><a xlink:title=" ">
<path fill="none" stroke="#63b8ff" d="M459.13,-67.59C479.94,-57.99 504.35,-46.72 524.85,-37.26"/>
<polygon fill="#63b8ff" stroke="#63b8ff" points="526.19,-40.5 533.8,-33.13 523.26,-34.14 526.19,-40.5"/>
</a>
</g>
</g>
<!-- Node6 -->
<g id="Node000006" class="node">
<title>Node6</title>
<g id="a_Node000006"><a xlink:title=" ">
<polygon fill="#e0e0e0" stroke="#999999" points="805.75,-32 657.75,-32 657.75,0 805.75,0 805.75,-32"/>
<text text-anchor="start" x="665.75" y="-18.5" font-family="Helvetica,sans-Serif" font-size="10.00">java.lang.annotation.Retention</text>
<text text-anchor="middle" x="731.75" y="-6.5" font-family="Helvetica,sans-Serif" font-size="10.00">Policy.RUNTIME</text>
</a>
</g>
</g>
<!-- Node1&#45;&gt;Node6 -->
<g id="edge5_Node000001_Node000006" class="edge">
<title>Node1&#45;&gt;Node6</title>
<g id="a_edge5_Node000001_Node000006"><a xlink:title=" ">
<path fill="none" stroke="#63b8ff" d="M507.6,-67.59C553.55,-57.22 608.12,-44.9 651.92,-35.02"/>
<polygon fill="#63b8ff" stroke="#63b8ff" points="652.64,-38.44 661.62,-32.83 651.09,-31.62 652.64,-38.44"/>
</a>
</g>
</g>
</g>
</svg>
