<?xml version="1.0" encoding="UTF-8" standalone="no"?>
<!DOCTYPE svg PUBLIC "-//W3C//DTD SVG 1.1//EN"
 "http://www.w3.org/Graphics/SVG/1.1/DTD/svg11.dtd">
<!-- Generated by graphviz version 12.2.1 (20241206.2353)
 -->
<!-- Title: src/main/java/fr/softsf/sudokufx/utils/FileSystemManager.java Pages: 1 -->
<svg width="600pt" height="96pt"
 viewBox="0.00 0.00 600.12 96.00" xmlns="http://www.w3.org/2000/svg" xmlns:xlink="http://www.w3.org/1999/xlink">
<g id="graph0" class="graph" transform="scale(1 1) rotate(0) translate(4 92)">
<title>src/main/java/fr/softsf/sudokufx/utils/FileSystemManager.java</title>
<!-- Node1 -->
<g id="Node000001" class="node">
<title>Node1</title>
<g id="a_Node000001"><a xlink:title=" ">
<polygon fill="#999999" stroke="#666666" points="385.88,-88 195.12,-88 195.12,-56 385.88,-56 385.88,-88"/>
<text text-anchor="start" x="203.12" y="-74.5" font-family="Helvetica,sans-Serif" font-size="10.00">src/main/java/fr/softsf</text>
<text text-anchor="middle" x="290.5" y="-62.5" font-family="Helvetica,sans-Serif" font-size="10.00">/sudokufx/utils/FileSystemManager.java</text>
</a>
</g>
</g>
<!-- Node2 -->
<g id="Node000002" class="node">
<title>Node2</title>
<g id="a_Node000002"><a xlink:title=" ">
<polygon fill="#e0e0e0" stroke="#999999" points="121,-20 0,-20 0,0 121,0 121,-20"/>
<text text-anchor="middle" x="60.5" y="-6.5" font-family="Helvetica,sans-Serif" font-size="10.00">lombok.extern.slf4j.Slf4j</text>
</a>
</g>
</g>
<!-- Node1&#45;&gt;Node2 -->
<g id="edge1_Node000001_Node000002" class="edge">
<title>Node1&#45;&gt;Node2</title>
<g id="a_edge1_Node000001_Node000002"><a xlink:title=" ">
<path fill="none" stroke="#63b8ff" d="M231.27,-55.55C192.96,-45.55 143.75,-32.72 108,-23.39"/>
<polygon fill="#63b8ff" stroke="#63b8ff" points="108.93,-20.02 98.37,-20.88 107.16,-26.79 108.93,-20.02"/>
</a>
</g>
</g>
<!-- Node3 -->
<g id="Node000003" class="node">
<title>Node3</title>
<g id="a_Node000003"><a xlink:title=" ">
<polygon fill="#e0e0e0" stroke="#999999" points="228.25,-20 138.75,-20 138.75,0 228.25,0 228.25,-20"/>
<text text-anchor="middle" x="183.5" y="-6.5" font-family="Helvetica,sans-Serif" font-size="10.00">java.nio.file.Files</text>
</a>
</g>
</g>
<!-- Node1&#45;&gt;Node3 -->
<g id="edge2_Node000001_Node000003" class="edge">
<title>Node1&#45;&gt;Node3</title>
<g id="a_edge2_Node000001_Node000003"><a xlink:title=" ">
<path fill="none" stroke="#63b8ff" d="M262.94,-55.55C246.69,-46.43 226.22,-34.96 210.13,-25.93"/>
<polygon fill="#63b8ff" stroke="#63b8ff" points="212.03,-22.99 201.6,-21.15 208.61,-29.09 212.03,-22.99"/>
</a>
</g>
</g>
<!-- Node4 -->
<g id="Node000004" class="node">
<title>Node4</title>
<g id="a_Node000004"><a xlink:title=" ">
<polygon fill="#e0e0e0" stroke="#999999" points="334.88,-20 246.12,-20 246.12,0 334.88,0 334.88,-20"/>
<text text-anchor="middle" x="290.5" y="-6.5" font-family="Helvetica,sans-Serif" font-size="10.00">java.nio.file.Path</text>
</a>
</g>
</g>
<!-- Node1&#45;&gt;Node4 -->
<g id="edge3_Node000001_Node000004" class="edge">
<title>Node1&#45;&gt;Node4</title>
<g id="a_edge3_Node000001_Node000004"><a xlink:title=" ">
<path fill="none" stroke="#63b8ff" d="M290.5,-55.55C290.5,-48.34 290.5,-39.66 290.5,-31.88"/>
<polygon fill="#63b8ff" stroke="#63b8ff" points="294,-31.92 290.5,-21.92 287,-31.92 294,-31.92"/>
</a>
</g>
</g>
<!-- Node5 -->
<g id="Node000005" class="node">
<title>Node5</title>
<g id="a_Node000005"><a xlink:title=" ">
<polygon fill="#e0e0e0" stroke="#999999" points="456.38,-20 352.62,-20 352.62,0 456.38,0 456.38,-20"/>
<text text-anchor="middle" x="404.5" y="-6.5" font-family="Helvetica,sans-Serif" font-size="10.00">java.util.Comparator</text>
</a>
</g>
</g>
<!-- Node1&#45;&gt;Node5 -->
<g id="edge4_Node000001_Node000005" class="edge">
<title>Node1&#45;&gt;Node5</title>
<g id="a_edge4_Node000001_Node000005"><a xlink:title=" ">
<path fill="none" stroke="#63b8ff" d="M319.86,-55.55C337.34,-46.35 359.4,-34.74 376.62,-25.68"/>
<polygon fill="#63b8ff" stroke="#63b8ff" points="378.07,-28.87 385.29,-21.11 374.81,-22.67 378.07,-28.87"/>
</a>
</g>
</g>
<!-- Node6 -->
<g id="Node000006" class="node">
<title>Node6</title>
<g id="a_Node000006"><a xlink:title=" ">
<polygon fill="#e0e0e0" stroke="#999999" points="592.12,-20 474.88,-20 474.88,0 592.12,0 592.12,-20"/>
<text text-anchor="middle" x="533.5" y="-6.5" font-family="Helvetica,sans-Serif" font-size="10.00">java.util.stream.Stream</text>
</a>
</g>
</g>
<!-- Node1&#45;&gt;Node6 -->
<g id="edge5_Node000001_Node000006" class="edge">
<title>Node1&#45;&gt;Node6</title>
<g id="a_edge5_Node000001_Node000006"><a xlink:title=" ">
<path fill="none" stroke="#63b8ff" d="M353.08,-55.55C393.91,-45.47 446.45,-32.49 484.29,-23.15"/>
<polygon fill="#63b8ff" stroke="#63b8ff" points="484.7,-26.65 493.57,-20.86 483.02,-19.86 484.7,-26.65"/>
</a>
</g>
</g>
</g>
</svg>
