<?xml version="1.0" encoding="UTF-8" standalone="no"?>
<!DOCTYPE svg PUBLIC "-//W3C//DTD SVG 1.1//EN"
 "http://www.w3.org/Graphics/SVG/1.1/DTD/svg11.dtd">
<!-- Generated by graphviz version 12.2.1 (20241206.2353)
 -->
<!-- Title: src/main/java/fr/softsf/sudokufx/utils/FileSystemManager.java Pages: 1 -->
<svg width="759pt" height="108pt"
 viewBox="0.00 0.00 759.25 108.00" xmlns="http://www.w3.org/2000/svg" xmlns:xlink="http://www.w3.org/1999/xlink">
<g id="graph0" class="graph" transform="scale(1 1) rotate(0) translate(4 104)">
<title>src/main/java/fr/softsf/sudokufx/utils/FileSystemManager.java</title>
<!-- Node1 -->
<g id="Node000001" class="node">
<title>Node1</title>
<g id="a_Node000001"><a xlink:title=" ">
<polygon fill="#999999" stroke="#666666" points="491,-100 300.25,-100 300.25,-68 491,-68 491,-100"/>
<text text-anchor="start" x="308.25" y="-86.5" font-family="Helvetica,sans-Serif" font-size="10.00">src/main/java/fr/softsf</text>
<text text-anchor="middle" x="395.62" y="-74.5" font-family="Helvetica,sans-Serif" font-size="10.00">/sudokufx/utils/FileSystemManager.java</text>
</a>
</g>
</g>
<!-- Node2 -->
<g id="Node000002" class="node">
<title>Node2</title>
<g id="a_Node000002"><a xlink:title=" ">
<polygon fill="#e0e0e0" stroke="#999999" points="141.25,-32 0,-32 0,0 141.25,0 141.25,-32"/>
<text text-anchor="start" x="8" y="-18.5" font-family="Helvetica,sans-Serif" font-size="10.00">fr.softsf.sudokufx.interfaces.</text>
<text text-anchor="middle" x="70.62" y="-6.5" font-family="Helvetica,sans-Serif" font-size="10.00">IFileSystem</text>
</a>
</g>
</g>
<!-- Node1&#45;&gt;Node2 -->
<g id="edge1_Node000001_Node000002" class="edge">
<title>Node1&#45;&gt;Node2</title>
<g id="a_edge1_Node000001_Node000002"><a xlink:title=" ">
<path fill="none" stroke="#63b8ff" d="M319.43,-67.53C269.35,-57.36 203.87,-44.06 152.65,-33.66"/>
<polygon fill="#63b8ff" stroke="#63b8ff" points="153.6,-30.28 143.1,-31.72 152.21,-37.14 153.6,-30.28"/>
</a>
</g>
</g>
<!-- Node3 -->
<g id="Node000003" class="node">
<title>Node3</title>
<g id="a_Node000003"><a xlink:title=" ">
<polygon fill="#e0e0e0" stroke="#999999" points="280.12,-26 159.12,-26 159.12,-6 280.12,-6 280.12,-26"/>
<text text-anchor="middle" x="219.62" y="-12.5" font-family="Helvetica,sans-Serif" font-size="10.00">lombok.extern.slf4j.Slf4j</text>
</a>
</g>
</g>
<!-- Node1&#45;&gt;Node3 -->
<g id="edge2_Node000001_Node000003" class="edge">
<title>Node1&#45;&gt;Node3</title>
<g id="a_edge2_Node000001_Node000003"><a xlink:title=" ">
<path fill="none" stroke="#63b8ff" d="M354.36,-67.53C324.4,-56.29 284.26,-41.24 255.61,-30.49"/>
<polygon fill="#63b8ff" stroke="#63b8ff" points="256.86,-27.23 246.27,-26.99 254.4,-33.78 256.86,-27.23"/>
</a>
</g>
</g>
<!-- Node4 -->
<g id="Node000004" class="node">
<title>Node4</title>
<g id="a_Node000004"><a xlink:title=" ">
<polygon fill="#e0e0e0" stroke="#999999" points="387.38,-26 297.88,-26 297.88,-6 387.38,-6 387.38,-26"/>
<text text-anchor="middle" x="342.62" y="-12.5" font-family="Helvetica,sans-Serif" font-size="10.00">java.nio.file.Files</text>
</a>
</g>
</g>
<!-- Node1&#45;&gt;Node4 -->
<g id="edge3_Node000001_Node000004" class="edge">
<title>Node1&#45;&gt;Node4</title>
<g id="a_edge3_Node000001_Node000004"><a xlink:title=" ">
<path fill="none" stroke="#63b8ff" d="M383.33,-67.69C375.55,-58 365.44,-45.41 357.24,-35.2"/>
<polygon fill="#63b8ff" stroke="#63b8ff" points="360.04,-33.1 351.05,-27.5 354.59,-37.48 360.04,-33.1"/>
</a>
</g>
</g>
<!-- Node5 -->
<g id="Node000005" class="node">
<title>Node5</title>
<g id="a_Node000005"><a xlink:title=" ">
<polygon fill="#e0e0e0" stroke="#999999" points="494,-26 405.25,-26 405.25,-6 494,-6 494,-26"/>
<text text-anchor="middle" x="449.62" y="-12.5" font-family="Helvetica,sans-Serif" font-size="10.00">java.nio.file.Path</text>
</a>
</g>
</g>
<!-- Node1&#45;&gt;Node5 -->
<g id="edge4_Node000001_Node000005" class="edge">
<title>Node1&#45;&gt;Node5</title>
<g id="a_edge4_Node000001_Node000005"><a xlink:title=" ">
<path fill="none" stroke="#63b8ff" d="M408.15,-67.69C416.08,-58 426.38,-45.41 434.73,-35.2"/>
<polygon fill="#63b8ff" stroke="#63b8ff" points="437.42,-37.44 441.04,-27.49 432,-33.01 437.42,-37.44"/>
</a>
</g>
</g>
<!-- Node6 -->
<g id="Node000006" class="node">
<title>Node6</title>
<g id="a_Node000006"><a xlink:title=" ">
<polygon fill="#e0e0e0" stroke="#999999" points="615.5,-26 511.75,-26 511.75,-6 615.5,-6 615.5,-26"/>
<text text-anchor="middle" x="563.62" y="-12.5" font-family="Helvetica,sans-Serif" font-size="10.00">java.util.Comparator</text>
</a>
</g>
</g>
<!-- Node1&#45;&gt;Node6 -->
<g id="edge5_Node000001_Node000006" class="edge">
<title>Node1&#45;&gt;Node6</title>
<g id="a_edge5_Node000001_Node000006"><a xlink:title=" ">
<path fill="none" stroke="#63b8ff" d="M435.01,-67.53C463.48,-56.34 501.59,-41.37 528.92,-30.64"/>
<polygon fill="#63b8ff" stroke="#63b8ff" points="530.11,-33.93 538.14,-27.01 527.55,-27.41 530.11,-33.93"/>
</a>
</g>
</g>
<!-- Node7 -->
<g id="Node000007" class="node">
<title>Node7</title>
<g id="a_Node000007"><a xlink:title=" ">
<polygon fill="#e0e0e0" stroke="#999999" points="751.25,-26 634,-26 634,-6 751.25,-6 751.25,-26"/>
<text text-anchor="middle" x="692.62" y="-12.5" font-family="Helvetica,sans-Serif" font-size="10.00">java.util.stream.Stream</text>
</a>
</g>
</g>
<!-- Node1&#45;&gt;Node7 -->
<g id="edge6_Node000001_Node000007" class="edge">
<title>Node1&#45;&gt;Node7</title>
<g id="a_edge6_Node000001_Node000007"><a xlink:title=" ">
<path fill="none" stroke="#63b8ff" d="M465.26,-67.53C518.27,-55.74 590.18,-39.77 638.83,-28.96"/>
<polygon fill="#63b8ff" stroke="#63b8ff" points="639.57,-32.37 648.58,-26.79 638.06,-25.54 639.57,-32.37"/>
</a>
</g>
</g>
</g>
</svg>
