<?xml version="1.0" encoding="UTF-8" standalone="no"?>
<!DOCTYPE svg PUBLIC "-//W3C//DTD SVG 1.1//EN"
 "http://www.w3.org/Graphics/SVG/1.1/DTD/svg11.dtd">
<!-- Generated by graphviz version 12.2.1 (20241206.2353)
 -->
<!-- Title: src/main/java/fr/softsf/sudokufx/view/FullMenuView.java Pages: 1 -->
<svg width="4289pt" height="108pt"
 viewBox="0.00 0.00 4288.75 108.00" xmlns="http://www.w3.org/2000/svg" xmlns:xlink="http://www.w3.org/1999/xlink">
<g id="graph0" class="graph" transform="scale(1 1) rotate(0) translate(4 104)">
<title>src/main/java/fr/softsf/sudokufx/view/FullMenuView.java</title>
<!-- Node1 -->
<g id="Node000001" class="node">
<title>Node1</title>
<g id="a_Node000001"><a xlink:title=" ">
<polygon fill="#999999" stroke="#666666" points="2335.88,-100 2169.12,-100 2169.12,-68 2335.88,-68 2335.88,-100"/>
<text text-anchor="start" x="2177.12" y="-86.5" font-family="Helvetica,sans-Serif" font-size="10.00">src/main/java/fr/softsf</text>
<text text-anchor="middle" x="2252.5" y="-74.5" font-family="Helvetica,sans-Serif" font-size="10.00">/sudokufx/view/FullMenuView.java</text>
</a>
</g>
</g>
<!-- Node2 -->
<g id="Node000002" class="node">
<title>Node2</title>
<g id="a_Node000002"><a xlink:title=" ">
<polygon fill="#e0e0e0" stroke="#999999" points="139,-26 0,-26 0,-6 139,-6 139,-26"/>
<text text-anchor="middle" x="69.5" y="-12.5" font-family="Helvetica,sans-Serif" font-size="10.00">fr.softsf.sudokufx.SudoMain</text>
</a>
</g>
</g>
<!-- Node1&#45;&gt;Node2 -->
<g id="edge1_Node000001_Node000002" class="edge">
<title>Node1&#45;&gt;Node2</title>
<g id="a_edge1_Node000001_Node000002"><a xlink:title=" ">
<path fill="none" stroke="#63b8ff" d="M2168.9,-82.83C1828.97,-81.83 549.58,-75.23 147.5,-32 139.58,-31.15 131.26,-29.92 123.13,-28.52"/>
<polygon fill="#63b8ff" stroke="#63b8ff" points="123.77,-25.08 113.3,-26.73 122.51,-31.97 123.77,-25.08"/>
</a>
</g>
</g>
<!-- Node3 -->
<g id="Node000003" class="node">
<title>Node3</title>
<g id="a_Node000003"><a xlink:title=" ">
<polygon fill="#e0e0e0" stroke="#999999" points="284.38,-32 156.62,-32 156.62,0 284.38,0 284.38,-32"/>
<text text-anchor="start" x="164.62" y="-18.5" font-family="Helvetica,sans-Serif" font-size="10.00">fr.softsf.sudokufx.enums.</text>
<text text-anchor="middle" x="220.5" y="-6.5" font-family="Helvetica,sans-Serif" font-size="10.00">Paths</text>
</a>
</g>
</g>
<!-- Node1&#45;&gt;Node3 -->
<g id="edge2_Node000001_Node000003" class="edge">
<title>Node1&#45;&gt;Node3</title>
<g id="a_edge2_Node000001_Node000003"><a xlink:title=" ">
<path fill="none" stroke="#63b8ff" d="M2168.68,-82.79C1846.67,-81.68 688.02,-74.81 295.87,-32.09"/>
<polygon fill="#63b8ff" stroke="#63b8ff" points="296.32,-28.62 286,-30.98 295.54,-35.57 296.32,-28.62"/>
</a>
</g>
</g>
<!-- Node4 -->
<g id="Node000004" class="node">
<title>Node4</title>
<g id="a_Node000004"><a xlink:title=" ">
<polygon fill="#e0e0e0" stroke="#999999" points="430.38,-32 302.62,-32 302.62,0 430.38,0 430.38,-32"/>
<text text-anchor="start" x="310.62" y="-18.5" font-family="Helvetica,sans-Serif" font-size="10.00">fr.softsf.sudokufx.enums.</text>
<text text-anchor="middle" x="366.5" y="-6.5" font-family="Helvetica,sans-Serif" font-size="10.00">ToastLevels</text>
</a>
</g>
</g>
<!-- Node1&#45;&gt;Node4 -->
<g id="edge3_Node000001_Node000004" class="edge">
<title>Node1&#45;&gt;Node4</title>
<g id="a_edge3_Node000001_Node000004"><a xlink:title=" ">
<path fill="none" stroke="#63b8ff" d="M2168.66,-82.58C1862.38,-80.77 803.58,-71.78 441.77,-32.08"/>
<polygon fill="#63b8ff" stroke="#63b8ff" points="442.33,-28.62 432,-30.98 441.54,-35.58 442.33,-28.62"/>
</a>
</g>
</g>
<!-- Node5 -->
<g id="Node000005" class="node">
<title>Node5</title>
<g id="a_Node000005"><a xlink:title=" ">
<polygon fill="#e0e0e0" stroke="#999999" points="590.12,-32 448.88,-32 448.88,0 590.12,0 590.12,-32"/>
<text text-anchor="start" x="456.88" y="-18.5" font-family="Helvetica,sans-Serif" font-size="10.00">fr.softsf.sudokufx.interfaces.</text>
<text text-anchor="middle" x="519.5" y="-6.5" font-family="Helvetica,sans-Serif" font-size="10.00">IMainStageView</text>
</a>
</g>
</g>
<!-- Node1&#45;&gt;Node5 -->
<g id="edge4_Node000001_Node000005" class="edge">
<title>Node1&#45;&gt;Node5</title>
<g id="a_edge4_Node000001_Node000005"><a xlink:title=" ">
<path fill="none" stroke="#63b8ff" d="M2168.85,-82.16C1880.84,-78.98 930.36,-66.22 601.9,-32.24"/>
<polygon fill="#63b8ff" stroke="#63b8ff" points="602.3,-28.76 591.98,-31.18 601.56,-35.72 602.3,-28.76"/>
</a>
</g>
</g>
<!-- Node6 -->
<g id="Node000006" class="node">
<title>Node6</title>
<g id="a_Node000006"><a xlink:title=" ">
<polygon fill="#e0e0e0" stroke="#999999" points="749.12,-32 607.88,-32 607.88,0 749.12,0 749.12,-32"/>
<text text-anchor="start" x="615.88" y="-18.5" font-family="Helvetica,sans-Serif" font-size="10.00">fr.softsf.sudokufx.interfaces.</text>
<text text-anchor="middle" x="678.5" y="-6.5" font-family="Helvetica,sans-Serif" font-size="10.00">ISceneProvider</text>
</a>
</g>
</g>
<!-- Node1&#45;&gt;Node6 -->
<g id="edge5_Node000001_Node000006" class="edge">
<title>Node1&#45;&gt;Node6</title>
<g id="a_edge5_Node000001_Node000006"><a xlink:title=" ">
<path fill="none" stroke="#63b8ff" d="M2168.72,-81.84C1899.29,-77.83 1055.94,-63.18 760.6,-32.21"/>
<polygon fill="#63b8ff" stroke="#63b8ff" points="761.3,-28.77 750.99,-31.17 760.55,-35.73 761.3,-28.77"/>
</a>
</g>
</g>
<!-- Node7 -->
<g id="Node000007" class="node">
<title>Node7</title>
<g id="a_Node000007"><a xlink:title=" ">
<polygon fill="#e0e0e0" stroke="#999999" points="908.12,-32 766.88,-32 766.88,0 908.12,0 908.12,-32"/>
<text text-anchor="start" x="774.88" y="-18.5" font-family="Helvetica,sans-Serif" font-size="10.00">fr.softsf.sudokufx.interfaces.</text>
<text text-anchor="middle" x="837.5" y="-6.5" font-family="Helvetica,sans-Serif" font-size="10.00">ISplashScreenView</text>
</a>
</g>
</g>
<!-- Node1&#45;&gt;Node7 -->
<g id="edge6_Node000001_Node000007" class="edge">
<title>Node1&#45;&gt;Node7</title>
<g id="a_edge6_Node000001_Node000007"><a xlink:title=" ">
<path fill="none" stroke="#63b8ff" d="M2168.95,-81.42C1919.83,-76.46 1183.67,-59.9 919.96,-32.12"/>
<polygon fill="#63b8ff" stroke="#63b8ff" points="920.34,-28.64 910.02,-31.04 919.59,-35.6 920.34,-28.64"/>
</a>
</g>
</g>
<!-- Node8 -->
<g id="Node000008" class="node">
<title>Node8</title>
<g id="a_Node000008"><a xlink:title=" ">
<polygon fill="#e0e0e0" stroke="#999999" points="1056.5,-32 926.5,-32 926.5,0 1056.5,0 1056.5,-32"/>
<text text-anchor="start" x="934.5" y="-18.5" font-family="Helvetica,sans-Serif" font-size="10.00">fr.softsf.sudokufx.service.</text>
<text text-anchor="middle" x="991.5" y="-6.5" font-family="Helvetica,sans-Serif" font-size="10.00">FxmlService</text>
</a>
</g>
</g>
<!-- Node1&#45;&gt;Node8 -->
<g id="edge7_Node000001_Node000008" class="edge">
<title>Node1&#45;&gt;Node8</title>
<g id="a_edge7_Node000001_Node000008"><a xlink:title=" ">
<path fill="none" stroke="#63b8ff" d="M2168.8,-81.12C1938.99,-75.67 1300.48,-58.68 1067.88,-32.12"/>
<polygon fill="#63b8ff" stroke="#63b8ff" points="1068.62,-28.69 1058.28,-30.99 1067.8,-35.64 1068.62,-28.69"/>
</a>
</g>
</g>
<!-- Node9 -->
<g id="Node000009" class="node">
<title>Node9</title>
<g id="a_Node000009"><a xlink:title=" ">
<polygon fill="#e0e0e0" stroke="#999999" points="1202.38,-32 1074.62,-32 1074.62,0 1202.38,0 1202.38,-32"/>
<text text-anchor="start" x="1082.62" y="-18.5" font-family="Helvetica,sans-Serif" font-size="10.00">fr.softsf.sudokufx.enums.</text>
<text text-anchor="middle" x="1138.5" y="-6.5" font-family="Helvetica,sans-Serif" font-size="10.00">SecureRandomGenerator</text>
</a>
</g>
</g>
<!-- Node1&#45;&gt;Node9 -->
<g id="edge8_Node000001_Node000009" class="edge">
<title>Node1&#45;&gt;Node9</title>
<g id="a_edge8_Node000001_Node000009"><a xlink:title=" ">
<path fill="none" stroke="#63b8ff" d="M2168.8,-83.25C1993.32,-82.83 1574.08,-76.88 1213.68,-32.13"/>
<polygon fill="#63b8ff" stroke="#63b8ff" points="1214.36,-28.69 1204,-30.92 1213.49,-35.64 1214.36,-28.69"/>
</a>
</g>
</g>
<!-- Node10 -->
<g id="Node000010" class="node">
<title>Node10</title>
<g id="a_Node000010"><a xlink:title=" ">
<polygon fill="#e0e0e0" stroke="#999999" points="1428.12,-32 1220.88,-32 1220.88,0 1428.12,0 1428.12,-32"/>
<text text-anchor="start" x="1228.88" y="-18.5" font-family="Helvetica,sans-Serif" font-size="10.00">fr.softsf.sudokufx.view.components.toaster.</text>
<text text-anchor="middle" x="1324.5" y="-6.5" font-family="Helvetica,sans-Serif" font-size="10.00">ToasterVBox</text>
</a>
</g>
</g>
<!-- Node1&#45;&gt;Node10 -->
<g id="edge9_Node000001_Node000010" class="edge">
<title>Node1&#45;&gt;Node10</title>
<g id="a_edge9_Node000001_Node000010"><a xlink:title=" ">
<path fill="none" stroke="#63b8ff" d="M2168.65,-79.72C2022.63,-73.57 1711.96,-58.59 1439.8,-32.28"/>
<polygon fill="#63b8ff" stroke="#63b8ff" points="1440.3,-28.82 1430.01,-31.33 1439.62,-35.78 1440.3,-28.82"/>
</a>
</g>
</g>
<!-- Node11 -->
<g id="Node000011" class="node">
<title>Node11</title>
<g id="a_Node000011"><a xlink:title=" ">
<polygon fill="#e0e0e0" stroke="#999999" points="1591,-32 1446,-32 1446,0 1591,0 1591,-32"/>
<text text-anchor="start" x="1454" y="-18.5" font-family="Helvetica,sans-Serif" font-size="10.00">fr.softsf.sudokufx.viewmodel.</text>
<text text-anchor="middle" x="1518.5" y="-6.5" font-family="Helvetica,sans-Serif" font-size="10.00">FullMenuViewModel</text>
</a>
</g>
</g>
<!-- Node1&#45;&gt;Node11 -->
<g id="edge10_Node000001_Node000011" class="edge">
<title>Node1&#45;&gt;Node11</title>
<g id="a_edge10_Node000001_Node000011"><a xlink:title=" ">
<path fill="none" stroke="#63b8ff" d="M2168.85,-79.21C2046.69,-73.07 1812.15,-58.97 1602.54,-32.17"/>
<polygon fill="#63b8ff" stroke="#63b8ff" points="1603.18,-28.73 1592.82,-30.92 1602.29,-35.67 1603.18,-28.73"/>
</a>
</g>
</g>
<!-- Node12 -->
<g id="Node000012" class="node">
<title>Node12</title>
<g id="a_Node000012"><a xlink:title=" ">
<polygon fill="#e0e0e0" stroke="#999999" points="1763.88,-26 1609.12,-26 1609.12,-6 1763.88,-6 1763.88,-26"/>
<text text-anchor="middle" x="1686.5" y="-12.5" font-family="Helvetica,sans-Serif" font-size="10.00">javafx.animation.FadeTransition</text>
</a>
</g>
</g>
<!-- Node1&#45;&gt;Node12 -->
<g id="edge11_Node000001_Node000012" class="edge">
<title>Node1&#45;&gt;Node12</title>
<g id="a_edge11_Node000001_Node000012"><a xlink:title=" ">
<path fill="none" stroke="#63b8ff" d="M2169.05,-75.84C2073.13,-67.21 1911.09,-51.43 1772.5,-32 1764.75,-30.91 1756.62,-29.65 1748.59,-28.34"/>
<polygon fill="#63b8ff" stroke="#63b8ff" points="1749.28,-24.9 1738.84,-26.7 1748.12,-31.81 1749.28,-24.9"/>
</a>
</g>
</g>
<!-- Node13 -->
<g id="Node000013" class="node">
<title>Node13</title>
<g id="a_Node000013"><a xlink:title=" ">
<polygon fill="#e0e0e0" stroke="#999999" points="1927.38,-26 1781.62,-26 1781.62,-6 1927.38,-6 1927.38,-26"/>
<text text-anchor="middle" x="1854.5" y="-12.5" font-family="Helvetica,sans-Serif" font-size="10.00">javafx.beans.binding.Bindings</text>
</a>
</g>
</g>
<!-- Node1&#45;&gt;Node13 -->
<g id="edge12_Node000001_Node000013" class="edge">
<title>Node1&#45;&gt;Node13</title>
<g id="a_edge12_Node000001_Node000013"><a xlink:title=" ">
<path fill="none" stroke="#63b8ff" d="M2168.92,-70C2105.18,-59.97 2015.23,-45.55 1936.5,-32 1930.01,-30.88 1923.24,-29.69 1916.49,-28.48"/>
<polygon fill="#63b8ff" stroke="#63b8ff" points="1917.16,-25.05 1906.7,-26.72 1915.92,-31.94 1917.16,-25.05"/>
</a>
</g>
</g>
<!-- Node14 -->
<g id="Node000014" class="node">
<title>Node14</title>
<g id="a_Node000014"><a xlink:title=" ">
<polygon fill="#e0e0e0" stroke="#999999" points="2071.25,-26 1945.75,-26 1945.75,-6 2071.25,-6 2071.25,-26"/>
<text text-anchor="middle" x="2008.5" y="-12.5" font-family="Helvetica,sans-Serif" font-size="10.00">javafx.event.ActionEvent</text>
</a>
</g>
</g>
<!-- Node1&#45;&gt;Node14 -->
<g id="edge13_Node000001_Node000014" class="edge">
<title>Node1&#45;&gt;Node14</title>
<g id="a_edge13_Node000001_Node000014"><a xlink:title=" ">
<path fill="none" stroke="#63b8ff" d="M2195.29,-67.53C2152.38,-55.92 2094.4,-40.24 2054.48,-29.44"/>
<polygon fill="#63b8ff" stroke="#63b8ff" points="2055.5,-26.09 2044.93,-26.86 2053.67,-32.84 2055.5,-26.09"/>
</a>
</g>
</g>
<!-- Node15 -->
<g id="Node000015" class="node">
<title>Node15</title>
<g id="a_Node000015"><a xlink:title=" ">
<polygon fill="#e0e0e0" stroke="#999999" points="2182.12,-26 2088.88,-26 2088.88,-6 2182.12,-6 2182.12,-26"/>
<text text-anchor="middle" x="2135.5" y="-12.5" font-family="Helvetica,sans-Serif" font-size="10.00">javafx.fxml.FXML</text>
</a>
</g>
</g>
<!-- Node1&#45;&gt;Node15 -->
<g id="edge14_Node000001_Node000015" class="edge">
<title>Node1&#45;&gt;Node15</title>
<g id="a_edge14_Node000001_Node000015"><a xlink:title=" ">
<path fill="none" stroke="#63b8ff" d="M2225.07,-67.53C2206.12,-56.84 2181.05,-42.7 2162.25,-32.09"/>
<polygon fill="#63b8ff" stroke="#63b8ff" points="2164.02,-29.07 2153.59,-27.2 2160.58,-35.17 2164.02,-29.07"/>
</a>
</g>
</g>
<!-- Node16 -->
<g id="Node000016" class="node">
<title>Node16</title>
<g id="a_Node000016"><a xlink:title=" ">
<polygon fill="#e0e0e0" stroke="#999999" points="2305.12,-26 2199.88,-26 2199.88,-6 2305.12,-6 2305.12,-26"/>
<text text-anchor="middle" x="2252.5" y="-12.5" font-family="Helvetica,sans-Serif" font-size="10.00">javafx.geometry.Pos</text>
</a>
</g>
</g>
<!-- Node1&#45;&gt;Node16 -->
<g id="edge15_Node000001_Node000016" class="edge">
<title>Node1&#45;&gt;Node16</title>
<g id="a_edge15_Node000001_Node000016"><a xlink:title=" ">
<path fill="none" stroke="#63b8ff" d="M2252.5,-67.69C2252.5,-58.8 2252.5,-47.46 2252.5,-37.77"/>
<polygon fill="#63b8ff" stroke="#63b8ff" points="2256,-37.83 2252.5,-27.83 2249,-37.83 2256,-37.83"/>
</a>
</g>
</g>
<!-- Node17 -->
<g id="Node000017" class="node">
<title>Node17</title>
<g id="a_Node000017"><a xlink:title=" ">
<polygon fill="#e0e0e0" stroke="#999999" points="2468,-26 2323,-26 2323,-6 2468,-6 2468,-26"/>
<text text-anchor="middle" x="2395.5" y="-12.5" font-family="Helvetica,sans-Serif" font-size="10.00">javafx.geometry.Rectangle2D</text>
</a>
</g>
</g>
<!-- Node1&#45;&gt;Node17 -->
<g id="edge16_Node000001_Node000017" class="edge">
<title>Node1&#45;&gt;Node17</title>
<g id="a_edge16_Node000001_Node000017"><a xlink:title=" ">
<path fill="none" stroke="#63b8ff" d="M2286.03,-67.53C2309.83,-56.54 2341.54,-41.9 2364.71,-31.21"/>
<polygon fill="#63b8ff" stroke="#63b8ff" points="2366.02,-34.46 2373.63,-27.09 2363.08,-28.11 2366.02,-34.46"/>
</a>
</g>
</g>
<!-- Node18 -->
<g id="Node000018" class="node">
<title>Node18</title>
<g id="a_Node000018"><a xlink:title=" ">
<polygon fill="#e0e0e0" stroke="#999999" points="2583.38,-26 2485.62,-26 2485.62,-6 2583.38,-6 2583.38,-26"/>
<text text-anchor="middle" x="2534.5" y="-12.5" font-family="Helvetica,sans-Serif" font-size="10.00">javafx.scene.Node</text>
</a>
</g>
</g>
<!-- Node1&#45;&gt;Node18 -->
<g id="edge17_Node000001_Node000018" class="edge">
<title>Node1&#45;&gt;Node18</title>
<g id="a_edge17_Node000001_Node000018"><a xlink:title=" ">
<path fill="none" stroke="#63b8ff" d="M2323.58,-67.54C2367.93,-57.74 2426.15,-44.57 2477.5,-32 2481.03,-31.14 2484.67,-30.22 2488.34,-29.29"/>
<polygon fill="#63b8ff" stroke="#63b8ff" points="2489,-32.74 2497.81,-26.85 2487.25,-25.96 2489,-32.74"/>
</a>
</g>
</g>
<!-- Node19 -->
<g id="Node000019" class="node">
<title>Node19</title>
<g id="a_Node000019"><a xlink:title=" ">
<polygon fill="#e0e0e0" stroke="#999999" points="2737.12,-26 2601.88,-26 2601.88,-6 2737.12,-6 2737.12,-26"/>
<text text-anchor="middle" x="2669.5" y="-12.5" font-family="Helvetica,sans-Serif" font-size="10.00">javafx.scene.control.Button</text>
</a>
</g>
</g>
<!-- Node1&#45;&gt;Node19 -->
<g id="edge18_Node000001_Node000019" class="edge">
<title>Node1&#45;&gt;Node19</title>
<g id="a_edge18_Node000001_Node000019"><a xlink:title=" ">
<path fill="none" stroke="#63b8ff" d="M2336.15,-71.49C2405.07,-61.75 2505.3,-47.03 2592.5,-32 2598.78,-30.92 2605.33,-29.73 2611.85,-28.51"/>
<polygon fill="#63b8ff" stroke="#63b8ff" points="2612.07,-32.03 2621.25,-26.73 2610.77,-25.16 2612.07,-32.03"/>
</a>
</g>
</g>
<!-- Node20 -->
<g id="Node000020" class="node">
<title>Node20</title>
<g id="a_Node000020"><a xlink:title=" ">
<polygon fill="#e0e0e0" stroke="#999999" points="2885.5,-26 2755.5,-26 2755.5,-6 2885.5,-6 2885.5,-26"/>
<text text-anchor="middle" x="2820.5" y="-12.5" font-family="Helvetica,sans-Serif" font-size="10.00">javafx.scene.control.Label</text>
</a>
</g>
</g>
<!-- Node1&#45;&gt;Node20 -->
<g id="edge19_Node000001_Node000020" class="edge">
<title>Node1&#45;&gt;Node20</title>
<g id="a_edge19_Node000001_Node000020"><a xlink:title=" ">
<path fill="none" stroke="#63b8ff" d="M2336.29,-76.85C2434.81,-69.03 2603.1,-53.88 2746.5,-32 2752.98,-31.01 2759.74,-29.84 2766.44,-28.59"/>
<polygon fill="#63b8ff" stroke="#63b8ff" points="2766.94,-32.06 2776.1,-26.72 2765.61,-25.18 2766.94,-32.06"/>
</a>
</g>
</g>
<!-- Node21 -->
<g id="Node000021" class="node">
<title>Node21</title>
<g id="a_Node000021"><a xlink:title=" ">
<polygon fill="#e0e0e0" stroke="#999999" points="3033.88,-26 2903.12,-26 2903.12,-6 3033.88,-6 3033.88,-26"/>
<text text-anchor="middle" x="2968.5" y="-12.5" font-family="Helvetica,sans-Serif" font-size="10.00">javafx.scene.image.Image</text>
</a>
</g>
</g>
<!-- Node1&#45;&gt;Node21 -->
<g id="edge20_Node000001_Node000021" class="edge">
<title>Node1&#45;&gt;Node21</title>
<g id="a_edge20_Node000001_Node000021"><a xlink:title=" ">
<path fill="none" stroke="#63b8ff" d="M2336.21,-79.58C2459.1,-73.83 2695.34,-59.99 2894.5,-32 2901.23,-31.05 2908.28,-29.87 2915.23,-28.6"/>
<polygon fill="#63b8ff" stroke="#63b8ff" points="2915.74,-32.06 2924.9,-26.74 2914.42,-25.19 2915.74,-32.06"/>
</a>
</g>
</g>
<!-- Node22 -->
<g id="Node000022" class="node">
<title>Node22</title>
<g id="a_Node000022"><a xlink:title=" ">
<polygon fill="#e0e0e0" stroke="#999999" points="3180.75,-26 3052.25,-26 3052.25,-6 3180.75,-6 3180.75,-26"/>
<text text-anchor="middle" x="3116.5" y="-12.5" font-family="Helvetica,sans-Serif" font-size="10.00">javafx.scene.layout.HBox</text>
</a>
</g>
</g>
<!-- Node1&#45;&gt;Node22 -->
<g id="edge21_Node000001_Node000022" class="edge">
<title>Node1&#45;&gt;Node22</title>
<g id="a_edge21_Node000001_Node000022"><a xlink:title=" ">
<path fill="none" stroke="#63b8ff" d="M2336.18,-81.32C2480.79,-77.59 2786.54,-66.04 3042.5,-32 3049.32,-31.09 3056.46,-29.93 3063.5,-28.64"/>
<polygon fill="#63b8ff" stroke="#63b8ff" points="3064.14,-32.09 3073.31,-26.77 3062.83,-25.21 3064.14,-32.09"/>
</a>
</g>
</g>
<!-- Node23 -->
<g id="Node000023" class="node">
<title>Node23</title>
<g id="a_Node000023"><a xlink:title=" ">
<polygon fill="#e0e0e0" stroke="#999999" points="3311.88,-26 3199.12,-26 3199.12,-6 3311.88,-6 3311.88,-26"/>
<text text-anchor="middle" x="3255.5" y="-12.5" font-family="Helvetica,sans-Serif" font-size="10.00">javafx.scene.text.Text</text>
</a>
</g>
</g>
<!-- Node1&#45;&gt;Node23 -->
<g id="edge22_Node000001_Node000023" class="edge">
<title>Node1&#45;&gt;Node23</title>
<g id="a_edge22_Node000001_Node000023"><a xlink:title=" ">
<path fill="none" stroke="#63b8ff" d="M2336.31,-83.17C2500.76,-82.47 2876.89,-75.71 3189.5,-32 3195.54,-31.16 3201.84,-30.04 3208.05,-28.79"/>
<polygon fill="#63b8ff" stroke="#63b8ff" points="3208.52,-32.27 3217.57,-26.76 3207.06,-25.42 3208.52,-32.27"/>
</a>
</g>
</g>
<!-- Node24 -->
<g id="Node000024" class="node">
<title>Node24</title>
<g id="a_Node000024"><a xlink:title=" ">
<polygon fill="#e0e0e0" stroke="#999999" points="3433,-26 3330,-26 3330,-6 3433,-6 3433,-26"/>
<text text-anchor="middle" x="3381.5" y="-12.5" font-family="Helvetica,sans-Serif" font-size="10.00">javafx.stage.Screen</text>
</a>
</g>
</g>
<!-- Node1&#45;&gt;Node24 -->
<g id="edge23_Node000001_Node000024" class="edge">
<title>Node1&#45;&gt;Node24</title>
<g id="a_edge23_Node000001_Node000024"><a xlink:title=" ">
<path fill="none" stroke="#63b8ff" d="M2336.36,-81.09C2553.64,-75.81 3131.06,-59.55 3320.5,-32 3325.88,-31.22 3331.48,-30.17 3337.01,-28.99"/>
<polygon fill="#63b8ff" stroke="#63b8ff" points="3337.73,-32.42 3346.69,-26.77 3336.16,-25.59 3337.73,-32.42"/>
</a>
</g>
</g>
<!-- Node25 -->
<g id="Node000025" class="node">
<title>Node25</title>
<g id="a_Node000025"><a xlink:title=" ">
<polygon fill="#e0e0e0" stroke="#999999" points="3548.38,-26 3450.62,-26 3450.62,-6 3548.38,-6 3548.38,-26"/>
<text text-anchor="middle" x="3499.5" y="-12.5" font-family="Helvetica,sans-Serif" font-size="10.00">javafx.stage.Stage</text>
</a>
</g>
</g>
<!-- Node1&#45;&gt;Node25 -->
<g id="edge24_Node000001_Node000025" class="edge">
<title>Node1&#45;&gt;Node25</title>
<g id="a_edge24_Node000001_Node000025"><a xlink:title=" ">
<path fill="none" stroke="#63b8ff" d="M2336.08,-81.75C2570.1,-77.87 3228.71,-64.33 3442.5,-32 3447.41,-31.26 3452.51,-30.26 3457.55,-29.12"/>
<polygon fill="#63b8ff" stroke="#63b8ff" points="3458.04,-32.61 3466.92,-26.83 3456.38,-25.81 3458.04,-32.61"/>
</a>
</g>
</g>
<!-- Node26 -->
<g id="Node000026" class="node">
<title>Node26</title>
<g id="a_Node000026"><a xlink:title=" ">
<polygon fill="#e0e0e0" stroke="#999999" points="3686.62,-26 3566.38,-26 3566.38,-6 3686.62,-6 3686.62,-26"/>
<text text-anchor="middle" x="3626.5" y="-12.5" font-family="Helvetica,sans-Serif" font-size="10.00">javafx.stage.StageStyle</text>
</a>
</g>
</g>
<!-- Node1&#45;&gt;Node26 -->
<g id="edge25_Node000001_Node000026" class="edge">
<title>Node1&#45;&gt;Node26</title>
<g id="a_edge25_Node000001_Node000026"><a xlink:title=" ">
<path fill="none" stroke="#63b8ff" d="M2335.97,-81.65C2584.94,-77.31 3319.79,-62.25 3557.5,-32 3564.04,-31.17 3570.89,-30.02 3577.61,-28.73"/>
<polygon fill="#63b8ff" stroke="#63b8ff" points="3578.17,-32.19 3587.26,-26.76 3576.76,-25.33 3578.17,-32.19"/>
</a>
</g>
</g>
<!-- Node27 -->
<g id="Node000027" class="node">
<title>Node27</title>
<g id="a_Node000027"><a xlink:title=" ">
<polygon fill="#e0e0e0" stroke="#999999" points="3802.38,-26 3704.62,-26 3704.62,-6 3802.38,-6 3802.38,-26"/>
<text text-anchor="middle" x="3753.5" y="-12.5" font-family="Helvetica,sans-Serif" font-size="10.00">javafx.util.Duration</text>
</a>
</g>
</g>
<!-- Node1&#45;&gt;Node27 -->
<g id="edge26_Node000001_Node000027" class="edge">
<title>Node1&#45;&gt;Node27</title>
<g id="a_edge26_Node000001_Node000027"><a xlink:title=" ">
<path fill="none" stroke="#63b8ff" d="M2336.24,-82.43C2602.95,-80.25 3430.52,-70.48 3695.5,-32 3700.56,-31.27 3705.81,-30.26 3711,-29.12"/>
<polygon fill="#63b8ff" stroke="#63b8ff" points="3711.77,-32.53 3720.68,-26.79 3710.13,-25.72 3711.77,-32.53"/>
</a>
</g>
</g>
<!-- Node28 -->
<g id="Node000028" class="node">
<title>Node28</title>
<g id="a_Node000028"><a xlink:title=" ">
<polygon fill="#e0e0e0" stroke="#999999" points="3941,-26 3820,-26 3820,-6 3941,-6 3941,-26"/>
<text text-anchor="middle" x="3880.5" y="-12.5" font-family="Helvetica,sans-Serif" font-size="10.00">lombok.extern.slf4j.Slf4j</text>
</a>
</g>
</g>
<!-- Node1&#45;&gt;Node28 -->
<g id="edge27_Node000001_Node000028" class="edge">
<title>Node1&#45;&gt;Node28</title>
<g id="a_edge27_Node000001_Node000028"><a xlink:title=" ">
<path fill="none" stroke="#63b8ff" d="M2335.96,-82.27C2616.19,-79.49 3522.09,-67.89 3811.5,-32 3818.05,-31.19 3824.89,-30.05 3831.62,-28.77"/>
<polygon fill="#63b8ff" stroke="#63b8ff" points="3832.17,-32.23 3841.27,-26.8 3830.77,-25.37 3832.17,-32.23"/>
</a>
</g>
</g>
<!-- Node29 -->
<g id="Node000029" class="node">
<title>Node29</title>
<g id="a_Node000029"><a xlink:title=" ">
<polygon fill="#e0e0e0" stroke="#999999" points="4176,-32 3959,-32 3959,0 4176,0 4176,-32"/>
<text text-anchor="start" x="3967" y="-18.5" font-family="Helvetica,sans-Serif" font-size="10.00">org.springframework.beans.factory.annotation.</text>
<text text-anchor="middle" x="4067.5" y="-6.5" font-family="Helvetica,sans-Serif" font-size="10.00">Autowired</text>
</a>
</g>
</g>
<!-- Node1&#45;&gt;Node29 -->
<g id="edge28_Node000001_Node000029" class="edge">
<title>Node1&#45;&gt;Node29</title>
<g id="a_edge28_Node000001_Node000029"><a xlink:title=" ">
<path fill="none" stroke="#63b8ff" d="M2336.14,-83.37C2581.89,-83.84 3323.22,-80.86 3947.52,-32.19"/>
<polygon fill="#63b8ff" stroke="#63b8ff" points="3947.34,-35.71 3957.04,-31.44 3946.8,-28.73 3947.34,-35.71"/>
</a>
</g>
</g>
<!-- Node30 -->
<g id="Node000030" class="node">
<title>Node30</title>
<g id="a_Node000030"><a xlink:title=" ">
<polygon fill="#e0e0e0" stroke="#999999" points="4280.75,-26 4194.25,-26 4194.25,-6 4280.75,-6 4280.75,-26"/>
<text text-anchor="middle" x="4237.5" y="-12.5" font-family="Helvetica,sans-Serif" font-size="10.00">java.util.Objects</text>
</a>
</g>
</g>
<!-- Node1&#45;&gt;Node30 -->
<g id="edge29_Node000001_Node000030" class="edge">
<title>Node1&#45;&gt;Node30</title>
<g id="a_edge29_Node000001_Node000030"><a xlink:title=" ">
<path fill="none" stroke="#63b8ff" d="M2336.28,-82.05C2683.69,-77.92 4001.43,-60.5 4185.5,-32 4189.87,-31.32 4194.38,-30.39 4198.85,-29.32"/>
<polygon fill="#63b8ff" stroke="#63b8ff" points="4199.5,-32.76 4208.26,-26.81 4197.7,-26 4199.5,-32.76"/>
</a>
</g>
</g>
</g>
</svg>
