<?xml version="1.0" encoding="UTF-8" standalone="no"?>
<!DOCTYPE svg PUBLIC "-//W3C//DTD SVG 1.1//EN"
 "http://www.w3.org/Graphics/SVG/1.1/DTD/svg11.dtd">
<!-- Generated by graphviz version 12.2.1 (20241206.2353)
 -->
<!-- Title: src/main/java/fr/softsf/sudokufx/viewmodel/FullMenuViewModel.java Pages: 1 -->
<svg width="1805pt" height="120pt"
 viewBox="0.00 0.00 1804.75 120.00" xmlns="http://www.w3.org/2000/svg" xmlns:xlink="http://www.w3.org/1999/xlink">
<g id="graph0" class="graph" transform="scale(1 1) rotate(0) translate(4 116)">
<title>src/main/java/fr/softsf/sudokufx/viewmodel/FullMenuViewModel.java</title>
<!-- Node1 -->
<g id="Node000001" class="node">
<title>Node1</title>
<g id="a_Node000001"><a xlink:title=" ">
<polygon fill="#999999" stroke="#666666" points="984.88,-112 833.88,-112 833.88,-68 984.88,-68 984.88,-112"/>
<text text-anchor="start" x="841.88" y="-98.5" font-family="Helvetica,sans-Serif" font-size="10.00">src/main/java/fr/softsf</text>
<text text-anchor="start" x="841.88" y="-86.5" font-family="Helvetica,sans-Serif" font-size="10.00">/sudokufx/viewmodel/FullMenu</text>
<text text-anchor="middle" x="909.38" y="-74.5" font-family="Helvetica,sans-Serif" font-size="10.00">ViewModel.java</text>
</a>
</g>
</g>
<!-- Node2 -->
<g id="Node000002" class="node">
<title>Node2</title>
<g id="a_Node000002"><a xlink:title=" ">
<polygon fill="#e0e0e0" stroke="#999999" points="166.75,-26 0,-26 0,-6 166.75,-6 166.75,-26"/>
<text text-anchor="middle" x="83.38" y="-12.5" font-family="Helvetica,sans-Serif" font-size="10.00">fr.softsf.sudokufx.dto.SoftwareDto</text>
</a>
</g>
</g>
<!-- Node1&#45;&gt;Node2 -->
<g id="edge1_Node000001_Node000002" class="edge">
<title>Node1&#45;&gt;Node2</title>
<g id="a_edge1_Node000001_Node000002"><a xlink:title=" ">
<path fill="none" stroke="#63b8ff" d="M833.62,-85.22C700.24,-78.1 414.9,-60.78 175.38,-32 166.47,-30.93 157.1,-29.62 147.89,-28.22"/>
<polygon fill="#63b8ff" stroke="#63b8ff" points="148.7,-24.81 138.28,-26.72 147.62,-31.72 148.7,-24.81"/>
</a>
</g>
</g>
<!-- Node3 -->
<g id="Node000003" class="node">
<title>Node3</title>
<g id="a_Node000003"><a xlink:title=" ">
<polygon fill="#e0e0e0" stroke="#999999" points="335.88,-32 184.88,-32 184.88,0 335.88,0 335.88,-32"/>
<text text-anchor="start" x="192.88" y="-18.5" font-family="Helvetica,sans-Serif" font-size="10.00">fr.softsf.sudokufx.utils.sudoku.</text>
<text text-anchor="middle" x="260.38" y="-6.5" font-family="Helvetica,sans-Serif" font-size="10.00">IGridMaster</text>
</a>
</g>
</g>
<!-- Node1&#45;&gt;Node3 -->
<g id="edge2_Node000001_Node000003" class="edge">
<title>Node1&#45;&gt;Node3</title>
<g id="a_edge2_Node000001_Node000003"><a xlink:title=" ">
<path fill="none" stroke="#63b8ff" d="M833.45,-83.12C727.16,-74.49 527.77,-56.86 347.62,-32.25"/>
<polygon fill="#63b8ff" stroke="#63b8ff" points="348.21,-28.79 337.83,-30.9 347.26,-35.73 348.21,-28.79"/>
</a>
</g>
</g>
<!-- Node4 -->
<g id="Node000004" class="node">
<title>Node4</title>
<g id="a_Node000004"><a xlink:title=" ">
<polygon fill="#e0e0e0" stroke="#999999" points="484.38,-32 354.38,-32 354.38,0 484.38,0 484.38,-32"/>
<text text-anchor="start" x="362.38" y="-18.5" font-family="Helvetica,sans-Serif" font-size="10.00">fr.softsf.sudokufx.service.</text>
<text text-anchor="middle" x="419.38" y="-6.5" font-family="Helvetica,sans-Serif" font-size="10.00">SoftwareService</text>
</a>
</g>
</g>
<!-- Node1&#45;&gt;Node4 -->
<g id="edge3_Node000001_Node000004" class="edge">
<title>Node1&#45;&gt;Node4</title>
<g id="a_edge3_Node000001_Node000004"><a xlink:title=" ">
<path fill="none" stroke="#63b8ff" d="M833.62,-80.09C752.52,-70.23 619.84,-53.13 495.9,-32.37"/>
<polygon fill="#63b8ff" stroke="#63b8ff" points="496.64,-28.94 486.2,-30.73 495.47,-35.85 496.64,-28.94"/>
</a>
</g>
</g>
<!-- Node5 -->
<g id="Node000005" class="node">
<title>Node5</title>
<g id="a_Node000005"><a xlink:title=" ">
<polygon fill="#e0e0e0" stroke="#999999" points="632.38,-32 502.38,-32 502.38,0 632.38,0 632.38,-32"/>
<text text-anchor="start" x="510.38" y="-18.5" font-family="Helvetica,sans-Serif" font-size="10.00">fr.softsf.sudokufx.service.</text>
<text text-anchor="middle" x="567.38" y="-6.5" font-family="Helvetica,sans-Serif" font-size="10.00">VersionService</text>
</a>
</g>
</g>
<!-- Node1&#45;&gt;Node5 -->
<g id="edge4_Node000001_Node000005" class="edge">
<title>Node1&#45;&gt;Node5</title>
<g id="a_edge4_Node000001_Node000005"><a xlink:title=" ">
<path fill="none" stroke="#63b8ff" d="M833.47,-73.02C777.02,-61.14 700.29,-44.98 643.73,-33.07"/>
<polygon fill="#63b8ff" stroke="#63b8ff" points="644.68,-29.7 634.18,-31.06 643.24,-36.55 644.68,-29.7"/>
</a>
</g>
</g>
<!-- Node6 -->
<g id="Node000006" class="node">
<title>Node6</title>
<g id="a_Node000006"><a xlink:title=" ">
<polygon fill="#e0e0e0" stroke="#999999" points="766.25,-26 650.5,-26 650.5,-6 766.25,-6 766.25,-26"/>
<text text-anchor="middle" x="708.38" y="-12.5" font-family="Helvetica,sans-Serif" font-size="10.00">javafx.beans.property.*</text>
</a>
</g>
</g>
<!-- Node1&#45;&gt;Node6 -->
<g id="edge5_Node000001_Node000006" class="edge">
<title>Node1&#45;&gt;Node6</title>
<g id="a_edge5_Node000001_Node000006"><a xlink:title=" ">
<path fill="none" stroke="#63b8ff" d="M849.61,-67.59C815.75,-55.46 774.46,-40.67 745.29,-30.22"/>
<polygon fill="#63b8ff" stroke="#63b8ff" points="746.77,-27.04 736.18,-26.96 744.41,-33.63 746.77,-27.04"/>
</a>
</g>
</g>
<!-- Node7 -->
<g id="Node000007" class="node">
<title>Node7</title>
<g id="a_Node000007"><a xlink:title=" ">
<polygon fill="#e0e0e0" stroke="#999999" points="898.88,-26 783.88,-26 783.88,-6 898.88,-6 898.88,-26"/>
<text text-anchor="middle" x="841.38" y="-12.5" font-family="Helvetica,sans-Serif" font-size="10.00">javafx.concurrent.Task</text>
</a>
</g>
</g>
<!-- Node1&#45;&gt;Node7 -->
<g id="edge6_Node000001_Node000007" class="edge">
<title>Node1&#45;&gt;Node7</title>
<g id="a_edge6_Node000001_Node000007"><a xlink:title=" ">
<path fill="none" stroke="#63b8ff" d="M889.34,-67.79C879.38,-57.24 867.49,-44.65 858.04,-34.64"/>
<polygon fill="#63b8ff" stroke="#63b8ff" points="860.62,-32.28 851.21,-27.41 855.53,-37.09 860.62,-32.28"/>
</a>
</g>
</g>
<!-- Node8 -->
<g id="Node000008" class="node">
<title>Node8</title>
<g id="a_Node000008"><a xlink:title=" ">
<polygon fill="#e0e0e0" stroke="#999999" points="1037.88,-26 916.88,-26 916.88,-6 1037.88,-6 1037.88,-26"/>
<text text-anchor="middle" x="977.38" y="-12.5" font-family="Helvetica,sans-Serif" font-size="10.00">lombok.extern.slf4j.Slf4j</text>
</a>
</g>
</g>
<!-- Node1&#45;&gt;Node8 -->
<g id="edge7_Node000001_Node000008" class="edge">
<title>Node1&#45;&gt;Node8</title>
<g id="a_edge7_Node000001_Node000008"><a xlink:title=" ">
<path fill="none" stroke="#63b8ff" d="M929.41,-67.79C939.37,-57.24 951.26,-44.65 960.71,-34.64"/>
<polygon fill="#63b8ff" stroke="#63b8ff" points="963.22,-37.09 967.54,-27.41 958.13,-32.28 963.22,-37.09"/>
</a>
</g>
</g>
<!-- Node9 -->
<g id="Node000009" class="node">
<title>Node9</title>
<g id="a_Node000009"><a xlink:title=" ">
<polygon fill="#e0e0e0" stroke="#999999" points="1272.88,-32 1055.88,-32 1055.88,0 1272.88,0 1272.88,-32"/>
<text text-anchor="start" x="1063.88" y="-18.5" font-family="Helvetica,sans-Serif" font-size="10.00">org.springframework.beans.factory.annotation.</text>
<text text-anchor="middle" x="1164.38" y="-6.5" font-family="Helvetica,sans-Serif" font-size="10.00">Autowired</text>
</a>
</g>
</g>
<!-- Node1&#45;&gt;Node9 -->
<g id="edge8_Node000001_Node000009" class="edge">
<title>Node1&#45;&gt;Node9</title>
<g id="a_edge8_Node000001_Node000009"><a xlink:title=" ">
<path fill="none" stroke="#63b8ff" d="M985.19,-67.59C1021.23,-57.42 1063.89,-45.37 1098.54,-35.59"/>
<polygon fill="#63b8ff" stroke="#63b8ff" points="1099.37,-38.99 1108.04,-32.91 1097.46,-32.26 1099.37,-38.99"/>
</a>
</g>
</g>
<!-- Node10 -->
<g id="Node000010" class="node">
<title>Node10</title>
<g id="a_Node000010"><a xlink:title=" ">
<polygon fill="#e0e0e0" stroke="#999999" points="1447.5,-32 1291.25,-32 1291.25,0 1447.5,0 1447.5,-32"/>
<text text-anchor="start" x="1299.25" y="-18.5" font-family="Helvetica,sans-Serif" font-size="10.00">org.springframework.stereotype.</text>
<text text-anchor="middle" x="1369.38" y="-6.5" font-family="Helvetica,sans-Serif" font-size="10.00">Component</text>
</a>
</g>
</g>
<!-- Node1&#45;&gt;Node10 -->
<g id="edge9_Node000001_Node000010" class="edge">
<title>Node1&#45;&gt;Node10</title>
<g id="a_edge9_Node000001_Node000010"><a xlink:title=" ">
<path fill="none" stroke="#63b8ff" d="M985.17,-77.85C1058.07,-67.03 1171.71,-49.9 1280,-32.37"/>
<polygon fill="#63b8ff" stroke="#63b8ff" points="1280.33,-35.86 1289.64,-30.81 1279.21,-28.95 1280.33,-35.86"/>
</a>
</g>
</g>
<!-- Node11 -->
<g id="Node000011" class="node">
<title>Node11</title>
<g id="a_Node000011"><a xlink:title=" ">
<polygon fill="#e0e0e0" stroke="#999999" points="1590.75,-26 1466,-26 1466,-6 1590.75,-6 1590.75,-26"/>
<text text-anchor="middle" x="1528.38" y="-12.5" font-family="Helvetica,sans-Serif" font-size="10.00">java.time.LocalDateTime</text>
</a>
</g>
</g>
<!-- Node1&#45;&gt;Node11 -->
<g id="edge10_Node000001_Node000011" class="edge">
<title>Node1&#45;&gt;Node11</title>
<g id="a_edge10_Node000001_Node000011"><a xlink:title=" ">
<path fill="none" stroke="#63b8ff" d="M985.34,-83.54C1091.27,-75.36 1289.16,-58.06 1456.38,-32 1462.68,-31.02 1469.27,-29.85 1475.78,-28.6"/>
<polygon fill="#63b8ff" stroke="#63b8ff" points="1476.02,-32.12 1485.14,-26.74 1474.65,-25.26 1476.02,-32.12"/>
</a>
</g>
</g>
<!-- Node12 -->
<g id="Node000012" class="node">
<title>Node12</title>
<g id="a_Node000012"><a xlink:title=" ">
<polygon fill="#e0e0e0" stroke="#999999" points="1690,-26 1608.75,-26 1608.75,-6 1690,-6 1690,-26"/>
<text text-anchor="middle" x="1649.38" y="-12.5" font-family="Helvetica,sans-Serif" font-size="10.00">java.util.Arrays</text>
</a>
</g>
</g>
<!-- Node1&#45;&gt;Node12 -->
<g id="edge11_Node000001_Node000012" class="edge">
<title>Node1&#45;&gt;Node12</title>
<g id="a_edge11_Node000001_Node000012"><a xlink:title=" ">
<path fill="none" stroke="#63b8ff" d="M985.37,-87.9C1113.21,-84.89 1378.96,-73.69 1599.38,-32 1603.03,-31.31 1606.79,-30.46 1610.54,-29.51"/>
<polygon fill="#63b8ff" stroke="#63b8ff" points="1611.43,-32.89 1620.14,-26.86 1609.57,-26.14 1611.43,-32.89"/>
</a>
</g>
</g>
<!-- Node13 -->
<g id="Node000013" class="node">
<title>Node13</title>
<g id="a_Node000013"><a xlink:title=" ">
<polygon fill="#e0e0e0" stroke="#999999" points="1796.75,-26 1708,-26 1708,-6 1796.75,-6 1796.75,-26"/>
<text text-anchor="middle" x="1752.38" y="-12.5" font-family="Helvetica,sans-Serif" font-size="10.00">java.util.Optional</text>
</a>
</g>
</g>
<!-- Node1&#45;&gt;Node13 -->
<g id="edge12_Node000001_Node000013" class="edge">
<title>Node1&#45;&gt;Node13</title>
<g id="a_edge12_Node000001_Node000013"><a xlink:title=" ">
<path fill="none" stroke="#63b8ff" d="M985.16,-88.65C1126.62,-86.86 1440.02,-77.57 1699.38,-32 1703.48,-31.28 1707.72,-30.37 1711.93,-29.36"/>
<polygon fill="#63b8ff" stroke="#63b8ff" points="1712.65,-32.78 1721.44,-26.87 1710.88,-26.01 1712.65,-32.78"/>
</a>
</g>
</g>
</g>
</svg>
