<?xml version="1.0" encoding="UTF-8" standalone="no"?>
<!DOCTYPE svg PUBLIC "-//W3C//DTD SVG 1.1//EN"
 "http://www.w3.org/Graphics/SVG/1.1/DTD/svg11.dtd">
<!-- Generated by graphviz version 12.2.1 (20241206.2353)
 -->
<!-- Title: src/main/java/fr/softsf/sudokufx/model/GameLevel.java Pages: 1 -->
<svg width="705pt" height="108pt"
 viewBox="0.00 0.00 704.75 108.00" xmlns="http://www.w3.org/2000/svg" xmlns:xlink="http://www.w3.org/1999/xlink">
<g id="graph0" class="graph" transform="scale(1 1) rotate(0) translate(4 104)">
<title>src/main/java/fr/softsf/sudokufx/model/GameLevel.java</title>
<!-- Node1 -->
<g id="Node000001" class="node">
<title>Node1</title>
<g id="a_Node000001"><a xlink:title=" ">
<polygon fill="#999999" stroke="#666666" points="464.38,-100 302.88,-100 302.88,-68 464.38,-68 464.38,-100"/>
<text text-anchor="start" x="310.88" y="-86.5" font-family="Helvetica,sans-Serif" font-size="10.00">src/main/java/fr/softsf</text>
<text text-anchor="middle" x="383.62" y="-74.5" font-family="Helvetica,sans-Serif" font-size="10.00">/sudokufx/model/GameLevel.java</text>
</a>
</g>
</g>
<!-- Node2 -->
<g id="Node000002" class="node">
<title>Node2</title>
<g id="a_Node000002"><a xlink:title=" ">
<polygon fill="#e0e0e0" stroke="#999999" points="105.25,-26 0,-26 0,-6 105.25,-6 105.25,-26"/>
<text text-anchor="middle" x="52.62" y="-12.5" font-family="Helvetica,sans-Serif" font-size="10.00">jakarta.persistence.*</text>
</a>
</g>
</g>
<!-- Node1&#45;&gt;Node2 -->
<g id="edge1_Node000001_Node000002" class="edge">
<title>Node1&#45;&gt;Node2</title>
<g id="a_edge1_Node000001_Node000002"><a xlink:title=" ">
<path fill="none" stroke="#63b8ff" d="M302.49,-68.71C248.99,-59.02 177.47,-45.55 114.62,-32 110.3,-31.07 105.82,-30.06 101.34,-29.03"/>
<polygon fill="#63b8ff" stroke="#63b8ff" points="102.27,-25.65 91.73,-26.77 100.67,-32.47 102.27,-25.65"/>
</a>
</g>
</g>
<!-- Node3 -->
<g id="Node000003" class="node">
<title>Node3</title>
<g id="a_Node000003"><a xlink:title=" ">
<polygon fill="#e0e0e0" stroke="#999999" points="285.75,-26 123.5,-26 123.5,-6 285.75,-6 285.75,-26"/>
<text text-anchor="middle" x="204.62" y="-12.5" font-family="Helvetica,sans-Serif" font-size="10.00">jakarta.validation.constraints.Max</text>
</a>
</g>
</g>
<!-- Node1&#45;&gt;Node3 -->
<g id="edge2_Node000001_Node000003" class="edge">
<title>Node1&#45;&gt;Node3</title>
<g id="a_edge2_Node000001_Node000003"><a xlink:title=" ">
<path fill="none" stroke="#63b8ff" d="M341.66,-67.53C311.05,-56.24 270,-41.11 240.83,-30.35"/>
<polygon fill="#63b8ff" stroke="#63b8ff" points="242.3,-27.16 231.7,-26.98 239.87,-33.73 242.3,-27.16"/>
</a>
</g>
</g>
<!-- Node4 -->
<g id="Node000004" class="node">
<title>Node4</title>
<g id="a_Node000004"><a xlink:title=" ">
<polygon fill="#e0e0e0" stroke="#999999" points="463.25,-26 304,-26 304,-6 463.25,-6 463.25,-26"/>
<text text-anchor="middle" x="383.62" y="-12.5" font-family="Helvetica,sans-Serif" font-size="10.00">jakarta.validation.constraints.Min</text>
</a>
</g>
</g>
<!-- Node1&#45;&gt;Node4 -->
<g id="edge3_Node000001_Node000004" class="edge">
<title>Node1&#45;&gt;Node4</title>
<g id="a_edge3_Node000001_Node000004"><a xlink:title=" ">
<path fill="none" stroke="#63b8ff" d="M383.62,-67.69C383.62,-58.8 383.62,-47.46 383.62,-37.77"/>
<polygon fill="#63b8ff" stroke="#63b8ff" points="387.13,-37.83 383.63,-27.83 380.13,-37.83 387.13,-37.83"/>
</a>
</g>
</g>
<!-- Node5 -->
<g id="Node000005" class="node">
<title>Node5</title>
<g id="a_Node000005"><a xlink:title=" ">
<polygon fill="#e0e0e0" stroke="#999999" points="624.38,-32 480.88,-32 480.88,0 624.38,0 624.38,-32"/>
<text text-anchor="start" x="488.88" y="-18.5" font-family="Helvetica,sans-Serif" font-size="10.00">jakarta.validation.constraints.</text>
<text text-anchor="middle" x="552.62" y="-6.5" font-family="Helvetica,sans-Serif" font-size="10.00">NotNull</text>
</a>
</g>
</g>
<!-- Node1&#45;&gt;Node5 -->
<g id="edge4_Node000001_Node000005" class="edge">
<title>Node1&#45;&gt;Node5</title>
<g id="a_edge4_Node000001_Node000005"><a xlink:title=" ">
<path fill="none" stroke="#63b8ff" d="M423.25,-67.53C446.89,-58.29 477.15,-46.48 502.45,-36.6"/>
<polygon fill="#63b8ff" stroke="#63b8ff" points="503.51,-39.94 511.55,-33.04 500.96,-33.42 503.51,-39.94"/>
</a>
</g>
</g>
<!-- Node6 -->
<g id="Node000006" class="node">
<title>Node6</title>
<g id="a_Node000006"><a xlink:title=" ">
<polygon fill="#e0e0e0" stroke="#999999" points="696.75,-26 642.5,-26 642.5,-6 696.75,-6 696.75,-26"/>
<text text-anchor="middle" x="669.62" y="-12.5" font-family="Helvetica,sans-Serif" font-size="10.00">lombok.*</text>
</a>
</g>
</g>
<!-- Node1&#45;&gt;Node6 -->
<g id="edge5_Node000001_Node000006" class="edge">
<title>Node1&#45;&gt;Node6</title>
<g id="a_edge5_Node000001_Node000006"><a xlink:title=" ">
<path fill="none" stroke="#63b8ff" d="M464.84,-70.53C514.24,-61.94 578.26,-49.01 633.62,-32 635.2,-31.52 636.81,-30.99 638.42,-30.43"/>
<polygon fill="#63b8ff" stroke="#63b8ff" points="639.42,-33.79 647.52,-26.96 636.93,-27.25 639.42,-33.79"/>
</a>
</g>
</g>
</g>
</svg>
