<?xml version="1.0" encoding="UTF-8" standalone="no"?>
<!DOCTYPE svg PUBLIC "-//W3C//DTD SVG 1.1//EN"
 "http://www.w3.org/Graphics/SVG/1.1/DTD/svg11.dtd">
<!-- Generated by graphviz version 12.2.1 (20241206.2353)
 -->
<!-- Title: src/main/java/fr/softsf/sudokufx/repository/GameRepository.java Pages: 1 -->
<svg width="542pt" height="108pt"
 viewBox="0.00 0.00 541.62 108.00" xmlns="http://www.w3.org/2000/svg" xmlns:xlink="http://www.w3.org/1999/xlink">
<g id="graph0" class="graph" transform="scale(1 1) rotate(0) translate(4 104)">
<title>src/main/java/fr/softsf/sudokufx/repository/GameRepository.java</title>
<!-- Node1 -->
<g id="Node000001" class="node">
<title>Node1</title>
<g id="a_Node000001"><a xlink:title=" ">
<polygon fill="#999999" stroke="#666666" points="365.12,-100 163.88,-100 163.88,-68 365.12,-68 365.12,-100"/>
<text text-anchor="start" x="171.88" y="-86.5" font-family="Helvetica,sans-Serif" font-size="10.00">src/main/java/fr/softsf</text>
<text text-anchor="middle" x="264.5" y="-74.5" font-family="Helvetica,sans-Serif" font-size="10.00">/sudokufx/repository/GameRepository.java</text>
</a>
</g>
</g>
<!-- Node2 -->
<g id="Node000002" class="node">
<title>Node2</title>
<g id="a_Node000002"><a xlink:title=" ">
<polygon fill="#e0e0e0" stroke="#999999" points="151,-26 0,-26 0,-6 151,-6 151,-26"/>
<text text-anchor="middle" x="75.5" y="-12.5" font-family="Helvetica,sans-Serif" font-size="10.00">fr.softsf.sudokufx.model.Game</text>
</a>
</g>
</g>
<!-- Node1&#45;&gt;Node2 -->
<g id="edge1_Node000001_Node000002" class="edge">
<title>Node1&#45;&gt;Node2</title>
<g id="a_edge1_Node000001_Node000002"><a xlink:title=" ">
<path fill="none" stroke="#63b8ff" d="M220.19,-67.53C187.73,-56.19 144.15,-40.97 113.33,-30.21"/>
<polygon fill="#63b8ff" stroke="#63b8ff" points="114.61,-26.95 104.02,-26.96 112.31,-33.56 114.61,-26.95"/>
</a>
</g>
</g>
<!-- Node3 -->
<g id="Node000003" class="node">
<title>Node3</title>
<g id="a_Node000003"><a xlink:title=" ">
<polygon fill="#e0e0e0" stroke="#999999" points="359.5,-32 169.5,-32 169.5,0 359.5,0 359.5,-32"/>
<text text-anchor="start" x="177.5" y="-18.5" font-family="Helvetica,sans-Serif" font-size="10.00">org.springframework.data.jpa.repository.</text>
<text text-anchor="middle" x="264.5" y="-6.5" font-family="Helvetica,sans-Serif" font-size="10.00">JpaRepository</text>
</a>
</g>
</g>
<!-- Node1&#45;&gt;Node3 -->
<g id="edge2_Node000001_Node000003" class="edge">
<title>Node1&#45;&gt;Node3</title>
<g id="a_edge2_Node000001_Node000003"><a xlink:title=" ">
<path fill="none" stroke="#63b8ff" d="M264.5,-67.69C264.5,-60.53 264.5,-51.79 264.5,-43.59"/>
<polygon fill="#63b8ff" stroke="#63b8ff" points="268,-43.74 264.5,-33.74 261,-43.74 268,-43.74"/>
</a>
</g>
</g>
<!-- Node4 -->
<g id="Node000004" class="node">
<title>Node4</title>
<g id="a_Node000004"><a xlink:title=" ">
<polygon fill="#e0e0e0" stroke="#999999" points="533.62,-32 377.38,-32 377.38,0 533.62,0 533.62,-32"/>
<text text-anchor="start" x="385.38" y="-18.5" font-family="Helvetica,sans-Serif" font-size="10.00">org.springframework.stereotype.</text>
<text text-anchor="middle" x="455.5" y="-6.5" font-family="Helvetica,sans-Serif" font-size="10.00">Repository</text>
</a>
</g>
</g>
<!-- Node1&#45;&gt;Node4 -->
<g id="edge3_Node000001_Node000004" class="edge">
<title>Node1&#45;&gt;Node4</title>
<g id="a_edge3_Node000001_Node000004"><a xlink:title=" ">
<path fill="none" stroke="#63b8ff" d="M309.28,-67.53C336.36,-58.17 371.11,-46.16 399.94,-36.2"/>
<polygon fill="#63b8ff" stroke="#63b8ff" points="400.93,-39.56 409.24,-32.99 398.64,-32.94 400.93,-39.56"/>
</a>
</g>
</g>
</g>
</svg>
