<?xml version="1.0" encoding="UTF-8" standalone="no"?>
<!DOCTYPE svg PUBLIC "-//W3C//DTD SVG 1.1//EN"
 "http://www.w3.org/Graphics/SVG/1.1/DTD/svg11.dtd">
<!-- Generated by graphviz version 12.2.1 (20241206.2353)
 -->
<!-- Title: src/main/java/fr/softsf/sudokufx/model/Game.java Pages: 1 -->
<svg width="1077pt" height="108pt"
 viewBox="0.00 0.00 1077.00 108.00" xmlns="http://www.w3.org/2000/svg" xmlns:xlink="http://www.w3.org/1999/xlink">
<g id="graph0" class="graph" transform="scale(1 1) rotate(0) translate(4 104)">
<title>src/main/java/fr/softsf/sudokufx/model/Game.java</title>
<!-- Node1 -->
<g id="Node000001" class="node">
<title>Node1</title>
<g id="a_Node000001"><a xlink:title=" ">
<polygon fill="#999999" stroke="#666666" points="562.75,-100 424.5,-100 424.5,-68 562.75,-68 562.75,-100"/>
<text text-anchor="start" x="432.5" y="-86.5" font-family="Helvetica,sans-Serif" font-size="10.00">src/main/java/fr/softsf</text>
<text text-anchor="middle" x="493.62" y="-74.5" font-family="Helvetica,sans-Serif" font-size="10.00">/sudokufx/model/Game.java</text>
</a>
</g>
</g>
<!-- Node2 -->
<g id="Node000002" class="node">
<title>Node2</title>
<g id="a_Node000002"><a xlink:title=" ">
<polygon fill="#e0e0e0" stroke="#999999" points="105.25,-26 0,-26 0,-6 105.25,-6 105.25,-26"/>
<text text-anchor="middle" x="52.62" y="-12.5" font-family="Helvetica,sans-Serif" font-size="10.00">jakarta.persistence.*</text>
</a>
</g>
</g>
<!-- Node1&#45;&gt;Node2 -->
<g id="edge1_Node000001_Node000002" class="edge">
<title>Node1&#45;&gt;Node2</title>
<g id="a_edge1_Node000001_Node000002"><a xlink:title=" ">
<path fill="none" stroke="#63b8ff" d="M424.27,-75.96C347.82,-67.68 221.37,-52.42 113.62,-32 108.98,-31.12 104.17,-30.11 99.37,-29.04"/>
<polygon fill="#63b8ff" stroke="#63b8ff" points="100.3,-25.66 89.76,-26.8 98.71,-32.48 100.3,-25.66"/>
</a>
</g>
</g>
<!-- Node3 -->
<g id="Node000003" class="node">
<title>Node3</title>
<g id="a_Node000003"><a xlink:title=" ">
<polygon fill="#e0e0e0" stroke="#999999" points="266.38,-32 122.88,-32 122.88,0 266.38,0 266.38,-32"/>
<text text-anchor="start" x="130.88" y="-18.5" font-family="Helvetica,sans-Serif" font-size="10.00">jakarta.validation.constraints.</text>
<text text-anchor="middle" x="194.62" y="-6.5" font-family="Helvetica,sans-Serif" font-size="10.00">NotNull</text>
</a>
</g>
</g>
<!-- Node1&#45;&gt;Node3 -->
<g id="edge2_Node000001_Node000003" class="edge">
<title>Node1&#45;&gt;Node3</title>
<g id="a_edge2_Node000001_Node000003"><a xlink:title=" ">
<path fill="none" stroke="#63b8ff" d="M424.28,-67.69C379.88,-57.89 322.09,-45.14 275.59,-34.87"/>
<polygon fill="#63b8ff" stroke="#63b8ff" points="276.63,-31.52 266.11,-32.78 275.12,-38.35 276.63,-31.52"/>
</a>
</g>
</g>
<!-- Node4 -->
<g id="Node000004" class="node">
<title>Node4</title>
<g id="a_Node000004"><a xlink:title=" ">
<polygon fill="#e0e0e0" stroke="#999999" points="338.75,-26 284.5,-26 284.5,-6 338.75,-6 338.75,-26"/>
<text text-anchor="middle" x="311.62" y="-12.5" font-family="Helvetica,sans-Serif" font-size="10.00">lombok.*</text>
</a>
</g>
</g>
<!-- Node1&#45;&gt;Node4 -->
<g id="edge3_Node000001_Node000004" class="edge">
<title>Node1&#45;&gt;Node4</title>
<g id="a_edge3_Node000001_Node000004"><a xlink:title=" ">
<path fill="none" stroke="#63b8ff" d="M447.34,-67.61C418.51,-57.83 380.73,-44.66 347.62,-32 346.49,-31.56 345.33,-31.12 344.16,-30.66"/>
<polygon fill="#63b8ff" stroke="#63b8ff" points="345.61,-27.47 335.03,-26.97 343,-33.96 345.61,-27.47"/>
</a>
</g>
</g>
<!-- Node5 -->
<g id="Node000005" class="node">
<title>Node5</title>
<g id="a_Node000005"><a xlink:title=" ">
<polygon fill="#e0e0e0" stroke="#999999" points="484.88,-32 356.38,-32 356.38,0 484.88,0 484.88,-32"/>
<text text-anchor="start" x="364.38" y="-18.5" font-family="Helvetica,sans-Serif" font-size="10.00">org.hibernate.annotations.</text>
<text text-anchor="middle" x="420.62" y="-6.5" font-family="Helvetica,sans-Serif" font-size="10.00">CascadeType</text>
</a>
</g>
</g>
<!-- Node1&#45;&gt;Node5 -->
<g id="edge4_Node000001_Node000005" class="edge">
<title>Node1&#45;&gt;Node5</title>
<g id="a_edge4_Node000001_Node000005"><a xlink:title=" ">
<path fill="none" stroke="#63b8ff" d="M476.69,-67.69C467.64,-59.5 456.3,-49.25 446.19,-40.12"/>
<polygon fill="#63b8ff" stroke="#63b8ff" points="448.6,-37.58 438.84,-33.47 443.91,-42.77 448.6,-37.58"/>
</a>
</g>
</g>
<!-- Node6 -->
<g id="Node000006" class="node">
<title>Node6</title>
<g id="a_Node000006"><a xlink:title=" ">
<polygon fill="#e0e0e0" stroke="#999999" points="631.88,-32 503.38,-32 503.38,0 631.88,0 631.88,-32"/>
<text text-anchor="start" x="511.38" y="-18.5" font-family="Helvetica,sans-Serif" font-size="10.00">org.hibernate.annotations.</text>
<text text-anchor="middle" x="567.62" y="-6.5" font-family="Helvetica,sans-Serif" font-size="10.00">Cascade</text>
</a>
</g>
</g>
<!-- Node1&#45;&gt;Node6 -->
<g id="edge5_Node000001_Node000006" class="edge">
<title>Node1&#45;&gt;Node6</title>
<g id="a_edge5_Node000001_Node000006"><a xlink:title=" ">
<path fill="none" stroke="#63b8ff" d="M510.79,-67.69C519.97,-59.5 531.46,-49.25 541.71,-40.12"/>
<polygon fill="#63b8ff" stroke="#63b8ff" points="544.04,-42.73 549.17,-33.46 539.38,-37.5 544.04,-42.73"/>
</a>
</g>
</g>
<!-- Node7 -->
<g id="Node000007" class="node">
<title>Node7</title>
<g id="a_Node000007"><a xlink:title=" ">
<polygon fill="#e0e0e0" stroke="#999999" points="778.88,-32 650.38,-32 650.38,0 778.88,0 778.88,-32"/>
<text text-anchor="start" x="658.38" y="-18.5" font-family="Helvetica,sans-Serif" font-size="10.00">org.hibernate.annotations.</text>
<text text-anchor="middle" x="714.62" y="-6.5" font-family="Helvetica,sans-Serif" font-size="10.00">Fetch</text>
</a>
</g>
</g>
<!-- Node1&#45;&gt;Node7 -->
<g id="edge6_Node000001_Node000007" class="edge">
<title>Node1&#45;&gt;Node7</title>
<g id="a_edge6_Node000001_Node000007"><a xlink:title=" ">
<path fill="none" stroke="#63b8ff" d="M545.44,-67.53C577.33,-58 618.4,-45.74 652.09,-35.67"/>
<polygon fill="#63b8ff" stroke="#63b8ff" points="652.72,-39.14 661.3,-32.92 650.72,-32.43 652.72,-39.14"/>
</a>
</g>
</g>
<!-- Node8 -->
<g id="Node000008" class="node">
<title>Node8</title>
<g id="a_Node000008"><a xlink:title=" ">
<polygon fill="#e0e0e0" stroke="#999999" points="925.88,-32 797.38,-32 797.38,0 925.88,0 925.88,-32"/>
<text text-anchor="start" x="805.38" y="-18.5" font-family="Helvetica,sans-Serif" font-size="10.00">org.hibernate.annotations.</text>
<text text-anchor="middle" x="861.62" y="-6.5" font-family="Helvetica,sans-Serif" font-size="10.00">FetchMode</text>
</a>
</g>
</g>
<!-- Node1&#45;&gt;Node8 -->
<g id="edge7_Node000001_Node000008" class="edge">
<title>Node1&#45;&gt;Node8</title>
<g id="a_edge7_Node000001_Node000008"><a xlink:title=" ">
<path fill="none" stroke="#63b8ff" d="M563.23,-71.5C620.3,-61.93 703.48,-47.7 785.97,-32.28"/>
<polygon fill="#63b8ff" stroke="#63b8ff" points="786.4,-35.76 795.58,-30.48 785.11,-28.88 786.4,-35.76"/>
</a>
</g>
</g>
<!-- Node9 -->
<g id="Node000009" class="node">
<title>Node9</title>
<g id="a_Node000009"><a xlink:title=" ">
<polygon fill="#e0e0e0" stroke="#999999" points="1069,-26 944.25,-26 944.25,-6 1069,-6 1069,-26"/>
<text text-anchor="middle" x="1006.62" y="-12.5" font-family="Helvetica,sans-Serif" font-size="10.00">java.time.LocalDateTime</text>
</a>
</g>
</g>
<!-- Node1&#45;&gt;Node9 -->
<g id="edge8_Node000001_Node000009" class="edge">
<title>Node1&#45;&gt;Node9</title>
<g id="a_edge8_Node000001_Node000009"><a xlink:title=" ">
<path fill="none" stroke="#63b8ff" d="M563.02,-76.93C650.12,-68.86 803.95,-53.12 934.62,-32 940.69,-31.02 947.02,-29.88 953.3,-28.67"/>
<polygon fill="#63b8ff" stroke="#63b8ff" points="953.87,-32.12 963,-26.74 952.51,-25.26 953.87,-32.12"/>
</a>
</g>
</g>
</g>
</svg>
