<?xml version="1.0" encoding="UTF-8" standalone="no"?>
<!DOCTYPE svg PUBLIC "-//W3C//DTD SVG 1.1//EN"
 "http://www.w3.org/Graphics/SVG/1.1/DTD/svg11.dtd">
<!-- Generated by graphviz version 12.2.1 (20241206.2353)
 -->
<!-- Title: src/main/java/fr/softsf/sudokufx/configuration/database/GenerateSecret.java Pages: 1 -->
<svg width="963pt" height="120pt"
 viewBox="0.00 0.00 962.88 120.00" xmlns="http://www.w3.org/2000/svg" xmlns:xlink="http://www.w3.org/1999/xlink">
<g id="graph0" class="graph" transform="scale(1 1) rotate(0) translate(4 116)">
<title>src/main/java/fr/softsf/sudokufx/configuration/database/GenerateSecret.java</title>
<!-- Node1 -->
<g id="Node000001" class="node">
<title>Node1</title>
<g id="a_Node000001"><a xlink:title=" ">
<polygon fill="#999999" stroke="#666666" points="603.12,-112 452.12,-112 452.12,-68 603.12,-68 603.12,-112"/>
<text text-anchor="start" x="460.12" y="-98.5" font-family="Helvetica,sans-Serif" font-size="10.00">src/main/java/fr/softsf</text>
<text text-anchor="start" x="460.12" y="-86.5" font-family="Helvetica,sans-Serif" font-size="10.00">/sudokufx/configuration</text>
<text text-anchor="middle" x="527.62" y="-74.5" font-family="Helvetica,sans-Serif" font-size="10.00">/database/GenerateSecret.java</text>
</a>
</g>
</g>
<!-- Node2 -->
<g id="Node000002" class="node">
<title>Node2</title>
<g id="a_Node000002"><a xlink:title=" ">
<polygon fill="#e0e0e0" stroke="#999999" points="195.25,-32 0,-32 0,0 195.25,0 195.25,-32"/>
<text text-anchor="start" x="8" y="-18.5" font-family="Helvetica,sans-Serif" font-size="10.00">fr.softsf.sudokufx.annotations.</text>
<text text-anchor="middle" x="97.62" y="-6.5" font-family="Helvetica,sans-Serif" font-size="10.00">ExcludedFromCoverageReportGenerated</text>
</a>
</g>
</g>
<!-- Node1&#45;&gt;Node2 -->
<g id="edge1_Node000001_Node000002" class="edge">
<title>Node1&#45;&gt;Node2</title>
<g id="a_edge1_Node000001_Node000002"><a xlink:title=" ">
<path fill="none" stroke="#63b8ff" d="M451.74,-76.29C382.11,-64.63 278.37,-47.26 201.14,-34.33"/>
<polygon fill="#63b8ff" stroke="#63b8ff" points="201.88,-30.91 191.44,-32.71 200.73,-37.81 201.88,-30.91"/>
</a>
</g>
</g>
<!-- Node3 -->
<g id="Node000003" class="node">
<title>Node3</title>
<g id="a_Node000003"><a xlink:title=" ">
<polygon fill="#e0e0e0" stroke="#999999" points="343.62,-26 213.62,-26 213.62,-6 343.62,-6 343.62,-26"/>
<text text-anchor="middle" x="278.62" y="-12.5" font-family="Helvetica,sans-Serif" font-size="10.00">org.passay.CharacterData</text>
</a>
</g>
</g>
<!-- Node1&#45;&gt;Node3 -->
<g id="edge2_Node000001_Node000003" class="edge">
<title>Node1&#45;&gt;Node3</title>
<g id="a_edge2_Node000001_Node000003"><a xlink:title=" ">
<path fill="none" stroke="#63b8ff" d="M453.59,-67.59C410.72,-55.2 358.24,-40.02 322,-29.54"/>
<polygon fill="#63b8ff" stroke="#63b8ff" points="323.33,-26.28 312.75,-26.87 321.39,-33.01 323.33,-26.28"/>
</a>
</g>
</g>
<!-- Node4 -->
<g id="Node000004" class="node">
<title>Node4</title>
<g id="a_Node000004"><a xlink:title=" ">
<polygon fill="#e0e0e0" stroke="#999999" points="431.62,-26 361.62,-26 361.62,-6 431.62,-6 431.62,-26"/>
<text text-anchor="middle" x="396.62" y="-12.5" font-family="Helvetica,sans-Serif" font-size="10.00">org.passay.*</text>
</a>
</g>
</g>
<!-- Node1&#45;&gt;Node4 -->
<g id="edge3_Node000001_Node000004" class="edge">
<title>Node1&#45;&gt;Node4</title>
<g id="a_edge3_Node000001_Node000004"><a xlink:title=" ">
<path fill="none" stroke="#63b8ff" d="M488.68,-67.59C467.77,-56.1 442.53,-42.23 423.77,-31.92"/>
<polygon fill="#63b8ff" stroke="#63b8ff" points="425.59,-28.93 415.14,-27.18 422.22,-35.06 425.59,-28.93"/>
</a>
</g>
</g>
<!-- Node5 -->
<g id="Node000005" class="node">
<title>Node5</title>
<g id="a_Node000005"><a xlink:title=" ">
<polygon fill="#e0e0e0" stroke="#999999" points="605.75,-32 449.5,-32 449.5,0 605.75,0 605.75,-32"/>
<text text-anchor="start" x="457.5" y="-18.5" font-family="Helvetica,sans-Serif" font-size="10.00">org.springframework.stereotype.</text>
<text text-anchor="middle" x="527.62" y="-6.5" font-family="Helvetica,sans-Serif" font-size="10.00">Component</text>
</a>
</g>
</g>
<!-- Node1&#45;&gt;Node5 -->
<g id="edge4_Node000001_Node000005" class="edge">
<title>Node1&#45;&gt;Node5</title>
<g id="a_edge4_Node000001_Node000005"><a xlink:title=" ">
<path fill="none" stroke="#63b8ff" d="M527.62,-67.79C527.62,-60.18 527.62,-51.52 527.62,-43.52"/>
<polygon fill="#63b8ff" stroke="#63b8ff" points="531.13,-43.64 527.63,-33.64 524.13,-43.64 531.13,-43.64"/>
</a>
</g>
</g>
<!-- Node6 -->
<g id="Node000006" class="node">
<title>Node6</title>
<g id="a_Node000006"><a xlink:title=" ">
<polygon fill="#e0e0e0" stroke="#999999" points="715.5,-26 623.75,-26 623.75,-6 715.5,-6 715.5,-26"/>
<text text-anchor="middle" x="669.62" y="-12.5" font-family="Helvetica,sans-Serif" font-size="10.00">java.util.ArrayList</text>
</a>
</g>
</g>
<!-- Node1&#45;&gt;Node6 -->
<g id="edge5_Node000001_Node000006" class="edge">
<title>Node1&#45;&gt;Node6</title>
<g id="a_edge5_Node000001_Node000006"><a xlink:title=" ">
<path fill="none" stroke="#63b8ff" d="M569.85,-67.59C592.71,-56 620.38,-41.97 640.77,-31.63"/>
<polygon fill="#63b8ff" stroke="#63b8ff" points="642.31,-34.78 649.64,-27.13 639.14,-28.53 642.31,-34.78"/>
</a>
</g>
</g>
<!-- Node7 -->
<g id="Node000007" class="node">
<title>Node7</title>
<g id="a_Node000007"><a xlink:title=" ">
<polygon fill="#e0e0e0" stroke="#999999" points="801.88,-26 733.38,-26 733.38,-6 801.88,-6 801.88,-26"/>
<text text-anchor="middle" x="767.62" y="-12.5" font-family="Helvetica,sans-Serif" font-size="10.00">java.util.List</text>
</a>
</g>
</g>
<!-- Node1&#45;&gt;Node7 -->
<g id="edge6_Node000001_Node000007" class="edge">
<title>Node1&#45;&gt;Node7</title>
<g id="a_edge6_Node000001_Node000007"><a xlink:title=" ">
<path fill="none" stroke="#63b8ff" d="M603.22,-68.16C640,-57.76 684.77,-44.71 724.62,-32 726.57,-31.38 728.57,-30.73 730.58,-30.06"/>
<polygon fill="#63b8ff" stroke="#63b8ff" points="731.54,-33.44 739.89,-26.91 729.29,-26.8 731.54,-33.44"/>
</a>
</g>
</g>
<!-- Node8 -->
<g id="Node000008" class="node">
<title>Node8</title>
<g id="a_Node000008"><a xlink:title=" ">
<polygon fill="#e0e0e0" stroke="#999999" points="954.88,-32 820.38,-32 820.38,0 954.88,0 954.88,-32"/>
<text text-anchor="start" x="828.38" y="-18.5" font-family="Helvetica,sans-Serif" font-size="10.00">org.passay.IllegalCharacter</text>
<text text-anchor="middle" x="887.62" y="-6.5" font-family="Helvetica,sans-Serif" font-size="10.00">Rule.ERROR_CODE</text>
</a>
</g>
</g>
<!-- Node1&#45;&gt;Node8 -->
<g id="edge7_Node000001_Node000008" class="edge">
<title>Node1&#45;&gt;Node8</title>
<g id="a_edge7_Node000001_Node000008"><a xlink:title=" ">
<path fill="none" stroke="#63b8ff" d="M603.53,-73.82C663.83,-61.76 747.88,-44.95 808.9,-32.74"/>
<polygon fill="#63b8ff" stroke="#63b8ff" points="809.41,-36.21 818.53,-30.82 808.04,-29.35 809.41,-36.21"/>
</a>
</g>
</g>
</g>
</svg>
