<?xml version="1.0" encoding="UTF-8" standalone="no"?>
<!DOCTYPE svg PUBLIC "-//W3C//DTD SVG 1.1//EN"
 "http://www.w3.org/Graphics/SVG/1.1/DTD/svg11.dtd">
<!-- Generated by graphviz version 12.2.1 (20241206.2353)
 -->
<!-- Title: src/main/java/fr/softsf/sudokufx/model/Grid.java Pages: 1 -->
<svg width="886pt" height="108pt"
 viewBox="0.00 0.00 885.75 108.00" xmlns="http://www.w3.org/2000/svg" xmlns:xlink="http://www.w3.org/1999/xlink">
<g id="graph0" class="graph" transform="scale(1 1) rotate(0) translate(4 104)">
<title>src/main/java/fr/softsf/sudokufx/model/Grid.java</title>
<!-- Node1 -->
<g id="Node000001" class="node">
<title>Node1</title>
<g id="a_Node000001"><a xlink:title=" ">
<polygon fill="#999999" stroke="#666666" points="532.62,-100 402.62,-100 402.62,-68 532.62,-68 532.62,-100"/>
<text text-anchor="start" x="410.62" y="-86.5" font-family="Helvetica,sans-Serif" font-size="10.00">src/main/java/fr/softsf</text>
<text text-anchor="middle" x="467.62" y="-74.5" font-family="Helvetica,sans-Serif" font-size="10.00">/sudokufx/model/Grid.java</text>
</a>
</g>
</g>
<!-- Node2 -->
<g id="Node000002" class="node">
<title>Node2</title>
<g id="a_Node000002"><a xlink:title=" ">
<polygon fill="#e0e0e0" stroke="#999999" points="105.25,-26 0,-26 0,-6 105.25,-6 105.25,-26"/>
<text text-anchor="middle" x="52.62" y="-12.5" font-family="Helvetica,sans-Serif" font-size="10.00">jakarta.persistence.*</text>
</a>
</g>
</g>
<!-- Node1&#45;&gt;Node2 -->
<g id="edge1_Node000001_Node000002" class="edge">
<title>Node1&#45;&gt;Node2</title>
<g id="a_edge1_Node000001_Node000002"><a xlink:title=" ">
<path fill="none" stroke="#63b8ff" d="M402.26,-75.42C331.17,-66.75 214.34,-51.22 114.62,-32 109.98,-31.1 105.15,-30.09 100.34,-29.02"/>
<polygon fill="#63b8ff" stroke="#63b8ff" points="101.22,-25.63 90.69,-26.8 99.65,-32.45 101.22,-25.63"/>
</a>
</g>
</g>
<!-- Node3 -->
<g id="Node000003" class="node">
<title>Node3</title>
<g id="a_Node000003"><a xlink:title=" ">
<polygon fill="#e0e0e0" stroke="#999999" points="285.75,-26 123.5,-26 123.5,-6 285.75,-6 285.75,-26"/>
<text text-anchor="middle" x="204.62" y="-12.5" font-family="Helvetica,sans-Serif" font-size="10.00">jakarta.validation.constraints.Max</text>
</a>
</g>
</g>
<!-- Node1&#45;&gt;Node3 -->
<g id="edge2_Node000001_Node000003" class="edge">
<title>Node1&#45;&gt;Node3</title>
<g id="a_edge2_Node000001_Node000003"><a xlink:title=" ">
<path fill="none" stroke="#63b8ff" d="M405.96,-67.53C359.41,-55.84 296.41,-40.03 253.36,-29.23"/>
<polygon fill="#63b8ff" stroke="#63b8ff" points="254.34,-25.87 243.79,-26.83 252.64,-32.66 254.34,-25.87"/>
</a>
</g>
</g>
<!-- Node4 -->
<g id="Node000004" class="node">
<title>Node4</title>
<g id="a_Node000004"><a xlink:title=" ">
<polygon fill="#e0e0e0" stroke="#999999" points="463.25,-26 304,-26 304,-6 463.25,-6 463.25,-26"/>
<text text-anchor="middle" x="383.62" y="-12.5" font-family="Helvetica,sans-Serif" font-size="10.00">jakarta.validation.constraints.Min</text>
</a>
</g>
</g>
<!-- Node1&#45;&gt;Node4 -->
<g id="edge3_Node000001_Node000004" class="edge">
<title>Node1&#45;&gt;Node4</title>
<g id="a_edge3_Node000001_Node000004"><a xlink:title=" ">
<path fill="none" stroke="#63b8ff" d="M448.14,-67.69C435.04,-57.4 417.78,-43.84 404.41,-33.33"/>
<polygon fill="#63b8ff" stroke="#63b8ff" points="406.7,-30.68 396.67,-27.25 402.37,-36.18 406.7,-30.68"/>
</a>
</g>
</g>
<!-- Node5 -->
<g id="Node000005" class="node">
<title>Node5</title>
<g id="a_Node000005"><a xlink:title=" ">
<polygon fill="#e0e0e0" stroke="#999999" points="624.38,-32 480.88,-32 480.88,0 624.38,0 624.38,-32"/>
<text text-anchor="start" x="488.88" y="-18.5" font-family="Helvetica,sans-Serif" font-size="10.00">jakarta.validation.constraints.</text>
<text text-anchor="middle" x="552.62" y="-6.5" font-family="Helvetica,sans-Serif" font-size="10.00">NotNull</text>
</a>
</g>
</g>
<!-- Node1&#45;&gt;Node5 -->
<g id="edge4_Node000001_Node000005" class="edge">
<title>Node1&#45;&gt;Node5</title>
<g id="a_edge4_Node000001_Node000005"><a xlink:title=" ">
<path fill="none" stroke="#63b8ff" d="M487.34,-67.69C498.2,-59.26 511.89,-48.63 523.92,-39.29"/>
<polygon fill="#63b8ff" stroke="#63b8ff" points="525.78,-42.28 531.53,-33.38 521.48,-36.75 525.78,-42.28"/>
</a>
</g>
</g>
<!-- Node6 -->
<g id="Node000006" class="node">
<title>Node6</title>
<g id="a_Node000006"><a xlink:title=" ">
<polygon fill="#e0e0e0" stroke="#999999" points="805.12,-26 642.12,-26 642.12,-6 805.12,-6 805.12,-26"/>
<text text-anchor="middle" x="723.62" y="-12.5" font-family="Helvetica,sans-Serif" font-size="10.00">jakarta.validation.constraints.Size</text>
</a>
</g>
</g>
<!-- Node1&#45;&gt;Node6 -->
<g id="edge5_Node000001_Node000006" class="edge">
<title>Node1&#45;&gt;Node6</title>
<g id="a_edge5_Node000001_Node000006"><a xlink:title=" ">
<path fill="none" stroke="#63b8ff" d="M527.65,-67.53C572.86,-55.87 634.02,-40.1 675.92,-29.3"/>
<polygon fill="#63b8ff" stroke="#63b8ff" points="676.66,-32.72 685.47,-26.84 674.91,-25.95 676.66,-32.72"/>
</a>
</g>
</g>
<!-- Node7 -->
<g id="Node000007" class="node">
<title>Node7</title>
<g id="a_Node000007"><a xlink:title=" ">
<polygon fill="#e0e0e0" stroke="#999999" points="877.75,-26 823.5,-26 823.5,-6 877.75,-6 877.75,-26"/>
<text text-anchor="middle" x="850.62" y="-12.5" font-family="Helvetica,sans-Serif" font-size="10.00">lombok.*</text>
</a>
</g>
</g>
<!-- Node1&#45;&gt;Node7 -->
<g id="edge6_Node000001_Node000007" class="edge">
<title>Node1&#45;&gt;Node7</title>
<g id="a_edge6_Node000001_Node000007"><a xlink:title=" ">
<path fill="none" stroke="#63b8ff" d="M532.9,-78.28C603.4,-72.06 718.54,-58.63 814.62,-32 816.42,-31.5 818.24,-30.94 820.07,-30.33"/>
<polygon fill="#63b8ff" stroke="#63b8ff" points="820.82,-33.79 828.96,-27 818.37,-27.23 820.82,-33.79"/>
</a>
</g>
</g>
</g>
</svg>
