<?xml version="1.0" encoding="UTF-8" standalone="no"?>
<!DOCTYPE svg PUBLIC "-//W3C//DTD SVG 1.1//EN"
 "http://www.w3.org/Graphics/SVG/1.1/DTD/svg11.dtd">
<!-- Generated by graphviz version 12.2.1 (20241206.2353)
 -->
<!-- Title: src/main/java/fr/softsf/sudokufx/utils/sudoku/GridMaster.java Pages: 1 -->
<svg width="1145pt" height="120pt"
 viewBox="0.00 0.00 1145.12 120.00" xmlns="http://www.w3.org/2000/svg" xmlns:xlink="http://www.w3.org/1999/xlink">
<g id="graph0" class="graph" transform="scale(1 1) rotate(0) translate(4 116)">
<title>src/main/java/fr/softsf/sudokufx/utils/sudoku/GridMaster.java</title>
<!-- Node1 -->
<g id="Node000001" class="node">
<title>Node1</title>
<g id="a_Node000001"><a xlink:title=" ">
<polygon fill="#999999" stroke="#666666" points="660,-112 545.75,-112 545.75,-68 660,-68 660,-112"/>
<text text-anchor="start" x="553.75" y="-98.5" font-family="Helvetica,sans-Serif" font-size="10.00">src/main/java/fr/softsf</text>
<text text-anchor="start" x="553.75" y="-86.5" font-family="Helvetica,sans-Serif" font-size="10.00">/sudokufx/utils/sudoku</text>
<text text-anchor="middle" x="602.88" y="-74.5" font-family="Helvetica,sans-Serif" font-size="10.00">/GridMaster.java</text>
</a>
</g>
</g>
<!-- Node2 -->
<g id="Node000002" class="node">
<title>Node2</title>
<g id="a_Node000002"><a xlink:title=" ">
<polygon fill="#e0e0e0" stroke="#999999" points="127.75,-32 0,-32 0,0 127.75,0 127.75,-32"/>
<text text-anchor="start" x="8" y="-18.5" font-family="Helvetica,sans-Serif" font-size="10.00">fr.softsf.sudokufx.enums.</text>
<text text-anchor="middle" x="63.88" y="-6.5" font-family="Helvetica,sans-Serif" font-size="10.00">SecureRandomGenerator</text>
</a>
</g>
</g>
<!-- Node1&#45;&gt;Node2 -->
<g id="edge1_Node000001_Node000002" class="edge">
<title>Node1&#45;&gt;Node2</title>
<g id="a_edge1_Node000001_Node000002"><a xlink:title=" ">
<path fill="none" stroke="#63b8ff" d="M545.27,-83.47C459.11,-74.86 291.37,-56.82 138.87,-32.25"/>
<polygon fill="#63b8ff" stroke="#63b8ff" points="139.84,-28.86 129.41,-30.71 138.72,-35.77 139.84,-28.86"/>
</a>
</g>
</g>
<!-- Node3 -->
<g id="Node000003" class="node">
<title>Node3</title>
<g id="a_Node000003"><a xlink:title=" ">
<polygon fill="#e0e0e0" stroke="#999999" points="223.62,-26 146.12,-26 146.12,-6 223.62,-6 223.62,-26"/>
<text text-anchor="middle" x="184.88" y="-12.5" font-family="Helvetica,sans-Serif" font-size="10.00">lombok.Getter</text>
</a>
</g>
</g>
<!-- Node1&#45;&gt;Node3 -->
<g id="edge2_Node000001_Node000003" class="edge">
<title>Node1&#45;&gt;Node3</title>
<g id="a_edge2_Node000001_Node000003"><a xlink:title=" ">
<path fill="none" stroke="#63b8ff" d="M545.46,-83C472.09,-74.7 341.47,-57.74 231.88,-32 228.93,-31.31 225.9,-30.52 222.87,-29.68"/>
<polygon fill="#63b8ff" stroke="#63b8ff" points="224.04,-26.38 213.46,-26.89 222.05,-33.09 224.04,-26.38"/>
</a>
</g>
</g>
<!-- Node4 -->
<g id="Node000004" class="node">
<title>Node4</title>
<g id="a_Node000004"><a xlink:title=" ">
<polygon fill="#e0e0e0" stroke="#999999" points="362.38,-26 241.38,-26 241.38,-6 362.38,-6 362.38,-26"/>
<text text-anchor="middle" x="301.88" y="-12.5" font-family="Helvetica,sans-Serif" font-size="10.00">lombok.extern.slf4j.Slf4j</text>
</a>
</g>
</g>
<!-- Node1&#45;&gt;Node4 -->
<g id="edge3_Node000001_Node000004" class="edge">
<title>Node1&#45;&gt;Node4</title>
<g id="a_edge3_Node000001_Node000004"><a xlink:title=" ">
<path fill="none" stroke="#63b8ff" d="M545.55,-75.29C489.66,-61.92 405.49,-41.79 352.14,-29.02"/>
<polygon fill="#63b8ff" stroke="#63b8ff" points="353.26,-25.69 342.72,-26.77 351.63,-32.5 353.26,-25.69"/>
</a>
</g>
</g>
<!-- Node5 -->
<g id="Node000005" class="node">
<title>Node5</title>
<g id="a_Node000005"><a xlink:title=" ">
<polygon fill="#e0e0e0" stroke="#999999" points="537,-32 380.75,-32 380.75,0 537,0 537,-32"/>
<text text-anchor="start" x="388.75" y="-18.5" font-family="Helvetica,sans-Serif" font-size="10.00">org.springframework.stereotype.</text>
<text text-anchor="middle" x="458.88" y="-6.5" font-family="Helvetica,sans-Serif" font-size="10.00">Component</text>
</a>
</g>
</g>
<!-- Node1&#45;&gt;Node5 -->
<g id="edge4_Node000001_Node000005" class="edge">
<title>Node1&#45;&gt;Node5</title>
<g id="a_edge4_Node000001_Node000005"><a xlink:title=" ">
<path fill="none" stroke="#63b8ff" d="M560.06,-67.59C541.03,-58.08 518.73,-46.93 499.92,-37.52"/>
<polygon fill="#63b8ff" stroke="#63b8ff" points="501.73,-34.51 491.22,-33.17 498.6,-40.78 501.73,-34.51"/>
</a>
</g>
</g>
<!-- Node6 -->
<g id="Node000006" class="node">
<title>Node6</title>
<g id="a_Node000006"><a xlink:title=" ">
<polygon fill="#e0e0e0" stroke="#999999" points="650.62,-26 555.12,-26 555.12,-6 650.62,-6 650.62,-26"/>
<text text-anchor="middle" x="602.88" y="-12.5" font-family="Helvetica,sans-Serif" font-size="10.00">java.time.Duration</text>
</a>
</g>
</g>
<!-- Node1&#45;&gt;Node6 -->
<g id="edge5_Node000001_Node000006" class="edge">
<title>Node1&#45;&gt;Node6</title>
<g id="a_edge5_Node000001_Node000006"><a xlink:title=" ">
<path fill="none" stroke="#63b8ff" d="M602.88,-67.79C602.88,-58.32 602.88,-47.2 602.88,-37.78"/>
<polygon fill="#63b8ff" stroke="#63b8ff" points="606.38,-37.82 602.88,-27.82 599.38,-37.82 606.38,-37.82"/>
</a>
</g>
</g>
<!-- Node7 -->
<g id="Node000007" class="node">
<title>Node7</title>
<g id="a_Node000007"><a xlink:title=" ">
<polygon fill="#e0e0e0" stroke="#999999" points="793.25,-26 668.5,-26 668.5,-6 793.25,-6 793.25,-26"/>
<text text-anchor="middle" x="730.88" y="-12.5" font-family="Helvetica,sans-Serif" font-size="10.00">java.time.LocalDateTime</text>
</a>
</g>
</g>
<!-- Node1&#45;&gt;Node7 -->
<g id="edge6_Node000001_Node000007" class="edge">
<title>Node1&#45;&gt;Node7</title>
<g id="a_edge6_Node000001_Node000007"><a xlink:title=" ">
<path fill="none" stroke="#63b8ff" d="M640.93,-67.59C661.26,-56.16 685.79,-42.36 704.1,-32.06"/>
<polygon fill="#63b8ff" stroke="#63b8ff" points="705.76,-35.14 712.76,-27.19 702.33,-29.04 705.76,-35.14"/>
</a>
</g>
</g>
<!-- Node8 -->
<g id="Node000008" class="node">
<title>Node8</title>
<g id="a_Node000008"><a xlink:title=" ">
<polygon fill="#e0e0e0" stroke="#999999" points="892.5,-26 811.25,-26 811.25,-6 892.5,-6 892.5,-26"/>
<text text-anchor="middle" x="851.88" y="-12.5" font-family="Helvetica,sans-Serif" font-size="10.00">java.util.Arrays</text>
</a>
</g>
</g>
<!-- Node1&#45;&gt;Node8 -->
<g id="edge7_Node000001_Node000008" class="edge">
<title>Node1&#45;&gt;Node8</title>
<g id="a_edge7_Node000001_Node000008"><a xlink:title=" ">
<path fill="none" stroke="#63b8ff" d="M660.4,-72.73C700.18,-61.43 754.28,-45.95 801.88,-32 804.44,-31.25 807.08,-30.47 809.75,-29.68"/>
<polygon fill="#63b8ff" stroke="#63b8ff" points="810.65,-33.06 819.24,-26.85 808.65,-26.35 810.65,-33.06"/>
</a>
</g>
</g>
<!-- Node9 -->
<g id="Node000009" class="node">
<title>Node9</title>
<g id="a_Node000009"><a xlink:title=" ">
<polygon fill="#e0e0e0" stroke="#999999" points="990.75,-26 911,-26 911,-6 990.75,-6 990.75,-26"/>
<text text-anchor="middle" x="950.88" y="-12.5" font-family="Helvetica,sans-Serif" font-size="10.00">java.util.BitSet</text>
</a>
</g>
</g>
<!-- Node1&#45;&gt;Node9 -->
<g id="edge8_Node000001_Node000009" class="edge">
<title>Node1&#45;&gt;Node9</title>
<g id="a_edge8_Node000001_Node000009"><a xlink:title=" ">
<path fill="none" stroke="#63b8ff" d="M660.32,-79.96C720.81,-69.99 818.65,-52.61 901.88,-32 904.81,-31.27 907.83,-30.48 910.86,-29.64"/>
<polygon fill="#63b8ff" stroke="#63b8ff" points="911.65,-33.05 920.29,-26.91 909.71,-26.33 911.65,-33.05"/>
</a>
</g>
</g>
<!-- Node10 -->
<g id="Node000010" class="node">
<title>Node10</title>
<g id="a_Node000010"><a xlink:title=" ">
<polygon fill="#e0e0e0" stroke="#999999" points="1137.12,-26 1008.62,-26 1008.62,-6 1137.12,-6 1137.12,-26"/>
<text text-anchor="middle" x="1072.88" y="-12.5" font-family="Helvetica,sans-Serif" font-size="10.00">java.util.stream.IntStream</text>
</a>
</g>
</g>
<!-- Node1&#45;&gt;Node10 -->
<g id="edge9_Node000001_Node000010" class="edge">
<title>Node1&#45;&gt;Node10</title>
<g id="a_edge9_Node000001_Node000010"><a xlink:title=" ">
<path fill="none" stroke="#63b8ff" d="M660.24,-81.86C737.58,-71.99 879.49,-52.99 999.88,-32 1005.77,-30.97 1011.92,-29.83 1018.03,-28.64"/>
<polygon fill="#63b8ff" stroke="#63b8ff" points="1018.34,-32.15 1027.46,-26.77 1016.97,-25.28 1018.34,-32.15"/>
</a>
</g>
</g>
</g>
</svg>
