<?xml version="1.0" encoding="UTF-8" standalone="no"?>
<!DOCTYPE svg PUBLIC "-//W3C//DTD SVG 1.1//EN"
 "http://www.w3.org/Graphics/SVG/1.1/DTD/svg11.dtd">
<!-- Generated by graphviz version 12.2.1 (20241206.2353)
 -->
<!-- Title: src/main/java/fr/softsf/sudokufx/enums/I18n.java Pages: 1 -->
<svg width="232pt" height="96pt"
 viewBox="0.00 0.00 232.00 96.00" xmlns="http://www.w3.org/2000/svg" xmlns:xlink="http://www.w3.org/1999/xlink">
<g id="graph0" class="graph" transform="scale(1 1) rotate(0) translate(4 92)">
<title>src/main/java/fr/softsf/sudokufx/enums/I18n.java</title>
<!-- Node1 -->
<g id="Node000001" class="node">
<title>Node1</title>
<g id="a_Node000001"><a xlink:title=" ">
<polygon fill="#999999" stroke="#666666" points="167.5,-88 33.75,-88 33.75,-56 167.5,-56 167.5,-88"/>
<text text-anchor="start" x="41.75" y="-74.5" font-family="Helvetica,sans-Serif" font-size="10.00">src/main/java/fr/softsf</text>
<text text-anchor="middle" x="100.62" y="-62.5" font-family="Helvetica,sans-Serif" font-size="10.00">/sudokufx/enums/I18n.java</text>
</a>
</g>
</g>
<!-- Node2 -->
<g id="Node000002" class="node">
<title>Node2</title>
<g id="a_Node000002"><a xlink:title=" ">
<polygon fill="#e0e0e0" stroke="#999999" points="81.25,-20 0,-20 0,0 81.25,0 81.25,-20"/>
<text text-anchor="middle" x="40.62" y="-6.5" font-family="Helvetica,sans-Serif" font-size="10.00">java.util.Locale</text>
</a>
</g>
</g>
<!-- Node1&#45;&gt;Node2 -->
<g id="edge1_Node000001_Node000002" class="edge">
<title>Node1&#45;&gt;Node2</title>
<g id="a_edge1_Node000001_Node000002"><a xlink:title=" ">
<path fill="none" stroke="#63b8ff" d="M85.17,-55.55C76.84,-47.22 66.53,-36.91 57.93,-28.3"/>
<polygon fill="#63b8ff" stroke="#63b8ff" points="60.65,-26.07 51.1,-21.48 55.7,-31.02 60.65,-26.07"/>
</a>
</g>
</g>
<!-- Node3 -->
<g id="Node000003" class="node">
<title>Node3</title>
<g id="a_Node000003"><a xlink:title=" ">
<polygon fill="#e0e0e0" stroke="#999999" points="224,-20 99.25,-20 99.25,0 224,0 224,-20"/>
<text text-anchor="middle" x="161.62" y="-6.5" font-family="Helvetica,sans-Serif" font-size="10.00">java.util.ResourceBundle</text>
</a>
</g>
</g>
<!-- Node1&#45;&gt;Node3 -->
<g id="edge2_Node000001_Node000003" class="edge">
<title>Node1&#45;&gt;Node3</title>
<g id="a_edge2_Node000001_Node000003"><a xlink:title=" ">
<path fill="none" stroke="#63b8ff" d="M116.33,-55.55C124.81,-47.22 135.29,-36.91 144.03,-28.3"/>
<polygon fill="#63b8ff" stroke="#63b8ff" points="146.31,-30.98 150.98,-21.47 141.4,-25.99 146.31,-30.98"/>
</a>
</g>
</g>
</g>
</svg>
