<?xml version="1.0" encoding="UTF-8" standalone="no"?>
<!DOCTYPE svg PUBLIC "-//W3C//DTD SVG 1.1//EN"
 "http://www.w3.org/Graphics/SVG/1.1/DTD/svg11.dtd">
<!-- Generated by graphviz version 12.2.1 (20241206.2353)
 -->
<!-- Title: src/main/java/fr/softsf/sudokufx/enums/I18n.java Pages: 1 -->
<svg width="518pt" height="108pt"
 viewBox="0.00 0.00 517.88 108.00" xmlns="http://www.w3.org/2000/svg" xmlns:xlink="http://www.w3.org/1999/xlink">
<g id="graph0" class="graph" transform="scale(1 1) rotate(0) translate(4 104)">
<title>src/main/java/fr/softsf/sudokufx/enums/I18n.java</title>
<!-- Node1 -->
<g id="Node000001" class="node">
<title>Node1</title>
<g id="a_Node000001"><a xlink:title=" ">
<polygon fill="#999999" stroke="#666666" points="307.38,-100 173.62,-100 173.62,-68 307.38,-68 307.38,-100"/>
<text text-anchor="start" x="181.62" y="-86.5" font-family="Helvetica,sans-Serif" font-size="10.00">src/main/java/fr/softsf</text>
<text text-anchor="middle" x="240.5" y="-74.5" font-family="Helvetica,sans-Serif" font-size="10.00">/sudokufx/enums/I18n.java</text>
</a>
</g>
</g>
<!-- Node2 -->
<g id="Node000002" class="node">
<title>Node2</title>
<g id="a_Node000002"><a xlink:title=" ">
<polygon fill="#e0e0e0" stroke="#999999" points="121,-26 0,-26 0,-6 121,-6 121,-26"/>
<text text-anchor="middle" x="60.5" y="-12.5" font-family="Helvetica,sans-Serif" font-size="10.00">lombok.extern.slf4j.Slf4j</text>
</a>
</g>
</g>
<!-- Node1&#45;&gt;Node2 -->
<g id="edge1_Node000001_Node000002" class="edge">
<title>Node1&#45;&gt;Node2</title>
<g id="a_edge1_Node000001_Node000002"><a xlink:title=" ">
<path fill="none" stroke="#63b8ff" d="M198.3,-67.53C167.52,-56.24 126.24,-41.11 96.91,-30.35"/>
<polygon fill="#63b8ff" stroke="#63b8ff" points="98.31,-27.14 87.72,-26.98 95.9,-33.71 98.31,-27.14"/>
</a>
</g>
</g>
<!-- Node3 -->
<g id="Node000003" class="node">
<title>Node3</title>
<g id="a_Node000003"><a xlink:title=" ">
<polygon fill="#e0e0e0" stroke="#999999" points="220.12,-26 138.88,-26 138.88,-6 220.12,-6 220.12,-26"/>
<text text-anchor="middle" x="179.5" y="-12.5" font-family="Helvetica,sans-Serif" font-size="10.00">java.util.Locale</text>
</a>
</g>
</g>
<!-- Node1&#45;&gt;Node3 -->
<g id="edge2_Node000001_Node000003" class="edge">
<title>Node1&#45;&gt;Node3</title>
<g id="a_edge2_Node000001_Node000003"><a xlink:title=" ">
<path fill="none" stroke="#63b8ff" d="M226.35,-67.69C217.21,-57.8 205.27,-44.89 195.74,-34.57"/>
<polygon fill="#63b8ff" stroke="#63b8ff" points="198.5,-32.4 189.14,-27.43 193.35,-37.15 198.5,-32.4"/>
</a>
</g>
</g>
<!-- Node4 -->
<g id="Node000004" class="node">
<title>Node4</title>
<g id="a_Node000004"><a xlink:title=" ">
<polygon fill="#e0e0e0" stroke="#999999" points="366.75,-32 238.25,-32 238.25,0 366.75,0 366.75,-32"/>
<text text-anchor="start" x="246.25" y="-18.5" font-family="Helvetica,sans-Serif" font-size="10.00">java.util.MissingResource</text>
<text text-anchor="middle" x="302.5" y="-6.5" font-family="Helvetica,sans-Serif" font-size="10.00">Exception</text>
</a>
</g>
</g>
<!-- Node1&#45;&gt;Node4 -->
<g id="edge3_Node000001_Node000004" class="edge">
<title>Node1&#45;&gt;Node4</title>
<g id="a_edge3_Node000001_Node000004"><a xlink:title=" ">
<path fill="none" stroke="#63b8ff" d="M254.88,-67.69C262.47,-59.61 271.95,-49.52 280.45,-40.48"/>
<polygon fill="#63b8ff" stroke="#63b8ff" points="282.87,-43.01 287.16,-33.33 277.76,-38.22 282.87,-43.01"/>
</a>
</g>
</g>
<!-- Node5 -->
<g id="Node000005" class="node">
<title>Node5</title>
<g id="a_Node000005"><a xlink:title=" ">
<polygon fill="#e0e0e0" stroke="#999999" points="509.88,-26 385.12,-26 385.12,-6 509.88,-6 509.88,-26"/>
<text text-anchor="middle" x="447.5" y="-12.5" font-family="Helvetica,sans-Serif" font-size="10.00">java.util.ResourceBundle</text>
</a>
</g>
</g>
<!-- Node1&#45;&gt;Node5 -->
<g id="edge4_Node000001_Node000005" class="edge">
<title>Node1&#45;&gt;Node5</title>
<g id="a_edge4_Node000001_Node000005"><a xlink:title=" ">
<path fill="none" stroke="#63b8ff" d="M289.03,-67.53C324.89,-56.09 373.15,-40.71 406.96,-29.93"/>
<polygon fill="#63b8ff" stroke="#63b8ff" points="407.92,-33.29 416.39,-26.92 405.8,-26.62 407.92,-33.29"/>
</a>
</g>
</g>
</g>
</svg>
