<?xml version="1.0" encoding="UTF-8" standalone="no"?>
<!DOCTYPE svg PUBLIC "-//W3C//DTD SVG 1.1//EN"
 "http://www.w3.org/Graphics/SVG/1.1/DTD/svg11.dtd">
<!-- Generated by graphviz version 12.2.1 (20241206.2353)
 -->
<!-- Title: src/main/java/fr/softsf/sudokufx/interfaces/mapper/IGameLevelMapper.java Pages: 1 -->
<svg width="586pt" height="120pt"
 viewBox="0.00 0.00 585.75 120.00" xmlns="http://www.w3.org/2000/svg" xmlns:xlink="http://www.w3.org/1999/xlink">
<g id="graph0" class="graph" transform="scale(1 1) rotate(0) translate(4 116)">
<title>src/main/java/fr/softsf/sudokufx/interfaces/mapper/IGameLevelMapper.java</title>
<!-- Node1 -->
<g id="Node000001" class="node">
<title>Node1</title>
<g id="a_Node000001"><a xlink:title=" ">
<polygon fill="#999999" stroke="#666666" points="353.25,-112 213.5,-112 213.5,-68 353.25,-68 353.25,-112"/>
<text text-anchor="start" x="221.5" y="-98.5" font-family="Helvetica,sans-Serif" font-size="10.00">src/main/java/fr/softsf</text>
<text text-anchor="start" x="221.5" y="-86.5" font-family="Helvetica,sans-Serif" font-size="10.00">/sudokufx/interfaces/mapper</text>
<text text-anchor="middle" x="283.38" y="-74.5" font-family="Helvetica,sans-Serif" font-size="10.00">/IGameLevelMapper.java</text>
</a>
</g>
</g>
<!-- Node2 -->
<g id="Node000002" class="node">
<title>Node2</title>
<g id="a_Node000002"><a xlink:title=" ">
<polygon fill="#e0e0e0" stroke="#999999" points="124.75,-32 0,-32 0,0 124.75,0 124.75,-32"/>
<text text-anchor="start" x="8" y="-18.5" font-family="Helvetica,sans-Serif" font-size="10.00">fr.softsf.sudokufx.model.</text>
<text text-anchor="middle" x="62.38" y="-6.5" font-family="Helvetica,sans-Serif" font-size="10.00">GameLevel</text>
</a>
</g>
</g>
<!-- Node1&#45;&gt;Node2 -->
<g id="edge1_Node000001_Node000002" class="edge">
<title>Node1&#45;&gt;Node2</title>
<g id="a_edge1_Node000001_Node000002"><a xlink:title=" ">
<path fill="none" stroke="#63b8ff" d="M217.67,-67.59C186.84,-57.55 150.42,-45.69 120.6,-35.97"/>
<polygon fill="#63b8ff" stroke="#63b8ff" points="121.97,-32.73 111.38,-32.96 119.8,-39.39 121.97,-32.73"/>
</a>
</g>
</g>
<!-- Node3 -->
<g id="Node000003" class="node">
<title>Node3</title>
<g id="a_Node000003"><a xlink:title=" ">
<polygon fill="#e0e0e0" stroke="#999999" points="281.5,-32 143.25,-32 143.25,0 281.5,0 281.5,-32"/>
<text text-anchor="start" x="151.25" y="-18.5" font-family="Helvetica,sans-Serif" font-size="10.00">fr.softsf.sudokufx.dto.Game</text>
<text text-anchor="middle" x="212.38" y="-6.5" font-family="Helvetica,sans-Serif" font-size="10.00">LevelDto</text>
</a>
</g>
</g>
<!-- Node1&#45;&gt;Node3 -->
<g id="edge2_Node000001_Node000003" class="edge">
<title>Node1&#45;&gt;Node3</title>
<g id="a_edge2_Node000001_Node000003"><a xlink:title=" ">
<path fill="none" stroke="#63b8ff" d="M262.46,-67.79C253.9,-59.11 243.98,-49.05 235.23,-40.18"/>
<polygon fill="#63b8ff" stroke="#63b8ff" points="237.87,-37.87 228.35,-33.2 232.88,-42.78 237.87,-37.87"/>
</a>
</g>
</g>
<!-- Node4 -->
<g id="Node000004" class="node">
<title>Node4</title>
<g id="a_Node000004"><a xlink:title=" ">
<polygon fill="#e0e0e0" stroke="#999999" points="411,-26 299.75,-26 299.75,-6 411,-6 411,-26"/>
<text text-anchor="middle" x="355.38" y="-12.5" font-family="Helvetica,sans-Serif" font-size="10.00">org.mapstruct.Mapper</text>
</a>
</g>
</g>
<!-- Node1&#45;&gt;Node4 -->
<g id="edge3_Node000001_Node000004" class="edge">
<title>Node1&#45;&gt;Node4</title>
<g id="a_edge3_Node000001_Node000004"><a xlink:title=" ">
<path fill="none" stroke="#63b8ff" d="M304.59,-67.79C315.24,-57.14 327.98,-44.39 338.04,-34.34"/>
<polygon fill="#63b8ff" stroke="#63b8ff" points="340.4,-36.93 344.99,-27.38 335.45,-31.98 340.4,-36.93"/>
</a>
</g>
</g>
<!-- Node5 -->
<g id="Node000005" class="node">
<title>Node5</title>
<g id="a_Node000005"><a xlink:title=" ">
<polygon fill="#e0e0e0" stroke="#999999" points="577.75,-26 429,-26 429,-6 577.75,-6 577.75,-26"/>
<text text-anchor="middle" x="503.38" y="-12.5" font-family="Helvetica,sans-Serif" font-size="10.00">org.mapstruct.factory.Mappers</text>
</a>
</g>
</g>
<!-- Node1&#45;&gt;Node5 -->
<g id="edge4_Node000001_Node000005" class="edge">
<title>Node1&#45;&gt;Node5</title>
<g id="a_edge4_Node000001_Node000005"><a xlink:title=" ">
<path fill="none" stroke="#63b8ff" d="M348.79,-67.59C386.18,-55.36 431.84,-40.41 463.81,-29.95"/>
<polygon fill="#63b8ff" stroke="#63b8ff" points="464.65,-33.36 473.07,-26.92 462.48,-26.7 464.65,-33.36"/>
</a>
</g>
</g>
</g>
</svg>
