<?xml version="1.0" encoding="UTF-8" standalone="no"?>
<!DOCTYPE svg PUBLIC "-//W3C//DTD SVG 1.1//EN"
 "http://www.w3.org/Graphics/SVG/1.1/DTD/svg11.dtd">
<!-- Generated by graphviz version 12.2.1 (20241206.2353)
 -->
<!-- Title: src/main/java/fr/softsf/sudokufx/interfaces/mapper/IGridMapper.java Pages: 1 -->
<svg width="611pt" height="108pt"
 viewBox="0.00 0.00 610.75 108.00" xmlns="http://www.w3.org/2000/svg" xmlns:xlink="http://www.w3.org/1999/xlink">
<g id="graph0" class="graph" transform="scale(1 1) rotate(0) translate(4 104)">
<title>src/main/java/fr/softsf/sudokufx/interfaces/mapper/IGridMapper.java</title>
<!-- Node1 -->
<g id="Node000001" class="node">
<title>Node1</title>
<g id="a_Node000001"><a xlink:title=" ">
<polygon fill="#999999" stroke="#666666" points="376.25,-100 236.5,-100 236.5,-56 376.25,-56 376.25,-100"/>
<text text-anchor="start" x="244.5" y="-86.5" font-family="Helvetica,sans-Serif" font-size="10.00">src/main/java/fr/softsf</text>
<text text-anchor="start" x="244.5" y="-74.5" font-family="Helvetica,sans-Serif" font-size="10.00">/sudokufx/interfaces/mapper</text>
<text text-anchor="middle" x="306.38" y="-62.5" font-family="Helvetica,sans-Serif" font-size="10.00">/IGridMapper.java</text>
</a>
</g>
</g>
<!-- Node2 -->
<g id="Node000002" class="node">
<title>Node2</title>
<g id="a_Node000002"><a xlink:title=" ">
<polygon fill="#e0e0e0" stroke="#999999" points="142.75,-20 0,-20 0,0 142.75,0 142.75,-20"/>
<text text-anchor="middle" x="71.38" y="-6.5" font-family="Helvetica,sans-Serif" font-size="10.00">fr.softsf.sudokufx.model.Grid</text>
</a>
</g>
</g>
<!-- Node1&#45;&gt;Node2 -->
<g id="edge1_Node000001_Node000002" class="edge">
<title>Node1&#45;&gt;Node2</title>
<g id="a_edge1_Node000001_Node000002"><a xlink:title=" ">
<path fill="none" stroke="#63b8ff" d="M236.19,-57.29C197.18,-46.33 149.83,-33.03 115.9,-23.51"/>
<polygon fill="#63b8ff" stroke="#63b8ff" points="116.98,-20.17 106.4,-20.84 115.08,-26.91 116.98,-20.17"/>
</a>
</g>
</g>
<!-- Node3 -->
<g id="Node000003" class="node">
<title>Node3</title>
<g id="a_Node000003"><a xlink:title=" ">
<polygon fill="#e0e0e0" stroke="#999999" points="306.25,-20 160.5,-20 160.5,0 306.25,0 306.25,-20"/>
<text text-anchor="middle" x="233.38" y="-6.5" font-family="Helvetica,sans-Serif" font-size="10.00">fr.softsf.sudokufx.dto.GridDto</text>
</a>
</g>
</g>
<!-- Node1&#45;&gt;Node3 -->
<g id="edge2_Node000001_Node000003" class="edge">
<title>Node1&#45;&gt;Node3</title>
<g id="a_edge2_Node000001_Node000003"><a xlink:title=" ">
<path fill="none" stroke="#63b8ff" d="M282.88,-55.75C273,-46.82 261.66,-36.57 252.33,-28.13"/>
<polygon fill="#63b8ff" stroke="#63b8ff" points="254.68,-25.54 244.92,-21.43 249.99,-30.74 254.68,-25.54"/>
</a>
</g>
</g>
<!-- Node4 -->
<g id="Node000004" class="node">
<title>Node4</title>
<g id="a_Node000004"><a xlink:title=" ">
<polygon fill="#e0e0e0" stroke="#999999" points="436,-20 324.75,-20 324.75,0 436,0 436,-20"/>
<text text-anchor="middle" x="380.38" y="-6.5" font-family="Helvetica,sans-Serif" font-size="10.00">org.mapstruct.Mapper</text>
</a>
</g>
</g>
<!-- Node1&#45;&gt;Node4 -->
<g id="edge3_Node000001_Node000004" class="edge">
<title>Node1&#45;&gt;Node4</title>
<g id="a_edge3_Node000001_Node000004"><a xlink:title=" ">
<path fill="none" stroke="#63b8ff" d="M330.2,-55.75C340.31,-46.73 351.94,-36.36 361.46,-27.87"/>
<polygon fill="#63b8ff" stroke="#63b8ff" points="363.55,-30.69 368.68,-21.43 358.89,-25.47 363.55,-30.69"/>
</a>
</g>
</g>
<!-- Node5 -->
<g id="Node000005" class="node">
<title>Node5</title>
<g id="a_Node000005"><a xlink:title=" ">
<polygon fill="#e0e0e0" stroke="#999999" points="602.75,-20 454,-20 454,0 602.75,0 602.75,-20"/>
<text text-anchor="middle" x="528.38" y="-6.5" font-family="Helvetica,sans-Serif" font-size="10.00">org.mapstruct.factory.Mappers</text>
</a>
</g>
</g>
<!-- Node1&#45;&gt;Node5 -->
<g id="edge4_Node000001_Node000005" class="edge">
<title>Node1&#45;&gt;Node5</title>
<g id="a_edge4_Node000001_Node000005"><a xlink:title=" ">
<path fill="none" stroke="#63b8ff" d="M376.62,-56.12C412.48,-45.45 454.94,-32.83 485.81,-23.65"/>
<polygon fill="#63b8ff" stroke="#63b8ff" points="486.59,-27.07 495.18,-20.87 484.59,-20.36 486.59,-27.07"/>
</a>
</g>
</g>
</g>
</svg>
