<?xml version="1.0" encoding="UTF-8" standalone="no"?>
<!DOCTYPE svg PUBLIC "-//W3C//DTD SVG 1.1//EN"
 "http://www.w3.org/Graphics/SVG/1.1/DTD/svg11.dtd">
<!-- Generated by graphviz version 12.2.1 (20241206.2353)
 -->
<!-- Title: src/main/java/fr/softsf/sudokufx/interfaces/mapper/IMenuMapper.java Pages: 1 -->
<svg width="623pt" height="108pt"
 viewBox="0.00 0.00 622.75 108.00" xmlns="http://www.w3.org/2000/svg" xmlns:xlink="http://www.w3.org/1999/xlink">
<g id="graph0" class="graph" transform="scale(1 1) rotate(0) translate(4 104)">
<title>src/main/java/fr/softsf/sudokufx/interfaces/mapper/IMenuMapper.java</title>
<!-- Node1 -->
<g id="Node000001" class="node">
<title>Node1</title>
<g id="a_Node000001"><a xlink:title=" ">
<polygon fill="#999999" stroke="#666666" points="387.25,-100 247.5,-100 247.5,-56 387.25,-56 387.25,-100"/>
<text text-anchor="start" x="255.5" y="-86.5" font-family="Helvetica,sans-Serif" font-size="10.00">src/main/java/fr/softsf</text>
<text text-anchor="start" x="255.5" y="-74.5" font-family="Helvetica,sans-Serif" font-size="10.00">/sudokufx/interfaces/mapper</text>
<text text-anchor="middle" x="317.38" y="-62.5" font-family="Helvetica,sans-Serif" font-size="10.00">/IMenuMapper.java</text>
</a>
</g>
</g>
<!-- Node2 -->
<g id="Node000002" class="node">
<title>Node2</title>
<g id="a_Node000002"><a xlink:title=" ">
<polygon fill="#e0e0e0" stroke="#999999" points="148.75,-20 0,-20 0,0 148.75,0 148.75,-20"/>
<text text-anchor="middle" x="74.38" y="-6.5" font-family="Helvetica,sans-Serif" font-size="10.00">fr.softsf.sudokufx.model.Menu</text>
</a>
</g>
</g>
<!-- Node1&#45;&gt;Node2 -->
<g id="edge1_Node000001_Node000002" class="edge">
<title>Node1&#45;&gt;Node2</title>
<g id="a_edge1_Node000001_Node000002"><a xlink:title=" ">
<path fill="none" stroke="#63b8ff" d="M247.09,-57.91C206.24,-46.81 155.93,-33.15 120.17,-23.44"/>
<polygon fill="#63b8ff" stroke="#63b8ff" points="121.12,-20.07 110.56,-20.83 119.29,-26.83 121.12,-20.07"/>
</a>
</g>
</g>
<!-- Node3 -->
<g id="Node000003" class="node">
<title>Node3</title>
<g id="a_Node000003"><a xlink:title=" ">
<polygon fill="#e0e0e0" stroke="#999999" points="318.25,-20 166.5,-20 166.5,0 318.25,0 318.25,-20"/>
<text text-anchor="middle" x="242.38" y="-6.5" font-family="Helvetica,sans-Serif" font-size="10.00">fr.softsf.sudokufx.dto.MenuDto</text>
</a>
</g>
</g>
<!-- Node1&#45;&gt;Node3 -->
<g id="edge2_Node000001_Node000003" class="edge">
<title>Node1&#45;&gt;Node3</title>
<g id="a_edge2_Node000001_Node000003"><a xlink:title=" ">
<path fill="none" stroke="#63b8ff" d="M293.23,-55.75C282.98,-46.73 271.19,-36.36 261.55,-27.87"/>
<polygon fill="#63b8ff" stroke="#63b8ff" points="264.03,-25.4 254.21,-21.42 259.41,-30.65 264.03,-25.4"/>
</a>
</g>
</g>
<!-- Node4 -->
<g id="Node000004" class="node">
<title>Node4</title>
<g id="a_Node000004"><a xlink:title=" ">
<polygon fill="#e0e0e0" stroke="#999999" points="448,-20 336.75,-20 336.75,0 448,0 448,-20"/>
<text text-anchor="middle" x="392.38" y="-6.5" font-family="Helvetica,sans-Serif" font-size="10.00">org.mapstruct.Mapper</text>
</a>
</g>
</g>
<!-- Node1&#45;&gt;Node4 -->
<g id="edge3_Node000001_Node000004" class="edge">
<title>Node1&#45;&gt;Node4</title>
<g id="a_edge3_Node000001_Node000004"><a xlink:title=" ">
<path fill="none" stroke="#63b8ff" d="M341.52,-55.75C351.77,-46.73 363.56,-36.36 373.2,-27.87"/>
<polygon fill="#63b8ff" stroke="#63b8ff" points="375.34,-30.65 380.54,-21.42 370.72,-25.4 375.34,-30.65"/>
</a>
</g>
</g>
<!-- Node5 -->
<g id="Node000005" class="node">
<title>Node5</title>
<g id="a_Node000005"><a xlink:title=" ">
<polygon fill="#e0e0e0" stroke="#999999" points="614.75,-20 466,-20 466,0 614.75,0 614.75,-20"/>
<text text-anchor="middle" x="540.38" y="-6.5" font-family="Helvetica,sans-Serif" font-size="10.00">org.mapstruct.factory.Mappers</text>
</a>
</g>
</g>
<!-- Node1&#45;&gt;Node5 -->
<g id="edge4_Node000001_Node000005" class="edge">
<title>Node1&#45;&gt;Node5</title>
<g id="a_edge4_Node000001_Node000005"><a xlink:title=" ">
<path fill="none" stroke="#63b8ff" d="M387.63,-56.21C423.67,-45.54 466.41,-32.89 497.5,-23.69"/>
<polygon fill="#63b8ff" stroke="#63b8ff" points="498.35,-27.09 506.94,-20.89 496.36,-20.38 498.35,-27.09"/>
</a>
</g>
</g>
</g>
</svg>
