<?xml version="1.0" encoding="UTF-8" standalone="no"?>
<!DOCTYPE svg PUBLIC "-//W3C//DTD SVG 1.1//EN"
 "http://www.w3.org/Graphics/SVG/1.1/DTD/svg11.dtd">
<!-- Generated by graphviz version 12.2.1 (20241206.2353)
 -->
<!-- Title: src/main/java/fr/softsf/sudokufx/interfaces/mapper/IPlayerMapper.java Pages: 1 -->
<svg width="736pt" height="120pt"
 viewBox="0.00 0.00 735.75 120.00" xmlns="http://www.w3.org/2000/svg" xmlns:xlink="http://www.w3.org/1999/xlink">
<g id="graph0" class="graph" transform="scale(1 1) rotate(0) translate(4 116)">
<title>src/main/java/fr/softsf/sudokufx/interfaces/mapper/IPlayerMapper.java</title>
<!-- Node1 -->
<g id="Node000001" class="node">
<title>Node1</title>
<g id="a_Node000001"><a xlink:title=" ">
<polygon fill="#999999" stroke="#666666" points="441.25,-112 301.5,-112 301.5,-68 441.25,-68 441.25,-112"/>
<text text-anchor="start" x="309.5" y="-98.5" font-family="Helvetica,sans-Serif" font-size="10.00">src/main/java/fr/softsf</text>
<text text-anchor="start" x="309.5" y="-86.5" font-family="Helvetica,sans-Serif" font-size="10.00">/sudokufx/interfaces/mapper</text>
<text text-anchor="middle" x="371.38" y="-74.5" font-family="Helvetica,sans-Serif" font-size="10.00">/IPlayerMapper.java</text>
</a>
</g>
</g>
<!-- Node2 -->
<g id="Node000002" class="node">
<title>Node2</title>
<g id="a_Node000002"><a xlink:title=" ">
<polygon fill="#e0e0e0" stroke="#999999" points="124.75,-32 0,-32 0,0 124.75,0 124.75,-32"/>
<text text-anchor="start" x="8" y="-18.5" font-family="Helvetica,sans-Serif" font-size="10.00">fr.softsf.sudokufx.model.</text>
<text text-anchor="middle" x="62.38" y="-6.5" font-family="Helvetica,sans-Serif" font-size="10.00">Player</text>
</a>
</g>
</g>
<!-- Node1&#45;&gt;Node2 -->
<g id="edge1_Node000001_Node000002" class="edge">
<title>Node1&#45;&gt;Node2</title>
<g id="a_edge1_Node000001_Node000002"><a xlink:title=" ">
<path fill="none" stroke="#63b8ff" d="M301.26,-72.66C252.01,-61.19 186.26,-45.87 136.21,-34.2"/>
<polygon fill="#63b8ff" stroke="#63b8ff" points="137.14,-30.83 126.61,-31.97 135.55,-37.65 137.14,-30.83"/>
</a>
</g>
</g>
<!-- Node3 -->
<g id="Node000003" class="node">
<title>Node3</title>
<g id="a_Node000003"><a xlink:title=" ">
<polygon fill="#e0e0e0" stroke="#999999" points="298.12,-26 142.62,-26 142.62,-6 298.12,-6 298.12,-26"/>
<text text-anchor="middle" x="220.38" y="-12.5" font-family="Helvetica,sans-Serif" font-size="10.00">fr.softsf.sudokufx.dto.PlayerDto</text>
</a>
</g>
</g>
<!-- Node1&#45;&gt;Node3 -->
<g id="edge2_Node000001_Node000003" class="edge">
<title>Node1&#45;&gt;Node3</title>
<g id="a_edge2_Node000001_Node000003"><a xlink:title=" ">
<path fill="none" stroke="#63b8ff" d="M326.48,-67.59C301.94,-55.89 272.2,-41.71 250.46,-31.35"/>
<polygon fill="#63b8ff" stroke="#63b8ff" points="252.09,-28.24 241.56,-27.1 249.08,-34.56 252.09,-28.24"/>
</a>
</g>
</g>
<!-- Node4 -->
<g id="Node000004" class="node">
<title>Node4</title>
<g id="a_Node000004"><a xlink:title=" ">
<polygon fill="#e0e0e0" stroke="#999999" points="427,-26 315.75,-26 315.75,-6 427,-6 427,-26"/>
<text text-anchor="middle" x="371.38" y="-12.5" font-family="Helvetica,sans-Serif" font-size="10.00">org.mapstruct.Mapper</text>
</a>
</g>
</g>
<!-- Node1&#45;&gt;Node4 -->
<g id="edge3_Node000001_Node000004" class="edge">
<title>Node1&#45;&gt;Node4</title>
<g id="a_edge3_Node000001_Node000004"><a xlink:title=" ">
<path fill="none" stroke="#63b8ff" d="M371.38,-67.79C371.38,-58.32 371.38,-47.2 371.38,-37.78"/>
<polygon fill="#63b8ff" stroke="#63b8ff" points="374.88,-37.82 371.38,-27.82 367.88,-37.82 374.88,-37.82"/>
</a>
</g>
</g>
<!-- Node5 -->
<g id="Node000005" class="node">
<title>Node5</title>
<g id="a_Node000005"><a xlink:title=" ">
<polygon fill="#e0e0e0" stroke="#999999" points="561.25,-26 445.5,-26 445.5,-6 561.25,-6 561.25,-26"/>
<text text-anchor="middle" x="503.38" y="-12.5" font-family="Helvetica,sans-Serif" font-size="10.00">org.mapstruct.Mapping</text>
</a>
</g>
</g>
<!-- Node1&#45;&gt;Node5 -->
<g id="edge4_Node000001_Node000005" class="edge">
<title>Node1&#45;&gt;Node5</title>
<g id="a_edge4_Node000001_Node000005"><a xlink:title=" ">
<path fill="none" stroke="#63b8ff" d="M410.62,-67.59C431.68,-56.1 457.12,-42.23 476.03,-31.92"/>
<polygon fill="#63b8ff" stroke="#63b8ff" points="477.62,-35.03 484.72,-27.17 474.27,-28.89 477.62,-35.03"/>
</a>
</g>
</g>
<!-- Node6 -->
<g id="Node000006" class="node">
<title>Node6</title>
<g id="a_Node000006"><a xlink:title=" ">
<polygon fill="#e0e0e0" stroke="#999999" points="727.75,-26 579,-26 579,-6 727.75,-6 727.75,-26"/>
<text text-anchor="middle" x="653.38" y="-12.5" font-family="Helvetica,sans-Serif" font-size="10.00">org.mapstruct.factory.Mappers</text>
</a>
</g>
</g>
<!-- Node1&#45;&gt;Node6 -->
<g id="edge5_Node000001_Node000006" class="edge">
<title>Node1&#45;&gt;Node6</title>
<g id="a_edge5_Node000001_Node000006"><a xlink:title=" ">
<path fill="none" stroke="#63b8ff" d="M441.45,-71.11C492.57,-58.06 560.53,-40.71 605.54,-29.21"/>
<polygon fill="#63b8ff" stroke="#63b8ff" points="606.18,-32.66 615,-26.8 604.45,-25.88 606.18,-32.66"/>
</a>
</g>
</g>
</g>
</svg>
