<?xml version="1.0" encoding="UTF-8" standalone="no"?>
<!DOCTYPE svg PUBLIC "-//W3C//DTD SVG 1.1//EN"
 "http://www.w3.org/Graphics/SVG/1.1/DTD/svg11.dtd">
<!-- Generated by graphviz version 12.2.1 (20241206.2353)
 -->
<!-- Title: src/main/java/fr/softsf/sudokufx/repository/MenuRepository.java Pages: 1 -->
<svg width="539pt" height="108pt"
 viewBox="0.00 0.00 538.50 108.00" xmlns="http://www.w3.org/2000/svg" xmlns:xlink="http://www.w3.org/1999/xlink">
<g id="graph0" class="graph" transform="scale(1 1) rotate(0) translate(4 104)">
<title>src/main/java/fr/softsf/sudokufx/repository/MenuRepository.java</title>
<!-- Node1 -->
<g id="Node000001" class="node">
<title>Node1</title>
<g id="a_Node000001"><a xlink:title=" ">
<polygon fill="#999999" stroke="#666666" points="360.88,-100 161.88,-100 161.88,-68 360.88,-68 360.88,-100"/>
<text text-anchor="start" x="169.88" y="-86.5" font-family="Helvetica,sans-Serif" font-size="10.00">src/main/java/fr/softsf</text>
<text text-anchor="middle" x="261.38" y="-74.5" font-family="Helvetica,sans-Serif" font-size="10.00">/sudokufx/repository/MenuRepository.java</text>
</a>
</g>
</g>
<!-- Node2 -->
<g id="Node000002" class="node">
<title>Node2</title>
<g id="a_Node000002"><a xlink:title=" ">
<polygon fill="#e0e0e0" stroke="#999999" points="148.75,-26 0,-26 0,-6 148.75,-6 148.75,-26"/>
<text text-anchor="middle" x="74.38" y="-12.5" font-family="Helvetica,sans-Serif" font-size="10.00">fr.softsf.sudokufx.model.Menu</text>
</a>
</g>
</g>
<!-- Node1&#45;&gt;Node2 -->
<g id="edge1_Node000001_Node000002" class="edge">
<title>Node1&#45;&gt;Node2</title>
<g id="a_edge1_Node000001_Node000002"><a xlink:title=" ">
<path fill="none" stroke="#63b8ff" d="M217.53,-67.53C185.42,-56.19 142.3,-40.97 111.8,-30.21"/>
<polygon fill="#63b8ff" stroke="#63b8ff" points="113.2,-26.99 102.61,-26.96 110.87,-33.59 113.2,-26.99"/>
</a>
</g>
</g>
<!-- Node3 -->
<g id="Node000003" class="node">
<title>Node3</title>
<g id="a_Node000003"><a xlink:title=" ">
<polygon fill="#e0e0e0" stroke="#999999" points="356.38,-32 166.38,-32 166.38,0 356.38,0 356.38,-32"/>
<text text-anchor="start" x="174.38" y="-18.5" font-family="Helvetica,sans-Serif" font-size="10.00">org.springframework.data.jpa.repository.</text>
<text text-anchor="middle" x="261.38" y="-6.5" font-family="Helvetica,sans-Serif" font-size="10.00">JpaRepository</text>
</a>
</g>
</g>
<!-- Node1&#45;&gt;Node3 -->
<g id="edge2_Node000001_Node000003" class="edge">
<title>Node1&#45;&gt;Node3</title>
<g id="a_edge2_Node000001_Node000003"><a xlink:title=" ">
<path fill="none" stroke="#63b8ff" d="M261.38,-67.69C261.38,-60.53 261.38,-51.79 261.38,-43.59"/>
<polygon fill="#63b8ff" stroke="#63b8ff" points="264.88,-43.74 261.38,-33.74 257.88,-43.74 264.88,-43.74"/>
</a>
</g>
</g>
<!-- Node4 -->
<g id="Node000004" class="node">
<title>Node4</title>
<g id="a_Node000004"><a xlink:title=" ">
<polygon fill="#e0e0e0" stroke="#999999" points="530.5,-32 374.25,-32 374.25,0 530.5,0 530.5,-32"/>
<text text-anchor="start" x="382.25" y="-18.5" font-family="Helvetica,sans-Serif" font-size="10.00">org.springframework.stereotype.</text>
<text text-anchor="middle" x="452.38" y="-6.5" font-family="Helvetica,sans-Serif" font-size="10.00">Repository</text>
</a>
</g>
</g>
<!-- Node1&#45;&gt;Node4 -->
<g id="edge3_Node000001_Node000004" class="edge">
<title>Node1&#45;&gt;Node4</title>
<g id="a_edge3_Node000001_Node000004"><a xlink:title=" ">
<path fill="none" stroke="#63b8ff" d="M306.16,-67.53C333.24,-58.17 367.99,-46.16 396.81,-36.2"/>
<polygon fill="#63b8ff" stroke="#63b8ff" points="397.8,-39.56 406.11,-32.99 395.52,-32.94 397.8,-39.56"/>
</a>
</g>
</g>
</g>
</svg>
