<?xml version="1.0" encoding="UTF-8" standalone="no"?>
<!DOCTYPE svg PUBLIC "-//W3C//DTD SVG 1.1//EN"
 "http://www.w3.org/Graphics/SVG/1.1/DTD/svg11.dtd">
<!-- Generated by graphviz version 12.2.1 (20241206.2353)
 -->
<!-- Title: src/main/java/fr/softsf/sudokufx/utils/MyRegex.java Pages: 1 -->
<svg width="861pt" height="108pt"
 viewBox="0.00 0.00 861.25 108.00" xmlns="http://www.w3.org/2000/svg" xmlns:xlink="http://www.w3.org/1999/xlink">
<g id="graph0" class="graph" transform="scale(1 1) rotate(0) translate(4 104)">
<title>src/main/java/fr/softsf/sudokufx/utils/MyRegex.java</title>
<!-- Node1 -->
<g id="Node000001" class="node">
<title>Node1</title>
<g id="a_Node000001"><a xlink:title=" ">
<polygon fill="#999999" stroke="#666666" points="544.5,-100 398.75,-100 398.75,-68 544.5,-68 544.5,-100"/>
<text text-anchor="start" x="406.75" y="-86.5" font-family="Helvetica,sans-Serif" font-size="10.00">src/main/java/fr/softsf</text>
<text text-anchor="middle" x="471.62" y="-74.5" font-family="Helvetica,sans-Serif" font-size="10.00">/sudokufx/utils/MyRegex.java</text>
</a>
</g>
</g>
<!-- Node2 -->
<g id="Node000002" class="node">
<title>Node2</title>
<g id="a_Node000002"><a xlink:title=" ">
<polygon fill="#e0e0e0" stroke="#999999" points="195.25,-32 0,-32 0,0 195.25,0 195.25,-32"/>
<text text-anchor="start" x="8" y="-18.5" font-family="Helvetica,sans-Serif" font-size="10.00">fr.softsf.sudokufx.annotations.</text>
<text text-anchor="middle" x="97.62" y="-6.5" font-family="Helvetica,sans-Serif" font-size="10.00">ExcludedFromCoverageReportGenerated</text>
</a>
</g>
</g>
<!-- Node1&#45;&gt;Node2 -->
<g id="edge1_Node000001_Node000002" class="edge">
<title>Node1&#45;&gt;Node2</title>
<g id="a_edge1_Node000001_Node000002"><a xlink:title=" ">
<path fill="none" stroke="#63b8ff" d="M398.63,-70.12C340.97,-59.94 259.94,-45.64 196.47,-34.44"/>
<polygon fill="#63b8ff" stroke="#63b8ff" points="197.18,-31.02 186.73,-32.72 195.97,-37.91 197.18,-31.02"/>
</a>
</g>
</g>
<!-- Node3 -->
<g id="Node000003" class="node">
<title>Node3</title>
<g id="a_Node000003"><a xlink:title=" ">
<polygon fill="#e0e0e0" stroke="#999999" points="356.38,-32 212.88,-32 212.88,0 356.38,0 356.38,-32"/>
<text text-anchor="start" x="220.88" y="-18.5" font-family="Helvetica,sans-Serif" font-size="10.00">jakarta.validation.constraints.</text>
<text text-anchor="middle" x="284.62" y="-6.5" font-family="Helvetica,sans-Serif" font-size="10.00">NotNull</text>
</a>
</g>
</g>
<!-- Node1&#45;&gt;Node3 -->
<g id="edge2_Node000001_Node000003" class="edge">
<title>Node1&#45;&gt;Node3</title>
<g id="a_edge2_Node000001_Node000003"><a xlink:title=" ">
<path fill="none" stroke="#63b8ff" d="M427.78,-67.53C401.27,-58.17 367.25,-46.16 339.02,-36.2"/>
<polygon fill="#63b8ff" stroke="#63b8ff" points="340.54,-33.02 329.94,-33 338.21,-39.62 340.54,-33.02"/>
</a>
</g>
</g>
<!-- Node4 -->
<g id="Node000004" class="node">
<title>Node4</title>
<g id="a_Node000004"><a xlink:title=" ">
<polygon fill="#e0e0e0" stroke="#999999" points="452.38,-26 374.88,-26 374.88,-6 452.38,-6 452.38,-26"/>
<text text-anchor="middle" x="413.62" y="-12.5" font-family="Helvetica,sans-Serif" font-size="10.00">lombok.Getter</text>
</a>
</g>
</g>
<!-- Node1&#45;&gt;Node4 -->
<g id="edge3_Node000001_Node000004" class="edge">
<title>Node1&#45;&gt;Node4</title>
<g id="a_edge3_Node000001_Node000004"><a xlink:title=" ">
<path fill="none" stroke="#63b8ff" d="M458.17,-67.69C449.56,-57.9 438.36,-45.15 429.34,-34.89"/>
<polygon fill="#63b8ff" stroke="#63b8ff" points="432.04,-32.65 422.81,-27.45 426.78,-37.28 432.04,-32.65"/>
</a>
</g>
</g>
<!-- Node5 -->
<g id="Node000005" class="node">
<title>Node5</title>
<g id="a_Node000005"><a xlink:title=" ">
<polygon fill="#e0e0e0" stroke="#999999" points="591.12,-26 470.12,-26 470.12,-6 591.12,-6 591.12,-26"/>
<text text-anchor="middle" x="530.62" y="-12.5" font-family="Helvetica,sans-Serif" font-size="10.00">lombok.extern.slf4j.Slf4j</text>
</a>
</g>
</g>
<!-- Node1&#45;&gt;Node5 -->
<g id="edge4_Node000001_Node000005" class="edge">
<title>Node1&#45;&gt;Node5</title>
<g id="a_edge4_Node000001_Node000005"><a xlink:title=" ">
<path fill="none" stroke="#63b8ff" d="M485.31,-67.69C494.07,-57.9 505.46,-45.15 514.64,-34.89"/>
<polygon fill="#63b8ff" stroke="#63b8ff" points="517.23,-37.23 521.29,-27.44 512.01,-32.57 517.23,-37.23"/>
</a>
</g>
</g>
<!-- Node6 -->
<g id="Node000006" class="node">
<title>Node6</title>
<g id="a_Node000006"><a xlink:title=" ">
<polygon fill="#e0e0e0" stroke="#999999" points="724.12,-26 609.12,-26 609.12,-6 724.12,-6 724.12,-26"/>
<text text-anchor="middle" x="666.62" y="-12.5" font-family="Helvetica,sans-Serif" font-size="10.00">java.util.regex.Matcher</text>
</a>
</g>
</g>
<!-- Node1&#45;&gt;Node6 -->
<g id="edge5_Node000001_Node000006" class="edge">
<title>Node1&#45;&gt;Node6</title>
<g id="a_edge5_Node000001_Node000006"><a xlink:title=" ">
<path fill="none" stroke="#63b8ff" d="M517.34,-67.53C550.98,-56.14 596.19,-40.84 628.02,-30.07"/>
<polygon fill="#63b8ff" stroke="#63b8ff" points="628.89,-33.47 637.24,-26.95 626.65,-26.84 628.89,-33.47"/>
</a>
</g>
</g>
<!-- Node7 -->
<g id="Node000007" class="node">
<title>Node7</title>
<g id="a_Node000007"><a xlink:title=" ">
<polygon fill="#e0e0e0" stroke="#999999" points="853.25,-26 742,-26 742,-6 853.25,-6 853.25,-26"/>
<text text-anchor="middle" x="797.62" y="-12.5" font-family="Helvetica,sans-Serif" font-size="10.00">java.util.regex.Pattern</text>
</a>
</g>
</g>
<!-- Node1&#45;&gt;Node7 -->
<g id="edge6_Node000001_Node000007" class="edge">
<title>Node1&#45;&gt;Node7</title>
<g id="a_edge6_Node000001_Node000007"><a xlink:title=" ">
<path fill="none" stroke="#63b8ff" d="M544.9,-69.51C597.52,-59.63 670.08,-45.63 733.62,-32 738.14,-31.03 742.84,-29.99 747.53,-28.93"/>
<polygon fill="#63b8ff" stroke="#63b8ff" points="747.98,-32.42 756.94,-26.78 746.41,-25.6 747.98,-32.42"/>
</a>
</g>
</g>
</g>
</svg>
