<?xml version="1.0" encoding="UTF-8" standalone="no"?>
<!DOCTYPE svg PUBLIC "-//W3C//DTD SVG 1.1//EN"
 "http://www.w3.org/Graphics/SVG/1.1/DTD/svg11.dtd">
<!-- Generated by graphviz version 12.2.1 (20241206.2353)
 -->
<!-- Title: src/main/java/fr/softsf/sudokufx/configuration/os/OsFolderInitializer.java Pages: 1 -->
<svg width="210pt" height="108pt"
 viewBox="0.00 0.00 210.12 108.00" xmlns="http://www.w3.org/2000/svg" xmlns:xlink="http://www.w3.org/1999/xlink">
<g id="graph0" class="graph" transform="scale(1 1) rotate(0) translate(4 104)">
<title>src/main/java/fr/softsf/sudokufx/configuration/os/OsFolderInitializer.java</title>
<!-- Node1 -->
<g id="Node000001" class="node">
<title>Node1</title>
<g id="a_Node000001"><a xlink:title=" ">
<polygon fill="#999999" stroke="#666666" points="181.62,-100 49.38,-100 49.38,-56 181.62,-56 181.62,-100"/>
<text text-anchor="start" x="57.38" y="-86.5" font-family="Helvetica,sans-Serif" font-size="10.00">src/main/java/fr/softsf</text>
<text text-anchor="start" x="57.38" y="-74.5" font-family="Helvetica,sans-Serif" font-size="10.00">/sudokufx/configuration</text>
<text text-anchor="middle" x="115.5" y="-62.5" font-family="Helvetica,sans-Serif" font-size="10.00">/os/OsFolderInitializer.java</text>
</a>
</g>
</g>
<!-- Node2 -->
<g id="Node000002" class="node">
<title>Node2</title>
<g id="a_Node000002"><a xlink:title=" ">
<polygon fill="#e0e0e0" stroke="#999999" points="121,-20 0,-20 0,0 121,0 121,-20"/>
<text text-anchor="middle" x="60.5" y="-6.5" font-family="Helvetica,sans-Serif" font-size="10.00">lombok.extern.slf4j.Slf4j</text>
</a>
</g>
</g>
<!-- Node1&#45;&gt;Node2 -->
<g id="edge1_Node000001_Node000002" class="edge">
<title>Node1&#45;&gt;Node2</title>
<g id="a_edge1_Node000001_Node000002"><a xlink:title=" ">
<path fill="none" stroke="#63b8ff" d="M97.79,-55.75C90.66,-47.2 82.52,-37.42 75.66,-29.2"/>
<polygon fill="#63b8ff" stroke="#63b8ff" points="78.41,-27.02 69.32,-21.58 73.03,-31.5 78.41,-27.02"/>
</a>
</g>
</g>
<!-- Node3 -->
<g id="Node000003" class="node">
<title>Node3</title>
<g id="a_Node000003"><a xlink:title=" ">
<polygon fill="#e0e0e0" stroke="#999999" points="202.12,-20 138.88,-20 138.88,0 202.12,0 202.12,-20"/>
<text text-anchor="middle" x="170.5" y="-6.5" font-family="Helvetica,sans-Serif" font-size="10.00">java.io.File</text>
</a>
</g>
</g>
<!-- Node1&#45;&gt;Node3 -->
<g id="edge2_Node000001_Node000003" class="edge">
<title>Node1&#45;&gt;Node3</title>
<g id="a_edge2_Node000001_Node000003"><a xlink:title=" ">
<path fill="none" stroke="#63b8ff" d="M133.21,-55.75C140.34,-47.2 148.48,-37.42 155.34,-29.2"/>
<polygon fill="#63b8ff" stroke="#63b8ff" points="157.97,-31.5 161.68,-21.58 152.59,-27.02 157.97,-31.5"/>
</a>
</g>
</g>
</g>
</svg>
