<?xml version="1.0" encoding="UTF-8" standalone="no"?>
<!DOCTYPE svg PUBLIC "-//W3C//DTD SVG 1.1//EN"
 "http://www.w3.org/Graphics/SVG/1.1/DTD/svg11.dtd">
<!-- Generated by graphviz version 12.2.1 (20241206.2353)
 -->
<!-- Title: src/main/java/fr/softsf/sudokufx/dto/PlayerLanguageDto.java Pages: 1 -->
<svg width="332pt" height="120pt"
 viewBox="0.00 0.00 332.25 120.00" xmlns="http://www.w3.org/2000/svg" xmlns:xlink="http://www.w3.org/1999/xlink">
<g id="graph0" class="graph" transform="scale(1 1) rotate(0) translate(4 116)">
<title>src/main/java/fr/softsf/sudokufx/dto/PlayerLanguageDto.java</title>
<!-- Node1 -->
<g id="Node000001" class="node">
<title>Node1</title>
<g id="a_Node000001"><a xlink:title=" ">
<polygon fill="#999999" stroke="#666666" points="230.75,-112 82.75,-112 82.75,-68 230.75,-68 230.75,-112"/>
<text text-anchor="start" x="90.75" y="-98.5" font-family="Helvetica,sans-Serif" font-size="10.00">src/main/java/fr/softsf</text>
<text text-anchor="start" x="90.75" y="-86.5" font-family="Helvetica,sans-Serif" font-size="10.00">/sudokufx/dto/PlayerLanguage</text>
<text text-anchor="middle" x="156.75" y="-74.5" font-family="Helvetica,sans-Serif" font-size="10.00">Dto.java</text>
</a>
</g>
</g>
<!-- Node2 -->
<g id="Node000002" class="node">
<title>Node2</title>
<g id="a_Node000002"><a xlink:title=" ">
<polygon fill="#e0e0e0" stroke="#999999" points="143.5,-32 0,-32 0,0 143.5,0 143.5,-32"/>
<text text-anchor="start" x="8" y="-18.5" font-family="Helvetica,sans-Serif" font-size="10.00">jakarta.validation.constraints.</text>
<text text-anchor="middle" x="71.75" y="-6.5" font-family="Helvetica,sans-Serif" font-size="10.00">NotNull</text>
</a>
</g>
</g>
<!-- Node1&#45;&gt;Node2 -->
<g id="edge1_Node000001_Node000002" class="edge">
<title>Node1&#45;&gt;Node2</title>
<g id="a_edge1_Node000001_Node000002"><a xlink:title=" ">
<path fill="none" stroke="#63b8ff" d="M131.71,-67.79C121.22,-58.91 109.03,-48.58 98.38,-39.56"/>
<polygon fill="#63b8ff" stroke="#63b8ff" points="100.92,-37.12 91.03,-33.33 96.4,-42.46 100.92,-37.12"/>
</a>
</g>
</g>
<!-- Node3 -->
<g id="Node000003" class="node">
<title>Node3</title>
<g id="a_Node000003"><a xlink:title=" ">
<polygon fill="#e0e0e0" stroke="#999999" points="324.25,-26 161.25,-26 161.25,-6 324.25,-6 324.25,-26"/>
<text text-anchor="middle" x="242.75" y="-12.5" font-family="Helvetica,sans-Serif" font-size="10.00">jakarta.validation.constraints.Size</text>
</a>
</g>
</g>
<!-- Node1&#45;&gt;Node3 -->
<g id="edge2_Node000001_Node000003" class="edge">
<title>Node1&#45;&gt;Node3</title>
<g id="a_edge2_Node000001_Node000003"><a xlink:title=" ">
<path fill="none" stroke="#63b8ff" d="M182.09,-67.79C195.2,-56.81 210.95,-43.62 223.12,-33.43"/>
<polygon fill="#63b8ff" stroke="#63b8ff" points="225.05,-36.39 230.47,-27.28 220.55,-31.02 225.05,-36.39"/>
</a>
</g>
</g>
</g>
</svg>
