<?xml version="1.0" encoding="UTF-8" standalone="no"?>
<!DOCTYPE svg PUBLIC "-//W3C//DTD SVG 1.1//EN"
 "http://www.w3.org/Graphics/SVG/1.1/DTD/svg11.dtd">
<!-- Generated by graphviz version 12.2.1 (20241206.2353)
 -->
<!-- Title: src/main/java/fr/softsf/sudokufx/model/PlayerLanguage.java Pages: 1 -->
<svg width="528pt" height="108pt"
 viewBox="0.00 0.00 527.75 108.00" xmlns="http://www.w3.org/2000/svg" xmlns:xlink="http://www.w3.org/1999/xlink">
<g id="graph0" class="graph" transform="scale(1 1) rotate(0) translate(4 104)">
<title>src/main/java/fr/softsf/sudokufx/model/PlayerLanguage.java</title>
<!-- Node1 -->
<g id="Node000001" class="node">
<title>Node1</title>
<g id="a_Node000001"><a xlink:title=" ">
<polygon fill="#999999" stroke="#666666" points="370.5,-100 188.75,-100 188.75,-68 370.5,-68 370.5,-100"/>
<text text-anchor="start" x="196.75" y="-86.5" font-family="Helvetica,sans-Serif" font-size="10.00">src/main/java/fr/softsf</text>
<text text-anchor="middle" x="279.62" y="-74.5" font-family="Helvetica,sans-Serif" font-size="10.00">/sudokufx/model/PlayerLanguage.java</text>
</a>
</g>
</g>
<!-- Node2 -->
<g id="Node000002" class="node">
<title>Node2</title>
<g id="a_Node000002"><a xlink:title=" ">
<polygon fill="#e0e0e0" stroke="#999999" points="105.25,-26 0,-26 0,-6 105.25,-6 105.25,-26"/>
<text text-anchor="middle" x="52.62" y="-12.5" font-family="Helvetica,sans-Serif" font-size="10.00">jakarta.persistence.*</text>
</a>
</g>
</g>
<!-- Node1&#45;&gt;Node2 -->
<g id="edge1_Node000001_Node000002" class="edge">
<title>Node1&#45;&gt;Node2</title>
<g id="a_edge1_Node000001_Node000002"><a xlink:title=" ">
<path fill="none" stroke="#63b8ff" d="M226.4,-67.53C186.74,-55.99 133.24,-40.44 96.12,-29.65"/>
<polygon fill="#63b8ff" stroke="#63b8ff" points="97.19,-26.31 86.62,-26.88 95.24,-33.04 97.19,-26.31"/>
</a>
</g>
</g>
<!-- Node3 -->
<g id="Node000003" class="node">
<title>Node3</title>
<g id="a_Node000003"><a xlink:title=" ">
<polygon fill="#e0e0e0" stroke="#999999" points="266.38,-32 122.88,-32 122.88,0 266.38,0 266.38,-32"/>
<text text-anchor="start" x="130.88" y="-18.5" font-family="Helvetica,sans-Serif" font-size="10.00">jakarta.validation.constraints.</text>
<text text-anchor="middle" x="194.62" y="-6.5" font-family="Helvetica,sans-Serif" font-size="10.00">NotNull</text>
</a>
</g>
</g>
<!-- Node1&#45;&gt;Node3 -->
<g id="edge2_Node000001_Node000003" class="edge">
<title>Node1&#45;&gt;Node3</title>
<g id="a_edge2_Node000001_Node000003"><a xlink:title=" ">
<path fill="none" stroke="#63b8ff" d="M259.91,-67.69C249.05,-59.26 235.36,-48.63 223.33,-39.29"/>
<polygon fill="#63b8ff" stroke="#63b8ff" points="225.77,-36.75 215.72,-33.38 221.47,-42.28 225.77,-36.75"/>
</a>
</g>
</g>
<!-- Node4 -->
<g id="Node000004" class="node">
<title>Node4</title>
<g id="a_Node000004"><a xlink:title=" ">
<polygon fill="#e0e0e0" stroke="#999999" points="447.12,-26 284.12,-26 284.12,-6 447.12,-6 447.12,-26"/>
<text text-anchor="middle" x="365.62" y="-12.5" font-family="Helvetica,sans-Serif" font-size="10.00">jakarta.validation.constraints.Size</text>
</a>
</g>
</g>
<!-- Node1&#45;&gt;Node4 -->
<g id="edge3_Node000001_Node000004" class="edge">
<title>Node1&#45;&gt;Node4</title>
<g id="a_edge3_Node000001_Node000004"><a xlink:title=" ">
<path fill="none" stroke="#63b8ff" d="M299.57,-67.69C313.12,-57.3 331,-43.57 344.74,-33.03"/>
<polygon fill="#63b8ff" stroke="#63b8ff" points="346.48,-36.1 352.28,-27.24 342.22,-30.55 346.48,-36.1"/>
</a>
</g>
</g>
<!-- Node5 -->
<g id="Node000005" class="node">
<title>Node5</title>
<g id="a_Node000005"><a xlink:title=" ">
<polygon fill="#e0e0e0" stroke="#999999" points="519.75,-26 465.5,-26 465.5,-6 519.75,-6 519.75,-26"/>
<text text-anchor="middle" x="492.62" y="-12.5" font-family="Helvetica,sans-Serif" font-size="10.00">lombok.*</text>
</a>
</g>
</g>
<!-- Node1&#45;&gt;Node5 -->
<g id="edge4_Node000001_Node000005" class="edge">
<title>Node1&#45;&gt;Node5</title>
<g id="a_edge4_Node000001_Node000005"><a xlink:title=" ">
<path fill="none" stroke="#63b8ff" d="M339.56,-67.56C374.1,-58.21 418.15,-45.51 456.62,-32 457.95,-31.53 459.31,-31.04 460.67,-30.54"/>
<polygon fill="#63b8ff" stroke="#63b8ff" points="461.64,-33.91 469.67,-27 459.08,-27.4 461.64,-33.91"/>
</a>
</g>
</g>
</g>
</svg>
