<?xml version="1.0" encoding="UTF-8" standalone="no"?>
<!DOCTYPE svg PUBLIC "-//W3C//DTD SVG 1.1//EN"
 "http://www.w3.org/Graphics/SVG/1.1/DTD/svg11.dtd">
<!-- Generated by graphviz version 12.2.1 (20241206.2353)
 -->
<!-- Title: src/main/java/fr/softsf/sudokufx/configuration/database/keystore/SecretKeyEncryptionServiceAESGCM.java Pages: 1 -->
<svg width="1702pt" height="132pt"
 viewBox="0.00 0.00 1701.50 132.00" xmlns="http://www.w3.org/2000/svg" xmlns:xlink="http://www.w3.org/1999/xlink">
<g id="graph0" class="graph" transform="scale(1 1) rotate(0) translate(4 128)">
<title>src/main/java/fr/softsf/sudokufx/configuration/database/keystore/SecretKeyEncryptionServiceAESGCM.java</title>
<!-- Node1 -->
<g id="Node000001" class="node">
<title>Node1</title>
<g id="a_Node000001"><a xlink:title=" ">
<polygon fill="#999999" stroke="#666666" points="948.88,-124 754.38,-124 754.38,-68 948.88,-68 948.88,-124"/>
<text text-anchor="start" x="762.38" y="-110.5" font-family="Helvetica,sans-Serif" font-size="10.00">src/main/java/fr/softsf</text>
<text text-anchor="start" x="762.38" y="-98.5" font-family="Helvetica,sans-Serif" font-size="10.00">/sudokufx/configuration</text>
<text text-anchor="start" x="762.38" y="-86.5" font-family="Helvetica,sans-Serif" font-size="10.00">/database/keystore/SecretKeyEncryption</text>
<text text-anchor="middle" x="851.62" y="-74.5" font-family="Helvetica,sans-Serif" font-size="10.00">ServiceAESGCM.java</text>
</a>
</g>
</g>
<!-- Node2 -->
<g id="Node000002" class="node">
<title>Node2</title>
<g id="a_Node000002"><a xlink:title=" ">
<polygon fill="#e0e0e0" stroke="#999999" points="195.25,-32 0,-32 0,0 195.25,0 195.25,-32"/>
<text text-anchor="start" x="8" y="-18.5" font-family="Helvetica,sans-Serif" font-size="10.00">fr.softsf.sudokufx.annotations.</text>
<text text-anchor="middle" x="97.62" y="-6.5" font-family="Helvetica,sans-Serif" font-size="10.00">ExcludedFromCoverageReportGenerated</text>
</a>
</g>
</g>
<!-- Node1&#45;&gt;Node2 -->
<g id="edge1_Node000001_Node000002" class="edge">
<title>Node1&#45;&gt;Node2</title>
<g id="a_edge1_Node000001_Node000002"><a xlink:title=" ">
<path fill="none" stroke="#63b8ff" d="M754.05,-86.85C629.46,-76.14 406.94,-56.01 206.82,-32.35"/>
<polygon fill="#63b8ff" stroke="#63b8ff" points="207.35,-28.89 197,-31.19 206.52,-35.84 207.35,-28.89"/>
</a>
</g>
</g>
<!-- Node3 -->
<g id="Node000003" class="node">
<title>Node3</title>
<g id="a_Node000003"><a xlink:title=" ">
<polygon fill="#e0e0e0" stroke="#999999" points="356.38,-32 212.88,-32 212.88,0 356.38,0 356.38,-32"/>
<text text-anchor="start" x="220.88" y="-18.5" font-family="Helvetica,sans-Serif" font-size="10.00">jakarta.validation.constraints.</text>
<text text-anchor="middle" x="284.62" y="-6.5" font-family="Helvetica,sans-Serif" font-size="10.00">NotBlank</text>
</a>
</g>
</g>
<!-- Node1&#45;&gt;Node3 -->
<g id="edge2_Node000001_Node000003" class="edge">
<title>Node1&#45;&gt;Node3</title>
<g id="a_edge2_Node000001_Node000003"><a xlink:title=" ">
<path fill="none" stroke="#63b8ff" d="M753.91,-84.01C658.01,-72.85 507.34,-54.3 367.86,-32.47"/>
<polygon fill="#63b8ff" stroke="#63b8ff" points="368.47,-29.02 358.05,-30.92 367.38,-35.93 368.47,-29.02"/>
</a>
</g>
</g>
<!-- Node4 -->
<g id="Node000004" class="node">
<title>Node4</title>
<g id="a_Node000004"><a xlink:title=" ">
<polygon fill="#e0e0e0" stroke="#999999" points="495.12,-26 374.12,-26 374.12,-6 495.12,-6 495.12,-26"/>
<text text-anchor="middle" x="434.62" y="-12.5" font-family="Helvetica,sans-Serif" font-size="10.00">lombok.extern.slf4j.Slf4j</text>
</a>
</g>
</g>
<!-- Node1&#45;&gt;Node4 -->
<g id="edge3_Node000001_Node000004" class="edge">
<title>Node1&#45;&gt;Node4</title>
<g id="a_edge3_Node000001_Node000004"><a xlink:title=" ">
<path fill="none" stroke="#63b8ff" d="M754.25,-78.17C684.61,-65.92 588.71,-48.64 504.62,-32 499.49,-30.98 494.14,-29.89 488.8,-28.78"/>
<polygon fill="#63b8ff" stroke="#63b8ff" points="489.88,-25.44 479.38,-26.81 488.44,-32.29 489.88,-25.44"/>
</a>
</g>
</g>
<!-- Node5 -->
<g id="Node000005" class="node">
<title>Node5</title>
<g id="a_Node000005"><a xlink:title=" ">
<polygon fill="#e0e0e0" stroke="#999999" points="614,-26 513.25,-26 513.25,-6 614,-6 614,-26"/>
<text text-anchor="middle" x="563.62" y="-12.5" font-family="Helvetica,sans-Serif" font-size="10.00">javax.crypto.Cipher</text>
</a>
</g>
</g>
<!-- Node1&#45;&gt;Node5 -->
<g id="edge4_Node000001_Node000005" class="edge">
<title>Node1&#45;&gt;Node5</title>
<g id="a_edge4_Node000001_Node000005"><a xlink:title=" ">
<path fill="none" stroke="#63b8ff" d="M754.12,-68.59C705.26,-55.36 648.39,-39.96 609.6,-29.45"/>
<polygon fill="#63b8ff" stroke="#63b8ff" points="610.69,-26.12 600.12,-26.88 608.86,-32.88 610.69,-26.12"/>
</a>
</g>
</g>
<!-- Node6 -->
<g id="Node000006" class="node">
<title>Node6</title>
<g id="a_Node000006"><a xlink:title=" ">
<polygon fill="#e0e0e0" stroke="#999999" points="775,-32 632.25,-32 632.25,0 775,0 775,-32"/>
<text text-anchor="start" x="640.25" y="-18.5" font-family="Helvetica,sans-Serif" font-size="10.00">javax.crypto.NoSuchPadding</text>
<text text-anchor="middle" x="703.62" y="-6.5" font-family="Helvetica,sans-Serif" font-size="10.00">Exception</text>
</a>
</g>
</g>
<!-- Node1&#45;&gt;Node6 -->
<g id="edge5_Node000001_Node000006" class="edge">
<title>Node1&#45;&gt;Node6</title>
<g id="a_edge5_Node000001_Node000006"><a xlink:title=" ">
<path fill="none" stroke="#63b8ff" d="M799.45,-67.5C780.8,-57.67 760.13,-46.78 742.77,-37.63"/>
<polygon fill="#63b8ff" stroke="#63b8ff" points="744.79,-34.74 734.31,-33.17 741.53,-40.93 744.79,-34.74"/>
</a>
</g>
</g>
<!-- Node7 -->
<g id="Node000007" class="node">
<title>Node7</title>
<g id="a_Node000007"><a xlink:title=" ">
<polygon fill="#e0e0e0" stroke="#999999" points="910.62,-26 792.62,-26 792.62,-6 910.62,-6 910.62,-26"/>
<text text-anchor="middle" x="851.62" y="-12.5" font-family="Helvetica,sans-Serif" font-size="10.00">javax.crypto.SecretKey</text>
</a>
</g>
</g>
<!-- Node1&#45;&gt;Node7 -->
<g id="edge6_Node000001_Node000007" class="edge">
<title>Node1&#45;&gt;Node7</title>
<g id="a_edge6_Node000001_Node000007"><a xlink:title=" ">
<path fill="none" stroke="#63b8ff" d="M851.62,-67.72C851.62,-57.81 851.62,-46.79 851.62,-37.56"/>
<polygon fill="#63b8ff" stroke="#63b8ff" points="855.13,-37.87 851.63,-27.87 848.13,-37.87 855.13,-37.87"/>
</a>
</g>
</g>
<!-- Node8 -->
<g id="Node000008" class="node">
<title>Node8</title>
<g id="a_Node000008"><a xlink:title=" ">
<polygon fill="#e0e0e0" stroke="#999999" points="1116.12,-26 929.12,-26 929.12,-6 1116.12,-6 1116.12,-26"/>
<text text-anchor="middle" x="1022.62" y="-12.5" font-family="Helvetica,sans-Serif" font-size="10.00">javax.crypto.spec.GCMParameterSpec</text>
</a>
</g>
</g>
<!-- Node1&#45;&gt;Node8 -->
<g id="edge7_Node000001_Node000008" class="edge">
<title>Node1&#45;&gt;Node8</title>
<g id="a_edge7_Node000001_Node000008"><a xlink:title=" ">
<path fill="none" stroke="#63b8ff" d="M911.91,-67.5C938.73,-55.27 969.18,-41.38 991.35,-31.27"/>
<polygon fill="#63b8ff" stroke="#63b8ff" points="992.8,-34.45 1000.44,-27.12 989.89,-28.08 992.8,-34.45"/>
</a>
</g>
</g>
<!-- Node9 -->
<g id="Node000009" class="node">
<title>Node9</title>
<g id="a_Node000009"><a xlink:title=" ">
<polygon fill="#e0e0e0" stroke="#999999" points="1261.12,-32 1134.12,-32 1134.12,0 1261.12,0 1261.12,-32"/>
<text text-anchor="start" x="1142.12" y="-18.5" font-family="Helvetica,sans-Serif" font-size="10.00">java.nio.charset.Standard</text>
<text text-anchor="middle" x="1197.62" y="-6.5" font-family="Helvetica,sans-Serif" font-size="10.00">Charsets</text>
</a>
</g>
</g>
<!-- Node1&#45;&gt;Node9 -->
<g id="edge8_Node000001_Node000009" class="edge">
<title>Node1&#45;&gt;Node9</title>
<g id="a_edge8_Node000001_Node000009"><a xlink:title=" ">
<path fill="none" stroke="#63b8ff" d="M948.93,-73.07C1004.05,-60.64 1071.94,-45.33 1122.85,-33.86"/>
<polygon fill="#63b8ff" stroke="#63b8ff" points="1123.31,-37.34 1132.3,-31.73 1121.77,-30.51 1123.31,-37.34"/>
</a>
</g>
</g>
<!-- Node10 -->
<g id="Node000010" class="node">
<title>Node10</title>
<g id="a_Node000010"><a xlink:title=" ">
<polygon fill="#e0e0e0" stroke="#999999" points="1429.75,-32 1279.5,-32 1279.5,0 1429.75,0 1429.75,-32"/>
<text text-anchor="start" x="1287.5" y="-18.5" font-family="Helvetica,sans-Serif" font-size="10.00">java.security.NoSuchAlgorithm</text>
<text text-anchor="middle" x="1354.62" y="-6.5" font-family="Helvetica,sans-Serif" font-size="10.00">Exception</text>
</a>
</g>
</g>
<!-- Node1&#45;&gt;Node10 -->
<g id="edge9_Node000001_Node000010" class="edge">
<title>Node1&#45;&gt;Node10</title>
<g id="a_edge9_Node000001_Node000010"><a xlink:title=" ">
<path fill="none" stroke="#63b8ff" d="M949.11,-81.12C1031.45,-69.21 1152.79,-51.25 1267.96,-32.42"/>
<polygon fill="#63b8ff" stroke="#63b8ff" points="1268.29,-35.91 1277.59,-30.84 1267.16,-29 1268.29,-35.91"/>
</a>
</g>
</g>
<!-- Node11 -->
<g id="Node000011" class="node">
<title>Node11</title>
<g id="a_Node000011"><a xlink:title=" ">
<polygon fill="#e0e0e0" stroke="#999999" points="1589.25,-26 1448,-26 1448,-6 1589.25,-6 1589.25,-26"/>
<text text-anchor="middle" x="1518.62" y="-12.5" font-family="Helvetica,sans-Serif" font-size="10.00">java.security.SecureRandom</text>
</a>
</g>
</g>
<!-- Node1&#45;&gt;Node11 -->
<g id="edge10_Node000001_Node000011" class="edge">
<title>Node1&#45;&gt;Node11</title>
<g id="a_edge10_Node000001_Node000011"><a xlink:title=" ">
<path fill="none" stroke="#63b8ff" d="M949.29,-86.88C1066.03,-76.63 1267.13,-57.24 1438.62,-32 1445.6,-30.97 1452.89,-29.78 1460.11,-28.52"/>
<polygon fill="#63b8ff" stroke="#63b8ff" points="1460.64,-31.98 1469.86,-26.77 1459.4,-25.09 1460.64,-31.98"/>
</a>
</g>
</g>
<!-- Node12 -->
<g id="Node000012" class="node">
<title>Node12</title>
<g id="a_Node000012"><a xlink:title=" ">
<polygon fill="#e0e0e0" stroke="#999999" points="1693.5,-26 1607.75,-26 1607.75,-6 1693.5,-6 1693.5,-26"/>
<text text-anchor="middle" x="1650.62" y="-12.5" font-family="Helvetica,sans-Serif" font-size="10.00">java.util.Base64</text>
</a>
</g>
</g>
<!-- Node1&#45;&gt;Node12 -->
<g id="edge11_Node000001_Node000012" class="edge">
<title>Node1&#45;&gt;Node12</title>
<g id="a_edge11_Node000001_Node000012"><a xlink:title=" ">
<path fill="none" stroke="#63b8ff" d="M949.13,-92.88C1092.53,-88.39 1368.25,-74.51 1598.62,-32 1602.65,-31.26 1606.81,-30.33 1610.95,-29.31"/>
<polygon fill="#63b8ff" stroke="#63b8ff" points="1611.49,-32.79 1620.25,-26.82 1609.69,-26.02 1611.49,-32.79"/>
</a>
</g>
</g>
</g>
</svg>
