<?xml version="1.0" encoding="UTF-8" standalone="no"?>
<!DOCTYPE svg PUBLIC "-//W3C//DTD SVG 1.1//EN"
 "http://www.w3.org/Graphics/SVG/1.1/DTD/svg11.dtd">
<!-- Generated by graphviz version 12.2.1 (20241206.2353)
 -->
<!-- Title: src/main/java/fr/softsf/sudokufx/repository/SoftwareRepository.java Pages: 1 -->
<svg width="830pt" height="120pt"
 viewBox="0.00 0.00 829.75 120.00" xmlns="http://www.w3.org/2000/svg" xmlns:xlink="http://www.w3.org/1999/xlink">
<g id="graph0" class="graph" transform="scale(1 1) rotate(0) translate(4 116)">
<title>src/main/java/fr/softsf/sudokufx/repository/SoftwareRepository.java</title>
<!-- Node1 -->
<g id="Node000001" class="node">
<title>Node1</title>
<g id="a_Node000001"><a xlink:title=" ">
<polygon fill="#999999" stroke="#666666" points="518.62,-112 372.12,-112 372.12,-68 518.62,-68 518.62,-112"/>
<text text-anchor="start" x="380.12" y="-98.5" font-family="Helvetica,sans-Serif" font-size="10.00">src/main/java/fr/softsf</text>
<text text-anchor="start" x="380.12" y="-86.5" font-family="Helvetica,sans-Serif" font-size="10.00">/sudokufx/repository/Software</text>
<text text-anchor="middle" x="445.38" y="-74.5" font-family="Helvetica,sans-Serif" font-size="10.00">Repository.java</text>
</a>
</g>
</g>
<!-- Node2 -->
<g id="Node000002" class="node">
<title>Node2</title>
<g id="a_Node000002"><a xlink:title=" ">
<polygon fill="#e0e0e0" stroke="#999999" points="124.75,-32 0,-32 0,0 124.75,0 124.75,-32"/>
<text text-anchor="start" x="8" y="-18.5" font-family="Helvetica,sans-Serif" font-size="10.00">fr.softsf.sudokufx.model.</text>
<text text-anchor="middle" x="62.38" y="-6.5" font-family="Helvetica,sans-Serif" font-size="10.00">Software</text>
</a>
</g>
</g>
<!-- Node1&#45;&gt;Node2 -->
<g id="edge1_Node000001_Node000002" class="edge">
<title>Node1&#45;&gt;Node2</title>
<g id="a_edge1_Node000001_Node000002"><a xlink:title=" ">
<path fill="none" stroke="#63b8ff" d="M371.83,-76.15C311.13,-65.41 222.45,-49.42 136.14,-32.52"/>
<polygon fill="#63b8ff" stroke="#63b8ff" points="137.05,-29.13 126.56,-30.64 135.7,-36 137.05,-29.13"/>
</a>
</g>
</g>
<!-- Node3 -->
<g id="Node000003" class="node">
<title>Node3</title>
<g id="a_Node000003"><a xlink:title=" ">
<polygon fill="#e0e0e0" stroke="#999999" points="332.38,-32 142.38,-32 142.38,0 332.38,0 332.38,-32"/>
<text text-anchor="start" x="150.38" y="-18.5" font-family="Helvetica,sans-Serif" font-size="10.00">org.springframework.data.jpa.repository.</text>
<text text-anchor="middle" x="237.38" y="-6.5" font-family="Helvetica,sans-Serif" font-size="10.00">JpaRepository</text>
</a>
</g>
</g>
<!-- Node1&#45;&gt;Node3 -->
<g id="edge2_Node000001_Node000003" class="edge">
<title>Node1&#45;&gt;Node3</title>
<g id="a_edge2_Node000001_Node000003"><a xlink:title=" ">
<path fill="none" stroke="#63b8ff" d="M383.53,-67.59C354.78,-57.64 320.84,-45.89 292.92,-36.23"/>
<polygon fill="#63b8ff" stroke="#63b8ff" points="294.16,-32.95 283.57,-32.99 291.88,-39.57 294.16,-32.95"/>
</a>
</g>
</g>
<!-- Node4 -->
<g id="Node000004" class="node">
<title>Node4</title>
<g id="a_Node000004"><a xlink:title=" ">
<polygon fill="#e0e0e0" stroke="#999999" points="540.38,-32 350.38,-32 350.38,0 540.38,0 540.38,-32"/>
<text text-anchor="start" x="358.38" y="-18.5" font-family="Helvetica,sans-Serif" font-size="10.00">org.springframework.data.jpa.repository.</text>
<text text-anchor="middle" x="445.38" y="-6.5" font-family="Helvetica,sans-Serif" font-size="10.00">Query</text>
</a>
</g>
</g>
<!-- Node1&#45;&gt;Node4 -->
<g id="edge3_Node000001_Node000004" class="edge">
<title>Node1&#45;&gt;Node4</title>
<g id="a_edge3_Node000001_Node000004"><a xlink:title=" ">
<path fill="none" stroke="#63b8ff" d="M445.38,-67.79C445.38,-60.18 445.38,-51.52 445.38,-43.52"/>
<polygon fill="#63b8ff" stroke="#63b8ff" points="448.88,-43.64 445.38,-33.64 441.88,-43.64 448.88,-43.64"/>
</a>
</g>
</g>
<!-- Node5 -->
<g id="Node000005" class="node">
<title>Node5</title>
<g id="a_Node000005"><a xlink:title=" ">
<polygon fill="#e0e0e0" stroke="#999999" points="714.5,-32 558.25,-32 558.25,0 714.5,0 714.5,-32"/>
<text text-anchor="start" x="566.25" y="-18.5" font-family="Helvetica,sans-Serif" font-size="10.00">org.springframework.stereotype.</text>
<text text-anchor="middle" x="636.38" y="-6.5" font-family="Helvetica,sans-Serif" font-size="10.00">Repository</text>
</a>
</g>
</g>
<!-- Node1&#45;&gt;Node5 -->
<g id="edge4_Node000001_Node000005" class="edge">
<title>Node1&#45;&gt;Node5</title>
<g id="a_edge4_Node000001_Node000005"><a xlink:title=" ">
<path fill="none" stroke="#63b8ff" d="M502.16,-67.59C528.34,-57.73 559.18,-46.1 584.69,-36.48"/>
<polygon fill="#63b8ff" stroke="#63b8ff" points="585.73,-39.83 593.85,-33.03 583.26,-33.28 585.73,-39.83"/>
</a>
</g>
</g>
<!-- Node6 -->
<g id="Node000006" class="node">
<title>Node6</title>
<g id="a_Node000006"><a xlink:title=" ">
<polygon fill="#e0e0e0" stroke="#999999" points="821.75,-26 733,-26 733,-6 821.75,-6 821.75,-26"/>
<text text-anchor="middle" x="777.38" y="-12.5" font-family="Helvetica,sans-Serif" font-size="10.00">java.util.Optional</text>
</a>
</g>
</g>
<!-- Node1&#45;&gt;Node6 -->
<g id="edge5_Node000001_Node000006" class="edge">
<title>Node1&#45;&gt;Node6</title>
<g id="a_edge5_Node000001_Node000006"><a xlink:title=" ">
<path fill="none" stroke="#63b8ff" d="M518.84,-75.36C575.07,-64.59 654.41,-48.63 723.38,-32 726.72,-31.19 730.17,-30.32 733.63,-29.42"/>
<polygon fill="#63b8ff" stroke="#63b8ff" points="734.41,-32.84 743.17,-26.88 732.6,-26.08 734.41,-32.84"/>
</a>
</g>
</g>
</g>
</svg>
