<?xml version="1.0" encoding="UTF-8" standalone="no"?>
<!DOCTYPE svg PUBLIC "-//W3C//DTD SVG 1.1//EN"
 "http://www.w3.org/Graphics/SVG/1.1/DTD/svg11.dtd">
<!-- Generated by graphviz version 12.2.1 (20241206.2353)
 -->
<!-- Title: src/main/java/fr/softsf/sudokufx/service/SoftwareService.java Pages: 1 -->
<svg width="1552pt" height="108pt"
 viewBox="0.00 0.00 1551.75 108.00" xmlns="http://www.w3.org/2000/svg" xmlns:xlink="http://www.w3.org/1999/xlink">
<g id="graph0" class="graph" transform="scale(1 1) rotate(0) translate(4 104)">
<title>src/main/java/fr/softsf/sudokufx/service/SoftwareService.java</title>
<!-- Node1 -->
<g id="Node000001" class="node">
<title>Node1</title>
<g id="a_Node000001"><a xlink:title=" ">
<polygon fill="#999999" stroke="#666666" points="837,-100 647.75,-100 647.75,-68 837,-68 837,-100"/>
<text text-anchor="start" x="655.75" y="-86.5" font-family="Helvetica,sans-Serif" font-size="10.00">src/main/java/fr/softsf</text>
<text text-anchor="middle" x="742.38" y="-74.5" font-family="Helvetica,sans-Serif" font-size="10.00">/sudokufx/service/SoftwareService.java</text>
</a>
</g>
</g>
<!-- Node2 -->
<g id="Node000002" class="node">
<title>Node2</title>
<g id="a_Node000002"><a xlink:title=" ">
<polygon fill="#e0e0e0" stroke="#999999" points="166.75,-26 0,-26 0,-6 166.75,-6 166.75,-26"/>
<text text-anchor="middle" x="83.38" y="-12.5" font-family="Helvetica,sans-Serif" font-size="10.00">fr.softsf.sudokufx.dto.SoftwareDto</text>
</a>
</g>
</g>
<!-- Node1&#45;&gt;Node2 -->
<g id="edge1_Node000001_Node000002" class="edge">
<title>Node1&#45;&gt;Node2</title>
<g id="a_edge1_Node000001_Node000002"><a xlink:title=" ">
<path fill="none" stroke="#63b8ff" d="M647.27,-76.47C534.63,-68.27 341.45,-52.72 176.38,-32 167.49,-30.88 158.16,-29.56 148.97,-28.17"/>
<polygon fill="#63b8ff" stroke="#63b8ff" points="149.78,-24.75 139.36,-26.68 148.71,-31.67 149.78,-24.75"/>
</a>
</g>
</g>
<!-- Node3 -->
<g id="Node000003" class="node">
<title>Node3</title>
<g id="a_Node000003"><a xlink:title=" ">
<polygon fill="#e0e0e0" stroke="#999999" points="361.62,-32 185.12,-32 185.12,0 361.62,0 361.62,-32"/>
<text text-anchor="start" x="193.12" y="-18.5" font-family="Helvetica,sans-Serif" font-size="10.00">fr.softsf.sudokufx.interfaces.mapper.</text>
<text text-anchor="middle" x="273.38" y="-6.5" font-family="Helvetica,sans-Serif" font-size="10.00">ISoftwareMapper</text>
</a>
</g>
</g>
<!-- Node1&#45;&gt;Node3 -->
<g id="edge2_Node000001_Node000003" class="edge">
<title>Node1&#45;&gt;Node3</title>
<g id="a_edge2_Node000001_Node000003"><a xlink:title=" ">
<path fill="none" stroke="#63b8ff" d="M647.39,-70.35C575.11,-60.63 472.86,-46.67 373.23,-32.26"/>
<polygon fill="#63b8ff" stroke="#63b8ff" points="373.94,-28.82 363.54,-30.85 372.93,-35.75 373.94,-28.82"/>
</a>
</g>
</g>
<!-- Node4 -->
<g id="Node000004" class="node">
<title>Node4</title>
<g id="a_Node000004"><a xlink:title=" ">
<polygon fill="#e0e0e0" stroke="#999999" points="504.75,-32 380,-32 380,0 504.75,0 504.75,-32"/>
<text text-anchor="start" x="388" y="-18.5" font-family="Helvetica,sans-Serif" font-size="10.00">fr.softsf.sudokufx.model.</text>
<text text-anchor="middle" x="442.38" y="-6.5" font-family="Helvetica,sans-Serif" font-size="10.00">Software</text>
</a>
</g>
</g>
<!-- Node1&#45;&gt;Node4 -->
<g id="edge3_Node000001_Node000004" class="edge">
<title>Node1&#45;&gt;Node4</title>
<g id="a_edge3_Node000001_Node000004"><a xlink:title=" ">
<path fill="none" stroke="#63b8ff" d="M672.04,-67.53C625.22,-57.23 563.82,-43.72 516.28,-33.26"/>
<polygon fill="#63b8ff" stroke="#63b8ff" points="517.13,-29.86 506.61,-31.13 515.63,-36.7 517.13,-29.86"/>
</a>
</g>
</g>
<!-- Node5 -->
<g id="Node000005" class="node">
<title>Node5</title>
<g id="a_Node000005"><a xlink:title=" ">
<polygon fill="#e0e0e0" stroke="#999999" points="663.62,-32 523.12,-32 523.12,0 663.62,0 663.62,-32"/>
<text text-anchor="start" x="531.12" y="-18.5" font-family="Helvetica,sans-Serif" font-size="10.00">fr.softsf.sudokufx.repository.</text>
<text text-anchor="middle" x="593.38" y="-6.5" font-family="Helvetica,sans-Serif" font-size="10.00">SoftwareRepository</text>
</a>
</g>
</g>
<!-- Node1&#45;&gt;Node5 -->
<g id="edge4_Node000001_Node000005" class="edge">
<title>Node1&#45;&gt;Node5</title>
<g id="a_edge4_Node000001_Node000005"><a xlink:title=" ">
<path fill="none" stroke="#63b8ff" d="M707.44,-67.53C686.97,-58.46 660.87,-46.9 638.81,-37.13"/>
<polygon fill="#63b8ff" stroke="#63b8ff" points="640.29,-33.95 629.73,-33.1 637.46,-40.35 640.29,-33.95"/>
</a>
</g>
</g>
<!-- Node6 -->
<g id="Node000006" class="node">
<title>Node6</title>
<g id="a_Node000006"><a xlink:title=" ">
<polygon fill="#e0e0e0" stroke="#999999" points="802.88,-26 681.88,-26 681.88,-6 802.88,-6 802.88,-26"/>
<text text-anchor="middle" x="742.38" y="-12.5" font-family="Helvetica,sans-Serif" font-size="10.00">lombok.extern.slf4j.Slf4j</text>
</a>
</g>
</g>
<!-- Node1&#45;&gt;Node6 -->
<g id="edge5_Node000001_Node000006" class="edge">
<title>Node1&#45;&gt;Node6</title>
<g id="a_edge5_Node000001_Node000006"><a xlink:title=" ">
<path fill="none" stroke="#63b8ff" d="M742.38,-67.69C742.38,-58.8 742.38,-47.46 742.38,-37.77"/>
<polygon fill="#63b8ff" stroke="#63b8ff" points="745.88,-37.83 742.38,-27.83 738.88,-37.83 745.88,-37.83"/>
</a>
</g>
</g>
<!-- Node7 -->
<g id="Node000007" class="node">
<title>Node7</title>
<g id="a_Node000007"><a xlink:title=" ">
<polygon fill="#e0e0e0" stroke="#999999" points="1037.88,-32 820.88,-32 820.88,0 1037.88,0 1037.88,-32"/>
<text text-anchor="start" x="828.88" y="-18.5" font-family="Helvetica,sans-Serif" font-size="10.00">org.springframework.beans.factory.annotation.</text>
<text text-anchor="middle" x="929.38" y="-6.5" font-family="Helvetica,sans-Serif" font-size="10.00">Autowired</text>
</a>
</g>
</g>
<!-- Node1&#45;&gt;Node7 -->
<g id="edge6_Node000001_Node000007" class="edge">
<title>Node1&#45;&gt;Node7</title>
<g id="a_edge6_Node000001_Node000007"><a xlink:title=" ">
<path fill="none" stroke="#63b8ff" d="M786.22,-67.53C812.73,-58.17 846.75,-46.16 874.98,-36.2"/>
<polygon fill="#63b8ff" stroke="#63b8ff" points="875.79,-39.62 884.06,-33 873.46,-33.02 875.79,-39.62"/>
</a>
</g>
</g>
<!-- Node8 -->
<g id="Node000008" class="node">
<title>Node8</title>
<g id="a_Node000008"><a xlink:title=" ">
<polygon fill="#e0e0e0" stroke="#999999" points="1212.5,-32 1056.25,-32 1056.25,0 1212.5,0 1212.5,-32"/>
<text text-anchor="start" x="1064.25" y="-18.5" font-family="Helvetica,sans-Serif" font-size="10.00">org.springframework.stereotype.</text>
<text text-anchor="middle" x="1134.38" y="-6.5" font-family="Helvetica,sans-Serif" font-size="10.00">Service</text>
</a>
</g>
</g>
<!-- Node1&#45;&gt;Node8 -->
<g id="edge7_Node000001_Node000008" class="edge">
<title>Node1&#45;&gt;Node8</title>
<g id="a_edge7_Node000001_Node000008"><a xlink:title=" ">
<path fill="none" stroke="#63b8ff" d="M835.5,-67.55C893.08,-57.97 968.82,-45.32 1044.9,-32.42"/>
<polygon fill="#63b8ff" stroke="#63b8ff" points="1045.36,-35.89 1054.63,-30.76 1044.19,-28.99 1045.36,-35.89"/>
</a>
</g>
</g>
<!-- Node9 -->
<g id="Node000009" class="node">
<title>Node9</title>
<g id="a_Node000009"><a xlink:title=" ">
<polygon fill="#e0e0e0" stroke="#999999" points="1436.62,-32 1230.12,-32 1230.12,0 1436.62,0 1436.62,-32"/>
<text text-anchor="start" x="1238.12" y="-18.5" font-family="Helvetica,sans-Serif" font-size="10.00">org.springframework.transaction.annotation.</text>
<text text-anchor="middle" x="1333.38" y="-6.5" font-family="Helvetica,sans-Serif" font-size="10.00">Transactional</text>
</a>
</g>
</g>
<!-- Node1&#45;&gt;Node9 -->
<g id="edge8_Node000001_Node000009" class="edge">
<title>Node1&#45;&gt;Node9</title>
<g id="a_edge8_Node000001_Node000009"><a xlink:title=" ">
<path fill="none" stroke="#63b8ff" d="M837.43,-73.64C931.6,-64.2 1080.23,-48.83 1218.45,-32.33"/>
<polygon fill="#63b8ff" stroke="#63b8ff" points="1218.64,-35.84 1228.15,-31.17 1217.81,-28.89 1218.64,-35.84"/>
</a>
</g>
</g>
<!-- Node10 -->
<g id="Node000010" class="node">
<title>Node10</title>
<g id="a_Node000010"><a xlink:title=" ">
<polygon fill="#e0e0e0" stroke="#999999" points="1543.75,-26 1455,-26 1455,-6 1543.75,-6 1543.75,-26"/>
<text text-anchor="middle" x="1499.38" y="-12.5" font-family="Helvetica,sans-Serif" font-size="10.00">java.util.Optional</text>
</a>
</g>
</g>
<!-- Node1&#45;&gt;Node10 -->
<g id="edge9_Node000001_Node000010" class="edge">
<title>Node1&#45;&gt;Node10</title>
<g id="a_edge9_Node000001_Node000010"><a xlink:title=" ">
<path fill="none" stroke="#63b8ff" d="M837.48,-82.07C973.28,-79.39 1230.16,-69.32 1445.38,-32 1449.67,-31.25 1454.12,-30.31 1458.54,-29.26"/>
<polygon fill="#63b8ff" stroke="#63b8ff" points="1459.06,-32.74 1467.88,-26.86 1457.32,-25.96 1459.06,-32.74"/>
</a>
</g>
</g>
</g>
</svg>
