<?xml version="1.0" encoding="UTF-8" standalone="no"?>
<!DOCTYPE svg PUBLIC "-//W3C//DTD SVG 1.1//EN"
 "http://www.w3.org/Graphics/SVG/1.1/DTD/svg11.dtd">
<!-- Generated by graphviz version 12.2.1 (20241206.2353)
 -->
<!-- Title: src/main/java/fr/softsf/sudokufx/view/SplashScreenView.java Pages: 1 -->
<svg width="3968pt" height="120pt"
 viewBox="0.00 0.00 3968.00 120.00" xmlns="http://www.w3.org/2000/svg" xmlns:xlink="http://www.w3.org/1999/xlink">
<g id="graph0" class="graph" transform="scale(1 1) rotate(0) translate(4 116)">
<title>src/main/java/fr/softsf/sudokufx/view/SplashScreenView.java</title>
<!-- Node1 -->
<g id="Node000001" class="node">
<title>Node1</title>
<g id="a_Node000001"><a xlink:title=" ">
<polygon fill="#999999" stroke="#666666" points="2080.5,-112 1892.75,-112 1892.75,-80 2080.5,-80 2080.5,-112"/>
<text text-anchor="start" x="1900.75" y="-98.5" font-family="Helvetica,sans-Serif" font-size="10.00">src/main/java/fr/softsf</text>
<text text-anchor="middle" x="1986.62" y="-86.5" font-family="Helvetica,sans-Serif" font-size="10.00">/sudokufx/view/SplashScreenView.java</text>
</a>
</g>
</g>
<!-- Node2 -->
<g id="Node000002" class="node">
<title>Node2</title>
<g id="a_Node000002"><a xlink:title=" ">
<polygon fill="#e0e0e0" stroke="#999999" points="141.25,-38 0,-38 0,-6 141.25,-6 141.25,-38"/>
<text text-anchor="start" x="8" y="-24.5" font-family="Helvetica,sans-Serif" font-size="10.00">fr.softsf.sudokufx.interfaces.</text>
<text text-anchor="middle" x="70.62" y="-12.5" font-family="Helvetica,sans-Serif" font-size="10.00">ISplashScreenView</text>
</a>
</g>
</g>
<!-- Node1&#45;&gt;Node2 -->
<g id="edge1_Node000001_Node000002" class="edge">
<title>Node1&#45;&gt;Node2</title>
<g id="a_edge1_Node000001_Node000002"><a xlink:title=" ">
<path fill="none" stroke="#63b8ff" d="M1892.49,-95.27C1567.09,-95.74 491.13,-93.44 149.62,-44 144.06,-43.19 138.33,-42.14 132.61,-40.92"/>
<polygon fill="#63b8ff" stroke="#63b8ff" points="133.69,-37.58 123.16,-38.76 132.13,-44.4 133.69,-37.58"/>
</a>
</g>
</g>
<!-- Node3 -->
<g id="Node000003" class="node">
<title>Node3</title>
<g id="a_Node000003"><a xlink:title=" ">
<polygon fill="#e0e0e0" stroke="#999999" points="294.25,-32 159,-32 159,-12 294.25,-12 294.25,-32"/>
<text text-anchor="middle" x="226.62" y="-18.5" font-family="Helvetica,sans-Serif" font-size="10.00">fr.softsf.sudokufx.utils.I18n</text>
</a>
</g>
</g>
<!-- Node1&#45;&gt;Node3 -->
<g id="edge2_Node000001_Node000003" class="edge">
<title>Node1&#45;&gt;Node3</title>
<g id="a_edge2_Node000001_Node000003"><a xlink:title=" ">
<path fill="none" stroke="#63b8ff" d="M1892.46,-95.07C1585.16,-94.82 613.61,-90.3 303.62,-44 291.16,-42.14 277.84,-38.95 265.84,-35.61"/>
<polygon fill="#63b8ff" stroke="#63b8ff" points="266.84,-32.26 256.26,-32.83 264.88,-38.98 266.84,-32.26"/>
</a>
</g>
</g>
<!-- Node4 -->
<g id="Node000004" class="node">
<title>Node4</title>
<g id="a_Node000004"><a xlink:title=" ">
<polygon fill="#e0e0e0" stroke="#999999" points="466.62,-38 312.62,-38 312.62,-6 466.62,-6 466.62,-38"/>
<text text-anchor="start" x="320.62" y="-24.5" font-family="Helvetica,sans-Serif" font-size="10.00">fr.softsf.sudokufx.configuration.</text>
<text text-anchor="middle" x="389.62" y="-12.5" font-family="Helvetica,sans-Serif" font-size="10.00">JVMApplicationProperties</text>
</a>
</g>
</g>
<!-- Node1&#45;&gt;Node4 -->
<g id="edge3_Node000001_Node000004" class="edge">
<title>Node1&#45;&gt;Node4</title>
<g id="a_edge3_Node000001_Node000004"><a xlink:title=" ">
<path fill="none" stroke="#63b8ff" d="M1892.49,-94.36C1606.6,-92 751.26,-81.89 475.62,-44 469.53,-43.16 463.25,-42.07 456.97,-40.83"/>
<polygon fill="#63b8ff" stroke="#63b8ff" points="457.73,-37.42 447.22,-38.77 456.28,-44.27 457.73,-37.42"/>
</a>
</g>
</g>
<!-- Node5 -->
<g id="Node000005" class="node">
<title>Node5</title>
<g id="a_Node000005"><a xlink:title=" ">
<polygon fill="#e0e0e0" stroke="#999999" points="618.5,-32 484.75,-32 484.75,-12 618.5,-12 618.5,-32"/>
<text text-anchor="middle" x="551.62" y="-18.5" font-family="Helvetica,sans-Serif" font-size="10.00">javafx.animation.Animation</text>
</a>
</g>
</g>
<!-- Node1&#45;&gt;Node5 -->
<g id="edge4_Node000001_Node000005" class="edge">
<title>Node1&#45;&gt;Node5</title>
<g id="a_edge4_Node000001_Node000005"><a xlink:title=" ">
<path fill="none" stroke="#63b8ff" d="M1892.52,-94.35C1626.26,-92.06 871.15,-82.27 626.62,-44 614.58,-42.11 601.71,-38.95 590.1,-35.65"/>
<polygon fill="#63b8ff" stroke="#63b8ff" points="591.45,-32.4 580.87,-32.9 589.45,-39.1 591.45,-32.4"/>
</a>
</g>
</g>
<!-- Node6 -->
<g id="Node000006" class="node">
<title>Node6</title>
<g id="a_Node000006"><a xlink:title=" ">
<polygon fill="#e0e0e0" stroke="#999999" points="775.12,-32 636.12,-32 636.12,-12 775.12,-12 775.12,-32"/>
<text text-anchor="middle" x="705.62" y="-18.5" font-family="Helvetica,sans-Serif" font-size="10.00">javafx.animation.Interpolator</text>
</a>
</g>
</g>
<!-- Node1&#45;&gt;Node6 -->
<g id="edge5_Node000001_Node000006" class="edge">
<title>Node1&#45;&gt;Node6</title>
<g id="a_edge5_Node000001_Node000006"><a xlink:title=" ">
<path fill="none" stroke="#63b8ff" d="M1892.65,-93.65C1648.39,-89.72 997.7,-76.44 784.62,-44 771.84,-42.05 758.15,-38.83 745.82,-35.49"/>
<polygon fill="#63b8ff" stroke="#63b8ff" points="746.97,-32.18 736.4,-32.83 745.07,-38.92 746.97,-32.18"/>
</a>
</g>
</g>
<!-- Node7 -->
<g id="Node000007" class="node">
<title>Node7</title>
<g id="a_Node000007"><a xlink:title=" ">
<polygon fill="#e0e0e0" stroke="#999999" points="955.75,-32 793.5,-32 793.5,-12 955.75,-12 955.75,-32"/>
<text text-anchor="middle" x="874.62" y="-18.5" font-family="Helvetica,sans-Serif" font-size="10.00">javafx.animation.RotateTransition</text>
</a>
</g>
</g>
<!-- Node1&#45;&gt;Node7 -->
<g id="edge6_Node000001_Node000007" class="edge">
<title>Node1&#45;&gt;Node7</title>
<g id="a_edge6_Node000001_Node000007"><a xlink:title=" ">
<path fill="none" stroke="#63b8ff" d="M1892.39,-95.92C1711.56,-96.45 1303.72,-91.63 964.62,-44 949.83,-41.92 933.89,-38.58 919.6,-35.16"/>
<polygon fill="#63b8ff" stroke="#63b8ff" points="920.56,-31.8 910.01,-32.8 918.88,-38.59 920.56,-31.8"/>
</a>
</g>
</g>
<!-- Node8 -->
<g id="Node000008" class="node">
<title>Node8</title>
<g id="a_Node000008"><a xlink:title=" ">
<polygon fill="#e0e0e0" stroke="#999999" points="1079.25,-32 974,-32 974,-12 1079.25,-12 1079.25,-32"/>
<text text-anchor="middle" x="1026.62" y="-18.5" font-family="Helvetica,sans-Serif" font-size="10.00">javafx.geometry.Pos</text>
</a>
</g>
</g>
<!-- Node1&#45;&gt;Node8 -->
<g id="edge7_Node000001_Node000008" class="edge">
<title>Node1&#45;&gt;Node8</title>
<g id="a_edge7_Node000001_Node000008"><a xlink:title=" ">
<path fill="none" stroke="#63b8ff" d="M1892.6,-92.87C1694.58,-87.85 1240.39,-73.45 1088.62,-44 1079.19,-42.17 1069.22,-39.25 1060.09,-36.17"/>
<polygon fill="#63b8ff" stroke="#63b8ff" points="1061.5,-32.96 1050.91,-32.9 1059.15,-39.55 1061.5,-32.96"/>
</a>
</g>
</g>
<!-- Node9 -->
<g id="Node000009" class="node">
<title>Node9</title>
<g id="a_Node000009"><a xlink:title=" ">
<polygon fill="#e0e0e0" stroke="#999999" points="1201.5,-32 1097.75,-32 1097.75,-12 1201.5,-12 1201.5,-32"/>
<text text-anchor="middle" x="1149.62" y="-18.5" font-family="Helvetica,sans-Serif" font-size="10.00">javafx.scene.Cursor</text>
</a>
</g>
</g>
<!-- Node1&#45;&gt;Node9 -->
<g id="edge8_Node000001_Node000009" class="edge">
<title>Node1&#45;&gt;Node9</title>
<g id="a_edge8_Node000001_Node000009"><a xlink:title=" ">
<path fill="none" stroke="#63b8ff" d="M1892.32,-91.94C1715.04,-85.66 1338.43,-69.72 1210.62,-44 1201.51,-42.17 1191.9,-39.32 1183.07,-36.3"/>
<polygon fill="#63b8ff" stroke="#63b8ff" points="1184.42,-33.06 1173.82,-32.97 1182.04,-39.65 1184.42,-33.06"/>
</a>
</g>
</g>
<!-- Node10 -->
<g id="Node000010" class="node">
<title>Node10</title>
<g id="a_Node000010"><a xlink:title=" ">
<polygon fill="#e0e0e0" stroke="#999999" points="1321.75,-32 1219.5,-32 1219.5,-12 1321.75,-12 1321.75,-32"/>
<text text-anchor="middle" x="1270.62" y="-18.5" font-family="Helvetica,sans-Serif" font-size="10.00">javafx.scene.Scene</text>
</a>
</g>
</g>
<!-- Node1&#45;&gt;Node10 -->
<g id="edge9_Node000001_Node000010" class="edge">
<title>Node1&#45;&gt;Node10</title>
<g id="a_edge9_Node000001_Node000010"><a xlink:title=" ">
<path fill="none" stroke="#63b8ff" d="M1892.39,-95.29C1763.99,-93.96 1527.52,-85.38 1330.62,-44 1321.76,-42.14 1312.42,-39.31 1303.81,-36.33"/>
<polygon fill="#63b8ff" stroke="#63b8ff" points="1305.04,-33.05 1294.45,-32.91 1302.64,-39.63 1305.04,-33.05"/>
</a>
</g>
</g>
<!-- Node11 -->
<g id="Node000011" class="node">
<title>Node11</title>
<g id="a_Node000011"><a xlink:title=" ">
<polygon fill="#e0e0e0" stroke="#999999" points="1469.62,-32 1339.62,-32 1339.62,-12 1469.62,-12 1469.62,-32"/>
<text text-anchor="middle" x="1404.62" y="-18.5" font-family="Helvetica,sans-Serif" font-size="10.00">javafx.scene.control.Label</text>
</a>
</g>
</g>
<!-- Node1&#45;&gt;Node11 -->
<g id="edge10_Node000001_Node000011" class="edge">
<title>Node1&#45;&gt;Node11</title>
<g id="a_edge10_Node000001_Node000011"><a xlink:title=" ">
<path fill="none" stroke="#63b8ff" d="M1892.28,-90.52C1789.74,-84.49 1621.42,-71.21 1478.62,-44 1467.43,-41.87 1455.47,-38.82 1444.51,-35.71"/>
<polygon fill="#63b8ff" stroke="#63b8ff" points="1445.55,-32.37 1434.96,-32.9 1443.57,-39.08 1445.55,-32.37"/>
</a>
</g>
</g>
<!-- Node12 -->
<g id="Node000012" class="node">
<title>Node12</title>
<g id="a_Node000012"><a xlink:title=" ">
<polygon fill="#e0e0e0" stroke="#999999" points="1609.88,-38 1487.38,-38 1487.38,-6 1609.88,-6 1609.88,-38"/>
<text text-anchor="start" x="1495.38" y="-24.5" font-family="Helvetica,sans-Serif" font-size="10.00">javafx.scene.effect.Drop</text>
<text text-anchor="middle" x="1548.62" y="-12.5" font-family="Helvetica,sans-Serif" font-size="10.00">Shadow</text>
</a>
</g>
</g>
<!-- Node1&#45;&gt;Node12 -->
<g id="edge11_Node000001_Node000012" class="edge">
<title>Node1&#45;&gt;Node12</title>
<g id="a_edge11_Node000001_Node000012"><a xlink:title=" ">
<path fill="none" stroke="#63b8ff" d="M1892.42,-85.83C1817.88,-77.64 1711.42,-63.84 1619.62,-44 1615.87,-43.19 1612.02,-42.28 1608.15,-41.31"/>
<polygon fill="#63b8ff" stroke="#63b8ff" points="1609.29,-37.99 1598.73,-38.82 1607.5,-44.76 1609.29,-37.99"/>
</a>
</g>
</g>
<!-- Node13 -->
<g id="Node000013" class="node">
<title>Node13</title>
<g id="a_Node000013"><a xlink:title=" ">
<polygon fill="#e0e0e0" stroke="#999999" points="1759,-32 1628.25,-32 1628.25,-12 1759,-12 1759,-32"/>
<text text-anchor="middle" x="1693.62" y="-18.5" font-family="Helvetica,sans-Serif" font-size="10.00">javafx.scene.image.Image</text>
</a>
</g>
</g>
<!-- Node1&#45;&gt;Node13 -->
<g id="edge12_Node000001_Node000013" class="edge">
<title>Node1&#45;&gt;Node13</title>
<g id="a_edge12_Node000001_Node000013"><a xlink:title=" ">
<path fill="none" stroke="#63b8ff" d="M1917.22,-79.57C1874.3,-69.82 1818.13,-56.72 1768.62,-44 1758.33,-41.36 1747.29,-38.36 1736.94,-35.47"/>
<polygon fill="#63b8ff" stroke="#63b8ff" points="1738.06,-32.15 1727.49,-32.81 1736.17,-38.89 1738.06,-32.15"/>
</a>
</g>
</g>
<!-- Node14 -->
<g id="Node000014" class="node">
<title>Node14</title>
<g id="a_Node000014"><a xlink:title=" ">
<polygon fill="#e0e0e0" stroke="#999999" points="1905.88,-32 1777.38,-32 1777.38,-12 1905.88,-12 1905.88,-32"/>
<text text-anchor="middle" x="1841.62" y="-18.5" font-family="Helvetica,sans-Serif" font-size="10.00">javafx.scene.layout.HBox</text>
</a>
</g>
</g>
<!-- Node1&#45;&gt;Node14 -->
<g id="edge13_Node000001_Node000014" class="edge">
<title>Node1&#45;&gt;Node14</title>
<g id="a_edge13_Node000001_Node000014"><a xlink:title=" ">
<path fill="none" stroke="#63b8ff" d="M1955.52,-79.55C1930.44,-67.1 1895.42,-49.71 1870.85,-37.51"/>
<polygon fill="#63b8ff" stroke="#63b8ff" points="1872.57,-34.46 1862.05,-33.14 1869.45,-40.73 1872.57,-34.46"/>
</a>
</g>
</g>
<!-- Node15 -->
<g id="Node000015" class="node">
<title>Node15</title>
<g id="a_Node000015"><a xlink:title=" ">
<polygon fill="#e0e0e0" stroke="#999999" points="2049.75,-32 1923.5,-32 1923.5,-12 2049.75,-12 2049.75,-32"/>
<text text-anchor="middle" x="1986.62" y="-18.5" font-family="Helvetica,sans-Serif" font-size="10.00">javafx.scene.layout.Pane</text>
</a>
</g>
</g>
<!-- Node1&#45;&gt;Node15 -->
<g id="edge14_Node000001_Node000015" class="edge">
<title>Node1&#45;&gt;Node15</title>
<g id="a_edge14_Node000001_Node000015"><a xlink:title=" ">
<path fill="none" stroke="#63b8ff" d="M1986.62,-79.73C1986.62,-69.18 1986.62,-55.03 1986.62,-43.5"/>
<polygon fill="#63b8ff" stroke="#63b8ff" points="1990.13,-43.82 1986.63,-33.82 1983.13,-43.82 1990.13,-43.82"/>
</a>
</g>
</g>
<!-- Node16 -->
<g id="Node000016" class="node">
<title>Node16</title>
<g id="a_Node000016"><a xlink:title=" ">
<polygon fill="#e0e0e0" stroke="#999999" points="2201.88,-32 2067.38,-32 2067.38,-12 2201.88,-12 2201.88,-32"/>
<text text-anchor="middle" x="2134.62" y="-18.5" font-family="Helvetica,sans-Serif" font-size="10.00">javafx.scene.layout.Region</text>
</a>
</g>
</g>
<!-- Node1&#45;&gt;Node16 -->
<g id="edge15_Node000001_Node000016" class="edge">
<title>Node1&#45;&gt;Node16</title>
<g id="a_edge15_Node000001_Node000016"><a xlink:title=" ">
<path fill="none" stroke="#63b8ff" d="M2018.37,-79.55C2044.09,-67.04 2080.04,-49.56 2105.13,-37.35"/>
<polygon fill="#63b8ff" stroke="#63b8ff" points="2106.33,-40.66 2113.8,-33.13 2103.27,-34.36 2106.33,-40.66"/>
</a>
</g>
</g>
<!-- Node17 -->
<g id="Node000017" class="node">
<title>Node17</title>
<g id="a_Node000017"><a xlink:title=" ">
<polygon fill="#e0e0e0" stroke="#999999" points="2347.5,-32 2219.75,-32 2219.75,-12 2347.5,-12 2347.5,-32"/>
<text text-anchor="middle" x="2283.62" y="-18.5" font-family="Helvetica,sans-Serif" font-size="10.00">javafx.scene.layout.VBox</text>
</a>
</g>
</g>
<!-- Node1&#45;&gt;Node17 -->
<g id="edge16_Node000001_Node000017" class="edge">
<title>Node1&#45;&gt;Node17</title>
<g id="a_edge16_Node000001_Node000017"><a xlink:title=" ">
<path fill="none" stroke="#63b8ff" d="M2059.26,-79.55C2103.21,-69.93 2160.32,-56.95 2210.62,-44 2220.55,-41.44 2231.18,-38.5 2241.17,-35.65"/>
<polygon fill="#63b8ff" stroke="#63b8ff" points="2242.02,-39.05 2250.66,-32.91 2240.08,-32.32 2242.02,-39.05"/>
</a>
</g>
</g>
<!-- Node18 -->
<g id="Node000018" class="node">
<title>Node18</title>
<g id="a_Node000018"><a xlink:title=" ">
<polygon fill="#e0e0e0" stroke="#999999" points="2487.5,-32 2365.75,-32 2365.75,-12 2487.5,-12 2487.5,-32"/>
<text text-anchor="middle" x="2426.62" y="-18.5" font-family="Helvetica,sans-Serif" font-size="10.00">javafx.scene.paint.Color</text>
</a>
</g>
</g>
<!-- Node1&#45;&gt;Node18 -->
<g id="edge17_Node000001_Node000018" class="edge">
<title>Node1&#45;&gt;Node18</title>
<g id="a_edge17_Node000001_Node000018"><a xlink:title=" ">
<path fill="none" stroke="#63b8ff" d="M2080.85,-86.07C2156.05,-77.98 2263.8,-64.19 2356.62,-44 2366.8,-41.79 2377.65,-38.83 2387.7,-35.84"/>
<polygon fill="#63b8ff" stroke="#63b8ff" points="2388.64,-39.21 2397.17,-32.93 2386.58,-32.52 2388.64,-39.21"/>
</a>
</g>
</g>
<!-- Node19 -->
<g id="Node000019" class="node">
<title>Node19</title>
<g id="a_Node000019"><a xlink:title=" ">
<polygon fill="#e0e0e0" stroke="#999999" points="2650.12,-32 2505.12,-32 2505.12,-12 2650.12,-12 2650.12,-32"/>
<text text-anchor="middle" x="2577.62" y="-18.5" font-family="Helvetica,sans-Serif" font-size="10.00">javafx.scene.shape.SVGPath</text>
</a>
</g>
</g>
<!-- Node1&#45;&gt;Node19 -->
<g id="edge18_Node000001_Node000019" class="edge">
<title>Node1&#45;&gt;Node19</title>
<g id="a_edge18_Node000001_Node000019"><a xlink:title=" ">
<path fill="none" stroke="#63b8ff" d="M2080.75,-89.94C2183.55,-83.41 2352.74,-69.69 2496.62,-44 2509.22,-41.75 2522.73,-38.57 2535.04,-35.35"/>
<polygon fill="#63b8ff" stroke="#63b8ff" points="2535.73,-38.79 2544.48,-32.81 2533.92,-32.03 2535.73,-38.79"/>
</a>
</g>
</g>
<!-- Node20 -->
<g id="Node000020" class="node">
<title>Node20</title>
<g id="a_Node000020"><a xlink:title=" ">
<polygon fill="#e0e0e0" stroke="#999999" points="2765.5,-32 2667.75,-32 2667.75,-12 2765.5,-12 2765.5,-32"/>
<text text-anchor="middle" x="2716.62" y="-18.5" font-family="Helvetica,sans-Serif" font-size="10.00">javafx.stage.Stage</text>
</a>
</g>
</g>
<!-- Node1&#45;&gt;Node20 -->
<g id="edge19_Node000001_Node000020" class="edge">
<title>Node1&#45;&gt;Node20</title>
<g id="a_edge19_Node000001_Node000020"><a xlink:title=" ">
<path fill="none" stroke="#63b8ff" d="M2080.76,-91.09C2239.08,-83.97 2551.93,-67.44 2659.62,-44 2667.98,-42.18 2676.77,-39.41 2684.87,-36.46"/>
<polygon fill="#63b8ff" stroke="#63b8ff" points="2685.9,-39.82 2693.98,-32.96 2683.39,-33.28 2685.9,-39.82"/>
</a>
</g>
</g>
<!-- Node21 -->
<g id="Node000021" class="node">
<title>Node21</title>
<g id="a_Node000021"><a xlink:title=" ">
<polygon fill="#e0e0e0" stroke="#999999" points="2903.75,-32 2783.5,-32 2783.5,-12 2903.75,-12 2903.75,-32"/>
<text text-anchor="middle" x="2843.62" y="-18.5" font-family="Helvetica,sans-Serif" font-size="10.00">javafx.stage.StageStyle</text>
</a>
</g>
</g>
<!-- Node1&#45;&gt;Node21 -->
<g id="edge20_Node000001_Node000021" class="edge">
<title>Node1&#45;&gt;Node21</title>
<g id="a_edge20_Node000001_Node000021"><a xlink:title=" ">
<path fill="none" stroke="#63b8ff" d="M2080.88,-95.88C2229.57,-95.72 2527.13,-89.05 2774.62,-44 2785.3,-42.06 2796.65,-39.02 2807.01,-35.86"/>
<polygon fill="#63b8ff" stroke="#63b8ff" points="2807.86,-39.26 2816.32,-32.88 2805.73,-32.59 2807.86,-39.26"/>
</a>
</g>
</g>
<!-- Node22 -->
<g id="Node000022" class="node">
<title>Node22</title>
<g id="a_Node000022"><a xlink:title=" ">
<polygon fill="#e0e0e0" stroke="#999999" points="3019.5,-32 2921.75,-32 2921.75,-12 3019.5,-12 3019.5,-32"/>
<text text-anchor="middle" x="2970.62" y="-18.5" font-family="Helvetica,sans-Serif" font-size="10.00">javafx.util.Duration</text>
</a>
</g>
</g>
<!-- Node1&#45;&gt;Node22 -->
<g id="edge21_Node000001_Node000022" class="edge">
<title>Node1&#45;&gt;Node22</title>
<g id="a_edge21_Node000001_Node000022"><a xlink:title=" ">
<path fill="none" stroke="#63b8ff" d="M2080.94,-93.29C2283.77,-89.06 2755.75,-76 2912.62,-44 2921.31,-42.23 2930.44,-39.41 2938.82,-36.4"/>
<polygon fill="#63b8ff" stroke="#63b8ff" points="2939.78,-39.78 2947.89,-32.96 2937.29,-33.24 2939.78,-39.78"/>
</a>
</g>
</g>
<!-- Node23 -->
<g id="Node000023" class="node">
<title>Node23</title>
<g id="a_Node000023"><a xlink:title=" ">
<polygon fill="#e0e0e0" stroke="#999999" points="3129.5,-32 3037.75,-32 3037.75,-12 3129.5,-12 3129.5,-32"/>
<text text-anchor="middle" x="3083.62" y="-18.5" font-family="Helvetica,sans-Serif" font-size="10.00">java.util.Calendar</text>
</a>
</g>
</g>
<!-- Node1&#45;&gt;Node23 -->
<g id="edge22_Node000001_Node000023" class="edge">
<title>Node1&#45;&gt;Node23</title>
<g id="a_edge22_Node000001_Node000023"><a xlink:title=" ">
<path fill="none" stroke="#63b8ff" d="M2080.61,-94.18C2301.62,-91.65 2849.15,-81.66 3028.62,-44 3036.72,-42.3 3045.18,-39.58 3052.98,-36.65"/>
<polygon fill="#63b8ff" stroke="#63b8ff" points="3054.07,-39.99 3062.05,-33.02 3051.47,-33.49 3054.07,-39.99"/>
</a>
</g>
</g>
<!-- Node24 -->
<g id="Node000024" class="node">
<title>Node24</title>
<g id="a_Node000024"><a xlink:title=" ">
<polygon fill="#e0e0e0" stroke="#999999" points="3233.88,-32 3147.38,-32 3147.38,-12 3233.88,-12 3233.88,-32"/>
<text text-anchor="middle" x="3190.62" y="-18.5" font-family="Helvetica,sans-Serif" font-size="10.00">java.util.Objects</text>
</a>
</g>
</g>
<!-- Node1&#45;&gt;Node24 -->
<g id="edge23_Node000001_Node000024" class="edge">
<title>Node1&#45;&gt;Node24</title>
<g id="a_edge23_Node000001_Node000024"><a xlink:title=" ">
<path fill="none" stroke="#63b8ff" d="M2080.83,-94.93C2318.5,-94.09 2937.86,-87.64 3138.62,-44 3146.21,-42.35 3154.11,-39.7 3161.39,-36.82"/>
<polygon fill="#63b8ff" stroke="#63b8ff" points="3162.62,-40.1 3170.46,-32.97 3159.89,-33.65 3162.62,-40.1"/>
</a>
</g>
</g>
<!-- Node25 -->
<g id="Node000025" class="node">
<title>Node25</title>
<g id="a_Node000025"><a xlink:title=" ">
<polygon fill="#e0e0e0" stroke="#999999" points="3405.62,-44 3251.62,-44 3251.62,0 3405.62,0 3405.62,-44"/>
<text text-anchor="start" x="3259.62" y="-30.5" font-family="Helvetica,sans-Serif" font-size="10.00">fr.softsf.sudokufx.utils.</text>
<text text-anchor="start" x="3259.62" y="-18.5" font-family="Helvetica,sans-Serif" font-size="10.00">MyEnums.Paths.LOGO_SUDO</text>
<text text-anchor="middle" x="3328.62" y="-6.5" font-family="Helvetica,sans-Serif" font-size="10.00">_PNG_PATH</text>
</a>
</g>
</g>
<!-- Node1&#45;&gt;Node25 -->
<g id="edge24_Node000001_Node000025" class="edge">
<title>Node1&#45;&gt;Node25</title>
<g id="a_edge24_Node000001_Node000025"><a xlink:title=" ">
<path fill="none" stroke="#63b8ff" d="M2080.64,-93.61C2328.56,-89.55 2997.09,-76.04 3240.16,-44.15"/>
<polygon fill="#63b8ff" stroke="#63b8ff" points="3240.47,-47.64 3249.91,-42.83 3239.53,-40.71 3240.47,-47.64"/>
</a>
</g>
</g>
<!-- Node26 -->
<g id="Node000026" class="node">
<title>Node26</title>
<g id="a_Node000026"><a xlink:title=" ">
<polygon fill="#e0e0e0" stroke="#999999" points="3579.75,-44 3423.5,-44 3423.5,0 3579.75,0 3579.75,-44"/>
<text text-anchor="start" x="3431.5" y="-30.5" font-family="Helvetica,sans-Serif" font-size="10.00">fr.softsf.sudokufx.utils.</text>
<text text-anchor="start" x="3431.5" y="-18.5" font-family="Helvetica,sans-Serif" font-size="10.00">MyEnums.Paths.RESOURCES</text>
<text text-anchor="middle" x="3501.62" y="-6.5" font-family="Helvetica,sans-Serif" font-size="10.00">_CSS_PATH</text>
</a>
</g>
</g>
<!-- Node1&#45;&gt;Node26 -->
<g id="edge25_Node000001_Node000026" class="edge">
<title>Node1&#45;&gt;Node26</title>
<g id="a_edge25_Node000001_Node000026"><a xlink:title=" ">
<path fill="none" stroke="#63b8ff" d="M2080.91,-94.11C2352.46,-91.15 3134.03,-79.81 3411.78,-44.21"/>
<polygon fill="#63b8ff" stroke="#63b8ff" points="3412.09,-47.7 3421.54,-42.92 3411.17,-40.76 3412.09,-47.7"/>
</a>
</g>
</g>
<!-- Node27 -->
<g id="Node000027" class="node">
<title>Node27</title>
<g id="a_Node000027"><a xlink:title=" ">
<polygon fill="#e0e0e0" stroke="#999999" points="3805.62,-38 3597.62,-38 3597.62,-6 3805.62,-6 3805.62,-38"/>
<text text-anchor="start" x="3605.62" y="-24.5" font-family="Helvetica,sans-Serif" font-size="10.00">fr.softsf.sudokufx.utils.</text>
<text text-anchor="middle" x="3701.62" y="-12.5" font-family="Helvetica,sans-Serif" font-size="10.00">MyEnums.ScreenSize.DISPOSABLE_SIZE</text>
</a>
</g>
</g>
<!-- Node1&#45;&gt;Node27 -->
<g id="edge26_Node000001_Node000027" class="edge">
<title>Node1&#45;&gt;Node27</title>
<g id="a_edge26_Node000001_Node000027"><a xlink:title=" ">
<path fill="none" stroke="#63b8ff" d="M2080.79,-93.88C2377.94,-90.06 3293.56,-75.93 3588.62,-44 3597.58,-43.03 3606.89,-41.75 3616.15,-40.3"/>
<polygon fill="#63b8ff" stroke="#63b8ff" points="3616.61,-43.77 3625.91,-38.7 3615.47,-36.86 3616.61,-43.77"/>
</a>
</g>
</g>
<!-- Node28 -->
<g id="Node000028" class="node">
<title>Node28</title>
<g id="a_Node000028"><a xlink:title=" ">
<polygon fill="#e0e0e0" stroke="#999999" points="3960,-38 3823.25,-38 3823.25,-6 3960,-6 3960,-38"/>
<text text-anchor="start" x="3831.25" y="-24.5" font-family="Helvetica,sans-Serif" font-size="10.00">javafx.scene.layout.Priority.</text>
<text text-anchor="middle" x="3891.62" y="-12.5" font-family="Helvetica,sans-Serif" font-size="10.00">ALWAYS</text>
</a>
</g>
</g>
<!-- Node1&#45;&gt;Node28 -->
<g id="edge27_Node000001_Node000028" class="edge">
<title>Node1&#45;&gt;Node28</title>
<g id="a_edge27_Node000001_Node000028"><a xlink:title=" ">
<path fill="none" stroke="#63b8ff" d="M2080.88,-95.33C2405.4,-96.01 3475.15,-94.29 3814.62,-44 3819.91,-43.22 3825.36,-42.19 3830.79,-41.02"/>
<polygon fill="#63b8ff" stroke="#63b8ff" points="3831.46,-44.45 3840.4,-38.77 3829.87,-37.64 3831.46,-44.45"/>
</a>
</g>
</g>
</g>
</svg>
