<?xml version="1.0" encoding="UTF-8" standalone="no"?>
<!DOCTYPE svg PUBLIC "-//W3C//DTD SVG 1.1//EN"
 "http://www.w3.org/Graphics/SVG/1.1/DTD/svg11.dtd">
<!-- Generated by graphviz version 12.2.1 (20241206.2353)
 -->
<!-- Title: src/main/java/fr/softsf/sudokufx/view/SplashScreenView.java Pages: 1 -->
<!--zoomable 108 -->

<svg id="main" version="1.1" xmlns="http://www.w3.org/2000/svg" xmlns:xlink="http://www.w3.org/1999/xlink" xml:space="preserve" onload="init(evt)">

<style type="text/css"><![CDATA[
.node, .edge {opacity: 0.7;}
.node.selected, .edge.selected {opacity: 1;}
.edge:hover path { stroke: red; }
.edge:hover polygon { stroke: red; fill: red; }
]]></style>

<defs>
  <circle id="rim" cx="0" cy="0" r="7"/>
  <circle id="rim2" cx="0" cy="0" r="3.5"/>
  <g id="zoomPlus">
    <use xlink:href="#rim" fill="#404040"><set attributeName="fill" to="#808080" begin="zoomplus.mouseover" end="zoomplus.mouseout"/></use>
    <path d="M-4,0h8M0,-4v8" fill="none" stroke="white" stroke-width="1.5" pointer-events="none"/>
  </g>
  <g id="zoomMin">
    <use xlink:href="#rim" fill="#404040"><set attributeName="fill" to="#808080" begin="zoomminus.mouseover" end="zoomminus.mouseout"/></use>
    <path d="M-4,0h8" fill="none" stroke="white" stroke-width="1.5" pointer-events="none"/>
  </g>
  <g id="arrowUp" transform="translate(30 24)">
    <use xlink:href="#rim"/>
    <path pointer-events="none" fill="none" stroke="white" stroke-width="1.5" d="M0,-3.0v7 M-2.5,-0.5L0,-3.0L2.5,-0.5"/>
  </g>
  <g id="arrowRight" transform="rotate(90) translate(36 -43)">
    <use xlink:href="#rim"/>
    <path pointer-events="none" fill="none" stroke="white" stroke-width="1.5" d="M0,-3.0v7 M-2.5,-0.5L0,-3.0L2.5,-0.5"/>
  </g>
  <g id="arrowDown" transform="rotate(180) translate(-30 -48)">
    <use xlink:href="#rim"/>
    <path pointer-events="none" fill="none" stroke="white" stroke-width="1.5" d="M0,-3.0v7 M-2.5,-0.5L0,-3.0L2.5,-0.5"/>
  </g>
  <g id="arrowLeft" transform="rotate(270) translate(-36 17)">
    <use xlink:href="#rim"/>
    <path pointer-events="none" fill="none" stroke="white" stroke-width="1.5" d="M0,-3.0v7 M-2.5,-0.5L0,-3.0L2.5,-0.5"/>
  </g>
  <g id="resetDef">
    <use xlink:href="#rim2" fill="#404040"><set attributeName="fill" to="#808080" begin="reset.mouseover" end="reset.mouseout"/></use>
  </g>
</defs>
<script type="application/ecmascript">
var viewWidth = 3939;
var viewHeight = 108;
var sectionId = 'dynsection-0';
</script>
<script type="application/ecmascript" xlink:href="svg.min.js"/>
<svg id="graph" class="graph">
<g id="viewport">
<title>src/main/java/fr/softsf/sudokufx/view/SplashScreenView.java</title>
<!-- Node1 -->
<g id="Node000001" class="node">
<title>Node1</title>
<g id="a_Node000001"><a xlink:title=" ">
<polygon fill="#999999" stroke="#666666" points="2091.5,-100 1903.75,-100 1903.75,-68 2091.5,-68 2091.5,-100"/>
<text text-anchor="start" x="1911.75" y="-86.5" font-family="Helvetica,sans-Serif" font-size="10.00">src/main/java/fr/softsf</text>
<text text-anchor="middle" x="1997.62" y="-74.5" font-family="Helvetica,sans-Serif" font-size="10.00">/sudokufx/view/SplashScreenView.java</text>
</a>
</g>
</g>
<!-- Node2 -->
<g id="Node000002" class="node">
<title>Node2</title>
<g id="a_Node000002"><a xlink:title=" ">
<polygon fill="#e0e0e0" stroke="#999999" points="141.25,-32 0,-32 0,0 141.25,0 141.25,-32"/>
<text text-anchor="start" x="8" y="-18.5" font-family="Helvetica,sans-Serif" font-size="10.00">fr.softsf.sudokufx.interfaces.</text>
<text text-anchor="middle" x="70.62" y="-6.5" font-family="Helvetica,sans-Serif" font-size="10.00">ISplashScreenView</text>
</a>
</g>
</g>
<!-- Node1&#45;&gt;Node2 -->
<g id="edge1_Node000001_Node000002" class="edge">
<title>Node1&#45;&gt;Node2</title>
<g id="a_edge1_Node000001_Node000002"><a xlink:title=" ">
<path fill="none" stroke="#63b8ff" d="M1903.37,-82.36C1580.35,-79.88 518.32,-69.11 153.03,-32.1"/>
<polygon fill="#63b8ff" stroke="#63b8ff" points="153.45,-28.63 143.14,-31.07 152.73,-35.59 153.45,-28.63"/>
</a>
</g>
</g>
<!-- Node3 -->
<g id="Node000003" class="node">
<title>Node3</title>
<g id="a_Node000003"><a xlink:title=" ">
<polygon fill="#e0e0e0" stroke="#999999" points="305.88,-26 159.38,-26 159.38,-6 305.88,-6 305.88,-26"/>
<text text-anchor="middle" x="232.62" y="-12.5" font-family="Helvetica,sans-Serif" font-size="10.00">fr.softsf.sudokufx.enums.I18n</text>
</a>
</g>
</g>
<!-- Node1&#45;&gt;Node3 -->
<g id="edge2_Node000001_Node000003" class="edge">
<title>Node1&#45;&gt;Node3</title>
<g id="a_edge2_Node000001_Node000003"><a xlink:title=" ">
<path fill="none" stroke="#63b8ff" d="M1903.32,-82.01C1596.14,-78.5 626.21,-65.03 314.62,-32 306.22,-31.11 297.38,-29.84 288.74,-28.42"/>
<polygon fill="#63b8ff" stroke="#63b8ff" points="289.5,-25 279.05,-26.74 288.31,-31.9 289.5,-25"/>
</a>
</g>
</g>
<!-- Node4 -->
<g id="Node000004" class="node">
<title>Node4</title>
<g id="a_Node000004"><a xlink:title=" ">
<polygon fill="#e0e0e0" stroke="#999999" points="477.62,-32 323.62,-32 323.62,0 477.62,0 477.62,-32"/>
<text text-anchor="start" x="331.62" y="-18.5" font-family="Helvetica,sans-Serif" font-size="10.00">fr.softsf.sudokufx.configuration.</text>
<text text-anchor="middle" x="400.62" y="-6.5" font-family="Helvetica,sans-Serif" font-size="10.00">JVMApplicationProperties</text>
</a>
</g>
</g>
<!-- Node1&#45;&gt;Node4 -->
<g id="edge3_Node000001_Node000004" class="edge">
<title>Node1&#45;&gt;Node4</title>
<g id="a_edge3_Node000001_Node000004"><a xlink:title=" ">
<path fill="none" stroke="#63b8ff" d="M1903.33,-81.53C1621.11,-76.88 784.88,-61.06 489.05,-32.12"/>
<polygon fill="#63b8ff" stroke="#63b8ff" points="489.72,-28.67 479.42,-31.15 489.01,-35.64 489.72,-28.67"/>
</a>
</g>
</g>
<!-- Node5 -->
<g id="Node000005" class="node">
<title>Node5</title>
<g id="a_Node000005"><a xlink:title=" ">
<polygon fill="#e0e0e0" stroke="#999999" points="629.5,-26 495.75,-26 495.75,-6 629.5,-6 629.5,-26"/>
<text text-anchor="middle" x="562.62" y="-12.5" font-family="Helvetica,sans-Serif" font-size="10.00">javafx.animation.Animation</text>
</a>
</g>
</g>
<!-- Node1&#45;&gt;Node5 -->
<g id="edge4_Node000001_Node000005" class="edge">
<title>Node1&#45;&gt;Node5</title>
<g id="a_edge4_Node000001_Node000005"><a xlink:title=" ">
<path fill="none" stroke="#63b8ff" d="M1903.64,-81.43C1637.73,-76.69 883.42,-61 637.62,-32 630.27,-31.13 622.56,-29.93 615,-28.58"/>
<polygon fill="#63b8ff" stroke="#63b8ff" points="615.66,-25.15 605.19,-26.73 614.36,-32.02 615.66,-25.15"/>
</a>
</g>
</g>
<!-- Node6 -->
<g id="Node000006" class="node">
<title>Node6</title>
<g id="a_Node000006"><a xlink:title=" ">
<polygon fill="#e0e0e0" stroke="#999999" points="786.12,-26 647.12,-26 647.12,-6 786.12,-6 786.12,-26"/>
<text text-anchor="middle" x="716.62" y="-12.5" font-family="Helvetica,sans-Serif" font-size="10.00">javafx.animation.Interpolator</text>
</a>
</g>
</g>
<!-- Node1&#45;&gt;Node6 -->
<g id="edge5_Node000001_Node000006" class="edge">
<title>Node1&#45;&gt;Node6</title>
<g id="a_edge5_Node000001_Node000006"><a xlink:title=" ">
<path fill="none" stroke="#63b8ff" d="M1903.36,-83.64C1700.2,-84.01 1206.19,-79.43 795.62,-32 787.8,-31.1 779.59,-29.86 771.54,-28.49"/>
<polygon fill="#63b8ff" stroke="#63b8ff" points="772.28,-25.06 761.82,-26.74 771.04,-31.95 772.28,-25.06"/>
</a>
</g>
</g>
<!-- Node7 -->
<g id="Node000007" class="node">
<title>Node7</title>
<g id="a_Node000007"><a xlink:title=" ">
<polygon fill="#e0e0e0" stroke="#999999" points="966.75,-26 804.5,-26 804.5,-6 966.75,-6 966.75,-26"/>
<text text-anchor="middle" x="885.62" y="-12.5" font-family="Helvetica,sans-Serif" font-size="10.00">javafx.animation.RotateTransition</text>
</a>
</g>
</g>
<!-- Node1&#45;&gt;Node7 -->
<g id="edge6_Node000001_Node000007" class="edge">
<title>Node1&#45;&gt;Node7</title>
<g id="a_edge6_Node000001_Node000007"><a xlink:title=" ">
<path fill="none" stroke="#63b8ff" d="M1903.29,-81.92C1722.7,-79.05 1315.85,-68.72 975.62,-32 966.34,-31 956.56,-29.66 947.01,-28.2"/>
<polygon fill="#63b8ff" stroke="#63b8ff" points="947.86,-24.79 937.44,-26.68 946.76,-31.7 947.86,-24.79"/>
</a>
</g>
</g>
<!-- Node8 -->
<g id="Node000008" class="node">
<title>Node8</title>
<g id="a_Node000008"><a xlink:title=" ">
<polygon fill="#e0e0e0" stroke="#999999" points="1090.25,-26 985,-26 985,-6 1090.25,-6 1090.25,-26"/>
<text text-anchor="middle" x="1037.62" y="-12.5" font-family="Helvetica,sans-Serif" font-size="10.00">javafx.geometry.Pos</text>
</a>
</g>
</g>
<!-- Node1&#45;&gt;Node8 -->
<g id="edge7_Node000001_Node000008" class="edge">
<title>Node1&#45;&gt;Node8</title>
<g id="a_edge7_Node000001_Node000008"><a xlink:title=" ">
<path fill="none" stroke="#63b8ff" d="M1903.33,-83.22C1739.12,-82.38 1390.41,-75.07 1099.62,-32 1094.23,-31.2 1088.61,-30.15 1083.06,-28.98"/>
<polygon fill="#63b8ff" stroke="#63b8ff" points="1083.84,-25.57 1073.32,-26.78 1082.3,-32.4 1083.84,-25.57"/>
</a>
</g>
</g>
<!-- Node9 -->
<g id="Node000009" class="node">
<title>Node9</title>
<g id="a_Node000009"><a xlink:title=" ">
<polygon fill="#e0e0e0" stroke="#999999" points="1212.5,-26 1108.75,-26 1108.75,-6 1212.5,-6 1212.5,-26"/>
<text text-anchor="middle" x="1160.62" y="-12.5" font-family="Helvetica,sans-Serif" font-size="10.00">javafx.scene.Cursor</text>
</a>
</g>
</g>
<!-- Node1&#45;&gt;Node9 -->
<g id="edge8_Node000001_Node000009" class="edge">
<title>Node1&#45;&gt;Node9</title>
<g id="a_edge8_Node000001_Node000009"><a xlink:title=" ">
<path fill="none" stroke="#63b8ff" d="M1903.28,-82.12C1756.62,-79.56 1465.46,-69.69 1221.62,-32 1216.38,-31.19 1210.92,-30.14 1205.52,-28.98"/>
<polygon fill="#63b8ff" stroke="#63b8ff" points="1206.62,-25.64 1196.09,-26.81 1205.05,-32.47 1206.62,-25.64"/>
</a>
</g>
</g>
<!-- Node10 -->
<g id="Node000010" class="node">
<title>Node10</title>
<g id="a_Node000010"><a xlink:title=" ">
<polygon fill="#e0e0e0" stroke="#999999" points="1332.75,-26 1230.5,-26 1230.5,-6 1332.75,-6 1332.75,-26"/>
<text text-anchor="middle" x="1281.62" y="-12.5" font-family="Helvetica,sans-Serif" font-size="10.00">javafx.scene.Scene</text>
</a>
</g>
</g>
<!-- Node1&#45;&gt;Node10 -->
<g id="edge9_Node000001_Node000010" class="edge">
<title>Node1&#45;&gt;Node10</title>
<g id="a_edge9_Node000001_Node000010"><a xlink:title=" ">
<path fill="none" stroke="#63b8ff" d="M1903.34,-80.62C1775.38,-76.27 1539.92,-64.26 1341.62,-32 1336.66,-31.19 1331.51,-30.18 1326.4,-29.06"/>
<polygon fill="#63b8ff" stroke="#63b8ff" points="1327.38,-25.7 1316.85,-26.83 1325.79,-32.51 1327.38,-25.7"/>
</a>
</g>
</g>
<!-- Node11 -->
<g id="Node000011" class="node">
<title>Node11</title>
<g id="a_Node000011"><a xlink:title=" ">
<polygon fill="#e0e0e0" stroke="#999999" points="1480.62,-26 1350.62,-26 1350.62,-6 1480.62,-6 1480.62,-26"/>
<text text-anchor="middle" x="1415.62" y="-12.5" font-family="Helvetica,sans-Serif" font-size="10.00">javafx.scene.control.Label</text>
</a>
</g>
</g>
<!-- Node1&#45;&gt;Node11 -->
<g id="edge10_Node000001_Node000011" class="edge">
<title>Node1&#45;&gt;Node11</title>
<g id="a_edge10_Node000001_Node000011"><a xlink:title=" ">
<path fill="none" stroke="#63b8ff" d="M1903.65,-76.39C1801.42,-68.55 1633.36,-53.73 1489.62,-32 1483.15,-31.02 1476.38,-29.85 1469.68,-28.61"/>
<polygon fill="#63b8ff" stroke="#63b8ff" points="1470.51,-25.2 1460.03,-26.74 1469.18,-32.07 1470.51,-25.2"/>
</a>
</g>
</g>
<!-- Node12 -->
<g id="Node000012" class="node">
<title>Node12</title>
<g id="a_Node000012"><a xlink:title=" ">
<polygon fill="#e0e0e0" stroke="#999999" points="1620.88,-32 1498.38,-32 1498.38,0 1620.88,0 1620.88,-32"/>
<text text-anchor="start" x="1506.38" y="-18.5" font-family="Helvetica,sans-Serif" font-size="10.00">javafx.scene.effect.Drop</text>
<text text-anchor="middle" x="1559.62" y="-6.5" font-family="Helvetica,sans-Serif" font-size="10.00">Shadow</text>
</a>
</g>
</g>
<!-- Node1&#45;&gt;Node12 -->
<g id="edge11_Node000001_Node000012" class="edge">
<title>Node1&#45;&gt;Node12</title>
<g id="a_edge11_Node000001_Node000012"><a xlink:title=" ">
<path fill="none" stroke="#63b8ff" d="M1903.44,-71.76C1831.82,-62.78 1730.61,-49.18 1632.2,-32.2"/>
<polygon fill="#63b8ff" stroke="#63b8ff" points="1633.09,-28.8 1622.64,-30.53 1631.89,-35.7 1633.09,-28.8"/>
</a>
</g>
</g>
<!-- Node13 -->
<g id="Node000013" class="node">
<title>Node13</title>
<g id="a_Node000013"><a xlink:title=" ">
<polygon fill="#e0e0e0" stroke="#999999" points="1770,-26 1639.25,-26 1639.25,-6 1770,-6 1770,-26"/>
<text text-anchor="middle" x="1704.62" y="-12.5" font-family="Helvetica,sans-Serif" font-size="10.00">javafx.scene.image.Image</text>
</a>
</g>
</g>
<!-- Node1&#45;&gt;Node13 -->
<g id="edge12_Node000001_Node000013" class="edge">
<title>Node1&#45;&gt;Node13</title>
<g id="a_edge12_Node000001_Node000013"><a xlink:title=" ">
<path fill="none" stroke="#63b8ff" d="M1928.93,-67.53C1876.63,-55.74 1805.69,-39.77 1757.7,-28.96"/>
<polygon fill="#63b8ff" stroke="#63b8ff" points="1758.62,-25.58 1748.1,-26.79 1757.08,-32.4 1758.62,-25.58"/>
</a>
</g>
</g>
<!-- Node14 -->
<g id="Node000014" class="node">
<title>Node14</title>
<g id="a_Node000014"><a xlink:title=" ">
<polygon fill="#e0e0e0" stroke="#999999" points="1916.88,-26 1788.38,-26 1788.38,-6 1916.88,-6 1916.88,-26"/>
<text text-anchor="middle" x="1852.62" y="-12.5" font-family="Helvetica,sans-Serif" font-size="10.00">javafx.scene.layout.HBox</text>
</a>
</g>
</g>
<!-- Node1&#45;&gt;Node14 -->
<g id="edge13_Node000001_Node000014" class="edge">
<title>Node1&#45;&gt;Node14</title>
<g id="a_edge13_Node000001_Node000014"><a xlink:title=" ">
<path fill="none" stroke="#63b8ff" d="M1963.63,-67.53C1939.49,-56.54 1907.34,-41.9 1883.85,-31.21"/>
<polygon fill="#63b8ff" stroke="#63b8ff" points="1885.34,-28.04 1874.79,-27.09 1882.44,-34.42 1885.34,-28.04"/>
</a>
</g>
</g>
<!-- Node15 -->
<g id="Node000015" class="node">
<title>Node15</title>
<g id="a_Node000015"><a xlink:title=" ">
<polygon fill="#e0e0e0" stroke="#999999" points="2060.75,-26 1934.5,-26 1934.5,-6 2060.75,-6 2060.75,-26"/>
<text text-anchor="middle" x="1997.62" y="-12.5" font-family="Helvetica,sans-Serif" font-size="10.00">javafx.scene.layout.Pane</text>
</a>
</g>
</g>
<!-- Node1&#45;&gt;Node15 -->
<g id="edge14_Node000001_Node000015" class="edge">
<title>Node1&#45;&gt;Node15</title>
<g id="a_edge14_Node000001_Node000015"><a xlink:title=" ">
<path fill="none" stroke="#63b8ff" d="M1997.62,-67.69C1997.62,-58.8 1997.62,-47.46 1997.62,-37.77"/>
<polygon fill="#63b8ff" stroke="#63b8ff" points="2001.13,-37.83 1997.63,-27.83 1994.13,-37.83 2001.13,-37.83"/>
</a>
</g>
</g>
<!-- Node16 -->
<g id="Node000016" class="node">
<title>Node16</title>
<g id="a_Node000016"><a xlink:title=" ">
<polygon fill="#e0e0e0" stroke="#999999" points="2212.88,-26 2078.38,-26 2078.38,-6 2212.88,-6 2212.88,-26"/>
<text text-anchor="middle" x="2145.62" y="-12.5" font-family="Helvetica,sans-Serif" font-size="10.00">javafx.scene.layout.Region</text>
</a>
</g>
</g>
<!-- Node1&#45;&gt;Node16 -->
<g id="edge15_Node000001_Node000016" class="edge">
<title>Node1&#45;&gt;Node16</title>
<g id="a_edge15_Node000001_Node000016"><a xlink:title=" ">
<path fill="none" stroke="#63b8ff" d="M2032.32,-67.53C2057.07,-56.49 2090.08,-41.77 2114.08,-31.07"/>
<polygon fill="#63b8ff" stroke="#63b8ff" points="2115.32,-34.35 2123.03,-27.08 2112.47,-27.95 2115.32,-34.35"/>
</a>
</g>
</g>
<!-- Node17 -->
<g id="Node000017" class="node">
<title>Node17</title>
<g id="a_Node000017"><a xlink:title=" ">
<polygon fill="#e0e0e0" stroke="#999999" points="2358.5,-26 2230.75,-26 2230.75,-6 2358.5,-6 2358.5,-26"/>
<text text-anchor="middle" x="2294.62" y="-12.5" font-family="Helvetica,sans-Serif" font-size="10.00">javafx.scene.layout.VBox</text>
</a>
</g>
</g>
<!-- Node1&#45;&gt;Node17 -->
<g id="edge16_Node000001_Node000017" class="edge">
<title>Node1&#45;&gt;Node17</title>
<g id="a_edge16_Node000001_Node000017"><a xlink:title=" ">
<path fill="none" stroke="#63b8ff" d="M2067.26,-67.53C2120.27,-55.74 2192.18,-39.77 2240.83,-28.96"/>
<polygon fill="#63b8ff" stroke="#63b8ff" points="2241.57,-32.37 2250.58,-26.79 2240.06,-25.54 2241.57,-32.37"/>
</a>
</g>
</g>
<!-- Node18 -->
<g id="Node000018" class="node">
<title>Node18</title>
<g id="a_Node000018"><a xlink:title=" ">
<polygon fill="#e0e0e0" stroke="#999999" points="2498.5,-26 2376.75,-26 2376.75,-6 2498.5,-6 2498.5,-26"/>
<text text-anchor="middle" x="2437.62" y="-12.5" font-family="Helvetica,sans-Serif" font-size="10.00">javafx.scene.paint.Color</text>
</a>
</g>
</g>
<!-- Node1&#45;&gt;Node18 -->
<g id="edge17_Node000001_Node000018" class="edge">
<title>Node1&#45;&gt;Node18</title>
<g id="a_edge17_Node000001_Node000018"><a xlink:title=" ">
<path fill="none" stroke="#63b8ff" d="M2091.83,-71.97C2166.78,-62.72 2274.22,-48.42 2367.62,-32 2373.22,-31.02 2379.05,-29.91 2384.85,-28.75"/>
<polygon fill="#63b8ff" stroke="#63b8ff" points="2385.33,-32.22 2394.41,-26.78 2383.91,-25.36 2385.33,-32.22"/>
</a>
</g>
</g>
<!-- Node19 -->
<g id="Node000019" class="node">
<title>Node19</title>
<g id="a_Node000019"><a xlink:title=" ">
<polygon fill="#e0e0e0" stroke="#999999" points="2661.12,-26 2516.12,-26 2516.12,-6 2661.12,-6 2661.12,-26"/>
<text text-anchor="middle" x="2588.62" y="-12.5" font-family="Helvetica,sans-Serif" font-size="10.00">javafx.scene.shape.SVGPath</text>
</a>
</g>
</g>
<!-- Node1&#45;&gt;Node19 -->
<g id="edge18_Node000001_Node000019" class="edge">
<title>Node1&#45;&gt;Node19</title>
<g id="a_edge18_Node000001_Node000019"><a xlink:title=" ">
<path fill="none" stroke="#63b8ff" d="M2091.91,-75.94C2194.48,-67.71 2363.15,-52.56 2507.62,-32 2514.86,-30.97 2522.44,-29.75 2529.94,-28.46"/>
<polygon fill="#63b8ff" stroke="#63b8ff" points="2530.47,-31.93 2539.7,-26.73 2529.24,-25.03 2530.47,-31.93"/>
</a>
</g>
</g>
<!-- Node20 -->
<g id="Node000020" class="node">
<title>Node20</title>
<g id="a_Node000020"><a xlink:title=" ">
<polygon fill="#e0e0e0" stroke="#999999" points="2776.5,-26 2678.75,-26 2678.75,-6 2776.5,-6 2776.5,-26"/>
<text text-anchor="middle" x="2727.62" y="-12.5" font-family="Helvetica,sans-Serif" font-size="10.00">javafx.stage.Stage</text>
</a>
</g>
</g>
<!-- Node1&#45;&gt;Node20 -->
<g id="edge19_Node000001_Node000020" class="edge">
<title>Node1&#45;&gt;Node20</title>
<g id="a_edge19_Node000001_Node000020"><a xlink:title=" ">
<path fill="none" stroke="#63b8ff" d="M2091.91,-81.25C2222.67,-77.59 2466.09,-66.37 2670.62,-32 2675.28,-31.22 2680.11,-30.23 2684.89,-29.14"/>
<polygon fill="#63b8ff" stroke="#63b8ff" points="2685.54,-32.58 2694.42,-26.8 2683.88,-25.78 2685.54,-32.58"/>
</a>
</g>
</g>
<!-- Node21 -->
<g id="Node000021" class="node">
<title>Node21</title>
<g id="a_Node000021"><a xlink:title=" ">
<polygon fill="#e0e0e0" stroke="#999999" points="2914.75,-26 2794.5,-26 2794.5,-6 2914.75,-6 2914.75,-26"/>
<text text-anchor="middle" x="2854.62" y="-12.5" font-family="Helvetica,sans-Serif" font-size="10.00">javafx.stage.StageStyle</text>
</a>
</g>
</g>
<!-- Node1&#45;&gt;Node21 -->
<g id="edge20_Node000001_Node000021" class="edge">
<title>Node1&#45;&gt;Node21</title>
<g id="a_edge20_Node000001_Node000021"><a xlink:title=" ">
<path fill="none" stroke="#63b8ff" d="M2091.79,-81.45C2240.05,-77.98 2536.67,-66.92 2785.62,-32 2792,-31.11 2798.67,-29.95 2805.23,-28.67"/>
<polygon fill="#63b8ff" stroke="#63b8ff" points="2805.55,-32.18 2814.64,-26.74 2804.14,-25.32 2805.55,-32.18"/>
</a>
</g>
</g>
<!-- Node22 -->
<g id="Node000022" class="node">
<title>Node22</title>
<g id="a_Node000022"><a xlink:title=" ">
<polygon fill="#e0e0e0" stroke="#999999" points="3030.5,-26 2932.75,-26 2932.75,-6 3030.5,-6 3030.5,-26"/>
<text text-anchor="middle" x="2981.62" y="-12.5" font-family="Helvetica,sans-Serif" font-size="10.00">javafx.util.Duration</text>
</a>
</g>
</g>
<!-- Node1&#45;&gt;Node22 -->
<g id="edge21_Node000001_Node000022" class="edge">
<title>Node1&#45;&gt;Node22</title>
<g id="a_edge21_Node000001_Node000022"><a xlink:title=" ">
<path fill="none" stroke="#63b8ff" d="M2091.92,-83.94C2260.07,-84.26 2622.33,-78.78 2923.62,-32 2928.56,-31.23 2933.68,-30.23 2938.74,-29.1"/>
<polygon fill="#63b8ff" stroke="#63b8ff" points="2939.27,-32.57 2948.18,-26.83 2937.64,-25.77 2939.27,-32.57"/>
</a>
</g>
</g>
<!-- Node23 -->
<g id="Node000023" class="node">
<title>Node23</title>
<g id="a_Node000023"><a xlink:title=" ">
<polygon fill="#e0e0e0" stroke="#999999" points="3126.75,-26 3048.5,-26 3048.5,-6 3126.75,-6 3126.75,-26"/>
<text text-anchor="middle" x="3087.62" y="-12.5" font-family="Helvetica,sans-Serif" font-size="10.00">java.time.Year</text>
</a>
</g>
</g>
<!-- Node1&#45;&gt;Node23 -->
<g id="edge22_Node000001_Node000023" class="edge">
<title>Node1&#45;&gt;Node23</title>
<g id="a_edge22_Node000001_Node000023"><a xlink:title=" ">
<path fill="none" stroke="#63b8ff" d="M2091.88,-81.45C2312.85,-77.31 2859.18,-64.07 3039.62,-32 3043.24,-31.36 3046.95,-30.52 3050.65,-29.58"/>
<polygon fill="#63b8ff" stroke="#63b8ff" points="3051.4,-33 3060.06,-26.89 3049.48,-26.27 3051.4,-33"/>
</a>
</g>
</g>
<!-- Node24 -->
<g id="Node000024" class="node">
<title>Node24</title>
<g id="a_Node000024"><a xlink:title=" ">
<polygon fill="#e0e0e0" stroke="#999999" points="3230.88,-26 3144.38,-26 3144.38,-6 3230.88,-6 3230.88,-26"/>
<text text-anchor="middle" x="3187.62" y="-12.5" font-family="Helvetica,sans-Serif" font-size="10.00">java.util.Objects</text>
</a>
</g>
</g>
<!-- Node1&#45;&gt;Node24 -->
<g id="edge23_Node000001_Node000024" class="edge">
<title>Node1&#45;&gt;Node24</title>
<g id="a_edge23_Node000001_Node000024"><a xlink:title=" ">
<path fill="none" stroke="#63b8ff" d="M2091.74,-81.64C2326.92,-77.78 2935.72,-64.84 3135.62,-32 3139.76,-31.32 3144.04,-30.42 3148.28,-29.4"/>
<polygon fill="#63b8ff" stroke="#63b8ff" points="3149.06,-32.81 3157.83,-26.87 3147.27,-26.05 3149.06,-32.81"/>
</a>
</g>
</g>
<!-- Node25 -->
<g id="Node000025" class="node">
<title>Node25</title>
<g id="a_Node000025"><a xlink:title=" ">
<polygon fill="#e0e0e0" stroke="#999999" points="3413.88,-32 3249.38,-32 3249.38,0 3413.88,0 3413.88,-32"/>
<text text-anchor="start" x="3257.38" y="-18.5" font-family="Helvetica,sans-Serif" font-size="10.00">fr.softsf.sudokufx.enums.</text>
<text text-anchor="middle" x="3331.62" y="-6.5" font-family="Helvetica,sans-Serif" font-size="10.00">Paths.LOGO_SUDO_PNG_PATH</text>
</a>
</g>
</g>
<!-- Node1&#45;&gt;Node25 -->
<g id="edge24_Node000001_Node000025" class="edge">
<title>Node1&#45;&gt;Node25</title>
<g id="a_edge24_Node000001_Node000025"><a xlink:title=" ">
<path fill="none" stroke="#63b8ff" d="M2091.77,-83C2297.74,-82.16 2803.89,-75.53 3237.73,-32.1"/>
<polygon fill="#63b8ff" stroke="#63b8ff" points="3237.83,-35.6 3247.43,-31.12 3237.13,-28.64 3237.83,-35.6"/>
</a>
</g>
</g>
<!-- Node26 -->
<g id="Node000026" class="node">
<title>Node26</title>
<g id="a_Node000026"><a xlink:title=" ">
<polygon fill="#e0e0e0" stroke="#999999" points="3597.62,-32 3431.62,-32 3431.62,0 3597.62,0 3597.62,-32"/>
<text text-anchor="start" x="3439.62" y="-18.5" font-family="Helvetica,sans-Serif" font-size="10.00">fr.softsf.sudokufx.enums.</text>
<text text-anchor="middle" x="3514.62" y="-6.5" font-family="Helvetica,sans-Serif" font-size="10.00">Paths.RESOURCES_CSS_PATH</text>
</a>
</g>
</g>
<!-- Node1&#45;&gt;Node26 -->
<g id="edge25_Node000001_Node000026" class="edge">
<title>Node1&#45;&gt;Node26</title>
<g id="a_edge25_Node000001_Node000026"><a xlink:title=" ">
<path fill="none" stroke="#63b8ff" d="M2091.69,-83.72C2318.59,-84.56 2914.04,-81.53 3420.25,-32.14"/>
<polygon fill="#63b8ff" stroke="#63b8ff" points="3420.33,-35.65 3429.94,-31.19 3419.64,-28.69 3420.33,-35.65"/>
</a>
</g>
</g>
<!-- Node27 -->
<g id="Node000027" class="node">
<title>Node27</title>
<g id="a_Node000027"><a xlink:title=" ">
<polygon fill="#e0e0e0" stroke="#999999" points="3776,-32 3615.25,-32 3615.25,0 3776,0 3776,-32"/>
<text text-anchor="start" x="3623.25" y="-18.5" font-family="Helvetica,sans-Serif" font-size="10.00">fr.softsf.sudokufx.enums.</text>
<text text-anchor="middle" x="3695.62" y="-6.5" font-family="Helvetica,sans-Serif" font-size="10.00">ScreenSize.DISPOSABLE_SIZE</text>
</a>
</g>
</g>
<!-- Node1&#45;&gt;Node27 -->
<g id="edge26_Node000001_Node000027" class="edge">
<title>Node1&#45;&gt;Node27</title>
<g id="a_edge26_Node000001_Node000027"><a xlink:title=" ">
<path fill="none" stroke="#63b8ff" d="M2091.92,-81.69C2386.38,-77.33 3287.56,-61.95 3603.71,-32.17"/>
<polygon fill="#63b8ff" stroke="#63b8ff" points="3604.04,-35.66 3613.65,-31.21 3603.36,-28.69 3604.04,-35.66"/>
</a>
</g>
</g>
<!-- Node28 -->
<g id="Node000028" class="node">
<title>Node28</title>
<g id="a_Node000028"><a xlink:title=" ">
<polygon fill="#e0e0e0" stroke="#999999" points="3931,-32 3794.25,-32 3794.25,0 3931,0 3931,-32"/>
<text text-anchor="start" x="3802.25" y="-18.5" font-family="Helvetica,sans-Serif" font-size="10.00">javafx.scene.layout.Priority.</text>
<text text-anchor="middle" x="3862.62" y="-6.5" font-family="Helvetica,sans-Serif" font-size="10.00">ALWAYS</text>
</a>
</g>
</g>
<!-- Node1&#45;&gt;Node28 -->
<g id="edge27_Node000001_Node000028" class="edge">
<title>Node1&#45;&gt;Node28</title>
<g id="a_edge27_Node000001_Node000028"><a xlink:title=" ">
<path fill="none" stroke="#63b8ff" d="M2091.85,-82.32C2407.89,-79.73 3429.63,-68.74 3782.55,-32.06"/>
<polygon fill="#63b8ff" stroke="#63b8ff" points="3782.74,-35.56 3792.31,-31.02 3781.99,-28.6 3782.74,-35.56"/>
</a>
</g>
</g>
</g>
</svg>

<g id="navigator" transform="translate(0 0)" fill="#404254">
  <rect fill="#f2f5e9" fill-opacity="0.5" stroke="#606060" stroke-width=".5" x="0" y="0" width="60" height="60"/>
  <use id="zoomplus" xlink:href="#zoomPlus" x="17" y="9" onmousedown="handleZoom(evt,'in')"/>
  <use id="zoomminus" xlink:href="#zoomMin" x="42" y="9" onmousedown="handleZoom(evt,'out')"/>
  <use id="reset" xlink:href="#resetDef" x="30" y="36" onmousedown="handleReset()"/>
   <use id="arrowup" xlink:href="#arrowUp" x="0" y="0" onmousedown="handlePan(0,-1)"/>
  <use id="arrowright" xlink:href="#arrowRight" x="0" y="0" onmousedown="handlePan(1,0)"/>
  <use id="arrowdown" xlink:href="#arrowDown" x="0" y="0" onmousedown="handlePan(0,1)"/>
  <use id="arrowleft" xlink:href="#arrowLeft" x="0" y="0" onmousedown="handlePan(-1,0)"/>
</g>
<svg viewBox="0 0 15 15" width="100%" height="30px" preserveAspectRatio="xMaxYMin meet">
 <g id="arrow_out" transform="scale(0.3 0.3)">
  <a xlink:href="_splash_screen_view_8java__incl_org.svg" target="_base">
   <rect id="button" ry="5" rx="5" y="6" x="6" height="38" width="38"
        fill="#f2f5e9" fill-opacity="0.5" stroke="#606060" stroke-width="1.0"/>
   <path id="arrow"
     d="M 11.500037,31.436501 C 11.940474,20.09759 22.043105,11.32322 32.158766,21.979434 L 37.068811,17.246167 C 37.068811,17.246167 37.088388,32 37.088388,32 L 22.160133,31.978069 C 22.160133,31.978069 26.997745,27.140456 26.997745,27.140456 C 18.528582,18.264221 13.291696,25.230495 11.500037,31.436501 z"
     style="fill:#404040;"/>
  </a>
 </g>
</svg>

<style type='text/css'>
<![CDATA[
[data-mouse-over-selected='false'] { opacity: 0.7; }
[data-mouse-over-selected='true']  { opacity: 1.0; }
]]>
</style>
<script type="application/ecmascript"><![CDATA[
document.addEventListener('DOMContentLoaded', (event) => {
  highlightEdges();
  highlightAdjacentNodes();
});
]]></script>
</svg>
