<?xml version="1.0" encoding="UTF-8" standalone="no"?>
<!DOCTYPE svg PUBLIC "-//W3C//DTD SVG 1.1//EN"
 "http://www.w3.org/Graphics/SVG/1.1/DTD/svg11.dtd">
<!-- Generated by graphviz version 12.2.1 (20241206.2353)
 -->
<!-- Title: src/main/java/fr/softsf/sudokufx/SudoMain.java Pages: 1 -->
<svg width="3798pt" height="120pt"
 viewBox="0.00 0.00 3798.12 120.00" xmlns="http://www.w3.org/2000/svg" xmlns:xlink="http://www.w3.org/1999/xlink">
<g id="graph0" class="graph" transform="scale(1 1) rotate(0) translate(4 116)">
<title>src/main/java/fr/softsf/sudokufx/SudoMain.java</title>
<!-- Node1 -->
<g id="Node000001" class="node">
<title>Node1</title>
<g id="a_Node000001"><a xlink:title=" ">
<polygon fill="#999999" stroke="#666666" points="1850.12,-112 1723.88,-112 1723.88,-80 1850.12,-80 1850.12,-112"/>
<text text-anchor="start" x="1731.88" y="-98.5" font-family="Helvetica,sans-Serif" font-size="10.00">src/main/java/fr/softsf</text>
<text text-anchor="middle" x="1787" y="-86.5" font-family="Helvetica,sans-Serif" font-size="10.00">/sudokufx/SudoMain.java</text>
</a>
</g>
</g>
<!-- Node2 -->
<g id="Node000002" class="node">
<title>Node2</title>
<g id="a_Node000002"><a xlink:title=" ">
<polygon fill="#e0e0e0" stroke="#999999" points="130,-38 0,-38 0,-6 130,-6 130,-38"/>
<text text-anchor="start" x="8" y="-24.5" font-family="Helvetica,sans-Serif" font-size="10.00">com.gluonhq.ignite.spring.</text>
<text text-anchor="middle" x="65" y="-12.5" font-family="Helvetica,sans-Serif" font-size="10.00">SpringContext</text>
</a>
</g>
</g>
<!-- Node1&#45;&gt;Node2 -->
<g id="edge1_Node000001_Node000002" class="edge">
<title>Node1&#45;&gt;Node2</title>
<g id="a_edge1_Node000001_Node000002"><a xlink:title=" ">
<path fill="none" stroke="#63b8ff" d="M1723.69,-95.11C1460.59,-95.27 452.81,-92.62 139,-44 134.04,-43.23 128.94,-42.24 123.85,-41.1"/>
<polygon fill="#63b8ff" stroke="#63b8ff" points="124.8,-37.73 114.26,-38.76 123.15,-44.53 124.8,-37.73"/>
</a>
</g>
</g>
<!-- Node3 -->
<g id="Node000003" class="node">
<title>Node3</title>
<g id="a_Node000003"><a xlink:title=" ">
<polygon fill="#e0e0e0" stroke="#999999" points="289.62,-38 148.38,-38 148.38,-6 289.62,-6 289.62,-38"/>
<text text-anchor="start" x="156.38" y="-24.5" font-family="Helvetica,sans-Serif" font-size="10.00">fr.softsf.sudokufx.interfaces.</text>
<text text-anchor="middle" x="219" y="-12.5" font-family="Helvetica,sans-Serif" font-size="10.00">IMainStageView</text>
</a>
</g>
</g>
<!-- Node1&#45;&gt;Node3 -->
<g id="edge2_Node000001_Node000003" class="edge">
<title>Node1&#45;&gt;Node3</title>
<g id="a_edge2_Node000001_Node000003"><a xlink:title=" ">
<path fill="none" stroke="#63b8ff" d="M1723.64,-94.73C1476.82,-93.39 579.45,-85.68 298,-44 292.67,-43.21 287.17,-42.19 281.69,-41.03"/>
<polygon fill="#63b8ff" stroke="#63b8ff" points="282.5,-37.63 271.97,-38.81 280.94,-44.45 282.5,-37.63"/>
</a>
</g>
</g>
<!-- Node4 -->
<g id="Node000004" class="node">
<title>Node4</title>
<g id="a_Node000004"><a xlink:title=" ">
<polygon fill="#e0e0e0" stroke="#999999" points="448.62,-38 307.38,-38 307.38,-6 448.62,-6 448.62,-38"/>
<text text-anchor="start" x="315.38" y="-24.5" font-family="Helvetica,sans-Serif" font-size="10.00">fr.softsf.sudokufx.interfaces.</text>
<text text-anchor="middle" x="378" y="-12.5" font-family="Helvetica,sans-Serif" font-size="10.00">ISplashScreenView</text>
</a>
</g>
</g>
<!-- Node1&#45;&gt;Node4 -->
<g id="edge3_Node000001_Node000004" class="edge">
<title>Node1&#45;&gt;Node4</title>
<g id="a_edge3_Node000001_Node000004"><a xlink:title=" ">
<path fill="none" stroke="#63b8ff" d="M1723.51,-94.4C1493.83,-91.94 706.66,-80.95 458,-44 452.46,-43.18 446.75,-42.12 441.06,-40.91"/>
<polygon fill="#63b8ff" stroke="#63b8ff" points="442.16,-37.57 431.64,-38.77 440.61,-44.4 442.16,-37.57"/>
</a>
</g>
</g>
<!-- Node5 -->
<g id="Node000005" class="node">
<title>Node5</title>
<g id="a_Node000005"><a xlink:title=" ">
<polygon fill="#e0e0e0" stroke="#999999" points="597,-38 467,-38 467,-6 597,-6 597,-38"/>
<text text-anchor="start" x="475" y="-24.5" font-family="Helvetica,sans-Serif" font-size="10.00">fr.softsf.sudokufx.service.</text>
<text text-anchor="middle" x="532" y="-12.5" font-family="Helvetica,sans-Serif" font-size="10.00">FxmlService</text>
</a>
</g>
</g>
<!-- Node1&#45;&gt;Node5 -->
<g id="edge4_Node000001_Node000005" class="edge">
<title>Node1&#45;&gt;Node5</title>
<g id="a_edge4_Node000001_Node000005"><a xlink:title=" ">
<path fill="none" stroke="#63b8ff" d="M1723.7,-94.21C1511.16,-91.26 824.19,-79.17 606,-44 601.12,-43.21 596.11,-42.22 591.1,-41.08"/>
<polygon fill="#63b8ff" stroke="#63b8ff" points="592.21,-37.75 581.67,-38.78 590.55,-44.55 592.21,-37.75"/>
</a>
</g>
</g>
<!-- Node6 -->
<g id="Node000006" class="node">
<title>Node6</title>
<g id="a_Node000006"><a xlink:title=" ">
<polygon fill="#e0e0e0" stroke="#999999" points="750.62,-32 615.38,-32 615.38,-12 750.62,-12 750.62,-32"/>
<text text-anchor="middle" x="683" y="-18.5" font-family="Helvetica,sans-Serif" font-size="10.00">fr.softsf.sudokufx.utils.I18n</text>
</a>
</g>
</g>
<!-- Node1&#45;&gt;Node6 -->
<g id="edge5_Node000001_Node000006" class="edge">
<title>Node1&#45;&gt;Node6</title>
<g id="a_edge5_Node000001_Node000006"><a xlink:title=" ">
<path fill="none" stroke="#63b8ff" d="M1723.66,-93.65C1529.92,-89.24 947.09,-73.8 760,-44 747.76,-42.05 734.68,-38.9 722.84,-35.63"/>
<polygon fill="#63b8ff" stroke="#63b8ff" points="723.96,-32.31 713.38,-32.91 722.02,-39.04 723.96,-32.31"/>
</a>
</g>
</g>
<!-- Node7 -->
<g id="Node000007" class="node">
<title>Node7</title>
<g id="a_Node000007"><a xlink:title=" ">
<polygon fill="#e0e0e0" stroke="#999999" points="885.25,-38 768.75,-38 768.75,-6 885.25,-6 885.25,-38"/>
<text text-anchor="start" x="776.75" y="-24.5" font-family="Helvetica,sans-Serif" font-size="10.00">fr.softsf.sudokufx.utils.</text>
<text text-anchor="middle" x="827" y="-12.5" font-family="Helvetica,sans-Serif" font-size="10.00">MyEnums</text>
</a>
</g>
</g>
<!-- Node1&#45;&gt;Node7 -->
<g id="edge6_Node000001_Node000007" class="edge">
<title>Node1&#45;&gt;Node7</title>
<g id="a_edge6_Node000001_Node000007"><a xlink:title=" ">
<path fill="none" stroke="#63b8ff" d="M1723.58,-93.41C1547.23,-88.66 1053.55,-73.1 894,-44 889.99,-43.27 885.88,-42.37 881.77,-41.36"/>
<polygon fill="#63b8ff" stroke="#63b8ff" points="882.97,-38.06 872.4,-38.85 881.16,-44.82 882.97,-38.06"/>
</a>
</g>
</g>
<!-- Node8 -->
<g id="Node000008" class="node">
<title>Node8</title>
<g id="a_Node000008"><a xlink:title=" ">
<polygon fill="#e0e0e0" stroke="#999999" points="1021,-38 903,-38 903,-6 1021,-6 1021,-38"/>
<text text-anchor="start" x="911" y="-24.5" font-family="Helvetica,sans-Serif" font-size="10.00">fr.softsf.sudokufx.view.</text>
<text text-anchor="middle" x="962" y="-12.5" font-family="Helvetica,sans-Serif" font-size="10.00">SplashScreenView</text>
</a>
</g>
</g>
<!-- Node1&#45;&gt;Node8 -->
<g id="edge7_Node000001_Node000008" class="edge">
<title>Node1&#45;&gt;Node8</title>
<g id="a_edge7_Node000001_Node000008"><a xlink:title=" ">
<path fill="none" stroke="#63b8ff" d="M1723.57,-95.67C1592.73,-95.97 1283.84,-91.08 1030,-44 1026,-43.26 1021.9,-42.36 1017.8,-41.36"/>
<polygon fill="#63b8ff" stroke="#63b8ff" points="1019.02,-38.06 1008.45,-38.88 1017.22,-44.82 1019.02,-38.06"/>
</a>
</g>
</g>
<!-- Node9 -->
<g id="Node000009" class="node">
<title>Node9</title>
<g id="a_Node000009"><a xlink:title=" ">
<polygon fill="#e0e0e0" stroke="#999999" points="1199.38,-32 1038.62,-32 1038.62,-12 1199.38,-12 1199.38,-32"/>
<text text-anchor="middle" x="1119" y="-18.5" font-family="Helvetica,sans-Serif" font-size="10.00">javafx.animation.PauseTransition</text>
</a>
</g>
</g>
<!-- Node1&#45;&gt;Node9 -->
<g id="edge8_Node000001_Node000009" class="edge">
<title>Node1&#45;&gt;Node9</title>
<g id="a_edge8_Node000001_Node000009"><a xlink:title=" ">
<path fill="none" stroke="#63b8ff" d="M1723.78,-92.35C1617.09,-87.22 1394.76,-73.72 1209,-44 1194.62,-41.7 1179.13,-38.39 1165.12,-35.08"/>
<polygon fill="#63b8ff" stroke="#63b8ff" points="1166.26,-31.76 1155.72,-32.8 1164.61,-38.56 1166.26,-31.76"/>
</a>
</g>
</g>
<!-- Node10 -->
<g id="Node000010" class="node">
<title>Node10</title>
<g id="a_Node000010"><a xlink:title=" ">
<polygon fill="#e0e0e0" stroke="#999999" points="1360.38,-32 1217.62,-32 1217.62,-12 1360.38,-12 1360.38,-32"/>
<text text-anchor="middle" x="1289" y="-18.5" font-family="Helvetica,sans-Serif" font-size="10.00">javafx.application.Application</text>
</a>
</g>
</g>
<!-- Node1&#45;&gt;Node10 -->
<g id="edge9_Node000001_Node000010" class="edge">
<title>Node1&#45;&gt;Node10</title>
<g id="a_edge9_Node000001_Node000010"><a xlink:title=" ">
<path fill="none" stroke="#63b8ff" d="M1723.56,-89.95C1641.29,-82.79 1493.58,-67.84 1369,-44 1356.92,-41.69 1343.97,-38.57 1332.09,-35.45"/>
<polygon fill="#63b8ff" stroke="#63b8ff" points="1333.11,-32.1 1322.54,-32.88 1331.29,-38.86 1333.11,-32.1"/>
</a>
</g>
</g>
<!-- Node11 -->
<g id="Node000011" class="node">
<title>Node11</title>
<g id="a_Node000011"><a xlink:title=" ">
<polygon fill="#e0e0e0" stroke="#999999" points="1509.75,-32 1378.25,-32 1378.25,-12 1509.75,-12 1509.75,-32"/>
<text text-anchor="middle" x="1444" y="-18.5" font-family="Helvetica,sans-Serif" font-size="10.00">javafx.application.Platform</text>
</a>
</g>
</g>
<!-- Node1&#45;&gt;Node11 -->
<g id="edge10_Node000001_Node000011" class="edge">
<title>Node1&#45;&gt;Node11</title>
<g id="a_edge10_Node000001_Node000011"><a xlink:title=" ">
<path fill="none" stroke="#63b8ff" d="M1723.62,-84.63C1668.89,-75.28 1587.85,-60.5 1518,-44 1507.5,-41.52 1496.26,-38.51 1485.79,-35.56"/>
<polygon fill="#63b8ff" stroke="#63b8ff" points="1486.84,-32.22 1476.26,-32.82 1484.9,-38.95 1486.84,-32.22"/>
</a>
</g>
</g>
<!-- Node12 -->
<g id="Node000012" class="node">
<title>Node12</title>
<g id="a_Node000012"><a xlink:title=" ">
<polygon fill="#e0e0e0" stroke="#999999" points="1642.5,-32 1527.5,-32 1527.5,-12 1642.5,-12 1642.5,-32"/>
<text text-anchor="middle" x="1585" y="-18.5" font-family="Helvetica,sans-Serif" font-size="10.00">javafx.concurrent.Task</text>
</a>
</g>
</g>
<!-- Node1&#45;&gt;Node12 -->
<g id="edge11_Node000001_Node000012" class="edge">
<title>Node1&#45;&gt;Node12</title>
<g id="a_edge11_Node000001_Node000012"><a xlink:title=" ">
<path fill="none" stroke="#63b8ff" d="M1743.67,-79.55C1707.47,-66.65 1656.42,-48.46 1622.09,-36.22"/>
<polygon fill="#63b8ff" stroke="#63b8ff" points="1623.59,-33.04 1613,-32.98 1621.24,-39.63 1623.59,-33.04"/>
</a>
</g>
</g>
<!-- Node13 -->
<g id="Node000013" class="node">
<title>Node13</title>
<g id="a_Node000013"><a xlink:title=" ">
<polygon fill="#e0e0e0" stroke="#999999" points="1783.25,-32 1660.75,-32 1660.75,-12 1783.25,-12 1783.25,-32"/>
<text text-anchor="middle" x="1722" y="-18.5" font-family="Helvetica,sans-Serif" font-size="10.00">javafx.fxml.FXMLLoader</text>
</a>
</g>
</g>
<!-- Node1&#45;&gt;Node13 -->
<g id="edge12_Node000001_Node000013" class="edge">
<title>Node1&#45;&gt;Node13</title>
<g id="a_edge12_Node000001_Node000013"><a xlink:title=" ">
<path fill="none" stroke="#63b8ff" d="M1773.22,-79.73C1762.88,-68.28 1748.72,-52.59 1737.9,-40.62"/>
<polygon fill="#63b8ff" stroke="#63b8ff" points="1740.72,-38.51 1731.42,-33.43 1735.52,-43.2 1740.72,-38.51"/>
</a>
</g>
</g>
<!-- Node14 -->
<g id="Node000014" class="node">
<title>Node14</title>
<g id="a_Node000014"><a xlink:title=" ">
<polygon fill="#e0e0e0" stroke="#999999" points="1903.12,-32 1800.88,-32 1800.88,-12 1903.12,-12 1903.12,-32"/>
<text text-anchor="middle" x="1852" y="-18.5" font-family="Helvetica,sans-Serif" font-size="10.00">javafx.scene.Scene</text>
</a>
</g>
</g>
<!-- Node1&#45;&gt;Node14 -->
<g id="edge13_Node000001_Node000014" class="edge">
<title>Node1&#45;&gt;Node14</title>
<g id="a_edge13_Node000001_Node000014"><a xlink:title=" ">
<path fill="none" stroke="#63b8ff" d="M1800.78,-79.73C1811.12,-68.28 1825.28,-52.59 1836.1,-40.62"/>
<polygon fill="#63b8ff" stroke="#63b8ff" points="1838.48,-43.2 1842.58,-33.43 1833.28,-38.51 1838.48,-43.2"/>
</a>
</g>
</g>
<!-- Node15 -->
<g id="Node000015" class="node">
<title>Node15</title>
<g id="a_Node000015"><a xlink:title=" ">
<polygon fill="#e0e0e0" stroke="#999999" points="2018.88,-32 1921.12,-32 1921.12,-12 2018.88,-12 2018.88,-32"/>
<text text-anchor="middle" x="1970" y="-18.5" font-family="Helvetica,sans-Serif" font-size="10.00">javafx.stage.Stage</text>
</a>
</g>
</g>
<!-- Node1&#45;&gt;Node15 -->
<g id="edge14_Node000001_Node000015" class="edge">
<title>Node1&#45;&gt;Node15</title>
<g id="a_edge14_Node000001_Node000015"><a xlink:title=" ">
<path fill="none" stroke="#63b8ff" d="M1826.26,-79.55C1858.76,-66.77 1904.5,-48.77 1935.59,-36.54"/>
<polygon fill="#63b8ff" stroke="#63b8ff" points="1936.49,-39.94 1944.52,-33.03 1933.93,-33.43 1936.49,-39.94"/>
</a>
</g>
</g>
<!-- Node16 -->
<g id="Node000016" class="node">
<title>Node16</title>
<g id="a_Node000016"><a xlink:title=" ">
<polygon fill="#e0e0e0" stroke="#999999" points="2134.88,-32 2037.12,-32 2037.12,-12 2134.88,-12 2134.88,-32"/>
<text text-anchor="middle" x="2086" y="-18.5" font-family="Helvetica,sans-Serif" font-size="10.00">javafx.util.Duration</text>
</a>
</g>
</g>
<!-- Node1&#45;&gt;Node16 -->
<g id="edge15_Node000001_Node000016" class="edge">
<title>Node1&#45;&gt;Node16</title>
<g id="a_edge15_Node000001_Node000016"><a xlink:title=" ">
<path fill="none" stroke="#63b8ff" d="M1850.51,-84.05C1899.45,-75.02 1968.57,-60.96 2028,-44 2035.68,-41.81 2043.81,-39.11 2051.47,-36.39"/>
<polygon fill="#63b8ff" stroke="#63b8ff" points="2052.65,-39.69 2060.84,-32.96 2050.24,-33.11 2052.65,-39.69"/>
</a>
</g>
</g>
<!-- Node17 -->
<g id="Node000017" class="node">
<title>Node17</title>
<g id="a_Node000017"><a xlink:title=" ">
<polygon fill="#e0e0e0" stroke="#999999" points="2230.75,-32 2153.25,-32 2153.25,-12 2230.75,-12 2230.75,-32"/>
<text text-anchor="middle" x="2192" y="-18.5" font-family="Helvetica,sans-Serif" font-size="10.00">lombok.Getter</text>
</a>
</g>
</g>
<!-- Node1&#45;&gt;Node17 -->
<g id="edge16_Node000001_Node000017" class="edge">
<title>Node1&#45;&gt;Node17</title>
<g id="a_edge16_Node000001_Node000017"><a xlink:title=" ">
<path fill="none" stroke="#63b8ff" d="M1850.3,-91.14C1922.52,-85.56 2043.58,-72.57 2144,-44 2150.5,-42.15 2157.27,-39.61 2163.61,-36.92"/>
<polygon fill="#63b8ff" stroke="#63b8ff" points="2164.67,-40.29 2172.36,-33 2161.8,-33.9 2164.67,-40.29"/>
</a>
</g>
</g>
<!-- Node18 -->
<g id="Node000018" class="node">
<title>Node18</title>
<g id="a_Node000018"><a xlink:title=" ">
<polygon fill="#e0e0e0" stroke="#999999" points="2369.5,-32 2248.5,-32 2248.5,-12 2369.5,-12 2369.5,-32"/>
<text text-anchor="middle" x="2309" y="-18.5" font-family="Helvetica,sans-Serif" font-size="10.00">lombok.extern.slf4j.Slf4j</text>
</a>
</g>
</g>
<!-- Node1&#45;&gt;Node18 -->
<g id="edge17_Node000001_Node000018" class="edge">
<title>Node1&#45;&gt;Node18</title>
<g id="a_edge17_Node000001_Node000018"><a xlink:title=" ">
<path fill="none" stroke="#63b8ff" d="M1850.6,-91.53C1938.78,-85.88 2102.82,-72.35 2240,-44 2250.25,-41.88 2261.15,-38.91 2271.2,-35.87"/>
<polygon fill="#63b8ff" stroke="#63b8ff" points="2272.16,-39.23 2280.65,-32.9 2270.06,-32.56 2272.16,-39.23"/>
</a>
</g>
</g>
<!-- Node19 -->
<g id="Node000019" class="node">
<title>Node19</title>
<g id="a_Node000019"><a xlink:title=" ">
<polygon fill="#e0e0e0" stroke="#999999" points="2604.5,-38 2387.5,-38 2387.5,-6 2604.5,-6 2604.5,-38"/>
<text text-anchor="start" x="2395.5" y="-24.5" font-family="Helvetica,sans-Serif" font-size="10.00">org.springframework.beans.factory.annotation.</text>
<text text-anchor="middle" x="2496" y="-12.5" font-family="Helvetica,sans-Serif" font-size="10.00">Autowired</text>
</a>
</g>
</g>
<!-- Node1&#45;&gt;Node19 -->
<g id="edge18_Node000001_Node000019" class="edge">
<title>Node1&#45;&gt;Node19</title>
<g id="a_edge18_Node000001_Node000019"><a xlink:title=" ">
<path fill="none" stroke="#63b8ff" d="M1850.29,-91.46C1958.81,-84.96 2187.25,-69.41 2379,-44 2387.18,-42.92 2395.66,-41.66 2404.14,-40.31"/>
<polygon fill="#63b8ff" stroke="#63b8ff" points="2404.48,-43.8 2413.78,-38.73 2403.35,-36.89 2404.48,-43.8"/>
</a>
</g>
</g>
<!-- Node20 -->
<g id="Node000020" class="node">
<title>Node20</title>
<g id="a_Node000020"><a xlink:title=" ">
<polygon fill="#e0e0e0" stroke="#999999" points="2751.62,-38 2622.38,-38 2622.38,-6 2751.62,-6 2751.62,-38"/>
<text text-anchor="start" x="2630.38" y="-24.5" font-family="Helvetica,sans-Serif" font-size="10.00">org.springframework.boot.</text>
<text text-anchor="middle" x="2687" y="-12.5" font-family="Helvetica,sans-Serif" font-size="10.00">SpringApplication</text>
</a>
</g>
</g>
<!-- Node1&#45;&gt;Node20 -->
<g id="edge19_Node000001_Node000020" class="edge">
<title>Node1&#45;&gt;Node20</title>
<g id="a_edge19_Node000001_Node000020"><a xlink:title=" ">
<path fill="none" stroke="#63b8ff" d="M1850.57,-95.78C1989.95,-96.48 2332.44,-92.58 2614,-44 2618.61,-43.21 2623.33,-42.23 2628.06,-41.13"/>
<polygon fill="#63b8ff" stroke="#63b8ff" points="2628.72,-44.58 2637.58,-38.77 2627.03,-37.79 2628.72,-44.58"/>
</a>
</g>
</g>
<!-- Node21 -->
<g id="Node000021" class="node">
<title>Node21</title>
<g id="a_Node000021"><a xlink:title=" ">
<polygon fill="#e0e0e0" stroke="#999999" points="2960.38,-38 2769.62,-38 2769.62,-6 2960.38,-6 2960.38,-38"/>
<text text-anchor="start" x="2777.62" y="-24.5" font-family="Helvetica,sans-Serif" font-size="10.00">org.springframework.boot.autoconfigure.</text>
<text text-anchor="middle" x="2865" y="-12.5" font-family="Helvetica,sans-Serif" font-size="10.00">SpringBootApplication</text>
</a>
</g>
</g>
<!-- Node1&#45;&gt;Node21 -->
<g id="edge20_Node000001_Node000021" class="edge">
<title>Node1&#45;&gt;Node21</title>
<g id="a_edge20_Node000001_Node000021"><a xlink:title=" ">
<path fill="none" stroke="#63b8ff" d="M1850.53,-94.9C2006.33,-93.94 2419.56,-87.17 2761,-44 2768.64,-43.03 2776.56,-41.82 2784.46,-40.47"/>
<polygon fill="#63b8ff" stroke="#63b8ff" points="2784.87,-43.96 2794.1,-38.75 2783.64,-37.07 2784.87,-43.96"/>
</a>
</g>
</g>
<!-- Node22 -->
<g id="Node000022" class="node">
<title>Node22</title>
<g id="a_Node000022"><a xlink:title=" ">
<polygon fill="#e0e0e0" stroke="#999999" points="3169.38,-38 2978.62,-38 2978.62,-6 3169.38,-6 3169.38,-38"/>
<text text-anchor="start" x="2986.62" y="-24.5" font-family="Helvetica,sans-Serif" font-size="10.00">org.springframework.context.annotation.</text>
<text text-anchor="middle" x="3074" y="-12.5" font-family="Helvetica,sans-Serif" font-size="10.00">ComponentScan</text>
</a>
</g>
</g>
<!-- Node1&#45;&gt;Node22 -->
<g id="edge21_Node000001_Node000022" class="edge">
<title>Node1&#45;&gt;Node22</title>
<g id="a_edge21_Node000001_Node000022"><a xlink:title=" ">
<path fill="none" stroke="#63b8ff" d="M1850.39,-95.69C2027.78,-96.89 2544.09,-95.35 2969,-44 2976.93,-43.04 2985.16,-41.81 2993.36,-40.43"/>
<polygon fill="#63b8ff" stroke="#63b8ff" points="2993.76,-43.92 3003,-38.73 2992.54,-37.02 2993.76,-43.92"/>
</a>
</g>
</g>
<!-- Node23 -->
<g id="Node000023" class="node">
<title>Node23</title>
<g id="a_Node000023"><a xlink:title=" ">
<polygon fill="#e0e0e0" stroke="#999999" points="3392.5,-38 3187.5,-38 3187.5,-6 3392.5,-6 3392.5,-38"/>
<text text-anchor="start" x="3195.5" y="-24.5" font-family="Helvetica,sans-Serif" font-size="10.00">org.springframework.scheduling.annotation.</text>
<text text-anchor="middle" x="3290" y="-12.5" font-family="Helvetica,sans-Serif" font-size="10.00">EnableAsync</text>
</a>
</g>
</g>
<!-- Node1&#45;&gt;Node23 -->
<g id="edge22_Node000001_Node000023" class="edge">
<title>Node1&#45;&gt;Node23</title>
<g id="a_edge22_Node000001_Node000023"><a xlink:title=" ">
<path fill="none" stroke="#63b8ff" d="M1850.5,-93.93C2086.85,-89.74 2915.47,-73.26 3178,-44 3186.81,-43.02 3195.96,-41.74 3205.07,-40.29"/>
<polygon fill="#63b8ff" stroke="#63b8ff" points="3205.35,-43.79 3214.64,-38.7 3204.2,-36.89 3205.35,-43.79"/>
</a>
</g>
</g>
<!-- Node24 -->
<g id="Node000024" class="node">
<title>Node24</title>
<g id="a_Node000024"><a xlink:title=" ">
<polygon fill="#e0e0e0" stroke="#999999" points="3567.88,-38 3410.12,-38 3410.12,-6 3567.88,-6 3567.88,-38"/>
<text text-anchor="start" x="3418.12" y="-24.5" font-family="Helvetica,sans-Serif" font-size="10.00">java.sql.SQLInvalidAuthorization</text>
<text text-anchor="middle" x="3489" y="-12.5" font-family="Helvetica,sans-Serif" font-size="10.00">SpecException</text>
</a>
</g>
</g>
<!-- Node1&#45;&gt;Node24 -->
<g id="edge23_Node000001_Node000024" class="edge">
<title>Node1&#45;&gt;Node24</title>
<g id="a_edge23_Node000001_Node000024"><a xlink:title=" ">
<path fill="none" stroke="#63b8ff" d="M1850.31,-94.74C2109.98,-93.38 3094.12,-85.57 3402,-44 3408.31,-43.15 3414.84,-42.03 3421.34,-40.75"/>
<polygon fill="#63b8ff" stroke="#63b8ff" points="3421.67,-44.26 3430.74,-38.78 3420.24,-37.41 3421.67,-44.26"/>
</a>
</g>
</g>
<!-- Node25 -->
<g id="Node000025" class="node">
<title>Node25</title>
<g id="a_Node000025"><a xlink:title=" ">
<polygon fill="#e0e0e0" stroke="#999999" points="3790.12,-44 3585.88,-44 3585.88,0 3790.12,0 3790.12,-44"/>
<text text-anchor="start" x="3593.88" y="-30.5" font-family="Helvetica,sans-Serif" font-size="10.00">fr.softsf.sudokufx.exception.</text>
<text text-anchor="start" x="3593.88" y="-18.5" font-family="Helvetica,sans-Serif" font-size="10.00">ExceptionTools.getSQLInvalidAuthorization</text>
<text text-anchor="middle" x="3688" y="-6.5" font-family="Helvetica,sans-Serif" font-size="10.00">SpecException</text>
</a>
</g>
</g>
<!-- Node1&#45;&gt;Node25 -->
<g id="edge24_Node000001_Node000025" class="edge">
<title>Node1&#45;&gt;Node25</title>
<g id="a_edge24_Node000001_Node000025"><a xlink:title=" ">
<path fill="none" stroke="#63b8ff" d="M1850.45,-94.54C2124.51,-92.36 3208.88,-81.54 3574.19,-44.19"/>
<polygon fill="#63b8ff" stroke="#63b8ff" points="3574.49,-47.68 3584.07,-43.15 3573.76,-40.71 3574.49,-47.68"/>
</a>
</g>
</g>
</g>
</svg>
