<?xml version="1.0" encoding="UTF-8" standalone="no"?>
<!DOCTYPE svg PUBLIC "-//W3C//DTD SVG 1.1//EN"
 "http://www.w3.org/Graphics/SVG/1.1/DTD/svg11.dtd">
<!-- Generated by graphviz version 12.2.1 (20241206.2353)
 -->
<!-- Title: src/main/java/fr/softsf/sudokufx/SudoMain.java Pages: 1 -->
<!--zoomable 108 -->

<svg id="main" version="1.1" xmlns="http://www.w3.org/2000/svg" xmlns:xlink="http://www.w3.org/1999/xlink" xml:space="preserve" onload="init(evt)">

<style type="text/css"><![CDATA[
.node, .edge {opacity: 0.7;}
.node.selected, .edge.selected {opacity: 1;}
.edge:hover path { stroke: red; }
.edge:hover polygon { stroke: red; fill: red; }
]]></style>

<defs>
  <circle id="rim" cx="0" cy="0" r="7"/>
  <circle id="rim2" cx="0" cy="0" r="3.5"/>
  <g id="zoomPlus">
    <use xlink:href="#rim" fill="#404040"><set attributeName="fill" to="#808080" begin="zoomplus.mouseover" end="zoomplus.mouseout"/></use>
    <path d="M-4,0h8M0,-4v8" fill="none" stroke="white" stroke-width="1.5" pointer-events="none"/>
  </g>
  <g id="zoomMin">
    <use xlink:href="#rim" fill="#404040"><set attributeName="fill" to="#808080" begin="zoomminus.mouseover" end="zoomminus.mouseout"/></use>
    <path d="M-4,0h8" fill="none" stroke="white" stroke-width="1.5" pointer-events="none"/>
  </g>
  <g id="arrowUp" transform="translate(30 24)">
    <use xlink:href="#rim"/>
    <path pointer-events="none" fill="none" stroke="white" stroke-width="1.5" d="M0,-3.0v7 M-2.5,-0.5L0,-3.0L2.5,-0.5"/>
  </g>
  <g id="arrowRight" transform="rotate(90) translate(36 -43)">
    <use xlink:href="#rim"/>
    <path pointer-events="none" fill="none" stroke="white" stroke-width="1.5" d="M0,-3.0v7 M-2.5,-0.5L0,-3.0L2.5,-0.5"/>
  </g>
  <g id="arrowDown" transform="rotate(180) translate(-30 -48)">
    <use xlink:href="#rim"/>
    <path pointer-events="none" fill="none" stroke="white" stroke-width="1.5" d="M0,-3.0v7 M-2.5,-0.5L0,-3.0L2.5,-0.5"/>
  </g>
  <g id="arrowLeft" transform="rotate(270) translate(-36 17)">
    <use xlink:href="#rim"/>
    <path pointer-events="none" fill="none" stroke="white" stroke-width="1.5" d="M0,-3.0v7 M-2.5,-0.5L0,-3.0L2.5,-0.5"/>
  </g>
  <g id="resetDef">
    <use xlink:href="#rim2" fill="#404040"><set attributeName="fill" to="#808080" begin="reset.mouseover" end="reset.mouseout"/></use>
  </g>
</defs>
<script type="application/ecmascript">
var viewWidth = 3762;
var viewHeight = 108;
var sectionId = 'dynsection-0';
</script>
<script type="application/ecmascript" xlink:href="svg.min.js"/>
<svg id="graph" class="graph">
<g id="viewport">
<title>src/main/java/fr/softsf/sudokufx/SudoMain.java</title>
<!-- Node1 -->
<g id="Node000001" class="node">
<title>Node1</title>
<g id="a_Node000001"><a xlink:title=" ">
<polygon fill="#999999" stroke="#666666" points="1902.12,-100 1775.88,-100 1775.88,-68 1902.12,-68 1902.12,-100"/>
<text text-anchor="start" x="1783.88" y="-86.5" font-family="Helvetica,sans-Serif" font-size="10.00">src/main/java/fr/softsf</text>
<text text-anchor="middle" x="1839" y="-74.5" font-family="Helvetica,sans-Serif" font-size="10.00">/sudokufx/SudoMain.java</text>
</a>
</g>
</g>
<!-- Node2 -->
<g id="Node000002" class="node">
<title>Node2</title>
<g id="a_Node000002"><a xlink:title=" ">
<polygon fill="#e0e0e0" stroke="#999999" points="130,-32 0,-32 0,0 130,0 130,-32"/>
<text text-anchor="start" x="8" y="-18.5" font-family="Helvetica,sans-Serif" font-size="10.00">com.gluonhq.ignite.spring.</text>
<text text-anchor="middle" x="65" y="-6.5" font-family="Helvetica,sans-Serif" font-size="10.00">SpringContext</text>
</a>
</g>
</g>
<!-- Node1&#45;&gt;Node2 -->
<g id="edge1_Node000001_Node000002" class="edge">
<title>Node1&#45;&gt;Node2</title>
<g id="a_edge1_Node000001_Node000002"><a xlink:title=" ">
<path fill="none" stroke="#63b8ff" d="M1775.6,-82.54C1510.37,-80.4 487.95,-69.9 141.56,-32.13"/>
<polygon fill="#63b8ff" stroke="#63b8ff" points="142.11,-28.67 131.78,-31.03 141.32,-35.62 142.11,-28.67"/>
</a>
</g>
</g>
<!-- Node3 -->
<g id="Node000003" class="node">
<title>Node3</title>
<g id="a_Node000003"><a xlink:title=" ">
<polygon fill="#e0e0e0" stroke="#999999" points="275.88,-32 148.12,-32 148.12,0 275.88,0 275.88,-32"/>
<text text-anchor="start" x="156.12" y="-18.5" font-family="Helvetica,sans-Serif" font-size="10.00">fr.softsf.sudokufx.enums.</text>
<text text-anchor="middle" x="212" y="-6.5" font-family="Helvetica,sans-Serif" font-size="10.00">LogBackTxt</text>
</a>
</g>
</g>
<!-- Node1&#45;&gt;Node3 -->
<g id="edge2_Node000001_Node000003" class="edge">
<title>Node1&#45;&gt;Node3</title>
<g id="a_edge2_Node000001_Node000003"><a xlink:title=" ">
<path fill="none" stroke="#63b8ff" d="M1775.55,-82.36C1524.96,-79.59 602.84,-67.29 286.97,-32.05"/>
<polygon fill="#63b8ff" stroke="#63b8ff" points="287.83,-28.63 277.5,-30.96 287.03,-35.58 287.83,-28.63"/>
</a>
</g>
</g>
<!-- Node4 -->
<g id="Node000004" class="node">
<title>Node4</title>
<g id="a_Node000004"><a xlink:title=" ">
<polygon fill="#e0e0e0" stroke="#999999" points="439.88,-32 294.12,-32 294.12,0 439.88,0 439.88,-32"/>
<text text-anchor="start" x="302.12" y="-18.5" font-family="Helvetica,sans-Serif" font-size="10.00">fr.softsf.sudokufx.exceptions.</text>
<text text-anchor="middle" x="367" y="-6.5" font-family="Helvetica,sans-Serif" font-size="10.00">ExceptionTools</text>
</a>
</g>
</g>
<!-- Node1&#45;&gt;Node4 -->
<g id="edge3_Node000001_Node000004" class="edge">
<title>Node1&#45;&gt;Node4</title>
<g id="a_edge3_Node000001_Node000004"><a xlink:title=" ">
<path fill="none" stroke="#63b8ff" d="M1775.55,-81.89C1542.61,-77.62 733.94,-61.12 451.67,-32.15"/>
<polygon fill="#63b8ff" stroke="#63b8ff" points="452.06,-28.67 441.75,-31.1 451.32,-35.63 452.06,-28.67"/>
</a>
</g>
</g>
<!-- Node5 -->
<g id="Node000005" class="node">
<title>Node5</title>
<g id="a_Node000005"><a xlink:title=" ">
<polygon fill="#e0e0e0" stroke="#999999" points="599.62,-32 458.38,-32 458.38,0 599.62,0 599.62,-32"/>
<text text-anchor="start" x="466.38" y="-18.5" font-family="Helvetica,sans-Serif" font-size="10.00">fr.softsf.sudokufx.interfaces.</text>
<text text-anchor="middle" x="529" y="-6.5" font-family="Helvetica,sans-Serif" font-size="10.00">IMainStageView</text>
</a>
</g>
</g>
<!-- Node1&#45;&gt;Node5 -->
<g id="edge4_Node000001_Node000005" class="edge">
<title>Node1&#45;&gt;Node5</title>
<g id="a_edge4_Node000001_Node000005"><a xlink:title=" ">
<path fill="none" stroke="#63b8ff" d="M1775.65,-83.63C1595.01,-84.75 1061.87,-83.2 611.28,-32.27"/>
<polygon fill="#63b8ff" stroke="#63b8ff" points="611.82,-28.81 601.49,-31.16 611.03,-35.77 611.82,-28.81"/>
</a>
</g>
</g>
<!-- Node6 -->
<g id="Node000006" class="node">
<title>Node6</title>
<g id="a_Node000006"><a xlink:title=" ">
<polygon fill="#e0e0e0" stroke="#999999" points="758.62,-32 617.38,-32 617.38,0 758.62,0 758.62,-32"/>
<text text-anchor="start" x="625.38" y="-18.5" font-family="Helvetica,sans-Serif" font-size="10.00">fr.softsf.sudokufx.interfaces.</text>
<text text-anchor="middle" x="688" y="-6.5" font-family="Helvetica,sans-Serif" font-size="10.00">ISplashScreenView</text>
</a>
</g>
</g>
<!-- Node1&#45;&gt;Node6 -->
<g id="edge5_Node000001_Node000006" class="edge">
<title>Node1&#45;&gt;Node6</title>
<g id="a_edge5_Node000001_Node000006"><a xlink:title=" ">
<path fill="none" stroke="#63b8ff" d="M1775.38,-83.02C1610.78,-82.42 1157.38,-76.62 770.45,-32.17"/>
<polygon fill="#63b8ff" stroke="#63b8ff" points="770.86,-28.69 760.53,-31.02 770.06,-35.65 770.86,-28.69"/>
</a>
</g>
</g>
<!-- Node7 -->
<g id="Node000007" class="node">
<title>Node7</title>
<g id="a_Node000007"><a xlink:title=" ">
<polygon fill="#e0e0e0" stroke="#999999" points="907,-32 777,-32 777,0 907,0 907,-32"/>
<text text-anchor="start" x="785" y="-18.5" font-family="Helvetica,sans-Serif" font-size="10.00">fr.softsf.sudokufx.service.</text>
<text text-anchor="middle" x="842" y="-6.5" font-family="Helvetica,sans-Serif" font-size="10.00">FxmlService</text>
</a>
</g>
</g>
<!-- Node1&#45;&gt;Node7 -->
<g id="edge6_Node000001_Node000007" class="edge">
<title>Node1&#45;&gt;Node7</title>
<g id="a_edge6_Node000001_Node000007"><a xlink:title=" ">
<path fill="none" stroke="#63b8ff" d="M1775.48,-82.65C1627.06,-81.15 1245.84,-73.38 918.42,-32.18"/>
<polygon fill="#63b8ff" stroke="#63b8ff" points="919.15,-28.75 908.79,-30.96 918.26,-35.69 919.15,-28.75"/>
</a>
</g>
</g>
<!-- Node8 -->
<g id="Node000008" class="node">
<title>Node8</title>
<g id="a_Node000008"><a xlink:title=" ">
<polygon fill="#e0e0e0" stroke="#999999" points="1071.25,-26 924.75,-26 924.75,-6 1071.25,-6 1071.25,-26"/>
<text text-anchor="middle" x="998" y="-12.5" font-family="Helvetica,sans-Serif" font-size="10.00">fr.softsf.sudokufx.enums.I18n</text>
</a>
</g>
</g>
<!-- Node1&#45;&gt;Node8 -->
<g id="edge7_Node000001_Node000008" class="edge">
<title>Node1&#45;&gt;Node8</title>
<g id="a_edge7_Node000001_Node000008"><a xlink:title=" ">
<path fill="none" stroke="#63b8ff" d="M1775.54,-81.18C1644.92,-76.89 1336.7,-64 1080,-32 1072.19,-31.03 1064,-29.79 1055.94,-28.45"/>
<polygon fill="#63b8ff" stroke="#63b8ff" points="1056.63,-25.01 1046.18,-26.75 1055.43,-31.91 1056.63,-25.01"/>
</a>
</g>
</g>
<!-- Node9 -->
<g id="Node000009" class="node">
<title>Node9</title>
<g id="a_Node000009"><a xlink:title=" ">
<polygon fill="#e0e0e0" stroke="#999999" points="1207,-32 1089,-32 1089,0 1207,0 1207,-32"/>
<text text-anchor="start" x="1097" y="-18.5" font-family="Helvetica,sans-Serif" font-size="10.00">fr.softsf.sudokufx.view.</text>
<text text-anchor="middle" x="1148" y="-6.5" font-family="Helvetica,sans-Serif" font-size="10.00">SplashScreenView</text>
</a>
</g>
</g>
<!-- Node1&#45;&gt;Node9 -->
<g id="edge8_Node000001_Node000009" class="edge">
<title>Node1&#45;&gt;Node9</title>
<g id="a_edge8_Node000001_Node000009"><a xlink:title=" ">
<path fill="none" stroke="#63b8ff" d="M1775.44,-80.64C1664.37,-75.9 1427.6,-63.03 1218.45,-32.24"/>
<polygon fill="#63b8ff" stroke="#63b8ff" points="1219.15,-28.8 1208.75,-30.79 1218.12,-35.73 1219.15,-28.8"/>
</a>
</g>
</g>
<!-- Node10 -->
<g id="Node000010" class="node">
<title>Node10</title>
<g id="a_Node000010"><a xlink:title=" ">
<polygon fill="#e0e0e0" stroke="#999999" points="1385.38,-26 1224.62,-26 1224.62,-6 1385.38,-6 1385.38,-26"/>
<text text-anchor="middle" x="1305" y="-12.5" font-family="Helvetica,sans-Serif" font-size="10.00">javafx.animation.PauseTransition</text>
</a>
</g>
</g>
<!-- Node1&#45;&gt;Node10 -->
<g id="edge9_Node000001_Node000010" class="edge">
<title>Node1&#45;&gt;Node10</title>
<g id="a_edge9_Node000001_Node000010"><a xlink:title=" ">
<path fill="none" stroke="#63b8ff" d="M1775.64,-76.74C1689.38,-67.99 1530.23,-51.02 1395,-32 1387.02,-30.88 1378.66,-29.61 1370.38,-28.3"/>
<polygon fill="#63b8ff" stroke="#63b8ff" points="1371.11,-24.87 1360.68,-26.73 1369.99,-31.78 1371.11,-24.87"/>
</a>
</g>
</g>
<!-- Node11 -->
<g id="Node000011" class="node">
<title>Node11</title>
<g id="a_Node000011"><a xlink:title=" ">
<polygon fill="#e0e0e0" stroke="#999999" points="1546.38,-26 1403.62,-26 1403.62,-6 1546.38,-6 1546.38,-26"/>
<text text-anchor="middle" x="1475" y="-12.5" font-family="Helvetica,sans-Serif" font-size="10.00">javafx.application.Application</text>
</a>
</g>
</g>
<!-- Node1&#45;&gt;Node11 -->
<g id="edge10_Node000001_Node000011" class="edge">
<title>Node1&#45;&gt;Node11</title>
<g id="a_edge10_Node000001_Node000011"><a xlink:title=" ">
<path fill="none" stroke="#63b8ff" d="M1775.53,-71.75C1717.95,-61.5 1630.75,-45.9 1555,-32 1548.77,-30.86 1542.26,-29.65 1535.77,-28.45"/>
<polygon fill="#63b8ff" stroke="#63b8ff" points="1536.88,-25.09 1526.41,-26.7 1535.6,-31.97 1536.88,-25.09"/>
</a>
</g>
</g>
<!-- Node12 -->
<g id="Node000012" class="node">
<title>Node12</title>
<g id="a_Node000012"><a xlink:title=" ">
<polygon fill="#e0e0e0" stroke="#999999" points="1695.75,-26 1564.25,-26 1564.25,-6 1695.75,-6 1695.75,-26"/>
<text text-anchor="middle" x="1630" y="-12.5" font-family="Helvetica,sans-Serif" font-size="10.00">javafx.application.Platform</text>
</a>
</g>
</g>
<!-- Node1&#45;&gt;Node12 -->
<g id="edge11_Node000001_Node000012" class="edge">
<title>Node1&#45;&gt;Node12</title>
<g id="a_edge11_Node000001_Node000012"><a xlink:title=" ">
<path fill="none" stroke="#63b8ff" d="M1790,-67.53C1753.79,-56.09 1705.07,-40.71 1670.93,-29.93"/>
<polygon fill="#63b8ff" stroke="#63b8ff" points="1671.99,-26.59 1661.4,-26.92 1669.88,-33.26 1671.99,-26.59"/>
</a>
</g>
</g>
<!-- Node13 -->
<g id="Node000013" class="node">
<title>Node13</title>
<g id="a_Node000013"><a xlink:title=" ">
<polygon fill="#e0e0e0" stroke="#999999" points="1828.5,-26 1713.5,-26 1713.5,-6 1828.5,-6 1828.5,-26"/>
<text text-anchor="middle" x="1771" y="-12.5" font-family="Helvetica,sans-Serif" font-size="10.00">javafx.concurrent.Task</text>
</a>
</g>
</g>
<!-- Node1&#45;&gt;Node13 -->
<g id="edge12_Node000001_Node000013" class="edge">
<title>Node1&#45;&gt;Node13</title>
<g id="a_edge12_Node000001_Node000013"><a xlink:title=" ">
<path fill="none" stroke="#63b8ff" d="M1823.23,-67.69C1812.93,-57.7 1799.46,-44.63 1788.78,-34.26"/>
<polygon fill="#63b8ff" stroke="#63b8ff" points="1791.3,-31.82 1781.68,-27.37 1786.42,-36.85 1791.3,-31.82"/>
</a>
</g>
</g>
<!-- Node14 -->
<g id="Node000014" class="node">
<title>Node14</title>
<g id="a_Node000014"><a xlink:title=" ">
<polygon fill="#e0e0e0" stroke="#999999" points="1969.25,-26 1846.75,-26 1846.75,-6 1969.25,-6 1969.25,-26"/>
<text text-anchor="middle" x="1908" y="-12.5" font-family="Helvetica,sans-Serif" font-size="10.00">javafx.fxml.FXMLLoader</text>
</a>
</g>
</g>
<!-- Node1&#45;&gt;Node14 -->
<g id="edge13_Node000001_Node000014" class="edge">
<title>Node1&#45;&gt;Node14</title>
<g id="a_edge13_Node000001_Node000014"><a xlink:title=" ">
<path fill="none" stroke="#63b8ff" d="M1855,-67.69C1865.45,-57.7 1879.12,-44.63 1889.96,-34.26"/>
<polygon fill="#63b8ff" stroke="#63b8ff" points="1892.36,-36.8 1897.17,-27.36 1887.52,-31.75 1892.36,-36.8"/>
</a>
</g>
</g>
<!-- Node15 -->
<g id="Node000015" class="node">
<title>Node15</title>
<g id="a_Node000015"><a xlink:title=" ">
<polygon fill="#e0e0e0" stroke="#999999" points="2089.12,-26 1986.88,-26 1986.88,-6 2089.12,-6 2089.12,-26"/>
<text text-anchor="middle" x="2038" y="-12.5" font-family="Helvetica,sans-Serif" font-size="10.00">javafx.scene.Scene</text>
</a>
</g>
</g>
<!-- Node1&#45;&gt;Node15 -->
<g id="edge14_Node000001_Node000015" class="edge">
<title>Node1&#45;&gt;Node15</title>
<g id="a_edge14_Node000001_Node000015"><a xlink:title=" ">
<path fill="none" stroke="#63b8ff" d="M1885.66,-67.53C1919.98,-56.14 1966.12,-40.84 1998.6,-30.07"/>
<polygon fill="#63b8ff" stroke="#63b8ff" points="1999.65,-33.41 2008.04,-26.94 1997.45,-26.76 1999.65,-33.41"/>
</a>
</g>
</g>
<!-- Node16 -->
<g id="Node000016" class="node">
<title>Node16</title>
<g id="a_Node000016"><a xlink:title=" ">
<polygon fill="#e0e0e0" stroke="#999999" points="2204.88,-26 2107.12,-26 2107.12,-6 2204.88,-6 2204.88,-26"/>
<text text-anchor="middle" x="2156" y="-12.5" font-family="Helvetica,sans-Serif" font-size="10.00">javafx.stage.Stage</text>
</a>
</g>
</g>
<!-- Node1&#45;&gt;Node16 -->
<g id="edge15_Node000001_Node000016" class="edge">
<title>Node1&#45;&gt;Node16</title>
<g id="a_edge15_Node000001_Node000016"><a xlink:title=" ">
<path fill="none" stroke="#63b8ff" d="M1902.55,-71.56C1955.12,-61.84 2031.64,-47.1 2098,-32 2101.82,-31.13 2105.77,-30.19 2109.72,-29.23"/>
<polygon fill="#63b8ff" stroke="#63b8ff" points="2110.49,-32.64 2119.34,-26.82 2108.79,-25.85 2110.49,-32.64"/>
</a>
</g>
</g>
<!-- Node17 -->
<g id="Node000017" class="node">
<title>Node17</title>
<g id="a_Node000017"><a xlink:title=" ">
<polygon fill="#e0e0e0" stroke="#999999" points="2320.88,-26 2223.12,-26 2223.12,-6 2320.88,-6 2320.88,-26"/>
<text text-anchor="middle" x="2272" y="-12.5" font-family="Helvetica,sans-Serif" font-size="10.00">javafx.util.Duration</text>
</a>
</g>
</g>
<!-- Node1&#45;&gt;Node17 -->
<g id="edge16_Node000001_Node000017" class="edge">
<title>Node1&#45;&gt;Node17</title>
<g id="a_edge16_Node000001_Node000017"><a xlink:title=" ">
<path fill="none" stroke="#63b8ff" d="M1902.41,-76.68C1977.28,-68.69 2105.37,-53.36 2214,-32 2218.3,-31.16 2222.75,-30.18 2227.19,-29.15"/>
<polygon fill="#63b8ff" stroke="#63b8ff" points="2227.76,-32.61 2236.64,-26.84 2226.1,-25.81 2227.76,-32.61"/>
</a>
</g>
</g>
<!-- Node18 -->
<g id="Node000018" class="node">
<title>Node18</title>
<g id="a_Node000018"><a xlink:title=" ">
<polygon fill="#e0e0e0" stroke="#999999" points="2416.75,-26 2339.25,-26 2339.25,-6 2416.75,-6 2416.75,-26"/>
<text text-anchor="middle" x="2378" y="-12.5" font-family="Helvetica,sans-Serif" font-size="10.00">lombok.Getter</text>
</a>
</g>
</g>
<!-- Node1&#45;&gt;Node18 -->
<g id="edge17_Node000001_Node000018" class="edge">
<title>Node1&#45;&gt;Node18</title>
<g id="a_edge17_Node000001_Node000018"><a xlink:title=" ">
<path fill="none" stroke="#63b8ff" d="M1902.4,-80.45C1996.54,-75.77 2178.49,-63.22 2330,-32 2333.35,-31.31 2336.81,-30.48 2340.25,-29.56"/>
<polygon fill="#63b8ff" stroke="#63b8ff" points="2340.99,-32.99 2349.63,-26.86 2339.05,-26.27 2340.99,-32.99"/>
</a>
</g>
</g>
<!-- Node19 -->
<g id="Node000019" class="node">
<title>Node19</title>
<g id="a_Node000019"><a xlink:title=" ">
<polygon fill="#e0e0e0" stroke="#999999" points="2555.5,-26 2434.5,-26 2434.5,-6 2555.5,-6 2555.5,-26"/>
<text text-anchor="middle" x="2495" y="-12.5" font-family="Helvetica,sans-Serif" font-size="10.00">lombok.extern.slf4j.Slf4j</text>
</a>
</g>
</g>
<!-- Node1&#45;&gt;Node19 -->
<g id="edge18_Node000001_Node000019" class="edge">
<title>Node1&#45;&gt;Node19</title>
<g id="a_edge18_Node000001_Node000019"><a xlink:title=" ">
<path fill="none" stroke="#63b8ff" d="M1902.29,-80.15C2010.23,-74.7 2236.62,-60.69 2426,-32 2432.06,-31.08 2438.39,-29.95 2444.64,-28.72"/>
<polygon fill="#63b8ff" stroke="#63b8ff" points="2445.18,-32.19 2454.27,-26.74 2443.77,-25.33 2445.18,-32.19"/>
</a>
</g>
</g>
<!-- Node20 -->
<g id="Node000020" class="node">
<title>Node20</title>
<g id="a_Node000020"><a xlink:title=" ">
<polygon fill="#e0e0e0" stroke="#999999" points="2790.5,-32 2573.5,-32 2573.5,0 2790.5,0 2790.5,-32"/>
<text text-anchor="start" x="2581.5" y="-18.5" font-family="Helvetica,sans-Serif" font-size="10.00">org.springframework.beans.factory.annotation.</text>
<text text-anchor="middle" x="2682" y="-6.5" font-family="Helvetica,sans-Serif" font-size="10.00">Autowired</text>
</a>
</g>
</g>
<!-- Node1&#45;&gt;Node20 -->
<g id="edge19_Node000001_Node000020" class="edge">
<title>Node1&#45;&gt;Node20</title>
<g id="a_edge19_Node000001_Node000020"><a xlink:title=" ">
<path fill="none" stroke="#63b8ff" d="M1902.22,-79.78C2026.57,-73.19 2311.92,-56.74 2561.91,-32.27"/>
<polygon fill="#63b8ff" stroke="#63b8ff" points="2561.92,-35.79 2571.53,-31.33 2561.23,-28.82 2561.92,-35.79"/>
</a>
</g>
</g>
<!-- Node21 -->
<g id="Node000021" class="node">
<title>Node21</title>
<g id="a_Node000021"><a xlink:title=" ">
<polygon fill="#e0e0e0" stroke="#999999" points="2937.62,-32 2808.38,-32 2808.38,0 2937.62,0 2937.62,-32"/>
<text text-anchor="start" x="2816.38" y="-18.5" font-family="Helvetica,sans-Serif" font-size="10.00">org.springframework.boot.</text>
<text text-anchor="middle" x="2873" y="-6.5" font-family="Helvetica,sans-Serif" font-size="10.00">SpringApplication</text>
</a>
</g>
</g>
<!-- Node1&#45;&gt;Node21 -->
<g id="edge20_Node000001_Node000021" class="edge">
<title>Node1&#45;&gt;Node21</title>
<g id="a_edge20_Node000001_Node000021"><a xlink:title=" ">
<path fill="none" stroke="#63b8ff" d="M1902.55,-82.91C2055.24,-81.97 2454.9,-75.36 2796.83,-32.29"/>
<polygon fill="#63b8ff" stroke="#63b8ff" points="2797.23,-35.77 2806.7,-31.03 2796.34,-28.82 2797.23,-35.77"/>
</a>
</g>
</g>
<!-- Node22 -->
<g id="Node000022" class="node">
<title>Node22</title>
<g id="a_Node000022"><a xlink:title=" ">
<polygon fill="#e0e0e0" stroke="#999999" points="3146.38,-32 2955.62,-32 2955.62,0 3146.38,0 3146.38,-32"/>
<text text-anchor="start" x="2963.62" y="-18.5" font-family="Helvetica,sans-Serif" font-size="10.00">org.springframework.boot.autoconfigure.</text>
<text text-anchor="middle" x="3051" y="-6.5" font-family="Helvetica,sans-Serif" font-size="10.00">SpringBootApplication</text>
</a>
</g>
</g>
<!-- Node1&#45;&gt;Node22 -->
<g id="edge21_Node000001_Node000022" class="edge">
<title>Node1&#45;&gt;Node22</title>
<g id="a_edge21_Node000001_Node000022"><a xlink:title=" ">
<path fill="none" stroke="#63b8ff" d="M1902.55,-82.24C2070.81,-79.75 2542.04,-69.78 2944,-32.23"/>
<polygon fill="#63b8ff" stroke="#63b8ff" points="2944.14,-35.73 2953.77,-31.31 2943.48,-28.76 2944.14,-35.73"/>
</a>
</g>
</g>
<!-- Node23 -->
<g id="Node000023" class="node">
<title>Node23</title>
<g id="a_Node000023"><a xlink:title=" ">
<polygon fill="#e0e0e0" stroke="#999999" points="3355.38,-32 3164.62,-32 3164.62,0 3355.38,0 3355.38,-32"/>
<text text-anchor="start" x="3172.62" y="-18.5" font-family="Helvetica,sans-Serif" font-size="10.00">org.springframework.context.annotation.</text>
<text text-anchor="middle" x="3260" y="-6.5" font-family="Helvetica,sans-Serif" font-size="10.00">ComponentScan</text>
</a>
</g>
</g>
<!-- Node1&#45;&gt;Node23 -->
<g id="edge22_Node000001_Node000023" class="edge">
<title>Node1&#45;&gt;Node23</title>
<g id="a_edge22_Node000001_Node000023"><a xlink:title=" ">
<path fill="none" stroke="#63b8ff" d="M1902.49,-82.86C2091.33,-81.94 2666.02,-75.58 3153.07,-32.1"/>
<polygon fill="#63b8ff" stroke="#63b8ff" points="3153.04,-35.62 3162.69,-31.24 3152.42,-28.65 3153.04,-35.62"/>
</a>
</g>
</g>
<!-- Node24 -->
<g id="Node000024" class="node">
<title>Node24</title>
<g id="a_Node000024"><a xlink:title=" ">
<polygon fill="#e0e0e0" stroke="#999999" points="3578.5,-32 3373.5,-32 3373.5,0 3578.5,0 3578.5,-32"/>
<text text-anchor="start" x="3381.5" y="-18.5" font-family="Helvetica,sans-Serif" font-size="10.00">org.springframework.scheduling.annotation.</text>
<text text-anchor="middle" x="3476" y="-6.5" font-family="Helvetica,sans-Serif" font-size="10.00">EnableAsync</text>
</a>
</g>
</g>
<!-- Node1&#45;&gt;Node24 -->
<g id="edge23_Node000001_Node000024" class="edge">
<title>Node1&#45;&gt;Node24</title>
<g id="a_edge23_Node000001_Node000024"><a xlink:title=" ">
<path fill="none" stroke="#63b8ff" d="M1902.32,-83.14C2109.99,-83.12 2789.37,-79.26 3361.82,-32.12"/>
<polygon fill="#63b8ff" stroke="#63b8ff" points="3362.02,-35.61 3371.7,-31.3 3361.44,-28.64 3362.02,-35.61"/>
</a>
</g>
</g>
<!-- Node25 -->
<g id="Node000025" class="node">
<title>Node25</title>
<g id="a_Node000025"><a xlink:title=" ">
<polygon fill="#e0e0e0" stroke="#999999" points="3753.88,-32 3596.12,-32 3596.12,0 3753.88,0 3753.88,-32"/>
<text text-anchor="start" x="3604.12" y="-18.5" font-family="Helvetica,sans-Serif" font-size="10.00">java.sql.SQLInvalidAuthorization</text>
<text text-anchor="middle" x="3675" y="-6.5" font-family="Helvetica,sans-Serif" font-size="10.00">SpecException</text>
</a>
</g>
</g>
<!-- Node1&#45;&gt;Node25 -->
<g id="edge24_Node000001_Node000025" class="edge">
<title>Node1&#45;&gt;Node25</title>
<g id="a_edge24_Node000001_Node000025"><a xlink:title=" ">
<path fill="none" stroke="#63b8ff" d="M1902.35,-82.36C2172.24,-79.43 3228.15,-66.07 3584.52,-32.24"/>
<polygon fill="#63b8ff" stroke="#63b8ff" points="3584.76,-35.73 3594.37,-31.28 3584.08,-28.77 3584.76,-35.73"/>
</a>
</g>
</g>
</g>
</svg>

<g id="navigator" transform="translate(0 0)" fill="#404254">
  <rect fill="#f2f5e9" fill-opacity="0.5" stroke="#606060" stroke-width=".5" x="0" y="0" width="60" height="60"/>
  <use id="zoomplus" xlink:href="#zoomPlus" x="17" y="9" onmousedown="handleZoom(evt,'in')"/>
  <use id="zoomminus" xlink:href="#zoomMin" x="42" y="9" onmousedown="handleZoom(evt,'out')"/>
  <use id="reset" xlink:href="#resetDef" x="30" y="36" onmousedown="handleReset()"/>
   <use id="arrowup" xlink:href="#arrowUp" x="0" y="0" onmousedown="handlePan(0,-1)"/>
  <use id="arrowright" xlink:href="#arrowRight" x="0" y="0" onmousedown="handlePan(1,0)"/>
  <use id="arrowdown" xlink:href="#arrowDown" x="0" y="0" onmousedown="handlePan(0,1)"/>
  <use id="arrowleft" xlink:href="#arrowLeft" x="0" y="0" onmousedown="handlePan(-1,0)"/>
</g>
<svg viewBox="0 0 15 15" width="100%" height="30px" preserveAspectRatio="xMaxYMin meet">
 <g id="arrow_out" transform="scale(0.3 0.3)">
  <a xlink:href="_sudo_main_8java__incl_org.svg" target="_base">
   <rect id="button" ry="5" rx="5" y="6" x="6" height="38" width="38"
        fill="#f2f5e9" fill-opacity="0.5" stroke="#606060" stroke-width="1.0"/>
   <path id="arrow"
     d="M 11.500037,31.436501 C 11.940474,20.09759 22.043105,11.32322 32.158766,21.979434 L 37.068811,17.246167 C 37.068811,17.246167 37.088388,32 37.088388,32 L 22.160133,31.978069 C 22.160133,31.978069 26.997745,27.140456 26.997745,27.140456 C 18.528582,18.264221 13.291696,25.230495 11.500037,31.436501 z"
     style="fill:#404040;"/>
  </a>
 </g>
</svg>

<style type='text/css'>
<![CDATA[
[data-mouse-over-selected='false'] { opacity: 0.7; }
[data-mouse-over-selected='true']  { opacity: 1.0; }
]]>
</style>
<script type="application/ecmascript"><![CDATA[
document.addEventListener('DOMContentLoaded', (event) => {
  highlightEdges();
  highlightAdjacentNodes();
});
]]></script>
</svg>
