<?xml version="1.0" encoding="UTF-8" standalone="no"?>
<!DOCTYPE svg PUBLIC "-//W3C//DTD SVG 1.1//EN"
 "http://www.w3.org/Graphics/SVG/1.1/DTD/svg11.dtd">
<!-- Generated by graphviz version 12.2.1 (20241206.2353)
 -->
<!-- Title: src/main/java/fr/softsf/sudokufx/view/components/toaster/ToasterVBox.java Pages: 1 -->
<svg width="1998pt" height="120pt"
 viewBox="0.00 0.00 1998.38 120.00" xmlns="http://www.w3.org/2000/svg" xmlns:xlink="http://www.w3.org/1999/xlink">
<g id="graph0" class="graph" transform="scale(1 1) rotate(0) translate(4 116)">
<title>src/main/java/fr/softsf/sudokufx/view/components/toaster/ToasterVBox.java</title>
<!-- Node1 -->
<g id="Node000001" class="node">
<title>Node1</title>
<g id="a_Node000001"><a xlink:title=" ">
<polygon fill="#999999" stroke="#666666" points="1044.38,-112 906.12,-112 906.12,-68 1044.38,-68 1044.38,-112"/>
<text text-anchor="start" x="914.12" y="-98.5" font-family="Helvetica,sans-Serif" font-size="10.00">src/main/java/fr/softsf</text>
<text text-anchor="start" x="914.12" y="-86.5" font-family="Helvetica,sans-Serif" font-size="10.00">/sudokufx/view/components</text>
<text text-anchor="middle" x="975.25" y="-74.5" font-family="Helvetica,sans-Serif" font-size="10.00">/toaster/ToasterVBox.java</text>
</a>
</g>
</g>
<!-- Node2 -->
<g id="Node000002" class="node">
<title>Node2</title>
<g id="a_Node000002"><a xlink:title=" ">
<polygon fill="#e0e0e0" stroke="#999999" points="146.5,-26 0,-26 0,-6 146.5,-6 146.5,-26"/>
<text text-anchor="middle" x="73.25" y="-12.5" font-family="Helvetica,sans-Serif" font-size="10.00">fr.softsf.sudokufx.enums.I18n</text>
</a>
</g>
</g>
<!-- Node1&#45;&gt;Node2 -->
<g id="edge1_Node000001_Node000002" class="edge">
<title>Node1&#45;&gt;Node2</title>
<g id="a_edge1_Node000001_Node000002"><a xlink:title=" ">
<path fill="none" stroke="#63b8ff" d="M905.88,-86.79C764.3,-81.7 432.06,-66.83 155.25,-32 147.44,-31.02 139.25,-29.78 131.19,-28.43"/>
<polygon fill="#63b8ff" stroke="#63b8ff" points="131.89,-25 121.43,-26.73 130.69,-31.89 131.89,-25"/>
</a>
</g>
</g>
<!-- Node3 -->
<g id="Node000003" class="node">
<title>Node3</title>
<g id="a_Node000003"><a xlink:title=" ">
<polygon fill="#e0e0e0" stroke="#999999" points="292.12,-32 164.38,-32 164.38,0 292.12,0 292.12,-32"/>
<text text-anchor="start" x="172.38" y="-18.5" font-family="Helvetica,sans-Serif" font-size="10.00">fr.softsf.sudokufx.enums.</text>
<text text-anchor="middle" x="228.25" y="-6.5" font-family="Helvetica,sans-Serif" font-size="10.00">ToastLevels</text>
</a>
</g>
</g>
<!-- Node1&#45;&gt;Node3 -->
<g id="edge2_Node000001_Node000003" class="edge">
<title>Node1&#45;&gt;Node3</title>
<g id="a_edge2_Node000001_Node000003"><a xlink:title=" ">
<path fill="none" stroke="#63b8ff" d="M906.05,-85.85C785.57,-79.78 529.34,-64.25 303.35,-32.19"/>
<polygon fill="#63b8ff" stroke="#63b8ff" points="304.16,-28.77 293.77,-30.82 303.17,-35.7 304.16,-28.77"/>
</a>
</g>
</g>
<!-- Node4 -->
<g id="Node000004" class="node">
<title>Node4</title>
<g id="a_Node000004"><a xlink:title=" ">
<polygon fill="#e0e0e0" stroke="#999999" points="445.88,-26 310.62,-26 310.62,-6 445.88,-6 445.88,-26"/>
<text text-anchor="middle" x="378.25" y="-12.5" font-family="Helvetica,sans-Serif" font-size="10.00">javafx.animation.KeyFrame</text>
</a>
</g>
</g>
<!-- Node1&#45;&gt;Node4 -->
<g id="edge3_Node000001_Node000004" class="edge">
<title>Node1&#45;&gt;Node4</title>
<g id="a_edge3_Node000001_Node000004"><a xlink:title=" ">
<path fill="none" stroke="#63b8ff" d="M905.9,-83.32C805.82,-74.7 615.25,-56.65 454.25,-32 447.69,-31 440.84,-29.82 434.05,-28.58"/>
<polygon fill="#63b8ff" stroke="#63b8ff" points="434.71,-25.14 424.23,-26.73 433.41,-32.02 434.71,-25.14"/>
</a>
</g>
</g>
<!-- Node5 -->
<g id="Node000005" class="node">
<title>Node5</title>
<g id="a_Node000005"><a xlink:title=" ">
<polygon fill="#e0e0e0" stroke="#999999" points="590.75,-26 463.75,-26 463.75,-6 590.75,-6 590.75,-26"/>
<text text-anchor="middle" x="527.25" y="-12.5" font-family="Helvetica,sans-Serif" font-size="10.00">javafx.animation.Timeline</text>
</a>
</g>
</g>
<!-- Node1&#45;&gt;Node5 -->
<g id="edge4_Node000001_Node000005" class="edge">
<title>Node1&#45;&gt;Node5</title>
<g id="a_edge4_Node000001_Node000005"><a xlink:title=" ">
<path fill="none" stroke="#63b8ff" d="M905.76,-79.63C830.16,-69.17 705.82,-51.16 599.25,-32 593.58,-30.98 587.68,-29.86 581.8,-28.69"/>
<polygon fill="#63b8ff" stroke="#63b8ff" points="582.56,-25.28 572.06,-26.73 581.17,-32.14 582.56,-25.28"/>
</a>
</g>
</g>
<!-- Node6 -->
<g id="Node000006" class="node">
<title>Node6</title>
<g id="a_Node000006"><a xlink:title=" ">
<polygon fill="#e0e0e0" stroke="#999999" points="734,-26 608.5,-26 608.5,-6 734,-6 734,-26"/>
<text text-anchor="middle" x="671.25" y="-12.5" font-family="Helvetica,sans-Serif" font-size="10.00">javafx.event.ActionEvent</text>
</a>
</g>
</g>
<!-- Node1&#45;&gt;Node6 -->
<g id="edge5_Node000001_Node000006" class="edge">
<title>Node1&#45;&gt;Node6</title>
<g id="a_edge5_Node000001_Node000006"><a xlink:title=" ">
<path fill="none" stroke="#63b8ff" d="M905.89,-72.57C849.84,-59.3 772.27,-40.92 721.92,-29"/>
<polygon fill="#63b8ff" stroke="#63b8ff" points="723,-25.66 712.46,-26.76 721.38,-32.47 723,-25.66"/>
</a>
</g>
</g>
<!-- Node7 -->
<g id="Node000007" class="node">
<title>Node7</title>
<g id="a_Node000007"><a xlink:title=" ">
<polygon fill="#e0e0e0" stroke="#999999" points="844.88,-26 751.62,-26 751.62,-6 844.88,-6 844.88,-26"/>
<text text-anchor="middle" x="798.25" y="-12.5" font-family="Helvetica,sans-Serif" font-size="10.00">javafx.fxml.FXML</text>
</a>
</g>
</g>
<!-- Node1&#45;&gt;Node7 -->
<g id="edge6_Node000001_Node000007" class="edge">
<title>Node1&#45;&gt;Node7</title>
<g id="a_edge6_Node000001_Node000007"><a xlink:title=" ">
<path fill="none" stroke="#63b8ff" d="M922.62,-67.59C893.33,-55.68 857.72,-41.19 832.13,-30.78"/>
<polygon fill="#63b8ff" stroke="#63b8ff" points="833.46,-27.54 822.88,-27.02 830.82,-34.03 833.46,-27.54"/>
</a>
</g>
</g>
<!-- Node8 -->
<g id="Node000008" class="node">
<title>Node8</title>
<g id="a_Node000008"><a xlink:title=" ">
<polygon fill="#e0e0e0" stroke="#999999" points="967.88,-26 862.62,-26 862.62,-6 967.88,-6 967.88,-26"/>
<text text-anchor="middle" x="915.25" y="-12.5" font-family="Helvetica,sans-Serif" font-size="10.00">javafx.geometry.Pos</text>
</a>
</g>
</g>
<!-- Node1&#45;&gt;Node8 -->
<g id="edge7_Node000001_Node000008" class="edge">
<title>Node1&#45;&gt;Node8</title>
<g id="a_edge7_Node000001_Node000008"><a xlink:title=" ">
<path fill="none" stroke="#63b8ff" d="M957.57,-67.79C948.88,-57.35 938.51,-44.91 930.21,-34.95"/>
<polygon fill="#63b8ff" stroke="#63b8ff" points="933.07,-32.92 923.98,-27.47 927.69,-37.4 933.07,-32.92"/>
</a>
</g>
</g>
<!-- Node9 -->
<g id="Node000009" class="node">
<title>Node9</title>
<g id="a_Node000009"><a xlink:title=" ">
<polygon fill="#e0e0e0" stroke="#999999" points="1084.12,-26 986.38,-26 986.38,-6 1084.12,-6 1084.12,-26"/>
<text text-anchor="middle" x="1035.25" y="-12.5" font-family="Helvetica,sans-Serif" font-size="10.00">javafx.scene.Node</text>
</a>
</g>
</g>
<!-- Node1&#45;&gt;Node9 -->
<g id="edge8_Node000001_Node000009" class="edge">
<title>Node1&#45;&gt;Node9</title>
<g id="a_edge8_Node000001_Node000009"><a xlink:title=" ">
<path fill="none" stroke="#63b8ff" d="M992.93,-67.79C1001.62,-57.35 1011.99,-44.91 1020.29,-34.95"/>
<polygon fill="#63b8ff" stroke="#63b8ff" points="1022.81,-37.4 1026.52,-27.47 1017.43,-32.92 1022.81,-37.4"/>
</a>
</g>
</g>
<!-- Node10 -->
<g id="Node000010" class="node">
<title>Node10</title>
<g id="a_Node000010"><a xlink:title=" ">
<polygon fill="#e0e0e0" stroke="#999999" points="1237.88,-26 1102.62,-26 1102.62,-6 1237.88,-6 1237.88,-26"/>
<text text-anchor="middle" x="1170.25" y="-12.5" font-family="Helvetica,sans-Serif" font-size="10.00">javafx.scene.control.Tooltip</text>
</a>
</g>
</g>
<!-- Node1&#45;&gt;Node10 -->
<g id="edge9_Node000001_Node000010" class="edge">
<title>Node1&#45;&gt;Node10</title>
<g id="a_edge9_Node000001_Node000010"><a xlink:title=" ">
<path fill="none" stroke="#63b8ff" d="M1033.23,-67.59C1065.93,-55.52 1105.78,-40.8 1134.06,-30.36"/>
<polygon fill="#63b8ff" stroke="#63b8ff" points="1135.07,-33.72 1143.24,-26.97 1132.65,-27.15 1135.07,-33.72"/>
</a>
</g>
</g>
<!-- Node11 -->
<g id="Node000011" class="node">
<title>Node11</title>
<g id="a_Node000011"><a xlink:title=" ">
<polygon fill="#e0e0e0" stroke="#999999" points="1396.12,-26 1256.38,-26 1256.38,-6 1396.12,-6 1396.12,-26"/>
<text text-anchor="middle" x="1326.25" y="-12.5" font-family="Helvetica,sans-Serif" font-size="10.00">javafx.scene.input.Clipboard</text>
</a>
</g>
</g>
<!-- Node1&#45;&gt;Node11 -->
<g id="edge10_Node000001_Node000011" class="edge">
<title>Node1&#45;&gt;Node11</title>
<g id="a_edge10_Node000001_Node000011"><a xlink:title=" ">
<path fill="none" stroke="#63b8ff" d="M1044.6,-74.78C1110.24,-61.31 1207.61,-41.34 1268.97,-28.75"/>
<polygon fill="#63b8ff" stroke="#63b8ff" points="1269.41,-32.23 1278.51,-26.79 1268.01,-25.37 1269.41,-32.23"/>
</a>
</g>
</g>
<!-- Node12 -->
<g id="Node000012" class="node">
<title>Node12</title>
<g id="a_Node000012"><a xlink:title=" ">
<polygon fill="#e0e0e0" stroke="#999999" points="1554.12,-32 1414.38,-32 1414.38,0 1554.12,0 1554.12,-32"/>
<text text-anchor="start" x="1422.38" y="-18.5" font-family="Helvetica,sans-Serif" font-size="10.00">javafx.scene.input.Clipboard</text>
<text text-anchor="middle" x="1484.25" y="-6.5" font-family="Helvetica,sans-Serif" font-size="10.00">Content</text>
</a>
</g>
</g>
<!-- Node1&#45;&gt;Node12 -->
<g id="edge11_Node000001_Node000012" class="edge">
<title>Node1&#45;&gt;Node12</title>
<g id="a_edge11_Node000001_Node000012"><a xlink:title=" ">
<path fill="none" stroke="#63b8ff" d="M1044.69,-81.01C1127.51,-71.2 1270.41,-53.43 1402.92,-32.32"/>
<polygon fill="#63b8ff" stroke="#63b8ff" points="1403.26,-35.81 1412.58,-30.77 1402.15,-28.9 1403.26,-35.81"/>
</a>
</g>
</g>
<!-- Node13 -->
<g id="Node000013" class="node">
<title>Node13</title>
<g id="a_Node000013"><a xlink:title=" ">
<polygon fill="#e0e0e0" stroke="#999999" points="1700.12,-26 1572.38,-26 1572.38,-6 1700.12,-6 1700.12,-26"/>
<text text-anchor="middle" x="1636.25" y="-12.5" font-family="Helvetica,sans-Serif" font-size="10.00">javafx.scene.layout.VBox</text>
</a>
</g>
</g>
<!-- Node1&#45;&gt;Node13 -->
<g id="edge12_Node000001_Node000013" class="edge">
<title>Node1&#45;&gt;Node13</title>
<g id="a_edge12_Node000001_Node000013"><a xlink:title=" ">
<path fill="none" stroke="#63b8ff" d="M1044.79,-84.66C1155.13,-77.23 1376.9,-60.1 1563.25,-32 1569.64,-31.04 1576.32,-29.88 1582.93,-28.64"/>
<polygon fill="#63b8ff" stroke="#63b8ff" points="1583.3,-32.13 1592.44,-26.78 1581.95,-25.26 1583.3,-32.13"/>
</a>
</g>
</g>
<!-- Node14 -->
<g id="Node000014" class="node">
<title>Node14</title>
<g id="a_Node000014"><a xlink:title=" ">
<polygon fill="#e0e0e0" stroke="#999999" points="1816.12,-26 1718.38,-26 1718.38,-6 1816.12,-6 1816.12,-26"/>
<text text-anchor="middle" x="1767.25" y="-12.5" font-family="Helvetica,sans-Serif" font-size="10.00">javafx.util.Duration</text>
</a>
</g>
</g>
<!-- Node1&#45;&gt;Node14 -->
<g id="edge13_Node000001_Node000014" class="edge">
<title>Node1&#45;&gt;Node14</title>
<g id="a_edge13_Node000001_Node000014"><a xlink:title=" ">
<path fill="none" stroke="#63b8ff" d="M1044.81,-87.66C1175.73,-84.24 1467.35,-72.35 1709.25,-32 1713.98,-31.21 1718.89,-30.22 1723.76,-29.12"/>
<polygon fill="#63b8ff" stroke="#63b8ff" points="1724.58,-32.53 1733.48,-26.78 1722.94,-25.72 1724.58,-32.53"/>
</a>
</g>
</g>
<!-- Node15 -->
<g id="Node000015" class="node">
<title>Node15</title>
<g id="a_Node000015"><a xlink:title=" ">
<polygon fill="#e0e0e0" stroke="#999999" points="1990.38,-32 1834.12,-32 1834.12,0 1990.38,0 1990.38,-32"/>
<text text-anchor="start" x="1842.12" y="-18.5" font-family="Helvetica,sans-Serif" font-size="10.00">org.springframework.stereotype.</text>
<text text-anchor="middle" x="1912.25" y="-6.5" font-family="Helvetica,sans-Serif" font-size="10.00">Component</text>
</a>
</g>
</g>
<!-- Node1&#45;&gt;Node15 -->
<g id="edge14_Node000001_Node000015" class="edge">
<title>Node1&#45;&gt;Node15</title>
<g id="a_edge14_Node000001_Node000015"><a xlink:title=" ">
<path fill="none" stroke="#63b8ff" d="M1044.61,-86.79C1188.02,-81.69 1527.72,-66.86 1822.7,-32.22"/>
<polygon fill="#63b8ff" stroke="#63b8ff" points="1823.03,-35.71 1832.55,-31.05 1822.21,-28.76 1823.03,-35.71"/>
</a>
</g>
</g>
</g>
</svg>
