<?xml version="1.0" encoding="UTF-8" standalone="no"?>
<!DOCTYPE svg PUBLIC "-//W3C//DTD SVG 1.1//EN"
 "http://www.w3.org/Graphics/SVG/1.1/DTD/svg11.dtd">
<!-- Generated by graphviz version 12.2.1 (20241206.2353)
 -->
<!-- Title: src/main/java/fr/softsf/sudokufx/service/VersionService.java Pages: 1 -->
<svg width="2907pt" height="108pt"
 viewBox="0.00 0.00 2907.00 108.00" xmlns="http://www.w3.org/2000/svg" xmlns:xlink="http://www.w3.org/1999/xlink">
<g id="graph0" class="graph" transform="scale(1 1) rotate(0) translate(4 104)">
<title>src/main/java/fr/softsf/sudokufx/service/VersionService.java</title>
<!-- Node1 -->
<g id="Node000001" class="node">
<title>Node1</title>
<g id="a_Node000001"><a xlink:title=" ">
<polygon fill="#999999" stroke="#666666" points="1684,-100 1501.5,-100 1501.5,-68 1684,-68 1684,-100"/>
<text text-anchor="start" x="1509.5" y="-86.5" font-family="Helvetica,sans-Serif" font-size="10.00">src/main/java/fr/softsf</text>
<text text-anchor="middle" x="1592.75" y="-74.5" font-family="Helvetica,sans-Serif" font-size="10.00">/sudokufx/service/VersionService.java</text>
</a>
</g>
</g>
<!-- Node2 -->
<g id="Node000002" class="node">
<title>Node2</title>
<g id="a_Node000002"><a xlink:title=" ">
<polygon fill="#e0e0e0" stroke="#999999" points="161.5,-32 0,-32 0,0 161.5,0 161.5,-32"/>
<text text-anchor="start" x="8" y="-18.5" font-family="Helvetica,sans-Serif" font-size="10.00">com.fasterxml.jackson.core.type.</text>
<text text-anchor="middle" x="80.75" y="-6.5" font-family="Helvetica,sans-Serif" font-size="10.00">TypeReference</text>
</a>
</g>
</g>
<!-- Node1&#45;&gt;Node2 -->
<g id="edge1_Node000001_Node000002" class="edge">
<title>Node1&#45;&gt;Node2</title>
<g id="a_edge1_Node000001_Node000002"><a xlink:title=" ">
<path fill="none" stroke="#63b8ff" d="M1501.39,-83.81C1276.86,-84.91 680.06,-82.5 172.85,-32.11"/>
<polygon fill="#63b8ff" stroke="#63b8ff" points="173.44,-28.65 163.14,-31.14 172.74,-35.62 173.44,-28.65"/>
</a>
</g>
</g>
<!-- Node3 -->
<g id="Node000003" class="node">
<title>Node3</title>
<g id="a_Node000003"><a xlink:title=" ">
<polygon fill="#e0e0e0" stroke="#999999" points="337.62,-32 179.88,-32 179.88,0 337.62,0 337.62,-32"/>
<text text-anchor="start" x="187.88" y="-18.5" font-family="Helvetica,sans-Serif" font-size="10.00">com.fasterxml.jackson.databind.</text>
<text text-anchor="middle" x="258.75" y="-6.5" font-family="Helvetica,sans-Serif" font-size="10.00">ObjectMapper</text>
</a>
</g>
</g>
<!-- Node1&#45;&gt;Node3 -->
<g id="edge2_Node000001_Node000003" class="edge">
<title>Node1&#45;&gt;Node3</title>
<g id="a_edge2_Node000001_Node000003"><a xlink:title=" ">
<path fill="none" stroke="#63b8ff" d="M1501.01,-83.25C1296.12,-82.95 785.66,-77.37 349.11,-32.15"/>
<polygon fill="#63b8ff" stroke="#63b8ff" points="349.65,-28.69 339.34,-31.13 348.93,-35.65 349.65,-28.69"/>
</a>
</g>
</g>
<!-- Node4 -->
<g id="Node000004" class="node">
<title>Node4</title>
<g id="a_Node000004"><a xlink:title=" ">
<polygon fill="#e0e0e0" stroke="#999999" points="509.75,-32 355.75,-32 355.75,0 509.75,0 509.75,-32"/>
<text text-anchor="start" x="363.75" y="-18.5" font-family="Helvetica,sans-Serif" font-size="10.00">fr.softsf.sudokufx.configuration.</text>
<text text-anchor="middle" x="432.75" y="-6.5" font-family="Helvetica,sans-Serif" font-size="10.00">JVMApplicationProperties</text>
</a>
</g>
</g>
<!-- Node1&#45;&gt;Node4 -->
<g id="edge3_Node000001_Node000004" class="edge">
<title>Node1&#45;&gt;Node4</title>
<g id="a_edge3_Node000001_Node000004"><a xlink:title=" ">
<path fill="none" stroke="#63b8ff" d="M1501.21,-82.51C1317.34,-80.69 889.9,-72.21 521.47,-32.2"/>
<polygon fill="#63b8ff" stroke="#63b8ff" points="521.87,-28.73 511.54,-31.12 521.1,-35.69 521.87,-28.73"/>
</a>
</g>
</g>
<!-- Node5 -->
<g id="Node000005" class="node">
<title>Node5</title>
<g id="a_Node000005"><a xlink:title=" ">
<polygon fill="#e0e0e0" stroke="#999999" points="669.38,-32 528.12,-32 528.12,0 669.38,0 669.38,-32"/>
<text text-anchor="start" x="536.12" y="-18.5" font-family="Helvetica,sans-Serif" font-size="10.00">fr.softsf.sudokufx.dto.github.</text>
<text text-anchor="middle" x="598.75" y="-6.5" font-family="Helvetica,sans-Serif" font-size="10.00">TagDto</text>
</a>
</g>
</g>
<!-- Node1&#45;&gt;Node5 -->
<g id="edge4_Node000001_Node000005" class="edge">
<title>Node1&#45;&gt;Node5</title>
<g id="a_edge4_Node000001_Node000005"><a xlink:title=" ">
<path fill="none" stroke="#63b8ff" d="M1501.16,-81.89C1338.03,-79.03 986.33,-68.91 681.04,-32.31"/>
<polygon fill="#63b8ff" stroke="#63b8ff" points="681.59,-28.85 671.24,-31.12 680.75,-35.8 681.59,-28.85"/>
</a>
</g>
</g>
<!-- Node6 -->
<g id="Node000006" class="node">
<title>Node6</title>
<g id="a_Node000006"><a xlink:title=" ">
<polygon fill="#e0e0e0" stroke="#999999" points="822.38,-26 687.12,-26 687.12,-6 822.38,-6 822.38,-26"/>
<text text-anchor="middle" x="754.75" y="-12.5" font-family="Helvetica,sans-Serif" font-size="10.00">fr.softsf.sudokufx.utils.I18n</text>
</a>
</g>
</g>
<!-- Node1&#45;&gt;Node6 -->
<g id="edge5_Node000001_Node000006" class="edge">
<title>Node1&#45;&gt;Node6</title>
<g id="a_edge5_Node000001_Node000006"><a xlink:title=" ">
<path fill="none" stroke="#63b8ff" d="M1501.02,-80.57C1357.66,-75.93 1072.03,-63.33 831.75,-32 824.49,-31.05 816.87,-29.84 809.38,-28.52"/>
<polygon fill="#63b8ff" stroke="#63b8ff" points="810.12,-25.1 799.65,-26.72 808.85,-31.98 810.12,-25.1"/>
</a>
</g>
</g>
<!-- Node7 -->
<g id="Node000007" class="node">
<title>Node7</title>
<g id="a_Node000007"><a xlink:title=" ">
<polygon fill="#e0e0e0" stroke="#999999" points="957,-32 840.5,-32 840.5,0 957,0 957,-32"/>
<text text-anchor="start" x="848.5" y="-18.5" font-family="Helvetica,sans-Serif" font-size="10.00">fr.softsf.sudokufx.utils.</text>
<text text-anchor="middle" x="898.75" y="-6.5" font-family="Helvetica,sans-Serif" font-size="10.00">MyDateTime</text>
</a>
</g>
</g>
<!-- Node1&#45;&gt;Node7 -->
<g id="edge6_Node000001_Node000007" class="edge">
<title>Node1&#45;&gt;Node7</title>
<g id="a_edge6_Node000001_Node000007"><a xlink:title=" ">
<path fill="none" stroke="#63b8ff" d="M1501.07,-79.43C1381.02,-73.89 1163.92,-60.87 968.61,-32.13"/>
<polygon fill="#63b8ff" stroke="#63b8ff" points="969.17,-28.67 958.76,-30.66 968.13,-35.6 969.17,-28.67"/>
</a>
</g>
</g>
<!-- Node8 -->
<g id="Node000008" class="node">
<title>Node8</title>
<g id="a_Node000008"><a xlink:title=" ">
<polygon fill="#e0e0e0" stroke="#999999" points="1092,-32 975.5,-32 975.5,0 1092,0 1092,-32"/>
<text text-anchor="start" x="983.5" y="-18.5" font-family="Helvetica,sans-Serif" font-size="10.00">fr.softsf.sudokufx.utils.</text>
<text text-anchor="middle" x="1033.75" y="-6.5" font-family="Helvetica,sans-Serif" font-size="10.00">MyRegex</text>
</a>
</g>
</g>
<!-- Node1&#45;&gt;Node8 -->
<g id="edge7_Node000001_Node000008" class="edge">
<title>Node1&#45;&gt;Node8</title>
<g id="a_edge7_Node000001_Node000008"><a xlink:title=" ">
<path fill="none" stroke="#63b8ff" d="M1501.2,-76.73C1404.59,-69.38 1247.75,-55.38 1103.39,-32.32"/>
<polygon fill="#63b8ff" stroke="#63b8ff" points="1104.06,-28.88 1093.63,-30.74 1102.94,-35.79 1104.06,-28.88"/>
</a>
</g>
</g>
<!-- Node9 -->
<g id="Node000009" class="node">
<title>Node9</title>
<g id="a_Node000009"><a xlink:title=" ">
<polygon fill="#e0e0e0" stroke="#999999" points="1225.25,-26 1110.25,-26 1110.25,-6 1225.25,-6 1225.25,-26"/>
<text text-anchor="middle" x="1167.75" y="-12.5" font-family="Helvetica,sans-Serif" font-size="10.00">javafx.concurrent.Task</text>
</a>
</g>
</g>
<!-- Node1&#45;&gt;Node9 -->
<g id="edge8_Node000001_Node000009" class="edge">
<title>Node1&#45;&gt;Node9</title>
<g id="a_edge8_Node000001_Node000009"><a xlink:title=" ">
<path fill="none" stroke="#63b8ff" d="M1501.3,-72.12C1428.55,-62.96 1324.29,-48.69 1233.75,-32 1228.6,-31.05 1223.25,-29.98 1217.92,-28.85"/>
<polygon fill="#63b8ff" stroke="#63b8ff" points="1219.07,-25.52 1208.56,-26.82 1217.58,-32.36 1219.07,-25.52"/>
</a>
</g>
</g>
<!-- Node10 -->
<g id="Node000010" class="node">
<title>Node10</title>
<g id="a_Node000010"><a xlink:title=" ">
<polygon fill="#e0e0e0" stroke="#999999" points="1364.25,-26 1243.25,-26 1243.25,-6 1364.25,-6 1364.25,-26"/>
<text text-anchor="middle" x="1303.75" y="-12.5" font-family="Helvetica,sans-Serif" font-size="10.00">lombok.extern.slf4j.Slf4j</text>
</a>
</g>
</g>
<!-- Node1&#45;&gt;Node10 -->
<g id="edge9_Node000001_Node000010" class="edge">
<title>Node1&#45;&gt;Node10</title>
<g id="a_edge9_Node000001_Node000010"><a xlink:title=" ">
<path fill="none" stroke="#63b8ff" d="M1524.99,-67.53C1473.41,-55.74 1403.43,-39.77 1356.1,-28.96"/>
<polygon fill="#63b8ff" stroke="#63b8ff" points="1357.18,-25.61 1346.65,-26.8 1355.62,-32.44 1357.18,-25.61"/>
</a>
</g>
</g>
<!-- Node11 -->
<g id="Node000011" class="node">
<title>Node11</title>
<g id="a_Node000011"><a xlink:title=" ">
<polygon fill="#e0e0e0" stroke="#999999" points="1599.25,-32 1382.25,-32 1382.25,0 1599.25,0 1599.25,-32"/>
<text text-anchor="start" x="1390.25" y="-18.5" font-family="Helvetica,sans-Serif" font-size="10.00">org.springframework.beans.factory.annotation.</text>
<text text-anchor="middle" x="1490.75" y="-6.5" font-family="Helvetica,sans-Serif" font-size="10.00">Autowired</text>
</a>
</g>
</g>
<!-- Node1&#45;&gt;Node11 -->
<g id="edge10_Node000001_Node000011" class="edge">
<title>Node1&#45;&gt;Node11</title>
<g id="a_edge10_Node000001_Node000011"><a xlink:title=" ">
<path fill="none" stroke="#63b8ff" d="M1568.84,-67.53C1555.41,-58.84 1538.45,-47.86 1523.77,-38.37"/>
<polygon fill="#63b8ff" stroke="#63b8ff" points="1526.08,-35.69 1515.79,-33.2 1522.28,-41.57 1526.08,-35.69"/>
</a>
</g>
</g>
<!-- Node12 -->
<g id="Node000012" class="node">
<title>Node12</title>
<g id="a_Node000012"><a xlink:title=" ">
<polygon fill="#e0e0e0" stroke="#999999" points="1773.88,-32 1617.62,-32 1617.62,0 1773.88,0 1773.88,-32"/>
<text text-anchor="start" x="1625.62" y="-18.5" font-family="Helvetica,sans-Serif" font-size="10.00">org.springframework.stereotype.</text>
<text text-anchor="middle" x="1695.75" y="-6.5" font-family="Helvetica,sans-Serif" font-size="10.00">Service</text>
</a>
</g>
</g>
<!-- Node1&#45;&gt;Node12 -->
<g id="edge11_Node000001_Node000012" class="edge">
<title>Node1&#45;&gt;Node12</title>
<g id="a_edge11_Node000001_Node000012"><a xlink:title=" ">
<path fill="none" stroke="#63b8ff" d="M1616.9,-67.53C1630.46,-58.84 1647.58,-47.86 1662.4,-38.37"/>
<polygon fill="#63b8ff" stroke="#63b8ff" points="1663.95,-41.54 1670.48,-33.19 1660.17,-35.64 1663.95,-41.54"/>
</a>
</g>
</g>
<!-- Node13 -->
<g id="Node000013" class="node">
<title>Node13</title>
<g id="a_Node000013"><a xlink:title=" ">
<polygon fill="#e0e0e0" stroke="#999999" points="1893.5,-26 1792,-26 1792,-6 1893.5,-6 1893.5,-26"/>
<text text-anchor="middle" x="1842.75" y="-12.5" font-family="Helvetica,sans-Serif" font-size="10.00">java.io.IOException</text>
</a>
</g>
</g>
<!-- Node1&#45;&gt;Node13 -->
<g id="edge12_Node000001_Node000013" class="edge">
<title>Node1&#45;&gt;Node13</title>
<g id="a_edge12_Node000001_Node000013"><a xlink:title=" ">
<path fill="none" stroke="#63b8ff" d="M1651.36,-67.53C1695.42,-55.89 1754.99,-40.17 1795.9,-29.37"/>
<polygon fill="#63b8ff" stroke="#63b8ff" points="1796.68,-32.78 1805.45,-26.85 1794.89,-26.01 1796.68,-32.78"/>
</a>
</g>
</g>
<!-- Node14 -->
<g id="Node000014" class="node">
<title>Node14</title>
<g id="a_Node000014"><a xlink:title=" ">
<polygon fill="#e0e0e0" stroke="#999999" points="1983.5,-26 1912,-26 1912,-6 1983.5,-6 1983.5,-26"/>
<text text-anchor="middle" x="1947.75" y="-12.5" font-family="Helvetica,sans-Serif" font-size="10.00">java.net.URI</text>
</a>
</g>
</g>
<!-- Node1&#45;&gt;Node14 -->
<g id="edge13_Node000001_Node000014" class="edge">
<title>Node1&#45;&gt;Node14</title>
<g id="a_edge13_Node000001_Node000014"><a xlink:title=" ">
<path fill="none" stroke="#63b8ff" d="M1684.41,-71.81C1746.53,-63.28 1830.21,-49.94 1902.75,-32 1905.38,-31.35 1908.08,-30.62 1910.78,-29.84"/>
<polygon fill="#63b8ff" stroke="#63b8ff" points="1911.82,-33.18 1920.34,-26.88 1909.75,-26.5 1911.82,-33.18"/>
</a>
</g>
</g>
<!-- Node15 -->
<g id="Node000015" class="node">
<title>Node15</title>
<g id="a_Node000015"><a xlink:title=" ">
<polygon fill="#e0e0e0" stroke="#999999" points="2118.38,-26 2001.12,-26 2001.12,-6 2118.38,-6 2118.38,-26"/>
<text text-anchor="middle" x="2059.75" y="-12.5" font-family="Helvetica,sans-Serif" font-size="10.00">java.net.http.HttpClient</text>
</a>
</g>
</g>
<!-- Node1&#45;&gt;Node15 -->
<g id="edge14_Node000001_Node000015" class="edge">
<title>Node1&#45;&gt;Node15</title>
<g id="a_edge14_Node000001_Node000015"><a xlink:title=" ">
<path fill="none" stroke="#63b8ff" d="M1684.46,-73.77C1765.78,-65 1887.59,-50.43 1992.75,-32 1998.05,-31.07 2003.56,-30 2009.05,-28.88"/>
<polygon fill="#63b8ff" stroke="#63b8ff" points="2009.66,-32.32 2018.71,-26.81 2008.2,-25.48 2009.66,-32.32"/>
</a>
</g>
</g>
<!-- Node16 -->
<g id="Node000016" class="node">
<title>Node16</title>
<g id="a_Node000016"><a xlink:title=" ">
<polygon fill="#e0e0e0" stroke="#999999" points="2265,-26 2136.5,-26 2136.5,-6 2265,-6 2265,-26"/>
<text text-anchor="middle" x="2200.75" y="-12.5" font-family="Helvetica,sans-Serif" font-size="10.00">java.net.http.HttpRequest</text>
</a>
</g>
</g>
<!-- Node1&#45;&gt;Node16 -->
<g id="edge15_Node000001_Node000016" class="edge">
<title>Node1&#45;&gt;Node16</title>
<g id="a_edge15_Node000001_Node000016"><a xlink:title=" ">
<path fill="none" stroke="#63b8ff" d="M1684.47,-77.27C1791.31,-69.9 1972.96,-55.21 2127.75,-32 2134.23,-31.03 2140.99,-29.86 2147.69,-28.6"/>
<polygon fill="#63b8ff" stroke="#63b8ff" points="2148.18,-32.07 2157.33,-26.71 2146.84,-25.2 2148.18,-32.07"/>
</a>
</g>
</g>
<!-- Node17 -->
<g id="Node000017" class="node">
<title>Node17</title>
<g id="a_Node000017"><a xlink:title=" ">
<polygon fill="#e0e0e0" stroke="#999999" points="2418.75,-26 2282.75,-26 2282.75,-6 2418.75,-6 2418.75,-26"/>
<text text-anchor="middle" x="2350.75" y="-12.5" font-family="Helvetica,sans-Serif" font-size="10.00">java.net.http.HttpResponse</text>
</a>
</g>
</g>
<!-- Node1&#45;&gt;Node17 -->
<g id="edge16_Node000001_Node000017" class="edge">
<title>Node1&#45;&gt;Node17</title>
<g id="a_edge16_Node000001_Node000017"><a xlink:title=" ">
<path fill="none" stroke="#63b8ff" d="M1684.25,-79.57C1815.32,-73.88 2063.86,-60.2 2273.75,-32 2280.92,-31.04 2288.43,-29.83 2295.83,-28.51"/>
<polygon fill="#63b8ff" stroke="#63b8ff" points="2296.24,-32 2305.43,-26.74 2294.96,-25.12 2296.24,-32"/>
</a>
</g>
</g>
<!-- Node18 -->
<g id="Node000018" class="node">
<title>Node18</title>
<g id="a_Node000018"><a xlink:title=" ">
<polygon fill="#e0e0e0" stroke="#999999" points="2564.25,-32 2437.25,-32 2437.25,0 2564.25,0 2564.25,-32"/>
<text text-anchor="start" x="2445.25" y="-18.5" font-family="Helvetica,sans-Serif" font-size="10.00">java.net.http.HttpTimeout</text>
<text text-anchor="middle" x="2500.75" y="-6.5" font-family="Helvetica,sans-Serif" font-size="10.00">Exception</text>
</a>
</g>
</g>
<!-- Node1&#45;&gt;Node18 -->
<g id="edge17_Node000001_Node000018" class="edge">
<title>Node1&#45;&gt;Node18</title>
<g id="a_edge17_Node000001_Node000018"><a xlink:title=" ">
<path fill="none" stroke="#63b8ff" d="M1684.28,-81.64C1836.33,-78.46 2150.63,-67.91 2426.12,-32.07"/>
<polygon fill="#63b8ff" stroke="#63b8ff" points="2426.18,-35.6 2435.64,-30.82 2425.27,-28.66 2426.18,-35.6"/>
</a>
</g>
</g>
<!-- Node19 -->
<g id="Node000019" class="node">
<title>Node19</title>
<g id="a_Node000019"><a xlink:title=" ">
<polygon fill="#e0e0e0" stroke="#999999" points="2677.5,-26 2582,-26 2582,-6 2677.5,-6 2677.5,-26"/>
<text text-anchor="middle" x="2629.75" y="-12.5" font-family="Helvetica,sans-Serif" font-size="10.00">java.time.Duration</text>
</a>
</g>
</g>
<!-- Node1&#45;&gt;Node19 -->
<g id="edge18_Node000001_Node000019" class="edge">
<title>Node1&#45;&gt;Node19</title>
<g id="a_edge18_Node000001_Node000019"><a xlink:title=" ">
<path fill="none" stroke="#63b8ff" d="M1684.13,-80.7C1893.72,-75.02 2404.04,-58.84 2573.75,-32 2578.45,-31.26 2583.32,-30.28 2588.14,-29.17"/>
<polygon fill="#63b8ff" stroke="#63b8ff" points="2588.86,-32.6 2597.72,-26.79 2587.17,-25.81 2588.86,-32.6"/>
</a>
</g>
</g>
<!-- Node20 -->
<g id="Node000020" class="node">
<title>Node20</title>
<g id="a_Node000020"><a xlink:title=" ">
<polygon fill="#e0e0e0" stroke="#999999" points="2764,-26 2695.5,-26 2695.5,-6 2764,-6 2764,-26"/>
<text text-anchor="middle" x="2729.75" y="-12.5" font-family="Helvetica,sans-Serif" font-size="10.00">java.util.List</text>
</a>
</g>
</g>
<!-- Node1&#45;&gt;Node20 -->
<g id="edge19_Node000001_Node000020" class="edge">
<title>Node1&#45;&gt;Node20</title>
<g id="a_edge19_Node000001_Node000020"><a xlink:title=" ">
<path fill="none" stroke="#63b8ff" d="M1684.17,-82.13C1911.13,-79.42 2495.76,-68.95 2686.75,-32 2689.77,-31.41 2692.88,-30.66 2695.96,-29.8"/>
<polygon fill="#63b8ff" stroke="#63b8ff" points="2696.96,-33.16 2705.44,-26.81 2694.85,-26.48 2696.96,-33.16"/>
</a>
</g>
</g>
<!-- Node21 -->
<g id="Node000021" class="node">
<title>Node21</title>
<g id="a_Node000021"><a xlink:title=" ">
<polygon fill="#e0e0e0" stroke="#999999" points="2899,-32 2782.5,-32 2782.5,0 2899,0 2899,-32"/>
<text text-anchor="start" x="2790.5" y="-18.5" font-family="Helvetica,sans-Serif" font-size="10.00">fr.softsf.sudokufx.utils.</text>
<text text-anchor="middle" x="2840.75" y="-6.5" font-family="Helvetica,sans-Serif" font-size="10.00">MyEnums.Urls.*</text>
</a>
</g>
</g>
<!-- Node1&#45;&gt;Node21 -->
<g id="edge20_Node000001_Node000021" class="edge">
<title>Node1&#45;&gt;Node21</title>
<g id="a_edge20_Node000001_Node000021"><a xlink:title=" ">
<path fill="none" stroke="#63b8ff" d="M1684.5,-81.1C1919.81,-75.9 2541.72,-60.02 2770.99,-32.01"/>
<polygon fill="#63b8ff" stroke="#63b8ff" points="2771.28,-35.5 2780.76,-30.77 2770.4,-28.56 2771.28,-35.5"/>
</a>
</g>
</g>
</g>
</svg>
