<?xml version="1.0" encoding="UTF-8" standalone="no"?>
<!DOCTYPE svg PUBLIC "-//W3C//DTD SVG 1.1//EN"
 "http://www.w3.org/Graphics/SVG/1.1/DTD/svg11.dtd">
<!-- Generated by graphviz version 12.2.0 (20241103.1931)
 -->
<!-- Title: fr.softsf.sudokufx.view.FullMenuView.onHelloButtonClick Pages: 1 -->
<svg width="1060pt" height="340pt"
 viewBox="0.00 0.00 1060.00 340.00" xmlns="http://www.w3.org/2000/svg" xmlns:xlink="http://www.w3.org/1999/xlink">
<g id="graph0" class="graph" transform="scale(1 1) rotate(0) translate(4 336)">
<title>fr.softsf.sudokufx.view.FullMenuView.onHelloButtonClick</title>
<!-- Node1 -->
<g id="Node000001" class="node">
<title>Node1</title>
<g id="a_Node000001"><a xlink:title="Handles the click event of the Hello button.">
<polygon fill="#999999" stroke="#666666" points="163.75,-207 0,-207 0,-175 163.75,-175 163.75,-207"/>
<text text-anchor="start" x="8" y="-193.5" font-family="Helvetica,sans-Serif" font-size="10.00">fr.softsf.sudokufx.view.</text>
<text text-anchor="middle" x="81.88" y="-181.5" font-family="Helvetica,sans-Serif" font-size="10.00">FullMenuView.onHelloButtonClick</text>
</a>
</g>
</g>
<!-- Node2 -->
<g id="Node000002" class="node">
<title>Node2</title>
<g id="a_Node000002"><a xlink:href="classfr_1_1softsf_1_1sudokufx_1_1view_1_1components_1_1_toaster_v_box.html#a1b19810ab82b9dcac03ec0b5872716d3" target="_top" xlink:title="Adds a toast notification with an automatically calculated duration based on text length.">
<polygon fill="white" stroke="#666666" points="374,-282 199.75,-282 199.75,-250 374,-250 374,-282"/>
<text text-anchor="start" x="207.75" y="-268.5" font-family="Helvetica,sans-Serif" font-size="10.00">fr.softsf.sudokufx.view.components.</text>
<text text-anchor="middle" x="286.88" y="-256.5" font-family="Helvetica,sans-Serif" font-size="10.00">ToasterVBox.addToast</text>
</a>
</g>
</g>
<!-- Node1&#45;&gt;Node2 -->
<g id="edge1_Node000001_Node000002" class="edge">
<title>Node1&#45;&gt;Node2</title>
<g id="a_edge1_Node000001_Node000002"><a xlink:title=" ">
<path fill="none" stroke="#63b8ff" d="M118.23,-207.46C141.19,-217.81 171.9,-231.04 199.75,-241 204.71,-242.77 209.87,-244.52 215.08,-246.2"/>
<polygon fill="#63b8ff" stroke="#63b8ff" points="213.77,-249.46 224.36,-249.13 215.88,-242.79 213.77,-249.46"/>
</a>
</g>
</g>
<!-- Node8 -->
<g id="Node000008" class="node">
<title>Node8</title>
<g id="a_Node000008"><a xlink:href="classfr_1_1softsf_1_1sudokufx_1_1view_1_1components_1_1_toaster_v_box.html#ab87668da59b32d671cd3cca8975382f0" target="_top" xlink:title="Adds a toast notification with a specified duration.">
<polygon fill="white" stroke="#666666" points="374,-232 199.75,-232 199.75,-200 374,-200 374,-232"/>
<text text-anchor="start" x="207.75" y="-218.5" font-family="Helvetica,sans-Serif" font-size="10.00">fr.softsf.sudokufx.view.components.</text>
<text text-anchor="middle" x="286.88" y="-206.5" font-family="Helvetica,sans-Serif" font-size="10.00">ToasterVBox.addToastWithDuration</text>
</a>
</g>
</g>
<!-- Node1&#45;&gt;Node8 -->
<g id="edge7_Node000001_Node000008" class="edge">
<title>Node1&#45;&gt;Node8</title>
<g id="a_edge7_Node000001_Node000008"><a xlink:title=" ">
<path fill="none" stroke="#63b8ff" d="M163.98,-200.99C171.94,-201.97 180.07,-202.97 188.17,-203.97"/>
<polygon fill="#63b8ff" stroke="#63b8ff" points="187.72,-207.44 198.07,-205.19 188.57,-200.49 187.72,-207.44"/>
</a>
</g>
</g>
<!-- Node9 -->
<g id="Node000009" class="node">
<title>Node9</title>
<g id="a_Node000009"><a xlink:href="classfr_1_1softsf_1_1sudokufx_1_1utils_1_1_secure_random_generator.html#a591098207aad87f310d73116eb47acd2" target="_top" xlink:title="Generates a random integer between 0 (inclusive) and the specified bound (exclusive).">
<polygon fill="white" stroke="#666666" points="366.5,-182 207.25,-182 207.25,-150 366.5,-150 366.5,-182"/>
<text text-anchor="start" x="215.25" y="-168.5" font-family="Helvetica,sans-Serif" font-size="10.00">fr.softsf.sudokufx.utils.</text>
<text text-anchor="middle" x="286.88" y="-156.5" font-family="Helvetica,sans-Serif" font-size="10.00">SecureRandomGenerator.nextInt</text>
</a>
</g>
</g>
<!-- Node1&#45;&gt;Node9 -->
<g id="edge11_Node000001_Node000009" class="edge">
<title>Node1&#45;&gt;Node9</title>
<g id="a_edge11_Node000001_Node000009"><a xlink:title=" ">
<path fill="none" stroke="#63b8ff" d="M163.98,-181.01C174.36,-179.73 185.04,-178.42 195.56,-177.12"/>
<polygon fill="#63b8ff" stroke="#63b8ff" points="195.88,-180.61 205.38,-175.91 195.03,-173.66 195.88,-180.61"/>
</a>
</g>
</g>
<!-- Node10 -->
<g id="Node000010" class="node">
<title>Node10</title>
<g id="a_Node000010"><a xlink:href="classfr_1_1softsf_1_1sudokufx_1_1viewmodel_1_1_full_menu_view_model.html#a2eca0432ba5e82eeea338615f06d5eea" target="_top" xlink:title=" ">
<polygon fill="white" stroke="#666666" points="359.38,-132 214.38,-132 214.38,-100 359.38,-100 359.38,-132"/>
<text text-anchor="start" x="222.38" y="-118.5" font-family="Helvetica,sans-Serif" font-size="10.00">fr.softsf.sudokufx.viewmodel.</text>
<text text-anchor="middle" x="286.88" y="-106.5" font-family="Helvetica,sans-Serif" font-size="10.00">FullMenuViewModel.test</text>
</a>
</g>
</g>
<!-- Node1&#45;&gt;Node10 -->
<g id="edge12_Node000001_Node000010" class="edge">
<title>Node1&#45;&gt;Node10</title>
<g id="a_edge12_Node000001_Node000010"><a xlink:title=" ">
<path fill="none" stroke="#63b8ff" d="M118.23,-174.54C141.19,-164.19 171.9,-150.96 199.75,-141 204.71,-139.23 209.87,-137.48 215.08,-135.8"/>
<polygon fill="#63b8ff" stroke="#63b8ff" points="215.88,-139.21 224.36,-132.87 213.77,-132.54 215.88,-139.21"/>
</a>
</g>
</g>
<!-- Node3 -->
<g id="Node000003" class="node">
<title>Node3</title>
<g id="a_Node000003"><a xlink:href="classfr_1_1softsf_1_1sudokufx_1_1view_1_1components_1_1_toaster_v_box.html#a7defa217c0655eafd9f2e17e82165097" target="_top" xlink:title="Sets the accessibility text for the toast based on its level.">
<polygon fill="white" stroke="#666666" points="584.62,-332 410.38,-332 410.38,-300 584.62,-300 584.62,-332"/>
<text text-anchor="start" x="418.38" y="-318.5" font-family="Helvetica,sans-Serif" font-size="10.00">fr.softsf.sudokufx.view.components.</text>
<text text-anchor="middle" x="497.5" y="-306.5" font-family="Helvetica,sans-Serif" font-size="10.00">ToasterVBox.setAccessibility</text>
</a>
</g>
</g>
<!-- Node2&#45;&gt;Node3 -->
<g id="edge2_Node000002_Node000003" class="edge">
<title>Node2&#45;&gt;Node3</title>
<g id="a_edge2_Node000002_Node000003"><a xlink:title=" ">
<path fill="none" stroke="#63b8ff" d="M356.48,-282.44C375.73,-287.05 396.82,-292.11 416.66,-296.87"/>
<polygon fill="#63b8ff" stroke="#63b8ff" points="415.85,-300.27 426.39,-299.2 417.48,-293.46 415.85,-300.27"/>
</a>
</g>
</g>
<!-- Node6 -->
<g id="Node000006" class="node">
<title>Node6</title>
<g id="a_Node000006"><a xlink:href="classfr_1_1softsf_1_1sudokufx_1_1view_1_1components_1_1_toaster_v_box.html#af3cb545c1c6451f4d2d58f6adf039f7f" target="_top" xlink:title="Sets the style of the toast based on its level.">
<polygon fill="white" stroke="#666666" points="584.62,-282 410.38,-282 410.38,-250 584.62,-250 584.62,-282"/>
<text text-anchor="start" x="418.38" y="-268.5" font-family="Helvetica,sans-Serif" font-size="10.00">fr.softsf.sudokufx.view.components.</text>
<text text-anchor="middle" x="497.5" y="-256.5" font-family="Helvetica,sans-Serif" font-size="10.00">ToasterVBox.setToastStyle</text>
</a>
</g>
</g>
<!-- Node2&#45;&gt;Node6 -->
<g id="edge5_Node000002_Node000006" class="edge">
<title>Node2&#45;&gt;Node6</title>
<g id="a_edge5_Node000002_Node000006"><a xlink:title=" ">
<path fill="none" stroke="#63b8ff" d="M374.24,-266C382.31,-266 390.54,-266 398.71,-266"/>
<polygon fill="#63b8ff" stroke="#63b8ff" points="398.69,-269.5 408.69,-266 398.69,-262.5 398.69,-269.5"/>
</a>
</g>
</g>
<!-- Node7 -->
<g id="Node000007" class="node">
<title>Node7</title>
<g id="a_Node000007"><a xlink:href="classfr_1_1softsf_1_1sudokufx_1_1view_1_1components_1_1_toaster_v_box.html#a42c18c25aa73214c9c2d309a96efbcba" target="_top" xlink:title="Sets a timer to automatically remove the toast after a specified duration.">
<polygon fill="white" stroke="#666666" points="584.62,-232 410.38,-232 410.38,-200 584.62,-200 584.62,-232"/>
<text text-anchor="start" x="418.38" y="-218.5" font-family="Helvetica,sans-Serif" font-size="10.00">fr.softsf.sudokufx.view.components.</text>
<text text-anchor="middle" x="497.5" y="-206.5" font-family="Helvetica,sans-Serif" font-size="10.00">ToasterVBox.temporizeToast</text>
</a>
</g>
</g>
<!-- Node2&#45;&gt;Node7 -->
<g id="edge6_Node000002_Node000007" class="edge">
<title>Node2&#45;&gt;Node7</title>
<g id="a_edge6_Node000002_Node000007"><a xlink:title=" ">
<path fill="none" stroke="#63b8ff" d="M356.48,-249.56C375.73,-244.95 396.82,-239.89 416.66,-235.13"/>
<polygon fill="#63b8ff" stroke="#63b8ff" points="417.48,-238.54 426.39,-232.8 415.85,-231.73 417.48,-238.54"/>
</a>
</g>
</g>
<!-- Node4 -->
<g id="Node000004" class="node">
<title>Node4</title>
<g id="a_Node000004"><a xlink:href="classfr_1_1softsf_1_1sudokufx_1_1view_1_1components_1_1_toaster_v_box.html#a4b5a9581798c4700253d244f3e09cb57" target="_top" xlink:title="Retrieves the information text corresponding to the specified toast level.">
<polygon fill="white" stroke="#666666" points="797.5,-332 623.25,-332 623.25,-300 797.5,-300 797.5,-332"/>
<text text-anchor="start" x="631.25" y="-318.5" font-family="Helvetica,sans-Serif" font-size="10.00">fr.softsf.sudokufx.view.components.</text>
<text text-anchor="middle" x="710.38" y="-306.5" font-family="Helvetica,sans-Serif" font-size="10.00">ToasterVBox.getToastInfo</text>
</a>
</g>
</g>
<!-- Node3&#45;&gt;Node4 -->
<g id="edge3_Node000003_Node000004" class="edge">
<title>Node3&#45;&gt;Node4</title>
<g id="a_edge3_Node000003_Node000004"><a xlink:title=" ">
<path fill="none" stroke="#63b8ff" d="M584.88,-316C593.68,-316 602.66,-316 611.56,-316"/>
<polygon fill="#63b8ff" stroke="#63b8ff" points="611.28,-319.5 621.28,-316 611.28,-312.5 611.28,-319.5"/>
</a>
</g>
</g>
<!-- Node5 -->
<g id="Node000005" class="node">
<title>Node5</title>
<g id="a_Node000005"><a xlink:href="classfr_1_1softsf_1_1sudokufx_1_1utils_1_1_i18n.html#a7095fa285a498c3f20bf33488a69d22c" target="_top" xlink:title="Retrieves the localized string value for a given key.">
<polygon fill="white" stroke="#666666" points="1002.12,-332 885.62,-332 885.62,-300 1002.12,-300 1002.12,-332"/>
<text text-anchor="start" x="893.62" y="-318.5" font-family="Helvetica,sans-Serif" font-size="10.00">fr.softsf.sudokufx.utils.</text>
<text text-anchor="middle" x="943.88" y="-306.5" font-family="Helvetica,sans-Serif" font-size="10.00">I18n.getValue</text>
</a>
</g>
</g>
<!-- Node4&#45;&gt;Node5 -->
<g id="edge4_Node000004_Node000005" class="edge">
<title>Node4&#45;&gt;Node5</title>
<g id="a_edge4_Node000004_Node000005"><a xlink:title=" ">
<path fill="none" stroke="#63b8ff" d="M797.91,-316C822.96,-316 849.97,-316 873.8,-316"/>
<polygon fill="#63b8ff" stroke="#63b8ff" points="873.71,-319.5 883.71,-316 873.71,-312.5 873.71,-319.5"/>
</a>
</g>
</g>
<!-- Node8&#45;&gt;Node3 -->
<g id="edge8_Node000008_Node000003" class="edge">
<title>Node8&#45;&gt;Node3</title>
<g id="a_edge8_Node000008_Node000003"><a xlink:title=" ">
<path fill="none" stroke="#63b8ff" d="M359.22,-232.49C364.43,-234.95 369.42,-237.77 374,-241 396.37,-256.79 387.62,-275.22 410,-291 411.58,-292.11 413.21,-293.18 414.88,-294.2"/>
<polygon fill="#63b8ff" stroke="#63b8ff" points="413.04,-297.18 423.51,-298.81 416.34,-291.01 413.04,-297.18"/>
</a>
</g>
</g>
<!-- Node8&#45;&gt;Node6 -->
<g id="edge9_Node000008_Node000006" class="edge">
<title>Node8&#45;&gt;Node6</title>
<g id="a_edge9_Node000008_Node000006"><a xlink:title=" ">
<path fill="none" stroke="#63b8ff" d="M356.48,-232.44C375.73,-237.05 396.82,-242.11 416.66,-246.87"/>
<polygon fill="#63b8ff" stroke="#63b8ff" points="415.85,-250.27 426.39,-249.2 417.48,-243.46 415.85,-250.27"/>
</a>
</g>
</g>
<!-- Node8&#45;&gt;Node7 -->
<g id="edge10_Node000008_Node000007" class="edge">
<title>Node8&#45;&gt;Node7</title>
<g id="a_edge10_Node000008_Node000007"><a xlink:title=" ">
<path fill="none" stroke="#63b8ff" d="M374.24,-216C382.31,-216 390.54,-216 398.71,-216"/>
<polygon fill="#63b8ff" stroke="#63b8ff" points="398.69,-219.5 408.69,-216 398.69,-212.5 398.69,-219.5"/>
</a>
</g>
</g>
<!-- Node11 -->
<g id="Node000011" class="node">
<title>Node11</title>
<g id="a_Node000011"><a xlink:href="classfr_1_1softsf_1_1sudokufx_1_1viewmodel_1_1_full_menu_view_model.html#adce6b8020bad713a5457f19529475669" target="_top" xlink:title=" ">
<polygon fill="white" stroke="#666666" points="583.88,-182 411.12,-182 411.12,-150 583.88,-150 583.88,-182"/>
<text text-anchor="start" x="419.12" y="-168.5" font-family="Helvetica,sans-Serif" font-size="10.00">fr.softsf.sudokufx.viewmodel.</text>
<text text-anchor="middle" x="497.5" y="-156.5" font-family="Helvetica,sans-Serif" font-size="10.00">FullMenuViewModel.createSoftware</text>
</a>
</g>
</g>
<!-- Node10&#45;&gt;Node11 -->
<g id="edge13_Node000010_Node000011" class="edge">
<title>Node10&#45;&gt;Node11</title>
<g id="a_edge13_Node000010_Node000011"><a xlink:title=" ">
<path fill="none" stroke="#63b8ff" d="M356.48,-132.44C375.73,-137.05 396.82,-142.11 416.66,-146.87"/>
<polygon fill="#63b8ff" stroke="#63b8ff" points="415.85,-150.27 426.39,-149.2 417.48,-143.46 415.85,-150.27"/>
</a>
</g>
</g>
<!-- Node15 -->
<g id="Node000015" class="node">
<title>Node15</title>
<g id="a_Node000015"><a xlink:href="classfr_1_1softsf_1_1sudokufx_1_1service_1_1_software_service.html#a19dc59ca2cea75458d2d0a92ada59b34" target="_top" xlink:title=" ">
<polygon fill="white" stroke="#666666" points="569.25,-57 425.75,-57 425.75,-25 569.25,-25 569.25,-57"/>
<text text-anchor="start" x="433.75" y="-43.5" font-family="Helvetica,sans-Serif" font-size="10.00">fr.softsf.sudokufx.service.</text>
<text text-anchor="middle" x="497.5" y="-31.5" font-family="Helvetica,sans-Serif" font-size="10.00">SoftwareService.getSoftware</text>
</a>
</g>
</g>
<!-- Node10&#45;&gt;Node15 -->
<g id="edge17_Node000010_Node000015" class="edge">
<title>Node10&#45;&gt;Node15</title>
<g id="a_edge17_Node000010_Node000015"><a xlink:title=" ">
<path fill="none" stroke="#63b8ff" d="M333.66,-99.54C365.05,-88.26 406.89,-73.22 440.3,-61.21"/>
<polygon fill="#63b8ff" stroke="#63b8ff" points="441.17,-64.61 449.4,-57.93 438.8,-58.02 441.17,-64.61"/>
</a>
</g>
</g>
<!-- Node17 -->
<g id="Node000017" class="node">
<title>Node17</title>
<g id="a_Node000017"><a xlink:href="classfr_1_1softsf_1_1sudokufx_1_1viewmodel_1_1_full_menu_view_model.html#abeb58caaac8ee5464bb0f851c94992f4" target="_top" xlink:title=" ">
<polygon fill="white" stroke="#666666" points="585,-132 410,-132 410,-100 585,-100 585,-132"/>
<text text-anchor="start" x="418" y="-118.5" font-family="Helvetica,sans-Serif" font-size="10.00">fr.softsf.sudokufx.viewmodel.</text>
<text text-anchor="middle" x="497.5" y="-106.5" font-family="Helvetica,sans-Serif" font-size="10.00">FullMenuViewModel.updateSoftware</text>
</a>
</g>
</g>
<!-- Node10&#45;&gt;Node17 -->
<g id="edge19_Node000010_Node000017" class="edge">
<title>Node10&#45;&gt;Node17</title>
<g id="a_edge19_Node000010_Node000017"><a xlink:title=" ">
<path fill="none" stroke="#63b8ff" d="M359.67,-116C372.16,-116 385.34,-116 398.39,-116"/>
<polygon fill="#63b8ff" stroke="#63b8ff" points="398.29,-119.5 408.29,-116 398.29,-112.5 398.29,-119.5"/>
</a>
</g>
</g>
<!-- Node12 -->
<g id="Node000012" class="node">
<title>Node12</title>
<g id="a_Node000012"><a xlink:href="classfr_1_1softsf_1_1sudokufx_1_1service_1_1_software_service.html#a74d93b9d4144d91d01a4b02369265f0f" target="_top" xlink:title=" ">
<polygon fill="white" stroke="#666666" points="790,-182 630.75,-182 630.75,-150 790,-150 790,-182"/>
<text text-anchor="start" x="638.75" y="-168.5" font-family="Helvetica,sans-Serif" font-size="10.00">fr.softsf.sudokufx.service.</text>
<text text-anchor="middle" x="710.38" y="-156.5" font-family="Helvetica,sans-Serif" font-size="10.00">SoftwareService.updateSoftware</text>
</a>
</g>
</g>
<!-- Node11&#45;&gt;Node12 -->
<g id="edge14_Node000011_Node000012" class="edge">
<title>Node11&#45;&gt;Node12</title>
<g id="a_edge14_Node000011_Node000012"><a xlink:title=" ">
<path fill="none" stroke="#63b8ff" d="M584.27,-166C595.73,-166 607.51,-166 619.05,-166"/>
<polygon fill="#63b8ff" stroke="#63b8ff" points="618.96,-169.5 628.96,-166 618.96,-162.5 618.96,-169.5"/>
</a>
</g>
</g>
<!-- Node13 -->
<g id="Node000013" class="node">
<title>Node13</title>
<g id="a_Node000013"><a xlink:href="interfacefr_1_1softsf_1_1sudokufx_1_1interfaces_1_1mapper_1_1_i_software_mapper.html#a85adc191251bde9870609d4b2cb23ee6" target="_top" xlink:title="Maps a SoftwareDto object to a Software object.">
<polygon fill="white" stroke="#666666" points="1052,-232 835.75,-232 835.75,-200 1052,-200 1052,-232"/>
<text text-anchor="start" x="843.75" y="-218.5" font-family="Helvetica,sans-Serif" font-size="10.00">fr.softsf.sudokufx.interfaces.mapper.</text>
<text text-anchor="middle" x="943.88" y="-206.5" font-family="Helvetica,sans-Serif" font-size="10.00">ISoftwareMapper.mapSoftwareDtoToSoftware</text>
</a>
</g>
</g>
<!-- Node12&#45;&gt;Node13 -->
<g id="edge15_Node000012_Node000013" class="edge">
<title>Node12&#45;&gt;Node13</title>
<g id="a_edge15_Node000012_Node000013"><a xlink:title=" ">
<path fill="none" stroke="#63b8ff" d="M787.5,-182.44C809.26,-187.14 833.14,-192.3 855.51,-197.13"/>
<polygon fill="#63b8ff" stroke="#63b8ff" points="854.71,-200.54 865.23,-199.23 856.19,-193.7 854.71,-200.54"/>
</a>
</g>
</g>
<!-- Node14 -->
<g id="Node000014" class="node">
<title>Node14</title>
<g id="a_Node000014"><a xlink:href="interfacefr_1_1softsf_1_1sudokufx_1_1interfaces_1_1mapper_1_1_i_software_mapper.html#addc8516cb5cc6171c663e132d5fdddd6" target="_top" xlink:title="Maps a Software object to a SoftwareDto object.">
<polygon fill="white" stroke="#666666" points="1032.5,-182 855.25,-182 855.25,-150 1032.5,-150 1032.5,-182"/>
<text text-anchor="start" x="863.25" y="-168.5" font-family="Helvetica,sans-Serif" font-size="10.00">fr.softsf.sudokufx.interfaces.mapper.</text>
<text text-anchor="middle" x="943.88" y="-156.5" font-family="Helvetica,sans-Serif" font-size="10.00">ISoftwareMapper.mapSoftwareToDto</text>
</a>
</g>
</g>
<!-- Node12&#45;&gt;Node14 -->
<g id="edge16_Node000012_Node000014" class="edge">
<title>Node12&#45;&gt;Node14</title>
<g id="a_edge16_Node000012_Node000014"><a xlink:title=" ">
<path fill="none" stroke="#63b8ff" d="M790.4,-166C807.56,-166 825.93,-166 843.76,-166"/>
<polygon fill="#63b8ff" stroke="#63b8ff" points="843.56,-169.5 853.56,-166 843.56,-162.5 843.56,-169.5"/>
</a>
</g>
</g>
<!-- Node16 -->
<g id="Node000016" class="node">
<title>Node16</title>
<g id="a_Node000016"><a xlink:href="interfacefr_1_1softsf_1_1sudokufx_1_1repository_1_1_software_repository.html#ae83142c4226c94b3b24f050848ae74c4" target="_top" xlink:title=" ">
<polygon fill="white" stroke="#666666" points="799.75,-32 621,-32 621,0 799.75,0 799.75,-32"/>
<text text-anchor="start" x="629" y="-18.5" font-family="Helvetica,sans-Serif" font-size="10.00">fr.softsf.sudokufx.repository.</text>
<text text-anchor="middle" x="710.38" y="-6.5" font-family="Helvetica,sans-Serif" font-size="10.00">SoftwareRepository.findFirstSoftware</text>
</a>
</g>
</g>
<!-- Node15&#45;&gt;Node16 -->
<g id="edge18_Node000015_Node000016" class="edge">
<title>Node15&#45;&gt;Node16</title>
<g id="a_edge18_Node000015_Node000016"><a xlink:title=" ">
<path fill="none" stroke="#63b8ff" d="M569.6,-32.57C582.4,-31.05 595.95,-29.45 609.39,-27.85"/>
<polygon fill="#63b8ff" stroke="#63b8ff" points="609.61,-31.35 619.13,-26.7 608.78,-24.4 609.61,-31.35"/>
</a>
</g>
</g>
<!-- Node17&#45;&gt;Node12 -->
<g id="edge23_Node000017_Node000012" class="edge">
<title>Node17&#45;&gt;Node12</title>
<g id="a_edge23_Node000017_Node000012"><a xlink:title=" ">
<path fill="none" stroke="#63b8ff" d="M567.84,-132.44C587.39,-137.08 608.82,-142.16 628.96,-146.93"/>
<polygon fill="#63b8ff" stroke="#63b8ff" points="627.98,-150.3 638.52,-149.2 629.6,-143.49 627.98,-150.3"/>
</a>
</g>
</g>
<!-- Node18 -->
<g id="Node000018" class="node">
<title>Node18</title>
<g id="a_Node000018"><a xlink:href="interfacefr_1_1softsf_1_1sudokufx_1_1interfaces_1_1_i_grid_master.html#a7ae916d7f64607637b7bf5bf33fd0eb3" target="_top" xlink:title="Crée les grilles de Sudoku (résolue et à résoudre) en fonction du niveau de difficulté.">
<polygon fill="white" stroke="#666666" points="781,-82 639.75,-82 639.75,-50 781,-50 781,-82"/>
<text text-anchor="start" x="647.75" y="-68.5" font-family="Helvetica,sans-Serif" font-size="10.00">fr.softsf.sudokufx.interfaces.</text>
<text text-anchor="middle" x="710.38" y="-56.5" font-family="Helvetica,sans-Serif" font-size="10.00">IGridMaster.creerLesGrilles</text>
</a>
</g>
</g>
<!-- Node17&#45;&gt;Node18 -->
<g id="edge20_Node000017_Node000018" class="edge">
<title>Node17&#45;&gt;Node18</title>
<g id="a_edge20_Node000017_Node000018"><a xlink:title=" ">
<path fill="none" stroke="#63b8ff" d="M567.84,-99.56C587.39,-94.92 608.82,-89.84 628.96,-85.07"/>
<polygon fill="#63b8ff" stroke="#63b8ff" points="629.6,-88.51 638.52,-82.8 627.98,-81.7 629.6,-88.51"/>
</a>
</g>
</g>
<!-- Node19 -->
<g id="Node000019" class="node">
<title>Node19</title>
<g id="a_Node000019"><a xlink:href="classfr_1_1softsf_1_1sudokufx_1_1viewmodel_1_1_full_menu_view_model.html#a99e8ff186f421e303199bb273f082c40" target="_top" xlink:title=" ">
<polygon fill="white" stroke="#666666" points="790.75,-132 630,-132 630,-100 790.75,-100 790.75,-132"/>
<text text-anchor="start" x="638" y="-118.5" font-family="Helvetica,sans-Serif" font-size="10.00">fr.softsf.sudokufx.viewmodel.</text>
<text text-anchor="middle" x="710.38" y="-106.5" font-family="Helvetica,sans-Serif" font-size="10.00">FullMenuViewModel.setWelcome</text>
</a>
</g>
</g>
<!-- Node17&#45;&gt;Node19 -->
<g id="edge21_Node000017_Node000019" class="edge">
<title>Node17&#45;&gt;Node19</title>
<g id="a_edge21_Node000017_Node000019"><a xlink:title=" ">
<path fill="none" stroke="#63b8ff" d="M585.49,-116C596.35,-116 607.48,-116 618.4,-116"/>
<polygon fill="#63b8ff" stroke="#63b8ff" points="618.17,-119.5 628.17,-116 618.17,-112.5 618.17,-119.5"/>
</a>
</g>
</g>
<!-- Node20 -->
<g id="Node000020" class="node">
<title>Node20</title>
<g id="a_Node000020"><a xlink:href="classfr_1_1softsf_1_1sudokufx_1_1viewmodel_1_1_full_menu_view_model.html#a574eda9c01df428c38524cc5acf49fbf" target="_top" xlink:title=" ">
<polygon fill="white" stroke="#666666" points="1035.12,-132 852.62,-132 852.62,-100 1035.12,-100 1035.12,-132"/>
<text text-anchor="start" x="860.62" y="-118.5" font-family="Helvetica,sans-Serif" font-size="10.00">fr.softsf.sudokufx.viewmodel.</text>
<text text-anchor="middle" x="943.88" y="-106.5" font-family="Helvetica,sans-Serif" font-size="10.00">FullMenuViewModel.welcomeProperty</text>
</a>
</g>
</g>
<!-- Node19&#45;&gt;Node20 -->
<g id="edge22_Node000019_Node000020" class="edge">
<title>Node19&#45;&gt;Node20</title>
<g id="a_edge22_Node000019_Node000020"><a xlink:title=" ">
<path fill="none" stroke="#63b8ff" d="M791.04,-116C807.09,-116 824.16,-116 840.85,-116"/>
<polygon fill="#63b8ff" stroke="#63b8ff" points="840.81,-119.5 850.81,-116 840.81,-112.5 840.81,-119.5"/>
</a>
</g>
</g>
</g>
</svg>
