<?xml version="1.0" encoding="UTF-8" standalone="no"?>
<!DOCTYPE svg PUBLIC "-//W3C//DTD SVG 1.1//EN"
 "http://www.w3.org/Graphics/SVG/1.1/DTD/svg11.dtd">
<!-- Generated by graphviz version 12.2.0 (20241103.1931)
 -->
<!-- Title: fr.softsf.sudofx2024.viewmodel.FullMenuViewModel.updateSoftware Pages: 1 -->
<svg width="634pt" height="202pt"
 viewBox="0.00 0.00 633.50 202.00" xmlns="http://www.w3.org/2000/svg" xmlns:xlink="http://www.w3.org/1999/xlink">
<g id="graph0" class="graph" transform="scale(1 1) rotate(0) translate(4 198)">
<title>fr.softsf.sudofx2024.viewmodel.FullMenuViewModel.updateSoftware</title>
<!-- Node1 -->
<g id="Node000001" class="node">
<title>Node1</title>
<g id="a_Node000001"><a xlink:title=" ">
<polygon fill="#999999" stroke="#666666" points="175,-132 0,-132 0,-100 175,-100 175,-132"/>
<text text-anchor="start" x="8" y="-118.5" font-family="Helvetica,sans-Serif" font-size="10.00">fr.softsf.sudofx2024.viewmodel.</text>
<text text-anchor="middle" x="87.5" y="-106.5" font-family="Helvetica,sans-Serif" font-size="10.00">FullMenuViewModel.updateSoftware</text>
</a>
</g>
</g>
<!-- Node2 -->
<g id="Node000002" class="node">
<title>Node2</title>
<g id="a_Node000002"><a xlink:href="classfr_1_1softsf_1_1sudofx2024_1_1utils_1_1_j_v_m_application_properties.html#a78302d86084a4cb9a23a91cbcf1326ab" target="_top" xlink:title="Retrieves the current application version from system properties.">
<polygon fill="white" stroke="#666666" points="373.25,-194 211,-194 211,-150 373.25,-150 373.25,-194"/>
<text text-anchor="start" x="219" y="-180.5" font-family="Helvetica,sans-Serif" font-size="10.00">fr.softsf.sudofx2024.utils.</text>
<text text-anchor="start" x="219" y="-168.5" font-family="Helvetica,sans-Serif" font-size="10.00">JVMApplicationProperties.getApp</text>
<text text-anchor="middle" x="292.12" y="-156.5" font-family="Helvetica,sans-Serif" font-size="10.00">Version</text>
</a>
</g>
</g>
<!-- Node1&#45;&gt;Node2 -->
<g id="edge1_Node000001_Node000002" class="edge">
<title>Node1&#45;&gt;Node2</title>
<g id="a_edge1_Node000001_Node000002"><a xlink:title=" ">
<path fill="none" stroke="#63b8ff" d="M148.2,-132.5C164.44,-136.99 182.41,-141.95 199.96,-146.81"/>
<polygon fill="#63b8ff" stroke="#63b8ff" points="198.79,-150.11 209.37,-149.4 200.66,-143.37 198.79,-150.11"/>
</a>
</g>
</g>
<!-- Node4 -->
<g id="Node000004" class="node">
<title>Node4</title>
<g id="a_Node000004"><a xlink:href="classfr_1_1softsf_1_1sudofx2024_1_1viewmodel_1_1_full_menu_view_model.html#a1ce9288e40a6a88ea6279e97d957f946" target="_top" xlink:title=" ">
<polygon fill="white" stroke="#666666" points="372.5,-132 211.75,-132 211.75,-100 372.5,-100 372.5,-132"/>
<text text-anchor="start" x="219.75" y="-118.5" font-family="Helvetica,sans-Serif" font-size="10.00">fr.softsf.sudofx2024.viewmodel.</text>
<text text-anchor="middle" x="292.12" y="-106.5" font-family="Helvetica,sans-Serif" font-size="10.00">FullMenuViewModel.setWelcome</text>
</a>
</g>
</g>
<!-- Node1&#45;&gt;Node4 -->
<g id="edge3_Node000001_Node000004" class="edge">
<title>Node1&#45;&gt;Node4</title>
<g id="a_edge3_Node000001_Node000004"><a xlink:title=" ">
<path fill="none" stroke="#63b8ff" d="M175.31,-116C183.58,-116 191.99,-116 200.29,-116"/>
<polygon fill="#63b8ff" stroke="#63b8ff" points="200.03,-119.5 210.03,-116 200.03,-112.5 200.03,-119.5"/>
</a>
</g>
</g>
<!-- Node6 -->
<g id="Node000006" class="node">
<title>Node6</title>
<g id="a_Node000006"><a xlink:href="classfr_1_1softsf_1_1sudofx2024_1_1service_1_1_software_service.html#af3b46a9cd51e0734ee7e641f53fde8f0" target="_top" xlink:title=" ">
<polygon fill="white" stroke="#666666" points="371.75,-82 212.5,-82 212.5,-50 371.75,-50 371.75,-82"/>
<text text-anchor="start" x="220.5" y="-68.5" font-family="Helvetica,sans-Serif" font-size="10.00">fr.softsf.sudofx2024.service.</text>
<text text-anchor="middle" x="292.12" y="-56.5" font-family="Helvetica,sans-Serif" font-size="10.00">SoftwareService.updateSoftware</text>
</a>
</g>
</g>
<!-- Node1&#45;&gt;Node6 -->
<g id="edge5_Node000001_Node000006" class="edge">
<title>Node1&#45;&gt;Node6</title>
<g id="a_edge5_Node000001_Node000006"><a xlink:title=" ">
<path fill="none" stroke="#63b8ff" d="M155.13,-99.56C173.74,-94.97 194.12,-89.94 213.32,-85.2"/>
<polygon fill="#63b8ff" stroke="#63b8ff" points="214.12,-88.61 222.99,-82.81 212.44,-81.81 214.12,-88.61"/>
</a>
</g>
</g>
<!-- Node3 -->
<g id="Node000003" class="node">
<title>Node3</title>
<g id="a_Node000003"><a xlink:href="classfr_1_1softsf_1_1sudofx2024_1_1utils_1_1_my_regex.html#af88c87dd9f51b56c5c60ccab7f9f2bd2" target="_top" xlink:title="Validates a given text against a specified regular expression.">
<polygon fill="white" stroke="#666666" points="591.75,-188 443,-188 443,-156 591.75,-156 591.75,-188"/>
<text text-anchor="start" x="451" y="-174.5" font-family="Helvetica,sans-Serif" font-size="10.00">fr.softsf.sudofx2024.utils.</text>
<text text-anchor="middle" x="517.38" y="-162.5" font-family="Helvetica,sans-Serif" font-size="10.00">MyRegex.isValidatedByRegex</text>
</a>
</g>
</g>
<!-- Node2&#45;&gt;Node3 -->
<g id="edge2_Node000002_Node000003" class="edge">
<title>Node2&#45;&gt;Node3</title>
<g id="a_edge2_Node000002_Node000003"><a xlink:title=" ">
<path fill="none" stroke="#63b8ff" d="M373.72,-172C392.43,-172 412.4,-172 431.29,-172"/>
<polygon fill="#63b8ff" stroke="#63b8ff" points="431.06,-175.5 441.06,-172 431.06,-168.5 431.06,-175.5"/>
</a>
</g>
</g>
<!-- Node5 -->
<g id="Node000005" class="node">
<title>Node5</title>
<g id="a_Node000005"><a xlink:href="classfr_1_1softsf_1_1sudofx2024_1_1viewmodel_1_1_full_menu_view_model.html#a8f226b20513fb5bfe03219578df9b9e5" target="_top" xlink:title=" ">
<polygon fill="white" stroke="#666666" points="608.62,-132 426.12,-132 426.12,-100 608.62,-100 608.62,-132"/>
<text text-anchor="start" x="434.12" y="-118.5" font-family="Helvetica,sans-Serif" font-size="10.00">fr.softsf.sudofx2024.viewmodel.</text>
<text text-anchor="middle" x="517.38" y="-106.5" font-family="Helvetica,sans-Serif" font-size="10.00">FullMenuViewModel.welcomeProperty</text>
</a>
</g>
</g>
<!-- Node4&#45;&gt;Node5 -->
<g id="edge4_Node000004_Node000005" class="edge">
<title>Node4&#45;&gt;Node5</title>
<g id="a_edge4_Node000004_Node000005"><a xlink:title=" ">
<path fill="none" stroke="#63b8ff" d="M372.78,-116C386.31,-116 400.54,-116 414.55,-116"/>
<polygon fill="#63b8ff" stroke="#63b8ff" points="414.21,-119.5 424.21,-116 414.21,-112.5 414.21,-119.5"/>
</a>
</g>
</g>
<!-- Node7 -->
<g id="Node000007" class="node">
<title>Node7</title>
<g id="a_Node000007"><a xlink:href="interfacefr_1_1softsf_1_1sudofx2024_1_1interfaces_1_1mapper_1_1_i_software_mapper.html#af76875c08786b3d236c6fc8b74fe5c88" target="_top" xlink:title="Maps a SoftwareDto object to a Software object.">
<polygon fill="white" stroke="#666666" points="625.5,-82 409.25,-82 409.25,-50 625.5,-50 625.5,-82"/>
<text text-anchor="start" x="417.25" y="-68.5" font-family="Helvetica,sans-Serif" font-size="10.00">fr.softsf.sudofx2024.interfaces.mapper.</text>
<text text-anchor="middle" x="517.38" y="-56.5" font-family="Helvetica,sans-Serif" font-size="10.00">ISoftwareMapper.mapSoftwareDtoToSoftware</text>
</a>
</g>
</g>
<!-- Node6&#45;&gt;Node7 -->
<g id="edge6_Node000006_Node000007" class="edge">
<title>Node6&#45;&gt;Node7</title>
<g id="a_edge6_Node000006_Node000007"><a xlink:title=" ">
<path fill="none" stroke="#63b8ff" d="M372.15,-66C380.43,-66 388.98,-66 397.59,-66"/>
<polygon fill="#63b8ff" stroke="#63b8ff" points="397.4,-69.5 407.4,-66 397.4,-62.5 397.4,-69.5"/>
</a>
</g>
</g>
<!-- Node8 -->
<g id="Node000008" class="node">
<title>Node8</title>
<g id="a_Node000008"><a xlink:href="interfacefr_1_1softsf_1_1sudofx2024_1_1interfaces_1_1mapper_1_1_i_software_mapper.html#a686b0da91e5e205e6d2410c711cc64aa" target="_top" xlink:title="Maps a Software object to a SoftwareDto object.">
<polygon fill="white" stroke="#666666" points="610.88,-32 423.88,-32 423.88,0 610.88,0 610.88,-32"/>
<text text-anchor="start" x="431.88" y="-18.5" font-family="Helvetica,sans-Serif" font-size="10.00">fr.softsf.sudofx2024.interfaces.mapper.</text>
<text text-anchor="middle" x="517.38" y="-6.5" font-family="Helvetica,sans-Serif" font-size="10.00">ISoftwareMapper.mapSoftwareToDto</text>
</a>
</g>
</g>
<!-- Node6&#45;&gt;Node8 -->
<g id="edge7_Node000006_Node000008" class="edge">
<title>Node6&#45;&gt;Node8</title>
<g id="a_edge7_Node000006_Node000008"><a xlink:title=" ">
<path fill="none" stroke="#63b8ff" d="M366.53,-49.56C387.42,-44.88 410.34,-39.75 431.83,-34.93"/>
<polygon fill="#63b8ff" stroke="#63b8ff" points="432.45,-38.38 441.44,-32.78 430.92,-31.55 432.45,-38.38"/>
</a>
</g>
</g>
</g>
</svg>
