<?xml version="1.0" encoding="UTF-8" standalone="no"?>
<!DOCTYPE svg PUBLIC "-//W3C//DTD SVG 1.1//EN"
 "http://www.w3.org/Graphics/SVG/1.1/DTD/svg11.dtd">
<!-- Generated by graphviz version 12.2.1 (20241206.2353)
 -->
<!-- Title: fr.softsf.sudokufx.model.Player Pages: 1 -->
<svg width="419pt" height="340pt"
 viewBox="0.00 0.00 418.75 340.00" xmlns="http://www.w3.org/2000/svg" xmlns:xlink="http://www.w3.org/1999/xlink">
<g id="graph0" class="graph" transform="scale(1 1) rotate(0) translate(4 336)">
<title>fr.softsf.sudokufx.model.Player</title>
<!-- Node1 -->
<g id="Node000001" class="node">
<title>Node1</title>
<g id="a_Node000001"><a xlink:title=" ">
<polygon fill="#999999" stroke="none" points="263.5,-172 123.25,-172 123.25,0 263.5,0 263.5,-172"/>
<text text-anchor="start" x="139" y="-158.5" font-family="Helvetica,sans-Serif" font-size="10.00">fr.softsf.sudokufx.model.</text>
<text text-anchor="start" x="179.5" y="-146.5" font-family="Helvetica,sans-Serif" font-size="10.00">Player</text>
<text text-anchor="start" x="128.75" y="-130.5" font-family="Helvetica,sans-Serif" font-size="10.00">&#45;</text>
<text text-anchor="start" x="137.25" y="-130.5" font-family="Helvetica,sans-Serif" font-size="10.00">LocalDateTime createdat</text>
<text text-anchor="start" x="128.75" y="-114.5" font-family="Helvetica,sans-Serif" font-size="10.00">&#45;</text>
<text text-anchor="start" x="137.25" y="-114.5" font-family="Helvetica,sans-Serif" font-size="10.00">Set&lt; Game &gt; games</text>
<text text-anchor="start" x="128.75" y="-98.5" font-family="Helvetica,sans-Serif" font-size="10.00">&#45;</text>
<text text-anchor="start" x="137.25" y="-98.5" font-family="Helvetica,sans-Serif" font-size="10.00">boolean isselected</text>
<text text-anchor="start" x="128.75" y="-82.5" font-family="Helvetica,sans-Serif" font-size="10.00">&#45;</text>
<text text-anchor="start" x="137.25" y="-82.5" font-family="Helvetica,sans-Serif" font-size="10.00">String name</text>
<text text-anchor="start" x="128.75" y="-66.5" font-family="Helvetica,sans-Serif" font-size="10.00">&#45;</text>
<text text-anchor="start" x="137.25" y="-66.5" font-family="Helvetica,sans-Serif" font-size="10.00">Long playerid</text>
<text text-anchor="start" x="128.75" y="-50.5" font-family="Helvetica,sans-Serif" font-size="10.00">&#45;</text>
<text text-anchor="start" x="137.25" y="-50.5" font-family="Helvetica,sans-Serif" font-size="10.00">LocalDateTime updatedat</text>
<text text-anchor="start" x="127.25" y="-34.5" font-family="Helvetica,sans-Serif" font-size="10.00">+</text>
<text text-anchor="start" x="137.25" y="-34.5" font-family="Helvetica,sans-Serif" font-size="10.00">void addGame(Game game)</text>
<text text-anchor="start" x="127.25" y="-18.5" font-family="Helvetica,sans-Serif" font-size="10.00">+</text>
<text text-anchor="start" x="137.25" y="-18.5" font-family="Helvetica,sans-Serif" font-size="10.00">void removeGame(Game</text>
<text text-anchor="start" x="137.25" y="-6.5" font-family="Helvetica,sans-Serif" font-size="10.00"> game)</text>
<polygon fill="#666666" stroke="#666666" points="123.25,-142 123.25,-142 263.5,-142 263.5,-142 123.25,-142"/>
<polygon fill="#666666" stroke="#666666" points="123.25,-46 123.25,-46 135.25,-46 135.25,-46 123.25,-46"/>
<polygon fill="#666666" stroke="#666666" points="135.25,-46 135.25,-46 263.5,-46 263.5,-46 135.25,-46"/>
<polygon fill="none" stroke="#666666" points="123.25,0 123.25,-172 263.5,-172 263.5,0 123.25,0"/>
</a>
</g>
</g>
<!-- Node2 -->
<g id="Node000002" class="node">
<title>Node2</title>
<g id="a_Node000002"><a xlink:href="classfr_1_1softsf_1_1sudokufx_1_1model_1_1_player_language.html" target="_top" xlink:title=" ">
<polygon fill="white" stroke="none" points="116.75,-316 0,-316 0,-236 116.75,-236 116.75,-316"/>
<text text-anchor="start" x="4" y="-302.5" font-family="Helvetica,sans-Serif" font-size="10.00">fr.softsf.sudokufx.model.</text>
<text text-anchor="start" x="23.5" y="-290.5" font-family="Helvetica,sans-Serif" font-size="10.00">PlayerLanguage</text>
<text text-anchor="start" x="5.25" y="-274.5" font-family="Helvetica,sans-Serif" font-size="10.00">&#45;</text>
<text text-anchor="start" x="13.5" y="-274.5" font-family="Helvetica,sans-Serif" font-size="10.00">String iso</text>
<text text-anchor="start" x="5.25" y="-258.5" font-family="Helvetica,sans-Serif" font-size="10.00">&#45;</text>
<text text-anchor="start" x="13.5" y="-258.5" font-family="Helvetica,sans-Serif" font-size="10.00">Long playerlanguageid</text>
<text text-anchor="start" x="56.88" y="-242.5" font-family="Helvetica,sans-Serif" font-size="10.00"> </text>
<polygon fill="#666666" stroke="#666666" points="0,-286 0,-286 116.75,-286 116.75,-286 0,-286"/>
<polygon fill="#666666" stroke="#666666" points="0,-254 0,-254 11.5,-254 11.5,-254 0,-254"/>
<polygon fill="#666666" stroke="#666666" points="11.5,-254 11.5,-254 116.75,-254 116.75,-254 11.5,-254"/>
<polygon fill="none" stroke="#666666" points="0,-236 0,-316 116.75,-316 116.75,-236 0,-236"/>
</a>
</g>
</g>
<!-- Node2&#45;&gt;Node1 -->
<g id="edge1_Node000001_Node000002" class="edge">
<title>Node2&#45;&gt;Node1</title>
<g id="a_edge1_Node000001_Node000002"><a xlink:title=" ">
<path fill="none" stroke="#63b8ff" d="M80.78,-236.26C89.68,-221.51 100.25,-204.72 110.62,-190 112.48,-187.38 114.37,-184.73 116.3,-182.07"/>
<polygon fill="none" stroke="#63b8ff" points="116.23,-182.17 116.58,-174.97 123.36,-172.52 123.01,-179.72 116.23,-182.17"/>
</a>
</g>
<text text-anchor="middle" x="150" y="-192.5" font-family="Helvetica,sans-Serif" font-size="10.00" fill="grey"> &#45;playerlanguageid</text>
</g>
<!-- Node3 -->
<g id="Node000003" class="node">
<title>Node3</title>
<g id="a_Node000003"><a xlink:href="classfr_1_1softsf_1_1sudokufx_1_1model_1_1_background.html" target="_top" xlink:title=" ">
<polygon fill="white" stroke="none" points="251.75,-332 135,-332 135,-220 251.75,-220 251.75,-332"/>
<text text-anchor="start" x="139" y="-318.5" font-family="Helvetica,sans-Serif" font-size="10.00">fr.softsf.sudokufx.model.</text>
<text text-anchor="start" x="167.5" y="-306.5" font-family="Helvetica,sans-Serif" font-size="10.00">Background</text>
<text text-anchor="start" x="144" y="-290.5" font-family="Helvetica,sans-Serif" font-size="10.00">&#45;</text>
<text text-anchor="start" x="156" y="-290.5" font-family="Helvetica,sans-Serif" font-size="10.00">Long backgroundid</text>
<text text-anchor="start" x="144" y="-274.5" font-family="Helvetica,sans-Serif" font-size="10.00">&#45;</text>
<text text-anchor="start" x="156" y="-274.5" font-family="Helvetica,sans-Serif" font-size="10.00">String hexcolor</text>
<text text-anchor="start" x="144" y="-258.5" font-family="Helvetica,sans-Serif" font-size="10.00">&#45;</text>
<text text-anchor="start" x="156" y="-258.5" font-family="Helvetica,sans-Serif" font-size="10.00">String imagepath</text>
<text text-anchor="start" x="144" y="-242.5" font-family="Helvetica,sans-Serif" font-size="10.00">&#45;</text>
<text text-anchor="start" x="156" y="-242.5" font-family="Helvetica,sans-Serif" font-size="10.00">boolean isimage</text>
<text text-anchor="start" x="191.88" y="-226.5" font-family="Helvetica,sans-Serif" font-size="10.00"> </text>
<polygon fill="#666666" stroke="#666666" points="135,-302 135,-302 251.75,-302 251.75,-302 135,-302"/>
<polygon fill="#666666" stroke="#666666" points="135,-238 135,-238 154,-238 154,-238 135,-238"/>
<polygon fill="#666666" stroke="#666666" points="154,-238 154,-238 251.75,-238 251.75,-238 154,-238"/>
<polygon fill="none" stroke="#666666" points="135,-220 135,-332 251.75,-332 251.75,-220 135,-220"/>
</a>
</g>
</g>
<!-- Node3&#45;&gt;Node1 -->
<g id="edge2_Node000001_Node000003" class="edge">
<title>Node3&#45;&gt;Node1</title>
<g id="a_edge2_Node000001_Node000003"><a xlink:title=" ">
<path fill="none" stroke="#63b8ff" d="M193.38,-220.12C193.38,-208.86 193.38,-196.68 193.38,-184.43"/>
<polygon fill="none" stroke="#63b8ff" points="193.38,-184.57 189.38,-178.57 193.38,-172.57 197.38,-178.57 193.38,-184.57"/>
</a>
</g>
<text text-anchor="middle" x="225.25" y="-192.5" font-family="Helvetica,sans-Serif" font-size="10.00" fill="grey"> &#45;backgroundid</text>
</g>
<!-- Node4 -->
<g id="Node000004" class="node">
<title>Node4</title>
<g id="a_Node000004"><a xlink:href="classfr_1_1softsf_1_1sudokufx_1_1model_1_1_menu.html" target="_top" xlink:title=" ">
<polygon fill="white" stroke="none" points="410.75,-310 270,-310 270,-242 410.75,-242 410.75,-310"/>
<text text-anchor="start" x="274" y="-296.5" font-family="Helvetica,sans-Serif" font-size="10.00">fr.softsf.sudokufx.model.Menu</text>
<text text-anchor="start" x="291.75" y="-280.5" font-family="Helvetica,sans-Serif" font-size="10.00">&#45;</text>
<text text-anchor="start" x="316.5" y="-280.5" font-family="Helvetica,sans-Serif" font-size="10.00">Byte menuid</text>
<text text-anchor="start" x="291.75" y="-264.5" font-family="Helvetica,sans-Serif" font-size="10.00">&#45;</text>
<text text-anchor="start" x="316.5" y="-264.5" font-family="Helvetica,sans-Serif" font-size="10.00">Byte mode</text>
<text text-anchor="start" x="338.88" y="-248.5" font-family="Helvetica,sans-Serif" font-size="10.00"> </text>
<polygon fill="#666666" stroke="#666666" points="270,-292 270,-292 410.75,-292 410.75,-292 270,-292"/>
<polygon fill="#666666" stroke="#666666" points="270,-260 270,-260 314.5,-260 314.5,-260 270,-260"/>
<polygon fill="#666666" stroke="#666666" points="314.5,-260 314.5,-260 410.75,-260 410.75,-260 314.5,-260"/>
<polygon fill="none" stroke="#666666" points="270,-242 270,-310 410.75,-310 410.75,-242 270,-242"/>
</a>
</g>
</g>
<!-- Node4&#45;&gt;Node1 -->
<g id="edge3_Node000001_Node000004" class="edge">
<title>Node4&#45;&gt;Node1</title>
<g id="a_edge3_Node000001_Node000004"><a xlink:title=" ">
<path fill="none" stroke="#63b8ff" d="M314.77,-242.25C301.56,-225.36 284.7,-203.79 267.77,-182.15"/>
<polygon fill="none" stroke="#63b8ff" points="267.69,-182.04 260.84,-179.77 260.29,-172.58 267.14,-174.85 267.69,-182.04"/>
</a>
</g>
<text text-anchor="middle" x="298.79" y="-192.5" font-family="Helvetica,sans-Serif" font-size="10.00" fill="grey"> &#45;menuid</text>
</g>
</g>
</svg>
