<?xml version="1.0" encoding="UTF-8" standalone="no"?>
<!DOCTYPE svg PUBLIC "-//W3C//DTD SVG 1.1//EN"
 "http://www.w3.org/Graphics/SVG/1.1/DTD/svg11.dtd">
<!-- Generated by graphviz version 12.2.0 (20241103.1931)
 -->
<!-- Title: fr.softsf.sudokufx.utils.database.keystore.SecretKeyEncryptionServiceAESGCM Pages: 1 -->
<svg width="430pt" height="292pt"
 viewBox="0.00 0.00 429.62 292.00" xmlns="http://www.w3.org/2000/svg" xmlns:xlink="http://www.w3.org/1999/xlink">

<svg id="main" version="1.1" xmlns="http://www.w3.org/2000/svg" xmlns:xlink="http://www.w3.org/1999/xlink" xml:space="preserve">

<style type="text/css"><![CDATA[
.node, .edge {opacity: 0.7;}
.node.selected, .edge.selected {opacity: 1;}
.edge:hover path { stroke: red; }
.edge:hover polygon { stroke: red; fill: red; }
]]></style>
<script type="application/ecmascript" xlink:href="svg.min.js"/>
<svg id="graph" class="graph">
<g id="graph0" class="graph" transform="scale(1 1) rotate(0) translate(4 288)">
<title>fr.softsf.sudokufx.utils.database.keystore.SecretKeyEncryptionServiceAESGCM</title>
<!-- Node1 -->
<g id="Node000001" class="node">
<title>Node1</title>
<g id="a_Node000001"><a xlink:title="Implementation of the ApplicationKeystore.IEncryptionService interface using AES&#45;GCM (Galois/Counter ...">
<polygon fill="#999999" stroke="none" points="368.75,-132 177,-132 177,0 368.75,0 368.75,-132"/>
<text text-anchor="start" x="181" y="-118.5" font-family="Helvetica,sans-Serif" font-size="10.00">fr.softsf.sudokufx.utils.database.keystore.</text>
<text text-anchor="start" x="188.5" y="-106.5" font-family="Helvetica,sans-Serif" font-size="10.00">SecretKeyEncryptionServiceAESGCM</text>
<text text-anchor="start" x="271.38" y="-90.5" font-family="Helvetica,sans-Serif" font-size="10.00"> </text>
<text text-anchor="start" x="181.88" y="-74.5" font-family="Helvetica,sans-Serif" font-size="10.00">+</text>
<text text-anchor="start" x="192.75" y="-74.5" font-family="Helvetica,sans-Serif" font-size="10.00">SecretKeyEncryptionService</text>
<text text-anchor="start" x="192.75" y="-62.5" font-family="Helvetica,sans-Serif" font-size="10.00">AESGCM(final SecretKey secretKeyP)</text>
<text text-anchor="start" x="181.88" y="-46.5" font-family="Helvetica,sans-Serif" font-size="10.00">+</text>
<text text-anchor="start" x="192.75" y="-46.5" font-family="Helvetica,sans-Serif" font-size="10.00">String decrypt(@NotBlank</text>
<text text-anchor="start" x="192.75" y="-34.5" font-family="Helvetica,sans-Serif" font-size="10.00"> final String cypher)</text>
<text text-anchor="start" x="181.88" y="-18.5" font-family="Helvetica,sans-Serif" font-size="10.00">+</text>
<text text-anchor="start" x="192.75" y="-18.5" font-family="Helvetica,sans-Serif" font-size="10.00">String encrypt(@NotBlank</text>
<text text-anchor="start" x="192.75" y="-6.5" font-family="Helvetica,sans-Serif" font-size="10.00"> final String original)</text>
<polygon fill="#666666" stroke="#666666" points="177,-102 177,-102 368.75,-102 368.75,-102 177,-102"/>
<polygon fill="#666666" stroke="#666666" points="177,-86 177,-86 368.75,-86 368.75,-86 177,-86"/>
<polygon fill="none" stroke="#666666" points="177,0 177,-132 368.75,-132 368.75,0 177,0"/>
</a>
</g>
</g>
<!-- Node2 -->
<g id="Node000002" class="node">
<title>Node2</title>
<g id="a_Node000002"><a xlink:href="interfacefr_1_1softsf_1_1sudokufx_1_1utils_1_1database_1_1keystore_1_1_application_keystore_1_1_i_encryption_service.html" target="_top" xlink:title=" ">
<polygon fill="white" stroke="none" points="191.75,-284 0,-284 0,-180 191.75,-180 191.75,-284"/>
<text text-anchor="start" x="4" y="-270.5" font-family="Helvetica,sans-Serif" font-size="10.00">fr.softsf.sudokufx.utils.database.keystore.</text>
<text text-anchor="start" x="9.62" y="-258.5" font-family="Helvetica,sans-Serif" font-size="10.00">ApplicationKeystore.IEncryptionService</text>
<text text-anchor="start" x="94.38" y="-242.5" font-family="Helvetica,sans-Serif" font-size="10.00"> </text>
<text text-anchor="start" x="25.12" y="-226.5" font-family="Helvetica,sans-Serif" font-size="10.00">+</text>
<text text-anchor="start" x="56.25" y="-226.5" font-family="Helvetica,sans-Serif" font-size="10.00">String decrypt(String</text>
<text text-anchor="start" x="56.25" y="-214.5" font-family="Helvetica,sans-Serif" font-size="10.00"> cypher)</text>
<text text-anchor="start" x="25.12" y="-198.5" font-family="Helvetica,sans-Serif" font-size="10.00">+</text>
<text text-anchor="start" x="56.25" y="-198.5" font-family="Helvetica,sans-Serif" font-size="10.00">String encrypt(String</text>
<text text-anchor="start" x="56.25" y="-186.5" font-family="Helvetica,sans-Serif" font-size="10.00"> original)</text>
<polygon fill="#666666" stroke="#666666" points="0,-254 0,-254 191.75,-254 191.75,-254 0,-254"/>
<polygon fill="#666666" stroke="#666666" points="0,-238 0,-238 191.75,-238 191.75,-238 0,-238"/>
<polygon fill="none" stroke="#666666" points="0,-180 0,-284 191.75,-284 191.75,-180 0,-180"/>
</a>
</g>
</g>
<!-- Node2&#45;&gt;Node1 -->
<g id="edge1_Node000001_Node000002" class="edge">
<title>Node2&#45;&gt;Node1</title>
<g id="a_edge1_Node000001_Node000002"><a xlink:title=" ">
<path fill="none" stroke="#63b8ff" d="M159.13,-172.39C173.31,-159.25 188.43,-145.24 202.86,-131.87"/>
<polygon fill="none" stroke="#63b8ff" points="156.98,-169.62 152.02,-178.98 161.73,-174.75 156.98,-169.62"/>
</a>
</g>
</g>
<!-- Node3 -->
<g id="Node000003" class="node">
<title>Node3</title>
<g id="a_Node000003"><a xlink:title=" ">
<polygon fill="white" stroke="none" points="263.75,-258 210,-258 210,-206 263.75,-206 263.75,-258"/>
<text text-anchor="start" x="214" y="-244.5" font-family="Helvetica,sans-Serif" font-size="10.00">SecretKey</text>
<text text-anchor="start" x="235.38" y="-228.5" font-family="Helvetica,sans-Serif" font-size="10.00"> </text>
<text text-anchor="start" x="235.38" y="-212.5" font-family="Helvetica,sans-Serif" font-size="10.00"> </text>
<polygon fill="#666666" stroke="#666666" points="210,-240 210,-240 263.75,-240 263.75,-240 210,-240"/>
<polygon fill="#666666" stroke="#666666" points="210,-224 210,-224 263.75,-224 263.75,-224 210,-224"/>
<polygon fill="none" stroke="#666666" points="210,-206 210,-258 263.75,-258 263.75,-206 210,-206"/>
</a>
</g>
</g>
<!-- Node3&#45;&gt;Node1 -->
<g id="edge2_Node000001_Node000003" class="edge">
<title>Node3&#45;&gt;Node1</title>
<g id="a_edge2_Node000001_Node000003"><a xlink:title=" ">
<path fill="none" stroke="#63b8ff" d="M234.62,-206.28C233.76,-190.09 233.75,-168.59 237.62,-150 238.01,-148.13 238.45,-146.25 238.92,-144.37"/>
<polygon fill="none" stroke="#63b8ff" points="238.93,-144.32 236.76,-137.44 242.26,-132.79 244.44,-139.66 238.93,-144.32"/>
</a>
</g>
<text text-anchor="middle" x="262.75" y="-152.5" font-family="Helvetica,sans-Serif" font-size="10.00" fill="grey"> &#45;secretKey</text>
</g>
<!-- Node4 -->
<g id="Node000004" class="node">
<title>Node4</title>
<g id="a_Node000004"><a xlink:title=" ">
<polygon fill="white" stroke="none" points="328.12,-258 291.62,-258 291.62,-206 328.12,-206 328.12,-258"/>
<text text-anchor="start" x="295.62" y="-244.5" font-family="Helvetica,sans-Serif" font-size="10.00">Cipher</text>
<text text-anchor="start" x="308.38" y="-228.5" font-family="Helvetica,sans-Serif" font-size="10.00"> </text>
<text text-anchor="start" x="308.38" y="-212.5" font-family="Helvetica,sans-Serif" font-size="10.00"> </text>
<polygon fill="#666666" stroke="#666666" points="291.62,-240 291.62,-240 328.12,-240 328.12,-240 291.62,-240"/>
<polygon fill="#666666" stroke="#666666" points="291.62,-224 291.62,-224 328.12,-224 328.12,-224 291.62,-224"/>
<polygon fill="none" stroke="#666666" points="291.62,-206 291.62,-258 328.12,-258 328.12,-206 291.62,-206"/>
</a>
</g>
</g>
<!-- Node4&#45;&gt;Node1 -->
<g id="edge3_Node000001_Node000004" class="edge">
<title>Node4&#45;&gt;Node1</title>
<g id="a_edge3_Node000001_Node000004"><a xlink:title=" ">
<path fill="none" stroke="#63b8ff" d="M304.26,-206.09C300.52,-189.54 295.39,-166.82 290.37,-144.54"/>
<polygon fill="none" stroke="#63b8ff" points="290.35,-144.47 285.13,-139.5 287.71,-132.76 292.93,-137.74 290.35,-144.47"/>
</a>
</g>
<text text-anchor="middle" x="309.72" y="-152.5" font-family="Helvetica,sans-Serif" font-size="10.00" fill="grey"> &#45;cipher</text>
</g>
<!-- Node5 -->
<g id="Node000005" class="node">
<title>Node5</title>
<g id="a_Node000005"><a xlink:title=" ">
<polygon fill="white" stroke="none" points="421.62,-258 346.12,-258 346.12,-206 421.62,-206 421.62,-258"/>
<text text-anchor="start" x="350.12" y="-244.5" font-family="Helvetica,sans-Serif" font-size="10.00">SecureRandom</text>
<text text-anchor="start" x="382.38" y="-228.5" font-family="Helvetica,sans-Serif" font-size="10.00"> </text>
<text text-anchor="start" x="382.38" y="-212.5" font-family="Helvetica,sans-Serif" font-size="10.00"> </text>
<polygon fill="#666666" stroke="#666666" points="346.12,-240 346.12,-240 421.62,-240 421.62,-240 346.12,-240"/>
<polygon fill="#666666" stroke="#666666" points="346.12,-224 346.12,-224 421.62,-224 421.62,-224 346.12,-224"/>
<polygon fill="none" stroke="#666666" points="346.12,-206 346.12,-258 421.62,-258 421.62,-206 346.12,-206"/>
</a>
</g>
</g>
<!-- Node5&#45;&gt;Node1 -->
<g id="edge4_Node000001_Node000005" class="edge">
<title>Node5&#45;&gt;Node1</title>
<g id="a_edge4_Node000001_Node000005"><a xlink:title=" ">
<path fill="none" stroke="#63b8ff" d="M367.42,-206.13C356.77,-190.07 342.57,-168.76 329.88,-150 328.18,-147.5 326.45,-144.95 324.71,-142.38"/>
<polygon fill="none" stroke="#63b8ff" points="324.72,-142.4 318.04,-139.69 317.97,-132.48 324.65,-135.19 324.72,-142.4"/>
</a>
</g>
<text text-anchor="middle" x="356.4" y="-152.5" font-family="Helvetica,sans-Serif" font-size="10.00" fill="grey"> &#45;random</text>
</g>
</g>
</svg>
</svg>

<style type='text/css'>
<![CDATA[
[data-mouse-over-selected='false'] { opacity: 0.7; }
[data-mouse-over-selected='true']  { opacity: 1.0; }
]]>
</style>
<script type="application/ecmascript"><![CDATA[
document.addEventListener('DOMContentLoaded', (event) => {
  highlightEdges();
  highlightAdjacentNodes();
});
]]></script>
</svg>
