<?xml version="1.0" encoding="UTF-8" standalone="no"?>
<!DOCTYPE svg PUBLIC "-//W3C//DTD SVG 1.1//EN"
 "http://www.w3.org/Graphics/SVG/1.1/DTD/svg11.dtd">
<!-- Generated by graphviz version 12.2.0 (20241103.1931)
 -->
<!-- Title: fr.softsf.sudofx2024.utils.database.keystore.ApplicationKeystore.setCredentials Pages: 1 -->
<svg width="724pt" height="140pt"
 viewBox="0.00 0.00 724.25 140.00" xmlns="http://www.w3.org/2000/svg" xmlns:xlink="http://www.w3.org/1999/xlink">
<g id="graph0" class="graph" transform="scale(1 1) rotate(0) translate(4 136)">
<title>fr.softsf.sudofx2024.utils.database.keystore.ApplicationKeystore.setCredentials</title>
<!-- Node1 -->
<g id="Node000001" class="node">
<title>Node1</title>
<g id="a_Node000001"><a xlink:title="Set credential by alias.">
<polygon fill="#999999" stroke="#666666" points="210.25,-82 0,-82 0,-50 210.25,-50 210.25,-82"/>
<text text-anchor="start" x="8" y="-68.5" font-family="Helvetica,sans-Serif" font-size="10.00">fr.softsf.sudofx2024.utils.database.keystore.</text>
<text text-anchor="middle" x="105.12" y="-56.5" font-family="Helvetica,sans-Serif" font-size="10.00">ApplicationKeystore.setCredentials</text>
</a>
</g>
</g>
<!-- Node2 -->
<g id="Node000002" class="node">
<title>Node2</title>
<g id="a_Node000002"><a xlink:href="classfr_1_1softsf_1_1sudofx2024_1_1utils_1_1database_1_1keystore_1_1_application_keystore.html#a66b4511230a0a8390a1d43d6b7efbe21" target="_top" xlink:title="Add alias:secret in the Keystore.">
<polygon fill="white" stroke="#666666" points="463.25,-132 253,-132 253,-100 463.25,-100 463.25,-132"/>
<text text-anchor="start" x="261" y="-118.5" font-family="Helvetica,sans-Serif" font-size="10.00">fr.softsf.sudofx2024.utils.database.keystore.</text>
<text text-anchor="middle" x="358.12" y="-106.5" font-family="Helvetica,sans-Serif" font-size="10.00">ApplicationKeystore.addToKeystore</text>
</a>
</g>
</g>
<!-- Node1&#45;&gt;Node2 -->
<g id="edge1_Node000001_Node000002" class="edge">
<title>Node1&#45;&gt;Node2</title>
<g id="a_edge1_Node000001_Node000002"><a xlink:title=" ">
<path fill="none" stroke="#63b8ff" d="M188.66,-82.44C212.57,-87.2 238.85,-92.44 263.4,-97.33"/>
<polygon fill="#63b8ff" stroke="#63b8ff" points="262.57,-100.73 273.06,-99.25 263.93,-93.87 262.57,-100.73"/>
</a>
</g>
</g>
<!-- Node4 -->
<g id="Node000004" class="node">
<title>Node4</title>
<g id="a_Node000004"><a xlink:href="interfacefr_1_1softsf_1_1sudofx2024_1_1utils_1_1database_1_1keystore_1_1_application_keystore_1_1_i_encryption_service.html#a3463474a525a55bcf09e6b69f25abdc7" target="_top" xlink:title="Encrypt original.">
<polygon fill="white" stroke="#666666" points="470,-82 246.25,-82 246.25,-50 470,-50 470,-82"/>
<text text-anchor="start" x="254.25" y="-68.5" font-family="Helvetica,sans-Serif" font-size="10.00">fr.softsf.sudofx2024.utils.database.keystore.</text>
<text text-anchor="middle" x="358.12" y="-56.5" font-family="Helvetica,sans-Serif" font-size="10.00">ApplicationKeystore.IEncryptionService.encrypt</text>
</a>
</g>
</g>
<!-- Node1&#45;&gt;Node4 -->
<g id="edge3_Node000001_Node000004" class="edge">
<title>Node1&#45;&gt;Node4</title>
<g id="a_edge3_Node000001_Node000004"><a xlink:title=" ">
<path fill="none" stroke="#63b8ff" d="M210.39,-66C218.36,-66 226.44,-66 234.5,-66"/>
<polygon fill="#63b8ff" stroke="#63b8ff" points="234.37,-69.5 244.37,-66 234.37,-62.5 234.37,-69.5"/>
</a>
</g>
</g>
<!-- Node5 -->
<g id="Node000005" class="node">
<title>Node5</title>
<g id="a_Node000005"><a xlink:href="classfr_1_1softsf_1_1sudofx2024_1_1utils_1_1database_1_1keystore_1_1_generate_secret.html#aff423fb11bf834a8620df64c396cbe78" target="_top" xlink:title="Generate Passay secret.">
<polygon fill="white" stroke="#666666" points="463.25,-32 253,-32 253,0 463.25,0 463.25,-32"/>
<text text-anchor="start" x="261" y="-18.5" font-family="Helvetica,sans-Serif" font-size="10.00">fr.softsf.sudofx2024.utils.database.keystore.</text>
<text text-anchor="middle" x="358.12" y="-6.5" font-family="Helvetica,sans-Serif" font-size="10.00">GenerateSecret.generatePassaySecret</text>
</a>
</g>
</g>
<!-- Node1&#45;&gt;Node5 -->
<g id="edge4_Node000001_Node000005" class="edge">
<title>Node1&#45;&gt;Node5</title>
<g id="a_edge4_Node000001_Node000005"><a xlink:title=" ">
<path fill="none" stroke="#63b8ff" d="M188.66,-49.56C212.57,-44.8 238.85,-39.56 263.4,-34.67"/>
<polygon fill="#63b8ff" stroke="#63b8ff" points="263.93,-38.13 273.06,-32.75 262.57,-31.27 263.93,-38.13"/>
</a>
</g>
</g>
<!-- Node3 -->
<g id="Node000003" class="node">
<title>Node3</title>
<g id="a_Node000003"><a xlink:href="classfr_1_1softsf_1_1sudofx2024_1_1utils_1_1database_1_1keystore_1_1_application_keystore.html#abcb102074a1e953ef3fe4031145dbf9d" target="_top" xlink:title="Write data to the keystore file.">
<polygon fill="white" stroke="#666666" points="716.25,-132 506,-132 506,-100 716.25,-100 716.25,-132"/>
<text text-anchor="start" x="514" y="-118.5" font-family="Helvetica,sans-Serif" font-size="10.00">fr.softsf.sudofx2024.utils.database.keystore.</text>
<text text-anchor="middle" x="611.12" y="-106.5" font-family="Helvetica,sans-Serif" font-size="10.00">ApplicationKeystore.writeTheKeystore</text>
</a>
</g>
</g>
<!-- Node2&#45;&gt;Node3 -->
<g id="edge2_Node000002_Node000003" class="edge">
<title>Node2&#45;&gt;Node3</title>
<g id="a_edge2_Node000002_Node000003"><a xlink:title=" ">
<path fill="none" stroke="#63b8ff" d="M463.39,-116C473.68,-116 484.16,-116 494.55,-116"/>
<polygon fill="#63b8ff" stroke="#63b8ff" points="494.27,-119.5 504.27,-116 494.27,-112.5 494.27,-119.5"/>
</a>
</g>
</g>
<!-- Node6 -->
<g id="Node000006" class="node">
<title>Node6</title>
<g id="a_Node000006"><a xlink:href="classfr_1_1softsf_1_1sudofx2024_1_1utils_1_1database_1_1keystore_1_1_generate_secret.html#aa539c32d1bb6a5d9ff767f4e6b64959d" target="_top" xlink:title="Define the secret special characters.">
<polygon fill="white" stroke="#666666" points="716.25,-32 506,-32 506,0 716.25,0 716.25,-32"/>
<text text-anchor="start" x="514" y="-18.5" font-family="Helvetica,sans-Serif" font-size="10.00">fr.softsf.sudofx2024.utils.database.keystore.</text>
<text text-anchor="middle" x="611.12" y="-6.5" font-family="Helvetica,sans-Serif" font-size="10.00">GenerateSecret.createSpecialChars</text>
</a>
</g>
</g>
<!-- Node5&#45;&gt;Node6 -->
<g id="edge5_Node000005_Node000006" class="edge">
<title>Node5&#45;&gt;Node6</title>
<g id="a_edge5_Node000005_Node000006"><a xlink:title=" ">
<path fill="none" stroke="#63b8ff" d="M463.39,-16C473.68,-16 484.16,-16 494.55,-16"/>
<polygon fill="#63b8ff" stroke="#63b8ff" points="494.27,-19.5 504.27,-16 494.27,-12.5 494.27,-19.5"/>
</a>
</g>
</g>
</g>
</svg>
