<?xml version="1.0" encoding="UTF-8" standalone="no"?>
<!DOCTYPE svg PUBLIC "-//W3C//DTD SVG 1.1//EN"
 "http://www.w3.org/Graphics/SVG/1.1/DTD/svg11.dtd">
<!-- Generated by graphviz version 12.2.0 (20241103.1931)
 -->
<!-- Title: fr.softsf.sudofx2024.service.FxmlService Pages: 1 -->
<svg width="266pt" height="368pt"
 viewBox="0.00 0.00 266.14 368.00" xmlns="http://www.w3.org/2000/svg" xmlns:xlink="http://www.w3.org/1999/xlink">

<svg id="main" version="1.1" xmlns="http://www.w3.org/2000/svg" xmlns:xlink="http://www.w3.org/1999/xlink" xml:space="preserve">

<style type="text/css"><![CDATA[
.node, .edge {opacity: 0.7;}
.node.selected, .edge.selected {opacity: 1;}
.edge:hover path { stroke: red; }
.edge:hover polygon { stroke: red; fill: red; }
]]></style>
<script type="application/ecmascript" xlink:href="svg.min.js"/>
<svg id="graph" class="graph">
<g id="graph0" class="graph" transform="scale(1 1) rotate(0) translate(4 364)">
<title>fr.softsf.sudofx2024.service.FxmlService</title>
<!-- Node1 -->
<g id="Node000001" class="node">
<title>Node1</title>
<g id="a_Node000001"><a xlink:title="FxmlService is a Spring service that manages the loading of FXML files and updating the root of the J...">
<polygon fill="#999999" stroke="none" points="181.74,-120 42.24,-120 42.24,0 181.74,0 181.74,-120"/>
<text text-anchor="start" x="49.74" y="-106.5" font-family="Helvetica,sans-Serif" font-size="10.00">fr.softsf.sudofx2024.service.</text>
<text text-anchor="start" x="84.61" y="-94.5" font-family="Helvetica,sans-Serif" font-size="10.00">FxmlService</text>
<text text-anchor="start" x="110.49" y="-78.5" font-family="Helvetica,sans-Serif" font-size="10.00"> </text>
<text text-anchor="start" x="46.24" y="-62.5" font-family="Helvetica,sans-Serif" font-size="10.00">+</text>
<text text-anchor="start" x="56.24" y="-62.5" font-family="Helvetica,sans-Serif" font-size="10.00">FxmlService(FXMLLoader</text>
<text text-anchor="start" x="56.24" y="-50.5" font-family="Helvetica,sans-Serif" font-size="10.00"> fxmlLoader)</text>
<text text-anchor="start" x="46.24" y="-34.5" font-family="Helvetica,sans-Serif" font-size="10.00">+</text>
<text text-anchor="start" x="56.24" y="-34.5" font-family="Helvetica,sans-Serif" font-size="10.00">void setRootByFXMLName</text>
<text text-anchor="start" x="56.24" y="-22.5" font-family="Helvetica,sans-Serif" font-size="10.00">(final String fxml)</text>
<text text-anchor="start" x="46.24" y="-6.5" font-family="Helvetica,sans-Serif" font-size="10.00">~</text>
<text text-anchor="start" x="56.24" y="-6.5" font-family="Helvetica,sans-Serif" font-size="10.00">public&lt; T &gt; T getController()</text>
<polygon fill="#666666" stroke="#666666" points="42.24,-90 42.24,-90 181.74,-90 181.74,-90 42.24,-90"/>
<polygon fill="#666666" stroke="#666666" points="42.24,-74 42.24,-74 181.74,-74 181.74,-74 42.24,-74"/>
<polygon fill="none" stroke="#666666" points="42.24,0 42.24,-120 181.74,-120 181.74,0 42.24,0"/>
</a>
</g>
</g>
<!-- Node2 -->
<g id="Node000002" class="node">
<title>Node2</title>
<g id="a_Node000002"><a xlink:title=" ">
<polygon fill="white" stroke="none" points="35.86,-360 0.11,-360 0.11,-308 35.86,-308 35.86,-360"/>
<text text-anchor="start" x="4.11" y="-346.5" font-family="Helvetica,sans-Serif" font-size="10.00">Scene</text>
<text text-anchor="start" x="16.49" y="-330.5" font-family="Helvetica,sans-Serif" font-size="10.00"> </text>
<text text-anchor="start" x="16.49" y="-314.5" font-family="Helvetica,sans-Serif" font-size="10.00"> </text>
<polygon fill="#666666" stroke="#666666" points="0.11,-342 0.11,-342 35.86,-342 35.86,-342 0.11,-342"/>
<polygon fill="#666666" stroke="#666666" points="0.11,-326 0.11,-326 35.86,-326 35.86,-326 0.11,-326"/>
<polygon fill="none" stroke="#666666" points="0.11,-308 0.11,-360 35.86,-360 35.86,-308 0.11,-308"/>
</a>
</g>
</g>
<!-- Node2&#45;&gt;Node1 -->
<g id="edge1_Node000001_Node000002" class="edge">
<title>Node2&#45;&gt;Node1</title>
<g id="a_edge1_Node000001_Node000002"><a xlink:title=" ">
<path fill="none" stroke="#63b8ff" d="M10.76,-308.18C2.44,-274.95 -7.88,-214.75 10.74,-168 16.28,-154.08 24.59,-140.92 34.11,-128.91"/>
<polygon fill="none" stroke="#63b8ff" points="34.05,-128.98 34.85,-121.81 41.77,-119.79 40.98,-126.96 34.05,-128.98"/>
</a>
</g>
<text text-anchor="middle" x="26.86" y="-210.5" font-family="Helvetica,sans-Serif" font-size="10.00" fill="grey"> &#45;scene</text>
</g>
<!-- Node4 -->
<g id="Node000004" class="node">
<title>Node4</title>
<g id="a_Node000004"><a xlink:href="classfr_1_1softsf_1_1sudofx2024_1_1utils_1_1_dynamic_font_size.html" target="_top" xlink:title="Manages dynamic font sizing based on the dimensions of a JavaFX Scene.">
<polygon fill="white" stroke="none" points="171.49,-260 52.49,-260 52.49,-168 171.49,-168 171.49,-260"/>
<text text-anchor="start" x="56.49" y="-246.5" font-family="Helvetica,sans-Serif" font-size="10.00">fr.softsf.sudofx2024.utils.</text>
<text text-anchor="start" x="72.99" y="-234.5" font-family="Helvetica,sans-Serif" font-size="10.00">DynamicFontSize</text>
<text text-anchor="start" x="58.11" y="-218.5" font-family="Helvetica,sans-Serif" font-size="10.00">&#45;</text>
<text text-anchor="start" x="66.74" y="-218.5" font-family="Helvetica,sans-Serif" font-size="10.00">double currentFontSize</text>
<text text-anchor="start" x="56.61" y="-202.5" font-family="Helvetica,sans-Serif" font-size="10.00">+</text>
<text text-anchor="start" x="66.74" y="-202.5" font-family="Helvetica,sans-Serif" font-size="10.00">DynamicFontSize(final</text>
<text text-anchor="start" x="66.74" y="-190.5" font-family="Helvetica,sans-Serif" font-size="10.00"> Scene theScene)</text>
<text text-anchor="start" x="56.61" y="-174.5" font-family="Helvetica,sans-Serif" font-size="10.00">+</text>
<text text-anchor="start" x="66.74" y="-174.5" font-family="Helvetica,sans-Serif" font-size="10.00">void updateFontSize()</text>
<polygon fill="#666666" stroke="#666666" points="52.49,-230 52.49,-230 171.49,-230 171.49,-230 52.49,-230"/>
<polygon fill="#666666" stroke="#666666" points="52.49,-214 52.49,-214 64.74,-214 64.74,-214 52.49,-214"/>
<polygon fill="#666666" stroke="#666666" points="64.74,-214 64.74,-214 171.49,-214 171.49,-214 64.74,-214"/>
<polygon fill="none" stroke="#666666" points="52.49,-168 52.49,-260 171.49,-260 171.49,-168 52.49,-168"/>
</a>
</g>
</g>
<!-- Node2&#45;&gt;Node4 -->
<g id="edge4_Node000004_Node000002" class="edge">
<title>Node2&#45;&gt;Node4</title>
<g id="a_edge4_Node000004_Node000002"><a xlink:title=" ">
<path fill="none" stroke="#63b8ff" d="M35.67,-310.81C45,-299.09 56.9,-284.15 68.51,-269.57"/>
<polygon fill="none" stroke="#63b8ff" points="68.43,-269.67 69.04,-262.48 75.91,-260.28 75.3,-267.47 68.43,-269.67"/>
</a>
</g>
<text text-anchor="middle" x="75.48" y="-280.5" font-family="Helvetica,sans-Serif" font-size="10.00" fill="grey"> &#45;scene</text>
</g>
<!-- Node3 -->
<g id="Node000003" class="node">
<title>Node3</title>
<g id="a_Node000003"><a xlink:title=" ">
<polygon fill="white" stroke="none" points="252.74,-240 189.24,-240 189.24,-188 252.74,-188 252.74,-240"/>
<text text-anchor="start" x="193.24" y="-226.5" font-family="Helvetica,sans-Serif" font-size="10.00">FXMLLoader</text>
<text text-anchor="start" x="219.49" y="-210.5" font-family="Helvetica,sans-Serif" font-size="10.00"> </text>
<text text-anchor="start" x="219.49" y="-194.5" font-family="Helvetica,sans-Serif" font-size="10.00"> </text>
<polygon fill="#666666" stroke="#666666" points="189.24,-222 189.24,-222 252.74,-222 252.74,-222 189.24,-222"/>
<polygon fill="#666666" stroke="#666666" points="189.24,-206 189.24,-206 252.74,-206 252.74,-206 189.24,-206"/>
<polygon fill="none" stroke="#666666" points="189.24,-188 189.24,-240 252.74,-240 252.74,-188 189.24,-188"/>
</a>
</g>
</g>
<!-- Node3&#45;&gt;Node1 -->
<g id="edge2_Node000001_Node000003" class="edge">
<title>Node3&#45;&gt;Node1</title>
<g id="a_edge2_Node000001_Node000003"><a xlink:title=" ">
<path fill="none" stroke="#63b8ff" d="M216.92,-188.26C213.57,-172.91 207.75,-153.26 197.99,-138 195.46,-134.05 192.68,-130.19 189.71,-126.42"/>
<polygon fill="none" stroke="#63b8ff" points="189.8,-126.52 182.87,-124.53 182.04,-117.36 188.97,-119.36 189.8,-126.52"/>
</a>
</g>
<text text-anchor="middle" x="231.14" y="-140.5" font-family="Helvetica,sans-Serif" font-size="10.00" fill="grey"> &#45;fxmlLoader</text>
</g>
<!-- Node4&#45;&gt;Node1 -->
<g id="edge3_Node000001_Node000004" class="edge">
<title>Node4&#45;&gt;Node1</title>
<g id="a_edge3_Node000001_Node000004"><a xlink:title=" ">
<path fill="none" stroke="#63b8ff" d="M111.99,-168.22C111.99,-157.09 111.99,-144.89 111.99,-132.82"/>
<polygon fill="none" stroke="#63b8ff" points="111.99,-132.74 107.99,-126.74 111.99,-120.74 115.99,-126.74 111.99,-132.74"/>
</a>
</g>
<text text-anchor="middle" x="152.86" y="-140.5" font-family="Helvetica,sans-Serif" font-size="10.00" fill="grey"> &#45;dynamicFontSize</text>
</g>
</g>
</svg>
</svg>

<style type='text/css'>
<![CDATA[
[data-mouse-over-selected='false'] { opacity: 0.7; }
[data-mouse-over-selected='true']  { opacity: 1.0; }
]]>
</style>
<script type="application/ecmascript"><![CDATA[
document.addEventListener('DOMContentLoaded', (event) => {
  highlightEdges();
  highlightAdjacentNodes();
});
]]></script>
</svg>
