<?xml version="1.0" encoding="UTF-8" standalone="no"?>
<!DOCTYPE svg PUBLIC "-//W3C//DTD SVG 1.1//EN"
 "http://www.w3.org/Graphics/SVG/1.1/DTD/svg11.dtd">
<!-- Generated by graphviz version 12.2.1 (20241206.2353)
 -->
<!-- Title: fr.softsf.sudokufx.configuration.database.GenerateSecret Pages: 1 -->
<svg width="197pt" height="100pt"
 viewBox="0.00 0.00 196.75 100.00" xmlns="http://www.w3.org/2000/svg" xmlns:xlink="http://www.w3.org/1999/xlink">
<g id="graph0" class="graph" transform="scale(1 1) rotate(0) translate(4 96)">
<title>fr.softsf.sudokufx.configuration.database.GenerateSecret</title>
<!-- Node1 -->
<g id="Node000001" class="node">
<title>Node1</title>
<g id="a_Node000001"><a xlink:title="Utility class for generating secure passwords using the Passay library.">
<polygon fill="#999999" stroke="none" points="188.75,-92 0,-92 0,0 188.75,0 188.75,-92"/>
<text text-anchor="start" x="4" y="-78.5" font-family="Helvetica,sans-Serif" font-size="10.00">fr.softsf.sudokufx.configuration.database.</text>
<text text-anchor="start" x="60.25" y="-66.5" font-family="Helvetica,sans-Serif" font-size="10.00">GenerateSecret</text>
<text text-anchor="start" x="92.88" y="-50.5" font-family="Helvetica,sans-Serif" font-size="10.00"> </text>
<text text-anchor="start" x="13.31" y="-34.5" font-family="Helvetica,sans-Serif" font-size="10.00">+</text>
<text text-anchor="start" x="32.62" y="-34.5" font-family="Helvetica,sans-Serif" font-size="10.00">String generatePassaySecret()</text>
<text text-anchor="start" x="14.81" y="-18.5" font-family="Helvetica,sans-Serif" font-size="10.00">&#45;</text>
<text text-anchor="start" x="32.62" y="-18.5" font-family="Helvetica,sans-Serif" font-size="10.00">static CharacterData</text>
<text text-anchor="start" x="32.62" y="-6.5" font-family="Helvetica,sans-Serif" font-size="10.00"> createSpecialChars()</text>
<polygon fill="#666666" stroke="#666666" points="0,-62 0,-62 188.75,-62 188.75,-62 0,-62"/>
<polygon fill="#666666" stroke="#666666" points="0,-46 0,-46 188.75,-46 188.75,-46 0,-46"/>
<polygon fill="none" stroke="#666666" points="0,0 0,-92 188.75,-92 188.75,0 0,0"/>
</a>
</g>
</g>
</g>
</svg>
