<?xml version="1.0" encoding="UTF-8" standalone="no"?>
<!DOCTYPE svg PUBLIC "-//W3C//DTD SVG 1.1//EN"
 "http://www.w3.org/Graphics/SVG/1.1/DTD/svg11.dtd">
<!-- Generated by graphviz version 12.2.0 (20241103.1931)
 -->
<!-- Title: fr.softsf.sudofx2024.utils.database.configuration.DynamicDataSourceConfiguration.hikariDataSource Pages: 1 -->
<svg width="1528pt" height="327pt"
 viewBox="0.00 0.00 1527.50 327.00" xmlns="http://www.w3.org/2000/svg" xmlns:xlink="http://www.w3.org/1999/xlink">
<g id="graph0" class="graph" transform="scale(1 1) rotate(0) translate(4 323)">
<title>fr.softsf.sudofx2024.utils.database.configuration.DynamicDataSourceConfiguration.hikariDataSource</title>
<!-- Node1 -->
<g id="Node000001" class="node">
<title>Node1</title>
<g id="a_Node000001"><a xlink:title="Creates and configures the main DataSource for the application.">
<polygon fill="#999999" stroke="#666666" points="242.5,-207 0,-207 0,-175 242.5,-175 242.5,-207"/>
<text text-anchor="start" x="8" y="-193.5" font-family="Helvetica,sans-Serif" font-size="10.00">fr.softsf.sudofx2024.utils.database.configuration.</text>
<text text-anchor="middle" x="121.25" y="-181.5" font-family="Helvetica,sans-Serif" font-size="10.00">DynamicDataSourceConfiguration.hikariDataSource</text>
</a>
</g>
</g>
<!-- Node2 -->
<g id="Node000002" class="node">
<title>Node2</title>
<g id="a_Node000002"><a xlink:href="interfacefr_1_1softsf_1_1sudofx2024_1_1utils_1_1os_1_1_os_folder_factory_manager_1_1_i_os_folder_factory.html#ad90f0abe53e6c4384a673eff77108b0f" target="_top" xlink:title="Retrieves the path to the OS&#45;specific data folder.">
<polygon fill="white" stroke="#666666" points="473,-319 301,-319 301,-275 473,-275 473,-319"/>
<text text-anchor="start" x="309" y="-305.5" font-family="Helvetica,sans-Serif" font-size="10.00">fr.softsf.sudofx2024.utils.os.</text>
<text text-anchor="start" x="309" y="-293.5" font-family="Helvetica,sans-Serif" font-size="10.00">OsFolderFactoryManager.IOsFolder</text>
<text text-anchor="middle" x="387" y="-281.5" font-family="Helvetica,sans-Serif" font-size="10.00">Factory.getOsDataFolderPath</text>
</a>
</g>
</g>
<!-- Node1&#45;&gt;Node2 -->
<g id="edge1_Node000001_Node000002" class="edge">
<title>Node1&#45;&gt;Node2</title>
<g id="a_edge1_Node000001_Node000002"><a xlink:title=" ">
<path fill="none" stroke="#63b8ff" d="M152.71,-207.5C183.72,-223.84 233.51,-248.85 278.5,-266 282.89,-267.67 287.41,-269.31 292,-270.89"/>
<polygon fill="#63b8ff" stroke="#63b8ff" points="290.76,-274.17 301.35,-274.03 292.98,-267.53 290.76,-274.17"/>
</a>
</g>
</g>
<!-- Node3 -->
<g id="Node000003" class="node">
<title>Node3</title>
<g id="a_Node000003"><a xlink:href="interfacefr_1_1softsf_1_1sudofx2024_1_1interfaces_1_1_i_keystore.html#ac2f0ef003034d829db2f165d46c8f121" target="_top" xlink:title="Get database password.">
<polygon fill="white" stroke="#666666" points="462.88,-257 311.12,-257 311.12,-225 462.88,-225 462.88,-257"/>
<text text-anchor="start" x="319.12" y="-243.5" font-family="Helvetica,sans-Serif" font-size="10.00">fr.softsf.sudofx2024.interfaces.</text>
<text text-anchor="middle" x="387" y="-231.5" font-family="Helvetica,sans-Serif" font-size="10.00">IKeystore.getPassword</text>
</a>
</g>
</g>
<!-- Node1&#45;&gt;Node3 -->
<g id="edge2_Node000001_Node000003" class="edge">
<title>Node1&#45;&gt;Node3</title>
<g id="a_edge2_Node000001_Node000003"><a xlink:title=" ">
<path fill="none" stroke="#63b8ff" d="M208.98,-207.44C238.13,-212.97 270.64,-219.13 299.76,-224.65"/>
<polygon fill="#63b8ff" stroke="#63b8ff" points="298.77,-228.03 309.25,-226.45 300.08,-221.15 298.77,-228.03"/>
</a>
</g>
</g>
<!-- Node4 -->
<g id="Node000004" class="node">
<title>Node4</title>
<g id="a_Node000004"><a xlink:href="interfacefr_1_1softsf_1_1sudofx2024_1_1interfaces_1_1_i_keystore.html#aae82a77e5844a291350ed127f9a850c8" target="_top" xlink:title="Get database username.">
<polygon fill="white" stroke="#666666" points="462.88,-207 311.12,-207 311.12,-175 462.88,-175 462.88,-207"/>
<text text-anchor="start" x="319.12" y="-193.5" font-family="Helvetica,sans-Serif" font-size="10.00">fr.softsf.sudofx2024.interfaces.</text>
<text text-anchor="middle" x="387" y="-181.5" font-family="Helvetica,sans-Serif" font-size="10.00">IKeystore.getUsername</text>
</a>
</g>
</g>
<!-- Node1&#45;&gt;Node4 -->
<g id="edge3_Node000001_Node000004" class="edge">
<title>Node1&#45;&gt;Node4</title>
<g id="a_edge3_Node000001_Node000004"><a xlink:title=" ">
<path fill="none" stroke="#63b8ff" d="M242.93,-191C261.94,-191 281.26,-191 299.29,-191"/>
<polygon fill="#63b8ff" stroke="#63b8ff" points="299.13,-194.5 309.13,-191 299.13,-187.5 299.13,-194.5"/>
</a>
</g>
</g>
<!-- Node5 -->
<g id="Node000005" class="node">
<title>Node5</title>
<g id="a_Node000005"><a xlink:href="classfr_1_1softsf_1_1sudofx2024_1_1utils_1_1os_1_1_os_folder_factory_manager.html#a75e9b28a167f8b8a5dc25dc08939a216" target="_top" xlink:title="Creates and returns an OS&#45;specific folder factory.">
<polygon fill="white" stroke="#666666" points="486.88,-157 287.12,-157 287.12,-125 486.88,-125 486.88,-157"/>
<text text-anchor="start" x="295.12" y="-143.5" font-family="Helvetica,sans-Serif" font-size="10.00">fr.softsf.sudofx2024.utils.os.</text>
<text text-anchor="middle" x="387" y="-131.5" font-family="Helvetica,sans-Serif" font-size="10.00">OsFolderFactoryManager.osFolderFactory</text>
</a>
</g>
</g>
<!-- Node1&#45;&gt;Node5 -->
<g id="edge4_Node000001_Node000005" class="edge">
<title>Node1&#45;&gt;Node5</title>
<g id="a_edge4_Node000001_Node000005"><a xlink:title=" ">
<path fill="none" stroke="#63b8ff" d="M208.98,-174.56C234.33,-169.75 262.22,-164.47 288.21,-159.54"/>
<polygon fill="#63b8ff" stroke="#63b8ff" points="288.56,-163.03 297.73,-157.73 287.26,-156.16 288.56,-163.03"/>
</a>
</g>
</g>
<!-- Node6 -->
<g id="Node000006" class="node">
<title>Node6</title>
<g id="a_Node000006"><a xlink:href="classfr_1_1softsf_1_1sudofx2024_1_1utils_1_1database_1_1keystore_1_1_application_keystore.html#a20e1352cfd69aefa829c28aaac7556a0" target="_top" xlink:title=" ">
<polygon fill="white" stroke="#666666" points="495.5,-107 278.5,-107 278.5,-75 495.5,-75 495.5,-107"/>
<text text-anchor="start" x="286.5" y="-93.5" font-family="Helvetica,sans-Serif" font-size="10.00">fr.softsf.sudofx2024.utils.database.keystore.</text>
<text text-anchor="middle" x="387" y="-81.5" font-family="Helvetica,sans-Serif" font-size="10.00">ApplicationKeystore.setupApplicationKeystore</text>
</a>
</g>
</g>
<!-- Node1&#45;&gt;Node6 -->
<g id="edge5_Node000001_Node000006" class="edge">
<title>Node1&#45;&gt;Node6</title>
<g id="a_edge5_Node000001_Node000006"><a xlink:title=" ">
<path fill="none" stroke="#63b8ff" d="M151.38,-174.63C182.16,-157.9 232.51,-132.16 278.5,-116 283.9,-114.1 289.5,-112.31 295.18,-110.62"/>
<polygon fill="#63b8ff" stroke="#63b8ff" points="296.06,-114.01 304.73,-107.91 294.15,-107.27 296.06,-114.01"/>
</a>
</g>
</g>
<!-- Node7 -->
<g id="Node000007" class="node">
<title>Node7</title>
<g id="a_Node000007"><a xlink:href="classfr_1_1softsf_1_1sudofx2024_1_1utils_1_1database_1_1keystore_1_1_application_keystore.html#a829269eec595e1181c0bdcb419960e13" target="_top" xlink:title="Create or update the Keystore.">
<polygon fill="white" stroke="#666666" points="745.5,-182 531.5,-182 531.5,-150 745.5,-150 745.5,-182"/>
<text text-anchor="start" x="539.5" y="-168.5" font-family="Helvetica,sans-Serif" font-size="10.00">fr.softsf.sudofx2024.utils.database.keystore.</text>
<text text-anchor="middle" x="638.5" y="-156.5" font-family="Helvetica,sans-Serif" font-size="10.00">ApplicationKeystore.createOrUpdateKeystore</text>
</a>
</g>
</g>
<!-- Node6&#45;&gt;Node7 -->
<g id="edge6_Node000006_Node000007" class="edge">
<title>Node6&#45;&gt;Node7</title>
<g id="a_edge6_Node000006_Node000007"><a xlink:title=" ">
<path fill="none" stroke="#63b8ff" d="M472.63,-107.45C480.5,-109.94 488.23,-112.77 495.5,-116 513.3,-123.9 513.71,-133.07 531.5,-141 535.47,-142.77 539.57,-144.42 543.77,-145.96"/>
<polygon fill="#63b8ff" stroke="#63b8ff" points="542.3,-149.16 552.9,-149.09 544.57,-142.54 542.3,-149.16"/>
</a>
</g>
</g>
<!-- Node8 -->
<g id="Node000008" class="node">
<title>Node8</title>
<g id="a_Node000008"><a xlink:href="classfr_1_1softsf_1_1sudofx2024_1_1utils_1_1database_1_1keystore_1_1_application_keystore.html#a0317c3df974d0e6c92ddac1211512b3d" target="_top" xlink:title="Get or set credentials by alias.">
<polygon fill="white" stroke="#666666" points="743.62,-132 533.38,-132 533.38,-100 743.62,-100 743.62,-132"/>
<text text-anchor="start" x="541.38" y="-118.5" font-family="Helvetica,sans-Serif" font-size="10.00">fr.softsf.sudofx2024.utils.database.keystore.</text>
<text text-anchor="middle" x="638.5" y="-106.5" font-family="Helvetica,sans-Serif" font-size="10.00">ApplicationKeystore.credentials</text>
</a>
</g>
</g>
<!-- Node6&#45;&gt;Node8 -->
<g id="edge7_Node000006_Node000008" class="edge">
<title>Node6&#45;&gt;Node8</title>
<g id="a_edge7_Node000006_Node000008"><a xlink:title=" ">
<path fill="none" stroke="#63b8ff" d="M495.98,-101.82C504.5,-102.67 513.12,-103.54 521.69,-104.4"/>
<polygon fill="#63b8ff" stroke="#63b8ff" points="521.1,-107.85 531.4,-105.37 521.8,-100.89 521.1,-107.85"/>
</a>
</g>
</g>
<!-- Node17 -->
<g id="Node000017" class="node">
<title>Node17</title>
<g id="a_Node000017"><a xlink:href="classfr_1_1softsf_1_1sudofx2024_1_1utils_1_1database_1_1keystore_1_1_application_keystore.html#ac8ecee995dfad8e20b96ede7f9e6e600" target="_top" xlink:title="Load the Keystore.">
<polygon fill="white" stroke="#666666" points="743.62,-82 533.38,-82 533.38,-50 743.62,-50 743.62,-82"/>
<text text-anchor="start" x="541.38" y="-68.5" font-family="Helvetica,sans-Serif" font-size="10.00">fr.softsf.sudofx2024.utils.database.keystore.</text>
<text text-anchor="middle" x="638.5" y="-56.5" font-family="Helvetica,sans-Serif" font-size="10.00">ApplicationKeystore.loadKeyStore</text>
</a>
</g>
</g>
<!-- Node6&#45;&gt;Node17 -->
<g id="edge16_Node000006_Node000017" class="edge">
<title>Node6&#45;&gt;Node17</title>
<g id="a_edge16_Node000006_Node000017"><a xlink:title=" ">
<path fill="none" stroke="#63b8ff" d="M495.98,-80.18C504.5,-79.33 513.12,-78.46 521.69,-77.6"/>
<polygon fill="#63b8ff" stroke="#63b8ff" points="521.8,-81.11 531.4,-76.63 521.1,-74.15 521.8,-81.11"/>
</a>
</g>
</g>
<!-- Node18 -->
<g id="Node000018" class="node">
<title>Node18</title>
<g id="a_Node000018"><a xlink:href="classfr_1_1softsf_1_1sudofx2024_1_1utils_1_1database_1_1keystore_1_1_application_keystore.html#a689ef651e59f787115966dc6b164d575" target="_top" xlink:title="Check the symmetric key presence.">
<polygon fill="white" stroke="#666666" points="743.62,-32 533.38,-32 533.38,0 743.62,0 743.62,-32"/>
<text text-anchor="start" x="541.38" y="-18.5" font-family="Helvetica,sans-Serif" font-size="10.00">fr.softsf.sudofx2024.utils.database.keystore.</text>
<text text-anchor="middle" x="638.5" y="-6.5" font-family="Helvetica,sans-Serif" font-size="10.00">ApplicationKeystore.symmetricKey</text>
</a>
</g>
</g>
<!-- Node6&#45;&gt;Node18 -->
<g id="edge17_Node000006_Node000018" class="edge">
<title>Node6&#45;&gt;Node18</title>
<g id="a_edge17_Node000006_Node000018"><a xlink:title=" ">
<path fill="none" stroke="#63b8ff" d="M431.27,-74.61C459.55,-64.22 497.43,-50.92 531.5,-41 538.23,-39.04 545.24,-37.12 552.29,-35.28"/>
<polygon fill="#63b8ff" stroke="#63b8ff" points="553.11,-38.68 561.93,-32.82 551.38,-31.9 553.11,-38.68"/>
</a>
</g>
</g>
<!-- Node9 -->
<g id="Node000009" class="node">
<title>Node9</title>
<g id="a_Node000009"><a xlink:href="classfr_1_1softsf_1_1sudofx2024_1_1utils_1_1database_1_1keystore_1_1_application_keystore.html#a4e13fcbba16db5a0182f996ad02a799c" target="_top" xlink:title="Get credential by alias.">
<polygon fill="white" stroke="#666666" points="1002.62,-182 792.38,-182 792.38,-150 1002.62,-150 1002.62,-182"/>
<text text-anchor="start" x="800.38" y="-168.5" font-family="Helvetica,sans-Serif" font-size="10.00">fr.softsf.sudofx2024.utils.database.keystore.</text>
<text text-anchor="middle" x="897.5" y="-156.5" font-family="Helvetica,sans-Serif" font-size="10.00">ApplicationKeystore.getCredentials</text>
</a>
</g>
</g>
<!-- Node8&#45;&gt;Node9 -->
<g id="edge8_Node000008_Node000009" class="edge">
<title>Node8&#45;&gt;Node9</title>
<g id="a_edge8_Node000008_Node000009"><a xlink:title=" ">
<path fill="none" stroke="#63b8ff" d="M724.01,-132.44C748.6,-137.23 775.65,-142.49 800.87,-147.4"/>
<polygon fill="#63b8ff" stroke="#63b8ff" points="799.97,-150.79 810.46,-149.26 801.31,-143.91 799.97,-150.79"/>
</a>
</g>
</g>
<!-- Node11 -->
<g id="Node000011" class="node">
<title>Node11</title>
<g id="a_Node000011"><a xlink:href="classfr_1_1softsf_1_1sudofx2024_1_1utils_1_1database_1_1keystore_1_1_application_keystore.html#a149153fd7b892ec9c6329b34f6bbad50" target="_top" xlink:title="Set credential by alias.">
<polygon fill="white" stroke="#666666" points="1002.62,-132 792.38,-132 792.38,-100 1002.62,-100 1002.62,-132"/>
<text text-anchor="start" x="800.38" y="-118.5" font-family="Helvetica,sans-Serif" font-size="10.00">fr.softsf.sudofx2024.utils.database.keystore.</text>
<text text-anchor="middle" x="897.5" y="-106.5" font-family="Helvetica,sans-Serif" font-size="10.00">ApplicationKeystore.setCredentials</text>
</a>
</g>
</g>
<!-- Node8&#45;&gt;Node11 -->
<g id="edge10_Node000008_Node000011" class="edge">
<title>Node8&#45;&gt;Node11</title>
<g id="a_edge10_Node000008_Node000011"><a xlink:title=" ">
<path fill="none" stroke="#63b8ff" d="M744.03,-116C756.16,-116 768.59,-116 780.85,-116"/>
<polygon fill="#63b8ff" stroke="#63b8ff" points="780.55,-119.5 790.55,-116 780.55,-112.5 780.55,-119.5"/>
</a>
</g>
</g>
<!-- Node10 -->
<g id="Node000010" class="node">
<title>Node10</title>
<g id="a_Node000010"><a xlink:href="interfacefr_1_1softsf_1_1sudofx2024_1_1utils_1_1database_1_1keystore_1_1_application_keystore_1_1_i_encryption_service.html#ac3c866fe2af78726210f159d3bcf8faf" target="_top" xlink:title="Decrypt original.">
<polygon fill="white" stroke="#666666" points="1273.25,-182 1049.5,-182 1049.5,-150 1273.25,-150 1273.25,-182"/>
<text text-anchor="start" x="1057.5" y="-168.5" font-family="Helvetica,sans-Serif" font-size="10.00">fr.softsf.sudofx2024.utils.database.keystore.</text>
<text text-anchor="middle" x="1161.38" y="-156.5" font-family="Helvetica,sans-Serif" font-size="10.00">ApplicationKeystore.IEncryptionService.decrypt</text>
</a>
</g>
</g>
<!-- Node9&#45;&gt;Node10 -->
<g id="edge9_Node000009_Node000010" class="edge">
<title>Node9&#45;&gt;Node10</title>
<g id="a_edge9_Node000009_Node000010"><a xlink:title=" ">
<path fill="none" stroke="#63b8ff" d="M1002.75,-166C1014.32,-166 1026.17,-166 1037.94,-166"/>
<polygon fill="#63b8ff" stroke="#63b8ff" points="1037.66,-169.5 1047.66,-166 1037.66,-162.5 1037.66,-169.5"/>
</a>
</g>
</g>
<!-- Node12 -->
<g id="Node000012" class="node">
<title>Node12</title>
<g id="a_Node000012"><a xlink:href="classfr_1_1softsf_1_1sudofx2024_1_1utils_1_1database_1_1keystore_1_1_application_keystore.html#a66b4511230a0a8390a1d43d6b7efbe21" target="_top" xlink:title="Add alias:secret in the Keystore.">
<polygon fill="white" stroke="#666666" points="1266.5,-32 1056.25,-32 1056.25,0 1266.5,0 1266.5,-32"/>
<text text-anchor="start" x="1064.25" y="-18.5" font-family="Helvetica,sans-Serif" font-size="10.00">fr.softsf.sudofx2024.utils.database.keystore.</text>
<text text-anchor="middle" x="1161.38" y="-6.5" font-family="Helvetica,sans-Serif" font-size="10.00">ApplicationKeystore.addToKeystore</text>
</a>
</g>
</g>
<!-- Node11&#45;&gt;Node12 -->
<g id="edge11_Node000011_Node000012" class="edge">
<title>Node11&#45;&gt;Node12</title>
<g id="a_edge11_Node000011_Node000012"><a xlink:title=" ">
<path fill="none" stroke="#63b8ff" d="M997.72,-99.55C1003.24,-97.08 1008.55,-94.25 1013.5,-91 1036.4,-75.98 1026.66,-56.1 1049.5,-41 1051.35,-39.78 1053.25,-38.61 1055.2,-37.5"/>
<polygon fill="#63b8ff" stroke="#63b8ff" points="1056.56,-40.74 1063.91,-33.1 1053.4,-34.49 1056.56,-40.74"/>
</a>
</g>
</g>
<!-- Node14 -->
<g id="Node000014" class="node">
<title>Node14</title>
<g id="a_Node000014"><a xlink:href="interfacefr_1_1softsf_1_1sudofx2024_1_1utils_1_1database_1_1keystore_1_1_application_keystore_1_1_i_encryption_service.html#a3463474a525a55bcf09e6b69f25abdc7" target="_top" xlink:title="Encrypt original.">
<polygon fill="white" stroke="#666666" points="1273.25,-132 1049.5,-132 1049.5,-100 1273.25,-100 1273.25,-132"/>
<text text-anchor="start" x="1057.5" y="-118.5" font-family="Helvetica,sans-Serif" font-size="10.00">fr.softsf.sudofx2024.utils.database.keystore.</text>
<text text-anchor="middle" x="1161.38" y="-106.5" font-family="Helvetica,sans-Serif" font-size="10.00">ApplicationKeystore.IEncryptionService.encrypt</text>
</a>
</g>
</g>
<!-- Node11&#45;&gt;Node14 -->
<g id="edge13_Node000011_Node000014" class="edge">
<title>Node11&#45;&gt;Node14</title>
<g id="a_edge13_Node000011_Node000014"><a xlink:title=" ">
<path fill="none" stroke="#63b8ff" d="M1002.75,-116C1014.32,-116 1026.17,-116 1037.94,-116"/>
<polygon fill="#63b8ff" stroke="#63b8ff" points="1037.66,-119.5 1047.66,-116 1037.66,-112.5 1037.66,-119.5"/>
</a>
</g>
</g>
<!-- Node15 -->
<g id="Node000015" class="node">
<title>Node15</title>
<g id="a_Node000015"><a xlink:href="classfr_1_1softsf_1_1sudofx2024_1_1utils_1_1database_1_1keystore_1_1_generate_secret.html#aff423fb11bf834a8620df64c396cbe78" target="_top" xlink:title="Generate Passay secret.">
<polygon fill="white" stroke="#666666" points="1266.5,-82 1056.25,-82 1056.25,-50 1266.5,-50 1266.5,-82"/>
<text text-anchor="start" x="1064.25" y="-68.5" font-family="Helvetica,sans-Serif" font-size="10.00">fr.softsf.sudofx2024.utils.database.keystore.</text>
<text text-anchor="middle" x="1161.38" y="-56.5" font-family="Helvetica,sans-Serif" font-size="10.00">GenerateSecret.generatePassaySecret</text>
</a>
</g>
</g>
<!-- Node11&#45;&gt;Node15 -->
<g id="edge14_Node000011_Node000015" class="edge">
<title>Node11&#45;&gt;Node15</title>
<g id="a_edge14_Node000011_Node000015"><a xlink:title=" ">
<path fill="none" stroke="#63b8ff" d="M984.61,-99.56C1009.67,-94.77 1037.23,-89.51 1062.94,-84.6"/>
<polygon fill="#63b8ff" stroke="#63b8ff" points="1063.56,-88.05 1072.73,-82.73 1062.25,-81.17 1063.56,-88.05"/>
</a>
</g>
</g>
<!-- Node13 -->
<g id="Node000013" class="node">
<title>Node13</title>
<g id="a_Node000013"><a xlink:href="classfr_1_1softsf_1_1sudofx2024_1_1utils_1_1database_1_1keystore_1_1_application_keystore.html#abcb102074a1e953ef3fe4031145dbf9d" target="_top" xlink:title="Write data to the keystore file.">
<polygon fill="white" stroke="#666666" points="1519.5,-32 1309.25,-32 1309.25,0 1519.5,0 1519.5,-32"/>
<text text-anchor="start" x="1317.25" y="-18.5" font-family="Helvetica,sans-Serif" font-size="10.00">fr.softsf.sudofx2024.utils.database.keystore.</text>
<text text-anchor="middle" x="1414.38" y="-6.5" font-family="Helvetica,sans-Serif" font-size="10.00">ApplicationKeystore.writeTheKeystore</text>
</a>
</g>
</g>
<!-- Node12&#45;&gt;Node13 -->
<g id="edge12_Node000012_Node000013" class="edge">
<title>Node12&#45;&gt;Node13</title>
<g id="a_edge12_Node000012_Node000013"><a xlink:title=" ">
<path fill="none" stroke="#63b8ff" d="M1266.64,-16C1276.93,-16 1287.41,-16 1297.8,-16"/>
<polygon fill="#63b8ff" stroke="#63b8ff" points="1297.52,-19.5 1307.52,-16 1297.52,-12.5 1297.52,-19.5"/>
</a>
</g>
</g>
<!-- Node16 -->
<g id="Node000016" class="node">
<title>Node16</title>
<g id="a_Node000016"><a xlink:href="classfr_1_1softsf_1_1sudofx2024_1_1utils_1_1database_1_1keystore_1_1_generate_secret.html#aa539c32d1bb6a5d9ff767f4e6b64959d" target="_top" xlink:title="Define the secret special characters.">
<polygon fill="white" stroke="#666666" points="1519.5,-82 1309.25,-82 1309.25,-50 1519.5,-50 1519.5,-82"/>
<text text-anchor="start" x="1317.25" y="-68.5" font-family="Helvetica,sans-Serif" font-size="10.00">fr.softsf.sudofx2024.utils.database.keystore.</text>
<text text-anchor="middle" x="1414.38" y="-56.5" font-family="Helvetica,sans-Serif" font-size="10.00">GenerateSecret.createSpecialChars</text>
</a>
</g>
</g>
<!-- Node15&#45;&gt;Node16 -->
<g id="edge15_Node000015_Node000016" class="edge">
<title>Node15&#45;&gt;Node16</title>
<g id="a_edge15_Node000015_Node000016"><a xlink:title=" ">
<path fill="none" stroke="#63b8ff" d="M1266.64,-66C1276.93,-66 1287.41,-66 1297.8,-66"/>
<polygon fill="#63b8ff" stroke="#63b8ff" points="1297.52,-69.5 1307.52,-66 1297.52,-62.5 1297.52,-69.5"/>
</a>
</g>
</g>
<!-- Node19 -->
<g id="Node000019" class="node">
<title>Node19</title>
<g id="a_Node000019"><a xlink:href="classfr_1_1softsf_1_1sudofx2024_1_1utils_1_1database_1_1keystore_1_1_application_keystore.html#a952a6119cdb4303221ac9952f226990b" target="_top" xlink:title="Get the symmetric key and set encryption service.">
<polygon fill="white" stroke="#666666" points="1009.75,-82 785.25,-82 785.25,-50 1009.75,-50 1009.75,-82"/>
<text text-anchor="start" x="793.25" y="-68.5" font-family="Helvetica,sans-Serif" font-size="10.00">fr.softsf.sudofx2024.utils.database.keystore.</text>
<text text-anchor="middle" x="897.5" y="-56.5" font-family="Helvetica,sans-Serif" font-size="10.00">ApplicationKeystore.symmetricKeyIsInKeystore</text>
</a>
</g>
</g>
<!-- Node18&#45;&gt;Node19 -->
<g id="edge18_Node000018_Node000019" class="edge">
<title>Node18&#45;&gt;Node19</title>
<g id="a_edge18_Node000018_Node000019"><a xlink:title=" ">
<path fill="none" stroke="#63b8ff" d="M724.01,-32.44C748.6,-37.23 775.65,-42.49 800.87,-47.4"/>
<polygon fill="#63b8ff" stroke="#63b8ff" points="799.97,-50.79 810.46,-49.26 801.31,-43.91 799.97,-50.79"/>
</a>
</g>
</g>
<!-- Node20 -->
<g id="Node000020" class="node">
<title>Node20</title>
<g id="a_Node000020"><a xlink:href="classfr_1_1softsf_1_1sudofx2024_1_1utils_1_1database_1_1keystore_1_1_application_keystore.html#a238bdbcd5ef6ad338b239542ab545009" target="_top" xlink:title="Set the symmetric key and set encryption service.">
<polygon fill="white" stroke="#666666" points="1013.5,-32 781.5,-32 781.5,0 1013.5,0 1013.5,-32"/>
<text text-anchor="start" x="789.5" y="-18.5" font-family="Helvetica,sans-Serif" font-size="10.00">fr.softsf.sudofx2024.utils.database.keystore.</text>
<text text-anchor="middle" x="897.5" y="-6.5" font-family="Helvetica,sans-Serif" font-size="10.00">ApplicationKeystore.symmetricKeyNotInKeystore</text>
</a>
</g>
</g>
<!-- Node18&#45;&gt;Node20 -->
<g id="edge19_Node000018_Node000020" class="edge">
<title>Node18&#45;&gt;Node20</title>
<g id="a_edge19_Node000018_Node000020"><a xlink:title=" ">
<path fill="none" stroke="#63b8ff" d="M744.03,-9.36C752.53,-9.28 761.18,-9.24 769.82,-9.25"/>
<polygon fill="#63b8ff" stroke="#63b8ff" points="769.63,-12.75 779.64,-9.28 769.65,-5.75 769.63,-12.75"/>
</a>
</g>
</g>
<!-- Node20&#45;&gt;Node12 -->
<g id="edge20_Node000020_Node000012" class="edge">
<title>Node20&#45;&gt;Node12</title>
<g id="a_edge20_Node000020_Node000012"><a xlink:title=" ">
<path fill="none" stroke="#63b8ff" d="M1013.74,-16C1023.91,-16 1034.21,-16 1044.39,-16"/>
<polygon fill="#63b8ff" stroke="#63b8ff" points="1044.3,-19.5 1054.3,-16 1044.3,-12.5 1044.3,-19.5"/>
</a>
</g>
</g>
<!-- Node20&#45;&gt;Node18 -->
<g id="edge21_Node000020_Node000018" class="edge">
<title>Node20&#45;&gt;Node18</title>
<g id="a_edge21_Node000020_Node000018"><a xlink:title=" ">
<path fill="none" stroke="#63b8ff" d="M781.16,-22.72C772.56,-22.76 763.88,-22.76 755.28,-22.72"/>
<polygon fill="#63b8ff" stroke="#63b8ff" points="755.57,-19.22 745.55,-22.65 755.52,-26.22 755.57,-19.22"/>
</a>
</g>
</g>
</g>
</svg>
