<?xml version="1.0" encoding="UTF-8" standalone="no"?>
<!DOCTYPE svg PUBLIC "-//W3C//DTD SVG 1.1//EN"
 "http://www.w3.org/Graphics/SVG/1.1/DTD/svg11.dtd">
<!-- Generated by graphviz version 12.2.1 (20241206.2353)
 -->
<!-- Title: fr.softsf.sudokufx.configuration.database.keystore.ApplicationKeystore Pages: 1 -->
<svg width="471pt" height="912pt"
 viewBox="0.00 0.00 470.50 912.00" xmlns="http://www.w3.org/2000/svg" xmlns:xlink="http://www.w3.org/1999/xlink">
<g id="graph0" class="graph" transform="scale(1 1) rotate(0) translate(4 908)">
<title>fr.softsf.sudokufx.configuration.database.keystore.ApplicationKeystore</title>
<!-- Node1 -->
<g id="Node000001" class="node">
<title>Node1</title>
<g id="a_Node000001"><a xlink:title="Manages the application&#39;s keystore for the secure storage of a symmetric key and database credentials...">
<polygon fill="#999999" stroke="none" points="297.62,-764 68.38,-764 68.38,0 297.62,0 297.62,-764"/>
<text text-anchor="start" x="72.38" y="-750.5" font-family="Helvetica,sans-Serif" font-size="10.00">fr.softsf.sudokufx.configuration.database.keystore.</text>
<text text-anchor="start" x="139.5" y="-738.5" font-family="Helvetica,sans-Serif" font-size="10.00">ApplicationKeystore</text>
<text text-anchor="start" x="80" y="-722.5" font-family="Helvetica,sans-Serif" font-size="10.00">&#45;</text>
<text text-anchor="start" x="94.62" y="-722.5" font-family="Helvetica,sans-Serif" font-size="10.00">IEncryptionService</text>
<text text-anchor="start" x="94.62" y="-710.5" font-family="Helvetica,sans-Serif" font-size="10.00"> iEncryptionService</text>
<text text-anchor="start" x="80" y="-694.5" font-family="Helvetica,sans-Serif" font-size="10.00">&#45;</text>
<text text-anchor="start" x="94.62" y="-694.5" font-family="Helvetica,sans-Serif" font-size="10.00">String keystoreFilePath</text>
<text text-anchor="start" x="80" y="-678.5" font-family="Helvetica,sans-Serif" font-size="10.00">&#45;</text>
<text text-anchor="start" x="94.62" y="-678.5" font-family="Helvetica,sans-Serif" font-size="10.00">KeyStore ks</text>
<text text-anchor="start" x="80" y="-662.5" font-family="Helvetica,sans-Serif" font-size="10.00">&#45;</text>
<text text-anchor="start" x="94.62" y="-662.5" font-family="Helvetica,sans-Serif" font-size="10.00">String password</text>
<text text-anchor="start" x="80" y="-646.5" font-family="Helvetica,sans-Serif" font-size="10.00">&#45;</text>
<text text-anchor="start" x="94.62" y="-646.5" font-family="Helvetica,sans-Serif" font-size="10.00">String username</text>
<text text-anchor="start" x="80" y="-630.5" font-family="Helvetica,sans-Serif" font-size="10.00">&#45;</text>
<text text-anchor="start" x="94.62" y="-630.5" font-family="Helvetica,sans-Serif" font-size="10.00">static final String</text>
<text text-anchor="start" x="94.62" y="-618.5" font-family="Helvetica,sans-Serif" font-size="10.00"> KEYSTORE_FILE_PATH</text>
<text text-anchor="start" x="80" y="-602.5" font-family="Helvetica,sans-Serif" font-size="10.00">&#45;</text>
<text text-anchor="start" x="94.62" y="-602.5" font-family="Helvetica,sans-Serif" font-size="10.00">static final String</text>
<text text-anchor="start" x="94.62" y="-590.5" font-family="Helvetica,sans-Serif" font-size="10.00"> KEYSTORE_PASSWORD_FROM_UUID</text>
<text text-anchor="start" x="80" y="-574.5" font-family="Helvetica,sans-Serif" font-size="10.00">&#45;</text>
<text text-anchor="start" x="94.62" y="-574.5" font-family="Helvetica,sans-Serif" font-size="10.00">static final String</text>
<text text-anchor="start" x="94.62" y="-562.5" font-family="Helvetica,sans-Serif" font-size="10.00"> KEYSTORE_TYPE</text>
<text text-anchor="start" x="80" y="-546.5" font-family="Helvetica,sans-Serif" font-size="10.00">&#45;</text>
<text text-anchor="start" x="94.62" y="-546.5" font-family="Helvetica,sans-Serif" font-size="10.00">static final String</text>
<text text-anchor="start" x="94.62" y="-534.5" font-family="Helvetica,sans-Serif" font-size="10.00"> PASS_ALIAS</text>
<text text-anchor="start" x="80" y="-518.5" font-family="Helvetica,sans-Serif" font-size="10.00">&#45;</text>
<text text-anchor="start" x="94.62" y="-518.5" font-family="Helvetica,sans-Serif" font-size="10.00">static final char[]</text>
<text text-anchor="start" x="94.62" y="-506.5" font-family="Helvetica,sans-Serif" font-size="10.00"> pwdArray</text>
<text text-anchor="start" x="80" y="-490.5" font-family="Helvetica,sans-Serif" font-size="10.00">&#45;</text>
<text text-anchor="start" x="94.62" y="-490.5" font-family="Helvetica,sans-Serif" font-size="10.00">static final String</text>
<text text-anchor="start" x="94.62" y="-478.5" font-family="Helvetica,sans-Serif" font-size="10.00"> SYMMETRIC_KEY_ALIAS</text>
<text text-anchor="start" x="80" y="-462.5" font-family="Helvetica,sans-Serif" font-size="10.00">&#45;</text>
<text text-anchor="start" x="94.62" y="-462.5" font-family="Helvetica,sans-Serif" font-size="10.00">static final String</text>
<text text-anchor="start" x="94.62" y="-450.5" font-family="Helvetica,sans-Serif" font-size="10.00"> USERNAME_ALIAS</text>
<text text-anchor="start" x="78.5" y="-434.5" font-family="Helvetica,sans-Serif" font-size="10.00">+</text>
<text text-anchor="start" x="94.62" y="-434.5" font-family="Helvetica,sans-Serif" font-size="10.00">ApplicationKeystore</text>
<text text-anchor="start" x="94.62" y="-422.5" font-family="Helvetica,sans-Serif" font-size="10.00">(IOsFolderFactory iOsFolder</text>
<text text-anchor="start" x="94.62" y="-410.5" font-family="Helvetica,sans-Serif" font-size="10.00">Factory, GenerateSecret generate</text>
<text text-anchor="start" x="94.62" y="-398.5" font-family="Helvetica,sans-Serif" font-size="10.00">Secret)</text>
<text text-anchor="start" x="78.5" y="-382.5" font-family="Helvetica,sans-Serif" font-size="10.00">+</text>
<text text-anchor="start" x="94.62" y="-382.5" font-family="Helvetica,sans-Serif" font-size="10.00">String getPassword()</text>
<text text-anchor="start" x="78.5" y="-366.5" font-family="Helvetica,sans-Serif" font-size="10.00">+</text>
<text text-anchor="start" x="94.62" y="-366.5" font-family="Helvetica,sans-Serif" font-size="10.00">String getPassword()</text>
<text text-anchor="start" x="78.5" y="-350.5" font-family="Helvetica,sans-Serif" font-size="10.00">+</text>
<text text-anchor="start" x="94.62" y="-350.5" font-family="Helvetica,sans-Serif" font-size="10.00">String getUsername()</text>
<text text-anchor="start" x="78.5" y="-334.5" font-family="Helvetica,sans-Serif" font-size="10.00">+</text>
<text text-anchor="start" x="94.62" y="-334.5" font-family="Helvetica,sans-Serif" font-size="10.00">String getUsername()</text>
<text text-anchor="start" x="78.5" y="-318.5" font-family="Helvetica,sans-Serif" font-size="10.00">+</text>
<text text-anchor="start" x="94.62" y="-318.5" font-family="Helvetica,sans-Serif" font-size="10.00">void setupApplicationKeystore()</text>
<text text-anchor="start" x="78.5" y="-302.5" font-family="Helvetica,sans-Serif" font-size="10.00">+</text>
<text text-anchor="start" x="94.62" y="-302.5" font-family="Helvetica,sans-Serif" font-size="10.00">void setupApplicationKeystore()</text>
<text text-anchor="start" x="78.5" y="-286.5" font-family="Helvetica,sans-Serif" font-size="10.00">~</text>
<text text-anchor="start" x="94.62" y="-286.5" font-family="Helvetica,sans-Serif" font-size="10.00">void setOsFolderFactoryFor</text>
<text text-anchor="start" x="94.62" y="-274.5" font-family="Helvetica,sans-Serif" font-size="10.00">Tests(IOsFolderFactory</text>
<text text-anchor="start" x="94.62" y="-262.5" font-family="Helvetica,sans-Serif" font-size="10.00"> osFolderFactoryP)</text>
<text text-anchor="start" x="80" y="-246.5" font-family="Helvetica,sans-Serif" font-size="10.00">&#45;</text>
<text text-anchor="start" x="94.62" y="-246.5" font-family="Helvetica,sans-Serif" font-size="10.00">void addToKeystore</text>
<text text-anchor="start" x="94.62" y="-234.5" font-family="Helvetica,sans-Serif" font-size="10.00">(final String alias,</text>
<text text-anchor="start" x="94.62" y="-222.5" font-family="Helvetica,sans-Serif" font-size="10.00"> final SecretKey secretKey)</text>
<text text-anchor="start" x="80" y="-206.5" font-family="Helvetica,sans-Serif" font-size="10.00">&#45;</text>
<text text-anchor="start" x="94.62" y="-206.5" font-family="Helvetica,sans-Serif" font-size="10.00">void createOrUpdateKeystore()</text>
<text text-anchor="start" x="80" y="-190.5" font-family="Helvetica,sans-Serif" font-size="10.00">&#45;</text>
<text text-anchor="start" x="94.62" y="-190.5" font-family="Helvetica,sans-Serif" font-size="10.00">void credentials(final</text>
<text text-anchor="start" x="94.62" y="-178.5" font-family="Helvetica,sans-Serif" font-size="10.00"> String alias)</text>
<text text-anchor="start" x="80" y="-162.5" font-family="Helvetica,sans-Serif" font-size="10.00">&#45;</text>
<text text-anchor="start" x="94.62" y="-162.5" font-family="Helvetica,sans-Serif" font-size="10.00">void getCredentials</text>
<text text-anchor="start" x="94.62" y="-150.5" font-family="Helvetica,sans-Serif" font-size="10.00">(final String alias)</text>
<text text-anchor="start" x="80" y="-134.5" font-family="Helvetica,sans-Serif" font-size="10.00">&#45;</text>
<text text-anchor="start" x="94.62" y="-134.5" font-family="Helvetica,sans-Serif" font-size="10.00">void loadKeyStore()</text>
<text text-anchor="start" x="80" y="-118.5" font-family="Helvetica,sans-Serif" font-size="10.00">&#45;</text>
<text text-anchor="start" x="94.62" y="-118.5" font-family="Helvetica,sans-Serif" font-size="10.00">void setCredentials</text>
<text text-anchor="start" x="94.62" y="-106.5" font-family="Helvetica,sans-Serif" font-size="10.00">(final String alias)</text>
<text text-anchor="start" x="80" y="-90.5" font-family="Helvetica,sans-Serif" font-size="10.00">&#45;</text>
<text text-anchor="start" x="94.62" y="-90.5" font-family="Helvetica,sans-Serif" font-size="10.00">void symmetricKey()</text>
<text text-anchor="start" x="80" y="-74.5" font-family="Helvetica,sans-Serif" font-size="10.00">&#45;</text>
<text text-anchor="start" x="94.62" y="-74.5" font-family="Helvetica,sans-Serif" font-size="10.00">void symmetricKeyIsInKeystore()</text>
<text text-anchor="start" x="80" y="-58.5" font-family="Helvetica,sans-Serif" font-size="10.00">&#45;</text>
<text text-anchor="start" x="94.62" y="-58.5" font-family="Helvetica,sans-Serif" font-size="10.00">void symmetricKeyNotInKeystore()</text>
<text text-anchor="start" x="80" y="-42.5" font-family="Helvetica,sans-Serif" font-size="10.00">&#45;</text>
<text text-anchor="start" x="94.62" y="-42.5" font-family="Helvetica,sans-Serif" font-size="10.00">static void writeTheKeystore</text>
<text text-anchor="start" x="94.62" y="-30.5" font-family="Helvetica,sans-Serif" font-size="10.00">(final KeyStore ks, final</text>
<text text-anchor="start" x="94.62" y="-18.5" font-family="Helvetica,sans-Serif" font-size="10.00"> String keystoreFileName,</text>
<text text-anchor="start" x="94.62" y="-6.5" font-family="Helvetica,sans-Serif" font-size="10.00"> final char[] pwdArray)</text>
<polygon fill="#666666" stroke="#666666" points="68.38,-734 68.38,-734 297.62,-734 297.62,-734 68.38,-734"/>
<polygon fill="#666666" stroke="#666666" points="68.38,-446 68.38,-446 92.62,-446 92.62,-446 68.38,-446"/>
<polygon fill="#666666" stroke="#666666" points="92.62,-446 92.62,-446 297.62,-446 297.62,-446 92.62,-446"/>
<polygon fill="none" stroke="#666666" points="68.38,0 68.38,-764 297.62,-764 297.62,0 68.38,0"/>
</a>
</g>
</g>
<!-- Node2 -->
<g id="Node000002" class="node">
<title>Node2</title>
<g id="a_Node000002"><a xlink:title=" ">
<polygon fill="white" stroke="none" points="50,-884 0,-884 0,-832 50,-832 50,-884"/>
<text text-anchor="start" x="4" y="-870.5" font-family="Helvetica,sans-Serif" font-size="10.00">IKeystore</text>
<text text-anchor="start" x="23.5" y="-854.5" font-family="Helvetica,sans-Serif" font-size="10.00"> </text>
<text text-anchor="start" x="23.5" y="-838.5" font-family="Helvetica,sans-Serif" font-size="10.00"> </text>
<polygon fill="#666666" stroke="#666666" points="0,-866 0,-866 50,-866 50,-866 0,-866"/>
<polygon fill="#666666" stroke="#666666" points="0,-850 0,-850 50,-850 50,-850 0,-850"/>
<polygon fill="none" stroke="#666666" points="0,-832 0,-884 50,-884 50,-832 0,-832"/>
</a>
</g>
</g>
<!-- Node2&#45;&gt;Node1 -->
<g id="edge1_Node000001_Node000002" class="edge">
<title>Node2&#45;&gt;Node1</title>
<g id="a_edge1_Node000001_Node000002"><a xlink:title=" ">
<path fill="none" stroke="#63b8ff" d="M36.83,-821.5C44.64,-798.07 55.75,-764.76 68.39,-726.83"/>
<polygon fill="none" stroke="#63b8ff" points="33.59,-820.15 33.75,-830.75 40.23,-822.37 33.59,-820.15"/>
</a>
</g>
</g>
<!-- Node3 -->
<g id="Node000003" class="node">
<title>Node3</title>
<g id="a_Node000003"><a xlink:href="classfr_1_1softsf_1_1sudokufx_1_1configuration_1_1database_1_1keystore_1_1_generate_secret.html" target="_top" xlink:title="Utility class for generating secure passwords using the Passay library.">
<polygon fill="white" stroke="none" points="297.62,-904 68.38,-904 68.38,-812 297.62,-812 297.62,-904"/>
<text text-anchor="start" x="72.38" y="-890.5" font-family="Helvetica,sans-Serif" font-size="10.00">fr.softsf.sudokufx.configuration.database.keystore.</text>
<text text-anchor="start" x="148.88" y="-878.5" font-family="Helvetica,sans-Serif" font-size="10.00">GenerateSecret</text>
<text text-anchor="start" x="181.5" y="-862.5" font-family="Helvetica,sans-Serif" font-size="10.00"> </text>
<text text-anchor="start" x="91.81" y="-846.5" font-family="Helvetica,sans-Serif" font-size="10.00">+</text>
<text text-anchor="start" x="121.25" y="-846.5" font-family="Helvetica,sans-Serif" font-size="10.00">String generatePassaySecret()</text>
<text text-anchor="start" x="93.31" y="-830.5" font-family="Helvetica,sans-Serif" font-size="10.00">&#45;</text>
<text text-anchor="start" x="121.25" y="-830.5" font-family="Helvetica,sans-Serif" font-size="10.00">static CharacterData</text>
<text text-anchor="start" x="121.25" y="-818.5" font-family="Helvetica,sans-Serif" font-size="10.00"> createSpecialChars()</text>
<polygon fill="#666666" stroke="#666666" points="68.38,-874 68.38,-874 297.62,-874 297.62,-874 68.38,-874"/>
<polygon fill="#666666" stroke="#666666" points="68.38,-858 68.38,-858 297.62,-858 297.62,-858 68.38,-858"/>
<polygon fill="none" stroke="#666666" points="68.38,-812 68.38,-904 297.62,-904 297.62,-812 68.38,-812"/>
</a>
</g>
</g>
<!-- Node3&#45;&gt;Node1 -->
<g id="edge2_Node000001_Node000003" class="edge">
<title>Node3&#45;&gt;Node1</title>
<g id="a_edge2_Node000001_Node000003"><a xlink:title=" ">
<path fill="none" stroke="#63b8ff" d="M183,-812.41C183,-801.93 183,-789.92 183,-776.75"/>
<polygon fill="none" stroke="#63b8ff" points="183,-776.67 179,-770.67 183,-764.67 187,-770.67 183,-776.67"/>
</a>
</g>
<text text-anchor="middle" x="219" y="-784.5" font-family="Helvetica,sans-Serif" font-size="10.00" fill="grey"> &#45;generateSecret</text>
</g>
<!-- Node4 -->
<g id="Node000004" class="node">
<title>Node4</title>
<g id="a_Node000004"><a xlink:href="interfacefr_1_1softsf_1_1sudokufx_1_1interfaces_1_1_i_os_folder_factory.html" target="_top" xlink:title="Interface defining methods to access OS&#45;specific folder paths.">
<polygon fill="white" stroke="none" points="462.5,-898 315.5,-898 315.5,-818 462.5,-818 462.5,-898"/>
<text text-anchor="start" x="326.38" y="-884.5" font-family="Helvetica,sans-Serif" font-size="10.00">fr.softsf.sudokufx.interfaces.</text>
<text text-anchor="start" x="351.12" y="-872.5" font-family="Helvetica,sans-Serif" font-size="10.00">IOsFolderFactory</text>
<text text-anchor="start" x="387.5" y="-856.5" font-family="Helvetica,sans-Serif" font-size="10.00"> </text>
<text text-anchor="start" x="319.5" y="-840.5" font-family="Helvetica,sans-Serif" font-size="10.00">+</text>
<text text-anchor="start" x="329.5" y="-840.5" font-family="Helvetica,sans-Serif" font-size="10.00">String getOsDataFolderPath()</text>
<text text-anchor="start" x="319.5" y="-824.5" font-family="Helvetica,sans-Serif" font-size="10.00">+</text>
<text text-anchor="start" x="329.5" y="-824.5" font-family="Helvetica,sans-Serif" font-size="10.00">String getOsLogsFolderPath()</text>
<polygon fill="#666666" stroke="#666666" points="315.5,-868 315.5,-868 462.5,-868 462.5,-868 315.5,-868"/>
<polygon fill="#666666" stroke="#666666" points="315.5,-852 315.5,-852 462.5,-852 462.5,-852 315.5,-852"/>
<polygon fill="none" stroke="#666666" points="315.5,-818 315.5,-898 462.5,-898 462.5,-818 315.5,-818"/>
</a>
</g>
</g>
<!-- Node4&#45;&gt;Node1 -->
<g id="edge3_Node000001_Node000004" class="edge">
<title>Node4&#45;&gt;Node1</title>
<g id="a_edge3_Node000001_Node000004"><a xlink:title=" ">
<path fill="none" stroke="#63b8ff" d="M372.14,-818.21C356.04,-781.16 330.22,-721.74 302.76,-658.57"/>
<polygon fill="none" stroke="#63b8ff" points="302.76,-658.57 296.7,-654.66 297.98,-647.56 304.04,-651.47 302.76,-658.57"/>
</a>
</g>
<text text-anchor="middle" x="399.6" y="-784.5" font-family="Helvetica,sans-Serif" font-size="10.00" fill="grey"> &#45;iOsFolderFactory</text>
</g>
</g>
</svg>
