<?xml version="1.0" encoding="UTF-8" standalone="no"?>
<!DOCTYPE svg PUBLIC "-//W3C//DTD SVG 1.1//EN"
 "http://www.w3.org/Graphics/SVG/1.1/DTD/svg11.dtd">
<!-- Generated by graphviz version 12.2.0 (20241103.1931)
 -->
<!-- Title: fr.softsf.sudokufx.configuration.database.DataSourceConfig Pages: 1 -->
<svg width="641pt" height="316pt"
 viewBox="0.00 0.00 640.75 316.00" xmlns="http://www.w3.org/2000/svg" xmlns:xlink="http://www.w3.org/1999/xlink">
<g id="graph0" class="graph" transform="scale(1 1) rotate(0) translate(4 312)">
<title>fr.softsf.sudokufx.configuration.database.DataSourceConfig</title>
<!-- Node1 -->
<g id="Node000001" class="node">
<title>Node1</title>
<g id="a_Node000001"><a xlink:title="Abstract configuration class for setting up the application&#39;s data source.">
<polygon fill="#999999" stroke="none" points="410.75,-308 222,-308 222,-124 410.75,-124 410.75,-308"/>
<text text-anchor="start" x="226" y="-294.5" font-family="Helvetica,sans-Serif" font-size="10.00">fr.softsf.sudokufx.configuration.database.</text>
<text text-anchor="start" x="276.25" y="-282.5" font-family="Helvetica,sans-Serif" font-size="10.00">DataSourceConfig</text>
<text text-anchor="start" x="230.25" y="-266.5" font-family="Helvetica,sans-Serif" font-size="10.00">&#45;</text>
<text text-anchor="start" x="241.5" y="-266.5" font-family="Helvetica,sans-Serif" font-size="10.00">String jdbcUrl</text>
<text text-anchor="start" x="230.25" y="-250.5" font-family="Helvetica,sans-Serif" font-size="10.00">&#45;</text>
<text text-anchor="start" x="241.5" y="-250.5" font-family="Helvetica,sans-Serif" font-size="10.00">String poolName</text>
<text text-anchor="start" x="228.75" y="-234.5" font-family="Helvetica,sans-Serif" font-size="10.00">~</text>
<text text-anchor="start" x="241.5" y="-234.5" font-family="Helvetica,sans-Serif" font-size="10.00">Flyway flyway(final</text>
<text text-anchor="start" x="241.5" y="-222.5" font-family="Helvetica,sans-Serif" font-size="10.00"> HikariDataSource hikariData</text>
<text text-anchor="start" x="241.5" y="-210.5" font-family="Helvetica,sans-Serif" font-size="10.00">Source)</text>
<text text-anchor="start" x="228.75" y="-194.5" font-family="Helvetica,sans-Serif" font-size="10.00">~</text>
<text text-anchor="start" x="241.5" y="-194.5" font-family="Helvetica,sans-Serif" font-size="10.00">HikariDataSource hikariData</text>
<text text-anchor="start" x="241.5" y="-182.5" font-family="Helvetica,sans-Serif" font-size="10.00">Source(final IKeystore iKeystore,</text>
<text text-anchor="start" x="241.5" y="-170.5" font-family="Helvetica,sans-Serif" font-size="10.00"> IOsFolderFactory iOsFolderFactory)</text>
<text text-anchor="start" x="228.75" y="-154.5" font-family="Helvetica,sans-Serif" font-size="10.00">~</text>
<text text-anchor="start" x="241.5" y="-154.5" font-family="Helvetica,sans-Serif" font-size="10.00">int logbackInitialization</text>
<text text-anchor="start" x="241.5" y="-142.5" font-family="Helvetica,sans-Serif" font-size="10.00">(final MyLogbackConfig</text>
<text text-anchor="start" x="241.5" y="-130.5" font-family="Helvetica,sans-Serif" font-size="10.00"> myLogbackConfig)</text>
<polygon fill="#666666" stroke="#666666" points="222,-278 222,-278 410.75,-278 410.75,-278 222,-278"/>
<polygon fill="#666666" stroke="#666666" points="222,-246 222,-246 239.5,-246 239.5,-246 222,-246"/>
<polygon fill="#666666" stroke="#666666" points="239.5,-246 239.5,-246 410.75,-246 410.75,-246 239.5,-246"/>
<polygon fill="none" stroke="#666666" points="222,-124 222,-308 410.75,-308 410.75,-124 222,-124"/>
</a>
</g>
</g>
<!-- Node2 -->
<g id="Node000002" class="node">
<title>Node2</title>
<g id="a_Node000002"><a xlink:href="classfr_1_1softsf_1_1sudokufx_1_1configuration_1_1database_1_1_data_source_config_cds.html" target="_top" xlink:title="Overrides Abstract DataSource hikariDataSource for the CDS profile.">
<polygon fill="white" stroke="none" points="198.75,-88 0,-88 0,0 198.75,0 198.75,-88"/>
<text text-anchor="start" x="9" y="-74.5" font-family="Helvetica,sans-Serif" font-size="10.00">fr.softsf.sudokufx.configuration.database.</text>
<text text-anchor="start" x="50.25" y="-62.5" font-family="Helvetica,sans-Serif" font-size="10.00">DataSourceConfigCds</text>
<text text-anchor="start" x="97.88" y="-46.5" font-family="Helvetica,sans-Serif" font-size="10.00"> </text>
<text text-anchor="start" x="4" y="-30.5" font-family="Helvetica,sans-Serif" font-size="10.00">~</text>
<text text-anchor="start" x="14" y="-30.5" font-family="Helvetica,sans-Serif" font-size="10.00">HikariDataSource hikariData</text>
<text text-anchor="start" x="14" y="-18.5" font-family="Helvetica,sans-Serif" font-size="10.00">Source(final IKeystore iKeystore,</text>
<text text-anchor="start" x="14" y="-6.5" font-family="Helvetica,sans-Serif" font-size="10.00"> final IOsFolderFactory iOsFolderFactory)</text>
<polygon fill="#666666" stroke="#666666" points="0,-58 0,-58 198.75,-58 198.75,-58 0,-58"/>
<polygon fill="#666666" stroke="#666666" points="0,-42 0,-42 198.75,-42 198.75,-42 0,-42"/>
<polygon fill="none" stroke="#666666" points="0,0 0,-88 198.75,-88 198.75,0 0,0"/>
</a>
</g>
</g>
<!-- Node1&#45;&gt;Node2 -->
<g id="edge1_Node000001_Node000002" class="edge">
<title>Node1&#45;&gt;Node2</title>
<g id="a_edge1_Node000001_Node000002"><a xlink:title=" ">
<path fill="none" stroke="#63b8ff" d="M213.13,-134.12C192.77,-118.16 172.16,-102.02 154.18,-87.93"/>
<polygon fill="none" stroke="#63b8ff" points="210.92,-136.83 220.95,-140.24 215.24,-131.32 210.92,-136.83"/>
</a>
</g>
</g>
<!-- Node3 -->
<g id="Node000003" class="node">
<title>Node3</title>
<g id="a_Node000003"><a xlink:href="classfr_1_1softsf_1_1sudokufx_1_1configuration_1_1database_1_1_data_source_config_default.html" target="_top" xlink:title="Overrides Abstract DataSource hikariDataSource for the default profile.">
<polygon fill="white" stroke="none" points="415.75,-88 217,-88 217,0 415.75,0 415.75,-88"/>
<text text-anchor="start" x="226" y="-74.5" font-family="Helvetica,sans-Serif" font-size="10.00">fr.softsf.sudokufx.configuration.database.</text>
<text text-anchor="start" x="260.5" y="-62.5" font-family="Helvetica,sans-Serif" font-size="10.00">DataSourceConfigDefault</text>
<text text-anchor="start" x="314.88" y="-46.5" font-family="Helvetica,sans-Serif" font-size="10.00"> </text>
<text text-anchor="start" x="221" y="-30.5" font-family="Helvetica,sans-Serif" font-size="10.00">~</text>
<text text-anchor="start" x="231" y="-30.5" font-family="Helvetica,sans-Serif" font-size="10.00">HikariDataSource hikariData</text>
<text text-anchor="start" x="231" y="-18.5" font-family="Helvetica,sans-Serif" font-size="10.00">Source(final IKeystore iKeystore,</text>
<text text-anchor="start" x="231" y="-6.5" font-family="Helvetica,sans-Serif" font-size="10.00"> final IOsFolderFactory iOsFolderFactory)</text>
<polygon fill="#666666" stroke="#666666" points="217,-58 217,-58 415.75,-58 415.75,-58 217,-58"/>
<polygon fill="#666666" stroke="#666666" points="217,-42 217,-42 415.75,-42 415.75,-42 217,-42"/>
<polygon fill="none" stroke="#666666" points="217,0 217,-88 415.75,-88 415.75,0 217,0"/>
</a>
</g>
</g>
<!-- Node1&#45;&gt;Node3 -->
<g id="edge2_Node000001_Node000003" class="edge">
<title>Node1&#45;&gt;Node3</title>
<g id="a_edge2_Node000001_Node000003"><a xlink:title=" ">
<path fill="none" stroke="#63b8ff" d="M316.38,-112.56C316.38,-103.93 316.38,-95.54 316.38,-87.79"/>
<polygon fill="none" stroke="#63b8ff" points="312.88,-112.51 316.38,-122.51 319.88,-112.51 312.88,-112.51"/>
</a>
</g>
</g>
<!-- Node4 -->
<g id="Node000004" class="node">
<title>Node4</title>
<g id="a_Node000004"><a xlink:href="classfr_1_1softsf_1_1sudokufx_1_1configuration_1_1database_1_1_data_source_config_test.html" target="_top" xlink:title="Overrides Abstract DataSource hikariDataSource for the test profile.">
<polygon fill="white" stroke="none" points="632.75,-88 434,-88 434,0 632.75,0 632.75,-88"/>
<text text-anchor="start" x="443" y="-74.5" font-family="Helvetica,sans-Serif" font-size="10.00">fr.softsf.sudokufx.configuration.database.</text>
<text text-anchor="start" x="483.88" y="-62.5" font-family="Helvetica,sans-Serif" font-size="10.00">DataSourceConfigTest</text>
<text text-anchor="start" x="531.88" y="-46.5" font-family="Helvetica,sans-Serif" font-size="10.00"> </text>
<text text-anchor="start" x="438" y="-30.5" font-family="Helvetica,sans-Serif" font-size="10.00">~</text>
<text text-anchor="start" x="448" y="-30.5" font-family="Helvetica,sans-Serif" font-size="10.00">HikariDataSource hikariData</text>
<text text-anchor="start" x="448" y="-18.5" font-family="Helvetica,sans-Serif" font-size="10.00">Source(final IKeystore iKeystore,</text>
<text text-anchor="start" x="448" y="-6.5" font-family="Helvetica,sans-Serif" font-size="10.00"> final IOsFolderFactory iOsFolderFactory)</text>
<polygon fill="#666666" stroke="#666666" points="434,-58 434,-58 632.75,-58 632.75,-58 434,-58"/>
<polygon fill="#666666" stroke="#666666" points="434,-42 434,-42 632.75,-42 632.75,-42 434,-42"/>
<polygon fill="none" stroke="#666666" points="434,0 434,-88 632.75,-88 632.75,0 434,0"/>
</a>
</g>
</g>
<!-- Node1&#45;&gt;Node4 -->
<g id="edge3_Node000001_Node000004" class="edge">
<title>Node1&#45;&gt;Node4</title>
<g id="a_edge3_Node000001_Node000004"><a xlink:title=" ">
<path fill="none" stroke="#63b8ff" d="M419.62,-134.12C439.98,-118.16 460.59,-102.02 478.57,-87.93"/>
<polygon fill="none" stroke="#63b8ff" points="417.51,-131.32 411.8,-140.24 421.83,-136.83 417.51,-131.32"/>
</a>
</g>
</g>
</g>
</svg>
