<?xml version="1.0" encoding="UTF-8" standalone="no"?>
<!DOCTYPE svg PUBLIC "-//W3C//DTD SVG 1.1//EN"
 "http://www.w3.org/Graphics/SVG/1.1/DTD/svg11.dtd">
<!-- Generated by graphviz version 12.2.0 (20241103.1931)
 -->
<!-- Title: fr.softsf.sudokufx.utils.database.configuration.DataSourceDefault Pages: 1 -->
<svg width="218pt" height="280pt"
 viewBox="0.00 0.00 217.75 280.00" xmlns="http://www.w3.org/2000/svg" xmlns:xlink="http://www.w3.org/1999/xlink">
<g id="graph0" class="graph" transform="scale(1 1) rotate(0) translate(4 276)">
<title>fr.softsf.sudokufx.utils.database.configuration.DataSourceDefault</title>
<!-- Node1 -->
<g id="Node000001" class="node">
<title>Node1</title>
<g id="a_Node000001"><a xlink:title="Overrides Abstract DataSource hikariDataSource for the default profile.">
<polygon fill="#999999" stroke="none" points="209.75,-76 0,-76 0,0 209.75,0 209.75,-76"/>
<text text-anchor="start" x="4" y="-62.5" font-family="Helvetica,sans-Serif" font-size="10.00">fr.softsf.sudokufx.utils.database.configuration.</text>
<text text-anchor="start" x="63.25" y="-50.5" font-family="Helvetica,sans-Serif" font-size="10.00">DataSourceDefault</text>
<text text-anchor="start" x="103.38" y="-34.5" font-family="Helvetica,sans-Serif" font-size="10.00"> </text>
<text text-anchor="start" x="15.94" y="-18.5" font-family="Helvetica,sans-Serif" font-size="10.00">~</text>
<text text-anchor="start" x="37.88" y="-18.5" font-family="Helvetica,sans-Serif" font-size="10.00">HikariDataSource hikariData</text>
<text text-anchor="start" x="37.88" y="-6.5" font-family="Helvetica,sans-Serif" font-size="10.00">Source(final IKeystore iKeystore)</text>
<polygon fill="#666666" stroke="#666666" points="0,-46 0,-46 209.75,-46 209.75,-46 0,-46"/>
<polygon fill="#666666" stroke="#666666" points="0,-30 0,-30 209.75,-30 209.75,-30 0,-30"/>
<polygon fill="none" stroke="#666666" points="0,0 0,-76 209.75,-76 209.75,0 0,0"/>
</a>
</g>
</g>
<!-- Node2 -->
<g id="Node000002" class="node">
<title>Node2</title>
<g id="a_Node000002"><a xlink:href="classfr_1_1softsf_1_1sudokufx_1_1utils_1_1database_1_1configuration_1_1_data_source.html" target="_top" xlink:title="Abstract configuration class for setting up the application&#39;s data source.">
<polygon fill="white" stroke="none" points="209.75,-272 0,-272 0,-112 209.75,-112 209.75,-272"/>
<text text-anchor="start" x="4" y="-258.5" font-family="Helvetica,sans-Serif" font-size="10.00">fr.softsf.sudokufx.utils.database.configuration.</text>
<text text-anchor="start" x="79" y="-246.5" font-family="Helvetica,sans-Serif" font-size="10.00">DataSource</text>
<text text-anchor="start" x="17.44" y="-230.5" font-family="Helvetica,sans-Serif" font-size="10.00">&#45;</text>
<text text-anchor="start" x="37.88" y="-230.5" font-family="Helvetica,sans-Serif" font-size="10.00">String jdbcUrl</text>
<text text-anchor="start" x="17.44" y="-214.5" font-family="Helvetica,sans-Serif" font-size="10.00">&#45;</text>
<text text-anchor="start" x="37.88" y="-214.5" font-family="Helvetica,sans-Serif" font-size="10.00">String poolName</text>
<text text-anchor="start" x="15.94" y="-198.5" font-family="Helvetica,sans-Serif" font-size="10.00">~</text>
<text text-anchor="start" x="37.88" y="-198.5" font-family="Helvetica,sans-Serif" font-size="10.00">Flyway flyway(final</text>
<text text-anchor="start" x="37.88" y="-186.5" font-family="Helvetica,sans-Serif" font-size="10.00"> HikariDataSource hikariData</text>
<text text-anchor="start" x="37.88" y="-174.5" font-family="Helvetica,sans-Serif" font-size="10.00">Source)</text>
<text text-anchor="start" x="15.94" y="-158.5" font-family="Helvetica,sans-Serif" font-size="10.00">~</text>
<text text-anchor="start" x="37.88" y="-158.5" font-family="Helvetica,sans-Serif" font-size="10.00">HikariDataSource hikariData</text>
<text text-anchor="start" x="37.88" y="-146.5" font-family="Helvetica,sans-Serif" font-size="10.00">Source(final IKeystore iKeystore)</text>
<text text-anchor="start" x="15.94" y="-130.5" font-family="Helvetica,sans-Serif" font-size="10.00">~</text>
<text text-anchor="start" x="37.88" y="-130.5" font-family="Helvetica,sans-Serif" font-size="10.00">int logbackInitialization</text>
<text text-anchor="start" x="37.88" y="-118.5" font-family="Helvetica,sans-Serif" font-size="10.00">(final MyLogback myLogback)</text>
<polygon fill="#666666" stroke="#666666" points="0,-242 0,-242 209.75,-242 209.75,-242 0,-242"/>
<polygon fill="#666666" stroke="#666666" points="0,-210 0,-210 35.88,-210 35.88,-210 0,-210"/>
<polygon fill="#666666" stroke="#666666" points="35.88,-210 35.88,-210 209.75,-210 209.75,-210 35.88,-210"/>
<polygon fill="none" stroke="#666666" points="0,-112 0,-272 209.75,-272 209.75,-112 0,-112"/>
</a>
</g>
</g>
<!-- Node2&#45;&gt;Node1 -->
<g id="edge1_Node000001_Node000002" class="edge">
<title>Node2&#45;&gt;Node1</title>
<g id="a_edge1_Node000001_Node000002"><a xlink:title=" ">
<path fill="none" stroke="#63b8ff" d="M104.88,-101.04C104.88,-92.2 104.88,-83.63 104.88,-75.82"/>
<polygon fill="none" stroke="#63b8ff" points="101.38,-100.82 104.88,-110.82 108.38,-100.82 101.38,-100.82"/>
</a>
</g>
</g>
</g>
</svg>
