<?xml version="1.0" encoding="UTF-8" standalone="no"?>
<!DOCTYPE svg PUBLIC "-//W3C//DTD SVG 1.1//EN"
 "http://www.w3.org/Graphics/SVG/1.1/DTD/svg11.dtd">
<!-- Generated by graphviz version 12.2.0 (20241103.1931)
 -->
<!-- Title: fr.softsf.sudofx2024.utils.database.keystore.ApplicationKeystore.symmetricKey Pages: 1 -->
<!--zoomable 90 -->

<svg id="main" version="1.1" xmlns="http://www.w3.org/2000/svg" xmlns:xlink="http://www.w3.org/1999/xlink" xml:space="preserve" onload="init(evt)">

<style type="text/css"><![CDATA[
.node, .edge {opacity: 0.7;}
.node.selected, .edge.selected {opacity: 1;}
.edge:hover path { stroke: red; }
.edge:hover polygon { stroke: red; fill: red; }
]]></style>

<defs>
  <circle id="rim" cx="0" cy="0" r="7"/>
  <circle id="rim2" cx="0" cy="0" r="3.5"/>
  <g id="zoomPlus">
    <use xlink:href="#rim" fill="#404040"><set attributeName="fill" to="#808080" begin="zoomplus.mouseover" end="zoomplus.mouseout"/></use>
    <path d="M-4,0h8M0,-4v8" fill="none" stroke="white" stroke-width="1.5" pointer-events="none"/>
  </g>
  <g id="zoomMin">
    <use xlink:href="#rim" fill="#404040"><set attributeName="fill" to="#808080" begin="zoomminus.mouseover" end="zoomminus.mouseout"/></use>
    <path d="M-4,0h8" fill="none" stroke="white" stroke-width="1.5" pointer-events="none"/>
  </g>
  <g id="arrowUp" transform="translate(30 24)">
    <use xlink:href="#rim"/>
    <path pointer-events="none" fill="none" stroke="white" stroke-width="1.5" d="M0,-3.0v7 M-2.5,-0.5L0,-3.0L2.5,-0.5"/>
  </g>
  <g id="arrowRight" transform="rotate(90) translate(36 -43)">
    <use xlink:href="#rim"/>
    <path pointer-events="none" fill="none" stroke="white" stroke-width="1.5" d="M0,-3.0v7 M-2.5,-0.5L0,-3.0L2.5,-0.5"/>
  </g>
  <g id="arrowDown" transform="rotate(180) translate(-30 -48)">
    <use xlink:href="#rim"/>
    <path pointer-events="none" fill="none" stroke="white" stroke-width="1.5" d="M0,-3.0v7 M-2.5,-0.5L0,-3.0L2.5,-0.5"/>
  </g>
  <g id="arrowLeft" transform="rotate(270) translate(-36 17)">
    <use xlink:href="#rim"/>
    <path pointer-events="none" fill="none" stroke="white" stroke-width="1.5" d="M0,-3.0v7 M-2.5,-0.5L0,-3.0L2.5,-0.5"/>
  </g>
  <g id="resetDef">
    <use xlink:href="#rim2" fill="#404040"><set attributeName="fill" to="#808080" begin="reset.mouseover" end="reset.mouseout"/></use>
  </g>
</defs>
<script type="application/ecmascript">
var viewWidth = 979;
var viewHeight = 90;
var sectionId = 'dynsection-7';
</script>
<script type="application/ecmascript" xlink:href="svg.min.js"/>
<svg id="graph" class="graph">
<g id="viewport">
<title>fr.softsf.sudofx2024.utils.database.keystore.ApplicationKeystore.symmetricKey</title>
<!-- Node1 -->
<g id="Node000001" class="node">
<title>Node1</title>
<g id="a_Node000001"><a xlink:title="Check the symmetric key presence.">
<polygon fill="#999999" stroke="#666666" points="210.25,-32 0,-32 0,0 210.25,0 210.25,-32"/>
<text text-anchor="start" x="8" y="-18.5" font-family="Helvetica,sans-Serif" font-size="10.00">fr.softsf.sudofx2024.utils.database.keystore.</text>
<text text-anchor="middle" x="105.12" y="-6.5" font-family="Helvetica,sans-Serif" font-size="10.00">ApplicationKeystore.symmetricKey</text>
</a>
</g>
</g>
<!-- Node2 -->
<g id="Node000002" class="node">
<title>Node2</title>
<g id="a_Node000002"><a xlink:href="classfr_1_1softsf_1_1sudofx2024_1_1utils_1_1database_1_1keystore_1_1_application_keystore.html#a952a6119cdb4303221ac9952f226990b" target="_top" xlink:title="Get the symmetric key and set encryption service.">
<polygon fill="white" stroke="#666666" points="474.5,-82 250,-82 250,-50 474.5,-50 474.5,-82"/>
<text text-anchor="start" x="258" y="-68.5" font-family="Helvetica,sans-Serif" font-size="10.00">fr.softsf.sudofx2024.utils.database.keystore.</text>
<text text-anchor="middle" x="362.25" y="-56.5" font-family="Helvetica,sans-Serif" font-size="10.00">ApplicationKeystore.symmetricKeyIsInKeystore</text>
</a>
</g>
</g>
<!-- Node1&#45;&gt;Node2 -->
<g id="edge1_Node000001_Node000002" class="edge">
<title>Node1&#45;&gt;Node2</title>
<g id="a_edge1_Node000001_Node000002"><a xlink:title=" ">
<path fill="none" stroke="#63b8ff" d="M190.02,-32.44C214.43,-37.23 241.28,-42.49 266.32,-47.4"/>
<polygon fill="#63b8ff" stroke="#63b8ff" points="265.34,-50.77 275.82,-49.26 266.68,-43.9 265.34,-50.77"/>
</a>
</g>
</g>
<!-- Node3 -->
<g id="Node000003" class="node">
<title>Node3</title>
<g id="a_Node000003"><a xlink:href="classfr_1_1softsf_1_1sudofx2024_1_1utils_1_1database_1_1keystore_1_1_application_keystore.html#a238bdbcd5ef6ad338b239542ab545009" target="_top" xlink:title="Set the symmetric key and set encryption service.">
<polygon fill="white" stroke="#666666" points="478.25,-32 246.25,-32 246.25,0 478.25,0 478.25,-32"/>
<text text-anchor="start" x="254.25" y="-18.5" font-family="Helvetica,sans-Serif" font-size="10.00">fr.softsf.sudofx2024.utils.database.keystore.</text>
<text text-anchor="middle" x="362.25" y="-6.5" font-family="Helvetica,sans-Serif" font-size="10.00">ApplicationKeystore.symmetricKeyNotInKeystore</text>
</a>
</g>
</g>
<!-- Node1&#45;&gt;Node3 -->
<g id="edge2_Node000001_Node000003" class="edge">
<title>Node1&#45;&gt;Node3</title>
<g id="a_edge2_Node000001_Node000003"><a xlink:title=" ">
<path fill="none" stroke="#63b8ff" d="M210.63,-9.35C218.58,-9.28 226.65,-9.25 234.72,-9.25"/>
<polygon fill="#63b8ff" stroke="#63b8ff" points="234.59,-12.75 244.6,-9.27 234.61,-5.75 234.59,-12.75"/>
</a>
</g>
</g>
<!-- Node3&#45;&gt;Node1 -->
<g id="edge5_Node000003_Node000001" class="edge">
<title>Node3&#45;&gt;Node1</title>
<g id="a_edge5_Node000003_Node000001"><a xlink:title=" ">
<path fill="none" stroke="#63b8ff" d="M246.11,-22.72C238.08,-22.76 229.98,-22.76 221.94,-22.72"/>
<polygon fill="#63b8ff" stroke="#63b8ff" points="222.17,-19.23 212.14,-22.66 222.12,-26.23 222.17,-19.23"/>
</a>
</g>
</g>
<!-- Node4 -->
<g id="Node000004" class="node">
<title>Node4</title>
<g id="a_Node000004"><a xlink:href="classfr_1_1softsf_1_1sudofx2024_1_1utils_1_1database_1_1keystore_1_1_application_keystore.html#a66b4511230a0a8390a1d43d6b7efbe21" target="_top" xlink:title="Add alias:secret in the Keystore.">
<polygon fill="white" stroke="#666666" points="724.5,-32 514.25,-32 514.25,0 724.5,0 724.5,-32"/>
<text text-anchor="start" x="522.25" y="-18.5" font-family="Helvetica,sans-Serif" font-size="10.00">fr.softsf.sudofx2024.utils.database.keystore.</text>
<text text-anchor="middle" x="619.38" y="-6.5" font-family="Helvetica,sans-Serif" font-size="10.00">ApplicationKeystore.addToKeystore</text>
</a>
</g>
</g>
<!-- Node3&#45;&gt;Node4 -->
<g id="edge3_Node000003_Node000004" class="edge">
<title>Node3&#45;&gt;Node4</title>
<g id="a_edge3_Node000003_Node000004"><a xlink:title=" ">
<path fill="none" stroke="#63b8ff" d="M478.5,-16C486.48,-16 494.54,-16 502.53,-16"/>
<polygon fill="#63b8ff" stroke="#63b8ff" points="502.26,-19.5 512.26,-16 502.26,-12.5 502.26,-19.5"/>
</a>
</g>
</g>
<!-- Node5 -->
<g id="Node000005" class="node">
<title>Node5</title>
<g id="a_Node000005"><a xlink:href="classfr_1_1softsf_1_1sudofx2024_1_1utils_1_1database_1_1keystore_1_1_application_keystore.html#abcb102074a1e953ef3fe4031145dbf9d" target="_top" xlink:title="Write data to the keystore file.">
<polygon fill="white" stroke="#666666" points="970.75,-32 760.5,-32 760.5,0 970.75,0 970.75,-32"/>
<text text-anchor="start" x="768.5" y="-18.5" font-family="Helvetica,sans-Serif" font-size="10.00">fr.softsf.sudofx2024.utils.database.keystore.</text>
<text text-anchor="middle" x="865.62" y="-6.5" font-family="Helvetica,sans-Serif" font-size="10.00">ApplicationKeystore.writeTheKeystore</text>
</a>
</g>
</g>
<!-- Node4&#45;&gt;Node5 -->
<g id="edge4_Node000004_Node000005" class="edge">
<title>Node4&#45;&gt;Node5</title>
<g id="a_edge4_Node000004_Node000005"><a xlink:title=" ">
<path fill="none" stroke="#63b8ff" d="M724.67,-16C732.69,-16 740.81,-16 748.9,-16"/>
<polygon fill="#63b8ff" stroke="#63b8ff" points="748.78,-19.5 758.78,-16 748.78,-12.5 748.78,-19.5"/>
</a>
</g>
</g>
</g>
</svg>

<g id="navigator" transform="translate(0 0)" fill="#404254">
  <rect fill="#f2f5e9" fill-opacity="0.5" stroke="#606060" stroke-width=".5" x="0" y="0" width="60" height="60"/>
  <use id="zoomplus" xlink:href="#zoomPlus" x="17" y="9" onmousedown="handleZoom(evt,'in')"/>
  <use id="zoomminus" xlink:href="#zoomMin" x="42" y="9" onmousedown="handleZoom(evt,'out')"/>
  <use id="reset" xlink:href="#resetDef" x="30" y="36" onmousedown="handleReset()"/>
   <use id="arrowup" xlink:href="#arrowUp" x="0" y="0" onmousedown="handlePan(0,-1)"/>
  <use id="arrowright" xlink:href="#arrowRight" x="0" y="0" onmousedown="handlePan(1,0)"/>
  <use id="arrowdown" xlink:href="#arrowDown" x="0" y="0" onmousedown="handlePan(0,1)"/>
  <use id="arrowleft" xlink:href="#arrowLeft" x="0" y="0" onmousedown="handlePan(-1,0)"/>
</g>
<svg viewBox="0 0 15 15" width="100%" height="30px" preserveAspectRatio="xMaxYMin meet">
 <g id="arrow_out" transform="scale(0.3 0.3)">
  <a xlink:href="classfr_1_1softsf_1_1sudofx2024_1_1utils_1_1database_1_1keystore_1_1_application_keystore_a689ef651e59f787115966dc6b164d575_cgraph_org.svg" target="_base">
   <rect id="button" ry="5" rx="5" y="6" x="6" height="38" width="38"
        fill="#f2f5e9" fill-opacity="0.5" stroke="#606060" stroke-width="1.0"/>
   <path id="arrow"
     d="M 11.500037,31.436501 C 11.940474,20.09759 22.043105,11.32322 32.158766,21.979434 L 37.068811,17.246167 C 37.068811,17.246167 37.088388,32 37.088388,32 L 22.160133,31.978069 C 22.160133,31.978069 26.997745,27.140456 26.997745,27.140456 C 18.528582,18.264221 13.291696,25.230495 11.500037,31.436501 z"
     style="fill:#404040;"/>
  </a>
 </g>
</svg>

<style type='text/css'>
<![CDATA[
[data-mouse-over-selected='false'] { opacity: 0.7; }
[data-mouse-over-selected='true']  { opacity: 1.0; }
]]>
</style>
<script type="application/ecmascript"><![CDATA[
document.addEventListener('DOMContentLoaded', (event) => {
  highlightEdges();
  highlightAdjacentNodes();
});
]]></script>
</svg>
