<?xml version="1.0" encoding="UTF-8" standalone="no"?>
<!DOCTYPE svg PUBLIC "-//W3C//DTD SVG 1.1//EN"
 "http://www.w3.org/Graphics/SVG/1.1/DTD/svg11.dtd">
<!-- Generated by graphviz version 12.2.1 (20241206.2353)
 -->
<!-- Title: fr.softsf.sudokufx.viewmodel.FullMenuViewModel Pages: 1 -->
<svg width="636pt" height="1013pt"
 viewBox="0.00 0.00 636.12 1013.00" xmlns="http://www.w3.org/2000/svg" xmlns:xlink="http://www.w3.org/1999/xlink">
<g id="graph0" class="graph" transform="scale(1 1) rotate(0) translate(4 1009)">
<title>fr.softsf.sudokufx.viewmodel.FullMenuViewModel</title>
<!-- Node1 -->
<g id="Node000001" class="node">
<title>Node1</title>
<g id="a_Node000001"><a xlink:title="FullMenuViewModel with business logic (not final)">
<polygon fill="#999999" stroke="none" points="469.5,-320 273,-320 273,0 469.5,0 469.5,-320"/>
<text text-anchor="start" x="306.75" y="-306.5" font-family="Helvetica,sans-Serif" font-size="10.00">fr.softsf.sudokufx.viewmodel.</text>
<text text-anchor="start" x="327.38" y="-294.5" font-family="Helvetica,sans-Serif" font-size="10.00">FullMenuViewModel</text>
<text text-anchor="start" x="278.5" y="-278.5" font-family="Helvetica,sans-Serif" font-size="10.00">&#45;</text>
<text text-anchor="start" x="287" y="-278.5" font-family="Helvetica,sans-Serif" font-size="10.00">final StringProperty</text>
<text text-anchor="start" x="287" y="-266.5" font-family="Helvetica,sans-Serif" font-size="10.00"> githubVersion</text>
<text text-anchor="start" x="278.5" y="-250.5" font-family="Helvetica,sans-Serif" font-size="10.00">&#45;</text>
<text text-anchor="start" x="287" y="-250.5" font-family="Helvetica,sans-Serif" font-size="10.00">final SimpleBooleanProperty</text>
<text text-anchor="start" x="287" y="-238.5" font-family="Helvetica,sans-Serif" font-size="10.00"> version</text>
<text text-anchor="start" x="278.5" y="-222.5" font-family="Helvetica,sans-Serif" font-size="10.00">&#45;</text>
<text text-anchor="start" x="287" y="-222.5" font-family="Helvetica,sans-Serif" font-size="10.00">StringProperty welcome</text>
<text text-anchor="start" x="277" y="-206.5" font-family="Helvetica,sans-Serif" font-size="10.00">+</text>
<text text-anchor="start" x="287" y="-206.5" font-family="Helvetica,sans-Serif" font-size="10.00">FullMenuViewModel</text>
<text text-anchor="start" x="287" y="-194.5" font-family="Helvetica,sans-Serif" font-size="10.00">(SoftwareService softwareService,</text>
<text text-anchor="start" x="287" y="-182.5" font-family="Helvetica,sans-Serif" font-size="10.00"> IGridMaster iGridMaster, VersionService</text>
<text text-anchor="start" x="287" y="-170.5" font-family="Helvetica,sans-Serif" font-size="10.00"> versionService)</text>
<text text-anchor="start" x="277" y="-154.5" font-family="Helvetica,sans-Serif" font-size="10.00">+</text>
<text text-anchor="start" x="287" y="-154.5" font-family="Helvetica,sans-Serif" font-size="10.00">ReadOnlyStringProperty</text>
<text text-anchor="start" x="287" y="-142.5" font-family="Helvetica,sans-Serif" font-size="10.00"> githubVersionProperty()</text>
<text text-anchor="start" x="277" y="-126.5" font-family="Helvetica,sans-Serif" font-size="10.00">+</text>
<text text-anchor="start" x="287" y="-126.5" font-family="Helvetica,sans-Serif" font-size="10.00">void test()</text>
<text text-anchor="start" x="277" y="-110.5" font-family="Helvetica,sans-Serif" font-size="10.00">+</text>
<text text-anchor="start" x="287" y="-110.5" font-family="Helvetica,sans-Serif" font-size="10.00">BooleanProperty versionProperty()</text>
<text text-anchor="start" x="277" y="-94.5" font-family="Helvetica,sans-Serif" font-size="10.00">+</text>
<text text-anchor="start" x="287" y="-94.5" font-family="Helvetica,sans-Serif" font-size="10.00">StringProperty welcomeProperty()</text>
<text text-anchor="start" x="278.5" y="-78.5" font-family="Helvetica,sans-Serif" font-size="10.00">&#45;</text>
<text text-anchor="start" x="287" y="-78.5" font-family="Helvetica,sans-Serif" font-size="10.00">void checkGitHubVersion()</text>
<text text-anchor="start" x="278.5" y="-62.5" font-family="Helvetica,sans-Serif" font-size="10.00">&#45;</text>
<text text-anchor="start" x="287" y="-62.5" font-family="Helvetica,sans-Serif" font-size="10.00">void createSoftware()</text>
<text text-anchor="start" x="278.5" y="-46.5" font-family="Helvetica,sans-Serif" font-size="10.00">&#45;</text>
<text text-anchor="start" x="287" y="-46.5" font-family="Helvetica,sans-Serif" font-size="10.00">void setWelcome(String</text>
<text text-anchor="start" x="287" y="-34.5" font-family="Helvetica,sans-Serif" font-size="10.00"> output)</text>
<text text-anchor="start" x="278.5" y="-18.5" font-family="Helvetica,sans-Serif" font-size="10.00">&#45;</text>
<text text-anchor="start" x="287" y="-18.5" font-family="Helvetica,sans-Serif" font-size="10.00">void updateSoftware</text>
<text text-anchor="start" x="287" y="-6.5" font-family="Helvetica,sans-Serif" font-size="10.00">(SoftwareDto softwareToUpdate)</text>
<polygon fill="#666666" stroke="#666666" points="273,-290 273,-290 469.5,-290 469.5,-290 273,-290"/>
<polygon fill="#666666" stroke="#666666" points="273,-218 273,-218 285,-218 285,-218 273,-218"/>
<polygon fill="#666666" stroke="#666666" points="285,-218 285,-218 469.5,-218 469.5,-218 285,-218"/>
<polygon fill="none" stroke="#666666" points="273,0 273,-320 469.5,-320 469.5,0 273,0"/>
</a>
</g>
</g>
<!-- Node2 -->
<g id="Node000002" class="node">
<title>Node2</title>
<g id="a_Node000002"><a xlink:href="classfr_1_1softsf_1_1sudokufx_1_1service_1_1_software_service.html" target="_top" xlink:title=" ">
<polygon fill="white" stroke="none" points="286.25,-632 130.25,-632 130.25,-488 286.25,-488 286.25,-632"/>
<text text-anchor="start" x="151.25" y="-618.5" font-family="Helvetica,sans-Serif" font-size="10.00">fr.softsf.sudokufx.service.</text>
<text text-anchor="start" x="172.25" y="-606.5" font-family="Helvetica,sans-Serif" font-size="10.00">SoftwareService</text>
<text text-anchor="start" x="206.75" y="-590.5" font-family="Helvetica,sans-Serif" font-size="10.00"> </text>
<text text-anchor="start" x="134.25" y="-574.5" font-family="Helvetica,sans-Serif" font-size="10.00">+</text>
<text text-anchor="start" x="144.25" y="-574.5" font-family="Helvetica,sans-Serif" font-size="10.00">SoftwareService(Software</text>
<text text-anchor="start" x="144.25" y="-562.5" font-family="Helvetica,sans-Serif" font-size="10.00">Repository softwareRepository)</text>
<text text-anchor="start" x="134.25" y="-546.5" font-family="Helvetica,sans-Serif" font-size="10.00">+</text>
<text text-anchor="start" x="144.25" y="-546.5" font-family="Helvetica,sans-Serif" font-size="10.00">Optional&lt; SoftwareDto</text>
<text text-anchor="start" x="144.25" y="-534.5" font-family="Helvetica,sans-Serif" font-size="10.00"> &gt; getSoftware()</text>
<text text-anchor="start" x="134.25" y="-518.5" font-family="Helvetica,sans-Serif" font-size="10.00">+</text>
<text text-anchor="start" x="144.25" y="-518.5" font-family="Helvetica,sans-Serif" font-size="10.00">Optional&lt; SoftwareDto</text>
<text text-anchor="start" x="144.25" y="-506.5" font-family="Helvetica,sans-Serif" font-size="10.00"> &gt; updateSoftware(SoftwareDto</text>
<text text-anchor="start" x="144.25" y="-494.5" font-family="Helvetica,sans-Serif" font-size="10.00"> softwareDto)</text>
<polygon fill="#666666" stroke="#666666" points="130.25,-602 130.25,-602 286.25,-602 286.25,-602 130.25,-602"/>
<polygon fill="#666666" stroke="#666666" points="130.25,-586 130.25,-586 286.25,-586 286.25,-586 130.25,-586"/>
<polygon fill="none" stroke="#666666" points="130.25,-488 130.25,-632 286.25,-632 286.25,-488 130.25,-488"/>
</a>
</g>
</g>
<!-- Node2&#45;&gt;Node1 -->
<g id="edge1_Node000001_Node000002" class="edge">
<title>Node2&#45;&gt;Node1</title>
<g id="a_edge1_Node000001_Node000002"><a xlink:title=" ">
<path fill="none" stroke="#63b8ff" d="M233.21,-488.34C248.97,-444.72 270.17,-387.77 290.75,-338 291.59,-335.96 292.44,-333.91 293.3,-331.86"/>
<polygon fill="none" stroke="#63b8ff" points="293.3,-331.87 291.95,-324.78 297.97,-320.81 299.32,-327.89 293.3,-331.87"/>
</a>
</g>
<text text-anchor="middle" x="329" y="-340.5" font-family="Helvetica,sans-Serif" font-size="10.00" fill="grey"> &#45;softwareService</text>
</g>
<!-- Node3 -->
<g id="Node000003" class="node">
<title>Node3</title>
<g id="a_Node000003"><a xlink:href="interfacefr_1_1softsf_1_1sudokufx_1_1interfaces_1_1mapper_1_1_i_software_mapper.html" target="_top" xlink:title="This interface defines methods for mapping objects of type Software to objects of type SoftwareDto an...">
<polygon fill="white" stroke="none" points="168.5,-904 0,-904 0,-800 168.5,-800 168.5,-904"/>
<text text-anchor="start" x="4" y="-890.5" font-family="Helvetica,sans-Serif" font-size="10.00">fr.softsf.sudokufx.interfaces.mapper.</text>
<text text-anchor="start" x="47.12" y="-878.5" font-family="Helvetica,sans-Serif" font-size="10.00">ISoftwareMapper</text>
<text text-anchor="start" x="82.75" y="-862.5" font-family="Helvetica,sans-Serif" font-size="10.00"> </text>
<text text-anchor="start" x="10.12" y="-846.5" font-family="Helvetica,sans-Serif" font-size="10.00">+</text>
<text text-anchor="start" x="26.25" y="-846.5" font-family="Helvetica,sans-Serif" font-size="10.00">Software mapSoftwareDtoTo</text>
<text text-anchor="start" x="26.25" y="-834.5" font-family="Helvetica,sans-Serif" font-size="10.00">Software(SoftwareDto dto)</text>
<text text-anchor="start" x="10.12" y="-818.5" font-family="Helvetica,sans-Serif" font-size="10.00">+</text>
<text text-anchor="start" x="26.25" y="-818.5" font-family="Helvetica,sans-Serif" font-size="10.00">SoftwareDto mapSoftwareTo</text>
<text text-anchor="start" x="26.25" y="-806.5" font-family="Helvetica,sans-Serif" font-size="10.00">Dto(Software software)</text>
<polygon fill="#666666" stroke="#666666" points="0,-874 0,-874 168.5,-874 168.5,-874 0,-874"/>
<polygon fill="#666666" stroke="#666666" points="0,-858 0,-858 168.5,-858 168.5,-858 0,-858"/>
<polygon fill="none" stroke="#666666" points="0,-800 0,-904 168.5,-904 168.5,-800 0,-800"/>
</a>
</g>
</g>
<!-- Node3&#45;&gt;Node2 -->
<g id="edge2_Node000002_Node000003" class="edge">
<title>Node3&#45;&gt;Node2</title>
<g id="a_edge2_Node000002_Node000003"><a xlink:title=" ">
<path fill="none" stroke="#63b8ff" d="M105.99,-800.15C124.45,-756.99 151.29,-694.22 172.84,-643.82"/>
<polygon fill="none" stroke="#63b8ff" points="172.84,-643.82 171.52,-636.73 177.56,-632.78 178.88,-639.87 172.84,-643.82"/>
</a>
</g>
<text text-anchor="middle" x="157.26" y="-772.5" font-family="Helvetica,sans-Serif" font-size="10.00" fill="grey"> &#45;iSoftwareMapper</text>
</g>
<!-- Node3&#45;&gt;Node3 -->
<g id="edge3_Node000003_Node000003" class="edge">
<title>Node3&#45;&gt;Node3</title>
<g id="a_edge3_Node000003_Node000003"><a xlink:title=" ">
<path fill="none" stroke="#63b8ff" d="M168.49,-863.58C179.33,-861.58 186.5,-857.71 186.5,-852 186.5,-848.87 184.36,-846.3 180.64,-844.29"/>
<polygon fill="none" stroke="#63b8ff" points="180.78,-844.33 173.85,-846.32 169.35,-840.69 176.28,-838.7 180.78,-844.33"/>
</a>
</g>
<text text-anchor="middle" x="216.5" y="-848.5" font-family="Helvetica,sans-Serif" font-size="10.00" fill="grey"> +INSTANCE</text>
</g>
<!-- Node4 -->
<g id="Node000004" class="node">
<title>Node4</title>
<g id="a_Node000004"><a xlink:href="interfacefr_1_1softsf_1_1sudokufx_1_1repository_1_1_software_repository.html" target="_top" xlink:title=" ">
<polygon fill="white" stroke="none" points="397.5,-890 265,-890 265,-814 397.5,-814 397.5,-890"/>
<text text-anchor="start" x="269" y="-876.5" font-family="Helvetica,sans-Serif" font-size="10.00">fr.softsf.sudokufx.repository.</text>
<text text-anchor="start" x="288.12" y="-864.5" font-family="Helvetica,sans-Serif" font-size="10.00">SoftwareRepository</text>
<text text-anchor="start" x="329.75" y="-848.5" font-family="Helvetica,sans-Serif" font-size="10.00"> </text>
<text text-anchor="start" x="274.56" y="-832.5" font-family="Helvetica,sans-Serif" font-size="10.00">+</text>
<text text-anchor="start" x="290.12" y="-832.5" font-family="Helvetica,sans-Serif" font-size="10.00">Optional&lt; Software</text>
<text text-anchor="start" x="290.12" y="-820.5" font-family="Helvetica,sans-Serif" font-size="10.00"> &gt; findFirstSoftware()</text>
<polygon fill="#666666" stroke="#666666" points="265,-860 265,-860 397.5,-860 397.5,-860 265,-860"/>
<polygon fill="#666666" stroke="#666666" points="265,-844 265,-844 397.5,-844 397.5,-844 265,-844"/>
<polygon fill="none" stroke="#666666" points="265,-814 265,-890 397.5,-890 397.5,-814 265,-814"/>
</a>
</g>
</g>
<!-- Node4&#45;&gt;Node2 -->
<g id="edge4_Node000002_Node000004" class="edge">
<title>Node4&#45;&gt;Node2</title>
<g id="a_edge4_Node000002_Node000004"><a xlink:title=" ">
<path fill="none" stroke="#63b8ff" d="M315.67,-814.27C297.57,-771.58 267.12,-699.81 243.26,-643.55"/>
<polygon fill="none" stroke="#63b8ff" points="243.31,-643.67 237.29,-639.71 238.63,-632.62 244.65,-636.58 243.31,-643.67"/>
</a>
</g>
<text text-anchor="middle" x="346.9" y="-772.5" font-family="Helvetica,sans-Serif" font-size="10.00" fill="grey"> &#45;softwareRepository</text>
</g>
<!-- Node5 -->
<g id="Node000005" class="node">
<title>Node5</title>
<g id="a_Node000005"><a xlink:title=" ">
<polygon fill="white" stroke="none" points="392.25,-1005 270.25,-1005 270.25,-941 392.25,-941 392.25,-1005"/>
<text text-anchor="start" x="274.25" y="-991.5" font-family="Helvetica,sans-Serif" font-size="10.00">JpaRepository&lt; Software,</text>
<text text-anchor="start" x="314.75" y="-979.5" font-family="Helvetica,sans-Serif" font-size="10.00"> Long &gt;</text>
<text text-anchor="start" x="329.75" y="-963.5" font-family="Helvetica,sans-Serif" font-size="10.00"> </text>
<text text-anchor="start" x="329.75" y="-947.5" font-family="Helvetica,sans-Serif" font-size="10.00"> </text>
<polygon fill="#666666" stroke="#666666" points="270.25,-975 270.25,-975 392.25,-975 392.25,-975 270.25,-975"/>
<polygon fill="#666666" stroke="#666666" points="270.25,-959 270.25,-959 392.25,-959 392.25,-959 270.25,-959"/>
<polygon fill="none" stroke="#666666" points="270.25,-941 270.25,-1005 392.25,-1005 392.25,-941 270.25,-941"/>
</a>
</g>
</g>
<!-- Node5&#45;&gt;Node4 -->
<g id="edge5_Node000004_Node000005" class="edge">
<title>Node5&#45;&gt;Node4</title>
<g id="a_edge5_Node000004_Node000005"><a xlink:title=" ">
<path fill="none" stroke="#63b8ff" d="M331.25,-929.91C331.25,-916.79 331.25,-902.44 331.25,-889.72"/>
<polygon fill="none" stroke="#63b8ff" points="327.75,-929.53 331.25,-939.53 334.75,-929.53 327.75,-929.53"/>
</a>
</g>
</g>
<!-- Node6 -->
<g id="Node000006" class="node">
<title>Node6</title>
<g id="a_Node000006"><a xlink:href="interfacefr_1_1softsf_1_1sudokufx_1_1interfaces_1_1_i_grid_master.html" target="_top" xlink:title="Interface defining methods to generate and solve Sudoku puzzles.">
<polygon fill="white" stroke="none" points="437.88,-612 304.62,-612 304.62,-508 437.88,-508 437.88,-612"/>
<text text-anchor="start" x="308.62" y="-598.5" font-family="Helvetica,sans-Serif" font-size="10.00">fr.softsf.sudokufx.interfaces.</text>
<text text-anchor="start" x="345.75" y="-586.5" font-family="Helvetica,sans-Serif" font-size="10.00">IGridMaster</text>
<text text-anchor="start" x="369.75" y="-570.5" font-family="Helvetica,sans-Serif" font-size="10.00"> </text>
<text text-anchor="start" x="314.75" y="-554.5" font-family="Helvetica,sans-Serif" font-size="10.00">+</text>
<text text-anchor="start" x="330.88" y="-554.5" font-family="Helvetica,sans-Serif" font-size="10.00">int[][] creerLesGrilles</text>
<text text-anchor="start" x="330.88" y="-542.5" font-family="Helvetica,sans-Serif" font-size="10.00">(final int niveau)</text>
<text text-anchor="start" x="314.75" y="-526.5" font-family="Helvetica,sans-Serif" font-size="10.00">+</text>
<text text-anchor="start" x="330.88" y="-526.5" font-family="Helvetica,sans-Serif" font-size="10.00">int resoudreLaGrille</text>
<text text-anchor="start" x="330.88" y="-514.5" font-family="Helvetica,sans-Serif" font-size="10.00">(final int[] grille)</text>
<polygon fill="#666666" stroke="#666666" points="304.62,-582 304.62,-582 437.88,-582 437.88,-582 304.62,-582"/>
<polygon fill="#666666" stroke="#666666" points="304.62,-566 304.62,-566 437.88,-566 437.88,-566 304.62,-566"/>
<polygon fill="none" stroke="#666666" points="304.62,-508 304.62,-612 437.88,-612 437.88,-508 304.62,-508"/>
</a>
</g>
</g>
<!-- Node6&#45;&gt;Node1 -->
<g id="edge6_Node000001_Node000006" class="edge">
<title>Node6&#45;&gt;Node1</title>
<g id="a_edge6_Node000001_Node000006"><a xlink:title=" ">
<path fill="none" stroke="#63b8ff" d="M371.25,-508.19C371.25,-463.59 371.25,-396.09 371.25,-332.42"/>
<polygon fill="none" stroke="#63b8ff" points="371.25,-332.65 367.25,-326.65 371.25,-320.65 375.25,-326.65 371.25,-332.65"/>
</a>
</g>
<text text-anchor="middle" x="399.38" y="-340.5" font-family="Helvetica,sans-Serif" font-size="10.00" fill="grey"> &#45;iGridMaster</text>
</g>
<!-- Node7 -->
<g id="Node000007" class="node">
<title>Node7</title>
<g id="a_Node000007"><a xlink:href="classfr_1_1softsf_1_1sudokufx_1_1service_1_1_version_service.html" target="_top" xlink:title="Service for checking if the application version is up to date by querying GitHub.">
<polygon fill="white" stroke="none" points="628.12,-752 456.38,-752 456.38,-368 628.12,-368 628.12,-752"/>
<text text-anchor="start" x="485.25" y="-738.5" font-family="Helvetica,sans-Serif" font-size="10.00">fr.softsf.sudokufx.service.</text>
<text text-anchor="start" x="509.62" y="-726.5" font-family="Helvetica,sans-Serif" font-size="10.00">VersionService</text>
<text text-anchor="start" x="461.88" y="-710.5" font-family="Helvetica,sans-Serif" font-size="10.00">&#45;</text>
<text text-anchor="start" x="470.38" y="-710.5" font-family="Helvetica,sans-Serif" font-size="10.00">final String currentVersion</text>
<text text-anchor="start" x="461.88" y="-694.5" font-family="Helvetica,sans-Serif" font-size="10.00">&#45;</text>
<text text-anchor="start" x="470.38" y="-694.5" font-family="Helvetica,sans-Serif" font-size="10.00">final HttpClient httpClient</text>
<text text-anchor="start" x="461.88" y="-678.5" font-family="Helvetica,sans-Serif" font-size="10.00">&#45;</text>
<text text-anchor="start" x="470.38" y="-678.5" font-family="Helvetica,sans-Serif" font-size="10.00">static final String</text>
<text text-anchor="start" x="470.38" y="-666.5" font-family="Helvetica,sans-Serif" font-size="10.00"> GITHUB_API_URL</text>
<text text-anchor="start" x="461.88" y="-650.5" font-family="Helvetica,sans-Serif" font-size="10.00">&#45;</text>
<text text-anchor="start" x="470.38" y="-650.5" font-family="Helvetica,sans-Serif" font-size="10.00">static final String</text>
<text text-anchor="start" x="470.38" y="-638.5" font-family="Helvetica,sans-Serif" font-size="10.00"> GITHUB_API_URL_REPO_TAGS</text>
<text text-anchor="start" x="461.88" y="-622.5" font-family="Helvetica,sans-Serif" font-size="10.00">&#45;</text>
<text text-anchor="start" x="470.38" y="-622.5" font-family="Helvetica,sans-Serif" font-size="10.00">static final String</text>
<text text-anchor="start" x="470.38" y="-610.5" font-family="Helvetica,sans-Serif" font-size="10.00"> GITHUB_URL</text>
<text text-anchor="start" x="461.88" y="-594.5" font-family="Helvetica,sans-Serif" font-size="10.00">&#45;</text>
<text text-anchor="start" x="470.38" y="-594.5" font-family="Helvetica,sans-Serif" font-size="10.00">static final ObjectMapper</text>
<text text-anchor="start" x="470.38" y="-582.5" font-family="Helvetica,sans-Serif" font-size="10.00"> OBJECT_MAPPER</text>
<text text-anchor="start" x="461.88" y="-566.5" font-family="Helvetica,sans-Serif" font-size="10.00">&#45;</text>
<text text-anchor="start" x="470.38" y="-566.5" font-family="Helvetica,sans-Serif" font-size="10.00">static final String</text>
<text text-anchor="start" x="470.38" y="-554.5" font-family="Helvetica,sans-Serif" font-size="10.00"> OWNER</text>
<text text-anchor="start" x="461.88" y="-538.5" font-family="Helvetica,sans-Serif" font-size="10.00">&#45;</text>
<text text-anchor="start" x="470.38" y="-538.5" font-family="Helvetica,sans-Serif" font-size="10.00">static final String REPO</text>
<text text-anchor="start" x="460.38" y="-522.5" font-family="Helvetica,sans-Serif" font-size="10.00">+</text>
<text text-anchor="start" x="470.38" y="-522.5" font-family="Helvetica,sans-Serif" font-size="10.00">VersionService(HttpClient</text>
<text text-anchor="start" x="470.38" y="-510.5" font-family="Helvetica,sans-Serif" font-size="10.00"> httpClient, MyDateTime</text>
<text text-anchor="start" x="470.38" y="-498.5" font-family="Helvetica,sans-Serif" font-size="10.00"> myDateTime)</text>
<text text-anchor="start" x="460.38" y="-482.5" font-family="Helvetica,sans-Serif" font-size="10.00">+</text>
<text text-anchor="start" x="470.38" y="-482.5" font-family="Helvetica,sans-Serif" font-size="10.00">Task&lt; Boolean &gt; checkLatest</text>
<text text-anchor="start" x="470.38" y="-470.5" font-family="Helvetica,sans-Serif" font-size="10.00">Version()</text>
<text text-anchor="start" x="460.38" y="-454.5" font-family="Helvetica,sans-Serif" font-size="10.00">+</text>
<text text-anchor="start" x="470.38" y="-454.5" font-family="Helvetica,sans-Serif" font-size="10.00">String getGitHubLinkToRepository</text>
<text text-anchor="start" x="470.38" y="-442.5" font-family="Helvetica,sans-Serif" font-size="10.00">Releases()</text>
<text text-anchor="start" x="461.88" y="-426.5" font-family="Helvetica,sans-Serif" font-size="10.00">&#45;</text>
<text text-anchor="start" x="470.38" y="-426.5" font-family="Helvetica,sans-Serif" font-size="10.00">int compareVersions</text>
<text text-anchor="start" x="470.38" y="-414.5" font-family="Helvetica,sans-Serif" font-size="10.00">(final String version1,</text>
<text text-anchor="start" x="470.38" y="-402.5" font-family="Helvetica,sans-Serif" font-size="10.00"> final String version2)</text>
<text text-anchor="start" x="461.88" y="-386.5" font-family="Helvetica,sans-Serif" font-size="10.00">&#45;</text>
<text text-anchor="start" x="470.38" y="-386.5" font-family="Helvetica,sans-Serif" font-size="10.00">boolean parseResponse</text>
<text text-anchor="start" x="470.38" y="-374.5" font-family="Helvetica,sans-Serif" font-size="10.00">(String json)</text>
<polygon fill="#666666" stroke="#666666" points="456.38,-722 456.38,-722 628.12,-722 628.12,-722 456.38,-722"/>
<polygon fill="#666666" stroke="#666666" points="456.38,-534 456.38,-534 468.38,-534 468.38,-534 456.38,-534"/>
<polygon fill="#666666" stroke="#666666" points="468.38,-534 468.38,-534 628.12,-534 628.12,-534 468.38,-534"/>
<polygon fill="none" stroke="#666666" points="456.38,-368 456.38,-752 628.12,-752 628.12,-368 456.38,-368"/>
</a>
</g>
</g>
<!-- Node7&#45;&gt;Node1 -->
<g id="edge7_Node000001_Node000007" class="edge">
<title>Node7&#45;&gt;Node1</title>
<g id="a_edge7_Node000001_Node000007"><a xlink:title=" ">
<path fill="none" stroke="#63b8ff" d="M460.26,-368.16C455.05,-356.04 449.82,-343.88 444.66,-331.86"/>
<polygon fill="none" stroke="#63b8ff" points="444.61,-331.75 438.57,-327.81 439.87,-320.72 445.92,-324.65 444.61,-331.75"/>
</a>
</g>
<text text-anchor="middle" x="486.87" y="-340.5" font-family="Helvetica,sans-Serif" font-size="10.00" fill="grey"> &#45;versionService</text>
</g>
<!-- Node8 -->
<g id="Node000008" class="node">
<title>Node8</title>
<g id="a_Node000008"><a xlink:href="classfr_1_1softsf_1_1sudokufx_1_1utils_1_1_my_date_time.html" target="_top" xlink:title="Utility class for working with date and time.">
<polygon fill="white" stroke="none" points="617.62,-896 466.88,-896 466.88,-808 617.62,-808 617.62,-896"/>
<text text-anchor="start" x="492" y="-882.5" font-family="Helvetica,sans-Serif" font-size="10.00">fr.softsf.sudokufx.utils.</text>
<text text-anchor="start" x="514.12" y="-870.5" font-family="Helvetica,sans-Serif" font-size="10.00">MyDateTime</text>
<text text-anchor="start" x="472.38" y="-854.5" font-family="Helvetica,sans-Serif" font-size="10.00">&#45;</text>
<text text-anchor="start" x="480.88" y="-854.5" font-family="Helvetica,sans-Serif" font-size="10.00">static final DateTimeFormatter</text>
<text text-anchor="start" x="480.88" y="-842.5" font-family="Helvetica,sans-Serif" font-size="10.00"> TIME_FORMATTER</text>
<text text-anchor="start" x="470.88" y="-826.5" font-family="Helvetica,sans-Serif" font-size="10.00">+</text>
<text text-anchor="start" x="480.88" y="-826.5" font-family="Helvetica,sans-Serif" font-size="10.00">String getFormattedCurrent</text>
<text text-anchor="start" x="480.88" y="-814.5" font-family="Helvetica,sans-Serif" font-size="10.00">Time()</text>
<polygon fill="#666666" stroke="#666666" points="466.88,-866 466.88,-866 617.62,-866 617.62,-866 466.88,-866"/>
<polygon fill="#666666" stroke="#666666" points="466.88,-838 466.88,-838 478.88,-838 478.88,-838 466.88,-838"/>
<polygon fill="#666666" stroke="#666666" points="478.88,-838 478.88,-838 617.62,-838 617.62,-838 478.88,-838"/>
<polygon fill="none" stroke="#666666" points="466.88,-808 466.88,-896 617.62,-896 617.62,-808 466.88,-808"/>
</a>
</g>
</g>
<!-- Node8&#45;&gt;Node7 -->
<g id="edge8_Node000007_Node000008" class="edge">
<title>Node8&#45;&gt;Node7</title>
<g id="a_edge8_Node000007_Node000008"><a xlink:title=" ">
<path fill="none" stroke="#63b8ff" d="M542.25,-808.21C542.25,-795.53 542.25,-780.73 542.25,-764.78"/>
<polygon fill="none" stroke="#63b8ff" points="542.25,-764.67 538.25,-758.67 542.25,-752.67 546.25,-758.67 542.25,-764.67"/>
</a>
</g>
<text text-anchor="middle" x="573.38" y="-772.5" font-family="Helvetica,sans-Serif" font-size="10.00" fill="grey"> &#45;myDateTime</text>
</g>
</g>
</svg>
