<?xml version="1.0" encoding="UTF-8" standalone="no"?>
<!DOCTYPE svg PUBLIC "-//W3C//DTD SVG 1.1//EN"
 "http://www.w3.org/Graphics/SVG/1.1/DTD/svg11.dtd">
<!-- Generated by graphviz version 12.2.1 (20241206.2353)
 -->
<!-- Title: fr.softsf.sudokufx.utils.sudoku.GridMaster.genererLaGrilleAResoudre Pages: 1 -->
<!--zoomable 164 -->

<svg id="main" version="1.1" xmlns="http://www.w3.org/2000/svg" xmlns:xlink="http://www.w3.org/1999/xlink" xml:space="preserve" onload="init(evt)">

<style type="text/css"><![CDATA[
.node, .edge {opacity: 0.7;}
.node.selected, .edge.selected {opacity: 1;}
.edge:hover path { stroke: red; }
.edge:hover polygon { stroke: red; fill: red; }
]]></style>

<defs>
  <circle id="rim" cx="0" cy="0" r="7"/>
  <circle id="rim2" cx="0" cy="0" r="3.5"/>
  <g id="zoomPlus">
    <use xlink:href="#rim" fill="#404040"><set attributeName="fill" to="#808080" begin="zoomplus.mouseover" end="zoomplus.mouseout"/></use>
    <path d="M-4,0h8M0,-4v8" fill="none" stroke="white" stroke-width="1.5" pointer-events="none"/>
  </g>
  <g id="zoomMin">
    <use xlink:href="#rim" fill="#404040"><set attributeName="fill" to="#808080" begin="zoomminus.mouseover" end="zoomminus.mouseout"/></use>
    <path d="M-4,0h8" fill="none" stroke="white" stroke-width="1.5" pointer-events="none"/>
  </g>
  <g id="arrowUp" transform="translate(30 24)">
    <use xlink:href="#rim"/>
    <path pointer-events="none" fill="none" stroke="white" stroke-width="1.5" d="M0,-3.0v7 M-2.5,-0.5L0,-3.0L2.5,-0.5"/>
  </g>
  <g id="arrowRight" transform="rotate(90) translate(36 -43)">
    <use xlink:href="#rim"/>
    <path pointer-events="none" fill="none" stroke="white" stroke-width="1.5" d="M0,-3.0v7 M-2.5,-0.5L0,-3.0L2.5,-0.5"/>
  </g>
  <g id="arrowDown" transform="rotate(180) translate(-30 -48)">
    <use xlink:href="#rim"/>
    <path pointer-events="none" fill="none" stroke="white" stroke-width="1.5" d="M0,-3.0v7 M-2.5,-0.5L0,-3.0L2.5,-0.5"/>
  </g>
  <g id="arrowLeft" transform="rotate(270) translate(-36 17)">
    <use xlink:href="#rim"/>
    <path pointer-events="none" fill="none" stroke="white" stroke-width="1.5" d="M0,-3.0v7 M-2.5,-0.5L0,-3.0L2.5,-0.5"/>
  </g>
  <g id="resetDef">
    <use xlink:href="#rim2" fill="#404040"><set attributeName="fill" to="#808080" begin="reset.mouseover" end="reset.mouseout"/></use>
  </g>
</defs>
<script type="application/ecmascript">
var viewWidth = 1313;
var viewHeight = 164;
var sectionId = 'dynsection-4';
</script>
<script type="application/ecmascript" xlink:href="svg.min.js"/>
<svg id="graph" class="graph">
<g id="viewport">
<title>fr.softsf.sudokufx.utils.sudoku.GridMaster.genererLaGrilleAResoudre</title>
<!-- Node1 -->
<g id="Node000001" class="node">
<title>Node1</title>
<g id="a_Node000001"><a xlink:title="Génère une grille de Sudoku à résoudre en masquant des cases selon le niveau de difficulté.">
<polygon fill="#999999" stroke="#666666" points="181,-94 0,-94 0,-62 181,-62 181,-94"/>
<text text-anchor="start" x="8" y="-80.5" font-family="Helvetica,sans-Serif" font-size="10.00">fr.softsf.sudokufx.utils.sudoku.</text>
<text text-anchor="middle" x="90.5" y="-68.5" font-family="Helvetica,sans-Serif" font-size="10.00">GridMaster.genererLaGrilleAResoudre</text>
</a>
</g>
</g>
<!-- Node2 -->
<g id="Node000002" class="node">
<title>Node2</title>
<g id="a_Node000002"><a xlink:href="classfr_1_1softsf_1_1sudokufx_1_1utils_1_1sudoku_1_1_grid_master.html#a5a6f84fdb0becec787f87d0f11ce1b07" target="_top" xlink:title="Génère une grille de Sudoku de niveau difficile (sinon une grille par défaut est retournée après une ...">
<polygon fill="white" stroke="#666666" points="429.88,-156 232.38,-156 232.38,-112 429.88,-112 429.88,-156"/>
<text text-anchor="start" x="240.38" y="-142.5" font-family="Helvetica,sans-Serif" font-size="10.00">fr.softsf.sudokufx.utils.sudoku.</text>
<text text-anchor="start" x="240.38" y="-130.5" font-family="Helvetica,sans-Serif" font-size="10.00">GridMaster.getPossibilitesGrilleAresoudre</text>
<text text-anchor="middle" x="331.12" y="-118.5" font-family="Helvetica,sans-Serif" font-size="10.00">Difficile</text>
</a>
</g>
</g>
<!-- Node1&#45;&gt;Node2 -->
<g id="edge1_Node000001_Node000002" class="edge">
<title>Node1&#45;&gt;Node2</title>
<g id="a_edge1_Node000001_Node000002"><a xlink:title=" ">
<path fill="none" stroke="#63b8ff" d="M161.8,-94.5C181.15,-99.04 202.57,-104.07 223.47,-108.97"/>
<polygon fill="#63b8ff" stroke="#63b8ff" points="222.67,-112.38 233.2,-111.25 224.27,-105.56 222.67,-112.38"/>
</a>
</g>
</g>
<!-- Node11 -->
<g id="Node000011" class="node">
<title>Node11</title>
<g id="a_Node000011"><a xlink:href="classfr_1_1softsf_1_1sudokufx_1_1utils_1_1sudoku_1_1_grid_master.html#ad37a10f9784efa27bdcaa13b7cb10de6" target="_top" xlink:title="Génère une grille de Sudoku de niveau facile (sinon une grille par défaut est retournée après une sec...">
<polygon fill="white" stroke="#666666" points="445.25,-94 217,-94 217,-62 445.25,-62 445.25,-94"/>
<text text-anchor="start" x="225" y="-80.5" font-family="Helvetica,sans-Serif" font-size="10.00">fr.softsf.sudokufx.utils.sudoku.</text>
<text text-anchor="middle" x="331.12" y="-68.5" font-family="Helvetica,sans-Serif" font-size="10.00">GridMaster.getPossibilitesGrilleAResoudreFacile</text>
</a>
</g>
</g>
<!-- Node1&#45;&gt;Node11 -->
<g id="edge10_Node000001_Node000011" class="edge">
<title>Node1&#45;&gt;Node11</title>
<g id="a_edge10_Node000001_Node000011"><a xlink:title=" ">
<path fill="none" stroke="#63b8ff" d="M181.37,-78C189.19,-78 197.18,-78 205.2,-78"/>
<polygon fill="#63b8ff" stroke="#63b8ff" points="205.04,-81.5 215.04,-78 205.04,-74.5 205.04,-81.5"/>
</a>
</g>
</g>
<!-- Node12 -->
<g id="Node000012" class="node">
<title>Node12</title>
<g id="a_Node000012"><a xlink:href="classfr_1_1softsf_1_1sudokufx_1_1utils_1_1sudoku_1_1_grid_master.html#ac77d16b1a583a51dc5770fc275222d8f" target="_top" xlink:title="Génère une grille de Sudoku de niveau moyen (sinon une grille par défaut est retournée après une seco...">
<polygon fill="white" stroke="#666666" points="432.12,-44 230.12,-44 230.12,0 432.12,0 432.12,-44"/>
<text text-anchor="start" x="238.12" y="-30.5" font-family="Helvetica,sans-Serif" font-size="10.00">fr.softsf.sudokufx.utils.sudoku.</text>
<text text-anchor="start" x="238.12" y="-18.5" font-family="Helvetica,sans-Serif" font-size="10.00">GridMaster.getPossibilitesGrilleAResoudre</text>
<text text-anchor="middle" x="331.12" y="-6.5" font-family="Helvetica,sans-Serif" font-size="10.00">Moyenne</text>
</a>
</g>
</g>
<!-- Node1&#45;&gt;Node12 -->
<g id="edge14_Node000001_Node000012" class="edge">
<title>Node1&#45;&gt;Node12</title>
<g id="a_edge14_Node000001_Node000012"><a xlink:title=" ">
<path fill="none" stroke="#63b8ff" d="M161.8,-61.5C181.15,-56.96 202.57,-51.93 223.47,-47.03"/>
<polygon fill="#63b8ff" stroke="#63b8ff" points="224.27,-50.44 233.2,-44.75 222.67,-43.62 224.27,-50.44"/>
</a>
</g>
</g>
<!-- Node3 -->
<g id="Node000003" class="node">
<title>Node3</title>
<g id="a_Node000003"><a xlink:href="classfr_1_1softsf_1_1sudokufx_1_1utils_1_1sudoku_1_1_grid_master.html#a7cd9c1114c0d87a5341aedac86f6407a" target="_top" xlink:title="Calcule la durée de temps écoulé entre la dernière et la nouvelle demande de grille en millisecondes.">
<polygon fill="white" stroke="#666666" points="654.75,-144 503.75,-144 503.75,-112 654.75,-112 654.75,-144"/>
<text text-anchor="start" x="511.75" y="-130.5" font-family="Helvetica,sans-Serif" font-size="10.00">fr.softsf.sudokufx.utils.sudoku.</text>
<text text-anchor="middle" x="579.25" y="-118.5" font-family="Helvetica,sans-Serif" font-size="10.00">GridMaster.dureeEnMs</text>
</a>
</g>
</g>
<!-- Node2&#45;&gt;Node3 -->
<g id="edge2_Node000002_Node000003" class="edge">
<title>Node2&#45;&gt;Node3</title>
<g id="a_edge2_Node000002_Node000003"><a xlink:title=" ">
<path fill="none" stroke="#63b8ff" d="M430.11,-131.61C450.6,-131.11 472.06,-130.59 492.08,-130.1"/>
<polygon fill="#63b8ff" stroke="#63b8ff" points="491.94,-133.61 501.85,-129.86 491.77,-126.61 491.94,-133.61"/>
</a>
</g>
</g>
<!-- Node4 -->
<g id="Node000004" class="node">
<title>Node4</title>
<g id="a_Node000004"><a xlink:href="classfr_1_1softsf_1_1sudokufx_1_1utils_1_1sudoku_1_1_grid_master.html#a87c5a8d088aaceea8e0ca03806e30bcf" target="_top" xlink:title="Masque des cases dans la grille et calcule la somme des possibilités restantes.">
<polygon fill="white" stroke="#666666" points="677.25,-94 481.25,-94 481.25,-62 677.25,-62 677.25,-94"/>
<text text-anchor="start" x="489.25" y="-80.5" font-family="Helvetica,sans-Serif" font-size="10.00">fr.softsf.sudokufx.utils.sudoku.</text>
<text text-anchor="middle" x="579.25" y="-68.5" font-family="Helvetica,sans-Serif" font-size="10.00">GridMaster.getPossibilitesGrilleWhileNok</text>
</a>
</g>
</g>
<!-- Node2&#45;&gt;Node4 -->
<g id="edge3_Node000002_Node000004" class="edge">
<title>Node2&#45;&gt;Node4</title>
<g id="a_edge3_Node000002_Node000004"><a xlink:title=" ">
<path fill="none" stroke="#63b8ff" d="M430.11,-111.71C451.58,-106.82 474.12,-101.69 494.96,-96.95"/>
<polygon fill="#63b8ff" stroke="#63b8ff" points="495.56,-100.4 504.54,-94.77 494.01,-93.58 495.56,-100.4"/>
</a>
</g>
</g>
<!-- Node10 -->
<g id="Node000010" class="node">
<title>Node10</title>
<g id="a_Node000010"><a xlink:href="classfr_1_1softsf_1_1sudokufx_1_1utils_1_1sudoku_1_1_grid_master.html#a5bb14564ed4b6a7cded51e1bedc72faf" target="_top" xlink:title="Génère un nombre entier aléatoire dans un intervalle spécifié.">
<polygon fill="white" stroke="#666666" points="654.75,-44 503.75,-44 503.75,-12 654.75,-12 654.75,-44"/>
<text text-anchor="start" x="511.75" y="-30.5" font-family="Helvetica,sans-Serif" font-size="10.00">fr.softsf.sudokufx.utils.sudoku.</text>
<text text-anchor="middle" x="579.25" y="-18.5" font-family="Helvetica,sans-Serif" font-size="10.00">GridMaster.nombreAleatoire</text>
</a>
</g>
</g>
<!-- Node2&#45;&gt;Node10 -->
<g id="edge9_Node000002_Node000010" class="edge">
<title>Node2&#45;&gt;Node10</title>
<g id="a_edge9_Node000002_Node000010"><a xlink:title=" ">
<path fill="none" stroke="#63b8ff" d="M430.34,-111.77C435.56,-109.17 440.57,-106.25 445.25,-103 467.74,-87.38 458.64,-68.45 481.25,-53 484.94,-50.48 488.87,-48.21 492.95,-46.17"/>
<polygon fill="#63b8ff" stroke="#63b8ff" points="494.24,-49.42 501.97,-42.17 491.41,-43.03 494.24,-49.42"/>
</a>
</g>
</g>
<!-- Node5 -->
<g id="Node000005" class="node">
<title>Node5</title>
<g id="a_Node000005"><a xlink:href="classfr_1_1softsf_1_1sudokufx_1_1utils_1_1sudoku_1_1_grid_master.html#a89fed8ecc70b911e60ca540cca93ef78" target="_top" xlink:title="Cache un nombre spécifié de cases dans la grille en les remplaçant par zéro.">
<polygon fill="white" stroke="#666666" points="895.38,-144 744.38,-144 744.38,-112 895.38,-112 895.38,-144"/>
<text text-anchor="start" x="752.38" y="-130.5" font-family="Helvetica,sans-Serif" font-size="10.00">fr.softsf.sudokufx.utils.sudoku.</text>
<text text-anchor="middle" x="819.88" y="-118.5" font-family="Helvetica,sans-Serif" font-size="10.00">GridMaster.cacherLesCases</text>
</a>
</g>
</g>
<!-- Node4&#45;&gt;Node5 -->
<g id="edge4_Node000004_Node000005" class="edge">
<title>Node4&#45;&gt;Node5</title>
<g id="a_edge4_Node000004_Node000005"><a xlink:title=" ">
<path fill="none" stroke="#63b8ff" d="M658.72,-94.44C682.51,-99.43 708.77,-104.93 733.02,-110.01"/>
<polygon fill="#63b8ff" stroke="#63b8ff" points="732.02,-113.38 742.53,-112 733.46,-106.53 732.02,-113.38"/>
</a>
</g>
</g>
<!-- Node6 -->
<g id="Node000006" class="node">
<title>Node6</title>
<g id="a_Node000006"><a xlink:href="classfr_1_1softsf_1_1sudokufx_1_1utils_1_1sudoku_1_1_grid_master.html#a46d1bfadcbb911b5a718508185da341f" target="_top" xlink:title="Calcule les possibilités pour chaque case de la grille de Sudoku.">
<polygon fill="white" stroke="#666666" points="895.38,-94 744.38,-94 744.38,-62 895.38,-62 895.38,-94"/>
<text text-anchor="start" x="752.38" y="-80.5" font-family="Helvetica,sans-Serif" font-size="10.00">fr.softsf.sudokufx.utils.sudoku.</text>
<text text-anchor="middle" x="819.88" y="-68.5" font-family="Helvetica,sans-Serif" font-size="10.00">GridMaster.getPossibilites</text>
</a>
</g>
</g>
<!-- Node4&#45;&gt;Node6 -->
<g id="edge5_Node000004_Node000006" class="edge">
<title>Node4&#45;&gt;Node6</title>
<g id="a_edge5_Node000004_Node000006"><a xlink:title=" ">
<path fill="none" stroke="#63b8ff" d="M677.65,-78C695.92,-78 714.9,-78 732.8,-78"/>
<polygon fill="#63b8ff" stroke="#63b8ff" points="732.57,-81.5 742.57,-78 732.57,-74.5 732.57,-81.5"/>
</a>
</g>
</g>
<!-- Node9 -->
<g id="Node000009" class="node">
<title>Node9</title>
<g id="a_Node000009"><a xlink:href="classfr_1_1softsf_1_1sudokufx_1_1utils_1_1sudoku_1_1_grid_master.html#a700c8e5d20670ded6ac4b56312846839" target="_top" xlink:title="Calcule la somme des possibilités de toutes les cases de la grille de Sudoku.">
<polygon fill="white" stroke="#666666" points="926.5,-44 713.25,-44 713.25,-12 926.5,-12 926.5,-44"/>
<text text-anchor="start" x="721.25" y="-30.5" font-family="Helvetica,sans-Serif" font-size="10.00">fr.softsf.sudokufx.utils.sudoku.</text>
<text text-anchor="middle" x="819.88" y="-18.5" font-family="Helvetica,sans-Serif" font-size="10.00">GridMaster.sommeDesPossibilitesDeLaGrille</text>
</a>
</g>
</g>
<!-- Node4&#45;&gt;Node9 -->
<g id="edge8_Node000004_Node000009" class="edge">
<title>Node4&#45;&gt;Node9</title>
<g id="a_edge8_Node000004_Node000009"><a xlink:title=" ">
<path fill="none" stroke="#63b8ff" d="M658.72,-61.56C681.25,-56.84 705.99,-51.65 729.14,-46.8"/>
<polygon fill="#63b8ff" stroke="#63b8ff" points="729.81,-50.24 738.88,-44.76 728.38,-43.39 729.81,-50.24"/>
</a>
</g>
</g>
<!-- Node7 -->
<g id="Node000007" class="node">
<title>Node7</title>
<g id="a_Node000007"><a xlink:href="classfr_1_1softsf_1_1sudokufx_1_1utils_1_1sudoku_1_1_grid_master.html#ad1a85240278a682b9cf73c8d8ec6398d" target="_top" xlink:title="Initialise le tableau des possibilités pour chaque case.">
<polygon fill="white" stroke="#666666" points="1118,-94 962.5,-94 962.5,-62 1118,-62 1118,-94"/>
<text text-anchor="start" x="970.5" y="-80.5" font-family="Helvetica,sans-Serif" font-size="10.00">fr.softsf.sudokufx.utils.sudoku.</text>
<text text-anchor="middle" x="1040.25" y="-68.5" font-family="Helvetica,sans-Serif" font-size="10.00">GridMaster.initialiserPossibilites</text>
</a>
</g>
</g>
<!-- Node6&#45;&gt;Node7 -->
<g id="edge6_Node000006_Node000007" class="edge">
<title>Node6&#45;&gt;Node7</title>
<g id="a_edge6_Node000006_Node000007"><a xlink:title=" ">
<path fill="none" stroke="#63b8ff" d="M895.72,-78C913.51,-78 932.66,-78 950.99,-78"/>
<polygon fill="#63b8ff" stroke="#63b8ff" points="950.76,-81.5 960.76,-78 950.76,-74.5 950.76,-81.5"/>
</a>
</g>
</g>
<!-- Node8 -->
<g id="Node000008" class="node">
<title>Node8</title>
<g id="a_Node000008"><a xlink:href="classfr_1_1softsf_1_1sudokufx_1_1utils_1_1sudoku_1_1_grid_master.html#aab28df678a8069dd22b13a687bb2ba5b" target="_top" xlink:title="Élimine la valeur des possibilités des cases alentours.">
<polygon fill="white" stroke="#666666" points="1305,-94 1154,-94 1154,-62 1305,-62 1305,-94"/>
<text text-anchor="start" x="1162" y="-80.5" font-family="Helvetica,sans-Serif" font-size="10.00">fr.softsf.sudokufx.utils.sudoku.</text>
<text text-anchor="middle" x="1229.5" y="-68.5" font-family="Helvetica,sans-Serif" font-size="10.00">GridMaster.eliminerPossibilite</text>
</a>
</g>
</g>
<!-- Node7&#45;&gt;Node8 -->
<g id="edge7_Node000007_Node000008" class="edge">
<title>Node7&#45;&gt;Node8</title>
<g id="a_edge7_Node000007_Node000008"><a xlink:title=" ">
<path fill="none" stroke="#63b8ff" d="M1118.49,-78C1126.28,-78 1134.22,-78 1142.09,-78"/>
<polygon fill="#63b8ff" stroke="#63b8ff" points="1142.03,-81.5 1152.03,-78 1142.03,-74.5 1142.03,-81.5"/>
</a>
</g>
</g>
<!-- Node11&#45;&gt;Node3 -->
<g id="edge11_Node000011_Node000003" class="edge">
<title>Node11&#45;&gt;Node3</title>
<g id="a_edge11_Node000011_Node000003"><a xlink:title=" ">
<path fill="none" stroke="#63b8ff" d="M413.06,-94.44C438.44,-99.6 466.55,-105.31 492.27,-110.53"/>
<polygon fill="#63b8ff" stroke="#63b8ff" points="491.54,-113.96 502.03,-112.52 492.93,-107.1 491.54,-113.96"/>
</a>
</g>
</g>
<!-- Node11&#45;&gt;Node4 -->
<g id="edge12_Node000011_Node000004" class="edge">
<title>Node11&#45;&gt;Node4</title>
<g id="a_edge12_Node000011_Node000004"><a xlink:title=" ">
<path fill="none" stroke="#63b8ff" d="M445.46,-78C453.52,-78 461.64,-78 469.67,-78"/>
<polygon fill="#63b8ff" stroke="#63b8ff" points="469.45,-81.5 479.45,-78 469.45,-74.5 469.45,-81.5"/>
</a>
</g>
</g>
<!-- Node11&#45;&gt;Node10 -->
<g id="edge13_Node000011_Node000010" class="edge">
<title>Node11&#45;&gt;Node10</title>
<g id="a_edge13_Node000011_Node000010"><a xlink:title=" ">
<path fill="none" stroke="#63b8ff" d="M413.06,-61.56C438.44,-56.4 466.55,-50.69 492.27,-45.47"/>
<polygon fill="#63b8ff" stroke="#63b8ff" points="492.93,-48.9 502.03,-43.48 491.54,-42.04 492.93,-48.9"/>
</a>
</g>
</g>
<!-- Node12&#45;&gt;Node3 -->
<g id="edge15_Node000012_Node000003" class="edge">
<title>Node12&#45;&gt;Node3</title>
<g id="a_edge15_Node000012_Node000003"><a xlink:title=" ">
<path fill="none" stroke="#63b8ff" d="M430.62,-44.37C435.73,-46.94 440.65,-49.81 445.25,-53 467.74,-68.62 458.64,-87.55 481.25,-103 484.94,-105.52 488.87,-107.79 492.95,-109.83"/>
<polygon fill="#63b8ff" stroke="#63b8ff" points="491.41,-112.97 501.97,-113.83 494.24,-106.58 491.41,-112.97"/>
</a>
</g>
</g>
<!-- Node12&#45;&gt;Node4 -->
<g id="edge16_Node000012_Node000004" class="edge">
<title>Node12&#45;&gt;Node4</title>
<g id="a_edge16_Node000012_Node000004"><a xlink:title=" ">
<path fill="none" stroke="#63b8ff" d="M430.82,-44.45C452.13,-49.3 474.46,-54.38 495.1,-59.08"/>
<polygon fill="#63b8ff" stroke="#63b8ff" points="494.05,-62.43 504.58,-61.24 495.61,-55.61 494.05,-62.43"/>
</a>
</g>
</g>
<!-- Node12&#45;&gt;Node10 -->
<g id="edge17_Node000012_Node000010" class="edge">
<title>Node12&#45;&gt;Node10</title>
<g id="a_edge17_Node000012_Node000010"><a xlink:title=" ">
<path fill="none" stroke="#63b8ff" d="M432.59,-24.45C452.27,-24.93 472.76,-25.43 491.93,-25.9"/>
<polygon fill="#63b8ff" stroke="#63b8ff" points="491.77,-29.39 501.86,-26.14 491.94,-22.39 491.77,-29.39"/>
</a>
</g>
</g>
</g>
</svg>

<g id="navigator" transform="translate(0 0)" fill="#404254">
  <rect fill="#f2f5e9" fill-opacity="0.5" stroke="#606060" stroke-width=".5" x="0" y="0" width="60" height="60"/>
  <use id="zoomplus" xlink:href="#zoomPlus" x="17" y="9" onmousedown="handleZoom(evt,'in')"/>
  <use id="zoomminus" xlink:href="#zoomMin" x="42" y="9" onmousedown="handleZoom(evt,'out')"/>
  <use id="reset" xlink:href="#resetDef" x="30" y="36" onmousedown="handleReset()"/>
   <use id="arrowup" xlink:href="#arrowUp" x="0" y="0" onmousedown="handlePan(0,-1)"/>
  <use id="arrowright" xlink:href="#arrowRight" x="0" y="0" onmousedown="handlePan(1,0)"/>
  <use id="arrowdown" xlink:href="#arrowDown" x="0" y="0" onmousedown="handlePan(0,1)"/>
  <use id="arrowleft" xlink:href="#arrowLeft" x="0" y="0" onmousedown="handlePan(-1,0)"/>
</g>
<svg viewBox="0 0 15 15" width="100%" height="30px" preserveAspectRatio="xMaxYMin meet">
 <g id="arrow_out" transform="scale(0.3 0.3)">
  <a xlink:href="classfr_1_1softsf_1_1sudokufx_1_1utils_1_1sudoku_1_1_grid_master_ae857c040b7e4c03981660d8cd0383f1f_cgraph_org.svg" target="_base">
   <rect id="button" ry="5" rx="5" y="6" x="6" height="38" width="38"
        fill="#f2f5e9" fill-opacity="0.5" stroke="#606060" stroke-width="1.0"/>
   <path id="arrow"
     d="M 11.500037,31.436501 C 11.940474,20.09759 22.043105,11.32322 32.158766,21.979434 L 37.068811,17.246167 C 37.068811,17.246167 37.088388,32 37.088388,32 L 22.160133,31.978069 C 22.160133,31.978069 26.997745,27.140456 26.997745,27.140456 C 18.528582,18.264221 13.291696,25.230495 11.500037,31.436501 z"
     style="fill:#404040;"/>
  </a>
 </g>
</svg>

<style type='text/css'>
<![CDATA[
[data-mouse-over-selected='false'] { opacity: 0.7; }
[data-mouse-over-selected='true']  { opacity: 1.0; }
]]>
</style>
<script type="application/ecmascript"><![CDATA[
document.addEventListener('DOMContentLoaded', (event) => {
  highlightEdges();
  highlightAdjacentNodes();
});
]]></script>
</svg>
