<?xml version="1.0" encoding="UTF-8" standalone="no"?>
<!DOCTYPE svg PUBLIC "-//W3C//DTD SVG 1.1//EN"
 "http://www.w3.org/Graphics/SVG/1.1/DTD/svg11.dtd">
<!-- Generated by graphviz version 12.2.1 (20241206.2353)
 -->
<!-- Title: fr.softsf.sudokufx.configuration.database.DataSourceConfig.flyway Pages: 1 -->
<svg width="646pt" height="140pt"
 viewBox="0.00 0.00 645.50 140.00" xmlns="http://www.w3.org/2000/svg" xmlns:xlink="http://www.w3.org/1999/xlink">
<g id="graph0" class="graph" transform="scale(1 1) rotate(0) translate(4 136)">
<title>fr.softsf.sudokufx.configuration.database.DataSourceConfig.flyway</title>
<!-- Node1 -->
<g id="Node000001" class="node">
<title>Node1</title>
<g id="a_Node000001"><a xlink:title="Configures Flyway with a specified location for migration scripts.">
<polygon fill="#999999" stroke="#666666" points="196.75,-82 0,-82 0,-50 196.75,-50 196.75,-82"/>
<text text-anchor="start" x="8" y="-68.5" font-family="Helvetica,sans-Serif" font-size="10.00">fr.softsf.sudokufx.configuration.database.</text>
<text text-anchor="middle" x="98.38" y="-56.5" font-family="Helvetica,sans-Serif" font-size="10.00">DataSourceConfig.flyway</text>
</a>
</g>
</g>
<!-- Node1&#45;&gt;Node1 -->
<g id="edge1_Node000001_Node000001" class="edge">
<title>Node1&#45;&gt;Node1</title>
<g id="a_edge1_Node000001_Node000001"><a xlink:title=" ">
<path fill="none" stroke="#63b8ff" d="M56.82,-82.44C49.07,-91.58 62.92,-100 98.38,-100 118.04,-100 131.06,-97.41 137.44,-93.54"/>
<polygon fill="#63b8ff" stroke="#63b8ff" points="140.82,-94.44 139.6,-83.92 133.99,-92.91 140.82,-94.44"/>
</a>
</g>
</g>
<!-- Node2 -->
<g id="Node000002" class="node">
<title>Node2</title>
<g id="a_Node000002"><a xlink:href="classfr_1_1softsf_1_1sudokufx_1_1configuration_1_1database_1_1_data_source_config.html#aeec3198d3b639d46c8bf715dc2e3581d" target="_top" xlink:title="Creates and configures the main DataSource for the application.">
<polygon fill="white" stroke="#666666" points="429.5,-82 232.75,-82 232.75,-50 429.5,-50 429.5,-82"/>
<text text-anchor="start" x="240.75" y="-68.5" font-family="Helvetica,sans-Serif" font-size="10.00">fr.softsf.sudokufx.configuration.database.</text>
<text text-anchor="middle" x="331.12" y="-56.5" font-family="Helvetica,sans-Serif" font-size="10.00">DataSourceConfig.hikariDataSource</text>
</a>
</g>
</g>
<!-- Node1&#45;&gt;Node2 -->
<g id="edge2_Node000001_Node000002" class="edge">
<title>Node1&#45;&gt;Node2</title>
<g id="a_edge2_Node000001_Node000002"><a xlink:title=" ">
<path fill="none" stroke="#63b8ff" d="M197.23,-66C205.17,-66 213.21,-66 221.21,-66"/>
<polygon fill="#63b8ff" stroke="#63b8ff" points="220.97,-69.5 230.97,-66 220.97,-62.5 220.97,-69.5"/>
</a>
</g>
</g>
<!-- Node3 -->
<g id="Node000003" class="node">
<title>Node3</title>
<g id="a_Node000003"><a xlink:href="interfacefr_1_1softsf_1_1sudokufx_1_1interfaces_1_1_i_keystore.html#a5ec3c1f09b73ee031b270efd4ded0ce0" target="_top" xlink:title="Get database password.">
<polygon fill="white" stroke="#666666" points="622.12,-132 480.88,-132 480.88,-100 622.12,-100 622.12,-132"/>
<text text-anchor="start" x="488.88" y="-118.5" font-family="Helvetica,sans-Serif" font-size="10.00">fr.softsf.sudokufx.interfaces.</text>
<text text-anchor="middle" x="551.5" y="-106.5" font-family="Helvetica,sans-Serif" font-size="10.00">IKeystore.getPassword</text>
</a>
</g>
</g>
<!-- Node2&#45;&gt;Node3 -->
<g id="edge3_Node000002_Node000003" class="edge">
<title>Node2&#45;&gt;Node3</title>
<g id="a_edge3_Node000002_Node000003"><a xlink:title=" ">
<path fill="none" stroke="#63b8ff" d="M403.93,-82.44C424.89,-87.24 447.94,-92.52 469.43,-97.44"/>
<polygon fill="#63b8ff" stroke="#63b8ff" points="468.51,-100.82 479.03,-99.64 470.07,-93.99 468.51,-100.82"/>
</a>
</g>
</g>
<!-- Node4 -->
<g id="Node000004" class="node">
<title>Node4</title>
<g id="a_Node000004"><a xlink:href="interfacefr_1_1softsf_1_1sudokufx_1_1interfaces_1_1_i_keystore.html#a8b68edc0def5161907fbd2f55b0940f3" target="_top" xlink:title="Get database username.">
<polygon fill="white" stroke="#666666" points="622.12,-82 480.88,-82 480.88,-50 622.12,-50 622.12,-82"/>
<text text-anchor="start" x="488.88" y="-68.5" font-family="Helvetica,sans-Serif" font-size="10.00">fr.softsf.sudokufx.interfaces.</text>
<text text-anchor="middle" x="551.5" y="-56.5" font-family="Helvetica,sans-Serif" font-size="10.00">IKeystore.getUsername</text>
</a>
</g>
</g>
<!-- Node2&#45;&gt;Node4 -->
<g id="edge4_Node000002_Node000004" class="edge">
<title>Node2&#45;&gt;Node4</title>
<g id="a_edge4_Node000002_Node000004"><a xlink:title=" ">
<path fill="none" stroke="#63b8ff" d="M429.82,-66C443.08,-66 456.57,-66 469.5,-66"/>
<polygon fill="#63b8ff" stroke="#63b8ff" points="469.18,-69.5 479.18,-66 469.18,-62.5 469.18,-69.5"/>
</a>
</g>
</g>
<!-- Node5 -->
<g id="Node000005" class="node">
<title>Node5</title>
<g id="a_Node000005"><a xlink:href="interfacefr_1_1softsf_1_1sudokufx_1_1interfaces_1_1_i_keystore.html#a9b027a910af9934b7549202c4e44350e" target="_top" xlink:title="Set up the application keystore.">
<polygon fill="white" stroke="#666666" points="637.5,-32 465.5,-32 465.5,0 637.5,0 637.5,-32"/>
<text text-anchor="start" x="473.5" y="-18.5" font-family="Helvetica,sans-Serif" font-size="10.00">fr.softsf.sudokufx.interfaces.</text>
<text text-anchor="middle" x="551.5" y="-6.5" font-family="Helvetica,sans-Serif" font-size="10.00">IKeystore.setupApplicationKeystore</text>
</a>
</g>
</g>
<!-- Node2&#45;&gt;Node5 -->
<g id="edge5_Node000002_Node000005" class="edge">
<title>Node2&#45;&gt;Node5</title>
<g id="a_edge5_Node000002_Node000005"><a xlink:title=" ">
<path fill="none" stroke="#63b8ff" d="M403.93,-49.56C424.27,-44.9 446.57,-39.8 467.51,-35"/>
<polygon fill="#63b8ff" stroke="#63b8ff" points="468.21,-38.43 477.17,-32.79 466.65,-31.61 468.21,-38.43"/>
</a>
</g>
</g>
</g>
</svg>
