<?xml version="1.0" encoding="UTF-8" standalone="no"?>
<!DOCTYPE svg PUBLIC "-//W3C//DTD SVG 1.1//EN"
 "http://www.w3.org/Graphics/SVG/1.1/DTD/svg11.dtd">
<!-- Generated by graphviz version 12.2.0 (20241103.1931)
 -->
<!-- Title: fr.softsf.sudokufx.view.FullMenuView.onHelloButtonClick Pages: 1 -->
<svg width="1349pt" height="365pt"
 viewBox="0.00 0.00 1349.00 365.00" xmlns="http://www.w3.org/2000/svg" xmlns:xlink="http://www.w3.org/1999/xlink">
<g id="graph0" class="graph" transform="scale(1 1) rotate(0) translate(4 361)">
<title>fr.softsf.sudokufx.view.FullMenuView.onHelloButtonClick</title>
<!-- Node1 -->
<g id="Node000001" class="node">
<title>Node1</title>
<g id="a_Node000001"><a xlink:title="Handles the click event of the Hello button.">
<polygon fill="#999999" stroke="#666666" points="163.75,-207 0,-207 0,-175 163.75,-175 163.75,-207"/>
<text text-anchor="start" x="8" y="-193.5" font-family="Helvetica,sans-Serif" font-size="10.00">fr.softsf.sudokufx.view.</text>
<text text-anchor="middle" x="81.88" y="-181.5" font-family="Helvetica,sans-Serif" font-size="10.00">FullMenuView.onHelloButtonClick</text>
</a>
</g>
</g>
<!-- Node2 -->
<g id="Node000002" class="node">
<title>Node2</title>
<g id="a_Node000002"><a xlink:href="classfr_1_1softsf_1_1sudokufx_1_1view_1_1components_1_1toaster_1_1_toaster_v_box.html#ae6e7053bcfad898d4855a8b02aba34c8" target="_top" xlink:title="Adds a toast notification with an automatically calculated duration based on text length.">
<polygon fill="white" stroke="#666666" points="407,-257 199.75,-257 199.75,-225 407,-225 407,-257"/>
<text text-anchor="start" x="207.75" y="-243.5" font-family="Helvetica,sans-Serif" font-size="10.00">fr.softsf.sudokufx.view.components.toaster.</text>
<text text-anchor="middle" x="303.38" y="-231.5" font-family="Helvetica,sans-Serif" font-size="10.00">ToasterVBox.addToast</text>
</a>
</g>
</g>
<!-- Node1&#45;&gt;Node2 -->
<g id="edge1_Node000001_Node000002" class="edge">
<title>Node1&#45;&gt;Node2</title>
<g id="a_edge1_Node000001_Node000002"><a xlink:title=" ">
<path fill="none" stroke="#63b8ff" d="M155.05,-207.44C175.49,-212.1 197.91,-217.2 218.96,-222"/>
<polygon fill="#63b8ff" stroke="#63b8ff" points="218.15,-225.4 228.68,-224.21 219.71,-218.58 218.15,-225.4"/>
</a>
</g>
</g>
<!-- Node8 -->
<g id="Node000008" class="node">
<title>Node8</title>
<g id="a_Node000008"><a xlink:href="classfr_1_1softsf_1_1sudokufx_1_1view_1_1components_1_1toaster_1_1_toaster_v_box.html#a66788ac03073386e6dd000586ca6a504" target="_top" xlink:title="Adds a toast notification with a specified duration.">
<polygon fill="white" stroke="#666666" points="407,-307 199.75,-307 199.75,-275 407,-275 407,-307"/>
<text text-anchor="start" x="207.75" y="-293.5" font-family="Helvetica,sans-Serif" font-size="10.00">fr.softsf.sudokufx.view.components.toaster.</text>
<text text-anchor="middle" x="303.38" y="-281.5" font-family="Helvetica,sans-Serif" font-size="10.00">ToasterVBox.addToastWithDuration</text>
</a>
</g>
</g>
<!-- Node1&#45;&gt;Node8 -->
<g id="edge7_Node000001_Node000008" class="edge">
<title>Node1&#45;&gt;Node8</title>
<g id="a_edge7_Node000001_Node000008"><a xlink:title=" ">
<path fill="none" stroke="#63b8ff" d="M103.64,-207.38C126.12,-224.35 163.63,-250.53 199.75,-266 203.85,-267.76 208.1,-269.41 212.43,-270.95"/>
<polygon fill="#63b8ff" stroke="#63b8ff" points="211.3,-274.27 221.9,-274.11 213.52,-267.62 211.3,-274.27"/>
</a>
</g>
</g>
<!-- Node9 -->
<g id="Node000009" class="node">
<title>Node9</title>
<g id="a_Node000009"><a xlink:href="classfr_1_1softsf_1_1sudokufx_1_1utils_1_1_secure_random_generator.html#ab000b11e58735924b9fca8db827374ad" target="_top" xlink:title="Generates a random integer between 0 (inclusive) and the specified bound (exclusive).">
<polygon fill="white" stroke="#666666" points="383,-207 223.75,-207 223.75,-175 383,-175 383,-207"/>
<text text-anchor="start" x="231.75" y="-193.5" font-family="Helvetica,sans-Serif" font-size="10.00">fr.softsf.sudokufx.utils.</text>
<text text-anchor="middle" x="303.38" y="-181.5" font-family="Helvetica,sans-Serif" font-size="10.00">SecureRandomGenerator.nextInt</text>
</a>
</g>
</g>
<!-- Node1&#45;&gt;Node9 -->
<g id="edge11_Node000001_Node000009" class="edge">
<title>Node1&#45;&gt;Node9</title>
<g id="a_edge11_Node000001_Node000009"><a xlink:title=" ">
<path fill="none" stroke="#63b8ff" d="M163.99,-191C179.61,-191 196.07,-191 211.97,-191"/>
<polygon fill="#63b8ff" stroke="#63b8ff" points="211.91,-194.5 221.91,-191 211.91,-187.5 211.91,-194.5"/>
</a>
</g>
</g>
<!-- Node10 -->
<g id="Node000010" class="node">
<title>Node10</title>
<g id="a_Node000010"><a xlink:href="classfr_1_1softsf_1_1sudokufx_1_1viewmodel_1_1_full_menu_view_model.html#a2eca0432ba5e82eeea338615f06d5eea" target="_top" xlink:title=" ">
<polygon fill="white" stroke="#666666" points="375.88,-157 230.88,-157 230.88,-125 375.88,-125 375.88,-157"/>
<text text-anchor="start" x="238.88" y="-143.5" font-family="Helvetica,sans-Serif" font-size="10.00">fr.softsf.sudokufx.viewmodel.</text>
<text text-anchor="middle" x="303.38" y="-131.5" font-family="Helvetica,sans-Serif" font-size="10.00">FullMenuViewModel.test</text>
</a>
</g>
</g>
<!-- Node1&#45;&gt;Node10 -->
<g id="edge12_Node000001_Node000010" class="edge">
<title>Node1&#45;&gt;Node10</title>
<g id="a_edge12_Node000001_Node000010"><a xlink:title=" ">
<path fill="none" stroke="#63b8ff" d="M155.05,-174.56C175.69,-169.86 198.35,-164.7 219.58,-159.86"/>
<polygon fill="#63b8ff" stroke="#63b8ff" points="220.08,-163.34 229.05,-157.7 218.53,-156.51 220.08,-163.34"/>
</a>
</g>
</g>
<!-- Node25 -->
<g id="Node000025" class="node">
<title>Node25</title>
<g id="a_Node000025"><a xlink:href="classfr_1_1softsf_1_1sudokufx_1_1viewmodel_1_1_full_menu_view_model.html#a3c96b182cfc98bae72d23358508a1e33" target="_top" xlink:title=" ">
<polygon fill="white" stroke="#666666" points="394.62,-107 212.12,-107 212.12,-63 394.62,-63 394.62,-107"/>
<text text-anchor="start" x="220.12" y="-93.5" font-family="Helvetica,sans-Serif" font-size="10.00">fr.softsf.sudokufx.viewmodel.</text>
<text text-anchor="start" x="220.12" y="-81.5" font-family="Helvetica,sans-Serif" font-size="10.00">FullMenuViewModel.versionUpToDate</text>
<text text-anchor="middle" x="303.38" y="-69.5" font-family="Helvetica,sans-Serif" font-size="10.00">Property</text>
</a>
</g>
</g>
<!-- Node1&#45;&gt;Node25 -->
<g id="edge28_Node000001_Node000025" class="edge">
<title>Node1&#45;&gt;Node25</title>
<g id="a_edge28_Node000001_Node000025"><a xlink:title=" ">
<path fill="none" stroke="#63b8ff" d="M104.23,-174.7C126.9,-158.04 164.28,-132.35 199.75,-116 203.09,-114.46 206.52,-112.98 210.02,-111.54"/>
<polygon fill="#63b8ff" stroke="#63b8ff" points="211.19,-114.84 219.24,-107.96 208.65,-108.32 211.19,-114.84"/>
</a>
</g>
</g>
<!-- Node3 -->
<g id="Node000003" class="node">
<title>Node3</title>
<g id="a_Node000003"><a xlink:href="classfr_1_1softsf_1_1sudokufx_1_1view_1_1components_1_1toaster_1_1_toaster_v_box.html#aefc3155d08014efb83ccf0e0633a55e3" target="_top" xlink:title="Sets the accessibility text for the toast based on its level.">
<polygon fill="white" stroke="#666666" points="650.25,-357 443,-357 443,-325 650.25,-325 650.25,-357"/>
<text text-anchor="start" x="451" y="-343.5" font-family="Helvetica,sans-Serif" font-size="10.00">fr.softsf.sudokufx.view.components.toaster.</text>
<text text-anchor="middle" x="546.62" y="-331.5" font-family="Helvetica,sans-Serif" font-size="10.00">ToasterVBox.setAccessibility</text>
</a>
</g>
</g>
<!-- Node2&#45;&gt;Node3 -->
<g id="edge2_Node000002_Node000003" class="edge">
<title>Node2&#45;&gt;Node3</title>
<g id="a_edge2_Node000002_Node000003"><a xlink:title=" ">
<path fill="none" stroke="#63b8ff" d="M391.41,-257.39C396.88,-259.87 402.13,-262.72 407,-266 429.71,-281.3 420.29,-300.7 443,-316 444.83,-317.23 446.7,-318.4 448.63,-319.51"/>
<polygon fill="#63b8ff" stroke="#63b8ff" points="446.74,-322.48 457.24,-323.92 449.93,-316.25 446.74,-322.48"/>
</a>
</g>
</g>
<!-- Node6 -->
<g id="Node000006" class="node">
<title>Node6</title>
<g id="a_Node000006"><a xlink:href="classfr_1_1softsf_1_1sudokufx_1_1view_1_1components_1_1toaster_1_1_toaster_v_box.html#abd595fdee29b1e6ecf025d7281b16a4e" target="_top" xlink:title="Sets the style of the toast based on its level.">
<polygon fill="white" stroke="#666666" points="650.25,-307 443,-307 443,-275 650.25,-275 650.25,-307"/>
<text text-anchor="start" x="451" y="-293.5" font-family="Helvetica,sans-Serif" font-size="10.00">fr.softsf.sudokufx.view.components.toaster.</text>
<text text-anchor="middle" x="546.62" y="-281.5" font-family="Helvetica,sans-Serif" font-size="10.00">ToasterVBox.setToastStyle</text>
</a>
</g>
</g>
<!-- Node2&#45;&gt;Node6 -->
<g id="edge5_Node000002_Node000006" class="edge">
<title>Node2&#45;&gt;Node6</title>
<g id="a_edge5_Node000002_Node000006"><a xlink:title=" ">
<path fill="none" stroke="#63b8ff" d="M383.7,-257.44C406.59,-262.18 431.72,-267.39 455.22,-272.26"/>
<polygon fill="#63b8ff" stroke="#63b8ff" points="454.26,-275.64 464.77,-274.24 455.69,-268.79 454.26,-275.64"/>
</a>
</g>
</g>
<!-- Node7 -->
<g id="Node000007" class="node">
<title>Node7</title>
<g id="a_Node000007"><a xlink:href="classfr_1_1softsf_1_1sudokufx_1_1view_1_1components_1_1toaster_1_1_toaster_v_box.html#abbd390731ca047cc6010818f5d461dbd" target="_top" xlink:title="Sets a timer to automatically remove the toast after a specified duration.">
<polygon fill="white" stroke="#666666" points="650.25,-257 443,-257 443,-225 650.25,-225 650.25,-257"/>
<text text-anchor="start" x="451" y="-243.5" font-family="Helvetica,sans-Serif" font-size="10.00">fr.softsf.sudokufx.view.components.toaster.</text>
<text text-anchor="middle" x="546.62" y="-231.5" font-family="Helvetica,sans-Serif" font-size="10.00">ToasterVBox.temporizeToast</text>
</a>
</g>
</g>
<!-- Node2&#45;&gt;Node7 -->
<g id="edge6_Node000002_Node000007" class="edge">
<title>Node2&#45;&gt;Node7</title>
<g id="a_edge6_Node000002_Node000007"><a xlink:title=" ">
<path fill="none" stroke="#63b8ff" d="M407.39,-241C415.31,-241 423.33,-241 431.32,-241"/>
<polygon fill="#63b8ff" stroke="#63b8ff" points="431.06,-244.5 441.06,-241 431.06,-237.5 431.06,-244.5"/>
</a>
</g>
</g>
<!-- Node4 -->
<g id="Node000004" class="node">
<title>Node4</title>
<g id="a_Node000004"><a xlink:href="classfr_1_1softsf_1_1sudokufx_1_1view_1_1components_1_1toaster_1_1_toaster_v_box.html#a8b056afab32965a85fad7eb24cab8649" target="_top" xlink:title="Retrieves the information text corresponding to the specified toast level.">
<polygon fill="white" stroke="#666666" points="893.5,-357 686.25,-357 686.25,-325 893.5,-325 893.5,-357"/>
<text text-anchor="start" x="694.25" y="-343.5" font-family="Helvetica,sans-Serif" font-size="10.00">fr.softsf.sudokufx.view.components.toaster.</text>
<text text-anchor="middle" x="789.88" y="-331.5" font-family="Helvetica,sans-Serif" font-size="10.00">ToasterVBox.getToastInfo</text>
</a>
</g>
</g>
<!-- Node3&#45;&gt;Node4 -->
<g id="edge3_Node000003_Node000004" class="edge">
<title>Node3&#45;&gt;Node4</title>
<g id="a_edge3_Node000003_Node000004"><a xlink:title=" ">
<path fill="none" stroke="#63b8ff" d="M650.64,-341C658.56,-341 666.58,-341 674.57,-341"/>
<polygon fill="#63b8ff" stroke="#63b8ff" points="674.31,-344.5 684.31,-341 674.31,-337.5 674.31,-344.5"/>
</a>
</g>
</g>
<!-- Node5 -->
<g id="Node000005" class="node">
<title>Node5</title>
<g id="a_Node000005"><a xlink:href="classfr_1_1softsf_1_1sudokufx_1_1utils_1_1_i18n.html#a7095fa285a498c3f20bf33488a69d22c" target="_top" xlink:title="Retrieves the localized string value for a given key.">
<polygon fill="white" stroke="#666666" points="1095.88,-357 979.38,-357 979.38,-325 1095.88,-325 1095.88,-357"/>
<text text-anchor="start" x="987.38" y="-343.5" font-family="Helvetica,sans-Serif" font-size="10.00">fr.softsf.sudokufx.utils.</text>
<text text-anchor="middle" x="1037.62" y="-331.5" font-family="Helvetica,sans-Serif" font-size="10.00">I18n.getValue</text>
</a>
</g>
</g>
<!-- Node4&#45;&gt;Node5 -->
<g id="edge4_Node000004_Node000005" class="edge">
<title>Node4&#45;&gt;Node5</title>
<g id="a_edge4_Node000004_Node000005"><a xlink:title=" ">
<path fill="none" stroke="#63b8ff" d="M893.67,-341C918.65,-341 944.77,-341 967.74,-341"/>
<polygon fill="#63b8ff" stroke="#63b8ff" points="967.58,-344.5 977.58,-341 967.58,-337.5 967.58,-344.5"/>
</a>
</g>
</g>
<!-- Node8&#45;&gt;Node3 -->
<g id="edge8_Node000008_Node000003" class="edge">
<title>Node8&#45;&gt;Node3</title>
<g id="a_edge8_Node000008_Node000003"><a xlink:title=" ">
<path fill="none" stroke="#63b8ff" d="M383.7,-307.44C406.59,-312.18 431.72,-317.39 455.22,-322.26"/>
<polygon fill="#63b8ff" stroke="#63b8ff" points="454.26,-325.64 464.77,-324.24 455.69,-318.79 454.26,-325.64"/>
</a>
</g>
</g>
<!-- Node8&#45;&gt;Node6 -->
<g id="edge9_Node000008_Node000006" class="edge">
<title>Node8&#45;&gt;Node6</title>
<g id="a_edge9_Node000008_Node000006"><a xlink:title=" ">
<path fill="none" stroke="#63b8ff" d="M407.39,-291C415.31,-291 423.33,-291 431.32,-291"/>
<polygon fill="#63b8ff" stroke="#63b8ff" points="431.06,-294.5 441.06,-291 431.06,-287.5 431.06,-294.5"/>
</a>
</g>
</g>
<!-- Node8&#45;&gt;Node7 -->
<g id="edge10_Node000008_Node000007" class="edge">
<title>Node8&#45;&gt;Node7</title>
<g id="a_edge10_Node000008_Node000007"><a xlink:title=" ">
<path fill="none" stroke="#63b8ff" d="M383.7,-274.56C406.59,-269.82 431.72,-264.61 455.22,-259.74"/>
<polygon fill="#63b8ff" stroke="#63b8ff" points="455.69,-263.21 464.77,-257.76 454.26,-256.36 455.69,-263.21"/>
</a>
</g>
</g>
<!-- Node11 -->
<g id="Node000011" class="node">
<title>Node11</title>
<g id="a_Node000011"><a xlink:href="classfr_1_1softsf_1_1sudokufx_1_1viewmodel_1_1_full_menu_view_model.html#adce6b8020bad713a5457f19529475669" target="_top" xlink:title=" ">
<polygon fill="white" stroke="#666666" points="633,-207 460.25,-207 460.25,-175 633,-175 633,-207"/>
<text text-anchor="start" x="468.25" y="-193.5" font-family="Helvetica,sans-Serif" font-size="10.00">fr.softsf.sudokufx.viewmodel.</text>
<text text-anchor="middle" x="546.62" y="-181.5" font-family="Helvetica,sans-Serif" font-size="10.00">FullMenuViewModel.createSoftware</text>
</a>
</g>
</g>
<!-- Node10&#45;&gt;Node11 -->
<g id="edge13_Node000010_Node000011" class="edge">
<title>Node10&#45;&gt;Node11</title>
<g id="a_edge13_Node000010_Node000011"><a xlink:title=" ">
<path fill="none" stroke="#63b8ff" d="M376.1,-155.87C400.9,-161 429.01,-166.83 455.11,-172.24"/>
<polygon fill="#63b8ff" stroke="#63b8ff" points="454.17,-175.62 464.67,-174.22 455.59,-168.77 454.17,-175.62"/>
</a>
</g>
</g>
<!-- Node15 -->
<g id="Node000015" class="node">
<title>Node15</title>
<g id="a_Node000015"><a xlink:href="classfr_1_1softsf_1_1sudokufx_1_1service_1_1_software_service.html#a19dc59ca2cea75458d2d0a92ada59b34" target="_top" xlink:title=" ">
<polygon fill="white" stroke="#666666" points="618.38,-82 474.88,-82 474.88,-50 618.38,-50 618.38,-82"/>
<text text-anchor="start" x="482.88" y="-68.5" font-family="Helvetica,sans-Serif" font-size="10.00">fr.softsf.sudokufx.service.</text>
<text text-anchor="middle" x="546.62" y="-56.5" font-family="Helvetica,sans-Serif" font-size="10.00">SoftwareService.getSoftware</text>
</a>
</g>
</g>
<!-- Node10&#45;&gt;Node15 -->
<g id="edge17_Node000010_Node000015" class="edge">
<title>Node10&#45;&gt;Node15</title>
<g id="a_edge17_Node000010_Node000015"><a xlink:title=" ">
<path fill="none" stroke="#63b8ff" d="M376.14,-124.56C386.54,-121.87 397.08,-118.99 407,-116 435.83,-107.32 467.45,-96.05 493.2,-86.41"/>
<polygon fill="#63b8ff" stroke="#63b8ff" points="494.32,-89.73 502.44,-82.93 491.85,-83.18 494.32,-89.73"/>
</a>
</g>
</g>
<!-- Node17 -->
<g id="Node000017" class="node">
<title>Node17</title>
<g id="a_Node000017"><a xlink:href="classfr_1_1softsf_1_1sudokufx_1_1viewmodel_1_1_full_menu_view_model.html#abeb58caaac8ee5464bb0f851c94992f4" target="_top" xlink:title=" ">
<polygon fill="white" stroke="#666666" points="634.12,-157 459.12,-157 459.12,-125 634.12,-125 634.12,-157"/>
<text text-anchor="start" x="467.12" y="-143.5" font-family="Helvetica,sans-Serif" font-size="10.00">fr.softsf.sudokufx.viewmodel.</text>
<text text-anchor="middle" x="546.62" y="-131.5" font-family="Helvetica,sans-Serif" font-size="10.00">FullMenuViewModel.updateSoftware</text>
</a>
</g>
</g>
<!-- Node10&#45;&gt;Node17 -->
<g id="edge19_Node000010_Node000017" class="edge">
<title>Node10&#45;&gt;Node17</title>
<g id="a_edge19_Node000010_Node000017"><a xlink:title=" ">
<path fill="none" stroke="#63b8ff" d="M376.1,-141C398.53,-141 423.66,-141 447.57,-141"/>
<polygon fill="#63b8ff" stroke="#63b8ff" points="447.31,-144.5 457.31,-141 447.31,-137.5 447.31,-144.5"/>
</a>
</g>
</g>
<!-- Node12 -->
<g id="Node000012" class="node">
<title>Node12</title>
<g id="a_Node000012"><a xlink:href="classfr_1_1softsf_1_1sudokufx_1_1service_1_1_software_service.html#a74d93b9d4144d91d01a4b02369265f0f" target="_top" xlink:title=" ">
<polygon fill="white" stroke="#666666" points="869.5,-232 710.25,-232 710.25,-200 869.5,-200 869.5,-232"/>
<text text-anchor="start" x="718.25" y="-218.5" font-family="Helvetica,sans-Serif" font-size="10.00">fr.softsf.sudokufx.service.</text>
<text text-anchor="middle" x="789.88" y="-206.5" font-family="Helvetica,sans-Serif" font-size="10.00">SoftwareService.updateSoftware</text>
</a>
</g>
</g>
<!-- Node11&#45;&gt;Node12 -->
<g id="edge14_Node000011_Node000012" class="edge">
<title>Node11&#45;&gt;Node12</title>
<g id="a_edge14_Node000011_Node000012"><a xlink:title=" ">
<path fill="none" stroke="#63b8ff" d="M633.36,-199.88C654.48,-202.07 677.17,-204.42 698.5,-206.64"/>
<polygon fill="#63b8ff" stroke="#63b8ff" points="698.05,-210.11 708.35,-207.66 698.77,-203.14 698.05,-210.11"/>
</a>
</g>
</g>
<!-- Node13 -->
<g id="Node000013" class="node">
<title>Node13</title>
<g id="a_Node000013"><a xlink:href="interfacefr_1_1softsf_1_1sudokufx_1_1interfaces_1_1mapper_1_1_i_software_mapper.html#a85adc191251bde9870609d4b2cb23ee6" target="_top" xlink:title="Maps a SoftwareDto object to a Software object.">
<polygon fill="white" stroke="#666666" points="1145.75,-232 929.5,-232 929.5,-200 1145.75,-200 1145.75,-232"/>
<text text-anchor="start" x="937.5" y="-218.5" font-family="Helvetica,sans-Serif" font-size="10.00">fr.softsf.sudokufx.interfaces.mapper.</text>
<text text-anchor="middle" x="1037.62" y="-206.5" font-family="Helvetica,sans-Serif" font-size="10.00">ISoftwareMapper.mapSoftwareDtoToSoftware</text>
</a>
</g>
</g>
<!-- Node12&#45;&gt;Node13 -->
<g id="edge15_Node000012_Node000013" class="edge">
<title>Node12&#45;&gt;Node13</title>
<g id="a_edge15_Node000012_Node000013"><a xlink:title=" ">
<path fill="none" stroke="#63b8ff" d="M869.98,-216C885.38,-216 901.82,-216 918.16,-216"/>
<polygon fill="#63b8ff" stroke="#63b8ff" points="917.93,-219.5 927.93,-216 917.93,-212.5 917.93,-219.5"/>
</a>
</g>
</g>
<!-- Node14 -->
<g id="Node000014" class="node">
<title>Node14</title>
<g id="a_Node000014"><a xlink:href="interfacefr_1_1softsf_1_1sudokufx_1_1interfaces_1_1mapper_1_1_i_software_mapper.html#addc8516cb5cc6171c663e132d5fdddd6" target="_top" xlink:title="Maps a Software object to a SoftwareDto object.">
<polygon fill="white" stroke="#666666" points="1126.25,-282 949,-282 949,-250 1126.25,-250 1126.25,-282"/>
<text text-anchor="start" x="957" y="-268.5" font-family="Helvetica,sans-Serif" font-size="10.00">fr.softsf.sudokufx.interfaces.mapper.</text>
<text text-anchor="middle" x="1037.62" y="-256.5" font-family="Helvetica,sans-Serif" font-size="10.00">ISoftwareMapper.mapSoftwareToDto</text>
</a>
</g>
</g>
<!-- Node12&#45;&gt;Node14 -->
<g id="edge16_Node000012_Node000014" class="edge">
<title>Node12&#45;&gt;Node14</title>
<g id="a_edge16_Node000012_Node000014"><a xlink:title=" ">
<path fill="none" stroke="#63b8ff" d="M869.98,-232.1C893.71,-236.92 919.94,-242.26 944.44,-247.24"/>
<polygon fill="#63b8ff" stroke="#63b8ff" points="943.57,-250.64 954.07,-249.2 944.97,-243.78 943.57,-250.64"/>
</a>
</g>
</g>
<!-- Node16 -->
<g id="Node000016" class="node">
<title>Node16</title>
<g id="a_Node000016"><a xlink:href="interfacefr_1_1softsf_1_1sudokufx_1_1repository_1_1_software_repository.html#ae83142c4226c94b3b24f050848ae74c4" target="_top" xlink:title=" ">
<polygon fill="white" stroke="#666666" points="879.25,-32 700.5,-32 700.5,0 879.25,0 879.25,-32"/>
<text text-anchor="start" x="708.5" y="-18.5" font-family="Helvetica,sans-Serif" font-size="10.00">fr.softsf.sudokufx.repository.</text>
<text text-anchor="middle" x="789.88" y="-6.5" font-family="Helvetica,sans-Serif" font-size="10.00">SoftwareRepository.findFirstSoftware</text>
</a>
</g>
</g>
<!-- Node15&#45;&gt;Node16 -->
<g id="edge18_Node000015_Node000016" class="edge">
<title>Node15&#45;&gt;Node16</title>
<g id="a_edge18_Node000015_Node000016"><a xlink:title=" ">
<path fill="none" stroke="#63b8ff" d="M618.7,-51.27C643.63,-46.1 671.98,-40.23 698.3,-34.77"/>
<polygon fill="#63b8ff" stroke="#63b8ff" points="698.87,-38.23 707.95,-32.77 697.45,-31.37 698.87,-38.23"/>
</a>
</g>
</g>
<!-- Node17&#45;&gt;Node12 -->
<g id="edge27_Node000017_Node000012" class="edge">
<title>Node17&#45;&gt;Node12</title>
<g id="a_edge27_Node000017_Node000012"><a xlink:title=" ">
<path fill="none" stroke="#63b8ff" d="M627.87,-157.49C635.57,-159.98 643.14,-162.8 650.25,-166 668.01,-174 668.49,-183 686.25,-191 690.48,-192.91 694.88,-194.68 699.37,-196.33"/>
<polygon fill="#63b8ff" stroke="#63b8ff" points="697.96,-199.54 708.55,-199.46 700.22,-192.92 697.96,-199.54"/>
</a>
</g>
</g>
<!-- Node18 -->
<g id="Node000018" class="node">
<title>Node18</title>
<g id="a_Node000018"><a xlink:href="classfr_1_1softsf_1_1sudokufx_1_1service_1_1_version_service.html#a5d1ec54faf65957f9b2dc35dd5a2bedb" target="_top" xlink:title="Checks the latest version of the software by querying the GitHub API for the repository&#39;s tags.">
<polygon fill="white" stroke="#666666" points="874.75,-182 705,-182 705,-150 874.75,-150 874.75,-182"/>
<text text-anchor="start" x="713" y="-168.5" font-family="Helvetica,sans-Serif" font-size="10.00">fr.softsf.sudokufx.service.</text>
<text text-anchor="middle" x="789.88" y="-156.5" font-family="Helvetica,sans-Serif" font-size="10.00">VersionService.checkLatestVersion</text>
</a>
</g>
</g>
<!-- Node17&#45;&gt;Node18 -->
<g id="edge20_Node000017_Node000018" class="edge">
<title>Node17&#45;&gt;Node18</title>
<g id="a_edge20_Node000017_Node000018"><a xlink:title=" ">
<path fill="none" stroke="#63b8ff" d="M634.38,-149.99C653.47,-151.97 673.78,-154.07 693.19,-156.08"/>
<polygon fill="#63b8ff" stroke="#63b8ff" points="692.69,-159.55 703,-157.1 693.41,-152.59 692.69,-159.55"/>
</a>
</g>
</g>
<!-- Node22 -->
<g id="Node000022" class="node">
<title>Node22</title>
<g id="a_Node000022"><a xlink:href="interfacefr_1_1softsf_1_1sudokufx_1_1interfaces_1_1_i_grid_master.html#a7ae916d7f64607637b7bf5bf33fd0eb3" target="_top" xlink:title="Crée les grilles de Sudoku (résolue et à résoudre) en fonction du niveau de difficulté.">
<polygon fill="white" stroke="#666666" points="860.5,-132 719.25,-132 719.25,-100 860.5,-100 860.5,-132"/>
<text text-anchor="start" x="727.25" y="-118.5" font-family="Helvetica,sans-Serif" font-size="10.00">fr.softsf.sudokufx.interfaces.</text>
<text text-anchor="middle" x="789.88" y="-106.5" font-family="Helvetica,sans-Serif" font-size="10.00">IGridMaster.creerLesGrilles</text>
</a>
</g>
</g>
<!-- Node17&#45;&gt;Node22 -->
<g id="edge24_Node000017_Node000022" class="edge">
<title>Node17&#45;&gt;Node22</title>
<g id="a_edge24_Node000017_Node000022"><a xlink:title=" ">
<path fill="none" stroke="#63b8ff" d="M634.38,-132.01C658.3,-129.53 684.14,-126.85 707.73,-124.41"/>
<polygon fill="#63b8ff" stroke="#63b8ff" points="708.01,-127.9 717.6,-123.39 707.29,-120.94 708.01,-127.9"/>
</a>
</g>
</g>
<!-- Node23 -->
<g id="Node000023" class="node">
<title>Node23</title>
<g id="a_Node000023"><a xlink:href="classfr_1_1softsf_1_1sudokufx_1_1viewmodel_1_1_full_menu_view_model.html#a99e8ff186f421e303199bb273f082c40" target="_top" xlink:title=" ">
<polygon fill="white" stroke="#666666" points="870.25,-82 709.5,-82 709.5,-50 870.25,-50 870.25,-82"/>
<text text-anchor="start" x="717.5" y="-68.5" font-family="Helvetica,sans-Serif" font-size="10.00">fr.softsf.sudokufx.viewmodel.</text>
<text text-anchor="middle" x="789.88" y="-56.5" font-family="Helvetica,sans-Serif" font-size="10.00">FullMenuViewModel.setWelcome</text>
</a>
</g>
</g>
<!-- Node17&#45;&gt;Node23 -->
<g id="edge25_Node000017_Node000023" class="edge">
<title>Node17&#45;&gt;Node23</title>
<g id="a_edge25_Node000017_Node000023"><a xlink:title=" ">
<path fill="none" stroke="#63b8ff" d="M589.4,-124.61C616.71,-114.22 653.3,-100.92 686.25,-91 692.76,-89.04 699.54,-87.12 706.37,-85.28"/>
<polygon fill="#63b8ff" stroke="#63b8ff" points="706.88,-88.76 715.65,-82.83 705.09,-81.99 706.88,-88.76"/>
</a>
</g>
</g>
<!-- Node19 -->
<g id="Node000019" class="node">
<title>Node19</title>
<g id="a_Node000019"><a xlink:href="classfr_1_1softsf_1_1sudokufx_1_1service_1_1_version_service.html#ac909ce26310a3c5b01262ad5f3affcbe" target="_top" xlink:title="Parses the JSON response from the GitHub API to extract the latest published version.">
<polygon fill="white" stroke="#666666" points="1113.88,-182 961.38,-182 961.38,-150 1113.88,-150 1113.88,-182"/>
<text text-anchor="start" x="969.38" y="-168.5" font-family="Helvetica,sans-Serif" font-size="10.00">fr.softsf.sudokufx.service.</text>
<text text-anchor="middle" x="1037.62" y="-156.5" font-family="Helvetica,sans-Serif" font-size="10.00">VersionService.parseResponse</text>
</a>
</g>
</g>
<!-- Node18&#45;&gt;Node19 -->
<g id="edge21_Node000018_Node000019" class="edge">
<title>Node18&#45;&gt;Node19</title>
<g id="a_edge21_Node000018_Node000019"><a xlink:title=" ">
<path fill="none" stroke="#63b8ff" d="M875.1,-166C899.21,-166 925.53,-166 949.8,-166"/>
<polygon fill="#63b8ff" stroke="#63b8ff" points="949.64,-169.5 959.64,-166 949.64,-162.5 949.64,-169.5"/>
</a>
</g>
</g>
<!-- Node20 -->
<g id="Node000020" class="node">
<title>Node20</title>
<g id="a_Node000020"><a xlink:href="classfr_1_1softsf_1_1sudokufx_1_1service_1_1_version_service.html#af166c049683464c03d118142b986ab71" target="_top" xlink:title="Compares two version strings in the format MAJOR.MINOR.PATCH.">
<polygon fill="white" stroke="#666666" points="1341,-207 1181.75,-207 1181.75,-175 1341,-175 1341,-207"/>
<text text-anchor="start" x="1189.75" y="-193.5" font-family="Helvetica,sans-Serif" font-size="10.00">fr.softsf.sudokufx.service.</text>
<text text-anchor="middle" x="1261.38" y="-181.5" font-family="Helvetica,sans-Serif" font-size="10.00">VersionService.compareVersions</text>
</a>
</g>
</g>
<!-- Node19&#45;&gt;Node20 -->
<g id="edge22_Node000019_Node000020" class="edge">
<title>Node19&#45;&gt;Node20</title>
<g id="a_edge22_Node000019_Node000020"><a xlink:title=" ">
<path fill="none" stroke="#63b8ff" d="M1114.32,-174.53C1132.29,-176.56 1151.65,-178.74 1170.2,-180.83"/>
<polygon fill="#63b8ff" stroke="#63b8ff" points="1169.79,-184.31 1180.12,-181.95 1170.57,-177.35 1169.79,-184.31"/>
</a>
</g>
</g>
<!-- Node21 -->
<g id="Node000021" class="node">
<title>Node21</title>
<g id="a_Node000021"><a xlink:href="classfr_1_1softsf_1_1sudokufx_1_1utils_1_1_my_regex.html#a981702b076ee54a416d676b6f7a182fc" target="_top" xlink:title="Validates the given text against the specified regular expression.">
<polygon fill="white" stroke="#666666" points="1335.75,-157 1187,-157 1187,-125 1335.75,-125 1335.75,-157"/>
<text text-anchor="start" x="1195" y="-143.5" font-family="Helvetica,sans-Serif" font-size="10.00">fr.softsf.sudokufx.utils.</text>
<text text-anchor="middle" x="1261.38" y="-131.5" font-family="Helvetica,sans-Serif" font-size="10.00">MyRegex.isValidatedByRegex</text>
</a>
</g>
</g>
<!-- Node19&#45;&gt;Node21 -->
<g id="edge23_Node000019_Node000021" class="edge">
<title>Node19&#45;&gt;Node21</title>
<g id="a_edge23_Node000019_Node000021"><a xlink:title=" ">
<path fill="none" stroke="#63b8ff" d="M1114.32,-157.47C1133.92,-155.26 1155.15,-152.86 1175.2,-150.6"/>
<polygon fill="#63b8ff" stroke="#63b8ff" points="1175.47,-154.09 1185.02,-149.5 1174.69,-147.14 1175.47,-154.09"/>
</a>
</g>
</g>
<!-- Node24 -->
<g id="Node000024" class="node">
<title>Node24</title>
<g id="a_Node000024"><a xlink:href="classfr_1_1softsf_1_1sudokufx_1_1viewmodel_1_1_full_menu_view_model.html#a574eda9c01df428c38524cc5acf49fbf" target="_top" xlink:title=" ">
<polygon fill="white" stroke="#666666" points="1128.88,-82 946.38,-82 946.38,-50 1128.88,-50 1128.88,-82"/>
<text text-anchor="start" x="954.38" y="-68.5" font-family="Helvetica,sans-Serif" font-size="10.00">fr.softsf.sudokufx.viewmodel.</text>
<text text-anchor="middle" x="1037.62" y="-56.5" font-family="Helvetica,sans-Serif" font-size="10.00">FullMenuViewModel.welcomeProperty</text>
</a>
</g>
</g>
<!-- Node23&#45;&gt;Node24 -->
<g id="edge26_Node000023_Node000024" class="edge">
<title>Node23&#45;&gt;Node24</title>
<g id="a_edge26_Node000023_Node000024"><a xlink:title=" ">
<path fill="none" stroke="#63b8ff" d="M870.66,-66C891.1,-66 913.35,-66 934.73,-66"/>
<polygon fill="#63b8ff" stroke="#63b8ff" points="934.64,-69.5 944.64,-66 934.64,-62.5 934.64,-69.5"/>
</a>
</g>
</g>
</g>
</svg>
