<?xml version="1.0" encoding="UTF-8" standalone="no"?>
<!DOCTYPE svg PUBLIC "-//W3C//DTD SVG 1.1//EN"
 "http://www.w3.org/Graphics/SVG/1.1/DTD/svg11.dtd">
<!-- Generated by graphviz version 12.2.0 (20241103.1931)
 -->
<!-- Title: fr.softsf.sudokufx.view.components.toaster.ToasterButton Pages: 1 -->
<svg width="207pt" height="172pt"
 viewBox="0.00 0.00 207.25 172.00" xmlns="http://www.w3.org/2000/svg" xmlns:xlink="http://www.w3.org/1999/xlink">

<svg id="main" version="1.1" xmlns="http://www.w3.org/2000/svg" xmlns:xlink="http://www.w3.org/1999/xlink" xml:space="preserve">

<style type="text/css"><![CDATA[
.node, .edge {opacity: 0.7;}
.node.selected, .edge.selected {opacity: 1;}
.edge:hover path { stroke: red; }
.edge:hover polygon { stroke: red; fill: red; }
]]></style>
<script type="application/ecmascript" xlink:href="svg.min.js"/>
<svg id="graph" class="graph">
<g id="graph0" class="graph" transform="scale(1 1) rotate(0) translate(4 168)">
<title>fr.softsf.sudokufx.view.components.toaster.ToasterButton</title>
<!-- Node1 -->
<g id="Node000001" class="node">
<title>Node1</title>
<g id="a_Node000001"><a xlink:title="A custom button with a display text and a full detail text.">
<polygon fill="#999999" stroke="none" points="199.25,-76 0,-76 0,0 199.25,0 199.25,-76"/>
<text text-anchor="start" x="4" y="-62.5" font-family="Helvetica,sans-Serif" font-size="10.00">fr.softsf.sudokufx.view.components.toaster.</text>
<text text-anchor="start" x="69.25" y="-50.5" font-family="Helvetica,sans-Serif" font-size="10.00">ToasterButton</text>
<text text-anchor="start" x="22.31" y="-34.5" font-family="Helvetica,sans-Serif" font-size="10.00">&#45;</text>
<text text-anchor="start" x="47.62" y="-34.5" font-family="Helvetica,sans-Serif" font-size="10.00">String fullDetailText</text>
<text text-anchor="start" x="20.81" y="-18.5" font-family="Helvetica,sans-Serif" font-size="10.00">+</text>
<text text-anchor="start" x="47.62" y="-18.5" font-family="Helvetica,sans-Serif" font-size="10.00">ToasterButton(String</text>
<text text-anchor="start" x="47.62" y="-6.5" font-family="Helvetica,sans-Serif" font-size="10.00"> text, String fullDetailText)</text>
<polygon fill="#666666" stroke="#666666" points="0,-46 0,-46 199.25,-46 199.25,-46 0,-46"/>
<polygon fill="#666666" stroke="#666666" points="0,-30 0,-30 45.62,-30 45.62,-30 0,-30"/>
<polygon fill="#666666" stroke="#666666" points="45.62,-30 45.62,-30 199.25,-30 199.25,-30 45.62,-30"/>
<polygon fill="none" stroke="#666666" points="0,0 0,-76 199.25,-76 199.25,0 0,0"/>
</a>
</g>
</g>
<!-- Node2 -->
<g id="Node000002" class="node">
<title>Node2</title>
<g id="a_Node000002"><a xlink:title=" ">
<polygon fill="white" stroke="none" points="117.88,-164 81.38,-164 81.38,-112 117.88,-112 117.88,-164"/>
<text text-anchor="start" x="85.38" y="-150.5" font-family="Helvetica,sans-Serif" font-size="10.00">Button</text>
<text text-anchor="start" x="98.12" y="-134.5" font-family="Helvetica,sans-Serif" font-size="10.00"> </text>
<text text-anchor="start" x="98.12" y="-118.5" font-family="Helvetica,sans-Serif" font-size="10.00"> </text>
<polygon fill="#666666" stroke="#666666" points="81.38,-146 81.38,-146 117.88,-146 117.88,-146 81.38,-146"/>
<polygon fill="#666666" stroke="#666666" points="81.38,-130 81.38,-130 117.88,-130 117.88,-130 81.38,-130"/>
<polygon fill="none" stroke="#666666" points="81.38,-112 81.38,-164 117.88,-164 117.88,-112 81.38,-112"/>
</a>
</g>
</g>
<!-- Node2&#45;&gt;Node1 -->
<g id="edge1_Node000001_Node000002" class="edge">
<title>Node2&#45;&gt;Node1</title>
<g id="a_edge1_Node000001_Node000002"><a xlink:title=" ">
<path fill="none" stroke="#63b8ff" d="M99.62,-100.61C99.62,-92.5 99.62,-83.9 99.62,-75.78"/>
<polygon fill="none" stroke="#63b8ff" points="96.13,-100.5 99.63,-110.5 103.13,-100.5 96.13,-100.5"/>
</a>
</g>
</g>
</g>
</svg>
</svg>

<style type='text/css'>
<![CDATA[
[data-mouse-over-selected='false'] { opacity: 0.7; }
[data-mouse-over-selected='true']  { opacity: 1.0; }
]]>
</style>
<script type="application/ecmascript"><![CDATA[
document.addEventListener('DOMContentLoaded', (event) => {
  highlightEdges();
  highlightAdjacentNodes();
});
]]></script>
</svg>
