<?xml version="1.0" encoding="UTF-8" standalone="no"?>
<!DOCTYPE svg PUBLIC "-//W3C//DTD SVG 1.1//EN"
 "http://www.w3.org/Graphics/SVG/1.1/DTD/svg11.dtd">
<!-- Generated by graphviz version 12.2.1 (20241206.2353)
 -->
<!-- Title: fr.softsf.sudokufx.configuration.database.ApplicationKeystore.symmetricKeyNotInKeystore Pages: 1 -->
<svg width="733pt" height="90pt"
 viewBox="0.00 0.00 733.25 90.00" xmlns="http://www.w3.org/2000/svg" xmlns:xlink="http://www.w3.org/1999/xlink">
<g id="graph0" class="graph" transform="scale(1 1) rotate(0) translate(4 86)">
<title>fr.softsf.sudokufx.configuration.database.ApplicationKeystore.symmetricKeyNotInKeystore</title>
<!-- Node1 -->
<g id="Node000001" class="node">
<title>Node1</title>
<g id="a_Node000001"><a xlink:title="Set the symmetric key and set encryption service.">
<polygon fill="#999999" stroke="#666666" points="232,-32 0,-32 0,0 232,0 232,-32"/>
<text text-anchor="start" x="8" y="-18.5" font-family="Helvetica,sans-Serif" font-size="10.00">fr.softsf.sudokufx.configuration.database.</text>
<text text-anchor="middle" x="116" y="-6.5" font-family="Helvetica,sans-Serif" font-size="10.00">ApplicationKeystore.symmetricKeyNotInKeystore</text>
</a>
</g>
</g>
<!-- Node2 -->
<g id="Node000002" class="node">
<title>Node2</title>
<g id="a_Node000002"><a xlink:href="classfr_1_1softsf_1_1sudokufx_1_1configuration_1_1database_1_1_application_keystore.html#a1632efeaf8085ba148777459a03da030" target="_top" xlink:title="Add alias:secret in the Keystore.">
<polygon fill="white" stroke="#666666" points="464.75,-82 268,-82 268,-50 464.75,-50 464.75,-82"/>
<text text-anchor="start" x="276" y="-68.5" font-family="Helvetica,sans-Serif" font-size="10.00">fr.softsf.sudokufx.configuration.database.</text>
<text text-anchor="middle" x="366.38" y="-56.5" font-family="Helvetica,sans-Serif" font-size="10.00">ApplicationKeystore.addToKeystore</text>
</a>
</g>
</g>
<!-- Node1&#45;&gt;Node2 -->
<g id="edge1_Node000001_Node000002" class="edge">
<title>Node1&#45;&gt;Node2</title>
<g id="a_edge1_Node000001_Node000002"><a xlink:title=" ">
<path fill="none" stroke="#63b8ff" d="M198.67,-32.44C222.34,-37.2 248.34,-42.44 272.63,-47.33"/>
<polygon fill="#63b8ff" stroke="#63b8ff" points="271.68,-50.71 282.17,-49.25 273.06,-43.85 271.68,-50.71"/>
</a>
</g>
</g>
<!-- Node4 -->
<g id="Node000004" class="node">
<title>Node4</title>
<g id="a_Node000004"><a xlink:href="classfr_1_1softsf_1_1sudokufx_1_1configuration_1_1database_1_1_application_keystore.html#ab5a3da56ae05a04d32f27b58fcd0d762" target="_top" xlink:title="Check the symmetric key presence.">
<polygon fill="white" stroke="#666666" points="464.75,-32 268,-32 268,0 464.75,0 464.75,-32"/>
<text text-anchor="start" x="276" y="-18.5" font-family="Helvetica,sans-Serif" font-size="10.00">fr.softsf.sudokufx.configuration.database.</text>
<text text-anchor="middle" x="366.38" y="-6.5" font-family="Helvetica,sans-Serif" font-size="10.00">ApplicationKeystore.symmetricKey</text>
</a>
</g>
</g>
<!-- Node1&#45;&gt;Node4 -->
<g id="edge3_Node000001_Node000004" class="edge">
<title>Node1&#45;&gt;Node4</title>
<g id="a_edge3_Node000001_Node000004"><a xlink:title=" ">
<path fill="none" stroke="#63b8ff" d="M232.46,-9.26C240.38,-9.24 248.34,-9.25 256.22,-9.29"/>
<polygon fill="#63b8ff" stroke="#63b8ff" points="256.15,-12.79 266.18,-9.38 256.21,-5.79 256.15,-12.79"/>
</a>
</g>
</g>
<!-- Node3 -->
<g id="Node000003" class="node">
<title>Node3</title>
<g id="a_Node000003"><a xlink:href="classfr_1_1softsf_1_1sudokufx_1_1configuration_1_1database_1_1_application_keystore.html#a47a29c9d920c90352ec1a7226e2707bf" target="_top" xlink:title="Write data to the keystore file.">
<polygon fill="white" stroke="#666666" points="711.38,-82 514.62,-82 514.62,-50 711.38,-50 711.38,-82"/>
<text text-anchor="start" x="522.62" y="-68.5" font-family="Helvetica,sans-Serif" font-size="10.00">fr.softsf.sudokufx.configuration.database.</text>
<text text-anchor="middle" x="613" y="-56.5" font-family="Helvetica,sans-Serif" font-size="10.00">ApplicationKeystore.writeTheKeystore</text>
</a>
</g>
</g>
<!-- Node2&#45;&gt;Node3 -->
<g id="edge2_Node000002_Node000003" class="edge">
<title>Node2&#45;&gt;Node3</title>
<g id="a_edge2_Node000002_Node000003"><a xlink:title=" ">
<path fill="none" stroke="#63b8ff" d="M465.11,-66C477.54,-66 490.33,-66 502.92,-66"/>
<polygon fill="#63b8ff" stroke="#63b8ff" points="502.9,-69.5 512.9,-66 502.9,-62.5 502.9,-69.5"/>
</a>
</g>
</g>
<!-- Node4&#45;&gt;Node1 -->
<g id="edge5_Node000004_Node000001" class="edge">
<title>Node4&#45;&gt;Node1</title>
<g id="a_edge5_Node000004_Node000001"><a xlink:title=" ">
<path fill="none" stroke="#63b8ff" d="M267.7,-22.61C259.83,-22.69 251.83,-22.74 243.8,-22.75"/>
<polygon fill="#63b8ff" stroke="#63b8ff" points="243.98,-19.25 233.98,-22.74 243.97,-26.25 243.98,-19.25"/>
</a>
</g>
</g>
<!-- Node5 -->
<g id="Node000005" class="node">
<title>Node5</title>
<g id="a_Node000005"><a xlink:href="classfr_1_1softsf_1_1sudokufx_1_1configuration_1_1database_1_1_application_keystore.html#a5424163e41a856135ef7cfbd72468a09" target="_top" xlink:title="Get the symmetric key and set encryption service.">
<polygon fill="white" stroke="#666666" points="725.25,-32 500.75,-32 500.75,0 725.25,0 725.25,-32"/>
<text text-anchor="start" x="508.75" y="-18.5" font-family="Helvetica,sans-Serif" font-size="10.00">fr.softsf.sudokufx.configuration.database.</text>
<text text-anchor="middle" x="613" y="-6.5" font-family="Helvetica,sans-Serif" font-size="10.00">ApplicationKeystore.symmetricKeyIsInKeystore</text>
</a>
</g>
</g>
<!-- Node4&#45;&gt;Node5 -->
<g id="edge4_Node000004_Node000005" class="edge">
<title>Node4&#45;&gt;Node5</title>
<g id="a_edge4_Node000004_Node000005"><a xlink:title=" ">
<path fill="none" stroke="#63b8ff" d="M465.11,-16C472.98,-16 480.99,-16 489.01,-16"/>
<polygon fill="#63b8ff" stroke="#63b8ff" points="488.81,-19.5 498.81,-16 488.81,-12.5 488.81,-19.5"/>
</a>
</g>
</g>
</g>
</svg>
