<?xml version="1.0" encoding="UTF-8" standalone="no"?>
<!DOCTYPE svg PUBLIC "-//W3C//DTD SVG 1.1//EN"
 "http://www.w3.org/Graphics/SVG/1.1/DTD/svg11.dtd">
<!-- Generated by graphviz version 12.2.0 (20241103.1931)
 -->
<!-- Title: fr.softsf.sudokufx.view.SplashScreenView.SplashScreenView Pages: 1 -->
<svg width="880pt" height="388pt"
 viewBox="0.00 0.00 879.75 388.00" xmlns="http://www.w3.org/2000/svg" xmlns:xlink="http://www.w3.org/1999/xlink">
<g id="graph0" class="graph" transform="scale(1 1) rotate(0) translate(4 384)">
<title>fr.softsf.sudokufx.view.SplashScreenView.SplashScreenView</title>
<!-- Node1 -->
<g id="Node000001" class="node">
<title>Node1</title>
<g id="a_Node000001"><a xlink:title="Constructor for SplashScreenView.">
<polygon fill="#999999" stroke="#666666" points="183.25,-249 0,-249 0,-217 183.25,-217 183.25,-249"/>
<text text-anchor="start" x="8" y="-235.5" font-family="Helvetica,sans-Serif" font-size="10.00">fr.softsf.sudokufx.view.</text>
<text text-anchor="middle" x="91.62" y="-223.5" font-family="Helvetica,sans-Serif" font-size="10.00">SplashScreenView.SplashScreenView</text>
</a>
</g>
</g>
<!-- Node2 -->
<g id="Node000002" class="node">
<title>Node2</title>
<g id="a_Node000002"><a xlink:href="classfr_1_1softsf_1_1sudokufx_1_1view_1_1_splash_screen_view.html#abe063bf7b79bce818e0d42c0c9b9d229" target="_top" xlink:title="Sets up the basic structure and properties of the UI components, similar to what would be defined in ...">
<polygon fill="white" stroke="#666666" points="400.25,-324 223,-324 223,-292 400.25,-292 400.25,-324"/>
<text text-anchor="start" x="231" y="-310.5" font-family="Helvetica,sans-Serif" font-size="10.00">fr.softsf.sudokufx.view.</text>
<text text-anchor="middle" x="311.62" y="-298.5" font-family="Helvetica,sans-Serif" font-size="10.00">SplashScreenView.fxmlLikeStructure</text>
</a>
</g>
</g>
<!-- Node1&#45;&gt;Node2 -->
<g id="edge1_Node000001_Node000002" class="edge">
<title>Node1&#45;&gt;Node2</title>
<g id="a_edge1_Node000001_Node000002"><a xlink:title=" ">
<path fill="none" stroke="#63b8ff" d="M131.02,-249.42C155.92,-259.76 189.2,-272.99 219.25,-283 224.67,-284.81 230.3,-286.58 235.99,-288.3"/>
<polygon fill="#63b8ff" stroke="#63b8ff" points="234.91,-291.63 245.49,-291.11 236.89,-284.92 234.91,-291.63"/>
</a>
</g>
</g>
<!-- Node3 -->
<g id="Node000003" class="node">
<title>Node3</title>
<g id="a_Node000003"><a xlink:href="classfr_1_1softsf_1_1sudokufx_1_1view_1_1_splash_screen_view.html#a0af4ab414c9c917edc9975bfd5c63fbd" target="_top" xlink:title="Nests the UI components in their parent containers.">
<polygon fill="white" stroke="#666666" points="397.25,-274 226,-274 226,-242 397.25,-242 397.25,-274"/>
<text text-anchor="start" x="234" y="-260.5" font-family="Helvetica,sans-Serif" font-size="10.00">fr.softsf.sudokufx.view.</text>
<text text-anchor="middle" x="311.62" y="-248.5" font-family="Helvetica,sans-Serif" font-size="10.00">SplashScreenView.nestingOfNodes</text>
</a>
</g>
</g>
<!-- Node1&#45;&gt;Node3 -->
<g id="edge2_Node000001_Node000003" class="edge">
<title>Node1&#45;&gt;Node3</title>
<g id="a_edge2_Node000001_Node000003"><a xlink:title=" ">
<path fill="none" stroke="#63b8ff" d="M183.5,-243.42C193.79,-244.6 204.31,-245.81 214.67,-247"/>
<polygon fill="#63b8ff" stroke="#63b8ff" points="213.99,-250.44 224.32,-248.1 214.79,-243.49 213.99,-250.44"/>
</a>
</g>
</g>
<!-- Node4 -->
<g id="Node000004" class="node">
<title>Node4</title>
<g id="a_Node000004"><a xlink:href="classfr_1_1softsf_1_1sudokufx_1_1view_1_1_splash_screen_view.html#acddefac20ee4e90165233cb342d56fe0" target="_top" xlink:title="Configures the properties and styles of the UI nodes.">
<polygon fill="white" stroke="#666666" points="404,-224 219.25,-224 219.25,-192 404,-192 404,-224"/>
<text text-anchor="start" x="227.25" y="-210.5" font-family="Helvetica,sans-Serif" font-size="10.00">fr.softsf.sudokufx.view.</text>
<text text-anchor="middle" x="311.62" y="-198.5" font-family="Helvetica,sans-Serif" font-size="10.00">SplashScreenView.nodesConfiguration</text>
</a>
</g>
</g>
<!-- Node1&#45;&gt;Node4 -->
<g id="edge3_Node000001_Node000004" class="edge">
<title>Node1&#45;&gt;Node4</title>
<g id="a_edge3_Node000001_Node000004"><a xlink:title=" ">
<path fill="none" stroke="#63b8ff" d="M183.5,-222.58C191.44,-221.67 199.51,-220.74 207.54,-219.82"/>
<polygon fill="#63b8ff" stroke="#63b8ff" points="207.81,-223.31 217.34,-218.7 207.01,-216.36 207.81,-223.31"/>
</a>
</g>
</g>
<!-- Node16 -->
<g id="Node000016" class="node">
<title>Node16</title>
<g id="a_Node000016"><a xlink:href="classfr_1_1softsf_1_1sudokufx_1_1view_1_1_splash_screen_view.html#a202e9727891bebc7d520ec588134a0a7" target="_top" xlink:title="Displays the splash screen.">
<polygon fill="white" stroke="#666666" points="404,-174 219.25,-174 219.25,-142 404,-142 404,-174"/>
<text text-anchor="start" x="227.25" y="-160.5" font-family="Helvetica,sans-Serif" font-size="10.00">fr.softsf.sudokufx.view.</text>
<text text-anchor="middle" x="311.62" y="-148.5" font-family="Helvetica,sans-Serif" font-size="10.00">SplashScreenView.showSplashScreen</text>
</a>
</g>
</g>
<!-- Node1&#45;&gt;Node16 -->
<g id="edge19_Node000001_Node000016" class="edge">
<title>Node1&#45;&gt;Node16</title>
<g id="a_edge19_Node000001_Node000016"><a xlink:title=" ">
<path fill="none" stroke="#63b8ff" d="M131.02,-216.58C155.92,-206.24 189.2,-193.01 219.25,-183 224.67,-181.19 230.3,-179.42 235.99,-177.7"/>
<polygon fill="#63b8ff" stroke="#63b8ff" points="236.89,-181.08 245.49,-174.89 234.91,-174.37 236.89,-181.08"/>
</a>
</g>
</g>
<!-- Node5 -->
<g id="Node000005" class="node">
<title>Node5</title>
<g id="a_Node000005"><a xlink:href="classfr_1_1softsf_1_1sudokufx_1_1view_1_1_splash_screen_view.html#a05ceacbaf9b2149100b85aa1915a98a2" target="_top" xlink:title="Animates the SVG flower.">
<polygon fill="white" stroke="#666666" points="628.12,-380 446.38,-380 446.38,-348 628.12,-348 628.12,-380"/>
<text text-anchor="start" x="454.38" y="-366.5" font-family="Helvetica,sans-Serif" font-size="10.00">fr.softsf.sudokufx.view.</text>
<text text-anchor="middle" x="537.25" y="-354.5" font-family="Helvetica,sans-Serif" font-size="10.00">SplashScreenView.animateFlowerSvg</text>
</a>
</g>
</g>
<!-- Node4&#45;&gt;Node5 -->
<g id="edge4_Node000004_Node000005" class="edge">
<title>Node4&#45;&gt;Node5</title>
<g id="a_edge4_Node000004_Node000005"><a xlink:title=" ">
<path fill="none" stroke="#63b8ff" d="M392.56,-224.4C396.67,-226.88 400.53,-229.73 404,-233 440.23,-267.1 403.55,-305.13 440,-339 440.77,-339.72 441.57,-340.42 442.38,-341.1"/>
<polygon fill="#63b8ff" stroke="#63b8ff" points="440.21,-343.86 450.39,-346.79 444.26,-338.15 440.21,-343.86"/>
</a>
</g>
</g>
<!-- Node6 -->
<g id="Node000006" class="node">
<title>Node6</title>
<g id="a_Node000006"><a xlink:href="classfr_1_1softsf_1_1sudokufx_1_1configuration_1_1_j_v_m_application_properties.html#a3f7b3c260ffbc879047a27ee9a1751f5" target="_top" xlink:title="Retrieves the current application name from system properties.">
<polygon fill="white" stroke="#666666" points="631.5,-330 443,-330 443,-298 631.5,-298 631.5,-330"/>
<text text-anchor="start" x="451" y="-316.5" font-family="Helvetica,sans-Serif" font-size="10.00">fr.softsf.sudokufx.configuration.</text>
<text text-anchor="middle" x="537.25" y="-304.5" font-family="Helvetica,sans-Serif" font-size="10.00">JVMApplicationProperties.getAppName</text>
</a>
</g>
</g>
<!-- Node4&#45;&gt;Node6 -->
<g id="edge5_Node000004_Node000006" class="edge">
<title>Node4&#45;&gt;Node6</title>
<g id="a_edge5_Node000004_Node000006"><a xlink:title=" ">
<path fill="none" stroke="#63b8ff" d="M389.42,-224.33C394.57,-226.82 399.49,-229.69 404,-233 427.85,-250.51 416.04,-271.65 440,-289 441.54,-290.11 443.12,-291.18 444.74,-292.2"/>
<polygon fill="#63b8ff" stroke="#63b8ff" points="442.64,-295.03 453.09,-296.79 446.01,-288.9 442.64,-295.03"/>
</a>
</g>
</g>
<!-- Node8 -->
<g id="Node000008" class="node">
<title>Node8</title>
<g id="a_Node000008"><a xlink:href="classfr_1_1softsf_1_1sudokufx_1_1configuration_1_1_j_v_m_application_properties.html#aa3d30fcaecd7e5f4b1f8fe6fee13570a" target="_top" xlink:title="Retrieves the current application version from system properties.">
<polygon fill="white" stroke="#666666" points="634.5,-280 440,-280 440,-248 634.5,-248 634.5,-280"/>
<text text-anchor="start" x="448" y="-266.5" font-family="Helvetica,sans-Serif" font-size="10.00">fr.softsf.sudokufx.configuration.</text>
<text text-anchor="middle" x="537.25" y="-254.5" font-family="Helvetica,sans-Serif" font-size="10.00">JVMApplicationProperties.getAppVersion</text>
</a>
</g>
</g>
<!-- Node4&#45;&gt;Node8 -->
<g id="edge7_Node000004_Node000008" class="edge">
<title>Node4&#45;&gt;Node8</title>
<g id="a_edge7_Node000004_Node000008"><a xlink:title=" ">
<path fill="none" stroke="#63b8ff" d="M378.51,-224.5C403.87,-230.85 433.06,-238.16 459.37,-244.75"/>
<polygon fill="#63b8ff" stroke="#63b8ff" points="458.43,-248.12 468.98,-247.15 460.13,-241.33 458.43,-248.12"/>
</a>
</g>
</g>
<!-- Node9 -->
<g id="Node000009" class="node">
<title>Node9</title>
<g id="a_Node000009"><a xlink:href="classfr_1_1softsf_1_1sudokufx_1_1view_1_1_splash_screen_view.html#ad126ac2f2a90b2422490ca0d896fa398" target="_top" xlink:title="Retrieves a message indicating the current loading or optimizing state.">
<polygon fill="white" stroke="#666666" points="616.5,-230 458,-230 458,-186 616.5,-186 616.5,-230"/>
<text text-anchor="start" x="466" y="-216.5" font-family="Helvetica,sans-Serif" font-size="10.00">fr.softsf.sudokufx.view.</text>
<text text-anchor="start" x="466" y="-204.5" font-family="Helvetica,sans-Serif" font-size="10.00">SplashScreenView.getLoadingOr</text>
<text text-anchor="middle" x="537.25" y="-192.5" font-family="Helvetica,sans-Serif" font-size="10.00">OptimizingMessage</text>
</a>
</g>
</g>
<!-- Node4&#45;&gt;Node9 -->
<g id="edge9_Node000004_Node000009" class="edge">
<title>Node4&#45;&gt;Node9</title>
<g id="a_edge9_Node000004_Node000009"><a xlink:title=" ">
<path fill="none" stroke="#63b8ff" d="M404.23,-208C418.08,-208 432.36,-208 446.18,-208"/>
<polygon fill="#63b8ff" stroke="#63b8ff" points="446.15,-211.5 456.15,-208 446.15,-204.5 446.15,-211.5"/>
</a>
</g>
</g>
<!-- Node12 -->
<g id="Node000012" class="node">
<title>Node12</title>
<g id="a_Node000012"><a xlink:href="classfr_1_1softsf_1_1sudokufx_1_1view_1_1_splash_screen_view.html#aafe300850c83d75b03d338a68d19c892" target="_top" xlink:title="Sets up the SVG for the Soft64 text logo in the center of the splash screen.">
<polygon fill="white" stroke="#666666" points="634.5,-168 440,-168 440,-124 634.5,-124 634.5,-168"/>
<text text-anchor="start" x="448" y="-154.5" font-family="Helvetica,sans-Serif" font-size="10.00">fr.softsf.sudokufx.view.</text>
<text text-anchor="start" x="448" y="-142.5" font-family="Helvetica,sans-Serif" font-size="10.00">SplashScreenView.setSplashscreenvbox</text>
<text text-anchor="middle" x="537.25" y="-130.5" font-family="Helvetica,sans-Serif" font-size="10.00">CenterhboxLogosoft64textsvg</text>
</a>
</g>
</g>
<!-- Node4&#45;&gt;Node12 -->
<g id="edge13_Node000004_Node000012" class="edge">
<title>Node4&#45;&gt;Node12</title>
<g id="a_edge13_Node000004_Node000012"><a xlink:title=" ">
<path fill="none" stroke="#63b8ff" d="M373.09,-191.51C383.41,-188.68 394.01,-185.76 404,-183 417.33,-179.31 431.4,-175.4 445.2,-171.55"/>
<polygon fill="#63b8ff" stroke="#63b8ff" points="446.05,-174.94 454.74,-168.88 444.16,-168.2 446.05,-174.94"/>
</a>
</g>
</g>
<!-- Node14 -->
<g id="Node000014" class="node">
<title>Node14</title>
<g id="a_Node000014"><a xlink:href="classfr_1_1softsf_1_1sudokufx_1_1view_1_1_splash_screen_view.html#a762ac1d676ca1be22b521cd731b8d9ba" target="_top" xlink:title="Sets up the SVG for the flower logo in the center of the splash screen.">
<polygon fill="white" stroke="#666666" points="634.5,-106 440,-106 440,-62 634.5,-62 634.5,-106"/>
<text text-anchor="start" x="448" y="-92.5" font-family="Helvetica,sans-Serif" font-size="10.00">fr.softsf.sudokufx.view.</text>
<text text-anchor="start" x="448" y="-80.5" font-family="Helvetica,sans-Serif" font-size="10.00">SplashScreenView.setSplashscreenvbox</text>
<text text-anchor="middle" x="537.25" y="-68.5" font-family="Helvetica,sans-Serif" font-size="10.00">CenterhboxStackpaneLogoflowersvg</text>
</a>
</g>
</g>
<!-- Node4&#45;&gt;Node14 -->
<g id="edge15_Node000004_Node000014" class="edge">
<title>Node4&#45;&gt;Node14</title>
<g id="a_edge15_Node000004_Node000014"><a xlink:title=" ">
<path fill="none" stroke="#63b8ff" d="M390.64,-191.63C395.38,-189.15 399.89,-186.29 404,-183 430.69,-161.62 413.8,-136.97 440,-115 440.94,-114.21 441.9,-113.44 442.88,-112.69"/>
<polygon fill="#63b8ff" stroke="#63b8ff" points="444.56,-115.78 450.91,-107.3 440.66,-109.97 444.56,-115.78"/>
</a>
</g>
</g>
<!-- Node15 -->
<g id="Node000015" class="node">
<title>Node15</title>
<g id="a_Node000015"><a xlink:href="classfr_1_1softsf_1_1sudokufx_1_1view_1_1_splash_screen_view.html#a53ead1ea80a08e06c15ae42ae101fcdf" target="_top" xlink:title="Sets up the SVG for the Sudoku logo in the top section of the splash screen.">
<polygon fill="white" stroke="#666666" points="634.5,-44 440,-44 440,0 634.5,0 634.5,-44"/>
<text text-anchor="start" x="448" y="-30.5" font-family="Helvetica,sans-Serif" font-size="10.00">fr.softsf.sudokufx.view.</text>
<text text-anchor="start" x="448" y="-18.5" font-family="Helvetica,sans-Serif" font-size="10.00">SplashScreenView.setSplashscreenvbox</text>
<text text-anchor="middle" x="537.25" y="-6.5" font-family="Helvetica,sans-Serif" font-size="10.00">TophboxLogosudosvg</text>
</a>
</g>
</g>
<!-- Node4&#45;&gt;Node15 -->
<g id="edge17_Node000004_Node000015" class="edge">
<title>Node4&#45;&gt;Node15</title>
<g id="a_edge17_Node000004_Node000015"><a xlink:title=" ">
<path fill="none" stroke="#63b8ff" d="M393.2,-191.57C397.1,-189.09 400.74,-186.25 404,-183 446.46,-140.67 398.49,-96.26 440,-53 440.47,-52.51 440.96,-52.02 441.45,-51.54"/>
<polygon fill="#63b8ff" stroke="#63b8ff" points="443.38,-54.49 448.83,-45.4 438.9,-49.1 443.38,-54.49"/>
</a>
</g>
</g>
<!-- Node7 -->
<g id="Node000007" class="node">
<title>Node7</title>
<g id="a_Node000007"><a xlink:href="classfr_1_1softsf_1_1sudokufx_1_1utils_1_1_my_regex.html#a981702b076ee54a416d676b6f7a182fc" target="_top" xlink:title="Validates the given text against the specified regular expression.">
<polygon fill="white" stroke="#666666" points="845.5,-317 696.75,-317 696.75,-285 845.5,-285 845.5,-317"/>
<text text-anchor="start" x="704.75" y="-303.5" font-family="Helvetica,sans-Serif" font-size="10.00">fr.softsf.sudokufx.utils.</text>
<text text-anchor="middle" x="771.12" y="-291.5" font-family="Helvetica,sans-Serif" font-size="10.00">MyRegex.isValidatedByRegex</text>
</a>
</g>
</g>
<!-- Node6&#45;&gt;Node7 -->
<g id="edge6_Node000006_Node000007" class="edge">
<title>Node6&#45;&gt;Node7</title>
<g id="a_edge6_Node000006_Node000007"><a xlink:title=" ">
<path fill="none" stroke="#63b8ff" d="M631.89,-308.75C649.53,-307.76 667.87,-306.73 685.22,-305.76"/>
<polygon fill="#63b8ff" stroke="#63b8ff" points="685.15,-309.27 694.94,-305.22 684.76,-302.28 685.15,-309.27"/>
</a>
</g>
</g>
<!-- Node8&#45;&gt;Node7 -->
<g id="edge8_Node000008_Node000007" class="edge">
<title>Node8&#45;&gt;Node7</title>
<g id="a_edge8_Node000008_Node000007"><a xlink:title=" ">
<path fill="none" stroke="#63b8ff" d="M634.91,-279.42C651.67,-282.1 668.98,-284.86 685.39,-287.48"/>
<polygon fill="#63b8ff" stroke="#63b8ff" points="684.67,-290.91 695.1,-289.03 685.77,-284 684.67,-290.91"/>
</a>
</g>
</g>
<!-- Node10 -->
<g id="Node000010" class="node">
<title>Node10</title>
<g id="a_Node000010"><a xlink:href="classfr_1_1softsf_1_1sudokufx_1_1utils_1_1_i18n.html#a7095fa285a498c3f20bf33488a69d22c" target="_top" xlink:title="Retrieves the localized string value for a given key.">
<polygon fill="white" stroke="#666666" points="829.38,-255 712.88,-255 712.88,-223 829.38,-223 829.38,-255"/>
<text text-anchor="start" x="720.88" y="-241.5" font-family="Helvetica,sans-Serif" font-size="10.00">fr.softsf.sudokufx.utils.</text>
<text text-anchor="middle" x="771.12" y="-229.5" font-family="Helvetica,sans-Serif" font-size="10.00">I18n.getValue</text>
</a>
</g>
</g>
<!-- Node9&#45;&gt;Node10 -->
<g id="edge10_Node000009_Node000010" class="edge">
<title>Node9&#45;&gt;Node10</title>
<g id="a_edge10_Node000009_Node000010"><a xlink:title=" ">
<path fill="none" stroke="#63b8ff" d="M616.75,-218.5C644.23,-222.17 674.85,-226.26 701.46,-229.82"/>
<polygon fill="#63b8ff" stroke="#63b8ff" points="700.72,-233.25 711.09,-231.11 701.65,-226.31 700.72,-233.25"/>
</a>
</g>
</g>
<!-- Node11 -->
<g id="Node000011" class="node">
<title>Node11</title>
<g id="a_Node000011"><a xlink:href="classfr_1_1softsf_1_1sudokufx_1_1configuration_1_1_j_v_m_application_properties.html#a46753fc32c7d3156f3aed0f0c63c758e" target="_top" xlink:title="Determines if the Spring context should exit on refresh.">
<polygon fill="white" stroke="#666666" points="871.75,-187 670.5,-187 670.5,-143 871.75,-143 871.75,-187"/>
<text text-anchor="start" x="678.5" y="-173.5" font-family="Helvetica,sans-Serif" font-size="10.00">fr.softsf.sudokufx.configuration.</text>
<text text-anchor="start" x="678.5" y="-161.5" font-family="Helvetica,sans-Serif" font-size="10.00">JVMApplicationProperties.isSpringContext</text>
<text text-anchor="middle" x="771.12" y="-149.5" font-family="Helvetica,sans-Serif" font-size="10.00">ExitOnRefresh</text>
</a>
</g>
</g>
<!-- Node9&#45;&gt;Node11 -->
<g id="edge11_Node000009_Node000011" class="edge">
<title>Node9&#45;&gt;Node11</title>
<g id="a_edge11_Node000009_Node000011"><a xlink:title=" ">
<path fill="none" stroke="#63b8ff" d="M616.75,-193.44C630.47,-190.9 644.97,-188.21 659.36,-185.54"/>
<polygon fill="#63b8ff" stroke="#63b8ff" points="659.65,-189.05 668.84,-183.78 658.37,-182.16 659.65,-189.05"/>
</a>
</g>
</g>
<!-- Node11&#45;&gt;Node11 -->
<g id="edge12_Node000011_Node000011" class="edge">
<title>Node11&#45;&gt;Node11</title>
<g id="a_edge12_Node000011_Node000011"><a xlink:title=" ">
<path fill="none" stroke="#63b8ff" d="M727.8,-187.21C724.25,-196.8 738.69,-205 771.12,-205 790.38,-205 803.3,-202.11 809.87,-197.75"/>
<polygon fill="#63b8ff" stroke="#63b8ff" points="813.07,-199.17 813.85,-188.6 806.65,-196.37 813.07,-199.17"/>
</a>
</g>
</g>
<!-- Node13 -->
<g id="Node000013" class="node">
<title>Node13</title>
<g id="a_Node000013"><a xlink:href="classfr_1_1softsf_1_1sudokufx_1_1view_1_1_splash_screen_view.html#a5d7017836e704c8e6db24f7d677041ba" target="_top" xlink:title="Creates an SVG shape and applies it to a Region.">
<polygon fill="white" stroke="#666666" points="845.5,-100 696.75,-100 696.75,-68 845.5,-68 845.5,-100"/>
<text text-anchor="start" x="704.75" y="-86.5" font-family="Helvetica,sans-Serif" font-size="10.00">fr.softsf.sudokufx.view.</text>
<text text-anchor="middle" x="771.12" y="-74.5" font-family="Helvetica,sans-Serif" font-size="10.00">SplashScreenView.createSVG</text>
</a>
</g>
</g>
<!-- Node12&#45;&gt;Node13 -->
<g id="edge14_Node000012_Node000013" class="edge">
<title>Node12&#45;&gt;Node13</title>
<g id="a_edge14_Node000012_Node000013"><a xlink:title=" ">
<path fill="none" stroke="#63b8ff" d="M622.29,-123.53C646.91,-116.95 673.6,-109.81 697.45,-103.43"/>
<polygon fill="#63b8ff" stroke="#63b8ff" points="698.32,-106.82 707.08,-100.86 696.51,-100.06 698.32,-106.82"/>
</a>
</g>
</g>
<!-- Node14&#45;&gt;Node13 -->
<g id="edge16_Node000014_Node000013" class="edge">
<title>Node14&#45;&gt;Node13</title>
<g id="a_edge16_Node000014_Node000013"><a xlink:title=" ">
<path fill="none" stroke="#63b8ff" d="M634.91,-84C651.67,-84 668.98,-84 685.39,-84"/>
<polygon fill="#63b8ff" stroke="#63b8ff" points="685.08,-87.5 695.08,-84 685.08,-80.5 685.08,-87.5"/>
</a>
</g>
</g>
<!-- Node15&#45;&gt;Node13 -->
<g id="edge18_Node000015_Node000013" class="edge">
<title>Node15&#45;&gt;Node13</title>
<g id="a_edge18_Node000015_Node000013"><a xlink:title=" ">
<path fill="none" stroke="#63b8ff" d="M622.29,-44.47C646.91,-51.05 673.6,-58.19 697.45,-64.57"/>
<polygon fill="#63b8ff" stroke="#63b8ff" points="696.51,-67.94 707.08,-67.14 698.32,-61.18 696.51,-67.94"/>
</a>
</g>
</g>
</g>
</svg>
