<?xml version="1.0" encoding="UTF-8" standalone="no"?>
<!DOCTYPE svg PUBLIC "-//W3C//DTD SVG 1.1//EN"
 "http://www.w3.org/Graphics/SVG/1.1/DTD/svg11.dtd">
<!-- Generated by graphviz version 12.2.0 (20241103.1931)
 -->
<!-- Title: fr.softsf.sudokufx.view.FullMenuView Pages: 1 -->
<svg width="332pt" height="560pt"
 viewBox="0.00 0.00 331.88 560.00" xmlns="http://www.w3.org/2000/svg" xmlns:xlink="http://www.w3.org/1999/xlink">
<g id="graph0" class="graph" transform="scale(1 1) rotate(0) translate(4 556)">
<title>fr.softsf.sudokufx.view.FullMenuView</title>
<!-- Node1 -->
<g id="Node000001" class="node">
<title>Node1</title>
<g id="a_Node000001"><a xlink:title="View class for the full menu screen of the Sudoku application.">
<polygon fill="#999999" stroke="none" points="245.5,-428 97,-428 97,0 245.5,0 245.5,-428"/>
<text text-anchor="start" x="120.25" y="-414.5" font-family="Helvetica,sans-Serif" font-size="10.00">fr.softsf.sudokufx.view.</text>
<text text-anchor="start" x="140.5" y="-402.5" font-family="Helvetica,sans-Serif" font-size="10.00">FullMenuView</text>
<text text-anchor="start" x="102.5" y="-386.5" font-family="Helvetica,sans-Serif" font-size="10.00">&#45;</text>
<text text-anchor="start" x="111" y="-386.5" font-family="Helvetica,sans-Serif" font-size="10.00">Button buttonHello</text>
<text text-anchor="start" x="102.5" y="-370.5" font-family="Helvetica,sans-Serif" font-size="10.00">&#45;</text>
<text text-anchor="start" x="111" y="-370.5" font-family="Helvetica,sans-Serif" font-size="10.00">FullMenuViewModel fullMenu</text>
<text text-anchor="start" x="111" y="-358.5" font-family="Helvetica,sans-Serif" font-size="10.00">ViewModel</text>
<text text-anchor="start" x="102.5" y="-342.5" font-family="Helvetica,sans-Serif" font-size="10.00">&#45;</text>
<text text-anchor="start" x="111" y="-342.5" font-family="Helvetica,sans-Serif" font-size="10.00">FxmlService fxmlService</text>
<text text-anchor="start" x="102.5" y="-326.5" font-family="Helvetica,sans-Serif" font-size="10.00">&#45;</text>
<text text-anchor="start" x="111" y="-326.5" font-family="Helvetica,sans-Serif" font-size="10.00">final Stage primaryStage</text>
<text text-anchor="start" x="102.5" y="-310.5" font-family="Helvetica,sans-Serif" font-size="10.00">&#45;</text>
<text text-anchor="start" x="111" y="-310.5" font-family="Helvetica,sans-Serif" font-size="10.00">SecureRandomGenerator</text>
<text text-anchor="start" x="111" y="-298.5" font-family="Helvetica,sans-Serif" font-size="10.00"> secureRandomGenerator</text>
<text text-anchor="start" x="102.5" y="-282.5" font-family="Helvetica,sans-Serif" font-size="10.00">&#45;</text>
<text text-anchor="start" x="111" y="-282.5" font-family="Helvetica,sans-Serif" font-size="10.00">final Text text1</text>
<text text-anchor="start" x="102.5" y="-266.5" font-family="Helvetica,sans-Serif" font-size="10.00">&#45;</text>
<text text-anchor="start" x="111" y="-266.5" font-family="Helvetica,sans-Serif" font-size="10.00">Text text2</text>
<text text-anchor="start" x="102.5" y="-250.5" font-family="Helvetica,sans-Serif" font-size="10.00">&#45;</text>
<text text-anchor="start" x="111" y="-250.5" font-family="Helvetica,sans-Serif" font-size="10.00">ToasterVBox toaster</text>
<text text-anchor="start" x="102.5" y="-234.5" font-family="Helvetica,sans-Serif" font-size="10.00">&#45;</text>
<text text-anchor="start" x="111" y="-234.5" font-family="Helvetica,sans-Serif" font-size="10.00">Label version</text>
<text text-anchor="start" x="102.5" y="-218.5" font-family="Helvetica,sans-Serif" font-size="10.00">&#45;</text>
<text text-anchor="start" x="111" y="-218.5" font-family="Helvetica,sans-Serif" font-size="10.00">Label welcomeText</text>
<text text-anchor="start" x="102.5" y="-202.5" font-family="Helvetica,sans-Serif" font-size="10.00">&#45;</text>
<text text-anchor="start" x="111" y="-202.5" font-family="Helvetica,sans-Serif" font-size="10.00">static final double</text>
<text text-anchor="start" x="111" y="-190.5" font-family="Helvetica,sans-Serif" font-size="10.00"> FADE_IN_IN_SECONDS</text>
<text text-anchor="start" x="111" y="-178.5" font-family="Helvetica,sans-Serif" font-size="10.00">_AFTER_SPLASHSCREEN</text>
<text text-anchor="start" x="101" y="-162.5" font-family="Helvetica,sans-Serif" font-size="10.00">+</text>
<text text-anchor="start" x="111" y="-162.5" font-family="Helvetica,sans-Serif" font-size="10.00">void openingMainStage</text>
<text text-anchor="start" x="111" y="-150.5" font-family="Helvetica,sans-Serif" font-size="10.00">(final ISplashScreenView</text>
<text text-anchor="start" x="111" y="-138.5" font-family="Helvetica,sans-Serif" font-size="10.00"> iSplashScreenView)</text>
<text text-anchor="start" x="102.5" y="-122.5" font-family="Helvetica,sans-Serif" font-size="10.00">&#45;</text>
<text text-anchor="start" x="111" y="-122.5" font-family="Helvetica,sans-Serif" font-size="10.00">void initialize()</text>
<text text-anchor="start" x="102.5" y="-106.5" font-family="Helvetica,sans-Serif" font-size="10.00">&#45;</text>
<text text-anchor="start" x="111" y="-106.5" font-family="Helvetica,sans-Serif" font-size="10.00">void onHelloButtonClick</text>
<text text-anchor="start" x="111" y="-94.5" font-family="Helvetica,sans-Serif" font-size="10.00">(ActionEvent event)</text>
<text text-anchor="start" x="102.5" y="-78.5" font-family="Helvetica,sans-Serif" font-size="10.00">&#45;</text>
<text text-anchor="start" x="111" y="-78.5" font-family="Helvetica,sans-Serif" font-size="10.00">void openingConfigureStage()</text>
<text text-anchor="start" x="102.5" y="-62.5" font-family="Helvetica,sans-Serif" font-size="10.00">&#45;</text>
<text text-anchor="start" x="111" y="-62.5" font-family="Helvetica,sans-Serif" font-size="10.00">void openingFadeIn</text>
<text text-anchor="start" x="111" y="-50.5" font-family="Helvetica,sans-Serif" font-size="10.00">(final Node node)</text>
<text text-anchor="start" x="102.5" y="-34.5" font-family="Helvetica,sans-Serif" font-size="10.00">&#45;</text>
<text text-anchor="start" x="111" y="-34.5" font-family="Helvetica,sans-Serif" font-size="10.00">void openingMaximizePrimary</text>
<text text-anchor="start" x="111" y="-22.5" font-family="Helvetica,sans-Serif" font-size="10.00">Stage()</text>
<text text-anchor="start" x="102.5" y="-6.5" font-family="Helvetica,sans-Serif" font-size="10.00">&#45;</text>
<text text-anchor="start" x="111" y="-6.5" font-family="Helvetica,sans-Serif" font-size="10.00">void openingShowStage()</text>
<polygon fill="#666666" stroke="#666666" points="97,-398 97,-398 245.5,-398 245.5,-398 97,-398"/>
<polygon fill="#666666" stroke="#666666" points="97,-174 97,-174 109,-174 109,-174 97,-174"/>
<polygon fill="#666666" stroke="#666666" points="109,-174 109,-174 245.5,-174 245.5,-174 109,-174"/>
<polygon fill="none" stroke="#666666" points="97,0 97,-428 245.5,-428 245.5,0 97,0"/>
</a>
</g>
</g>
<!-- Node2 -->
<g id="Node000002" class="node">
<title>Node2</title>
<g id="a_Node000002"><a xlink:href="interfacefr_1_1softsf_1_1sudokufx_1_1interfaces_1_1_i_main_stage_view.html" target="_top" xlink:title="Interface defining method to open the main stage.">
<polygon fill="white" stroke="none" points="172.5,-552 0,-552 0,-464 172.5,-464 172.5,-552"/>
<text text-anchor="start" x="23.62" y="-538.5" font-family="Helvetica,sans-Serif" font-size="10.00">fr.softsf.sudokufx.interfaces.</text>
<text text-anchor="start" x="50.62" y="-526.5" font-family="Helvetica,sans-Serif" font-size="10.00">IMainStageView</text>
<text text-anchor="start" x="84.75" y="-510.5" font-family="Helvetica,sans-Serif" font-size="10.00"> </text>
<text text-anchor="start" x="4" y="-494.5" font-family="Helvetica,sans-Serif" font-size="10.00">+</text>
<text text-anchor="start" x="14" y="-494.5" font-family="Helvetica,sans-Serif" font-size="10.00">void openingMainStage</text>
<text text-anchor="start" x="14" y="-482.5" font-family="Helvetica,sans-Serif" font-size="10.00">(ISplashScreenView iSplashScreen</text>
<text text-anchor="start" x="14" y="-470.5" font-family="Helvetica,sans-Serif" font-size="10.00">View)</text>
<polygon fill="#666666" stroke="#666666" points="0,-522 0,-522 172.5,-522 172.5,-522 0,-522"/>
<polygon fill="#666666" stroke="#666666" points="0,-506 0,-506 172.5,-506 172.5,-506 0,-506"/>
<polygon fill="none" stroke="#666666" points="0,-464 0,-552 172.5,-552 172.5,-464 0,-464"/>
</a>
</g>
</g>
<!-- Node2&#45;&gt;Node1 -->
<g id="edge1_Node000001_Node000002" class="edge">
<title>Node2&#45;&gt;Node1</title>
<g id="a_edge1_Node000001_Node000002"><a xlink:title=" ">
<path fill="none" stroke="#63b8ff" d="M101.85,-453.42C104.16,-445.48 106.65,-436.91 109.27,-427.91"/>
<polygon fill="none" stroke="#63b8ff" points="98.56,-452.2 99.12,-462.77 105.28,-454.15 98.56,-452.2"/>
</a>
</g>
</g>
<!-- Node3 -->
<g id="Node000003" class="node">
<title>Node3</title>
<g id="a_Node000003"><a xlink:href="interfacefr_1_1softsf_1_1sudokufx_1_1interfaces_1_1_i_scene_provider.html" target="_top" xlink:title="Interface ISceneProvider.">
<polygon fill="white" stroke="none" points="323.88,-540 190.62,-540 190.62,-476 323.88,-476 323.88,-540"/>
<text text-anchor="start" x="194.62" y="-526.5" font-family="Helvetica,sans-Serif" font-size="10.00">fr.softsf.sudokufx.interfaces.</text>
<text text-anchor="start" x="223.88" y="-514.5" font-family="Helvetica,sans-Serif" font-size="10.00">ISceneProvider</text>
<text text-anchor="start" x="255.75" y="-498.5" font-family="Helvetica,sans-Serif" font-size="10.00"> </text>
<text text-anchor="start" x="195.88" y="-482.5" font-family="Helvetica,sans-Serif" font-size="10.00">+</text>
<text text-anchor="start" x="207.12" y="-482.5" font-family="Helvetica,sans-Serif" font-size="10.00">default Scene getScene()</text>
<polygon fill="#666666" stroke="#666666" points="190.62,-510 190.62,-510 323.88,-510 323.88,-510 190.62,-510"/>
<polygon fill="#666666" stroke="#666666" points="190.62,-494 190.62,-494 323.88,-494 323.88,-494 190.62,-494"/>
<polygon fill="none" stroke="#666666" points="190.62,-476 190.62,-540 323.88,-540 323.88,-476 190.62,-476"/>
</a>
</g>
</g>
<!-- Node3&#45;&gt;Node1 -->
<g id="edge2_Node000001_Node000003" class="edge">
<title>Node3&#45;&gt;Node1</title>
<g id="a_edge2_Node000001_Node000003"><a xlink:title=" ">
<path fill="none" stroke="#63b8ff" d="M244.93,-465.16C241.68,-454.12 237.94,-441.43 233.91,-427.74"/>
<polygon fill="none" stroke="#63b8ff" points="241.52,-465.97 247.7,-474.58 248.23,-463.99 241.52,-465.97"/>
</a>
</g>
</g>
</g>
</svg>
