<?xml version="1.0" encoding="UTF-8" standalone="no"?>
<!DOCTYPE svg PUBLIC "-//W3C//DTD SVG 1.1//EN"
 "http://www.w3.org/Graphics/SVG/1.1/DTD/svg11.dtd">
<!-- Generated by graphviz version 12.2.0 (20241103.1931)
 -->
<!-- Title: fr.softsf.sudokufx.utils.sudoku.GridMaster.remplirLaGrille Pages: 1 -->
<svg width="580pt" height="152pt"
 viewBox="0.00 0.00 579.50 152.00" xmlns="http://www.w3.org/2000/svg" xmlns:xlink="http://www.w3.org/1999/xlink">
<g id="graph0" class="graph" transform="scale(1 1) rotate(0) translate(4 148)">
<title>fr.softsf.sudokufx.utils.sudoku.GridMaster.remplirLaGrille</title>
<!-- Node1 -->
<g id="Node000001" class="node">
<title>Node1</title>
<g id="a_Node000001"><a xlink:title="Remplit récursivement la grille Sudoku (backtracking).">
<polygon fill="#999999" stroke="#666666" points="151,-94 0,-94 0,-62 151,-62 151,-94"/>
<text text-anchor="start" x="8" y="-80.5" font-family="Helvetica,sans-Serif" font-size="10.00">fr.softsf.sudokufx.utils.sudoku.</text>
<text text-anchor="middle" x="75.5" y="-68.5" font-family="Helvetica,sans-Serif" font-size="10.00">GridMaster.remplirLaGrille</text>
</a>
</g>
</g>
<!-- Node1&#45;&gt;Node1 -->
<g id="edge7_Node000001_Node000001" class="edge">
<title>Node1&#45;&gt;Node1</title>
<g id="a_edge7_Node000001_Node000001"><a xlink:title=" ">
<path fill="none" stroke="#63b8ff" d="M38.7,-94.44C31.83,-103.58 44.1,-112 75.5,-112 92.92,-112 104.45,-109.41 110.09,-105.54"/>
<polygon fill="#63b8ff" stroke="#63b8ff" points="113.49,-106.42 112,-95.93 106.62,-105.05 113.49,-106.42"/>
</a>
</g>
</g>
<!-- Node2 -->
<g id="Node000002" class="node">
<title>Node2</title>
<g id="a_Node000002"><a xlink:href="classfr_1_1softsf_1_1sudokufx_1_1utils_1_1sudoku_1_1_grid_master.html#a95ced6119d7d08726742be7d90c37948" target="_top" xlink:title="Choisit une valeur aléatoire parmi les possibilités données.">
<polygon fill="white" stroke="#666666" points="362,-144 201.25,-144 201.25,-112 362,-112 362,-144"/>
<text text-anchor="start" x="209.25" y="-130.5" font-family="Helvetica,sans-Serif" font-size="10.00">fr.softsf.sudokufx.utils.sudoku.</text>
<text text-anchor="middle" x="281.62" y="-118.5" font-family="Helvetica,sans-Serif" font-size="10.00">GridMaster.choisirValeurAleatoire</text>
</a>
</g>
</g>
<!-- Node1&#45;&gt;Node2 -->
<g id="edge1_Node000001_Node000002" class="edge">
<title>Node1&#45;&gt;Node2</title>
<g id="a_edge1_Node000001_Node000002"><a xlink:title=" ">
<path fill="none" stroke="#63b8ff" d="M143.62,-94.44C162.46,-99.05 183.1,-104.11 202.51,-108.87"/>
<polygon fill="#63b8ff" stroke="#63b8ff" points="201.45,-112.21 211.99,-111.19 203.11,-105.41 201.45,-112.21"/>
</a>
</g>
</g>
<!-- Node5 -->
<g id="Node000005" class="node">
<title>Node5</title>
<g id="a_Node000005"><a xlink:href="classfr_1_1softsf_1_1sudokufx_1_1utils_1_1sudoku_1_1_grid_master.html#aab28df678a8069dd22b13a687bb2ba5b" target="_top" xlink:title="Élimine la valeur des possibilités des cases alentours.">
<polygon fill="white" stroke="#666666" points="357.12,-94 206.12,-94 206.12,-62 357.12,-62 357.12,-94"/>
<text text-anchor="start" x="214.12" y="-80.5" font-family="Helvetica,sans-Serif" font-size="10.00">fr.softsf.sudokufx.utils.sudoku.</text>
<text text-anchor="middle" x="281.62" y="-68.5" font-family="Helvetica,sans-Serif" font-size="10.00">GridMaster.eliminerPossibilite</text>
</a>
</g>
</g>
<!-- Node1&#45;&gt;Node5 -->
<g id="edge4_Node000001_Node000005" class="edge">
<title>Node1&#45;&gt;Node5</title>
<g id="a_edge4_Node000001_Node000005"><a xlink:title=" ">
<path fill="none" stroke="#63b8ff" d="M151.35,-78C165.36,-78 180.1,-78 194.42,-78"/>
<polygon fill="#63b8ff" stroke="#63b8ff" points="194.27,-81.5 204.27,-78 194.27,-74.5 194.27,-81.5"/>
</a>
</g>
</g>
<!-- Node6 -->
<g id="Node000006" class="node">
<title>Node6</title>
<g id="a_Node000006"><a xlink:href="classfr_1_1softsf_1_1sudokufx_1_1utils_1_1sudoku_1_1_grid_master.html#a2bfd5ca8d30b4f51db2a81d8c9a5b641" target="_top" xlink:title="Trouve la case vide avec le moins de possibilités.">
<polygon fill="white" stroke="#666666" points="376.25,-44 187,-44 187,0 376.25,0 376.25,-44"/>
<text text-anchor="start" x="195" y="-30.5" font-family="Helvetica,sans-Serif" font-size="10.00">fr.softsf.sudokufx.utils.sudoku.</text>
<text text-anchor="start" x="195" y="-18.5" font-family="Helvetica,sans-Serif" font-size="10.00">GridMaster.laCaseVideAvecLeMoinsDe</text>
<text text-anchor="middle" x="281.62" y="-6.5" font-family="Helvetica,sans-Serif" font-size="10.00">Possibilites</text>
</a>
</g>
</g>
<!-- Node1&#45;&gt;Node6 -->
<g id="edge5_Node000001_Node000006" class="edge">
<title>Node1&#45;&gt;Node6</title>
<g id="a_edge5_Node000001_Node000006"><a xlink:title=" ">
<path fill="none" stroke="#63b8ff" d="M136.64,-61.5C152.81,-57.07 170.67,-52.16 188.16,-47.37"/>
<polygon fill="#63b8ff" stroke="#63b8ff" points="188.8,-50.82 197.52,-44.8 186.95,-44.07 188.8,-50.82"/>
</a>
</g>
</g>
<!-- Node3 -->
<g id="Node000003" class="node">
<title>Node3</title>
<g id="a_Node000003"><a xlink:href="classfr_1_1softsf_1_1sudokufx_1_1utils_1_1sudoku_1_1_grid_master.html#afa58a9e419a56117d305014b687b8079" target="_top" xlink:title="Compte le nombre de bits à 1 dans un entier.">
<polygon fill="white" stroke="#666666" points="567.38,-66 416.38,-66 416.38,-34 567.38,-34 567.38,-66"/>
<text text-anchor="start" x="424.38" y="-52.5" font-family="Helvetica,sans-Serif" font-size="10.00">fr.softsf.sudokufx.utils.sudoku.</text>
<text text-anchor="middle" x="491.88" y="-40.5" font-family="Helvetica,sans-Serif" font-size="10.00">GridMaster.compterBits</text>
</a>
</g>
</g>
<!-- Node2&#45;&gt;Node3 -->
<g id="edge2_Node000002_Node000003" class="edge">
<title>Node2&#45;&gt;Node3</title>
<g id="a_edge2_Node000002_Node000003"><a xlink:title=" ">
<path fill="none" stroke="#63b8ff" d="M349.8,-111.57C358.77,-108.93 367.79,-106.06 376.25,-103 401.06,-94.03 427.86,-81.78 449.31,-71.32"/>
<polygon fill="#63b8ff" stroke="#63b8ff" points="450.6,-74.59 458.02,-67.02 447.5,-68.31 450.6,-74.59"/>
</a>
</g>
</g>
<!-- Node4 -->
<g id="Node000004" class="node">
<title>Node4</title>
<g id="a_Node000004"><a xlink:href="classfr_1_1softsf_1_1sudokufx_1_1utils_1_1_secure_random_generator.html#ab000b11e58735924b9fca8db827374ad" target="_top" xlink:title="Generates a random integer between 0 (inclusive) and the specified bound (exclusive).">
<polygon fill="white" stroke="#666666" points="571.5,-144 412.25,-144 412.25,-112 571.5,-112 571.5,-144"/>
<text text-anchor="start" x="420.25" y="-130.5" font-family="Helvetica,sans-Serif" font-size="10.00">fr.softsf.sudokufx.utils.</text>
<text text-anchor="middle" x="491.88" y="-118.5" font-family="Helvetica,sans-Serif" font-size="10.00">SecureRandomGenerator.nextInt</text>
</a>
</g>
</g>
<!-- Node2&#45;&gt;Node4 -->
<g id="edge3_Node000002_Node000004" class="edge">
<title>Node2&#45;&gt;Node4</title>
<g id="a_edge3_Node000002_Node000004"><a xlink:title=" ">
<path fill="none" stroke="#63b8ff" d="M362.25,-128C374.86,-128 387.98,-128 400.81,-128"/>
<polygon fill="#63b8ff" stroke="#63b8ff" points="400.47,-131.5 410.47,-128 400.47,-124.5 400.47,-131.5"/>
</a>
</g>
</g>
<!-- Node6&#45;&gt;Node3 -->
<g id="edge6_Node000006_Node000003" class="edge">
<title>Node6&#45;&gt;Node3</title>
<g id="a_edge6_Node000006_Node000003"><a xlink:title=" ">
<path fill="none" stroke="#63b8ff" d="M376.7,-34.65C386.05,-35.91 395.5,-37.18 404.77,-38.42"/>
<polygon fill="#63b8ff" stroke="#63b8ff" points="404.07,-41.86 414.45,-39.72 405,-34.92 404.07,-41.86"/>
</a>
</g>
</g>
</g>
</svg>
