<?xml version="1.0" encoding="UTF-8" standalone="no"?>
<!DOCTYPE svg PUBLIC "-//W3C//DTD SVG 1.1//EN"
 "http://www.w3.org/Graphics/SVG/1.1/DTD/svg11.dtd">
<!-- Generated by graphviz version 12.2.0 (20241103.1931)
 -->
<!-- Title: fr.softsf.sudokufx.utils.DynamicFontSize.DynamicFontSize Pages: 1 -->
<svg width="553pt" height="40pt"
 viewBox="0.00 0.00 552.50 40.00" xmlns="http://www.w3.org/2000/svg" xmlns:xlink="http://www.w3.org/1999/xlink">
<g id="graph0" class="graph" transform="scale(1 1) rotate(0) translate(4 36)">
<title>fr.softsf.sudokufx.utils.DynamicFontSize.DynamicFontSize</title>
<!-- Node1 -->
<g id="Node000001" class="node">
<title>Node1</title>
<g id="a_Node000001"><a xlink:title="Constructs a DynamicFontSize instance and initializes Scene listeners.">
<polygon fill="#999999" stroke="#666666" points="175,-32 0,-32 0,0 175,0 175,-32"/>
<text text-anchor="start" x="8" y="-18.5" font-family="Helvetica,sans-Serif" font-size="10.00">fr.softsf.sudokufx.utils.</text>
<text text-anchor="middle" x="87.5" y="-6.5" font-family="Helvetica,sans-Serif" font-size="10.00">DynamicFontSize.DynamicFontSize</text>
</a>
</g>
</g>
<!-- Node2 -->
<g id="Node000002" class="node">
<title>Node2</title>
<g id="a_Node000002"><a xlink:href="classfr_1_1softsf_1_1sudokufx_1_1utils_1_1_dynamic_font_size.html#a9d6d47122c739b3aa20ee7504a3537ee" target="_top" xlink:title="Initializes the dynamic font size functionality.">
<polygon fill="white" stroke="#666666" points="343.25,-32 211,-32 211,0 343.25,0 343.25,-32"/>
<text text-anchor="start" x="219" y="-18.5" font-family="Helvetica,sans-Serif" font-size="10.00">fr.softsf.sudokufx.utils.</text>
<text text-anchor="middle" x="277.12" y="-6.5" font-family="Helvetica,sans-Serif" font-size="10.00">DynamicFontSize.initialize</text>
</a>
</g>
</g>
<!-- Node1&#45;&gt;Node2 -->
<g id="edge1_Node000001_Node000002" class="edge">
<title>Node1&#45;&gt;Node2</title>
<g id="a_edge1_Node000001_Node000002"><a xlink:title=" ">
<path fill="none" stroke="#63b8ff" d="M175.45,-16C183.37,-16 191.36,-16 199.18,-16"/>
<polygon fill="#63b8ff" stroke="#63b8ff" points="198.99,-19.5 208.99,-16 198.99,-12.5 198.99,-19.5"/>
</a>
</g>
</g>
<!-- Node3 -->
<g id="Node000003" class="node">
<title>Node3</title>
<g id="a_Node000003"><a xlink:href="classfr_1_1softsf_1_1sudokufx_1_1utils_1_1_dynamic_font_size.html#acc10f950b0d6b555ba72cbac31bd9900" target="_top" xlink:title="Updates the font size based on the current Scene dimensions.">
<polygon fill="white" stroke="#666666" points="544.5,-32 379.25,-32 379.25,0 544.5,0 544.5,-32"/>
<text text-anchor="start" x="387.25" y="-18.5" font-family="Helvetica,sans-Serif" font-size="10.00">fr.softsf.sudokufx.utils.</text>
<text text-anchor="middle" x="461.88" y="-6.5" font-family="Helvetica,sans-Serif" font-size="10.00">DynamicFontSize.updateFontSize</text>
</a>
</g>
</g>
<!-- Node2&#45;&gt;Node3 -->
<g id="edge2_Node000002_Node000003" class="edge">
<title>Node2&#45;&gt;Node3</title>
<g id="a_edge2_Node000002_Node000003"><a xlink:title=" ">
<path fill="none" stroke="#63b8ff" d="M343.59,-16C351.38,-16 359.45,-16 367.54,-16"/>
<polygon fill="#63b8ff" stroke="#63b8ff" points="367.46,-19.5 377.46,-16 367.46,-12.5 367.46,-19.5"/>
</a>
</g>
</g>
</g>
</svg>
