<?xml version="1.0" encoding="UTF-8" standalone="no"?>
<!DOCTYPE svg PUBLIC "-//W3C//DTD SVG 1.1//EN"
 "http://www.w3.org/Graphics/SVG/1.1/DTD/svg11.dtd">
<!-- Generated by graphviz version 12.2.0 (20241103.1931)
 -->
<!-- Title: fr.softsf.sudokufx.view.CrashScreenView Pages: 1 -->
<svg width="1351pt" height="916pt"
 viewBox="0.00 0.00 1351.13 916.00" xmlns="http://www.w3.org/2000/svg" xmlns:xlink="http://www.w3.org/1999/xlink">
<g id="graph0" class="graph" transform="scale(1 1) rotate(0) translate(4 912)">
<title>fr.softsf.sudokufx.view.CrashScreenView</title>
<!-- Node1 -->
<g id="Node000001" class="node">
<title>Node1</title>
<g id="a_Node000001"><a xlink:title="View class for the crash screen without business logic.">
<polygon fill="#999999" stroke="none" points="681.12,-340 515.38,-340 515.38,0 681.12,0 681.12,-340"/>
<text text-anchor="start" x="547.25" y="-326.5" font-family="Helvetica,sans-Serif" font-size="10.00">fr.softsf.sudokufx.view.</text>
<text text-anchor="start" x="558.88" y="-314.5" font-family="Helvetica,sans-Serif" font-size="10.00">CrashScreenView</text>
<text text-anchor="start" x="520.88" y="-298.5" font-family="Helvetica,sans-Serif" font-size="10.00">&#45;</text>
<text text-anchor="start" x="529.38" y="-298.5" font-family="Helvetica,sans-Serif" font-size="10.00">double crashScreenFontSize</text>
<text text-anchor="start" x="520.88" y="-282.5" font-family="Helvetica,sans-Serif" font-size="10.00">&#45;</text>
<text text-anchor="start" x="529.38" y="-282.5" font-family="Helvetica,sans-Serif" font-size="10.00">static final double</text>
<text text-anchor="start" x="529.38" y="-270.5" font-family="Helvetica,sans-Serif" font-size="10.00"> FADE_IN_IN_SECONDS</text>
<text text-anchor="start" x="529.38" y="-258.5" font-family="Helvetica,sans-Serif" font-size="10.00">_AFTER_SPLASHSCREEN</text>
<text text-anchor="start" x="519.38" y="-242.5" font-family="Helvetica,sans-Serif" font-size="10.00">+</text>
<text text-anchor="start" x="529.38" y="-242.5" font-family="Helvetica,sans-Serif" font-size="10.00">void openingMainStage</text>
<text text-anchor="start" x="529.38" y="-230.5" font-family="Helvetica,sans-Serif" font-size="10.00">(SudoMain.ISplashScreenView</text>
<text text-anchor="start" x="529.38" y="-218.5" font-family="Helvetica,sans-Serif" font-size="10.00"> iSplashScreenView)</text>
<text text-anchor="start" x="520.88" y="-202.5" font-family="Helvetica,sans-Serif" font-size="10.00">&#45;</text>
<text text-anchor="start" x="529.38" y="-202.5" font-family="Helvetica,sans-Serif" font-size="10.00">void closeButtonClick()</text>
<text text-anchor="start" x="520.88" y="-186.5" font-family="Helvetica,sans-Serif" font-size="10.00">&#45;</text>
<text text-anchor="start" x="529.38" y="-186.5" font-family="Helvetica,sans-Serif" font-size="10.00">void createSVG(final</text>
<text text-anchor="start" x="529.38" y="-174.5" font-family="Helvetica,sans-Serif" font-size="10.00"> Region region, final</text>
<text text-anchor="start" x="529.38" y="-162.5" font-family="Helvetica,sans-Serif" font-size="10.00"> String path, final double</text>
<text text-anchor="start" x="529.38" y="-150.5" font-family="Helvetica,sans-Serif" font-size="10.00"> width, final double height,</text>
<text text-anchor="start" x="529.38" y="-138.5" font-family="Helvetica,sans-Serif" font-size="10.00"> final double offsetX, final</text>
<text text-anchor="start" x="529.38" y="-126.5" font-family="Helvetica,sans-Serif" font-size="10.00"> double offsetY)</text>
<text text-anchor="start" x="520.88" y="-110.5" font-family="Helvetica,sans-Serif" font-size="10.00">&#45;</text>
<text text-anchor="start" x="529.38" y="-110.5" font-family="Helvetica,sans-Serif" font-size="10.00">void fadeIn(final Node</text>
<text text-anchor="start" x="529.38" y="-98.5" font-family="Helvetica,sans-Serif" font-size="10.00"> node)</text>
<text text-anchor="start" x="520.88" y="-82.5" font-family="Helvetica,sans-Serif" font-size="10.00">&#45;</text>
<text text-anchor="start" x="529.38" y="-82.5" font-family="Helvetica,sans-Serif" font-size="10.00">void hidecrashscreen()</text>
<text text-anchor="start" x="520.88" y="-66.5" font-family="Helvetica,sans-Serif" font-size="10.00">&#45;</text>
<text text-anchor="start" x="529.38" y="-66.5" font-family="Helvetica,sans-Serif" font-size="10.00">void initialize()</text>
<text text-anchor="start" x="520.88" y="-50.5" font-family="Helvetica,sans-Serif" font-size="10.00">&#45;</text>
<text text-anchor="start" x="529.38" y="-50.5" font-family="Helvetica,sans-Serif" font-size="10.00">void resetButtonClick()</text>
<text text-anchor="start" x="520.88" y="-34.5" font-family="Helvetica,sans-Serif" font-size="10.00">&#45;</text>
<text text-anchor="start" x="529.38" y="-34.5" font-family="Helvetica,sans-Serif" font-size="10.00">void setCrashscreenvboxTophbox</text>
<text text-anchor="start" x="529.38" y="-22.5" font-family="Helvetica,sans-Serif" font-size="10.00">Logosudosvg()</text>
<text text-anchor="start" x="520.88" y="-6.5" font-family="Helvetica,sans-Serif" font-size="10.00">&#45;</text>
<text text-anchor="start" x="529.38" y="-6.5" font-family="Helvetica,sans-Serif" font-size="10.00">void showcrashscreen()</text>
<polygon fill="#666666" stroke="#666666" points="515.38,-310 515.38,-310 681.12,-310 681.12,-310 515.38,-310"/>
<polygon fill="#666666" stroke="#666666" points="515.38,-254 515.38,-254 527.38,-254 527.38,-254 515.38,-254"/>
<polygon fill="#666666" stroke="#666666" points="527.38,-254 527.38,-254 681.12,-254 681.12,-254 527.38,-254"/>
<polygon fill="none" stroke="#666666" points="515.38,0 515.38,-340 681.12,-340 681.12,0 515.38,0"/>
</a>
</g>
</g>
<!-- Node2 -->
<g id="Node000002" class="node">
<title>Node2</title>
<g id="a_Node000002"><a xlink:href="interfacefr_1_1softsf_1_1sudokufx_1_1_sudo_main_1_1_i_primary_stage_view.html" target="_top" xlink:title="Interface for the primary stage view.">
<polygon fill="white" stroke="none" points="172.5,-728 0,-728 0,-640 172.5,-640 172.5,-728"/>
<text text-anchor="start" x="23.25" y="-714.5" font-family="Helvetica,sans-Serif" font-size="10.00">fr.softsf.sudokufx.SudoMain.</text>
<text text-anchor="start" x="44.25" y="-702.5" font-family="Helvetica,sans-Serif" font-size="10.00">IPrimaryStageView</text>
<text text-anchor="start" x="84.75" y="-686.5" font-family="Helvetica,sans-Serif" font-size="10.00"> </text>
<text text-anchor="start" x="4" y="-670.5" font-family="Helvetica,sans-Serif" font-size="10.00">+</text>
<text text-anchor="start" x="14" y="-670.5" font-family="Helvetica,sans-Serif" font-size="10.00">void openingMainStage</text>
<text text-anchor="start" x="14" y="-658.5" font-family="Helvetica,sans-Serif" font-size="10.00">(ISplashScreenView iSplashScreen</text>
<text text-anchor="start" x="14" y="-646.5" font-family="Helvetica,sans-Serif" font-size="10.00">View)</text>
<polygon fill="#666666" stroke="#666666" points="0,-698 0,-698 172.5,-698 172.5,-698 0,-698"/>
<polygon fill="#666666" stroke="#666666" points="0,-682 0,-682 172.5,-682 172.5,-682 0,-682"/>
<polygon fill="none" stroke="#666666" points="0,-640 0,-728 172.5,-728 172.5,-640 0,-640"/>
</a>
</g>
</g>
<!-- Node2&#45;&gt;Node1 -->
<g id="edge1_Node000001_Node000002" class="edge">
<title>Node2&#45;&gt;Node1</title>
<g id="a_edge1_Node000001_Node000002"><a xlink:title=" ">
<path fill="none" stroke="#63b8ff" d="M102.44,-629.15C118.21,-581.89 145.23,-512.68 182.25,-460 267.44,-338.76 420.71,-251.92 515.53,-206.72"/>
<polygon fill="none" stroke="#63b8ff" points="99.12,-628.04 99.33,-638.63 105.77,-630.22 99.12,-628.04"/>
</a>
</g>
</g>
<!-- Node3 -->
<g id="Node000003" class="node">
<title>Node3</title>
<g id="a_Node000003"><a xlink:href="classfr_1_1softsf_1_1sudokufx_1_1utils_1_1os_1_1_os_folder_factory_manager.html" target="_top" xlink:title="Configuration class for managing OS&#45;specific dynamically.">
<polygon fill="white" stroke="none" points="387.5,-908 191,-908 191,-460 387.5,-460 387.5,-908"/>
<text text-anchor="start" x="232.25" y="-894.5" font-family="Helvetica,sans-Serif" font-size="10.00">fr.softsf.sudokufx.utils.os.</text>
<text text-anchor="start" x="234.12" y="-882.5" font-family="Helvetica,sans-Serif" font-size="10.00">OsFolderFactoryManager</text>
<text text-anchor="start" x="196.5" y="-866.5" font-family="Helvetica,sans-Serif" font-size="10.00">&#45;</text>
<text text-anchor="start" x="205" y="-866.5" font-family="Helvetica,sans-Serif" font-size="10.00">String linuxIntendedPath</text>
<text text-anchor="start" x="205" y="-854.5" font-family="Helvetica,sans-Serif" font-size="10.00">DataFolder</text>
<text text-anchor="start" x="196.5" y="-838.5" font-family="Helvetica,sans-Serif" font-size="10.00">&#45;</text>
<text text-anchor="start" x="205" y="-838.5" font-family="Helvetica,sans-Serif" font-size="10.00">String linuxIntendedPath</text>
<text text-anchor="start" x="205" y="-826.5" font-family="Helvetica,sans-Serif" font-size="10.00">LogsFolder</text>
<text text-anchor="start" x="196.5" y="-810.5" font-family="Helvetica,sans-Serif" font-size="10.00">&#45;</text>
<text text-anchor="start" x="205" y="-810.5" font-family="Helvetica,sans-Serif" font-size="10.00">String macosIntendedPath</text>
<text text-anchor="start" x="205" y="-798.5" font-family="Helvetica,sans-Serif" font-size="10.00">DataFolder</text>
<text text-anchor="start" x="196.5" y="-782.5" font-family="Helvetica,sans-Serif" font-size="10.00">&#45;</text>
<text text-anchor="start" x="205" y="-782.5" font-family="Helvetica,sans-Serif" font-size="10.00">String macosIntendedPath</text>
<text text-anchor="start" x="205" y="-770.5" font-family="Helvetica,sans-Serif" font-size="10.00">LogsFolder</text>
<text text-anchor="start" x="196.5" y="-754.5" font-family="Helvetica,sans-Serif" font-size="10.00">&#45;</text>
<text text-anchor="start" x="205" y="-754.5" font-family="Helvetica,sans-Serif" font-size="10.00">String os</text>
<text text-anchor="start" x="196.5" y="-738.5" font-family="Helvetica,sans-Serif" font-size="10.00">&#45;</text>
<text text-anchor="start" x="205" y="-738.5" font-family="Helvetica,sans-Serif" font-size="10.00">String windowsIntendedPath</text>
<text text-anchor="start" x="205" y="-726.5" font-family="Helvetica,sans-Serif" font-size="10.00">DataFolder</text>
<text text-anchor="start" x="196.5" y="-710.5" font-family="Helvetica,sans-Serif" font-size="10.00">&#45;</text>
<text text-anchor="start" x="205" y="-710.5" font-family="Helvetica,sans-Serif" font-size="10.00">String windowsIntendedPath</text>
<text text-anchor="start" x="205" y="-698.5" font-family="Helvetica,sans-Serif" font-size="10.00">LogsFolder</text>
<text text-anchor="start" x="195" y="-682.5" font-family="Helvetica,sans-Serif" font-size="10.00">+</text>
<text text-anchor="start" x="205" y="-682.5" font-family="Helvetica,sans-Serif" font-size="10.00">IOsFolderFactory osFolder</text>
<text text-anchor="start" x="205" y="-670.5" font-family="Helvetica,sans-Serif" font-size="10.00">Factory()</text>
<text text-anchor="start" x="195" y="-654.5" font-family="Helvetica,sans-Serif" font-size="10.00">~</text>
<text text-anchor="start" x="205" y="-654.5" font-family="Helvetica,sans-Serif" font-size="10.00">void setEmptyOsForTests()</text>
<text text-anchor="start" x="195" y="-638.5" font-family="Helvetica,sans-Serif" font-size="10.00">~</text>
<text text-anchor="start" x="205" y="-638.5" font-family="Helvetica,sans-Serif" font-size="10.00">void setLinuxOsForTests</text>
<text text-anchor="start" x="205" y="-626.5" font-family="Helvetica,sans-Serif" font-size="10.00">(String linuxIntendedPathData</text>
<text text-anchor="start" x="205" y="-614.5" font-family="Helvetica,sans-Serif" font-size="10.00">Folder, String linuxIntendedPathLogs</text>
<text text-anchor="start" x="205" y="-602.5" font-family="Helvetica,sans-Serif" font-size="10.00">Folder)</text>
<text text-anchor="start" x="195" y="-586.5" font-family="Helvetica,sans-Serif" font-size="10.00">~</text>
<text text-anchor="start" x="205" y="-586.5" font-family="Helvetica,sans-Serif" font-size="10.00">void setMacOSForTests</text>
<text text-anchor="start" x="205" y="-574.5" font-family="Helvetica,sans-Serif" font-size="10.00">(String macosIntendedPathData</text>
<text text-anchor="start" x="205" y="-562.5" font-family="Helvetica,sans-Serif" font-size="10.00">Folder, String macosIntendedPathLogs</text>
<text text-anchor="start" x="205" y="-550.5" font-family="Helvetica,sans-Serif" font-size="10.00">Folder)</text>
<text text-anchor="start" x="195" y="-534.5" font-family="Helvetica,sans-Serif" font-size="10.00">~</text>
<text text-anchor="start" x="205" y="-534.5" font-family="Helvetica,sans-Serif" font-size="10.00">void setNullOsForTests()</text>
<text text-anchor="start" x="195" y="-518.5" font-family="Helvetica,sans-Serif" font-size="10.00">~</text>
<text text-anchor="start" x="205" y="-518.5" font-family="Helvetica,sans-Serif" font-size="10.00">void setWindowsOsForTests</text>
<text text-anchor="start" x="205" y="-506.5" font-family="Helvetica,sans-Serif" font-size="10.00">(String windowsIntendedPathData</text>
<text text-anchor="start" x="205" y="-494.5" font-family="Helvetica,sans-Serif" font-size="10.00">Folder, String windowsIntendedPathLogs</text>
<text text-anchor="start" x="205" y="-482.5" font-family="Helvetica,sans-Serif" font-size="10.00">Folder)</text>
<text text-anchor="start" x="195" y="-466.5" font-family="Helvetica,sans-Serif" font-size="10.00">~</text>
<text text-anchor="start" x="205" y="-466.5" font-family="Helvetica,sans-Serif" font-size="10.00">void setWrongOsForTests()</text>
<polygon fill="#666666" stroke="#666666" points="191,-878 191,-878 387.5,-878 387.5,-878 191,-878"/>
<polygon fill="#666666" stroke="#666666" points="191,-694 191,-694 203,-694 203,-694 191,-694"/>
<polygon fill="#666666" stroke="#666666" points="203,-694 203,-694 387.5,-694 387.5,-694 203,-694"/>
<polygon fill="none" stroke="#666666" points="191,-460 191,-908 387.5,-908 387.5,-460 191,-460"/>
</a>
</g>
</g>
<!-- Node3&#45;&gt;Node1 -->
<g id="edge2_Node000001_Node000003" class="edge">
<title>Node3&#45;&gt;Node1</title>
<g id="a_edge2_Node000001_Node000003"><a xlink:title=" ">
<path fill="none" stroke="#63b8ff" d="M290.74,-460.08C297.94,-424.2 309.7,-388.79 328.25,-358 368.68,-290.9 443.48,-241.96 504.12,-211.01"/>
<polygon fill="none" stroke="#63b8ff" points="504.11,-211.02 507.69,-204.76 514.85,-205.66 511.27,-211.92 504.11,-211.02"/>
</a>
</g>
<text text-anchor="middle" x="368.75" y="-396.5" font-family="Helvetica,sans-Serif" font-size="10.00" fill="grey"> &#45;iOsFolderFactory</text>
</g>
<!-- Node4 -->
<g id="Node000004" class="node">
<title>Node4</title>
<g id="a_Node000004"><a xlink:title=" ">
<polygon fill="white" stroke="none" points="439,-710 405.5,-710 405.5,-658 439,-658 439,-710"/>
<text text-anchor="start" x="409.5" y="-696.5" font-family="Helvetica,sans-Serif" font-size="10.00">Stage</text>
<text text-anchor="start" x="420.75" y="-680.5" font-family="Helvetica,sans-Serif" font-size="10.00"> </text>
<text text-anchor="start" x="420.75" y="-664.5" font-family="Helvetica,sans-Serif" font-size="10.00"> </text>
<polygon fill="#666666" stroke="#666666" points="405.5,-692 405.5,-692 439,-692 439,-692 405.5,-692"/>
<polygon fill="#666666" stroke="#666666" points="405.5,-676 405.5,-676 439,-676 439,-676 405.5,-676"/>
<polygon fill="none" stroke="#666666" points="405.5,-658 405.5,-710 439,-710 439,-658 405.5,-658"/>
</a>
</g>
</g>
<!-- Node4&#45;&gt;Node1 -->
<g id="edge3_Node000001_Node000004" class="edge">
<title>Node4&#45;&gt;Node1</title>
<g id="a_edge3_Node000001_Node000004"><a xlink:title=" ">
<path fill="none" stroke="#63b8ff" d="M417.64,-658.21C408.38,-602.27 391.78,-462.93 433.5,-358 449.44,-317.92 477.94,-280.7 506.81,-250.19"/>
<polygon fill="none" stroke="#63b8ff" points="506.8,-250.2 508.1,-243.11 515.14,-241.58 513.84,-248.68 506.8,-250.2"/>
</a>
</g>
<text text-anchor="middle" x="475.88" y="-402.5" font-family="Helvetica,sans-Serif" font-size="10.00" fill="grey"> &#45;crashscreenStage</text>
<text text-anchor="middle" x="475.88" y="-390.5" font-family="Helvetica,sans-Serif" font-size="10.00" fill="grey">&#45;primaryStage</text>
</g>
<!-- Node5 -->
<g id="Node000005" class="node">
<title>Node5</title>
<g id="a_Node000005"><a xlink:title=" ">
<polygon fill="white" stroke="none" points="547.38,-710 483.12,-710 483.12,-658 547.38,-658 547.38,-710"/>
<text text-anchor="start" x="487.12" y="-696.5" font-family="Helvetica,sans-Serif" font-size="10.00">DropShadow</text>
<text text-anchor="start" x="513.75" y="-680.5" font-family="Helvetica,sans-Serif" font-size="10.00"> </text>
<text text-anchor="start" x="513.75" y="-664.5" font-family="Helvetica,sans-Serif" font-size="10.00"> </text>
<polygon fill="#666666" stroke="#666666" points="483.12,-692 483.12,-692 547.38,-692 547.38,-692 483.12,-692"/>
<polygon fill="#666666" stroke="#666666" points="483.12,-676 483.12,-676 547.38,-676 547.38,-676 483.12,-676"/>
<polygon fill="none" stroke="#666666" points="483.12,-658 483.12,-710 547.38,-710 547.38,-658 483.12,-658"/>
</a>
</g>
</g>
<!-- Node5&#45;&gt;Node1 -->
<g id="edge4_Node000001_Node000005" class="edge">
<title>Node5&#45;&gt;Node1</title>
<g id="a_edge4_Node000001_Node000005"><a xlink:title=" ">
<path fill="none" stroke="#63b8ff" d="M514.43,-658.25C513.11,-603.53 512.56,-468.36 534.25,-358 534.62,-356.13 535,-354.26 535.39,-352.38"/>
<polygon fill="none" stroke="#63b8ff" points="535.37,-352.49 532.77,-345.76 537.99,-340.78 540.58,-347.51 535.37,-352.49"/>
</a>
</g>
<text text-anchor="middle" x="564.25" y="-396.5" font-family="Helvetica,sans-Serif" font-size="10.00" fill="grey"> &#45;dropShadow</text>
</g>
<!-- Node6 -->
<g id="Node000006" class="node">
<title>Node6</title>
<g id="a_Node000006"><a xlink:title=" ">
<polygon fill="white" stroke="none" points="614.25,-710 582.25,-710 582.25,-658 614.25,-658 614.25,-710"/>
<text text-anchor="start" x="586.25" y="-696.5" font-family="Helvetica,sans-Serif" font-size="10.00">VBox</text>
<text text-anchor="start" x="596.75" y="-680.5" font-family="Helvetica,sans-Serif" font-size="10.00"> </text>
<text text-anchor="start" x="596.75" y="-664.5" font-family="Helvetica,sans-Serif" font-size="10.00"> </text>
<polygon fill="#666666" stroke="#666666" points="582.25,-692 582.25,-692 614.25,-692 614.25,-692 582.25,-692"/>
<polygon fill="#666666" stroke="#666666" points="582.25,-676 582.25,-676 614.25,-676 614.25,-676 582.25,-676"/>
<polygon fill="none" stroke="#666666" points="582.25,-658 582.25,-710 614.25,-710 614.25,-658 582.25,-658"/>
</a>
</g>
</g>
<!-- Node6&#45;&gt;Node1 -->
<g id="edge5_Node000001_Node000006" class="edge">
<title>Node6&#45;&gt;Node1</title>
<g id="a_edge5_Node000001_Node000006"><a xlink:title=" ">
<path fill="none" stroke="#63b8ff" d="M598.25,-658.31C598.25,-603.43 598.25,-467.16 598.25,-352.64"/>
<polygon fill="none" stroke="#63b8ff" points="598.25,-352.76 594.25,-346.76 598.25,-340.76 602.25,-346.76 598.25,-352.76"/>
</a>
</g>
<text text-anchor="middle" x="638.38" y="-396.5" font-family="Helvetica,sans-Serif" font-size="10.00" fill="grey"> &#45;crashscreenvbox</text>
</g>
<!-- Node7 -->
<g id="Node000007" class="node">
<title>Node7</title>
<g id="a_Node000007"><a xlink:title=" ">
<polygon fill="white" stroke="none" points="720.62,-710 681.88,-710 681.88,-658 720.62,-658 720.62,-710"/>
<text text-anchor="start" x="685.88" y="-696.5" font-family="Helvetica,sans-Serif" font-size="10.00">Region</text>
<text text-anchor="start" x="699.75" y="-680.5" font-family="Helvetica,sans-Serif" font-size="10.00"> </text>
<text text-anchor="start" x="699.75" y="-664.5" font-family="Helvetica,sans-Serif" font-size="10.00"> </text>
<polygon fill="#666666" stroke="#666666" points="681.88,-692 681.88,-692 720.62,-692 720.62,-692 681.88,-692"/>
<polygon fill="#666666" stroke="#666666" points="681.88,-676 681.88,-676 720.62,-676 720.62,-676 681.88,-676"/>
<polygon fill="none" stroke="#666666" points="681.88,-658 681.88,-710 720.62,-710 720.62,-658 681.88,-658"/>
</a>
</g>
</g>
<!-- Node7&#45;&gt;Node1 -->
<g id="edge6_Node000001_Node000007" class="edge">
<title>Node7&#45;&gt;Node1</title>
<g id="a_edge6_Node000001_Node000007"><a xlink:title=" ">
<path fill="none" stroke="#63b8ff" d="M702.41,-658.1C704.37,-603.09 705.8,-467.36 679.25,-358 678.79,-356.12 678.32,-354.23 677.83,-352.35"/>
<polygon fill="none" stroke="#63b8ff" points="677.81,-352.26 672.35,-347.55 674.6,-340.7 680.06,-345.41 677.81,-352.26"/>
</a>
</g>
<text text-anchor="middle" x="785.78" y="-396.5" font-family="Helvetica,sans-Serif" font-size="10.00" fill="grey"> &#45;crashscreenvboxTophboxRegionsudosvg</text>
</g>
<!-- Node8 -->
<g id="Node000008" class="node">
<title>Node8</title>
<g id="a_Node000008"><a xlink:title=" ">
<polygon fill="white" stroke="none" points="924.88,-710 893.62,-710 893.62,-658 924.88,-658 924.88,-710"/>
<text text-anchor="start" x="897.62" y="-696.5" font-family="Helvetica,sans-Serif" font-size="10.00">Label</text>
<text text-anchor="start" x="907.75" y="-680.5" font-family="Helvetica,sans-Serif" font-size="10.00"> </text>
<text text-anchor="start" x="907.75" y="-664.5" font-family="Helvetica,sans-Serif" font-size="10.00"> </text>
<polygon fill="#666666" stroke="#666666" points="893.62,-692 893.62,-692 924.88,-692 924.88,-692 893.62,-692"/>
<polygon fill="#666666" stroke="#666666" points="893.62,-676 893.62,-676 924.88,-676 924.88,-676 893.62,-676"/>
<polygon fill="none" stroke="#666666" points="893.62,-658 893.62,-710 924.88,-710 924.88,-658 893.62,-658"/>
</a>
</g>
</g>
<!-- Node8&#45;&gt;Node1 -->
<g id="edge7_Node000001_Node000008" class="edge">
<title>Node8&#45;&gt;Node1</title>
<g id="a_edge7_Node000001_Node000008"><a xlink:title=" ">
<path fill="none" stroke="#63b8ff" d="M909.93,-658.35C911.35,-591.54 912.31,-408.63 882.25,-358 839.68,-286.29 757.61,-236.78 692.6,-206.8"/>
<polygon fill="none" stroke="#63b8ff" points="692.85,-206.91 685.73,-208.1 681.91,-201.98 689.02,-200.8 692.85,-206.91"/>
</a>
</g>
<text text-anchor="start" x="902.58" y="-432.5" font-family="Helvetica,sans-Serif" font-size="10.00" fill="grey"> &#45;crashscreenvboxBottomhbox</text>
<text text-anchor="middle" x="982.83" y="-420.5" font-family="Helvetica,sans-Serif" font-size="10.00" fill="grey">Versionlabel</text>
<text text-anchor="start" x="902.58" y="-408.5" font-family="Helvetica,sans-Serif" font-size="10.00" fill="grey">&#45;crashscreenvboxBottomhbox</text>
<text text-anchor="middle" x="982.83" y="-396.5" font-family="Helvetica,sans-Serif" font-size="10.00" fill="grey">Yearlabel</text>
<text text-anchor="middle" x="982.83" y="-384.5" font-family="Helvetica,sans-Serif" font-size="10.00" fill="grey">&#45;crashscreenvboxCenterhboxLabel</text>
<text text-anchor="middle" x="982.83" y="-372.5" font-family="Helvetica,sans-Serif" font-size="10.00" fill="grey">&#45;crashscreenvboxCenterhboxLabel2</text>
<text text-anchor="middle" x="982.83" y="-360.5" font-family="Helvetica,sans-Serif" font-size="10.00" fill="grey">&#45;crashscreenvboxTophboxNamelabel</text>
</g>
<!-- Node9 -->
<g id="Node000009" class="node">
<title>Node9</title>
<g id="a_Node000009"><a xlink:title=" ">
<polygon fill="white" stroke="none" points="1109.62,-710 1076.88,-710 1076.88,-658 1109.62,-658 1109.62,-710"/>
<text text-anchor="start" x="1080.88" y="-696.5" font-family="Helvetica,sans-Serif" font-size="10.00">HBox</text>
<text text-anchor="start" x="1091.75" y="-680.5" font-family="Helvetica,sans-Serif" font-size="10.00"> </text>
<text text-anchor="start" x="1091.75" y="-664.5" font-family="Helvetica,sans-Serif" font-size="10.00"> </text>
<polygon fill="#666666" stroke="#666666" points="1076.88,-692 1076.88,-692 1109.62,-692 1109.62,-692 1076.88,-692"/>
<polygon fill="#666666" stroke="#666666" points="1076.88,-676 1076.88,-676 1109.62,-676 1109.62,-676 1076.88,-676"/>
<polygon fill="none" stroke="#666666" points="1076.88,-658 1076.88,-710 1109.62,-710 1109.62,-658 1076.88,-658"/>
</a>
</g>
</g>
<!-- Node9&#45;&gt;Node1 -->
<g id="edge8_Node000001_Node000009" class="edge">
<title>Node9&#45;&gt;Node1</title>
<g id="a_edge8_Node000001_Node000009"><a xlink:title=" ">
<path fill="none" stroke="#63b8ff" d="M1094.54,-658C1097.52,-590.32 1102.2,-405.37 1067.25,-358 979.4,-238.92 803.46,-195.57 693.82,-179.86"/>
<polygon fill="none" stroke="#63b8ff" points="693.9,-179.87 687.41,-183.02 682.01,-178.24 688.5,-175.09 693.9,-179.87"/>
</a>
</g>
<text text-anchor="middle" x="1166.86" y="-396.5" font-family="Helvetica,sans-Serif" font-size="10.00" fill="grey"> &#45;crashscreenvboxCenterhboxHbox</text>
</g>
<!-- Node10 -->
<g id="Node000010" class="node">
<title>Node10</title>
<g id="a_Node000010"><a xlink:title=" ">
<polygon fill="white" stroke="none" points="1288.5,-710 1252,-710 1252,-658 1288.5,-658 1288.5,-710"/>
<text text-anchor="start" x="1256" y="-696.5" font-family="Helvetica,sans-Serif" font-size="10.00">Button</text>
<text text-anchor="start" x="1268.75" y="-680.5" font-family="Helvetica,sans-Serif" font-size="10.00"> </text>
<text text-anchor="start" x="1268.75" y="-664.5" font-family="Helvetica,sans-Serif" font-size="10.00"> </text>
<polygon fill="#666666" stroke="#666666" points="1252,-692 1252,-692 1288.5,-692 1288.5,-692 1252,-692"/>
<polygon fill="#666666" stroke="#666666" points="1252,-676 1252,-676 1288.5,-676 1288.5,-676 1252,-676"/>
<polygon fill="none" stroke="#666666" points="1252,-658 1252,-710 1288.5,-710 1288.5,-658 1252,-658"/>
</a>
</g>
</g>
<!-- Node10&#45;&gt;Node1 -->
<g id="edge9_Node000001_Node000010" class="edge">
<title>Node10&#45;&gt;Node1</title>
<g id="a_edge9_Node000001_Node000010"><a xlink:title=" ">
<path fill="none" stroke="#63b8ff" d="M1277.1,-658.02C1291.76,-598.57 1319.31,-447.03 1247.25,-358 1177.53,-271.87 856.99,-210.99 694,-185.02"/>
<polygon fill="none" stroke="#63b8ff" points="693.86,-185 687.31,-188.01 682,-183.13 688.55,-180.11 693.86,-185"/>
</a>
</g>
<text text-anchor="middle" x="1313.88" y="-402.5" font-family="Helvetica,sans-Serif" font-size="10.00" fill="grey"> &#45;buttonClose</text>
<text text-anchor="middle" x="1313.88" y="-390.5" font-family="Helvetica,sans-Serif" font-size="10.00" fill="grey">&#45;buttonReset</text>
</g>
</g>
</svg>
