<?xml version="1.0" encoding="UTF-8" standalone="no"?>
<!DOCTYPE svg PUBLIC "-//W3C//DTD SVG 1.1//EN"
 "http://www.w3.org/Graphics/SVG/1.1/DTD/svg11.dtd">
<!-- Generated by graphviz version 12.2.0 (20241103.1931)
 -->
<!-- Title: fr.softsf.sudokufx.view.CrashScreenView.initialize Pages: 1 -->
<svg width="556pt" height="252pt"
 viewBox="0.00 0.00 555.50 252.00" xmlns="http://www.w3.org/2000/svg" xmlns:xlink="http://www.w3.org/1999/xlink">
<g id="graph0" class="graph" transform="scale(1 1) rotate(0) translate(4 248)">
<title>fr.softsf.sudokufx.view.CrashScreenView.initialize</title>
<!-- Node1 -->
<g id="Node000001" class="node">
<title>Node1</title>
<g id="a_Node000001"><a xlink:title="Initializes the crash screen components.">
<polygon fill="#999999" stroke="#666666" points="132.25,-144 0,-144 0,-112 132.25,-112 132.25,-144"/>
<text text-anchor="start" x="8" y="-130.5" font-family="Helvetica,sans-Serif" font-size="10.00">fr.softsf.sudokufx.view.</text>
<text text-anchor="middle" x="66.12" y="-118.5" font-family="Helvetica,sans-Serif" font-size="10.00">CrashScreenView.initialize</text>
</a>
</g>
</g>
<!-- Node2 -->
<g id="Node000002" class="node">
<title>Node2</title>
<g id="a_Node000002"><a xlink:href="classfr_1_1softsf_1_1sudokufx_1_1configuration_1_1_j_v_m_application_properties.html#a3f7b3c260ffbc879047a27ee9a1751f5" target="_top" xlink:title="Retrieves the current application name from system properties.">
<polygon fill="white" stroke="#666666" points="359.75,-244 171.25,-244 171.25,-212 359.75,-212 359.75,-244"/>
<text text-anchor="start" x="179.25" y="-230.5" font-family="Helvetica,sans-Serif" font-size="10.00">fr.softsf.sudokufx.configuration.</text>
<text text-anchor="middle" x="265.5" y="-218.5" font-family="Helvetica,sans-Serif" font-size="10.00">JVMApplicationProperties.getAppName</text>
</a>
</g>
</g>
<!-- Node1&#45;&gt;Node2 -->
<g id="edge1_Node000001_Node000002" class="edge">
<title>Node1&#45;&gt;Node2</title>
<g id="a_edge1_Node000001_Node000002"><a xlink:title=" ">
<path fill="none" stroke="#63b8ff" d="M84.74,-144.42C103.9,-161.42 136.11,-187.63 168.25,-203 171.6,-204.6 175.06,-206.11 178.6,-207.53"/>
<polygon fill="#63b8ff" stroke="#63b8ff" points="177.38,-210.81 187.97,-211.01 179.81,-204.25 177.38,-210.81"/>
</a>
</g>
</g>
<!-- Node4 -->
<g id="Node000004" class="node">
<title>Node4</title>
<g id="a_Node000004"><a xlink:href="classfr_1_1softsf_1_1sudokufx_1_1configuration_1_1_j_v_m_application_properties.html#aa3d30fcaecd7e5f4b1f8fe6fee13570a" target="_top" xlink:title="Retrieves the current application version from system properties.">
<polygon fill="white" stroke="#666666" points="362.75,-194 168.25,-194 168.25,-162 362.75,-162 362.75,-194"/>
<text text-anchor="start" x="176.25" y="-180.5" font-family="Helvetica,sans-Serif" font-size="10.00">fr.softsf.sudokufx.configuration.</text>
<text text-anchor="middle" x="265.5" y="-168.5" font-family="Helvetica,sans-Serif" font-size="10.00">JVMApplicationProperties.getAppVersion</text>
</a>
</g>
</g>
<!-- Node1&#45;&gt;Node4 -->
<g id="edge3_Node000001_Node000004" class="edge">
<title>Node1&#45;&gt;Node4</title>
<g id="a_edge3_Node000001_Node000004"><a xlink:title=" ">
<path fill="none" stroke="#63b8ff" d="M132.03,-144.44C150.07,-149.01 169.83,-154.02 188.45,-158.73"/>
<polygon fill="#63b8ff" stroke="#63b8ff" points="187.54,-162.11 198.09,-161.18 189.26,-155.33 187.54,-162.11"/>
</a>
</g>
</g>
<!-- Node5 -->
<g id="Node000005" class="node">
<title>Node5</title>
<g id="a_Node000005"><a xlink:href="interfacefr_1_1softsf_1_1sudokufx_1_1interfaces_1_1_i_os_folder_factory.html#ad2fbd0fa5081f7b023b0bbf262847cfb" target="_top" xlink:title="Retrieves the path to the OS&#45;specific data folder.">
<polygon fill="white" stroke="#666666" points="359.75,-144 171.25,-144 171.25,-112 359.75,-112 359.75,-144"/>
<text text-anchor="start" x="179.25" y="-130.5" font-family="Helvetica,sans-Serif" font-size="10.00">fr.softsf.sudokufx.interfaces.</text>
<text text-anchor="middle" x="265.5" y="-118.5" font-family="Helvetica,sans-Serif" font-size="10.00">IOsFolderFactory.getOsDataFolderPath</text>
</a>
</g>
</g>
<!-- Node1&#45;&gt;Node5 -->
<g id="edge5_Node000001_Node000005" class="edge">
<title>Node1&#45;&gt;Node5</title>
<g id="a_edge5_Node000001_Node000005"><a xlink:title=" ">
<path fill="none" stroke="#63b8ff" d="M132.57,-128C141.35,-128 150.52,-128 159.77,-128"/>
<polygon fill="#63b8ff" stroke="#63b8ff" points="159.54,-131.5 169.54,-128 159.54,-124.5 159.54,-131.5"/>
</a>
</g>
</g>
<!-- Node6 -->
<g id="Node000006" class="node">
<title>Node6</title>
<g id="a_Node000006"><a xlink:href="classfr_1_1softsf_1_1sudokufx_1_1utils_1_1_i18n.html#a7095fa285a498c3f20bf33488a69d22c" target="_top" xlink:title="Retrieves the localized string value for a given key.">
<polygon fill="white" stroke="#666666" points="323.75,-94 207.25,-94 207.25,-62 323.75,-62 323.75,-94"/>
<text text-anchor="start" x="215.25" y="-80.5" font-family="Helvetica,sans-Serif" font-size="10.00">fr.softsf.sudokufx.utils.</text>
<text text-anchor="middle" x="265.5" y="-68.5" font-family="Helvetica,sans-Serif" font-size="10.00">I18n.getValue</text>
</a>
</g>
</g>
<!-- Node1&#45;&gt;Node6 -->
<g id="edge6_Node000001_Node000006" class="edge">
<title>Node1&#45;&gt;Node6</title>
<g id="a_edge6_Node000001_Node000006"><a xlink:title=" ">
<path fill="none" stroke="#63b8ff" d="M132.03,-111.56C152.5,-106.37 175.19,-100.63 195.91,-95.38"/>
<polygon fill="#63b8ff" stroke="#63b8ff" points="196.57,-98.82 205.41,-92.97 194.85,-92.03 196.57,-98.82"/>
</a>
</g>
</g>
<!-- Node7 -->
<g id="Node000007" class="node">
<title>Node7</title>
<g id="a_Node000007"><a xlink:href="classfr_1_1softsf_1_1sudokufx_1_1view_1_1_crash_screen_view.html#a5a135e72f1765ad2dc90d69994f7b657" target="_top" xlink:title="Sets up the SVG logo for the crash screen.">
<polygon fill="white" stroke="#666666" points="359,-44 172,-44 172,0 359,0 359,-44"/>
<text text-anchor="start" x="180" y="-30.5" font-family="Helvetica,sans-Serif" font-size="10.00">fr.softsf.sudokufx.view.</text>
<text text-anchor="start" x="180" y="-18.5" font-family="Helvetica,sans-Serif" font-size="10.00">CrashScreenView.setCrashscreenvbox</text>
<text text-anchor="middle" x="265.5" y="-6.5" font-family="Helvetica,sans-Serif" font-size="10.00">TophboxLogosudosvg</text>
</a>
</g>
</g>
<!-- Node1&#45;&gt;Node7 -->
<g id="edge7_Node000001_Node000007" class="edge">
<title>Node1&#45;&gt;Node7</title>
<g id="a_edge7_Node000001_Node000007"><a xlink:title=" ">
<path fill="none" stroke="#63b8ff" d="M85.28,-111.64C104.63,-94.92 136.76,-69.19 168.25,-53 170.97,-51.6 173.77,-50.25 176.63,-48.94"/>
<polygon fill="#63b8ff" stroke="#63b8ff" points="177.95,-52.18 185.75,-45.01 175.18,-45.75 177.95,-52.18"/>
</a>
</g>
</g>
<!-- Node3 -->
<g id="Node000003" class="node">
<title>Node3</title>
<g id="a_Node000003"><a xlink:href="classfr_1_1softsf_1_1sudokufx_1_1utils_1_1_my_regex.html#a981702b076ee54a416d676b6f7a182fc" target="_top" xlink:title="Validates the given text against the specified regular expression.">
<polygon fill="white" stroke="#666666" points="547.5,-219 398.75,-219 398.75,-187 547.5,-187 547.5,-219"/>
<text text-anchor="start" x="406.75" y="-205.5" font-family="Helvetica,sans-Serif" font-size="10.00">fr.softsf.sudokufx.utils.</text>
<text text-anchor="middle" x="473.12" y="-193.5" font-family="Helvetica,sans-Serif" font-size="10.00">MyRegex.isValidatedByRegex</text>
</a>
</g>
</g>
<!-- Node2&#45;&gt;Node3 -->
<g id="edge2_Node000002_Node000003" class="edge">
<title>Node2&#45;&gt;Node3</title>
<g id="a_edge2_Node000002_Node000003"><a xlink:title=" ">
<path fill="none" stroke="#63b8ff" d="M359.99,-216.63C369.01,-215.54 378.14,-214.43 387.07,-213.34"/>
<polygon fill="#63b8ff" stroke="#63b8ff" points="387.27,-216.84 396.77,-212.16 386.42,-209.89 387.27,-216.84"/>
</a>
</g>
</g>
<!-- Node4&#45;&gt;Node3 -->
<g id="edge4_Node000004_Node000003" class="edge">
<title>Node4&#45;&gt;Node3</title>
<g id="a_edge4_Node000004_Node000003"><a xlink:title=" ">
<path fill="none" stroke="#63b8ff" d="M362.99,-189.73C371.08,-190.71 379.21,-191.7 387.2,-192.68"/>
<polygon fill="#63b8ff" stroke="#63b8ff" points="386.52,-196.12 396.87,-193.85 387.37,-189.17 386.52,-196.12"/>
</a>
</g>
</g>
<!-- Node8 -->
<g id="Node000008" class="node">
<title>Node8</title>
<g id="a_Node000008"><a xlink:href="classfr_1_1softsf_1_1sudokufx_1_1view_1_1_crash_screen_view.html#aef8eba37009f641a92196a638a62d82c" target="_top" xlink:title="Creates an SVG shape and applies it to a Region.">
<polygon fill="white" stroke="#666666" points="545.62,-38 400.62,-38 400.62,-6 545.62,-6 545.62,-38"/>
<text text-anchor="start" x="408.62" y="-24.5" font-family="Helvetica,sans-Serif" font-size="10.00">fr.softsf.sudokufx.view.</text>
<text text-anchor="middle" x="473.12" y="-12.5" font-family="Helvetica,sans-Serif" font-size="10.00">CrashScreenView.createSVG</text>
</a>
</g>
</g>
<!-- Node7&#45;&gt;Node8 -->
<g id="edge8_Node000007_Node000008" class="edge">
<title>Node7&#45;&gt;Node8</title>
<g id="a_edge8_Node000007_Node000008"><a xlink:title=" ">
<path fill="none" stroke="#63b8ff" d="M359.39,-22C369.25,-22 379.25,-22 388.99,-22"/>
<polygon fill="#63b8ff" stroke="#63b8ff" points="388.78,-25.5 398.78,-22 388.78,-18.5 388.78,-25.5"/>
</a>
</g>
</g>
</g>
</svg>
