<?xml version="1.0" encoding="UTF-8" standalone="no"?>
<!DOCTYPE svg PUBLIC "-//W3C//DTD SVG 1.1//EN"
 "http://www.w3.org/Graphics/SVG/1.1/DTD/svg11.dtd">
<!-- Generated by graphviz version 12.2.1 (20241206.2353)
 -->
<!-- Title: fr.softsf.sudokufx.view.SplashScreenView.nodesConfiguration Pages: 1 -->
<svg width="608pt" height="288pt"
 viewBox="0.00 0.00 608.00 288.00" xmlns="http://www.w3.org/2000/svg" xmlns:xlink="http://www.w3.org/1999/xlink">
<g id="graph0" class="graph" transform="scale(1 1) rotate(0) translate(4 284)">
<title>fr.softsf.sudokufx.view.SplashScreenView.nodesConfiguration</title>
<!-- Node1 -->
<g id="Node000001" class="node">
<title>Node1</title>
<g id="a_Node000001"><a xlink:title="Configures the properties and styles of the UI nodes.">
<polygon fill="#999999" stroke="#666666" points="184.75,-162 0,-162 0,-130 184.75,-130 184.75,-162"/>
<text text-anchor="start" x="8" y="-148.5" font-family="Helvetica,sans-Serif" font-size="10.00">fr.softsf.sudokufx.view.</text>
<text text-anchor="middle" x="92.38" y="-136.5" font-family="Helvetica,sans-Serif" font-size="10.00">SplashScreenView.nodesConfiguration</text>
</a>
</g>
</g>
<!-- Node2 -->
<g id="Node000002" class="node">
<title>Node2</title>
<g id="a_Node000002"><a xlink:href="classfr_1_1softsf_1_1sudokufx_1_1view_1_1_splash_screen_view.html#a05ceacbaf9b2149100b85aa1915a98a2" target="_top" xlink:title="Animates the SVG flower.">
<polygon fill="white" stroke="#666666" points="408.88,-280 227.12,-280 227.12,-248 408.88,-248 408.88,-280"/>
<text text-anchor="start" x="235.12" y="-266.5" font-family="Helvetica,sans-Serif" font-size="10.00">fr.softsf.sudokufx.view.</text>
<text text-anchor="middle" x="318" y="-254.5" font-family="Helvetica,sans-Serif" font-size="10.00">SplashScreenView.animateFlowerSvg</text>
</a>
</g>
</g>
<!-- Node1&#45;&gt;Node2 -->
<g id="edge1_Node000001_Node000002" class="edge">
<title>Node1&#45;&gt;Node2</title>
<g id="a_edge1_Node000001_Node000002"><a xlink:title=" ">
<path fill="none" stroke="#63b8ff" d="M110.96,-162.23C134.32,-182.97 177.69,-218.6 220.75,-239 224.25,-240.66 227.87,-242.22 231.58,-243.68"/>
<polygon fill="#63b8ff" stroke="#63b8ff" points="230.16,-246.89 240.75,-247.05 232.57,-240.32 230.16,-246.89"/>
</a>
</g>
</g>
<!-- Node3 -->
<g id="Node000003" class="node">
<title>Node3</title>
<g id="a_Node000003"><a xlink:href="classfr_1_1softsf_1_1sudokufx_1_1view_1_1_splash_screen_view.html#ad126ac2f2a90b2422490ca0d896fa398" target="_top" xlink:title="Retrieves a message indicating the current loading or optimizing state.">
<polygon fill="white" stroke="#666666" points="397.25,-230 238.75,-230 238.75,-186 397.25,-186 397.25,-230"/>
<text text-anchor="start" x="246.75" y="-216.5" font-family="Helvetica,sans-Serif" font-size="10.00">fr.softsf.sudokufx.view.</text>
<text text-anchor="start" x="246.75" y="-204.5" font-family="Helvetica,sans-Serif" font-size="10.00">SplashScreenView.getLoadingOr</text>
<text text-anchor="middle" x="318" y="-192.5" font-family="Helvetica,sans-Serif" font-size="10.00">OptimizingMessage</text>
</a>
</g>
</g>
<!-- Node1&#45;&gt;Node3 -->
<g id="edge2_Node000001_Node000003" class="edge">
<title>Node1&#45;&gt;Node3</title>
<g id="a_edge2_Node000001_Node000003"><a xlink:title=" ">
<path fill="none" stroke="#63b8ff" d="M152.72,-162.45C175.6,-168.8 202.27,-176.19 227.38,-183.15"/>
<polygon fill="#63b8ff" stroke="#63b8ff" points="226.38,-186.51 236.96,-185.81 228.26,-179.76 226.38,-186.51"/>
</a>
</g>
</g>
<!-- Node4 -->
<g id="Node000004" class="node">
<title>Node4</title>
<g id="a_Node000004"><a xlink:href="classfr_1_1softsf_1_1sudokufx_1_1view_1_1_splash_screen_view.html#aafe300850c83d75b03d338a68d19c892" target="_top" xlink:title="Sets up the SVG for the Soft64 text logo in the center of the splash screen.">
<polygon fill="white" stroke="#666666" points="415.25,-168 220.75,-168 220.75,-124 415.25,-124 415.25,-168"/>
<text text-anchor="start" x="228.75" y="-154.5" font-family="Helvetica,sans-Serif" font-size="10.00">fr.softsf.sudokufx.view.</text>
<text text-anchor="start" x="228.75" y="-142.5" font-family="Helvetica,sans-Serif" font-size="10.00">SplashScreenView.setSplashscreenvbox</text>
<text text-anchor="middle" x="318" y="-130.5" font-family="Helvetica,sans-Serif" font-size="10.00">CenterhboxLogosoft64textsvg</text>
</a>
</g>
</g>
<!-- Node1&#45;&gt;Node4 -->
<g id="edge3_Node000001_Node000004" class="edge">
<title>Node1&#45;&gt;Node4</title>
<g id="a_edge3_Node000001_Node000004"><a xlink:title=" ">
<path fill="none" stroke="#63b8ff" d="M184.98,-146C192.93,-146 201.02,-146 209.09,-146"/>
<polygon fill="#63b8ff" stroke="#63b8ff" points="208.94,-149.5 218.94,-146 208.94,-142.5 208.94,-149.5"/>
</a>
</g>
</g>
<!-- Node6 -->
<g id="Node000006" class="node">
<title>Node6</title>
<g id="a_Node000006"><a xlink:href="classfr_1_1softsf_1_1sudokufx_1_1view_1_1_splash_screen_view.html#a762ac1d676ca1be22b521cd731b8d9ba" target="_top" xlink:title="Sets up the SVG for the flower logo in the center of the splash screen.">
<polygon fill="white" stroke="#666666" points="415.25,-106 220.75,-106 220.75,-62 415.25,-62 415.25,-106"/>
<text text-anchor="start" x="228.75" y="-92.5" font-family="Helvetica,sans-Serif" font-size="10.00">fr.softsf.sudokufx.view.</text>
<text text-anchor="start" x="228.75" y="-80.5" font-family="Helvetica,sans-Serif" font-size="10.00">SplashScreenView.setSplashscreenvbox</text>
<text text-anchor="middle" x="318" y="-68.5" font-family="Helvetica,sans-Serif" font-size="10.00">CenterhboxStackpaneLogoflowersvg</text>
</a>
</g>
</g>
<!-- Node1&#45;&gt;Node6 -->
<g id="edge5_Node000001_Node000006" class="edge">
<title>Node1&#45;&gt;Node6</title>
<g id="a_edge5_Node000001_Node000006"><a xlink:title=" ">
<path fill="none" stroke="#63b8ff" d="M152.72,-129.55C174.82,-123.42 200.46,-116.31 224.82,-109.56"/>
<polygon fill="#63b8ff" stroke="#63b8ff" points="225.75,-112.93 234.45,-106.89 223.88,-106.19 225.75,-112.93"/>
</a>
</g>
</g>
<!-- Node7 -->
<g id="Node000007" class="node">
<title>Node7</title>
<g id="a_Node000007"><a xlink:href="classfr_1_1softsf_1_1sudokufx_1_1view_1_1_splash_screen_view.html#a53ead1ea80a08e06c15ae42ae101fcdf" target="_top" xlink:title="Sets up the SVG for the Sudoku logo in the top section of the splash screen.">
<polygon fill="white" stroke="#666666" points="415.25,-44 220.75,-44 220.75,0 415.25,0 415.25,-44"/>
<text text-anchor="start" x="228.75" y="-30.5" font-family="Helvetica,sans-Serif" font-size="10.00">fr.softsf.sudokufx.view.</text>
<text text-anchor="start" x="228.75" y="-18.5" font-family="Helvetica,sans-Serif" font-size="10.00">SplashScreenView.setSplashscreenvbox</text>
<text text-anchor="middle" x="318" y="-6.5" font-family="Helvetica,sans-Serif" font-size="10.00">TophboxLogosudosvg</text>
</a>
</g>
</g>
<!-- Node1&#45;&gt;Node7 -->
<g id="edge7_Node000001_Node000007" class="edge">
<title>Node1&#45;&gt;Node7</title>
<g id="a_edge7_Node000001_Node000007"><a xlink:title=" ">
<path fill="none" stroke="#63b8ff" d="M111.55,-129.79C135.21,-109.41 178.54,-74.5 220.75,-53 223.48,-51.61 226.28,-50.27 229.14,-48.97"/>
<polygon fill="#63b8ff" stroke="#63b8ff" points="230.46,-52.21 238.28,-45.06 227.71,-45.77 230.46,-52.21"/>
</a>
</g>
</g>
<!-- Node5 -->
<g id="Node000005" class="node">
<title>Node5</title>
<g id="a_Node000005"><a xlink:href="classfr_1_1softsf_1_1sudokufx_1_1view_1_1_splash_screen_view.html#a5d7017836e704c8e6db24f7d677041ba" target="_top" xlink:title="Creates an SVG shape and applies it to a Region.">
<polygon fill="white" stroke="#666666" points="600,-100 451.25,-100 451.25,-68 600,-68 600,-100"/>
<text text-anchor="start" x="459.25" y="-86.5" font-family="Helvetica,sans-Serif" font-size="10.00">fr.softsf.sudokufx.view.</text>
<text text-anchor="middle" x="525.62" y="-74.5" font-family="Helvetica,sans-Serif" font-size="10.00">SplashScreenView.createSVG</text>
</a>
</g>
</g>
<!-- Node4&#45;&gt;Node5 -->
<g id="edge4_Node000004_Node000005" class="edge">
<title>Node4&#45;&gt;Node5</title>
<g id="a_edge4_Node000004_Node000005"><a xlink:title=" ">
<path fill="none" stroke="#63b8ff" d="M393.53,-123.53C414.96,-117.07 438.17,-110.07 459.02,-103.78"/>
<polygon fill="#63b8ff" stroke="#63b8ff" points="460,-107.14 468.56,-100.9 457.98,-100.44 460,-107.14"/>
</a>
</g>
</g>
<!-- Node6&#45;&gt;Node5 -->
<g id="edge6_Node000006_Node000005" class="edge">
<title>Node6&#45;&gt;Node5</title>
<g id="a_edge6_Node000006_Node000005"><a xlink:title=" ">
<path fill="none" stroke="#63b8ff" d="M415.49,-84C423.48,-84 431.53,-84 439.43,-84"/>
<polygon fill="#63b8ff" stroke="#63b8ff" points="439.36,-87.5 449.36,-84 439.36,-80.5 439.36,-87.5"/>
</a>
</g>
</g>
<!-- Node7&#45;&gt;Node5 -->
<g id="edge8_Node000007_Node000005" class="edge">
<title>Node7&#45;&gt;Node5</title>
<g id="a_edge8_Node000007_Node000005"><a xlink:title=" ">
<path fill="none" stroke="#63b8ff" d="M393.53,-44.47C414.96,-50.93 438.17,-57.93 459.02,-64.22"/>
<polygon fill="#63b8ff" stroke="#63b8ff" points="457.98,-67.56 468.56,-67.1 460,-60.86 457.98,-67.56"/>
</a>
</g>
</g>
</g>
</svg>
