<?xml version="1.0" encoding="UTF-8" standalone="no"?>
<!DOCTYPE svg PUBLIC "-//W3C//DTD SVG 1.1//EN"
 "http://www.w3.org/Graphics/SVG/1.1/DTD/svg11.dtd">
<!-- Generated by graphviz version 12.2.0 (20241103.1931)
 -->
<!-- Title: fr.softsf.sudokufx.configuration.os.MacosFolderFactory Pages: 1 -->
<svg width="168pt" height="284pt"
 viewBox="0.00 0.00 167.50 284.00" xmlns="http://www.w3.org/2000/svg" xmlns:xlink="http://www.w3.org/1999/xlink">

<svg id="main" version="1.1" xmlns="http://www.w3.org/2000/svg" xmlns:xlink="http://www.w3.org/1999/xlink" xml:space="preserve">

<style type="text/css"><![CDATA[
.node, .edge {opacity: 0.7;}
.node.selected, .edge.selected {opacity: 1;}
.edge:hover path { stroke: red; }
.edge:hover polygon { stroke: red; fill: red; }
]]></style>
<script type="application/ecmascript" xlink:href="svg.min.js"/>
<svg id="graph" class="graph">
<g id="graph0" class="graph" transform="scale(1 1) rotate(0) translate(4 280)">
<title>fr.softsf.sudokufx.configuration.os.MacosFolderFactory</title>
<!-- Node1 -->
<g id="Node000001" class="node">
<title>Node1</title>
<g id="a_Node000001"><a xlink:title="Factory class for creating and managing MACOS OS&#45;specific folders for the SudoFX application.">
<polygon fill="#999999" stroke="none" points="159.5,-160 0,-160 0,0 159.5,0 159.5,-160"/>
<text text-anchor="start" x="4" y="-146.5" font-family="Helvetica,sans-Serif" font-size="10.00">fr.softsf.sudokufx.configuration.os.</text>
<text text-anchor="start" x="35.12" y="-134.5" font-family="Helvetica,sans-Serif" font-size="10.00">MacosFolderFactory</text>
<text text-anchor="start" x="8.62" y="-118.5" font-family="Helvetica,sans-Serif" font-size="10.00">&#45;</text>
<text text-anchor="start" x="20.25" y="-118.5" font-family="Helvetica,sans-Serif" font-size="10.00">final String dataFolderFor</text>
<text text-anchor="start" x="20.25" y="-106.5" font-family="Helvetica,sans-Serif" font-size="10.00">SudoFx</text>
<text text-anchor="start" x="8.62" y="-90.5" font-family="Helvetica,sans-Serif" font-size="10.00">&#45;</text>
<text text-anchor="start" x="20.25" y="-90.5" font-family="Helvetica,sans-Serif" font-size="10.00">final String logsFolderFor</text>
<text text-anchor="start" x="20.25" y="-78.5" font-family="Helvetica,sans-Serif" font-size="10.00">SudoFx</text>
<text text-anchor="start" x="7.12" y="-62.5" font-family="Helvetica,sans-Serif" font-size="10.00">+</text>
<text text-anchor="start" x="20.25" y="-62.5" font-family="Helvetica,sans-Serif" font-size="10.00">MacosFolderFactory</text>
<text text-anchor="start" x="20.25" y="-50.5" font-family="Helvetica,sans-Serif" font-size="10.00">(String dataFolderPath,</text>
<text text-anchor="start" x="20.25" y="-38.5" font-family="Helvetica,sans-Serif" font-size="10.00"> String logsFolderPath)</text>
<text text-anchor="start" x="7.12" y="-22.5" font-family="Helvetica,sans-Serif" font-size="10.00">+</text>
<text text-anchor="start" x="20.25" y="-22.5" font-family="Helvetica,sans-Serif" font-size="10.00">String getOsDataFolderPath()</text>
<text text-anchor="start" x="7.12" y="-6.5" font-family="Helvetica,sans-Serif" font-size="10.00">+</text>
<text text-anchor="start" x="20.25" y="-6.5" font-family="Helvetica,sans-Serif" font-size="10.00">String getOsLogsFolderPath()</text>
<polygon fill="#666666" stroke="#666666" points="0,-130 0,-130 159.5,-130 159.5,-130 0,-130"/>
<polygon fill="#666666" stroke="#666666" points="0,-74 0,-74 18.25,-74 18.25,-74 0,-74"/>
<polygon fill="#666666" stroke="#666666" points="18.25,-74 18.25,-74 159.5,-74 159.5,-74 18.25,-74"/>
<polygon fill="none" stroke="#666666" points="0,0 0,-160 159.5,-160 159.5,0 0,0"/>
</a>
</g>
</g>
<!-- Node2 -->
<g id="Node000002" class="node">
<title>Node2</title>
<g id="a_Node000002"><a xlink:href="interfacefr_1_1softsf_1_1sudokufx_1_1interfaces_1_1_i_os_folder_factory.html" target="_top" xlink:title="Interface defining methods to access OS&#45;specific folder paths.">
<polygon fill="white" stroke="none" points="153.25,-276 6.25,-276 6.25,-196 153.25,-196 153.25,-276"/>
<text text-anchor="start" x="17.12" y="-262.5" font-family="Helvetica,sans-Serif" font-size="10.00">fr.softsf.sudokufx.interfaces.</text>
<text text-anchor="start" x="41.88" y="-250.5" font-family="Helvetica,sans-Serif" font-size="10.00">IOsFolderFactory</text>
<text text-anchor="start" x="78.25" y="-234.5" font-family="Helvetica,sans-Serif" font-size="10.00"> </text>
<text text-anchor="start" x="10.25" y="-218.5" font-family="Helvetica,sans-Serif" font-size="10.00">+</text>
<text text-anchor="start" x="20.25" y="-218.5" font-family="Helvetica,sans-Serif" font-size="10.00">String getOsDataFolderPath()</text>
<text text-anchor="start" x="10.25" y="-202.5" font-family="Helvetica,sans-Serif" font-size="10.00">+</text>
<text text-anchor="start" x="20.25" y="-202.5" font-family="Helvetica,sans-Serif" font-size="10.00">String getOsLogsFolderPath()</text>
<polygon fill="#666666" stroke="#666666" points="6.25,-246 6.25,-246 153.25,-246 153.25,-246 6.25,-246"/>
<polygon fill="#666666" stroke="#666666" points="6.25,-230 6.25,-230 153.25,-230 153.25,-230 6.25,-230"/>
<polygon fill="none" stroke="#666666" points="6.25,-196 6.25,-276 153.25,-276 153.25,-196 6.25,-196"/>
</a>
</g>
</g>
<!-- Node2&#45;&gt;Node1 -->
<g id="edge1_Node000001_Node000002" class="edge">
<title>Node2&#45;&gt;Node1</title>
<g id="a_edge1_Node000001_Node000002"><a xlink:title=" ">
<path fill="none" stroke="#63b8ff" d="M79.75,-184.76C79.75,-176.75 79.75,-168.3 79.75,-159.81"/>
<polygon fill="none" stroke="#63b8ff" points="76.25,-184.63 79.75,-194.63 83.25,-184.63 76.25,-184.63"/>
</a>
</g>
</g>
</g>
</svg>
</svg>

<style type='text/css'>
<![CDATA[
[data-mouse-over-selected='false'] { opacity: 0.7; }
[data-mouse-over-selected='true']  { opacity: 1.0; }
]]>
</style>
<script type="application/ecmascript"><![CDATA[
document.addEventListener('DOMContentLoaded', (event) => {
  highlightEdges();
  highlightAdjacentNodes();
});
]]></script>
</svg>
