<?xml version="1.0" encoding="UTF-8" standalone="no"?>
<!DOCTYPE svg PUBLIC "-//W3C//DTD SVG 1.1//EN"
 "http://www.w3.org/Graphics/SVG/1.1/DTD/svg11.dtd">
<!-- Generated by graphviz version 12.2.0 (20241103.1931)
 -->
<!-- Title: fr.softsf.sudokufx.SudoMain Pages: 1 -->
<!--zoomable 716 -->

<svg id="main" version="1.1" xmlns="http://www.w3.org/2000/svg" xmlns:xlink="http://www.w3.org/1999/xlink" xml:space="preserve" onload="init(evt)">

<style type="text/css"><![CDATA[
.node, .edge {opacity: 0.7;}
.node.selected, .edge.selected {opacity: 1;}
.edge:hover path { stroke: red; }
.edge:hover polygon { stroke: red; fill: red; }
]]></style>

<defs>
  <circle id="rim" cx="0" cy="0" r="7"/>
  <circle id="rim2" cx="0" cy="0" r="3.5"/>
  <g id="zoomPlus">
    <use xlink:href="#rim" fill="#404040"><set attributeName="fill" to="#808080" begin="zoomplus.mouseover" end="zoomplus.mouseout"/></use>
    <path d="M-4,0h8M0,-4v8" fill="none" stroke="white" stroke-width="1.5" pointer-events="none"/>
  </g>
  <g id="zoomMin">
    <use xlink:href="#rim" fill="#404040"><set attributeName="fill" to="#808080" begin="zoomminus.mouseover" end="zoomminus.mouseout"/></use>
    <path d="M-4,0h8" fill="none" stroke="white" stroke-width="1.5" pointer-events="none"/>
  </g>
  <g id="arrowUp" transform="translate(30 24)">
    <use xlink:href="#rim"/>
    <path pointer-events="none" fill="none" stroke="white" stroke-width="1.5" d="M0,-3.0v7 M-2.5,-0.5L0,-3.0L2.5,-0.5"/>
  </g>
  <g id="arrowRight" transform="rotate(90) translate(36 -43)">
    <use xlink:href="#rim"/>
    <path pointer-events="none" fill="none" stroke="white" stroke-width="1.5" d="M0,-3.0v7 M-2.5,-0.5L0,-3.0L2.5,-0.5"/>
  </g>
  <g id="arrowDown" transform="rotate(180) translate(-30 -48)">
    <use xlink:href="#rim"/>
    <path pointer-events="none" fill="none" stroke="white" stroke-width="1.5" d="M0,-3.0v7 M-2.5,-0.5L0,-3.0L2.5,-0.5"/>
  </g>
  <g id="arrowLeft" transform="rotate(270) translate(-36 17)">
    <use xlink:href="#rim"/>
    <path pointer-events="none" fill="none" stroke="white" stroke-width="1.5" d="M0,-3.0v7 M-2.5,-0.5L0,-3.0L2.5,-0.5"/>
  </g>
  <g id="resetDef">
    <use xlink:href="#rim2" fill="#404040"><set attributeName="fill" to="#808080" begin="reset.mouseover" end="reset.mouseout"/></use>
  </g>
</defs>
<script type="application/ecmascript">
var viewWidth = 690;
var viewHeight = 716;
var sectionId = 'dynsection-1';
</script>
<script type="application/ecmascript" xlink:href="svg.min.js"/>
<svg id="graph" class="graph">
<g id="viewport">
<title>fr.softsf.sudokufx.SudoMain</title>
<!-- Node1 -->
<g id="Node000001" class="node">
<title>Node1</title>
<g id="a_Node000001"><a xlink:title="The application main class.">
<polygon fill="#999999" stroke="none" points="355.88,-300 172.12,-300 172.12,0 355.88,0 355.88,-300"/>
<text text-anchor="start" x="202.5" y="-286.5" font-family="Helvetica,sans-Serif" font-size="10.00">fr.softsf.sudokufx.SudoMain</text>
<text text-anchor="start" x="262.5" y="-270.5" font-family="Helvetica,sans-Serif" font-size="10.00"> </text>
<text text-anchor="start" x="176.12" y="-254.5" font-family="Helvetica,sans-Serif" font-size="10.00">+</text>
<text text-anchor="start" x="186.12" y="-254.5" font-family="Helvetica,sans-Serif" font-size="10.00">void start(final Stage</text>
<text text-anchor="start" x="186.12" y="-242.5" font-family="Helvetica,sans-Serif" font-size="10.00"> splashScreenStage)</text>
<text text-anchor="start" x="176.12" y="-226.5" font-family="Helvetica,sans-Serif" font-size="10.00">+</text>
<text text-anchor="start" x="186.12" y="-226.5" font-family="Helvetica,sans-Serif" font-size="10.00">static void main(String</text>
<text text-anchor="start" x="186.12" y="-214.5" font-family="Helvetica,sans-Serif" font-size="10.00">[] args)</text>
<text text-anchor="start" x="177.62" y="-198.5" font-family="Helvetica,sans-Serif" font-size="10.00">&#45;</text>
<text text-anchor="start" x="186.12" y="-198.5" font-family="Helvetica,sans-Serif" font-size="10.00">Task&lt; Void &gt; createSpring</text>
<text text-anchor="start" x="186.12" y="-186.5" font-family="Helvetica,sans-Serif" font-size="10.00">ContextTask()</text>
<text text-anchor="start" x="177.62" y="-170.5" font-family="Helvetica,sans-Serif" font-size="10.00">&#45;</text>
<text text-anchor="start" x="186.12" y="-170.5" font-family="Helvetica,sans-Serif" font-size="10.00">PauseTransition getPause</text>
<text text-anchor="start" x="186.12" y="-158.5" font-family="Helvetica,sans-Serif" font-size="10.00">Transition(String fxmlName,</text>
<text text-anchor="start" x="186.12" y="-146.5" font-family="Helvetica,sans-Serif" font-size="10.00"> long minimumTimelapse)</text>
<text text-anchor="start" x="177.62" y="-130.5" font-family="Helvetica,sans-Serif" font-size="10.00">&#45;</text>
<text text-anchor="start" x="186.12" y="-130.5" font-family="Helvetica,sans-Serif" font-size="10.00">void handleSpringContext</text>
<text text-anchor="start" x="186.12" y="-118.5" font-family="Helvetica,sans-Serif" font-size="10.00">TaskFailed(Throwable throwable)</text>
<text text-anchor="start" x="177.62" y="-102.5" font-family="Helvetica,sans-Serif" font-size="10.00">&#45;</text>
<text text-anchor="start" x="186.12" y="-102.5" font-family="Helvetica,sans-Serif" font-size="10.00">void handleSpringContext</text>
<text text-anchor="start" x="186.12" y="-90.5" font-family="Helvetica,sans-Serif" font-size="10.00">TaskSuccess(long startTime)</text>
<text text-anchor="start" x="177.62" y="-74.5" font-family="Helvetica,sans-Serif" font-size="10.00">&#45;</text>
<text text-anchor="start" x="186.12" y="-74.5" font-family="Helvetica,sans-Serif" font-size="10.00">void initializeFxmlService()</text>
<text text-anchor="start" x="177.62" y="-58.5" font-family="Helvetica,sans-Serif" font-size="10.00">&#45;</text>
<text text-anchor="start" x="186.12" y="-58.5" font-family="Helvetica,sans-Serif" font-size="10.00">static void initScene</text>
<text text-anchor="start" x="186.12" y="-46.5" font-family="Helvetica,sans-Serif" font-size="10.00">(Stage splashScreenStage)</text>
<text text-anchor="start" x="177.62" y="-30.5" font-family="Helvetica,sans-Serif" font-size="10.00">&#45;</text>
<text text-anchor="start" x="186.12" y="-30.5" font-family="Helvetica,sans-Serif" font-size="10.00">static void sqlInvalidAuthorization</text>
<text text-anchor="start" x="186.12" y="-18.5" font-family="Helvetica,sans-Serif" font-size="10.00">(Exception e, SQLInvalidAuthorization</text>
<text text-anchor="start" x="186.12" y="-6.5" font-family="Helvetica,sans-Serif" font-size="10.00">SpecException sqlException)</text>
<polygon fill="#666666" stroke="#666666" points="172.12,-282 172.12,-282 355.88,-282 355.88,-282 172.12,-282"/>
<polygon fill="#666666" stroke="#666666" points="172.12,-266 172.12,-266 355.88,-266 355.88,-266 172.12,-266"/>
<polygon fill="none" stroke="#666666" points="172.12,0 172.12,-300 355.88,-300 355.88,0 172.12,0"/>
</a>
</g>
</g>
<!-- Node2 -->
<g id="Node000002" class="node">
<title>Node2</title>
<g id="a_Node000002"><a xlink:title=" ">
<polygon fill="white" stroke="none" points="56,-434 0,-434 0,-382 56,-382 56,-434"/>
<text text-anchor="start" x="4" y="-420.5" font-family="Helvetica,sans-Serif" font-size="10.00">Application</text>
<text text-anchor="start" x="26.5" y="-404.5" font-family="Helvetica,sans-Serif" font-size="10.00"> </text>
<text text-anchor="start" x="26.5" y="-388.5" font-family="Helvetica,sans-Serif" font-size="10.00"> </text>
<polygon fill="#666666" stroke="#666666" points="0,-416 0,-416 56,-416 56,-416 0,-416"/>
<polygon fill="#666666" stroke="#666666" points="0,-400 0,-400 56,-400 56,-400 0,-400"/>
<polygon fill="none" stroke="#666666" points="0,-382 0,-434 56,-434 56,-382 0,-382"/>
</a>
</g>
</g>
<!-- Node2&#45;&gt;Node1 -->
<g id="edge1_Node000001_Node000002" class="edge">
<title>Node2&#45;&gt;Node1</title>
<g id="a_edge1_Node000001_Node000002"><a xlink:title=" ">
<path fill="none" stroke="#63b8ff" d="M40.59,-371.82C47.7,-354.63 57.66,-334.21 70,-318 98.8,-280.16 137.41,-244.78 172.61,-216.41"/>
<polygon fill="none" stroke="#63b8ff" points="37.53,-370.05 37.09,-380.64 44.03,-372.64 37.53,-370.05"/>
</a>
</g>
</g>
<!-- Node3 -->
<g id="Node000003" class="node">
<title>Node3</title>
<g id="a_Node000003"><a xlink:title=" ">
<polygon fill="white" stroke="none" points="148.88,-708 113.12,-708 113.12,-656 148.88,-656 148.88,-708"/>
<text text-anchor="start" x="117.12" y="-694.5" font-family="Helvetica,sans-Serif" font-size="10.00">Scene</text>
<text text-anchor="start" x="129.5" y="-678.5" font-family="Helvetica,sans-Serif" font-size="10.00"> </text>
<text text-anchor="start" x="129.5" y="-662.5" font-family="Helvetica,sans-Serif" font-size="10.00"> </text>
<polygon fill="#666666" stroke="#666666" points="113.12,-690 113.12,-690 148.88,-690 148.88,-690 113.12,-690"/>
<polygon fill="#666666" stroke="#666666" points="113.12,-674 113.12,-674 148.88,-674 148.88,-674 113.12,-674"/>
<polygon fill="none" stroke="#666666" points="113.12,-656 113.12,-708 148.88,-708 148.88,-656 113.12,-656"/>
</a>
</g>
</g>
<!-- Node3&#45;&gt;Node1 -->
<g id="edge2_Node000001_Node000003" class="edge">
<title>Node3&#45;&gt;Node1</title>
<g id="a_edge2_Node000001_Node000003"><a xlink:title=" ">
<path fill="none" stroke="#63b8ff" d="M122.11,-656.28C103.23,-599.77 63.92,-457.56 103,-348 116.06,-311.37 139.19,-276.63 163.9,-246.82"/>
<polygon fill="none" stroke="#63b8ff" points="163.98,-246.73 164.82,-239.57 171.75,-237.59 170.91,-244.75 163.98,-246.73"/>
</a>
</g>
<text text-anchor="middle" x="104.12" y="-488.5" font-family="Helvetica,sans-Serif" font-size="10.00" fill="grey"> &#45;scene</text>
</g>
<!-- Node7 -->
<g id="Node000007" class="node">
<title>Node7</title>
<g id="a_Node000007"><a xlink:href="classfr_1_1softsf_1_1sudokufx_1_1service_1_1_fxml_service.html" target="_top" xlink:title="FxmlService is a Spring service that manages the loading of FXML files and updating the root of the J...">
<polygon fill="white" stroke="none" points="251.75,-468 112.25,-468 112.25,-348 251.75,-348 251.75,-468"/>
<text text-anchor="start" x="125" y="-454.5" font-family="Helvetica,sans-Serif" font-size="10.00">fr.softsf.sudokufx.service.</text>
<text text-anchor="start" x="154.62" y="-442.5" font-family="Helvetica,sans-Serif" font-size="10.00">FxmlService</text>
<text text-anchor="start" x="180.5" y="-426.5" font-family="Helvetica,sans-Serif" font-size="10.00"> </text>
<text text-anchor="start" x="116.25" y="-410.5" font-family="Helvetica,sans-Serif" font-size="10.00">+</text>
<text text-anchor="start" x="126.25" y="-410.5" font-family="Helvetica,sans-Serif" font-size="10.00">FxmlService(FXMLLoader</text>
<text text-anchor="start" x="126.25" y="-398.5" font-family="Helvetica,sans-Serif" font-size="10.00"> fxmlLoader)</text>
<text text-anchor="start" x="116.25" y="-382.5" font-family="Helvetica,sans-Serif" font-size="10.00">+</text>
<text text-anchor="start" x="126.25" y="-382.5" font-family="Helvetica,sans-Serif" font-size="10.00">void setRootByFXMLName</text>
<text text-anchor="start" x="126.25" y="-370.5" font-family="Helvetica,sans-Serif" font-size="10.00">(final String fxml)</text>
<text text-anchor="start" x="116.25" y="-354.5" font-family="Helvetica,sans-Serif" font-size="10.00">~</text>
<text text-anchor="start" x="126.25" y="-354.5" font-family="Helvetica,sans-Serif" font-size="10.00">public&lt; T &gt; T getController()</text>
<polygon fill="#666666" stroke="#666666" points="112.25,-438 112.25,-438 251.75,-438 251.75,-438 112.25,-438"/>
<polygon fill="#666666" stroke="#666666" points="112.25,-422 112.25,-422 251.75,-422 251.75,-422 112.25,-422"/>
<polygon fill="none" stroke="#666666" points="112.25,-348 112.25,-468 251.75,-468 251.75,-348 112.25,-348"/>
</a>
</g>
</g>
<!-- Node3&#45;&gt;Node7 -->
<g id="edge7_Node000007_Node000003" class="edge">
<title>Node3&#45;&gt;Node7</title>
<g id="a_edge7_Node000007_Node000003"><a xlink:title=" ">
<path fill="none" stroke="#63b8ff" d="M130.1,-656.08C129.47,-623.49 130.17,-564.8 140.75,-516 143.32,-504.16 147,-491.9 151.11,-480.09"/>
<polygon fill="none" stroke="#63b8ff" points="151.11,-480.11 149.41,-473.1 155.22,-468.83 156.92,-475.84 151.11,-480.11"/>
</a>
</g>
<text text-anchor="middle" x="156.88" y="-558.5" font-family="Helvetica,sans-Serif" font-size="10.00" fill="grey"> &#45;scene</text>
</g>
<!-- Node9 -->
<g id="Node000009" class="node">
<title>Node9</title>
<g id="a_Node000009"><a xlink:href="classfr_1_1softsf_1_1sudokufx_1_1utils_1_1_dynamic_font_size.html" target="_top" xlink:title="Manages dynamic font sizing based on the dimensions of a JavaFX Scene.">
<polygon fill="white" stroke="none" points="300.25,-608 181.75,-608 181.75,-516 300.25,-516 300.25,-608"/>
<text text-anchor="start" x="190.75" y="-594.5" font-family="Helvetica,sans-Serif" font-size="10.00">fr.softsf.sudokufx.utils.</text>
<text text-anchor="start" x="202" y="-582.5" font-family="Helvetica,sans-Serif" font-size="10.00">DynamicFontSize</text>
<text text-anchor="start" x="187.25" y="-566.5" font-family="Helvetica,sans-Serif" font-size="10.00">&#45;</text>
<text text-anchor="start" x="195.75" y="-566.5" font-family="Helvetica,sans-Serif" font-size="10.00">double currentFontSize</text>
<text text-anchor="start" x="185.75" y="-550.5" font-family="Helvetica,sans-Serif" font-size="10.00">+</text>
<text text-anchor="start" x="195.75" y="-550.5" font-family="Helvetica,sans-Serif" font-size="10.00">DynamicFontSize(final</text>
<text text-anchor="start" x="195.75" y="-538.5" font-family="Helvetica,sans-Serif" font-size="10.00"> Scene theScene)</text>
<text text-anchor="start" x="185.75" y="-522.5" font-family="Helvetica,sans-Serif" font-size="10.00">+</text>
<text text-anchor="start" x="195.75" y="-522.5" font-family="Helvetica,sans-Serif" font-size="10.00">void updateFontSize()</text>
<polygon fill="#666666" stroke="#666666" points="181.75,-578 181.75,-578 300.25,-578 300.25,-578 181.75,-578"/>
<polygon fill="#666666" stroke="#666666" points="181.75,-562 181.75,-562 193.75,-562 193.75,-562 181.75,-562"/>
<polygon fill="#666666" stroke="#666666" points="193.75,-562 193.75,-562 300.25,-562 300.25,-562 193.75,-562"/>
<polygon fill="none" stroke="#666666" points="181.75,-516 181.75,-608 300.25,-608 300.25,-516 181.75,-516"/>
</a>
</g>
</g>
<!-- Node3&#45;&gt;Node9 -->
<g id="edge10_Node000009_Node000003" class="edge">
<title>Node3&#45;&gt;Node9</title>
<g id="a_edge10_Node000009_Node000003"><a xlink:title=" ">
<path fill="none" stroke="#63b8ff" d="M148.67,-662.04C160.05,-649.84 175.45,-633.32 190.41,-617.27"/>
<polygon fill="none" stroke="#63b8ff" points="190.34,-617.34 191.51,-610.23 198.52,-608.56 197.36,-615.68 190.34,-617.34"/>
</a>
</g>
<text text-anchor="middle" x="195.54" y="-628.5" font-family="Helvetica,sans-Serif" font-size="10.00" fill="grey"> &#45;scene</text>
</g>
<!-- Node4 -->
<g id="Node000004" class="node">
<title>Node4</title>
<g id="a_Node000004"><a xlink:title=" ">
<polygon fill="white" stroke="none" points="340.12,-434 269.88,-434 269.88,-382 340.12,-382 340.12,-434"/>
<text text-anchor="start" x="273.88" y="-420.5" font-family="Helvetica,sans-Serif" font-size="10.00">SpringContext</text>
<text text-anchor="start" x="303.5" y="-404.5" font-family="Helvetica,sans-Serif" font-size="10.00"> </text>
<text text-anchor="start" x="303.5" y="-388.5" font-family="Helvetica,sans-Serif" font-size="10.00"> </text>
<polygon fill="#666666" stroke="#666666" points="269.88,-416 269.88,-416 340.12,-416 340.12,-416 269.88,-416"/>
<polygon fill="#666666" stroke="#666666" points="269.88,-400 269.88,-400 340.12,-400 340.12,-400 269.88,-400"/>
<polygon fill="none" stroke="#666666" points="269.88,-382 269.88,-434 340.12,-434 340.12,-382 269.88,-382"/>
</a>
</g>
</g>
<!-- Node4&#45;&gt;Node1 -->
<g id="edge3_Node000001_Node000004" class="edge">
<title>Node4&#45;&gt;Node1</title>
<g id="a_edge3_Node000001_Node000004"><a xlink:title=" ">
<path fill="none" stroke="#63b8ff" d="M301.07,-382.45C298.27,-364.98 294.24,-339.83 289.86,-312.48"/>
<polygon fill="none" stroke="#63b8ff" points="289.87,-312.52 284.97,-307.23 287.97,-300.67 292.87,-305.96 289.87,-312.52"/>
</a>
</g>
<text text-anchor="middle" x="310.86" y="-320.5" font-family="Helvetica,sans-Serif" font-size="10.00" fill="grey"> &#45;context</text>
</g>
<!-- Node5 -->
<g id="Node000005" class="node">
<title>Node5</title>
<g id="a_Node000005"><a xlink:href="interfacefr_1_1softsf_1_1sudokufx_1_1_sudo_main_1_1_i_splash_screen_view.html" target="_top" xlink:title="Interface for the splash screen view.">
<polygon fill="white" stroke="none" points="492,-448 358,-448 358,-368 492,-368 492,-448"/>
<text text-anchor="start" x="362" y="-434.5" font-family="Helvetica,sans-Serif" font-size="10.00">fr.softsf.sudokufx.SudoMain.</text>
<text text-anchor="start" x="382.25" y="-422.5" font-family="Helvetica,sans-Serif" font-size="10.00">ISplashScreenView</text>
<text text-anchor="start" x="423.5" y="-406.5" font-family="Helvetica,sans-Serif" font-size="10.00"> </text>
<text text-anchor="start" x="363.25" y="-390.5" font-family="Helvetica,sans-Serif" font-size="10.00">+</text>
<text text-anchor="start" x="374.5" y="-390.5" font-family="Helvetica,sans-Serif" font-size="10.00">void hideSplashScreen()</text>
<text text-anchor="start" x="363.25" y="-374.5" font-family="Helvetica,sans-Serif" font-size="10.00">+</text>
<text text-anchor="start" x="374.5" y="-374.5" font-family="Helvetica,sans-Serif" font-size="10.00">void showSplashScreen()</text>
<polygon fill="#666666" stroke="#666666" points="358,-418 358,-418 492,-418 492,-418 358,-418"/>
<polygon fill="#666666" stroke="#666666" points="358,-402 358,-402 492,-402 492,-402 358,-402"/>
<polygon fill="none" stroke="#666666" points="358,-368 358,-448 492,-448 492,-368 358,-368"/>
</a>
</g>
</g>
<!-- Node5&#45;&gt;Node1 -->
<g id="edge4_Node000001_Node000005" class="edge">
<title>Node5&#45;&gt;Node1</title>
<g id="a_edge4_Node000001_Node000005"><a xlink:title=" ">
<path fill="none" stroke="#63b8ff" d="M400.55,-368.12C389.93,-351.23 376.72,-330.23 362.74,-308"/>
<polygon fill="none" stroke="#63b8ff" points="362.69,-307.93 356.11,-304.98 356.3,-297.77 362.88,-300.72 362.69,-307.93"/>
</a>
</g>
<text text-anchor="middle" x="417.55" y="-320.5" font-family="Helvetica,sans-Serif" font-size="10.00" fill="grey"> &#45;isplashScreenView</text>
</g>
<!-- Node6 -->
<g id="Node000006" class="node">
<title>Node6</title>
<g id="a_Node000006"><a xlink:href="interfacefr_1_1softsf_1_1sudokufx_1_1_sudo_main_1_1_i_primary_stage_view.html" target="_top" xlink:title="Interface for the primary stage view.">
<polygon fill="white" stroke="none" points="682.25,-452 509.75,-452 509.75,-364 682.25,-364 682.25,-452"/>
<text text-anchor="start" x="533" y="-438.5" font-family="Helvetica,sans-Serif" font-size="10.00">fr.softsf.sudokufx.SudoMain.</text>
<text text-anchor="start" x="554" y="-426.5" font-family="Helvetica,sans-Serif" font-size="10.00">IPrimaryStageView</text>
<text text-anchor="start" x="594.5" y="-410.5" font-family="Helvetica,sans-Serif" font-size="10.00"> </text>
<text text-anchor="start" x="513.75" y="-394.5" font-family="Helvetica,sans-Serif" font-size="10.00">+</text>
<text text-anchor="start" x="523.75" y="-394.5" font-family="Helvetica,sans-Serif" font-size="10.00">void openingMainStage</text>
<text text-anchor="start" x="523.75" y="-382.5" font-family="Helvetica,sans-Serif" font-size="10.00">(ISplashScreenView iSplashScreen</text>
<text text-anchor="start" x="523.75" y="-370.5" font-family="Helvetica,sans-Serif" font-size="10.00">View)</text>
<polygon fill="#666666" stroke="#666666" points="509.75,-422 509.75,-422 682.25,-422 682.25,-422 509.75,-422"/>
<polygon fill="#666666" stroke="#666666" points="509.75,-406 509.75,-406 682.25,-406 682.25,-406 509.75,-406"/>
<polygon fill="none" stroke="#666666" points="509.75,-364 509.75,-452 682.25,-452 682.25,-364 509.75,-364"/>
</a>
</g>
</g>
<!-- Node6&#45;&gt;Node1 -->
<g id="edge5_Node000001_Node000006" class="edge">
<title>Node6&#45;&gt;Node1</title>
<g id="a_edge5_Node000001_Node000006"><a xlink:title=" ">
<path fill="none" stroke="#63b8ff" d="M540.43,-364.15C492.98,-327.56 423.49,-273.98 366.06,-229.7"/>
<polygon fill="none" stroke="#63b8ff" points="366.07,-229.7 358.87,-229.21 356.57,-222.38 363.76,-222.87 366.07,-229.7"/>
</a>
</g>
<text text-anchor="middle" x="533.24" y="-320.5" font-family="Helvetica,sans-Serif" font-size="10.00" fill="grey"> &#45;iPrimaryStageView</text>
</g>
<!-- Node7&#45;&gt;Node1 -->
<g id="edge6_Node000001_Node000007" class="edge">
<title>Node7&#45;&gt;Node1</title>
<g id="a_edge6_Node000001_Node000007"><a xlink:title=" ">
<path fill="none" stroke="#63b8ff" d="M200.81,-348.27C204.4,-337.08 208.3,-324.89 212.36,-312.22"/>
<polygon fill="none" stroke="#63b8ff" points="212.35,-312.24 210.37,-305.31 216.01,-300.82 217.99,-307.75 212.35,-312.24"/>
</a>
</g>
<text text-anchor="middle" x="237.4" y="-320.5" font-family="Helvetica,sans-Serif" font-size="10.00" fill="grey"> &#45;fxmlService</text>
</g>
<!-- Node8 -->
<g id="Node000008" class="node">
<title>Node8</title>
<g id="a_Node000008"><a xlink:title=" ">
<polygon fill="white" stroke="none" points="381.75,-588 318.25,-588 318.25,-536 381.75,-536 381.75,-588"/>
<text text-anchor="start" x="322.25" y="-574.5" font-family="Helvetica,sans-Serif" font-size="10.00">FXMLLoader</text>
<text text-anchor="start" x="348.5" y="-558.5" font-family="Helvetica,sans-Serif" font-size="10.00"> </text>
<text text-anchor="start" x="348.5" y="-542.5" font-family="Helvetica,sans-Serif" font-size="10.00"> </text>
<polygon fill="#666666" stroke="#666666" points="318.25,-570 318.25,-570 381.75,-570 381.75,-570 318.25,-570"/>
<polygon fill="#666666" stroke="#666666" points="318.25,-554 318.25,-554 381.75,-554 381.75,-554 318.25,-554"/>
<polygon fill="none" stroke="#666666" points="318.25,-536 318.25,-588 381.75,-588 381.75,-536 318.25,-536"/>
</a>
</g>
</g>
<!-- Node8&#45;&gt;Node7 -->
<g id="edge8_Node000007_Node000008" class="edge">
<title>Node8&#45;&gt;Node7</title>
<g id="a_edge8_Node000007_Node000008"><a xlink:title=" ">
<path fill="none" stroke="#63b8ff" d="M338.39,-536.07C329.9,-520.06 317.08,-499.75 301,-486 288.5,-475.31 280.58,-476.89 262.71,-468.25"/>
<polygon fill="none" stroke="#63b8ff" points="263,-468.41 255.82,-469.07 252.45,-462.69 259.64,-462.04 263,-468.41"/>
</a>
</g>
<text text-anchor="middle" x="338.38" y="-488.5" font-family="Helvetica,sans-Serif" font-size="10.00" fill="grey"> &#45;fxmlLoader</text>
</g>
<!-- Node9&#45;&gt;Node7 -->
<g id="edge9_Node000007_Node000009" class="edge">
<title>Node9&#45;&gt;Node7</title>
<g id="a_edge9_Node000007_Node000009"><a xlink:title=" ">
<path fill="none" stroke="#63b8ff" d="M223.62,-516.22C219.16,-504.74 214.26,-492.11 209.43,-479.67"/>
<polygon fill="none" stroke="#63b8ff" points="209.51,-479.87 203.61,-475.72 205.17,-468.68 211.07,-472.83 209.51,-479.87"/>
</a>
</g>
<text text-anchor="middle" x="255.91" y="-488.5" font-family="Helvetica,sans-Serif" font-size="10.00" fill="grey"> &#45;dynamicFontSize</text>
</g>
</g>
</svg>

<g id="navigator" transform="translate(0 0)" fill="#404254">
  <rect fill="#f2f5e9" fill-opacity="0.5" stroke="#606060" stroke-width=".5" x="0" y="0" width="60" height="60"/>
  <use id="zoomplus" xlink:href="#zoomPlus" x="17" y="9" onmousedown="handleZoom(evt,'in')"/>
  <use id="zoomminus" xlink:href="#zoomMin" x="42" y="9" onmousedown="handleZoom(evt,'out')"/>
  <use id="reset" xlink:href="#resetDef" x="30" y="36" onmousedown="handleReset()"/>
   <use id="arrowup" xlink:href="#arrowUp" x="0" y="0" onmousedown="handlePan(0,-1)"/>
  <use id="arrowright" xlink:href="#arrowRight" x="0" y="0" onmousedown="handlePan(1,0)"/>
  <use id="arrowdown" xlink:href="#arrowDown" x="0" y="0" onmousedown="handlePan(0,1)"/>
  <use id="arrowleft" xlink:href="#arrowLeft" x="0" y="0" onmousedown="handlePan(-1,0)"/>
</g>
<svg viewBox="0 0 15 15" width="100%" height="30px" preserveAspectRatio="xMaxYMin meet">
 <g id="arrow_out" transform="scale(0.3 0.3)">
  <a xlink:href="classfr_1_1softsf_1_1sudokufx_1_1_sudo_main__coll__graph_org.svg" target="_base">
   <rect id="button" ry="5" rx="5" y="6" x="6" height="38" width="38"
        fill="#f2f5e9" fill-opacity="0.5" stroke="#606060" stroke-width="1.0"/>
   <path id="arrow"
     d="M 11.500037,31.436501 C 11.940474,20.09759 22.043105,11.32322 32.158766,21.979434 L 37.068811,17.246167 C 37.068811,17.246167 37.088388,32 37.088388,32 L 22.160133,31.978069 C 22.160133,31.978069 26.997745,27.140456 26.997745,27.140456 C 18.528582,18.264221 13.291696,25.230495 11.500037,31.436501 z"
     style="fill:#404040;"/>
  </a>
 </g>
</svg>

<style type='text/css'>
<![CDATA[
[data-mouse-over-selected='false'] { opacity: 0.7; }
[data-mouse-over-selected='true']  { opacity: 1.0; }
]]>
</style>
<script type="application/ecmascript"><![CDATA[
document.addEventListener('DOMContentLoaded', (event) => {
  highlightEdges();
  highlightAdjacentNodes();
});
]]></script>
</svg>
