<?xml version="1.0" encoding="UTF-8" standalone="no"?>
<!DOCTYPE svg PUBLIC "-//W3C//DTD SVG 1.1//EN"
 "http://www.w3.org/Graphics/SVG/1.1/DTD/svg11.dtd">
<!-- Generated by graphviz version 12.2.0 (20241103.1931)
 -->
<!-- Title: fr.softsf.sudokufx.SudoMain Pages: 1 -->
<svg width="689pt" height="760pt"
 viewBox="0.00 0.00 689.25 760.00" xmlns="http://www.w3.org/2000/svg" xmlns:xlink="http://www.w3.org/1999/xlink">
<g id="graph0" class="graph" transform="scale(1 1) rotate(0) translate(4 756)">
<title>fr.softsf.sudokufx.SudoMain</title>
<!-- Node1 -->
<g id="Node000001" class="node">
<title>Node1</title>
<g id="a_Node000001"><a xlink:title="The application main class.">
<polygon fill="#999999" stroke="none" points="296.88,-300 113.12,-300 113.12,0 296.88,0 296.88,-300"/>
<text text-anchor="start" x="143.5" y="-286.5" font-family="Helvetica,sans-Serif" font-size="10.00">fr.softsf.sudokufx.SudoMain</text>
<text text-anchor="start" x="203.5" y="-270.5" font-family="Helvetica,sans-Serif" font-size="10.00"> </text>
<text text-anchor="start" x="117.12" y="-254.5" font-family="Helvetica,sans-Serif" font-size="10.00">+</text>
<text text-anchor="start" x="127.12" y="-254.5" font-family="Helvetica,sans-Serif" font-size="10.00">void start(final Stage</text>
<text text-anchor="start" x="127.12" y="-242.5" font-family="Helvetica,sans-Serif" font-size="10.00"> splashScreenStage)</text>
<text text-anchor="start" x="117.12" y="-226.5" font-family="Helvetica,sans-Serif" font-size="10.00">+</text>
<text text-anchor="start" x="127.12" y="-226.5" font-family="Helvetica,sans-Serif" font-size="10.00">static void main(String</text>
<text text-anchor="start" x="127.12" y="-214.5" font-family="Helvetica,sans-Serif" font-size="10.00">[] args)</text>
<text text-anchor="start" x="118.62" y="-198.5" font-family="Helvetica,sans-Serif" font-size="10.00">&#45;</text>
<text text-anchor="start" x="127.12" y="-198.5" font-family="Helvetica,sans-Serif" font-size="10.00">Task&lt; Void &gt; createSpring</text>
<text text-anchor="start" x="127.12" y="-186.5" font-family="Helvetica,sans-Serif" font-size="10.00">ContextTask()</text>
<text text-anchor="start" x="118.62" y="-170.5" font-family="Helvetica,sans-Serif" font-size="10.00">&#45;</text>
<text text-anchor="start" x="127.12" y="-170.5" font-family="Helvetica,sans-Serif" font-size="10.00">PauseTransition getPause</text>
<text text-anchor="start" x="127.12" y="-158.5" font-family="Helvetica,sans-Serif" font-size="10.00">Transition(String fxmlName,</text>
<text text-anchor="start" x="127.12" y="-146.5" font-family="Helvetica,sans-Serif" font-size="10.00"> long minimumTimelapse)</text>
<text text-anchor="start" x="118.62" y="-130.5" font-family="Helvetica,sans-Serif" font-size="10.00">&#45;</text>
<text text-anchor="start" x="127.12" y="-130.5" font-family="Helvetica,sans-Serif" font-size="10.00">void handleSpringContext</text>
<text text-anchor="start" x="127.12" y="-118.5" font-family="Helvetica,sans-Serif" font-size="10.00">TaskFailed(Throwable throwable)</text>
<text text-anchor="start" x="118.62" y="-102.5" font-family="Helvetica,sans-Serif" font-size="10.00">&#45;</text>
<text text-anchor="start" x="127.12" y="-102.5" font-family="Helvetica,sans-Serif" font-size="10.00">void handleSpringContext</text>
<text text-anchor="start" x="127.12" y="-90.5" font-family="Helvetica,sans-Serif" font-size="10.00">TaskSuccess(long startTime)</text>
<text text-anchor="start" x="118.62" y="-74.5" font-family="Helvetica,sans-Serif" font-size="10.00">&#45;</text>
<text text-anchor="start" x="127.12" y="-74.5" font-family="Helvetica,sans-Serif" font-size="10.00">void initializeFxmlService()</text>
<text text-anchor="start" x="118.62" y="-58.5" font-family="Helvetica,sans-Serif" font-size="10.00">&#45;</text>
<text text-anchor="start" x="127.12" y="-58.5" font-family="Helvetica,sans-Serif" font-size="10.00">static void initScene</text>
<text text-anchor="start" x="127.12" y="-46.5" font-family="Helvetica,sans-Serif" font-size="10.00">(Stage splashScreenStage)</text>
<text text-anchor="start" x="118.62" y="-30.5" font-family="Helvetica,sans-Serif" font-size="10.00">&#45;</text>
<text text-anchor="start" x="127.12" y="-30.5" font-family="Helvetica,sans-Serif" font-size="10.00">static void sqlInvalidAuthorization</text>
<text text-anchor="start" x="127.12" y="-18.5" font-family="Helvetica,sans-Serif" font-size="10.00">(Exception e, SQLInvalidAuthorization</text>
<text text-anchor="start" x="127.12" y="-6.5" font-family="Helvetica,sans-Serif" font-size="10.00">SpecException sqlException)</text>
<polygon fill="#666666" stroke="#666666" points="113.12,-282 113.12,-282 296.88,-282 296.88,-282 113.12,-282"/>
<polygon fill="#666666" stroke="#666666" points="113.12,-266 113.12,-266 296.88,-266 296.88,-266 113.12,-266"/>
<polygon fill="none" stroke="#666666" points="113.12,0 113.12,-300 296.88,-300 296.88,0 113.12,0"/>
</a>
</g>
</g>
<!-- Node2 -->
<g id="Node000002" class="node">
<title>Node2</title>
<g id="a_Node000002"><a xlink:title=" ">
<polygon fill="white" stroke="none" points="56,-442 0,-442 0,-390 56,-390 56,-442"/>
<text text-anchor="start" x="4" y="-428.5" font-family="Helvetica,sans-Serif" font-size="10.00">Application</text>
<text text-anchor="start" x="26.5" y="-412.5" font-family="Helvetica,sans-Serif" font-size="10.00"> </text>
<text text-anchor="start" x="26.5" y="-396.5" font-family="Helvetica,sans-Serif" font-size="10.00"> </text>
<polygon fill="#666666" stroke="#666666" points="0,-424 0,-424 56,-424 56,-424 0,-424"/>
<polygon fill="#666666" stroke="#666666" points="0,-408 0,-408 56,-408 56,-408 0,-408"/>
<polygon fill="none" stroke="#666666" points="0,-390 0,-442 56,-442 56,-390 0,-390"/>
</a>
</g>
</g>
<!-- Node2&#45;&gt;Node1 -->
<g id="edge1_Node000001_Node000002" class="edge">
<title>Node2&#45;&gt;Node1</title>
<g id="a_edge1_Node000001_Node000002"><a xlink:title=" ">
<path fill="none" stroke="#63b8ff" d="M46.33,-380.05C52.07,-369.6 58.58,-358.21 65,-348 79.96,-324.2 96.68,-299.36 113.21,-275.66"/>
<polygon fill="none" stroke="#63b8ff" points="43.28,-378.32 41.6,-388.78 49.44,-381.65 43.28,-378.32"/>
</a>
</g>
</g>
<!-- Node3 -->
<g id="Node000003" class="node">
<title>Node3</title>
<g id="a_Node000003"><a xlink:title=" ">
<polygon fill="white" stroke="none" points="144.12,-442 73.88,-442 73.88,-390 144.12,-390 144.12,-442"/>
<text text-anchor="start" x="77.88" y="-428.5" font-family="Helvetica,sans-Serif" font-size="10.00">SpringContext</text>
<text text-anchor="start" x="107.5" y="-412.5" font-family="Helvetica,sans-Serif" font-size="10.00"> </text>
<text text-anchor="start" x="107.5" y="-396.5" font-family="Helvetica,sans-Serif" font-size="10.00"> </text>
<polygon fill="#666666" stroke="#666666" points="73.88,-424 73.88,-424 144.12,-424 144.12,-424 73.88,-424"/>
<polygon fill="#666666" stroke="#666666" points="73.88,-408 73.88,-408 144.12,-408 144.12,-408 73.88,-408"/>
<polygon fill="none" stroke="#666666" points="73.88,-390 73.88,-442 144.12,-442 144.12,-390 73.88,-390"/>
</a>
</g>
</g>
<!-- Node3&#45;&gt;Node1 -->
<g id="edge2_Node000001_Node000003" class="edge">
<title>Node3&#45;&gt;Node1</title>
<g id="a_edge2_Node000001_Node000003"><a xlink:title=" ">
<path fill="none" stroke="#63b8ff" d="M109.3,-390.2C110.12,-370.3 112.6,-341.86 119.75,-318 120.35,-316 120.97,-314.01 121.61,-312"/>
<polygon fill="none" stroke="#63b8ff" points="121.65,-311.88 119.81,-304.91 125.53,-300.53 127.38,-307.5 121.65,-311.88"/>
</a>
</g>
<text text-anchor="middle" x="138.88" y="-320.5" font-family="Helvetica,sans-Serif" font-size="10.00" fill="grey"> &#45;context</text>
</g>
<!-- Node4 -->
<g id="Node000004" class="node">
<title>Node4</title>
<g id="a_Node000004"><a xlink:title=" ">
<polygon fill="white" stroke="none" points="235.88,-746 200.12,-746 200.12,-694 235.88,-694 235.88,-746"/>
<text text-anchor="start" x="204.12" y="-732.5" font-family="Helvetica,sans-Serif" font-size="10.00">Scene</text>
<text text-anchor="start" x="216.5" y="-716.5" font-family="Helvetica,sans-Serif" font-size="10.00"> </text>
<text text-anchor="start" x="216.5" y="-700.5" font-family="Helvetica,sans-Serif" font-size="10.00"> </text>
<polygon fill="#666666" stroke="#666666" points="200.12,-728 200.12,-728 235.88,-728 235.88,-728 200.12,-728"/>
<polygon fill="#666666" stroke="#666666" points="200.12,-712 200.12,-712 235.88,-712 235.88,-712 200.12,-712"/>
<polygon fill="none" stroke="#666666" points="200.12,-694 200.12,-746 235.88,-746 235.88,-694 200.12,-694"/>
</a>
</g>
</g>
<!-- Node4&#45;&gt;Node1 -->
<g id="edge3_Node000001_Node000004" class="edge">
<title>Node4&#45;&gt;Node1</title>
<g id="a_edge3_Node000001_Node000004"><a xlink:title=" ">
<path fill="none" stroke="#63b8ff" d="M214.18,-694.04C207.84,-651.2 195.4,-560.87 191,-484 187.54,-423.65 188.86,-408.41 191,-348 191.41,-336.55 191.95,-324.73 192.57,-312.84"/>
<polygon fill="none" stroke="#63b8ff" points="192.58,-312.8 188.92,-306.59 193.24,-300.82 196.9,-307.03 192.58,-312.8"/>
</a>
</g>
<text text-anchor="middle" x="209.14" y="-504.5" font-family="Helvetica,sans-Serif" font-size="10.00" fill="grey"> &#45;scene</text>
</g>
<!-- Node7 -->
<g id="Node000007" class="node">
<title>Node7</title>
<g id="a_Node000007"><a xlink:href="classfr_1_1softsf_1_1sudokufx_1_1service_1_1_fxml_service.html" target="_top" xlink:title="FxmlService is a Spring service that manages the loading of FXML files and updating the root of the J...">
<polygon fill="white" stroke="none" points="339.75,-484 200.25,-484 200.25,-348 339.75,-348 339.75,-484"/>
<text text-anchor="start" x="213" y="-470.5" font-family="Helvetica,sans-Serif" font-size="10.00">fr.softsf.sudokufx.service.</text>
<text text-anchor="start" x="242.62" y="-458.5" font-family="Helvetica,sans-Serif" font-size="10.00">FxmlService</text>
<text text-anchor="start" x="268.5" y="-442.5" font-family="Helvetica,sans-Serif" font-size="10.00"> </text>
<text text-anchor="start" x="204.25" y="-426.5" font-family="Helvetica,sans-Serif" font-size="10.00">+</text>
<text text-anchor="start" x="214.25" y="-426.5" font-family="Helvetica,sans-Serif" font-size="10.00">FxmlService(FXMLLoader</text>
<text text-anchor="start" x="214.25" y="-414.5" font-family="Helvetica,sans-Serif" font-size="10.00"> fxmlLoader)</text>
<text text-anchor="start" x="204.25" y="-398.5" font-family="Helvetica,sans-Serif" font-size="10.00">+</text>
<text text-anchor="start" x="214.25" y="-398.5" font-family="Helvetica,sans-Serif" font-size="10.00">void setDynamicFontSize()</text>
<text text-anchor="start" x="204.25" y="-382.5" font-family="Helvetica,sans-Serif" font-size="10.00">+</text>
<text text-anchor="start" x="214.25" y="-382.5" font-family="Helvetica,sans-Serif" font-size="10.00">void setRootByFXMLName</text>
<text text-anchor="start" x="214.25" y="-370.5" font-family="Helvetica,sans-Serif" font-size="10.00">(final String fxml)</text>
<text text-anchor="start" x="204.25" y="-354.5" font-family="Helvetica,sans-Serif" font-size="10.00">~</text>
<text text-anchor="start" x="214.25" y="-354.5" font-family="Helvetica,sans-Serif" font-size="10.00">public&lt; T &gt; T getController()</text>
<polygon fill="#666666" stroke="#666666" points="200.25,-454 200.25,-454 339.75,-454 339.75,-454 200.25,-454"/>
<polygon fill="#666666" stroke="#666666" points="200.25,-438 200.25,-438 339.75,-438 339.75,-438 200.25,-438"/>
<polygon fill="none" stroke="#666666" points="200.25,-348 200.25,-484 339.75,-484 339.75,-348 200.25,-348"/>
</a>
</g>
</g>
<!-- Node4&#45;&gt;Node7 -->
<g id="edge8_Node000007_Node000004" class="edge">
<title>Node4&#45;&gt;Node7</title>
<g id="a_edge8_Node000007_Node000004"><a xlink:title=" ">
<path fill="none" stroke="#63b8ff" d="M216.95,-694.2C215.96,-658.1 216.04,-589.17 227.75,-532 230.17,-520.17 233.6,-507.93 237.47,-496.04"/>
<polygon fill="none" stroke="#63b8ff" points="237.47,-496.03 235.62,-489.06 241.34,-484.67 243.19,-491.64 237.47,-496.03"/>
</a>
</g>
<text text-anchor="middle" x="243.88" y="-582.5" font-family="Helvetica,sans-Serif" font-size="10.00" fill="grey"> &#45;scene</text>
</g>
<!-- Node10 -->
<g id="Node000010" class="node">
<title>Node10</title>
<g id="a_Node000010"><a xlink:href="classfr_1_1softsf_1_1sudokufx_1_1utils_1_1_dynamic_font_size.html" target="_top" xlink:title="Manages dynamic font sizing based on the dimensions of a JavaFX Scene.">
<polygon fill="white" stroke="none" points="395.38,-640 268.62,-640 268.62,-532 395.38,-532 395.38,-640"/>
<text text-anchor="start" x="281.75" y="-626.5" font-family="Helvetica,sans-Serif" font-size="10.00">fr.softsf.sudokufx.utils.</text>
<text text-anchor="start" x="293" y="-614.5" font-family="Helvetica,sans-Serif" font-size="10.00">DynamicFontSize</text>
<text text-anchor="start" x="274.12" y="-598.5" font-family="Helvetica,sans-Serif" font-size="10.00">&#45;</text>
<text text-anchor="start" x="282.62" y="-598.5" font-family="Helvetica,sans-Serif" font-size="10.00">double currentFontSize</text>
<text text-anchor="start" x="272.62" y="-582.5" font-family="Helvetica,sans-Serif" font-size="10.00">+</text>
<text text-anchor="start" x="282.62" y="-582.5" font-family="Helvetica,sans-Serif" font-size="10.00">DynamicFontSize()</text>
<text text-anchor="start" x="272.62" y="-566.5" font-family="Helvetica,sans-Serif" font-size="10.00">+</text>
<text text-anchor="start" x="282.62" y="-566.5" font-family="Helvetica,sans-Serif" font-size="10.00">void updateFontSize()</text>
<text text-anchor="start" x="272.62" y="-550.5" font-family="Helvetica,sans-Serif" font-size="10.00">~</text>
<text text-anchor="start" x="282.62" y="-550.5" font-family="Helvetica,sans-Serif" font-size="10.00">DynamicFontSize(Scene</text>
<text text-anchor="start" x="282.62" y="-538.5" font-family="Helvetica,sans-Serif" font-size="10.00"> scene)</text>
<polygon fill="#666666" stroke="#666666" points="268.62,-610 268.62,-610 395.38,-610 395.38,-610 268.62,-610"/>
<polygon fill="#666666" stroke="#666666" points="268.62,-594 268.62,-594 280.62,-594 280.62,-594 268.62,-594"/>
<polygon fill="#666666" stroke="#666666" points="280.62,-594 280.62,-594 395.38,-594 395.38,-594 280.62,-594"/>
<polygon fill="none" stroke="#666666" points="268.62,-532 268.62,-640 395.38,-640 395.38,-532 268.62,-532"/>
</a>
</g>
</g>
<!-- Node4&#45;&gt;Node10 -->
<g id="edge12_Node000010_Node000004" class="edge">
<title>Node4&#45;&gt;Node10</title>
<g id="a_edge12_Node000010_Node000004"><a xlink:title=" ">
<path fill="none" stroke="#63b8ff" d="M235.81,-698.38C247.23,-685.16 262.7,-667.24 277.9,-649.64"/>
<polygon fill="none" stroke="#63b8ff" points="277.86,-649.69 278.75,-642.54 285.7,-640.61 284.81,-647.77 277.86,-649.69"/>
</a>
</g>
<text text-anchor="middle" x="284.3" y="-660.5" font-family="Helvetica,sans-Serif" font-size="10.00" fill="grey"> &#45;scene</text>
</g>
<!-- Node5 -->
<g id="Node000005" class="node">
<title>Node5</title>
<g id="a_Node000005"><a xlink:href="interfacefr_1_1softsf_1_1sudokufx_1_1interfaces_1_1_i_splash_screen_view.html" target="_top" xlink:title="Interface defining methods to hide or show the splash screen.">
<polygon fill="white" stroke="none" points="490.62,-456 357.38,-456 357.38,-376 490.62,-376 490.62,-456"/>
<text text-anchor="start" x="361.38" y="-442.5" font-family="Helvetica,sans-Serif" font-size="10.00">fr.softsf.sudokufx.interfaces.</text>
<text text-anchor="start" x="381.25" y="-430.5" font-family="Helvetica,sans-Serif" font-size="10.00">ISplashScreenView</text>
<text text-anchor="start" x="422.5" y="-414.5" font-family="Helvetica,sans-Serif" font-size="10.00"> </text>
<text text-anchor="start" x="362.44" y="-398.5" font-family="Helvetica,sans-Serif" font-size="10.00">+</text>
<text text-anchor="start" x="373.5" y="-398.5" font-family="Helvetica,sans-Serif" font-size="10.00">void hideSplashScreen()</text>
<text text-anchor="start" x="362.44" y="-382.5" font-family="Helvetica,sans-Serif" font-size="10.00">+</text>
<text text-anchor="start" x="373.5" y="-382.5" font-family="Helvetica,sans-Serif" font-size="10.00">void showSplashScreen()</text>
<polygon fill="#666666" stroke="#666666" points="357.38,-426 357.38,-426 490.62,-426 490.62,-426 357.38,-426"/>
<polygon fill="#666666" stroke="#666666" points="357.38,-410 357.38,-410 490.62,-410 490.62,-410 357.38,-410"/>
<polygon fill="none" stroke="#666666" points="357.38,-376 357.38,-456 490.62,-456 490.62,-376 357.38,-376"/>
</a>
</g>
</g>
<!-- Node5&#45;&gt;Node1 -->
<g id="edge4_Node000001_Node000005" class="edge">
<title>Node5&#45;&gt;Node1</title>
<g id="a_edge4_Node000001_Node000005"><a xlink:title=" ">
<path fill="none" stroke="#63b8ff" d="M391.69,-376.05C368.54,-348.15 336.04,-308.96 304.63,-271.1"/>
<polygon fill="none" stroke="#63b8ff" points="304.91,-271.44 298,-269.37 297.25,-262.2 304.16,-264.27 304.91,-271.44"/>
</a>
</g>
<text text-anchor="middle" x="397.79" y="-320.5" font-family="Helvetica,sans-Serif" font-size="10.00" fill="grey"> &#45;isplashScreenView</text>
</g>
<!-- Node6 -->
<g id="Node000006" class="node">
<title>Node6</title>
<g id="a_Node000006"><a xlink:href="interfacefr_1_1softsf_1_1sudokufx_1_1interfaces_1_1_i_main_stage_view.html" target="_top" xlink:title="Interface defining method to open the main stage.">
<polygon fill="white" stroke="none" points="681.25,-460 508.75,-460 508.75,-372 681.25,-372 681.25,-460"/>
<text text-anchor="start" x="532.38" y="-446.5" font-family="Helvetica,sans-Serif" font-size="10.00">fr.softsf.sudokufx.interfaces.</text>
<text text-anchor="start" x="559.38" y="-434.5" font-family="Helvetica,sans-Serif" font-size="10.00">IMainStageView</text>
<text text-anchor="start" x="593.5" y="-418.5" font-family="Helvetica,sans-Serif" font-size="10.00"> </text>
<text text-anchor="start" x="512.75" y="-402.5" font-family="Helvetica,sans-Serif" font-size="10.00">+</text>
<text text-anchor="start" x="522.75" y="-402.5" font-family="Helvetica,sans-Serif" font-size="10.00">void openingMainStage</text>
<text text-anchor="start" x="522.75" y="-390.5" font-family="Helvetica,sans-Serif" font-size="10.00">(ISplashScreenView iSplashScreen</text>
<text text-anchor="start" x="522.75" y="-378.5" font-family="Helvetica,sans-Serif" font-size="10.00">View)</text>
<polygon fill="#666666" stroke="#666666" points="508.75,-430 508.75,-430 681.25,-430 681.25,-430 508.75,-430"/>
<polygon fill="#666666" stroke="#666666" points="508.75,-414 508.75,-414 681.25,-414 681.25,-414 508.75,-414"/>
<polygon fill="none" stroke="#666666" points="508.75,-372 508.75,-460 681.25,-460 681.25,-372 508.75,-372"/>
</a>
</g>
</g>
<!-- Node6&#45;&gt;Node1 -->
<g id="edge5_Node000001_Node000006" class="edge">
<title>Node6&#45;&gt;Node1</title>
<g id="a_edge5_Node000001_Node000006"><a xlink:title=" ">
<path fill="none" stroke="#63b8ff" d="M534.6,-372.06C523.15,-364.01 511.23,-355.71 500,-348 436.44,-304.37 364.5,-256.31 307.58,-218.58"/>
<polygon fill="none" stroke="#63b8ff" points="307.52,-218.54 300.31,-218.56 297.52,-211.91 304.73,-211.89 307.52,-218.54"/>
</a>
</g>
<text text-anchor="middle" x="506.48" y="-320.5" font-family="Helvetica,sans-Serif" font-size="10.00" fill="grey"> &#45;iMainStageView</text>
</g>
<!-- Node7&#45;&gt;Node1 -->
<g id="edge6_Node000001_Node000007" class="edge">
<title>Node7&#45;&gt;Node1</title>
<g id="a_edge6_Node000001_Node000007"><a xlink:title=" ">
<path fill="none" stroke="#63b8ff" d="M253.51,-348.04C250.75,-336.81 247.78,-324.75 244.72,-312.32"/>
<polygon fill="none" stroke="#63b8ff" points="244.72,-312.31 239.4,-307.44 241.85,-300.66 247.17,-305.53 244.72,-312.31"/>
</a>
</g>
<text text-anchor="middle" x="277.85" y="-320.5" font-family="Helvetica,sans-Serif" font-size="10.00" fill="grey"> &#45;fxmlService</text>
</g>
<!-- Node8 -->
<g id="Node000008" class="node">
<title>Node8</title>
<g id="a_Node000008"><a xlink:href="interfacefr_1_1softsf_1_1sudokufx_1_1interfaces_1_1_i_scene_provider.html" target="_top" xlink:title="Interface ISceneProvider.">
<polygon fill="white" stroke="none" points="466.62,-752 333.38,-752 333.38,-688 466.62,-688 466.62,-752"/>
<text text-anchor="start" x="337.38" y="-738.5" font-family="Helvetica,sans-Serif" font-size="10.00">fr.softsf.sudokufx.interfaces.</text>
<text text-anchor="start" x="366.62" y="-726.5" font-family="Helvetica,sans-Serif" font-size="10.00">ISceneProvider</text>
<text text-anchor="start" x="398.5" y="-710.5" font-family="Helvetica,sans-Serif" font-size="10.00"> </text>
<text text-anchor="start" x="338.62" y="-694.5" font-family="Helvetica,sans-Serif" font-size="10.00">+</text>
<text text-anchor="start" x="349.88" y="-694.5" font-family="Helvetica,sans-Serif" font-size="10.00">default Scene getScene()</text>
<polygon fill="#666666" stroke="#666666" points="333.38,-722 333.38,-722 466.62,-722 466.62,-722 333.38,-722"/>
<polygon fill="#666666" stroke="#666666" points="333.38,-706 333.38,-706 466.62,-706 466.62,-706 333.38,-706"/>
<polygon fill="none" stroke="#666666" points="333.38,-688 333.38,-752 466.62,-752 466.62,-688 333.38,-688"/>
</a>
</g>
</g>
<!-- Node8&#45;&gt;Node7 -->
<g id="edge7_Node000007_Node000008" class="edge">
<title>Node8&#45;&gt;Node7</title>
<g id="a_edge7_Node000007_Node000008"><a xlink:title=" ">
<path fill="none" stroke="#63b8ff" d="M406.55,-676.89C411.18,-638.62 414.84,-580.84 404,-532 400.81,-517.64 400.57,-512.24 390,-502 375.41,-487.87 365.24,-494.74 348,-484 345.12,-482.21 342.24,-480.31 339.37,-478.34"/>
<polygon fill="none" stroke="#63b8ff" points="403.11,-676.25 405.29,-686.61 410.05,-677.15 403.11,-676.25"/>
</a>
</g>
</g>
<!-- Node8&#45;&gt;Node10 -->
<g id="edge11_Node000010_Node000008" class="edge">
<title>Node8&#45;&gt;Node10</title>
<g id="a_edge11_Node000010_Node000008"><a xlink:title=" ">
<path fill="none" stroke="#63b8ff" d="M378.82,-677.89C372.64,-665.88 365.79,-652.6 359.29,-639.97"/>
<polygon fill="none" stroke="#63b8ff" points="375.67,-679.42 383.36,-686.71 381.9,-676.21 375.67,-679.42"/>
</a>
</g>
</g>
<!-- Node9 -->
<g id="Node000009" class="node">
<title>Node9</title>
<g id="a_Node000009"><a xlink:title=" ">
<polygon fill="white" stroke="none" points="514.75,-612 451.25,-612 451.25,-560 514.75,-560 514.75,-612"/>
<text text-anchor="start" x="455.25" y="-598.5" font-family="Helvetica,sans-Serif" font-size="10.00">FXMLLoader</text>
<text text-anchor="start" x="481.5" y="-582.5" font-family="Helvetica,sans-Serif" font-size="10.00"> </text>
<text text-anchor="start" x="481.5" y="-566.5" font-family="Helvetica,sans-Serif" font-size="10.00"> </text>
<polygon fill="#666666" stroke="#666666" points="451.25,-594 451.25,-594 514.75,-594 514.75,-594 451.25,-594"/>
<polygon fill="#666666" stroke="#666666" points="451.25,-578 451.25,-578 514.75,-578 514.75,-578 451.25,-578"/>
<polygon fill="none" stroke="#666666" points="451.25,-560 451.25,-612 514.75,-612 514.75,-560 451.25,-560"/>
</a>
</g>
</g>
<!-- Node9&#45;&gt;Node7 -->
<g id="edge9_Node000007_Node000009" class="edge">
<title>Node9&#45;&gt;Node7</title>
<g id="a_edge9_Node000007_Node000009"><a xlink:title=" ">
<path fill="none" stroke="#63b8ff" d="M475.57,-560.07C468.64,-541.21 456.41,-516.21 437,-502 407.49,-480.39 388.15,-497.72 351.4,-484.54"/>
<polygon fill="none" stroke="#63b8ff" points="351.27,-484.48 344.18,-485.79 340.24,-479.75 347.33,-478.44 351.27,-484.48"/>
</a>
</g>
<text text-anchor="middle" x="475.31" y="-504.5" font-family="Helvetica,sans-Serif" font-size="10.00" fill="grey"> &#45;fxmlLoader</text>
</g>
<!-- Node10&#45;&gt;Node7 -->
<g id="edge10_Node000007_Node000010" class="edge">
<title>Node10&#45;&gt;Node7</title>
<g id="a_edge10_Node000007_Node000010"><a xlink:title=" ">
<path fill="none" stroke="#63b8ff" d="M312.55,-532.3C308.29,-520.76 303.69,-508.29 299.14,-495.97"/>
<polygon fill="none" stroke="#63b8ff" points="299.09,-495.83 293.26,-491.59 294.94,-484.58 300.77,-488.82 299.09,-495.83"/>
</a>
</g>
<text text-anchor="middle" x="345.59" y="-504.5" font-family="Helvetica,sans-Serif" font-size="10.00" fill="grey"> &#45;dynamicFontSize</text>
</g>
</g>
</svg>
