<?xml version="1.0" encoding="UTF-8" standalone="no"?>
<!DOCTYPE svg PUBLIC "-//W3C//DTD SVG 1.1//EN"
 "http://www.w3.org/Graphics/SVG/1.1/DTD/svg11.dtd">
<!-- Generated by graphviz version 12.2.0 (20241103.1931)
 -->
<!-- Title: fr.softsf.sudofx2024.utils.DynamicFontSize Pages: 1 -->
<svg width="127pt" height="200pt"
 viewBox="0.00 0.00 127.00 200.00" xmlns="http://www.w3.org/2000/svg" xmlns:xlink="http://www.w3.org/1999/xlink">

<svg id="main" version="1.1" xmlns="http://www.w3.org/2000/svg" xmlns:xlink="http://www.w3.org/1999/xlink" xml:space="preserve">

<style type="text/css"><![CDATA[
.node, .edge {opacity: 0.7;}
.node.selected, .edge.selected {opacity: 1;}
.edge:hover path { stroke: red; }
.edge:hover polygon { stroke: red; fill: red; }
]]></style>
<script type="application/ecmascript" xlink:href="svg.min.js"/>
<svg id="graph" class="graph">
<g id="graph0" class="graph" transform="scale(1 1) rotate(0) translate(4 196)">
<title>fr.softsf.sudofx2024.utils.DynamicFontSize</title>
<!-- Node1 -->
<g id="Node000001" class="node">
<title>Node1</title>
<g id="a_Node000001"><a xlink:title="Manages dynamic font sizing based on the dimensions of a JavaFX Scene.">
<polygon fill="#999999" stroke="none" points="119,-92 0,-92 0,0 119,0 119,-92"/>
<text text-anchor="start" x="4" y="-78.5" font-family="Helvetica,sans-Serif" font-size="10.00">fr.softsf.sudofx2024.utils.</text>
<text text-anchor="start" x="20.5" y="-66.5" font-family="Helvetica,sans-Serif" font-size="10.00">DynamicFontSize</text>
<text text-anchor="start" x="5.62" y="-50.5" font-family="Helvetica,sans-Serif" font-size="10.00">&#45;</text>
<text text-anchor="start" x="14.25" y="-50.5" font-family="Helvetica,sans-Serif" font-size="10.00">double currentFontSize</text>
<text text-anchor="start" x="4.12" y="-34.5" font-family="Helvetica,sans-Serif" font-size="10.00">+</text>
<text text-anchor="start" x="14.25" y="-34.5" font-family="Helvetica,sans-Serif" font-size="10.00">DynamicFontSize(final</text>
<text text-anchor="start" x="14.25" y="-22.5" font-family="Helvetica,sans-Serif" font-size="10.00"> Scene theScene)</text>
<text text-anchor="start" x="4.12" y="-6.5" font-family="Helvetica,sans-Serif" font-size="10.00">+</text>
<text text-anchor="start" x="14.25" y="-6.5" font-family="Helvetica,sans-Serif" font-size="10.00">void updateFontSize()</text>
<polygon fill="#666666" stroke="#666666" points="0,-62 0,-62 119,-62 119,-62 0,-62"/>
<polygon fill="#666666" stroke="#666666" points="0,-46 0,-46 12.25,-46 12.25,-46 0,-46"/>
<polygon fill="#666666" stroke="#666666" points="12.25,-46 12.25,-46 119,-46 119,-46 12.25,-46"/>
<polygon fill="none" stroke="#666666" points="0,0 0,-92 119,-92 119,0 0,0"/>
</a>
</g>
</g>
<!-- Node2 -->
<g id="Node000002" class="node">
<title>Node2</title>
<g id="a_Node000002"><a xlink:title=" ">
<polygon fill="white" stroke="none" points="77.38,-192 41.62,-192 41.62,-140 77.38,-140 77.38,-192"/>
<text text-anchor="start" x="45.62" y="-178.5" font-family="Helvetica,sans-Serif" font-size="10.00">Scene</text>
<text text-anchor="start" x="58" y="-162.5" font-family="Helvetica,sans-Serif" font-size="10.00"> </text>
<text text-anchor="start" x="58" y="-146.5" font-family="Helvetica,sans-Serif" font-size="10.00"> </text>
<polygon fill="#666666" stroke="#666666" points="41.62,-174 41.62,-174 77.38,-174 77.38,-174 41.62,-174"/>
<polygon fill="#666666" stroke="#666666" points="41.62,-158 41.62,-158 77.38,-158 77.38,-158 41.62,-158"/>
<polygon fill="none" stroke="#666666" points="41.62,-140 41.62,-192 77.38,-192 77.38,-140 41.62,-140"/>
</a>
</g>
</g>
<!-- Node2&#45;&gt;Node1 -->
<g id="edge1_Node000001_Node000002" class="edge">
<title>Node2&#45;&gt;Node1</title>
<g id="a_edge1_Node000001_Node000002"><a xlink:title=" ">
<path fill="none" stroke="#63b8ff" d="M59.5,-140.26C59.5,-129.83 59.5,-117.21 59.5,-104.67"/>
<polygon fill="none" stroke="#63b8ff" points="59.5,-104.63 55.5,-98.63 59.5,-92.63 63.5,-98.63 59.5,-104.63"/>
</a>
</g>
<text text-anchor="middle" x="75.62" y="-112.5" font-family="Helvetica,sans-Serif" font-size="10.00" fill="grey"> &#45;scene</text>
</g>
</g>
</svg>
</svg>

<style type='text/css'>
<![CDATA[
[data-mouse-over-selected='false'] { opacity: 0.7; }
[data-mouse-over-selected='true']  { opacity: 1.0; }
]]>
</style>
<script type="application/ecmascript"><![CDATA[
document.addEventListener('DOMContentLoaded', (event) => {
  highlightEdges();
  highlightAdjacentNodes();
});
]]></script>
</svg>
