<?xml version="1.0" encoding="UTF-8" standalone="no"?>
<!DOCTYPE svg PUBLIC "-//W3C//DTD SVG 1.1//EN"
 "http://www.w3.org/Graphics/SVG/1.1/DTD/svg11.dtd">
<!-- Generated by graphviz version 12.2.1 (20241206.2353)
 -->
<!-- Title: fr.softsf.sudokufx.model.Game Pages: 1 -->
<!--zoomable 488 -->

<svg id="main" version="1.1" xmlns="http://www.w3.org/2000/svg" xmlns:xlink="http://www.w3.org/1999/xlink" xml:space="preserve" onload="init(evt)">

<style type="text/css"><![CDATA[
.node, .edge {opacity: 0.7;}
.node.selected, .edge.selected {opacity: 1;}
.edge:hover path { stroke: red; }
.edge:hover polygon { stroke: red; fill: red; }
]]></style>

<defs>
  <circle id="rim" cx="0" cy="0" r="7"/>
  <circle id="rim2" cx="0" cy="0" r="3.5"/>
  <g id="zoomPlus">
    <use xlink:href="#rim" fill="#404040"><set attributeName="fill" to="#808080" begin="zoomplus.mouseover" end="zoomplus.mouseout"/></use>
    <path d="M-4,0h8M0,-4v8" fill="none" stroke="white" stroke-width="1.5" pointer-events="none"/>
  </g>
  <g id="zoomMin">
    <use xlink:href="#rim" fill="#404040"><set attributeName="fill" to="#808080" begin="zoomminus.mouseover" end="zoomminus.mouseout"/></use>
    <path d="M-4,0h8" fill="none" stroke="white" stroke-width="1.5" pointer-events="none"/>
  </g>
  <g id="arrowUp" transform="translate(30 24)">
    <use xlink:href="#rim"/>
    <path pointer-events="none" fill="none" stroke="white" stroke-width="1.5" d="M0,-3.0v7 M-2.5,-0.5L0,-3.0L2.5,-0.5"/>
  </g>
  <g id="arrowRight" transform="rotate(90) translate(36 -43)">
    <use xlink:href="#rim"/>
    <path pointer-events="none" fill="none" stroke="white" stroke-width="1.5" d="M0,-3.0v7 M-2.5,-0.5L0,-3.0L2.5,-0.5"/>
  </g>
  <g id="arrowDown" transform="rotate(180) translate(-30 -48)">
    <use xlink:href="#rim"/>
    <path pointer-events="none" fill="none" stroke="white" stroke-width="1.5" d="M0,-3.0v7 M-2.5,-0.5L0,-3.0L2.5,-0.5"/>
  </g>
  <g id="arrowLeft" transform="rotate(270) translate(-36 17)">
    <use xlink:href="#rim"/>
    <path pointer-events="none" fill="none" stroke="white" stroke-width="1.5" d="M0,-3.0v7 M-2.5,-0.5L0,-3.0L2.5,-0.5"/>
  </g>
  <g id="resetDef">
    <use xlink:href="#rim2" fill="#404040"><set attributeName="fill" to="#808080" begin="reset.mouseover" end="reset.mouseout"/></use>
  </g>
</defs>
<script type="application/ecmascript">
var viewWidth = 449;
var viewHeight = 488;
var sectionId = 'dynsection-0';
</script>
<script type="application/ecmascript" xlink:href="svg.min.js"/>
<svg id="graph" class="graph">
<g id="viewport">
<title>fr.softsf.sudokufx.model.Game</title>
<!-- Node1 -->
<g id="Node000001" class="node">
<title>Node1</title>
<g id="a_Node000001"><a xlink:title=" ">
<polygon fill="#999999" stroke="none" points="294.88,-100 151.88,-100 151.88,0 294.88,0 294.88,-100"/>
<text text-anchor="start" x="155.88" y="-86.5" font-family="Helvetica,sans-Serif" font-size="10.00">fr.softsf.sudokufx.model.Game</text>
<text text-anchor="start" x="159.94" y="-70.5" font-family="Helvetica,sans-Serif" font-size="10.00">&#45;</text>
<text text-anchor="start" x="171" y="-70.5" font-family="Helvetica,sans-Serif" font-size="10.00">LocalDateTime createdat</text>
<text text-anchor="start" x="159.94" y="-54.5" font-family="Helvetica,sans-Serif" font-size="10.00">&#45;</text>
<text text-anchor="start" x="171" y="-54.5" font-family="Helvetica,sans-Serif" font-size="10.00">Long gameid</text>
<text text-anchor="start" x="159.94" y="-38.5" font-family="Helvetica,sans-Serif" font-size="10.00">&#45;</text>
<text text-anchor="start" x="171" y="-38.5" font-family="Helvetica,sans-Serif" font-size="10.00">boolean isselected</text>
<text text-anchor="start" x="159.94" y="-22.5" font-family="Helvetica,sans-Serif" font-size="10.00">&#45;</text>
<text text-anchor="start" x="171" y="-22.5" font-family="Helvetica,sans-Serif" font-size="10.00">LocalDateTime updatedat</text>
<text text-anchor="start" x="221.88" y="-6.5" font-family="Helvetica,sans-Serif" font-size="10.00"> </text>
<polygon fill="#666666" stroke="#666666" points="151.88,-82 151.88,-82 294.88,-82 294.88,-82 151.88,-82"/>
<polygon fill="#666666" stroke="#666666" points="151.88,-18 151.88,-18 169,-18 169,-18 151.88,-18"/>
<polygon fill="#666666" stroke="#666666" points="169,-18 169,-18 294.88,-18 294.88,-18 169,-18"/>
<polygon fill="none" stroke="#666666" points="151.88,0 151.88,-100 294.88,-100 294.88,0 151.88,0"/>
</a>
</g>
</g>
<!-- Node2 -->
<g id="Node000002" class="node">
<title>Node2</title>
<g id="a_Node000002"><a xlink:href="classfr_1_1softsf_1_1sudokufx_1_1model_1_1_grid.html" target="_top" xlink:title=" ">
<polygon fill="white" stroke="none" points="134.75,-284 0,-284 0,-184 134.75,-184 134.75,-284"/>
<text text-anchor="start" x="4" y="-270.5" font-family="Helvetica,sans-Serif" font-size="10.00">fr.softsf.sudokufx.model.Grid</text>
<text text-anchor="start" x="9.75" y="-254.5" font-family="Helvetica,sans-Serif" font-size="10.00">&#45;</text>
<text text-anchor="start" x="22.5" y="-254.5" font-family="Helvetica,sans-Serif" font-size="10.00">String defaultgridvalue</text>
<text text-anchor="start" x="9.75" y="-238.5" font-family="Helvetica,sans-Serif" font-size="10.00">&#45;</text>
<text text-anchor="start" x="22.5" y="-238.5" font-family="Helvetica,sans-Serif" font-size="10.00">Long gridid</text>
<text text-anchor="start" x="9.75" y="-222.5" font-family="Helvetica,sans-Serif" font-size="10.00">&#45;</text>
<text text-anchor="start" x="22.5" y="-222.5" font-family="Helvetica,sans-Serif" font-size="10.00">String gridvalue</text>
<text text-anchor="start" x="9.75" y="-206.5" font-family="Helvetica,sans-Serif" font-size="10.00">&#45;</text>
<text text-anchor="start" x="22.5" y="-206.5" font-family="Helvetica,sans-Serif" font-size="10.00">Byte possibilities</text>
<text text-anchor="start" x="65.88" y="-190.5" font-family="Helvetica,sans-Serif" font-size="10.00"> </text>
<polygon fill="#666666" stroke="#666666" points="0,-266 0,-266 134.75,-266 134.75,-266 0,-266"/>
<polygon fill="#666666" stroke="#666666" points="0,-202 0,-202 20.5,-202 20.5,-202 0,-202"/>
<polygon fill="#666666" stroke="#666666" points="20.5,-202 20.5,-202 134.75,-202 134.75,-202 20.5,-202"/>
<polygon fill="none" stroke="#666666" points="0,-184 0,-284 134.75,-284 134.75,-184 0,-184"/>
</a>
</g>
</g>
<!-- Node2&#45;&gt;Node1 -->
<g id="edge1_Node000001_Node000002" class="edge">
<title>Node2&#45;&gt;Node1</title>
<g id="a_edge1_Node000001_Node000002"><a xlink:title=" ">
<path fill="none" stroke="#63b8ff" d="M109.18,-184.23C128.85,-161.28 152.47,-133.72 173.11,-109.64"/>
<polygon fill="none" stroke="#63b8ff" points="173.06,-109.7 173.93,-102.54 180.87,-100.59 180,-107.75 173.06,-109.7"/>
</a>
</g>
<text text-anchor="middle" x="178.56" y="-120.5" font-family="Helvetica,sans-Serif" font-size="10.00" fill="grey"> &#45;gridid</text>
</g>
<!-- Node3 -->
<g id="Node000003" class="node">
<title>Node3</title>
<g id="a_Node000003"><a xlink:href="classfr_1_1softsf_1_1sudokufx_1_1model_1_1_player.html" target="_top" xlink:title=" ">
<polygon fill="white" stroke="none" points="293.5,-320 153.25,-320 153.25,-148 293.5,-148 293.5,-320"/>
<text text-anchor="start" x="169" y="-306.5" font-family="Helvetica,sans-Serif" font-size="10.00">fr.softsf.sudokufx.model.</text>
<text text-anchor="start" x="209.5" y="-294.5" font-family="Helvetica,sans-Serif" font-size="10.00">Player</text>
<text text-anchor="start" x="158.75" y="-278.5" font-family="Helvetica,sans-Serif" font-size="10.00">&#45;</text>
<text text-anchor="start" x="167.25" y="-278.5" font-family="Helvetica,sans-Serif" font-size="10.00">LocalDateTime createdat</text>
<text text-anchor="start" x="158.75" y="-262.5" font-family="Helvetica,sans-Serif" font-size="10.00">&#45;</text>
<text text-anchor="start" x="167.25" y="-262.5" font-family="Helvetica,sans-Serif" font-size="10.00">Set&lt; Game &gt; games</text>
<text text-anchor="start" x="158.75" y="-246.5" font-family="Helvetica,sans-Serif" font-size="10.00">&#45;</text>
<text text-anchor="start" x="167.25" y="-246.5" font-family="Helvetica,sans-Serif" font-size="10.00">boolean isselected</text>
<text text-anchor="start" x="158.75" y="-230.5" font-family="Helvetica,sans-Serif" font-size="10.00">&#45;</text>
<text text-anchor="start" x="167.25" y="-230.5" font-family="Helvetica,sans-Serif" font-size="10.00">String name</text>
<text text-anchor="start" x="158.75" y="-214.5" font-family="Helvetica,sans-Serif" font-size="10.00">&#45;</text>
<text text-anchor="start" x="167.25" y="-214.5" font-family="Helvetica,sans-Serif" font-size="10.00">Long playerid</text>
<text text-anchor="start" x="158.75" y="-198.5" font-family="Helvetica,sans-Serif" font-size="10.00">&#45;</text>
<text text-anchor="start" x="167.25" y="-198.5" font-family="Helvetica,sans-Serif" font-size="10.00">LocalDateTime updatedat</text>
<text text-anchor="start" x="157.25" y="-182.5" font-family="Helvetica,sans-Serif" font-size="10.00">+</text>
<text text-anchor="start" x="167.25" y="-182.5" font-family="Helvetica,sans-Serif" font-size="10.00">void addGame(Game game)</text>
<text text-anchor="start" x="157.25" y="-166.5" font-family="Helvetica,sans-Serif" font-size="10.00">+</text>
<text text-anchor="start" x="167.25" y="-166.5" font-family="Helvetica,sans-Serif" font-size="10.00">void removeGame(Game</text>
<text text-anchor="start" x="167.25" y="-154.5" font-family="Helvetica,sans-Serif" font-size="10.00"> game)</text>
<polygon fill="#666666" stroke="#666666" points="153.25,-290 153.25,-290 293.5,-290 293.5,-290 153.25,-290"/>
<polygon fill="#666666" stroke="#666666" points="153.25,-194 153.25,-194 165.25,-194 165.25,-194 153.25,-194"/>
<polygon fill="#666666" stroke="#666666" points="165.25,-194 165.25,-194 293.5,-194 293.5,-194 165.25,-194"/>
<polygon fill="none" stroke="#666666" points="153.25,-148 153.25,-320 293.5,-320 293.5,-148 153.25,-148"/>
</a>
</g>
</g>
<!-- Node3&#45;&gt;Node1 -->
<g id="edge2_Node000001_Node000003" class="edge">
<title>Node3&#45;&gt;Node1</title>
<g id="a_edge2_Node000001_Node000003"><a xlink:title=" ">
<path fill="none" stroke="#63b8ff" d="M223.38,-148.13C223.38,-136.01 223.38,-123.74 223.38,-112.2"/>
<polygon fill="none" stroke="#63b8ff" points="223.38,-112.41 219.38,-106.41 223.38,-100.41 227.38,-106.41 223.38,-112.41"/>
</a>
</g>
<text text-anchor="middle" x="243.25" y="-120.5" font-family="Helvetica,sans-Serif" font-size="10.00" fill="grey"> &#45;playerid</text>
</g>
<!-- Node4 -->
<g id="Node000004" class="node">
<title>Node4</title>
<g id="a_Node000004"><a xlink:href="classfr_1_1softsf_1_1sudokufx_1_1model_1_1_player_language.html" target="_top" xlink:title=" ">
<polygon fill="white" stroke="none" points="146.75,-464 30,-464 30,-384 146.75,-384 146.75,-464"/>
<text text-anchor="start" x="34" y="-450.5" font-family="Helvetica,sans-Serif" font-size="10.00">fr.softsf.sudokufx.model.</text>
<text text-anchor="start" x="53.5" y="-438.5" font-family="Helvetica,sans-Serif" font-size="10.00">PlayerLanguage</text>
<text text-anchor="start" x="35.25" y="-422.5" font-family="Helvetica,sans-Serif" font-size="10.00">&#45;</text>
<text text-anchor="start" x="43.5" y="-422.5" font-family="Helvetica,sans-Serif" font-size="10.00">String iso</text>
<text text-anchor="start" x="35.25" y="-406.5" font-family="Helvetica,sans-Serif" font-size="10.00">&#45;</text>
<text text-anchor="start" x="43.5" y="-406.5" font-family="Helvetica,sans-Serif" font-size="10.00">Long playerlanguageid</text>
<text text-anchor="start" x="86.88" y="-390.5" font-family="Helvetica,sans-Serif" font-size="10.00"> </text>
<polygon fill="#666666" stroke="#666666" points="30,-434 30,-434 146.75,-434 146.75,-434 30,-434"/>
<polygon fill="#666666" stroke="#666666" points="30,-402 30,-402 41.5,-402 41.5,-402 30,-402"/>
<polygon fill="#666666" stroke="#666666" points="41.5,-402 41.5,-402 146.75,-402 146.75,-402 41.5,-402"/>
<polygon fill="none" stroke="#666666" points="30,-384 30,-464 146.75,-464 146.75,-384 30,-384"/>
</a>
</g>
</g>
<!-- Node4&#45;&gt;Node3 -->
<g id="edge3_Node000003_Node000004" class="edge">
<title>Node4&#45;&gt;Node3</title>
<g id="a_edge3_Node000003_Node000004"><a xlink:title=" ">
<path fill="none" stroke="#63b8ff" d="M110.78,-384.26C119.68,-369.51 130.25,-352.72 140.62,-338 142.48,-335.38 144.37,-332.73 146.3,-330.07"/>
<polygon fill="none" stroke="#63b8ff" points="146.23,-330.17 146.58,-322.97 153.36,-320.52 153.01,-327.72 146.23,-330.17"/>
</a>
</g>
<text text-anchor="middle" x="180" y="-340.5" font-family="Helvetica,sans-Serif" font-size="10.00" fill="grey"> &#45;playerlanguageid</text>
</g>
<!-- Node5 -->
<g id="Node000005" class="node">
<title>Node5</title>
<g id="a_Node000005"><a xlink:href="classfr_1_1softsf_1_1sudokufx_1_1model_1_1_background.html" target="_top" xlink:title=" ">
<polygon fill="white" stroke="none" points="281.75,-480 165,-480 165,-368 281.75,-368 281.75,-480"/>
<text text-anchor="start" x="169" y="-466.5" font-family="Helvetica,sans-Serif" font-size="10.00">fr.softsf.sudokufx.model.</text>
<text text-anchor="start" x="197.5" y="-454.5" font-family="Helvetica,sans-Serif" font-size="10.00">Background</text>
<text text-anchor="start" x="174" y="-438.5" font-family="Helvetica,sans-Serif" font-size="10.00">&#45;</text>
<text text-anchor="start" x="186" y="-438.5" font-family="Helvetica,sans-Serif" font-size="10.00">Long backgroundid</text>
<text text-anchor="start" x="174" y="-422.5" font-family="Helvetica,sans-Serif" font-size="10.00">&#45;</text>
<text text-anchor="start" x="186" y="-422.5" font-family="Helvetica,sans-Serif" font-size="10.00">String hexcolor</text>
<text text-anchor="start" x="174" y="-406.5" font-family="Helvetica,sans-Serif" font-size="10.00">&#45;</text>
<text text-anchor="start" x="186" y="-406.5" font-family="Helvetica,sans-Serif" font-size="10.00">String imagepath</text>
<text text-anchor="start" x="174" y="-390.5" font-family="Helvetica,sans-Serif" font-size="10.00">&#45;</text>
<text text-anchor="start" x="186" y="-390.5" font-family="Helvetica,sans-Serif" font-size="10.00">boolean isimage</text>
<text text-anchor="start" x="221.88" y="-374.5" font-family="Helvetica,sans-Serif" font-size="10.00"> </text>
<polygon fill="#666666" stroke="#666666" points="165,-450 165,-450 281.75,-450 281.75,-450 165,-450"/>
<polygon fill="#666666" stroke="#666666" points="165,-386 165,-386 184,-386 184,-386 165,-386"/>
<polygon fill="#666666" stroke="#666666" points="184,-386 184,-386 281.75,-386 281.75,-386 184,-386"/>
<polygon fill="none" stroke="#666666" points="165,-368 165,-480 281.75,-480 281.75,-368 165,-368"/>
</a>
</g>
</g>
<!-- Node5&#45;&gt;Node3 -->
<g id="edge4_Node000003_Node000005" class="edge">
<title>Node5&#45;&gt;Node3</title>
<g id="a_edge4_Node000003_Node000005"><a xlink:title=" ">
<path fill="none" stroke="#63b8ff" d="M223.38,-368.12C223.38,-356.86 223.38,-344.68 223.38,-332.43"/>
<polygon fill="none" stroke="#63b8ff" points="223.38,-332.57 219.38,-326.57 223.38,-320.57 227.38,-326.57 223.38,-332.57"/>
</a>
</g>
<text text-anchor="middle" x="255.25" y="-340.5" font-family="Helvetica,sans-Serif" font-size="10.00" fill="grey"> &#45;backgroundid</text>
</g>
<!-- Node6 -->
<g id="Node000006" class="node">
<title>Node6</title>
<g id="a_Node000006"><a xlink:href="classfr_1_1softsf_1_1sudokufx_1_1model_1_1_menu.html" target="_top" xlink:title=" ">
<polygon fill="white" stroke="none" points="440.75,-458 300,-458 300,-390 440.75,-390 440.75,-458"/>
<text text-anchor="start" x="304" y="-444.5" font-family="Helvetica,sans-Serif" font-size="10.00">fr.softsf.sudokufx.model.Menu</text>
<text text-anchor="start" x="321.75" y="-428.5" font-family="Helvetica,sans-Serif" font-size="10.00">&#45;</text>
<text text-anchor="start" x="346.5" y="-428.5" font-family="Helvetica,sans-Serif" font-size="10.00">Byte menuid</text>
<text text-anchor="start" x="321.75" y="-412.5" font-family="Helvetica,sans-Serif" font-size="10.00">&#45;</text>
<text text-anchor="start" x="346.5" y="-412.5" font-family="Helvetica,sans-Serif" font-size="10.00">Byte mode</text>
<text text-anchor="start" x="368.88" y="-396.5" font-family="Helvetica,sans-Serif" font-size="10.00"> </text>
<polygon fill="#666666" stroke="#666666" points="300,-440 300,-440 440.75,-440 440.75,-440 300,-440"/>
<polygon fill="#666666" stroke="#666666" points="300,-408 300,-408 344.5,-408 344.5,-408 300,-408"/>
<polygon fill="#666666" stroke="#666666" points="344.5,-408 344.5,-408 440.75,-408 440.75,-408 344.5,-408"/>
<polygon fill="none" stroke="#666666" points="300,-390 300,-458 440.75,-458 440.75,-390 300,-390"/>
</a>
</g>
</g>
<!-- Node6&#45;&gt;Node3 -->
<g id="edge5_Node000003_Node000006" class="edge">
<title>Node6&#45;&gt;Node3</title>
<g id="a_edge5_Node000003_Node000006"><a xlink:title=" ">
<path fill="none" stroke="#63b8ff" d="M344.77,-390.25C331.56,-373.36 314.7,-351.79 297.77,-330.15"/>
<polygon fill="none" stroke="#63b8ff" points="297.69,-330.04 290.84,-327.77 290.29,-320.58 297.14,-322.85 297.69,-330.04"/>
</a>
</g>
<text text-anchor="middle" x="328.79" y="-340.5" font-family="Helvetica,sans-Serif" font-size="10.00" fill="grey"> &#45;menuid</text>
</g>
<!-- Node7 -->
<g id="Node000007" class="node">
<title>Node7</title>
<g id="a_Node000007"><a xlink:href="classfr_1_1softsf_1_1sudokufx_1_1model_1_1_game_level.html" target="_top" xlink:title=" ">
<polygon fill="white" stroke="none" points="428.75,-274 312,-274 312,-194 428.75,-194 428.75,-274"/>
<text text-anchor="start" x="316" y="-260.5" font-family="Helvetica,sans-Serif" font-size="10.00">fr.softsf.sudokufx.model.</text>
<text text-anchor="start" x="345.62" y="-248.5" font-family="Helvetica,sans-Serif" font-size="10.00">GameLevel</text>
<text text-anchor="start" x="328.69" y="-232.5" font-family="Helvetica,sans-Serif" font-size="10.00">&#45;</text>
<text text-anchor="start" x="348.38" y="-232.5" font-family="Helvetica,sans-Serif" font-size="10.00">Byte level</text>
<text text-anchor="start" x="328.69" y="-216.5" font-family="Helvetica,sans-Serif" font-size="10.00">&#45;</text>
<text text-anchor="start" x="348.38" y="-216.5" font-family="Helvetica,sans-Serif" font-size="10.00">Byte levelid</text>
<text text-anchor="start" x="368.88" y="-200.5" font-family="Helvetica,sans-Serif" font-size="10.00"> </text>
<polygon fill="#666666" stroke="#666666" points="312,-244 312,-244 428.75,-244 428.75,-244 312,-244"/>
<polygon fill="#666666" stroke="#666666" points="312,-212 312,-212 346.38,-212 346.38,-212 312,-212"/>
<polygon fill="#666666" stroke="#666666" points="346.38,-212 346.38,-212 428.75,-212 428.75,-212 346.38,-212"/>
<polygon fill="none" stroke="#666666" points="312,-194 312,-274 428.75,-274 428.75,-194 312,-194"/>
</a>
</g>
</g>
<!-- Node7&#45;&gt;Node1 -->
<g id="edge6_Node000001_Node000007" class="edge">
<title>Node7&#45;&gt;Node1</title>
<g id="a_edge6_Node000001_Node000007"><a xlink:title=" ">
<path fill="none" stroke="#63b8ff" d="M339.3,-194.01C327.74,-179.54 314.48,-163 302.38,-148 292.36,-135.6 281.6,-122.34 271.34,-109.73"/>
<polygon fill="none" stroke="#63b8ff" points="271.39,-109.79 264.5,-107.66 263.81,-100.48 270.7,-102.61 271.39,-109.79"/>
</a>
</g>
<text text-anchor="middle" x="304.19" y="-120.5" font-family="Helvetica,sans-Serif" font-size="10.00" fill="grey"> &#45;levelid</text>
</g>
</g>
</svg>

<g id="navigator" transform="translate(0 0)" fill="#404254">
  <rect fill="#f2f5e9" fill-opacity="0.5" stroke="#606060" stroke-width=".5" x="0" y="0" width="60" height="60"/>
  <use id="zoomplus" xlink:href="#zoomPlus" x="17" y="9" onmousedown="handleZoom(evt,'in')"/>
  <use id="zoomminus" xlink:href="#zoomMin" x="42" y="9" onmousedown="handleZoom(evt,'out')"/>
  <use id="reset" xlink:href="#resetDef" x="30" y="36" onmousedown="handleReset()"/>
   <use id="arrowup" xlink:href="#arrowUp" x="0" y="0" onmousedown="handlePan(0,-1)"/>
  <use id="arrowright" xlink:href="#arrowRight" x="0" y="0" onmousedown="handlePan(1,0)"/>
  <use id="arrowdown" xlink:href="#arrowDown" x="0" y="0" onmousedown="handlePan(0,1)"/>
  <use id="arrowleft" xlink:href="#arrowLeft" x="0" y="0" onmousedown="handlePan(-1,0)"/>
</g>
<svg viewBox="0 0 15 15" width="100%" height="30px" preserveAspectRatio="xMaxYMin meet">
 <g id="arrow_out" transform="scale(0.3 0.3)">
  <a xlink:href="classfr_1_1softsf_1_1sudokufx_1_1model_1_1_game__coll__graph_org.svg" target="_base">
   <rect id="button" ry="5" rx="5" y="6" x="6" height="38" width="38"
        fill="#f2f5e9" fill-opacity="0.5" stroke="#606060" stroke-width="1.0"/>
   <path id="arrow"
     d="M 11.500037,31.436501 C 11.940474,20.09759 22.043105,11.32322 32.158766,21.979434 L 37.068811,17.246167 C 37.068811,17.246167 37.088388,32 37.088388,32 L 22.160133,31.978069 C 22.160133,31.978069 26.997745,27.140456 26.997745,27.140456 C 18.528582,18.264221 13.291696,25.230495 11.500037,31.436501 z"
     style="fill:#404040;"/>
  </a>
 </g>
</svg>

<style type='text/css'>
<![CDATA[
[data-mouse-over-selected='false'] { opacity: 0.7; }
[data-mouse-over-selected='true']  { opacity: 1.0; }
]]>
</style>
<script type="application/ecmascript"><![CDATA[
document.addEventListener('DOMContentLoaded', (event) => {
  highlightEdges();
  highlightAdjacentNodes();
});
]]></script>
</svg>
