<?xml version="1.0" encoding="UTF-8" standalone="no"?>
<!DOCTYPE svg PUBLIC "-//W3C//DTD SVG 1.1//EN"
 "http://www.w3.org/Graphics/SVG/1.1/DTD/svg11.dtd">
<!-- Generated by graphviz version 12.2.1 (20241206.2353)
 -->
<!-- Title: fr.softsf.sudokufx.SudoMain.start Pages: 1 -->
<svg width="589pt" height="190pt"
 viewBox="0.00 0.00 589.25 190.00" xmlns="http://www.w3.org/2000/svg" xmlns:xlink="http://www.w3.org/1999/xlink">
<g id="graph0" class="graph" transform="scale(1 1) rotate(0) translate(4 186)">
<title>fr.softsf.sudokufx.SudoMain.start</title>
<!-- Node1 -->
<g id="Node000001" class="node">
<title>Node1</title>
<g id="a_Node000001"><a xlink:title="Initializes the application by setting up the splash screen and loading the main application context.">
<polygon fill="#999999" stroke="#666666" points="161.5,-101 0,-101 0,-81 161.5,-81 161.5,-101"/>
<text text-anchor="middle" x="80.75" y="-87.5" font-family="Helvetica,sans-Serif" font-size="10.00">fr.softsf.sudokufx.SudoMain.start</text>
</a>
</g>
</g>
<!-- Node2 -->
<g id="Node000002" class="node">
<title>Node2</title>
<g id="a_Node000002"><a xlink:href="classfr_1_1softsf_1_1sudokufx_1_1_sudo_main.html#ad38d74b9ba975c931a8f6aa3e3e45c73" target="_top" xlink:title="Creates a new Task that initializes the Spring context.">
<polygon fill="white" stroke="#666666" points="367.25,-182 198.25,-182 198.25,-150 367.25,-150 367.25,-182"/>
<text text-anchor="start" x="206.25" y="-168.5" font-family="Helvetica,sans-Serif" font-size="10.00">fr.softsf.sudokufx.SudoMain.create</text>
<text text-anchor="middle" x="282.75" y="-156.5" font-family="Helvetica,sans-Serif" font-size="10.00">SpringContextTask</text>
</a>
</g>
</g>
<!-- Node1&#45;&gt;Node2 -->
<g id="edge1_Node000001_Node000002" class="edge">
<title>Node1&#45;&gt;Node2</title>
<g id="a_edge1_Node000001_Node000002"><a xlink:title=" ">
<path fill="none" stroke="#63b8ff" d="M103.62,-101.38C126.67,-112.09 164.16,-128.9 197.5,-141 202.23,-142.72 207.13,-144.4 212.09,-146.04"/>
<polygon fill="#63b8ff" stroke="#63b8ff" points="210.96,-149.35 221.55,-149.08 213.1,-142.69 210.96,-149.35"/>
</a>
</g>
</g>
<!-- Node3 -->
<g id="Node000003" class="node">
<title>Node3</title>
<g id="a_Node000003"><a xlink:href="classfr_1_1softsf_1_1sudokufx_1_1_sudo_main.html#a5f0246399e65a32405abe1ed415219ee" target="_top" xlink:title="Handles errors that occur during the Spring context initialization task.">
<polygon fill="white" stroke="#666666" points="368,-82 197.5,-82 197.5,-50 368,-50 368,-82"/>
<text text-anchor="start" x="205.5" y="-68.5" font-family="Helvetica,sans-Serif" font-size="10.00">fr.softsf.sudokufx.SudoMain.handle</text>
<text text-anchor="middle" x="282.75" y="-56.5" font-family="Helvetica,sans-Serif" font-size="10.00">SpringContextTaskFailed</text>
</a>
</g>
</g>
<!-- Node1&#45;&gt;Node3 -->
<g id="edge2_Node000001_Node000003" class="edge">
<title>Node1&#45;&gt;Node3</title>
<g id="a_edge2_Node000001_Node000003"><a xlink:title=" ">
<path fill="none" stroke="#63b8ff" d="M161.95,-80.98C169.85,-79.99 177.92,-78.98 185.96,-77.97"/>
<polygon fill="#63b8ff" stroke="#63b8ff" points="186.29,-81.46 195.78,-76.75 185.42,-74.51 186.29,-81.46"/>
</a>
</g>
</g>
<!-- Node7 -->
<g id="Node000007" class="node">
<title>Node7</title>
<g id="a_Node000007"><a xlink:href="classfr_1_1softsf_1_1sudokufx_1_1_sudo_main.html#afa5bb361c3c4da3cef227f656f09c3e3" target="_top" xlink:title="Handles the success of the Spring context initialization task.">
<polygon fill="white" stroke="#666666" points="368,-132 197.5,-132 197.5,-100 368,-100 368,-132"/>
<text text-anchor="start" x="205.5" y="-118.5" font-family="Helvetica,sans-Serif" font-size="10.00">fr.softsf.sudokufx.SudoMain.handle</text>
<text text-anchor="middle" x="282.75" y="-106.5" font-family="Helvetica,sans-Serif" font-size="10.00">SpringContextTaskSuccess</text>
</a>
</g>
</g>
<!-- Node1&#45;&gt;Node7 -->
<g id="edge6_Node000001_Node000007" class="edge">
<title>Node1&#45;&gt;Node7</title>
<g id="a_edge6_Node000001_Node000007"><a xlink:title=" ">
<path fill="none" stroke="#63b8ff" d="M161.95,-101.02C169.85,-102.01 177.92,-103.02 185.96,-104.03"/>
<polygon fill="#63b8ff" stroke="#63b8ff" points="185.42,-107.49 195.78,-105.25 186.29,-100.54 185.42,-107.49"/>
</a>
</g>
</g>
<!-- Node8 -->
<g id="Node000008" class="node">
<title>Node8</title>
<g id="a_Node000008"><a xlink:href="classfr_1_1softsf_1_1sudokufx_1_1_sudo_main.html#a574a17236a0848e4ce394ff5077a15fc" target="_top" xlink:title="Initializes the main scene.">
<polygon fill="white" stroke="#666666" points="360.12,-32 205.38,-32 205.38,0 360.12,0 360.12,-32"/>
<text text-anchor="start" x="213.38" y="-18.5" font-family="Helvetica,sans-Serif" font-size="10.00">fr.softsf.sudokufx.SudoMain.init</text>
<text text-anchor="middle" x="282.75" y="-6.5" font-family="Helvetica,sans-Serif" font-size="10.00">Scene</text>
</a>
</g>
</g>
<!-- Node1&#45;&gt;Node8 -->
<g id="edge9_Node000001_Node000008" class="edge">
<title>Node1&#45;&gt;Node8</title>
<g id="a_edge9_Node000001_Node000008"><a xlink:title=" ">
<path fill="none" stroke="#63b8ff" d="M103.62,-80.62C126.67,-69.91 164.16,-53.1 197.5,-41 202.23,-39.28 207.13,-37.6 212.09,-35.96"/>
<polygon fill="#63b8ff" stroke="#63b8ff" points="213.1,-39.31 221.55,-32.92 210.96,-32.65 213.1,-39.31"/>
</a>
</g>
</g>
<!-- Node4 -->
<g id="Node000004" class="node">
<title>Node4</title>
<g id="a_Node000004"><a xlink:href="classfr_1_1softsf_1_1sudokufx_1_1_sudo_main.html#a5f9601381fd0f35bc4a5c90205958aec" target="_top" xlink:title="Creates a PauseTransition to delay loading of the next view.">
<polygon fill="white" stroke="#666666" points="570.38,-82 414.88,-82 414.88,-50 570.38,-50 570.38,-82"/>
<text text-anchor="start" x="422.88" y="-68.5" font-family="Helvetica,sans-Serif" font-size="10.00">fr.softsf.sudokufx.SudoMain.get</text>
<text text-anchor="middle" x="492.62" y="-56.5" font-family="Helvetica,sans-Serif" font-size="10.00">PauseTransition</text>
</a>
</g>
</g>
<!-- Node3&#45;&gt;Node4 -->
<g id="edge3_Node000003_Node000004" class="edge">
<title>Node3&#45;&gt;Node4</title>
<g id="a_edge3_Node000003_Node000004"><a xlink:title=" ">
<path fill="none" stroke="#63b8ff" d="M368.3,-66C379.77,-66 391.56,-66 403.09,-66"/>
<polygon fill="#63b8ff" stroke="#63b8ff" points="403,-69.5 413,-66 403,-62.5 403,-69.5"/>
</a>
</g>
</g>
<!-- Node5 -->
<g id="Node000005" class="node">
<title>Node5</title>
<g id="a_Node000005"><a xlink:href="classfr_1_1softsf_1_1sudokufx_1_1_sudo_main.html#afa5ef977463b6da726c91c4b3d67d1f4" target="_top" xlink:title="Initialize the FxmlService if needed and set his DynamicFontSize.">
<polygon fill="white" stroke="#666666" points="581.25,-132 404,-132 404,-100 581.25,-100 581.25,-132"/>
<text text-anchor="start" x="412" y="-118.5" font-family="Helvetica,sans-Serif" font-size="10.00">fr.softsf.sudokufx.SudoMain.initialize</text>
<text text-anchor="middle" x="492.62" y="-106.5" font-family="Helvetica,sans-Serif" font-size="10.00">FxmlService</text>
</a>
</g>
</g>
<!-- Node3&#45;&gt;Node5 -->
<g id="edge4_Node000003_Node000005" class="edge">
<title>Node3&#45;&gt;Node5</title>
<g id="a_edge4_Node000003_Node000005"><a xlink:title=" ">
<path fill="none" stroke="#63b8ff" d="M352.1,-82.44C371.28,-87.05 392.3,-92.11 412.08,-96.87"/>
<polygon fill="#63b8ff" stroke="#63b8ff" points="411.22,-100.26 421.76,-99.2 412.85,-93.45 411.22,-100.26"/>
</a>
</g>
</g>
<!-- Node6 -->
<g id="Node000006" class="node">
<title>Node6</title>
<g id="a_Node000006"><a xlink:href="classfr_1_1softsf_1_1sudokufx_1_1_sudo_main.html#a7f44ea69c674694f9ea334ec052a05b3" target="_top" xlink:title="Handles SQL invalid authorization exceptions.">
<polygon fill="white" stroke="#666666" points="570,-32 415.25,-32 415.25,0 570,0 570,-32"/>
<text text-anchor="start" x="423.25" y="-18.5" font-family="Helvetica,sans-Serif" font-size="10.00">fr.softsf.sudokufx.SudoMain.sql</text>
<text text-anchor="middle" x="492.62" y="-6.5" font-family="Helvetica,sans-Serif" font-size="10.00">InvalidAuthorization</text>
</a>
</g>
</g>
<!-- Node3&#45;&gt;Node6 -->
<g id="edge5_Node000003_Node000006" class="edge">
<title>Node3&#45;&gt;Node6</title>
<g id="a_edge5_Node000003_Node000006"><a xlink:title=" ">
<path fill="none" stroke="#63b8ff" d="M352.1,-49.56C371.28,-44.95 392.3,-39.89 412.08,-35.13"/>
<polygon fill="#63b8ff" stroke="#63b8ff" points="412.85,-38.55 421.76,-32.8 411.22,-31.74 412.85,-38.55"/>
</a>
</g>
</g>
<!-- Node7&#45;&gt;Node4 -->
<g id="edge7_Node000007_Node000004" class="edge">
<title>Node7&#45;&gt;Node4</title>
<g id="a_edge7_Node000007_Node000004"><a xlink:title=" ">
<path fill="none" stroke="#63b8ff" d="M352.1,-99.56C371.28,-94.95 392.3,-89.89 412.08,-85.13"/>
<polygon fill="#63b8ff" stroke="#63b8ff" points="412.85,-88.55 421.76,-82.8 411.22,-81.74 412.85,-88.55"/>
</a>
</g>
</g>
<!-- Node7&#45;&gt;Node5 -->
<g id="edge8_Node000007_Node000005" class="edge">
<title>Node7&#45;&gt;Node5</title>
<g id="a_edge8_Node000007_Node000005"><a xlink:title=" ">
<path fill="none" stroke="#63b8ff" d="M368.3,-116C376.25,-116 384.35,-116 392.41,-116"/>
<polygon fill="#63b8ff" stroke="#63b8ff" points="392.26,-119.5 402.26,-116 392.26,-112.5 392.26,-119.5"/>
</a>
</g>
</g>
</g>
</svg>
