<?xml version="1.0" encoding="UTF-8" standalone="no"?>
<!DOCTYPE svg PUBLIC "-//W3C//DTD SVG 1.1//EN"
 "http://www.w3.org/Graphics/SVG/1.1/DTD/svg11.dtd">
<!-- Generated by graphviz version 12.2.0 (20241103.1931)
 -->
<!-- Title: fr.softsf.sudokufx.integration.database.keystore.SecretKeyEncryptionServiceAESGCMITest Pages: 1 -->
<!--zoomable 580 -->

<svg id="main" version="1.1" xmlns="http://www.w3.org/2000/svg" xmlns:xlink="http://www.w3.org/1999/xlink" xml:space="preserve" onload="init(evt)">

<style type="text/css"><![CDATA[
.node, .edge {opacity: 0.7;}
.node.selected, .edge.selected {opacity: 1;}
.edge:hover path { stroke: red; }
.edge:hover polygon { stroke: red; fill: red; }
]]></style>

<defs>
  <circle id="rim" cx="0" cy="0" r="7"/>
  <circle id="rim2" cx="0" cy="0" r="3.5"/>
  <g id="zoomPlus">
    <use xlink:href="#rim" fill="#404040"><set attributeName="fill" to="#808080" begin="zoomplus.mouseover" end="zoomplus.mouseout"/></use>
    <path d="M-4,0h8M0,-4v8" fill="none" stroke="white" stroke-width="1.5" pointer-events="none"/>
  </g>
  <g id="zoomMin">
    <use xlink:href="#rim" fill="#404040"><set attributeName="fill" to="#808080" begin="zoomminus.mouseover" end="zoomminus.mouseout"/></use>
    <path d="M-4,0h8" fill="none" stroke="white" stroke-width="1.5" pointer-events="none"/>
  </g>
  <g id="arrowUp" transform="translate(30 24)">
    <use xlink:href="#rim"/>
    <path pointer-events="none" fill="none" stroke="white" stroke-width="1.5" d="M0,-3.0v7 M-2.5,-0.5L0,-3.0L2.5,-0.5"/>
  </g>
  <g id="arrowRight" transform="rotate(90) translate(36 -43)">
    <use xlink:href="#rim"/>
    <path pointer-events="none" fill="none" stroke="white" stroke-width="1.5" d="M0,-3.0v7 M-2.5,-0.5L0,-3.0L2.5,-0.5"/>
  </g>
  <g id="arrowDown" transform="rotate(180) translate(-30 -48)">
    <use xlink:href="#rim"/>
    <path pointer-events="none" fill="none" stroke="white" stroke-width="1.5" d="M0,-3.0v7 M-2.5,-0.5L0,-3.0L2.5,-0.5"/>
  </g>
  <g id="arrowLeft" transform="rotate(270) translate(-36 17)">
    <use xlink:href="#rim"/>
    <path pointer-events="none" fill="none" stroke="white" stroke-width="1.5" d="M0,-3.0v7 M-2.5,-0.5L0,-3.0L2.5,-0.5"/>
  </g>
  <g id="resetDef">
    <use xlink:href="#rim2" fill="#404040"><set attributeName="fill" to="#808080" begin="reset.mouseover" end="reset.mouseout"/></use>
  </g>
</defs>
<script type="application/ecmascript">
var viewWidth = 587;
var viewHeight = 580;
var sectionId = 'dynsection-0';
</script>
<script type="application/ecmascript" xlink:href="svg.min.js"/>
<svg id="graph" class="graph">
<g id="viewport">
<title>fr.softsf.sudokufx.integration.database.keystore.SecretKeyEncryptionServiceAESGCMITest</title>
<!-- Node1 -->
<g id="Node000001" class="node">
<title>Node1</title>
<g id="a_Node000001"><a xlink:title=" ">
<polygon fill="#999999" stroke="none" points="499.25,-180 280.5,-180 280.5,0 499.25,0 499.25,-180"/>
<text text-anchor="start" x="284.5" y="-166.5" font-family="Helvetica,sans-Serif" font-size="10.00">fr.softsf.sudokufx.integration.database.keystore.</text>
<text text-anchor="start" x="294.62" y="-154.5" font-family="Helvetica,sans-Serif" font-size="10.00">SecretKeyEncryptionServiceAESGCMITest</text>
<text text-anchor="start" x="388.38" y="-138.5" font-family="Helvetica,sans-Serif" font-size="10.00"> </text>
<text text-anchor="start" x="304.88" y="-122.5" font-family="Helvetica,sans-Serif" font-size="10.00">~</text>
<text text-anchor="start" x="335.25" y="-122.5" font-family="Helvetica,sans-Serif" font-size="10.00">void decryptWithLessThan</text>
<text text-anchor="start" x="335.25" y="-110.5" font-family="Helvetica,sans-Serif" font-size="10.00">TwoBytesCypher_fail()</text>
<text text-anchor="start" x="304.88" y="-94.5" font-family="Helvetica,sans-Serif" font-size="10.00">~</text>
<text text-anchor="start" x="335.25" y="-94.5" font-family="Helvetica,sans-Serif" font-size="10.00">void encryptDecrypt</text>
<text text-anchor="start" x="335.25" y="-82.5" font-family="Helvetica,sans-Serif" font-size="10.00">_success()</text>
<text text-anchor="start" x="304.88" y="-66.5" font-family="Helvetica,sans-Serif" font-size="10.00">~</text>
<text text-anchor="start" x="335.25" y="-66.5" font-family="Helvetica,sans-Serif" font-size="10.00">void encryptWithNullSecret</text>
<text text-anchor="start" x="335.25" y="-54.5" font-family="Helvetica,sans-Serif" font-size="10.00">Key_fail()</text>
<text text-anchor="start" x="304.88" y="-38.5" font-family="Helvetica,sans-Serif" font-size="10.00">~</text>
<text text-anchor="start" x="335.25" y="-38.5" font-family="Helvetica,sans-Serif" font-size="10.00">void setup()</text>
<text text-anchor="start" x="304.88" y="-22.5" font-family="Helvetica,sans-Serif" font-size="10.00">~</text>
<text text-anchor="start" x="335.25" y="-22.5" font-family="Helvetica,sans-Serif" font-size="10.00">void tearDown()</text>
<text text-anchor="start" x="304.88" y="-6.5" font-family="Helvetica,sans-Serif" font-size="10.00">~</text>
<text text-anchor="start" x="335.25" y="-6.5" font-family="Helvetica,sans-Serif" font-size="10.00">static void setupAll()</text>
<polygon fill="#666666" stroke="#666666" points="280.5,-150 280.5,-150 499.25,-150 499.25,-150 280.5,-150"/>
<polygon fill="#666666" stroke="#666666" points="280.5,-134 280.5,-134 499.25,-134 499.25,-134 280.5,-134"/>
<polygon fill="none" stroke="#666666" points="280.5,0 280.5,-180 499.25,-180 499.25,0 280.5,0"/>
</a>
</g>
</g>
<!-- Node2 -->
<g id="Node000002" class="node">
<title>Node2</title>
<g id="a_Node000002"><a xlink:href="classfr_1_1softsf_1_1sudokufx_1_1utils_1_1database_1_1keystore_1_1_secret_key_encryption_service_a_e_s_g_c_m.html" target="_top" xlink:title="Implementation of the ApplicationKeystore.IEncryptionService interface using AES&#45;GCM (Galois/Counter ...">
<polygon fill="white" stroke="none" points="380.75,-420 189,-420 189,-288 380.75,-288 380.75,-420"/>
<text text-anchor="start" x="193" y="-406.5" font-family="Helvetica,sans-Serif" font-size="10.00">fr.softsf.sudokufx.utils.database.keystore.</text>
<text text-anchor="start" x="200.5" y="-394.5" font-family="Helvetica,sans-Serif" font-size="10.00">SecretKeyEncryptionServiceAESGCM</text>
<text text-anchor="start" x="283.38" y="-378.5" font-family="Helvetica,sans-Serif" font-size="10.00"> </text>
<text text-anchor="start" x="193.88" y="-362.5" font-family="Helvetica,sans-Serif" font-size="10.00">+</text>
<text text-anchor="start" x="204.75" y="-362.5" font-family="Helvetica,sans-Serif" font-size="10.00">SecretKeyEncryptionService</text>
<text text-anchor="start" x="204.75" y="-350.5" font-family="Helvetica,sans-Serif" font-size="10.00">AESGCM(final SecretKey secretKeyP)</text>
<text text-anchor="start" x="193.88" y="-334.5" font-family="Helvetica,sans-Serif" font-size="10.00">+</text>
<text text-anchor="start" x="204.75" y="-334.5" font-family="Helvetica,sans-Serif" font-size="10.00">String decrypt(@NotBlank</text>
<text text-anchor="start" x="204.75" y="-322.5" font-family="Helvetica,sans-Serif" font-size="10.00"> final String cypher)</text>
<text text-anchor="start" x="193.88" y="-306.5" font-family="Helvetica,sans-Serif" font-size="10.00">+</text>
<text text-anchor="start" x="204.75" y="-306.5" font-family="Helvetica,sans-Serif" font-size="10.00">String encrypt(@NotBlank</text>
<text text-anchor="start" x="204.75" y="-294.5" font-family="Helvetica,sans-Serif" font-size="10.00"> final String original)</text>
<polygon fill="#666666" stroke="#666666" points="189,-390 189,-390 380.75,-390 380.75,-390 189,-390"/>
<polygon fill="#666666" stroke="#666666" points="189,-374 189,-374 380.75,-374 380.75,-374 189,-374"/>
<polygon fill="none" stroke="#666666" points="189,-288 189,-420 380.75,-420 380.75,-288 189,-288"/>
</a>
</g>
</g>
<!-- Node2&#45;&gt;Node1 -->
<g id="edge1_Node000001_Node000002" class="edge">
<title>Node2&#45;&gt;Node1</title>
<g id="a_edge1_Node000001_Node000002"><a xlink:title=" ">
<path fill="none" stroke="#63b8ff" d="M274.95,-288.28C273.19,-259.63 274.84,-226.13 286.38,-198 287.33,-195.67 288.36,-193.36 289.47,-191.07"/>
<polygon fill="none" stroke="#63b8ff" points="289.4,-191.21 288.73,-184.03 295.11,-180.65 295.77,-187.83 289.4,-191.21"/>
</a>
</g>
<text text-anchor="start" x="286.38" y="-260.5" font-family="Helvetica,sans-Serif" font-size="10.00" fill="grey"> &#45;secretKeyEncryptionService</text>
<text text-anchor="middle" x="380.12" y="-248.5" font-family="Helvetica,sans-Serif" font-size="10.00" fill="grey">AESGCM</text>
<text text-anchor="start" x="286.38" y="-236.5" font-family="Helvetica,sans-Serif" font-size="10.00" fill="grey">&#45;secretKeyEncryptionService</text>
<text text-anchor="middle" x="380.12" y="-224.5" font-family="Helvetica,sans-Serif" font-size="10.00" fill="grey">AESGCMIncorrectSecretKey</text>
<text text-anchor="start" x="286.38" y="-212.5" font-family="Helvetica,sans-Serif" font-size="10.00" fill="grey">&#45;secretKeyEncryptionServiceAESGCMNull</text>
<text text-anchor="middle" x="380.12" y="-200.5" font-family="Helvetica,sans-Serif" font-size="10.00" fill="grey">SecretKey</text>
</g>
<!-- Node3 -->
<g id="Node000003" class="node">
<title>Node3</title>
<g id="a_Node000003"><a xlink:href="interfacefr_1_1softsf_1_1sudokufx_1_1utils_1_1database_1_1keystore_1_1_application_keystore_1_1_i_encryption_service.html" target="_top" xlink:title=" ">
<polygon fill="white" stroke="none" points="191.75,-572 0,-572 0,-468 191.75,-468 191.75,-572"/>
<text text-anchor="start" x="4" y="-558.5" font-family="Helvetica,sans-Serif" font-size="10.00">fr.softsf.sudokufx.utils.database.keystore.</text>
<text text-anchor="start" x="9.62" y="-546.5" font-family="Helvetica,sans-Serif" font-size="10.00">ApplicationKeystore.IEncryptionService</text>
<text text-anchor="start" x="94.38" y="-530.5" font-family="Helvetica,sans-Serif" font-size="10.00"> </text>
<text text-anchor="start" x="25.12" y="-514.5" font-family="Helvetica,sans-Serif" font-size="10.00">+</text>
<text text-anchor="start" x="56.25" y="-514.5" font-family="Helvetica,sans-Serif" font-size="10.00">String decrypt(String</text>
<text text-anchor="start" x="56.25" y="-502.5" font-family="Helvetica,sans-Serif" font-size="10.00"> cypher)</text>
<text text-anchor="start" x="25.12" y="-486.5" font-family="Helvetica,sans-Serif" font-size="10.00">+</text>
<text text-anchor="start" x="56.25" y="-486.5" font-family="Helvetica,sans-Serif" font-size="10.00">String encrypt(String</text>
<text text-anchor="start" x="56.25" y="-474.5" font-family="Helvetica,sans-Serif" font-size="10.00"> original)</text>
<polygon fill="#666666" stroke="#666666" points="0,-542 0,-542 191.75,-542 191.75,-542 0,-542"/>
<polygon fill="#666666" stroke="#666666" points="0,-526 0,-526 191.75,-526 191.75,-526 0,-526"/>
<polygon fill="none" stroke="#666666" points="0,-468 0,-572 191.75,-572 191.75,-468 0,-468"/>
</a>
</g>
</g>
<!-- Node3&#45;&gt;Node2 -->
<g id="edge2_Node000002_Node000003" class="edge">
<title>Node3&#45;&gt;Node2</title>
<g id="a_edge2_Node000002_Node000003"><a xlink:title=" ">
<path fill="none" stroke="#63b8ff" d="M163,-460.76C178.26,-447.51 194.56,-433.37 210.11,-419.87"/>
<polygon fill="none" stroke="#63b8ff" points="161.04,-457.82 155.78,-467.02 165.63,-463.11 161.04,-457.82"/>
</a>
</g>
</g>
<!-- Node4 -->
<g id="Node000004" class="node">
<title>Node4</title>
<g id="a_Node000004"><a xlink:title=" ">
<polygon fill="white" stroke="none" points="263.75,-546 210,-546 210,-494 263.75,-494 263.75,-546"/>
<text text-anchor="start" x="214" y="-532.5" font-family="Helvetica,sans-Serif" font-size="10.00">SecretKey</text>
<text text-anchor="start" x="235.38" y="-516.5" font-family="Helvetica,sans-Serif" font-size="10.00"> </text>
<text text-anchor="start" x="235.38" y="-500.5" font-family="Helvetica,sans-Serif" font-size="10.00"> </text>
<polygon fill="#666666" stroke="#666666" points="210,-528 210,-528 263.75,-528 263.75,-528 210,-528"/>
<polygon fill="#666666" stroke="#666666" points="210,-512 210,-512 263.75,-512 263.75,-512 210,-512"/>
<polygon fill="none" stroke="#666666" points="210,-494 210,-546 263.75,-546 263.75,-494 210,-494"/>
</a>
</g>
</g>
<!-- Node4&#45;&gt;Node2 -->
<g id="edge3_Node000002_Node000004" class="edge">
<title>Node4&#45;&gt;Node2</title>
<g id="a_edge3_Node000002_Node000004"><a xlink:title=" ">
<path fill="none" stroke="#63b8ff" d="M236.54,-494.12C236.91,-477.87 238.5,-456.35 243.62,-438 244.18,-436.02 244.78,-434.02 245.42,-432.03"/>
<polygon fill="none" stroke="#63b8ff" points="245.46,-431.91 243.74,-424.91 249.54,-420.63 251.26,-427.63 245.46,-431.91"/>
</a>
</g>
<text text-anchor="middle" x="268.75" y="-440.5" font-family="Helvetica,sans-Serif" font-size="10.00" fill="grey"> &#45;secretKey</text>
</g>
<!-- Node5 -->
<g id="Node000005" class="node">
<title>Node5</title>
<g id="a_Node000005"><a xlink:title=" ">
<polygon fill="white" stroke="none" points="328.12,-546 291.62,-546 291.62,-494 328.12,-494 328.12,-546"/>
<text text-anchor="start" x="295.62" y="-532.5" font-family="Helvetica,sans-Serif" font-size="10.00">Cipher</text>
<text text-anchor="start" x="308.38" y="-516.5" font-family="Helvetica,sans-Serif" font-size="10.00"> </text>
<text text-anchor="start" x="308.38" y="-500.5" font-family="Helvetica,sans-Serif" font-size="10.00"> </text>
<polygon fill="#666666" stroke="#666666" points="291.62,-528 291.62,-528 328.12,-528 328.12,-528 291.62,-528"/>
<polygon fill="#666666" stroke="#666666" points="291.62,-512 291.62,-512 328.12,-512 328.12,-512 291.62,-512"/>
<polygon fill="none" stroke="#666666" points="291.62,-494 291.62,-546 328.12,-546 328.12,-494 291.62,-494"/>
</a>
</g>
</g>
<!-- Node5&#45;&gt;Node2 -->
<g id="edge4_Node000002_Node000005" class="edge">
<title>Node5&#45;&gt;Node2</title>
<g id="a_edge4_Node000002_Node000005"><a xlink:title=" ">
<path fill="none" stroke="#63b8ff" d="M306.08,-494.09C303.55,-477.54 300.09,-454.82 296.69,-432.54"/>
<polygon fill="none" stroke="#63b8ff" points="296.71,-432.64 291.85,-427.31 294.9,-420.77 299.76,-426.1 296.71,-432.64"/>
</a>
</g>
<text text-anchor="middle" x="315" y="-440.5" font-family="Helvetica,sans-Serif" font-size="10.00" fill="grey"> &#45;cipher</text>
</g>
<!-- Node6 -->
<g id="Node000006" class="node">
<title>Node6</title>
<g id="a_Node000006"><a xlink:title=" ">
<polygon fill="white" stroke="none" points="421.62,-546 346.12,-546 346.12,-494 421.62,-494 421.62,-546"/>
<text text-anchor="start" x="350.12" y="-532.5" font-family="Helvetica,sans-Serif" font-size="10.00">SecureRandom</text>
<text text-anchor="start" x="382.38" y="-516.5" font-family="Helvetica,sans-Serif" font-size="10.00"> </text>
<text text-anchor="start" x="382.38" y="-500.5" font-family="Helvetica,sans-Serif" font-size="10.00"> </text>
<polygon fill="#666666" stroke="#666666" points="346.12,-528 346.12,-528 421.62,-528 421.62,-528 346.12,-528"/>
<polygon fill="#666666" stroke="#666666" points="346.12,-512 346.12,-512 421.62,-512 421.62,-512 346.12,-512"/>
<polygon fill="none" stroke="#666666" points="346.12,-494 346.12,-546 421.62,-546 421.62,-494 346.12,-494"/>
</a>
</g>
</g>
<!-- Node6&#45;&gt;Node2 -->
<g id="edge5_Node000002_Node000006" class="edge">
<title>Node6&#45;&gt;Node2</title>
<g id="a_edge5_Node000002_Node000006"><a xlink:title=" ">
<path fill="none" stroke="#63b8ff" d="M368.84,-494.09C358.61,-477.15 344.49,-453.76 330.74,-430.98"/>
<polygon fill="none" stroke="#63b8ff" points="330.71,-430.93 324.18,-427.86 324.51,-420.66 331.03,-423.72 330.71,-430.93"/>
</a>
</g>
<text text-anchor="middle" x="359.43" y="-440.5" font-family="Helvetica,sans-Serif" font-size="10.00" fill="grey"> &#45;random</text>
</g>
<!-- Node7 -->
<g id="Node000007" class="node">
<title>Node7</title>
<g id="a_Node000007"><a xlink:title=" ">
<polygon fill="white" stroke="none" points="568.5,-380 423.25,-380 423.25,-328 568.5,-328 568.5,-380"/>
<text text-anchor="start" x="427.25" y="-366.5" font-family="Helvetica,sans-Serif" font-size="10.00">ListAppender&lt; ILoggingEvent &gt;</text>
<text text-anchor="start" x="494.38" y="-350.5" font-family="Helvetica,sans-Serif" font-size="10.00"> </text>
<text text-anchor="start" x="494.38" y="-334.5" font-family="Helvetica,sans-Serif" font-size="10.00"> </text>
<polygon fill="#666666" stroke="#666666" points="423.25,-362 423.25,-362 568.5,-362 568.5,-362 423.25,-362"/>
<polygon fill="#666666" stroke="#666666" points="423.25,-346 423.25,-346 568.5,-346 568.5,-346 423.25,-346"/>
<polygon fill="none" stroke="#666666" points="423.25,-328 423.25,-380 568.5,-380 568.5,-328 423.25,-328"/>
</a>
</g>
</g>
<!-- Node7&#45;&gt;Node1 -->
<g id="edge6_Node000001_Node000007" class="edge">
<title>Node7&#45;&gt;Node1</title>
<g id="a_edge6_Node000001_Node000007"><a xlink:title=" ">
<path fill="none" stroke="#63b8ff" d="M496.25,-328.05C495.87,-296.51 492.27,-241.12 473.88,-198 472.94,-195.81 471.95,-193.63 470.91,-191.46"/>
<polygon fill="none" stroke="#63b8ff" points="470.88,-191.4 464.56,-187.94 465.32,-180.77 471.65,-184.23 470.88,-191.4"/>
</a>
</g>
<text text-anchor="middle" x="519.28" y="-230.5" font-family="Helvetica,sans-Serif" font-size="10.00" fill="grey"> &#45;logWatcher</text>
</g>
<!-- Node8 -->
<g id="Node000008" class="node">
<title>Node8</title>
<g id="a_Node000008"><a xlink:title=" ">
<polygon fill="white" stroke="none" points="528.38,-546 463.38,-546 463.38,-494 528.38,-494 528.38,-546"/>
<text text-anchor="start" x="467.38" y="-532.5" font-family="Helvetica,sans-Serif" font-size="10.00">ListAppender</text>
<text text-anchor="start" x="494.38" y="-516.5" font-family="Helvetica,sans-Serif" font-size="10.00"> </text>
<text text-anchor="start" x="494.38" y="-500.5" font-family="Helvetica,sans-Serif" font-size="10.00"> </text>
<polygon fill="#666666" stroke="#666666" points="463.38,-528 463.38,-528 528.38,-528 528.38,-528 463.38,-528"/>
<polygon fill="#666666" stroke="#666666" points="463.38,-512 463.38,-512 528.38,-512 528.38,-512 463.38,-512"/>
<polygon fill="none" stroke="#666666" points="463.38,-494 463.38,-546 528.38,-546 528.38,-494 463.38,-494"/>
</a>
</g>
</g>
<!-- Node8&#45;&gt;Node7 -->
<g id="edge7_Node000007_Node000008" class="edge">
<title>Node8&#45;&gt;Node7</title>
<g id="a_edge7_Node000007_Node000008"><a xlink:title=" ">
<path fill="none" stroke="orange" d="M495.88,-482.82C495.88,-451.58 495.88,-407.27 495.88,-379.87"/>
<polygon fill="orange" stroke="orange" points="492.38,-482.58 495.88,-492.58 499.38,-482.58 492.38,-482.58"/>
</a>
</g>
<text text-anchor="middle" x="537.5" y="-440.5" font-family="Helvetica,sans-Serif" font-size="10.00" fill="grey"> &lt; ILoggingEvent &gt;</text>
</g>
</g>
</svg>

<g id="navigator" transform="translate(0 0)" fill="#404254">
  <rect fill="#f2f5e9" fill-opacity="0.5" stroke="#606060" stroke-width=".5" x="0" y="0" width="60" height="60"/>
  <use id="zoomplus" xlink:href="#zoomPlus" x="17" y="9" onmousedown="handleZoom(evt,'in')"/>
  <use id="zoomminus" xlink:href="#zoomMin" x="42" y="9" onmousedown="handleZoom(evt,'out')"/>
  <use id="reset" xlink:href="#resetDef" x="30" y="36" onmousedown="handleReset()"/>
   <use id="arrowup" xlink:href="#arrowUp" x="0" y="0" onmousedown="handlePan(0,-1)"/>
  <use id="arrowright" xlink:href="#arrowRight" x="0" y="0" onmousedown="handlePan(1,0)"/>
  <use id="arrowdown" xlink:href="#arrowDown" x="0" y="0" onmousedown="handlePan(0,1)"/>
  <use id="arrowleft" xlink:href="#arrowLeft" x="0" y="0" onmousedown="handlePan(-1,0)"/>
</g>
<svg viewBox="0 0 15 15" width="100%" height="30px" preserveAspectRatio="xMaxYMin meet">
 <g id="arrow_out" transform="scale(0.3 0.3)">
  <a xlink:href="classfr_1_1softsf_1_1sudokufx_1_1integration_1_1database_1_1keystore_1_1_secret_key_encryption_s8ae33301ec95375551b263f4f7fb527f_org.svg" target="_base">
   <rect id="button" ry="5" rx="5" y="6" x="6" height="38" width="38"
        fill="#f2f5e9" fill-opacity="0.5" stroke="#606060" stroke-width="1.0"/>
   <path id="arrow"
     d="M 11.500037,31.436501 C 11.940474,20.09759 22.043105,11.32322 32.158766,21.979434 L 37.068811,17.246167 C 37.068811,17.246167 37.088388,32 37.088388,32 L 22.160133,31.978069 C 22.160133,31.978069 26.997745,27.140456 26.997745,27.140456 C 18.528582,18.264221 13.291696,25.230495 11.500037,31.436501 z"
     style="fill:#404040;"/>
  </a>
 </g>
</svg>

<style type='text/css'>
<![CDATA[
[data-mouse-over-selected='false'] { opacity: 0.7; }
[data-mouse-over-selected='true']  { opacity: 1.0; }
]]>
</style>
<script type="application/ecmascript"><![CDATA[
document.addEventListener('DOMContentLoaded', (event) => {
  highlightEdges();
  highlightAdjacentNodes();
});
]]></script>
</svg>
