<?xml version="1.0" encoding="UTF-8" standalone="no"?>
<!DOCTYPE svg PUBLIC "-//W3C//DTD SVG 1.1//EN"
 "http://www.w3.org/Graphics/SVG/1.1/DTD/svg11.dtd">
<!-- Generated by graphviz version 12.2.0 (20241103.1931)
 -->
<!-- Title: fr.softsf.sudokufx.viewmodel.FullMenuViewModel.test Pages: 1 -->
<svg width="1040pt" height="252pt"
 viewBox="0.00 0.00 1039.75 252.00" xmlns="http://www.w3.org/2000/svg" xmlns:xlink="http://www.w3.org/1999/xlink">
<g id="graph0" class="graph" transform="scale(1 1) rotate(0) translate(4 248)">
<title>fr.softsf.sudokufx.viewmodel.FullMenuViewModel.test</title>
<!-- Node1 -->
<g id="Node000001" class="node">
<title>Node1</title>
<g id="a_Node000001"><a xlink:title=" ">
<polygon fill="#999999" stroke="#666666" points="145,-194 0,-194 0,-162 145,-162 145,-194"/>
<text text-anchor="start" x="8" y="-180.5" font-family="Helvetica,sans-Serif" font-size="10.00">fr.softsf.sudokufx.viewmodel.</text>
<text text-anchor="middle" x="72.5" y="-168.5" font-family="Helvetica,sans-Serif" font-size="10.00">FullMenuViewModel.test</text>
</a>
</g>
</g>
<!-- Node2 -->
<g id="Node000002" class="node">
<title>Node2</title>
<g id="a_Node000002"><a xlink:href="classfr_1_1softsf_1_1sudokufx_1_1viewmodel_1_1_full_menu_view_model.html#adce6b8020bad713a5457f19529475669" target="_top" xlink:title=" ">
<polygon fill="white" stroke="#666666" points="354.88,-194 182.12,-194 182.12,-162 354.88,-162 354.88,-194"/>
<text text-anchor="start" x="190.12" y="-180.5" font-family="Helvetica,sans-Serif" font-size="10.00">fr.softsf.sudokufx.viewmodel.</text>
<text text-anchor="middle" x="268.5" y="-168.5" font-family="Helvetica,sans-Serif" font-size="10.00">FullMenuViewModel.createSoftware</text>
</a>
</g>
</g>
<!-- Node1&#45;&gt;Node2 -->
<g id="edge1_Node000001_Node000002" class="edge">
<title>Node1&#45;&gt;Node2</title>
<g id="a_edge1_Node000001_Node000002"><a xlink:title=" ">
<path fill="none" stroke="#63b8ff" d="M145.46,-178C153.62,-178 162.03,-178 170.43,-178"/>
<polygon fill="#63b8ff" stroke="#63b8ff" points="170.36,-181.5 180.36,-178 170.36,-174.5 170.36,-181.5"/>
</a>
</g>
</g>
<!-- Node6 -->
<g id="Node000006" class="node">
<title>Node6</title>
<g id="a_Node000006"><a xlink:href="classfr_1_1softsf_1_1sudokufx_1_1service_1_1_software_service.html#a19dc59ca2cea75458d2d0a92ada59b34" target="_top" xlink:title=" ">
<polygon fill="white" stroke="#666666" points="340.25,-244 196.75,-244 196.75,-212 340.25,-212 340.25,-244"/>
<text text-anchor="start" x="204.75" y="-230.5" font-family="Helvetica,sans-Serif" font-size="10.00">fr.softsf.sudokufx.service.</text>
<text text-anchor="middle" x="268.5" y="-218.5" font-family="Helvetica,sans-Serif" font-size="10.00">SoftwareService.getSoftware</text>
</a>
</g>
</g>
<!-- Node1&#45;&gt;Node6 -->
<g id="edge5_Node000001_Node000006" class="edge">
<title>Node1&#45;&gt;Node6</title>
<g id="a_edge5_Node000001_Node000006"><a xlink:title=" ">
<path fill="none" stroke="#63b8ff" d="M137.29,-194.44C155.03,-199.01 174.44,-204.02 192.75,-208.73"/>
<polygon fill="#63b8ff" stroke="#63b8ff" points="191.65,-212.06 202.2,-211.17 193.39,-205.29 191.65,-212.06"/>
</a>
</g>
</g>
<!-- Node8 -->
<g id="Node000008" class="node">
<title>Node8</title>
<g id="a_Node000008"><a xlink:href="classfr_1_1softsf_1_1sudokufx_1_1viewmodel_1_1_full_menu_view_model.html#abeb58caaac8ee5464bb0f851c94992f4" target="_top" xlink:title=" ">
<polygon fill="white" stroke="#666666" points="356,-138 181,-138 181,-106 356,-106 356,-138"/>
<text text-anchor="start" x="189" y="-124.5" font-family="Helvetica,sans-Serif" font-size="10.00">fr.softsf.sudokufx.viewmodel.</text>
<text text-anchor="middle" x="268.5" y="-112.5" font-family="Helvetica,sans-Serif" font-size="10.00">FullMenuViewModel.updateSoftware</text>
</a>
</g>
</g>
<!-- Node1&#45;&gt;Node8 -->
<g id="edge7_Node000001_Node000008" class="edge">
<title>Node1&#45;&gt;Node8</title>
<g id="a_edge7_Node000001_Node000008"><a xlink:title=" ">
<path fill="none" stroke="#63b8ff" d="M130.66,-161.5C152.27,-155.26 177.07,-148.1 199.58,-141.61"/>
<polygon fill="#63b8ff" stroke="#63b8ff" points="200.33,-145.03 208.96,-138.9 198.38,-138.31 200.33,-145.03"/>
</a>
</g>
</g>
<!-- Node3 -->
<g id="Node000003" class="node">
<title>Node3</title>
<g id="a_Node000003"><a xlink:href="classfr_1_1softsf_1_1sudokufx_1_1service_1_1_software_service.html#a74d93b9d4144d91d01a4b02369265f0f" target="_top" xlink:title=" ">
<polygon fill="white" stroke="#666666" points="567.75,-194 408.5,-194 408.5,-162 567.75,-162 567.75,-194"/>
<text text-anchor="start" x="416.5" y="-180.5" font-family="Helvetica,sans-Serif" font-size="10.00">fr.softsf.sudokufx.service.</text>
<text text-anchor="middle" x="488.12" y="-168.5" font-family="Helvetica,sans-Serif" font-size="10.00">SoftwareService.updateSoftware</text>
</a>
</g>
</g>
<!-- Node2&#45;&gt;Node3 -->
<g id="edge2_Node000002_Node000003" class="edge">
<title>Node2&#45;&gt;Node3</title>
<g id="a_edge2_Node000002_Node000003"><a xlink:title=" ">
<path fill="none" stroke="#63b8ff" d="M355.2,-178C368.86,-178 383.03,-178 396.79,-178"/>
<polygon fill="#63b8ff" stroke="#63b8ff" points="396.72,-181.5 406.72,-178 396.72,-174.5 396.72,-181.5"/>
</a>
</g>
</g>
<!-- Node4 -->
<g id="Node000004" class="node">
<title>Node4</title>
<g id="a_Node000004"><a xlink:href="interfacefr_1_1softsf_1_1sudokufx_1_1interfaces_1_1mapper_1_1_i_software_mapper.html#a85adc191251bde9870609d4b2cb23ee6" target="_top" xlink:title="Maps a SoftwareDto object to a Software object.">
<polygon fill="white" stroke="#666666" points="836.5,-241 620.25,-241 620.25,-209 836.5,-209 836.5,-241"/>
<text text-anchor="start" x="628.25" y="-227.5" font-family="Helvetica,sans-Serif" font-size="10.00">fr.softsf.sudokufx.interfaces.mapper.</text>
<text text-anchor="middle" x="728.38" y="-215.5" font-family="Helvetica,sans-Serif" font-size="10.00">ISoftwareMapper.mapSoftwareDtoToSoftware</text>
</a>
</g>
</g>
<!-- Node3&#45;&gt;Node4 -->
<g id="edge3_Node000003_Node000004" class="edge">
<title>Node3&#45;&gt;Node4</title>
<g id="a_edge3_Node000003_Node000004"><a xlink:title=" ">
<path fill="none" stroke="#63b8ff" d="M568.13,-193.59C588.89,-197.68 611.49,-202.14 632.98,-206.38"/>
<polygon fill="#63b8ff" stroke="#63b8ff" points="632.12,-209.78 642.61,-208.28 633.47,-202.91 632.12,-209.78"/>
</a>
</g>
</g>
<!-- Node5 -->
<g id="Node000005" class="node">
<title>Node5</title>
<g id="a_Node000005"><a xlink:href="interfacefr_1_1softsf_1_1sudokufx_1_1interfaces_1_1mapper_1_1_i_software_mapper.html#addc8516cb5cc6171c663e132d5fdddd6" target="_top" xlink:title="Maps a Software object to a SoftwareDto object.">
<polygon fill="white" stroke="#666666" points="817,-191 639.75,-191 639.75,-159 817,-159 817,-191"/>
<text text-anchor="start" x="647.75" y="-177.5" font-family="Helvetica,sans-Serif" font-size="10.00">fr.softsf.sudokufx.interfaces.mapper.</text>
<text text-anchor="middle" x="728.38" y="-165.5" font-family="Helvetica,sans-Serif" font-size="10.00">ISoftwareMapper.mapSoftwareToDto</text>
</a>
</g>
</g>
<!-- Node3&#45;&gt;Node5 -->
<g id="edge4_Node000003_Node000005" class="edge">
<title>Node3&#45;&gt;Node5</title>
<g id="a_edge4_Node000003_Node000005"><a xlink:title=" ">
<path fill="none" stroke="#63b8ff" d="M568.13,-177.01C587.35,-176.76 608.16,-176.5 628.19,-176.25"/>
<polygon fill="#63b8ff" stroke="#63b8ff" points="628.08,-179.75 638.03,-176.12 627.99,-172.75 628.08,-179.75"/>
</a>
</g>
</g>
<!-- Node7 -->
<g id="Node000007" class="node">
<title>Node7</title>
<g id="a_Node000007"><a xlink:href="interfacefr_1_1softsf_1_1sudokufx_1_1repository_1_1_software_repository.html#ae83142c4226c94b3b24f050848ae74c4" target="_top" xlink:title=" ">
<polygon fill="white" stroke="#666666" points="577.5,-244 398.75,-244 398.75,-212 577.5,-212 577.5,-244"/>
<text text-anchor="start" x="406.75" y="-230.5" font-family="Helvetica,sans-Serif" font-size="10.00">fr.softsf.sudokufx.repository.</text>
<text text-anchor="middle" x="488.12" y="-218.5" font-family="Helvetica,sans-Serif" font-size="10.00">SoftwareRepository.findFirstSoftware</text>
</a>
</g>
</g>
<!-- Node6&#45;&gt;Node7 -->
<g id="edge6_Node000006_Node000007" class="edge">
<title>Node6&#45;&gt;Node7</title>
<g id="a_edge6_Node000006_Node000007"><a xlink:title=" ">
<path fill="none" stroke="#63b8ff" d="M340.46,-228C355.33,-228 371.28,-228 386.99,-228"/>
<polygon fill="#63b8ff" stroke="#63b8ff" points="386.85,-231.5 396.85,-228 386.85,-224.5 386.85,-231.5"/>
</a>
</g>
</g>
<!-- Node8&#45;&gt;Node3 -->
<g id="edge15_Node000008_Node000003" class="edge">
<title>Node8&#45;&gt;Node3</title>
<g id="a_edge15_Node000008_Node000003"><a xlink:title=" ">
<path fill="none" stroke="#63b8ff" d="M333.62,-138.5C358.19,-144.82 386.45,-152.09 411.96,-158.66"/>
<polygon fill="#63b8ff" stroke="#63b8ff" points="411.07,-162.04 421.62,-161.15 412.81,-155.26 411.07,-162.04"/>
</a>
</g>
</g>
<!-- Node9 -->
<g id="Node000009" class="node">
<title>Node9</title>
<g id="a_Node000009"><a xlink:href="interfacefr_1_1softsf_1_1sudokufx_1_1interfaces_1_1_i_grid_master.html#a7ae916d7f64607637b7bf5bf33fd0eb3" target="_top" xlink:title="Crée les grilles de Sudoku (résolue et à résoudre) en fonction du niveau de difficulté.">
<polygon fill="white" stroke="#666666" points="558.75,-32 417.5,-32 417.5,0 558.75,0 558.75,-32"/>
<text text-anchor="start" x="425.5" y="-18.5" font-family="Helvetica,sans-Serif" font-size="10.00">fr.softsf.sudokufx.interfaces.</text>
<text text-anchor="middle" x="488.12" y="-6.5" font-family="Helvetica,sans-Serif" font-size="10.00">IGridMaster.creerLesGrilles</text>
</a>
</g>
</g>
<!-- Node8&#45;&gt;Node9 -->
<g id="edge8_Node000008_Node000009" class="edge">
<title>Node8&#45;&gt;Node9</title>
<g id="a_edge8_Node000008_Node000009"><a xlink:title=" ">
<path fill="none" stroke="#63b8ff" d="M289.53,-105.74C312.84,-87.56 353.13,-58.39 392,-41 396.6,-38.94 401.39,-37.03 406.29,-35.25"/>
<polygon fill="#63b8ff" stroke="#63b8ff" points="407.34,-38.59 415.68,-32.06 405.09,-31.97 407.34,-38.59"/>
</a>
</g>
</g>
<!-- Node10 -->
<g id="Node000010" class="node">
<title>Node10</title>
<g id="a_Node000010"><a xlink:href="classfr_1_1softsf_1_1sudokufx_1_1service_1_1_version_service.html#a5fb7ff910f1ed6c5e6478d79649fcdb1" target="_top" xlink:title="Asynchronously checks if the current application version is the latest published version on GitHub.">
<polygon fill="white" stroke="#666666" points="584.25,-144 392,-144 392,-100 584.25,-100 584.25,-144"/>
<text text-anchor="start" x="400" y="-130.5" font-family="Helvetica,sans-Serif" font-size="10.00">fr.softsf.sudokufx.service.</text>
<text text-anchor="start" x="400" y="-118.5" font-family="Helvetica,sans-Serif" font-size="10.00">VersionService.isLatestGitHubPublished</text>
<text text-anchor="middle" x="488.12" y="-106.5" font-family="Helvetica,sans-Serif" font-size="10.00">PackageVersion</text>
</a>
</g>
</g>
<!-- Node8&#45;&gt;Node10 -->
<g id="edge9_Node000008_Node000010" class="edge">
<title>Node8&#45;&gt;Node10</title>
<g id="a_edge9_Node000008_Node000010"><a xlink:title=" ">
<path fill="none" stroke="#63b8ff" d="M356.45,-122C364.34,-122 372.38,-122 380.41,-122"/>
<polygon fill="#63b8ff" stroke="#63b8ff" points="380.22,-125.5 390.22,-122 380.22,-118.5 380.22,-125.5"/>
</a>
</g>
</g>
<!-- Node14 -->
<g id="Node000014" class="node">
<title>Node14</title>
<g id="a_Node000014"><a xlink:href="classfr_1_1softsf_1_1sudokufx_1_1viewmodel_1_1_full_menu_view_model.html#a99e8ff186f421e303199bb273f082c40" target="_top" xlink:title=" ">
<polygon fill="white" stroke="#666666" points="568.5,-82 407.75,-82 407.75,-50 568.5,-50 568.5,-82"/>
<text text-anchor="start" x="415.75" y="-68.5" font-family="Helvetica,sans-Serif" font-size="10.00">fr.softsf.sudokufx.viewmodel.</text>
<text text-anchor="middle" x="488.12" y="-56.5" font-family="Helvetica,sans-Serif" font-size="10.00">FullMenuViewModel.setWelcome</text>
</a>
</g>
</g>
<!-- Node8&#45;&gt;Node14 -->
<g id="edge13_Node000008_Node000014" class="edge">
<title>Node8&#45;&gt;Node14</title>
<g id="a_edge13_Node000008_Node000014"><a xlink:title=" ">
<path fill="none" stroke="#63b8ff" d="M333.62,-105.5C358.19,-99.18 386.45,-91.91 411.96,-85.34"/>
<polygon fill="#63b8ff" stroke="#63b8ff" points="412.81,-88.74 421.62,-82.85 411.07,-81.96 412.81,-88.74"/>
</a>
</g>
</g>
<!-- Node11 -->
<g id="Node000011" class="node">
<title>Node11</title>
<g id="a_Node000011"><a xlink:href="classfr_1_1softsf_1_1sudokufx_1_1service_1_1_version_service.html#ac909ce26310a3c5b01262ad5f3affcbe" target="_top" xlink:title="Parses the JSON response from the GitHub API to extract the latest published version.">
<polygon fill="white" stroke="#666666" points="804.62,-138 652.12,-138 652.12,-106 804.62,-106 804.62,-138"/>
<text text-anchor="start" x="660.12" y="-124.5" font-family="Helvetica,sans-Serif" font-size="10.00">fr.softsf.sudokufx.service.</text>
<text text-anchor="middle" x="728.38" y="-112.5" font-family="Helvetica,sans-Serif" font-size="10.00">VersionService.parseResponse</text>
</a>
</g>
</g>
<!-- Node10&#45;&gt;Node11 -->
<g id="edge10_Node000010_Node000011" class="edge">
<title>Node10&#45;&gt;Node11</title>
<g id="a_edge10_Node000010_Node000011"><a xlink:title=" ">
<path fill="none" stroke="#63b8ff" d="M584.66,-122C603.12,-122 622.36,-122 640.53,-122"/>
<polygon fill="#63b8ff" stroke="#63b8ff" points="640.47,-125.5 650.47,-122 640.47,-118.5 640.47,-125.5"/>
</a>
</g>
</g>
<!-- Node12 -->
<g id="Node000012" class="node">
<title>Node12</title>
<g id="a_Node000012"><a xlink:href="classfr_1_1softsf_1_1sudokufx_1_1service_1_1_version_service.html#af166c049683464c03d118142b986ab71" target="_top" xlink:title="Compares two version strings in the format MAJOR.MINOR.PATCH.">
<polygon fill="white" stroke="#666666" points="1031.75,-163 872.5,-163 872.5,-131 1031.75,-131 1031.75,-163"/>
<text text-anchor="start" x="880.5" y="-149.5" font-family="Helvetica,sans-Serif" font-size="10.00">fr.softsf.sudokufx.service.</text>
<text text-anchor="middle" x="952.12" y="-137.5" font-family="Helvetica,sans-Serif" font-size="10.00">VersionService.compareVersions</text>
</a>
</g>
</g>
<!-- Node11&#45;&gt;Node12 -->
<g id="edge11_Node000011_Node000012" class="edge">
<title>Node11&#45;&gt;Node12</title>
<g id="a_edge11_Node000011_Node000012"><a xlink:title=" ">
<path fill="none" stroke="#63b8ff" d="M805.07,-130.53C823.04,-132.56 842.4,-134.74 860.95,-136.83"/>
<polygon fill="#63b8ff" stroke="#63b8ff" points="860.54,-140.31 870.87,-137.95 861.32,-133.35 860.54,-140.31"/>
</a>
</g>
</g>
<!-- Node13 -->
<g id="Node000013" class="node">
<title>Node13</title>
<g id="a_Node000013"><a xlink:href="classfr_1_1softsf_1_1sudokufx_1_1utils_1_1_my_regex.html#a981702b076ee54a416d676b6f7a182fc" target="_top" xlink:title="Validates the given text against the specified regular expression.">
<polygon fill="white" stroke="#666666" points="1026.5,-113 877.75,-113 877.75,-81 1026.5,-81 1026.5,-113"/>
<text text-anchor="start" x="885.75" y="-99.5" font-family="Helvetica,sans-Serif" font-size="10.00">fr.softsf.sudokufx.utils.</text>
<text text-anchor="middle" x="952.12" y="-87.5" font-family="Helvetica,sans-Serif" font-size="10.00">MyRegex.isValidatedByRegex</text>
</a>
</g>
</g>
<!-- Node11&#45;&gt;Node13 -->
<g id="edge12_Node000011_Node000013" class="edge">
<title>Node11&#45;&gt;Node13</title>
<g id="a_edge12_Node000011_Node000013"><a xlink:title=" ">
<path fill="none" stroke="#63b8ff" d="M805.07,-113.47C824.67,-111.26 845.9,-108.86 865.95,-106.6"/>
<polygon fill="#63b8ff" stroke="#63b8ff" points="866.22,-110.09 875.77,-105.5 865.44,-103.14 866.22,-110.09"/>
</a>
</g>
</g>
<!-- Node15 -->
<g id="Node000015" class="node">
<title>Node15</title>
<g id="a_Node000015"><a xlink:href="classfr_1_1softsf_1_1sudokufx_1_1viewmodel_1_1_full_menu_view_model.html#a574eda9c01df428c38524cc5acf49fbf" target="_top" xlink:title=" ">
<polygon fill="white" stroke="#666666" points="819.62,-82 637.12,-82 637.12,-50 819.62,-50 819.62,-82"/>
<text text-anchor="start" x="645.12" y="-68.5" font-family="Helvetica,sans-Serif" font-size="10.00">fr.softsf.sudokufx.viewmodel.</text>
<text text-anchor="middle" x="728.38" y="-56.5" font-family="Helvetica,sans-Serif" font-size="10.00">FullMenuViewModel.welcomeProperty</text>
</a>
</g>
</g>
<!-- Node14&#45;&gt;Node15 -->
<g id="edge14_Node000014_Node000015" class="edge">
<title>Node14&#45;&gt;Node15</title>
<g id="a_edge14_Node000014_Node000015"><a xlink:title=" ">
<path fill="none" stroke="#63b8ff" d="M568.79,-66C586.91,-66 606.41,-66 625.31,-66"/>
<polygon fill="#63b8ff" stroke="#63b8ff" points="625.16,-69.5 635.16,-66 625.16,-62.5 625.16,-69.5"/>
</a>
</g>
</g>
</g>
</svg>
