<?xml version="1.0" encoding="UTF-8" standalone="no"?>
<!DOCTYPE svg PUBLIC "-//W3C//DTD SVG 1.1//EN"
 "http://www.w3.org/Graphics/SVG/1.1/DTD/svg11.dtd">
<!-- Generated by graphviz version 12.2.0 (20241103.1931)
 -->
<!-- Title: fr.softsf.sudokufx.viewmodel.FullMenuViewModel Pages: 1 -->
<svg width="881pt" height="913pt"
 viewBox="0.00 0.00 881.25 913.00" xmlns="http://www.w3.org/2000/svg" xmlns:xlink="http://www.w3.org/1999/xlink">
<g id="graph0" class="graph" transform="scale(1 1) rotate(0) translate(4 909)">
<title>fr.softsf.sudokufx.viewmodel.FullMenuViewModel</title>
<!-- Node1 -->
<g id="Node000001" class="node">
<title>Node1</title>
<g id="a_Node000001"><a xlink:title="FullMenuViewModel with business logic (not final)">
<polygon fill="#999999" stroke="none" points="699.5,-232 503,-232 503,0 699.5,0 699.5,-232"/>
<text text-anchor="start" x="536.75" y="-218.5" font-family="Helvetica,sans-Serif" font-size="10.00">fr.softsf.sudokufx.viewmodel.</text>
<text text-anchor="start" x="557.38" y="-206.5" font-family="Helvetica,sans-Serif" font-size="10.00">FullMenuViewModel</text>
<text text-anchor="start" x="599.75" y="-190.5" font-family="Helvetica,sans-Serif" font-size="10.00"> </text>
<text text-anchor="start" x="507" y="-174.5" font-family="Helvetica,sans-Serif" font-size="10.00">+</text>
<text text-anchor="start" x="517" y="-174.5" font-family="Helvetica,sans-Serif" font-size="10.00">FullMenuViewModel</text>
<text text-anchor="start" x="517" y="-162.5" font-family="Helvetica,sans-Serif" font-size="10.00">(SoftwareService softwareService,</text>
<text text-anchor="start" x="517" y="-150.5" font-family="Helvetica,sans-Serif" font-size="10.00"> IGridMaster iGridMaster, VersionService</text>
<text text-anchor="start" x="517" y="-138.5" font-family="Helvetica,sans-Serif" font-size="10.00"> versionService)</text>
<text text-anchor="start" x="507" y="-122.5" font-family="Helvetica,sans-Serif" font-size="10.00">+</text>
<text text-anchor="start" x="517" y="-122.5" font-family="Helvetica,sans-Serif" font-size="10.00">void test()</text>
<text text-anchor="start" x="507" y="-106.5" font-family="Helvetica,sans-Serif" font-size="10.00">+</text>
<text text-anchor="start" x="517" y="-106.5" font-family="Helvetica,sans-Serif" font-size="10.00">BooleanProperty versionUp</text>
<text text-anchor="start" x="517" y="-94.5" font-family="Helvetica,sans-Serif" font-size="10.00">ToDateProperty()</text>
<text text-anchor="start" x="507" y="-78.5" font-family="Helvetica,sans-Serif" font-size="10.00">+</text>
<text text-anchor="start" x="517" y="-78.5" font-family="Helvetica,sans-Serif" font-size="10.00">StringProperty welcomeProperty()</text>
<text text-anchor="start" x="508.5" y="-62.5" font-family="Helvetica,sans-Serif" font-size="10.00">&#45;</text>
<text text-anchor="start" x="517" y="-62.5" font-family="Helvetica,sans-Serif" font-size="10.00">void createSoftware()</text>
<text text-anchor="start" x="508.5" y="-46.5" font-family="Helvetica,sans-Serif" font-size="10.00">&#45;</text>
<text text-anchor="start" x="517" y="-46.5" font-family="Helvetica,sans-Serif" font-size="10.00">void setWelcome(String</text>
<text text-anchor="start" x="517" y="-34.5" font-family="Helvetica,sans-Serif" font-size="10.00"> output)</text>
<text text-anchor="start" x="508.5" y="-18.5" font-family="Helvetica,sans-Serif" font-size="10.00">&#45;</text>
<text text-anchor="start" x="517" y="-18.5" font-family="Helvetica,sans-Serif" font-size="10.00">void updateSoftware</text>
<text text-anchor="start" x="517" y="-6.5" font-family="Helvetica,sans-Serif" font-size="10.00">(SoftwareDto softwareToUpdate)</text>
<polygon fill="#666666" stroke="#666666" points="503,-202 503,-202 699.5,-202 699.5,-202 503,-202"/>
<polygon fill="#666666" stroke="#666666" points="503,-186 503,-186 699.5,-186 699.5,-186 503,-186"/>
<polygon fill="none" stroke="#666666" points="503,0 503,-232 699.5,-232 699.5,0 503,0"/>
</a>
</g>
</g>
<!-- Node2 -->
<g id="Node000002" class="node">
<title>Node2</title>
<g id="a_Node000002"><a xlink:href="classfr_1_1softsf_1_1sudokufx_1_1service_1_1_software_service.html" target="_top" xlink:title=" ">
<polygon fill="white" stroke="none" points="345.25,-538 189.25,-538 189.25,-394 345.25,-394 345.25,-538"/>
<text text-anchor="start" x="210.25" y="-524.5" font-family="Helvetica,sans-Serif" font-size="10.00">fr.softsf.sudokufx.service.</text>
<text text-anchor="start" x="231.25" y="-512.5" font-family="Helvetica,sans-Serif" font-size="10.00">SoftwareService</text>
<text text-anchor="start" x="265.75" y="-496.5" font-family="Helvetica,sans-Serif" font-size="10.00"> </text>
<text text-anchor="start" x="193.25" y="-480.5" font-family="Helvetica,sans-Serif" font-size="10.00">+</text>
<text text-anchor="start" x="203.25" y="-480.5" font-family="Helvetica,sans-Serif" font-size="10.00">SoftwareService(Software</text>
<text text-anchor="start" x="203.25" y="-468.5" font-family="Helvetica,sans-Serif" font-size="10.00">Repository softwareRepository)</text>
<text text-anchor="start" x="193.25" y="-452.5" font-family="Helvetica,sans-Serif" font-size="10.00">+</text>
<text text-anchor="start" x="203.25" y="-452.5" font-family="Helvetica,sans-Serif" font-size="10.00">Optional&lt; SoftwareDto</text>
<text text-anchor="start" x="203.25" y="-440.5" font-family="Helvetica,sans-Serif" font-size="10.00"> &gt; getSoftware()</text>
<text text-anchor="start" x="193.25" y="-424.5" font-family="Helvetica,sans-Serif" font-size="10.00">+</text>
<text text-anchor="start" x="203.25" y="-424.5" font-family="Helvetica,sans-Serif" font-size="10.00">Optional&lt; SoftwareDto</text>
<text text-anchor="start" x="203.25" y="-412.5" font-family="Helvetica,sans-Serif" font-size="10.00"> &gt; updateSoftware(SoftwareDto</text>
<text text-anchor="start" x="203.25" y="-400.5" font-family="Helvetica,sans-Serif" font-size="10.00"> softwareDto)</text>
<polygon fill="#666666" stroke="#666666" points="189.25,-508 189.25,-508 345.25,-508 345.25,-508 189.25,-508"/>
<polygon fill="#666666" stroke="#666666" points="189.25,-492 189.25,-492 345.25,-492 345.25,-492 189.25,-492"/>
<polygon fill="none" stroke="#666666" points="189.25,-394 189.25,-538 345.25,-538 345.25,-394 189.25,-394"/>
</a>
</g>
</g>
<!-- Node2&#45;&gt;Node1 -->
<g id="edge1_Node000001_Node000002" class="edge">
<title>Node2&#45;&gt;Node1</title>
<g id="a_edge1_Node000001_Node000002"><a xlink:title=" ">
<path fill="none" stroke="#63b8ff" d="M289.99,-394.26C304.3,-357.36 325.56,-313.14 354.25,-280 392.31,-236.04 444.99,-199.09 491.93,-171.54"/>
<polygon fill="none" stroke="#63b8ff" points="491.92,-171.55 495.12,-165.08 502.32,-165.55 499.12,-172.01 491.92,-171.55"/>
</a>
</g>
<text text-anchor="middle" x="420.33" y="-252.5" font-family="Helvetica,sans-Serif" font-size="10.00" fill="grey"> &#45;softwareService</text>
</g>
<!-- Node3 -->
<g id="Node000003" class="node">
<title>Node3</title>
<g id="a_Node000003"><a xlink:href="interfacefr_1_1softsf_1_1sudokufx_1_1interfaces_1_1mapper_1_1_i_software_mapper.html" target="_top" xlink:title="This interface defines methods for mapping objects of type Software to objects of type SoftwareDto an...">
<polygon fill="white" stroke="none" points="168.5,-804 0,-804 0,-700 168.5,-700 168.5,-804"/>
<text text-anchor="start" x="4" y="-790.5" font-family="Helvetica,sans-Serif" font-size="10.00">fr.softsf.sudokufx.interfaces.mapper.</text>
<text text-anchor="start" x="47.12" y="-778.5" font-family="Helvetica,sans-Serif" font-size="10.00">ISoftwareMapper</text>
<text text-anchor="start" x="82.75" y="-762.5" font-family="Helvetica,sans-Serif" font-size="10.00"> </text>
<text text-anchor="start" x="10.12" y="-746.5" font-family="Helvetica,sans-Serif" font-size="10.00">+</text>
<text text-anchor="start" x="26.25" y="-746.5" font-family="Helvetica,sans-Serif" font-size="10.00">Software mapSoftwareDtoTo</text>
<text text-anchor="start" x="26.25" y="-734.5" font-family="Helvetica,sans-Serif" font-size="10.00">Software(SoftwareDto dto)</text>
<text text-anchor="start" x="10.12" y="-718.5" font-family="Helvetica,sans-Serif" font-size="10.00">+</text>
<text text-anchor="start" x="26.25" y="-718.5" font-family="Helvetica,sans-Serif" font-size="10.00">SoftwareDto mapSoftwareTo</text>
<text text-anchor="start" x="26.25" y="-706.5" font-family="Helvetica,sans-Serif" font-size="10.00">Dto(Software software)</text>
<polygon fill="#666666" stroke="#666666" points="0,-774 0,-774 168.5,-774 168.5,-774 0,-774"/>
<polygon fill="#666666" stroke="#666666" points="0,-758 0,-758 168.5,-758 168.5,-758 0,-758"/>
<polygon fill="none" stroke="#666666" points="0,-700 0,-804 168.5,-804 168.5,-700 0,-700"/>
</a>
</g>
</g>
<!-- Node3&#45;&gt;Node2 -->
<g id="edge2_Node000002_Node000003" class="edge">
<title>Node3&#45;&gt;Node2</title>
<g id="a_edge2_Node000002_Node000003"><a xlink:title=" ">
<path fill="none" stroke="#63b8ff" d="M116.97,-700.23C144.06,-658.18 183.09,-597.61 214.58,-548.74"/>
<polygon fill="none" stroke="#63b8ff" points="214.6,-548.71 214.48,-541.5 221.1,-538.63 221.21,-545.84 214.6,-548.71"/>
</a>
</g>
<text text-anchor="middle" x="173.08" y="-672.5" font-family="Helvetica,sans-Serif" font-size="10.00" fill="grey"> &#45;iSoftwareMapper</text>
</g>
<!-- Node3&#45;&gt;Node3 -->
<g id="edge3_Node000003_Node000003" class="edge">
<title>Node3&#45;&gt;Node3</title>
<g id="a_edge3_Node000003_Node000003"><a xlink:title=" ">
<path fill="none" stroke="#63b8ff" d="M168.49,-763.58C179.33,-761.58 186.5,-757.71 186.5,-752 186.5,-748.87 184.36,-746.3 180.64,-744.29"/>
<polygon fill="none" stroke="#63b8ff" points="180.78,-744.33 173.85,-746.32 169.35,-740.69 176.28,-738.7 180.78,-744.33"/>
</a>
</g>
<text text-anchor="middle" x="216.5" y="-748.5" font-family="Helvetica,sans-Serif" font-size="10.00" fill="grey"> +INSTANCE</text>
</g>
<!-- Node4 -->
<g id="Node000004" class="node">
<title>Node4</title>
<g id="a_Node000004"><a xlink:href="interfacefr_1_1softsf_1_1sudokufx_1_1repository_1_1_software_repository.html" target="_top" xlink:title=" ">
<polygon fill="white" stroke="none" points="397.5,-790 265,-790 265,-714 397.5,-714 397.5,-790"/>
<text text-anchor="start" x="269" y="-776.5" font-family="Helvetica,sans-Serif" font-size="10.00">fr.softsf.sudokufx.repository.</text>
<text text-anchor="start" x="288.12" y="-764.5" font-family="Helvetica,sans-Serif" font-size="10.00">SoftwareRepository</text>
<text text-anchor="start" x="329.75" y="-748.5" font-family="Helvetica,sans-Serif" font-size="10.00"> </text>
<text text-anchor="start" x="274.56" y="-732.5" font-family="Helvetica,sans-Serif" font-size="10.00">+</text>
<text text-anchor="start" x="290.12" y="-732.5" font-family="Helvetica,sans-Serif" font-size="10.00">Optional&lt; Software</text>
<text text-anchor="start" x="290.12" y="-720.5" font-family="Helvetica,sans-Serif" font-size="10.00"> &gt; findFirstSoftware()</text>
<polygon fill="#666666" stroke="#666666" points="265,-760 265,-760 397.5,-760 397.5,-760 265,-760"/>
<polygon fill="#666666" stroke="#666666" points="265,-744 265,-744 397.5,-744 397.5,-744 265,-744"/>
<polygon fill="none" stroke="#666666" points="265,-714 265,-790 397.5,-790 397.5,-714 265,-714"/>
</a>
</g>
</g>
<!-- Node4&#45;&gt;Node2 -->
<g id="edge4_Node000002_Node000004" class="edge">
<title>Node4&#45;&gt;Node2</title>
<g id="a_edge4_Node000002_Node000004"><a xlink:title=" ">
<path fill="none" stroke="#63b8ff" d="M322.95,-714.16C313.65,-672.88 298.26,-604.61 286.02,-550.27"/>
<polygon fill="none" stroke="#63b8ff" points="286.05,-550.44 280.83,-545.46 283.41,-538.73 288.64,-543.7 286.05,-550.44"/>
</a>
</g>
<text text-anchor="middle" x="359.46" y="-672.5" font-family="Helvetica,sans-Serif" font-size="10.00" fill="grey"> &#45;softwareRepository</text>
</g>
<!-- Node5 -->
<g id="Node000005" class="node">
<title>Node5</title>
<g id="a_Node000005"><a xlink:title=" ">
<polygon fill="white" stroke="none" points="392.25,-905 270.25,-905 270.25,-841 392.25,-841 392.25,-905"/>
<text text-anchor="start" x="274.25" y="-891.5" font-family="Helvetica,sans-Serif" font-size="10.00">JpaRepository&lt; Software,</text>
<text text-anchor="start" x="314.75" y="-879.5" font-family="Helvetica,sans-Serif" font-size="10.00"> Long &gt;</text>
<text text-anchor="start" x="329.75" y="-863.5" font-family="Helvetica,sans-Serif" font-size="10.00"> </text>
<text text-anchor="start" x="329.75" y="-847.5" font-family="Helvetica,sans-Serif" font-size="10.00"> </text>
<polygon fill="#666666" stroke="#666666" points="270.25,-875 270.25,-875 392.25,-875 392.25,-875 270.25,-875"/>
<polygon fill="#666666" stroke="#666666" points="270.25,-859 270.25,-859 392.25,-859 392.25,-859 270.25,-859"/>
<polygon fill="none" stroke="#666666" points="270.25,-841 270.25,-905 392.25,-905 392.25,-841 270.25,-841"/>
</a>
</g>
</g>
<!-- Node5&#45;&gt;Node4 -->
<g id="edge5_Node000004_Node000005" class="edge">
<title>Node5&#45;&gt;Node4</title>
<g id="a_edge5_Node000004_Node000005"><a xlink:title=" ">
<path fill="none" stroke="#63b8ff" d="M331.25,-829.91C331.25,-816.79 331.25,-802.44 331.25,-789.72"/>
<polygon fill="none" stroke="#63b8ff" points="327.75,-829.53 331.25,-839.53 334.75,-829.53 327.75,-829.53"/>
</a>
</g>
</g>
<!-- Node6 -->
<g id="Node000006" class="node">
<title>Node6</title>
<g id="a_Node000006"><a xlink:href="interfacefr_1_1softsf_1_1sudokufx_1_1interfaces_1_1_i_grid_master.html" target="_top" xlink:title="Interface defining methods to generate and solve Sudoku puzzles.">
<polygon fill="white" stroke="none" points="496.88,-518 363.62,-518 363.62,-414 496.88,-414 496.88,-518"/>
<text text-anchor="start" x="367.62" y="-504.5" font-family="Helvetica,sans-Serif" font-size="10.00">fr.softsf.sudokufx.interfaces.</text>
<text text-anchor="start" x="404.75" y="-492.5" font-family="Helvetica,sans-Serif" font-size="10.00">IGridMaster</text>
<text text-anchor="start" x="428.75" y="-476.5" font-family="Helvetica,sans-Serif" font-size="10.00"> </text>
<text text-anchor="start" x="373.75" y="-460.5" font-family="Helvetica,sans-Serif" font-size="10.00">+</text>
<text text-anchor="start" x="389.88" y="-460.5" font-family="Helvetica,sans-Serif" font-size="10.00">int[][] creerLesGrilles</text>
<text text-anchor="start" x="389.88" y="-448.5" font-family="Helvetica,sans-Serif" font-size="10.00">(final int niveau)</text>
<text text-anchor="start" x="373.75" y="-432.5" font-family="Helvetica,sans-Serif" font-size="10.00">+</text>
<text text-anchor="start" x="389.88" y="-432.5" font-family="Helvetica,sans-Serif" font-size="10.00">int resoudreLaGrille</text>
<text text-anchor="start" x="389.88" y="-420.5" font-family="Helvetica,sans-Serif" font-size="10.00">(final int[] grille)</text>
<polygon fill="#666666" stroke="#666666" points="363.62,-488 363.62,-488 496.88,-488 496.88,-488 363.62,-488"/>
<polygon fill="#666666" stroke="#666666" points="363.62,-472 363.62,-472 496.88,-472 496.88,-472 363.62,-472"/>
<polygon fill="none" stroke="#666666" points="363.62,-414 363.62,-518 496.88,-518 496.88,-414 363.62,-414"/>
</a>
</g>
</g>
<!-- Node6&#45;&gt;Node1 -->
<g id="edge6_Node000001_Node000006" class="edge">
<title>Node6&#45;&gt;Node1</title>
<g id="a_edge6_Node000001_Node000006"><a xlink:title=" ">
<path fill="none" stroke="#63b8ff" d="M448.9,-414.31C463.27,-376.66 484.34,-324.36 506.25,-280 512.25,-267.86 518.78,-255.39 525.53,-243.01"/>
<polygon fill="none" stroke="#63b8ff" points="525.55,-242.98 524.94,-235.79 531.34,-232.47 531.95,-239.66 525.55,-242.98"/>
</a>
</g>
<text text-anchor="middle" x="548.5" y="-252.5" font-family="Helvetica,sans-Serif" font-size="10.00" fill="grey"> &#45;iGridMaster</text>
</g>
<!-- Node7 -->
<g id="Node000007" class="node">
<title>Node7</title>
<g id="a_Node000007"><a xlink:href="classfr_1_1softsf_1_1sudokufx_1_1service_1_1_version_service.html" target="_top" xlink:title="Service for managing version information from a GitHub repository.">
<polygon fill="white" stroke="none" points="687.12,-652 515.38,-652 515.38,-280 687.12,-280 687.12,-652"/>
<text text-anchor="start" x="544.25" y="-638.5" font-family="Helvetica,sans-Serif" font-size="10.00">fr.softsf.sudokufx.service.</text>
<text text-anchor="start" x="568.62" y="-626.5" font-family="Helvetica,sans-Serif" font-size="10.00">VersionService</text>
<text text-anchor="start" x="520.88" y="-610.5" font-family="Helvetica,sans-Serif" font-size="10.00">&#45;</text>
<text text-anchor="start" x="529.38" y="-610.5" font-family="Helvetica,sans-Serif" font-size="10.00">final String currentVersion</text>
<text text-anchor="start" x="520.88" y="-594.5" font-family="Helvetica,sans-Serif" font-size="10.00">&#45;</text>
<text text-anchor="start" x="529.38" y="-594.5" font-family="Helvetica,sans-Serif" font-size="10.00">static final String</text>
<text text-anchor="start" x="529.38" y="-582.5" font-family="Helvetica,sans-Serif" font-size="10.00"> GITHUB_API_URL</text>
<text text-anchor="start" x="520.88" y="-566.5" font-family="Helvetica,sans-Serif" font-size="10.00">&#45;</text>
<text text-anchor="start" x="529.38" y="-566.5" font-family="Helvetica,sans-Serif" font-size="10.00">static final String</text>
<text text-anchor="start" x="529.38" y="-554.5" font-family="Helvetica,sans-Serif" font-size="10.00"> GITHUB_API_URL_REPO_TAGS</text>
<text text-anchor="start" x="520.88" y="-538.5" font-family="Helvetica,sans-Serif" font-size="10.00">&#45;</text>
<text text-anchor="start" x="529.38" y="-538.5" font-family="Helvetica,sans-Serif" font-size="10.00">static final String</text>
<text text-anchor="start" x="529.38" y="-526.5" font-family="Helvetica,sans-Serif" font-size="10.00"> GITHUB_URL</text>
<text text-anchor="start" x="520.88" y="-510.5" font-family="Helvetica,sans-Serif" font-size="10.00">&#45;</text>
<text text-anchor="start" x="529.38" y="-510.5" font-family="Helvetica,sans-Serif" font-size="10.00">static final String</text>
<text text-anchor="start" x="529.38" y="-498.5" font-family="Helvetica,sans-Serif" font-size="10.00"> OWNER</text>
<text text-anchor="start" x="520.88" y="-482.5" font-family="Helvetica,sans-Serif" font-size="10.00">&#45;</text>
<text text-anchor="start" x="529.38" y="-482.5" font-family="Helvetica,sans-Serif" font-size="10.00">static final String REPO</text>
<text text-anchor="start" x="519.38" y="-466.5" font-family="Helvetica,sans-Serif" font-size="10.00">+</text>
<text text-anchor="start" x="529.38" y="-466.5" font-family="Helvetica,sans-Serif" font-size="10.00">VersionService(HttpClient</text>
<text text-anchor="start" x="529.38" y="-454.5" font-family="Helvetica,sans-Serif" font-size="10.00"> httpClient)</text>
<text text-anchor="start" x="519.38" y="-438.5" font-family="Helvetica,sans-Serif" font-size="10.00">+</text>
<text text-anchor="start" x="529.38" y="-438.5" font-family="Helvetica,sans-Serif" font-size="10.00">CompletableFuture&lt;</text>
<text text-anchor="start" x="529.38" y="-426.5" font-family="Helvetica,sans-Serif" font-size="10.00"> Boolean &gt; checkLatestVersion()</text>
<text text-anchor="start" x="519.38" y="-410.5" font-family="Helvetica,sans-Serif" font-size="10.00">+</text>
<text text-anchor="start" x="529.38" y="-410.5" font-family="Helvetica,sans-Serif" font-size="10.00">String getGitHubLinkToRepository</text>
<text text-anchor="start" x="529.38" y="-398.5" font-family="Helvetica,sans-Serif" font-size="10.00">Releases()</text>
<text text-anchor="start" x="519.38" y="-382.5" font-family="Helvetica,sans-Serif" font-size="10.00">+</text>
<text text-anchor="start" x="529.38" y="-382.5" font-family="Helvetica,sans-Serif" font-size="10.00">ReadOnlyBooleanProperty</text>
<text text-anchor="start" x="529.38" y="-370.5" font-family="Helvetica,sans-Serif" font-size="10.00"> versionUpToDateProperty()</text>
<text text-anchor="start" x="519.75" y="-354.5" font-family="Helvetica,sans-Serif" font-size="10.00">#</text>
<text text-anchor="start" x="529.38" y="-354.5" font-family="Helvetica,sans-Serif" font-size="10.00">Task&lt; Boolean &gt; createTask()</text>
<text text-anchor="start" x="520.88" y="-338.5" font-family="Helvetica,sans-Serif" font-size="10.00">&#45;</text>
<text text-anchor="start" x="529.38" y="-338.5" font-family="Helvetica,sans-Serif" font-size="10.00">int compareVersions</text>
<text text-anchor="start" x="529.38" y="-326.5" font-family="Helvetica,sans-Serif" font-size="10.00">(final String version1,</text>
<text text-anchor="start" x="529.38" y="-314.5" font-family="Helvetica,sans-Serif" font-size="10.00"> final String version2)</text>
<text text-anchor="start" x="520.88" y="-298.5" font-family="Helvetica,sans-Serif" font-size="10.00">&#45;</text>
<text text-anchor="start" x="529.38" y="-298.5" font-family="Helvetica,sans-Serif" font-size="10.00">boolean parseResponse</text>
<text text-anchor="start" x="529.38" y="-286.5" font-family="Helvetica,sans-Serif" font-size="10.00">(String json)</text>
<polygon fill="#666666" stroke="#666666" points="515.38,-622 515.38,-622 687.12,-622 687.12,-622 515.38,-622"/>
<polygon fill="#666666" stroke="#666666" points="515.38,-478 515.38,-478 527.38,-478 527.38,-478 515.38,-478"/>
<polygon fill="#666666" stroke="#666666" points="527.38,-478 527.38,-478 687.12,-478 687.12,-478 527.38,-478"/>
<polygon fill="none" stroke="#666666" points="515.38,-280 515.38,-652 687.12,-652 687.12,-280 515.38,-280"/>
</a>
</g>
</g>
<!-- Node7&#45;&gt;Node1 -->
<g id="edge7_Node000001_Node000007" class="edge">
<title>Node7&#45;&gt;Node1</title>
<g id="a_edge7_Node000001_Node000007"><a xlink:title=" ">
<path fill="none" stroke="#63b8ff" d="M601.25,-280.05C601.25,-268.12 601.25,-256.27 601.25,-244.7"/>
<polygon fill="none" stroke="#63b8ff" points="601.25,-244.69 597.25,-238.69 601.25,-232.69 605.25,-238.69 601.25,-244.69"/>
</a>
</g>
<text text-anchor="middle" x="636.5" y="-252.5" font-family="Helvetica,sans-Serif" font-size="10.00" fill="grey"> &#45;versionService</text>
</g>
<!-- Node8 -->
<g id="Node000008" class="node">
<title>Node8</title>
<g id="a_Node000008"><a xlink:title=" ">
<polygon fill="white" stroke="none" points="535.38,-778 441.12,-778 441.12,-726 535.38,-726 535.38,-778"/>
<text text-anchor="start" x="445.12" y="-764.5" font-family="Helvetica,sans-Serif" font-size="10.00">Service&lt; Boolean &gt;</text>
<text text-anchor="start" x="486.75" y="-748.5" font-family="Helvetica,sans-Serif" font-size="10.00"> </text>
<text text-anchor="start" x="486.75" y="-732.5" font-family="Helvetica,sans-Serif" font-size="10.00"> </text>
<polygon fill="#666666" stroke="#666666" points="441.12,-760 441.12,-760 535.38,-760 535.38,-760 441.12,-760"/>
<polygon fill="#666666" stroke="#666666" points="441.12,-744 441.12,-744 535.38,-744 535.38,-744 441.12,-744"/>
<polygon fill="none" stroke="#666666" points="441.12,-726 441.12,-778 535.38,-778 535.38,-726 441.12,-726"/>
</a>
</g>
</g>
<!-- Node8&#45;&gt;Node7 -->
<g id="edge8_Node000007_Node000008" class="edge">
<title>Node8&#45;&gt;Node7</title>
<g id="a_edge8_Node000007_Node000008"><a xlink:title=" ">
<path fill="none" stroke="#63b8ff" d="M502.32,-715.65C509.22,-698.3 518.11,-675.94 527.74,-651.76"/>
<polygon fill="none" stroke="#63b8ff" points="499.08,-714.3 498.64,-724.89 505.59,-716.89 499.08,-714.3"/>
</a>
</g>
</g>
<!-- Node9 -->
<g id="Node000009" class="node">
<title>Node9</title>
<g id="a_Node000009"><a xlink:title=" ">
<polygon fill="white" stroke="none" points="622.62,-778 553.88,-778 553.88,-726 622.62,-726 622.62,-778"/>
<text text-anchor="start" x="557.88" y="-764.5" font-family="Helvetica,sans-Serif" font-size="10.00">ObjectMapper</text>
<text text-anchor="start" x="586.75" y="-748.5" font-family="Helvetica,sans-Serif" font-size="10.00"> </text>
<text text-anchor="start" x="586.75" y="-732.5" font-family="Helvetica,sans-Serif" font-size="10.00"> </text>
<polygon fill="#666666" stroke="#666666" points="553.88,-760 553.88,-760 622.62,-760 622.62,-760 553.88,-760"/>
<polygon fill="#666666" stroke="#666666" points="553.88,-744 553.88,-744 622.62,-744 622.62,-744 553.88,-744"/>
<polygon fill="none" stroke="#666666" points="553.88,-726 553.88,-778 622.62,-778 622.62,-726 553.88,-726"/>
</a>
</g>
</g>
<!-- Node9&#45;&gt;Node7 -->
<g id="edge9_Node000007_Node000009" class="edge">
<title>Node9&#45;&gt;Node7</title>
<g id="a_edge9_Node000007_Node000009"><a xlink:title=" ">
<path fill="none" stroke="#63b8ff" d="M588.36,-726.18C588.5,-710.14 588.81,-688.83 589.5,-670 589.57,-668.22 589.63,-666.43 589.7,-664.63"/>
<polygon fill="none" stroke="#63b8ff" points="589.7,-664.64 585.95,-658.49 590.19,-652.65 593.94,-658.81 589.7,-664.64"/>
</a>
</g>
<text text-anchor="middle" x="636.38" y="-672.5" font-family="Helvetica,sans-Serif" font-size="10.00" fill="grey"> &#45;OBJECT_MAPPER</text>
</g>
<!-- Node10 -->
<g id="Node000010" class="node">
<title>Node10</title>
<g id="a_Node000010"><a xlink:title=" ">
<polygon fill="white" stroke="none" points="731.38,-778 679.12,-778 679.12,-726 731.38,-726 731.38,-778"/>
<text text-anchor="start" x="683.12" y="-764.5" font-family="Helvetica,sans-Serif" font-size="10.00">HttpClient</text>
<text text-anchor="start" x="703.75" y="-748.5" font-family="Helvetica,sans-Serif" font-size="10.00"> </text>
<text text-anchor="start" x="703.75" y="-732.5" font-family="Helvetica,sans-Serif" font-size="10.00"> </text>
<polygon fill="#666666" stroke="#666666" points="679.12,-760 679.12,-760 731.38,-760 731.38,-760 679.12,-760"/>
<polygon fill="#666666" stroke="#666666" points="679.12,-744 679.12,-744 731.38,-744 731.38,-744 679.12,-744"/>
<polygon fill="none" stroke="#666666" points="679.12,-726 679.12,-778 731.38,-778 731.38,-726 679.12,-726"/>
</a>
</g>
</g>
<!-- Node10&#45;&gt;Node7 -->
<g id="edge10_Node000007_Node000010" class="edge">
<title>Node10&#45;&gt;Node7</title>
<g id="a_edge10_Node000007_Node000010"><a xlink:title=" ">
<path fill="none" stroke="#63b8ff" d="M699.36,-726.32C695.3,-710.15 689.52,-688.65 683.25,-670 682.59,-668.05 681.93,-666.09 681.26,-664.13"/>
<polygon fill="none" stroke="#63b8ff" points="681.27,-664.15 675.51,-659.8 677.32,-652.82 683.07,-657.17 681.27,-664.15"/>
</a>
</g>
<text text-anchor="middle" x="710.76" y="-672.5" font-family="Helvetica,sans-Serif" font-size="10.00" fill="grey"> &#45;httpClient</text>
</g>
<!-- Node11 -->
<g id="Node000011" class="node">
<title>Node11</title>
<g id="a_Node000011"><a xlink:title=" ">
<polygon fill="white" stroke="none" points="859.25,-778 749.25,-778 749.25,-726 859.25,-726 859.25,-778"/>
<text text-anchor="start" x="753.25" y="-764.5" font-family="Helvetica,sans-Serif" font-size="10.00">SimpleBooleanProperty</text>
<text text-anchor="start" x="802.75" y="-748.5" font-family="Helvetica,sans-Serif" font-size="10.00"> </text>
<text text-anchor="start" x="802.75" y="-732.5" font-family="Helvetica,sans-Serif" font-size="10.00"> </text>
<polygon fill="#666666" stroke="#666666" points="749.25,-760 749.25,-760 859.25,-760 859.25,-760 749.25,-760"/>
<polygon fill="#666666" stroke="#666666" points="749.25,-744 749.25,-744 859.25,-744 859.25,-744 749.25,-744"/>
<polygon fill="none" stroke="#666666" points="749.25,-726 749.25,-778 859.25,-778 859.25,-726 749.25,-726"/>
</a>
</g>
</g>
<!-- Node11&#45;&gt;Node7 -->
<g id="edge11_Node000007_Node000011" class="edge">
<title>Node11&#45;&gt;Node7</title>
<g id="a_edge11_Node000007_Node000011"><a xlink:title=" ">
<path fill="none" stroke="#63b8ff" d="M789.23,-726.28C777.46,-708.64 759.7,-685.4 739.25,-670 722.7,-657.54 711.46,-666.07 696.25,-652 696.15,-651.91 696.05,-651.82 695.95,-651.72"/>
<polygon fill="none" stroke="#63b8ff" points="696.13,-651.9 689.05,-650.5 687.61,-643.44 694.69,-644.83 696.13,-651.9"/>
</a>
</g>
<text text-anchor="middle" x="792.99" y="-672.5" font-family="Helvetica,sans-Serif" font-size="10.00" fill="grey"> &#45;versionUpToDate</text>
</g>
<!-- Node12 -->
<g id="Node000012" class="node">
<title>Node12</title>
<g id="a_Node000012"><a xlink:title=" ">
<polygon fill="white" stroke="none" points="775.38,-492 705.12,-492 705.12,-440 775.38,-440 775.38,-492"/>
<text text-anchor="start" x="709.12" y="-478.5" font-family="Helvetica,sans-Serif" font-size="10.00">StringProperty</text>
<text text-anchor="start" x="738.75" y="-462.5" font-family="Helvetica,sans-Serif" font-size="10.00"> </text>
<text text-anchor="start" x="738.75" y="-446.5" font-family="Helvetica,sans-Serif" font-size="10.00"> </text>
<polygon fill="#666666" stroke="#666666" points="705.12,-474 705.12,-474 775.38,-474 775.38,-474 705.12,-474"/>
<polygon fill="#666666" stroke="#666666" points="705.12,-458 705.12,-458 775.38,-458 775.38,-458 705.12,-458"/>
<polygon fill="none" stroke="#666666" points="705.12,-440 705.12,-492 775.38,-492 775.38,-440 705.12,-440"/>
</a>
</g>
</g>
<!-- Node12&#45;&gt;Node1 -->
<g id="edge12_Node000001_Node000012" class="edge">
<title>Node12&#45;&gt;Node1</title>
<g id="a_edge12_Node000001_Node000012"><a xlink:title=" ">
<path fill="none" stroke="#63b8ff" d="M736.71,-440.05C731.04,-403.84 718.26,-335.02 696.25,-280 691.41,-267.9 685.78,-255.63 679.72,-243.52"/>
<polygon fill="none" stroke="#63b8ff" points="679.69,-243.46 673.39,-239.95 674.2,-232.78 680.5,-236.29 679.69,-243.46"/>
</a>
</g>
<text text-anchor="middle" x="710.7" y="-252.5" font-family="Helvetica,sans-Serif" font-size="10.00" fill="grey"> &#45;welcome</text>
</g>
<!-- Node13 -->
<g id="Node000013" class="node">
<title>Node13</title>
<g id="a_Node000013"><a xlink:title=" ">
<polygon fill="white" stroke="none" points="873.25,-492 793.25,-492 793.25,-440 873.25,-440 873.25,-492"/>
<text text-anchor="start" x="797.25" y="-478.5" font-family="Helvetica,sans-Serif" font-size="10.00">BooleanProperty</text>
<text text-anchor="start" x="831.75" y="-462.5" font-family="Helvetica,sans-Serif" font-size="10.00"> </text>
<text text-anchor="start" x="831.75" y="-446.5" font-family="Helvetica,sans-Serif" font-size="10.00"> </text>
<polygon fill="#666666" stroke="#666666" points="793.25,-474 793.25,-474 873.25,-474 873.25,-474 793.25,-474"/>
<polygon fill="#666666" stroke="#666666" points="793.25,-458 793.25,-458 873.25,-458 873.25,-458 793.25,-458"/>
<polygon fill="none" stroke="#666666" points="793.25,-440 793.25,-492 873.25,-492 873.25,-440 793.25,-440"/>
</a>
</g>
</g>
<!-- Node13&#45;&gt;Node1 -->
<g id="edge13_Node000001_Node000013" class="edge">
<title>Node13&#45;&gt;Node1</title>
<g id="a_edge13_Node000001_Node000013"><a xlink:title=" ">
<path fill="none" stroke="#63b8ff" d="M831.24,-440.17C827.26,-402.9 815.82,-331.38 784.25,-280 764.72,-248.22 737.11,-219.09 709.24,-194.53"/>
<polygon fill="none" stroke="#63b8ff" points="709.15,-194.46 702,-193.57 700.06,-186.62 707.22,-187.51 709.15,-194.46"/>
</a>
</g>
<text text-anchor="middle" x="788.09" y="-252.5" font-family="Helvetica,sans-Serif" font-size="10.00" fill="grey"> &#45;version</text>
</g>
</g>
</svg>
