<?xml version="1.0" encoding="UTF-8" standalone="no"?>
<!DOCTYPE svg PUBLIC "-//W3C//DTD SVG 1.1//EN"
 "http://www.w3.org/Graphics/SVG/1.1/DTD/svg11.dtd">
<!-- Generated by graphviz version 12.2.1 (20241206.2353)
 -->
<!-- Title: fr.softsf.sudokufx.viewmodel.FullMenuViewModel Pages: 1 -->
<!--zoomable 889 -->

<svg id="main" version="1.1" xmlns="http://www.w3.org/2000/svg" xmlns:xlink="http://www.w3.org/1999/xlink" xml:space="preserve" onload="init(evt)">

<style type="text/css"><![CDATA[
.node, .edge {opacity: 0.7;}
.node.selected, .edge.selected {opacity: 1;}
.edge:hover path { stroke: red; }
.edge:hover polygon { stroke: red; fill: red; }
]]></style>

<defs>
  <circle id="rim" cx="0" cy="0" r="7"/>
  <circle id="rim2" cx="0" cy="0" r="3.5"/>
  <g id="zoomPlus">
    <use xlink:href="#rim" fill="#404040"><set attributeName="fill" to="#808080" begin="zoomplus.mouseover" end="zoomplus.mouseout"/></use>
    <path d="M-4,0h8M0,-4v8" fill="none" stroke="white" stroke-width="1.5" pointer-events="none"/>
  </g>
  <g id="zoomMin">
    <use xlink:href="#rim" fill="#404040"><set attributeName="fill" to="#808080" begin="zoomminus.mouseover" end="zoomminus.mouseout"/></use>
    <path d="M-4,0h8" fill="none" stroke="white" stroke-width="1.5" pointer-events="none"/>
  </g>
  <g id="arrowUp" transform="translate(30 24)">
    <use xlink:href="#rim"/>
    <path pointer-events="none" fill="none" stroke="white" stroke-width="1.5" d="M0,-3.0v7 M-2.5,-0.5L0,-3.0L2.5,-0.5"/>
  </g>
  <g id="arrowRight" transform="rotate(90) translate(36 -43)">
    <use xlink:href="#rim"/>
    <path pointer-events="none" fill="none" stroke="white" stroke-width="1.5" d="M0,-3.0v7 M-2.5,-0.5L0,-3.0L2.5,-0.5"/>
  </g>
  <g id="arrowDown" transform="rotate(180) translate(-30 -48)">
    <use xlink:href="#rim"/>
    <path pointer-events="none" fill="none" stroke="white" stroke-width="1.5" d="M0,-3.0v7 M-2.5,-0.5L0,-3.0L2.5,-0.5"/>
  </g>
  <g id="arrowLeft" transform="rotate(270) translate(-36 17)">
    <use xlink:href="#rim"/>
    <path pointer-events="none" fill="none" stroke="white" stroke-width="1.5" d="M0,-3.0v7 M-2.5,-0.5L0,-3.0L2.5,-0.5"/>
  </g>
  <g id="resetDef">
    <use xlink:href="#rim2" fill="#404040"><set attributeName="fill" to="#808080" begin="reset.mouseover" end="reset.mouseout"/></use>
  </g>
</defs>
<script type="application/ecmascript">
var viewWidth = 478;
var viewHeight = 889;
var sectionId = 'dynsection-0';
</script>
<script type="application/ecmascript" xlink:href="svg.min.js"/>
<svg id="graph" class="graph">
<g id="viewport">
<title>fr.softsf.sudokufx.viewmodel.FullMenuViewModel</title>
<!-- Node1 -->
<g id="Node000001" class="node">
<title>Node1</title>
<g id="a_Node000001"><a xlink:title="FullMenuViewModel with business logic (not final)">
<polygon fill="#999999" stroke="none" points="395.5,-336 199,-336 199,0 395.5,0 395.5,-336"/>
<text text-anchor="start" x="232.75" y="-322.5" font-family="Helvetica,sans-Serif" font-size="10.00">fr.softsf.sudokufx.viewmodel.</text>
<text text-anchor="start" x="253.38" y="-310.5" font-family="Helvetica,sans-Serif" font-size="10.00">FullMenuViewModel</text>
<text text-anchor="start" x="204.5" y="-294.5" font-family="Helvetica,sans-Serif" font-size="10.00">&#45;</text>
<text text-anchor="start" x="213" y="-294.5" font-family="Helvetica,sans-Serif" font-size="10.00">final StringProperty</text>
<text text-anchor="start" x="213" y="-282.5" font-family="Helvetica,sans-Serif" font-size="10.00"> githubVersion</text>
<text text-anchor="start" x="204.5" y="-266.5" font-family="Helvetica,sans-Serif" font-size="10.00">&#45;</text>
<text text-anchor="start" x="213" y="-266.5" font-family="Helvetica,sans-Serif" font-size="10.00">final IGridMaster iGridMaster</text>
<text text-anchor="start" x="204.5" y="-250.5" font-family="Helvetica,sans-Serif" font-size="10.00">&#45;</text>
<text text-anchor="start" x="213" y="-250.5" font-family="Helvetica,sans-Serif" font-size="10.00">final SimpleBooleanProperty</text>
<text text-anchor="start" x="213" y="-238.5" font-family="Helvetica,sans-Serif" font-size="10.00"> version</text>
<text text-anchor="start" x="204.5" y="-222.5" font-family="Helvetica,sans-Serif" font-size="10.00">&#45;</text>
<text text-anchor="start" x="213" y="-222.5" font-family="Helvetica,sans-Serif" font-size="10.00">StringProperty welcome</text>
<text text-anchor="start" x="203" y="-206.5" font-family="Helvetica,sans-Serif" font-size="10.00">+</text>
<text text-anchor="start" x="213" y="-206.5" font-family="Helvetica,sans-Serif" font-size="10.00">FullMenuViewModel</text>
<text text-anchor="start" x="213" y="-194.5" font-family="Helvetica,sans-Serif" font-size="10.00">(SoftwareService softwareService,</text>
<text text-anchor="start" x="213" y="-182.5" font-family="Helvetica,sans-Serif" font-size="10.00"> IGridMaster iGridMaster, VersionService</text>
<text text-anchor="start" x="213" y="-170.5" font-family="Helvetica,sans-Serif" font-size="10.00"> versionService)</text>
<text text-anchor="start" x="203" y="-154.5" font-family="Helvetica,sans-Serif" font-size="10.00">+</text>
<text text-anchor="start" x="213" y="-154.5" font-family="Helvetica,sans-Serif" font-size="10.00">ReadOnlyStringProperty</text>
<text text-anchor="start" x="213" y="-142.5" font-family="Helvetica,sans-Serif" font-size="10.00"> githubVersionProperty()</text>
<text text-anchor="start" x="203" y="-126.5" font-family="Helvetica,sans-Serif" font-size="10.00">+</text>
<text text-anchor="start" x="213" y="-126.5" font-family="Helvetica,sans-Serif" font-size="10.00">void test()</text>
<text text-anchor="start" x="203" y="-110.5" font-family="Helvetica,sans-Serif" font-size="10.00">+</text>
<text text-anchor="start" x="213" y="-110.5" font-family="Helvetica,sans-Serif" font-size="10.00">BooleanProperty versionProperty()</text>
<text text-anchor="start" x="203" y="-94.5" font-family="Helvetica,sans-Serif" font-size="10.00">+</text>
<text text-anchor="start" x="213" y="-94.5" font-family="Helvetica,sans-Serif" font-size="10.00">StringProperty welcomeProperty()</text>
<text text-anchor="start" x="204.5" y="-78.5" font-family="Helvetica,sans-Serif" font-size="10.00">&#45;</text>
<text text-anchor="start" x="213" y="-78.5" font-family="Helvetica,sans-Serif" font-size="10.00">void checkGitHubVersion()</text>
<text text-anchor="start" x="204.5" y="-62.5" font-family="Helvetica,sans-Serif" font-size="10.00">&#45;</text>
<text text-anchor="start" x="213" y="-62.5" font-family="Helvetica,sans-Serif" font-size="10.00">void createSoftware()</text>
<text text-anchor="start" x="204.5" y="-46.5" font-family="Helvetica,sans-Serif" font-size="10.00">&#45;</text>
<text text-anchor="start" x="213" y="-46.5" font-family="Helvetica,sans-Serif" font-size="10.00">void setWelcome(String</text>
<text text-anchor="start" x="213" y="-34.5" font-family="Helvetica,sans-Serif" font-size="10.00"> output)</text>
<text text-anchor="start" x="204.5" y="-18.5" font-family="Helvetica,sans-Serif" font-size="10.00">&#45;</text>
<text text-anchor="start" x="213" y="-18.5" font-family="Helvetica,sans-Serif" font-size="10.00">void updateSoftware</text>
<text text-anchor="start" x="213" y="-6.5" font-family="Helvetica,sans-Serif" font-size="10.00">(SoftwareDto softwareToUpdate)</text>
<polygon fill="#666666" stroke="#666666" points="199,-306 199,-306 395.5,-306 395.5,-306 199,-306"/>
<polygon fill="#666666" stroke="#666666" points="199,-218 199,-218 211,-218 211,-218 199,-218"/>
<polygon fill="#666666" stroke="#666666" points="211,-218 211,-218 395.5,-218 395.5,-218 211,-218"/>
<polygon fill="none" stroke="#666666" points="199,0 199,-336 395.5,-336 395.5,0 199,0"/>
</a>
</g>
</g>
<!-- Node2 -->
<g id="Node000002" class="node">
<title>Node2</title>
<g id="a_Node000002"><a xlink:href="classfr_1_1softsf_1_1sudokufx_1_1service_1_1_software_service.html" target="_top" xlink:title=" ">
<polygon fill="white" stroke="none" points="285.25,-578 129.25,-578 129.25,-434 285.25,-434 285.25,-578"/>
<text text-anchor="start" x="150.25" y="-564.5" font-family="Helvetica,sans-Serif" font-size="10.00">fr.softsf.sudokufx.service.</text>
<text text-anchor="start" x="171.25" y="-552.5" font-family="Helvetica,sans-Serif" font-size="10.00">SoftwareService</text>
<text text-anchor="start" x="205.75" y="-536.5" font-family="Helvetica,sans-Serif" font-size="10.00"> </text>
<text text-anchor="start" x="133.25" y="-520.5" font-family="Helvetica,sans-Serif" font-size="10.00">+</text>
<text text-anchor="start" x="143.25" y="-520.5" font-family="Helvetica,sans-Serif" font-size="10.00">SoftwareService(Software</text>
<text text-anchor="start" x="143.25" y="-508.5" font-family="Helvetica,sans-Serif" font-size="10.00">Repository softwareRepository)</text>
<text text-anchor="start" x="133.25" y="-492.5" font-family="Helvetica,sans-Serif" font-size="10.00">+</text>
<text text-anchor="start" x="143.25" y="-492.5" font-family="Helvetica,sans-Serif" font-size="10.00">Optional&lt; SoftwareDto</text>
<text text-anchor="start" x="143.25" y="-480.5" font-family="Helvetica,sans-Serif" font-size="10.00"> &gt; getSoftware()</text>
<text text-anchor="start" x="133.25" y="-464.5" font-family="Helvetica,sans-Serif" font-size="10.00">+</text>
<text text-anchor="start" x="143.25" y="-464.5" font-family="Helvetica,sans-Serif" font-size="10.00">Optional&lt; SoftwareDto</text>
<text text-anchor="start" x="143.25" y="-452.5" font-family="Helvetica,sans-Serif" font-size="10.00"> &gt; updateSoftware(SoftwareDto</text>
<text text-anchor="start" x="143.25" y="-440.5" font-family="Helvetica,sans-Serif" font-size="10.00"> softwareDto)</text>
<polygon fill="#666666" stroke="#666666" points="129.25,-548 129.25,-548 285.25,-548 285.25,-548 129.25,-548"/>
<polygon fill="#666666" stroke="#666666" points="129.25,-532 129.25,-532 285.25,-532 285.25,-532 129.25,-532"/>
<polygon fill="none" stroke="#666666" points="129.25,-434 129.25,-578 285.25,-578 285.25,-434 129.25,-434"/>
</a>
</g>
</g>
<!-- Node2&#45;&gt;Node1 -->
<g id="edge1_Node000001_Node000002" class="edge">
<title>Node2&#45;&gt;Node1</title>
<g id="a_edge1_Node000001_Node000002"><a xlink:title=" ">
<path fill="none" stroke="#63b8ff" d="M226.23,-434.15C233.03,-408.77 241.03,-378.88 249.17,-348.48"/>
<polygon fill="none" stroke="#63b8ff" points="249.21,-348.36 246.89,-341.53 252.31,-336.77 254.62,-343.6 249.21,-348.36"/>
</a>
</g>
<text text-anchor="middle" x="285.11" y="-356.5" font-family="Helvetica,sans-Serif" font-size="10.00" fill="grey"> &#45;softwareService</text>
</g>
<!-- Node3 -->
<g id="Node000003" class="node">
<title>Node3</title>
<g id="a_Node000003"><a xlink:href="interfacefr_1_1softsf_1_1sudokufx_1_1interfaces_1_1mapper_1_1_i_software_mapper.html" target="_top" xlink:title="This interface defines methods for mapping objects of type Software to objects of type SoftwareDto an...">
<polygon fill="white" stroke="none" points="168.5,-780 0,-780 0,-676 168.5,-676 168.5,-780"/>
<text text-anchor="start" x="4" y="-766.5" font-family="Helvetica,sans-Serif" font-size="10.00">fr.softsf.sudokufx.interfaces.mapper.</text>
<text text-anchor="start" x="47.12" y="-754.5" font-family="Helvetica,sans-Serif" font-size="10.00">ISoftwareMapper</text>
<text text-anchor="start" x="82.75" y="-738.5" font-family="Helvetica,sans-Serif" font-size="10.00"> </text>
<text text-anchor="start" x="10.12" y="-722.5" font-family="Helvetica,sans-Serif" font-size="10.00">+</text>
<text text-anchor="start" x="26.25" y="-722.5" font-family="Helvetica,sans-Serif" font-size="10.00">Software mapSoftwareDtoTo</text>
<text text-anchor="start" x="26.25" y="-710.5" font-family="Helvetica,sans-Serif" font-size="10.00">Software(SoftwareDto dto)</text>
<text text-anchor="start" x="10.12" y="-694.5" font-family="Helvetica,sans-Serif" font-size="10.00">+</text>
<text text-anchor="start" x="26.25" y="-694.5" font-family="Helvetica,sans-Serif" font-size="10.00">SoftwareDto mapSoftwareTo</text>
<text text-anchor="start" x="26.25" y="-682.5" font-family="Helvetica,sans-Serif" font-size="10.00">Dto(Software software)</text>
<polygon fill="#666666" stroke="#666666" points="0,-750 0,-750 168.5,-750 168.5,-750 0,-750"/>
<polygon fill="#666666" stroke="#666666" points="0,-734 0,-734 168.5,-734 168.5,-734 0,-734"/>
<polygon fill="none" stroke="#666666" points="0,-676 0,-780 168.5,-780 168.5,-676 0,-676"/>
</a>
</g>
</g>
<!-- Node3&#45;&gt;Node2 -->
<g id="edge2_Node000002_Node000003" class="edge">
<title>Node3&#45;&gt;Node2</title>
<g id="a_edge2_Node000002_Node000003"><a xlink:title=" ">
<path fill="none" stroke="#63b8ff" d="M112.62,-676.25C127.09,-650.37 145.05,-618.25 161.42,-588.98"/>
<polygon fill="none" stroke="#63b8ff" points="161.31,-589.17 160.74,-581.98 167.16,-578.7 167.73,-585.89 161.31,-589.17"/>
</a>
</g>
<text text-anchor="middle" x="167.3" y="-648.5" font-family="Helvetica,sans-Serif" font-size="10.00" fill="grey"> &#45;iSoftwareMapper</text>
</g>
<!-- Node3&#45;&gt;Node3 -->
<g id="edge3_Node000003_Node000003" class="edge">
<title>Node3&#45;&gt;Node3</title>
<g id="a_edge3_Node000003_Node000003"><a xlink:title=" ">
<path fill="none" stroke="#63b8ff" d="M168.49,-739.58C179.33,-737.58 186.5,-733.71 186.5,-728 186.5,-724.87 184.36,-722.3 180.64,-720.29"/>
<polygon fill="none" stroke="#63b8ff" points="180.78,-720.33 173.85,-722.32 169.35,-716.69 176.28,-714.7 180.78,-720.33"/>
</a>
</g>
<text text-anchor="middle" x="216.5" y="-724.5" font-family="Helvetica,sans-Serif" font-size="10.00" fill="grey"> +INSTANCE</text>
</g>
<!-- Node4 -->
<g id="Node000004" class="node">
<title>Node4</title>
<g id="a_Node000004"><a xlink:href="interfacefr_1_1softsf_1_1sudokufx_1_1repository_1_1_software_repository.html" target="_top" xlink:title=" ">
<polygon fill="white" stroke="none" points="397.5,-766 265,-766 265,-690 397.5,-690 397.5,-766"/>
<text text-anchor="start" x="269" y="-752.5" font-family="Helvetica,sans-Serif" font-size="10.00">fr.softsf.sudokufx.repository.</text>
<text text-anchor="start" x="288.12" y="-740.5" font-family="Helvetica,sans-Serif" font-size="10.00">SoftwareRepository</text>
<text text-anchor="start" x="329.75" y="-724.5" font-family="Helvetica,sans-Serif" font-size="10.00"> </text>
<text text-anchor="start" x="274.56" y="-708.5" font-family="Helvetica,sans-Serif" font-size="10.00">+</text>
<text text-anchor="start" x="290.12" y="-708.5" font-family="Helvetica,sans-Serif" font-size="10.00">Optional&lt; Software</text>
<text text-anchor="start" x="290.12" y="-696.5" font-family="Helvetica,sans-Serif" font-size="10.00"> &gt; findFirstSoftware()</text>
<polygon fill="#666666" stroke="#666666" points="265,-736 265,-736 397.5,-736 397.5,-736 265,-736"/>
<polygon fill="#666666" stroke="#666666" points="265,-720 265,-720 397.5,-720 397.5,-720 265,-720"/>
<polygon fill="none" stroke="#666666" points="265,-690 265,-766 397.5,-766 397.5,-690 265,-690"/>
</a>
</g>
</g>
<!-- Node4&#45;&gt;Node2 -->
<g id="edge4_Node000002_Node000004" class="edge">
<title>Node4&#45;&gt;Node2</title>
<g id="a_edge4_Node000002_Node000004"><a xlink:title=" ">
<path fill="none" stroke="#63b8ff" d="M310.5,-690.18C294.94,-662.58 273.05,-623.75 253.43,-588.93"/>
<polygon fill="none" stroke="#63b8ff" points="253.48,-589.02 247.05,-585.76 247.59,-578.57 254.02,-581.83 253.48,-589.02"/>
</a>
</g>
<text text-anchor="middle" x="336.52" y="-648.5" font-family="Helvetica,sans-Serif" font-size="10.00" fill="grey"> &#45;softwareRepository</text>
</g>
<!-- Node5 -->
<g id="Node000005" class="node">
<title>Node5</title>
<g id="a_Node000005"><a xlink:title=" ">
<polygon fill="white" stroke="none" points="392.25,-881 270.25,-881 270.25,-817 392.25,-817 392.25,-881"/>
<text text-anchor="start" x="274.25" y="-867.5" font-family="Helvetica,sans-Serif" font-size="10.00">JpaRepository&lt; Software,</text>
<text text-anchor="start" x="314.75" y="-855.5" font-family="Helvetica,sans-Serif" font-size="10.00"> Long &gt;</text>
<text text-anchor="start" x="329.75" y="-839.5" font-family="Helvetica,sans-Serif" font-size="10.00"> </text>
<text text-anchor="start" x="329.75" y="-823.5" font-family="Helvetica,sans-Serif" font-size="10.00"> </text>
<polygon fill="#666666" stroke="#666666" points="270.25,-851 270.25,-851 392.25,-851 392.25,-851 270.25,-851"/>
<polygon fill="#666666" stroke="#666666" points="270.25,-835 270.25,-835 392.25,-835 392.25,-835 270.25,-835"/>
<polygon fill="none" stroke="#666666" points="270.25,-817 270.25,-881 392.25,-881 392.25,-817 270.25,-817"/>
</a>
</g>
</g>
<!-- Node5&#45;&gt;Node4 -->
<g id="edge5_Node000004_Node000005" class="edge">
<title>Node5&#45;&gt;Node4</title>
<g id="a_edge5_Node000004_Node000005"><a xlink:title=" ">
<path fill="none" stroke="#63b8ff" d="M331.25,-805.91C331.25,-792.79 331.25,-778.44 331.25,-765.72"/>
<polygon fill="none" stroke="#63b8ff" points="327.75,-805.53 331.25,-815.53 334.75,-805.53 327.75,-805.53"/>
</a>
</g>
</g>
<!-- Node6 -->
<g id="Node000006" class="node">
<title>Node6</title>
<g id="a_Node000006"><a xlink:href="classfr_1_1softsf_1_1sudokufx_1_1service_1_1_version_service.html" target="_top" xlink:title="Service for checking if the application version is up to date by querying GitHub.">
<polygon fill="white" stroke="none" points="469.5,-628 303,-628 303,-384 469.5,-384 469.5,-628"/>
<text text-anchor="start" x="329.25" y="-614.5" font-family="Helvetica,sans-Serif" font-size="10.00">fr.softsf.sudokufx.service.</text>
<text text-anchor="start" x="353.62" y="-602.5" font-family="Helvetica,sans-Serif" font-size="10.00">VersionService</text>
<text text-anchor="start" x="308.5" y="-586.5" font-family="Helvetica,sans-Serif" font-size="10.00">&#45;</text>
<text text-anchor="start" x="317" y="-586.5" font-family="Helvetica,sans-Serif" font-size="10.00">final String currentVersion</text>
<text text-anchor="start" x="308.5" y="-570.5" font-family="Helvetica,sans-Serif" font-size="10.00">&#45;</text>
<text text-anchor="start" x="317" y="-570.5" font-family="Helvetica,sans-Serif" font-size="10.00">final HttpClient httpClient</text>
<text text-anchor="start" x="308.5" y="-554.5" font-family="Helvetica,sans-Serif" font-size="10.00">&#45;</text>
<text text-anchor="start" x="317" y="-554.5" font-family="Helvetica,sans-Serif" font-size="10.00">static final ObjectMapper</text>
<text text-anchor="start" x="317" y="-542.5" font-family="Helvetica,sans-Serif" font-size="10.00"> OBJECT_MAPPER</text>
<text text-anchor="start" x="307" y="-526.5" font-family="Helvetica,sans-Serif" font-size="10.00">+</text>
<text text-anchor="start" x="317" y="-526.5" font-family="Helvetica,sans-Serif" font-size="10.00">VersionService(HttpClient</text>
<text text-anchor="start" x="317" y="-514.5" font-family="Helvetica,sans-Serif" font-size="10.00"> httpClient)</text>
<text text-anchor="start" x="307" y="-498.5" font-family="Helvetica,sans-Serif" font-size="10.00">+</text>
<text text-anchor="start" x="317" y="-498.5" font-family="Helvetica,sans-Serif" font-size="10.00">Task&lt; Boolean &gt; checkLatest</text>
<text text-anchor="start" x="317" y="-486.5" font-family="Helvetica,sans-Serif" font-size="10.00">Version()</text>
<text text-anchor="start" x="307" y="-470.5" font-family="Helvetica,sans-Serif" font-size="10.00">+</text>
<text text-anchor="start" x="317" y="-470.5" font-family="Helvetica,sans-Serif" font-size="10.00">String getGitHubLinkToRepository</text>
<text text-anchor="start" x="317" y="-458.5" font-family="Helvetica,sans-Serif" font-size="10.00">Releases()</text>
<text text-anchor="start" x="308.5" y="-442.5" font-family="Helvetica,sans-Serif" font-size="10.00">&#45;</text>
<text text-anchor="start" x="317" y="-442.5" font-family="Helvetica,sans-Serif" font-size="10.00">int compareVersions</text>
<text text-anchor="start" x="317" y="-430.5" font-family="Helvetica,sans-Serif" font-size="10.00">(final String version1,</text>
<text text-anchor="start" x="317" y="-418.5" font-family="Helvetica,sans-Serif" font-size="10.00"> final String version2)</text>
<text text-anchor="start" x="308.5" y="-402.5" font-family="Helvetica,sans-Serif" font-size="10.00">&#45;</text>
<text text-anchor="start" x="317" y="-402.5" font-family="Helvetica,sans-Serif" font-size="10.00">boolean parseResponse</text>
<text text-anchor="start" x="317" y="-390.5" font-family="Helvetica,sans-Serif" font-size="10.00">(String json)</text>
<polygon fill="#666666" stroke="#666666" points="303,-598 303,-598 469.5,-598 469.5,-598 303,-598"/>
<polygon fill="#666666" stroke="#666666" points="303,-538 303,-538 315,-538 315,-538 303,-538"/>
<polygon fill="#666666" stroke="#666666" points="315,-538 315,-538 469.5,-538 469.5,-538 315,-538"/>
<polygon fill="none" stroke="#666666" points="303,-384 303,-628 469.5,-628 469.5,-384 303,-384"/>
</a>
</g>
</g>
<!-- Node6&#45;&gt;Node1 -->
<g id="edge6_Node000001_Node000006" class="edge">
<title>Node6&#45;&gt;Node1</title>
<g id="a_edge6_Node000001_Node000006"><a xlink:title=" ">
<path fill="none" stroke="#63b8ff" d="M354.24,-384.17C351.16,-372.51 347.98,-360.52 344.78,-348.45"/>
<polygon fill="none" stroke="#63b8ff" points="344.75,-348.33 339.35,-343.55 341.68,-336.73 347.08,-341.51 344.75,-348.33"/>
</a>
</g>
<text text-anchor="middle" x="382.33" y="-356.5" font-family="Helvetica,sans-Serif" font-size="10.00" fill="grey"> &#45;versionService</text>
</g>
</g>
</svg>

<g id="navigator" transform="translate(0 0)" fill="#404254">
  <rect fill="#f2f5e9" fill-opacity="0.5" stroke="#606060" stroke-width=".5" x="0" y="0" width="60" height="60"/>
  <use id="zoomplus" xlink:href="#zoomPlus" x="17" y="9" onmousedown="handleZoom(evt,'in')"/>
  <use id="zoomminus" xlink:href="#zoomMin" x="42" y="9" onmousedown="handleZoom(evt,'out')"/>
  <use id="reset" xlink:href="#resetDef" x="30" y="36" onmousedown="handleReset()"/>
   <use id="arrowup" xlink:href="#arrowUp" x="0" y="0" onmousedown="handlePan(0,-1)"/>
  <use id="arrowright" xlink:href="#arrowRight" x="0" y="0" onmousedown="handlePan(1,0)"/>
  <use id="arrowdown" xlink:href="#arrowDown" x="0" y="0" onmousedown="handlePan(0,1)"/>
  <use id="arrowleft" xlink:href="#arrowLeft" x="0" y="0" onmousedown="handlePan(-1,0)"/>
</g>
<svg viewBox="0 0 15 15" width="100%" height="30px" preserveAspectRatio="xMaxYMin meet">
 <g id="arrow_out" transform="scale(0.3 0.3)">
  <a xlink:href="classfr_1_1softsf_1_1sudokufx_1_1viewmodel_1_1_full_menu_view_model__coll__graph_org.svg" target="_base">
   <rect id="button" ry="5" rx="5" y="6" x="6" height="38" width="38"
        fill="#f2f5e9" fill-opacity="0.5" stroke="#606060" stroke-width="1.0"/>
   <path id="arrow"
     d="M 11.500037,31.436501 C 11.940474,20.09759 22.043105,11.32322 32.158766,21.979434 L 37.068811,17.246167 C 37.068811,17.246167 37.088388,32 37.088388,32 L 22.160133,31.978069 C 22.160133,31.978069 26.997745,27.140456 26.997745,27.140456 C 18.528582,18.264221 13.291696,25.230495 11.500037,31.436501 z"
     style="fill:#404040;"/>
  </a>
 </g>
</svg>

<style type='text/css'>
<![CDATA[
[data-mouse-over-selected='false'] { opacity: 0.7; }
[data-mouse-over-selected='true']  { opacity: 1.0; }
]]>
</style>
<script type="application/ecmascript"><![CDATA[
document.addEventListener('DOMContentLoaded', (event) => {
  highlightEdges();
  highlightAdjacentNodes();
});
]]></script>
</svg>
