<?xml version="1.0" encoding="UTF-8" standalone="no"?>
<!DOCTYPE svg PUBLIC "-//W3C//DTD SVG 1.1//EN"
 "http://www.w3.org/Graphics/SVG/1.1/DTD/svg11.dtd">
<!-- Generated by graphviz version 12.2.0 (20241103.1931)
 -->
<!-- Title: fr.softsf.sudokufx.service.VersionService Pages: 1 -->
<svg width="196pt" height="464pt"
 viewBox="0.00 0.00 196.09 464.00" xmlns="http://www.w3.org/2000/svg" xmlns:xlink="http://www.w3.org/1999/xlink">
<g id="graph0" class="graph" transform="scale(1 1) rotate(0) translate(4 460)">
<title>fr.softsf.sudokufx.service.VersionService</title>
<!-- Node1 -->
<g id="Node000001" class="node">
<title>Node1</title>
<g id="a_Node000001"><a xlink:title="Service for managing version information from a GitHub repository.">
<polygon fill="#999999" stroke="none" points="180.5,-356 4.25,-356 4.25,0 180.5,0 180.5,-356"/>
<text text-anchor="start" x="35.38" y="-342.5" font-family="Helvetica,sans-Serif" font-size="10.00">fr.softsf.sudokufx.service.</text>
<text text-anchor="start" x="59.75" y="-330.5" font-family="Helvetica,sans-Serif" font-size="10.00">VersionService</text>
<text text-anchor="start" x="9.75" y="-314.5" font-family="Helvetica,sans-Serif" font-size="10.00">&#45;</text>
<text text-anchor="start" x="18.25" y="-314.5" font-family="Helvetica,sans-Serif" font-size="10.00">final String currentVersion</text>
<text text-anchor="start" x="9.75" y="-298.5" font-family="Helvetica,sans-Serif" font-size="10.00">&#45;</text>
<text text-anchor="start" x="18.25" y="-298.5" font-family="Helvetica,sans-Serif" font-size="10.00">String lastVersion</text>
<text text-anchor="start" x="9.75" y="-282.5" font-family="Helvetica,sans-Serif" font-size="10.00">&#45;</text>
<text text-anchor="start" x="18.25" y="-282.5" font-family="Helvetica,sans-Serif" font-size="10.00">static final String</text>
<text text-anchor="start" x="18.25" y="-270.5" font-family="Helvetica,sans-Serif" font-size="10.00"> GITHUB_API_URL</text>
<text text-anchor="start" x="9.75" y="-254.5" font-family="Helvetica,sans-Serif" font-size="10.00">&#45;</text>
<text text-anchor="start" x="18.25" y="-254.5" font-family="Helvetica,sans-Serif" font-size="10.00">static final String</text>
<text text-anchor="start" x="18.25" y="-242.5" font-family="Helvetica,sans-Serif" font-size="10.00"> GITHUB_API_URL_REPO_TAGS</text>
<text text-anchor="start" x="9.75" y="-226.5" font-family="Helvetica,sans-Serif" font-size="10.00">&#45;</text>
<text text-anchor="start" x="18.25" y="-226.5" font-family="Helvetica,sans-Serif" font-size="10.00">static final String</text>
<text text-anchor="start" x="18.25" y="-214.5" font-family="Helvetica,sans-Serif" font-size="10.00"> GITHUB_URL</text>
<text text-anchor="start" x="9.75" y="-198.5" font-family="Helvetica,sans-Serif" font-size="10.00">&#45;</text>
<text text-anchor="start" x="18.25" y="-198.5" font-family="Helvetica,sans-Serif" font-size="10.00">static final String</text>
<text text-anchor="start" x="18.25" y="-186.5" font-family="Helvetica,sans-Serif" font-size="10.00"> OWNER</text>
<text text-anchor="start" x="9.75" y="-170.5" font-family="Helvetica,sans-Serif" font-size="10.00">&#45;</text>
<text text-anchor="start" x="18.25" y="-170.5" font-family="Helvetica,sans-Serif" font-size="10.00">static final String REPO</text>
<text text-anchor="start" x="8.25" y="-154.5" font-family="Helvetica,sans-Serif" font-size="10.00">+</text>
<text text-anchor="start" x="18.25" y="-154.5" font-family="Helvetica,sans-Serif" font-size="10.00">VersionService(HttpClient</text>
<text text-anchor="start" x="18.25" y="-142.5" font-family="Helvetica,sans-Serif" font-size="10.00"> httpClient)</text>
<text text-anchor="start" x="8.25" y="-126.5" font-family="Helvetica,sans-Serif" font-size="10.00">+</text>
<text text-anchor="start" x="18.25" y="-126.5" font-family="Helvetica,sans-Serif" font-size="10.00">String getGitHubLinkToRepository</text>
<text text-anchor="start" x="18.25" y="-114.5" font-family="Helvetica,sans-Serif" font-size="10.00">Releases()</text>
<text text-anchor="start" x="8.25" y="-98.5" font-family="Helvetica,sans-Serif" font-size="10.00">+</text>
<text text-anchor="start" x="18.25" y="-98.5" font-family="Helvetica,sans-Serif" font-size="10.00">CompletableFuture&lt;</text>
<text text-anchor="start" x="18.25" y="-86.5" font-family="Helvetica,sans-Serif" font-size="10.00"> Boolean &gt; isLatestGitHubPublished</text>
<text text-anchor="start" x="18.25" y="-74.5" font-family="Helvetica,sans-Serif" font-size="10.00">PackageVersion()</text>
<text text-anchor="start" x="9.75" y="-58.5" font-family="Helvetica,sans-Serif" font-size="10.00">&#45;</text>
<text text-anchor="start" x="18.25" y="-58.5" font-family="Helvetica,sans-Serif" font-size="10.00">int compareVersions</text>
<text text-anchor="start" x="18.25" y="-46.5" font-family="Helvetica,sans-Serif" font-size="10.00">(final String version1,</text>
<text text-anchor="start" x="18.25" y="-34.5" font-family="Helvetica,sans-Serif" font-size="10.00"> final String version2)</text>
<text text-anchor="start" x="9.75" y="-18.5" font-family="Helvetica,sans-Serif" font-size="10.00">&#45;</text>
<text text-anchor="start" x="18.25" y="-18.5" font-family="Helvetica,sans-Serif" font-size="10.00">boolean parseResponse</text>
<text text-anchor="start" x="18.25" y="-6.5" font-family="Helvetica,sans-Serif" font-size="10.00">(String json)</text>
<polygon fill="#666666" stroke="#666666" points="4.25,-326 4.25,-326 180.5,-326 180.5,-326 4.25,-326"/>
<polygon fill="#666666" stroke="#666666" points="4.25,-166 4.25,-166 16.25,-166 16.25,-166 4.25,-166"/>
<polygon fill="#666666" stroke="#666666" points="16.25,-166 16.25,-166 180.5,-166 180.5,-166 16.25,-166"/>
<polygon fill="none" stroke="#666666" points="4.25,0 4.25,-356 180.5,-356 180.5,0 4.25,0"/>
</a>
</g>
</g>
<!-- Node2 -->
<g id="Node000002" class="node">
<title>Node2</title>
<g id="a_Node000002"><a xlink:title=" ">
<polygon fill="white" stroke="none" points="68.75,-456 0,-456 0,-404 68.75,-404 68.75,-456"/>
<text text-anchor="start" x="4" y="-442.5" font-family="Helvetica,sans-Serif" font-size="10.00">ObjectMapper</text>
<text text-anchor="start" x="32.88" y="-426.5" font-family="Helvetica,sans-Serif" font-size="10.00"> </text>
<text text-anchor="start" x="32.88" y="-410.5" font-family="Helvetica,sans-Serif" font-size="10.00"> </text>
<polygon fill="#666666" stroke="#666666" points="0,-438 0,-438 68.75,-438 68.75,-438 0,-438"/>
<polygon fill="#666666" stroke="#666666" points="0,-422 0,-422 68.75,-422 68.75,-422 0,-422"/>
<polygon fill="none" stroke="#666666" points="0,-404 0,-456 68.75,-456 68.75,-404 0,-404"/>
</a>
</g>
</g>
<!-- Node2&#45;&gt;Node1 -->
<g id="edge1_Node000001_Node000002" class="edge">
<title>Node2&#45;&gt;Node1</title>
<g id="a_edge1_Node000001_Node000002"><a xlink:title=" ">
<path fill="none" stroke="#63b8ff" d="M33.57,-404.24C33.62,-394.74 34.11,-383.82 35.62,-374 35.91,-372.12 36.22,-370.24 36.53,-368.34"/>
<polygon fill="none" stroke="#63b8ff" points="36.51,-368.48 33.63,-361.87 38.62,-356.67 41.5,-363.28 36.51,-368.48"/>
</a>
</g>
<text text-anchor="middle" x="82.5" y="-376.5" font-family="Helvetica,sans-Serif" font-size="10.00" fill="grey"> &#45;OBJECT_MAPPER</text>
</g>
<!-- Node3 -->
<g id="Node000003" class="node">
<title>Node3</title>
<g id="a_Node000003"><a xlink:title=" ">
<polygon fill="white" stroke="none" points="177.5,-456 125.25,-456 125.25,-404 177.5,-404 177.5,-456"/>
<text text-anchor="start" x="129.25" y="-442.5" font-family="Helvetica,sans-Serif" font-size="10.00">HttpClient</text>
<text text-anchor="start" x="149.88" y="-426.5" font-family="Helvetica,sans-Serif" font-size="10.00"> </text>
<text text-anchor="start" x="149.88" y="-410.5" font-family="Helvetica,sans-Serif" font-size="10.00"> </text>
<polygon fill="#666666" stroke="#666666" points="125.25,-438 125.25,-438 177.5,-438 177.5,-438 125.25,-438"/>
<polygon fill="#666666" stroke="#666666" points="125.25,-422 125.25,-422 177.5,-422 177.5,-422 125.25,-422"/>
<polygon fill="none" stroke="#666666" points="125.25,-404 125.25,-456 177.5,-456 177.5,-404 125.25,-404"/>
</a>
</g>
</g>
<!-- Node3&#45;&gt;Node1 -->
<g id="edge2_Node000001_Node000003" class="edge">
<title>Node3&#45;&gt;Node1</title>
<g id="a_edge2_Node000001_Node000003"><a xlink:title=" ">
<path fill="none" stroke="#63b8ff" d="M145.5,-404.12C143.17,-394.23 140.27,-381.93 137.03,-368.22"/>
<polygon fill="none" stroke="#63b8ff" points="137.07,-368.38 131.8,-363.46 134.31,-356.7 139.58,-361.62 137.07,-368.38"/>
</a>
</g>
<text text-anchor="middle" x="164.09" y="-376.5" font-family="Helvetica,sans-Serif" font-size="10.00" fill="grey"> &#45;httpClient</text>
</g>
</g>
</svg>
