<?xml version="1.0" encoding="UTF-8" standalone="no"?>
<!DOCTYPE svg PUBLIC "-//W3C//DTD SVG 1.1//EN"
 "http://www.w3.org/Graphics/SVG/1.1/DTD/svg11.dtd">
<!-- Generated by graphviz version 12.2.0 (20241103.1931)
 -->
<!-- Title: fr.softsf.sudokufx.view.SplashScreenView.SplashScreenView Pages: 1 -->
<svg width="845pt" height="400pt"
 viewBox="0.00 0.00 845.25 400.00" xmlns="http://www.w3.org/2000/svg" xmlns:xlink="http://www.w3.org/1999/xlink">
<g id="graph0" class="graph" transform="scale(1 1) rotate(0) translate(4 396)">
<title>fr.softsf.sudokufx.view.SplashScreenView.SplashScreenView</title>
<!-- Node1 -->
<g id="Node000001" class="node">
<title>Node1</title>
<g id="a_Node000001"><a xlink:title="Constructor for SplashScreenView.">
<polygon fill="#999999" stroke="#666666" points="183.25,-249 0,-249 0,-217 183.25,-217 183.25,-249"/>
<text text-anchor="start" x="8" y="-235.5" font-family="Helvetica,sans-Serif" font-size="10.00">fr.softsf.sudokufx.view.</text>
<text text-anchor="middle" x="91.62" y="-223.5" font-family="Helvetica,sans-Serif" font-size="10.00">SplashScreenView.SplashScreenView</text>
</a>
</g>
</g>
<!-- Node2 -->
<g id="Node000002" class="node">
<title>Node2</title>
<g id="a_Node000002"><a xlink:href="classfr_1_1softsf_1_1sudokufx_1_1view_1_1_splash_screen_view.html#abe063bf7b79bce818e0d42c0c9b9d229" target="_top" xlink:title="Sets up the basic structure and properties of the UI components, similar to what would be defined in ...">
<polygon fill="white" stroke="#666666" points="400.25,-324 223,-324 223,-292 400.25,-292 400.25,-324"/>
<text text-anchor="start" x="231" y="-310.5" font-family="Helvetica,sans-Serif" font-size="10.00">fr.softsf.sudokufx.view.</text>
<text text-anchor="middle" x="311.62" y="-298.5" font-family="Helvetica,sans-Serif" font-size="10.00">SplashScreenView.fxmlLikeStructure</text>
</a>
</g>
</g>
<!-- Node1&#45;&gt;Node2 -->
<g id="edge1_Node000001_Node000002" class="edge">
<title>Node1&#45;&gt;Node2</title>
<g id="a_edge1_Node000001_Node000002"><a xlink:title=" ">
<path fill="none" stroke="#63b8ff" d="M131.02,-249.42C155.92,-259.76 189.2,-272.99 219.25,-283 224.67,-284.81 230.3,-286.58 235.99,-288.3"/>
<polygon fill="#63b8ff" stroke="#63b8ff" points="234.91,-291.63 245.49,-291.11 236.89,-284.92 234.91,-291.63"/>
</a>
</g>
</g>
<!-- Node3 -->
<g id="Node000003" class="node">
<title>Node3</title>
<g id="a_Node000003"><a xlink:href="classfr_1_1softsf_1_1sudokufx_1_1view_1_1_splash_screen_view.html#a0af4ab414c9c917edc9975bfd5c63fbd" target="_top" xlink:title="Nests the UI components in their parent containers.">
<polygon fill="white" stroke="#666666" points="397.25,-274 226,-274 226,-242 397.25,-242 397.25,-274"/>
<text text-anchor="start" x="234" y="-260.5" font-family="Helvetica,sans-Serif" font-size="10.00">fr.softsf.sudokufx.view.</text>
<text text-anchor="middle" x="311.62" y="-248.5" font-family="Helvetica,sans-Serif" font-size="10.00">SplashScreenView.nestingOfNodes</text>
</a>
</g>
</g>
<!-- Node1&#45;&gt;Node3 -->
<g id="edge2_Node000001_Node000003" class="edge">
<title>Node1&#45;&gt;Node3</title>
<g id="a_edge2_Node000001_Node000003"><a xlink:title=" ">
<path fill="none" stroke="#63b8ff" d="M183.5,-243.42C193.79,-244.6 204.31,-245.81 214.67,-247"/>
<polygon fill="#63b8ff" stroke="#63b8ff" points="213.99,-250.44 224.32,-248.1 214.79,-243.49 213.99,-250.44"/>
</a>
</g>
</g>
<!-- Node4 -->
<g id="Node000004" class="node">
<title>Node4</title>
<g id="a_Node000004"><a xlink:href="classfr_1_1softsf_1_1sudokufx_1_1view_1_1_splash_screen_view.html#acddefac20ee4e90165233cb342d56fe0" target="_top" xlink:title="Configures the properties and styles of the UI nodes.">
<polygon fill="white" stroke="#666666" points="404,-224 219.25,-224 219.25,-192 404,-192 404,-224"/>
<text text-anchor="start" x="227.25" y="-210.5" font-family="Helvetica,sans-Serif" font-size="10.00">fr.softsf.sudokufx.view.</text>
<text text-anchor="middle" x="311.62" y="-198.5" font-family="Helvetica,sans-Serif" font-size="10.00">SplashScreenView.nodesConfiguration</text>
</a>
</g>
</g>
<!-- Node1&#45;&gt;Node4 -->
<g id="edge3_Node000001_Node000004" class="edge">
<title>Node1&#45;&gt;Node4</title>
<g id="a_edge3_Node000001_Node000004"><a xlink:title=" ">
<path fill="none" stroke="#63b8ff" d="M183.5,-222.58C191.44,-221.67 199.51,-220.74 207.54,-219.82"/>
<polygon fill="#63b8ff" stroke="#63b8ff" points="207.81,-223.31 217.34,-218.7 207.01,-216.36 207.81,-223.31"/>
</a>
</g>
</g>
<!-- Node16 -->
<g id="Node000016" class="node">
<title>Node16</title>
<g id="a_Node000016"><a xlink:href="classfr_1_1softsf_1_1sudokufx_1_1view_1_1_splash_screen_view.html#a202e9727891bebc7d520ec588134a0a7" target="_top" xlink:title="Displays the splash screen.">
<polygon fill="white" stroke="#666666" points="404,-174 219.25,-174 219.25,-142 404,-142 404,-174"/>
<text text-anchor="start" x="227.25" y="-160.5" font-family="Helvetica,sans-Serif" font-size="10.00">fr.softsf.sudokufx.view.</text>
<text text-anchor="middle" x="311.62" y="-148.5" font-family="Helvetica,sans-Serif" font-size="10.00">SplashScreenView.showSplashScreen</text>
</a>
</g>
</g>
<!-- Node1&#45;&gt;Node16 -->
<g id="edge19_Node000001_Node000016" class="edge">
<title>Node1&#45;&gt;Node16</title>
<g id="a_edge19_Node000001_Node000016"><a xlink:title=" ">
<path fill="none" stroke="#63b8ff" d="M131.02,-216.58C155.92,-206.24 189.2,-193.01 219.25,-183 224.67,-181.19 230.3,-179.42 235.99,-177.7"/>
<polygon fill="#63b8ff" stroke="#63b8ff" points="236.89,-181.08 245.49,-174.89 234.91,-174.37 236.89,-181.08"/>
</a>
</g>
</g>
<!-- Node5 -->
<g id="Node000005" class="node">
<title>Node5</title>
<g id="a_Node000005"><a xlink:href="classfr_1_1softsf_1_1sudokufx_1_1view_1_1_splash_screen_view.html#a05ceacbaf9b2149100b85aa1915a98a2" target="_top" xlink:title="Animates the SVG flower.">
<polygon fill="white" stroke="#666666" points="628.12,-392 446.38,-392 446.38,-360 628.12,-360 628.12,-392"/>
<text text-anchor="start" x="454.38" y="-378.5" font-family="Helvetica,sans-Serif" font-size="10.00">fr.softsf.sudokufx.view.</text>
<text text-anchor="middle" x="537.25" y="-366.5" font-family="Helvetica,sans-Serif" font-size="10.00">SplashScreenView.animateFlowerSvg</text>
</a>
</g>
</g>
<!-- Node4&#45;&gt;Node5 -->
<g id="edge4_Node000004_Node000005" class="edge">
<title>Node4&#45;&gt;Node5</title>
<g id="a_edge4_Node000004_Node000005"><a xlink:title=" ">
<path fill="none" stroke="#63b8ff" d="M392.68,-224.27C396.76,-226.79 400.58,-229.68 404,-233 443.33,-271.2 400.42,-313.05 440,-351 440.63,-351.6 441.27,-352.2 441.93,-352.77"/>
<polygon fill="#63b8ff" stroke="#63b8ff" points="439.72,-355.49 449.85,-358.62 443.88,-349.86 439.72,-355.49"/>
</a>
</g>
</g>
<!-- Node6 -->
<g id="Node000006" class="node">
<title>Node6</title>
<g id="a_Node000006"><a xlink:href="classfr_1_1softsf_1_1sudokufx_1_1utils_1_1_j_v_m_application_properties.html#a3c1aafe7e06f8e614ae7a2c249f364a6" target="_top" xlink:title="Retrieves the current application name from system properties.">
<polygon fill="white" stroke="#666666" points="631.5,-342 443,-342 443,-310 631.5,-310 631.5,-342"/>
<text text-anchor="start" x="451" y="-328.5" font-family="Helvetica,sans-Serif" font-size="10.00">fr.softsf.sudokufx.utils.</text>
<text text-anchor="middle" x="537.25" y="-316.5" font-family="Helvetica,sans-Serif" font-size="10.00">JVMApplicationProperties.getAppName</text>
</a>
</g>
</g>
<!-- Node4&#45;&gt;Node6 -->
<g id="edge5_Node000004_Node000006" class="edge">
<title>Node4&#45;&gt;Node6</title>
<g id="a_edge5_Node000004_Node000006"><a xlink:title=" ">
<path fill="none" stroke="#63b8ff" d="M390.64,-224.37C395.38,-226.85 399.89,-229.71 404,-233 430.69,-254.38 413.18,-279.79 440,-301 441.31,-302.04 442.66,-303.03 444.05,-303.99"/>
<polygon fill="#63b8ff" stroke="#63b8ff" points="441.94,-306.81 452.32,-308.93 445.53,-300.8 441.94,-306.81"/>
</a>
</g>
</g>
<!-- Node8 -->
<g id="Node000008" class="node">
<title>Node8</title>
<g id="a_Node000008"><a xlink:href="classfr_1_1softsf_1_1sudokufx_1_1utils_1_1_j_v_m_application_properties.html#afd79a2aeab3fe69dbb2ace62b5eddf83" target="_top" xlink:title="Retrieves the current application version from system properties.">
<polygon fill="white" stroke="#666666" points="618.38,-292 456.12,-292 456.12,-248 618.38,-248 618.38,-292"/>
<text text-anchor="start" x="464.12" y="-278.5" font-family="Helvetica,sans-Serif" font-size="10.00">fr.softsf.sudokufx.utils.</text>
<text text-anchor="start" x="464.12" y="-266.5" font-family="Helvetica,sans-Serif" font-size="10.00">JVMApplicationProperties.getApp</text>
<text text-anchor="middle" x="537.25" y="-254.5" font-family="Helvetica,sans-Serif" font-size="10.00">Version</text>
</a>
</g>
</g>
<!-- Node4&#45;&gt;Node8 -->
<g id="edge7_Node000004_Node000008" class="edge">
<title>Node4&#45;&gt;Node8</title>
<g id="a_edge7_Node000004_Node000008"><a xlink:title=" ">
<path fill="none" stroke="#63b8ff" d="M373.09,-224.49C383.41,-227.32 394.01,-230.24 404,-233 417.33,-236.69 431.4,-240.6 445.2,-244.45"/>
<polygon fill="#63b8ff" stroke="#63b8ff" points="444.16,-247.8 454.74,-247.12 446.05,-241.06 444.16,-247.8"/>
</a>
</g>
</g>
<!-- Node9 -->
<g id="Node000009" class="node">
<title>Node9</title>
<g id="a_Node000009"><a xlink:href="classfr_1_1softsf_1_1sudokufx_1_1view_1_1_splash_screen_view.html#ad126ac2f2a90b2422490ca0d896fa398" target="_top" xlink:title="Retrieves a message indicating the current loading or optimizing state.">
<polygon fill="white" stroke="#666666" points="616.5,-230 458,-230 458,-186 616.5,-186 616.5,-230"/>
<text text-anchor="start" x="466" y="-216.5" font-family="Helvetica,sans-Serif" font-size="10.00">fr.softsf.sudokufx.view.</text>
<text text-anchor="start" x="466" y="-204.5" font-family="Helvetica,sans-Serif" font-size="10.00">SplashScreenView.getLoadingOr</text>
<text text-anchor="middle" x="537.25" y="-192.5" font-family="Helvetica,sans-Serif" font-size="10.00">OptimizingMessage</text>
</a>
</g>
</g>
<!-- Node4&#45;&gt;Node9 -->
<g id="edge9_Node000004_Node000009" class="edge">
<title>Node4&#45;&gt;Node9</title>
<g id="a_edge9_Node000004_Node000009"><a xlink:title=" ">
<path fill="none" stroke="#63b8ff" d="M404.23,-208C418.08,-208 432.36,-208 446.18,-208"/>
<polygon fill="#63b8ff" stroke="#63b8ff" points="446.15,-211.5 456.15,-208 446.15,-204.5 446.15,-211.5"/>
</a>
</g>
</g>
<!-- Node12 -->
<g id="Node000012" class="node">
<title>Node12</title>
<g id="a_Node000012"><a xlink:href="classfr_1_1softsf_1_1sudokufx_1_1view_1_1_splash_screen_view.html#aafe300850c83d75b03d338a68d19c892" target="_top" xlink:title="Sets up the SVG for the Soft64 text logo in the center of the splash screen.">
<polygon fill="white" stroke="#666666" points="634.5,-168 440,-168 440,-124 634.5,-124 634.5,-168"/>
<text text-anchor="start" x="448" y="-154.5" font-family="Helvetica,sans-Serif" font-size="10.00">fr.softsf.sudokufx.view.</text>
<text text-anchor="start" x="448" y="-142.5" font-family="Helvetica,sans-Serif" font-size="10.00">SplashScreenView.setSplashscreenvbox</text>
<text text-anchor="middle" x="537.25" y="-130.5" font-family="Helvetica,sans-Serif" font-size="10.00">CenterhboxLogosoft64textsvg</text>
</a>
</g>
</g>
<!-- Node4&#45;&gt;Node12 -->
<g id="edge13_Node000004_Node000012" class="edge">
<title>Node4&#45;&gt;Node12</title>
<g id="a_edge13_Node000004_Node000012"><a xlink:title=" ">
<path fill="none" stroke="#63b8ff" d="M373.09,-191.51C383.41,-188.68 394.01,-185.76 404,-183 417.33,-179.31 431.4,-175.4 445.2,-171.55"/>
<polygon fill="#63b8ff" stroke="#63b8ff" points="446.05,-174.94 454.74,-168.88 444.16,-168.2 446.05,-174.94"/>
</a>
</g>
</g>
<!-- Node14 -->
<g id="Node000014" class="node">
<title>Node14</title>
<g id="a_Node000014"><a xlink:href="classfr_1_1softsf_1_1sudokufx_1_1view_1_1_splash_screen_view.html#a762ac1d676ca1be22b521cd731b8d9ba" target="_top" xlink:title="Sets up the SVG for the flower logo in the center of the splash screen.">
<polygon fill="white" stroke="#666666" points="634.5,-106 440,-106 440,-62 634.5,-62 634.5,-106"/>
<text text-anchor="start" x="448" y="-92.5" font-family="Helvetica,sans-Serif" font-size="10.00">fr.softsf.sudokufx.view.</text>
<text text-anchor="start" x="448" y="-80.5" font-family="Helvetica,sans-Serif" font-size="10.00">SplashScreenView.setSplashscreenvbox</text>
<text text-anchor="middle" x="537.25" y="-68.5" font-family="Helvetica,sans-Serif" font-size="10.00">CenterhboxStackpaneLogoflowersvg</text>
</a>
</g>
</g>
<!-- Node4&#45;&gt;Node14 -->
<g id="edge15_Node000004_Node000014" class="edge">
<title>Node4&#45;&gt;Node14</title>
<g id="a_edge15_Node000004_Node000014"><a xlink:title=" ">
<path fill="none" stroke="#63b8ff" d="M390.64,-191.63C395.38,-189.15 399.89,-186.29 404,-183 430.69,-161.62 413.8,-136.97 440,-115 440.94,-114.21 441.9,-113.44 442.88,-112.69"/>
<polygon fill="#63b8ff" stroke="#63b8ff" points="444.56,-115.78 450.91,-107.3 440.66,-109.97 444.56,-115.78"/>
</a>
</g>
</g>
<!-- Node15 -->
<g id="Node000015" class="node">
<title>Node15</title>
<g id="a_Node000015"><a xlink:href="classfr_1_1softsf_1_1sudokufx_1_1view_1_1_splash_screen_view.html#a53ead1ea80a08e06c15ae42ae101fcdf" target="_top" xlink:title="Sets up the SVG for the Sudoku logo in the top section of the splash screen.">
<polygon fill="white" stroke="#666666" points="634.5,-44 440,-44 440,0 634.5,0 634.5,-44"/>
<text text-anchor="start" x="448" y="-30.5" font-family="Helvetica,sans-Serif" font-size="10.00">fr.softsf.sudokufx.view.</text>
<text text-anchor="start" x="448" y="-18.5" font-family="Helvetica,sans-Serif" font-size="10.00">SplashScreenView.setSplashscreenvbox</text>
<text text-anchor="middle" x="537.25" y="-6.5" font-family="Helvetica,sans-Serif" font-size="10.00">TophboxLogosudosvg</text>
</a>
</g>
</g>
<!-- Node4&#45;&gt;Node15 -->
<g id="edge17_Node000004_Node000015" class="edge">
<title>Node4&#45;&gt;Node15</title>
<g id="a_edge17_Node000004_Node000015"><a xlink:title=" ">
<path fill="none" stroke="#63b8ff" d="M393.2,-191.57C397.1,-189.09 400.74,-186.25 404,-183 446.46,-140.67 398.49,-96.26 440,-53 440.47,-52.51 440.96,-52.02 441.45,-51.54"/>
<polygon fill="#63b8ff" stroke="#63b8ff" points="443.38,-54.49 448.83,-45.4 438.9,-49.1 443.38,-54.49"/>
</a>
</g>
</g>
<!-- Node7 -->
<g id="Node000007" class="node">
<title>Node7</title>
<g id="a_Node000007"><a xlink:href="classfr_1_1softsf_1_1sudokufx_1_1utils_1_1_my_regex.html#a981702b076ee54a416d676b6f7a182fc" target="_top" xlink:title="Validates the given text against the specified regular expression.">
<polygon fill="white" stroke="#666666" points="828.25,-314 679.5,-314 679.5,-282 828.25,-282 828.25,-314"/>
<text text-anchor="start" x="687.5" y="-300.5" font-family="Helvetica,sans-Serif" font-size="10.00">fr.softsf.sudokufx.utils.</text>
<text text-anchor="middle" x="753.88" y="-288.5" font-family="Helvetica,sans-Serif" font-size="10.00">MyRegex.isValidatedByRegex</text>
</a>
</g>
</g>
<!-- Node6&#45;&gt;Node7 -->
<g id="edge6_Node000006_Node000007" class="edge">
<title>Node6&#45;&gt;Node7</title>
<g id="a_edge6_Node000006_Node000007"><a xlink:title=" ">
<path fill="none" stroke="#63b8ff" d="M631.76,-313.8C643.75,-312.24 655.97,-310.64 667.81,-309.1"/>
<polygon fill="#63b8ff" stroke="#63b8ff" points="668.06,-312.59 677.52,-307.83 667.15,-305.65 668.06,-312.59"/>
</a>
</g>
</g>
<!-- Node8&#45;&gt;Node7 -->
<g id="edge8_Node000008_Node000007" class="edge">
<title>Node8&#45;&gt;Node7</title>
<g id="a_edge8_Node000008_Node000007"><a xlink:title=" ">
<path fill="none" stroke="#63b8ff" d="M618.78,-280.51C634.92,-282.61 651.92,-284.83 668.2,-286.95"/>
<polygon fill="#63b8ff" stroke="#63b8ff" points="667.46,-290.39 677.83,-288.21 668.36,-283.45 667.46,-290.39"/>
</a>
</g>
</g>
<!-- Node10 -->
<g id="Node000010" class="node">
<title>Node10</title>
<g id="a_Node000010"><a xlink:href="classfr_1_1softsf_1_1sudokufx_1_1utils_1_1_i18n.html#a7095fa285a498c3f20bf33488a69d22c" target="_top" xlink:title="Retrieves the localized string value for a given key.">
<polygon fill="white" stroke="#666666" points="812.12,-261 695.62,-261 695.62,-229 812.12,-229 812.12,-261"/>
<text text-anchor="start" x="703.62" y="-247.5" font-family="Helvetica,sans-Serif" font-size="10.00">fr.softsf.sudokufx.utils.</text>
<text text-anchor="middle" x="753.88" y="-235.5" font-family="Helvetica,sans-Serif" font-size="10.00">I18n.getValue</text>
</a>
</g>
</g>
<!-- Node9&#45;&gt;Node10 -->
<g id="edge10_Node000009_Node000010" class="edge">
<title>Node9&#45;&gt;Node10</title>
<g id="a_edge10_Node000009_Node000010"><a xlink:title=" ">
<path fill="none" stroke="#63b8ff" d="M616.95,-221.57C638.96,-225.36 662.69,-229.45 684.08,-233.14"/>
<polygon fill="#63b8ff" stroke="#63b8ff" points="683.42,-236.58 693.87,-234.83 684.61,-229.68 683.42,-236.58"/>
</a>
</g>
</g>
<!-- Node11 -->
<g id="Node000011" class="node">
<title>Node11</title>
<g id="a_Node000011"><a xlink:href="classfr_1_1softsf_1_1sudokufx_1_1utils_1_1_j_v_m_application_properties.html#a7d07880db5617906582d43a95925ba8d" target="_top" xlink:title="Determines if the Spring context should exit on refresh.">
<polygon fill="white" stroke="#666666" points="837.25,-193 670.5,-193 670.5,-149 837.25,-149 837.25,-193"/>
<text text-anchor="start" x="678.5" y="-179.5" font-family="Helvetica,sans-Serif" font-size="10.00">fr.softsf.sudokufx.utils.</text>
<text text-anchor="start" x="678.5" y="-167.5" font-family="Helvetica,sans-Serif" font-size="10.00">JVMApplicationProperties.isSpring</text>
<text text-anchor="middle" x="753.88" y="-155.5" font-family="Helvetica,sans-Serif" font-size="10.00">ContextExitOnRefresh</text>
</a>
</g>
</g>
<!-- Node9&#45;&gt;Node11 -->
<g id="edge11_Node000009_Node000011" class="edge">
<title>Node9&#45;&gt;Node11</title>
<g id="a_edge11_Node000009_Node000011"><a xlink:title=" ">
<path fill="none" stroke="#63b8ff" d="M616.95,-194.43C630.64,-192.07 645,-189.6 659.04,-187.18"/>
<polygon fill="#63b8ff" stroke="#63b8ff" points="659.47,-190.65 668.73,-185.51 658.28,-183.76 659.47,-190.65"/>
</a>
</g>
</g>
<!-- Node11&#45;&gt;Node11 -->
<g id="edge12_Node000011_Node000011" class="edge">
<title>Node11&#45;&gt;Node11</title>
<g id="a_edge12_Node000011_Node000011"><a xlink:title=" ">
<path fill="none" stroke="#63b8ff" d="M713.74,-193.21C710.46,-202.8 723.84,-211 753.88,-211 771.71,-211 783.67,-208.11 789.76,-203.75"/>
<polygon fill="#63b8ff" stroke="#63b8ff" points="792.95,-205.2 793.44,-194.62 786.46,-202.58 792.95,-205.2"/>
</a>
</g>
</g>
<!-- Node13 -->
<g id="Node000013" class="node">
<title>Node13</title>
<g id="a_Node000013"><a xlink:href="classfr_1_1softsf_1_1sudokufx_1_1view_1_1_splash_screen_view.html#a5d7017836e704c8e6db24f7d677041ba" target="_top" xlink:title="Creates an SVG shape and applies it to a Region.">
<polygon fill="white" stroke="#666666" points="828.25,-100 679.5,-100 679.5,-68 828.25,-68 828.25,-100"/>
<text text-anchor="start" x="687.5" y="-86.5" font-family="Helvetica,sans-Serif" font-size="10.00">fr.softsf.sudokufx.view.</text>
<text text-anchor="middle" x="753.88" y="-74.5" font-family="Helvetica,sans-Serif" font-size="10.00">SplashScreenView.createSVG</text>
</a>
</g>
</g>
<!-- Node12&#45;&gt;Node13 -->
<g id="edge14_Node000012_Node000013" class="edge">
<title>Node12&#45;&gt;Node13</title>
<g id="a_edge14_Node000012_Node000013"><a xlink:title=" ">
<path fill="none" stroke="#63b8ff" d="M616.04,-123.53C638.62,-117.01 663.08,-109.94 685,-103.61"/>
<polygon fill="#63b8ff" stroke="#63b8ff" points="685.78,-107.02 694.42,-100.89 683.84,-100.3 685.78,-107.02"/>
</a>
</g>
</g>
<!-- Node14&#45;&gt;Node13 -->
<g id="edge16_Node000014_Node000013" class="edge">
<title>Node14&#45;&gt;Node13</title>
<g id="a_edge16_Node000014_Node000013"><a xlink:title=" ">
<path fill="none" stroke="#63b8ff" d="M634.89,-84C645.95,-84 657.17,-84 668.07,-84"/>
<polygon fill="#63b8ff" stroke="#63b8ff" points="667.77,-87.5 677.77,-84 667.77,-80.5 667.77,-87.5"/>
</a>
</g>
</g>
<!-- Node15&#45;&gt;Node13 -->
<g id="edge18_Node000015_Node000013" class="edge">
<title>Node15&#45;&gt;Node13</title>
<g id="a_edge18_Node000015_Node000013"><a xlink:title=" ">
<path fill="none" stroke="#63b8ff" d="M616.04,-44.47C638.62,-50.99 663.08,-58.06 685,-64.39"/>
<polygon fill="#63b8ff" stroke="#63b8ff" points="683.84,-67.7 694.42,-67.11 685.78,-60.98 683.84,-67.7"/>
</a>
</g>
</g>
</g>
</svg>
