<?xml version="1.0" encoding="UTF-8" standalone="no"?>
<!DOCTYPE svg PUBLIC "-//W3C//DTD SVG 1.1//EN"
 "http://www.w3.org/Graphics/SVG/1.1/DTD/svg11.dtd">
<!-- Generated by graphviz version 12.2.1 (20241206.2353)
 -->
<!-- Title: fr.softsf.sudokufx.SudoMain.start Pages: 1 -->
<!--zoomable 293 -->

<svg id="main" version="1.1" xmlns="http://www.w3.org/2000/svg" xmlns:xlink="http://www.w3.org/1999/xlink" xml:space="preserve" onload="init(evt)">

<style type="text/css"><![CDATA[
.node, .edge {opacity: 0.7;}
.node.selected, .edge.selected {opacity: 1;}
.edge:hover path { stroke: red; }
.edge:hover polygon { stroke: red; fill: red; }
]]></style>

<defs>
  <circle id="rim" cx="0" cy="0" r="7"/>
  <circle id="rim2" cx="0" cy="0" r="3.5"/>
  <g id="zoomPlus">
    <use xlink:href="#rim" fill="#404040"><set attributeName="fill" to="#808080" begin="zoomplus.mouseover" end="zoomplus.mouseout"/></use>
    <path d="M-4,0h8M0,-4v8" fill="none" stroke="white" stroke-width="1.5" pointer-events="none"/>
  </g>
  <g id="zoomMin">
    <use xlink:href="#rim" fill="#404040"><set attributeName="fill" to="#808080" begin="zoomminus.mouseover" end="zoomminus.mouseout"/></use>
    <path d="M-4,0h8" fill="none" stroke="white" stroke-width="1.5" pointer-events="none"/>
  </g>
  <g id="arrowUp" transform="translate(30 24)">
    <use xlink:href="#rim"/>
    <path pointer-events="none" fill="none" stroke="white" stroke-width="1.5" d="M0,-3.0v7 M-2.5,-0.5L0,-3.0L2.5,-0.5"/>
  </g>
  <g id="arrowRight" transform="rotate(90) translate(36 -43)">
    <use xlink:href="#rim"/>
    <path pointer-events="none" fill="none" stroke="white" stroke-width="1.5" d="M0,-3.0v7 M-2.5,-0.5L0,-3.0L2.5,-0.5"/>
  </g>
  <g id="arrowDown" transform="rotate(180) translate(-30 -48)">
    <use xlink:href="#rim"/>
    <path pointer-events="none" fill="none" stroke="white" stroke-width="1.5" d="M0,-3.0v7 M-2.5,-0.5L0,-3.0L2.5,-0.5"/>
  </g>
  <g id="arrowLeft" transform="rotate(270) translate(-36 17)">
    <use xlink:href="#rim"/>
    <path pointer-events="none" fill="none" stroke="white" stroke-width="1.5" d="M0,-3.0v7 M-2.5,-0.5L0,-3.0L2.5,-0.5"/>
  </g>
  <g id="resetDef">
    <use xlink:href="#rim2" fill="#404040"><set attributeName="fill" to="#808080" begin="reset.mouseover" end="reset.mouseout"/></use>
  </g>
</defs>
<script type="application/ecmascript">
var viewWidth = 605;
var viewHeight = 293;
var sectionId = 'dynsection-4';
</script>
<script type="application/ecmascript" xlink:href="svg.min.js"/>
<svg id="graph" class="graph">
<g id="viewport">
<title>fr.softsf.sudokufx.SudoMain.start</title>
<!-- Node1 -->
<g id="Node000001" class="node">
<title>Node1</title>
<g id="a_Node000001"><a xlink:title="Initializes the application by setting up the splash screen and loading the main application context.">
<polygon fill="#999999" stroke="#666666" points="161.5,-179 0,-179 0,-159 161.5,-159 161.5,-179"/>
<text text-anchor="middle" x="80.75" y="-165.5" font-family="Helvetica,sans-Serif" font-size="10.00">fr.softsf.sudokufx.SudoMain.start</text>
</a>
</g>
</g>
<!-- Node2 -->
<g id="Node000002" class="node">
<title>Node2</title>
<g id="a_Node000002"><a xlink:href="classfr_1_1softsf_1_1sudokufx_1_1_sudo_main.html#ad38d74b9ba975c931a8f6aa3e3e45c73" target="_top" xlink:title="Creates a new Task that initializes the Spring context.">
<polygon fill="white" stroke="#666666" points="367.62,-285 198.62,-285 198.62,-253 367.62,-253 367.62,-285"/>
<text text-anchor="start" x="206.62" y="-271.5" font-family="Helvetica,sans-Serif" font-size="10.00">fr.softsf.sudokufx.SudoMain.create</text>
<text text-anchor="middle" x="283.12" y="-259.5" font-family="Helvetica,sans-Serif" font-size="10.00">SpringContextTask</text>
</a>
</g>
</g>
<!-- Node1&#45;&gt;Node2 -->
<g id="edge1_Node000001_Node000002" class="edge">
<title>Node1&#45;&gt;Node2</title>
<g id="a_edge1_Node000001_Node000002"><a xlink:title=" ">
<path fill="none" stroke="#63b8ff" d="M94.91,-179.35C115.65,-195.23 157.69,-225.69 197.5,-244 201.02,-245.62 204.66,-247.16 208.38,-248.62"/>
<polygon fill="#63b8ff" stroke="#63b8ff" points="206.98,-251.84 217.57,-252.02 209.41,-245.27 206.98,-251.84"/>
</a>
</g>
</g>
<!-- Node3 -->
<g id="Node000003" class="node">
<title>Node3</title>
<g id="a_Node000003"><a xlink:href="classfr_1_1softsf_1_1sudokufx_1_1_sudo_main.html#a5f0246399e65a32405abe1ed415219ee" target="_top" xlink:title="Handles errors that occur during the Spring context initialization task.">
<polygon fill="white" stroke="#666666" points="368.38,-185 197.88,-185 197.88,-153 368.38,-153 368.38,-185"/>
<text text-anchor="start" x="205.88" y="-171.5" font-family="Helvetica,sans-Serif" font-size="10.00">fr.softsf.sudokufx.SudoMain.handle</text>
<text text-anchor="middle" x="283.12" y="-159.5" font-family="Helvetica,sans-Serif" font-size="10.00">SpringContextTaskFailed</text>
</a>
</g>
</g>
<!-- Node1&#45;&gt;Node3 -->
<g id="edge2_Node000001_Node000003" class="edge">
<title>Node1&#45;&gt;Node3</title>
<g id="a_edge2_Node000001_Node000003"><a xlink:title=" ">
<path fill="none" stroke="#63b8ff" d="M161.81,-169C169.81,-169 177.99,-169 186.13,-169"/>
<polygon fill="#63b8ff" stroke="#63b8ff" points="186.09,-172.5 196.09,-169 186.09,-165.5 186.09,-172.5"/>
</a>
</g>
</g>
<!-- Node7 -->
<g id="Node000007" class="node">
<title>Node7</title>
<g id="a_Node000007"><a xlink:href="classfr_1_1softsf_1_1sudokufx_1_1_sudo_main.html#afa5bb361c3c4da3cef227f656f09c3e3" target="_top" xlink:title="Handles the success of the Spring context initialization task.">
<polygon fill="white" stroke="#666666" points="368.38,-235 197.88,-235 197.88,-203 368.38,-203 368.38,-235"/>
<text text-anchor="start" x="205.88" y="-221.5" font-family="Helvetica,sans-Serif" font-size="10.00">fr.softsf.sudokufx.SudoMain.handle</text>
<text text-anchor="middle" x="283.12" y="-209.5" font-family="Helvetica,sans-Serif" font-size="10.00">SpringContextTaskSuccess</text>
</a>
</g>
</g>
<!-- Node1&#45;&gt;Node7 -->
<g id="edge6_Node000001_Node000007" class="edge">
<title>Node1&#45;&gt;Node7</title>
<g id="a_edge6_Node000001_Node000007"><a xlink:title=" ">
<path fill="none" stroke="#63b8ff" d="M123.76,-179.48C147.36,-185.37 177.56,-192.91 205.25,-199.82"/>
<polygon fill="#63b8ff" stroke="#63b8ff" points="204.1,-203.14 214.65,-202.16 205.79,-196.35 204.1,-203.14"/>
</a>
</g>
</g>
<!-- Node8 -->
<g id="Node000008" class="node">
<title>Node8</title>
<g id="a_Node000008"><a xlink:href="classfr_1_1softsf_1_1sudokufx_1_1_sudo_main.html#a574a17236a0848e4ce394ff5077a15fc" target="_top" xlink:title="Initializes the main scene.">
<polygon fill="white" stroke="#666666" points="360.5,-135 205.75,-135 205.75,-103 360.5,-103 360.5,-135"/>
<text text-anchor="start" x="213.75" y="-121.5" font-family="Helvetica,sans-Serif" font-size="10.00">fr.softsf.sudokufx.SudoMain.init</text>
<text text-anchor="middle" x="283.12" y="-109.5" font-family="Helvetica,sans-Serif" font-size="10.00">Scene</text>
</a>
</g>
</g>
<!-- Node1&#45;&gt;Node8 -->
<g id="edge9_Node000001_Node000008" class="edge">
<title>Node1&#45;&gt;Node8</title>
<g id="a_edge9_Node000001_Node000008"><a xlink:title=" ">
<path fill="none" stroke="#63b8ff" d="M123.76,-158.52C147.36,-152.63 177.56,-145.09 205.25,-138.18"/>
<polygon fill="#63b8ff" stroke="#63b8ff" points="205.79,-141.65 214.65,-135.84 204.1,-134.86 205.79,-141.65"/>
</a>
</g>
</g>
<!-- Node9 -->
<g id="Node000009" class="node">
<title>Node9</title>
<g id="a_Node000009"><a xlink:href="classfr_1_1softsf_1_1sudokufx_1_1utils_1_1_i18n.html#a67c20ba2a72f7933067b71bc5a810bb1" target="_top" xlink:title="Sets the locale bundle based on the host environment&#39;s language.">
<polygon fill="white" stroke="#666666" points="368.75,-85 197.5,-85 197.5,-41 368.75,-41 368.75,-85"/>
<text text-anchor="start" x="205.5" y="-71.5" font-family="Helvetica,sans-Serif" font-size="10.00">fr.softsf.sudokufx.utils.</text>
<text text-anchor="start" x="205.5" y="-59.5" font-family="Helvetica,sans-Serif" font-size="10.00">I18n.setLanguageBasedOnTheHost</text>
<text text-anchor="middle" x="283.12" y="-47.5" font-family="Helvetica,sans-Serif" font-size="10.00">Environment</text>
</a>
</g>
</g>
<!-- Node1&#45;&gt;Node9 -->
<g id="edge10_Node000001_Node000009" class="edge">
<title>Node1&#45;&gt;Node9</title>
<g id="a_edge10_Node000001_Node000009"><a xlink:title=" ">
<path fill="none" stroke="#63b8ff" d="M95.4,-158.7C116.45,-143.16 158.51,-113.47 197.5,-94 200.23,-92.64 203.03,-91.3 205.88,-90"/>
<polygon fill="#63b8ff" stroke="#63b8ff" points="207.21,-93.24 214.97,-86.03 204.41,-86.82 207.21,-93.24"/>
</a>
</g>
</g>
<!-- Node4 -->
<g id="Node000004" class="node">
<title>Node4</title>
<g id="a_Node000004"><a xlink:href="classfr_1_1softsf_1_1sudokufx_1_1_sudo_main.html#a5f9601381fd0f35bc4a5c90205958aec" target="_top" xlink:title="Creates a PauseTransition to delay loading of the next view.">
<polygon fill="white" stroke="#666666" points="578.62,-185 423.12,-185 423.12,-153 578.62,-153 578.62,-185"/>
<text text-anchor="start" x="431.12" y="-171.5" font-family="Helvetica,sans-Serif" font-size="10.00">fr.softsf.sudokufx.SudoMain.get</text>
<text text-anchor="middle" x="500.88" y="-159.5" font-family="Helvetica,sans-Serif" font-size="10.00">PauseTransition</text>
</a>
</g>
</g>
<!-- Node3&#45;&gt;Node4 -->
<g id="edge3_Node000003_Node000004" class="edge">
<title>Node3&#45;&gt;Node4</title>
<g id="a_edge3_Node000003_Node000004"><a xlink:title=" ">
<path fill="none" stroke="#63b8ff" d="M368.78,-169C382.84,-169 397.46,-169 411.61,-169"/>
<polygon fill="#63b8ff" stroke="#63b8ff" points="411.33,-172.5 421.33,-169 411.33,-165.5 411.33,-172.5"/>
</a>
</g>
</g>
<!-- Node5 -->
<g id="Node000005" class="node">
<title>Node5</title>
<g id="a_Node000005"><a xlink:href="classfr_1_1softsf_1_1sudokufx_1_1_sudo_main.html#afa5ef977463b6da726c91c4b3d67d1f4" target="_top" xlink:title="Initialize the FxmlService if needed and set his DynamicFontSize.">
<polygon fill="white" stroke="#666666" points="589.5,-235 412.25,-235 412.25,-203 589.5,-203 589.5,-235"/>
<text text-anchor="start" x="420.25" y="-221.5" font-family="Helvetica,sans-Serif" font-size="10.00">fr.softsf.sudokufx.SudoMain.initialize</text>
<text text-anchor="middle" x="500.88" y="-209.5" font-family="Helvetica,sans-Serif" font-size="10.00">FxmlService</text>
</a>
</g>
</g>
<!-- Node3&#45;&gt;Node5 -->
<g id="edge4_Node000003_Node000005" class="edge">
<title>Node3&#45;&gt;Node5</title>
<g id="a_edge4_Node000003_Node000005"><a xlink:title=" ">
<path fill="none" stroke="#63b8ff" d="M355.07,-185.44C375.16,-190.1 397.2,-195.2 417.88,-200"/>
<polygon fill="#63b8ff" stroke="#63b8ff" points="416.88,-203.36 427.41,-202.21 418.46,-196.54 416.88,-203.36"/>
</a>
</g>
</g>
<!-- Node6 -->
<g id="Node000006" class="node">
<title>Node6</title>
<g id="a_Node000006"><a xlink:href="classfr_1_1softsf_1_1sudokufx_1_1_sudo_main.html#a7f44ea69c674694f9ea334ec052a05b3" target="_top" xlink:title="Handles SQL invalid authorization exceptions.">
<polygon fill="white" stroke="#666666" points="578.25,-135 423.5,-135 423.5,-103 578.25,-103 578.25,-135"/>
<text text-anchor="start" x="431.5" y="-121.5" font-family="Helvetica,sans-Serif" font-size="10.00">fr.softsf.sudokufx.SudoMain.sql</text>
<text text-anchor="middle" x="500.88" y="-109.5" font-family="Helvetica,sans-Serif" font-size="10.00">InvalidAuthorization</text>
</a>
</g>
</g>
<!-- Node3&#45;&gt;Node6 -->
<g id="edge5_Node000003_Node000006" class="edge">
<title>Node3&#45;&gt;Node6</title>
<g id="a_edge5_Node000003_Node000006"><a xlink:title=" ">
<path fill="none" stroke="#63b8ff" d="M355.07,-152.56C375.16,-147.9 397.2,-142.8 417.88,-138"/>
<polygon fill="#63b8ff" stroke="#63b8ff" points="418.46,-141.46 427.41,-135.79 416.88,-134.64 418.46,-141.46"/>
</a>
</g>
</g>
<!-- Node7&#45;&gt;Node4 -->
<g id="edge7_Node000007_Node000004" class="edge">
<title>Node7&#45;&gt;Node4</title>
<g id="a_edge7_Node000007_Node000004"><a xlink:title=" ">
<path fill="none" stroke="#63b8ff" d="M355.07,-202.56C375.16,-197.9 397.2,-192.8 417.88,-188"/>
<polygon fill="#63b8ff" stroke="#63b8ff" points="418.46,-191.46 427.41,-185.79 416.88,-184.64 418.46,-191.46"/>
</a>
</g>
</g>
<!-- Node7&#45;&gt;Node5 -->
<g id="edge8_Node000007_Node000005" class="edge">
<title>Node7&#45;&gt;Node5</title>
<g id="a_edge8_Node000007_Node000005"><a xlink:title=" ">
<path fill="none" stroke="#63b8ff" d="M368.78,-219C379.18,-219 389.89,-219 400.48,-219"/>
<polygon fill="#63b8ff" stroke="#63b8ff" points="400.4,-222.5 410.4,-219 400.4,-215.5 400.4,-222.5"/>
</a>
</g>
</g>
<!-- Node10 -->
<g id="Node000010" class="node">
<title>Node10</title>
<g id="a_Node000010"><a xlink:href="classfr_1_1softsf_1_1sudokufx_1_1utils_1_1_i18n.html#ae04bf081931205edbc3e139c7fd503f0" target="_top" xlink:title="Gets the language code of the host environment.">
<polygon fill="white" stroke="#666666" points="597,-32 404.75,-32 404.75,0 597,0 597,-32"/>
<text text-anchor="start" x="412.75" y="-18.5" font-family="Helvetica,sans-Serif" font-size="10.00">fr.softsf.sudokufx.utils.</text>
<text text-anchor="middle" x="500.88" y="-6.5" font-family="Helvetica,sans-Serif" font-size="10.00">I18n.getHostEnvironmentLanguageCode</text>
</a>
</g>
</g>
<!-- Node9&#45;&gt;Node10 -->
<g id="edge11_Node000009_Node000010" class="edge">
<title>Node9&#45;&gt;Node10</title>
<g id="a_edge11_Node000009_Node000010"><a xlink:title=" ">
<path fill="none" stroke="#63b8ff" d="M369.09,-44.49C383.65,-41.32 398.8,-38.02 413.4,-34.84"/>
<polygon fill="#63b8ff" stroke="#63b8ff" points="413.94,-38.3 422.97,-32.75 412.45,-31.46 413.94,-38.3"/>
</a>
</g>
</g>
<!-- Node11 -->
<g id="Node000011" class="node">
<title>Node11</title>
<g id="a_Node000011"><a xlink:href="classfr_1_1softsf_1_1sudokufx_1_1utils_1_1_i18n.html#a7b2d44cad34ffdf0fb3a297af88ee76e" target="_top" xlink:title="Sets the current language for the application.">
<polygon fill="white" stroke="#666666" points="559.12,-82 442.62,-82 442.62,-50 559.12,-50 559.12,-82"/>
<text text-anchor="start" x="450.62" y="-68.5" font-family="Helvetica,sans-Serif" font-size="10.00">fr.softsf.sudokufx.utils.</text>
<text text-anchor="middle" x="500.88" y="-56.5" font-family="Helvetica,sans-Serif" font-size="10.00">I18n.setLocaleBundle</text>
</a>
</g>
</g>
<!-- Node9&#45;&gt;Node11 -->
<g id="edge12_Node000009_Node000011" class="edge">
<title>Node9&#45;&gt;Node11</title>
<g id="a_edge12_Node000009_Node000011"><a xlink:title=" ">
<path fill="none" stroke="#63b8ff" d="M369.09,-64.18C389.59,-64.47 411.25,-64.77 430.92,-65.04"/>
<polygon fill="#63b8ff" stroke="#63b8ff" points="430.68,-68.54 440.73,-65.18 430.78,-61.54 430.68,-68.54"/>
</a>
</g>
</g>
</g>
</svg>

<g id="navigator" transform="translate(0 0)" fill="#404254">
  <rect fill="#f2f5e9" fill-opacity="0.5" stroke="#606060" stroke-width=".5" x="0" y="0" width="60" height="60"/>
  <use id="zoomplus" xlink:href="#zoomPlus" x="17" y="9" onmousedown="handleZoom(evt,'in')"/>
  <use id="zoomminus" xlink:href="#zoomMin" x="42" y="9" onmousedown="handleZoom(evt,'out')"/>
  <use id="reset" xlink:href="#resetDef" x="30" y="36" onmousedown="handleReset()"/>
   <use id="arrowup" xlink:href="#arrowUp" x="0" y="0" onmousedown="handlePan(0,-1)"/>
  <use id="arrowright" xlink:href="#arrowRight" x="0" y="0" onmousedown="handlePan(1,0)"/>
  <use id="arrowdown" xlink:href="#arrowDown" x="0" y="0" onmousedown="handlePan(0,1)"/>
  <use id="arrowleft" xlink:href="#arrowLeft" x="0" y="0" onmousedown="handlePan(-1,0)"/>
</g>
<svg viewBox="0 0 15 15" width="100%" height="30px" preserveAspectRatio="xMaxYMin meet">
 <g id="arrow_out" transform="scale(0.3 0.3)">
  <a xlink:href="classfr_1_1softsf_1_1sudokufx_1_1_sudo_main_ad12f6778560c28ec6b0e85dec1074a1b_cgraph_org.svg" target="_base">
   <rect id="button" ry="5" rx="5" y="6" x="6" height="38" width="38"
        fill="#f2f5e9" fill-opacity="0.5" stroke="#606060" stroke-width="1.0"/>
   <path id="arrow"
     d="M 11.500037,31.436501 C 11.940474,20.09759 22.043105,11.32322 32.158766,21.979434 L 37.068811,17.246167 C 37.068811,17.246167 37.088388,32 37.088388,32 L 22.160133,31.978069 C 22.160133,31.978069 26.997745,27.140456 26.997745,27.140456 C 18.528582,18.264221 13.291696,25.230495 11.500037,31.436501 z"
     style="fill:#404040;"/>
  </a>
 </g>
</svg>

<style type='text/css'>
<![CDATA[
[data-mouse-over-selected='false'] { opacity: 0.7; }
[data-mouse-over-selected='true']  { opacity: 1.0; }
]]>
</style>
<script type="application/ecmascript"><![CDATA[
document.addEventListener('DOMContentLoaded', (event) => {
  highlightEdges();
  highlightAdjacentNodes();
});
]]></script>
</svg>
