<?xml version="1.0" encoding="UTF-8" standalone="no"?>
<!DOCTYPE svg PUBLIC "-//W3C//DTD SVG 1.1//EN"
 "http://www.w3.org/Graphics/SVG/1.1/DTD/svg11.dtd">
<!-- Generated by graphviz version 12.2.0 (20241103.1931)
 -->
<!-- Title: fr.softsf.sudokufx.utils.database.keystore.ApplicationKeystore.credentials Pages: 1 -->
<svg width="915pt" height="190pt"
 viewBox="0.00 0.00 915.00 190.00" xmlns="http://www.w3.org/2000/svg" xmlns:xlink="http://www.w3.org/1999/xlink">
<g id="graph0" class="graph" transform="scale(1 1) rotate(0) translate(4 186)">
<title>fr.softsf.sudokufx.utils.database.keystore.ApplicationKeystore.credentials</title>
<!-- Node1 -->
<g id="Node000001" class="node">
<title>Node1</title>
<g id="a_Node000001"><a xlink:title="Get or set credentials by alias.">
<polygon fill="#999999" stroke="#666666" points="199.75,-132 0,-132 0,-100 199.75,-100 199.75,-132"/>
<text text-anchor="start" x="8" y="-118.5" font-family="Helvetica,sans-Serif" font-size="10.00">fr.softsf.sudokufx.utils.database.keystore.</text>
<text text-anchor="middle" x="99.88" y="-106.5" font-family="Helvetica,sans-Serif" font-size="10.00">ApplicationKeystore.credentials</text>
</a>
</g>
</g>
<!-- Node2 -->
<g id="Node000002" class="node">
<title>Node2</title>
<g id="a_Node000002"><a xlink:href="classfr_1_1softsf_1_1sudokufx_1_1utils_1_1database_1_1keystore_1_1_application_keystore.html#af5312fa49787830d1c7e73806a03b5bb" target="_top" xlink:title="Get credential by alias.">
<polygon fill="white" stroke="#666666" points="435.5,-169 235.75,-169 235.75,-137 435.5,-137 435.5,-169"/>
<text text-anchor="start" x="243.75" y="-155.5" font-family="Helvetica,sans-Serif" font-size="10.00">fr.softsf.sudokufx.utils.database.keystore.</text>
<text text-anchor="middle" x="335.62" y="-143.5" font-family="Helvetica,sans-Serif" font-size="10.00">ApplicationKeystore.getCredentials</text>
</a>
</g>
</g>
<!-- Node1&#45;&gt;Node2 -->
<g id="edge1_Node000001_Node000002" class="edge">
<title>Node1&#45;&gt;Node2</title>
<g id="a_edge1_Node000001_Node000002"><a xlink:title=" ">
<path fill="none" stroke="#63b8ff" d="M200.01,-131.69C207.96,-132.95 216.02,-134.23 224.04,-135.5"/>
<polygon fill="#63b8ff" stroke="#63b8ff" points="223.42,-138.94 233.85,-137.05 224.52,-132.03 223.42,-138.94"/>
</a>
</g>
</g>
<!-- Node4 -->
<g id="Node000004" class="node">
<title>Node4</title>
<g id="a_Node000004"><a xlink:href="classfr_1_1softsf_1_1sudokufx_1_1utils_1_1database_1_1keystore_1_1_application_keystore.html#aac0c74b44fb1dd6e9bef9b713a8ba609" target="_top" xlink:title="Set credential by alias.">
<polygon fill="white" stroke="#666666" points="435.5,-107 235.75,-107 235.75,-75 435.5,-75 435.5,-107"/>
<text text-anchor="start" x="243.75" y="-93.5" font-family="Helvetica,sans-Serif" font-size="10.00">fr.softsf.sudokufx.utils.database.keystore.</text>
<text text-anchor="middle" x="335.62" y="-81.5" font-family="Helvetica,sans-Serif" font-size="10.00">ApplicationKeystore.setCredentials</text>
</a>
</g>
</g>
<!-- Node1&#45;&gt;Node4 -->
<g id="edge3_Node000001_Node000004" class="edge">
<title>Node1&#45;&gt;Node4</title>
<g id="a_edge3_Node000001_Node000004"><a xlink:title=" ">
<path fill="none" stroke="#63b8ff" d="M200.01,-105.4C207.96,-104.55 216.02,-103.69 224.04,-102.83"/>
<polygon fill="#63b8ff" stroke="#63b8ff" points="224.26,-106.32 233.84,-101.78 223.52,-99.36 224.26,-106.32"/>
</a>
</g>
</g>
<!-- Node3 -->
<g id="Node000003" class="node">
<title>Node3</title>
<g id="a_Node000003"><a xlink:href="interfacefr_1_1softsf_1_1sudokufx_1_1interfaces_1_1_i_encryption_service.html#a605da446a6ec28faa7c6e1d26a4cb2ca" target="_top" xlink:title="Decrypt original.">
<polygon fill="white" stroke="#666666" points="642,-182 500.75,-182 500.75,-150 642,-150 642,-182"/>
<text text-anchor="start" x="508.75" y="-168.5" font-family="Helvetica,sans-Serif" font-size="10.00">fr.softsf.sudokufx.interfaces.</text>
<text text-anchor="middle" x="571.38" y="-156.5" font-family="Helvetica,sans-Serif" font-size="10.00">IEncryptionService.decrypt</text>
</a>
</g>
</g>
<!-- Node2&#45;&gt;Node3 -->
<g id="edge2_Node000002_Node000003" class="edge">
<title>Node2&#45;&gt;Node3</title>
<g id="a_edge2_Node000002_Node000003"><a xlink:title=" ">
<path fill="none" stroke="#63b8ff" d="M435.76,-158.51C453.62,-159.51 472.05,-160.53 489.32,-161.49"/>
<polygon fill="#63b8ff" stroke="#63b8ff" points="488.8,-164.97 498.98,-162.03 489.19,-157.98 488.8,-164.97"/>
</a>
</g>
</g>
<!-- Node5 -->
<g id="Node000005" class="node">
<title>Node5</title>
<g id="a_Node000005"><a xlink:href="classfr_1_1softsf_1_1sudokufx_1_1utils_1_1database_1_1keystore_1_1_application_keystore.html#a33216f8f54d7cd930bad1447d08019ba" target="_top" xlink:title="Add alias:secret in the Keystore.">
<polygon fill="white" stroke="#666666" points="671.25,-132 471.5,-132 471.5,-100 671.25,-100 671.25,-132"/>
<text text-anchor="start" x="479.5" y="-118.5" font-family="Helvetica,sans-Serif" font-size="10.00">fr.softsf.sudokufx.utils.database.keystore.</text>
<text text-anchor="middle" x="571.38" y="-106.5" font-family="Helvetica,sans-Serif" font-size="10.00">ApplicationKeystore.addToKeystore</text>
</a>
</g>
</g>
<!-- Node4&#45;&gt;Node5 -->
<g id="edge4_Node000004_Node000005" class="edge">
<title>Node4&#45;&gt;Node5</title>
<g id="a_edge4_Node000004_Node000005"><a xlink:title=" ">
<path fill="none" stroke="#63b8ff" d="M435.76,-101.6C443.71,-102.45 451.77,-103.31 459.79,-104.17"/>
<polygon fill="#63b8ff" stroke="#63b8ff" points="459.27,-107.64 469.59,-105.22 460.01,-100.68 459.27,-107.64"/>
</a>
</g>
</g>
<!-- Node7 -->
<g id="Node000007" class="node">
<title>Node7</title>
<g id="a_Node000007"><a xlink:href="interfacefr_1_1softsf_1_1sudokufx_1_1interfaces_1_1_i_encryption_service.html#a7cd39caadae83b3502b56b96d349cfc5" target="_top" xlink:title="Encrypt original.">
<polygon fill="white" stroke="#666666" points="642,-82 500.75,-82 500.75,-50 642,-50 642,-82"/>
<text text-anchor="start" x="508.75" y="-68.5" font-family="Helvetica,sans-Serif" font-size="10.00">fr.softsf.sudokufx.interfaces.</text>
<text text-anchor="middle" x="571.38" y="-56.5" font-family="Helvetica,sans-Serif" font-size="10.00">IEncryptionService.encrypt</text>
</a>
</g>
</g>
<!-- Node4&#45;&gt;Node7 -->
<g id="edge6_Node000004_Node000007" class="edge">
<title>Node4&#45;&gt;Node7</title>
<g id="a_edge6_Node000004_Node000007"><a xlink:title=" ">
<path fill="none" stroke="#63b8ff" d="M435.76,-80.4C453.62,-78.49 472.05,-76.52 489.32,-74.67"/>
<polygon fill="#63b8ff" stroke="#63b8ff" points="489.41,-78.18 498.98,-73.64 488.67,-71.22 489.41,-78.18"/>
</a>
</g>
</g>
<!-- Node8 -->
<g id="Node000008" class="node">
<title>Node8</title>
<g id="a_Node000008"><a xlink:href="classfr_1_1softsf_1_1sudokufx_1_1utils_1_1database_1_1keystore_1_1_generate_secret.html#ac1a554d432a1d4a3f2c32d9ca6594868" target="_top" xlink:title="Generate Passay secret.">
<polygon fill="white" stroke="#666666" points="671.25,-32 471.5,-32 471.5,0 671.25,0 671.25,-32"/>
<text text-anchor="start" x="479.5" y="-18.5" font-family="Helvetica,sans-Serif" font-size="10.00">fr.softsf.sudokufx.utils.database.keystore.</text>
<text text-anchor="middle" x="571.38" y="-6.5" font-family="Helvetica,sans-Serif" font-size="10.00">GenerateSecret.generatePassaySecret</text>
</a>
</g>
</g>
<!-- Node4&#45;&gt;Node8 -->
<g id="edge7_Node000004_Node000008" class="edge">
<title>Node4&#45;&gt;Node8</title>
<g id="a_edge7_Node000004_Node000008"><a xlink:title=" ">
<path fill="none" stroke="#63b8ff" d="M377.55,-74.52C404.09,-64.17 439.54,-50.93 471.5,-41 477.62,-39.1 483.99,-37.23 490.41,-35.44"/>
<polygon fill="#63b8ff" stroke="#63b8ff" points="491.05,-38.89 499.77,-32.87 489.2,-32.14 491.05,-38.89"/>
</a>
</g>
</g>
<!-- Node6 -->
<g id="Node000006" class="node">
<title>Node6</title>
<g id="a_Node000006"><a xlink:href="classfr_1_1softsf_1_1sudokufx_1_1utils_1_1database_1_1keystore_1_1_application_keystore.html#af82e040ae05888410827f695338a3a07" target="_top" xlink:title="Write data to the keystore file.">
<polygon fill="white" stroke="#666666" points="907,-132 707.25,-132 707.25,-100 907,-100 907,-132"/>
<text text-anchor="start" x="715.25" y="-118.5" font-family="Helvetica,sans-Serif" font-size="10.00">fr.softsf.sudokufx.utils.database.keystore.</text>
<text text-anchor="middle" x="807.12" y="-106.5" font-family="Helvetica,sans-Serif" font-size="10.00">ApplicationKeystore.writeTheKeystore</text>
</a>
</g>
</g>
<!-- Node5&#45;&gt;Node6 -->
<g id="edge5_Node000005_Node000006" class="edge">
<title>Node5&#45;&gt;Node6</title>
<g id="a_edge5_Node000005_Node000006"><a xlink:title=" ">
<path fill="none" stroke="#63b8ff" d="M671.51,-116C679.46,-116 687.52,-116 695.54,-116"/>
<polygon fill="#63b8ff" stroke="#63b8ff" points="695.33,-119.5 705.33,-116 695.33,-112.5 695.33,-119.5"/>
</a>
</g>
</g>
<!-- Node9 -->
<g id="Node000009" class="node">
<title>Node9</title>
<g id="a_Node000009"><a xlink:href="classfr_1_1softsf_1_1sudokufx_1_1utils_1_1database_1_1keystore_1_1_generate_secret.html#a60e50e50087c5e2e578a7e14fa9d2b2e" target="_top" xlink:title="Define the secret special characters.">
<polygon fill="white" stroke="#666666" points="907,-32 707.25,-32 707.25,0 907,0 907,-32"/>
<text text-anchor="start" x="715.25" y="-18.5" font-family="Helvetica,sans-Serif" font-size="10.00">fr.softsf.sudokufx.utils.database.keystore.</text>
<text text-anchor="middle" x="807.12" y="-6.5" font-family="Helvetica,sans-Serif" font-size="10.00">GenerateSecret.createSpecialChars</text>
</a>
</g>
</g>
<!-- Node8&#45;&gt;Node9 -->
<g id="edge8_Node000008_Node000009" class="edge">
<title>Node8&#45;&gt;Node9</title>
<g id="a_edge8_Node000008_Node000009"><a xlink:title=" ">
<path fill="none" stroke="#63b8ff" d="M671.51,-16C679.46,-16 687.52,-16 695.54,-16"/>
<polygon fill="#63b8ff" stroke="#63b8ff" points="695.33,-19.5 705.33,-16 695.33,-12.5 695.33,-19.5"/>
</a>
</g>
</g>
</g>
</svg>
