<?xml version="1.0" encoding="UTF-8" standalone="no"?>
<!DOCTYPE svg PUBLIC "-//W3C//DTD SVG 1.1//EN"
 "http://www.w3.org/Graphics/SVG/1.1/DTD/svg11.dtd">
<!-- Generated by graphviz version 12.2.0 (20241103.1931)
 -->
<!-- Title: fr.softsf.sudofx2024.utils.FileSystemManager Pages: 1 -->
<svg width="213pt" height="236pt"
 viewBox="0.00 0.00 212.75 236.00" xmlns="http://www.w3.org/2000/svg" xmlns:xlink="http://www.w3.org/1999/xlink">

<svg id="main" version="1.1" xmlns="http://www.w3.org/2000/svg" xmlns:xlink="http://www.w3.org/1999/xlink" xml:space="preserve">

<style type="text/css"><![CDATA[
.node, .edge {opacity: 0.7;}
.node.selected, .edge.selected {opacity: 1;}
.edge:hover path { stroke: red; }
.edge:hover polygon { stroke: red; fill: red; }
]]></style>
<script type="application/ecmascript" xlink:href="svg.min.js"/>
<svg id="graph" class="graph">
<g id="graph0" class="graph" transform="scale(1 1) rotate(0) translate(4 232)">
<title>fr.softsf.sudofx2024.utils.FileSystemManager</title>
<!-- Node1 -->
<g id="Node000001" class="node">
<title>Node1</title>
<g id="a_Node000001"><a xlink:title="Manages file system operations, particularly folder deletion.">
<polygon fill="#999999" stroke="none" points="182.25,-116 22.5,-116 22.5,0 182.25,0 182.25,-116"/>
<text text-anchor="start" x="46.88" y="-102.5" font-family="Helvetica,sans-Serif" font-size="10.00">fr.softsf.sudofx2024.utils.</text>
<text text-anchor="start" x="58.88" y="-90.5" font-family="Helvetica,sans-Serif" font-size="10.00">FileSystemManager</text>
<text text-anchor="start" x="100.88" y="-74.5" font-family="Helvetica,sans-Serif" font-size="10.00"> </text>
<text text-anchor="start" x="26.5" y="-58.5" font-family="Helvetica,sans-Serif" font-size="10.00">+</text>
<text text-anchor="start" x="36.5" y="-58.5" font-family="Helvetica,sans-Serif" font-size="10.00">boolean deleteFolderRecursively</text>
<text text-anchor="start" x="36.5" y="-46.5" font-family="Helvetica,sans-Serif" font-size="10.00">(final Path folderPath, final</text>
<text text-anchor="start" x="36.5" y="-34.5" font-family="Helvetica,sans-Serif" font-size="10.00"> String mustEndWithThat)</text>
<text text-anchor="start" x="26.5" y="-18.5" font-family="Helvetica,sans-Serif" font-size="10.00">~</text>
<text text-anchor="start" x="36.5" y="-18.5" font-family="Helvetica,sans-Serif" font-size="10.00">Throwable deleteFile</text>
<text text-anchor="start" x="36.5" y="-6.5" font-family="Helvetica,sans-Serif" font-size="10.00">(final Path path)</text>
<polygon fill="#666666" stroke="#666666" points="22.5,-86 22.5,-86 182.25,-86 182.25,-86 22.5,-86"/>
<polygon fill="#666666" stroke="#666666" points="22.5,-70 22.5,-70 182.25,-70 182.25,-70 22.5,-70"/>
<polygon fill="none" stroke="#666666" points="22.5,0 22.5,-116 182.25,-116 182.25,0 22.5,0"/>
</a>
</g>
</g>
<!-- Node2 -->
<g id="Node000002" class="node">
<title>Node2</title>
<g id="a_Node000002"><a xlink:href="interfacefr_1_1softsf_1_1sudofx2024_1_1interfaces_1_1_i_file_system.html" target="_top" xlink:title=" ">
<polygon fill="white" stroke="none" points="204.75,-228 0,-228 0,-152 204.75,-152 204.75,-228"/>
<text text-anchor="start" x="34.5" y="-214.5" font-family="Helvetica,sans-Serif" font-size="10.00">fr.softsf.sudofx2024.interfaces.</text>
<text text-anchor="start" x="76.12" y="-202.5" font-family="Helvetica,sans-Serif" font-size="10.00">IFileSystem</text>
<text text-anchor="start" x="100.88" y="-186.5" font-family="Helvetica,sans-Serif" font-size="10.00"> </text>
<text text-anchor="start" x="4" y="-170.5" font-family="Helvetica,sans-Serif" font-size="10.00">+</text>
<text text-anchor="start" x="14" y="-170.5" font-family="Helvetica,sans-Serif" font-size="10.00">boolean deleteFolderRecursively</text>
<text text-anchor="start" x="14" y="-158.5" font-family="Helvetica,sans-Serif" font-size="10.00">(Path folderPath, String mustEndWithThat)</text>
<polygon fill="#666666" stroke="#666666" points="0,-198 0,-198 204.75,-198 204.75,-198 0,-198"/>
<polygon fill="#666666" stroke="#666666" points="0,-182 0,-182 204.75,-182 204.75,-182 0,-182"/>
<polygon fill="none" stroke="#666666" points="0,-152 0,-228 204.75,-228 204.75,-152 0,-152"/>
</a>
</g>
</g>
<!-- Node2&#45;&gt;Node1 -->
<g id="edge1_Node000001_Node000002" class="edge">
<title>Node2&#45;&gt;Node1</title>
<g id="a_edge1_Node000001_Node000002"><a xlink:title=" ">
<path fill="none" stroke="#63b8ff" d="M102.38,-140.62C102.38,-132.57 102.38,-124.16 102.38,-115.92"/>
<polygon fill="none" stroke="#63b8ff" points="98.88,-140.58 102.38,-150.58 105.88,-140.58 98.88,-140.58"/>
</a>
</g>
</g>
</g>
</svg>
</svg>

<style type='text/css'>
<![CDATA[
[data-mouse-over-selected='false'] { opacity: 0.7; }
[data-mouse-over-selected='true']  { opacity: 1.0; }
]]>
</style>
<script type="application/ecmascript"><![CDATA[
document.addEventListener('DOMContentLoaded', (event) => {
  highlightEdges();
  highlightAdjacentNodes();
});
]]></script>
</svg>
