<?xml version="1.0" encoding="UTF-8" standalone="no"?>
<!DOCTYPE svg PUBLIC "-//W3C//DTD SVG 1.1//EN"
 "http://www.w3.org/Graphics/SVG/1.1/DTD/svg11.dtd">
<!-- Generated by graphviz version 12.2.1 (20241206.2353)
 -->
<!-- Title: fr.softsf.sudokufx.viewmodel.FullMenuViewModel Pages: 1 -->
<svg width="348pt" height="925pt"
 viewBox="0.00 0.00 348.25 925.00" xmlns="http://www.w3.org/2000/svg" xmlns:xlink="http://www.w3.org/1999/xlink">
<g id="graph0" class="graph" transform="scale(1 1) rotate(0) translate(4 921)">
<title>fr.softsf.sudokufx.viewmodel.FullMenuViewModel</title>
<!-- Node1 -->
<g id="Node000001" class="node">
<title>Node1</title>
<g id="a_Node000001"><a xlink:title="FullMenuViewModel with business logic (not final)">
<polygon fill="#999999" stroke="none" points="265.25,-336 68.75,-336 68.75,0 265.25,0 265.25,-336"/>
<text text-anchor="start" x="102.5" y="-322.5" font-family="Helvetica,sans-Serif" font-size="10.00">fr.softsf.sudokufx.viewmodel.</text>
<text text-anchor="start" x="123.12" y="-310.5" font-family="Helvetica,sans-Serif" font-size="10.00">FullMenuViewModel</text>
<text text-anchor="start" x="74.25" y="-294.5" font-family="Helvetica,sans-Serif" font-size="10.00">&#45;</text>
<text text-anchor="start" x="82.75" y="-294.5" font-family="Helvetica,sans-Serif" font-size="10.00">final StringProperty</text>
<text text-anchor="start" x="82.75" y="-282.5" font-family="Helvetica,sans-Serif" font-size="10.00"> githubVersion</text>
<text text-anchor="start" x="74.25" y="-266.5" font-family="Helvetica,sans-Serif" font-size="10.00">&#45;</text>
<text text-anchor="start" x="82.75" y="-266.5" font-family="Helvetica,sans-Serif" font-size="10.00">final IGridMaster iGridMaster</text>
<text text-anchor="start" x="74.25" y="-250.5" font-family="Helvetica,sans-Serif" font-size="10.00">&#45;</text>
<text text-anchor="start" x="82.75" y="-250.5" font-family="Helvetica,sans-Serif" font-size="10.00">final SimpleBooleanProperty</text>
<text text-anchor="start" x="82.75" y="-238.5" font-family="Helvetica,sans-Serif" font-size="10.00"> version</text>
<text text-anchor="start" x="74.25" y="-222.5" font-family="Helvetica,sans-Serif" font-size="10.00">&#45;</text>
<text text-anchor="start" x="82.75" y="-222.5" font-family="Helvetica,sans-Serif" font-size="10.00">StringProperty welcome</text>
<text text-anchor="start" x="72.75" y="-206.5" font-family="Helvetica,sans-Serif" font-size="10.00">+</text>
<text text-anchor="start" x="82.75" y="-206.5" font-family="Helvetica,sans-Serif" font-size="10.00">FullMenuViewModel</text>
<text text-anchor="start" x="82.75" y="-194.5" font-family="Helvetica,sans-Serif" font-size="10.00">(SoftwareService softwareService,</text>
<text text-anchor="start" x="82.75" y="-182.5" font-family="Helvetica,sans-Serif" font-size="10.00"> IGridMaster iGridMaster, VersionService</text>
<text text-anchor="start" x="82.75" y="-170.5" font-family="Helvetica,sans-Serif" font-size="10.00"> versionService)</text>
<text text-anchor="start" x="72.75" y="-154.5" font-family="Helvetica,sans-Serif" font-size="10.00">+</text>
<text text-anchor="start" x="82.75" y="-154.5" font-family="Helvetica,sans-Serif" font-size="10.00">ReadOnlyStringProperty</text>
<text text-anchor="start" x="82.75" y="-142.5" font-family="Helvetica,sans-Serif" font-size="10.00"> githubVersionProperty()</text>
<text text-anchor="start" x="72.75" y="-126.5" font-family="Helvetica,sans-Serif" font-size="10.00">+</text>
<text text-anchor="start" x="82.75" y="-126.5" font-family="Helvetica,sans-Serif" font-size="10.00">void test()</text>
<text text-anchor="start" x="72.75" y="-110.5" font-family="Helvetica,sans-Serif" font-size="10.00">+</text>
<text text-anchor="start" x="82.75" y="-110.5" font-family="Helvetica,sans-Serif" font-size="10.00">BooleanProperty versionProperty()</text>
<text text-anchor="start" x="72.75" y="-94.5" font-family="Helvetica,sans-Serif" font-size="10.00">+</text>
<text text-anchor="start" x="82.75" y="-94.5" font-family="Helvetica,sans-Serif" font-size="10.00">StringProperty welcomeProperty()</text>
<text text-anchor="start" x="74.25" y="-78.5" font-family="Helvetica,sans-Serif" font-size="10.00">&#45;</text>
<text text-anchor="start" x="82.75" y="-78.5" font-family="Helvetica,sans-Serif" font-size="10.00">void checkGitHubVersion()</text>
<text text-anchor="start" x="74.25" y="-62.5" font-family="Helvetica,sans-Serif" font-size="10.00">&#45;</text>
<text text-anchor="start" x="82.75" y="-62.5" font-family="Helvetica,sans-Serif" font-size="10.00">void createSoftware()</text>
<text text-anchor="start" x="74.25" y="-46.5" font-family="Helvetica,sans-Serif" font-size="10.00">&#45;</text>
<text text-anchor="start" x="82.75" y="-46.5" font-family="Helvetica,sans-Serif" font-size="10.00">void setWelcome(String</text>
<text text-anchor="start" x="82.75" y="-34.5" font-family="Helvetica,sans-Serif" font-size="10.00"> output)</text>
<text text-anchor="start" x="74.25" y="-18.5" font-family="Helvetica,sans-Serif" font-size="10.00">&#45;</text>
<text text-anchor="start" x="82.75" y="-18.5" font-family="Helvetica,sans-Serif" font-size="10.00">void updateSoftware</text>
<text text-anchor="start" x="82.75" y="-6.5" font-family="Helvetica,sans-Serif" font-size="10.00">(SoftwareDto softwareToUpdate)</text>
<polygon fill="#666666" stroke="#666666" points="68.75,-306 68.75,-306 265.25,-306 265.25,-306 68.75,-306"/>
<polygon fill="#666666" stroke="#666666" points="68.75,-218 68.75,-218 80.75,-218 80.75,-218 68.75,-218"/>
<polygon fill="#666666" stroke="#666666" points="80.75,-218 80.75,-218 265.25,-218 265.25,-218 80.75,-218"/>
<polygon fill="none" stroke="#666666" points="68.75,0 68.75,-336 265.25,-336 265.25,0 68.75,0"/>
</a>
</g>
</g>
<!-- Node2 -->
<g id="Node000002" class="node">
<title>Node2</title>
<g id="a_Node000002"><a xlink:href="classfr_1_1softsf_1_1sudokufx_1_1service_1_1_software_service.html" target="_top" xlink:title=" ">
<polygon fill="white" stroke="none" points="156,-590 0,-590 0,-446 156,-446 156,-590"/>
<text text-anchor="start" x="21" y="-576.5" font-family="Helvetica,sans-Serif" font-size="10.00">fr.softsf.sudokufx.service.</text>
<text text-anchor="start" x="42" y="-564.5" font-family="Helvetica,sans-Serif" font-size="10.00">SoftwareService</text>
<text text-anchor="start" x="76.5" y="-548.5" font-family="Helvetica,sans-Serif" font-size="10.00"> </text>
<text text-anchor="start" x="4" y="-532.5" font-family="Helvetica,sans-Serif" font-size="10.00">+</text>
<text text-anchor="start" x="14" y="-532.5" font-family="Helvetica,sans-Serif" font-size="10.00">SoftwareService(Software</text>
<text text-anchor="start" x="14" y="-520.5" font-family="Helvetica,sans-Serif" font-size="10.00">Repository softwareRepository)</text>
<text text-anchor="start" x="4" y="-504.5" font-family="Helvetica,sans-Serif" font-size="10.00">+</text>
<text text-anchor="start" x="14" y="-504.5" font-family="Helvetica,sans-Serif" font-size="10.00">Optional&lt; SoftwareDto</text>
<text text-anchor="start" x="14" y="-492.5" font-family="Helvetica,sans-Serif" font-size="10.00"> &gt; getSoftware()</text>
<text text-anchor="start" x="4" y="-476.5" font-family="Helvetica,sans-Serif" font-size="10.00">+</text>
<text text-anchor="start" x="14" y="-476.5" font-family="Helvetica,sans-Serif" font-size="10.00">Optional&lt; SoftwareDto</text>
<text text-anchor="start" x="14" y="-464.5" font-family="Helvetica,sans-Serif" font-size="10.00"> &gt; updateSoftware(SoftwareDto</text>
<text text-anchor="start" x="14" y="-452.5" font-family="Helvetica,sans-Serif" font-size="10.00"> softwareDto)</text>
<polygon fill="#666666" stroke="#666666" points="0,-560 0,-560 156,-560 156,-560 0,-560"/>
<polygon fill="#666666" stroke="#666666" points="0,-544 0,-544 156,-544 156,-544 0,-544"/>
<polygon fill="none" stroke="#666666" points="0,-446 0,-590 156,-590 156,-446 0,-446"/>
</a>
</g>
</g>
<!-- Node2&#45;&gt;Node1 -->
<g id="edge1_Node000001_Node000002" class="edge">
<title>Node2&#45;&gt;Node1</title>
<g id="a_edge1_Node000001_Node000002"><a xlink:title=" ">
<path fill="none" stroke="#63b8ff" d="M96.12,-446.16C103.46,-417.45 112.3,-382.87 121.21,-348.03"/>
<polygon fill="none" stroke="#63b8ff" points="121.17,-348.2 118.78,-341.4 124.14,-336.58 126.53,-343.38 121.17,-348.2"/>
</a>
</g>
<text text-anchor="middle" x="155.42" y="-356.5" font-family="Helvetica,sans-Serif" font-size="10.00" fill="grey"> &#45;softwareService</text>
</g>
<!-- Node3 -->
<g id="Node000003" class="node">
<title>Node3</title>
<g id="a_Node000003"><a xlink:href="interfacefr_1_1softsf_1_1sudokufx_1_1repository_1_1_software_repository.html" target="_top" xlink:title=" ">
<polygon fill="white" stroke="none" points="144.25,-796 11.75,-796 11.75,-720 144.25,-720 144.25,-796"/>
<text text-anchor="start" x="15.75" y="-782.5" font-family="Helvetica,sans-Serif" font-size="10.00">fr.softsf.sudokufx.repository.</text>
<text text-anchor="start" x="34.88" y="-770.5" font-family="Helvetica,sans-Serif" font-size="10.00">SoftwareRepository</text>
<text text-anchor="start" x="76.5" y="-754.5" font-family="Helvetica,sans-Serif" font-size="10.00"> </text>
<text text-anchor="start" x="21.31" y="-738.5" font-family="Helvetica,sans-Serif" font-size="10.00">+</text>
<text text-anchor="start" x="36.88" y="-738.5" font-family="Helvetica,sans-Serif" font-size="10.00">Optional&lt; Software</text>
<text text-anchor="start" x="36.88" y="-726.5" font-family="Helvetica,sans-Serif" font-size="10.00"> &gt; findFirstSoftware()</text>
<polygon fill="#666666" stroke="#666666" points="11.75,-766 11.75,-766 144.25,-766 144.25,-766 11.75,-766"/>
<polygon fill="#666666" stroke="#666666" points="11.75,-750 11.75,-750 144.25,-750 144.25,-750 11.75,-750"/>
<polygon fill="none" stroke="#666666" points="11.75,-720 11.75,-796 144.25,-796 144.25,-720 11.75,-720"/>
</a>
</g>
</g>
<!-- Node3&#45;&gt;Node2 -->
<g id="edge2_Node000002_Node000003" class="edge">
<title>Node3&#45;&gt;Node2</title>
<g id="a_edge2_Node000002_Node000003"><a xlink:title=" ">
<path fill="none" stroke="#63b8ff" d="M78,-720.07C78,-688.73 78,-642.59 78,-602.41"/>
<polygon fill="none" stroke="#63b8ff" points="78,-602.5 74,-596.5 78,-590.5 82,-596.5 78,-602.5"/>
</a>
</g>
<text text-anchor="middle" x="123.38" y="-672.5" font-family="Helvetica,sans-Serif" font-size="10.00" fill="grey"> &#45;softwareRepository</text>
</g>
<!-- Node4 -->
<g id="Node000004" class="node">
<title>Node4</title>
<g id="a_Node000004"><a xlink:title=" ">
<polygon fill="white" stroke="none" points="139,-917 17,-917 17,-853 139,-853 139,-917"/>
<text text-anchor="start" x="21" y="-903.5" font-family="Helvetica,sans-Serif" font-size="10.00">JpaRepository&lt; Software,</text>
<text text-anchor="start" x="61.5" y="-891.5" font-family="Helvetica,sans-Serif" font-size="10.00"> Long &gt;</text>
<text text-anchor="start" x="76.5" y="-875.5" font-family="Helvetica,sans-Serif" font-size="10.00"> </text>
<text text-anchor="start" x="76.5" y="-859.5" font-family="Helvetica,sans-Serif" font-size="10.00"> </text>
<polygon fill="#666666" stroke="#666666" points="17,-887 17,-887 139,-887 139,-887 17,-887"/>
<polygon fill="#666666" stroke="#666666" points="17,-871 17,-871 139,-871 139,-871 17,-871"/>
<polygon fill="none" stroke="#666666" points="17,-853 17,-917 139,-917 139,-853 17,-853"/>
</a>
</g>
</g>
<!-- Node4&#45;&gt;Node3 -->
<g id="edge3_Node000003_Node000004" class="edge">
<title>Node4&#45;&gt;Node3</title>
<g id="a_edge3_Node000003_Node000004"><a xlink:title=" ">
<path fill="none" stroke="#63b8ff" d="M78,-841.61C78,-826.73 78,-810.14 78,-795.76"/>
<polygon fill="none" stroke="#63b8ff" points="74.5,-841.59 78,-851.59 81.5,-841.59 74.5,-841.59"/>
</a>
</g>
</g>
<!-- Node5 -->
<g id="Node000005" class="node">
<title>Node5</title>
<g id="a_Node000005"><a xlink:href="classfr_1_1softsf_1_1sudokufx_1_1service_1_1_version_service.html" target="_top" xlink:title="Service for checking if the application version is up to date by querying GitHub.">
<polygon fill="white" stroke="none" points="340.25,-652 173.75,-652 173.75,-384 340.25,-384 340.25,-652"/>
<text text-anchor="start" x="200" y="-638.5" font-family="Helvetica,sans-Serif" font-size="10.00">fr.softsf.sudokufx.service.</text>
<text text-anchor="start" x="224.38" y="-626.5" font-family="Helvetica,sans-Serif" font-size="10.00">VersionService</text>
<text text-anchor="start" x="179.25" y="-610.5" font-family="Helvetica,sans-Serif" font-size="10.00">&#45;</text>
<text text-anchor="start" x="187.75" y="-610.5" font-family="Helvetica,sans-Serif" font-size="10.00">final HttpClient httpClient</text>
<text text-anchor="start" x="179.25" y="-594.5" font-family="Helvetica,sans-Serif" font-size="10.00">&#45;</text>
<text text-anchor="start" x="187.75" y="-594.5" font-family="Helvetica,sans-Serif" font-size="10.00">static final String</text>
<text text-anchor="start" x="187.75" y="-582.5" font-family="Helvetica,sans-Serif" font-size="10.00"> CURRENT_VERSION</text>
<text text-anchor="start" x="179.25" y="-566.5" font-family="Helvetica,sans-Serif" font-size="10.00">&#45;</text>
<text text-anchor="start" x="187.75" y="-566.5" font-family="Helvetica,sans-Serif" font-size="10.00">static final ObjectMapper</text>
<text text-anchor="start" x="187.75" y="-554.5" font-family="Helvetica,sans-Serif" font-size="10.00"> OBJECT_MAPPER</text>
<text text-anchor="start" x="177.75" y="-538.5" font-family="Helvetica,sans-Serif" font-size="10.00">+</text>
<text text-anchor="start" x="187.75" y="-538.5" font-family="Helvetica,sans-Serif" font-size="10.00">VersionService(HttpClient</text>
<text text-anchor="start" x="187.75" y="-526.5" font-family="Helvetica,sans-Serif" font-size="10.00"> httpClient, MyDateTime</text>
<text text-anchor="start" x="187.75" y="-514.5" font-family="Helvetica,sans-Serif" font-size="10.00"> myDateTime)</text>
<text text-anchor="start" x="177.75" y="-498.5" font-family="Helvetica,sans-Serif" font-size="10.00">+</text>
<text text-anchor="start" x="187.75" y="-498.5" font-family="Helvetica,sans-Serif" font-size="10.00">Task&lt; Boolean &gt; checkLatest</text>
<text text-anchor="start" x="187.75" y="-486.5" font-family="Helvetica,sans-Serif" font-size="10.00">Version()</text>
<text text-anchor="start" x="177.75" y="-470.5" font-family="Helvetica,sans-Serif" font-size="10.00">+</text>
<text text-anchor="start" x="187.75" y="-470.5" font-family="Helvetica,sans-Serif" font-size="10.00">String getGitHubLinkToRepository</text>
<text text-anchor="start" x="187.75" y="-458.5" font-family="Helvetica,sans-Serif" font-size="10.00">Releases()</text>
<text text-anchor="start" x="179.25" y="-442.5" font-family="Helvetica,sans-Serif" font-size="10.00">&#45;</text>
<text text-anchor="start" x="187.75" y="-442.5" font-family="Helvetica,sans-Serif" font-size="10.00">int compareVersions</text>
<text text-anchor="start" x="187.75" y="-430.5" font-family="Helvetica,sans-Serif" font-size="10.00">(final String version1,</text>
<text text-anchor="start" x="187.75" y="-418.5" font-family="Helvetica,sans-Serif" font-size="10.00"> final String version2)</text>
<text text-anchor="start" x="179.25" y="-402.5" font-family="Helvetica,sans-Serif" font-size="10.00">&#45;</text>
<text text-anchor="start" x="187.75" y="-402.5" font-family="Helvetica,sans-Serif" font-size="10.00">boolean parseResponse</text>
<text text-anchor="start" x="187.75" y="-390.5" font-family="Helvetica,sans-Serif" font-size="10.00">(String json)</text>
<polygon fill="#666666" stroke="#666666" points="173.75,-622 173.75,-622 340.25,-622 340.25,-622 173.75,-622"/>
<polygon fill="#666666" stroke="#666666" points="173.75,-550 173.75,-550 185.75,-550 185.75,-550 173.75,-550"/>
<polygon fill="#666666" stroke="#666666" points="185.75,-550 185.75,-550 340.25,-550 340.25,-550 185.75,-550"/>
<polygon fill="none" stroke="#666666" points="173.75,-384 173.75,-652 340.25,-652 340.25,-384 173.75,-384"/>
</a>
</g>
</g>
<!-- Node5&#45;&gt;Node1 -->
<g id="edge4_Node000001_Node000005" class="edge">
<title>Node5&#45;&gt;Node1</title>
<g id="a_edge4_Node000001_Node000005"><a xlink:title=" ">
<path fill="none" stroke="#63b8ff" d="M222.72,-384.44C219.63,-372.49 216.46,-360.25 213.29,-347.99"/>
<polygon fill="none" stroke="#63b8ff" points="213.35,-348.21 207.97,-343.4 210.34,-336.59 215.72,-341.4 213.35,-348.21"/>
</a>
</g>
<text text-anchor="middle" x="252.64" y="-356.5" font-family="Helvetica,sans-Serif" font-size="10.00" fill="grey"> &#45;versionService</text>
</g>
<!-- Node6 -->
<g id="Node000006" class="node">
<title>Node6</title>
<g id="a_Node000006"><a xlink:href="classfr_1_1softsf_1_1sudokufx_1_1utils_1_1_my_date_time.html" target="_top" xlink:title="Component working with date and time operations.">
<polygon fill="white" stroke="none" points="332.38,-816 181.62,-816 181.62,-700 332.38,-700 332.38,-816"/>
<text text-anchor="start" x="206.75" y="-802.5" font-family="Helvetica,sans-Serif" font-size="10.00">fr.softsf.sudokufx.utils.</text>
<text text-anchor="start" x="228.88" y="-790.5" font-family="Helvetica,sans-Serif" font-size="10.00">MyDateTime</text>
<text text-anchor="start" x="187.12" y="-774.5" font-family="Helvetica,sans-Serif" font-size="10.00">&#45;</text>
<text text-anchor="start" x="195.62" y="-774.5" font-family="Helvetica,sans-Serif" font-size="10.00">static final Clock</text>
<text text-anchor="start" x="195.62" y="-762.5" font-family="Helvetica,sans-Serif" font-size="10.00"> clock</text>
<text text-anchor="start" x="187.12" y="-746.5" font-family="Helvetica,sans-Serif" font-size="10.00">&#45;</text>
<text text-anchor="start" x="195.62" y="-746.5" font-family="Helvetica,sans-Serif" font-size="10.00">static final DateTimeFormatter</text>
<text text-anchor="start" x="195.62" y="-734.5" font-family="Helvetica,sans-Serif" font-size="10.00"> TIME_FORMATTER</text>
<text text-anchor="start" x="185.62" y="-718.5" font-family="Helvetica,sans-Serif" font-size="10.00">+</text>
<text text-anchor="start" x="195.62" y="-718.5" font-family="Helvetica,sans-Serif" font-size="10.00">String getFormattedCurrent</text>
<text text-anchor="start" x="195.62" y="-706.5" font-family="Helvetica,sans-Serif" font-size="10.00">Time()</text>
<polygon fill="#666666" stroke="#666666" points="181.62,-786 181.62,-786 332.38,-786 332.38,-786 181.62,-786"/>
<polygon fill="#666666" stroke="#666666" points="181.62,-730 181.62,-730 193.62,-730 193.62,-730 181.62,-730"/>
<polygon fill="#666666" stroke="#666666" points="193.62,-730 193.62,-730 332.38,-730 332.38,-730 193.62,-730"/>
<polygon fill="none" stroke="#666666" points="181.62,-700 181.62,-816 332.38,-816 332.38,-700 181.62,-700"/>
</a>
</g>
</g>
<!-- Node6&#45;&gt;Node5 -->
<g id="edge5_Node000005_Node000006" class="edge">
<title>Node6&#45;&gt;Node5</title>
<g id="a_edge5_Node000005_Node000006"><a xlink:title=" ">
<path fill="none" stroke="#63b8ff" d="M257,-700.3C257,-689.16 257,-677.01 257,-664.44"/>
<polygon fill="none" stroke="#63b8ff" points="257,-664.66 253,-658.66 257,-652.66 261,-658.66 257,-664.66"/>
</a>
</g>
<text text-anchor="middle" x="288.12" y="-672.5" font-family="Helvetica,sans-Serif" font-size="10.00" fill="grey"> &#45;myDateTime</text>
</g>
</g>
</svg>
