<?xml version="1.0" encoding="UTF-8" standalone="no"?>
<!DOCTYPE svg PUBLIC "-//W3C//DTD SVG 1.1//EN"
 "http://www.w3.org/Graphics/SVG/1.1/DTD/svg11.dtd">
<!-- Generated by graphviz version 12.2.0 (20241103.1931)
 -->
<!-- Title: fr.softsf.sudokufx.viewmodel.FullMenuViewModel Pages: 1 -->
<svg width="406pt" height="633pt"
 viewBox="0.00 0.00 405.50 633.00" xmlns="http://www.w3.org/2000/svg" xmlns:xlink="http://www.w3.org/1999/xlink">
<g id="graph0" class="graph" transform="scale(1 1) rotate(0) translate(4 629)">
<title>fr.softsf.sudokufx.viewmodel.FullMenuViewModel</title>
<!-- Node1 -->
<g id="Node000001" class="node">
<title>Node1</title>
<g id="a_Node000001"><a xlink:title="FullMenuViewModel with business logic (not final)">
<polygon fill="#999999" stroke="none" points="358,-180 188.5,-180 188.5,0 358,0 358,-180"/>
<text text-anchor="start" x="208.75" y="-166.5" font-family="Helvetica,sans-Serif" font-size="10.00">fr.softsf.sudokufx.viewmodel.</text>
<text text-anchor="start" x="229.38" y="-154.5" font-family="Helvetica,sans-Serif" font-size="10.00">FullMenuViewModel</text>
<text text-anchor="start" x="271.75" y="-138.5" font-family="Helvetica,sans-Serif" font-size="10.00"> </text>
<text text-anchor="start" x="192.5" y="-122.5" font-family="Helvetica,sans-Serif" font-size="10.00">+</text>
<text text-anchor="start" x="202.5" y="-122.5" font-family="Helvetica,sans-Serif" font-size="10.00">FullMenuViewModel</text>
<text text-anchor="start" x="202.5" y="-110.5" font-family="Helvetica,sans-Serif" font-size="10.00">(SoftwareService softwareService)</text>
<text text-anchor="start" x="192.5" y="-94.5" font-family="Helvetica,sans-Serif" font-size="10.00">+</text>
<text text-anchor="start" x="202.5" y="-94.5" font-family="Helvetica,sans-Serif" font-size="10.00">void test()</text>
<text text-anchor="start" x="192.5" y="-78.5" font-family="Helvetica,sans-Serif" font-size="10.00">+</text>
<text text-anchor="start" x="202.5" y="-78.5" font-family="Helvetica,sans-Serif" font-size="10.00">StringProperty welcomeProperty()</text>
<text text-anchor="start" x="194" y="-62.5" font-family="Helvetica,sans-Serif" font-size="10.00">&#45;</text>
<text text-anchor="start" x="202.5" y="-62.5" font-family="Helvetica,sans-Serif" font-size="10.00">void createSoftware()</text>
<text text-anchor="start" x="194" y="-46.5" font-family="Helvetica,sans-Serif" font-size="10.00">&#45;</text>
<text text-anchor="start" x="202.5" y="-46.5" font-family="Helvetica,sans-Serif" font-size="10.00">void setWelcome(String</text>
<text text-anchor="start" x="202.5" y="-34.5" font-family="Helvetica,sans-Serif" font-size="10.00"> output)</text>
<text text-anchor="start" x="194" y="-18.5" font-family="Helvetica,sans-Serif" font-size="10.00">&#45;</text>
<text text-anchor="start" x="202.5" y="-18.5" font-family="Helvetica,sans-Serif" font-size="10.00">void updateSoftware</text>
<text text-anchor="start" x="202.5" y="-6.5" font-family="Helvetica,sans-Serif" font-size="10.00">(SoftwareDto softwareToUpdate)</text>
<polygon fill="#666666" stroke="#666666" points="188.5,-150 188.5,-150 358,-150 358,-150 188.5,-150"/>
<polygon fill="#666666" stroke="#666666" points="188.5,-134 188.5,-134 358,-134 358,-134 188.5,-134"/>
<polygon fill="none" stroke="#666666" points="188.5,0 188.5,-180 358,-180 358,0 188.5,0"/>
</a>
</g>
</g>
<!-- Node2 -->
<g id="Node000002" class="node">
<title>Node2</title>
<g id="a_Node000002"><a xlink:href="classfr_1_1softsf_1_1sudokufx_1_1service_1_1_software_service.html" target="_top" xlink:title=" ">
<polygon fill="white" stroke="none" points="285.25,-372 129.25,-372 129.25,-228 285.25,-228 285.25,-372"/>
<text text-anchor="start" x="150.25" y="-358.5" font-family="Helvetica,sans-Serif" font-size="10.00">fr.softsf.sudokufx.service.</text>
<text text-anchor="start" x="171.25" y="-346.5" font-family="Helvetica,sans-Serif" font-size="10.00">SoftwareService</text>
<text text-anchor="start" x="205.75" y="-330.5" font-family="Helvetica,sans-Serif" font-size="10.00"> </text>
<text text-anchor="start" x="133.25" y="-314.5" font-family="Helvetica,sans-Serif" font-size="10.00">+</text>
<text text-anchor="start" x="143.25" y="-314.5" font-family="Helvetica,sans-Serif" font-size="10.00">SoftwareService(Software</text>
<text text-anchor="start" x="143.25" y="-302.5" font-family="Helvetica,sans-Serif" font-size="10.00">Repository softwareRepository)</text>
<text text-anchor="start" x="133.25" y="-286.5" font-family="Helvetica,sans-Serif" font-size="10.00">+</text>
<text text-anchor="start" x="143.25" y="-286.5" font-family="Helvetica,sans-Serif" font-size="10.00">Optional&lt; SoftwareDto</text>
<text text-anchor="start" x="143.25" y="-274.5" font-family="Helvetica,sans-Serif" font-size="10.00"> &gt; getSoftware()</text>
<text text-anchor="start" x="133.25" y="-258.5" font-family="Helvetica,sans-Serif" font-size="10.00">+</text>
<text text-anchor="start" x="143.25" y="-258.5" font-family="Helvetica,sans-Serif" font-size="10.00">Optional&lt; SoftwareDto</text>
<text text-anchor="start" x="143.25" y="-246.5" font-family="Helvetica,sans-Serif" font-size="10.00"> &gt; updateSoftware(SoftwareDto</text>
<text text-anchor="start" x="143.25" y="-234.5" font-family="Helvetica,sans-Serif" font-size="10.00"> softwareDto)</text>
<polygon fill="#666666" stroke="#666666" points="129.25,-342 129.25,-342 285.25,-342 285.25,-342 129.25,-342"/>
<polygon fill="#666666" stroke="#666666" points="129.25,-326 129.25,-326 285.25,-326 285.25,-326 129.25,-326"/>
<polygon fill="none" stroke="#666666" points="129.25,-228 129.25,-372 285.25,-372 285.25,-228 129.25,-228"/>
</a>
</g>
</g>
<!-- Node2&#45;&gt;Node1 -->
<g id="edge1_Node000001_Node000002" class="edge">
<title>Node2&#45;&gt;Node1</title>
<g id="a_edge1_Node000001_Node000002"><a xlink:title=" ">
<path fill="none" stroke="#63b8ff" d="M218.88,-228.15C221.15,-217.94 223.76,-207.64 226.75,-198 227.36,-196.03 227.99,-194.05 228.65,-192.06"/>
<polygon fill="none" stroke="#63b8ff" points="228.69,-191.96 226.89,-184.97 232.64,-180.62 234.44,-187.61 228.69,-191.96"/>
</a>
</g>
<text text-anchor="middle" x="265" y="-200.5" font-family="Helvetica,sans-Serif" font-size="10.00" fill="grey"> &#45;softwareService</text>
</g>
<!-- Node3 -->
<g id="Node000003" class="node">
<title>Node3</title>
<g id="a_Node000003"><a xlink:href="interfacefr_1_1softsf_1_1sudokufx_1_1interfaces_1_1mapper_1_1_i_software_mapper.html" target="_top" xlink:title="This interface defines methods for mapping objects of type Software to objects of type SoftwareDto an...">
<polygon fill="white" stroke="none" points="168.5,-524 0,-524 0,-420 168.5,-420 168.5,-524"/>
<text text-anchor="start" x="4" y="-510.5" font-family="Helvetica,sans-Serif" font-size="10.00">fr.softsf.sudokufx.interfaces.mapper.</text>
<text text-anchor="start" x="47.12" y="-498.5" font-family="Helvetica,sans-Serif" font-size="10.00">ISoftwareMapper</text>
<text text-anchor="start" x="82.75" y="-482.5" font-family="Helvetica,sans-Serif" font-size="10.00"> </text>
<text text-anchor="start" x="10.12" y="-466.5" font-family="Helvetica,sans-Serif" font-size="10.00">+</text>
<text text-anchor="start" x="26.25" y="-466.5" font-family="Helvetica,sans-Serif" font-size="10.00">Software mapSoftwareDtoTo</text>
<text text-anchor="start" x="26.25" y="-454.5" font-family="Helvetica,sans-Serif" font-size="10.00">Software(SoftwareDto dto)</text>
<text text-anchor="start" x="10.12" y="-438.5" font-family="Helvetica,sans-Serif" font-size="10.00">+</text>
<text text-anchor="start" x="26.25" y="-438.5" font-family="Helvetica,sans-Serif" font-size="10.00">SoftwareDto mapSoftwareTo</text>
<text text-anchor="start" x="26.25" y="-426.5" font-family="Helvetica,sans-Serif" font-size="10.00">Dto(Software software)</text>
<polygon fill="#666666" stroke="#666666" points="0,-494 0,-494 168.5,-494 168.5,-494 0,-494"/>
<polygon fill="#666666" stroke="#666666" points="0,-478 0,-478 168.5,-478 168.5,-478 0,-478"/>
<polygon fill="none" stroke="#666666" points="0,-420 0,-524 168.5,-524 168.5,-420 0,-420"/>
</a>
</g>
</g>
<!-- Node3&#45;&gt;Node2 -->
<g id="edge2_Node000002_Node000003" class="edge">
<title>Node3&#45;&gt;Node2</title>
<g id="a_edge2_Node000002_Node000003"><a xlink:title=" ">
<path fill="none" stroke="#63b8ff" d="M120.82,-420.45C129.54,-408.41 139.06,-395.25 148.49,-382.21"/>
<polygon fill="none" stroke="#63b8ff" points="148.46,-382.25 148.74,-375.05 155.5,-372.53 155.22,-379.74 148.46,-382.25"/>
</a>
</g>
<text text-anchor="middle" x="181.81" y="-392.5" font-family="Helvetica,sans-Serif" font-size="10.00" fill="grey"> &#45;iSoftwareMapper</text>
</g>
<!-- Node3&#45;&gt;Node3 -->
<g id="edge3_Node000003_Node000003" class="edge">
<title>Node3&#45;&gt;Node3</title>
<g id="a_edge3_Node000003_Node000003"><a xlink:title=" ">
<path fill="none" stroke="#63b8ff" d="M168.49,-483.58C179.33,-481.58 186.5,-477.71 186.5,-472 186.5,-468.87 184.36,-466.3 180.64,-464.29"/>
<polygon fill="none" stroke="#63b8ff" points="180.78,-464.33 173.85,-466.32 169.35,-460.69 176.28,-458.7 180.78,-464.33"/>
</a>
</g>
<text text-anchor="middle" x="216.5" y="-468.5" font-family="Helvetica,sans-Serif" font-size="10.00" fill="grey"> +INSTANCE</text>
</g>
<!-- Node4 -->
<g id="Node000004" class="node">
<title>Node4</title>
<g id="a_Node000004"><a xlink:href="interfacefr_1_1softsf_1_1sudokufx_1_1repository_1_1_software_repository.html" target="_top" xlink:title=" ">
<polygon fill="white" stroke="none" points="397.5,-510 265,-510 265,-434 397.5,-434 397.5,-510"/>
<text text-anchor="start" x="269" y="-496.5" font-family="Helvetica,sans-Serif" font-size="10.00">fr.softsf.sudokufx.repository.</text>
<text text-anchor="start" x="288.12" y="-484.5" font-family="Helvetica,sans-Serif" font-size="10.00">SoftwareRepository</text>
<text text-anchor="start" x="329.75" y="-468.5" font-family="Helvetica,sans-Serif" font-size="10.00"> </text>
<text text-anchor="start" x="274.56" y="-452.5" font-family="Helvetica,sans-Serif" font-size="10.00">+</text>
<text text-anchor="start" x="290.12" y="-452.5" font-family="Helvetica,sans-Serif" font-size="10.00">Optional&lt; Software</text>
<text text-anchor="start" x="290.12" y="-440.5" font-family="Helvetica,sans-Serif" font-size="10.00"> &gt; findFirstSoftware()</text>
<polygon fill="#666666" stroke="#666666" points="265,-480 265,-480 397.5,-480 397.5,-480 265,-480"/>
<polygon fill="#666666" stroke="#666666" points="265,-464 265,-464 397.5,-464 397.5,-464 265,-464"/>
<polygon fill="none" stroke="#666666" points="265,-434 265,-510 397.5,-510 397.5,-434 265,-434"/>
</a>
</g>
</g>
<!-- Node4&#45;&gt;Node2 -->
<g id="edge4_Node000002_Node000004" class="edge">
<title>Node4&#45;&gt;Node2</title>
<g id="a_edge4_Node000002_Node000004"><a xlink:title=" ">
<path fill="none" stroke="#63b8ff" d="M304.34,-434.11C293.16,-418.78 279.7,-400.32 266.41,-382.11"/>
<polygon fill="none" stroke="#63b8ff" points="266.45,-382.16 259.68,-379.67 259.38,-372.47 266.15,-374.96 266.45,-382.16"/>
</a>
</g>
<text text-anchor="middle" x="325.73" y="-392.5" font-family="Helvetica,sans-Serif" font-size="10.00" fill="grey"> &#45;softwareRepository</text>
</g>
<!-- Node5 -->
<g id="Node000005" class="node">
<title>Node5</title>
<g id="a_Node000005"><a xlink:title=" ">
<polygon fill="white" stroke="none" points="392.25,-625 270.25,-625 270.25,-561 392.25,-561 392.25,-625"/>
<text text-anchor="start" x="274.25" y="-611.5" font-family="Helvetica,sans-Serif" font-size="10.00">JpaRepository&lt; Software,</text>
<text text-anchor="start" x="314.75" y="-599.5" font-family="Helvetica,sans-Serif" font-size="10.00"> Long &gt;</text>
<text text-anchor="start" x="329.75" y="-583.5" font-family="Helvetica,sans-Serif" font-size="10.00"> </text>
<text text-anchor="start" x="329.75" y="-567.5" font-family="Helvetica,sans-Serif" font-size="10.00"> </text>
<polygon fill="#666666" stroke="#666666" points="270.25,-595 270.25,-595 392.25,-595 392.25,-595 270.25,-595"/>
<polygon fill="#666666" stroke="#666666" points="270.25,-579 270.25,-579 392.25,-579 392.25,-579 270.25,-579"/>
<polygon fill="none" stroke="#666666" points="270.25,-561 270.25,-625 392.25,-625 392.25,-561 270.25,-561"/>
</a>
</g>
</g>
<!-- Node5&#45;&gt;Node4 -->
<g id="edge5_Node000004_Node000005" class="edge">
<title>Node5&#45;&gt;Node4</title>
<g id="a_edge5_Node000004_Node000005"><a xlink:title=" ">
<path fill="none" stroke="#63b8ff" d="M331.25,-549.91C331.25,-536.79 331.25,-522.44 331.25,-509.72"/>
<polygon fill="none" stroke="#63b8ff" points="327.75,-549.53 331.25,-559.53 334.75,-549.53 327.75,-549.53"/>
</a>
</g>
</g>
<!-- Node6 -->
<g id="Node000006" class="node">
<title>Node6</title>
<g id="a_Node000006"><a xlink:title=" ">
<polygon fill="white" stroke="none" points="373.38,-326 303.12,-326 303.12,-274 373.38,-274 373.38,-326"/>
<text text-anchor="start" x="307.12" y="-312.5" font-family="Helvetica,sans-Serif" font-size="10.00">StringProperty</text>
<text text-anchor="start" x="336.75" y="-296.5" font-family="Helvetica,sans-Serif" font-size="10.00"> </text>
<text text-anchor="start" x="336.75" y="-280.5" font-family="Helvetica,sans-Serif" font-size="10.00"> </text>
<polygon fill="#666666" stroke="#666666" points="303.12,-308 303.12,-308 373.38,-308 373.38,-308 303.12,-308"/>
<polygon fill="#666666" stroke="#666666" points="303.12,-292 303.12,-292 373.38,-292 373.38,-292 303.12,-292"/>
<polygon fill="none" stroke="#666666" points="303.12,-274 303.12,-326 373.38,-326 373.38,-274 303.12,-274"/>
</a>
</g>
</g>
<!-- Node6&#45;&gt;Node1 -->
<g id="edge6_Node000001_Node000006" class="edge">
<title>Node6&#45;&gt;Node1</title>
<g id="a_edge6_Node000001_Node000006"><a xlink:title=" ">
<path fill="none" stroke="#63b8ff" d="M330.54,-274.32C324.07,-253.61 314.37,-222.57 304.78,-191.89"/>
<polygon fill="none" stroke="#63b8ff" points="304.82,-192.03 299.21,-187.5 301.24,-180.58 306.85,-185.11 304.82,-192.03"/>
</a>
</g>
<text text-anchor="middle" x="332.14" y="-200.5" font-family="Helvetica,sans-Serif" font-size="10.00" fill="grey"> &#45;welcome</text>
</g>
</g>
</svg>
