<?xml version="1.0" encoding="UTF-8" standalone="no"?>
<!DOCTYPE svg PUBLIC "-//W3C//DTD SVG 1.1//EN"
 "http://www.w3.org/Graphics/SVG/1.1/DTD/svg11.dtd">
<!-- Generated by graphviz version 12.2.0 (20241103.1931)
 -->
<!-- Title: fr.softsf.sudokufx.view.SplashScreenView.nodesConfiguration Pages: 1 -->
<svg width="626pt" height="400pt"
 viewBox="0.00 0.00 626.00 400.00" xmlns="http://www.w3.org/2000/svg" xmlns:xlink="http://www.w3.org/1999/xlink">
<g id="graph0" class="graph" transform="scale(1 1) rotate(0) translate(4 396)">
<title>fr.softsf.sudokufx.view.SplashScreenView.nodesConfiguration</title>
<!-- Node1 -->
<g id="Node000001" class="node">
<title>Node1</title>
<g id="a_Node000001"><a xlink:title="Configures the properties and styles of the UI nodes.">
<polygon fill="#999999" stroke="#666666" points="184.75,-224 0,-224 0,-192 184.75,-192 184.75,-224"/>
<text text-anchor="start" x="8" y="-210.5" font-family="Helvetica,sans-Serif" font-size="10.00">fr.softsf.sudokufx.view.</text>
<text text-anchor="middle" x="92.38" y="-198.5" font-family="Helvetica,sans-Serif" font-size="10.00">SplashScreenView.nodesConfiguration</text>
</a>
</g>
</g>
<!-- Node2 -->
<g id="Node000002" class="node">
<title>Node2</title>
<g id="a_Node000002"><a xlink:href="classfr_1_1softsf_1_1sudokufx_1_1view_1_1_splash_screen_view.html#a05ceacbaf9b2149100b85aa1915a98a2" target="_top" xlink:title="Animates the SVG flower.">
<polygon fill="white" stroke="#666666" points="408.88,-392 227.12,-392 227.12,-360 408.88,-360 408.88,-392"/>
<text text-anchor="start" x="235.12" y="-378.5" font-family="Helvetica,sans-Serif" font-size="10.00">fr.softsf.sudokufx.view.</text>
<text text-anchor="middle" x="318" y="-366.5" font-family="Helvetica,sans-Serif" font-size="10.00">SplashScreenView.animateFlowerSvg</text>
</a>
</g>
</g>
<!-- Node1&#45;&gt;Node2 -->
<g id="edge1_Node000001_Node000002" class="edge">
<title>Node1&#45;&gt;Node2</title>
<g id="a_edge1_Node000001_Node000002"><a xlink:title=" ">
<path fill="none" stroke="#63b8ff" d="M103.06,-224.1C121.87,-253.92 166.28,-317.71 220.75,-351 222.9,-352.32 225.13,-353.56 227.4,-354.75"/>
<polygon fill="#63b8ff" stroke="#63b8ff" points="225.76,-357.84 236.3,-358.89 228.71,-351.5 225.76,-357.84"/>
</a>
</g>
</g>
<!-- Node3 -->
<g id="Node000003" class="node">
<title>Node3</title>
<g id="a_Node000003"><a xlink:href="classfr_1_1softsf_1_1sudokufx_1_1utils_1_1_j_v_m_application_properties.html#a3c1aafe7e06f8e614ae7a2c249f364a6" target="_top" xlink:title="Retrieves the current application name from system properties.">
<polygon fill="white" stroke="#666666" points="412.25,-342 223.75,-342 223.75,-310 412.25,-310 412.25,-342"/>
<text text-anchor="start" x="231.75" y="-328.5" font-family="Helvetica,sans-Serif" font-size="10.00">fr.softsf.sudokufx.utils.</text>
<text text-anchor="middle" x="318" y="-316.5" font-family="Helvetica,sans-Serif" font-size="10.00">JVMApplicationProperties.getAppName</text>
</a>
</g>
</g>
<!-- Node1&#45;&gt;Node3 -->
<g id="edge2_Node000001_Node000003" class="edge">
<title>Node1&#45;&gt;Node3</title>
<g id="a_edge2_Node000001_Node000003"><a xlink:title=" ">
<path fill="none" stroke="#63b8ff" d="M110.96,-224.23C134.32,-244.97 177.69,-280.6 220.75,-301 224.25,-302.66 227.87,-304.22 231.58,-305.68"/>
<polygon fill="#63b8ff" stroke="#63b8ff" points="230.16,-308.89 240.75,-309.05 232.57,-302.32 230.16,-308.89"/>
</a>
</g>
</g>
<!-- Node5 -->
<g id="Node000005" class="node">
<title>Node5</title>
<g id="a_Node000005"><a xlink:href="classfr_1_1softsf_1_1sudokufx_1_1utils_1_1_j_v_m_application_properties.html#afd79a2aeab3fe69dbb2ace62b5eddf83" target="_top" xlink:title="Retrieves the current application version from system properties.">
<polygon fill="white" stroke="#666666" points="399.12,-292 236.88,-292 236.88,-248 399.12,-248 399.12,-292"/>
<text text-anchor="start" x="244.88" y="-278.5" font-family="Helvetica,sans-Serif" font-size="10.00">fr.softsf.sudokufx.utils.</text>
<text text-anchor="start" x="244.88" y="-266.5" font-family="Helvetica,sans-Serif" font-size="10.00">JVMApplicationProperties.getApp</text>
<text text-anchor="middle" x="318" y="-254.5" font-family="Helvetica,sans-Serif" font-size="10.00">Version</text>
</a>
</g>
</g>
<!-- Node1&#45;&gt;Node5 -->
<g id="edge4_Node000001_Node000005" class="edge">
<title>Node1&#45;&gt;Node5</title>
<g id="a_edge4_Node000001_Node000005"><a xlink:title=" ">
<path fill="none" stroke="#63b8ff" d="M152.72,-224.45C175.15,-230.67 201.22,-237.9 225.9,-244.74"/>
<polygon fill="#63b8ff" stroke="#63b8ff" points="224.72,-248.05 235.29,-247.35 226.59,-241.3 224.72,-248.05"/>
</a>
</g>
</g>
<!-- Node6 -->
<g id="Node000006" class="node">
<title>Node6</title>
<g id="a_Node000006"><a xlink:href="classfr_1_1softsf_1_1sudokufx_1_1view_1_1_splash_screen_view.html#ad126ac2f2a90b2422490ca0d896fa398" target="_top" xlink:title="Retrieves a message indicating the current loading or optimizing state.">
<polygon fill="white" stroke="#666666" points="397.25,-230 238.75,-230 238.75,-186 397.25,-186 397.25,-230"/>
<text text-anchor="start" x="246.75" y="-216.5" font-family="Helvetica,sans-Serif" font-size="10.00">fr.softsf.sudokufx.view.</text>
<text text-anchor="start" x="246.75" y="-204.5" font-family="Helvetica,sans-Serif" font-size="10.00">SplashScreenView.getLoadingOr</text>
<text text-anchor="middle" x="318" y="-192.5" font-family="Helvetica,sans-Serif" font-size="10.00">OptimizingMessage</text>
</a>
</g>
</g>
<!-- Node1&#45;&gt;Node6 -->
<g id="edge6_Node000001_Node000006" class="edge">
<title>Node1&#45;&gt;Node6</title>
<g id="a_edge6_Node000001_Node000006"><a xlink:title=" ">
<path fill="none" stroke="#63b8ff" d="M184.98,-208C198.83,-208 213.11,-208 226.93,-208"/>
<polygon fill="#63b8ff" stroke="#63b8ff" points="226.9,-211.5 236.9,-208 226.9,-204.5 226.9,-211.5"/>
</a>
</g>
</g>
<!-- Node9 -->
<g id="Node000009" class="node">
<title>Node9</title>
<g id="a_Node000009"><a xlink:href="classfr_1_1softsf_1_1sudokufx_1_1view_1_1_splash_screen_view.html#aafe300850c83d75b03d338a68d19c892" target="_top" xlink:title="Sets up the SVG for the Soft64 text logo in the center of the splash screen.">
<polygon fill="white" stroke="#666666" points="415.25,-168 220.75,-168 220.75,-124 415.25,-124 415.25,-168"/>
<text text-anchor="start" x="228.75" y="-154.5" font-family="Helvetica,sans-Serif" font-size="10.00">fr.softsf.sudokufx.view.</text>
<text text-anchor="start" x="228.75" y="-142.5" font-family="Helvetica,sans-Serif" font-size="10.00">SplashScreenView.setSplashscreenvbox</text>
<text text-anchor="middle" x="318" y="-130.5" font-family="Helvetica,sans-Serif" font-size="10.00">CenterhboxLogosoft64textsvg</text>
</a>
</g>
</g>
<!-- Node1&#45;&gt;Node9 -->
<g id="edge10_Node000001_Node000009" class="edge">
<title>Node1&#45;&gt;Node9</title>
<g id="a_edge10_Node000001_Node000009"><a xlink:title=" ">
<path fill="none" stroke="#63b8ff" d="M152.72,-191.55C174.82,-185.42 200.46,-178.31 224.82,-171.56"/>
<polygon fill="#63b8ff" stroke="#63b8ff" points="225.75,-174.93 234.45,-168.89 223.88,-168.19 225.75,-174.93"/>
</a>
</g>
</g>
<!-- Node11 -->
<g id="Node000011" class="node">
<title>Node11</title>
<g id="a_Node000011"><a xlink:href="classfr_1_1softsf_1_1sudokufx_1_1view_1_1_splash_screen_view.html#a762ac1d676ca1be22b521cd731b8d9ba" target="_top" xlink:title="Sets up the SVG for the flower logo in the center of the splash screen.">
<polygon fill="white" stroke="#666666" points="415.25,-106 220.75,-106 220.75,-62 415.25,-62 415.25,-106"/>
<text text-anchor="start" x="228.75" y="-92.5" font-family="Helvetica,sans-Serif" font-size="10.00">fr.softsf.sudokufx.view.</text>
<text text-anchor="start" x="228.75" y="-80.5" font-family="Helvetica,sans-Serif" font-size="10.00">SplashScreenView.setSplashscreenvbox</text>
<text text-anchor="middle" x="318" y="-68.5" font-family="Helvetica,sans-Serif" font-size="10.00">CenterhboxStackpaneLogoflowersvg</text>
</a>
</g>
</g>
<!-- Node1&#45;&gt;Node11 -->
<g id="edge12_Node000001_Node000011" class="edge">
<title>Node1&#45;&gt;Node11</title>
<g id="a_edge12_Node000001_Node000011"><a xlink:title=" ">
<path fill="none" stroke="#63b8ff" d="M111.55,-191.79C135.21,-171.41 178.54,-136.5 220.75,-115 223.48,-113.61 226.28,-112.27 229.14,-110.97"/>
<polygon fill="#63b8ff" stroke="#63b8ff" points="230.46,-114.21 238.28,-107.06 227.71,-107.77 230.46,-114.21"/>
</a>
</g>
</g>
<!-- Node12 -->
<g id="Node000012" class="node">
<title>Node12</title>
<g id="a_Node000012"><a xlink:href="classfr_1_1softsf_1_1sudokufx_1_1view_1_1_splash_screen_view.html#a53ead1ea80a08e06c15ae42ae101fcdf" target="_top" xlink:title="Sets up the SVG for the Sudoku logo in the top section of the splash screen.">
<polygon fill="white" stroke="#666666" points="415.25,-44 220.75,-44 220.75,0 415.25,0 415.25,-44"/>
<text text-anchor="start" x="228.75" y="-30.5" font-family="Helvetica,sans-Serif" font-size="10.00">fr.softsf.sudokufx.view.</text>
<text text-anchor="start" x="228.75" y="-18.5" font-family="Helvetica,sans-Serif" font-size="10.00">SplashScreenView.setSplashscreenvbox</text>
<text text-anchor="middle" x="318" y="-6.5" font-family="Helvetica,sans-Serif" font-size="10.00">TophboxLogosudosvg</text>
</a>
</g>
</g>
<!-- Node1&#45;&gt;Node12 -->
<g id="edge14_Node000001_Node000012" class="edge">
<title>Node1&#45;&gt;Node12</title>
<g id="a_edge14_Node000001_Node000012"><a xlink:title=" ">
<path fill="none" stroke="#63b8ff" d="M102.34,-191.82C120.54,-160.42 164.88,-91 220.75,-53 222.35,-51.91 223.98,-50.86 225.66,-49.85"/>
<polygon fill="#63b8ff" stroke="#63b8ff" points="227.15,-53.02 234.23,-45.14 223.78,-46.89 227.15,-53.02"/>
</a>
</g>
</g>
<!-- Node4 -->
<g id="Node000004" class="node">
<title>Node4</title>
<g id="a_Node000004"><a xlink:href="classfr_1_1softsf_1_1sudokufx_1_1utils_1_1_my_regex.html#a981702b076ee54a416d676b6f7a182fc" target="_top" xlink:title="Validates the given text against the specified regular expression.">
<polygon fill="white" stroke="#666666" points="609,-314 460.25,-314 460.25,-282 609,-282 609,-314"/>
<text text-anchor="start" x="468.25" y="-300.5" font-family="Helvetica,sans-Serif" font-size="10.00">fr.softsf.sudokufx.utils.</text>
<text text-anchor="middle" x="534.62" y="-288.5" font-family="Helvetica,sans-Serif" font-size="10.00">MyRegex.isValidatedByRegex</text>
</a>
</g>
</g>
<!-- Node3&#45;&gt;Node4 -->
<g id="edge3_Node000003_Node000004" class="edge">
<title>Node3&#45;&gt;Node4</title>
<g id="a_edge3_Node000003_Node000004"><a xlink:title=" ">
<path fill="none" stroke="#63b8ff" d="M412.51,-313.8C424.5,-312.24 436.72,-310.64 448.56,-309.1"/>
<polygon fill="#63b8ff" stroke="#63b8ff" points="448.81,-312.59 458.27,-307.83 447.9,-305.65 448.81,-312.59"/>
</a>
</g>
</g>
<!-- Node5&#45;&gt;Node4 -->
<g id="edge5_Node000005_Node000004" class="edge">
<title>Node5&#45;&gt;Node4</title>
<g id="a_edge5_Node000005_Node000004"><a xlink:title=" ">
<path fill="none" stroke="#63b8ff" d="M399.53,-280.51C415.67,-282.61 432.67,-284.83 448.95,-286.95"/>
<polygon fill="#63b8ff" stroke="#63b8ff" points="448.21,-290.39 458.58,-288.21 449.11,-283.45 448.21,-290.39"/>
</a>
</g>
</g>
<!-- Node7 -->
<g id="Node000007" class="node">
<title>Node7</title>
<g id="a_Node000007"><a xlink:href="classfr_1_1softsf_1_1sudokufx_1_1utils_1_1_i18n.html#a7095fa285a498c3f20bf33488a69d22c" target="_top" xlink:title="Retrieves the localized string value for a given key.">
<polygon fill="white" stroke="#666666" points="592.88,-261 476.38,-261 476.38,-229 592.88,-229 592.88,-261"/>
<text text-anchor="start" x="484.38" y="-247.5" font-family="Helvetica,sans-Serif" font-size="10.00">fr.softsf.sudokufx.utils.</text>
<text text-anchor="middle" x="534.62" y="-235.5" font-family="Helvetica,sans-Serif" font-size="10.00">I18n.getValue</text>
</a>
</g>
</g>
<!-- Node6&#45;&gt;Node7 -->
<g id="edge7_Node000006_Node000007" class="edge">
<title>Node6&#45;&gt;Node7</title>
<g id="a_edge7_Node000006_Node000007"><a xlink:title=" ">
<path fill="none" stroke="#63b8ff" d="M397.7,-221.57C419.71,-225.36 443.44,-229.45 464.83,-233.14"/>
<polygon fill="#63b8ff" stroke="#63b8ff" points="464.17,-236.58 474.62,-234.83 465.36,-229.68 464.17,-236.58"/>
</a>
</g>
</g>
<!-- Node8 -->
<g id="Node000008" class="node">
<title>Node8</title>
<g id="a_Node000008"><a xlink:href="classfr_1_1softsf_1_1sudokufx_1_1utils_1_1_j_v_m_application_properties.html#a7d07880db5617906582d43a95925ba8d" target="_top" xlink:title="Determines if the Spring context should exit on refresh.">
<polygon fill="white" stroke="#666666" points="618,-193 451.25,-193 451.25,-149 618,-149 618,-193"/>
<text text-anchor="start" x="459.25" y="-179.5" font-family="Helvetica,sans-Serif" font-size="10.00">fr.softsf.sudokufx.utils.</text>
<text text-anchor="start" x="459.25" y="-167.5" font-family="Helvetica,sans-Serif" font-size="10.00">JVMApplicationProperties.isSpring</text>
<text text-anchor="middle" x="534.62" y="-155.5" font-family="Helvetica,sans-Serif" font-size="10.00">ContextExitOnRefresh</text>
</a>
</g>
</g>
<!-- Node6&#45;&gt;Node8 -->
<g id="edge8_Node000006_Node000008" class="edge">
<title>Node6&#45;&gt;Node8</title>
<g id="a_edge8_Node000006_Node000008"><a xlink:title=" ">
<path fill="none" stroke="#63b8ff" d="M397.7,-194.43C411.39,-192.07 425.75,-189.6 439.79,-187.18"/>
<polygon fill="#63b8ff" stroke="#63b8ff" points="440.22,-190.65 449.48,-185.51 439.03,-183.76 440.22,-190.65"/>
</a>
</g>
</g>
<!-- Node8&#45;&gt;Node8 -->
<g id="edge9_Node000008_Node000008" class="edge">
<title>Node8&#45;&gt;Node8</title>
<g id="a_edge9_Node000008_Node000008"><a xlink:title=" ">
<path fill="none" stroke="#63b8ff" d="M494.49,-193.21C491.21,-202.8 504.59,-211 534.62,-211 552.46,-211 564.42,-208.11 570.51,-203.75"/>
<polygon fill="#63b8ff" stroke="#63b8ff" points="573.7,-205.2 574.19,-194.62 567.21,-202.58 573.7,-205.2"/>
</a>
</g>
</g>
<!-- Node10 -->
<g id="Node000010" class="node">
<title>Node10</title>
<g id="a_Node000010"><a xlink:href="classfr_1_1softsf_1_1sudokufx_1_1view_1_1_splash_screen_view.html#a5d7017836e704c8e6db24f7d677041ba" target="_top" xlink:title="Creates an SVG shape and applies it to a Region.">
<polygon fill="white" stroke="#666666" points="609,-100 460.25,-100 460.25,-68 609,-68 609,-100"/>
<text text-anchor="start" x="468.25" y="-86.5" font-family="Helvetica,sans-Serif" font-size="10.00">fr.softsf.sudokufx.view.</text>
<text text-anchor="middle" x="534.62" y="-74.5" font-family="Helvetica,sans-Serif" font-size="10.00">SplashScreenView.createSVG</text>
</a>
</g>
</g>
<!-- Node9&#45;&gt;Node10 -->
<g id="edge11_Node000009_Node000010" class="edge">
<title>Node9&#45;&gt;Node10</title>
<g id="a_edge11_Node000009_Node000010"><a xlink:title=" ">
<path fill="none" stroke="#63b8ff" d="M396.79,-123.53C419.37,-117.01 443.83,-109.94 465.75,-103.61"/>
<polygon fill="#63b8ff" stroke="#63b8ff" points="466.53,-107.02 475.17,-100.89 464.59,-100.3 466.53,-107.02"/>
</a>
</g>
</g>
<!-- Node11&#45;&gt;Node10 -->
<g id="edge13_Node000011_Node000010" class="edge">
<title>Node11&#45;&gt;Node10</title>
<g id="a_edge13_Node000011_Node000010"><a xlink:title=" ">
<path fill="none" stroke="#63b8ff" d="M415.64,-84C426.7,-84 437.92,-84 448.82,-84"/>
<polygon fill="#63b8ff" stroke="#63b8ff" points="448.52,-87.5 458.52,-84 448.52,-80.5 448.52,-87.5"/>
</a>
</g>
</g>
<!-- Node12&#45;&gt;Node10 -->
<g id="edge15_Node000012_Node000010" class="edge">
<title>Node12&#45;&gt;Node10</title>
<g id="a_edge15_Node000012_Node000010"><a xlink:title=" ">
<path fill="none" stroke="#63b8ff" d="M396.79,-44.47C419.37,-50.99 443.83,-58.06 465.75,-64.39"/>
<polygon fill="#63b8ff" stroke="#63b8ff" points="464.59,-67.7 475.17,-67.11 466.53,-60.98 464.59,-67.7"/>
</a>
</g>
</g>
</g>
</svg>
