<?xml version="1.0" encoding="UTF-8" standalone="no"?>
<!DOCTYPE svg PUBLIC "-//W3C//DTD SVG 1.1//EN"
 "http://www.w3.org/Graphics/SVG/1.1/DTD/svg11.dtd">
<!-- Generated by graphviz version 12.2.1 (20241206.2353)
 -->
<!-- Title: fr.softsf.sudokufx.view.DefaultView.openingMainStage Pages: 1 -->
<!--zoomable 266 -->

<svg id="main" version="1.1" xmlns="http://www.w3.org/2000/svg" xmlns:xlink="http://www.w3.org/1999/xlink" xml:space="preserve" onload="init(evt)">

<style type="text/css"><![CDATA[
.node, .edge {opacity: 0.7;}
.node.selected, .edge.selected {opacity: 1;}
.edge:hover path { stroke: red; }
.edge:hover polygon { stroke: red; fill: red; }
]]></style>

<defs>
  <circle id="rim" cx="0" cy="0" r="7"/>
  <circle id="rim2" cx="0" cy="0" r="3.5"/>
  <g id="zoomPlus">
    <use xlink:href="#rim" fill="#404040"><set attributeName="fill" to="#808080" begin="zoomplus.mouseover" end="zoomplus.mouseout"/></use>
    <path d="M-4,0h8M0,-4v8" fill="none" stroke="white" stroke-width="1.5" pointer-events="none"/>
  </g>
  <g id="zoomMin">
    <use xlink:href="#rim" fill="#404040"><set attributeName="fill" to="#808080" begin="zoomminus.mouseover" end="zoomminus.mouseout"/></use>
    <path d="M-4,0h8" fill="none" stroke="white" stroke-width="1.5" pointer-events="none"/>
  </g>
  <g id="arrowUp" transform="translate(30 24)">
    <use xlink:href="#rim"/>
    <path pointer-events="none" fill="none" stroke="white" stroke-width="1.5" d="M0,-3.0v7 M-2.5,-0.5L0,-3.0L2.5,-0.5"/>
  </g>
  <g id="arrowRight" transform="rotate(90) translate(36 -43)">
    <use xlink:href="#rim"/>
    <path pointer-events="none" fill="none" stroke="white" stroke-width="1.5" d="M0,-3.0v7 M-2.5,-0.5L0,-3.0L2.5,-0.5"/>
  </g>
  <g id="arrowDown" transform="rotate(180) translate(-30 -48)">
    <use xlink:href="#rim"/>
    <path pointer-events="none" fill="none" stroke="white" stroke-width="1.5" d="M0,-3.0v7 M-2.5,-0.5L0,-3.0L2.5,-0.5"/>
  </g>
  <g id="arrowLeft" transform="rotate(270) translate(-36 17)">
    <use xlink:href="#rim"/>
    <path pointer-events="none" fill="none" stroke="white" stroke-width="1.5" d="M0,-3.0v7 M-2.5,-0.5L0,-3.0L2.5,-0.5"/>
  </g>
  <g id="resetDef">
    <use xlink:href="#rim2" fill="#404040"><set attributeName="fill" to="#808080" begin="reset.mouseover" end="reset.mouseout"/></use>
  </g>
</defs>
<script type="application/ecmascript">
var viewWidth = 580;
var viewHeight = 266;
var sectionId = 'dynsection-3';
</script>
<script type="application/ecmascript" xlink:href="svg.min.js"/>
<svg id="graph" class="graph">
<g id="viewport">
<title>fr.softsf.sudokufx.view.DefaultView.openingMainStage</title>
<!-- Node1 -->
<g id="Node000001" class="node">
<title>Node1</title>
<g id="a_Node000001"><a xlink:title="Opens the main stage and handles the transition from splash screen to full menu.">
<polygon fill="#999999" stroke="#666666" points="151.75,-157 0,-157 0,-125 151.75,-125 151.75,-157"/>
<text text-anchor="start" x="8" y="-143.5" font-family="Helvetica,sans-Serif" font-size="10.00">fr.softsf.sudokufx.view.</text>
<text text-anchor="middle" x="75.88" y="-131.5" font-family="Helvetica,sans-Serif" font-size="10.00">DefaultView.openingMainStage</text>
</a>
</g>
</g>
<!-- Node2 -->
<g id="Node000002" class="node">
<title>Node2</title>
<g id="a_Node000002"><a xlink:href="interfacefr_1_1softsf_1_1sudokufx_1_1interfaces_1_1_i_scene_provider.html#a674fc3569255ae7b6d2f34989574aacb" target="_top" xlink:title="Retrieves the current scene of the application.">
<polygon fill="white" stroke="#666666" points="571.5,-229 430.25,-229 430.25,-197 571.5,-197 571.5,-229"/>
<text text-anchor="start" x="438.25" y="-215.5" font-family="Helvetica,sans-Serif" font-size="10.00">fr.softsf.sudokufx.interfaces.</text>
<text text-anchor="middle" x="500.88" y="-203.5" font-family="Helvetica,sans-Serif" font-size="10.00">ISceneProvider.getScene</text>
</a>
</g>
</g>
<!-- Node1&#45;&gt;Node2 -->
<g id="edge1_Node000001_Node000002" class="edge">
<title>Node1&#45;&gt;Node2</title>
<g id="a_edge1_Node000001_Node000002"><a xlink:title=" ">
<path fill="none" stroke="#63b8ff" d="M88.57,-157.39C106.66,-181.15 143.95,-224.17 187.75,-241 272.36,-273.52 379.05,-251.85 443.23,-232.75"/>
<polygon fill="#63b8ff" stroke="#63b8ff" points="443.95,-236.19 452.49,-229.92 441.9,-229.5 443.95,-236.19"/>
</a>
</g>
</g>
<!-- Node3 -->
<g id="Node000003" class="node">
<title>Node3</title>
<g id="a_Node000003"><a xlink:href="interfacefr_1_1softsf_1_1sudokufx_1_1interfaces_1_1_i_splash_screen_view.html#a7d48af9841e22c4f35680b95031f07e4" target="_top" xlink:title="Hides and closes the splash screen.">
<polygon fill="white" stroke="#666666" points="382.25,-232 199.75,-232 199.75,-200 382.25,-200 382.25,-232"/>
<text text-anchor="start" x="207.75" y="-218.5" font-family="Helvetica,sans-Serif" font-size="10.00">fr.softsf.sudokufx.interfaces.</text>
<text text-anchor="middle" x="291" y="-206.5" font-family="Helvetica,sans-Serif" font-size="10.00">ISplashScreenView.hideSplashScreen</text>
</a>
</g>
</g>
<!-- Node1&#45;&gt;Node3 -->
<g id="edge2_Node000001_Node000003" class="edge">
<title>Node1&#45;&gt;Node3</title>
<g id="a_edge2_Node000001_Node000003"><a xlink:title=" ">
<path fill="none" stroke="#63b8ff" d="M109.22,-157.49C131,-168.12 160.6,-181.65 187.75,-191 193.37,-192.93 199.2,-194.78 205.12,-196.53"/>
<polygon fill="#63b8ff" stroke="#63b8ff" points="203.78,-199.79 214.35,-199.16 205.69,-193.05 203.78,-199.79"/>
</a>
</g>
</g>
<!-- Node4 -->
<g id="Node000004" class="node">
<title>Node4</title>
<g id="a_Node000004"><a xlink:href="classfr_1_1softsf_1_1sudokufx_1_1view_1_1_default_view.html#a4269b183d120ae7149f854d53d35f122" target="_top" xlink:title="Configures the primary stage for the full menu view.">
<polygon fill="white" stroke="#666666" points="377.38,-182 204.62,-182 204.62,-150 377.38,-150 377.38,-182"/>
<text text-anchor="start" x="212.62" y="-168.5" font-family="Helvetica,sans-Serif" font-size="10.00">fr.softsf.sudokufx.view.</text>
<text text-anchor="middle" x="291" y="-156.5" font-family="Helvetica,sans-Serif" font-size="10.00">DefaultView.openingConfigureStage</text>
</a>
</g>
</g>
<!-- Node1&#45;&gt;Node4 -->
<g id="edge3_Node000001_Node000004" class="edge">
<title>Node1&#45;&gt;Node4</title>
<g id="a_edge3_Node000001_Node000004"><a xlink:title=" ">
<path fill="none" stroke="#63b8ff" d="M152.01,-149.81C165.35,-151.38 179.4,-153.03 193.24,-154.65"/>
<polygon fill="#63b8ff" stroke="#63b8ff" points="192.42,-158.08 202.76,-155.77 193.24,-151.13 192.42,-158.08"/>
</a>
</g>
</g>
<!-- Node5 -->
<g id="Node000005" class="node">
<title>Node5</title>
<g id="a_Node000005"><a xlink:href="classfr_1_1softsf_1_1sudokufx_1_1view_1_1_default_view.html#af55fdc91ebfb197196789c140b5c091a" target="_top" xlink:title="Applies a fade&#45;in effect to the given node.">
<polygon fill="white" stroke="#666666" points="358.62,-132 223.38,-132 223.38,-100 358.62,-100 358.62,-132"/>
<text text-anchor="start" x="231.38" y="-118.5" font-family="Helvetica,sans-Serif" font-size="10.00">fr.softsf.sudokufx.view.</text>
<text text-anchor="middle" x="291" y="-106.5" font-family="Helvetica,sans-Serif" font-size="10.00">DefaultView.openingFadeIn</text>
</a>
</g>
</g>
<!-- Node1&#45;&gt;Node5 -->
<g id="edge5_Node000001_Node000005" class="edge">
<title>Node1&#45;&gt;Node5</title>
<g id="a_edge5_Node000001_Node000005"><a xlink:title=" ">
<path fill="none" stroke="#63b8ff" d="M152.01,-132.19C171.35,-129.92 192.2,-127.47 211.69,-125.19"/>
<polygon fill="#63b8ff" stroke="#63b8ff" points="211.96,-128.68 221.49,-124.04 211.15,-121.73 211.96,-128.68"/>
</a>
</g>
</g>
<!-- Node6 -->
<g id="Node000006" class="node">
<title>Node6</title>
<g id="a_Node000006"><a xlink:href="classfr_1_1softsf_1_1sudokufx_1_1view_1_1_default_view.html#a948d84a7a3c687605fad17a291287d89" target="_top" xlink:title="Maximizes the primary stage to fill the primary screen.">
<polygon fill="white" stroke="#666666" points="394.25,-82 187.75,-82 187.75,-50 394.25,-50 394.25,-82"/>
<text text-anchor="start" x="195.75" y="-68.5" font-family="Helvetica,sans-Serif" font-size="10.00">fr.softsf.sudokufx.view.</text>
<text text-anchor="middle" x="291" y="-56.5" font-family="Helvetica,sans-Serif" font-size="10.00">DefaultView.openingMaximizePrimaryStage</text>
</a>
</g>
</g>
<!-- Node1&#45;&gt;Node6 -->
<g id="edge6_Node000001_Node000006" class="edge">
<title>Node1&#45;&gt;Node6</title>
<g id="a_edge6_Node000001_Node000006"><a xlink:title=" ">
<path fill="none" stroke="#63b8ff" d="M109.22,-124.51C131,-113.88 160.6,-100.35 187.75,-91 193.37,-89.07 199.2,-87.22 205.12,-85.47"/>
<polygon fill="#63b8ff" stroke="#63b8ff" points="205.69,-88.95 214.35,-82.84 203.78,-82.21 205.69,-88.95"/>
</a>
</g>
</g>
<!-- Node7 -->
<g id="Node000007" class="node">
<title>Node7</title>
<g id="a_Node000007"><a xlink:href="classfr_1_1softsf_1_1sudokufx_1_1view_1_1_default_view.html#a7c523b99ea737199e64610465f238486" target="_top" xlink:title="Shows the primary stage.">
<polygon fill="white" stroke="#666666" points="368.75,-32 213.25,-32 213.25,0 368.75,0 368.75,-32"/>
<text text-anchor="start" x="221.25" y="-18.5" font-family="Helvetica,sans-Serif" font-size="10.00">fr.softsf.sudokufx.view.</text>
<text text-anchor="middle" x="291" y="-6.5" font-family="Helvetica,sans-Serif" font-size="10.00">DefaultView.openingShowStage</text>
</a>
</g>
</g>
<!-- Node1&#45;&gt;Node7 -->
<g id="edge7_Node000001_Node000007" class="edge">
<title>Node1&#45;&gt;Node7</title>
<g id="a_edge7_Node000001_Node000007"><a xlink:title=" ">
<path fill="none" stroke="#63b8ff" d="M90.12,-124.82C109.3,-102.5 146.97,-62.59 187.75,-41 192.4,-38.54 197.3,-36.31 202.33,-34.3"/>
<polygon fill="#63b8ff" stroke="#63b8ff" points="203.2,-37.71 211.39,-31 200.79,-31.14 203.2,-37.71"/>
</a>
</g>
</g>
<!-- Node4&#45;&gt;Node2 -->
<g id="edge4_Node000004_Node000002" class="edge">
<title>Node4&#45;&gt;Node2</title>
<g id="a_edge4_Node000004_Node000002"><a xlink:title=" ">
<path fill="none" stroke="#63b8ff" d="M364.7,-182.44C382.25,-186.41 401.11,-190.67 419.01,-194.72"/>
<polygon fill="#63b8ff" stroke="#63b8ff" points="418.01,-198.08 428.53,-196.87 419.55,-191.25 418.01,-198.08"/>
</a>
</g>
</g>
</g>
</svg>

<g id="navigator" transform="translate(0 0)" fill="#404254">
  <rect fill="#f2f5e9" fill-opacity="0.5" stroke="#606060" stroke-width=".5" x="0" y="0" width="60" height="60"/>
  <use id="zoomplus" xlink:href="#zoomPlus" x="17" y="9" onmousedown="handleZoom(evt,'in')"/>
  <use id="zoomminus" xlink:href="#zoomMin" x="42" y="9" onmousedown="handleZoom(evt,'out')"/>
  <use id="reset" xlink:href="#resetDef" x="30" y="36" onmousedown="handleReset()"/>
   <use id="arrowup" xlink:href="#arrowUp" x="0" y="0" onmousedown="handlePan(0,-1)"/>
  <use id="arrowright" xlink:href="#arrowRight" x="0" y="0" onmousedown="handlePan(1,0)"/>
  <use id="arrowdown" xlink:href="#arrowDown" x="0" y="0" onmousedown="handlePan(0,1)"/>
  <use id="arrowleft" xlink:href="#arrowLeft" x="0" y="0" onmousedown="handlePan(-1,0)"/>
</g>
<svg viewBox="0 0 15 15" width="100%" height="30px" preserveAspectRatio="xMaxYMin meet">
 <g id="arrow_out" transform="scale(0.3 0.3)">
  <a xlink:href="classfr_1_1softsf_1_1sudokufx_1_1view_1_1_default_view_ab4d767b0a3c661bf47dd1e1a353bb9bc_cgraph_org.svg" target="_base">
   <rect id="button" ry="5" rx="5" y="6" x="6" height="38" width="38"
        fill="#f2f5e9" fill-opacity="0.5" stroke="#606060" stroke-width="1.0"/>
   <path id="arrow"
     d="M 11.500037,31.436501 C 11.940474,20.09759 22.043105,11.32322 32.158766,21.979434 L 37.068811,17.246167 C 37.068811,17.246167 37.088388,32 37.088388,32 L 22.160133,31.978069 C 22.160133,31.978069 26.997745,27.140456 26.997745,27.140456 C 18.528582,18.264221 13.291696,25.230495 11.500037,31.436501 z"
     style="fill:#404040;"/>
  </a>
 </g>
</svg>

<style type='text/css'>
<![CDATA[
[data-mouse-over-selected='false'] { opacity: 0.7; }
[data-mouse-over-selected='true']  { opacity: 1.0; }
]]>
</style>
<script type="application/ecmascript"><![CDATA[
document.addEventListener('DOMContentLoaded', (event) => {
  highlightEdges();
  highlightAdjacentNodes();
});
]]></script>
</svg>
