<?xml version="1.0" encoding="UTF-8" standalone="no"?>
<!DOCTYPE svg PUBLIC "-//W3C//DTD SVG 1.1//EN"
 "http://www.w3.org/Graphics/SVG/1.1/DTD/svg11.dtd">
<!-- Generated by graphviz version 12.2.1 (20241206.2353)
 -->
<!-- Title: fr.softsf.sudokufx.common.unit.utils.database.keystore.SecretKeyEncryptionServiceAESGCMUTest Pages: 1 -->
<svg width="267pt" height="388pt"
 viewBox="0.00 0.00 267.00 388.00" xmlns="http://www.w3.org/2000/svg" xmlns:xlink="http://www.w3.org/1999/xlink">
<g id="graph0" class="graph" transform="scale(1 1) rotate(0) translate(4 384)">
<title>fr.softsf.sudokufx.common.unit.utils.database.keystore.SecretKeyEncryptionServiceAESGCMUTest</title>
<!-- Node1 -->
<g id="Node000001" class="node">
<title>Node1</title>
<g id="a_Node000001"><a xlink:title=" ">
<polygon fill="#999999" stroke="none" points="251,-192 0,-192 0,0 251,0 251,-192"/>
<text text-anchor="start" x="4" y="-178.5" font-family="Helvetica,sans-Serif" font-size="10.00">fr.softsf.sudokufx.common.unit.utils.database.keystore.</text>
<text text-anchor="start" x="28" y="-166.5" font-family="Helvetica,sans-Serif" font-size="10.00">SecretKeyEncryptionServiceAESGCMUTest</text>
<text text-anchor="start" x="31.69" y="-150.5" font-family="Helvetica,sans-Serif" font-size="10.00">&#45;</text>
<text text-anchor="start" x="66.38" y="-150.5" font-family="Helvetica,sans-Serif" font-size="10.00">ListAppender&lt; ILoggingEvent</text>
<text text-anchor="start" x="66.38" y="-138.5" font-family="Helvetica,sans-Serif" font-size="10.00"> &gt; logWatcher</text>
<text text-anchor="start" x="30.19" y="-122.5" font-family="Helvetica,sans-Serif" font-size="10.00">~</text>
<text text-anchor="start" x="66.38" y="-122.5" font-family="Helvetica,sans-Serif" font-size="10.00">void decryptWithLessThan</text>
<text text-anchor="start" x="66.38" y="-110.5" font-family="Helvetica,sans-Serif" font-size="10.00">TwoBytesCypher_fail()</text>
<text text-anchor="start" x="30.19" y="-94.5" font-family="Helvetica,sans-Serif" font-size="10.00">~</text>
<text text-anchor="start" x="66.38" y="-94.5" font-family="Helvetica,sans-Serif" font-size="10.00">void encryptDecrypt</text>
<text text-anchor="start" x="66.38" y="-82.5" font-family="Helvetica,sans-Serif" font-size="10.00">_success()</text>
<text text-anchor="start" x="30.19" y="-66.5" font-family="Helvetica,sans-Serif" font-size="10.00">~</text>
<text text-anchor="start" x="66.38" y="-66.5" font-family="Helvetica,sans-Serif" font-size="10.00">void encryptWithNullSecret</text>
<text text-anchor="start" x="66.38" y="-54.5" font-family="Helvetica,sans-Serif" font-size="10.00">Key_fail()</text>
<text text-anchor="start" x="30.19" y="-38.5" font-family="Helvetica,sans-Serif" font-size="10.00">~</text>
<text text-anchor="start" x="66.38" y="-38.5" font-family="Helvetica,sans-Serif" font-size="10.00">void setup()</text>
<text text-anchor="start" x="30.19" y="-22.5" font-family="Helvetica,sans-Serif" font-size="10.00">~</text>
<text text-anchor="start" x="66.38" y="-22.5" font-family="Helvetica,sans-Serif" font-size="10.00">void tearDown()</text>
<text text-anchor="start" x="30.19" y="-6.5" font-family="Helvetica,sans-Serif" font-size="10.00">~</text>
<text text-anchor="start" x="66.38" y="-6.5" font-family="Helvetica,sans-Serif" font-size="10.00">static void setupAll()</text>
<polygon fill="#666666" stroke="#666666" points="0,-162 0,-162 251,-162 251,-162 0,-162"/>
<polygon fill="#666666" stroke="#666666" points="0,-134 0,-134 64.38,-134 64.38,-134 0,-134"/>
<polygon fill="#666666" stroke="#666666" points="64.38,-134 64.38,-134 251,-134 251,-134 64.38,-134"/>
<polygon fill="none" stroke="#666666" points="0,0 0,-192 251,-192 251,0 0,0"/>
</a>
</g>
</g>
<!-- Node2 -->
<g id="Node000002" class="node">
<title>Node2</title>
<g id="a_Node000002"><a xlink:href="interfacefr_1_1softsf_1_1sudokufx_1_1interfaces_1_1_i_encryption_service.html" target="_top" xlink:title="Interface defining methods to encrypt and decrypt using AES&#45;GCM (Galois/Counter Mode) encryption.">
<polygon fill="white" stroke="none" points="192.12,-380 58.88,-380 58.88,-276 192.12,-276 192.12,-380"/>
<text text-anchor="start" x="62.88" y="-366.5" font-family="Helvetica,sans-Serif" font-size="10.00">fr.softsf.sudokufx.interfaces.</text>
<text text-anchor="start" x="84.25" y="-354.5" font-family="Helvetica,sans-Serif" font-size="10.00">IEncryptionService</text>
<text text-anchor="start" x="124" y="-338.5" font-family="Helvetica,sans-Serif" font-size="10.00"> </text>
<text text-anchor="start" x="69.38" y="-322.5" font-family="Helvetica,sans-Serif" font-size="10.00">+</text>
<text text-anchor="start" x="85.88" y="-322.5" font-family="Helvetica,sans-Serif" font-size="10.00">String decrypt(String</text>
<text text-anchor="start" x="85.88" y="-310.5" font-family="Helvetica,sans-Serif" font-size="10.00"> cypher)</text>
<text text-anchor="start" x="69.38" y="-294.5" font-family="Helvetica,sans-Serif" font-size="10.00">+</text>
<text text-anchor="start" x="85.88" y="-294.5" font-family="Helvetica,sans-Serif" font-size="10.00">String encrypt(String</text>
<text text-anchor="start" x="85.88" y="-282.5" font-family="Helvetica,sans-Serif" font-size="10.00"> original)</text>
<polygon fill="#666666" stroke="#666666" points="58.88,-350 58.88,-350 192.12,-350 192.12,-350 58.88,-350"/>
<polygon fill="#666666" stroke="#666666" points="58.88,-334 58.88,-334 192.12,-334 192.12,-334 58.88,-334"/>
<polygon fill="none" stroke="#666666" points="58.88,-276 58.88,-380 192.12,-380 192.12,-276 58.88,-276"/>
</a>
</g>
</g>
<!-- Node2&#45;&gt;Node1 -->
<g id="edge1_Node000001_Node000002" class="edge">
<title>Node2&#45;&gt;Node1</title>
<g id="a_edge1_Node000001_Node000002"><a xlink:title=" ">
<path fill="none" stroke="#63b8ff" d="M125.5,-276.24C125.5,-255.06 125.5,-229.6 125.5,-204.61"/>
<polygon fill="none" stroke="#63b8ff" points="125.5,-204.51 121.5,-198.51 125.5,-192.51 129.5,-198.51 125.5,-204.51"/>
</a>
</g>
<text text-anchor="start" x="125.5" y="-248.5" font-family="Helvetica,sans-Serif" font-size="10.00" fill="grey"> &#45;iSecretKeyEncryptionService</text>
<text text-anchor="middle" x="192.25" y="-236.5" font-family="Helvetica,sans-Serif" font-size="10.00" fill="grey">AESGCM</text>
<text text-anchor="start" x="125.5" y="-224.5" font-family="Helvetica,sans-Serif" font-size="10.00" fill="grey">&#45;iSecretKeyEncryptionService</text>
<text text-anchor="middle" x="192.25" y="-212.5" font-family="Helvetica,sans-Serif" font-size="10.00" fill="grey">AESGCMNullSecretKey</text>
</g>
</g>
</svg>
