<?xml version="1.0" encoding="UTF-8" standalone="no"?>
<!DOCTYPE svg PUBLIC "-//W3C//DTD SVG 1.1//EN"
 "http://www.w3.org/Graphics/SVG/1.1/DTD/svg11.dtd">
<!-- Generated by graphviz version 12.2.0 (20241103.1931)
 -->
<!-- Title: fr.softsf.sudokufx.service.FxmlService Pages: 1 -->
<svg width="349pt" height="396pt"
 viewBox="0.00 0.00 349.38 396.00" xmlns="http://www.w3.org/2000/svg" xmlns:xlink="http://www.w3.org/1999/xlink">

<svg id="main" version="1.1" xmlns="http://www.w3.org/2000/svg" xmlns:xlink="http://www.w3.org/1999/xlink" xml:space="preserve">

<style type="text/css"><![CDATA[
.node, .edge {opacity: 0.7;}
.node.selected, .edge.selected {opacity: 1;}
.edge:hover path { stroke: red; }
.edge:hover polygon { stroke: red; fill: red; }
]]></style>
<script type="application/ecmascript" xlink:href="svg.min.js"/>
<svg id="graph" class="graph">
<g id="graph0" class="graph" transform="scale(1 1) rotate(0) translate(4 392)">
<title>fr.softsf.sudokufx.service.FxmlService</title>
<!-- Node1 -->
<g id="Node000001" class="node">
<title>Node1</title>
<g id="a_Node000001"><a xlink:title="FxmlService is a Spring service that manages the loading of FXML files and updating the root of the J...">
<polygon fill="#999999" stroke="none" points="248.38,-120 108.88,-120 108.88,0 248.38,0 248.38,-120"/>
<text text-anchor="start" x="121.62" y="-106.5" font-family="Helvetica,sans-Serif" font-size="10.00">fr.softsf.sudokufx.service.</text>
<text text-anchor="start" x="151.25" y="-94.5" font-family="Helvetica,sans-Serif" font-size="10.00">FxmlService</text>
<text text-anchor="start" x="177.12" y="-78.5" font-family="Helvetica,sans-Serif" font-size="10.00"> </text>
<text text-anchor="start" x="112.88" y="-62.5" font-family="Helvetica,sans-Serif" font-size="10.00">+</text>
<text text-anchor="start" x="122.88" y="-62.5" font-family="Helvetica,sans-Serif" font-size="10.00">FxmlService(FXMLLoader</text>
<text text-anchor="start" x="122.88" y="-50.5" font-family="Helvetica,sans-Serif" font-size="10.00"> fxmlLoader)</text>
<text text-anchor="start" x="112.88" y="-34.5" font-family="Helvetica,sans-Serif" font-size="10.00">+</text>
<text text-anchor="start" x="122.88" y="-34.5" font-family="Helvetica,sans-Serif" font-size="10.00">void setRootByFXMLName</text>
<text text-anchor="start" x="122.88" y="-22.5" font-family="Helvetica,sans-Serif" font-size="10.00">(final String fxml)</text>
<text text-anchor="start" x="112.88" y="-6.5" font-family="Helvetica,sans-Serif" font-size="10.00">~</text>
<text text-anchor="start" x="122.88" y="-6.5" font-family="Helvetica,sans-Serif" font-size="10.00">public&lt; T &gt; T getController()</text>
<polygon fill="#666666" stroke="#666666" points="108.88,-90 108.88,-90 248.38,-90 248.38,-90 108.88,-90"/>
<polygon fill="#666666" stroke="#666666" points="108.88,-74 108.88,-74 248.38,-74 248.38,-74 108.88,-74"/>
<polygon fill="none" stroke="#666666" points="108.88,0 108.88,-120 248.38,-120 248.38,0 108.88,0"/>
</a>
</g>
</g>
<!-- Node2 -->
<g id="Node000002" class="node">
<title>Node2</title>
<g id="a_Node000002"><a xlink:href="interfacefr_1_1softsf_1_1sudokufx_1_1interfaces_1_1_i_scene_provider.html" target="_top" xlink:title="Interface ISceneProvider.">
<polygon fill="white" stroke="none" points="133.25,-388 0,-388 0,-324 133.25,-324 133.25,-388"/>
<text text-anchor="start" x="4" y="-374.5" font-family="Helvetica,sans-Serif" font-size="10.00">fr.softsf.sudokufx.interfaces.</text>
<text text-anchor="start" x="33.25" y="-362.5" font-family="Helvetica,sans-Serif" font-size="10.00">ISceneProvider</text>
<text text-anchor="start" x="65.12" y="-346.5" font-family="Helvetica,sans-Serif" font-size="10.00"> </text>
<text text-anchor="start" x="5.25" y="-330.5" font-family="Helvetica,sans-Serif" font-size="10.00">+</text>
<text text-anchor="start" x="16.5" y="-330.5" font-family="Helvetica,sans-Serif" font-size="10.00">default Scene getScene()</text>
<polygon fill="#666666" stroke="#666666" points="0,-358 0,-358 133.25,-358 133.25,-358 0,-358"/>
<polygon fill="#666666" stroke="#666666" points="0,-342 0,-342 133.25,-342 133.25,-342 0,-342"/>
<polygon fill="none" stroke="#666666" points="0,-324 0,-388 133.25,-388 133.25,-324 0,-324"/>
</a>
</g>
</g>
<!-- Node2&#45;&gt;Node1 -->
<g id="edge1_Node000001_Node000002" class="edge">
<title>Node2&#45;&gt;Node1</title>
<g id="a_edge1_Node000001_Node000002"><a xlink:title=" ">
<path fill="none" stroke="#63b8ff" d="M53.76,-313.25C44.04,-273.95 35.62,-214.36 56.62,-168 67.9,-143.11 88.15,-121.72 108.95,-104.75"/>
<polygon fill="none" stroke="#63b8ff" points="50.34,-314.01 56.26,-322.8 57.11,-312.24 50.34,-314.01"/>
</a>
</g>
</g>
<!-- Node5 -->
<g id="Node000005" class="node">
<title>Node5</title>
<g id="a_Node000005"><a xlink:href="classfr_1_1softsf_1_1sudokufx_1_1utils_1_1_dynamic_font_size.html" target="_top" xlink:title="Manages dynamic font sizing based on the dimensions of a JavaFX Scene.">
<polygon fill="white" stroke="none" points="192,-276 65.25,-276 65.25,-168 192,-168 192,-276"/>
<text text-anchor="start" x="78.38" y="-262.5" font-family="Helvetica,sans-Serif" font-size="10.00">fr.softsf.sudokufx.utils.</text>
<text text-anchor="start" x="89.62" y="-250.5" font-family="Helvetica,sans-Serif" font-size="10.00">DynamicFontSize</text>
<text text-anchor="start" x="70.75" y="-234.5" font-family="Helvetica,sans-Serif" font-size="10.00">&#45;</text>
<text text-anchor="start" x="79.25" y="-234.5" font-family="Helvetica,sans-Serif" font-size="10.00">double currentFontSize</text>
<text text-anchor="start" x="69.25" y="-218.5" font-family="Helvetica,sans-Serif" font-size="10.00">+</text>
<text text-anchor="start" x="79.25" y="-218.5" font-family="Helvetica,sans-Serif" font-size="10.00">DynamicFontSize()</text>
<text text-anchor="start" x="69.25" y="-202.5" font-family="Helvetica,sans-Serif" font-size="10.00">+</text>
<text text-anchor="start" x="79.25" y="-202.5" font-family="Helvetica,sans-Serif" font-size="10.00">void updateFontSize()</text>
<text text-anchor="start" x="69.25" y="-186.5" font-family="Helvetica,sans-Serif" font-size="10.00">~</text>
<text text-anchor="start" x="79.25" y="-186.5" font-family="Helvetica,sans-Serif" font-size="10.00">DynamicFontSize(Scene</text>
<text text-anchor="start" x="79.25" y="-174.5" font-family="Helvetica,sans-Serif" font-size="10.00"> scene)</text>
<polygon fill="#666666" stroke="#666666" points="65.25,-246 65.25,-246 192,-246 192,-246 65.25,-246"/>
<polygon fill="#666666" stroke="#666666" points="65.25,-230 65.25,-230 77.25,-230 77.25,-230 65.25,-230"/>
<polygon fill="#666666" stroke="#666666" points="77.25,-230 77.25,-230 192,-230 192,-230 77.25,-230"/>
<polygon fill="none" stroke="#666666" points="65.25,-168 65.25,-276 192,-276 192,-168 65.25,-168"/>
</a>
</g>
</g>
<!-- Node2&#45;&gt;Node5 -->
<g id="edge5_Node000005_Node000002" class="edge">
<title>Node2&#45;&gt;Node5</title>
<g id="a_edge5_Node000005_Node000002"><a xlink:title=" ">
<path fill="none" stroke="#63b8ff" d="M85.94,-313.89C91.57,-301.88 97.81,-288.6 103.74,-275.97"/>
<polygon fill="none" stroke="#63b8ff" points="82.89,-312.14 81.8,-322.68 89.22,-315.12 82.89,-312.14"/>
</a>
</g>
</g>
<!-- Node3 -->
<g id="Node000003" class="node">
<title>Node3</title>
<g id="a_Node000003"><a xlink:title=" ">
<polygon fill="white" stroke="none" points="216.5,-382 180.75,-382 180.75,-330 216.5,-330 216.5,-382"/>
<text text-anchor="start" x="184.75" y="-368.5" font-family="Helvetica,sans-Serif" font-size="10.00">Scene</text>
<text text-anchor="start" x="197.12" y="-352.5" font-family="Helvetica,sans-Serif" font-size="10.00"> </text>
<text text-anchor="start" x="197.12" y="-336.5" font-family="Helvetica,sans-Serif" font-size="10.00"> </text>
<polygon fill="#666666" stroke="#666666" points="180.75,-364 180.75,-364 216.5,-364 216.5,-364 180.75,-364"/>
<polygon fill="#666666" stroke="#666666" points="180.75,-348 180.75,-348 216.5,-348 216.5,-348 180.75,-348"/>
<polygon fill="none" stroke="#666666" points="180.75,-330 180.75,-382 216.5,-382 216.5,-330 180.75,-330"/>
</a>
</g>
</g>
<!-- Node3&#45;&gt;Node1 -->
<g id="edge2_Node000001_Node000003" class="edge">
<title>Node3&#45;&gt;Node1</title>
<g id="a_edge2_Node000001_Node000003"><a xlink:title=" ">
<path fill="none" stroke="#63b8ff" d="M204.79,-330.27C213.92,-289.65 228.45,-206.46 213.62,-138 213.2,-136.02 212.71,-134.03 212.18,-132.04"/>
<polygon fill="none" stroke="#63b8ff" points="212.21,-132.14 206.61,-127.61 208.64,-120.69 214.24,-125.22 212.21,-132.14"/>
</a>
</g>
<text text-anchor="middle" x="236.11" y="-218.5" font-family="Helvetica,sans-Serif" font-size="10.00" fill="grey"> &#45;scene</text>
</g>
<!-- Node3&#45;&gt;Node5 -->
<g id="edge6_Node000005_Node000003" class="edge">
<title>Node3&#45;&gt;Node5</title>
<g id="a_edge6_Node000005_Node000003"><a xlink:title=" ">
<path fill="none" stroke="#63b8ff" d="M185.46,-330.17C178.93,-317.85 170.7,-302.35 162.56,-286.99"/>
<polygon fill="none" stroke="#63b8ff" points="162.71,-287.27 156.36,-283.85 157.09,-276.67 163.43,-280.1 162.71,-287.27"/>
</a>
</g>
<text text-anchor="middle" x="188.08" y="-296.5" font-family="Helvetica,sans-Serif" font-size="10.00" fill="grey"> &#45;scene</text>
</g>
<!-- Node4 -->
<g id="Node000004" class="node">
<title>Node4</title>
<g id="a_Node000004"><a xlink:title=" ">
<polygon fill="white" stroke="none" points="341.38,-248 277.88,-248 277.88,-196 341.38,-196 341.38,-248"/>
<text text-anchor="start" x="281.88" y="-234.5" font-family="Helvetica,sans-Serif" font-size="10.00">FXMLLoader</text>
<text text-anchor="start" x="308.12" y="-218.5" font-family="Helvetica,sans-Serif" font-size="10.00"> </text>
<text text-anchor="start" x="308.12" y="-202.5" font-family="Helvetica,sans-Serif" font-size="10.00"> </text>
<polygon fill="#666666" stroke="#666666" points="277.88,-230 277.88,-230 341.38,-230 341.38,-230 277.88,-230"/>
<polygon fill="#666666" stroke="#666666" points="277.88,-214 277.88,-214 341.38,-214 341.38,-214 277.88,-214"/>
<polygon fill="none" stroke="#666666" points="277.88,-196 277.88,-248 341.38,-248 341.38,-196 277.88,-196"/>
</a>
</g>
</g>
<!-- Node4&#45;&gt;Node1 -->
<g id="edge3_Node000001_Node000004" class="edge">
<title>Node4&#45;&gt;Node1</title>
<g id="a_edge3_Node000001_Node000004"><a xlink:title=" ">
<path fill="none" stroke="#63b8ff" d="M289.16,-196C274.55,-178.16 254.15,-153.24 234.85,-129.67"/>
<polygon fill="none" stroke="#63b8ff" points="234.83,-129.65 227.94,-127.54 227.23,-120.37 234.13,-122.48 234.83,-129.65"/>
</a>
</g>
<text text-anchor="middle" x="275.05" y="-140.5" font-family="Helvetica,sans-Serif" font-size="10.00" fill="grey"> &#45;fxmlLoader</text>
</g>
<!-- Node5&#45;&gt;Node1 -->
<g id="edge4_Node000001_Node000005" class="edge">
<title>Node5&#45;&gt;Node1</title>
<g id="a_edge4_Node000001_Node000005"><a xlink:title=" ">
<path fill="none" stroke="#63b8ff" d="M126.7,-168.09C127.45,-157.95 129.01,-147.53 131.88,-138 132.51,-135.89 133.22,-133.78 133.99,-131.67"/>
<polygon fill="none" stroke="#63b8ff" points="134.01,-131.61 132.64,-124.53 138.65,-120.55 140.02,-127.63 134.01,-131.61"/>
</a>
</g>
<text text-anchor="middle" x="172.75" y="-140.5" font-family="Helvetica,sans-Serif" font-size="10.00" fill="grey"> &#45;dynamicFontSize</text>
</g>
</g>
</svg>
</svg>

<style type='text/css'>
<![CDATA[
[data-mouse-over-selected='false'] { opacity: 0.7; }
[data-mouse-over-selected='true']  { opacity: 1.0; }
]]>
</style>
<script type="application/ecmascript"><![CDATA[
document.addEventListener('DOMContentLoaded', (event) => {
  highlightEdges();
  highlightAdjacentNodes();
});
]]></script>
</svg>
