<?xml version="1.0" encoding="UTF-8" standalone="no"?>
<!DOCTYPE svg PUBLIC "-//W3C//DTD SVG 1.1//EN"
 "http://www.w3.org/Graphics/SVG/1.1/DTD/svg11.dtd">
<!-- Generated by graphviz version 12.2.0 (20241103.1931)
 -->
<!-- Title: fr.softsf.sudokufx.utils.sudoku.GridMaster.genererLaGrilleAResoudre Pages: 1 -->
<svg width="822pt" height="190pt"
 viewBox="0.00 0.00 822.00 190.00" xmlns="http://www.w3.org/2000/svg" xmlns:xlink="http://www.w3.org/1999/xlink">
<g id="graph0" class="graph" transform="scale(1 1) rotate(0) translate(4 186)">
<title>fr.softsf.sudokufx.utils.sudoku.GridMaster.genererLaGrilleAResoudre</title>
<!-- Node1 -->
<g id="Node000001" class="node">
<title>Node1</title>
<g id="a_Node000001"><a xlink:title="Génère une grille de Sudoku à résoudre en cachant des cases selon le niveau de difficulté.">
<polygon fill="#999999" stroke="#666666" points="181,-107 0,-107 0,-75 181,-75 181,-107"/>
<text text-anchor="start" x="8" y="-93.5" font-family="Helvetica,sans-Serif" font-size="10.00">fr.softsf.sudokufx.utils.sudoku.</text>
<text text-anchor="middle" x="90.5" y="-81.5" font-family="Helvetica,sans-Serif" font-size="10.00">GridMaster.genererLaGrilleAResoudre</text>
</a>
</g>
</g>
<!-- Node2 -->
<g id="Node000002" class="node">
<title>Node2</title>
<g id="a_Node000002"><a xlink:href="classfr_1_1softsf_1_1sudokufx_1_1utils_1_1sudoku_1_1_grid_master.html#a89fed8ecc70b911e60ca540cca93ef78" target="_top" xlink:title="Cache un nombre spécifié de cases dans la grille à résoudre en les remplaçant par zéro.">
<polygon fill="white" stroke="#666666" points="399.88,-182 248.88,-182 248.88,-150 399.88,-150 399.88,-182"/>
<text text-anchor="start" x="256.88" y="-168.5" font-family="Helvetica,sans-Serif" font-size="10.00">fr.softsf.sudokufx.utils.sudoku.</text>
<text text-anchor="middle" x="324.38" y="-156.5" font-family="Helvetica,sans-Serif" font-size="10.00">GridMaster.cacherLesCases</text>
</a>
</g>
</g>
<!-- Node1&#45;&gt;Node2 -->
<g id="edge1_Node000001_Node000002" class="edge">
<title>Node1&#45;&gt;Node2</title>
<g id="a_edge1_Node000001_Node000002"><a xlink:title=" ">
<path fill="none" stroke="#63b8ff" d="M128.59,-107.46C153.3,-118.01 186.69,-131.46 217,-141 223.65,-143.09 230.58,-145.1 237.58,-147"/>
<polygon fill="#63b8ff" stroke="#63b8ff" points="236.57,-150.36 247.14,-149.52 238.36,-143.59 236.57,-150.36"/>
</a>
</g>
</g>
<!-- Node4 -->
<g id="Node000004" class="node">
<title>Node4</title>
<g id="a_Node000004"><a xlink:href="classfr_1_1softsf_1_1sudokufx_1_1utils_1_1sudoku_1_1_grid_master.html#a46d1bfadcbb911b5a718508185da341f" target="_top" xlink:title="Calcule les possibilités pour chaque case de la grille de Sudoku.">
<polygon fill="white" stroke="#666666" points="399.88,-82 248.88,-82 248.88,-50 399.88,-50 399.88,-82"/>
<text text-anchor="start" x="256.88" y="-68.5" font-family="Helvetica,sans-Serif" font-size="10.00">fr.softsf.sudokufx.utils.sudoku.</text>
<text text-anchor="middle" x="324.38" y="-56.5" font-family="Helvetica,sans-Serif" font-size="10.00">GridMaster.getPossibilites</text>
</a>
</g>
</g>
<!-- Node1&#45;&gt;Node4 -->
<g id="edge3_Node000001_Node000004" class="edge">
<title>Node1&#45;&gt;Node4</title>
<g id="a_edge3_Node000001_Node000004"><a xlink:title=" ">
<path fill="none" stroke="#63b8ff" d="M181.48,-81.3C199.74,-79.33 218.9,-77.26 237.03,-75.31"/>
<polygon fill="#63b8ff" stroke="#63b8ff" points="237.39,-78.79 246.96,-74.24 236.64,-71.83 237.39,-78.79"/>
</a>
</g>
</g>
<!-- Node7 -->
<g id="Node000007" class="node">
<title>Node7</title>
<g id="a_Node000007"><a xlink:href="classfr_1_1softsf_1_1sudokufx_1_1utils_1_1sudoku_1_1_grid_master.html#a5bb14564ed4b6a7cded51e1bedc72faf" target="_top" xlink:title="Génère un nombre entier aléatoire dans un intervalle spécifié.">
<polygon fill="white" stroke="#666666" points="399.88,-132 248.88,-132 248.88,-100 399.88,-100 399.88,-132"/>
<text text-anchor="start" x="256.88" y="-118.5" font-family="Helvetica,sans-Serif" font-size="10.00">fr.softsf.sudokufx.utils.sudoku.</text>
<text text-anchor="middle" x="324.38" y="-106.5" font-family="Helvetica,sans-Serif" font-size="10.00">GridMaster.nombreAleatoire</text>
</a>
</g>
</g>
<!-- Node1&#45;&gt;Node7 -->
<g id="edge6_Node000001_Node000007" class="edge">
<title>Node1&#45;&gt;Node7</title>
<g id="a_edge6_Node000001_Node000007"><a xlink:title=" ">
<path fill="none" stroke="#63b8ff" d="M181.48,-100.7C199.74,-102.67 218.9,-104.74 237.03,-106.69"/>
<polygon fill="#63b8ff" stroke="#63b8ff" points="236.64,-110.17 246.96,-107.76 237.39,-103.21 236.64,-110.17"/>
</a>
</g>
</g>
<!-- Node8 -->
<g id="Node000008" class="node">
<title>Node8</title>
<g id="a_Node000008"><a xlink:href="classfr_1_1softsf_1_1sudokufx_1_1utils_1_1sudoku_1_1_grid_master.html#ac5c49fbdcc99b9d7d573d831a75c8e1d" target="_top" xlink:title="Calcule la somme des possibilités de toutes les cases de la grille de Sudoku.">
<polygon fill="white" stroke="#666666" points="431.75,-32 217,-32 217,0 431.75,0 431.75,-32"/>
<text text-anchor="start" x="225" y="-18.5" font-family="Helvetica,sans-Serif" font-size="10.00">fr.softsf.sudokufx.utils.sudoku.</text>
<text text-anchor="middle" x="324.38" y="-6.5" font-family="Helvetica,sans-Serif" font-size="10.00">GridMaster.SommeDesPossibilitesDeLaGrille</text>
</a>
</g>
</g>
<!-- Node1&#45;&gt;Node8 -->
<g id="edge8_Node000001_Node000008" class="edge">
<title>Node1&#45;&gt;Node8</title>
<g id="a_edge8_Node000001_Node000008"><a xlink:title=" ">
<path fill="none" stroke="#63b8ff" d="M128.59,-74.54C153.3,-63.99 186.69,-50.54 217,-41 223.2,-39.05 229.65,-37.17 236.17,-35.38"/>
<polygon fill="#63b8ff" stroke="#63b8ff" points="236.94,-38.8 245.71,-32.85 235.14,-32.03 236.94,-38.8"/>
</a>
</g>
</g>
<!-- Node3 -->
<g id="Node000003" class="node">
<title>Node3</title>
<g id="a_Node000003"><a xlink:href="classfr_1_1softsf_1_1sudokufx_1_1utils_1_1_secure_random_generator.html#ab000b11e58735924b9fca8db827374ad" target="_top" xlink:title="Generates a random integer between 0 (inclusive) and the specified bound (exclusive).">
<polygon fill="white" stroke="#666666" points="627,-157 467.75,-157 467.75,-125 627,-125 627,-157"/>
<text text-anchor="start" x="475.75" y="-143.5" font-family="Helvetica,sans-Serif" font-size="10.00">fr.softsf.sudokufx.utils.</text>
<text text-anchor="middle" x="547.38" y="-131.5" font-family="Helvetica,sans-Serif" font-size="10.00">SecureRandomGenerator.nextInt</text>
</a>
</g>
</g>
<!-- Node2&#45;&gt;Node3 -->
<g id="edge2_Node000002_Node000003" class="edge">
<title>Node2&#45;&gt;Node3</title>
<g id="a_edge2_Node000002_Node000003"><a xlink:title=" ">
<path fill="none" stroke="#63b8ff" d="M400.2,-157.54C418.14,-155.51 437.48,-153.32 456.04,-151.22"/>
<polygon fill="#63b8ff" stroke="#63b8ff" points="456.43,-154.7 465.97,-150.1 455.64,-147.74 456.43,-154.7"/>
</a>
</g>
</g>
<!-- Node5 -->
<g id="Node000005" class="node">
<title>Node5</title>
<g id="a_Node000005"><a xlink:href="classfr_1_1softsf_1_1sudokufx_1_1utils_1_1sudoku_1_1_grid_master.html#ad1a85240278a682b9cf73c8d8ec6398d" target="_top" xlink:title="Initialise le tableau des possibilités pour chaque case.">
<polygon fill="white" stroke="#666666" points="625.12,-82 469.62,-82 469.62,-50 625.12,-50 625.12,-82"/>
<text text-anchor="start" x="477.62" y="-68.5" font-family="Helvetica,sans-Serif" font-size="10.00">fr.softsf.sudokufx.utils.sudoku.</text>
<text text-anchor="middle" x="547.38" y="-56.5" font-family="Helvetica,sans-Serif" font-size="10.00">GridMaster.initialiserPossibilites</text>
</a>
</g>
</g>
<!-- Node4&#45;&gt;Node5 -->
<g id="edge4_Node000004_Node000005" class="edge">
<title>Node4&#45;&gt;Node5</title>
<g id="a_edge4_Node000004_Node000005"><a xlink:title=" ">
<path fill="none" stroke="#63b8ff" d="M400.2,-66C418.74,-66 438.79,-66 457.92,-66"/>
<polygon fill="#63b8ff" stroke="#63b8ff" points="457.86,-69.5 467.86,-66 457.86,-62.5 457.86,-69.5"/>
</a>
</g>
</g>
<!-- Node6 -->
<g id="Node000006" class="node">
<title>Node6</title>
<g id="a_Node000006"><a xlink:href="classfr_1_1softsf_1_1sudokufx_1_1utils_1_1sudoku_1_1_grid_master.html#aab28df678a8069dd22b13a687bb2ba5b" target="_top" xlink:title="Élimine la valeur des possibilités des cases alentours.">
<polygon fill="white" stroke="#666666" points="814,-82 663,-82 663,-50 814,-50 814,-82"/>
<text text-anchor="start" x="671" y="-68.5" font-family="Helvetica,sans-Serif" font-size="10.00">fr.softsf.sudokufx.utils.sudoku.</text>
<text text-anchor="middle" x="738.5" y="-56.5" font-family="Helvetica,sans-Serif" font-size="10.00">GridMaster.eliminerPossibilite</text>
</a>
</g>
</g>
<!-- Node5&#45;&gt;Node6 -->
<g id="edge5_Node000005_Node000006" class="edge">
<title>Node5&#45;&gt;Node6</title>
<g id="a_edge5_Node000005_Node000006"><a xlink:title=" ">
<path fill="none" stroke="#63b8ff" d="M625.57,-66C634.09,-66 642.81,-66 651.43,-66"/>
<polygon fill="#63b8ff" stroke="#63b8ff" points="651.18,-69.5 661.18,-66 651.18,-62.5 651.18,-69.5"/>
</a>
</g>
</g>
<!-- Node7&#45;&gt;Node3 -->
<g id="edge7_Node000007_Node000003" class="edge">
<title>Node7&#45;&gt;Node3</title>
<g id="a_edge7_Node000007_Node000003"><a xlink:title=" ">
<path fill="none" stroke="#63b8ff" d="M400.2,-124.46C418.14,-126.49 437.48,-128.68 456.04,-130.78"/>
<polygon fill="#63b8ff" stroke="#63b8ff" points="455.64,-134.26 465.97,-131.9 456.43,-127.3 455.64,-134.26"/>
</a>
</g>
</g>
</g>
</svg>
