<?xml version="1.0" encoding="UTF-8" standalone="no"?>
<!DOCTYPE svg PUBLIC "-//W3C//DTD SVG 1.1//EN"
 "http://www.w3.org/Graphics/SVG/1.1/DTD/svg11.dtd">
<!-- Generated by graphviz version 12.2.0 (20241103.1931)
 -->
<!-- Title: fr.softsf.sudokufx.view.SplashScreenView.getLoadingOrOptimizingMessage Pages: 1 -->
<svg width="369pt" height="120pt"
 viewBox="0.00 0.00 369.25 120.00" xmlns="http://www.w3.org/2000/svg" xmlns:xlink="http://www.w3.org/1999/xlink">
<g id="graph0" class="graph" transform="scale(1 1) rotate(0) translate(4 116)">
<title>fr.softsf.sudokufx.view.SplashScreenView.getLoadingOrOptimizingMessage</title>
<!-- Node1 -->
<g id="Node000001" class="node">
<title>Node1</title>
<g id="a_Node000001"><a xlink:title="Retrieves a message indicating the current loading or optimizing state.">
<polygon fill="#999999" stroke="#666666" points="158.5,-81 0,-81 0,-37 158.5,-37 158.5,-81"/>
<text text-anchor="start" x="8" y="-67.5" font-family="Helvetica,sans-Serif" font-size="10.00">fr.softsf.sudokufx.view.</text>
<text text-anchor="start" x="8" y="-55.5" font-family="Helvetica,sans-Serif" font-size="10.00">SplashScreenView.getLoadingOr</text>
<text text-anchor="middle" x="79.25" y="-43.5" font-family="Helvetica,sans-Serif" font-size="10.00">OptimizingMessage</text>
</a>
</g>
</g>
<!-- Node2 -->
<g id="Node000002" class="node">
<title>Node2</title>
<g id="a_Node000002"><a xlink:href="classfr_1_1softsf_1_1sudokufx_1_1utils_1_1_i18n.html#a7095fa285a498c3f20bf33488a69d22c" target="_top" xlink:title="Retrieves the localized string value for a given key.">
<polygon fill="white" stroke="#666666" points="336.12,-112 219.62,-112 219.62,-80 336.12,-80 336.12,-112"/>
<text text-anchor="start" x="227.62" y="-98.5" font-family="Helvetica,sans-Serif" font-size="10.00">fr.softsf.sudokufx.utils.</text>
<text text-anchor="middle" x="277.88" y="-86.5" font-family="Helvetica,sans-Serif" font-size="10.00">I18n.getValue</text>
</a>
</g>
</g>
<!-- Node1&#45;&gt;Node2 -->
<g id="edge1_Node000001_Node000002" class="edge">
<title>Node1&#45;&gt;Node2</title>
<g id="a_edge1_Node000001_Node000002"><a xlink:title=" ">
<path fill="none" stroke="#63b8ff" d="M158.81,-73.78C175.24,-76.87 192.43,-80.11 208.45,-83.12"/>
<polygon fill="#63b8ff" stroke="#63b8ff" points="207.37,-86.48 217.85,-84.89 208.67,-79.6 207.37,-86.48"/>
</a>
</g>
</g>
<!-- Node3 -->
<g id="Node000003" class="node">
<title>Node3</title>
<g id="a_Node000003"><a xlink:href="classfr_1_1softsf_1_1sudokufx_1_1utils_1_1_j_v_m_application_properties.html#a7d07880db5617906582d43a95925ba8d" target="_top" xlink:title="Determines if the Spring context should exit on refresh.">
<polygon fill="white" stroke="#666666" points="361.25,-44 194.5,-44 194.5,0 361.25,0 361.25,-44"/>
<text text-anchor="start" x="202.5" y="-30.5" font-family="Helvetica,sans-Serif" font-size="10.00">fr.softsf.sudokufx.utils.</text>
<text text-anchor="start" x="202.5" y="-18.5" font-family="Helvetica,sans-Serif" font-size="10.00">JVMApplicationProperties.isSpring</text>
<text text-anchor="middle" x="277.88" y="-6.5" font-family="Helvetica,sans-Serif" font-size="10.00">ContextExitOnRefresh</text>
</a>
</g>
</g>
<!-- Node1&#45;&gt;Node3 -->
<g id="edge2_Node000001_Node000003" class="edge">
<title>Node1&#45;&gt;Node3</title>
<g id="a_edge2_Node000001_Node000003"><a xlink:title=" ">
<path fill="none" stroke="#63b8ff" d="M158.81,-44.22C166.83,-42.71 175.02,-41.17 183.18,-39.63"/>
<polygon fill="#63b8ff" stroke="#63b8ff" points="183.59,-43.12 192.77,-37.83 182.29,-36.24 183.59,-43.12"/>
</a>
</g>
</g>
<!-- Node3&#45;&gt;Node3 -->
<g id="edge3_Node000003_Node000003" class="edge">
<title>Node3&#45;&gt;Node3</title>
<g id="a_edge3_Node000003_Node000003"><a xlink:title=" ">
<path fill="none" stroke="#63b8ff" d="M241.08,-44.21C238.07,-53.8 250.33,-62 277.88,-62 294.23,-62 305.2,-59.11 310.78,-54.75"/>
<polygon fill="#63b8ff" stroke="#63b8ff" points="313.97,-56.23 314.15,-45.63 307.4,-53.8 313.97,-56.23"/>
</a>
</g>
</g>
</g>
</svg>
