<?xml version="1.0" encoding="UTF-8" standalone="no"?>
<!DOCTYPE svg PUBLIC "-//W3C//DTD SVG 1.1//EN"
 "http://www.w3.org/Graphics/SVG/1.1/DTD/svg11.dtd">
<!-- Generated by graphviz version 12.2.1 (20241206.2353)
 -->
<!-- Title: fr.softsf.sudokufx.utils.DynamicFontSize Pages: 1 -->
<svg width="141pt" height="248pt"
 viewBox="0.00 0.00 141.25 248.00" xmlns="http://www.w3.org/2000/svg" xmlns:xlink="http://www.w3.org/1999/xlink">

<svg id="main" version="1.1" xmlns="http://www.w3.org/2000/svg" xmlns:xlink="http://www.w3.org/1999/xlink" xml:space="preserve">

<style type="text/css"><![CDATA[
.node, .edge {opacity: 0.7;}
.node.selected, .edge.selected {opacity: 1;}
.edge:hover path { stroke: red; }
.edge:hover polygon { stroke: red; fill: red; }
]]></style>
<script type="application/ecmascript" xlink:href="svg.min.js"/>
<svg id="graph" class="graph">
<g id="graph0" class="graph" transform="scale(1 1) rotate(0) translate(4 244)">
<title>fr.softsf.sudokufx.utils.DynamicFontSize</title>
<!-- Node1 -->
<g id="Node000001" class="node">
<title>Node1</title>
<g id="a_Node000001"><a xlink:title="Manages dynamic font sizing based on the dimensions of a JavaFX Scene.">
<polygon fill="#999999" stroke="none" points="130,-140 3.25,-140 3.25,0 130,0 130,-140"/>
<text text-anchor="start" x="16.38" y="-126.5" font-family="Helvetica,sans-Serif" font-size="10.00">fr.softsf.sudokufx.utils.</text>
<text text-anchor="start" x="27.62" y="-114.5" font-family="Helvetica,sans-Serif" font-size="10.00">DynamicFontSize</text>
<text text-anchor="start" x="8.75" y="-98.5" font-family="Helvetica,sans-Serif" font-size="10.00">&#45;</text>
<text text-anchor="start" x="17.25" y="-98.5" font-family="Helvetica,sans-Serif" font-size="10.00">double currentFontSize</text>
<text text-anchor="start" x="8.75" y="-82.5" font-family="Helvetica,sans-Serif" font-size="10.00">&#45;</text>
<text text-anchor="start" x="17.25" y="-82.5" font-family="Helvetica,sans-Serif" font-size="10.00">Scene scene</text>
<text text-anchor="start" x="7.25" y="-66.5" font-family="Helvetica,sans-Serif" font-size="10.00">+</text>
<text text-anchor="start" x="17.25" y="-66.5" font-family="Helvetica,sans-Serif" font-size="10.00">DynamicFontSize()</text>
<text text-anchor="start" x="7.25" y="-50.5" font-family="Helvetica,sans-Serif" font-size="10.00">+</text>
<text text-anchor="start" x="17.25" y="-50.5" font-family="Helvetica,sans-Serif" font-size="10.00">void updateFontSize()</text>
<text text-anchor="start" x="7.25" y="-34.5" font-family="Helvetica,sans-Serif" font-size="10.00">~</text>
<text text-anchor="start" x="17.25" y="-34.5" font-family="Helvetica,sans-Serif" font-size="10.00">DynamicFontSize(Scene</text>
<text text-anchor="start" x="17.25" y="-22.5" font-family="Helvetica,sans-Serif" font-size="10.00"> scene)</text>
<text text-anchor="start" x="8.75" y="-6.5" font-family="Helvetica,sans-Serif" font-size="10.00">&#45;</text>
<text text-anchor="start" x="17.25" y="-6.5" font-family="Helvetica,sans-Serif" font-size="10.00">void initialize()</text>
<polygon fill="#666666" stroke="#666666" points="3.25,-110 3.25,-110 130,-110 130,-110 3.25,-110"/>
<polygon fill="#666666" stroke="#666666" points="3.25,-78 3.25,-78 15.25,-78 15.25,-78 3.25,-78"/>
<polygon fill="#666666" stroke="#666666" points="15.25,-78 15.25,-78 130,-78 130,-78 15.25,-78"/>
<polygon fill="none" stroke="#666666" points="3.25,0 3.25,-140 130,-140 130,0 3.25,0"/>
</a>
</g>
</g>
<!-- Node2 -->
<g id="Node000002" class="node">
<title>Node2</title>
<g id="a_Node000002"><a xlink:href="interfacefr_1_1softsf_1_1sudokufx_1_1interfaces_1_1_i_scene_provider.html" target="_top" xlink:title="Interface ISceneProvider.">
<polygon fill="white" stroke="none" points="133.25,-240 0,-240 0,-176 133.25,-176 133.25,-240"/>
<text text-anchor="start" x="4" y="-226.5" font-family="Helvetica,sans-Serif" font-size="10.00">fr.softsf.sudokufx.interfaces.</text>
<text text-anchor="start" x="33.25" y="-214.5" font-family="Helvetica,sans-Serif" font-size="10.00">ISceneProvider</text>
<text text-anchor="start" x="65.12" y="-198.5" font-family="Helvetica,sans-Serif" font-size="10.00"> </text>
<text text-anchor="start" x="5.25" y="-182.5" font-family="Helvetica,sans-Serif" font-size="10.00">+</text>
<text text-anchor="start" x="16.5" y="-182.5" font-family="Helvetica,sans-Serif" font-size="10.00">default Scene getScene()</text>
<polygon fill="#666666" stroke="#666666" points="0,-210 0,-210 133.25,-210 133.25,-210 0,-210"/>
<polygon fill="#666666" stroke="#666666" points="0,-194 0,-194 133.25,-194 133.25,-194 0,-194"/>
<polygon fill="none" stroke="#666666" points="0,-176 0,-240 133.25,-240 133.25,-176 0,-176"/>
</a>
</g>
</g>
<!-- Node2&#45;&gt;Node1 -->
<g id="edge1_Node000001_Node000002" class="edge">
<title>Node2&#45;&gt;Node1</title>
<g id="a_edge1_Node000001_Node000002"><a xlink:title=" ">
<path fill="none" stroke="#63b8ff" d="M66.62,-164.89C66.62,-156.89 66.62,-148.33 66.62,-139.75"/>
<polygon fill="none" stroke="#63b8ff" points="63.13,-164.63 66.63,-174.63 70.13,-164.63 63.13,-164.63"/>
</a>
</g>
</g>
</g>
</svg>
</svg>

<style type='text/css'>
<![CDATA[
[data-mouse-over-selected='false'] { opacity: 0.7; }
[data-mouse-over-selected='true']  { opacity: 1.0; }
]]>
</style>
<script type="application/ecmascript"><![CDATA[
document.addEventListener('DOMContentLoaded', (event) => {
  highlightEdges();
  highlightAdjacentNodes();
});
]]></script>
</svg>
