<?xml version="1.0" encoding="UTF-8" standalone="no"?>
<!DOCTYPE svg PUBLIC "-//W3C//DTD SVG 1.1//EN"
 "http://www.w3.org/Graphics/SVG/1.1/DTD/svg11.dtd">
<!-- Generated by graphviz version 12.2.0 (20241103.1931)
 -->
<!-- Title: fr.softsf.sudokufx.utils.database.keystore.ApplicationKeystore Pages: 1 -->
<!--zoomable 848 -->

<svg id="main" version="1.1" xmlns="http://www.w3.org/2000/svg" xmlns:xlink="http://www.w3.org/1999/xlink" xml:space="preserve" onload="init(evt)">

<style type="text/css"><![CDATA[
.node, .edge {opacity: 0.7;}
.node.selected, .edge.selected {opacity: 1;}
.edge:hover path { stroke: red; }
.edge:hover polygon { stroke: red; fill: red; }
]]></style>

<defs>
  <circle id="rim" cx="0" cy="0" r="7"/>
  <circle id="rim2" cx="0" cy="0" r="3.5"/>
  <g id="zoomPlus">
    <use xlink:href="#rim" fill="#404040"><set attributeName="fill" to="#808080" begin="zoomplus.mouseover" end="zoomplus.mouseout"/></use>
    <path d="M-4,0h8M0,-4v8" fill="none" stroke="white" stroke-width="1.5" pointer-events="none"/>
  </g>
  <g id="zoomMin">
    <use xlink:href="#rim" fill="#404040"><set attributeName="fill" to="#808080" begin="zoomminus.mouseover" end="zoomminus.mouseout"/></use>
    <path d="M-4,0h8" fill="none" stroke="white" stroke-width="1.5" pointer-events="none"/>
  </g>
  <g id="arrowUp" transform="translate(30 24)">
    <use xlink:href="#rim"/>
    <path pointer-events="none" fill="none" stroke="white" stroke-width="1.5" d="M0,-3.0v7 M-2.5,-0.5L0,-3.0L2.5,-0.5"/>
  </g>
  <g id="arrowRight" transform="rotate(90) translate(36 -43)">
    <use xlink:href="#rim"/>
    <path pointer-events="none" fill="none" stroke="white" stroke-width="1.5" d="M0,-3.0v7 M-2.5,-0.5L0,-3.0L2.5,-0.5"/>
  </g>
  <g id="arrowDown" transform="rotate(180) translate(-30 -48)">
    <use xlink:href="#rim"/>
    <path pointer-events="none" fill="none" stroke="white" stroke-width="1.5" d="M0,-3.0v7 M-2.5,-0.5L0,-3.0L2.5,-0.5"/>
  </g>
  <g id="arrowLeft" transform="rotate(270) translate(-36 17)">
    <use xlink:href="#rim"/>
    <path pointer-events="none" fill="none" stroke="white" stroke-width="1.5" d="M0,-3.0v7 M-2.5,-0.5L0,-3.0L2.5,-0.5"/>
  </g>
  <g id="resetDef">
    <use xlink:href="#rim2" fill="#404040"><set attributeName="fill" to="#808080" begin="reset.mouseover" end="reset.mouseout"/></use>
  </g>
</defs>
<script type="application/ecmascript">
var viewWidth = 667;
var viewHeight = 848;
var sectionId = 'dynsection-1';
</script>
<script type="application/ecmascript" xlink:href="svg.min.js"/>
<svg id="graph" class="graph">
<g id="viewport">
<title>fr.softsf.sudokufx.utils.database.keystore.ApplicationKeystore</title>
<!-- Node1 -->
<g id="Node000001" class="node">
<title>Node1</title>
<g id="a_Node000001"><a xlink:title="Manages the application&#39;s keystore for the secure storage of a symmetric key and database credentials...">
<polygon fill="#999999" stroke="none" points="443,-688 238.25,-688 238.25,0 443,0 443,-688"/>
<text text-anchor="start" x="248.75" y="-674.5" font-family="Helvetica,sans-Serif" font-size="10.00">fr.softsf.sudokufx.utils.database.keystore.</text>
<text text-anchor="start" x="297.12" y="-662.5" font-family="Helvetica,sans-Serif" font-size="10.00">ApplicationKeystore</text>
<text text-anchor="start" x="243.75" y="-646.5" font-family="Helvetica,sans-Serif" font-size="10.00">&#45;</text>
<text text-anchor="start" x="252.25" y="-646.5" font-family="Helvetica,sans-Serif" font-size="10.00">String keystoreFilePath</text>
<text text-anchor="start" x="243.75" y="-630.5" font-family="Helvetica,sans-Serif" font-size="10.00">&#45;</text>
<text text-anchor="start" x="252.25" y="-630.5" font-family="Helvetica,sans-Serif" font-size="10.00">KeyStore ks</text>
<text text-anchor="start" x="243.75" y="-614.5" font-family="Helvetica,sans-Serif" font-size="10.00">&#45;</text>
<text text-anchor="start" x="252.25" y="-614.5" font-family="Helvetica,sans-Serif" font-size="10.00">String password</text>
<text text-anchor="start" x="243.75" y="-598.5" font-family="Helvetica,sans-Serif" font-size="10.00">&#45;</text>
<text text-anchor="start" x="252.25" y="-598.5" font-family="Helvetica,sans-Serif" font-size="10.00">String username</text>
<text text-anchor="start" x="243.75" y="-582.5" font-family="Helvetica,sans-Serif" font-size="10.00">&#45;</text>
<text text-anchor="start" x="252.25" y="-582.5" font-family="Helvetica,sans-Serif" font-size="10.00">static final String</text>
<text text-anchor="start" x="252.25" y="-570.5" font-family="Helvetica,sans-Serif" font-size="10.00"> KEYSTORE_FILE_PATH</text>
<text text-anchor="start" x="243.75" y="-554.5" font-family="Helvetica,sans-Serif" font-size="10.00">&#45;</text>
<text text-anchor="start" x="252.25" y="-554.5" font-family="Helvetica,sans-Serif" font-size="10.00">static final String</text>
<text text-anchor="start" x="252.25" y="-542.5" font-family="Helvetica,sans-Serif" font-size="10.00"> KEYSTORE_PASSWORD_FROM_UUID</text>
<text text-anchor="start" x="243.75" y="-526.5" font-family="Helvetica,sans-Serif" font-size="10.00">&#45;</text>
<text text-anchor="start" x="252.25" y="-526.5" font-family="Helvetica,sans-Serif" font-size="10.00">static final String</text>
<text text-anchor="start" x="252.25" y="-514.5" font-family="Helvetica,sans-Serif" font-size="10.00"> KEYSTORE_TYPE</text>
<text text-anchor="start" x="243.75" y="-498.5" font-family="Helvetica,sans-Serif" font-size="10.00">&#45;</text>
<text text-anchor="start" x="252.25" y="-498.5" font-family="Helvetica,sans-Serif" font-size="10.00">static final String</text>
<text text-anchor="start" x="252.25" y="-486.5" font-family="Helvetica,sans-Serif" font-size="10.00"> PASS_ALIAS</text>
<text text-anchor="start" x="243.75" y="-470.5" font-family="Helvetica,sans-Serif" font-size="10.00">&#45;</text>
<text text-anchor="start" x="252.25" y="-470.5" font-family="Helvetica,sans-Serif" font-size="10.00">static final char[]</text>
<text text-anchor="start" x="252.25" y="-458.5" font-family="Helvetica,sans-Serif" font-size="10.00"> pwdArray</text>
<text text-anchor="start" x="243.75" y="-442.5" font-family="Helvetica,sans-Serif" font-size="10.00">&#45;</text>
<text text-anchor="start" x="252.25" y="-442.5" font-family="Helvetica,sans-Serif" font-size="10.00">static final String</text>
<text text-anchor="start" x="252.25" y="-430.5" font-family="Helvetica,sans-Serif" font-size="10.00"> SYMMETRIC_KEY_ALIAS</text>
<text text-anchor="start" x="243.75" y="-414.5" font-family="Helvetica,sans-Serif" font-size="10.00">&#45;</text>
<text text-anchor="start" x="252.25" y="-414.5" font-family="Helvetica,sans-Serif" font-size="10.00">static final String</text>
<text text-anchor="start" x="252.25" y="-402.5" font-family="Helvetica,sans-Serif" font-size="10.00"> USERNAME_ALIAS</text>
<text text-anchor="start" x="242.25" y="-386.5" font-family="Helvetica,sans-Serif" font-size="10.00">+</text>
<text text-anchor="start" x="252.25" y="-386.5" font-family="Helvetica,sans-Serif" font-size="10.00">ApplicationKeystore</text>
<text text-anchor="start" x="252.25" y="-374.5" font-family="Helvetica,sans-Serif" font-size="10.00">(IOsFolderFactory iOsFolder</text>
<text text-anchor="start" x="252.25" y="-362.5" font-family="Helvetica,sans-Serif" font-size="10.00">Factory, GenerateSecret generate</text>
<text text-anchor="start" x="252.25" y="-350.5" font-family="Helvetica,sans-Serif" font-size="10.00">Secret)</text>
<text text-anchor="start" x="242.25" y="-334.5" font-family="Helvetica,sans-Serif" font-size="10.00">+</text>
<text text-anchor="start" x="252.25" y="-334.5" font-family="Helvetica,sans-Serif" font-size="10.00">String getPassword()</text>
<text text-anchor="start" x="242.25" y="-318.5" font-family="Helvetica,sans-Serif" font-size="10.00">+</text>
<text text-anchor="start" x="252.25" y="-318.5" font-family="Helvetica,sans-Serif" font-size="10.00">String getUsername()</text>
<text text-anchor="start" x="242.25" y="-302.5" font-family="Helvetica,sans-Serif" font-size="10.00">+</text>
<text text-anchor="start" x="252.25" y="-302.5" font-family="Helvetica,sans-Serif" font-size="10.00">void setupApplicationKeystore()</text>
<text text-anchor="start" x="242.25" y="-286.5" font-family="Helvetica,sans-Serif" font-size="10.00">~</text>
<text text-anchor="start" x="252.25" y="-286.5" font-family="Helvetica,sans-Serif" font-size="10.00">void setOsFolderFactoryFor</text>
<text text-anchor="start" x="252.25" y="-274.5" font-family="Helvetica,sans-Serif" font-size="10.00">Tests(IOsFolderFactory</text>
<text text-anchor="start" x="252.25" y="-262.5" font-family="Helvetica,sans-Serif" font-size="10.00"> osFolderFactoryP)</text>
<text text-anchor="start" x="243.75" y="-246.5" font-family="Helvetica,sans-Serif" font-size="10.00">&#45;</text>
<text text-anchor="start" x="252.25" y="-246.5" font-family="Helvetica,sans-Serif" font-size="10.00">void addToKeystore</text>
<text text-anchor="start" x="252.25" y="-234.5" font-family="Helvetica,sans-Serif" font-size="10.00">(final String alias,</text>
<text text-anchor="start" x="252.25" y="-222.5" font-family="Helvetica,sans-Serif" font-size="10.00"> final SecretKey secretKey)</text>
<text text-anchor="start" x="243.75" y="-206.5" font-family="Helvetica,sans-Serif" font-size="10.00">&#45;</text>
<text text-anchor="start" x="252.25" y="-206.5" font-family="Helvetica,sans-Serif" font-size="10.00">void createOrUpdateKeystore()</text>
<text text-anchor="start" x="243.75" y="-190.5" font-family="Helvetica,sans-Serif" font-size="10.00">&#45;</text>
<text text-anchor="start" x="252.25" y="-190.5" font-family="Helvetica,sans-Serif" font-size="10.00">void credentials(final</text>
<text text-anchor="start" x="252.25" y="-178.5" font-family="Helvetica,sans-Serif" font-size="10.00"> String alias)</text>
<text text-anchor="start" x="243.75" y="-162.5" font-family="Helvetica,sans-Serif" font-size="10.00">&#45;</text>
<text text-anchor="start" x="252.25" y="-162.5" font-family="Helvetica,sans-Serif" font-size="10.00">void getCredentials</text>
<text text-anchor="start" x="252.25" y="-150.5" font-family="Helvetica,sans-Serif" font-size="10.00">(final String alias)</text>
<text text-anchor="start" x="243.75" y="-134.5" font-family="Helvetica,sans-Serif" font-size="10.00">&#45;</text>
<text text-anchor="start" x="252.25" y="-134.5" font-family="Helvetica,sans-Serif" font-size="10.00">void loadKeyStore()</text>
<text text-anchor="start" x="243.75" y="-118.5" font-family="Helvetica,sans-Serif" font-size="10.00">&#45;</text>
<text text-anchor="start" x="252.25" y="-118.5" font-family="Helvetica,sans-Serif" font-size="10.00">void setCredentials</text>
<text text-anchor="start" x="252.25" y="-106.5" font-family="Helvetica,sans-Serif" font-size="10.00">(final String alias)</text>
<text text-anchor="start" x="243.75" y="-90.5" font-family="Helvetica,sans-Serif" font-size="10.00">&#45;</text>
<text text-anchor="start" x="252.25" y="-90.5" font-family="Helvetica,sans-Serif" font-size="10.00">void symmetricKey()</text>
<text text-anchor="start" x="243.75" y="-74.5" font-family="Helvetica,sans-Serif" font-size="10.00">&#45;</text>
<text text-anchor="start" x="252.25" y="-74.5" font-family="Helvetica,sans-Serif" font-size="10.00">void symmetricKeyIsInKeystore()</text>
<text text-anchor="start" x="243.75" y="-58.5" font-family="Helvetica,sans-Serif" font-size="10.00">&#45;</text>
<text text-anchor="start" x="252.25" y="-58.5" font-family="Helvetica,sans-Serif" font-size="10.00">void symmetricKeyNotInKeystore()</text>
<text text-anchor="start" x="243.75" y="-42.5" font-family="Helvetica,sans-Serif" font-size="10.00">&#45;</text>
<text text-anchor="start" x="252.25" y="-42.5" font-family="Helvetica,sans-Serif" font-size="10.00">static void writeTheKeystore</text>
<text text-anchor="start" x="252.25" y="-30.5" font-family="Helvetica,sans-Serif" font-size="10.00">(final KeyStore ks, final</text>
<text text-anchor="start" x="252.25" y="-18.5" font-family="Helvetica,sans-Serif" font-size="10.00"> String keystoreFileName,</text>
<text text-anchor="start" x="252.25" y="-6.5" font-family="Helvetica,sans-Serif" font-size="10.00"> final char[] pwdArray)</text>
<polygon fill="#666666" stroke="#666666" points="238.25,-658 238.25,-658 443,-658 443,-658 238.25,-658"/>
<polygon fill="#666666" stroke="#666666" points="238.25,-398 238.25,-398 250.25,-398 250.25,-398 238.25,-398"/>
<polygon fill="#666666" stroke="#666666" points="250.25,-398 250.25,-398 443,-398 443,-398 250.25,-398"/>
<polygon fill="none" stroke="#666666" points="238.25,0 238.25,-688 443,-688 443,0 238.25,0"/>
</a>
</g>
</g>
<!-- Node2 -->
<g id="Node000002" class="node">
<title>Node2</title>
<g id="a_Node000002"><a xlink:href="interfacefr_1_1softsf_1_1sudokufx_1_1interfaces_1_1_i_keystore.html" target="_top" xlink:title="Interface defining methods to get the database username and his password.">
<polygon fill="white" stroke="none" points="133.25,-828 0,-828 0,-748 133.25,-748 133.25,-828"/>
<text text-anchor="start" x="4" y="-814.5" font-family="Helvetica,sans-Serif" font-size="10.00">fr.softsf.sudokufx.interfaces.</text>
<text text-anchor="start" x="45.62" y="-802.5" font-family="Helvetica,sans-Serif" font-size="10.00">IKeystore</text>
<text text-anchor="start" x="65.12" y="-786.5" font-family="Helvetica,sans-Serif" font-size="10.00"> </text>
<text text-anchor="start" x="9.56" y="-770.5" font-family="Helvetica,sans-Serif" font-size="10.00">+</text>
<text text-anchor="start" x="25.12" y="-770.5" font-family="Helvetica,sans-Serif" font-size="10.00">String getPassword()</text>
<text text-anchor="start" x="9.56" y="-754.5" font-family="Helvetica,sans-Serif" font-size="10.00">+</text>
<text text-anchor="start" x="25.12" y="-754.5" font-family="Helvetica,sans-Serif" font-size="10.00">String getUsername()</text>
<polygon fill="#666666" stroke="#666666" points="0,-798 0,-798 133.25,-798 133.25,-798 0,-798"/>
<polygon fill="#666666" stroke="#666666" points="0,-782 0,-782 133.25,-782 133.25,-782 0,-782"/>
<polygon fill="none" stroke="#666666" points="0,-748 0,-828 133.25,-828 133.25,-748 0,-748"/>
</a>
</g>
</g>
<!-- Node2&#45;&gt;Node1 -->
<g id="edge1_Node000001_Node000002" class="edge">
<title>Node2&#45;&gt;Node1</title>
<g id="a_edge1_Node000001_Node000002"><a xlink:title=" ">
<path fill="none" stroke="#63b8ff" d="M96.56,-738.71C130.54,-683.89 187.82,-591.49 238.35,-509.98"/>
<polygon fill="none" stroke="#63b8ff" points="93.79,-736.53 91.5,-746.88 99.74,-740.22 93.79,-736.53"/>
</a>
</g>
</g>
<!-- Node3 -->
<g id="Node000003" class="node">
<title>Node3</title>
<g id="a_Node000003"><a xlink:href="classfr_1_1softsf_1_1sudokufx_1_1utils_1_1database_1_1keystore_1_1_generate_secret.html" target="_top" xlink:title="Utility class for generating secure passwords using the Passay library.">
<polygon fill="white" stroke="none" points="343.5,-834 151.75,-834 151.75,-742 343.5,-742 343.5,-834"/>
<text text-anchor="start" x="155.75" y="-820.5" font-family="Helvetica,sans-Serif" font-size="10.00">fr.softsf.sudokufx.utils.database.keystore.</text>
<text text-anchor="start" x="213.5" y="-808.5" font-family="Helvetica,sans-Serif" font-size="10.00">GenerateSecret</text>
<text text-anchor="start" x="246.12" y="-792.5" font-family="Helvetica,sans-Serif" font-size="10.00"> </text>
<text text-anchor="start" x="165.81" y="-776.5" font-family="Helvetica,sans-Serif" font-size="10.00">+</text>
<text text-anchor="start" x="185.88" y="-776.5" font-family="Helvetica,sans-Serif" font-size="10.00">String generatePassaySecret()</text>
<text text-anchor="start" x="167.31" y="-760.5" font-family="Helvetica,sans-Serif" font-size="10.00">&#45;</text>
<text text-anchor="start" x="185.88" y="-760.5" font-family="Helvetica,sans-Serif" font-size="10.00">static CharacterData</text>
<text text-anchor="start" x="185.88" y="-748.5" font-family="Helvetica,sans-Serif" font-size="10.00"> createSpecialChars()</text>
<polygon fill="#666666" stroke="#666666" points="151.75,-804 151.75,-804 343.5,-804 343.5,-804 151.75,-804"/>
<polygon fill="#666666" stroke="#666666" points="151.75,-788 151.75,-788 343.5,-788 343.5,-788 151.75,-788"/>
<polygon fill="none" stroke="#666666" points="151.75,-742 151.75,-834 343.5,-834 343.5,-742 151.75,-742"/>
</a>
</g>
</g>
<!-- Node3&#45;&gt;Node1 -->
<g id="edge2_Node000001_Node000003" class="edge">
<title>Node3&#45;&gt;Node1</title>
<g id="a_edge2_Node000001_Node000003"><a xlink:title=" ">
<path fill="none" stroke="#63b8ff" d="M257.05,-742.19C259.63,-729.94 262.64,-715.65 265.95,-699.91"/>
<polygon fill="none" stroke="#63b8ff" points="265.88,-700.22 263.21,-693.53 268.35,-688.48 271.03,-695.17 265.88,-700.22"/>
</a>
</g>
<text text-anchor="middle" x="299.22" y="-708.5" font-family="Helvetica,sans-Serif" font-size="10.00" fill="grey"> &#45;generateSecret</text>
</g>
<!-- Node4 -->
<g id="Node000004" class="node">
<title>Node4</title>
<g id="a_Node000004"><a xlink:href="interfacefr_1_1softsf_1_1sudokufx_1_1interfaces_1_1_i_os_folder_factory.html" target="_top" xlink:title="Interface defining methods for accessing OS&#45;specific folder paths.">
<polygon fill="white" stroke="none" points="508.12,-828 361.12,-828 361.12,-748 508.12,-748 508.12,-828"/>
<text text-anchor="start" x="372" y="-814.5" font-family="Helvetica,sans-Serif" font-size="10.00">fr.softsf.sudokufx.interfaces.</text>
<text text-anchor="start" x="396.75" y="-802.5" font-family="Helvetica,sans-Serif" font-size="10.00">IOsFolderFactory</text>
<text text-anchor="start" x="433.12" y="-786.5" font-family="Helvetica,sans-Serif" font-size="10.00"> </text>
<text text-anchor="start" x="365.12" y="-770.5" font-family="Helvetica,sans-Serif" font-size="10.00">+</text>
<text text-anchor="start" x="375.12" y="-770.5" font-family="Helvetica,sans-Serif" font-size="10.00">String getOsDataFolderPath()</text>
<text text-anchor="start" x="365.12" y="-754.5" font-family="Helvetica,sans-Serif" font-size="10.00">+</text>
<text text-anchor="start" x="375.12" y="-754.5" font-family="Helvetica,sans-Serif" font-size="10.00">String getOsLogsFolderPath()</text>
<polygon fill="#666666" stroke="#666666" points="361.12,-798 361.12,-798 508.12,-798 508.12,-798 361.12,-798"/>
<polygon fill="#666666" stroke="#666666" points="361.12,-782 361.12,-782 508.12,-782 508.12,-782 361.12,-782"/>
<polygon fill="none" stroke="#666666" points="361.12,-748 361.12,-828 508.12,-828 508.12,-748 361.12,-748"/>
</a>
</g>
</g>
<!-- Node4&#45;&gt;Node1 -->
<g id="edge3_Node000001_Node000004" class="edge">
<title>Node4&#45;&gt;Node1</title>
<g id="a_edge3_Node000001_Node000004"><a xlink:title=" ">
<path fill="none" stroke="#63b8ff" d="M426.37,-748.16C423.53,-734.83 420.09,-718.64 416.23,-700.5"/>
<polygon fill="none" stroke="#63b8ff" points="416.25,-700.59 411.09,-695.56 413.75,-688.86 418.91,-693.89 416.25,-700.59"/>
</a>
</g>
<text text-anchor="middle" x="459.37" y="-708.5" font-family="Helvetica,sans-Serif" font-size="10.00" fill="grey"> &#45;iOsFolderFactory</text>
</g>
<!-- Node5 -->
<g id="Node000005" class="node">
<title>Node5</title>
<g id="a_Node000005"><a xlink:href="interfacefr_1_1softsf_1_1sudokufx_1_1interfaces_1_1_i_encryption_service.html" target="_top" xlink:title="Interface defining methods for encrypt and decrypt using AES&#45;GCM (Galois/Counter Mode) encryption.">
<polygon fill="white" stroke="none" points="659.25,-840 526,-840 526,-736 659.25,-736 659.25,-840"/>
<text text-anchor="start" x="530" y="-826.5" font-family="Helvetica,sans-Serif" font-size="10.00">fr.softsf.sudokufx.interfaces.</text>
<text text-anchor="start" x="551.38" y="-814.5" font-family="Helvetica,sans-Serif" font-size="10.00">IEncryptionService</text>
<text text-anchor="start" x="591.12" y="-798.5" font-family="Helvetica,sans-Serif" font-size="10.00"> </text>
<text text-anchor="start" x="536.5" y="-782.5" font-family="Helvetica,sans-Serif" font-size="10.00">+</text>
<text text-anchor="start" x="553" y="-782.5" font-family="Helvetica,sans-Serif" font-size="10.00">String decrypt(String</text>
<text text-anchor="start" x="553" y="-770.5" font-family="Helvetica,sans-Serif" font-size="10.00"> cypher)</text>
<text text-anchor="start" x="536.5" y="-754.5" font-family="Helvetica,sans-Serif" font-size="10.00">+</text>
<text text-anchor="start" x="553" y="-754.5" font-family="Helvetica,sans-Serif" font-size="10.00">String encrypt(String</text>
<text text-anchor="start" x="553" y="-742.5" font-family="Helvetica,sans-Serif" font-size="10.00"> original)</text>
<polygon fill="#666666" stroke="#666666" points="526,-810 526,-810 659.25,-810 659.25,-810 526,-810"/>
<polygon fill="#666666" stroke="#666666" points="526,-794 526,-794 659.25,-794 659.25,-794 526,-794"/>
<polygon fill="none" stroke="#666666" points="526,-736 526,-840 659.25,-840 659.25,-736 526,-736"/>
</a>
</g>
</g>
<!-- Node5&#45;&gt;Node1 -->
<g id="edge4_Node000001_Node000005" class="edge">
<title>Node5&#45;&gt;Node1</title>
<g id="a_edge4_Node000001_Node000005"><a xlink:title=" ">
<path fill="none" stroke="#63b8ff" d="M563.72,-736.3C535.62,-687.01 491.18,-609.06 449.33,-535.66"/>
<polygon fill="none" stroke="#63b8ff" points="449.29,-535.6 442.85,-532.37 443.35,-525.18 449.8,-528.41 449.29,-535.6"/>
</a>
</g>
<text text-anchor="middle" x="594.25" y="-708.5" font-family="Helvetica,sans-Serif" font-size="10.00" fill="grey"> &#45;iEncryptionService</text>
</g>
</g>
</svg>

<g id="navigator" transform="translate(0 0)" fill="#404254">
  <rect fill="#f2f5e9" fill-opacity="0.5" stroke="#606060" stroke-width=".5" x="0" y="0" width="60" height="60"/>
  <use id="zoomplus" xlink:href="#zoomPlus" x="17" y="9" onmousedown="handleZoom(evt,'in')"/>
  <use id="zoomminus" xlink:href="#zoomMin" x="42" y="9" onmousedown="handleZoom(evt,'out')"/>
  <use id="reset" xlink:href="#resetDef" x="30" y="36" onmousedown="handleReset()"/>
   <use id="arrowup" xlink:href="#arrowUp" x="0" y="0" onmousedown="handlePan(0,-1)"/>
  <use id="arrowright" xlink:href="#arrowRight" x="0" y="0" onmousedown="handlePan(1,0)"/>
  <use id="arrowdown" xlink:href="#arrowDown" x="0" y="0" onmousedown="handlePan(0,1)"/>
  <use id="arrowleft" xlink:href="#arrowLeft" x="0" y="0" onmousedown="handlePan(-1,0)"/>
</g>
<svg viewBox="0 0 15 15" width="100%" height="30px" preserveAspectRatio="xMaxYMin meet">
 <g id="arrow_out" transform="scale(0.3 0.3)">
  <a xlink:href="classfr_1_1softsf_1_1sudokufx_1_1utils_1_1database_1_1keystore_1_1_application_keystore__coll__graph_org.svg" target="_base">
   <rect id="button" ry="5" rx="5" y="6" x="6" height="38" width="38"
        fill="#f2f5e9" fill-opacity="0.5" stroke="#606060" stroke-width="1.0"/>
   <path id="arrow"
     d="M 11.500037,31.436501 C 11.940474,20.09759 22.043105,11.32322 32.158766,21.979434 L 37.068811,17.246167 C 37.068811,17.246167 37.088388,32 37.088388,32 L 22.160133,31.978069 C 22.160133,31.978069 26.997745,27.140456 26.997745,27.140456 C 18.528582,18.264221 13.291696,25.230495 11.500037,31.436501 z"
     style="fill:#404040;"/>
  </a>
 </g>
</svg>

<style type='text/css'>
<![CDATA[
[data-mouse-over-selected='false'] { opacity: 0.7; }
[data-mouse-over-selected='true']  { opacity: 1.0; }
]]>
</style>
<script type="application/ecmascript"><![CDATA[
document.addEventListener('DOMContentLoaded', (event) => {
  highlightEdges();
  highlightAdjacentNodes();
});
]]></script>
</svg>
