<?xml version="1.0" encoding="UTF-8" standalone="no"?>
<!DOCTYPE svg PUBLIC "-//W3C//DTD SVG 1.1//EN"
 "http://www.w3.org/Graphics/SVG/1.1/DTD/svg11.dtd">
<!-- Generated by graphviz version 12.2.0 (20241103.1931)
 -->
<!-- Title: fr.softsf.sudokufx.service.VersionService Pages: 1 -->
<svg width="180pt" height="540pt"
 viewBox="0.00 0.00 179.75 540.00" xmlns="http://www.w3.org/2000/svg" xmlns:xlink="http://www.w3.org/1999/xlink">
<g id="graph0" class="graph" transform="scale(1 1) rotate(0) translate(4 536)">
<title>fr.softsf.sudokufx.service.VersionService</title>
<!-- Node1 -->
<g id="Node000001" class="node">
<title>Node1</title>
<g id="a_Node000001"><a xlink:title="Service for managing version information from a GitHub repository.">
<polygon fill="#999999" stroke="none" points="171.75,-444 0,-444 0,0 171.75,0 171.75,-444"/>
<text text-anchor="start" x="28.88" y="-430.5" font-family="Helvetica,sans-Serif" font-size="10.00">fr.softsf.sudokufx.service.</text>
<text text-anchor="start" x="53.25" y="-418.5" font-family="Helvetica,sans-Serif" font-size="10.00">VersionService</text>
<text text-anchor="start" x="5.5" y="-402.5" font-family="Helvetica,sans-Serif" font-size="10.00">&#45;</text>
<text text-anchor="start" x="14" y="-402.5" font-family="Helvetica,sans-Serif" font-size="10.00">final String currentVersion</text>
<text text-anchor="start" x="5.5" y="-386.5" font-family="Helvetica,sans-Serif" font-size="10.00">&#45;</text>
<text text-anchor="start" x="14" y="-386.5" font-family="Helvetica,sans-Serif" font-size="10.00">final HttpClient httpClient</text>
<text text-anchor="start" x="5.5" y="-370.5" font-family="Helvetica,sans-Serif" font-size="10.00">&#45;</text>
<text text-anchor="start" x="14" y="-370.5" font-family="Helvetica,sans-Serif" font-size="10.00">final SimpleBooleanProperty</text>
<text text-anchor="start" x="14" y="-358.5" font-family="Helvetica,sans-Serif" font-size="10.00"> versionUpToDate</text>
<text text-anchor="start" x="5.5" y="-342.5" font-family="Helvetica,sans-Serif" font-size="10.00">&#45;</text>
<text text-anchor="start" x="14" y="-342.5" font-family="Helvetica,sans-Serif" font-size="10.00">static final String</text>
<text text-anchor="start" x="14" y="-330.5" font-family="Helvetica,sans-Serif" font-size="10.00"> GITHUB_API_URL</text>
<text text-anchor="start" x="5.5" y="-314.5" font-family="Helvetica,sans-Serif" font-size="10.00">&#45;</text>
<text text-anchor="start" x="14" y="-314.5" font-family="Helvetica,sans-Serif" font-size="10.00">static final String</text>
<text text-anchor="start" x="14" y="-302.5" font-family="Helvetica,sans-Serif" font-size="10.00"> GITHUB_API_URL_REPO_TAGS</text>
<text text-anchor="start" x="5.5" y="-286.5" font-family="Helvetica,sans-Serif" font-size="10.00">&#45;</text>
<text text-anchor="start" x="14" y="-286.5" font-family="Helvetica,sans-Serif" font-size="10.00">static final String</text>
<text text-anchor="start" x="14" y="-274.5" font-family="Helvetica,sans-Serif" font-size="10.00"> GITHUB_URL</text>
<text text-anchor="start" x="5.5" y="-258.5" font-family="Helvetica,sans-Serif" font-size="10.00">&#45;</text>
<text text-anchor="start" x="14" y="-258.5" font-family="Helvetica,sans-Serif" font-size="10.00">static final ObjectMapper</text>
<text text-anchor="start" x="14" y="-246.5" font-family="Helvetica,sans-Serif" font-size="10.00"> OBJECT_MAPPER</text>
<text text-anchor="start" x="5.5" y="-230.5" font-family="Helvetica,sans-Serif" font-size="10.00">&#45;</text>
<text text-anchor="start" x="14" y="-230.5" font-family="Helvetica,sans-Serif" font-size="10.00">static final String</text>
<text text-anchor="start" x="14" y="-218.5" font-family="Helvetica,sans-Serif" font-size="10.00"> OWNER</text>
<text text-anchor="start" x="5.5" y="-202.5" font-family="Helvetica,sans-Serif" font-size="10.00">&#45;</text>
<text text-anchor="start" x="14" y="-202.5" font-family="Helvetica,sans-Serif" font-size="10.00">static final String REPO</text>
<text text-anchor="start" x="4" y="-186.5" font-family="Helvetica,sans-Serif" font-size="10.00">+</text>
<text text-anchor="start" x="14" y="-186.5" font-family="Helvetica,sans-Serif" font-size="10.00">VersionService(HttpClient</text>
<text text-anchor="start" x="14" y="-174.5" font-family="Helvetica,sans-Serif" font-size="10.00"> httpClient)</text>
<text text-anchor="start" x="4" y="-158.5" font-family="Helvetica,sans-Serif" font-size="10.00">+</text>
<text text-anchor="start" x="14" y="-158.5" font-family="Helvetica,sans-Serif" font-size="10.00">CompletableFuture&lt;</text>
<text text-anchor="start" x="14" y="-146.5" font-family="Helvetica,sans-Serif" font-size="10.00"> Boolean &gt; checkLatestVersion()</text>
<text text-anchor="start" x="4" y="-130.5" font-family="Helvetica,sans-Serif" font-size="10.00">+</text>
<text text-anchor="start" x="14" y="-130.5" font-family="Helvetica,sans-Serif" font-size="10.00">String getGitHubLinkToRepository</text>
<text text-anchor="start" x="14" y="-118.5" font-family="Helvetica,sans-Serif" font-size="10.00">Releases()</text>
<text text-anchor="start" x="4" y="-102.5" font-family="Helvetica,sans-Serif" font-size="10.00">+</text>
<text text-anchor="start" x="14" y="-102.5" font-family="Helvetica,sans-Serif" font-size="10.00">ReadOnlyBooleanProperty</text>
<text text-anchor="start" x="14" y="-90.5" font-family="Helvetica,sans-Serif" font-size="10.00"> versionUpToDateProperty()</text>
<text text-anchor="start" x="4.38" y="-74.5" font-family="Helvetica,sans-Serif" font-size="10.00">#</text>
<text text-anchor="start" x="14" y="-74.5" font-family="Helvetica,sans-Serif" font-size="10.00">Task&lt; Boolean &gt; createTask()</text>
<text text-anchor="start" x="5.5" y="-58.5" font-family="Helvetica,sans-Serif" font-size="10.00">&#45;</text>
<text text-anchor="start" x="14" y="-58.5" font-family="Helvetica,sans-Serif" font-size="10.00">int compareVersions</text>
<text text-anchor="start" x="14" y="-46.5" font-family="Helvetica,sans-Serif" font-size="10.00">(final String version1,</text>
<text text-anchor="start" x="14" y="-34.5" font-family="Helvetica,sans-Serif" font-size="10.00"> final String version2)</text>
<text text-anchor="start" x="5.5" y="-18.5" font-family="Helvetica,sans-Serif" font-size="10.00">&#45;</text>
<text text-anchor="start" x="14" y="-18.5" font-family="Helvetica,sans-Serif" font-size="10.00">boolean parseResponse</text>
<text text-anchor="start" x="14" y="-6.5" font-family="Helvetica,sans-Serif" font-size="10.00">(String json)</text>
<polygon fill="#666666" stroke="#666666" points="0,-414 0,-414 171.75,-414 171.75,-414 0,-414"/>
<polygon fill="#666666" stroke="#666666" points="0,-198 0,-198 12,-198 12,-198 0,-198"/>
<polygon fill="#666666" stroke="#666666" points="12,-198 12,-198 171.75,-198 171.75,-198 12,-198"/>
<polygon fill="none" stroke="#666666" points="0,0 0,-444 171.75,-444 171.75,0 0,0"/>
</a>
</g>
</g>
<!-- Node2 -->
<g id="Node000002" class="node">
<title>Node2</title>
<g id="a_Node000002"><a xlink:title=" ">
<polygon fill="white" stroke="none" points="133,-532 38.75,-532 38.75,-480 133,-480 133,-532"/>
<text text-anchor="start" x="42.75" y="-518.5" font-family="Helvetica,sans-Serif" font-size="10.00">Service&lt; Boolean &gt;</text>
<text text-anchor="start" x="84.38" y="-502.5" font-family="Helvetica,sans-Serif" font-size="10.00"> </text>
<text text-anchor="start" x="84.38" y="-486.5" font-family="Helvetica,sans-Serif" font-size="10.00"> </text>
<polygon fill="#666666" stroke="#666666" points="38.75,-514 38.75,-514 133,-514 133,-514 38.75,-514"/>
<polygon fill="#666666" stroke="#666666" points="38.75,-498 38.75,-498 133,-498 133,-498 38.75,-498"/>
<polygon fill="none" stroke="#666666" points="38.75,-480 38.75,-532 133,-532 133,-480 38.75,-480"/>
</a>
</g>
</g>
<!-- Node2&#45;&gt;Node1 -->
<g id="edge1_Node000001_Node000002" class="edge">
<title>Node2&#45;&gt;Node1</title>
<g id="a_edge1_Node000001_Node000002"><a xlink:title=" ">
<path fill="none" stroke="#63b8ff" d="M85.88,-469.04C85.88,-461.48 85.88,-452.99 85.88,-443.83"/>
<polygon fill="none" stroke="#63b8ff" points="82.38,-468.95 85.88,-478.95 89.38,-468.95 82.38,-468.95"/>
</a>
</g>
</g>
</g>
</svg>
