<?xml version="1.0" encoding="UTF-8" standalone="no"?>
<!DOCTYPE svg PUBLIC "-//W3C//DTD SVG 1.1//EN"
 "http://www.w3.org/Graphics/SVG/1.1/DTD/svg11.dtd">
<!-- Generated by graphviz version 12.2.0 (20241103.1931)
 -->
<!-- Title: fr.softsf.sudokufx.configuration.database.keystore.ApplicationKeystore.credentials Pages: 1 -->
<svg width="1065pt" height="190pt"
 viewBox="0.00 0.00 1065.00 190.00" xmlns="http://www.w3.org/2000/svg" xmlns:xlink="http://www.w3.org/1999/xlink">
<g id="graph0" class="graph" transform="scale(1 1) rotate(0) translate(4 186)">
<title>fr.softsf.sudokufx.configuration.database.keystore.ApplicationKeystore.credentials</title>
<!-- Node1 -->
<g id="Node000001" class="node">
<title>Node1</title>
<g id="a_Node000001"><a xlink:title="Get or set credentials by alias.">
<polygon fill="#999999" stroke="#666666" points="237.25,-132 0,-132 0,-100 237.25,-100 237.25,-132"/>
<text text-anchor="start" x="8" y="-118.5" font-family="Helvetica,sans-Serif" font-size="10.00">fr.softsf.sudokufx.configuration.database.keystore.</text>
<text text-anchor="middle" x="118.62" y="-106.5" font-family="Helvetica,sans-Serif" font-size="10.00">ApplicationKeystore.credentials</text>
</a>
</g>
</g>
<!-- Node2 -->
<g id="Node000002" class="node">
<title>Node2</title>
<g id="a_Node000002"><a xlink:href="classfr_1_1softsf_1_1sudokufx_1_1configuration_1_1database_1_1keystore_1_1_application_keystore.html#a14357e40faada6caeec5b57436bbbf75" target="_top" xlink:title="Get credential by alias.">
<polygon fill="white" stroke="#666666" points="510.5,-169 273.25,-169 273.25,-137 510.5,-137 510.5,-169"/>
<text text-anchor="start" x="281.25" y="-155.5" font-family="Helvetica,sans-Serif" font-size="10.00">fr.softsf.sudokufx.configuration.database.keystore.</text>
<text text-anchor="middle" x="391.88" y="-143.5" font-family="Helvetica,sans-Serif" font-size="10.00">ApplicationKeystore.getCredentials</text>
</a>
</g>
</g>
<!-- Node1&#45;&gt;Node2 -->
<g id="edge1_Node000001_Node000002" class="edge">
<title>Node1&#45;&gt;Node2</title>
<g id="a_edge1_Node000001_Node000002"><a xlink:title=" ">
<path fill="none" stroke="#63b8ff" d="M237.42,-132.07C245.38,-133.15 253.44,-134.25 261.46,-135.35"/>
<polygon fill="#63b8ff" stroke="#63b8ff" points="260.89,-138.8 271.27,-136.69 261.84,-131.87 260.89,-138.8"/>
</a>
</g>
</g>
<!-- Node4 -->
<g id="Node000004" class="node">
<title>Node4</title>
<g id="a_Node000004"><a xlink:href="classfr_1_1softsf_1_1sudokufx_1_1configuration_1_1database_1_1keystore_1_1_application_keystore.html#a0faaf98dccd755007c14e7f0d1308368" target="_top" xlink:title="Set credential by alias.">
<polygon fill="white" stroke="#666666" points="510.5,-107 273.25,-107 273.25,-75 510.5,-75 510.5,-107"/>
<text text-anchor="start" x="281.25" y="-93.5" font-family="Helvetica,sans-Serif" font-size="10.00">fr.softsf.sudokufx.configuration.database.keystore.</text>
<text text-anchor="middle" x="391.88" y="-81.5" font-family="Helvetica,sans-Serif" font-size="10.00">ApplicationKeystore.setCredentials</text>
</a>
</g>
</g>
<!-- Node1&#45;&gt;Node4 -->
<g id="edge3_Node000001_Node000004" class="edge">
<title>Node1&#45;&gt;Node4</title>
<g id="a_edge3_Node000001_Node000004"><a xlink:title=" ">
<path fill="none" stroke="#63b8ff" d="M237.42,-105.14C245.38,-104.41 253.44,-103.67 261.46,-102.93"/>
<polygon fill="#63b8ff" stroke="#63b8ff" points="261.63,-106.43 271.26,-102.02 260.99,-99.46 261.63,-106.43"/>
</a>
</g>
</g>
<!-- Node3 -->
<g id="Node000003" class="node">
<title>Node3</title>
<g id="a_Node000003"><a xlink:href="interfacefr_1_1softsf_1_1sudokufx_1_1interfaces_1_1_i_encryption_service.html#a605da446a6ec28faa7c6e1d26a4cb2ca" target="_top" xlink:title="Decrypts the given cipher text using AES&#45;GCM decryption.">
<polygon fill="white" stroke="#666666" points="735.75,-182 594.5,-182 594.5,-150 735.75,-150 735.75,-182"/>
<text text-anchor="start" x="602.5" y="-168.5" font-family="Helvetica,sans-Serif" font-size="10.00">fr.softsf.sudokufx.interfaces.</text>
<text text-anchor="middle" x="665.12" y="-156.5" font-family="Helvetica,sans-Serif" font-size="10.00">IEncryptionService.decrypt</text>
</a>
</g>
</g>
<!-- Node2&#45;&gt;Node3 -->
<g id="edge2_Node000002_Node000003" class="edge">
<title>Node2&#45;&gt;Node3</title>
<g id="a_edge2_Node000002_Node000003"><a xlink:title=" ">
<path fill="none" stroke="#63b8ff" d="M510.67,-158.65C535.01,-159.81 560.12,-161.02 582.81,-162.1"/>
<polygon fill="#63b8ff" stroke="#63b8ff" points="582.42,-165.59 592.58,-162.57 582.76,-158.6 582.42,-165.59"/>
</a>
</g>
</g>
<!-- Node5 -->
<g id="Node000005" class="node">
<title>Node5</title>
<g id="a_Node000005"><a xlink:href="classfr_1_1softsf_1_1sudokufx_1_1configuration_1_1database_1_1keystore_1_1_application_keystore.html#a008e893ed5b277beddf18364cb3e7717" target="_top" xlink:title="Add alias:secret in the Keystore.">
<polygon fill="white" stroke="#666666" points="783.75,-132 546.5,-132 546.5,-100 783.75,-100 783.75,-132"/>
<text text-anchor="start" x="554.5" y="-118.5" font-family="Helvetica,sans-Serif" font-size="10.00">fr.softsf.sudokufx.configuration.database.keystore.</text>
<text text-anchor="middle" x="665.12" y="-106.5" font-family="Helvetica,sans-Serif" font-size="10.00">ApplicationKeystore.addToKeystore</text>
</a>
</g>
</g>
<!-- Node4&#45;&gt;Node5 -->
<g id="edge4_Node000004_Node000005" class="edge">
<title>Node4&#45;&gt;Node5</title>
<g id="a_edge4_Node000004_Node000005"><a xlink:title=" ">
<path fill="none" stroke="#63b8ff" d="M510.67,-101.86C518.63,-102.59 526.69,-103.33 534.71,-104.07"/>
<polygon fill="#63b8ff" stroke="#63b8ff" points="534.24,-107.54 544.51,-104.98 534.88,-100.57 534.24,-107.54"/>
</a>
</g>
</g>
<!-- Node7 -->
<g id="Node000007" class="node">
<title>Node7</title>
<g id="a_Node000007"><a xlink:href="interfacefr_1_1softsf_1_1sudokufx_1_1interfaces_1_1_i_encryption_service.html#a7cd39caadae83b3502b56b96d349cfc5" target="_top" xlink:title="Encrypts the given string using AES&#45;GCM encryption.">
<polygon fill="white" stroke="#666666" points="735.75,-82 594.5,-82 594.5,-50 735.75,-50 735.75,-82"/>
<text text-anchor="start" x="602.5" y="-68.5" font-family="Helvetica,sans-Serif" font-size="10.00">fr.softsf.sudokufx.interfaces.</text>
<text text-anchor="middle" x="665.12" y="-56.5" font-family="Helvetica,sans-Serif" font-size="10.00">IEncryptionService.encrypt</text>
</a>
</g>
</g>
<!-- Node4&#45;&gt;Node7 -->
<g id="edge6_Node000004_Node000007" class="edge">
<title>Node4&#45;&gt;Node7</title>
<g id="a_edge6_Node000004_Node000007"><a xlink:title=" ">
<path fill="none" stroke="#63b8ff" d="M510.67,-80.14C535.01,-77.9 560.12,-75.59 582.81,-73.49"/>
<polygon fill="#63b8ff" stroke="#63b8ff" points="582.95,-77 592.58,-72.59 582.31,-70.03 582.95,-77"/>
</a>
</g>
</g>
<!-- Node8 -->
<g id="Node000008" class="node">
<title>Node8</title>
<g id="a_Node000008"><a xlink:href="classfr_1_1softsf_1_1sudokufx_1_1configuration_1_1database_1_1keystore_1_1_generate_secret.html#a5fda282a789c0e8f06fb31e21b1bc799" target="_top" xlink:title="Generate Passay secret.">
<polygon fill="white" stroke="#666666" points="783.75,-32 546.5,-32 546.5,0 783.75,0 783.75,-32"/>
<text text-anchor="start" x="554.5" y="-18.5" font-family="Helvetica,sans-Serif" font-size="10.00">fr.softsf.sudokufx.configuration.database.keystore.</text>
<text text-anchor="middle" x="665.12" y="-6.5" font-family="Helvetica,sans-Serif" font-size="10.00">GenerateSecret.generatePassaySecret</text>
</a>
</g>
</g>
<!-- Node4&#45;&gt;Node8 -->
<g id="edge7_Node000004_Node000008" class="edge">
<title>Node4&#45;&gt;Node8</title>
<g id="a_edge7_Node000004_Node000008"><a xlink:title=" ">
<path fill="none" stroke="#63b8ff" d="M439.22,-74.51C469.51,-64.08 510.06,-50.77 546.5,-41 554.19,-38.94 562.21,-36.93 570.27,-35.02"/>
<polygon fill="#63b8ff" stroke="#63b8ff" points="570.86,-38.47 579.81,-32.8 569.28,-31.66 570.86,-38.47"/>
</a>
</g>
</g>
<!-- Node6 -->
<g id="Node000006" class="node">
<title>Node6</title>
<g id="a_Node000006"><a xlink:href="classfr_1_1softsf_1_1sudokufx_1_1configuration_1_1database_1_1keystore_1_1_application_keystore.html#a5b59f7e68f287d239665b10bc0fc1f54" target="_top" xlink:title="Write data to the keystore file.">
<polygon fill="white" stroke="#666666" points="1057,-132 819.75,-132 819.75,-100 1057,-100 1057,-132"/>
<text text-anchor="start" x="827.75" y="-118.5" font-family="Helvetica,sans-Serif" font-size="10.00">fr.softsf.sudokufx.configuration.database.keystore.</text>
<text text-anchor="middle" x="938.38" y="-106.5" font-family="Helvetica,sans-Serif" font-size="10.00">ApplicationKeystore.writeTheKeystore</text>
</a>
</g>
</g>
<!-- Node5&#45;&gt;Node6 -->
<g id="edge5_Node000005_Node000006" class="edge">
<title>Node5&#45;&gt;Node6</title>
<g id="a_edge5_Node000005_Node000006"><a xlink:title=" ">
<path fill="none" stroke="#63b8ff" d="M783.92,-116C791.88,-116 799.94,-116 807.96,-116"/>
<polygon fill="#63b8ff" stroke="#63b8ff" points="807.76,-119.5 817.76,-116 807.76,-112.5 807.76,-119.5"/>
</a>
</g>
</g>
<!-- Node9 -->
<g id="Node000009" class="node">
<title>Node9</title>
<g id="a_Node000009"><a xlink:href="classfr_1_1softsf_1_1sudokufx_1_1configuration_1_1database_1_1keystore_1_1_generate_secret.html#af34379a687b7397f2f71e5ac1580d5e7" target="_top" xlink:title="Define the secret special characters.">
<polygon fill="white" stroke="#666666" points="1057,-32 819.75,-32 819.75,0 1057,0 1057,-32"/>
<text text-anchor="start" x="827.75" y="-18.5" font-family="Helvetica,sans-Serif" font-size="10.00">fr.softsf.sudokufx.configuration.database.keystore.</text>
<text text-anchor="middle" x="938.38" y="-6.5" font-family="Helvetica,sans-Serif" font-size="10.00">GenerateSecret.createSpecialChars</text>
</a>
</g>
</g>
<!-- Node8&#45;&gt;Node9 -->
<g id="edge8_Node000008_Node000009" class="edge">
<title>Node8&#45;&gt;Node9</title>
<g id="a_edge8_Node000008_Node000009"><a xlink:title=" ">
<path fill="none" stroke="#63b8ff" d="M783.92,-16C791.88,-16 799.94,-16 807.96,-16"/>
<polygon fill="#63b8ff" stroke="#63b8ff" points="807.76,-19.5 817.76,-16 807.76,-12.5 807.76,-19.5"/>
</a>
</g>
</g>
</g>
</svg>
