<?xml version="1.0" encoding="UTF-8" standalone="no"?>
<!DOCTYPE svg PUBLIC "-//W3C//DTD SVG 1.1//EN"
 "http://www.w3.org/Graphics/SVG/1.1/DTD/svg11.dtd">
<!-- Generated by graphviz version 12.2.0 (20241103.1931)
 -->
<!-- Title: fr.softsf.sudokufx.utils.sudoku.GridMaster Pages: 1 -->
<svg width="324pt" height="1100pt"
 viewBox="0.00 0.00 323.70 1100.00" xmlns="http://www.w3.org/2000/svg" xmlns:xlink="http://www.w3.org/1999/xlink">
<g id="graph0" class="graph" transform="scale(1 1) rotate(0) translate(4 1096)">
<title>fr.softsf.sudokufx.utils.sudoku.GridMaster</title>
<!-- Node1 -->
<g id="Node000001" class="node">
<title>Node1</title>
<g id="a_Node000001"><a xlink:title="Provides essential functionalities for generating and solving Sudoku puzzles.">
<polygon fill="#999999" stroke="none" points="175.5,-824 0,-824 0,0 175.5,0 175.5,-824"/>
<text text-anchor="start" x="20.25" y="-810.5" font-family="Helvetica,sans-Serif" font-size="10.00">fr.softsf.sudokufx.utils.sudoku.</text>
<text text-anchor="start" x="63.75" y="-798.5" font-family="Helvetica,sans-Serif" font-size="10.00">GridMaster</text>
<text text-anchor="start" x="5.5" y="-782.5" font-family="Helvetica,sans-Serif" font-size="10.00">&#45;</text>
<text text-anchor="start" x="14" y="-782.5" font-family="Helvetica,sans-Serif" font-size="10.00">static final int DIFFICILE</text>
<text text-anchor="start" x="14" y="-770.5" font-family="Helvetica,sans-Serif" font-size="10.00">_MAX_CACHEES</text>
<text text-anchor="start" x="5.5" y="-754.5" font-family="Helvetica,sans-Serif" font-size="10.00">&#45;</text>
<text text-anchor="start" x="14" y="-754.5" font-family="Helvetica,sans-Serif" font-size="10.00">static final int DIMENSION</text>
<text text-anchor="start" x="5.5" y="-738.5" font-family="Helvetica,sans-Serif" font-size="10.00">&#45;</text>
<text text-anchor="start" x="14" y="-738.5" font-family="Helvetica,sans-Serif" font-size="10.00">static final int FACILE</text>
<text text-anchor="start" x="14" y="-726.5" font-family="Helvetica,sans-Serif" font-size="10.00">_MIN_CACHEES</text>
<text text-anchor="start" x="5.5" y="-710.5" font-family="Helvetica,sans-Serif" font-size="10.00">&#45;</text>
<text text-anchor="start" x="14" y="-710.5" font-family="Helvetica,sans-Serif" font-size="10.00">static final int MOYEN</text>
<text text-anchor="start" x="14" y="-698.5" font-family="Helvetica,sans-Serif" font-size="10.00">_MAX_CACHEES</text>
<text text-anchor="start" x="5.5" y="-682.5" font-family="Helvetica,sans-Serif" font-size="10.00">&#45;</text>
<text text-anchor="start" x="14" y="-682.5" font-family="Helvetica,sans-Serif" font-size="10.00">static final int MOYEN</text>
<text text-anchor="start" x="14" y="-670.5" font-family="Helvetica,sans-Serif" font-size="10.00">_MAX_DIFFICULTE</text>
<text text-anchor="start" x="5.5" y="-654.5" font-family="Helvetica,sans-Serif" font-size="10.00">&#45;</text>
<text text-anchor="start" x="14" y="-654.5" font-family="Helvetica,sans-Serif" font-size="10.00">static final int MOYEN</text>
<text text-anchor="start" x="14" y="-642.5" font-family="Helvetica,sans-Serif" font-size="10.00">_MIN_CACHEES</text>
<text text-anchor="start" x="5.5" y="-626.5" font-family="Helvetica,sans-Serif" font-size="10.00">&#45;</text>
<text text-anchor="start" x="14" y="-626.5" font-family="Helvetica,sans-Serif" font-size="10.00">static final int MOYEN</text>
<text text-anchor="start" x="14" y="-614.5" font-family="Helvetica,sans-Serif" font-size="10.00">_MIN_DIFFICULTE</text>
<text text-anchor="start" x="5.5" y="-598.5" font-family="Helvetica,sans-Serif" font-size="10.00">&#45;</text>
<text text-anchor="start" x="14" y="-598.5" font-family="Helvetica,sans-Serif" font-size="10.00">static final int NOMBRE</text>
<text text-anchor="start" x="14" y="-586.5" font-family="Helvetica,sans-Serif" font-size="10.00">_CASES</text>
<text text-anchor="start" x="5.5" y="-570.5" font-family="Helvetica,sans-Serif" font-size="10.00">&#45;</text>
<text text-anchor="start" x="14" y="-570.5" font-family="Helvetica,sans-Serif" font-size="10.00">static final int ORDRE</text>
<text text-anchor="start" x="4" y="-554.5" font-family="Helvetica,sans-Serif" font-size="10.00">+</text>
<text text-anchor="start" x="14" y="-554.5" font-family="Helvetica,sans-Serif" font-size="10.00">GridMaster(SecureRandom</text>
<text text-anchor="start" x="14" y="-542.5" font-family="Helvetica,sans-Serif" font-size="10.00">Generator secureRandomGenerator)</text>
<text text-anchor="start" x="4" y="-526.5" font-family="Helvetica,sans-Serif" font-size="10.00">+</text>
<text text-anchor="start" x="14" y="-526.5" font-family="Helvetica,sans-Serif" font-size="10.00">final int[][] creerLesGrilles</text>
<text text-anchor="start" x="14" y="-514.5" font-family="Helvetica,sans-Serif" font-size="10.00">(final int niveau)</text>
<text text-anchor="start" x="4" y="-498.5" font-family="Helvetica,sans-Serif" font-size="10.00">+</text>
<text text-anchor="start" x="14" y="-498.5" font-family="Helvetica,sans-Serif" font-size="10.00">final int resoudreLaGrille</text>
<text text-anchor="start" x="14" y="-486.5" font-family="Helvetica,sans-Serif" font-size="10.00">(final int[] grille)</text>
<text text-anchor="start" x="5.5" y="-470.5" font-family="Helvetica,sans-Serif" font-size="10.00">&#45;</text>
<text text-anchor="start" x="14" y="-470.5" font-family="Helvetica,sans-Serif" font-size="10.00">void cacherLesCases</text>
<text text-anchor="start" x="14" y="-458.5" font-family="Helvetica,sans-Serif" font-size="10.00">(int nombreDeCasesACacher,</text>
<text text-anchor="start" x="14" y="-446.5" font-family="Helvetica,sans-Serif" font-size="10.00"> final int[] grilleAResoudre)</text>
<text text-anchor="start" x="5.5" y="-430.5" font-family="Helvetica,sans-Serif" font-size="10.00">&#45;</text>
<text text-anchor="start" x="14" y="-430.5" font-family="Helvetica,sans-Serif" font-size="10.00">int choisirValeurAleatoire</text>
<text text-anchor="start" x="14" y="-418.5" font-family="Helvetica,sans-Serif" font-size="10.00">(final int possibilitesDeLaCase)</text>
<text text-anchor="start" x="5.5" y="-402.5" font-family="Helvetica,sans-Serif" font-size="10.00">&#45;</text>
<text text-anchor="start" x="14" y="-402.5" font-family="Helvetica,sans-Serif" font-size="10.00">int genererLaGrilleAResoudre</text>
<text text-anchor="start" x="14" y="-390.5" font-family="Helvetica,sans-Serif" font-size="10.00">(final int niveau, final</text>
<text text-anchor="start" x="14" y="-378.5" font-family="Helvetica,sans-Serif" font-size="10.00"> int[] grilleResolue, final</text>
<text text-anchor="start" x="14" y="-366.5" font-family="Helvetica,sans-Serif" font-size="10.00"> int[] grilleAResoudre)</text>
<text text-anchor="start" x="5.5" y="-350.5" font-family="Helvetica,sans-Serif" font-size="10.00">&#45;</text>
<text text-anchor="start" x="14" y="-350.5" font-family="Helvetica,sans-Serif" font-size="10.00">int nombreAleatoire</text>
<text text-anchor="start" x="14" y="-338.5" font-family="Helvetica,sans-Serif" font-size="10.00">(final int minInclus,</text>
<text text-anchor="start" x="14" y="-326.5" font-family="Helvetica,sans-Serif" font-size="10.00"> final int maxExclus)</text>
<text text-anchor="start" x="5.5" y="-310.5" font-family="Helvetica,sans-Serif" font-size="10.00">&#45;</text>
<text text-anchor="start" x="14" y="-310.5" font-family="Helvetica,sans-Serif" font-size="10.00">boolean remplirLaGrille</text>
<text text-anchor="start" x="14" y="-298.5" font-family="Helvetica,sans-Serif" font-size="10.00">(final int[] grille, final</text>
<text text-anchor="start" x="14" y="-286.5" font-family="Helvetica,sans-Serif" font-size="10.00"> int[] possibilites)</text>
<text text-anchor="start" x="5.5" y="-270.5" font-family="Helvetica,sans-Serif" font-size="10.00">&#45;</text>
<text text-anchor="start" x="14" y="-270.5" font-family="Helvetica,sans-Serif" font-size="10.00">static int compterBits</text>
<text text-anchor="start" x="14" y="-258.5" font-family="Helvetica,sans-Serif" font-size="10.00">(final int x)</text>
<text text-anchor="start" x="5.5" y="-242.5" font-family="Helvetica,sans-Serif" font-size="10.00">&#45;</text>
<text text-anchor="start" x="14" y="-242.5" font-family="Helvetica,sans-Serif" font-size="10.00">static void eliminerPossibilite</text>
<text text-anchor="start" x="14" y="-230.5" font-family="Helvetica,sans-Serif" font-size="10.00">(final int[] possibilites,</text>
<text text-anchor="start" x="14" y="-218.5" font-family="Helvetica,sans-Serif" font-size="10.00"> final int ligne, final int</text>
<text text-anchor="start" x="14" y="-206.5" font-family="Helvetica,sans-Serif" font-size="10.00"> colonne, final int valeur)</text>
<text text-anchor="start" x="5.5" y="-190.5" font-family="Helvetica,sans-Serif" font-size="10.00">&#45;</text>
<text text-anchor="start" x="14" y="-190.5" font-family="Helvetica,sans-Serif" font-size="10.00">static int[] getPossibilites</text>
<text text-anchor="start" x="14" y="-178.5" font-family="Helvetica,sans-Serif" font-size="10.00">(final int[] grille)</text>
<text text-anchor="start" x="5.5" y="-162.5" font-family="Helvetica,sans-Serif" font-size="10.00">&#45;</text>
<text text-anchor="start" x="14" y="-162.5" font-family="Helvetica,sans-Serif" font-size="10.00">static void initialiserPossibilites</text>
<text text-anchor="start" x="14" y="-150.5" font-family="Helvetica,sans-Serif" font-size="10.00">(final int[] grille, final int</text>
<text text-anchor="start" x="14" y="-138.5" font-family="Helvetica,sans-Serif" font-size="10.00">[] possibilites)</text>
<text text-anchor="start" x="5.5" y="-122.5" font-family="Helvetica,sans-Serif" font-size="10.00">&#45;</text>
<text text-anchor="start" x="14" y="-122.5" font-family="Helvetica,sans-Serif" font-size="10.00">static int laCaseVideAvec</text>
<text text-anchor="start" x="14" y="-110.5" font-family="Helvetica,sans-Serif" font-size="10.00">LeMoinsDePossibilites(final</text>
<text text-anchor="start" x="14" y="-98.5" font-family="Helvetica,sans-Serif" font-size="10.00"> int[] grille, final int[]</text>
<text text-anchor="start" x="14" y="-86.5" font-family="Helvetica,sans-Serif" font-size="10.00"> possibilites)</text>
<text text-anchor="start" x="5.5" y="-70.5" font-family="Helvetica,sans-Serif" font-size="10.00">&#45;</text>
<text text-anchor="start" x="14" y="-70.5" font-family="Helvetica,sans-Serif" font-size="10.00">static int sommeDesPossibilites</text>
<text text-anchor="start" x="14" y="-58.5" font-family="Helvetica,sans-Serif" font-size="10.00">DeLaGrille(final int[] possibilites)</text>
<text text-anchor="start" x="5.5" y="-42.5" font-family="Helvetica,sans-Serif" font-size="10.00">&#45;</text>
<text text-anchor="start" x="14" y="-42.5" font-family="Helvetica,sans-Serif" font-size="10.00">static int verifierLaCoherence</text>
<text text-anchor="start" x="14" y="-30.5" font-family="Helvetica,sans-Serif" font-size="10.00">EntreLaGrilleEtLesPossibilites</text>
<text text-anchor="start" x="14" y="-18.5" font-family="Helvetica,sans-Serif" font-size="10.00">(final int[] grille, final int</text>
<text text-anchor="start" x="14" y="-6.5" font-family="Helvetica,sans-Serif" font-size="10.00">[] possibilites)</text>
<polygon fill="#666666" stroke="#666666" points="0,-794 0,-794 175.5,-794 175.5,-794 0,-794"/>
<polygon fill="#666666" stroke="#666666" points="0,-566 0,-566 12,-566 12,-566 0,-566"/>
<polygon fill="#666666" stroke="#666666" points="12,-566 12,-566 175.5,-566 175.5,-566 12,-566"/>
<polygon fill="none" stroke="#666666" points="0,0 0,-824 175.5,-824 175.5,0 0,0"/>
</a>
</g>
</g>
<!-- Node2 -->
<g id="Node000002" class="node">
<title>Node2</title>
<g id="a_Node000002"><a xlink:href="interfacefr_1_1softsf_1_1sudokufx_1_1interfaces_1_1_i_grid_master.html" target="_top" xlink:title=" ">
<polygon fill="white" stroke="none" points="138.38,-984 5.12,-984 5.12,-880 138.38,-880 138.38,-984"/>
<text text-anchor="start" x="9.12" y="-970.5" font-family="Helvetica,sans-Serif" font-size="10.00">fr.softsf.sudokufx.interfaces.</text>
<text text-anchor="start" x="46.25" y="-958.5" font-family="Helvetica,sans-Serif" font-size="10.00">IGridMaster</text>
<text text-anchor="start" x="70.25" y="-942.5" font-family="Helvetica,sans-Serif" font-size="10.00"> </text>
<text text-anchor="start" x="15.25" y="-926.5" font-family="Helvetica,sans-Serif" font-size="10.00">+</text>
<text text-anchor="start" x="31.38" y="-926.5" font-family="Helvetica,sans-Serif" font-size="10.00">int[][] creerLesGrilles</text>
<text text-anchor="start" x="31.38" y="-914.5" font-family="Helvetica,sans-Serif" font-size="10.00">(final int niveau)</text>
<text text-anchor="start" x="15.25" y="-898.5" font-family="Helvetica,sans-Serif" font-size="10.00">+</text>
<text text-anchor="start" x="31.38" y="-898.5" font-family="Helvetica,sans-Serif" font-size="10.00">int resoudreLaGrille</text>
<text text-anchor="start" x="31.38" y="-886.5" font-family="Helvetica,sans-Serif" font-size="10.00">(final int[] grille)</text>
<polygon fill="#666666" stroke="#666666" points="5.12,-954 5.12,-954 138.38,-954 138.38,-954 5.12,-954"/>
<polygon fill="#666666" stroke="#666666" points="5.12,-938 5.12,-938 138.38,-938 138.38,-938 5.12,-938"/>
<polygon fill="none" stroke="#666666" points="5.12,-880 5.12,-984 138.38,-984 138.38,-880 5.12,-880"/>
</a>
</g>
</g>
<!-- Node2&#45;&gt;Node1 -->
<g id="edge1_Node000001_Node000002" class="edge">
<title>Node2&#45;&gt;Node1</title>
<g id="a_edge1_Node000001_Node000002"><a xlink:title=" ">
<path fill="none" stroke="#63b8ff" d="M73.66,-869.02C74.08,-855.56 74.55,-840.36 75.06,-823.9"/>
<polygon fill="none" stroke="#63b8ff" points="70.17,-868.77 73.36,-878.88 77.17,-868.99 70.17,-868.77"/>
</a>
</g>
</g>
<!-- Node3 -->
<g id="Node000003" class="node">
<title>Node3</title>
<g id="a_Node000003"><a xlink:href="classfr_1_1softsf_1_1sudokufx_1_1utils_1_1_secure_random_generator.html" target="_top" xlink:title="The SecureRandomGenerator class provides methods to generate random numbers securely using Java&#39;s Sec...">
<polygon fill="white" stroke="none" points="290.88,-992 156.62,-992 156.62,-872 290.88,-872 290.88,-992"/>
<text text-anchor="start" x="168.62" y="-978.5" font-family="Helvetica,sans-Serif" font-size="10.00">fr.softsf.sudokufx.utils.</text>
<text text-anchor="start" x="168.62" y="-966.5" font-family="Helvetica,sans-Serif" font-size="10.00">SecureRandomGenerator</text>
<text text-anchor="start" x="222.25" y="-950.5" font-family="Helvetica,sans-Serif" font-size="10.00"> </text>
<text text-anchor="start" x="160.62" y="-934.5" font-family="Helvetica,sans-Serif" font-size="10.00">+</text>
<text text-anchor="start" x="170.62" y="-934.5" font-family="Helvetica,sans-Serif" font-size="10.00">SecureRandomGenerator()</text>
<text text-anchor="start" x="160.62" y="-918.5" font-family="Helvetica,sans-Serif" font-size="10.00">+</text>
<text text-anchor="start" x="170.62" y="-918.5" font-family="Helvetica,sans-Serif" font-size="10.00">final int nextInt(int</text>
<text text-anchor="start" x="170.62" y="-906.5" font-family="Helvetica,sans-Serif" font-size="10.00"> bound)</text>
<text text-anchor="start" x="160.62" y="-890.5" font-family="Helvetica,sans-Serif" font-size="10.00">+</text>
<text text-anchor="start" x="170.62" y="-890.5" font-family="Helvetica,sans-Serif" font-size="10.00">final int nextInt(int</text>
<text text-anchor="start" x="170.62" y="-878.5" font-family="Helvetica,sans-Serif" font-size="10.00"> origin, int bound)</text>
<polygon fill="#666666" stroke="#666666" points="156.62,-962 156.62,-962 290.88,-962 290.88,-962 156.62,-962"/>
<polygon fill="#666666" stroke="#666666" points="156.62,-946 156.62,-946 290.88,-946 290.88,-946 156.62,-946"/>
<polygon fill="none" stroke="#666666" points="156.62,-872 156.62,-992 290.88,-992 290.88,-872 156.62,-872"/>
</a>
</g>
</g>
<!-- Node3&#45;&gt;Node1 -->
<g id="edge2_Node000001_Node000003" class="edge">
<title>Node3&#45;&gt;Node1</title>
<g id="a_edge2_Node000001_Node000003"><a xlink:title=" ">
<path fill="none" stroke="#63b8ff" d="M208.28,-872.08C200.38,-841.97 190.05,-802.63 178.76,-759.64"/>
<polygon fill="none" stroke="#63b8ff" points="178.75,-759.6 173.36,-754.81 175.7,-747.99 181.09,-752.78 178.75,-759.6"/>
</a>
</g>
<text text-anchor="middle" x="258.32" y="-844.5" font-family="Helvetica,sans-Serif" font-size="10.00" fill="grey"> &#45;secureRandomGenerator</text>
</g>
<!-- Node4 -->
<g id="Node000004" class="node">
<title>Node4</title>
<g id="a_Node000004"><a xlink:title=" ">
<polygon fill="white" stroke="none" points="261.5,-1092 186,-1092 186,-1040 261.5,-1040 261.5,-1092"/>
<text text-anchor="start" x="190" y="-1078.5" font-family="Helvetica,sans-Serif" font-size="10.00">SecureRandom</text>
<text text-anchor="start" x="222.25" y="-1062.5" font-family="Helvetica,sans-Serif" font-size="10.00"> </text>
<text text-anchor="start" x="222.25" y="-1046.5" font-family="Helvetica,sans-Serif" font-size="10.00"> </text>
<polygon fill="#666666" stroke="#666666" points="186,-1074 186,-1074 261.5,-1074 261.5,-1074 186,-1074"/>
<polygon fill="#666666" stroke="#666666" points="186,-1058 186,-1058 261.5,-1058 261.5,-1058 186,-1058"/>
<polygon fill="none" stroke="#666666" points="186,-1040 186,-1092 261.5,-1092 261.5,-1040 186,-1040"/>
</a>
</g>
</g>
<!-- Node4&#45;&gt;Node3 -->
<g id="edge3_Node000003_Node000004" class="edge">
<title>Node4&#45;&gt;Node3</title>
<g id="a_edge3_Node000003_Node000004"><a xlink:title=" ">
<path fill="none" stroke="#63b8ff" d="M223.75,-1040.17C223.75,-1029.92 223.75,-1017.47 223.75,-1004.72"/>
<polygon fill="none" stroke="#63b8ff" points="223.75,-1004.86 219.75,-998.86 223.75,-992.86 227.75,-998.86 223.75,-1004.86"/>
</a>
</g>
<text text-anchor="middle" x="259.75" y="-1012.5" font-family="Helvetica,sans-Serif" font-size="10.00" fill="grey"> &#45;secureRandom</text>
</g>
</g>
</svg>
