<?xml version="1.0" encoding="UTF-8" standalone="no"?>
<!DOCTYPE svg PUBLIC "-//W3C//DTD SVG 1.1//EN"
 "http://www.w3.org/Graphics/SVG/1.1/DTD/svg11.dtd">
<!-- Generated by graphviz version 12.2.0 (20241103.1931)
 -->
<!-- Title: fr.softsf.sudokufx.utils.database.configuration.DataSource.hikariDataSource Pages: 1 -->
<svg width="434pt" height="140pt"
 viewBox="0.00 0.00 433.75 140.00" xmlns="http://www.w3.org/2000/svg" xmlns:xlink="http://www.w3.org/1999/xlink">
<g id="graph0" class="graph" transform="scale(1 1) rotate(0) translate(4 136)">
<title>fr.softsf.sudokufx.utils.database.configuration.DataSource.hikariDataSource</title>
<!-- Node1 -->
<g id="Node000001" class="node">
<title>Node1</title>
<g id="a_Node000001"><a xlink:title="Creates and configures the main DataSource for the application.">
<polygon fill="#999999" stroke="#666666" points="217.75,-82 0,-82 0,-50 217.75,-50 217.75,-82"/>
<text text-anchor="start" x="8" y="-68.5" font-family="Helvetica,sans-Serif" font-size="10.00">fr.softsf.sudokufx.utils.database.configuration.</text>
<text text-anchor="middle" x="108.88" y="-56.5" font-family="Helvetica,sans-Serif" font-size="10.00">DataSource.hikariDataSource</text>
</a>
</g>
</g>
<!-- Node2 -->
<g id="Node000002" class="node">
<title>Node2</title>
<g id="a_Node000002"><a xlink:href="interfacefr_1_1softsf_1_1sudokufx_1_1interfaces_1_1_i_keystore.html#a5ec3c1f09b73ee031b270efd4ded0ce0" target="_top" xlink:title="Get database password.">
<polygon fill="white" stroke="#666666" points="410.38,-132 269.12,-132 269.12,-100 410.38,-100 410.38,-132"/>
<text text-anchor="start" x="277.12" y="-118.5" font-family="Helvetica,sans-Serif" font-size="10.00">fr.softsf.sudokufx.interfaces.</text>
<text text-anchor="middle" x="339.75" y="-106.5" font-family="Helvetica,sans-Serif" font-size="10.00">IKeystore.getPassword</text>
</a>
</g>
</g>
<!-- Node1&#45;&gt;Node2 -->
<g id="edge1_Node000001_Node000002" class="edge">
<title>Node1&#45;&gt;Node2</title>
<g id="a_edge1_Node000001_Node000002"><a xlink:title=" ">
<path fill="none" stroke="#63b8ff" d="M185.13,-82.44C208.42,-87.53 234.16,-93.15 257.81,-98.32"/>
<polygon fill="#63b8ff" stroke="#63b8ff" points="256.88,-101.7 267.39,-100.41 258.37,-94.86 256.88,-101.7"/>
</a>
</g>
</g>
<!-- Node3 -->
<g id="Node000003" class="node">
<title>Node3</title>
<g id="a_Node000003"><a xlink:href="interfacefr_1_1softsf_1_1sudokufx_1_1interfaces_1_1_i_keystore.html#a8b68edc0def5161907fbd2f55b0940f3" target="_top" xlink:title="Get database username.">
<polygon fill="white" stroke="#666666" points="410.38,-82 269.12,-82 269.12,-50 410.38,-50 410.38,-82"/>
<text text-anchor="start" x="277.12" y="-68.5" font-family="Helvetica,sans-Serif" font-size="10.00">fr.softsf.sudokufx.interfaces.</text>
<text text-anchor="middle" x="339.75" y="-56.5" font-family="Helvetica,sans-Serif" font-size="10.00">IKeystore.getUsername</text>
</a>
</g>
</g>
<!-- Node1&#45;&gt;Node3 -->
<g id="edge2_Node000001_Node000003" class="edge">
<title>Node1&#45;&gt;Node3</title>
<g id="a_edge2_Node000001_Node000003"><a xlink:title=" ">
<path fill="none" stroke="#63b8ff" d="M217.95,-66C231.15,-66 244.47,-66 257.19,-66"/>
<polygon fill="#63b8ff" stroke="#63b8ff" points="257.18,-69.5 267.18,-66 257.18,-62.5 257.18,-69.5"/>
</a>
</g>
</g>
<!-- Node4 -->
<g id="Node000004" class="node">
<title>Node4</title>
<g id="a_Node000004"><a xlink:href="interfacefr_1_1softsf_1_1sudokufx_1_1interfaces_1_1_i_keystore.html#a9b027a910af9934b7549202c4e44350e" target="_top" xlink:title="Set up the application keystore.">
<polygon fill="white" stroke="#666666" points="425.75,-32 253.75,-32 253.75,0 425.75,0 425.75,-32"/>
<text text-anchor="start" x="261.75" y="-18.5" font-family="Helvetica,sans-Serif" font-size="10.00">fr.softsf.sudokufx.interfaces.</text>
<text text-anchor="middle" x="339.75" y="-6.5" font-family="Helvetica,sans-Serif" font-size="10.00">IKeystore.setupApplicationKeystore</text>
</a>
</g>
</g>
<!-- Node1&#45;&gt;Node4 -->
<g id="edge3_Node000001_Node000004" class="edge">
<title>Node1&#45;&gt;Node4</title>
<g id="a_edge3_Node000001_Node000004"><a xlink:title=" ">
<path fill="none" stroke="#63b8ff" d="M185.13,-49.56C206.65,-44.86 230.26,-39.7 252.38,-34.87"/>
<polygon fill="#63b8ff" stroke="#63b8ff" points="252.94,-38.33 261.97,-32.77 251.45,-31.49 252.94,-38.33"/>
</a>
</g>
</g>
</g>
</svg>
