<?xml version="1.0" encoding="UTF-8" standalone="no"?>
<!DOCTYPE svg PUBLIC "-//W3C//DTD SVG 1.1//EN"
 "http://www.w3.org/Graphics/SVG/1.1/DTD/svg11.dtd">
<!-- Generated by graphviz version 12.2.1 (20241206.2353)
 -->
<!-- Title: fr.softsf.sudokufx.view.FullMenuView Pages: 1 -->
<svg width="853pt" height="1465pt"
 viewBox="0.00 0.00 852.88 1465.00" xmlns="http://www.w3.org/2000/svg" xmlns:xlink="http://www.w3.org/1999/xlink">
<g id="graph0" class="graph" transform="scale(1 1) rotate(0) translate(4 1461)">
<title>fr.softsf.sudokufx.view.FullMenuView</title>
<!-- Node1 -->
<g id="Node000001" class="node">
<title>Node1</title>
<g id="a_Node000001"><a xlink:title="View class for the full menu screen of the Sudoku application.">
<polygon fill="#999999" stroke="none" points="375.5,-356 227,-356 227,0 375.5,0 375.5,-356"/>
<text text-anchor="start" x="250.25" y="-342.5" font-family="Helvetica,sans-Serif" font-size="10.00">fr.softsf.sudokufx.view.</text>
<text text-anchor="start" x="270.5" y="-330.5" font-family="Helvetica,sans-Serif" font-size="10.00">FullMenuView</text>
<text text-anchor="start" x="232.5" y="-314.5" font-family="Helvetica,sans-Serif" font-size="10.00">&#45;</text>
<text text-anchor="start" x="241" y="-314.5" font-family="Helvetica,sans-Serif" font-size="10.00">Button buttonHello</text>
<text text-anchor="start" x="232.5" y="-298.5" font-family="Helvetica,sans-Serif" font-size="10.00">&#45;</text>
<text text-anchor="start" x="241" y="-298.5" font-family="Helvetica,sans-Serif" font-size="10.00">Label githubVersion</text>
<text text-anchor="start" x="232.5" y="-282.5" font-family="Helvetica,sans-Serif" font-size="10.00">&#45;</text>
<text text-anchor="start" x="241" y="-282.5" font-family="Helvetica,sans-Serif" font-size="10.00">final Stage primaryStage</text>
<text text-anchor="start" x="232.5" y="-266.5" font-family="Helvetica,sans-Serif" font-size="10.00">&#45;</text>
<text text-anchor="start" x="241" y="-266.5" font-family="Helvetica,sans-Serif" font-size="10.00">final Text text1</text>
<text text-anchor="start" x="232.5" y="-250.5" font-family="Helvetica,sans-Serif" font-size="10.00">&#45;</text>
<text text-anchor="start" x="241" y="-250.5" font-family="Helvetica,sans-Serif" font-size="10.00">Text text2</text>
<text text-anchor="start" x="232.5" y="-234.5" font-family="Helvetica,sans-Serif" font-size="10.00">&#45;</text>
<text text-anchor="start" x="241" y="-234.5" font-family="Helvetica,sans-Serif" font-size="10.00">Label version</text>
<text text-anchor="start" x="232.5" y="-218.5" font-family="Helvetica,sans-Serif" font-size="10.00">&#45;</text>
<text text-anchor="start" x="241" y="-218.5" font-family="Helvetica,sans-Serif" font-size="10.00">Label welcomeText</text>
<text text-anchor="start" x="232.5" y="-202.5" font-family="Helvetica,sans-Serif" font-size="10.00">&#45;</text>
<text text-anchor="start" x="241" y="-202.5" font-family="Helvetica,sans-Serif" font-size="10.00">static final double</text>
<text text-anchor="start" x="241" y="-190.5" font-family="Helvetica,sans-Serif" font-size="10.00"> FADE_IN_IN_SECONDS</text>
<text text-anchor="start" x="241" y="-178.5" font-family="Helvetica,sans-Serif" font-size="10.00">_AFTER_SPLASHSCREEN</text>
<text text-anchor="start" x="231" y="-162.5" font-family="Helvetica,sans-Serif" font-size="10.00">+</text>
<text text-anchor="start" x="241" y="-162.5" font-family="Helvetica,sans-Serif" font-size="10.00">void openingMainStage</text>
<text text-anchor="start" x="241" y="-150.5" font-family="Helvetica,sans-Serif" font-size="10.00">(final ISplashScreenView</text>
<text text-anchor="start" x="241" y="-138.5" font-family="Helvetica,sans-Serif" font-size="10.00"> iSplashScreenView)</text>
<text text-anchor="start" x="232.5" y="-122.5" font-family="Helvetica,sans-Serif" font-size="10.00">&#45;</text>
<text text-anchor="start" x="241" y="-122.5" font-family="Helvetica,sans-Serif" font-size="10.00">void initialize()</text>
<text text-anchor="start" x="232.5" y="-106.5" font-family="Helvetica,sans-Serif" font-size="10.00">&#45;</text>
<text text-anchor="start" x="241" y="-106.5" font-family="Helvetica,sans-Serif" font-size="10.00">void onHelloButtonClick</text>
<text text-anchor="start" x="241" y="-94.5" font-family="Helvetica,sans-Serif" font-size="10.00">(ActionEvent event)</text>
<text text-anchor="start" x="232.5" y="-78.5" font-family="Helvetica,sans-Serif" font-size="10.00">&#45;</text>
<text text-anchor="start" x="241" y="-78.5" font-family="Helvetica,sans-Serif" font-size="10.00">void openingConfigureStage()</text>
<text text-anchor="start" x="232.5" y="-62.5" font-family="Helvetica,sans-Serif" font-size="10.00">&#45;</text>
<text text-anchor="start" x="241" y="-62.5" font-family="Helvetica,sans-Serif" font-size="10.00">void openingFadeIn</text>
<text text-anchor="start" x="241" y="-50.5" font-family="Helvetica,sans-Serif" font-size="10.00">(final Node node)</text>
<text text-anchor="start" x="232.5" y="-34.5" font-family="Helvetica,sans-Serif" font-size="10.00">&#45;</text>
<text text-anchor="start" x="241" y="-34.5" font-family="Helvetica,sans-Serif" font-size="10.00">void openingMaximizePrimary</text>
<text text-anchor="start" x="241" y="-22.5" font-family="Helvetica,sans-Serif" font-size="10.00">Stage()</text>
<text text-anchor="start" x="232.5" y="-6.5" font-family="Helvetica,sans-Serif" font-size="10.00">&#45;</text>
<text text-anchor="start" x="241" y="-6.5" font-family="Helvetica,sans-Serif" font-size="10.00">void openingShowStage()</text>
<polygon fill="#666666" stroke="#666666" points="227,-326 227,-326 375.5,-326 375.5,-326 227,-326"/>
<polygon fill="#666666" stroke="#666666" points="227,-174 227,-174 239,-174 239,-174 227,-174"/>
<polygon fill="#666666" stroke="#666666" points="239,-174 239,-174 375.5,-174 375.5,-174 239,-174"/>
<polygon fill="none" stroke="#666666" points="227,0 227,-356 375.5,-356 375.5,0 227,0"/>
</a>
</g>
</g>
<!-- Node2 -->
<g id="Node000002" class="node">
<title>Node2</title>
<g id="a_Node000002"><a xlink:href="interfacefr_1_1softsf_1_1sudokufx_1_1interfaces_1_1_i_main_stage_view.html" target="_top" xlink:title="Interface defining method to open the main stage.">
<polygon fill="white" stroke="none" points="172.5,-678 0,-678 0,-590 172.5,-590 172.5,-678"/>
<text text-anchor="start" x="23.62" y="-664.5" font-family="Helvetica,sans-Serif" font-size="10.00">fr.softsf.sudokufx.interfaces.</text>
<text text-anchor="start" x="50.62" y="-652.5" font-family="Helvetica,sans-Serif" font-size="10.00">IMainStageView</text>
<text text-anchor="start" x="84.75" y="-636.5" font-family="Helvetica,sans-Serif" font-size="10.00"> </text>
<text text-anchor="start" x="4" y="-620.5" font-family="Helvetica,sans-Serif" font-size="10.00">+</text>
<text text-anchor="start" x="14" y="-620.5" font-family="Helvetica,sans-Serif" font-size="10.00">void openingMainStage</text>
<text text-anchor="start" x="14" y="-608.5" font-family="Helvetica,sans-Serif" font-size="10.00">(ISplashScreenView iSplashScreen</text>
<text text-anchor="start" x="14" y="-596.5" font-family="Helvetica,sans-Serif" font-size="10.00">View)</text>
<polygon fill="#666666" stroke="#666666" points="0,-648 0,-648 172.5,-648 172.5,-648 0,-648"/>
<polygon fill="#666666" stroke="#666666" points="0,-632 0,-632 172.5,-632 172.5,-632 0,-632"/>
<polygon fill="none" stroke="#666666" points="0,-590 0,-678 172.5,-678 172.5,-590 0,-590"/>
</a>
</g>
</g>
<!-- Node2&#45;&gt;Node1 -->
<g id="edge1_Node000001_Node000002" class="edge">
<title>Node2&#45;&gt;Node1</title>
<g id="a_edge1_Node000001_Node000002"><a xlink:title=" ">
<path fill="none" stroke="#63b8ff" d="M104,-579.52C122.31,-526.38 152.83,-443.06 186.25,-374 198.45,-348.79 212.76,-322.51 227.07,-297.71"/>
<polygon fill="none" stroke="#63b8ff" points="100.7,-578.36 100.77,-588.95 107.32,-580.62 100.7,-578.36"/>
</a>
</g>
</g>
<!-- Node3 -->
<g id="Node000003" class="node">
<title>Node3</title>
<g id="a_Node000003"><a xlink:href="interfacefr_1_1softsf_1_1sudokufx_1_1interfaces_1_1_i_scene_provider.html" target="_top" xlink:title="Interface ISceneProvider.">
<polygon fill="white" stroke="none" points="304.88,-1330 171.62,-1330 171.62,-1266 304.88,-1266 304.88,-1330"/>
<text text-anchor="start" x="175.62" y="-1316.5" font-family="Helvetica,sans-Serif" font-size="10.00">fr.softsf.sudokufx.interfaces.</text>
<text text-anchor="start" x="204.88" y="-1304.5" font-family="Helvetica,sans-Serif" font-size="10.00">ISceneProvider</text>
<text text-anchor="start" x="236.75" y="-1288.5" font-family="Helvetica,sans-Serif" font-size="10.00"> </text>
<text text-anchor="start" x="176.88" y="-1272.5" font-family="Helvetica,sans-Serif" font-size="10.00">+</text>
<text text-anchor="start" x="188.12" y="-1272.5" font-family="Helvetica,sans-Serif" font-size="10.00">default Scene getScene()</text>
<polygon fill="#666666" stroke="#666666" points="171.62,-1300 171.62,-1300 304.88,-1300 304.88,-1300 171.62,-1300"/>
<polygon fill="#666666" stroke="#666666" points="171.62,-1284 171.62,-1284 304.88,-1284 304.88,-1284 171.62,-1284"/>
<polygon fill="none" stroke="#666666" points="171.62,-1266 171.62,-1330 304.88,-1330 304.88,-1266 171.62,-1266"/>
</a>
</g>
</g>
<!-- Node3&#45;&gt;Node1 -->
<g id="edge2_Node000001_Node000003" class="edge">
<title>Node3&#45;&gt;Node1</title>
<g id="a_edge2_Node000001_Node000003"><a xlink:title=" ">
<path fill="none" stroke="#63b8ff" d="M231.6,-1254.97C212.46,-1126.35 162.19,-727.2 219.25,-404 222.05,-388.13 225.88,-371.92 230.37,-355.82"/>
<polygon fill="none" stroke="#63b8ff" points="228.12,-1255.35 233.07,-1264.72 235.04,-1254.31 228.12,-1255.35"/>
</a>
</g>
</g>
<!-- Node10 -->
<g id="Node000010" class="node">
<title>Node10</title>
<g id="a_Node000010"><a xlink:href="classfr_1_1softsf_1_1sudokufx_1_1service_1_1_fxml_service.html" target="_top" xlink:title="FxmlService is a Spring service that manages the loading of FXML files and updating the root of the J...">
<polygon fill="white" stroke="none" points="374,-710 228.5,-710 228.5,-558 374,-558 374,-710"/>
<text text-anchor="start" x="244.25" y="-696.5" font-family="Helvetica,sans-Serif" font-size="10.00">fr.softsf.sudokufx.service.</text>
<text text-anchor="start" x="273.88" y="-684.5" font-family="Helvetica,sans-Serif" font-size="10.00">FxmlService</text>
<text text-anchor="start" x="234" y="-668.5" font-family="Helvetica,sans-Serif" font-size="10.00">&#45;</text>
<text text-anchor="start" x="242.5" y="-668.5" font-family="Helvetica,sans-Serif" font-size="10.00">final FXMLLoader fxmlLoader</text>
<text text-anchor="start" x="234" y="-652.5" font-family="Helvetica,sans-Serif" font-size="10.00">&#45;</text>
<text text-anchor="start" x="242.5" y="-652.5" font-family="Helvetica,sans-Serif" font-size="10.00">final Scene scene</text>
<text text-anchor="start" x="232.5" y="-636.5" font-family="Helvetica,sans-Serif" font-size="10.00">+</text>
<text text-anchor="start" x="242.5" y="-636.5" font-family="Helvetica,sans-Serif" font-size="10.00">FxmlService(FXMLLoader</text>
<text text-anchor="start" x="242.5" y="-624.5" font-family="Helvetica,sans-Serif" font-size="10.00"> fxmlLoader)</text>
<text text-anchor="start" x="232.5" y="-608.5" font-family="Helvetica,sans-Serif" font-size="10.00">+</text>
<text text-anchor="start" x="242.5" y="-608.5" font-family="Helvetica,sans-Serif" font-size="10.00">void setDynamicFontSize()</text>
<text text-anchor="start" x="232.5" y="-592.5" font-family="Helvetica,sans-Serif" font-size="10.00">+</text>
<text text-anchor="start" x="242.5" y="-592.5" font-family="Helvetica,sans-Serif" font-size="10.00">void setRootByFXMLName</text>
<text text-anchor="start" x="242.5" y="-580.5" font-family="Helvetica,sans-Serif" font-size="10.00">(final String fxml)</text>
<text text-anchor="start" x="232.5" y="-564.5" font-family="Helvetica,sans-Serif" font-size="10.00">~</text>
<text text-anchor="start" x="242.5" y="-564.5" font-family="Helvetica,sans-Serif" font-size="10.00">public&lt; T &gt; T getController()</text>
<polygon fill="#666666" stroke="#666666" points="228.5,-680 228.5,-680 374,-680 374,-680 228.5,-680"/>
<polygon fill="#666666" stroke="#666666" points="228.5,-648 228.5,-648 240.5,-648 240.5,-648 228.5,-648"/>
<polygon fill="#666666" stroke="#666666" points="240.5,-648 240.5,-648 374,-648 374,-648 240.5,-648"/>
<polygon fill="none" stroke="#666666" points="228.5,-558 228.5,-710 374,-710 374,-558 228.5,-558"/>
</a>
</g>
</g>
<!-- Node3&#45;&gt;Node10 -->
<g id="edge10_Node000010_Node000003" class="edge">
<title>Node3&#45;&gt;Node10</title>
<g id="a_edge10_Node000010_Node000003"><a xlink:title=" ">
<path fill="none" stroke="#63b8ff" d="M238.83,-1255.39C240.14,-1184.66 244.32,-1036.53 257.25,-912 264.39,-843.23 277.15,-765.52 287.09,-709.95"/>
<polygon fill="none" stroke="#63b8ff" points="235.34,-1254.9 238.66,-1264.96 242.34,-1255.02 235.34,-1254.9"/>
</a>
</g>
</g>
<!-- Node11 -->
<g id="Node000011" class="node">
<title>Node11</title>
<g id="a_Node000011"><a xlink:href="classfr_1_1softsf_1_1sudokufx_1_1utils_1_1_dynamic_font_size.html" target="_top" xlink:title="Manages dynamic font sizing based on the dimensions of a JavaFX Scene.">
<polygon fill="white" stroke="none" points="392.62,-1122 265.88,-1122 265.88,-982 392.62,-982 392.62,-1122"/>
<text text-anchor="start" x="279" y="-1108.5" font-family="Helvetica,sans-Serif" font-size="10.00">fr.softsf.sudokufx.utils.</text>
<text text-anchor="start" x="290.25" y="-1096.5" font-family="Helvetica,sans-Serif" font-size="10.00">DynamicFontSize</text>
<text text-anchor="start" x="271.38" y="-1080.5" font-family="Helvetica,sans-Serif" font-size="10.00">&#45;</text>
<text text-anchor="start" x="279.88" y="-1080.5" font-family="Helvetica,sans-Serif" font-size="10.00">double currentFontSize</text>
<text text-anchor="start" x="271.38" y="-1064.5" font-family="Helvetica,sans-Serif" font-size="10.00">&#45;</text>
<text text-anchor="start" x="279.88" y="-1064.5" font-family="Helvetica,sans-Serif" font-size="10.00">Scene scene</text>
<text text-anchor="start" x="269.88" y="-1048.5" font-family="Helvetica,sans-Serif" font-size="10.00">+</text>
<text text-anchor="start" x="279.88" y="-1048.5" font-family="Helvetica,sans-Serif" font-size="10.00">DynamicFontSize()</text>
<text text-anchor="start" x="269.88" y="-1032.5" font-family="Helvetica,sans-Serif" font-size="10.00">+</text>
<text text-anchor="start" x="279.88" y="-1032.5" font-family="Helvetica,sans-Serif" font-size="10.00">void updateFontSize()</text>
<text text-anchor="start" x="269.88" y="-1016.5" font-family="Helvetica,sans-Serif" font-size="10.00">~</text>
<text text-anchor="start" x="279.88" y="-1016.5" font-family="Helvetica,sans-Serif" font-size="10.00">DynamicFontSize(Scene</text>
<text text-anchor="start" x="279.88" y="-1004.5" font-family="Helvetica,sans-Serif" font-size="10.00"> scene)</text>
<text text-anchor="start" x="271.38" y="-988.5" font-family="Helvetica,sans-Serif" font-size="10.00">&#45;</text>
<text text-anchor="start" x="279.88" y="-988.5" font-family="Helvetica,sans-Serif" font-size="10.00">void initialize()</text>
<polygon fill="#666666" stroke="#666666" points="265.88,-1092 265.88,-1092 392.62,-1092 392.62,-1092 265.88,-1092"/>
<polygon fill="#666666" stroke="#666666" points="265.88,-1060 265.88,-1060 277.88,-1060 277.88,-1060 265.88,-1060"/>
<polygon fill="#666666" stroke="#666666" points="277.88,-1060 277.88,-1060 392.62,-1060 392.62,-1060 277.88,-1060"/>
<polygon fill="none" stroke="#666666" points="265.88,-982 265.88,-1122 392.62,-1122 392.62,-982 265.88,-982"/>
</a>
</g>
</g>
<!-- Node3&#45;&gt;Node11 -->
<g id="edge12_Node000011_Node000003" class="edge">
<title>Node3&#45;&gt;Node11</title>
<g id="a_edge12_Node000011_Node000003"><a xlink:title=" ">
<path fill="none" stroke="#63b8ff" d="M253.79,-1255.34C267.41,-1218.8 287.5,-1164.95 303.52,-1121.99"/>
<polygon fill="none" stroke="#63b8ff" points="250.52,-1254.09 250.3,-1264.68 257.08,-1256.53 250.52,-1254.09"/>
</a>
</g>
</g>
<!-- Node4 -->
<g id="Node000004" class="node">
<title>Node4</title>
<g id="a_Node000004"><a xlink:href="classfr_1_1softsf_1_1sudokufx_1_1viewmodel_1_1_full_menu_view_model.html" target="_top" xlink:title="FullMenuViewModel with business logic (not final)">
<polygon fill="white" stroke="none" points="588.5,-802 392,-802 392,-466 588.5,-466 588.5,-802"/>
<text text-anchor="start" x="425.75" y="-788.5" font-family="Helvetica,sans-Serif" font-size="10.00">fr.softsf.sudokufx.viewmodel.</text>
<text text-anchor="start" x="446.38" y="-776.5" font-family="Helvetica,sans-Serif" font-size="10.00">FullMenuViewModel</text>
<text text-anchor="start" x="397.5" y="-760.5" font-family="Helvetica,sans-Serif" font-size="10.00">&#45;</text>
<text text-anchor="start" x="406" y="-760.5" font-family="Helvetica,sans-Serif" font-size="10.00">final StringProperty</text>
<text text-anchor="start" x="406" y="-748.5" font-family="Helvetica,sans-Serif" font-size="10.00"> githubVersion</text>
<text text-anchor="start" x="397.5" y="-732.5" font-family="Helvetica,sans-Serif" font-size="10.00">&#45;</text>
<text text-anchor="start" x="406" y="-732.5" font-family="Helvetica,sans-Serif" font-size="10.00">final IGridMaster iGridMaster</text>
<text text-anchor="start" x="397.5" y="-716.5" font-family="Helvetica,sans-Serif" font-size="10.00">&#45;</text>
<text text-anchor="start" x="406" y="-716.5" font-family="Helvetica,sans-Serif" font-size="10.00">final SimpleBooleanProperty</text>
<text text-anchor="start" x="406" y="-704.5" font-family="Helvetica,sans-Serif" font-size="10.00"> version</text>
<text text-anchor="start" x="397.5" y="-688.5" font-family="Helvetica,sans-Serif" font-size="10.00">&#45;</text>
<text text-anchor="start" x="406" y="-688.5" font-family="Helvetica,sans-Serif" font-size="10.00">StringProperty welcome</text>
<text text-anchor="start" x="396" y="-672.5" font-family="Helvetica,sans-Serif" font-size="10.00">+</text>
<text text-anchor="start" x="406" y="-672.5" font-family="Helvetica,sans-Serif" font-size="10.00">FullMenuViewModel</text>
<text text-anchor="start" x="406" y="-660.5" font-family="Helvetica,sans-Serif" font-size="10.00">(SoftwareService softwareService,</text>
<text text-anchor="start" x="406" y="-648.5" font-family="Helvetica,sans-Serif" font-size="10.00"> IGridMaster iGridMaster, VersionService</text>
<text text-anchor="start" x="406" y="-636.5" font-family="Helvetica,sans-Serif" font-size="10.00"> versionService)</text>
<text text-anchor="start" x="396" y="-620.5" font-family="Helvetica,sans-Serif" font-size="10.00">+</text>
<text text-anchor="start" x="406" y="-620.5" font-family="Helvetica,sans-Serif" font-size="10.00">ReadOnlyStringProperty</text>
<text text-anchor="start" x="406" y="-608.5" font-family="Helvetica,sans-Serif" font-size="10.00"> githubVersionProperty()</text>
<text text-anchor="start" x="396" y="-592.5" font-family="Helvetica,sans-Serif" font-size="10.00">+</text>
<text text-anchor="start" x="406" y="-592.5" font-family="Helvetica,sans-Serif" font-size="10.00">void test()</text>
<text text-anchor="start" x="396" y="-576.5" font-family="Helvetica,sans-Serif" font-size="10.00">+</text>
<text text-anchor="start" x="406" y="-576.5" font-family="Helvetica,sans-Serif" font-size="10.00">BooleanProperty versionProperty()</text>
<text text-anchor="start" x="396" y="-560.5" font-family="Helvetica,sans-Serif" font-size="10.00">+</text>
<text text-anchor="start" x="406" y="-560.5" font-family="Helvetica,sans-Serif" font-size="10.00">StringProperty welcomeProperty()</text>
<text text-anchor="start" x="397.5" y="-544.5" font-family="Helvetica,sans-Serif" font-size="10.00">&#45;</text>
<text text-anchor="start" x="406" y="-544.5" font-family="Helvetica,sans-Serif" font-size="10.00">void checkGitHubVersion()</text>
<text text-anchor="start" x="397.5" y="-528.5" font-family="Helvetica,sans-Serif" font-size="10.00">&#45;</text>
<text text-anchor="start" x="406" y="-528.5" font-family="Helvetica,sans-Serif" font-size="10.00">void createSoftware()</text>
<text text-anchor="start" x="397.5" y="-512.5" font-family="Helvetica,sans-Serif" font-size="10.00">&#45;</text>
<text text-anchor="start" x="406" y="-512.5" font-family="Helvetica,sans-Serif" font-size="10.00">void setWelcome(String</text>
<text text-anchor="start" x="406" y="-500.5" font-family="Helvetica,sans-Serif" font-size="10.00"> output)</text>
<text text-anchor="start" x="397.5" y="-484.5" font-family="Helvetica,sans-Serif" font-size="10.00">&#45;</text>
<text text-anchor="start" x="406" y="-484.5" font-family="Helvetica,sans-Serif" font-size="10.00">void updateSoftware</text>
<text text-anchor="start" x="406" y="-472.5" font-family="Helvetica,sans-Serif" font-size="10.00">(SoftwareDto softwareToUpdate)</text>
<polygon fill="#666666" stroke="#666666" points="392,-772 392,-772 588.5,-772 588.5,-772 392,-772"/>
<polygon fill="#666666" stroke="#666666" points="392,-684 392,-684 404,-684 404,-684 392,-684"/>
<polygon fill="#666666" stroke="#666666" points="404,-684 404,-684 588.5,-684 588.5,-684 404,-684"/>
<polygon fill="none" stroke="#666666" points="392,-466 392,-802 588.5,-802 588.5,-466 392,-466"/>
</a>
</g>
</g>
<!-- Node4&#45;&gt;Node1 -->
<g id="edge3_Node000001_Node000004" class="edge">
<title>Node4&#45;&gt;Node1</title>
<g id="a_edge3_Node000001_Node000004"><a xlink:title=" ">
<path fill="none" stroke="#63b8ff" d="M420.81,-466.2C407.49,-434.21 393.46,-400.5 379.88,-367.87"/>
<polygon fill="none" stroke="#63b8ff" points="379.86,-367.82 373.86,-363.82 375.24,-356.74 381.24,-360.74 379.86,-367.82"/>
</a>
</g>
<text text-anchor="middle" x="429.81" y="-376.5" font-family="Helvetica,sans-Serif" font-size="10.00" fill="grey"> &#45;fullMenuViewModel</text>
</g>
<!-- Node5 -->
<g id="Node000005" class="node">
<title>Node5</title>
<g id="a_Node000005"><a xlink:href="classfr_1_1softsf_1_1sudokufx_1_1service_1_1_software_service.html" target="_top" xlink:title=" ">
<polygon fill="white" stroke="none" points="566.25,-1124 410.25,-1124 410.25,-980 566.25,-980 566.25,-1124"/>
<text text-anchor="start" x="431.25" y="-1110.5" font-family="Helvetica,sans-Serif" font-size="10.00">fr.softsf.sudokufx.service.</text>
<text text-anchor="start" x="452.25" y="-1098.5" font-family="Helvetica,sans-Serif" font-size="10.00">SoftwareService</text>
<text text-anchor="start" x="486.75" y="-1082.5" font-family="Helvetica,sans-Serif" font-size="10.00"> </text>
<text text-anchor="start" x="414.25" y="-1066.5" font-family="Helvetica,sans-Serif" font-size="10.00">+</text>
<text text-anchor="start" x="424.25" y="-1066.5" font-family="Helvetica,sans-Serif" font-size="10.00">SoftwareService(Software</text>
<text text-anchor="start" x="424.25" y="-1054.5" font-family="Helvetica,sans-Serif" font-size="10.00">Repository softwareRepository)</text>
<text text-anchor="start" x="414.25" y="-1038.5" font-family="Helvetica,sans-Serif" font-size="10.00">+</text>
<text text-anchor="start" x="424.25" y="-1038.5" font-family="Helvetica,sans-Serif" font-size="10.00">Optional&lt; SoftwareDto</text>
<text text-anchor="start" x="424.25" y="-1026.5" font-family="Helvetica,sans-Serif" font-size="10.00"> &gt; getSoftware()</text>
<text text-anchor="start" x="414.25" y="-1010.5" font-family="Helvetica,sans-Serif" font-size="10.00">+</text>
<text text-anchor="start" x="424.25" y="-1010.5" font-family="Helvetica,sans-Serif" font-size="10.00">Optional&lt; SoftwareDto</text>
<text text-anchor="start" x="424.25" y="-998.5" font-family="Helvetica,sans-Serif" font-size="10.00"> &gt; updateSoftware(SoftwareDto</text>
<text text-anchor="start" x="424.25" y="-986.5" font-family="Helvetica,sans-Serif" font-size="10.00"> softwareDto)</text>
<polygon fill="#666666" stroke="#666666" points="410.25,-1094 410.25,-1094 566.25,-1094 566.25,-1094 410.25,-1094"/>
<polygon fill="#666666" stroke="#666666" points="410.25,-1078 410.25,-1078 566.25,-1078 566.25,-1078 410.25,-1078"/>
<polygon fill="none" stroke="#666666" points="410.25,-980 410.25,-1124 566.25,-1124 566.25,-980 410.25,-980"/>
</a>
</g>
</g>
<!-- Node5&#45;&gt;Node4 -->
<g id="edge4_Node000004_Node000005" class="edge">
<title>Node5&#45;&gt;Node4</title>
<g id="a_edge4_Node000004_Node000005"><a xlink:title=" ">
<path fill="none" stroke="#63b8ff" d="M488.59,-980.43C488.81,-934.75 489.11,-873.07 489.39,-814.47"/>
<polygon fill="none" stroke="#63b8ff" points="489.39,-814.53 485.42,-808.51 489.44,-802.53 493.42,-808.55 489.39,-814.53"/>
</a>
</g>
<text text-anchor="middle" x="527.26" y="-884.5" font-family="Helvetica,sans-Serif" font-size="10.00" fill="grey"> &#45;softwareService</text>
</g>
<!-- Node6 -->
<g id="Node000006" class="node">
<title>Node6</title>
<g id="a_Node000006"><a xlink:href="interfacefr_1_1softsf_1_1sudokufx_1_1repository_1_1_software_repository.html" target="_top" xlink:title=" ">
<polygon fill="white" stroke="none" points="554.5,-1336 422,-1336 422,-1260 554.5,-1260 554.5,-1336"/>
<text text-anchor="start" x="426" y="-1322.5" font-family="Helvetica,sans-Serif" font-size="10.00">fr.softsf.sudokufx.repository.</text>
<text text-anchor="start" x="445.12" y="-1310.5" font-family="Helvetica,sans-Serif" font-size="10.00">SoftwareRepository</text>
<text text-anchor="start" x="486.75" y="-1294.5" font-family="Helvetica,sans-Serif" font-size="10.00"> </text>
<text text-anchor="start" x="431.56" y="-1278.5" font-family="Helvetica,sans-Serif" font-size="10.00">+</text>
<text text-anchor="start" x="447.12" y="-1278.5" font-family="Helvetica,sans-Serif" font-size="10.00">Optional&lt; Software</text>
<text text-anchor="start" x="447.12" y="-1266.5" font-family="Helvetica,sans-Serif" font-size="10.00"> &gt; findFirstSoftware()</text>
<polygon fill="#666666" stroke="#666666" points="422,-1306 422,-1306 554.5,-1306 554.5,-1306 422,-1306"/>
<polygon fill="#666666" stroke="#666666" points="422,-1290 422,-1290 554.5,-1290 554.5,-1290 422,-1290"/>
<polygon fill="none" stroke="#666666" points="422,-1260 422,-1336 554.5,-1336 554.5,-1260 422,-1260"/>
</a>
</g>
</g>
<!-- Node6&#45;&gt;Node5 -->
<g id="edge5_Node000005_Node000006" class="edge">
<title>Node6&#45;&gt;Node5</title>
<g id="a_edge5_Node000005_Node000006"><a xlink:title=" ">
<path fill="none" stroke="#63b8ff" d="M488.25,-1260.21C488.25,-1227.51 488.25,-1178.51 488.25,-1136.36"/>
<polygon fill="none" stroke="#63b8ff" points="488.25,-1136.43 484.25,-1130.43 488.25,-1124.43 492.25,-1130.43 488.25,-1136.43"/>
</a>
</g>
<text text-anchor="middle" x="533.62" y="-1212.5" font-family="Helvetica,sans-Serif" font-size="10.00" fill="grey"> &#45;softwareRepository</text>
</g>
<!-- Node7 -->
<g id="Node000007" class="node">
<title>Node7</title>
<g id="a_Node000007"><a xlink:title=" ">
<polygon fill="white" stroke="none" points="549.25,-1457 427.25,-1457 427.25,-1393 549.25,-1393 549.25,-1457"/>
<text text-anchor="start" x="431.25" y="-1443.5" font-family="Helvetica,sans-Serif" font-size="10.00">JpaRepository&lt; Software,</text>
<text text-anchor="start" x="471.75" y="-1431.5" font-family="Helvetica,sans-Serif" font-size="10.00"> Long &gt;</text>
<text text-anchor="start" x="486.75" y="-1415.5" font-family="Helvetica,sans-Serif" font-size="10.00"> </text>
<text text-anchor="start" x="486.75" y="-1399.5" font-family="Helvetica,sans-Serif" font-size="10.00"> </text>
<polygon fill="#666666" stroke="#666666" points="427.25,-1427 427.25,-1427 549.25,-1427 549.25,-1427 427.25,-1427"/>
<polygon fill="#666666" stroke="#666666" points="427.25,-1411 427.25,-1411 549.25,-1411 549.25,-1411 427.25,-1411"/>
<polygon fill="none" stroke="#666666" points="427.25,-1393 427.25,-1457 549.25,-1457 549.25,-1393 427.25,-1393"/>
</a>
</g>
</g>
<!-- Node7&#45;&gt;Node6 -->
<g id="edge6_Node000006_Node000007" class="edge">
<title>Node7&#45;&gt;Node6</title>
<g id="a_edge6_Node000006_Node000007"><a xlink:title=" ">
<path fill="none" stroke="#63b8ff" d="M488.25,-1381.61C488.25,-1366.73 488.25,-1350.14 488.25,-1335.76"/>
<polygon fill="none" stroke="#63b8ff" points="484.75,-1381.59 488.25,-1391.59 491.75,-1381.59 484.75,-1381.59"/>
</a>
</g>
</g>
<!-- Node8 -->
<g id="Node000008" class="node">
<title>Node8</title>
<g id="a_Node000008"><a xlink:href="classfr_1_1softsf_1_1sudokufx_1_1service_1_1_version_service.html" target="_top" xlink:title="Service for checking if the application version is up to date by querying GitHub.">
<polygon fill="white" stroke="none" points="750.5,-1192 584,-1192 584,-912 750.5,-912 750.5,-1192"/>
<text text-anchor="start" x="610.25" y="-1178.5" font-family="Helvetica,sans-Serif" font-size="10.00">fr.softsf.sudokufx.service.</text>
<text text-anchor="start" x="634.62" y="-1166.5" font-family="Helvetica,sans-Serif" font-size="10.00">VersionService</text>
<text text-anchor="start" x="589.5" y="-1150.5" font-family="Helvetica,sans-Serif" font-size="10.00">&#45;</text>
<text text-anchor="start" x="598" y="-1150.5" font-family="Helvetica,sans-Serif" font-size="10.00">final HttpClient httpClient</text>
<text text-anchor="start" x="589.5" y="-1134.5" font-family="Helvetica,sans-Serif" font-size="10.00">&#45;</text>
<text text-anchor="start" x="598" y="-1134.5" font-family="Helvetica,sans-Serif" font-size="10.00">final ObjectMapper</text>
<text text-anchor="start" x="598" y="-1122.5" font-family="Helvetica,sans-Serif" font-size="10.00"> objectMapper</text>
<text text-anchor="start" x="589.5" y="-1106.5" font-family="Helvetica,sans-Serif" font-size="10.00">&#45;</text>
<text text-anchor="start" x="598" y="-1106.5" font-family="Helvetica,sans-Serif" font-size="10.00">static final String</text>
<text text-anchor="start" x="598" y="-1094.5" font-family="Helvetica,sans-Serif" font-size="10.00"> CURRENT_VERSION</text>
<text text-anchor="start" x="588" y="-1078.5" font-family="Helvetica,sans-Serif" font-size="10.00">+</text>
<text text-anchor="start" x="598" y="-1078.5" font-family="Helvetica,sans-Serif" font-size="10.00">VersionService(HttpClient</text>
<text text-anchor="start" x="598" y="-1066.5" font-family="Helvetica,sans-Serif" font-size="10.00"> httpClient, MyDateTime</text>
<text text-anchor="start" x="598" y="-1054.5" font-family="Helvetica,sans-Serif" font-size="10.00"> myDateTime, ObjectMapper</text>
<text text-anchor="start" x="598" y="-1042.5" font-family="Helvetica,sans-Serif" font-size="10.00"> objectMapper)</text>
<text text-anchor="start" x="588" y="-1026.5" font-family="Helvetica,sans-Serif" font-size="10.00">+</text>
<text text-anchor="start" x="598" y="-1026.5" font-family="Helvetica,sans-Serif" font-size="10.00">Task&lt; Boolean &gt; checkLatest</text>
<text text-anchor="start" x="598" y="-1014.5" font-family="Helvetica,sans-Serif" font-size="10.00">Version()</text>
<text text-anchor="start" x="588" y="-998.5" font-family="Helvetica,sans-Serif" font-size="10.00">+</text>
<text text-anchor="start" x="598" y="-998.5" font-family="Helvetica,sans-Serif" font-size="10.00">String getGitHubLinkToRepository</text>
<text text-anchor="start" x="598" y="-986.5" font-family="Helvetica,sans-Serif" font-size="10.00">Releases()</text>
<text text-anchor="start" x="589.5" y="-970.5" font-family="Helvetica,sans-Serif" font-size="10.00">&#45;</text>
<text text-anchor="start" x="598" y="-970.5" font-family="Helvetica,sans-Serif" font-size="10.00">int compareVersions</text>
<text text-anchor="start" x="598" y="-958.5" font-family="Helvetica,sans-Serif" font-size="10.00">(final String version1,</text>
<text text-anchor="start" x="598" y="-946.5" font-family="Helvetica,sans-Serif" font-size="10.00"> final String version2)</text>
<text text-anchor="start" x="589.5" y="-930.5" font-family="Helvetica,sans-Serif" font-size="10.00">&#45;</text>
<text text-anchor="start" x="598" y="-930.5" font-family="Helvetica,sans-Serif" font-size="10.00">boolean parseResponse</text>
<text text-anchor="start" x="598" y="-918.5" font-family="Helvetica,sans-Serif" font-size="10.00">(String json)</text>
<polygon fill="#666666" stroke="#666666" points="584,-1162 584,-1162 750.5,-1162 750.5,-1162 584,-1162"/>
<polygon fill="#666666" stroke="#666666" points="584,-1090 584,-1090 596,-1090 596,-1090 584,-1090"/>
<polygon fill="#666666" stroke="#666666" points="596,-1090 596,-1090 750.5,-1090 750.5,-1090 596,-1090"/>
<polygon fill="none" stroke="#666666" points="584,-912 584,-1192 750.5,-1192 750.5,-912 584,-912"/>
</a>
</g>
</g>
<!-- Node8&#45;&gt;Node4 -->
<g id="edge7_Node000004_Node000008" class="edge">
<title>Node8&#45;&gt;Node4</title>
<g id="a_edge7_Node000004_Node000008"><a xlink:title=" ">
<path fill="none" stroke="#63b8ff" d="M608.19,-912.19C594.74,-880.59 580.28,-846.59 566.24,-813.59"/>
<polygon fill="none" stroke="#63b8ff" points="566.34,-813.84 560.31,-809.89 561.65,-802.8 567.68,-806.76 566.34,-813.84"/>
</a>
</g>
<text text-anchor="middle" x="635.06" y="-884.5" font-family="Helvetica,sans-Serif" font-size="10.00" fill="grey"> &#45;versionService</text>
</g>
<!-- Node9 -->
<g id="Node000009" class="node">
<title>Node9</title>
<g id="a_Node000009"><a xlink:href="classfr_1_1softsf_1_1sudokufx_1_1utils_1_1_my_date_time.html" target="_top" xlink:title="Component working with date and time operations.">
<polygon fill="white" stroke="none" points="742.62,-1356 591.88,-1356 591.88,-1240 742.62,-1240 742.62,-1356"/>
<text text-anchor="start" x="617" y="-1342.5" font-family="Helvetica,sans-Serif" font-size="10.00">fr.softsf.sudokufx.utils.</text>
<text text-anchor="start" x="639.12" y="-1330.5" font-family="Helvetica,sans-Serif" font-size="10.00">MyDateTime</text>
<text text-anchor="start" x="597.38" y="-1314.5" font-family="Helvetica,sans-Serif" font-size="10.00">&#45;</text>
<text text-anchor="start" x="605.88" y="-1314.5" font-family="Helvetica,sans-Serif" font-size="10.00">static final Clock</text>
<text text-anchor="start" x="605.88" y="-1302.5" font-family="Helvetica,sans-Serif" font-size="10.00"> clock</text>
<text text-anchor="start" x="597.38" y="-1286.5" font-family="Helvetica,sans-Serif" font-size="10.00">&#45;</text>
<text text-anchor="start" x="605.88" y="-1286.5" font-family="Helvetica,sans-Serif" font-size="10.00">static final DateTimeFormatter</text>
<text text-anchor="start" x="605.88" y="-1274.5" font-family="Helvetica,sans-Serif" font-size="10.00"> TIME_FORMATTER</text>
<text text-anchor="start" x="595.88" y="-1258.5" font-family="Helvetica,sans-Serif" font-size="10.00">+</text>
<text text-anchor="start" x="605.88" y="-1258.5" font-family="Helvetica,sans-Serif" font-size="10.00">String getFormattedCurrent</text>
<text text-anchor="start" x="605.88" y="-1246.5" font-family="Helvetica,sans-Serif" font-size="10.00">Time()</text>
<polygon fill="#666666" stroke="#666666" points="591.88,-1326 591.88,-1326 742.62,-1326 742.62,-1326 591.88,-1326"/>
<polygon fill="#666666" stroke="#666666" points="591.88,-1270 591.88,-1270 603.88,-1270 603.88,-1270 591.88,-1270"/>
<polygon fill="#666666" stroke="#666666" points="603.88,-1270 603.88,-1270 742.62,-1270 742.62,-1270 603.88,-1270"/>
<polygon fill="none" stroke="#666666" points="591.88,-1240 591.88,-1356 742.62,-1356 742.62,-1240 591.88,-1240"/>
</a>
</g>
</g>
<!-- Node9&#45;&gt;Node8 -->
<g id="edge8_Node000008_Node000009" class="edge">
<title>Node9&#45;&gt;Node8</title>
<g id="a_edge8_Node000008_Node000009"><a xlink:title=" ">
<path fill="none" stroke="#63b8ff" d="M667.25,-1240.1C667.25,-1229.01 667.25,-1216.91 667.25,-1204.36"/>
<polygon fill="none" stroke="#63b8ff" points="667.25,-1204.59 663.25,-1198.59 667.25,-1192.59 671.25,-1198.59 667.25,-1204.59"/>
</a>
</g>
<text text-anchor="middle" x="698.38" y="-1212.5" font-family="Helvetica,sans-Serif" font-size="10.00" fill="grey"> &#45;myDateTime</text>
</g>
<!-- Node10&#45;&gt;Node1 -->
<g id="edge9_Node000001_Node000010" class="edge">
<title>Node10&#45;&gt;Node1</title>
<g id="a_edge9_Node000001_Node000010"><a xlink:title=" ">
<path fill="none" stroke="#63b8ff" d="M301.25,-558.03C301.25,-506.33 301.25,-435.16 301.25,-368.45"/>
<polygon fill="none" stroke="#63b8ff" points="301.25,-368.51 297.25,-362.51 301.25,-356.51 305.25,-362.51 301.25,-368.51"/>
</a>
</g>
<text text-anchor="middle" x="330.12" y="-376.5" font-family="Helvetica,sans-Serif" font-size="10.00" fill="grey"> &#45;fxmlService</text>
</g>
<!-- Node11&#45;&gt;Node10 -->
<g id="edge11_Node000010_Node000011" class="edge">
<title>Node11&#45;&gt;Node10</title>
<g id="a_edge11_Node000010_Node000011"><a xlink:title=" ">
<path fill="none" stroke="#63b8ff" d="M324.63,-982.31C319.84,-911.15 312.34,-799.74 307.13,-722.37"/>
<polygon fill="none" stroke="#63b8ff" points="307.15,-722.65 302.76,-716.93 306.34,-710.67 310.74,-716.39 307.15,-722.65"/>
</a>
</g>
<text text-anchor="middle" x="359.46" y="-884.5" font-family="Helvetica,sans-Serif" font-size="10.00" fill="grey"> &#45;dynamicFontSize</text>
</g>
<!-- Node12 -->
<g id="Node000012" class="node">
<title>Node12</title>
<g id="a_Node000012"><a xlink:href="classfr_1_1softsf_1_1sudokufx_1_1view_1_1components_1_1toaster_1_1_toaster_v_box.html" target="_top" xlink:title="A custom VBox component for displaying toast notifications.">
<polygon fill="white" stroke="none" points="844.88,-864 645.62,-864 645.62,-404 844.88,-404 844.88,-864"/>
<text text-anchor="start" x="649.62" y="-850.5" font-family="Helvetica,sans-Serif" font-size="10.00">fr.softsf.sudokufx.view.components.toaster.</text>
<text text-anchor="start" x="717.12" y="-838.5" font-family="Helvetica,sans-Serif" font-size="10.00">ToasterVBox</text>
<text text-anchor="start" x="743.75" y="-822.5" font-family="Helvetica,sans-Serif" font-size="10.00"> </text>
<text text-anchor="start" x="663.25" y="-806.5" font-family="Helvetica,sans-Serif" font-size="10.00">+</text>
<text text-anchor="start" x="686.88" y="-806.5" font-family="Helvetica,sans-Serif" font-size="10.00">ToasterVBox()</text>
<text text-anchor="start" x="663.25" y="-790.5" font-family="Helvetica,sans-Serif" font-size="10.00">+</text>
<text text-anchor="start" x="686.88" y="-790.5" font-family="Helvetica,sans-Serif" font-size="10.00">void addToast(final</text>
<text text-anchor="start" x="686.88" y="-778.5" font-family="Helvetica,sans-Serif" font-size="10.00"> String visibleText,</text>
<text text-anchor="start" x="686.88" y="-766.5" font-family="Helvetica,sans-Serif" font-size="10.00"> final String detailedText,</text>
<text text-anchor="start" x="686.88" y="-754.5" font-family="Helvetica,sans-Serif" font-size="10.00"> final ToastLevels toastLevel)</text>
<text text-anchor="start" x="663.25" y="-738.5" font-family="Helvetica,sans-Serif" font-size="10.00">+</text>
<text text-anchor="start" x="686.88" y="-738.5" font-family="Helvetica,sans-Serif" font-size="10.00">void addToastWithDuration</text>
<text text-anchor="start" x="686.88" y="-726.5" font-family="Helvetica,sans-Serif" font-size="10.00">(final String visibleText,</text>
<text text-anchor="start" x="686.88" y="-714.5" font-family="Helvetica,sans-Serif" font-size="10.00"> final String detailedText,</text>
<text text-anchor="start" x="686.88" y="-702.5" font-family="Helvetica,sans-Serif" font-size="10.00"> final ToastLevels toastLevel,</text>
<text text-anchor="start" x="686.88" y="-690.5" font-family="Helvetica,sans-Serif" font-size="10.00"> final double duration)</text>
<text text-anchor="start" x="664.75" y="-674.5" font-family="Helvetica,sans-Serif" font-size="10.00">&#45;</text>
<text text-anchor="start" x="686.88" y="-674.5" font-family="Helvetica,sans-Serif" font-size="10.00">void copyToClipboard</text>
<text text-anchor="start" x="686.88" y="-662.5" font-family="Helvetica,sans-Serif" font-size="10.00">(final ToasterButton</text>
<text text-anchor="start" x="686.88" y="-650.5" font-family="Helvetica,sans-Serif" font-size="10.00"> button)</text>
<text text-anchor="start" x="664.75" y="-634.5" font-family="Helvetica,sans-Serif" font-size="10.00">&#45;</text>
<text text-anchor="start" x="686.88" y="-634.5" font-family="Helvetica,sans-Serif" font-size="10.00">String getToastInfo</text>
<text text-anchor="start" x="686.88" y="-622.5" font-family="Helvetica,sans-Serif" font-size="10.00">(ToastLevels toastLevel)</text>
<text text-anchor="start" x="664.75" y="-606.5" font-family="Helvetica,sans-Serif" font-size="10.00">&#45;</text>
<text text-anchor="start" x="686.88" y="-606.5" font-family="Helvetica,sans-Serif" font-size="10.00">void removeToast(final</text>
<text text-anchor="start" x="686.88" y="-594.5" font-family="Helvetica,sans-Serif" font-size="10.00"> ToasterButton button)</text>
<text text-anchor="start" x="664.75" y="-578.5" font-family="Helvetica,sans-Serif" font-size="10.00">&#45;</text>
<text text-anchor="start" x="686.88" y="-578.5" font-family="Helvetica,sans-Serif" font-size="10.00">void setAccessibility</text>
<text text-anchor="start" x="686.88" y="-566.5" font-family="Helvetica,sans-Serif" font-size="10.00">(final ToasterButton</text>
<text text-anchor="start" x="686.88" y="-554.5" font-family="Helvetica,sans-Serif" font-size="10.00"> toast, final ToastLevels</text>
<text text-anchor="start" x="686.88" y="-542.5" font-family="Helvetica,sans-Serif" font-size="10.00"> toastLevel, final String text)</text>
<text text-anchor="start" x="664.75" y="-526.5" font-family="Helvetica,sans-Serif" font-size="10.00">&#45;</text>
<text text-anchor="start" x="686.88" y="-526.5" font-family="Helvetica,sans-Serif" font-size="10.00">void setToastStyle</text>
<text text-anchor="start" x="686.88" y="-514.5" font-family="Helvetica,sans-Serif" font-size="10.00">(final ToasterButton</text>
<text text-anchor="start" x="686.88" y="-502.5" font-family="Helvetica,sans-Serif" font-size="10.00"> toast, final ToastLevels</text>
<text text-anchor="start" x="686.88" y="-490.5" font-family="Helvetica,sans-Serif" font-size="10.00"> toastLevel)</text>
<text text-anchor="start" x="664.75" y="-474.5" font-family="Helvetica,sans-Serif" font-size="10.00">&#45;</text>
<text text-anchor="start" x="686.88" y="-474.5" font-family="Helvetica,sans-Serif" font-size="10.00">void temporizeToast</text>
<text text-anchor="start" x="686.88" y="-462.5" font-family="Helvetica,sans-Serif" font-size="10.00">(final ToasterButton</text>
<text text-anchor="start" x="686.88" y="-450.5" font-family="Helvetica,sans-Serif" font-size="10.00"> toast, final double</text>
<text text-anchor="start" x="686.88" y="-438.5" font-family="Helvetica,sans-Serif" font-size="10.00"> duration)</text>
<text text-anchor="start" x="664.75" y="-422.5" font-family="Helvetica,sans-Serif" font-size="10.00">&#45;</text>
<text text-anchor="start" x="686.88" y="-422.5" font-family="Helvetica,sans-Serif" font-size="10.00">void toastActions(final</text>
<text text-anchor="start" x="686.88" y="-410.5" font-family="Helvetica,sans-Serif" font-size="10.00"> ActionEvent event)</text>
<polygon fill="#666666" stroke="#666666" points="645.62,-834 645.62,-834 844.88,-834 844.88,-834 645.62,-834"/>
<polygon fill="#666666" stroke="#666666" points="645.62,-818 645.62,-818 844.88,-818 844.88,-818 645.62,-818"/>
<polygon fill="none" stroke="#666666" points="645.62,-404 645.62,-864 844.88,-864 844.88,-404 645.62,-404"/>
</a>
</g>
</g>
<!-- Node12&#45;&gt;Node1 -->
<g id="edge13_Node000001_Node000012" class="edge">
<title>Node12&#45;&gt;Node1</title>
<g id="a_edge13_Node000001_Node000012"><a xlink:title=" ">
<path fill="none" stroke="#63b8ff" d="M645.82,-464.1C630.64,-443 614.3,-422.4 597.25,-404 534.31,-336.08 448.97,-273.63 386.09,-231.84"/>
<polygon fill="none" stroke="#63b8ff" points="386.18,-231.9 378.97,-231.94 376.16,-225.3 383.37,-225.26 386.18,-231.9"/>
</a>
</g>
<text text-anchor="middle" x="594.32" y="-376.5" font-family="Helvetica,sans-Serif" font-size="10.00" fill="grey"> &#45;toaster</text>
</g>
<!-- Node13 -->
<g id="Node000013" class="node">
<title>Node13</title>
<g id="a_Node000013"><a xlink:title=" ">
<polygon fill="white" stroke="none" points="800.25,-1078 768.25,-1078 768.25,-1026 800.25,-1026 800.25,-1078"/>
<text text-anchor="start" x="772.25" y="-1064.5" font-family="Helvetica,sans-Serif" font-size="10.00">VBox</text>
<text text-anchor="start" x="782.75" y="-1048.5" font-family="Helvetica,sans-Serif" font-size="10.00"> </text>
<text text-anchor="start" x="782.75" y="-1032.5" font-family="Helvetica,sans-Serif" font-size="10.00"> </text>
<polygon fill="#666666" stroke="#666666" points="768.25,-1060 768.25,-1060 800.25,-1060 800.25,-1060 768.25,-1060"/>
<polygon fill="#666666" stroke="#666666" points="768.25,-1044 768.25,-1044 800.25,-1044 800.25,-1044 768.25,-1044"/>
<polygon fill="none" stroke="#666666" points="768.25,-1026 768.25,-1078 800.25,-1078 800.25,-1026 768.25,-1026"/>
</a>
</g>
</g>
<!-- Node13&#45;&gt;Node12 -->
<g id="edge14_Node000012_Node000013" class="edge">
<title>Node13&#45;&gt;Node12</title>
<g id="a_edge14_Node000012_Node000013"><a xlink:title=" ">
<path fill="none" stroke="#63b8ff" d="M780.89,-1015.14C777.59,-979.93 772.25,-923.03 766.71,-863.86"/>
<polygon fill="none" stroke="#63b8ff" points="777.37,-1015.09 781.79,-1024.72 784.34,-1014.43 777.37,-1015.09"/>
</a>
</g>
</g>
</g>
</svg>
