<?xml version="1.0" encoding="UTF-8" standalone="no"?>
<!DOCTYPE svg PUBLIC "-//W3C//DTD SVG 1.1//EN"
 "http://www.w3.org/Graphics/SVG/1.1/DTD/svg11.dtd">
<!-- Generated by graphviz version 12.2.1 (20241206.2353)
 -->
<!-- Title: fr.softsf.sudokufx.utils.sudoku.GridMaster.getPossibilitesGrilleAResoudreFacile Pages: 1 -->
<!--zoomable 140 -->

<svg id="main" version="1.1" xmlns="http://www.w3.org/2000/svg" xmlns:xlink="http://www.w3.org/1999/xlink" xml:space="preserve" onload="init(evt)">

<style type="text/css"><![CDATA[
.node, .edge {opacity: 0.7;}
.node.selected, .edge.selected {opacity: 1;}
.edge:hover path { stroke: red; }
.edge:hover polygon { stroke: red; fill: red; }
]]></style>

<defs>
  <circle id="rim" cx="0" cy="0" r="7"/>
  <circle id="rim2" cx="0" cy="0" r="3.5"/>
  <g id="zoomPlus">
    <use xlink:href="#rim" fill="#404040"><set attributeName="fill" to="#808080" begin="zoomplus.mouseover" end="zoomplus.mouseout"/></use>
    <path d="M-4,0h8M0,-4v8" fill="none" stroke="white" stroke-width="1.5" pointer-events="none"/>
  </g>
  <g id="zoomMin">
    <use xlink:href="#rim" fill="#404040"><set attributeName="fill" to="#808080" begin="zoomminus.mouseover" end="zoomminus.mouseout"/></use>
    <path d="M-4,0h8" fill="none" stroke="white" stroke-width="1.5" pointer-events="none"/>
  </g>
  <g id="arrowUp" transform="translate(30 24)">
    <use xlink:href="#rim"/>
    <path pointer-events="none" fill="none" stroke="white" stroke-width="1.5" d="M0,-3.0v7 M-2.5,-0.5L0,-3.0L2.5,-0.5"/>
  </g>
  <g id="arrowRight" transform="rotate(90) translate(36 -43)">
    <use xlink:href="#rim"/>
    <path pointer-events="none" fill="none" stroke="white" stroke-width="1.5" d="M0,-3.0v7 M-2.5,-0.5L0,-3.0L2.5,-0.5"/>
  </g>
  <g id="arrowDown" transform="rotate(180) translate(-30 -48)">
    <use xlink:href="#rim"/>
    <path pointer-events="none" fill="none" stroke="white" stroke-width="1.5" d="M0,-3.0v7 M-2.5,-0.5L0,-3.0L2.5,-0.5"/>
  </g>
  <g id="arrowLeft" transform="rotate(270) translate(-36 17)">
    <use xlink:href="#rim"/>
    <path pointer-events="none" fill="none" stroke="white" stroke-width="1.5" d="M0,-3.0v7 M-2.5,-0.5L0,-3.0L2.5,-0.5"/>
  </g>
  <g id="resetDef">
    <use xlink:href="#rim2" fill="#404040"><set attributeName="fill" to="#808080" begin="reset.mouseover" end="reset.mouseout"/></use>
  </g>
</defs>
<script type="application/ecmascript">
var viewWidth = 1096;
var viewHeight = 140;
var sectionId = 'dynsection-7';
</script>
<script type="application/ecmascript" xlink:href="svg.min.js"/>
<svg id="graph" class="graph">
<g id="viewport">
<title>fr.softsf.sudokufx.utils.sudoku.GridMaster.getPossibilitesGrilleAResoudreFacile</title>
<!-- Node1 -->
<g id="Node000001" class="node">
<title>Node1</title>
<g id="a_Node000001"><a xlink:title="Génère une grille de Sudoku de niveau facile (sinon une grille par défaut est retournée après une sec...">
<polygon fill="#999999" stroke="#666666" points="228.25,-82 0,-82 0,-50 228.25,-50 228.25,-82"/>
<text text-anchor="start" x="8" y="-68.5" font-family="Helvetica,sans-Serif" font-size="10.00">fr.softsf.sudokufx.utils.sudoku.</text>
<text text-anchor="middle" x="114.12" y="-56.5" font-family="Helvetica,sans-Serif" font-size="10.00">GridMaster.getPossibilitesGrilleAResoudreFacile</text>
</a>
</g>
</g>
<!-- Node2 -->
<g id="Node000002" class="node">
<title>Node2</title>
<g id="a_Node000002"><a xlink:href="classfr_1_1softsf_1_1sudokufx_1_1utils_1_1sudoku_1_1_grid_master.html#a7cd9c1114c0d87a5341aedac86f6407a" target="_top" xlink:title="Calcule la durée de temps écoulé entre la dernière et la nouvelle demande de grille en millisecondes.">
<polygon fill="white" stroke="#666666" points="437.75,-132 286.75,-132 286.75,-100 437.75,-100 437.75,-132"/>
<text text-anchor="start" x="294.75" y="-118.5" font-family="Helvetica,sans-Serif" font-size="10.00">fr.softsf.sudokufx.utils.sudoku.</text>
<text text-anchor="middle" x="362.25" y="-106.5" font-family="Helvetica,sans-Serif" font-size="10.00">GridMaster.dureeEnMs</text>
</a>
</g>
</g>
<!-- Node1&#45;&gt;Node2 -->
<g id="edge1_Node000001_Node000002" class="edge">
<title>Node1&#45;&gt;Node2</title>
<g id="a_edge1_Node000001_Node000002"><a xlink:title=" ">
<path fill="none" stroke="#63b8ff" d="M196.06,-82.44C221.44,-87.6 249.55,-93.31 275.27,-98.53"/>
<polygon fill="#63b8ff" stroke="#63b8ff" points="274.54,-101.96 285.03,-100.52 275.93,-95.1 274.54,-101.96"/>
</a>
</g>
</g>
<!-- Node3 -->
<g id="Node000003" class="node">
<title>Node3</title>
<g id="a_Node000003"><a xlink:href="classfr_1_1softsf_1_1sudokufx_1_1utils_1_1sudoku_1_1_grid_master.html#a87c5a8d088aaceea8e0ca03806e30bcf" target="_top" xlink:title="Masque des cases dans la grille et calcule la somme des possibilités restantes.">
<polygon fill="white" stroke="#666666" points="460.25,-82 264.25,-82 264.25,-50 460.25,-50 460.25,-82"/>
<text text-anchor="start" x="272.25" y="-68.5" font-family="Helvetica,sans-Serif" font-size="10.00">fr.softsf.sudokufx.utils.sudoku.</text>
<text text-anchor="middle" x="362.25" y="-56.5" font-family="Helvetica,sans-Serif" font-size="10.00">GridMaster.getPossibilitesGrilleWhileNok</text>
</a>
</g>
</g>
<!-- Node1&#45;&gt;Node3 -->
<g id="edge2_Node000001_Node000003" class="edge">
<title>Node1&#45;&gt;Node3</title>
<g id="a_edge2_Node000001_Node000003"><a xlink:title=" ">
<path fill="none" stroke="#63b8ff" d="M228.46,-66C236.52,-66 244.64,-66 252.67,-66"/>
<polygon fill="#63b8ff" stroke="#63b8ff" points="252.45,-69.5 262.45,-66 252.45,-62.5 252.45,-69.5"/>
</a>
</g>
</g>
<!-- Node9 -->
<g id="Node000009" class="node">
<title>Node9</title>
<g id="a_Node000009"><a xlink:href="classfr_1_1softsf_1_1sudokufx_1_1utils_1_1sudoku_1_1_grid_master.html#a5bb14564ed4b6a7cded51e1bedc72faf" target="_top" xlink:title="Génère un nombre entier aléatoire dans un intervalle spécifié.">
<polygon fill="white" stroke="#666666" points="437.75,-32 286.75,-32 286.75,0 437.75,0 437.75,-32"/>
<text text-anchor="start" x="294.75" y="-18.5" font-family="Helvetica,sans-Serif" font-size="10.00">fr.softsf.sudokufx.utils.sudoku.</text>
<text text-anchor="middle" x="362.25" y="-6.5" font-family="Helvetica,sans-Serif" font-size="10.00">GridMaster.nombreAleatoire</text>
</a>
</g>
</g>
<!-- Node1&#45;&gt;Node9 -->
<g id="edge8_Node000001_Node000009" class="edge">
<title>Node1&#45;&gt;Node9</title>
<g id="a_edge8_Node000001_Node000009"><a xlink:title=" ">
<path fill="none" stroke="#63b8ff" d="M196.06,-49.56C221.44,-44.4 249.55,-38.69 275.27,-33.47"/>
<polygon fill="#63b8ff" stroke="#63b8ff" points="275.93,-36.9 285.03,-31.48 274.54,-30.04 275.93,-36.9"/>
</a>
</g>
</g>
<!-- Node4 -->
<g id="Node000004" class="node">
<title>Node4</title>
<g id="a_Node000004"><a xlink:href="classfr_1_1softsf_1_1sudokufx_1_1utils_1_1sudoku_1_1_grid_master.html#a89fed8ecc70b911e60ca540cca93ef78" target="_top" xlink:title="Cache un nombre spécifié de cases dans la grille à résoudre en les remplaçant par zéro.">
<polygon fill="white" stroke="#666666" points="678.38,-132 527.38,-132 527.38,-100 678.38,-100 678.38,-132"/>
<text text-anchor="start" x="535.38" y="-118.5" font-family="Helvetica,sans-Serif" font-size="10.00">fr.softsf.sudokufx.utils.sudoku.</text>
<text text-anchor="middle" x="602.88" y="-106.5" font-family="Helvetica,sans-Serif" font-size="10.00">GridMaster.cacherLesCases</text>
</a>
</g>
</g>
<!-- Node3&#45;&gt;Node4 -->
<g id="edge3_Node000003_Node000004" class="edge">
<title>Node3&#45;&gt;Node4</title>
<g id="a_edge3_Node000003_Node000004"><a xlink:title=" ">
<path fill="none" stroke="#63b8ff" d="M441.72,-82.44C465.51,-87.43 491.77,-92.93 516.02,-98.01"/>
<polygon fill="#63b8ff" stroke="#63b8ff" points="515.02,-101.38 525.53,-100 516.46,-94.53 515.02,-101.38"/>
</a>
</g>
</g>
<!-- Node5 -->
<g id="Node000005" class="node">
<title>Node5</title>
<g id="a_Node000005"><a xlink:href="classfr_1_1softsf_1_1sudokufx_1_1utils_1_1sudoku_1_1_grid_master.html#a46d1bfadcbb911b5a718508185da341f" target="_top" xlink:title="Calcule les possibilités pour chaque case de la grille de Sudoku.">
<polygon fill="white" stroke="#666666" points="678.38,-82 527.38,-82 527.38,-50 678.38,-50 678.38,-82"/>
<text text-anchor="start" x="535.38" y="-68.5" font-family="Helvetica,sans-Serif" font-size="10.00">fr.softsf.sudokufx.utils.sudoku.</text>
<text text-anchor="middle" x="602.88" y="-56.5" font-family="Helvetica,sans-Serif" font-size="10.00">GridMaster.getPossibilites</text>
</a>
</g>
</g>
<!-- Node3&#45;&gt;Node5 -->
<g id="edge4_Node000003_Node000005" class="edge">
<title>Node3&#45;&gt;Node5</title>
<g id="a_edge4_Node000003_Node000005"><a xlink:title=" ">
<path fill="none" stroke="#63b8ff" d="M460.65,-66C478.92,-66 497.9,-66 515.8,-66"/>
<polygon fill="#63b8ff" stroke="#63b8ff" points="515.57,-69.5 525.57,-66 515.57,-62.5 515.57,-69.5"/>
</a>
</g>
</g>
<!-- Node8 -->
<g id="Node000008" class="node">
<title>Node8</title>
<g id="a_Node000008"><a xlink:href="classfr_1_1softsf_1_1sudokufx_1_1utils_1_1sudoku_1_1_grid_master.html#a700c8e5d20670ded6ac4b56312846839" target="_top" xlink:title="Calcule la somme des possibilités de toutes les cases de la grille de Sudoku.">
<polygon fill="white" stroke="#666666" points="709.5,-32 496.25,-32 496.25,0 709.5,0 709.5,-32"/>
<text text-anchor="start" x="504.25" y="-18.5" font-family="Helvetica,sans-Serif" font-size="10.00">fr.softsf.sudokufx.utils.sudoku.</text>
<text text-anchor="middle" x="602.88" y="-6.5" font-family="Helvetica,sans-Serif" font-size="10.00">GridMaster.sommeDesPossibilitesDeLaGrille</text>
</a>
</g>
</g>
<!-- Node3&#45;&gt;Node8 -->
<g id="edge7_Node000003_Node000008" class="edge">
<title>Node3&#45;&gt;Node8</title>
<g id="a_edge7_Node000003_Node000008"><a xlink:title=" ">
<path fill="none" stroke="#63b8ff" d="M441.72,-49.56C464.25,-44.84 488.99,-39.65 512.14,-34.8"/>
<polygon fill="#63b8ff" stroke="#63b8ff" points="512.81,-38.24 521.88,-32.76 511.38,-31.39 512.81,-38.24"/>
</a>
</g>
</g>
<!-- Node6 -->
<g id="Node000006" class="node">
<title>Node6</title>
<g id="a_Node000006"><a xlink:href="classfr_1_1softsf_1_1sudokufx_1_1utils_1_1sudoku_1_1_grid_master.html#ad1a85240278a682b9cf73c8d8ec6398d" target="_top" xlink:title="Initialise le tableau des possibilités pour chaque case.">
<polygon fill="white" stroke="#666666" points="901,-82 745.5,-82 745.5,-50 901,-50 901,-82"/>
<text text-anchor="start" x="753.5" y="-68.5" font-family="Helvetica,sans-Serif" font-size="10.00">fr.softsf.sudokufx.utils.sudoku.</text>
<text text-anchor="middle" x="823.25" y="-56.5" font-family="Helvetica,sans-Serif" font-size="10.00">GridMaster.initialiserPossibilites</text>
</a>
</g>
</g>
<!-- Node5&#45;&gt;Node6 -->
<g id="edge5_Node000005_Node000006" class="edge">
<title>Node5&#45;&gt;Node6</title>
<g id="a_edge5_Node000005_Node000006"><a xlink:title=" ">
<path fill="none" stroke="#63b8ff" d="M678.72,-66C696.51,-66 715.66,-66 733.99,-66"/>
<polygon fill="#63b8ff" stroke="#63b8ff" points="733.76,-69.5 743.76,-66 733.76,-62.5 733.76,-69.5"/>
</a>
</g>
</g>
<!-- Node7 -->
<g id="Node000007" class="node">
<title>Node7</title>
<g id="a_Node000007"><a xlink:href="classfr_1_1softsf_1_1sudokufx_1_1utils_1_1sudoku_1_1_grid_master.html#aab28df678a8069dd22b13a687bb2ba5b" target="_top" xlink:title="Élimine la valeur des possibilités des cases alentours.">
<polygon fill="white" stroke="#666666" points="1088,-82 937,-82 937,-50 1088,-50 1088,-82"/>
<text text-anchor="start" x="945" y="-68.5" font-family="Helvetica,sans-Serif" font-size="10.00">fr.softsf.sudokufx.utils.sudoku.</text>
<text text-anchor="middle" x="1012.5" y="-56.5" font-family="Helvetica,sans-Serif" font-size="10.00">GridMaster.eliminerPossibilite</text>
</a>
</g>
</g>
<!-- Node6&#45;&gt;Node7 -->
<g id="edge6_Node000006_Node000007" class="edge">
<title>Node6&#45;&gt;Node7</title>
<g id="a_edge6_Node000006_Node000007"><a xlink:title=" ">
<path fill="none" stroke="#63b8ff" d="M901.49,-66C909.28,-66 917.22,-66 925.09,-66"/>
<polygon fill="#63b8ff" stroke="#63b8ff" points="925.03,-69.5 935.03,-66 925.03,-62.5 925.03,-69.5"/>
</a>
</g>
</g>
</g>
</svg>

<g id="navigator" transform="translate(0 0)" fill="#404254">
  <rect fill="#f2f5e9" fill-opacity="0.5" stroke="#606060" stroke-width=".5" x="0" y="0" width="60" height="60"/>
  <use id="zoomplus" xlink:href="#zoomPlus" x="17" y="9" onmousedown="handleZoom(evt,'in')"/>
  <use id="zoomminus" xlink:href="#zoomMin" x="42" y="9" onmousedown="handleZoom(evt,'out')"/>
  <use id="reset" xlink:href="#resetDef" x="30" y="36" onmousedown="handleReset()"/>
   <use id="arrowup" xlink:href="#arrowUp" x="0" y="0" onmousedown="handlePan(0,-1)"/>
  <use id="arrowright" xlink:href="#arrowRight" x="0" y="0" onmousedown="handlePan(1,0)"/>
  <use id="arrowdown" xlink:href="#arrowDown" x="0" y="0" onmousedown="handlePan(0,1)"/>
  <use id="arrowleft" xlink:href="#arrowLeft" x="0" y="0" onmousedown="handlePan(-1,0)"/>
</g>
<svg viewBox="0 0 15 15" width="100%" height="30px" preserveAspectRatio="xMaxYMin meet">
 <g id="arrow_out" transform="scale(0.3 0.3)">
  <a xlink:href="classfr_1_1softsf_1_1sudokufx_1_1utils_1_1sudoku_1_1_grid_master_ad37a10f9784efa27bdcaa13b7cb10de6_cgraph_org.svg" target="_base">
   <rect id="button" ry="5" rx="5" y="6" x="6" height="38" width="38"
        fill="#f2f5e9" fill-opacity="0.5" stroke="#606060" stroke-width="1.0"/>
   <path id="arrow"
     d="M 11.500037,31.436501 C 11.940474,20.09759 22.043105,11.32322 32.158766,21.979434 L 37.068811,17.246167 C 37.068811,17.246167 37.088388,32 37.088388,32 L 22.160133,31.978069 C 22.160133,31.978069 26.997745,27.140456 26.997745,27.140456 C 18.528582,18.264221 13.291696,25.230495 11.500037,31.436501 z"
     style="fill:#404040;"/>
  </a>
 </g>
</svg>

<style type='text/css'>
<![CDATA[
[data-mouse-over-selected='false'] { opacity: 0.7; }
[data-mouse-over-selected='true']  { opacity: 1.0; }
]]>
</style>
<script type="application/ecmascript"><![CDATA[
document.addEventListener('DOMContentLoaded', (event) => {
  highlightEdges();
  highlightAdjacentNodes();
});
]]></script>
</svg>
