<?xml version="1.0" encoding="UTF-8" standalone="no"?>
<!DOCTYPE svg PUBLIC "-//W3C//DTD SVG 1.1//EN"
 "http://www.w3.org/Graphics/SVG/1.1/DTD/svg11.dtd">
<!-- Generated by graphviz version 12.2.0 (20241103.1931)
 -->
<!-- Title: fr.softsf.sudokufx.view.FullMenuView Pages: 1 -->
<!--zoomable 1193 -->

<svg id="main" version="1.1" xmlns="http://www.w3.org/2000/svg" xmlns:xlink="http://www.w3.org/1999/xlink" xml:space="preserve" onload="init(evt)">

<style type="text/css"><![CDATA[
.node, .edge {opacity: 0.7;}
.node.selected, .edge.selected {opacity: 1;}
.edge:hover path { stroke: red; }
.edge:hover polygon { stroke: red; fill: red; }
]]></style>

<defs>
  <circle id="rim" cx="0" cy="0" r="7"/>
  <circle id="rim2" cx="0" cy="0" r="3.5"/>
  <g id="zoomPlus">
    <use xlink:href="#rim" fill="#404040"><set attributeName="fill" to="#808080" begin="zoomplus.mouseover" end="zoomplus.mouseout"/></use>
    <path d="M-4,0h8M0,-4v8" fill="none" stroke="white" stroke-width="1.5" pointer-events="none"/>
  </g>
  <g id="zoomMin">
    <use xlink:href="#rim" fill="#404040"><set attributeName="fill" to="#808080" begin="zoomminus.mouseover" end="zoomminus.mouseout"/></use>
    <path d="M-4,0h8" fill="none" stroke="white" stroke-width="1.5" pointer-events="none"/>
  </g>
  <g id="arrowUp" transform="translate(30 24)">
    <use xlink:href="#rim"/>
    <path pointer-events="none" fill="none" stroke="white" stroke-width="1.5" d="M0,-3.0v7 M-2.5,-0.5L0,-3.0L2.5,-0.5"/>
  </g>
  <g id="arrowRight" transform="rotate(90) translate(36 -43)">
    <use xlink:href="#rim"/>
    <path pointer-events="none" fill="none" stroke="white" stroke-width="1.5" d="M0,-3.0v7 M-2.5,-0.5L0,-3.0L2.5,-0.5"/>
  </g>
  <g id="arrowDown" transform="rotate(180) translate(-30 -48)">
    <use xlink:href="#rim"/>
    <path pointer-events="none" fill="none" stroke="white" stroke-width="1.5" d="M0,-3.0v7 M-2.5,-0.5L0,-3.0L2.5,-0.5"/>
  </g>
  <g id="arrowLeft" transform="rotate(270) translate(-36 17)">
    <use xlink:href="#rim"/>
    <path pointer-events="none" fill="none" stroke="white" stroke-width="1.5" d="M0,-3.0v7 M-2.5,-0.5L0,-3.0L2.5,-0.5"/>
  </g>
  <g id="resetDef">
    <use xlink:href="#rim2" fill="#404040"><set attributeName="fill" to="#808080" begin="reset.mouseover" end="reset.mouseout"/></use>
  </g>
</defs>
<script type="application/ecmascript">
var viewWidth = 942;
var viewHeight = 1193;
var sectionId = 'dynsection-1';
</script>
<script type="application/ecmascript" xlink:href="svg.min.js"/>
<svg id="graph" class="graph">
<g id="viewport">
<title>fr.softsf.sudokufx.view.FullMenuView</title>
<!-- Node1 -->
<g id="Node000001" class="node">
<title>Node1</title>
<g id="a_Node000001"><a xlink:title="View class for the full menu screen of the Sudoku application.">
<polygon fill="#999999" stroke="none" points="532.5,-244 384,-244 384,0 532.5,0 532.5,-244"/>
<text text-anchor="start" x="407.25" y="-230.5" font-family="Helvetica,sans-Serif" font-size="10.00">fr.softsf.sudokufx.view.</text>
<text text-anchor="start" x="427.5" y="-218.5" font-family="Helvetica,sans-Serif" font-size="10.00">FullMenuView</text>
<text text-anchor="start" x="389.5" y="-202.5" font-family="Helvetica,sans-Serif" font-size="10.00">&#45;</text>
<text text-anchor="start" x="398" y="-202.5" font-family="Helvetica,sans-Serif" font-size="10.00">static final double</text>
<text text-anchor="start" x="398" y="-190.5" font-family="Helvetica,sans-Serif" font-size="10.00"> FADE_IN_IN_SECONDS</text>
<text text-anchor="start" x="398" y="-178.5" font-family="Helvetica,sans-Serif" font-size="10.00">_AFTER_SPLASHSCREEN</text>
<text text-anchor="start" x="388" y="-162.5" font-family="Helvetica,sans-Serif" font-size="10.00">+</text>
<text text-anchor="start" x="398" y="-162.5" font-family="Helvetica,sans-Serif" font-size="10.00">void openingMainStage</text>
<text text-anchor="start" x="398" y="-150.5" font-family="Helvetica,sans-Serif" font-size="10.00">(final ISplashScreenView</text>
<text text-anchor="start" x="398" y="-138.5" font-family="Helvetica,sans-Serif" font-size="10.00"> iSplashScreenView)</text>
<text text-anchor="start" x="389.5" y="-122.5" font-family="Helvetica,sans-Serif" font-size="10.00">&#45;</text>
<text text-anchor="start" x="398" y="-122.5" font-family="Helvetica,sans-Serif" font-size="10.00">void initialize()</text>
<text text-anchor="start" x="389.5" y="-106.5" font-family="Helvetica,sans-Serif" font-size="10.00">&#45;</text>
<text text-anchor="start" x="398" y="-106.5" font-family="Helvetica,sans-Serif" font-size="10.00">void onHelloButtonClick</text>
<text text-anchor="start" x="398" y="-94.5" font-family="Helvetica,sans-Serif" font-size="10.00">(ActionEvent event)</text>
<text text-anchor="start" x="389.5" y="-78.5" font-family="Helvetica,sans-Serif" font-size="10.00">&#45;</text>
<text text-anchor="start" x="398" y="-78.5" font-family="Helvetica,sans-Serif" font-size="10.00">void openingConfigureStage()</text>
<text text-anchor="start" x="389.5" y="-62.5" font-family="Helvetica,sans-Serif" font-size="10.00">&#45;</text>
<text text-anchor="start" x="398" y="-62.5" font-family="Helvetica,sans-Serif" font-size="10.00">void openingFadeIn</text>
<text text-anchor="start" x="398" y="-50.5" font-family="Helvetica,sans-Serif" font-size="10.00">(final Node node)</text>
<text text-anchor="start" x="389.5" y="-34.5" font-family="Helvetica,sans-Serif" font-size="10.00">&#45;</text>
<text text-anchor="start" x="398" y="-34.5" font-family="Helvetica,sans-Serif" font-size="10.00">void openingMaximizePrimary</text>
<text text-anchor="start" x="398" y="-22.5" font-family="Helvetica,sans-Serif" font-size="10.00">Stage()</text>
<text text-anchor="start" x="389.5" y="-6.5" font-family="Helvetica,sans-Serif" font-size="10.00">&#45;</text>
<text text-anchor="start" x="398" y="-6.5" font-family="Helvetica,sans-Serif" font-size="10.00">void openingShowStage()</text>
<polygon fill="#666666" stroke="#666666" points="384,-214 384,-214 532.5,-214 532.5,-214 384,-214"/>
<polygon fill="#666666" stroke="#666666" points="384,-174 384,-174 396,-174 396,-174 384,-174"/>
<polygon fill="#666666" stroke="#666666" points="396,-174 396,-174 532.5,-174 532.5,-174 396,-174"/>
<polygon fill="none" stroke="#666666" points="384,0 384,-244 532.5,-244 532.5,0 384,0"/>
</a>
</g>
</g>
<!-- Node2 -->
<g id="Node000002" class="node">
<title>Node2</title>
<g id="a_Node000002"><a xlink:href="interfacefr_1_1softsf_1_1sudokufx_1_1_sudo_main_1_1_i_primary_stage_view.html" target="_top" xlink:title="Interface for the primary stage view.">
<polygon fill="white" stroke="none" points="172.5,-566 0,-566 0,-478 172.5,-478 172.5,-566"/>
<text text-anchor="start" x="23.25" y="-552.5" font-family="Helvetica,sans-Serif" font-size="10.00">fr.softsf.sudokufx.SudoMain.</text>
<text text-anchor="start" x="44.25" y="-540.5" font-family="Helvetica,sans-Serif" font-size="10.00">IPrimaryStageView</text>
<text text-anchor="start" x="84.75" y="-524.5" font-family="Helvetica,sans-Serif" font-size="10.00"> </text>
<text text-anchor="start" x="4" y="-508.5" font-family="Helvetica,sans-Serif" font-size="10.00">+</text>
<text text-anchor="start" x="14" y="-508.5" font-family="Helvetica,sans-Serif" font-size="10.00">void openingMainStage</text>
<text text-anchor="start" x="14" y="-496.5" font-family="Helvetica,sans-Serif" font-size="10.00">(ISplashScreenView iSplashScreen</text>
<text text-anchor="start" x="14" y="-484.5" font-family="Helvetica,sans-Serif" font-size="10.00">View)</text>
<polygon fill="#666666" stroke="#666666" points="0,-536 0,-536 172.5,-536 172.5,-536 0,-536"/>
<polygon fill="#666666" stroke="#666666" points="0,-520 0,-520 172.5,-520 172.5,-520 0,-520"/>
<polygon fill="none" stroke="#666666" points="0,-478 0,-566 172.5,-566 172.5,-478 0,-478"/>
</a>
</g>
</g>
<!-- Node2&#45;&gt;Node1 -->
<g id="edge1_Node000001_Node000002" class="edge">
<title>Node2&#45;&gt;Node1</title>
<g id="a_edge1_Node000001_Node000002"><a xlink:title=" ">
<path fill="none" stroke="#63b8ff" d="M102.2,-467.71C117.74,-421.43 144.57,-354.16 182.25,-304 234.48,-234.48 321.77,-183.78 384.2,-154.01"/>
<polygon fill="none" stroke="#63b8ff" points="98.95,-466.39 99.15,-476.98 105.6,-468.57 98.95,-466.39"/>
</a>
</g>
</g>
<!-- Node3 -->
<g id="Node000003" class="node">
<title>Node3</title>
<g id="a_Node000003"><a xlink:title=" ">
<polygon fill="white" stroke="none" points="217.62,-548 190.88,-548 190.88,-496 217.62,-496 217.62,-548"/>
<text text-anchor="start" x="194.88" y="-534.5" font-family="Helvetica,sans-Serif" font-size="10.00">Text</text>
<text text-anchor="start" x="202.75" y="-518.5" font-family="Helvetica,sans-Serif" font-size="10.00"> </text>
<text text-anchor="start" x="202.75" y="-502.5" font-family="Helvetica,sans-Serif" font-size="10.00"> </text>
<polygon fill="#666666" stroke="#666666" points="190.88,-530 190.88,-530 217.62,-530 217.62,-530 190.88,-530"/>
<polygon fill="#666666" stroke="#666666" points="190.88,-514 190.88,-514 217.62,-514 217.62,-514 190.88,-514"/>
<polygon fill="none" stroke="#666666" points="190.88,-496 190.88,-548 217.62,-548 217.62,-496 190.88,-496"/>
</a>
</g>
</g>
<!-- Node3&#45;&gt;Node1 -->
<g id="edge2_Node000001_Node000003" class="edge">
<title>Node3&#45;&gt;Node1</title>
<g id="a_edge2_Node000001_Node000003"><a xlink:title=" ">
<path fill="none" stroke="#63b8ff" d="M202.7,-496.3C200.97,-455.02 201.2,-370.03 226.25,-304 251.43,-237.64 317.6,-190 372.86,-160.31"/>
<polygon fill="none" stroke="#63b8ff" points="372.68,-160.4 376.14,-154.08 383.32,-154.84 379.85,-161.17 372.68,-160.4"/>
</a>
</g>
<text text-anchor="middle" x="262.28" y="-276.5" font-family="Helvetica,sans-Serif" font-size="10.00" fill="grey"> &#45;text1</text>
<text text-anchor="middle" x="262.28" y="-264.5" font-family="Helvetica,sans-Serif" font-size="10.00" fill="grey">&#45;text2</text>
</g>
<!-- Node4 -->
<g id="Node000004" class="node">
<title>Node4</title>
<g id="a_Node000004"><a xlink:title=" ">
<polygon fill="white" stroke="none" points="269,-548 235.5,-548 235.5,-496 269,-496 269,-548"/>
<text text-anchor="start" x="239.5" y="-534.5" font-family="Helvetica,sans-Serif" font-size="10.00">Stage</text>
<text text-anchor="start" x="250.75" y="-518.5" font-family="Helvetica,sans-Serif" font-size="10.00"> </text>
<text text-anchor="start" x="250.75" y="-502.5" font-family="Helvetica,sans-Serif" font-size="10.00"> </text>
<polygon fill="#666666" stroke="#666666" points="235.5,-530 235.5,-530 269,-530 269,-530 235.5,-530"/>
<polygon fill="#666666" stroke="#666666" points="235.5,-514 235.5,-514 269,-514 269,-514 235.5,-514"/>
<polygon fill="none" stroke="#666666" points="235.5,-496 235.5,-548 269,-548 269,-496 235.5,-496"/>
</a>
</g>
</g>
<!-- Node4&#45;&gt;Node1 -->
<g id="edge3_Node000001_Node000004" class="edge">
<title>Node4&#45;&gt;Node1</title>
<g id="a_edge3_Node000001_Node000004"><a xlink:title=" ">
<path fill="none" stroke="#63b8ff" d="M250.16,-496.12C247.71,-454.21 247.33,-367.86 278.25,-304 300.41,-258.23 338.87,-217.13 374.56,-185.7"/>
<polygon fill="none" stroke="#63b8ff" points="374.28,-185.94 376.21,-178.99 383.37,-178.1 381.44,-185.05 374.28,-185.94"/>
</a>
</g>
<text text-anchor="middle" x="335.08" y="-270.5" font-family="Helvetica,sans-Serif" font-size="10.00" fill="grey"> &#45;primaryStage</text>
</g>
<!-- Node5 -->
<g id="Node000005" class="node">
<title>Node5</title>
<g id="a_Node000005"><a xlink:href="classfr_1_1softsf_1_1sudokufx_1_1viewmodel_1_1_full_menu_view_model.html" target="_top" xlink:title="FullMenuViewModel with business logic (not final)">
<polygon fill="white" stroke="none" points="457,-612 287.5,-612 287.5,-432 457,-432 457,-612"/>
<text text-anchor="start" x="307.75" y="-598.5" font-family="Helvetica,sans-Serif" font-size="10.00">fr.softsf.sudokufx.viewmodel.</text>
<text text-anchor="start" x="328.38" y="-586.5" font-family="Helvetica,sans-Serif" font-size="10.00">FullMenuViewModel</text>
<text text-anchor="start" x="370.75" y="-570.5" font-family="Helvetica,sans-Serif" font-size="10.00"> </text>
<text text-anchor="start" x="291.5" y="-554.5" font-family="Helvetica,sans-Serif" font-size="10.00">+</text>
<text text-anchor="start" x="301.5" y="-554.5" font-family="Helvetica,sans-Serif" font-size="10.00">FullMenuViewModel</text>
<text text-anchor="start" x="301.5" y="-542.5" font-family="Helvetica,sans-Serif" font-size="10.00">(SoftwareService softwareService)</text>
<text text-anchor="start" x="291.5" y="-526.5" font-family="Helvetica,sans-Serif" font-size="10.00">+</text>
<text text-anchor="start" x="301.5" y="-526.5" font-family="Helvetica,sans-Serif" font-size="10.00">void test()</text>
<text text-anchor="start" x="291.5" y="-510.5" font-family="Helvetica,sans-Serif" font-size="10.00">+</text>
<text text-anchor="start" x="301.5" y="-510.5" font-family="Helvetica,sans-Serif" font-size="10.00">StringProperty welcomeProperty()</text>
<text text-anchor="start" x="293" y="-494.5" font-family="Helvetica,sans-Serif" font-size="10.00">&#45;</text>
<text text-anchor="start" x="301.5" y="-494.5" font-family="Helvetica,sans-Serif" font-size="10.00">void createSoftware()</text>
<text text-anchor="start" x="293" y="-478.5" font-family="Helvetica,sans-Serif" font-size="10.00">&#45;</text>
<text text-anchor="start" x="301.5" y="-478.5" font-family="Helvetica,sans-Serif" font-size="10.00">void setWelcome(String</text>
<text text-anchor="start" x="301.5" y="-466.5" font-family="Helvetica,sans-Serif" font-size="10.00"> output)</text>
<text text-anchor="start" x="293" y="-450.5" font-family="Helvetica,sans-Serif" font-size="10.00">&#45;</text>
<text text-anchor="start" x="301.5" y="-450.5" font-family="Helvetica,sans-Serif" font-size="10.00">void updateSoftware</text>
<text text-anchor="start" x="301.5" y="-438.5" font-family="Helvetica,sans-Serif" font-size="10.00">(SoftwareDto softwareToUpdate)</text>
<polygon fill="#666666" stroke="#666666" points="287.5,-582 287.5,-582 457,-582 457,-582 287.5,-582"/>
<polygon fill="#666666" stroke="#666666" points="287.5,-566 287.5,-566 457,-566 457,-566 287.5,-566"/>
<polygon fill="none" stroke="#666666" points="287.5,-432 287.5,-612 457,-612 457,-432 287.5,-432"/>
</a>
</g>
</g>
<!-- Node5&#45;&gt;Node1 -->
<g id="edge4_Node000001_Node000005" class="edge">
<title>Node5&#45;&gt;Node1</title>
<g id="a_edge4_Node000001_Node000005"><a xlink:title=" ">
<path fill="none" stroke="#63b8ff" d="M376.24,-432.1C380,-381.61 387.31,-317.57 401.5,-262 402.01,-260.01 402.54,-258.01 403.09,-256.01"/>
<polygon fill="none" stroke="#63b8ff" points="403.09,-256.01 400.94,-249.13 406.46,-244.49 408.61,-251.38 403.09,-256.01"/>
</a>
</g>
<text text-anchor="middle" x="448.38" y="-270.5" font-family="Helvetica,sans-Serif" font-size="10.00" fill="grey"> ~fullMenuViewModel</text>
</g>
<!-- Node6 -->
<g id="Node000006" class="node">
<title>Node6</title>
<g id="a_Node000006"><a xlink:href="classfr_1_1softsf_1_1sudokufx_1_1service_1_1_software_service.html" target="_top" xlink:title=" ">
<polygon fill="white" stroke="none" points="315.25,-932 159.25,-932 159.25,-788 315.25,-788 315.25,-932"/>
<text text-anchor="start" x="180.25" y="-918.5" font-family="Helvetica,sans-Serif" font-size="10.00">fr.softsf.sudokufx.service.</text>
<text text-anchor="start" x="201.25" y="-906.5" font-family="Helvetica,sans-Serif" font-size="10.00">SoftwareService</text>
<text text-anchor="start" x="235.75" y="-890.5" font-family="Helvetica,sans-Serif" font-size="10.00"> </text>
<text text-anchor="start" x="163.25" y="-874.5" font-family="Helvetica,sans-Serif" font-size="10.00">+</text>
<text text-anchor="start" x="173.25" y="-874.5" font-family="Helvetica,sans-Serif" font-size="10.00">SoftwareService(Software</text>
<text text-anchor="start" x="173.25" y="-862.5" font-family="Helvetica,sans-Serif" font-size="10.00">Repository softwareRepository)</text>
<text text-anchor="start" x="163.25" y="-846.5" font-family="Helvetica,sans-Serif" font-size="10.00">+</text>
<text text-anchor="start" x="173.25" y="-846.5" font-family="Helvetica,sans-Serif" font-size="10.00">Optional&lt; SoftwareDto</text>
<text text-anchor="start" x="173.25" y="-834.5" font-family="Helvetica,sans-Serif" font-size="10.00"> &gt; getSoftware()</text>
<text text-anchor="start" x="163.25" y="-818.5" font-family="Helvetica,sans-Serif" font-size="10.00">+</text>
<text text-anchor="start" x="173.25" y="-818.5" font-family="Helvetica,sans-Serif" font-size="10.00">Optional&lt; SoftwareDto</text>
<text text-anchor="start" x="173.25" y="-806.5" font-family="Helvetica,sans-Serif" font-size="10.00"> &gt; updateSoftware(SoftwareDto</text>
<text text-anchor="start" x="173.25" y="-794.5" font-family="Helvetica,sans-Serif" font-size="10.00"> softwareDto)</text>
<polygon fill="#666666" stroke="#666666" points="159.25,-902 159.25,-902 315.25,-902 315.25,-902 159.25,-902"/>
<polygon fill="#666666" stroke="#666666" points="159.25,-886 159.25,-886 315.25,-886 315.25,-886 159.25,-886"/>
<polygon fill="none" stroke="#666666" points="159.25,-788 159.25,-932 315.25,-932 315.25,-788 159.25,-788"/>
</a>
</g>
</g>
<!-- Node6&#45;&gt;Node5 -->
<g id="edge5_Node000005_Node000006" class="edge">
<title>Node6&#45;&gt;Node5</title>
<g id="a_edge5_Node000005_Node000006"><a xlink:title=" ">
<path fill="none" stroke="#63b8ff" d="M265.72,-788.15C284.92,-740.36 310.54,-676.59 331.85,-623.56"/>
<polygon fill="none" stroke="#63b8ff" points="331.79,-623.7 330.32,-616.64 336.27,-612.56 337.74,-619.62 331.79,-623.7"/>
</a>
</g>
<text text-anchor="middle" x="315.39" y="-760.5" font-family="Helvetica,sans-Serif" font-size="10.00" fill="grey"> &#45;softwareService</text>
</g>
<!-- Node7 -->
<g id="Node000007" class="node">
<title>Node7</title>
<g id="a_Node000007"><a xlink:href="interfacefr_1_1softsf_1_1sudokufx_1_1interfaces_1_1mapper_1_1_i_software_mapper.html" target="_top" xlink:title="This interface defines methods for mapping objects of type Software to objects of type SoftwareDto an...">
<polygon fill="white" stroke="none" points="181.5,-1084 13,-1084 13,-980 181.5,-980 181.5,-1084"/>
<text text-anchor="start" x="17" y="-1070.5" font-family="Helvetica,sans-Serif" font-size="10.00">fr.softsf.sudokufx.interfaces.mapper.</text>
<text text-anchor="start" x="60.12" y="-1058.5" font-family="Helvetica,sans-Serif" font-size="10.00">ISoftwareMapper</text>
<text text-anchor="start" x="95.75" y="-1042.5" font-family="Helvetica,sans-Serif" font-size="10.00"> </text>
<text text-anchor="start" x="23.12" y="-1026.5" font-family="Helvetica,sans-Serif" font-size="10.00">+</text>
<text text-anchor="start" x="39.25" y="-1026.5" font-family="Helvetica,sans-Serif" font-size="10.00">Software mapSoftwareDtoTo</text>
<text text-anchor="start" x="39.25" y="-1014.5" font-family="Helvetica,sans-Serif" font-size="10.00">Software(SoftwareDto dto)</text>
<text text-anchor="start" x="23.12" y="-998.5" font-family="Helvetica,sans-Serif" font-size="10.00">+</text>
<text text-anchor="start" x="39.25" y="-998.5" font-family="Helvetica,sans-Serif" font-size="10.00">SoftwareDto mapSoftwareTo</text>
<text text-anchor="start" x="39.25" y="-986.5" font-family="Helvetica,sans-Serif" font-size="10.00">Dto(Software software)</text>
<polygon fill="#666666" stroke="#666666" points="13,-1054 13,-1054 181.5,-1054 181.5,-1054 13,-1054"/>
<polygon fill="#666666" stroke="#666666" points="13,-1038 13,-1038 181.5,-1038 181.5,-1038 13,-1038"/>
<polygon fill="none" stroke="#666666" points="13,-980 13,-1084 181.5,-1084 181.5,-980 13,-980"/>
</a>
</g>
</g>
<!-- Node7&#45;&gt;Node6 -->
<g id="edge6_Node000006_Node000007" class="edge">
<title>Node7&#45;&gt;Node6</title>
<g id="a_edge6_Node000006_Node000007"><a xlink:title=" ">
<path fill="none" stroke="#63b8ff" d="M138.88,-980.45C148.9,-968.29 159.85,-954.99 170.69,-941.82"/>
<polygon fill="none" stroke="#63b8ff" points="170.74,-941.76 171.47,-934.58 178.37,-932.49 177.65,-939.67 170.74,-941.76"/>
</a>
</g>
<text text-anchor="middle" x="202.8" y="-952.5" font-family="Helvetica,sans-Serif" font-size="10.00" fill="grey"> &#45;iSoftwareMapper</text>
</g>
<!-- Node7&#45;&gt;Node7 -->
<g id="edge7_Node000007_Node000007" class="edge">
<title>Node7&#45;&gt;Node7</title>
<g id="a_edge7_Node000007_Node000007"><a xlink:title=" ">
<path fill="none" stroke="#63b8ff" d="M181.49,-1043.58C192.33,-1041.58 199.5,-1037.71 199.5,-1032 199.5,-1028.87 197.36,-1026.3 193.64,-1024.29"/>
<polygon fill="none" stroke="#63b8ff" points="193.78,-1024.33 186.85,-1026.32 182.35,-1020.69 189.28,-1018.7 193.78,-1024.33"/>
</a>
</g>
<text text-anchor="middle" x="229.5" y="-1028.5" font-family="Helvetica,sans-Serif" font-size="10.00" fill="grey"> +INSTANCE</text>
</g>
<!-- Node8 -->
<g id="Node000008" class="node">
<title>Node8</title>
<g id="a_Node000008"><a xlink:href="interfacefr_1_1softsf_1_1sudokufx_1_1repository_1_1_software_repository.html" target="_top" xlink:title=" ">
<polygon fill="white" stroke="none" points="410.5,-1070 278,-1070 278,-994 410.5,-994 410.5,-1070"/>
<text text-anchor="start" x="282" y="-1056.5" font-family="Helvetica,sans-Serif" font-size="10.00">fr.softsf.sudokufx.repository.</text>
<text text-anchor="start" x="301.12" y="-1044.5" font-family="Helvetica,sans-Serif" font-size="10.00">SoftwareRepository</text>
<text text-anchor="start" x="342.75" y="-1028.5" font-family="Helvetica,sans-Serif" font-size="10.00"> </text>
<text text-anchor="start" x="287.56" y="-1012.5" font-family="Helvetica,sans-Serif" font-size="10.00">+</text>
<text text-anchor="start" x="303.12" y="-1012.5" font-family="Helvetica,sans-Serif" font-size="10.00">Optional&lt; Software</text>
<text text-anchor="start" x="303.12" y="-1000.5" font-family="Helvetica,sans-Serif" font-size="10.00"> &gt; findFirstSoftware()</text>
<polygon fill="#666666" stroke="#666666" points="278,-1040 278,-1040 410.5,-1040 410.5,-1040 278,-1040"/>
<polygon fill="#666666" stroke="#666666" points="278,-1024 278,-1024 410.5,-1024 410.5,-1024 278,-1024"/>
<polygon fill="none" stroke="#666666" points="278,-994 278,-1070 410.5,-1070 410.5,-994 278,-994"/>
</a>
</g>
</g>
<!-- Node8&#45;&gt;Node6 -->
<g id="edge8_Node000006_Node000008" class="edge">
<title>Node8&#45;&gt;Node6</title>
<g id="a_edge8_Node000006_Node000008"><a xlink:title=" ">
<path fill="none" stroke="#63b8ff" d="M321.03,-994.11C311.47,-978.92 299.98,-960.67 288.62,-942.62"/>
<polygon fill="none" stroke="#63b8ff" points="288.65,-942.66 282.07,-939.71 282.25,-932.5 288.84,-935.45 288.65,-942.66"/>
</a>
</g>
<text text-anchor="middle" x="345.71" y="-952.5" font-family="Helvetica,sans-Serif" font-size="10.00" fill="grey"> &#45;softwareRepository</text>
</g>
<!-- Node9 -->
<g id="Node000009" class="node">
<title>Node9</title>
<g id="a_Node000009"><a xlink:title=" ">
<polygon fill="white" stroke="none" points="405.25,-1185 283.25,-1185 283.25,-1121 405.25,-1121 405.25,-1185"/>
<text text-anchor="start" x="287.25" y="-1171.5" font-family="Helvetica,sans-Serif" font-size="10.00">JpaRepository&lt; Software,</text>
<text text-anchor="start" x="327.75" y="-1159.5" font-family="Helvetica,sans-Serif" font-size="10.00"> Long &gt;</text>
<text text-anchor="start" x="342.75" y="-1143.5" font-family="Helvetica,sans-Serif" font-size="10.00"> </text>
<text text-anchor="start" x="342.75" y="-1127.5" font-family="Helvetica,sans-Serif" font-size="10.00"> </text>
<polygon fill="#666666" stroke="#666666" points="283.25,-1155 283.25,-1155 405.25,-1155 405.25,-1155 283.25,-1155"/>
<polygon fill="#666666" stroke="#666666" points="283.25,-1139 283.25,-1139 405.25,-1139 405.25,-1139 283.25,-1139"/>
<polygon fill="none" stroke="#666666" points="283.25,-1121 283.25,-1185 405.25,-1185 405.25,-1121 283.25,-1121"/>
</a>
</g>
</g>
<!-- Node9&#45;&gt;Node8 -->
<g id="edge9_Node000008_Node000009" class="edge">
<title>Node9&#45;&gt;Node8</title>
<g id="a_edge9_Node000008_Node000009"><a xlink:title=" ">
<path fill="none" stroke="#63b8ff" d="M344.25,-1109.91C344.25,-1096.79 344.25,-1082.44 344.25,-1069.72"/>
<polygon fill="none" stroke="#63b8ff" points="340.75,-1109.53 344.25,-1119.53 347.75,-1109.53 340.75,-1109.53"/>
</a>
</g>
</g>
<!-- Node10 -->
<g id="Node000010" class="node">
<title>Node10</title>
<g id="a_Node000010"><a xlink:title=" ">
<polygon fill="white" stroke="none" points="403.38,-886 333.12,-886 333.12,-834 403.38,-834 403.38,-886"/>
<text text-anchor="start" x="337.12" y="-872.5" font-family="Helvetica,sans-Serif" font-size="10.00">StringProperty</text>
<text text-anchor="start" x="366.75" y="-856.5" font-family="Helvetica,sans-Serif" font-size="10.00"> </text>
<text text-anchor="start" x="366.75" y="-840.5" font-family="Helvetica,sans-Serif" font-size="10.00"> </text>
<polygon fill="#666666" stroke="#666666" points="333.12,-868 333.12,-868 403.38,-868 403.38,-868 333.12,-868"/>
<polygon fill="#666666" stroke="#666666" points="333.12,-852 333.12,-852 403.38,-852 403.38,-852 333.12,-852"/>
<polygon fill="none" stroke="#666666" points="333.12,-834 333.12,-886 403.38,-886 403.38,-834 333.12,-834"/>
</a>
</g>
</g>
<!-- Node10&#45;&gt;Node5 -->
<g id="edge10_Node000005_Node000010" class="edge">
<title>Node10&#45;&gt;Node5</title>
<g id="a_edge10_Node000005_Node000010"><a xlink:title=" ">
<path fill="none" stroke="#63b8ff" d="M368.55,-834.02C369.07,-790.26 370.17,-697.46 371.04,-624.56"/>
<polygon fill="none" stroke="#63b8ff" points="371.04,-624.56 367.11,-618.51 371.18,-612.56 375.11,-618.61 371.04,-624.56"/>
</a>
</g>
<text text-anchor="middle" x="391.93" y="-760.5" font-family="Helvetica,sans-Serif" font-size="10.00" fill="grey"> &#45;welcome</text>
</g>
<!-- Node11 -->
<g id="Node000011" class="node">
<title>Node11</title>
<g id="a_Node000011"><a xlink:href="classfr_1_1softsf_1_1sudokufx_1_1service_1_1_fxml_service.html" target="_top" xlink:title="FxmlService is a Spring viewmodel that manages the loading of FXML files and updating the root of the...">
<polygon fill="white" stroke="none" points="615,-582 475.5,-582 475.5,-462 615,-462 615,-582"/>
<text text-anchor="start" x="488.25" y="-568.5" font-family="Helvetica,sans-Serif" font-size="10.00">fr.softsf.sudokufx.service.</text>
<text text-anchor="start" x="517.88" y="-556.5" font-family="Helvetica,sans-Serif" font-size="10.00">FxmlService</text>
<text text-anchor="start" x="543.75" y="-540.5" font-family="Helvetica,sans-Serif" font-size="10.00"> </text>
<text text-anchor="start" x="479.5" y="-524.5" font-family="Helvetica,sans-Serif" font-size="10.00">+</text>
<text text-anchor="start" x="489.5" y="-524.5" font-family="Helvetica,sans-Serif" font-size="10.00">FxmlService(FXMLLoader</text>
<text text-anchor="start" x="489.5" y="-512.5" font-family="Helvetica,sans-Serif" font-size="10.00"> fxmlLoader)</text>
<text text-anchor="start" x="479.5" y="-496.5" font-family="Helvetica,sans-Serif" font-size="10.00">+</text>
<text text-anchor="start" x="489.5" y="-496.5" font-family="Helvetica,sans-Serif" font-size="10.00">void setRootByFXMLName</text>
<text text-anchor="start" x="489.5" y="-484.5" font-family="Helvetica,sans-Serif" font-size="10.00">(final String fxml)</text>
<text text-anchor="start" x="479.5" y="-468.5" font-family="Helvetica,sans-Serif" font-size="10.00">~</text>
<text text-anchor="start" x="489.5" y="-468.5" font-family="Helvetica,sans-Serif" font-size="10.00">public&lt; T &gt; T getController()</text>
<polygon fill="#666666" stroke="#666666" points="475.5,-552 475.5,-552 615,-552 615,-552 475.5,-552"/>
<polygon fill="#666666" stroke="#666666" points="475.5,-536 475.5,-536 615,-536 615,-536 475.5,-536"/>
<polygon fill="none" stroke="#666666" points="475.5,-462 475.5,-582 615,-582 615,-462 475.5,-462"/>
</a>
</g>
</g>
<!-- Node11&#45;&gt;Node1 -->
<g id="edge11_Node000001_Node000011" class="edge">
<title>Node11&#45;&gt;Node1</title>
<g id="a_edge11_Node000001_Node000011"><a xlink:title=" ">
<path fill="none" stroke="#63b8ff" d="M535.09,-462.12C525.71,-409.47 510.91,-330.29 495.25,-262 494.82,-260.14 494.39,-258.26 493.95,-256.37"/>
<polygon fill="none" stroke="#63b8ff" points="493.94,-256.34 488.66,-251.44 491.15,-244.67 496.44,-249.58 493.94,-256.34"/>
</a>
</g>
<text text-anchor="middle" x="528.81" y="-270.5" font-family="Helvetica,sans-Serif" font-size="10.00" fill="grey"> &#45;fxmlService</text>
</g>
<!-- Node12 -->
<g id="Node000012" class="node">
<title>Node12</title>
<g id="a_Node000012"><a xlink:title=" ">
<polygon fill="white" stroke="none" points="482.12,-1058 446.38,-1058 446.38,-1006 482.12,-1006 482.12,-1058"/>
<text text-anchor="start" x="450.38" y="-1044.5" font-family="Helvetica,sans-Serif" font-size="10.00">Scene</text>
<text text-anchor="start" x="462.75" y="-1028.5" font-family="Helvetica,sans-Serif" font-size="10.00"> </text>
<text text-anchor="start" x="462.75" y="-1012.5" font-family="Helvetica,sans-Serif" font-size="10.00"> </text>
<polygon fill="#666666" stroke="#666666" points="446.38,-1040 446.38,-1040 482.12,-1040 482.12,-1040 446.38,-1040"/>
<polygon fill="#666666" stroke="#666666" points="446.38,-1024 446.38,-1024 482.12,-1024 482.12,-1024 446.38,-1024"/>
<polygon fill="none" stroke="#666666" points="446.38,-1006 446.38,-1058 482.12,-1058 482.12,-1006 446.38,-1006"/>
</a>
</g>
</g>
<!-- Node12&#45;&gt;Node11 -->
<g id="edge12_Node000011_Node000012" class="edge">
<title>Node12&#45;&gt;Node11</title>
<g id="a_edge12_Node000011_Node000012"><a xlink:title=" ">
<path fill="none" stroke="#63b8ff" d="M459.37,-1006.3C455.69,-986.35 450.95,-957.49 449,-932 444.11,-868.19 437.91,-851.03 449,-788 449.22,-786.73 490.96,-672.02 519.39,-593.96"/>
<polygon fill="none" stroke="#63b8ff" points="519.42,-593.89 517.71,-586.88 523.53,-582.61 525.23,-589.62 519.42,-593.89"/>
</a>
</g>
<text text-anchor="middle" x="465.12" y="-856.5" font-family="Helvetica,sans-Serif" font-size="10.00" fill="grey"> &#45;scene</text>
</g>
<!-- Node14 -->
<g id="Node000014" class="node">
<title>Node14</title>
<g id="a_Node000014"><a xlink:href="classfr_1_1softsf_1_1sudokufx_1_1utils_1_1_dynamic_font_size.html" target="_top" xlink:title="Manages dynamic font sizing based on the dimensions of a JavaFX Scene.">
<polygon fill="white" stroke="none" points="608.5,-906 490,-906 490,-814 608.5,-814 608.5,-906"/>
<text text-anchor="start" x="499" y="-892.5" font-family="Helvetica,sans-Serif" font-size="10.00">fr.softsf.sudokufx.utils.</text>
<text text-anchor="start" x="510.25" y="-880.5" font-family="Helvetica,sans-Serif" font-size="10.00">DynamicFontSize</text>
<text text-anchor="start" x="495.5" y="-864.5" font-family="Helvetica,sans-Serif" font-size="10.00">&#45;</text>
<text text-anchor="start" x="504" y="-864.5" font-family="Helvetica,sans-Serif" font-size="10.00">double currentFontSize</text>
<text text-anchor="start" x="494" y="-848.5" font-family="Helvetica,sans-Serif" font-size="10.00">+</text>
<text text-anchor="start" x="504" y="-848.5" font-family="Helvetica,sans-Serif" font-size="10.00">DynamicFontSize(final</text>
<text text-anchor="start" x="504" y="-836.5" font-family="Helvetica,sans-Serif" font-size="10.00"> Scene theScene)</text>
<text text-anchor="start" x="494" y="-820.5" font-family="Helvetica,sans-Serif" font-size="10.00">+</text>
<text text-anchor="start" x="504" y="-820.5" font-family="Helvetica,sans-Serif" font-size="10.00">void updateFontSize()</text>
<polygon fill="#666666" stroke="#666666" points="490,-876 490,-876 608.5,-876 608.5,-876 490,-876"/>
<polygon fill="#666666" stroke="#666666" points="490,-860 490,-860 502,-860 502,-860 490,-860"/>
<polygon fill="#666666" stroke="#666666" points="502,-860 502,-860 608.5,-860 608.5,-860 502,-860"/>
<polygon fill="none" stroke="#666666" points="490,-814 490,-906 608.5,-906 608.5,-814 490,-814"/>
</a>
</g>
</g>
<!-- Node12&#45;&gt;Node14 -->
<g id="edge15_Node000014_Node000012" class="edge">
<title>Node12&#45;&gt;Node14</title>
<g id="a_edge15_Node000014_Node000012"><a xlink:title=" ">
<path fill="none" stroke="#63b8ff" d="M476.61,-1006.28C488.19,-983.11 505.93,-947.63 520.98,-917.53"/>
<polygon fill="none" stroke="#63b8ff" points="521.04,-917.41 520.15,-910.26 526.41,-906.68 527.3,-913.83 521.04,-917.41"/>
</a>
</g>
<text text-anchor="middle" x="520.33" y="-952.5" font-family="Helvetica,sans-Serif" font-size="10.00" fill="grey"> &#45;scene</text>
</g>
<!-- Node13 -->
<g id="Node000013" class="node">
<title>Node13</title>
<g id="a_Node000013"><a xlink:title=" ">
<polygon fill="white" stroke="none" points="690,-886 626.5,-886 626.5,-834 690,-834 690,-886"/>
<text text-anchor="start" x="630.5" y="-872.5" font-family="Helvetica,sans-Serif" font-size="10.00">FXMLLoader</text>
<text text-anchor="start" x="656.75" y="-856.5" font-family="Helvetica,sans-Serif" font-size="10.00"> </text>
<text text-anchor="start" x="656.75" y="-840.5" font-family="Helvetica,sans-Serif" font-size="10.00"> </text>
<polygon fill="#666666" stroke="#666666" points="626.5,-868 626.5,-868 690,-868 690,-868 626.5,-868"/>
<polygon fill="#666666" stroke="#666666" points="626.5,-852 626.5,-852 690,-852 690,-852 626.5,-852"/>
<polygon fill="none" stroke="#666666" points="626.5,-834 626.5,-886 690,-886 690,-834 626.5,-834"/>
</a>
</g>
</g>
<!-- Node13&#45;&gt;Node11 -->
<g id="edge13_Node000011_Node000013" class="edge">
<title>Node13&#45;&gt;Node11</title>
<g id="a_edge13_Node000011_Node000013"><a xlink:title=" ">
<path fill="none" stroke="#63b8ff" d="M654.34,-834.35C650.59,-813.55 644.03,-783.2 634.25,-758 630.94,-749.47 628.05,-748.33 624.25,-740 602.51,-692.36 582.39,-636.85 567.9,-593.9"/>
<polygon fill="none" stroke="#63b8ff" points="567.86,-593.8 562.17,-589.38 564.06,-582.42 569.75,-586.84 567.86,-593.8"/>
</a>
</g>
<text text-anchor="middle" x="665.08" y="-760.5" font-family="Helvetica,sans-Serif" font-size="10.00" fill="grey"> &#45;fxmlLoader</text>
</g>
<!-- Node14&#45;&gt;Node11 -->
<g id="edge14_Node000011_Node000014" class="edge">
<title>Node14&#45;&gt;Node11</title>
<g id="a_edge14_Node000011_Node000014"><a xlink:title=" ">
<path fill="none" stroke="#63b8ff" d="M548.71,-814.03C548.05,-757.87 546.89,-661.11 546.1,-594.68"/>
<polygon fill="none" stroke="#63b8ff" points="546.1,-594.72 542.03,-588.77 545.96,-582.72 550.03,-588.67 546.1,-594.72"/>
</a>
</g>
<text text-anchor="middle" x="589.05" y="-760.5" font-family="Helvetica,sans-Serif" font-size="10.00" fill="grey"> &#45;dynamicFontSize</text>
</g>
<!-- Node15 -->
<g id="Node000015" class="node">
<title>Node15</title>
<g id="a_Node000015"><a xlink:href="classfr_1_1softsf_1_1sudokufx_1_1view_1_1components_1_1_toaster_v_box.html" target="_top" xlink:title="A custom VBox component for displaying toast notifications.">
<polygon fill="white" stroke="none" points="805.12,-740 633.38,-740 633.38,-304 805.12,-304 805.12,-740"/>
<text text-anchor="start" x="640.12" y="-726.5" font-family="Helvetica,sans-Serif" font-size="10.00">fr.softsf.sudokufx.view.components.</text>
<text text-anchor="start" x="691.12" y="-714.5" font-family="Helvetica,sans-Serif" font-size="10.00">ToasterVBox</text>
<text text-anchor="start" x="717.75" y="-698.5" font-family="Helvetica,sans-Serif" font-size="10.00"> </text>
<text text-anchor="start" x="637.38" y="-682.5" font-family="Helvetica,sans-Serif" font-size="10.00">+</text>
<text text-anchor="start" x="647.38" y="-682.5" font-family="Helvetica,sans-Serif" font-size="10.00">ToasterVBox()</text>
<text text-anchor="start" x="637.38" y="-666.5" font-family="Helvetica,sans-Serif" font-size="10.00">+</text>
<text text-anchor="start" x="647.38" y="-666.5" font-family="Helvetica,sans-Serif" font-size="10.00">void addToast(final</text>
<text text-anchor="start" x="647.38" y="-654.5" font-family="Helvetica,sans-Serif" font-size="10.00"> String text, final</text>
<text text-anchor="start" x="647.38" y="-642.5" font-family="Helvetica,sans-Serif" font-size="10.00"> MyEnums.ToastLevels</text>
<text text-anchor="start" x="647.38" y="-630.5" font-family="Helvetica,sans-Serif" font-size="10.00"> toastLevel)</text>
<text text-anchor="start" x="637.38" y="-614.5" font-family="Helvetica,sans-Serif" font-size="10.00">+</text>
<text text-anchor="start" x="647.38" y="-614.5" font-family="Helvetica,sans-Serif" font-size="10.00">void addToastWithDuration</text>
<text text-anchor="start" x="647.38" y="-602.5" font-family="Helvetica,sans-Serif" font-size="10.00">(final String text, final</text>
<text text-anchor="start" x="647.38" y="-590.5" font-family="Helvetica,sans-Serif" font-size="10.00"> MyEnums.ToastLevels toastLevel,</text>
<text text-anchor="start" x="647.38" y="-578.5" font-family="Helvetica,sans-Serif" font-size="10.00"> final double duration)</text>
<text text-anchor="start" x="638.88" y="-562.5" font-family="Helvetica,sans-Serif" font-size="10.00">&#45;</text>
<text text-anchor="start" x="647.38" y="-562.5" font-family="Helvetica,sans-Serif" font-size="10.00">void copyToClipboard</text>
<text text-anchor="start" x="647.38" y="-550.5" font-family="Helvetica,sans-Serif" font-size="10.00">(final Button button)</text>
<text text-anchor="start" x="638.88" y="-534.5" font-family="Helvetica,sans-Serif" font-size="10.00">&#45;</text>
<text text-anchor="start" x="647.38" y="-534.5" font-family="Helvetica,sans-Serif" font-size="10.00">String getToastInfo</text>
<text text-anchor="start" x="647.38" y="-522.5" font-family="Helvetica,sans-Serif" font-size="10.00">(MyEnums.ToastLevels</text>
<text text-anchor="start" x="647.38" y="-510.5" font-family="Helvetica,sans-Serif" font-size="10.00"> toastLevel)</text>
<text text-anchor="start" x="638.88" y="-494.5" font-family="Helvetica,sans-Serif" font-size="10.00">&#45;</text>
<text text-anchor="start" x="647.38" y="-494.5" font-family="Helvetica,sans-Serif" font-size="10.00">void removeToast(final</text>
<text text-anchor="start" x="647.38" y="-482.5" font-family="Helvetica,sans-Serif" font-size="10.00"> Button button)</text>
<text text-anchor="start" x="638.88" y="-466.5" font-family="Helvetica,sans-Serif" font-size="10.00">&#45;</text>
<text text-anchor="start" x="647.38" y="-466.5" font-family="Helvetica,sans-Serif" font-size="10.00">void setAccessibility</text>
<text text-anchor="start" x="647.38" y="-454.5" font-family="Helvetica,sans-Serif" font-size="10.00">(final Button toast,</text>
<text text-anchor="start" x="647.38" y="-442.5" font-family="Helvetica,sans-Serif" font-size="10.00"> final MyEnums.ToastLevels</text>
<text text-anchor="start" x="647.38" y="-430.5" font-family="Helvetica,sans-Serif" font-size="10.00"> toastLevel, final String text)</text>
<text text-anchor="start" x="638.88" y="-414.5" font-family="Helvetica,sans-Serif" font-size="10.00">&#45;</text>
<text text-anchor="start" x="647.38" y="-414.5" font-family="Helvetica,sans-Serif" font-size="10.00">void setToastStyle</text>
<text text-anchor="start" x="647.38" y="-402.5" font-family="Helvetica,sans-Serif" font-size="10.00">(final Button toast,</text>
<text text-anchor="start" x="647.38" y="-390.5" font-family="Helvetica,sans-Serif" font-size="10.00"> final MyEnums.ToastLevels</text>
<text text-anchor="start" x="647.38" y="-378.5" font-family="Helvetica,sans-Serif" font-size="10.00"> toastLevel)</text>
<text text-anchor="start" x="638.88" y="-362.5" font-family="Helvetica,sans-Serif" font-size="10.00">&#45;</text>
<text text-anchor="start" x="647.38" y="-362.5" font-family="Helvetica,sans-Serif" font-size="10.00">void temporizeToast</text>
<text text-anchor="start" x="647.38" y="-350.5" font-family="Helvetica,sans-Serif" font-size="10.00">(final Button toast,</text>
<text text-anchor="start" x="647.38" y="-338.5" font-family="Helvetica,sans-Serif" font-size="10.00"> final double duration)</text>
<text text-anchor="start" x="638.88" y="-322.5" font-family="Helvetica,sans-Serif" font-size="10.00">&#45;</text>
<text text-anchor="start" x="647.38" y="-322.5" font-family="Helvetica,sans-Serif" font-size="10.00">void toastActions(final</text>
<text text-anchor="start" x="647.38" y="-310.5" font-family="Helvetica,sans-Serif" font-size="10.00"> ActionEvent event)</text>
<polygon fill="#666666" stroke="#666666" points="633.38,-710 633.38,-710 805.12,-710 805.12,-710 633.38,-710"/>
<polygon fill="#666666" stroke="#666666" points="633.38,-694 633.38,-694 805.12,-694 805.12,-694 633.38,-694"/>
<polygon fill="none" stroke="#666666" points="633.38,-304 633.38,-740 805.12,-740 805.12,-304 633.38,-304"/>
</a>
</g>
</g>
<!-- Node15&#45;&gt;Node1 -->
<g id="edge16_Node000001_Node000015" class="edge">
<title>Node15&#45;&gt;Node1</title>
<g id="a_edge16_Node000001_Node000015"><a xlink:title=" ">
<path fill="none" stroke="#63b8ff" d="M633.5,-318.81C630.48,-313.77 627.39,-308.82 624.25,-304 600.73,-267.9 569.92,-232.1 541.23,-201.99"/>
<polygon fill="none" stroke="#63b8ff" points="541.36,-202.12 534.31,-200.57 533.03,-193.48 540.07,-195.02 541.36,-202.12"/>
</a>
</g>
<text text-anchor="middle" x="627.13" y="-270.5" font-family="Helvetica,sans-Serif" font-size="10.00" fill="grey"> &#45;toaster</text>
</g>
<!-- Node16 -->
<g id="Node000016" class="node">
<title>Node16</title>
<g id="a_Node000016"><a xlink:title=" ">
<polygon fill="white" stroke="none" points="741.25,-886 709.25,-886 709.25,-834 741.25,-834 741.25,-886"/>
<text text-anchor="start" x="713.25" y="-872.5" font-family="Helvetica,sans-Serif" font-size="10.00">VBox</text>
<text text-anchor="start" x="723.75" y="-856.5" font-family="Helvetica,sans-Serif" font-size="10.00"> </text>
<text text-anchor="start" x="723.75" y="-840.5" font-family="Helvetica,sans-Serif" font-size="10.00"> </text>
<polygon fill="#666666" stroke="#666666" points="709.25,-868 709.25,-868 741.25,-868 741.25,-868 709.25,-868"/>
<polygon fill="#666666" stroke="#666666" points="709.25,-852 709.25,-852 741.25,-852 741.25,-852 709.25,-852"/>
<polygon fill="none" stroke="#666666" points="709.25,-834 709.25,-886 741.25,-886 741.25,-834 709.25,-834"/>
</a>
</g>
</g>
<!-- Node16&#45;&gt;Node15 -->
<g id="edge17_Node000015_Node000016" class="edge">
<title>Node16&#45;&gt;Node15</title>
<g id="a_edge17_Node000015_Node000016"><a xlink:title=" ">
<path fill="none" stroke="#63b8ff" d="M724.6,-822.54C724.21,-800.95 723.69,-771.62 723.12,-739.72"/>
<polygon fill="none" stroke="#63b8ff" points="721.1,-822.57 724.78,-832.51 728.1,-822.45 721.1,-822.57"/>
</a>
</g>
</g>
<!-- Node17 -->
<g id="Node000017" class="node">
<title>Node17</title>
<g id="a_Node000017"><a xlink:title=" ">
<polygon fill="white" stroke="none" points="854.88,-548 823.62,-548 823.62,-496 854.88,-496 854.88,-548"/>
<text text-anchor="start" x="827.62" y="-534.5" font-family="Helvetica,sans-Serif" font-size="10.00">Label</text>
<text text-anchor="start" x="837.75" y="-518.5" font-family="Helvetica,sans-Serif" font-size="10.00"> </text>
<text text-anchor="start" x="837.75" y="-502.5" font-family="Helvetica,sans-Serif" font-size="10.00"> </text>
<polygon fill="#666666" stroke="#666666" points="823.62,-530 823.62,-530 854.88,-530 854.88,-530 823.62,-530"/>
<polygon fill="#666666" stroke="#666666" points="823.62,-514 823.62,-514 854.88,-514 854.88,-514 823.62,-514"/>
<polygon fill="none" stroke="#666666" points="823.62,-496 823.62,-548 854.88,-548 854.88,-496 823.62,-496"/>
</a>
</g>
</g>
<!-- Node17&#45;&gt;Node1 -->
<g id="edge18_Node000001_Node000017" class="edge">
<title>Node17&#45;&gt;Node1</title>
<g id="a_edge18_Node000001_Node000017"><a xlink:title=" ">
<path fill="none" stroke="#63b8ff" d="M843.42,-496.28C849.29,-453.08 855.17,-362.85 814.25,-304 751.09,-213.17 628.37,-165.25 544.86,-142.04"/>
<polygon fill="none" stroke="#63b8ff" points="544.78,-142.01 537.95,-144.31 533.2,-138.89 540.03,-136.59 544.78,-142.01"/>
</a>
</g>
<text text-anchor="middle" x="826.32" y="-270.5" font-family="Helvetica,sans-Serif" font-size="10.00" fill="grey"> &#45;welcomeText</text>
</g>
<!-- Node18 -->
<g id="Node000018" class="node">
<title>Node18</title>
<g id="a_Node000018"><a xlink:title=" ">
<polygon fill="white" stroke="none" points="926.5,-548 890,-548 890,-496 926.5,-496 926.5,-548"/>
<text text-anchor="start" x="894" y="-534.5" font-family="Helvetica,sans-Serif" font-size="10.00">Button</text>
<text text-anchor="start" x="906.75" y="-518.5" font-family="Helvetica,sans-Serif" font-size="10.00"> </text>
<text text-anchor="start" x="906.75" y="-502.5" font-family="Helvetica,sans-Serif" font-size="10.00"> </text>
<polygon fill="#666666" stroke="#666666" points="890,-530 890,-530 926.5,-530 926.5,-530 890,-530"/>
<polygon fill="#666666" stroke="#666666" points="890,-514 890,-514 926.5,-514 926.5,-514 890,-514"/>
<polygon fill="none" stroke="#666666" points="890,-496 890,-548 926.5,-548 926.5,-496 890,-496"/>
</a>
</g>
</g>
<!-- Node18&#45;&gt;Node1 -->
<g id="edge19_Node000001_Node000018" class="edge">
<title>Node18&#45;&gt;Node1</title>
<g id="a_edge19_Node000001_Node000018"><a xlink:title=" ">
<path fill="none" stroke="#63b8ff" d="M911.44,-496.2C916.49,-445.71 920.43,-330.02 862.25,-262 782.7,-169 637.88,-138.14 544.96,-127.95"/>
<polygon fill="none" stroke="#63b8ff" points="545.04,-127.96 538.67,-131.33 533.11,-126.74 539.48,-123.37 545.04,-127.96"/>
</a>
</g>
<text text-anchor="middle" x="906.27" y="-270.5" font-family="Helvetica,sans-Serif" font-size="10.00" fill="grey"> &#45;buttonHello</text>
</g>
</g>
</svg>

<g id="navigator" transform="translate(0 0)" fill="#404254">
  <rect fill="#f2f5e9" fill-opacity="0.5" stroke="#606060" stroke-width=".5" x="0" y="0" width="60" height="60"/>
  <use id="zoomplus" xlink:href="#zoomPlus" x="17" y="9" onmousedown="handleZoom(evt,'in')"/>
  <use id="zoomminus" xlink:href="#zoomMin" x="42" y="9" onmousedown="handleZoom(evt,'out')"/>
  <use id="reset" xlink:href="#resetDef" x="30" y="36" onmousedown="handleReset()"/>
   <use id="arrowup" xlink:href="#arrowUp" x="0" y="0" onmousedown="handlePan(0,-1)"/>
  <use id="arrowright" xlink:href="#arrowRight" x="0" y="0" onmousedown="handlePan(1,0)"/>
  <use id="arrowdown" xlink:href="#arrowDown" x="0" y="0" onmousedown="handlePan(0,1)"/>
  <use id="arrowleft" xlink:href="#arrowLeft" x="0" y="0" onmousedown="handlePan(-1,0)"/>
</g>
<svg viewBox="0 0 15 15" width="100%" height="30px" preserveAspectRatio="xMaxYMin meet">
 <g id="arrow_out" transform="scale(0.3 0.3)">
  <a xlink:href="classfr_1_1softsf_1_1sudokufx_1_1view_1_1_full_menu_view__coll__graph_org.svg" target="_base">
   <rect id="button" ry="5" rx="5" y="6" x="6" height="38" width="38"
        fill="#f2f5e9" fill-opacity="0.5" stroke="#606060" stroke-width="1.0"/>
   <path id="arrow"
     d="M 11.500037,31.436501 C 11.940474,20.09759 22.043105,11.32322 32.158766,21.979434 L 37.068811,17.246167 C 37.068811,17.246167 37.088388,32 37.088388,32 L 22.160133,31.978069 C 22.160133,31.978069 26.997745,27.140456 26.997745,27.140456 C 18.528582,18.264221 13.291696,25.230495 11.500037,31.436501 z"
     style="fill:#404040;"/>
  </a>
 </g>
</svg>

<style type='text/css'>
<![CDATA[
[data-mouse-over-selected='false'] { opacity: 0.7; }
[data-mouse-over-selected='true']  { opacity: 1.0; }
]]>
</style>
<script type="application/ecmascript"><![CDATA[
document.addEventListener('DOMContentLoaded', (event) => {
  highlightEdges();
  highlightAdjacentNodes();
});
]]></script>
</svg>
