<?xml version="1.0" encoding="UTF-8" standalone="no"?>
<!DOCTYPE svg PUBLIC "-//W3C//DTD SVG 1.1//EN"
 "http://www.w3.org/Graphics/SVG/1.1/DTD/svg11.dtd">
<!-- Generated by graphviz version 12.2.1 (20241206.2353)
 -->
<!-- Title: fr.softsf.sudokufx.configuration.database.ApplicationKeystore.setupApplicationKeystore Pages: 1 -->
<svg width="1338pt" height="190pt"
 viewBox="0.00 0.00 1338.25 190.00" xmlns="http://www.w3.org/2000/svg" xmlns:xlink="http://www.w3.org/1999/xlink">
<g id="graph0" class="graph" transform="scale(1 1) rotate(0) translate(4 186)">
<title>fr.softsf.sudokufx.configuration.database.ApplicationKeystore.setupApplicationKeystore</title>
<!-- Node1 -->
<g id="Node000001" class="node">
<title>Node1</title>
<g id="a_Node000001"><a xlink:title="Configures the keystore by managing the entire process of creating, loading, and encrypting the neces...">
<polygon fill="#999999" stroke="#666666" points="237.25,-107 0,-107 0,-75 237.25,-75 237.25,-107"/>
<text text-anchor="start" x="8" y="-93.5" font-family="Helvetica,sans-Serif" font-size="10.00">fr.softsf.sudokufx.configuration.database.keystore.</text>
<text text-anchor="middle" x="118.62" y="-81.5" font-family="Helvetica,sans-Serif" font-size="10.00">ApplicationKeystore.setupApplicationKeystore</text>
</a>
</g>
</g>
<!-- Node2 -->
<g id="Node000002" class="node">
<title>Node2</title>
<g id="a_Node000002"><a xlink:href="classfr_1_1softsf_1_1sudokufx_1_1configuration_1_1database_1_1keystore_1_1_application_keystore.html#a12d1b3bb676eff5ca5ef8ac03a999386" target="_top" xlink:title="Create or update the Keystore.">
<polygon fill="white" stroke="#666666" points="510.5,-182 273.25,-182 273.25,-150 510.5,-150 510.5,-182"/>
<text text-anchor="start" x="281.25" y="-168.5" font-family="Helvetica,sans-Serif" font-size="10.00">fr.softsf.sudokufx.configuration.database.keystore.</text>
<text text-anchor="middle" x="391.88" y="-156.5" font-family="Helvetica,sans-Serif" font-size="10.00">ApplicationKeystore.createOrUpdateKeystore</text>
</a>
</g>
</g>
<!-- Node1&#45;&gt;Node2 -->
<g id="edge1_Node000001_Node000002" class="edge">
<title>Node1&#45;&gt;Node2</title>
<g id="a_edge1_Node000001_Node000002"><a xlink:title=" ">
<path fill="none" stroke="#63b8ff" d="M165.97,-107.49C196.26,-117.92 236.81,-131.23 273.25,-141 280.94,-143.06 288.96,-145.07 297.02,-146.98"/>
<polygon fill="#63b8ff" stroke="#63b8ff" points="296.03,-150.34 306.56,-149.2 297.61,-143.53 296.03,-150.34"/>
</a>
</g>
</g>
<!-- Node3 -->
<g id="Node000003" class="node">
<title>Node3</title>
<g id="a_Node000003"><a xlink:href="classfr_1_1softsf_1_1sudokufx_1_1configuration_1_1database_1_1keystore_1_1_application_keystore.html#a8fd063ed0e851ce3477ae69e855e3c88" target="_top" xlink:title="Get or set credentials by alias.">
<polygon fill="white" stroke="#666666" points="510.5,-132 273.25,-132 273.25,-100 510.5,-100 510.5,-132"/>
<text text-anchor="start" x="281.25" y="-118.5" font-family="Helvetica,sans-Serif" font-size="10.00">fr.softsf.sudokufx.configuration.database.keystore.</text>
<text text-anchor="middle" x="391.88" y="-106.5" font-family="Helvetica,sans-Serif" font-size="10.00">ApplicationKeystore.credentials</text>
</a>
</g>
</g>
<!-- Node1&#45;&gt;Node3 -->
<g id="edge2_Node000001_Node000003" class="edge">
<title>Node1&#45;&gt;Node3</title>
<g id="a_edge2_Node000001_Node000003"><a xlink:title=" ">
<path fill="none" stroke="#63b8ff" d="M237.42,-101.86C245.38,-102.59 253.44,-103.33 261.46,-104.07"/>
<polygon fill="#63b8ff" stroke="#63b8ff" points="260.99,-107.54 271.26,-104.98 261.63,-100.57 260.99,-107.54"/>
</a>
</g>
</g>
<!-- Node8 -->
<g id="Node000008" class="node">
<title>Node8</title>
<g id="a_Node000008"><a xlink:href="classfr_1_1softsf_1_1sudokufx_1_1configuration_1_1database_1_1keystore_1_1_application_keystore.html#ac37c6722400cd0a7c487d43f401030a6" target="_top" xlink:title="Load the Keystore.">
<polygon fill="white" stroke="#666666" points="510.5,-82 273.25,-82 273.25,-50 510.5,-50 510.5,-82"/>
<text text-anchor="start" x="281.25" y="-68.5" font-family="Helvetica,sans-Serif" font-size="10.00">fr.softsf.sudokufx.configuration.database.keystore.</text>
<text text-anchor="middle" x="391.88" y="-56.5" font-family="Helvetica,sans-Serif" font-size="10.00">ApplicationKeystore.loadKeyStore</text>
</a>
</g>
</g>
<!-- Node1&#45;&gt;Node8 -->
<g id="edge7_Node000001_Node000008" class="edge">
<title>Node1&#45;&gt;Node8</title>
<g id="a_edge7_Node000001_Node000008"><a xlink:title=" ">
<path fill="none" stroke="#63b8ff" d="M237.42,-80.14C245.38,-79.41 253.44,-78.67 261.46,-77.93"/>
<polygon fill="#63b8ff" stroke="#63b8ff" points="261.63,-81.43 271.26,-77.02 260.99,-74.46 261.63,-81.43"/>
</a>
</g>
</g>
<!-- Node9 -->
<g id="Node000009" class="node">
<title>Node9</title>
<g id="a_Node000009"><a xlink:href="classfr_1_1softsf_1_1sudokufx_1_1configuration_1_1database_1_1keystore_1_1_application_keystore.html#a9adbe65dc123bfac6c72085a93a4702d" target="_top" xlink:title="Check the symmetric key presence.">
<polygon fill="white" stroke="#666666" points="510.5,-32 273.25,-32 273.25,0 510.5,0 510.5,-32"/>
<text text-anchor="start" x="281.25" y="-18.5" font-family="Helvetica,sans-Serif" font-size="10.00">fr.softsf.sudokufx.configuration.database.keystore.</text>
<text text-anchor="middle" x="391.88" y="-6.5" font-family="Helvetica,sans-Serif" font-size="10.00">ApplicationKeystore.symmetricKey</text>
</a>
</g>
</g>
<!-- Node1&#45;&gt;Node9 -->
<g id="edge8_Node000001_Node000009" class="edge">
<title>Node1&#45;&gt;Node9</title>
<g id="a_edge8_Node000001_Node000009"><a xlink:title=" ">
<path fill="none" stroke="#63b8ff" d="M165.97,-74.51C196.26,-64.08 236.81,-50.77 273.25,-41 280.94,-38.94 288.96,-36.93 297.02,-35.02"/>
<polygon fill="#63b8ff" stroke="#63b8ff" points="297.61,-38.47 306.56,-32.8 296.03,-31.66 297.61,-38.47"/>
</a>
</g>
</g>
<!-- Node4 -->
<g id="Node000004" class="node">
<title>Node4</title>
<g id="a_Node000004"><a xlink:href="classfr_1_1softsf_1_1sudokufx_1_1configuration_1_1database_1_1keystore_1_1_application_keystore.html#a14357e40faada6caeec5b57436bbbf75" target="_top" xlink:title="Get credential by alias.">
<polygon fill="white" stroke="#666666" points="783.75,-182 546.5,-182 546.5,-150 783.75,-150 783.75,-182"/>
<text text-anchor="start" x="554.5" y="-168.5" font-family="Helvetica,sans-Serif" font-size="10.00">fr.softsf.sudokufx.configuration.database.keystore.</text>
<text text-anchor="middle" x="665.12" y="-156.5" font-family="Helvetica,sans-Serif" font-size="10.00">ApplicationKeystore.getCredentials</text>
</a>
</g>
</g>
<!-- Node3&#45;&gt;Node4 -->
<g id="edge3_Node000003_Node000004" class="edge">
<title>Node3&#45;&gt;Node4</title>
<g id="a_edge3_Node000003_Node000004"><a xlink:title=" ">
<path fill="none" stroke="#63b8ff" d="M482.07,-132.44C508.26,-137.27 537.08,-142.58 563.91,-147.53"/>
<polygon fill="#63b8ff" stroke="#63b8ff" points="562.92,-150.9 573.39,-149.27 564.19,-144.02 562.92,-150.9"/>
</a>
</g>
</g>
<!-- Node5 -->
<g id="Node000005" class="node">
<title>Node5</title>
<g id="a_Node000005"><a xlink:href="classfr_1_1softsf_1_1sudokufx_1_1configuration_1_1database_1_1keystore_1_1_application_keystore.html#a0faaf98dccd755007c14e7f0d1308368" target="_top" xlink:title="Set credential by alias.">
<polygon fill="white" stroke="#666666" points="783.75,-132 546.5,-132 546.5,-100 783.75,-100 783.75,-132"/>
<text text-anchor="start" x="554.5" y="-118.5" font-family="Helvetica,sans-Serif" font-size="10.00">fr.softsf.sudokufx.configuration.database.keystore.</text>
<text text-anchor="middle" x="665.12" y="-106.5" font-family="Helvetica,sans-Serif" font-size="10.00">ApplicationKeystore.setCredentials</text>
</a>
</g>
</g>
<!-- Node3&#45;&gt;Node5 -->
<g id="edge4_Node000003_Node000005" class="edge">
<title>Node3&#45;&gt;Node5</title>
<g id="a_edge4_Node000003_Node000005"><a xlink:title=" ">
<path fill="none" stroke="#63b8ff" d="M510.67,-116C518.63,-116 526.69,-116 534.71,-116"/>
<polygon fill="#63b8ff" stroke="#63b8ff" points="534.51,-119.5 544.51,-116 534.51,-112.5 534.51,-119.5"/>
</a>
</g>
</g>
<!-- Node6 -->
<g id="Node000006" class="node">
<title>Node6</title>
<g id="a_Node000006"><a xlink:href="classfr_1_1softsf_1_1sudokufx_1_1configuration_1_1database_1_1keystore_1_1_application_keystore.html#a008e893ed5b277beddf18364cb3e7717" target="_top" xlink:title="Add alias:secret in the Keystore.">
<polygon fill="white" stroke="#666666" points="1057,-82 819.75,-82 819.75,-50 1057,-50 1057,-82"/>
<text text-anchor="start" x="827.75" y="-68.5" font-family="Helvetica,sans-Serif" font-size="10.00">fr.softsf.sudokufx.configuration.database.keystore.</text>
<text text-anchor="middle" x="938.38" y="-56.5" font-family="Helvetica,sans-Serif" font-size="10.00">ApplicationKeystore.addToKeystore</text>
</a>
</g>
</g>
<!-- Node5&#45;&gt;Node6 -->
<g id="edge5_Node000005_Node000006" class="edge">
<title>Node5&#45;&gt;Node6</title>
<g id="a_edge5_Node000005_Node000006"><a xlink:title=" ">
<path fill="none" stroke="#63b8ff" d="M755.32,-99.56C781.51,-94.73 810.33,-89.42 837.16,-84.47"/>
<polygon fill="#63b8ff" stroke="#63b8ff" points="837.44,-87.98 846.64,-82.73 836.17,-81.1 837.44,-87.98"/>
</a>
</g>
</g>
<!-- Node7 -->
<g id="Node000007" class="node">
<title>Node7</title>
<g id="a_Node000007"><a xlink:href="classfr_1_1softsf_1_1sudokufx_1_1configuration_1_1database_1_1keystore_1_1_application_keystore.html#a5b59f7e68f287d239665b10bc0fc1f54" target="_top" xlink:title="Write data to the keystore file.">
<polygon fill="white" stroke="#666666" points="1330.25,-82 1093,-82 1093,-50 1330.25,-50 1330.25,-82"/>
<text text-anchor="start" x="1101" y="-68.5" font-family="Helvetica,sans-Serif" font-size="10.00">fr.softsf.sudokufx.configuration.database.keystore.</text>
<text text-anchor="middle" x="1211.62" y="-56.5" font-family="Helvetica,sans-Serif" font-size="10.00">ApplicationKeystore.writeTheKeystore</text>
</a>
</g>
</g>
<!-- Node6&#45;&gt;Node7 -->
<g id="edge6_Node000006_Node000007" class="edge">
<title>Node6&#45;&gt;Node7</title>
<g id="a_edge6_Node000006_Node000007"><a xlink:title=" ">
<path fill="none" stroke="#63b8ff" d="M1057.17,-66C1065.13,-66 1073.19,-66 1081.21,-66"/>
<polygon fill="#63b8ff" stroke="#63b8ff" points="1081.01,-69.5 1091.01,-66 1081.01,-62.5 1081.01,-69.5"/>
</a>
</g>
</g>
<!-- Node10 -->
<g id="Node000010" class="node">
<title>Node10</title>
<g id="a_Node000010"><a xlink:href="classfr_1_1softsf_1_1sudokufx_1_1configuration_1_1database_1_1keystore_1_1_application_keystore.html#a70c14c3c3a34730a2d2c9aa4f462ecea" target="_top" xlink:title="Get the symmetric key and set encryption service.">
<polygon fill="white" stroke="#666666" points="783.75,-82 546.5,-82 546.5,-50 783.75,-50 783.75,-82"/>
<text text-anchor="start" x="554.5" y="-68.5" font-family="Helvetica,sans-Serif" font-size="10.00">fr.softsf.sudokufx.configuration.database.keystore.</text>
<text text-anchor="middle" x="665.12" y="-56.5" font-family="Helvetica,sans-Serif" font-size="10.00">ApplicationKeystore.symmetricKeyIsInKeystore</text>
</a>
</g>
</g>
<!-- Node9&#45;&gt;Node10 -->
<g id="edge9_Node000009_Node000010" class="edge">
<title>Node9&#45;&gt;Node10</title>
<g id="a_edge9_Node000009_Node000010"><a xlink:title=" ">
<path fill="none" stroke="#63b8ff" d="M482.07,-32.44C508.26,-37.27 537.08,-42.58 563.91,-47.53"/>
<polygon fill="#63b8ff" stroke="#63b8ff" points="562.92,-50.9 573.39,-49.27 564.19,-44.02 562.92,-50.9"/>
</a>
</g>
</g>
<!-- Node11 -->
<g id="Node000011" class="node">
<title>Node11</title>
<g id="a_Node000011"><a xlink:href="classfr_1_1softsf_1_1sudokufx_1_1configuration_1_1database_1_1keystore_1_1_application_keystore.html#a887edead033a55dba7b85aef8fdb8067" target="_top" xlink:title="Set the symmetric key and set encryption service.">
<polygon fill="white" stroke="#666666" points="783.75,-32 546.5,-32 546.5,0 783.75,0 783.75,-32"/>
<text text-anchor="start" x="554.5" y="-18.5" font-family="Helvetica,sans-Serif" font-size="10.00">fr.softsf.sudokufx.configuration.database.keystore.</text>
<text text-anchor="middle" x="665.12" y="-6.5" font-family="Helvetica,sans-Serif" font-size="10.00">ApplicationKeystore.symmetricKeyNotInKeystore</text>
</a>
</g>
</g>
<!-- Node9&#45;&gt;Node11 -->
<g id="edge10_Node000009_Node000011" class="edge">
<title>Node9&#45;&gt;Node11</title>
<g id="a_edge10_Node000009_Node000011"><a xlink:title=" ">
<path fill="none" stroke="#63b8ff" d="M510.67,-9.3C518.63,-9.26 526.69,-9.24 534.71,-9.26"/>
<polygon fill="#63b8ff" stroke="#63b8ff" points="534.49,-12.76 544.51,-9.29 534.52,-5.76 534.49,-12.76"/>
</a>
</g>
</g>
<!-- Node11&#45;&gt;Node6 -->
<g id="edge11_Node000011_Node000006" class="edge">
<title>Node11&#45;&gt;Node6</title>
<g id="a_edge11_Node000011_Node000006"><a xlink:title=" ">
<path fill="none" stroke="#63b8ff" d="M755.32,-32.44C781.51,-37.27 810.33,-42.58 837.16,-47.53"/>
<polygon fill="#63b8ff" stroke="#63b8ff" points="836.17,-50.9 846.64,-49.27 837.44,-44.02 836.17,-50.9"/>
</a>
</g>
</g>
<!-- Node11&#45;&gt;Node9 -->
<g id="edge12_Node000011_Node000009" class="edge">
<title>Node11&#45;&gt;Node9</title>
<g id="a_edge12_Node000011_Node000009"><a xlink:title=" ">
<path fill="none" stroke="#63b8ff" d="M546.02,-22.7C538.05,-22.75 530,-22.76 521.98,-22.74"/>
<polygon fill="#63b8ff" stroke="#63b8ff" points="522.19,-19.24 512.18,-22.7 522.17,-26.24 522.19,-19.24"/>
</a>
</g>
</g>
</g>
</svg>
