<?xml version="1.0" encoding="UTF-8" standalone="no"?>
<!DOCTYPE svg PUBLIC "-//W3C//DTD SVG 1.1//EN"
 "http://www.w3.org/Graphics/SVG/1.1/DTD/svg11.dtd">
<!-- Generated by graphviz version 12.2.0 (20241103.1931)
 -->
<!-- Title: fr.softsf.sudokufx.configuration.database.keystore.ApplicationKeystore.setupApplicationKeystore Pages: 1 -->
<svg width="1338pt" height="240pt"
 viewBox="0.00 0.00 1338.25 240.00" xmlns="http://www.w3.org/2000/svg" xmlns:xlink="http://www.w3.org/1999/xlink">
<g id="graph0" class="graph" transform="scale(1 1) rotate(0) translate(4 236)">
<title>fr.softsf.sudokufx.configuration.database.keystore.ApplicationKeystore.setupApplicationKeystore</title>
<!-- Node1 -->
<g id="Node000001" class="node">
<title>Node1</title>
<g id="a_Node000001"><a xlink:title="Configures the keystore by managing the entire process of creating, loading, and encrypting the neces...">
<polygon fill="#999999" stroke="#666666" points="237.25,-132 0,-132 0,-100 237.25,-100 237.25,-132"/>
<text text-anchor="start" x="8" y="-118.5" font-family="Helvetica,sans-Serif" font-size="10.00">fr.softsf.sudokufx.configuration.database.keystore.</text>
<text text-anchor="middle" x="118.62" y="-106.5" font-family="Helvetica,sans-Serif" font-size="10.00">ApplicationKeystore.setupApplicationKeystore</text>
</a>
</g>
</g>
<!-- Node2 -->
<g id="Node000002" class="node">
<title>Node2</title>
<g id="a_Node000002"><a xlink:href="classfr_1_1softsf_1_1sudokufx_1_1configuration_1_1database_1_1keystore_1_1_application_keystore.html#a12d1b3bb676eff5ca5ef8ac03a999386" target="_top" xlink:title="Create or update the Keystore.">
<polygon fill="white" stroke="#666666" points="510.5,-232 273.25,-232 273.25,-200 510.5,-200 510.5,-232"/>
<text text-anchor="start" x="281.25" y="-218.5" font-family="Helvetica,sans-Serif" font-size="10.00">fr.softsf.sudokufx.configuration.database.keystore.</text>
<text text-anchor="middle" x="391.88" y="-206.5" font-family="Helvetica,sans-Serif" font-size="10.00">ApplicationKeystore.createOrUpdateKeystore</text>
</a>
</g>
</g>
<!-- Node1&#45;&gt;Node2 -->
<g id="edge1_Node000001_Node000002" class="edge">
<title>Node1&#45;&gt;Node2</title>
<g id="a_edge1_Node000001_Node000002"><a xlink:title=" ">
<path fill="none" stroke="#63b8ff" d="M147.89,-132.42C178.04,-149.3 227.65,-175.29 273.25,-191 278.99,-192.98 284.94,-194.83 290.98,-196.55"/>
<polygon fill="#63b8ff" stroke="#63b8ff" points="289.89,-199.89 300.46,-199.13 291.73,-193.13 289.89,-199.89"/>
</a>
</g>
</g>
<!-- Node3 -->
<g id="Node000003" class="node">
<title>Node3</title>
<g id="a_Node000003"><a xlink:href="classfr_1_1softsf_1_1sudokufx_1_1configuration_1_1database_1_1keystore_1_1_application_keystore.html#a8fd063ed0e851ce3477ae69e855e3c88" target="_top" xlink:title="Get or set credentials by alias.">
<polygon fill="white" stroke="#666666" points="510.5,-182 273.25,-182 273.25,-150 510.5,-150 510.5,-182"/>
<text text-anchor="start" x="281.25" y="-168.5" font-family="Helvetica,sans-Serif" font-size="10.00">fr.softsf.sudokufx.configuration.database.keystore.</text>
<text text-anchor="middle" x="391.88" y="-156.5" font-family="Helvetica,sans-Serif" font-size="10.00">ApplicationKeystore.credentials</text>
</a>
</g>
</g>
<!-- Node1&#45;&gt;Node3 -->
<g id="edge2_Node000001_Node000003" class="edge">
<title>Node1&#45;&gt;Node3</title>
<g id="a_edge2_Node000001_Node000003"><a xlink:title=" ">
<path fill="none" stroke="#63b8ff" d="M208.82,-132.44C235.01,-137.27 263.83,-142.58 290.66,-147.53"/>
<polygon fill="#63b8ff" stroke="#63b8ff" points="289.67,-150.9 300.14,-149.27 290.94,-144.02 289.67,-150.9"/>
</a>
</g>
</g>
<!-- Node12 -->
<g id="Node000012" class="node">
<title>Node12</title>
<g id="a_Node000012"><a xlink:href="interfacefr_1_1softsf_1_1sudokufx_1_1interfaces_1_1_i_os_folder_factory.html#ad2fbd0fa5081f7b023b0bbf262847cfb" target="_top" xlink:title="Retrieves the path to the OS&#45;specific data folder.">
<polygon fill="white" stroke="#666666" points="486.12,-132 297.62,-132 297.62,-100 486.12,-100 486.12,-132"/>
<text text-anchor="start" x="305.62" y="-118.5" font-family="Helvetica,sans-Serif" font-size="10.00">fr.softsf.sudokufx.interfaces.</text>
<text text-anchor="middle" x="391.88" y="-106.5" font-family="Helvetica,sans-Serif" font-size="10.00">IOsFolderFactory.getOsDataFolderPath</text>
</a>
</g>
</g>
<!-- Node1&#45;&gt;Node12 -->
<g id="edge11_Node000001_Node000012" class="edge">
<title>Node1&#45;&gt;Node12</title>
<g id="a_edge11_Node000001_Node000012"><a xlink:title=" ">
<path fill="none" stroke="#63b8ff" d="M237.42,-116C253.52,-116 269.97,-116 285.83,-116"/>
<polygon fill="#63b8ff" stroke="#63b8ff" points="285.75,-119.5 295.75,-116 285.75,-112.5 285.75,-119.5"/>
</a>
</g>
</g>
<!-- Node13 -->
<g id="Node000013" class="node">
<title>Node13</title>
<g id="a_Node000013"><a xlink:href="classfr_1_1softsf_1_1sudokufx_1_1configuration_1_1database_1_1keystore_1_1_application_keystore.html#ac37c6722400cd0a7c487d43f401030a6" target="_top" xlink:title="Load the Keystore.">
<polygon fill="white" stroke="#666666" points="510.5,-82 273.25,-82 273.25,-50 510.5,-50 510.5,-82"/>
<text text-anchor="start" x="281.25" y="-68.5" font-family="Helvetica,sans-Serif" font-size="10.00">fr.softsf.sudokufx.configuration.database.keystore.</text>
<text text-anchor="middle" x="391.88" y="-56.5" font-family="Helvetica,sans-Serif" font-size="10.00">ApplicationKeystore.loadKeyStore</text>
</a>
</g>
</g>
<!-- Node1&#45;&gt;Node13 -->
<g id="edge12_Node000001_Node000013" class="edge">
<title>Node1&#45;&gt;Node13</title>
<g id="a_edge12_Node000001_Node000013"><a xlink:title=" ">
<path fill="none" stroke="#63b8ff" d="M208.82,-99.56C235.01,-94.73 263.83,-89.42 290.66,-84.47"/>
<polygon fill="#63b8ff" stroke="#63b8ff" points="290.94,-87.98 300.14,-82.73 289.67,-81.1 290.94,-87.98"/>
</a>
</g>
</g>
<!-- Node14 -->
<g id="Node000014" class="node">
<title>Node14</title>
<g id="a_Node000014"><a xlink:href="classfr_1_1softsf_1_1sudokufx_1_1configuration_1_1database_1_1keystore_1_1_application_keystore.html#a9adbe65dc123bfac6c72085a93a4702d" target="_top" xlink:title="Check the symmetric key presence.">
<polygon fill="white" stroke="#666666" points="510.5,-32 273.25,-32 273.25,0 510.5,0 510.5,-32"/>
<text text-anchor="start" x="281.25" y="-18.5" font-family="Helvetica,sans-Serif" font-size="10.00">fr.softsf.sudokufx.configuration.database.keystore.</text>
<text text-anchor="middle" x="391.88" y="-6.5" font-family="Helvetica,sans-Serif" font-size="10.00">ApplicationKeystore.symmetricKey</text>
</a>
</g>
</g>
<!-- Node1&#45;&gt;Node14 -->
<g id="edge13_Node000001_Node000014" class="edge">
<title>Node1&#45;&gt;Node14</title>
<g id="a_edge13_Node000001_Node000014"><a xlink:title=" ">
<path fill="none" stroke="#63b8ff" d="M147.89,-99.58C178.04,-82.7 227.65,-56.71 273.25,-41 278.99,-39.02 284.94,-37.17 290.98,-35.45"/>
<polygon fill="#63b8ff" stroke="#63b8ff" points="291.73,-38.87 300.46,-32.87 289.89,-32.11 291.73,-38.87"/>
</a>
</g>
</g>
<!-- Node4 -->
<g id="Node000004" class="node">
<title>Node4</title>
<g id="a_Node000004"><a xlink:href="classfr_1_1softsf_1_1sudokufx_1_1configuration_1_1database_1_1keystore_1_1_application_keystore.html#a14357e40faada6caeec5b57436bbbf75" target="_top" xlink:title="Get credential by alias.">
<polygon fill="white" stroke="#666666" points="783.75,-182 546.5,-182 546.5,-150 783.75,-150 783.75,-182"/>
<text text-anchor="start" x="554.5" y="-168.5" font-family="Helvetica,sans-Serif" font-size="10.00">fr.softsf.sudokufx.configuration.database.keystore.</text>
<text text-anchor="middle" x="665.12" y="-156.5" font-family="Helvetica,sans-Serif" font-size="10.00">ApplicationKeystore.getCredentials</text>
</a>
</g>
</g>
<!-- Node3&#45;&gt;Node4 -->
<g id="edge3_Node000003_Node000004" class="edge">
<title>Node3&#45;&gt;Node4</title>
<g id="a_edge3_Node000003_Node000004"><a xlink:title=" ">
<path fill="none" stroke="#63b8ff" d="M510.67,-166C518.63,-166 526.69,-166 534.71,-166"/>
<polygon fill="#63b8ff" stroke="#63b8ff" points="534.51,-169.5 544.51,-166 534.51,-162.5 534.51,-169.5"/>
</a>
</g>
</g>
<!-- Node6 -->
<g id="Node000006" class="node">
<title>Node6</title>
<g id="a_Node000006"><a xlink:href="classfr_1_1softsf_1_1sudokufx_1_1configuration_1_1database_1_1keystore_1_1_application_keystore.html#a0faaf98dccd755007c14e7f0d1308368" target="_top" xlink:title="Set credential by alias.">
<polygon fill="white" stroke="#666666" points="783.75,-132 546.5,-132 546.5,-100 783.75,-100 783.75,-132"/>
<text text-anchor="start" x="554.5" y="-118.5" font-family="Helvetica,sans-Serif" font-size="10.00">fr.softsf.sudokufx.configuration.database.keystore.</text>
<text text-anchor="middle" x="665.12" y="-106.5" font-family="Helvetica,sans-Serif" font-size="10.00">ApplicationKeystore.setCredentials</text>
</a>
</g>
</g>
<!-- Node3&#45;&gt;Node6 -->
<g id="edge5_Node000003_Node000006" class="edge">
<title>Node3&#45;&gt;Node6</title>
<g id="a_edge5_Node000003_Node000006"><a xlink:title=" ">
<path fill="none" stroke="#63b8ff" d="M482.07,-149.56C508.26,-144.73 537.08,-139.42 563.91,-134.47"/>
<polygon fill="#63b8ff" stroke="#63b8ff" points="564.19,-137.98 573.39,-132.73 562.92,-131.1 564.19,-137.98"/>
</a>
</g>
</g>
<!-- Node5 -->
<g id="Node000005" class="node">
<title>Node5</title>
<g id="a_Node000005"><a xlink:href="interfacefr_1_1softsf_1_1sudokufx_1_1interfaces_1_1_i_encryption_service.html#a605da446a6ec28faa7c6e1d26a4cb2ca" target="_top" xlink:title="Decrypts the given cipher text using AES&#45;GCM decryption.">
<polygon fill="white" stroke="#666666" points="1009,-182 867.75,-182 867.75,-150 1009,-150 1009,-182"/>
<text text-anchor="start" x="875.75" y="-168.5" font-family="Helvetica,sans-Serif" font-size="10.00">fr.softsf.sudokufx.interfaces.</text>
<text text-anchor="middle" x="938.38" y="-156.5" font-family="Helvetica,sans-Serif" font-size="10.00">IEncryptionService.decrypt</text>
</a>
</g>
</g>
<!-- Node4&#45;&gt;Node5 -->
<g id="edge4_Node000004_Node000005" class="edge">
<title>Node4&#45;&gt;Node5</title>
<g id="a_edge4_Node000004_Node000005"><a xlink:title=" ">
<path fill="none" stroke="#63b8ff" d="M783.92,-166C808.26,-166 833.37,-166 856.06,-166"/>
<polygon fill="#63b8ff" stroke="#63b8ff" points="855.83,-169.5 865.83,-166 855.83,-162.5 855.83,-169.5"/>
</a>
</g>
</g>
<!-- Node7 -->
<g id="Node000007" class="node">
<title>Node7</title>
<g id="a_Node000007"><a xlink:href="classfr_1_1softsf_1_1sudokufx_1_1configuration_1_1database_1_1keystore_1_1_application_keystore.html#a008e893ed5b277beddf18364cb3e7717" target="_top" xlink:title="Add alias:secret in the Keystore.">
<polygon fill="white" stroke="#666666" points="1057,-32 819.75,-32 819.75,0 1057,0 1057,-32"/>
<text text-anchor="start" x="827.75" y="-18.5" font-family="Helvetica,sans-Serif" font-size="10.00">fr.softsf.sudokufx.configuration.database.keystore.</text>
<text text-anchor="middle" x="938.38" y="-6.5" font-family="Helvetica,sans-Serif" font-size="10.00">ApplicationKeystore.addToKeystore</text>
</a>
</g>
</g>
<!-- Node6&#45;&gt;Node7 -->
<g id="edge6_Node000006_Node000007" class="edge">
<title>Node6&#45;&gt;Node7</title>
<g id="a_edge6_Node000006_Node000007"><a xlink:title=" ">
<path fill="none" stroke="#63b8ff" d="M767.89,-99.56C773.44,-97.09 778.77,-94.25 783.75,-91 806.68,-76.04 796.82,-55.96 819.75,-41 821.62,-39.78 823.54,-38.62 825.5,-37.51"/>
<polygon fill="#63b8ff" stroke="#63b8ff" points="826.89,-40.73 834.25,-33.12 823.75,-34.48 826.89,-40.73"/>
</a>
</g>
</g>
<!-- Node9 -->
<g id="Node000009" class="node">
<title>Node9</title>
<g id="a_Node000009"><a xlink:href="interfacefr_1_1softsf_1_1sudokufx_1_1interfaces_1_1_i_encryption_service.html#a7cd39caadae83b3502b56b96d349cfc5" target="_top" xlink:title="Encrypts the given string using AES&#45;GCM encryption.">
<polygon fill="white" stroke="#666666" points="1009,-132 867.75,-132 867.75,-100 1009,-100 1009,-132"/>
<text text-anchor="start" x="875.75" y="-118.5" font-family="Helvetica,sans-Serif" font-size="10.00">fr.softsf.sudokufx.interfaces.</text>
<text text-anchor="middle" x="938.38" y="-106.5" font-family="Helvetica,sans-Serif" font-size="10.00">IEncryptionService.encrypt</text>
</a>
</g>
</g>
<!-- Node6&#45;&gt;Node9 -->
<g id="edge8_Node000006_Node000009" class="edge">
<title>Node6&#45;&gt;Node9</title>
<g id="a_edge8_Node000006_Node000009"><a xlink:title=" ">
<path fill="none" stroke="#63b8ff" d="M783.92,-116C808.26,-116 833.37,-116 856.06,-116"/>
<polygon fill="#63b8ff" stroke="#63b8ff" points="855.83,-119.5 865.83,-116 855.83,-112.5 855.83,-119.5"/>
</a>
</g>
</g>
<!-- Node10 -->
<g id="Node000010" class="node">
<title>Node10</title>
<g id="a_Node000010"><a xlink:href="classfr_1_1softsf_1_1sudokufx_1_1configuration_1_1database_1_1keystore_1_1_generate_secret.html#a5fda282a789c0e8f06fb31e21b1bc799" target="_top" xlink:title="Generate Passay secret.">
<polygon fill="white" stroke="#666666" points="1057,-82 819.75,-82 819.75,-50 1057,-50 1057,-82"/>
<text text-anchor="start" x="827.75" y="-68.5" font-family="Helvetica,sans-Serif" font-size="10.00">fr.softsf.sudokufx.configuration.database.keystore.</text>
<text text-anchor="middle" x="938.38" y="-56.5" font-family="Helvetica,sans-Serif" font-size="10.00">GenerateSecret.generatePassaySecret</text>
</a>
</g>
</g>
<!-- Node6&#45;&gt;Node10 -->
<g id="edge9_Node000006_Node000010" class="edge">
<title>Node6&#45;&gt;Node10</title>
<g id="a_edge9_Node000006_Node000010"><a xlink:title=" ">
<path fill="none" stroke="#63b8ff" d="M755.32,-99.56C781.51,-94.73 810.33,-89.42 837.16,-84.47"/>
<polygon fill="#63b8ff" stroke="#63b8ff" points="837.44,-87.98 846.64,-82.73 836.17,-81.1 837.44,-87.98"/>
</a>
</g>
</g>
<!-- Node8 -->
<g id="Node000008" class="node">
<title>Node8</title>
<g id="a_Node000008"><a xlink:href="classfr_1_1softsf_1_1sudokufx_1_1configuration_1_1database_1_1keystore_1_1_application_keystore.html#a5b59f7e68f287d239665b10bc0fc1f54" target="_top" xlink:title="Write data to the keystore file.">
<polygon fill="white" stroke="#666666" points="1330.25,-32 1093,-32 1093,0 1330.25,0 1330.25,-32"/>
<text text-anchor="start" x="1101" y="-18.5" font-family="Helvetica,sans-Serif" font-size="10.00">fr.softsf.sudokufx.configuration.database.keystore.</text>
<text text-anchor="middle" x="1211.62" y="-6.5" font-family="Helvetica,sans-Serif" font-size="10.00">ApplicationKeystore.writeTheKeystore</text>
</a>
</g>
</g>
<!-- Node7&#45;&gt;Node8 -->
<g id="edge7_Node000007_Node000008" class="edge">
<title>Node7&#45;&gt;Node8</title>
<g id="a_edge7_Node000007_Node000008"><a xlink:title=" ">
<path fill="none" stroke="#63b8ff" d="M1057.17,-16C1065.13,-16 1073.19,-16 1081.21,-16"/>
<polygon fill="#63b8ff" stroke="#63b8ff" points="1081.01,-19.5 1091.01,-16 1081.01,-12.5 1081.01,-19.5"/>
</a>
</g>
</g>
<!-- Node11 -->
<g id="Node000011" class="node">
<title>Node11</title>
<g id="a_Node000011"><a xlink:href="classfr_1_1softsf_1_1sudokufx_1_1configuration_1_1database_1_1keystore_1_1_generate_secret.html#af34379a687b7397f2f71e5ac1580d5e7" target="_top" xlink:title="Define the secret special characters.">
<polygon fill="white" stroke="#666666" points="1330.25,-82 1093,-82 1093,-50 1330.25,-50 1330.25,-82"/>
<text text-anchor="start" x="1101" y="-68.5" font-family="Helvetica,sans-Serif" font-size="10.00">fr.softsf.sudokufx.configuration.database.keystore.</text>
<text text-anchor="middle" x="1211.62" y="-56.5" font-family="Helvetica,sans-Serif" font-size="10.00">GenerateSecret.createSpecialChars</text>
</a>
</g>
</g>
<!-- Node10&#45;&gt;Node11 -->
<g id="edge10_Node000010_Node000011" class="edge">
<title>Node10&#45;&gt;Node11</title>
<g id="a_edge10_Node000010_Node000011"><a xlink:title=" ">
<path fill="none" stroke="#63b8ff" d="M1057.17,-66C1065.13,-66 1073.19,-66 1081.21,-66"/>
<polygon fill="#63b8ff" stroke="#63b8ff" points="1081.01,-69.5 1091.01,-66 1081.01,-62.5 1081.01,-69.5"/>
</a>
</g>
</g>
<!-- Node15 -->
<g id="Node000015" class="node">
<title>Node15</title>
<g id="a_Node000015"><a xlink:href="classfr_1_1softsf_1_1sudokufx_1_1configuration_1_1database_1_1keystore_1_1_application_keystore.html#a70c14c3c3a34730a2d2c9aa4f462ecea" target="_top" xlink:title="Get the symmetric key and set encryption service.">
<polygon fill="white" stroke="#666666" points="783.75,-82 546.5,-82 546.5,-50 783.75,-50 783.75,-82"/>
<text text-anchor="start" x="554.5" y="-68.5" font-family="Helvetica,sans-Serif" font-size="10.00">fr.softsf.sudokufx.configuration.database.keystore.</text>
<text text-anchor="middle" x="665.12" y="-56.5" font-family="Helvetica,sans-Serif" font-size="10.00">ApplicationKeystore.symmetricKeyIsInKeystore</text>
</a>
</g>
</g>
<!-- Node14&#45;&gt;Node15 -->
<g id="edge14_Node000014_Node000015" class="edge">
<title>Node14&#45;&gt;Node15</title>
<g id="a_edge14_Node000014_Node000015"><a xlink:title=" ">
<path fill="none" stroke="#63b8ff" d="M482.07,-32.44C508.26,-37.27 537.08,-42.58 563.91,-47.53"/>
<polygon fill="#63b8ff" stroke="#63b8ff" points="562.92,-50.9 573.39,-49.27 564.19,-44.02 562.92,-50.9"/>
</a>
</g>
</g>
<!-- Node16 -->
<g id="Node000016" class="node">
<title>Node16</title>
<g id="a_Node000016"><a xlink:href="classfr_1_1softsf_1_1sudokufx_1_1configuration_1_1database_1_1keystore_1_1_application_keystore.html#a887edead033a55dba7b85aef8fdb8067" target="_top" xlink:title="Set the symmetric key and set encryption service.">
<polygon fill="white" stroke="#666666" points="783.75,-32 546.5,-32 546.5,0 783.75,0 783.75,-32"/>
<text text-anchor="start" x="554.5" y="-18.5" font-family="Helvetica,sans-Serif" font-size="10.00">fr.softsf.sudokufx.configuration.database.keystore.</text>
<text text-anchor="middle" x="665.12" y="-6.5" font-family="Helvetica,sans-Serif" font-size="10.00">ApplicationKeystore.symmetricKeyNotInKeystore</text>
</a>
</g>
</g>
<!-- Node14&#45;&gt;Node16 -->
<g id="edge15_Node000014_Node000016" class="edge">
<title>Node14&#45;&gt;Node16</title>
<g id="a_edge15_Node000014_Node000016"><a xlink:title=" ">
<path fill="none" stroke="#63b8ff" d="M510.67,-9.3C518.63,-9.26 526.69,-9.24 534.71,-9.26"/>
<polygon fill="#63b8ff" stroke="#63b8ff" points="534.49,-12.76 544.51,-9.29 534.52,-5.76 534.49,-12.76"/>
</a>
</g>
</g>
<!-- Node16&#45;&gt;Node7 -->
<g id="edge16_Node000016_Node000007" class="edge">
<title>Node16&#45;&gt;Node7</title>
<g id="a_edge16_Node000016_Node000007"><a xlink:title=" ">
<path fill="none" stroke="#63b8ff" d="M783.92,-16C791.88,-16 799.94,-16 807.96,-16"/>
<polygon fill="#63b8ff" stroke="#63b8ff" points="807.76,-19.5 817.76,-16 807.76,-12.5 807.76,-19.5"/>
</a>
</g>
</g>
<!-- Node16&#45;&gt;Node14 -->
<g id="edge17_Node000016_Node000014" class="edge">
<title>Node16&#45;&gt;Node14</title>
<g id="a_edge17_Node000016_Node000014"><a xlink:title=" ">
<path fill="none" stroke="#63b8ff" d="M546.02,-22.7C538.05,-22.75 530,-22.76 521.98,-22.74"/>
<polygon fill="#63b8ff" stroke="#63b8ff" points="522.19,-19.24 512.18,-22.7 522.17,-26.24 522.19,-19.24"/>
</a>
</g>
</g>
</g>
</svg>
