<?xml version="1.0" encoding="UTF-8" standalone="no"?>
<!DOCTYPE svg PUBLIC "-//W3C//DTD SVG 1.1//EN"
 "http://www.w3.org/Graphics/SVG/1.1/DTD/svg11.dtd">
<!-- Generated by graphviz version 12.2.0 (20241103.1931)
 -->
<!-- Title: fr.softsf.sudokufx.view.CrashScreenView Pages: 1 -->
<svg width="1304pt" height="556pt"
 viewBox="0.00 0.00 1304.26 556.00" xmlns="http://www.w3.org/2000/svg" xmlns:xlink="http://www.w3.org/1999/xlink">
<g id="graph0" class="graph" transform="scale(1 1) rotate(0) translate(4 552)">
<title>fr.softsf.sudokufx.view.CrashScreenView</title>
<!-- Node1 -->
<g id="Node000001" class="node">
<title>Node1</title>
<g id="a_Node000001"><a xlink:title="View class for the crash screen without business logic.">
<polygon fill="#999999" stroke="none" points="647.5,-340 475,-340 475,0 647.5,0 647.5,-340"/>
<text text-anchor="start" x="510.25" y="-326.5" font-family="Helvetica,sans-Serif" font-size="10.00">fr.softsf.sudokufx.view.</text>
<text text-anchor="start" x="521.88" y="-314.5" font-family="Helvetica,sans-Serif" font-size="10.00">CrashScreenView</text>
<text text-anchor="start" x="480.5" y="-298.5" font-family="Helvetica,sans-Serif" font-size="10.00">&#45;</text>
<text text-anchor="start" x="489" y="-298.5" font-family="Helvetica,sans-Serif" font-size="10.00">double crashScreenFontSize</text>
<text text-anchor="start" x="480.5" y="-282.5" font-family="Helvetica,sans-Serif" font-size="10.00">&#45;</text>
<text text-anchor="start" x="489" y="-282.5" font-family="Helvetica,sans-Serif" font-size="10.00">static final double</text>
<text text-anchor="start" x="489" y="-270.5" font-family="Helvetica,sans-Serif" font-size="10.00"> FADE_IN_IN_SECONDS</text>
<text text-anchor="start" x="489" y="-258.5" font-family="Helvetica,sans-Serif" font-size="10.00">_AFTER_SPLASHSCREEN</text>
<text text-anchor="start" x="479" y="-242.5" font-family="Helvetica,sans-Serif" font-size="10.00">+</text>
<text text-anchor="start" x="489" y="-242.5" font-family="Helvetica,sans-Serif" font-size="10.00">void openingMainStage</text>
<text text-anchor="start" x="489" y="-230.5" font-family="Helvetica,sans-Serif" font-size="10.00">(ISplashScreenView iSplashScreen</text>
<text text-anchor="start" x="489" y="-218.5" font-family="Helvetica,sans-Serif" font-size="10.00">View)</text>
<text text-anchor="start" x="480.5" y="-202.5" font-family="Helvetica,sans-Serif" font-size="10.00">&#45;</text>
<text text-anchor="start" x="489" y="-202.5" font-family="Helvetica,sans-Serif" font-size="10.00">void closeButtonClick()</text>
<text text-anchor="start" x="480.5" y="-186.5" font-family="Helvetica,sans-Serif" font-size="10.00">&#45;</text>
<text text-anchor="start" x="489" y="-186.5" font-family="Helvetica,sans-Serif" font-size="10.00">void createSVG(final</text>
<text text-anchor="start" x="489" y="-174.5" font-family="Helvetica,sans-Serif" font-size="10.00"> Region region, final</text>
<text text-anchor="start" x="489" y="-162.5" font-family="Helvetica,sans-Serif" font-size="10.00"> String path, final double</text>
<text text-anchor="start" x="489" y="-150.5" font-family="Helvetica,sans-Serif" font-size="10.00"> width, final double height,</text>
<text text-anchor="start" x="489" y="-138.5" font-family="Helvetica,sans-Serif" font-size="10.00"> final double offsetX, final</text>
<text text-anchor="start" x="489" y="-126.5" font-family="Helvetica,sans-Serif" font-size="10.00"> double offsetY)</text>
<text text-anchor="start" x="480.5" y="-110.5" font-family="Helvetica,sans-Serif" font-size="10.00">&#45;</text>
<text text-anchor="start" x="489" y="-110.5" font-family="Helvetica,sans-Serif" font-size="10.00">void fadeIn(final Node</text>
<text text-anchor="start" x="489" y="-98.5" font-family="Helvetica,sans-Serif" font-size="10.00"> node)</text>
<text text-anchor="start" x="480.5" y="-82.5" font-family="Helvetica,sans-Serif" font-size="10.00">&#45;</text>
<text text-anchor="start" x="489" y="-82.5" font-family="Helvetica,sans-Serif" font-size="10.00">void hidecrashscreen()</text>
<text text-anchor="start" x="480.5" y="-66.5" font-family="Helvetica,sans-Serif" font-size="10.00">&#45;</text>
<text text-anchor="start" x="489" y="-66.5" font-family="Helvetica,sans-Serif" font-size="10.00">void initialize()</text>
<text text-anchor="start" x="480.5" y="-50.5" font-family="Helvetica,sans-Serif" font-size="10.00">&#45;</text>
<text text-anchor="start" x="489" y="-50.5" font-family="Helvetica,sans-Serif" font-size="10.00">void resetButtonClick()</text>
<text text-anchor="start" x="480.5" y="-34.5" font-family="Helvetica,sans-Serif" font-size="10.00">&#45;</text>
<text text-anchor="start" x="489" y="-34.5" font-family="Helvetica,sans-Serif" font-size="10.00">void setCrashscreenvboxTophbox</text>
<text text-anchor="start" x="489" y="-22.5" font-family="Helvetica,sans-Serif" font-size="10.00">Logosudosvg()</text>
<text text-anchor="start" x="480.5" y="-6.5" font-family="Helvetica,sans-Serif" font-size="10.00">&#45;</text>
<text text-anchor="start" x="489" y="-6.5" font-family="Helvetica,sans-Serif" font-size="10.00">void showcrashscreen()</text>
<polygon fill="#666666" stroke="#666666" points="475,-310 475,-310 647.5,-310 647.5,-310 475,-310"/>
<polygon fill="#666666" stroke="#666666" points="475,-254 475,-254 487,-254 487,-254 475,-254"/>
<polygon fill="#666666" stroke="#666666" points="487,-254 487,-254 647.5,-254 647.5,-254 487,-254"/>
<polygon fill="none" stroke="#666666" points="475,0 475,-340 647.5,-340 647.5,0 475,0"/>
</a>
</g>
</g>
<!-- Node2 -->
<g id="Node000002" class="node">
<title>Node2</title>
<g id="a_Node000002"><a xlink:href="interfacefr_1_1softsf_1_1sudokufx_1_1_sudo_main_1_1_i_primary_stage_view.html" target="_top" xlink:title="Interface for the primary stage view.">
<polygon fill="white" stroke="none" points="172.5,-548 0,-548 0,-460 172.5,-460 172.5,-548"/>
<text text-anchor="start" x="23.25" y="-534.5" font-family="Helvetica,sans-Serif" font-size="10.00">fr.softsf.sudokufx.SudoMain.</text>
<text text-anchor="start" x="44.25" y="-522.5" font-family="Helvetica,sans-Serif" font-size="10.00">IPrimaryStageView</text>
<text text-anchor="start" x="84.75" y="-506.5" font-family="Helvetica,sans-Serif" font-size="10.00"> </text>
<text text-anchor="start" x="4" y="-490.5" font-family="Helvetica,sans-Serif" font-size="10.00">+</text>
<text text-anchor="start" x="14" y="-490.5" font-family="Helvetica,sans-Serif" font-size="10.00">void openingMainStage</text>
<text text-anchor="start" x="14" y="-478.5" font-family="Helvetica,sans-Serif" font-size="10.00">(ISplashScreenView iSplashScreen</text>
<text text-anchor="start" x="14" y="-466.5" font-family="Helvetica,sans-Serif" font-size="10.00">View)</text>
<polygon fill="#666666" stroke="#666666" points="0,-518 0,-518 172.5,-518 172.5,-518 0,-518"/>
<polygon fill="#666666" stroke="#666666" points="0,-502 0,-502 172.5,-502 172.5,-502 0,-502"/>
<polygon fill="none" stroke="#666666" points="0,-460 0,-548 172.5,-548 172.5,-460 0,-460"/>
</a>
</g>
</g>
<!-- Node2&#45;&gt;Node1 -->
<g id="edge1_Node000001_Node000002" class="edge">
<title>Node2&#45;&gt;Node1</title>
<g id="a_edge1_Node000001_Node000002"><a xlink:title=" ">
<path fill="none" stroke="#63b8ff" d="M142.6,-452.64C175.9,-423.74 219.42,-387.48 260.25,-358 330.21,-307.49 413.85,-256.2 475.19,-220.14"/>
<polygon fill="none" stroke="#63b8ff" points="140.31,-449.99 135.07,-459.2 144.91,-455.27 140.31,-449.99"/>
</a>
</g>
</g>
<!-- Node3 -->
<g id="Node000003" class="node">
<title>Node3</title>
<g id="a_Node000003"><a xlink:href="interfacefr_1_1softsf_1_1sudokufx_1_1interfaces_1_1_i_os_folder_factory.html" target="_top" xlink:title="Interface defining methods for accessing OS&#45;specific folder paths.">
<polygon fill="white" stroke="none" points="337.75,-544 190.75,-544 190.75,-464 337.75,-464 337.75,-544"/>
<text text-anchor="start" x="201.62" y="-530.5" font-family="Helvetica,sans-Serif" font-size="10.00">fr.softsf.sudokufx.interfaces.</text>
<text text-anchor="start" x="226.38" y="-518.5" font-family="Helvetica,sans-Serif" font-size="10.00">IOsFolderFactory</text>
<text text-anchor="start" x="262.75" y="-502.5" font-family="Helvetica,sans-Serif" font-size="10.00"> </text>
<text text-anchor="start" x="194.75" y="-486.5" font-family="Helvetica,sans-Serif" font-size="10.00">+</text>
<text text-anchor="start" x="204.75" y="-486.5" font-family="Helvetica,sans-Serif" font-size="10.00">String getOsDataFolderPath()</text>
<text text-anchor="start" x="194.75" y="-470.5" font-family="Helvetica,sans-Serif" font-size="10.00">+</text>
<text text-anchor="start" x="204.75" y="-470.5" font-family="Helvetica,sans-Serif" font-size="10.00">String getOsLogsFolderPath()</text>
<polygon fill="#666666" stroke="#666666" points="190.75,-514 190.75,-514 337.75,-514 337.75,-514 190.75,-514"/>
<polygon fill="#666666" stroke="#666666" points="190.75,-498 190.75,-498 337.75,-498 337.75,-498 190.75,-498"/>
<polygon fill="none" stroke="#666666" points="190.75,-464 190.75,-544 337.75,-544 337.75,-464 190.75,-464"/>
</a>
</g>
</g>
<!-- Node3&#45;&gt;Node1 -->
<g id="edge2_Node000001_Node000003" class="edge">
<title>Node3&#45;&gt;Node1</title>
<g id="a_edge2_Node000001_Node000003"><a xlink:title=" ">
<path fill="none" stroke="#63b8ff" d="M262.96,-464.04C263.73,-433.03 268.93,-389.73 289.25,-358 330.84,-293.06 403.87,-244.72 463.79,-213.47"/>
<polygon fill="none" stroke="#63b8ff" points="463.71,-213.51 467.24,-207.22 474.4,-208.05 470.88,-214.34 463.71,-213.51"/>
</a>
</g>
<text text-anchor="middle" x="329.75" y="-396.5" font-family="Helvetica,sans-Serif" font-size="10.00" fill="grey"> &#45;iOsFolderFactory</text>
</g>
<!-- Node4 -->
<g id="Node000004" class="node">
<title>Node4</title>
<g id="a_Node000004"><a xlink:title=" ">
<polygon fill="white" stroke="none" points="389,-530 355.5,-530 355.5,-478 389,-478 389,-530"/>
<text text-anchor="start" x="359.5" y="-516.5" font-family="Helvetica,sans-Serif" font-size="10.00">Stage</text>
<text text-anchor="start" x="370.75" y="-500.5" font-family="Helvetica,sans-Serif" font-size="10.00"> </text>
<text text-anchor="start" x="370.75" y="-484.5" font-family="Helvetica,sans-Serif" font-size="10.00"> </text>
<polygon fill="#666666" stroke="#666666" points="355.5,-512 355.5,-512 389,-512 389,-512 355.5,-512"/>
<polygon fill="#666666" stroke="#666666" points="355.5,-496 355.5,-496 389,-496 389,-496 355.5,-496"/>
<polygon fill="none" stroke="#666666" points="355.5,-478 355.5,-530 389,-530 389,-478 355.5,-478"/>
</a>
</g>
</g>
<!-- Node4&#45;&gt;Node1 -->
<g id="edge3_Node000001_Node000004" class="edge">
<title>Node4&#45;&gt;Node1</title>
<g id="a_edge3_Node000001_Node000004"><a xlink:title=" ">
<path fill="none" stroke="#63b8ff" d="M371.85,-478.16C372.29,-448.26 376.05,-397.17 394.5,-358 411.9,-321.07 438.95,-286.09 466.23,-256.59"/>
<polygon fill="none" stroke="#63b8ff" points="466.23,-256.59 467.44,-249.48 474.47,-247.86 473.26,-254.97 466.23,-256.59"/>
</a>
</g>
<text text-anchor="middle" x="436.88" y="-402.5" font-family="Helvetica,sans-Serif" font-size="10.00" fill="grey"> &#45;crashscreenStage</text>
<text text-anchor="middle" x="436.88" y="-390.5" font-family="Helvetica,sans-Serif" font-size="10.00" fill="grey">&#45;primaryStage</text>
</g>
<!-- Node5 -->
<g id="Node000005" class="node">
<title>Node5</title>
<g id="a_Node000005"><a xlink:title=" ">
<polygon fill="white" stroke="none" points="510.38,-530 446.12,-530 446.12,-478 510.38,-478 510.38,-530"/>
<text text-anchor="start" x="450.12" y="-516.5" font-family="Helvetica,sans-Serif" font-size="10.00">DropShadow</text>
<text text-anchor="start" x="476.75" y="-500.5" font-family="Helvetica,sans-Serif" font-size="10.00"> </text>
<text text-anchor="start" x="476.75" y="-484.5" font-family="Helvetica,sans-Serif" font-size="10.00"> </text>
<polygon fill="#666666" stroke="#666666" points="446.12,-512 446.12,-512 510.38,-512 510.38,-512 446.12,-512"/>
<polygon fill="#666666" stroke="#666666" points="446.12,-496 446.12,-496 510.38,-496 510.38,-496 446.12,-496"/>
<polygon fill="none" stroke="#666666" points="446.12,-478 446.12,-530 510.38,-530 510.38,-478 446.12,-478"/>
</a>
</g>
</g>
<!-- Node5&#45;&gt;Node1 -->
<g id="edge4_Node000001_Node000005" class="edge">
<title>Node5&#45;&gt;Node1</title>
<g id="a_edge4_Node000001_Node000005"><a xlink:title=" ">
<path fill="none" stroke="#63b8ff" d="M479.99,-478.1C482.38,-449 487.53,-399.53 497.25,-358 497.69,-356.12 498.14,-354.23 498.6,-352.34"/>
<polygon fill="none" stroke="#63b8ff" points="498.62,-352.27 496.23,-345.46 501.58,-340.64 503.98,-347.44 498.62,-352.27"/>
</a>
</g>
<text text-anchor="middle" x="527.25" y="-396.5" font-family="Helvetica,sans-Serif" font-size="10.00" fill="grey"> &#45;dropShadow</text>
</g>
<!-- Node6 -->
<g id="Node000006" class="node">
<title>Node6</title>
<g id="a_Node000006"><a xlink:title=" ">
<polygon fill="white" stroke="none" points="577.25,-530 545.25,-530 545.25,-478 577.25,-478 577.25,-530"/>
<text text-anchor="start" x="549.25" y="-516.5" font-family="Helvetica,sans-Serif" font-size="10.00">VBox</text>
<text text-anchor="start" x="559.75" y="-500.5" font-family="Helvetica,sans-Serif" font-size="10.00"> </text>
<text text-anchor="start" x="559.75" y="-484.5" font-family="Helvetica,sans-Serif" font-size="10.00"> </text>
<polygon fill="#666666" stroke="#666666" points="545.25,-512 545.25,-512 577.25,-512 577.25,-512 545.25,-512"/>
<polygon fill="#666666" stroke="#666666" points="545.25,-496 545.25,-496 577.25,-496 577.25,-496 545.25,-496"/>
<polygon fill="none" stroke="#666666" points="545.25,-478 545.25,-530 577.25,-530 577.25,-478 545.25,-478"/>
</a>
</g>
</g>
<!-- Node6&#45;&gt;Node1 -->
<g id="edge5_Node000001_Node000006" class="edge">
<title>Node6&#45;&gt;Node1</title>
<g id="a_edge5_Node000001_Node000006"><a xlink:title=" ">
<path fill="none" stroke="#63b8ff" d="M561.25,-478.05C561.25,-450.16 561.25,-402.37 561.25,-352.69"/>
<polygon fill="none" stroke="#63b8ff" points="561.25,-352.59 557.25,-346.59 561.25,-340.59 565.25,-346.59 561.25,-352.59"/>
</a>
</g>
<text text-anchor="middle" x="601.38" y="-396.5" font-family="Helvetica,sans-Serif" font-size="10.00" fill="grey"> &#45;crashscreenvbox</text>
</g>
<!-- Node7 -->
<g id="Node000007" class="node">
<title>Node7</title>
<g id="a_Node000007"><a xlink:title=" ">
<polygon fill="white" stroke="none" points="683.62,-530 644.88,-530 644.88,-478 683.62,-478 683.62,-530"/>
<text text-anchor="start" x="648.88" y="-516.5" font-family="Helvetica,sans-Serif" font-size="10.00">Region</text>
<text text-anchor="start" x="662.75" y="-500.5" font-family="Helvetica,sans-Serif" font-size="10.00"> </text>
<text text-anchor="start" x="662.75" y="-484.5" font-family="Helvetica,sans-Serif" font-size="10.00"> </text>
<polygon fill="#666666" stroke="#666666" points="644.88,-512 644.88,-512 683.62,-512 683.62,-512 644.88,-512"/>
<polygon fill="#666666" stroke="#666666" points="644.88,-496 644.88,-496 683.62,-496 683.62,-496 644.88,-496"/>
<polygon fill="none" stroke="#666666" points="644.88,-478 644.88,-530 683.62,-530 683.62,-478 644.88,-478"/>
</a>
</g>
</g>
<!-- Node7&#45;&gt;Node1 -->
<g id="edge6_Node000001_Node000007" class="edge">
<title>Node7&#45;&gt;Node1</title>
<g id="a_edge6_Node000001_Node000007"><a xlink:title=" ">
<path fill="none" stroke="#63b8ff" d="M662.45,-478.21C659.88,-449.01 654.09,-399.24 642.25,-358 641.68,-356.02 641.1,-354.03 640.5,-352.04"/>
<polygon fill="none" stroke="#63b8ff" points="640.5,-352.05 634.89,-347.53 636.9,-340.6 642.52,-345.13 640.5,-352.05"/>
</a>
</g>
<text text-anchor="middle" x="750.51" y="-396.5" font-family="Helvetica,sans-Serif" font-size="10.00" fill="grey"> &#45;crashscreenvboxTophboxRegionsudosvg</text>
</g>
<!-- Node8 -->
<g id="Node000008" class="node">
<title>Node8</title>
<g id="a_Node000008"><a xlink:title=" ">
<polygon fill="white" stroke="none" points="887.88,-530 856.62,-530 856.62,-478 887.88,-478 887.88,-530"/>
<text text-anchor="start" x="860.62" y="-516.5" font-family="Helvetica,sans-Serif" font-size="10.00">Label</text>
<text text-anchor="start" x="870.75" y="-500.5" font-family="Helvetica,sans-Serif" font-size="10.00"> </text>
<text text-anchor="start" x="870.75" y="-484.5" font-family="Helvetica,sans-Serif" font-size="10.00"> </text>
<polygon fill="#666666" stroke="#666666" points="856.62,-512 856.62,-512 887.88,-512 887.88,-512 856.62,-512"/>
<polygon fill="#666666" stroke="#666666" points="856.62,-496 856.62,-496 887.88,-496 887.88,-496 856.62,-496"/>
<polygon fill="none" stroke="#666666" points="856.62,-478 856.62,-530 887.88,-530 887.88,-478 856.62,-478"/>
</a>
</g>
</g>
<!-- Node8&#45;&gt;Node1 -->
<g id="edge7_Node000001_Node000008" class="edge">
<title>Node8&#45;&gt;Node1</title>
<g id="a_edge7_Node000001_Node000008"><a xlink:title=" ">
<path fill="none" stroke="#63b8ff" d="M873.74,-478C874.35,-447.25 871.3,-394.62 847.25,-358 802.33,-289.62 722.8,-240.64 658.99,-210.01"/>
<polygon fill="none" stroke="#63b8ff" points="658.95,-209.99 651.82,-211.06 648.09,-204.88 655.22,-203.82 658.95,-209.99"/>
</a>
</g>
<text text-anchor="start" x="872.37" y="-432.5" font-family="Helvetica,sans-Serif" font-size="10.00" fill="grey"> &#45;crashscreenvboxBottomhbox</text>
<text text-anchor="middle" x="952.62" y="-420.5" font-family="Helvetica,sans-Serif" font-size="10.00" fill="grey">Versionlabel</text>
<text text-anchor="start" x="872.37" y="-408.5" font-family="Helvetica,sans-Serif" font-size="10.00" fill="grey">&#45;crashscreenvboxBottomhbox</text>
<text text-anchor="middle" x="952.62" y="-396.5" font-family="Helvetica,sans-Serif" font-size="10.00" fill="grey">Yearlabel</text>
<text text-anchor="middle" x="952.62" y="-384.5" font-family="Helvetica,sans-Serif" font-size="10.00" fill="grey">&#45;crashscreenvboxCenterhboxLabel</text>
<text text-anchor="middle" x="952.62" y="-372.5" font-family="Helvetica,sans-Serif" font-size="10.00" fill="grey">&#45;crashscreenvboxCenterhboxLabel2</text>
<text text-anchor="middle" x="952.62" y="-360.5" font-family="Helvetica,sans-Serif" font-size="10.00" fill="grey">&#45;crashscreenvboxTophboxNamelabel</text>
</g>
<!-- Node9 -->
<g id="Node000009" class="node">
<title>Node9</title>
<g id="a_Node000009"><a xlink:title=" ">
<polygon fill="white" stroke="none" points="1072.62,-530 1039.88,-530 1039.88,-478 1072.62,-478 1072.62,-530"/>
<text text-anchor="start" x="1043.88" y="-516.5" font-family="Helvetica,sans-Serif" font-size="10.00">HBox</text>
<text text-anchor="start" x="1054.75" y="-500.5" font-family="Helvetica,sans-Serif" font-size="10.00"> </text>
<text text-anchor="start" x="1054.75" y="-484.5" font-family="Helvetica,sans-Serif" font-size="10.00"> </text>
<polygon fill="#666666" stroke="#666666" points="1039.88,-512 1039.88,-512 1072.62,-512 1072.62,-512 1039.88,-512"/>
<polygon fill="#666666" stroke="#666666" points="1039.88,-496 1039.88,-496 1072.62,-496 1072.62,-496 1039.88,-496"/>
<polygon fill="none" stroke="#666666" points="1039.88,-478 1039.88,-530 1072.62,-530 1072.62,-478 1039.88,-478"/>
</a>
</g>
</g>
<!-- Node9&#45;&gt;Node1 -->
<g id="edge8_Node000001_Node000009" class="edge">
<title>Node9&#45;&gt;Node1</title>
<g id="a_edge8_Node000001_Node000009"><a xlink:title=" ">
<path fill="none" stroke="#63b8ff" d="M1055.42,-478.2C1053.71,-441.77 1048.68,-376.13 1034.25,-358 942.45,-242.71 769.32,-198.27 659.91,-181.29"/>
<polygon fill="none" stroke="#63b8ff" points="659.99,-181.3 653.46,-184.38 648.12,-179.54 654.64,-176.46 659.99,-181.3"/>
</a>
</g>
<text text-anchor="middle" x="1129.74" y="-396.5" font-family="Helvetica,sans-Serif" font-size="10.00" fill="grey"> &#45;crashscreenvboxCenterhboxHbox</text>
</g>
<!-- Node10 -->
<g id="Node000010" class="node">
<title>Node10</title>
<g id="a_Node000010"><a xlink:title=" ">
<polygon fill="white" stroke="none" points="1251.5,-530 1215,-530 1215,-478 1251.5,-478 1251.5,-530"/>
<text text-anchor="start" x="1219" y="-516.5" font-family="Helvetica,sans-Serif" font-size="10.00">Button</text>
<text text-anchor="start" x="1231.75" y="-500.5" font-family="Helvetica,sans-Serif" font-size="10.00"> </text>
<text text-anchor="start" x="1231.75" y="-484.5" font-family="Helvetica,sans-Serif" font-size="10.00"> </text>
<polygon fill="#666666" stroke="#666666" points="1215,-512 1215,-512 1251.5,-512 1251.5,-512 1215,-512"/>
<polygon fill="#666666" stroke="#666666" points="1215,-496 1215,-496 1251.5,-496 1251.5,-496 1215,-496"/>
<polygon fill="none" stroke="#666666" points="1215,-478 1215,-530 1251.5,-530 1251.5,-478 1215,-478"/>
</a>
</g>
</g>
<!-- Node10&#45;&gt;Node1 -->
<g id="edge9_Node000001_Node000010" class="edge">
<title>Node10&#45;&gt;Node1</title>
<g id="a_edge9_Node000001_Node000010"><a xlink:title=" ">
<path fill="none" stroke="#63b8ff" d="M1236.72,-478.13C1239.69,-446.28 1239.62,-391.23 1210.25,-358 1137.41,-275.58 822.76,-213.53 659.85,-186.26"/>
<polygon fill="none" stroke="#63b8ff" points="660.17,-186.31 653.59,-189.28 648.33,-184.35 654.9,-181.38 660.17,-186.31"/>
</a>
</g>
<text text-anchor="middle" x="1267.01" y="-402.5" font-family="Helvetica,sans-Serif" font-size="10.00" fill="grey"> &#45;buttonClose</text>
<text text-anchor="middle" x="1267.01" y="-390.5" font-family="Helvetica,sans-Serif" font-size="10.00" fill="grey">&#45;buttonReset</text>
</g>
</g>
</svg>
