<?xml version="1.0" encoding="UTF-8" standalone="no"?>
<!DOCTYPE svg PUBLIC "-//W3C//DTD SVG 1.1//EN"
 "http://www.w3.org/Graphics/SVG/1.1/DTD/svg11.dtd">
<!-- Generated by graphviz version 12.2.0 (20241103.1931)
 -->
<!-- Title: fr.softsf.sudokufx.SudoMain Pages: 1 -->
<!--zoomable 744 -->

<svg id="main" version="1.1" xmlns="http://www.w3.org/2000/svg" xmlns:xlink="http://www.w3.org/1999/xlink" xml:space="preserve" onload="init(evt)">

<style type="text/css"><![CDATA[
.node, .edge {opacity: 0.7;}
.node.selected, .edge.selected {opacity: 1;}
.edge:hover path { stroke: red; }
.edge:hover polygon { stroke: red; fill: red; }
]]></style>

<defs>
  <circle id="rim" cx="0" cy="0" r="7"/>
  <circle id="rim2" cx="0" cy="0" r="3.5"/>
  <g id="zoomPlus">
    <use xlink:href="#rim" fill="#404040"><set attributeName="fill" to="#808080" begin="zoomplus.mouseover" end="zoomplus.mouseout"/></use>
    <path d="M-4,0h8M0,-4v8" fill="none" stroke="white" stroke-width="1.5" pointer-events="none"/>
  </g>
  <g id="zoomMin">
    <use xlink:href="#rim" fill="#404040"><set attributeName="fill" to="#808080" begin="zoomminus.mouseover" end="zoomminus.mouseout"/></use>
    <path d="M-4,0h8" fill="none" stroke="white" stroke-width="1.5" pointer-events="none"/>
  </g>
  <g id="arrowUp" transform="translate(30 24)">
    <use xlink:href="#rim"/>
    <path pointer-events="none" fill="none" stroke="white" stroke-width="1.5" d="M0,-3.0v7 M-2.5,-0.5L0,-3.0L2.5,-0.5"/>
  </g>
  <g id="arrowRight" transform="rotate(90) translate(36 -43)">
    <use xlink:href="#rim"/>
    <path pointer-events="none" fill="none" stroke="white" stroke-width="1.5" d="M0,-3.0v7 M-2.5,-0.5L0,-3.0L2.5,-0.5"/>
  </g>
  <g id="arrowDown" transform="rotate(180) translate(-30 -48)">
    <use xlink:href="#rim"/>
    <path pointer-events="none" fill="none" stroke="white" stroke-width="1.5" d="M0,-3.0v7 M-2.5,-0.5L0,-3.0L2.5,-0.5"/>
  </g>
  <g id="arrowLeft" transform="rotate(270) translate(-36 17)">
    <use xlink:href="#rim"/>
    <path pointer-events="none" fill="none" stroke="white" stroke-width="1.5" d="M0,-3.0v7 M-2.5,-0.5L0,-3.0L2.5,-0.5"/>
  </g>
  <g id="resetDef">
    <use xlink:href="#rim2" fill="#404040"><set attributeName="fill" to="#808080" begin="reset.mouseover" end="reset.mouseout"/></use>
  </g>
</defs>
<script type="application/ecmascript">
var viewWidth = 718;
var viewHeight = 744;
var sectionId = 'dynsection-1';
</script>
<script type="application/ecmascript" xlink:href="svg.min.js"/>
<svg id="graph" class="graph">
<g id="viewport">
<title>fr.softsf.sudokufx.SudoMain</title>
<!-- Node1 -->
<g id="Node000001" class="node">
<title>Node1</title>
<g id="a_Node000001"><a xlink:title="The application main class.">
<polygon fill="#999999" stroke="none" points="383.88,-300 200.12,-300 200.12,0 383.88,0 383.88,-300"/>
<text text-anchor="start" x="230.5" y="-286.5" font-family="Helvetica,sans-Serif" font-size="10.00">fr.softsf.sudokufx.SudoMain</text>
<text text-anchor="start" x="290.5" y="-270.5" font-family="Helvetica,sans-Serif" font-size="10.00"> </text>
<text text-anchor="start" x="204.12" y="-254.5" font-family="Helvetica,sans-Serif" font-size="10.00">+</text>
<text text-anchor="start" x="214.12" y="-254.5" font-family="Helvetica,sans-Serif" font-size="10.00">void start(final Stage</text>
<text text-anchor="start" x="214.12" y="-242.5" font-family="Helvetica,sans-Serif" font-size="10.00"> splashScreenStage)</text>
<text text-anchor="start" x="204.12" y="-226.5" font-family="Helvetica,sans-Serif" font-size="10.00">+</text>
<text text-anchor="start" x="214.12" y="-226.5" font-family="Helvetica,sans-Serif" font-size="10.00">static void main(String</text>
<text text-anchor="start" x="214.12" y="-214.5" font-family="Helvetica,sans-Serif" font-size="10.00">[] args)</text>
<text text-anchor="start" x="205.62" y="-198.5" font-family="Helvetica,sans-Serif" font-size="10.00">&#45;</text>
<text text-anchor="start" x="214.12" y="-198.5" font-family="Helvetica,sans-Serif" font-size="10.00">Task&lt; Void &gt; createSpring</text>
<text text-anchor="start" x="214.12" y="-186.5" font-family="Helvetica,sans-Serif" font-size="10.00">ContextTask()</text>
<text text-anchor="start" x="205.62" y="-170.5" font-family="Helvetica,sans-Serif" font-size="10.00">&#45;</text>
<text text-anchor="start" x="214.12" y="-170.5" font-family="Helvetica,sans-Serif" font-size="10.00">PauseTransition getPause</text>
<text text-anchor="start" x="214.12" y="-158.5" font-family="Helvetica,sans-Serif" font-size="10.00">Transition(String fxmlName,</text>
<text text-anchor="start" x="214.12" y="-146.5" font-family="Helvetica,sans-Serif" font-size="10.00"> long minimumTimelapse)</text>
<text text-anchor="start" x="205.62" y="-130.5" font-family="Helvetica,sans-Serif" font-size="10.00">&#45;</text>
<text text-anchor="start" x="214.12" y="-130.5" font-family="Helvetica,sans-Serif" font-size="10.00">void handleSpringContext</text>
<text text-anchor="start" x="214.12" y="-118.5" font-family="Helvetica,sans-Serif" font-size="10.00">TaskFailed(Throwable throwable)</text>
<text text-anchor="start" x="205.62" y="-102.5" font-family="Helvetica,sans-Serif" font-size="10.00">&#45;</text>
<text text-anchor="start" x="214.12" y="-102.5" font-family="Helvetica,sans-Serif" font-size="10.00">void handleSpringContext</text>
<text text-anchor="start" x="214.12" y="-90.5" font-family="Helvetica,sans-Serif" font-size="10.00">TaskSuccess(long startTime)</text>
<text text-anchor="start" x="205.62" y="-74.5" font-family="Helvetica,sans-Serif" font-size="10.00">&#45;</text>
<text text-anchor="start" x="214.12" y="-74.5" font-family="Helvetica,sans-Serif" font-size="10.00">void initializeFxmlService()</text>
<text text-anchor="start" x="205.62" y="-58.5" font-family="Helvetica,sans-Serif" font-size="10.00">&#45;</text>
<text text-anchor="start" x="214.12" y="-58.5" font-family="Helvetica,sans-Serif" font-size="10.00">static void initScene</text>
<text text-anchor="start" x="214.12" y="-46.5" font-family="Helvetica,sans-Serif" font-size="10.00">(Stage splashScreenStage)</text>
<text text-anchor="start" x="205.62" y="-30.5" font-family="Helvetica,sans-Serif" font-size="10.00">&#45;</text>
<text text-anchor="start" x="214.12" y="-30.5" font-family="Helvetica,sans-Serif" font-size="10.00">static void sqlInvalidAuthorization</text>
<text text-anchor="start" x="214.12" y="-18.5" font-family="Helvetica,sans-Serif" font-size="10.00">(Exception e, SQLInvalidAuthorization</text>
<text text-anchor="start" x="214.12" y="-6.5" font-family="Helvetica,sans-Serif" font-size="10.00">SpecException sqlException)</text>
<polygon fill="#666666" stroke="#666666" points="200.12,-282 200.12,-282 383.88,-282 383.88,-282 200.12,-282"/>
<polygon fill="#666666" stroke="#666666" points="200.12,-266 200.12,-266 383.88,-266 383.88,-266 200.12,-266"/>
<polygon fill="none" stroke="#666666" points="200.12,0 200.12,-300 383.88,-300 383.88,0 200.12,0"/>
</a>
</g>
</g>
<!-- Node2 -->
<g id="Node000002" class="node">
<title>Node2</title>
<g id="a_Node000002"><a xlink:title=" ">
<polygon fill="white" stroke="none" points="56,-434 0,-434 0,-382 56,-382 56,-434"/>
<text text-anchor="start" x="4" y="-420.5" font-family="Helvetica,sans-Serif" font-size="10.00">Application</text>
<text text-anchor="start" x="26.5" y="-404.5" font-family="Helvetica,sans-Serif" font-size="10.00"> </text>
<text text-anchor="start" x="26.5" y="-388.5" font-family="Helvetica,sans-Serif" font-size="10.00"> </text>
<polygon fill="#666666" stroke="#666666" points="0,-416 0,-416 56,-416 56,-416 0,-416"/>
<polygon fill="#666666" stroke="#666666" points="0,-400 0,-400 56,-400 56,-400 0,-400"/>
<polygon fill="none" stroke="#666666" points="0,-382 0,-434 56,-434 56,-382 0,-382"/>
</a>
</g>
</g>
<!-- Node2&#45;&gt;Node1 -->
<g id="edge1_Node000001_Node000002" class="edge">
<title>Node2&#45;&gt;Node1</title>
<g id="a_edge1_Node000001_Node000002"><a xlink:title=" ">
<path fill="none" stroke="#63b8ff" d="M39.99,-371.83C47,-354.47 57.05,-333.91 70,-318 106.16,-273.59 156.54,-234.45 200.17,-205.24"/>
<polygon fill="none" stroke="#63b8ff" points="36.89,-370.15 36.56,-380.74 43.42,-372.66 36.89,-370.15"/>
</a>
</g>
</g>
<!-- Node3 -->
<g id="Node000003" class="node">
<title>Node3</title>
<g id="a_Node000003"><a xlink:title=" ">
<polygon fill="white" stroke="none" points="147.88,-730 112.12,-730 112.12,-678 147.88,-678 147.88,-730"/>
<text text-anchor="start" x="116.12" y="-716.5" font-family="Helvetica,sans-Serif" font-size="10.00">Scene</text>
<text text-anchor="start" x="128.5" y="-700.5" font-family="Helvetica,sans-Serif" font-size="10.00"> </text>
<text text-anchor="start" x="128.5" y="-684.5" font-family="Helvetica,sans-Serif" font-size="10.00"> </text>
<polygon fill="#666666" stroke="#666666" points="112.12,-712 112.12,-712 147.88,-712 147.88,-712 112.12,-712"/>
<polygon fill="#666666" stroke="#666666" points="112.12,-696 112.12,-696 147.88,-696 147.88,-696 112.12,-696"/>
<polygon fill="none" stroke="#666666" points="112.12,-678 112.12,-730 147.88,-730 147.88,-678 112.12,-678"/>
</a>
</g>
</g>
<!-- Node3&#45;&gt;Node1 -->
<g id="edge2_Node000001_Node000003" class="edge">
<title>Node3&#45;&gt;Node1</title>
<g id="a_edge2_Node000001_Node000003"><a xlink:title=" ">
<path fill="none" stroke="#63b8ff" d="M123.67,-678.39C109.63,-618.7 80.91,-462.65 131,-348 145.87,-313.97 168.34,-281.03 191.81,-252.16"/>
<polygon fill="none" stroke="#63b8ff" points="191.91,-252.04 192.66,-244.87 199.57,-242.81 198.82,-249.98 191.91,-252.04"/>
</a>
</g>
<text text-anchor="middle" x="119.05" y="-488.5" font-family="Helvetica,sans-Serif" font-size="10.00" fill="grey"> &#45;scene</text>
</g>
<!-- Node7 -->
<g id="Node000007" class="node">
<title>Node7</title>
<g id="a_Node000007"><a xlink:href="classfr_1_1softsf_1_1sudokufx_1_1service_1_1_fxml_service.html" target="_top" xlink:title="FxmlService is a Spring service that manages the loading of FXML files and updating the root of the J...">
<polygon fill="white" stroke="none" points="279.75,-468 140.25,-468 140.25,-348 279.75,-348 279.75,-468"/>
<text text-anchor="start" x="153" y="-454.5" font-family="Helvetica,sans-Serif" font-size="10.00">fr.softsf.sudokufx.service.</text>
<text text-anchor="start" x="182.62" y="-442.5" font-family="Helvetica,sans-Serif" font-size="10.00">FxmlService</text>
<text text-anchor="start" x="208.5" y="-426.5" font-family="Helvetica,sans-Serif" font-size="10.00"> </text>
<text text-anchor="start" x="144.25" y="-410.5" font-family="Helvetica,sans-Serif" font-size="10.00">+</text>
<text text-anchor="start" x="154.25" y="-410.5" font-family="Helvetica,sans-Serif" font-size="10.00">FxmlService(FXMLLoader</text>
<text text-anchor="start" x="154.25" y="-398.5" font-family="Helvetica,sans-Serif" font-size="10.00"> fxmlLoader)</text>
<text text-anchor="start" x="144.25" y="-382.5" font-family="Helvetica,sans-Serif" font-size="10.00">+</text>
<text text-anchor="start" x="154.25" y="-382.5" font-family="Helvetica,sans-Serif" font-size="10.00">void setRootByFXMLName</text>
<text text-anchor="start" x="154.25" y="-370.5" font-family="Helvetica,sans-Serif" font-size="10.00">(final String fxml)</text>
<text text-anchor="start" x="144.25" y="-354.5" font-family="Helvetica,sans-Serif" font-size="10.00">~</text>
<text text-anchor="start" x="154.25" y="-354.5" font-family="Helvetica,sans-Serif" font-size="10.00">public&lt; T &gt; T getController()</text>
<polygon fill="#666666" stroke="#666666" points="140.25,-438 140.25,-438 279.75,-438 279.75,-438 140.25,-438"/>
<polygon fill="#666666" stroke="#666666" points="140.25,-422 140.25,-422 279.75,-422 279.75,-422 140.25,-422"/>
<polygon fill="none" stroke="#666666" points="140.25,-348 140.25,-468 279.75,-468 279.75,-348 140.25,-348"/>
</a>
</g>
</g>
<!-- Node3&#45;&gt;Node7 -->
<g id="edge8_Node000007_Node000003" class="edge">
<title>Node3&#45;&gt;Node7</title>
<g id="a_edge8_Node000007_Node000003"><a xlink:title=" ">
<path fill="none" stroke="#63b8ff" d="M127.25,-678.05C124.11,-641.47 121.54,-571.61 139.75,-516 143.89,-503.36 149.94,-490.78 156.77,-478.92"/>
<polygon fill="none" stroke="#63b8ff" points="156.83,-478.82 156.53,-471.62 163.06,-468.56 163.36,-475.77 156.83,-478.82"/>
</a>
</g>
<text text-anchor="middle" x="155.88" y="-566.5" font-family="Helvetica,sans-Serif" font-size="10.00" fill="grey"> &#45;scene</text>
</g>
<!-- Node10 -->
<g id="Node000010" class="node">
<title>Node10</title>
<g id="a_Node000010"><a xlink:href="classfr_1_1softsf_1_1sudokufx_1_1utils_1_1_dynamic_font_size.html" target="_top" xlink:title="Manages dynamic font sizing based on the dimensions of a JavaFX Scene.">
<polygon fill="white" stroke="none" points="307.38,-624 180.62,-624 180.62,-516 307.38,-516 307.38,-624"/>
<text text-anchor="start" x="193.75" y="-610.5" font-family="Helvetica,sans-Serif" font-size="10.00">fr.softsf.sudokufx.utils.</text>
<text text-anchor="start" x="205" y="-598.5" font-family="Helvetica,sans-Serif" font-size="10.00">DynamicFontSize</text>
<text text-anchor="start" x="186.12" y="-582.5" font-family="Helvetica,sans-Serif" font-size="10.00">&#45;</text>
<text text-anchor="start" x="194.62" y="-582.5" font-family="Helvetica,sans-Serif" font-size="10.00">double currentFontSize</text>
<text text-anchor="start" x="184.62" y="-566.5" font-family="Helvetica,sans-Serif" font-size="10.00">+</text>
<text text-anchor="start" x="194.62" y="-566.5" font-family="Helvetica,sans-Serif" font-size="10.00">DynamicFontSize()</text>
<text text-anchor="start" x="184.62" y="-550.5" font-family="Helvetica,sans-Serif" font-size="10.00">+</text>
<text text-anchor="start" x="194.62" y="-550.5" font-family="Helvetica,sans-Serif" font-size="10.00">void updateFontSize()</text>
<text text-anchor="start" x="184.62" y="-534.5" font-family="Helvetica,sans-Serif" font-size="10.00">~</text>
<text text-anchor="start" x="194.62" y="-534.5" font-family="Helvetica,sans-Serif" font-size="10.00">DynamicFontSize(Scene</text>
<text text-anchor="start" x="194.62" y="-522.5" font-family="Helvetica,sans-Serif" font-size="10.00"> scene)</text>
<polygon fill="#666666" stroke="#666666" points="180.62,-594 180.62,-594 307.38,-594 307.38,-594 180.62,-594"/>
<polygon fill="#666666" stroke="#666666" points="180.62,-578 180.62,-578 192.62,-578 192.62,-578 180.62,-578"/>
<polygon fill="#666666" stroke="#666666" points="192.62,-578 192.62,-578 307.38,-578 307.38,-578 192.62,-578"/>
<polygon fill="none" stroke="#666666" points="180.62,-516 180.62,-624 307.38,-624 307.38,-516 180.62,-516"/>
</a>
</g>
</g>
<!-- Node3&#45;&gt;Node10 -->
<g id="edge12_Node000010_Node000003" class="edge">
<title>Node3&#45;&gt;Node10</title>
<g id="a_edge12_Node000010_Node000003"><a xlink:title=" ">
<path fill="none" stroke="#63b8ff" d="M147.81,-682.38C159.23,-669.16 174.7,-651.24 189.9,-633.64"/>
<polygon fill="none" stroke="#63b8ff" points="189.86,-633.69 190.75,-626.54 197.7,-624.61 196.81,-631.77 189.86,-633.69"/>
</a>
</g>
<text text-anchor="middle" x="196.3" y="-644.5" font-family="Helvetica,sans-Serif" font-size="10.00" fill="grey"> &#45;scene</text>
</g>
<!-- Node4 -->
<g id="Node000004" class="node">
<title>Node4</title>
<g id="a_Node000004"><a xlink:title=" ">
<polygon fill="white" stroke="none" points="368.12,-434 297.88,-434 297.88,-382 368.12,-382 368.12,-434"/>
<text text-anchor="start" x="301.88" y="-420.5" font-family="Helvetica,sans-Serif" font-size="10.00">SpringContext</text>
<text text-anchor="start" x="331.5" y="-404.5" font-family="Helvetica,sans-Serif" font-size="10.00"> </text>
<text text-anchor="start" x="331.5" y="-388.5" font-family="Helvetica,sans-Serif" font-size="10.00"> </text>
<polygon fill="#666666" stroke="#666666" points="297.88,-416 297.88,-416 368.12,-416 368.12,-416 297.88,-416"/>
<polygon fill="#666666" stroke="#666666" points="297.88,-400 297.88,-400 368.12,-400 368.12,-400 297.88,-400"/>
<polygon fill="none" stroke="#666666" points="297.88,-382 297.88,-434 368.12,-434 368.12,-382 297.88,-382"/>
</a>
</g>
</g>
<!-- Node4&#45;&gt;Node1 -->
<g id="edge3_Node000001_Node000004" class="edge">
<title>Node4&#45;&gt;Node1</title>
<g id="a_edge3_Node000001_Node000004"><a xlink:title=" ">
<path fill="none" stroke="#63b8ff" d="M329.07,-382.45C326.27,-364.98 322.24,-339.83 317.86,-312.48"/>
<polygon fill="none" stroke="#63b8ff" points="317.87,-312.52 312.97,-307.23 315.97,-300.67 320.87,-305.96 317.87,-312.52"/>
</a>
</g>
<text text-anchor="middle" x="338.86" y="-320.5" font-family="Helvetica,sans-Serif" font-size="10.00" fill="grey"> &#45;context</text>
</g>
<!-- Node5 -->
<g id="Node000005" class="node">
<title>Node5</title>
<g id="a_Node000005"><a xlink:href="interfacefr_1_1softsf_1_1sudokufx_1_1interfaces_1_1_i_splash_screen_view.html" target="_top" xlink:title="Interface defining methods to hide or show the splash screen.">
<polygon fill="white" stroke="none" points="519.62,-448 386.38,-448 386.38,-368 519.62,-368 519.62,-448"/>
<text text-anchor="start" x="390.38" y="-434.5" font-family="Helvetica,sans-Serif" font-size="10.00">fr.softsf.sudokufx.interfaces.</text>
<text text-anchor="start" x="410.25" y="-422.5" font-family="Helvetica,sans-Serif" font-size="10.00">ISplashScreenView</text>
<text text-anchor="start" x="451.5" y="-406.5" font-family="Helvetica,sans-Serif" font-size="10.00"> </text>
<text text-anchor="start" x="391.44" y="-390.5" font-family="Helvetica,sans-Serif" font-size="10.00">+</text>
<text text-anchor="start" x="402.5" y="-390.5" font-family="Helvetica,sans-Serif" font-size="10.00">void hideSplashScreen()</text>
<text text-anchor="start" x="391.44" y="-374.5" font-family="Helvetica,sans-Serif" font-size="10.00">+</text>
<text text-anchor="start" x="402.5" y="-374.5" font-family="Helvetica,sans-Serif" font-size="10.00">void showSplashScreen()</text>
<polygon fill="#666666" stroke="#666666" points="386.38,-418 386.38,-418 519.62,-418 519.62,-418 386.38,-418"/>
<polygon fill="#666666" stroke="#666666" points="386.38,-402 386.38,-402 519.62,-402 519.62,-402 386.38,-402"/>
<polygon fill="none" stroke="#666666" points="386.38,-368 386.38,-448 519.62,-448 519.62,-368 386.38,-368"/>
</a>
</g>
</g>
<!-- Node5&#45;&gt;Node1 -->
<g id="edge4_Node000001_Node000005" class="edge">
<title>Node5&#45;&gt;Node1</title>
<g id="a_edge4_Node000001_Node000005"><a xlink:title=" ">
<path fill="none" stroke="#63b8ff" d="M428.55,-368.12C417.93,-351.23 404.72,-330.23 390.74,-308"/>
<polygon fill="none" stroke="#63b8ff" points="390.69,-307.93 384.11,-304.98 384.3,-297.77 390.88,-300.72 390.69,-307.93"/>
</a>
</g>
<text text-anchor="middle" x="445.55" y="-320.5" font-family="Helvetica,sans-Serif" font-size="10.00" fill="grey"> &#45;isplashScreenView</text>
</g>
<!-- Node6 -->
<g id="Node000006" class="node">
<title>Node6</title>
<g id="a_Node000006"><a xlink:href="interfacefr_1_1softsf_1_1sudokufx_1_1_sudo_main_1_1_i_primary_stage_view.html" target="_top" xlink:title="Interface for the primary stage view.">
<polygon fill="white" stroke="none" points="710.25,-452 537.75,-452 537.75,-364 710.25,-364 710.25,-452"/>
<text text-anchor="start" x="561" y="-438.5" font-family="Helvetica,sans-Serif" font-size="10.00">fr.softsf.sudokufx.SudoMain.</text>
<text text-anchor="start" x="582" y="-426.5" font-family="Helvetica,sans-Serif" font-size="10.00">IPrimaryStageView</text>
<text text-anchor="start" x="622.5" y="-410.5" font-family="Helvetica,sans-Serif" font-size="10.00"> </text>
<text text-anchor="start" x="541.75" y="-394.5" font-family="Helvetica,sans-Serif" font-size="10.00">+</text>
<text text-anchor="start" x="551.75" y="-394.5" font-family="Helvetica,sans-Serif" font-size="10.00">void openingMainStage</text>
<text text-anchor="start" x="551.75" y="-382.5" font-family="Helvetica,sans-Serif" font-size="10.00">(ISplashScreenView iSplashScreen</text>
<text text-anchor="start" x="551.75" y="-370.5" font-family="Helvetica,sans-Serif" font-size="10.00">View)</text>
<polygon fill="#666666" stroke="#666666" points="537.75,-422 537.75,-422 710.25,-422 710.25,-422 537.75,-422"/>
<polygon fill="#666666" stroke="#666666" points="537.75,-406 537.75,-406 710.25,-406 710.25,-406 537.75,-406"/>
<polygon fill="none" stroke="#666666" points="537.75,-364 537.75,-452 710.25,-452 710.25,-364 537.75,-364"/>
</a>
</g>
</g>
<!-- Node6&#45;&gt;Node1 -->
<g id="edge5_Node000001_Node000006" class="edge">
<title>Node6&#45;&gt;Node1</title>
<g id="a_edge5_Node000001_Node000006"><a xlink:title=" ">
<path fill="none" stroke="#63b8ff" d="M568.43,-364.15C520.98,-327.56 451.49,-273.98 394.06,-229.7"/>
<polygon fill="none" stroke="#63b8ff" points="394.07,-229.7 386.87,-229.21 384.57,-222.38 391.76,-222.87 394.07,-229.7"/>
</a>
</g>
<text text-anchor="middle" x="561.24" y="-320.5" font-family="Helvetica,sans-Serif" font-size="10.00" fill="grey"> &#45;iPrimaryStageView</text>
</g>
<!-- Node7&#45;&gt;Node1 -->
<g id="edge6_Node000001_Node000007" class="edge">
<title>Node7&#45;&gt;Node1</title>
<g id="a_edge6_Node000001_Node000007"><a xlink:title=" ">
<path fill="none" stroke="#63b8ff" d="M228.81,-348.27C232.4,-337.08 236.3,-324.89 240.36,-312.22"/>
<polygon fill="none" stroke="#63b8ff" points="240.35,-312.24 238.37,-305.31 244.01,-300.82 245.99,-307.75 240.35,-312.24"/>
</a>
</g>
<text text-anchor="middle" x="265.4" y="-320.5" font-family="Helvetica,sans-Serif" font-size="10.00" fill="grey"> &#45;fxmlService</text>
</g>
<!-- Node8 -->
<g id="Node000008" class="node">
<title>Node8</title>
<g id="a_Node000008"><a xlink:href="interfacefr_1_1softsf_1_1sudokufx_1_1interfaces_1_1_i_scene_provider.html" target="_top" xlink:title="Interface ISceneProvider.">
<polygon fill="white" stroke="none" points="378.62,-736 245.38,-736 245.38,-672 378.62,-672 378.62,-736"/>
<text text-anchor="start" x="249.38" y="-722.5" font-family="Helvetica,sans-Serif" font-size="10.00">fr.softsf.sudokufx.interfaces.</text>
<text text-anchor="start" x="278.62" y="-710.5" font-family="Helvetica,sans-Serif" font-size="10.00">ISceneProvider</text>
<text text-anchor="start" x="310.5" y="-694.5" font-family="Helvetica,sans-Serif" font-size="10.00"> </text>
<text text-anchor="start" x="250.62" y="-678.5" font-family="Helvetica,sans-Serif" font-size="10.00">+</text>
<text text-anchor="start" x="261.88" y="-678.5" font-family="Helvetica,sans-Serif" font-size="10.00">default Scene getScene()</text>
<polygon fill="#666666" stroke="#666666" points="245.38,-706 245.38,-706 378.62,-706 378.62,-706 245.38,-706"/>
<polygon fill="#666666" stroke="#666666" points="245.38,-690 245.38,-690 378.62,-690 378.62,-690 245.38,-690"/>
<polygon fill="none" stroke="#666666" points="245.38,-672 245.38,-736 378.62,-736 378.62,-672 245.38,-672"/>
</a>
</g>
</g>
<!-- Node8&#45;&gt;Node7 -->
<g id="edge7_Node000007_Node000008" class="edge">
<title>Node8&#45;&gt;Node7</title>
<g id="a_edge7_Node000007_Node000008"><a xlink:title=" ">
<path fill="none" stroke="#63b8ff" d="M323.92,-661.24C334.56,-615.22 344.25,-540.51 314,-486 307.36,-474.03 300.04,-476.1 289,-468 285.96,-465.77 282.86,-463.49 279.74,-461.19"/>
<polygon fill="none" stroke="#63b8ff" points="320.55,-660.27 321.58,-670.82 327.35,-661.94 320.55,-660.27"/>
</a>
</g>
</g>
<!-- Node8&#45;&gt;Node10 -->
<g id="edge11_Node000010_Node000008" class="edge">
<title>Node8&#45;&gt;Node10</title>
<g id="a_edge11_Node000010_Node000008"><a xlink:title=" ">
<path fill="none" stroke="#63b8ff" d="M290.82,-661.89C284.64,-649.88 277.79,-636.6 271.29,-623.97"/>
<polygon fill="none" stroke="#63b8ff" points="287.67,-663.42 295.36,-670.71 293.9,-660.21 287.67,-663.42"/>
</a>
</g>
</g>
<!-- Node9 -->
<g id="Node000009" class="node">
<title>Node9</title>
<g id="a_Node000009"><a xlink:title=" ">
<polygon fill="white" stroke="none" points="426.75,-596 363.25,-596 363.25,-544 426.75,-544 426.75,-596"/>
<text text-anchor="start" x="367.25" y="-582.5" font-family="Helvetica,sans-Serif" font-size="10.00">FXMLLoader</text>
<text text-anchor="start" x="393.5" y="-566.5" font-family="Helvetica,sans-Serif" font-size="10.00"> </text>
<text text-anchor="start" x="393.5" y="-550.5" font-family="Helvetica,sans-Serif" font-size="10.00"> </text>
<polygon fill="#666666" stroke="#666666" points="363.25,-578 363.25,-578 426.75,-578 426.75,-578 363.25,-578"/>
<polygon fill="#666666" stroke="#666666" points="363.25,-562 363.25,-562 426.75,-562 426.75,-562 363.25,-562"/>
<polygon fill="none" stroke="#666666" points="363.25,-544 363.25,-596 426.75,-596 426.75,-544 363.25,-544"/>
</a>
</g>
</g>
<!-- Node9&#45;&gt;Node7 -->
<g id="edge9_Node000007_Node000009" class="edge">
<title>Node9&#45;&gt;Node7</title>
<g id="a_edge9_Node000007_Node000009"><a xlink:title=" ">
<path fill="none" stroke="#63b8ff" d="M387.05,-544.17C379.89,-525.62 367.6,-500.99 349,-486 329.94,-470.65 317.24,-478.05 291.03,-468.03"/>
<polygon fill="none" stroke="#63b8ff" points="291.14,-468.08 284.03,-469.27 280.2,-463.16 287.31,-461.97 291.14,-468.08"/>
</a>
</g>
<text text-anchor="middle" x="386.98" y="-488.5" font-family="Helvetica,sans-Serif" font-size="10.00" fill="grey"> &#45;fxmlLoader</text>
</g>
<!-- Node10&#45;&gt;Node7 -->
<g id="edge10_Node000007_Node000010" class="edge">
<title>Node10&#45;&gt;Node7</title>
<g id="a_edge10_Node000007_Node000010"><a xlink:title=" ">
<path fill="none" stroke="#63b8ff" d="M232.77,-516.17C230.33,-504.68 227.71,-492.35 225.15,-480.28"/>
<polygon fill="none" stroke="#63b8ff" points="225.19,-480.48 220.03,-475.44 222.69,-468.74 227.85,-473.77 225.19,-480.48"/>
</a>
</g>
<text text-anchor="middle" x="268.89" y="-488.5" font-family="Helvetica,sans-Serif" font-size="10.00" fill="grey"> &#45;dynamicFontSize</text>
</g>
</g>
</svg>

<g id="navigator" transform="translate(0 0)" fill="#404254">
  <rect fill="#f2f5e9" fill-opacity="0.5" stroke="#606060" stroke-width=".5" x="0" y="0" width="60" height="60"/>
  <use id="zoomplus" xlink:href="#zoomPlus" x="17" y="9" onmousedown="handleZoom(evt,'in')"/>
  <use id="zoomminus" xlink:href="#zoomMin" x="42" y="9" onmousedown="handleZoom(evt,'out')"/>
  <use id="reset" xlink:href="#resetDef" x="30" y="36" onmousedown="handleReset()"/>
   <use id="arrowup" xlink:href="#arrowUp" x="0" y="0" onmousedown="handlePan(0,-1)"/>
  <use id="arrowright" xlink:href="#arrowRight" x="0" y="0" onmousedown="handlePan(1,0)"/>
  <use id="arrowdown" xlink:href="#arrowDown" x="0" y="0" onmousedown="handlePan(0,1)"/>
  <use id="arrowleft" xlink:href="#arrowLeft" x="0" y="0" onmousedown="handlePan(-1,0)"/>
</g>
<svg viewBox="0 0 15 15" width="100%" height="30px" preserveAspectRatio="xMaxYMin meet">
 <g id="arrow_out" transform="scale(0.3 0.3)">
  <a xlink:href="classfr_1_1softsf_1_1sudokufx_1_1_sudo_main__coll__graph_org.svg" target="_base">
   <rect id="button" ry="5" rx="5" y="6" x="6" height="38" width="38"
        fill="#f2f5e9" fill-opacity="0.5" stroke="#606060" stroke-width="1.0"/>
   <path id="arrow"
     d="M 11.500037,31.436501 C 11.940474,20.09759 22.043105,11.32322 32.158766,21.979434 L 37.068811,17.246167 C 37.068811,17.246167 37.088388,32 37.088388,32 L 22.160133,31.978069 C 22.160133,31.978069 26.997745,27.140456 26.997745,27.140456 C 18.528582,18.264221 13.291696,25.230495 11.500037,31.436501 z"
     style="fill:#404040;"/>
  </a>
 </g>
</svg>

<style type='text/css'>
<![CDATA[
[data-mouse-over-selected='false'] { opacity: 0.7; }
[data-mouse-over-selected='true']  { opacity: 1.0; }
]]>
</style>
<script type="application/ecmascript"><![CDATA[
document.addEventListener('DOMContentLoaded', (event) => {
  highlightEdges();
  highlightAdjacentNodes();
});
]]></script>
</svg>
