<?xml version="1.0" encoding="UTF-8" standalone="no"?>
<!DOCTYPE svg PUBLIC "-//W3C//DTD SVG 1.1//EN"
 "http://www.w3.org/Graphics/SVG/1.1/DTD/svg11.dtd">
<!-- Generated by graphviz version 12.2.0 (20241103.1931)
 -->
<!-- Title: fr.softsf.sudofx2024.utils.os.WindowsFolderFactory Pages: 1 -->
<svg width="172pt" height="296pt"
 viewBox="0.00 0.00 172.00 296.00" xmlns="http://www.w3.org/2000/svg" xmlns:xlink="http://www.w3.org/1999/xlink">

<svg id="main" version="1.1" xmlns="http://www.w3.org/2000/svg" xmlns:xlink="http://www.w3.org/1999/xlink" xml:space="preserve">

<style type="text/css"><![CDATA[
.node, .edge {opacity: 0.7;}
.node.selected, .edge.selected {opacity: 1;}
.edge:hover path { stroke: red; }
.edge:hover polygon { stroke: red; fill: red; }
]]></style>
<script type="application/ecmascript" xlink:href="svg.min.js"/>
<svg id="graph" class="graph">
<g id="graph0" class="graph" transform="scale(1 1) rotate(0) translate(4 292)">
<title>fr.softsf.sudofx2024.utils.os.WindowsFolderFactory</title>
<!-- Node1 -->
<g id="Node000001" class="node">
<title>Node1</title>
<g id="a_Node000001"><a xlink:title="Factory class for creating and managing WINDOWS OS&#45;specific folders for the SudoFX application.">
<polygon fill="#999999" stroke="none" points="155.5,-160 8.5,-160 8.5,0 155.5,0 155.5,-160"/>
<text text-anchor="start" x="19.75" y="-146.5" font-family="Helvetica,sans-Serif" font-size="10.00">fr.softsf.sudofx2024.utils.os.</text>
<text text-anchor="start" x="31.75" y="-134.5" font-family="Helvetica,sans-Serif" font-size="10.00">WindowsFolderFactory</text>
<text text-anchor="start" x="14" y="-118.5" font-family="Helvetica,sans-Serif" font-size="10.00">&#45;</text>
<text text-anchor="start" x="22.5" y="-118.5" font-family="Helvetica,sans-Serif" font-size="10.00">final String DATA_FOLDER</text>
<text text-anchor="start" x="22.5" y="-106.5" font-family="Helvetica,sans-Serif" font-size="10.00">_FOR_SUDO_FX</text>
<text text-anchor="start" x="14" y="-90.5" font-family="Helvetica,sans-Serif" font-size="10.00">&#45;</text>
<text text-anchor="start" x="22.5" y="-90.5" font-family="Helvetica,sans-Serif" font-size="10.00">final String LOGS_FOLDER</text>
<text text-anchor="start" x="22.5" y="-78.5" font-family="Helvetica,sans-Serif" font-size="10.00">_FOR_SUDO_FX</text>
<text text-anchor="start" x="12.5" y="-62.5" font-family="Helvetica,sans-Serif" font-size="10.00">+</text>
<text text-anchor="start" x="22.5" y="-62.5" font-family="Helvetica,sans-Serif" font-size="10.00">WindowsFolderFactory</text>
<text text-anchor="start" x="22.5" y="-50.5" font-family="Helvetica,sans-Serif" font-size="10.00">(String dataFolderPath,</text>
<text text-anchor="start" x="22.5" y="-38.5" font-family="Helvetica,sans-Serif" font-size="10.00"> String logsFolderPath)</text>
<text text-anchor="start" x="12.5" y="-22.5" font-family="Helvetica,sans-Serif" font-size="10.00">+</text>
<text text-anchor="start" x="22.5" y="-22.5" font-family="Helvetica,sans-Serif" font-size="10.00">String getOsDataFolderPath()</text>
<text text-anchor="start" x="12.5" y="-6.5" font-family="Helvetica,sans-Serif" font-size="10.00">+</text>
<text text-anchor="start" x="22.5" y="-6.5" font-family="Helvetica,sans-Serif" font-size="10.00">String getOsLogsFolderPath()</text>
<polygon fill="#666666" stroke="#666666" points="8.5,-130 8.5,-130 155.5,-130 155.5,-130 8.5,-130"/>
<polygon fill="#666666" stroke="#666666" points="8.5,-74 8.5,-74 20.5,-74 20.5,-74 8.5,-74"/>
<polygon fill="#666666" stroke="#666666" points="20.5,-74 20.5,-74 155.5,-74 155.5,-74 20.5,-74"/>
<polygon fill="none" stroke="#666666" points="8.5,0 8.5,-160 155.5,-160 155.5,0 8.5,0"/>
</a>
</g>
</g>
<!-- Node2 -->
<g id="Node000002" class="node">
<title>Node2</title>
<g id="a_Node000002"><a xlink:href="interfacefr_1_1softsf_1_1sudofx2024_1_1utils_1_1os_1_1_os_folder_factory_manager_1_1_i_os_folder_factory.html" target="_top" xlink:title="Interface defining methods for accessing OS&#45;specific folder paths.">
<polygon fill="white" stroke="none" points="164,-288 0,-288 0,-196 164,-196 164,-288"/>
<text text-anchor="start" x="4" y="-274.5" font-family="Helvetica,sans-Serif" font-size="10.00">fr.softsf.sudofx2024.utils.os.</text>
<text text-anchor="start" x="4" y="-262.5" font-family="Helvetica,sans-Serif" font-size="10.00">OsFolderFactoryManager.IOsFolder</text>
<text text-anchor="start" x="65.5" y="-250.5" font-family="Helvetica,sans-Serif" font-size="10.00">Factory</text>
<text text-anchor="start" x="80.5" y="-234.5" font-family="Helvetica,sans-Serif" font-size="10.00"> </text>
<text text-anchor="start" x="8.25" y="-218.5" font-family="Helvetica,sans-Serif" font-size="10.00">+</text>
<text text-anchor="start" x="22.5" y="-218.5" font-family="Helvetica,sans-Serif" font-size="10.00">String getOsDataFolderPath()</text>
<text text-anchor="start" x="8.25" y="-202.5" font-family="Helvetica,sans-Serif" font-size="10.00">+</text>
<text text-anchor="start" x="22.5" y="-202.5" font-family="Helvetica,sans-Serif" font-size="10.00">String getOsLogsFolderPath()</text>
<polygon fill="#666666" stroke="#666666" points="0,-246 0,-246 164,-246 164,-246 0,-246"/>
<polygon fill="#666666" stroke="#666666" points="0,-230 0,-230 164,-230 164,-230 0,-230"/>
<polygon fill="none" stroke="#666666" points="0,-196 0,-288 164,-288 164,-196 0,-196"/>
</a>
</g>
</g>
<!-- Node2&#45;&gt;Node1 -->
<g id="edge1_Node000001_Node000002" class="edge">
<title>Node2&#45;&gt;Node1</title>
<g id="a_edge1_Node000001_Node000002"><a xlink:title=" ">
<path fill="none" stroke="#63b8ff" d="M82,-184.57C82,-176.57 82,-168.23 82,-159.9"/>
<polygon fill="none" stroke="#63b8ff" points="78.5,-184.49 82,-194.49 85.5,-184.49 78.5,-184.49"/>
</a>
</g>
</g>
</g>
</svg>
</svg>

<style type='text/css'>
<![CDATA[
[data-mouse-over-selected='false'] { opacity: 0.7; }
[data-mouse-over-selected='true']  { opacity: 1.0; }
]]>
</style>
<script type="application/ecmascript"><![CDATA[
document.addEventListener('DOMContentLoaded', (event) => {
  highlightEdges();
  highlightAdjacentNodes();
});
]]></script>
</svg>
