<?xml version="1.0" encoding="UTF-8" standalone="no"?>
<!DOCTYPE svg PUBLIC "-//W3C//DTD SVG 1.1//EN"
 "http://www.w3.org/Graphics/SVG/1.1/DTD/svg11.dtd">
<!-- Generated by graphviz version 12.2.0 (20241103.1931)
 -->
<!-- Title: fr.softsf.sudokufx.viewmodel.FullMenuViewModel.updateSoftware Pages: 1 -->
<!--zoomable 202 -->

<svg id="main" version="1.1" xmlns="http://www.w3.org/2000/svg" xmlns:xlink="http://www.w3.org/1999/xlink" xml:space="preserve" onload="init(evt)">

<style type="text/css"><![CDATA[
.node, .edge {opacity: 0.7;}
.node.selected, .edge.selected {opacity: 1;}
.edge:hover path { stroke: red; }
.edge:hover polygon { stroke: red; fill: red; }
]]></style>

<defs>
  <circle id="rim" cx="0" cy="0" r="7"/>
  <circle id="rim2" cx="0" cy="0" r="3.5"/>
  <g id="zoomPlus">
    <use xlink:href="#rim" fill="#404040"><set attributeName="fill" to="#808080" begin="zoomplus.mouseover" end="zoomplus.mouseout"/></use>
    <path d="M-4,0h8M0,-4v8" fill="none" stroke="white" stroke-width="1.5" pointer-events="none"/>
  </g>
  <g id="zoomMin">
    <use xlink:href="#rim" fill="#404040"><set attributeName="fill" to="#808080" begin="zoomminus.mouseover" end="zoomminus.mouseout"/></use>
    <path d="M-4,0h8" fill="none" stroke="white" stroke-width="1.5" pointer-events="none"/>
  </g>
  <g id="arrowUp" transform="translate(30 24)">
    <use xlink:href="#rim"/>
    <path pointer-events="none" fill="none" stroke="white" stroke-width="1.5" d="M0,-3.0v7 M-2.5,-0.5L0,-3.0L2.5,-0.5"/>
  </g>
  <g id="arrowRight" transform="rotate(90) translate(36 -43)">
    <use xlink:href="#rim"/>
    <path pointer-events="none" fill="none" stroke="white" stroke-width="1.5" d="M0,-3.0v7 M-2.5,-0.5L0,-3.0L2.5,-0.5"/>
  </g>
  <g id="arrowDown" transform="rotate(180) translate(-30 -48)">
    <use xlink:href="#rim"/>
    <path pointer-events="none" fill="none" stroke="white" stroke-width="1.5" d="M0,-3.0v7 M-2.5,-0.5L0,-3.0L2.5,-0.5"/>
  </g>
  <g id="arrowLeft" transform="rotate(270) translate(-36 17)">
    <use xlink:href="#rim"/>
    <path pointer-events="none" fill="none" stroke="white" stroke-width="1.5" d="M0,-3.0v7 M-2.5,-0.5L0,-3.0L2.5,-0.5"/>
  </g>
  <g id="resetDef">
    <use xlink:href="#rim2" fill="#404040"><set attributeName="fill" to="#808080" begin="reset.mouseover" end="reset.mouseout"/></use>
  </g>
</defs>
<script type="application/ecmascript">
var viewWidth = 634;
var viewHeight = 202;
var sectionId = 'dynsection-4';
</script>
<script type="application/ecmascript" xlink:href="svg.min.js"/>
<svg id="graph" class="graph">
<g id="viewport">
<title>fr.softsf.sudokufx.viewmodel.FullMenuViewModel.updateSoftware</title>
<!-- Node1 -->
<g id="Node000001" class="node">
<title>Node1</title>
<g id="a_Node000001"><a xlink:title=" ">
<polygon fill="#999999" stroke="#666666" points="175,-132 0,-132 0,-100 175,-100 175,-132"/>
<text text-anchor="start" x="8" y="-118.5" font-family="Helvetica,sans-Serif" font-size="10.00">fr.softsf.sudokufx.viewmodel.</text>
<text text-anchor="middle" x="87.5" y="-106.5" font-family="Helvetica,sans-Serif" font-size="10.00">FullMenuViewModel.updateSoftware</text>
</a>
</g>
</g>
<!-- Node2 -->
<g id="Node000002" class="node">
<title>Node2</title>
<g id="a_Node000002"><a xlink:href="classfr_1_1softsf_1_1sudokufx_1_1utils_1_1_j_v_m_application_properties.html#afd79a2aeab3fe69dbb2ace62b5eddf83" target="_top" xlink:title="Retrieves the current application version from system properties.">
<polygon fill="white" stroke="#666666" points="373.25,-194 211,-194 211,-150 373.25,-150 373.25,-194"/>
<text text-anchor="start" x="219" y="-180.5" font-family="Helvetica,sans-Serif" font-size="10.00">fr.softsf.sudokufx.utils.</text>
<text text-anchor="start" x="219" y="-168.5" font-family="Helvetica,sans-Serif" font-size="10.00">JVMApplicationProperties.getApp</text>
<text text-anchor="middle" x="292.12" y="-156.5" font-family="Helvetica,sans-Serif" font-size="10.00">Version</text>
</a>
</g>
</g>
<!-- Node1&#45;&gt;Node2 -->
<g id="edge1_Node000001_Node000002" class="edge">
<title>Node1&#45;&gt;Node2</title>
<g id="a_edge1_Node000001_Node000002"><a xlink:title=" ">
<path fill="none" stroke="#63b8ff" d="M148.2,-132.5C164.44,-136.99 182.41,-141.95 199.96,-146.81"/>
<polygon fill="#63b8ff" stroke="#63b8ff" points="198.79,-150.11 209.37,-149.4 200.66,-143.37 198.79,-150.11"/>
</a>
</g>
</g>
<!-- Node4 -->
<g id="Node000004" class="node">
<title>Node4</title>
<g id="a_Node000004"><a xlink:href="classfr_1_1softsf_1_1sudokufx_1_1viewmodel_1_1_full_menu_view_model.html#a99e8ff186f421e303199bb273f082c40" target="_top" xlink:title=" ">
<polygon fill="white" stroke="#666666" points="372.5,-132 211.75,-132 211.75,-100 372.5,-100 372.5,-132"/>
<text text-anchor="start" x="219.75" y="-118.5" font-family="Helvetica,sans-Serif" font-size="10.00">fr.softsf.sudokufx.viewmodel.</text>
<text text-anchor="middle" x="292.12" y="-106.5" font-family="Helvetica,sans-Serif" font-size="10.00">FullMenuViewModel.setWelcome</text>
</a>
</g>
</g>
<!-- Node1&#45;&gt;Node4 -->
<g id="edge3_Node000001_Node000004" class="edge">
<title>Node1&#45;&gt;Node4</title>
<g id="a_edge3_Node000001_Node000004"><a xlink:title=" ">
<path fill="none" stroke="#63b8ff" d="M175.31,-116C183.58,-116 191.99,-116 200.29,-116"/>
<polygon fill="#63b8ff" stroke="#63b8ff" points="200.03,-119.5 210.03,-116 200.03,-112.5 200.03,-119.5"/>
</a>
</g>
</g>
<!-- Node6 -->
<g id="Node000006" class="node">
<title>Node6</title>
<g id="a_Node000006"><a xlink:href="classfr_1_1softsf_1_1sudokufx_1_1service_1_1_software_service.html#a74d93b9d4144d91d01a4b02369265f0f" target="_top" xlink:title=" ">
<polygon fill="white" stroke="#666666" points="371.75,-82 212.5,-82 212.5,-50 371.75,-50 371.75,-82"/>
<text text-anchor="start" x="220.5" y="-68.5" font-family="Helvetica,sans-Serif" font-size="10.00">fr.softsf.sudokufx.service.</text>
<text text-anchor="middle" x="292.12" y="-56.5" font-family="Helvetica,sans-Serif" font-size="10.00">SoftwareService.updateSoftware</text>
</a>
</g>
</g>
<!-- Node1&#45;&gt;Node6 -->
<g id="edge5_Node000001_Node000006" class="edge">
<title>Node1&#45;&gt;Node6</title>
<g id="a_edge5_Node000001_Node000006"><a xlink:title=" ">
<path fill="none" stroke="#63b8ff" d="M155.13,-99.56C173.74,-94.97 194.12,-89.94 213.32,-85.2"/>
<polygon fill="#63b8ff" stroke="#63b8ff" points="214.12,-88.61 222.99,-82.81 212.44,-81.81 214.12,-88.61"/>
</a>
</g>
</g>
<!-- Node3 -->
<g id="Node000003" class="node">
<title>Node3</title>
<g id="a_Node000003"><a xlink:href="classfr_1_1softsf_1_1sudokufx_1_1utils_1_1_my_regex.html#a981702b076ee54a416d676b6f7a182fc" target="_top" xlink:title="Validates a given text against a specified regular expression.">
<polygon fill="white" stroke="#666666" points="591.75,-188 443,-188 443,-156 591.75,-156 591.75,-188"/>
<text text-anchor="start" x="451" y="-174.5" font-family="Helvetica,sans-Serif" font-size="10.00">fr.softsf.sudokufx.utils.</text>
<text text-anchor="middle" x="517.38" y="-162.5" font-family="Helvetica,sans-Serif" font-size="10.00">MyRegex.isValidatedByRegex</text>
</a>
</g>
</g>
<!-- Node2&#45;&gt;Node3 -->
<g id="edge2_Node000002_Node000003" class="edge">
<title>Node2&#45;&gt;Node3</title>
<g id="a_edge2_Node000002_Node000003"><a xlink:title=" ">
<path fill="none" stroke="#63b8ff" d="M373.72,-172C392.43,-172 412.4,-172 431.29,-172"/>
<polygon fill="#63b8ff" stroke="#63b8ff" points="431.06,-175.5 441.06,-172 431.06,-168.5 431.06,-175.5"/>
</a>
</g>
</g>
<!-- Node5 -->
<g id="Node000005" class="node">
<title>Node5</title>
<g id="a_Node000005"><a xlink:href="classfr_1_1softsf_1_1sudokufx_1_1viewmodel_1_1_full_menu_view_model.html#a574eda9c01df428c38524cc5acf49fbf" target="_top" xlink:title=" ">
<polygon fill="white" stroke="#666666" points="608.62,-132 426.12,-132 426.12,-100 608.62,-100 608.62,-132"/>
<text text-anchor="start" x="434.12" y="-118.5" font-family="Helvetica,sans-Serif" font-size="10.00">fr.softsf.sudokufx.viewmodel.</text>
<text text-anchor="middle" x="517.38" y="-106.5" font-family="Helvetica,sans-Serif" font-size="10.00">FullMenuViewModel.welcomeProperty</text>
</a>
</g>
</g>
<!-- Node4&#45;&gt;Node5 -->
<g id="edge4_Node000004_Node000005" class="edge">
<title>Node4&#45;&gt;Node5</title>
<g id="a_edge4_Node000004_Node000005"><a xlink:title=" ">
<path fill="none" stroke="#63b8ff" d="M372.78,-116C386.31,-116 400.54,-116 414.55,-116"/>
<polygon fill="#63b8ff" stroke="#63b8ff" points="414.21,-119.5 424.21,-116 414.21,-112.5 414.21,-119.5"/>
</a>
</g>
</g>
<!-- Node7 -->
<g id="Node000007" class="node">
<title>Node7</title>
<g id="a_Node000007"><a xlink:href="interfacefr_1_1softsf_1_1sudokufx_1_1interfaces_1_1mapper_1_1_i_software_mapper.html#a85adc191251bde9870609d4b2cb23ee6" target="_top" xlink:title="Maps a SoftwareDto object to a Software object.">
<polygon fill="white" stroke="#666666" points="625.5,-82 409.25,-82 409.25,-50 625.5,-50 625.5,-82"/>
<text text-anchor="start" x="417.25" y="-68.5" font-family="Helvetica,sans-Serif" font-size="10.00">fr.softsf.sudokufx.interfaces.mapper.</text>
<text text-anchor="middle" x="517.38" y="-56.5" font-family="Helvetica,sans-Serif" font-size="10.00">ISoftwareMapper.mapSoftwareDtoToSoftware</text>
</a>
</g>
</g>
<!-- Node6&#45;&gt;Node7 -->
<g id="edge6_Node000006_Node000007" class="edge">
<title>Node6&#45;&gt;Node7</title>
<g id="a_edge6_Node000006_Node000007"><a xlink:title=" ">
<path fill="none" stroke="#63b8ff" d="M372.15,-66C380.43,-66 388.98,-66 397.59,-66"/>
<polygon fill="#63b8ff" stroke="#63b8ff" points="397.4,-69.5 407.4,-66 397.4,-62.5 397.4,-69.5"/>
</a>
</g>
</g>
<!-- Node8 -->
<g id="Node000008" class="node">
<title>Node8</title>
<g id="a_Node000008"><a xlink:href="interfacefr_1_1softsf_1_1sudokufx_1_1interfaces_1_1mapper_1_1_i_software_mapper.html#addc8516cb5cc6171c663e132d5fdddd6" target="_top" xlink:title="Maps a Software object to a SoftwareDto object.">
<polygon fill="white" stroke="#666666" points="606,-32 428.75,-32 428.75,0 606,0 606,-32"/>
<text text-anchor="start" x="436.75" y="-18.5" font-family="Helvetica,sans-Serif" font-size="10.00">fr.softsf.sudokufx.interfaces.mapper.</text>
<text text-anchor="middle" x="517.38" y="-6.5" font-family="Helvetica,sans-Serif" font-size="10.00">ISoftwareMapper.mapSoftwareToDto</text>
</a>
</g>
</g>
<!-- Node6&#45;&gt;Node8 -->
<g id="edge7_Node000006_Node000008" class="edge">
<title>Node6&#45;&gt;Node8</title>
<g id="a_edge7_Node000006_Node000008"><a xlink:title=" ">
<path fill="none" stroke="#63b8ff" d="M366.53,-49.56C387.42,-44.88 410.34,-39.75 431.83,-34.93"/>
<polygon fill="#63b8ff" stroke="#63b8ff" points="432.45,-38.38 441.44,-32.78 430.92,-31.55 432.45,-38.38"/>
</a>
</g>
</g>
</g>
</svg>

<g id="navigator" transform="translate(0 0)" fill="#404254">
  <rect fill="#f2f5e9" fill-opacity="0.5" stroke="#606060" stroke-width=".5" x="0" y="0" width="60" height="60"/>
  <use id="zoomplus" xlink:href="#zoomPlus" x="17" y="9" onmousedown="handleZoom(evt,'in')"/>
  <use id="zoomminus" xlink:href="#zoomMin" x="42" y="9" onmousedown="handleZoom(evt,'out')"/>
  <use id="reset" xlink:href="#resetDef" x="30" y="36" onmousedown="handleReset()"/>
   <use id="arrowup" xlink:href="#arrowUp" x="0" y="0" onmousedown="handlePan(0,-1)"/>
  <use id="arrowright" xlink:href="#arrowRight" x="0" y="0" onmousedown="handlePan(1,0)"/>
  <use id="arrowdown" xlink:href="#arrowDown" x="0" y="0" onmousedown="handlePan(0,1)"/>
  <use id="arrowleft" xlink:href="#arrowLeft" x="0" y="0" onmousedown="handlePan(-1,0)"/>
</g>
<svg viewBox="0 0 15 15" width="100%" height="30px" preserveAspectRatio="xMaxYMin meet">
 <g id="arrow_out" transform="scale(0.3 0.3)">
  <a xlink:href="classfr_1_1softsf_1_1sudokufx_1_1viewmodel_1_1_full_menu_view_model_abeb58caaac8ee5464bb0f851c94992f4_cgraph_org.svg" target="_base">
   <rect id="button" ry="5" rx="5" y="6" x="6" height="38" width="38"
        fill="#f2f5e9" fill-opacity="0.5" stroke="#606060" stroke-width="1.0"/>
   <path id="arrow"
     d="M 11.500037,31.436501 C 11.940474,20.09759 22.043105,11.32322 32.158766,21.979434 L 37.068811,17.246167 C 37.068811,17.246167 37.088388,32 37.088388,32 L 22.160133,31.978069 C 22.160133,31.978069 26.997745,27.140456 26.997745,27.140456 C 18.528582,18.264221 13.291696,25.230495 11.500037,31.436501 z"
     style="fill:#404040;"/>
  </a>
 </g>
</svg>

<style type='text/css'>
<![CDATA[
[data-mouse-over-selected='false'] { opacity: 0.7; }
[data-mouse-over-selected='true']  { opacity: 1.0; }
]]>
</style>
<script type="application/ecmascript"><![CDATA[
document.addEventListener('DOMContentLoaded', (event) => {
  highlightEdges();
  highlightAdjacentNodes();
});
]]></script>
</svg>
