<?xml version="1.0" encoding="UTF-8" standalone="no"?>
<!DOCTYPE svg PUBLIC "-//W3C//DTD SVG 1.1//EN"
 "http://www.w3.org/Graphics/SVG/1.1/DTD/svg11.dtd">
<!-- Generated by graphviz version 12.2.0 (20241103.1931)
 -->
<!-- Title: fr.softsf.sudokufx.view.CrashScreenView.openingMainStage Pages: 1 -->
<!--zoomable 196 -->

<svg id="main" version="1.1" xmlns="http://www.w3.org/2000/svg" xmlns:xlink="http://www.w3.org/1999/xlink" xml:space="preserve" onload="init(evt)">

<style type="text/css"><![CDATA[
.node, .edge {opacity: 0.7;}
.node.selected, .edge.selected {opacity: 1;}
.edge:hover path { stroke: red; }
.edge:hover polygon { stroke: red; fill: red; }
]]></style>

<defs>
  <circle id="rim" cx="0" cy="0" r="7"/>
  <circle id="rim2" cx="0" cy="0" r="3.5"/>
  <g id="zoomPlus">
    <use xlink:href="#rim" fill="#404040"><set attributeName="fill" to="#808080" begin="zoomplus.mouseover" end="zoomplus.mouseout"/></use>
    <path d="M-4,0h8M0,-4v8" fill="none" stroke="white" stroke-width="1.5" pointer-events="none"/>
  </g>
  <g id="zoomMin">
    <use xlink:href="#rim" fill="#404040"><set attributeName="fill" to="#808080" begin="zoomminus.mouseover" end="zoomminus.mouseout"/></use>
    <path d="M-4,0h8" fill="none" stroke="white" stroke-width="1.5" pointer-events="none"/>
  </g>
  <g id="arrowUp" transform="translate(30 24)">
    <use xlink:href="#rim"/>
    <path pointer-events="none" fill="none" stroke="white" stroke-width="1.5" d="M0,-3.0v7 M-2.5,-0.5L0,-3.0L2.5,-0.5"/>
  </g>
  <g id="arrowRight" transform="rotate(90) translate(36 -43)">
    <use xlink:href="#rim"/>
    <path pointer-events="none" fill="none" stroke="white" stroke-width="1.5" d="M0,-3.0v7 M-2.5,-0.5L0,-3.0L2.5,-0.5"/>
  </g>
  <g id="arrowDown" transform="rotate(180) translate(-30 -48)">
    <use xlink:href="#rim"/>
    <path pointer-events="none" fill="none" stroke="white" stroke-width="1.5" d="M0,-3.0v7 M-2.5,-0.5L0,-3.0L2.5,-0.5"/>
  </g>
  <g id="arrowLeft" transform="rotate(270) translate(-36 17)">
    <use xlink:href="#rim"/>
    <path pointer-events="none" fill="none" stroke="white" stroke-width="1.5" d="M0,-3.0v7 M-2.5,-0.5L0,-3.0L2.5,-0.5"/>
  </g>
  <g id="resetDef">
    <use xlink:href="#rim2" fill="#404040"><set attributeName="fill" to="#808080" begin="reset.mouseover" end="reset.mouseout"/></use>
  </g>
</defs>
<script type="application/ecmascript">
var viewWidth = 581;
var viewHeight = 196;
var sectionId = 'dynsection-5';
</script>
<script type="application/ecmascript" xlink:href="svg.min.js"/>
<svg id="graph" class="graph">
<g id="viewport">
<title>fr.softsf.sudokufx.view.CrashScreenView.openingMainStage</title>
<!-- Node1 -->
<g id="Node000001" class="node">
<title>Node1</title>
<g id="a_Node000001"><a xlink:title="Opens the main stage and handles the transition from splash screen to crash screen.">
<polygon fill="#999999" stroke="#666666" points="177.25,-104 0,-104 0,-72 177.25,-72 177.25,-104"/>
<text text-anchor="start" x="8" y="-90.5" font-family="Helvetica,sans-Serif" font-size="10.00">fr.softsf.sudokufx.view.</text>
<text text-anchor="middle" x="88.62" y="-78.5" font-family="Helvetica,sans-Serif" font-size="10.00">CrashScreenView.openingMainStage</text>
</a>
</g>
</g>
<!-- Node2 -->
<g id="Node000002" class="node">
<title>Node2</title>
<g id="a_Node000002"><a xlink:href="classfr_1_1softsf_1_1sudokufx_1_1view_1_1_crash_screen_view.html#a203d7b4943637a03090230742bb99208" target="_top" xlink:title="Applies a fade&#45;in effect to the given node.">
<polygon fill="white" stroke="#666666" points="366.5,-170 242.5,-170 242.5,-138 366.5,-138 366.5,-170"/>
<text text-anchor="start" x="250.5" y="-156.5" font-family="Helvetica,sans-Serif" font-size="10.00">fr.softsf.sudokufx.view.</text>
<text text-anchor="middle" x="304.5" y="-144.5" font-family="Helvetica,sans-Serif" font-size="10.00">CrashScreenView.fadeIn</text>
</a>
</g>
</g>
<!-- Node1&#45;&gt;Node2 -->
<g id="edge1_Node000001_Node000002" class="edge">
<title>Node1&#45;&gt;Node2</title>
<g id="a_edge1_Node000001_Node000002"><a xlink:title=" ">
<path fill="none" stroke="#63b8ff" d="M143.04,-104.48C172.37,-113.54 208.94,-124.82 239.75,-134.33"/>
<polygon fill="#63b8ff" stroke="#63b8ff" points="238.36,-137.56 248.95,-137.17 240.42,-130.87 238.36,-137.56"/>
</a>
</g>
</g>
<!-- Node3 -->
<g id="Node000003" class="node">
<title>Node3</title>
<g id="a_Node000003"><a xlink:href="interfacefr_1_1softsf_1_1sudokufx_1_1interfaces_1_1_i_scene_provider.html#a674fc3569255ae7b6d2f34989574aacb" target="_top" xlink:title="Retrieves the current scene of the application.">
<polygon fill="white" stroke="#666666" points="573,-79 431.75,-79 431.75,-47 573,-47 573,-79"/>
<text text-anchor="start" x="439.75" y="-65.5" font-family="Helvetica,sans-Serif" font-size="10.00">fr.softsf.sudokufx.interfaces.</text>
<text text-anchor="middle" x="502.38" y="-53.5" font-family="Helvetica,sans-Serif" font-size="10.00">ISceneProvider.getScene</text>
</a>
</g>
</g>
<!-- Node1&#45;&gt;Node3 -->
<g id="edge3_Node000001_Node000003" class="edge">
<title>Node1&#45;&gt;Node3</title>
<g id="a_edge3_Node000001_Node000003"><a xlink:title=" ">
<path fill="none" stroke="#63b8ff" d="M177.43,-95.31C238.84,-98.85 322.62,-100.53 395.75,-91 409.93,-89.15 424.91,-85.97 438.99,-82.39"/>
<polygon fill="#63b8ff" stroke="#63b8ff" points="439.83,-85.79 448.6,-79.84 438.04,-79.02 439.83,-85.79"/>
</a>
</g>
</g>
<!-- Node4 -->
<g id="Node000004" class="node">
<title>Node4</title>
<g id="a_Node000004"><a xlink:href="interfacefr_1_1softsf_1_1sudokufx_1_1interfaces_1_1_i_splash_screen_view.html#a7d48af9841e22c4f35680b95031f07e4" target="_top" xlink:title="Hides and closes the splash screen.">
<polygon fill="white" stroke="#666666" points="395.75,-82 213.25,-82 213.25,-50 395.75,-50 395.75,-82"/>
<text text-anchor="start" x="221.25" y="-68.5" font-family="Helvetica,sans-Serif" font-size="10.00">fr.softsf.sudokufx.interfaces.</text>
<text text-anchor="middle" x="304.5" y="-56.5" font-family="Helvetica,sans-Serif" font-size="10.00">ISplashScreenView.hideSplashScreen</text>
</a>
</g>
</g>
<!-- Node1&#45;&gt;Node4 -->
<g id="edge4_Node000001_Node000004" class="edge">
<title>Node1&#45;&gt;Node4</title>
<g id="a_edge4_Node000001_Node000004"><a xlink:title=" ">
<path fill="none" stroke="#63b8ff" d="M177.54,-78.96C185.45,-78.14 193.5,-77.31 201.52,-76.49"/>
<polygon fill="#63b8ff" stroke="#63b8ff" points="201.71,-79.99 211.3,-75.48 201,-73.03 201.71,-79.99"/>
</a>
</g>
</g>
<!-- Node5 -->
<g id="Node000005" class="node">
<title>Node5</title>
<g id="a_Node000005"><a xlink:href="classfr_1_1softsf_1_1sudokufx_1_1view_1_1_crash_screen_view.html#a98f5c93368a1478d0aa4087944fab7a1" target="_top" xlink:title="Shows the crash screen stage.">
<polygon fill="white" stroke="#666666" points="391.25,-32 217.75,-32 217.75,0 391.25,0 391.25,-32"/>
<text text-anchor="start" x="225.75" y="-18.5" font-family="Helvetica,sans-Serif" font-size="10.00">fr.softsf.sudokufx.view.</text>
<text text-anchor="middle" x="304.5" y="-6.5" font-family="Helvetica,sans-Serif" font-size="10.00">CrashScreenView.showcrashscreen</text>
</a>
</g>
</g>
<!-- Node1&#45;&gt;Node5 -->
<g id="edge5_Node000001_Node000005" class="edge">
<title>Node1&#45;&gt;Node5</title>
<g id="a_edge5_Node000001_Node000005"><a xlink:title=" ">
<path fill="none" stroke="#63b8ff" d="M129.93,-71.59C153.93,-62.09 185.1,-50.23 213.25,-41 218.71,-39.21 224.38,-37.44 230.11,-35.71"/>
<polygon fill="#63b8ff" stroke="#63b8ff" points="231.08,-39.08 239.68,-32.89 229.1,-32.36 231.08,-39.08"/>
</a>
</g>
</g>
<!-- Node2&#45;&gt;Node2 -->
<g id="edge2_Node000002_Node000002" class="edge">
<title>Node2&#45;&gt;Node2</title>
<g id="a_edge2_Node000002_Node000002"><a xlink:title=" ">
<path fill="none" stroke="#63b8ff" d="M269.17,-170.44C262.58,-179.58 274.35,-188 304.5,-188 320.99,-188 331.98,-185.48 337.48,-181.71"/>
<polygon fill="#63b8ff" stroke="#63b8ff" points="340.9,-182.43 339.52,-171.92 334.05,-181 340.9,-182.43"/>
</a>
</g>
</g>
<!-- Node5&#45;&gt;Node3 -->
<g id="edge6_Node000005_Node000003" class="edge">
<title>Node5&#45;&gt;Node3</title>
<g id="a_edge6_Node000005_Node000003"><a xlink:title=" ">
<path fill="none" stroke="#63b8ff" d="M374.01,-32.44C389.51,-36.16 406.11,-40.14 422.02,-43.96"/>
<polygon fill="#63b8ff" stroke="#63b8ff" points="420.89,-47.29 431.43,-46.22 422.53,-40.48 420.89,-47.29"/>
</a>
</g>
</g>
</g>
</svg>

<g id="navigator" transform="translate(0 0)" fill="#404254">
  <rect fill="#f2f5e9" fill-opacity="0.5" stroke="#606060" stroke-width=".5" x="0" y="0" width="60" height="60"/>
  <use id="zoomplus" xlink:href="#zoomPlus" x="17" y="9" onmousedown="handleZoom(evt,'in')"/>
  <use id="zoomminus" xlink:href="#zoomMin" x="42" y="9" onmousedown="handleZoom(evt,'out')"/>
  <use id="reset" xlink:href="#resetDef" x="30" y="36" onmousedown="handleReset()"/>
   <use id="arrowup" xlink:href="#arrowUp" x="0" y="0" onmousedown="handlePan(0,-1)"/>
  <use id="arrowright" xlink:href="#arrowRight" x="0" y="0" onmousedown="handlePan(1,0)"/>
  <use id="arrowdown" xlink:href="#arrowDown" x="0" y="0" onmousedown="handlePan(0,1)"/>
  <use id="arrowleft" xlink:href="#arrowLeft" x="0" y="0" onmousedown="handlePan(-1,0)"/>
</g>
<svg viewBox="0 0 15 15" width="100%" height="30px" preserveAspectRatio="xMaxYMin meet">
 <g id="arrow_out" transform="scale(0.3 0.3)">
  <a xlink:href="classfr_1_1softsf_1_1sudokufx_1_1view_1_1_crash_screen_view_acf48fcf9ca3ca27d580108d2d3e3635c_cgraph_org.svg" target="_base">
   <rect id="button" ry="5" rx="5" y="6" x="6" height="38" width="38"
        fill="#f2f5e9" fill-opacity="0.5" stroke="#606060" stroke-width="1.0"/>
   <path id="arrow"
     d="M 11.500037,31.436501 C 11.940474,20.09759 22.043105,11.32322 32.158766,21.979434 L 37.068811,17.246167 C 37.068811,17.246167 37.088388,32 37.088388,32 L 22.160133,31.978069 C 22.160133,31.978069 26.997745,27.140456 26.997745,27.140456 C 18.528582,18.264221 13.291696,25.230495 11.500037,31.436501 z"
     style="fill:#404040;"/>
  </a>
 </g>
</svg>

<style type='text/css'>
<![CDATA[
[data-mouse-over-selected='false'] { opacity: 0.7; }
[data-mouse-over-selected='true']  { opacity: 1.0; }
]]>
</style>
<script type="application/ecmascript"><![CDATA[
document.addEventListener('DOMContentLoaded', (event) => {
  highlightEdges();
  highlightAdjacentNodes();
});
]]></script>
</svg>
