<?xml version="1.0" encoding="UTF-8" standalone="no"?>
<!DOCTYPE svg PUBLIC "-//W3C//DTD SVG 1.1//EN"
 "http://www.w3.org/Graphics/SVG/1.1/DTD/svg11.dtd">
<!-- Generated by graphviz version 12.2.1 (20241206.2353)
 -->
<!-- Title: fr.softsf.sudokufx.configuration.database.ApplicationKeystore.setupApplicationKeystore Pages: 1 -->
<svg width="1209pt" height="190pt"
 viewBox="0.00 0.00 1208.50 190.00" xmlns="http://www.w3.org/2000/svg" xmlns:xlink="http://www.w3.org/1999/xlink">
<g id="graph0" class="graph" transform="scale(1 1) rotate(0) translate(4 186)">
<title>fr.softsf.sudokufx.configuration.database.ApplicationKeystore.setupApplicationKeystore</title>
<!-- Node1 -->
<g id="Node000001" class="node">
<title>Node1</title>
<g id="a_Node000001"><a xlink:title="Configures the keystore by managing the entire process of creating, loading, and encrypting the neces...">
<polygon fill="#999999" stroke="#666666" points="217,-107 0,-107 0,-75 217,-75 217,-107"/>
<text text-anchor="start" x="8" y="-93.5" font-family="Helvetica,sans-Serif" font-size="10.00">fr.softsf.sudokufx.configuration.database.</text>
<text text-anchor="middle" x="108.5" y="-81.5" font-family="Helvetica,sans-Serif" font-size="10.00">ApplicationKeystore.setupApplicationKeystore</text>
</a>
</g>
</g>
<!-- Node2 -->
<g id="Node000002" class="node">
<title>Node2</title>
<g id="a_Node000002"><a xlink:href="classfr_1_1softsf_1_1sudokufx_1_1configuration_1_1database_1_1_application_keystore.html#a04ec142554568f6dcfca491c9590af85" target="_top" xlink:title="Create or update the Keystore.">
<polygon fill="white" stroke="#666666" points="467,-182 253,-182 253,-150 467,-150 467,-182"/>
<text text-anchor="start" x="261" y="-168.5" font-family="Helvetica,sans-Serif" font-size="10.00">fr.softsf.sudokufx.configuration.database.</text>
<text text-anchor="middle" x="360" y="-156.5" font-family="Helvetica,sans-Serif" font-size="10.00">ApplicationKeystore.createOrUpdateKeystore</text>
</a>
</g>
</g>
<!-- Node1&#45;&gt;Node2 -->
<g id="edge1_Node000001_Node000002" class="edge">
<title>Node1&#45;&gt;Node2</title>
<g id="a_edge1_Node000001_Node000002"><a xlink:title=" ">
<path fill="none" stroke="#63b8ff" d="M152.77,-107.39C181.05,-117.78 218.93,-131.08 253,-141 259.73,-142.96 266.74,-144.88 273.79,-146.72"/>
<polygon fill="#63b8ff" stroke="#63b8ff" points="272.88,-150.1 283.43,-149.18 274.61,-143.32 272.88,-150.1"/>
</a>
</g>
</g>
<!-- Node3 -->
<g id="Node000003" class="node">
<title>Node3</title>
<g id="a_Node000003"><a xlink:href="classfr_1_1softsf_1_1sudokufx_1_1configuration_1_1database_1_1_application_keystore.html#ac921a5d988bb1784df8fe10847c72a93" target="_top" xlink:title="Get or set credentials by alias.">
<polygon fill="white" stroke="#666666" points="458.38,-132 261.62,-132 261.62,-100 458.38,-100 458.38,-132"/>
<text text-anchor="start" x="269.62" y="-118.5" font-family="Helvetica,sans-Serif" font-size="10.00">fr.softsf.sudokufx.configuration.database.</text>
<text text-anchor="middle" x="360" y="-106.5" font-family="Helvetica,sans-Serif" font-size="10.00">ApplicationKeystore.credentials</text>
</a>
</g>
</g>
<!-- Node1&#45;&gt;Node3 -->
<g id="edge2_Node000001_Node000003" class="edge">
<title>Node1&#45;&gt;Node3</title>
<g id="a_edge2_Node000001_Node000003"><a xlink:title=" ">
<path fill="none" stroke="#63b8ff" d="M217.48,-101.82C228.33,-102.91 239.36,-104.01 250.21,-105.1"/>
<polygon fill="#63b8ff" stroke="#63b8ff" points="249.65,-108.56 259.95,-106.08 250.35,-101.6 249.65,-108.56"/>
</a>
</g>
</g>
<!-- Node8 -->
<g id="Node000008" class="node">
<title>Node8</title>
<g id="a_Node000008"><a xlink:href="classfr_1_1softsf_1_1sudokufx_1_1configuration_1_1database_1_1_application_keystore.html#af9b2935d53713195a38a2a2fee61c2ac" target="_top" xlink:title="Load the Keystore.">
<polygon fill="white" stroke="#666666" points="458.38,-82 261.62,-82 261.62,-50 458.38,-50 458.38,-82"/>
<text text-anchor="start" x="269.62" y="-68.5" font-family="Helvetica,sans-Serif" font-size="10.00">fr.softsf.sudokufx.configuration.database.</text>
<text text-anchor="middle" x="360" y="-56.5" font-family="Helvetica,sans-Serif" font-size="10.00">ApplicationKeystore.loadKeyStore</text>
</a>
</g>
</g>
<!-- Node1&#45;&gt;Node8 -->
<g id="edge7_Node000001_Node000008" class="edge">
<title>Node1&#45;&gt;Node8</title>
<g id="a_edge7_Node000001_Node000008"><a xlink:title=" ">
<path fill="none" stroke="#63b8ff" d="M217.48,-80.18C228.33,-79.09 239.36,-77.99 250.21,-76.9"/>
<polygon fill="#63b8ff" stroke="#63b8ff" points="250.35,-80.4 259.95,-75.92 249.65,-73.44 250.35,-80.4"/>
</a>
</g>
</g>
<!-- Node9 -->
<g id="Node000009" class="node">
<title>Node9</title>
<g id="a_Node000009"><a xlink:href="classfr_1_1softsf_1_1sudokufx_1_1configuration_1_1database_1_1_application_keystore.html#ab5a3da56ae05a04d32f27b58fcd0d762" target="_top" xlink:title="Check the symmetric key presence.">
<polygon fill="white" stroke="#666666" points="458.38,-32 261.62,-32 261.62,0 458.38,0 458.38,-32"/>
<text text-anchor="start" x="269.62" y="-18.5" font-family="Helvetica,sans-Serif" font-size="10.00">fr.softsf.sudokufx.configuration.database.</text>
<text text-anchor="middle" x="360" y="-6.5" font-family="Helvetica,sans-Serif" font-size="10.00">ApplicationKeystore.symmetricKey</text>
</a>
</g>
</g>
<!-- Node1&#45;&gt;Node9 -->
<g id="edge8_Node000001_Node000009" class="edge">
<title>Node1&#45;&gt;Node9</title>
<g id="a_edge8_Node000001_Node000009"><a xlink:title=" ">
<path fill="none" stroke="#63b8ff" d="M152.77,-74.61C181.05,-64.22 218.93,-50.92 253,-41 259.73,-39.04 266.74,-37.12 273.79,-35.28"/>
<polygon fill="#63b8ff" stroke="#63b8ff" points="274.61,-38.68 283.43,-32.82 272.88,-31.9 274.61,-38.68"/>
</a>
</g>
</g>
<!-- Node4 -->
<g id="Node000004" class="node">
<title>Node4</title>
<g id="a_Node000004"><a xlink:href="classfr_1_1softsf_1_1sudokufx_1_1configuration_1_1database_1_1_application_keystore.html#a0d35372de341ee492a6d5fb3d51fb2ba" target="_top" xlink:title="Get credential by alias.">
<polygon fill="white" stroke="#666666" points="717.38,-182 520.62,-182 520.62,-150 717.38,-150 717.38,-182"/>
<text text-anchor="start" x="528.62" y="-168.5" font-family="Helvetica,sans-Serif" font-size="10.00">fr.softsf.sudokufx.configuration.database.</text>
<text text-anchor="middle" x="619" y="-156.5" font-family="Helvetica,sans-Serif" font-size="10.00">ApplicationKeystore.getCredentials</text>
</a>
</g>
</g>
<!-- Node3&#45;&gt;Node4 -->
<g id="edge3_Node000003_Node000004" class="edge">
<title>Node3&#45;&gt;Node4</title>
<g id="a_edge3_Node000003_Node000004"><a xlink:title=" ">
<path fill="none" stroke="#63b8ff" d="M445.51,-132.44C470.1,-137.23 497.15,-142.49 522.37,-147.4"/>
<polygon fill="#63b8ff" stroke="#63b8ff" points="521.47,-150.79 531.96,-149.26 522.81,-143.91 521.47,-150.79"/>
</a>
</g>
</g>
<!-- Node5 -->
<g id="Node000005" class="node">
<title>Node5</title>
<g id="a_Node000005"><a xlink:href="classfr_1_1softsf_1_1sudokufx_1_1configuration_1_1database_1_1_application_keystore.html#a11f7f45df04c2a5c9cf71776b142b488" target="_top" xlink:title="Set credential by alias.">
<polygon fill="white" stroke="#666666" points="717.38,-132 520.62,-132 520.62,-100 717.38,-100 717.38,-132"/>
<text text-anchor="start" x="528.62" y="-118.5" font-family="Helvetica,sans-Serif" font-size="10.00">fr.softsf.sudokufx.configuration.database.</text>
<text text-anchor="middle" x="619" y="-106.5" font-family="Helvetica,sans-Serif" font-size="10.00">ApplicationKeystore.setCredentials</text>
</a>
</g>
</g>
<!-- Node3&#45;&gt;Node5 -->
<g id="edge4_Node000003_Node000005" class="edge">
<title>Node3&#45;&gt;Node5</title>
<g id="a_edge4_Node000003_Node000005"><a xlink:title=" ">
<path fill="none" stroke="#63b8ff" d="M458.53,-116C475.18,-116 492.58,-116 509.5,-116"/>
<polygon fill="#63b8ff" stroke="#63b8ff" points="509.03,-119.5 519.03,-116 509.03,-112.5 509.03,-119.5"/>
</a>
</g>
</g>
<!-- Node6 -->
<g id="Node000006" class="node">
<title>Node6</title>
<g id="a_Node000006"><a xlink:href="classfr_1_1softsf_1_1sudokufx_1_1configuration_1_1database_1_1_application_keystore.html#a1632efeaf8085ba148777459a03da030" target="_top" xlink:title="Add alias:secret in the Keystore.">
<polygon fill="white" stroke="#666666" points="967.75,-82 771,-82 771,-50 967.75,-50 967.75,-82"/>
<text text-anchor="start" x="779" y="-68.5" font-family="Helvetica,sans-Serif" font-size="10.00">fr.softsf.sudokufx.configuration.database.</text>
<text text-anchor="middle" x="869.38" y="-56.5" font-family="Helvetica,sans-Serif" font-size="10.00">ApplicationKeystore.addToKeystore</text>
</a>
</g>
</g>
<!-- Node5&#45;&gt;Node6 -->
<g id="edge5_Node000005_Node000006" class="edge">
<title>Node5&#45;&gt;Node6</title>
<g id="a_edge5_Node000005_Node000006"><a xlink:title=" ">
<path fill="none" stroke="#63b8ff" d="M701.67,-99.56C725.34,-94.8 751.34,-89.56 775.63,-84.67"/>
<polygon fill="#63b8ff" stroke="#63b8ff" points="776.06,-88.15 785.17,-82.75 774.68,-81.29 776.06,-88.15"/>
</a>
</g>
</g>
<!-- Node7 -->
<g id="Node000007" class="node">
<title>Node7</title>
<g id="a_Node000007"><a xlink:href="classfr_1_1softsf_1_1sudokufx_1_1configuration_1_1database_1_1_application_keystore.html#a47a29c9d920c90352ec1a7226e2707bf" target="_top" xlink:title="Write data to the keystore file.">
<polygon fill="white" stroke="#666666" points="1200.5,-82 1003.75,-82 1003.75,-50 1200.5,-50 1200.5,-82"/>
<text text-anchor="start" x="1011.75" y="-68.5" font-family="Helvetica,sans-Serif" font-size="10.00">fr.softsf.sudokufx.configuration.database.</text>
<text text-anchor="middle" x="1102.12" y="-56.5" font-family="Helvetica,sans-Serif" font-size="10.00">ApplicationKeystore.writeTheKeystore</text>
</a>
</g>
</g>
<!-- Node6&#45;&gt;Node7 -->
<g id="edge6_Node000006_Node000007" class="edge">
<title>Node6&#45;&gt;Node7</title>
<g id="a_edge6_Node000006_Node000007"><a xlink:title=" ">
<path fill="none" stroke="#63b8ff" d="M968.23,-66C976.17,-66 984.21,-66 992.21,-66"/>
<polygon fill="#63b8ff" stroke="#63b8ff" points="991.97,-69.5 1001.97,-66 991.97,-62.5 991.97,-69.5"/>
</a>
</g>
</g>
<!-- Node10 -->
<g id="Node000010" class="node">
<title>Node10</title>
<g id="a_Node000010"><a xlink:href="classfr_1_1softsf_1_1sudokufx_1_1configuration_1_1database_1_1_application_keystore.html#a5424163e41a856135ef7cfbd72468a09" target="_top" xlink:title="Get the symmetric key and set encryption service.">
<polygon fill="white" stroke="#666666" points="731.25,-82 506.75,-82 506.75,-50 731.25,-50 731.25,-82"/>
<text text-anchor="start" x="514.75" y="-68.5" font-family="Helvetica,sans-Serif" font-size="10.00">fr.softsf.sudokufx.configuration.database.</text>
<text text-anchor="middle" x="619" y="-56.5" font-family="Helvetica,sans-Serif" font-size="10.00">ApplicationKeystore.symmetricKeyIsInKeystore</text>
</a>
</g>
</g>
<!-- Node9&#45;&gt;Node10 -->
<g id="edge9_Node000009_Node000010" class="edge">
<title>Node9&#45;&gt;Node10</title>
<g id="a_edge9_Node000009_Node000010"><a xlink:title=" ">
<path fill="none" stroke="#63b8ff" d="M445.51,-32.44C470.1,-37.23 497.15,-42.49 522.37,-47.4"/>
<polygon fill="#63b8ff" stroke="#63b8ff" points="521.47,-50.79 531.96,-49.26 522.81,-43.91 521.47,-50.79"/>
</a>
</g>
</g>
<!-- Node11 -->
<g id="Node000011" class="node">
<title>Node11</title>
<g id="a_Node000011"><a xlink:href="classfr_1_1softsf_1_1sudokufx_1_1configuration_1_1database_1_1_application_keystore.html#aba29cf4f852c6a58fc46bc83705570e8" target="_top" xlink:title="Set the symmetric key and set encryption service.">
<polygon fill="white" stroke="#666666" points="735,-32 503,-32 503,0 735,0 735,-32"/>
<text text-anchor="start" x="511" y="-18.5" font-family="Helvetica,sans-Serif" font-size="10.00">fr.softsf.sudokufx.configuration.database.</text>
<text text-anchor="middle" x="619" y="-6.5" font-family="Helvetica,sans-Serif" font-size="10.00">ApplicationKeystore.symmetricKeyNotInKeystore</text>
</a>
</g>
</g>
<!-- Node9&#45;&gt;Node11 -->
<g id="edge10_Node000009_Node000011" class="edge">
<title>Node9&#45;&gt;Node11</title>
<g id="a_edge10_Node000009_Node000011"><a xlink:title=" ">
<path fill="none" stroke="#63b8ff" d="M458.53,-9.43C469.28,-9.3 480.33,-9.24 491.37,-9.25"/>
<polygon fill="#63b8ff" stroke="#63b8ff" points="491.33,-12.75 501.34,-9.28 491.35,-5.75 491.33,-12.75"/>
</a>
</g>
</g>
<!-- Node11&#45;&gt;Node6 -->
<g id="edge11_Node000011_Node000006" class="edge">
<title>Node11&#45;&gt;Node6</title>
<g id="a_edge11_Node000011_Node000006"><a xlink:title=" ">
<path fill="none" stroke="#63b8ff" d="M701.67,-32.44C725.34,-37.2 751.34,-42.44 775.63,-47.33"/>
<polygon fill="#63b8ff" stroke="#63b8ff" points="774.68,-50.71 785.17,-49.25 776.06,-43.85 774.68,-50.71"/>
</a>
</g>
</g>
<!-- Node11&#45;&gt;Node9 -->
<g id="edge12_Node000011_Node000009" class="edge">
<title>Node11&#45;&gt;Node9</title>
<g id="a_edge12_Node000011_Node000009"><a xlink:title=" ">
<path fill="none" stroke="#63b8ff" d="M502.86,-22.72C491.87,-22.77 480.75,-22.76 469.83,-22.68"/>
<polygon fill="#63b8ff" stroke="#63b8ff" points="470.07,-19.18 460.04,-22.59 470.01,-26.18 470.07,-19.18"/>
</a>
</g>
</g>
</g>
</svg>
