<?xml version="1.0" encoding="UTF-8" standalone="no"?>
<!DOCTYPE svg PUBLIC "-//W3C//DTD SVG 1.1//EN"
 "http://www.w3.org/Graphics/SVG/1.1/DTD/svg11.dtd">
<!-- Generated by graphviz version 12.2.0 (20241103.1931)
 -->
<!-- Title: fr.softsf.sudokufx.configuration.database.DataSourceConfig.logbackInitialization Pages: 1 -->
<svg width="673pt" height="70pt"
 viewBox="0.00 0.00 673.25 70.00" xmlns="http://www.w3.org/2000/svg" xmlns:xlink="http://www.w3.org/1999/xlink">
<g id="graph0" class="graph" transform="scale(1 1) rotate(0) translate(4 66)">
<title>fr.softsf.sudokufx.configuration.database.DataSourceConfig.logbackInitialization</title>
<!-- Node1 -->
<g id="Node000001" class="node">
<title>Node1</title>
<g id="a_Node000001"><a xlink:title="Initializes Logback logging framework.">
<polygon fill="#999999" stroke="#666666" points="196.75,-38 0,-38 0,-6 196.75,-6 196.75,-38"/>
<text text-anchor="start" x="8" y="-24.5" font-family="Helvetica,sans-Serif" font-size="10.00">fr.softsf.sudokufx.configuration.database.</text>
<text text-anchor="middle" x="98.38" y="-12.5" font-family="Helvetica,sans-Serif" font-size="10.00">DataSourceConfig.logbackInitialization</text>
</a>
</g>
</g>
<!-- Node2 -->
<g id="Node000002" class="node">
<title>Node2</title>
<g id="a_Node000002"><a xlink:href="classfr_1_1softsf_1_1sudokufx_1_1configuration_1_1_my_logback_config.html#abff1fed4c4636eee219c99cf8411b63e" target="_top" xlink:title="Prints the application&#39;s ASCII logo to the log as an entry message.">
<polygon fill="white" stroke="#666666" points="428,-38 232.75,-38 232.75,-6 428,-6 428,-38"/>
<text text-anchor="start" x="240.75" y="-24.5" font-family="Helvetica,sans-Serif" font-size="10.00">fr.softsf.sudokufx.configuration.</text>
<text text-anchor="middle" x="330.38" y="-12.5" font-family="Helvetica,sans-Serif" font-size="10.00">MyLogbackConfig.printLogEntryMessage</text>
</a>
</g>
</g>
<!-- Node1&#45;&gt;Node2 -->
<g id="edge1_Node000001_Node000002" class="edge">
<title>Node1&#45;&gt;Node2</title>
<g id="a_edge1_Node000001_Node000002"><a xlink:title=" ">
<path fill="none" stroke="#63b8ff" d="M197.25,-22C205.05,-22 212.96,-22 220.84,-22"/>
<polygon fill="#63b8ff" stroke="#63b8ff" points="220.81,-25.5 230.81,-22 220.81,-18.5 220.81,-25.5"/>
</a>
</g>
</g>
<!-- Node3 -->
<g id="Node000003" class="node">
<title>Node3</title>
<g id="a_Node000003"><a xlink:href="classfr_1_1softsf_1_1sudokufx_1_1configuration_1_1_j_v_m_application_properties.html#a46753fc32c7d3156f3aed0f0c63c758e" target="_top" xlink:title="Determines if the Spring context should exit on refresh.">
<polygon fill="white" stroke="#666666" points="665.25,-44 464,-44 464,0 665.25,0 665.25,-44"/>
<text text-anchor="start" x="472" y="-30.5" font-family="Helvetica,sans-Serif" font-size="10.00">fr.softsf.sudokufx.configuration.</text>
<text text-anchor="start" x="472" y="-18.5" font-family="Helvetica,sans-Serif" font-size="10.00">JVMApplicationProperties.isSpringContext</text>
<text text-anchor="middle" x="564.62" y="-6.5" font-family="Helvetica,sans-Serif" font-size="10.00">ExitOnRefresh</text>
</a>
</g>
</g>
<!-- Node2&#45;&gt;Node3 -->
<g id="edge2_Node000002_Node000003" class="edge">
<title>Node2&#45;&gt;Node3</title>
<g id="a_edge2_Node000002_Node000003"><a xlink:title=" ">
<path fill="none" stroke="#63b8ff" d="M428.19,-22C436.14,-22 444.22,-22 452.26,-22"/>
<polygon fill="#63b8ff" stroke="#63b8ff" points="452.09,-25.5 462.09,-22 452.09,-18.5 452.09,-25.5"/>
</a>
</g>
</g>
<!-- Node3&#45;&gt;Node3 -->
<g id="edge3_Node000003_Node000003" class="edge">
<title>Node3&#45;&gt;Node3</title>
<g id="a_edge3_Node000003_Node000003"><a xlink:title=" ">
<path fill="none" stroke="#63b8ff" d="M521.23,-44.21C517.68,-53.8 532.14,-62 564.62,-62 583.91,-62 596.85,-59.11 603.43,-54.75"/>
<polygon fill="#63b8ff" stroke="#63b8ff" points="606.63,-56.17 607.42,-45.6 600.21,-53.37 606.63,-56.17"/>
</a>
</g>
</g>
</g>
</svg>
