<?xml version="1.0" encoding="UTF-8" standalone="no"?>
<!DOCTYPE svg PUBLIC "-//W3C//DTD SVG 1.1//EN"
 "http://www.w3.org/Graphics/SVG/1.1/DTD/svg11.dtd">
<!-- Generated by graphviz version 12.2.0 (20241103.1931)
 -->
<!-- Title: fr.softsf.sudokufx.utils.database.keystore.ApplicationKeystore.setCredentials Pages: 1 -->
<svg width="679pt" height="140pt"
 viewBox="0.00 0.00 679.25 140.00" xmlns="http://www.w3.org/2000/svg" xmlns:xlink="http://www.w3.org/1999/xlink">
<g id="graph0" class="graph" transform="scale(1 1) rotate(0) translate(4 136)">
<title>fr.softsf.sudokufx.utils.database.keystore.ApplicationKeystore.setCredentials</title>
<!-- Node1 -->
<g id="Node000001" class="node">
<title>Node1</title>
<g id="a_Node000001"><a xlink:title="Set credential by alias.">
<polygon fill="#999999" stroke="#666666" points="199.75,-82 0,-82 0,-50 199.75,-50 199.75,-82"/>
<text text-anchor="start" x="8" y="-68.5" font-family="Helvetica,sans-Serif" font-size="10.00">fr.softsf.sudokufx.utils.database.keystore.</text>
<text text-anchor="middle" x="99.88" y="-56.5" font-family="Helvetica,sans-Serif" font-size="10.00">ApplicationKeystore.setCredentials</text>
</a>
</g>
</g>
<!-- Node2 -->
<g id="Node000002" class="node">
<title>Node2</title>
<g id="a_Node000002"><a xlink:href="classfr_1_1softsf_1_1sudokufx_1_1utils_1_1database_1_1keystore_1_1_application_keystore.html#a33216f8f54d7cd930bad1447d08019ba" target="_top" xlink:title="Add alias:secret in the Keystore.">
<polygon fill="white" stroke="#666666" points="435.5,-132 235.75,-132 235.75,-100 435.5,-100 435.5,-132"/>
<text text-anchor="start" x="243.75" y="-118.5" font-family="Helvetica,sans-Serif" font-size="10.00">fr.softsf.sudokufx.utils.database.keystore.</text>
<text text-anchor="middle" x="335.62" y="-106.5" font-family="Helvetica,sans-Serif" font-size="10.00">ApplicationKeystore.addToKeystore</text>
</a>
</g>
</g>
<!-- Node1&#45;&gt;Node2 -->
<g id="edge1_Node000001_Node000002" class="edge">
<title>Node1&#45;&gt;Node2</title>
<g id="a_edge1_Node000001_Node000002"><a xlink:title=" ">
<path fill="none" stroke="#63b8ff" d="M177.74,-82.44C199.81,-87.16 224.04,-92.35 246.72,-97.2"/>
<polygon fill="#63b8ff" stroke="#63b8ff" points="245.73,-100.56 256.24,-99.23 247.19,-93.72 245.73,-100.56"/>
</a>
</g>
</g>
<!-- Node4 -->
<g id="Node000004" class="node">
<title>Node4</title>
<g id="a_Node000004"><a xlink:href="interfacefr_1_1softsf_1_1sudokufx_1_1interfaces_1_1_i_encryption_service.html#a7cd39caadae83b3502b56b96d349cfc5" target="_top" xlink:title="Encrypt original.">
<polygon fill="white" stroke="#666666" points="406.25,-82 265,-82 265,-50 406.25,-50 406.25,-82"/>
<text text-anchor="start" x="273" y="-68.5" font-family="Helvetica,sans-Serif" font-size="10.00">fr.softsf.sudokufx.interfaces.</text>
<text text-anchor="middle" x="335.62" y="-56.5" font-family="Helvetica,sans-Serif" font-size="10.00">IEncryptionService.encrypt</text>
</a>
</g>
</g>
<!-- Node1&#45;&gt;Node4 -->
<g id="edge3_Node000001_Node000004" class="edge">
<title>Node1&#45;&gt;Node4</title>
<g id="a_edge3_Node000001_Node000004"><a xlink:title=" ">
<path fill="none" stroke="#63b8ff" d="M200.01,-66C217.87,-66 236.3,-66 253.57,-66"/>
<polygon fill="#63b8ff" stroke="#63b8ff" points="253.22,-69.5 263.22,-66 253.22,-62.5 253.22,-69.5"/>
</a>
</g>
</g>
<!-- Node5 -->
<g id="Node000005" class="node">
<title>Node5</title>
<g id="a_Node000005"><a xlink:href="classfr_1_1softsf_1_1sudokufx_1_1utils_1_1database_1_1keystore_1_1_generate_secret.html#ac1a554d432a1d4a3f2c32d9ca6594868" target="_top" xlink:title="Generate Passay secret.">
<polygon fill="white" stroke="#666666" points="435.5,-32 235.75,-32 235.75,0 435.5,0 435.5,-32"/>
<text text-anchor="start" x="243.75" y="-18.5" font-family="Helvetica,sans-Serif" font-size="10.00">fr.softsf.sudokufx.utils.database.keystore.</text>
<text text-anchor="middle" x="335.62" y="-6.5" font-family="Helvetica,sans-Serif" font-size="10.00">GenerateSecret.generatePassaySecret</text>
</a>
</g>
</g>
<!-- Node1&#45;&gt;Node5 -->
<g id="edge4_Node000001_Node000005" class="edge">
<title>Node1&#45;&gt;Node5</title>
<g id="a_edge4_Node000001_Node000005"><a xlink:title=" ">
<path fill="none" stroke="#63b8ff" d="M177.74,-49.56C199.81,-44.84 224.04,-39.65 246.72,-34.8"/>
<polygon fill="#63b8ff" stroke="#63b8ff" points="247.19,-38.28 256.24,-32.77 245.73,-31.44 247.19,-38.28"/>
</a>
</g>
</g>
<!-- Node3 -->
<g id="Node000003" class="node">
<title>Node3</title>
<g id="a_Node000003"><a xlink:href="classfr_1_1softsf_1_1sudokufx_1_1utils_1_1database_1_1keystore_1_1_application_keystore.html#af82e040ae05888410827f695338a3a07" target="_top" xlink:title="Write data to the keystore file.">
<polygon fill="white" stroke="#666666" points="671.25,-132 471.5,-132 471.5,-100 671.25,-100 671.25,-132"/>
<text text-anchor="start" x="479.5" y="-118.5" font-family="Helvetica,sans-Serif" font-size="10.00">fr.softsf.sudokufx.utils.database.keystore.</text>
<text text-anchor="middle" x="571.38" y="-106.5" font-family="Helvetica,sans-Serif" font-size="10.00">ApplicationKeystore.writeTheKeystore</text>
</a>
</g>
</g>
<!-- Node2&#45;&gt;Node3 -->
<g id="edge2_Node000002_Node000003" class="edge">
<title>Node2&#45;&gt;Node3</title>
<g id="a_edge2_Node000002_Node000003"><a xlink:title=" ">
<path fill="none" stroke="#63b8ff" d="M435.76,-116C443.71,-116 451.77,-116 459.79,-116"/>
<polygon fill="#63b8ff" stroke="#63b8ff" points="459.58,-119.5 469.58,-116 459.58,-112.5 459.58,-119.5"/>
</a>
</g>
</g>
<!-- Node6 -->
<g id="Node000006" class="node">
<title>Node6</title>
<g id="a_Node000006"><a xlink:href="classfr_1_1softsf_1_1sudokufx_1_1utils_1_1database_1_1keystore_1_1_generate_secret.html#a60e50e50087c5e2e578a7e14fa9d2b2e" target="_top" xlink:title="Define the secret special characters.">
<polygon fill="white" stroke="#666666" points="671.25,-32 471.5,-32 471.5,0 671.25,0 671.25,-32"/>
<text text-anchor="start" x="479.5" y="-18.5" font-family="Helvetica,sans-Serif" font-size="10.00">fr.softsf.sudokufx.utils.database.keystore.</text>
<text text-anchor="middle" x="571.38" y="-6.5" font-family="Helvetica,sans-Serif" font-size="10.00">GenerateSecret.createSpecialChars</text>
</a>
</g>
</g>
<!-- Node5&#45;&gt;Node6 -->
<g id="edge5_Node000005_Node000006" class="edge">
<title>Node5&#45;&gt;Node6</title>
<g id="a_edge5_Node000005_Node000006"><a xlink:title=" ">
<path fill="none" stroke="#63b8ff" d="M435.76,-16C443.71,-16 451.77,-16 459.79,-16"/>
<polygon fill="#63b8ff" stroke="#63b8ff" points="459.58,-19.5 469.58,-16 459.58,-12.5 459.58,-19.5"/>
</a>
</g>
</g>
</g>
</svg>
