<?xml version="1.0" encoding="UTF-8" standalone="no"?>
<!DOCTYPE svg PUBLIC "-//W3C//DTD SVG 1.1//EN"
 "http://www.w3.org/Graphics/SVG/1.1/DTD/svg11.dtd">
<!-- Generated by graphviz version 12.2.0 (20241103.1931)
 -->
<!-- Title: fr.softsf.sudofx2024.view.FullMenuView Pages: 1 -->
<svg width="940pt" height="1165pt"
 viewBox="0.00 0.00 940.04 1165.00" xmlns="http://www.w3.org/2000/svg" xmlns:xlink="http://www.w3.org/1999/xlink">
<g id="graph0" class="graph" transform="scale(1 1) rotate(0) translate(4 1161)">
<title>fr.softsf.sudofx2024.view.FullMenuView</title>
<!-- Node1 -->
<g id="Node000001" class="node">
<title>Node1</title>
<g id="a_Node000001"><a xlink:title="View class for the full menu screen of the Sudoku application.">
<polygon fill="#999999" stroke="none" points="530.38,-244 378.12,-244 378.12,0 530.38,0 530.38,-244"/>
<text text-anchor="start" x="398" y="-230.5" font-family="Helvetica,sans-Serif" font-size="10.00">fr.softsf.sudofx2024.view.</text>
<text text-anchor="start" x="423.5" y="-218.5" font-family="Helvetica,sans-Serif" font-size="10.00">FullMenuView</text>
<text text-anchor="start" x="383.62" y="-202.5" font-family="Helvetica,sans-Serif" font-size="10.00">&#45;</text>
<text text-anchor="start" x="392.12" y="-202.5" font-family="Helvetica,sans-Serif" font-size="10.00">static final double</text>
<text text-anchor="start" x="392.12" y="-190.5" font-family="Helvetica,sans-Serif" font-size="10.00"> FADE_IN_IN_SECONDS</text>
<text text-anchor="start" x="392.12" y="-178.5" font-family="Helvetica,sans-Serif" font-size="10.00">_AFTER_SPLASHSCREEN</text>
<text text-anchor="start" x="382.12" y="-162.5" font-family="Helvetica,sans-Serif" font-size="10.00">+</text>
<text text-anchor="start" x="392.12" y="-162.5" font-family="Helvetica,sans-Serif" font-size="10.00">void openingMainStage</text>
<text text-anchor="start" x="392.12" y="-150.5" font-family="Helvetica,sans-Serif" font-size="10.00">(final SudoMain.ISplashScreen</text>
<text text-anchor="start" x="392.12" y="-138.5" font-family="Helvetica,sans-Serif" font-size="10.00">View iSplashScreenView)</text>
<text text-anchor="start" x="383.62" y="-122.5" font-family="Helvetica,sans-Serif" font-size="10.00">&#45;</text>
<text text-anchor="start" x="392.12" y="-122.5" font-family="Helvetica,sans-Serif" font-size="10.00">void initialize()</text>
<text text-anchor="start" x="383.62" y="-106.5" font-family="Helvetica,sans-Serif" font-size="10.00">&#45;</text>
<text text-anchor="start" x="392.12" y="-106.5" font-family="Helvetica,sans-Serif" font-size="10.00">void onHelloButtonClick</text>
<text text-anchor="start" x="392.12" y="-94.5" font-family="Helvetica,sans-Serif" font-size="10.00">(ActionEvent event)</text>
<text text-anchor="start" x="383.62" y="-78.5" font-family="Helvetica,sans-Serif" font-size="10.00">&#45;</text>
<text text-anchor="start" x="392.12" y="-78.5" font-family="Helvetica,sans-Serif" font-size="10.00">void openingConfigureStage()</text>
<text text-anchor="start" x="383.62" y="-62.5" font-family="Helvetica,sans-Serif" font-size="10.00">&#45;</text>
<text text-anchor="start" x="392.12" y="-62.5" font-family="Helvetica,sans-Serif" font-size="10.00">void openingFadeIn</text>
<text text-anchor="start" x="392.12" y="-50.5" font-family="Helvetica,sans-Serif" font-size="10.00">(final Node node)</text>
<text text-anchor="start" x="383.62" y="-34.5" font-family="Helvetica,sans-Serif" font-size="10.00">&#45;</text>
<text text-anchor="start" x="392.12" y="-34.5" font-family="Helvetica,sans-Serif" font-size="10.00">void openingMaximizePrimary</text>
<text text-anchor="start" x="392.12" y="-22.5" font-family="Helvetica,sans-Serif" font-size="10.00">Stage()</text>
<text text-anchor="start" x="383.62" y="-6.5" font-family="Helvetica,sans-Serif" font-size="10.00">&#45;</text>
<text text-anchor="start" x="392.12" y="-6.5" font-family="Helvetica,sans-Serif" font-size="10.00">void openingShowStage()</text>
<polygon fill="#666666" stroke="#666666" points="378.12,-214 378.12,-214 530.38,-214 530.38,-214 378.12,-214"/>
<polygon fill="#666666" stroke="#666666" points="378.12,-174 378.12,-174 390.12,-174 390.12,-174 378.12,-174"/>
<polygon fill="#666666" stroke="#666666" points="390.12,-174 390.12,-174 530.38,-174 530.38,-174 390.12,-174"/>
<polygon fill="none" stroke="#666666" points="378.12,0 378.12,-244 530.38,-244 530.38,0 378.12,0"/>
</a>
</g>
</g>
<!-- Node2 -->
<g id="Node000002" class="node">
<title>Node2</title>
<g id="a_Node000002"><a xlink:href="interfacefr_1_1softsf_1_1sudofx2024_1_1_sudo_main_1_1_i_primary_stage_view.html" target="_top" xlink:title="Interface for the primary stage view.">
<polygon fill="white" stroke="none" points="172.5,-566 0,-566 0,-478 172.5,-478 172.5,-566"/>
<text text-anchor="start" x="30" y="-552.5" font-family="Helvetica,sans-Serif" font-size="10.00">fr.softsf.sudofx2024.Sudo</text>
<text text-anchor="start" x="32.25" y="-540.5" font-family="Helvetica,sans-Serif" font-size="10.00">Main.IPrimaryStageView</text>
<text text-anchor="start" x="84.75" y="-524.5" font-family="Helvetica,sans-Serif" font-size="10.00"> </text>
<text text-anchor="start" x="4" y="-508.5" font-family="Helvetica,sans-Serif" font-size="10.00">+</text>
<text text-anchor="start" x="14" y="-508.5" font-family="Helvetica,sans-Serif" font-size="10.00">void openingMainStage</text>
<text text-anchor="start" x="14" y="-496.5" font-family="Helvetica,sans-Serif" font-size="10.00">(ISplashScreenView iSplashScreen</text>
<text text-anchor="start" x="14" y="-484.5" font-family="Helvetica,sans-Serif" font-size="10.00">View)</text>
<polygon fill="#666666" stroke="#666666" points="0,-536 0,-536 172.5,-536 172.5,-536 0,-536"/>
<polygon fill="#666666" stroke="#666666" points="0,-520 0,-520 172.5,-520 172.5,-520 0,-520"/>
<polygon fill="none" stroke="#666666" points="0,-478 0,-566 172.5,-566 172.5,-478 0,-478"/>
</a>
</g>
</g>
<!-- Node2&#45;&gt;Node1 -->
<g id="edge1_Node000001_Node000002" class="edge">
<title>Node2&#45;&gt;Node1</title>
<g id="a_edge1_Node000001_Node000002"><a xlink:title=" ">
<path fill="none" stroke="#63b8ff" d="M102.2,-467.71C117.74,-421.43 144.57,-354.16 182.25,-304 233.1,-236.32 317.11,-186.03 378.33,-155.86"/>
<polygon fill="none" stroke="#63b8ff" points="98.95,-466.39 99.15,-476.98 105.6,-468.57 98.95,-466.39"/>
</a>
</g>
</g>
<!-- Node3 -->
<g id="Node000003" class="node">
<title>Node3</title>
<g id="a_Node000003"><a xlink:title=" ">
<polygon fill="white" stroke="none" points="217.62,-548 190.88,-548 190.88,-496 217.62,-496 217.62,-548"/>
<text text-anchor="start" x="194.88" y="-534.5" font-family="Helvetica,sans-Serif" font-size="10.00">Text</text>
<text text-anchor="start" x="202.75" y="-518.5" font-family="Helvetica,sans-Serif" font-size="10.00"> </text>
<text text-anchor="start" x="202.75" y="-502.5" font-family="Helvetica,sans-Serif" font-size="10.00"> </text>
<polygon fill="#666666" stroke="#666666" points="190.88,-530 190.88,-530 217.62,-530 217.62,-530 190.88,-530"/>
<polygon fill="#666666" stroke="#666666" points="190.88,-514 190.88,-514 217.62,-514 217.62,-514 190.88,-514"/>
<polygon fill="none" stroke="#666666" points="190.88,-496 190.88,-548 217.62,-548 217.62,-496 190.88,-496"/>
</a>
</g>
</g>
<!-- Node3&#45;&gt;Node1 -->
<g id="edge2_Node000001_Node000003" class="edge">
<title>Node3&#45;&gt;Node1</title>
<g id="a_edge2_Node000001_Node000003"><a xlink:title=" ">
<path fill="none" stroke="#63b8ff" d="M202.8,-496.01C201.26,-454.67 201.79,-370.05 226.25,-304 250.17,-239.4 313.26,-192.28 367.02,-162.34"/>
<polygon fill="none" stroke="#63b8ff" points="366.99,-162.35 370.36,-155.98 377.54,-156.64 374.17,-163.01 366.99,-162.35"/>
</a>
</g>
<text text-anchor="middle" x="261.71" y="-276.5" font-family="Helvetica,sans-Serif" font-size="10.00" fill="grey"> &#45;text1</text>
<text text-anchor="middle" x="261.71" y="-264.5" font-family="Helvetica,sans-Serif" font-size="10.00" fill="grey">&#45;text2</text>
</g>
<!-- Node4 -->
<g id="Node000004" class="node">
<title>Node4</title>
<g id="a_Node000004"><a xlink:title=" ">
<polygon fill="white" stroke="none" points="269,-548 235.5,-548 235.5,-496 269,-496 269,-548"/>
<text text-anchor="start" x="239.5" y="-534.5" font-family="Helvetica,sans-Serif" font-size="10.00">Stage</text>
<text text-anchor="start" x="250.75" y="-518.5" font-family="Helvetica,sans-Serif" font-size="10.00"> </text>
<text text-anchor="start" x="250.75" y="-502.5" font-family="Helvetica,sans-Serif" font-size="10.00"> </text>
<polygon fill="#666666" stroke="#666666" points="235.5,-530 235.5,-530 269,-530 269,-530 235.5,-530"/>
<polygon fill="#666666" stroke="#666666" points="235.5,-514 235.5,-514 269,-514 269,-514 235.5,-514"/>
<polygon fill="none" stroke="#666666" points="235.5,-496 235.5,-548 269,-548 269,-496 235.5,-496"/>
</a>
</g>
</g>
<!-- Node4&#45;&gt;Node1 -->
<g id="edge3_Node000001_Node000004" class="edge">
<title>Node4&#45;&gt;Node1</title>
<g id="a_edge3_Node000001_Node000004"><a xlink:title=" ">
<path fill="none" stroke="#63b8ff" d="M250.07,-496.16C247.47,-454.3 246.76,-368.03 277.25,-304 298.32,-259.75 334.62,-219.71 368.89,-188.6"/>
<polygon fill="none" stroke="#63b8ff" points="368.84,-188.64 370.67,-181.66 377.81,-180.67 375.98,-187.64 368.84,-188.64"/>
</a>
</g>
<text text-anchor="middle" x="333.59" y="-270.5" font-family="Helvetica,sans-Serif" font-size="10.00" fill="grey"> &#45;primaryStage</text>
</g>
<!-- Node5 -->
<g id="Node000005" class="node">
<title>Node5</title>
<g id="a_Node000005"><a xlink:href="classfr_1_1softsf_1_1sudofx2024_1_1viewmodel_1_1_full_menu_view_model.html" target="_top" xlink:title="FullMenuViewModel with business logic (not final)">
<polygon fill="white" stroke="none" points="451.75,-598 286.75,-598 286.75,-446 451.75,-446 451.75,-598"/>
<text text-anchor="start" x="299.5" y="-584.5" font-family="Helvetica,sans-Serif" font-size="10.00">fr.softsf.sudofx2024.viewmodel.</text>
<text text-anchor="start" x="325.38" y="-572.5" font-family="Helvetica,sans-Serif" font-size="10.00">FullMenuViewModel</text>
<text text-anchor="start" x="367.75" y="-556.5" font-family="Helvetica,sans-Serif" font-size="10.00"> </text>
<text text-anchor="start" x="290.75" y="-540.5" font-family="Helvetica,sans-Serif" font-size="10.00">+</text>
<text text-anchor="start" x="300.75" y="-540.5" font-family="Helvetica,sans-Serif" font-size="10.00">void test()</text>
<text text-anchor="start" x="290.75" y="-524.5" font-family="Helvetica,sans-Serif" font-size="10.00">+</text>
<text text-anchor="start" x="300.75" y="-524.5" font-family="Helvetica,sans-Serif" font-size="10.00">StringProperty welcomeProperty()</text>
<text text-anchor="start" x="292.25" y="-508.5" font-family="Helvetica,sans-Serif" font-size="10.00">&#45;</text>
<text text-anchor="start" x="300.75" y="-508.5" font-family="Helvetica,sans-Serif" font-size="10.00">void createSoftware()</text>
<text text-anchor="start" x="292.25" y="-492.5" font-family="Helvetica,sans-Serif" font-size="10.00">&#45;</text>
<text text-anchor="start" x="300.75" y="-492.5" font-family="Helvetica,sans-Serif" font-size="10.00">void setWelcome(String</text>
<text text-anchor="start" x="300.75" y="-480.5" font-family="Helvetica,sans-Serif" font-size="10.00"> output)</text>
<text text-anchor="start" x="292.25" y="-464.5" font-family="Helvetica,sans-Serif" font-size="10.00">&#45;</text>
<text text-anchor="start" x="300.75" y="-464.5" font-family="Helvetica,sans-Serif" font-size="10.00">void updateSoftware</text>
<text text-anchor="start" x="300.75" y="-452.5" font-family="Helvetica,sans-Serif" font-size="10.00">(SoftwareDto softwareToUpdate)</text>
<polygon fill="#666666" stroke="#666666" points="286.75,-568 286.75,-568 451.75,-568 451.75,-568 286.75,-568"/>
<polygon fill="#666666" stroke="#666666" points="286.75,-552 286.75,-552 451.75,-552 451.75,-552 286.75,-552"/>
<polygon fill="none" stroke="#666666" points="286.75,-446 286.75,-598 451.75,-598 451.75,-446 286.75,-446"/>
</a>
</g>
</g>
<!-- Node5&#45;&gt;Node1 -->
<g id="edge4_Node000001_Node000005" class="edge">
<title>Node5&#45;&gt;Node1</title>
<g id="a_edge4_Node000001_Node000005"><a xlink:title=" ">
<path fill="none" stroke="#63b8ff" d="M371.9,-446.06C375.08,-393.81 382.09,-322.84 397.5,-262 398,-260.01 398.53,-258.01 399.08,-256.01"/>
<polygon fill="none" stroke="#63b8ff" points="399.08,-256.01 396.92,-249.13 402.44,-244.49 404.6,-251.37 399.08,-256.01"/>
</a>
</g>
<text text-anchor="middle" x="444.38" y="-270.5" font-family="Helvetica,sans-Serif" font-size="10.00" fill="grey"> ~fullMenuViewModel</text>
</g>
<!-- Node6 -->
<g id="Node000006" class="node">
<title>Node6</title>
<g id="a_Node000006"><a xlink:href="classfr_1_1softsf_1_1sudofx2024_1_1service_1_1_software_service.html" target="_top" xlink:title=" ">
<polygon fill="white" stroke="none" points="311.25,-904 155.25,-904 155.25,-788 311.25,-788 311.25,-904"/>
<text text-anchor="start" x="171" y="-890.5" font-family="Helvetica,sans-Serif" font-size="10.00">fr.softsf.sudofx2024.service.</text>
<text text-anchor="start" x="197.25" y="-878.5" font-family="Helvetica,sans-Serif" font-size="10.00">SoftwareService</text>
<text text-anchor="start" x="231.75" y="-862.5" font-family="Helvetica,sans-Serif" font-size="10.00"> </text>
<text text-anchor="start" x="159.25" y="-846.5" font-family="Helvetica,sans-Serif" font-size="10.00">+</text>
<text text-anchor="start" x="169.25" y="-846.5" font-family="Helvetica,sans-Serif" font-size="10.00">Optional&lt; SoftwareDto</text>
<text text-anchor="start" x="169.25" y="-834.5" font-family="Helvetica,sans-Serif" font-size="10.00"> &gt; getSoftware()</text>
<text text-anchor="start" x="159.25" y="-818.5" font-family="Helvetica,sans-Serif" font-size="10.00">+</text>
<text text-anchor="start" x="169.25" y="-818.5" font-family="Helvetica,sans-Serif" font-size="10.00">Optional&lt; SoftwareDto</text>
<text text-anchor="start" x="169.25" y="-806.5" font-family="Helvetica,sans-Serif" font-size="10.00"> &gt; updateSoftware(SoftwareDto</text>
<text text-anchor="start" x="169.25" y="-794.5" font-family="Helvetica,sans-Serif" font-size="10.00"> softwareDto)</text>
<polygon fill="#666666" stroke="#666666" points="155.25,-874 155.25,-874 311.25,-874 311.25,-874 155.25,-874"/>
<polygon fill="#666666" stroke="#666666" points="155.25,-858 155.25,-858 311.25,-858 311.25,-858 155.25,-858"/>
<polygon fill="none" stroke="#666666" points="155.25,-788 155.25,-904 311.25,-904 311.25,-788 155.25,-788"/>
</a>
</g>
</g>
<!-- Node6&#45;&gt;Node5 -->
<g id="edge5_Node000005_Node000006" class="edge">
<title>Node6&#45;&gt;Node5</title>
<g id="a_edge5_Node000005_Node000006"><a xlink:title=" ">
<path fill="none" stroke="#63b8ff" d="M257.74,-788.09C264.41,-772.51 271.63,-755.61 278.25,-740 296.42,-697.13 316.45,-649.42 333.08,-609.67"/>
<polygon fill="none" stroke="#63b8ff" points="333.04,-609.78 331.66,-602.7 337.67,-598.71 339.05,-605.79 333.04,-609.78"/>
</a>
</g>
<text text-anchor="middle" x="309.44" y="-760.5" font-family="Helvetica,sans-Serif" font-size="10.00" fill="grey"> ~softwareService</text>
</g>
<!-- Node7 -->
<g id="Node000007" class="node">
<title>Node7</title>
<g id="a_Node000007"><a xlink:href="interfacefr_1_1softsf_1_1sudofx2024_1_1repository_1_1_software_repository.html" target="_top" xlink:title=" ">
<polygon fill="white" stroke="none" points="164.75,-1042 21.75,-1042 21.75,-966 164.75,-966 164.75,-1042"/>
<text text-anchor="start" x="25.75" y="-1028.5" font-family="Helvetica,sans-Serif" font-size="10.00">fr.softsf.sudofx2024.repository.</text>
<text text-anchor="start" x="50.12" y="-1016.5" font-family="Helvetica,sans-Serif" font-size="10.00">SoftwareRepository</text>
<text text-anchor="start" x="91.75" y="-1000.5" font-family="Helvetica,sans-Serif" font-size="10.00"> </text>
<text text-anchor="start" x="33.94" y="-984.5" font-family="Helvetica,sans-Serif" font-size="10.00">+</text>
<text text-anchor="start" x="52.12" y="-984.5" font-family="Helvetica,sans-Serif" font-size="10.00">Optional&lt; Software</text>
<text text-anchor="start" x="52.12" y="-972.5" font-family="Helvetica,sans-Serif" font-size="10.00"> &gt; findFirstSoftware()</text>
<polygon fill="#666666" stroke="#666666" points="21.75,-1012 21.75,-1012 164.75,-1012 164.75,-1012 21.75,-1012"/>
<polygon fill="#666666" stroke="#666666" points="21.75,-996 21.75,-996 164.75,-996 164.75,-996 21.75,-996"/>
<polygon fill="none" stroke="#666666" points="21.75,-966 21.75,-1042 164.75,-1042 164.75,-966 21.75,-966"/>
</a>
</g>
</g>
<!-- Node7&#45;&gt;Node6 -->
<g id="edge6_Node000006_Node000007" class="edge">
<title>Node7&#45;&gt;Node6</title>
<g id="a_edge6_Node000006_Node000007"><a xlink:title=" ">
<path fill="none" stroke="#63b8ff" d="M120.82,-966.35C131.86,-952.19 144.92,-936.04 157.5,-922 160.22,-918.97 163.03,-915.9 165.89,-912.83"/>
<polygon fill="none" stroke="#63b8ff" points="165.74,-912.99 166.97,-905.89 174,-904.29 172.77,-911.4 165.74,-912.99"/>
</a>
</g>
<text text-anchor="middle" x="202.88" y="-924.5" font-family="Helvetica,sans-Serif" font-size="10.00" fill="grey"> &#45;softwareRepository</text>
</g>
<!-- Node8 -->
<g id="Node000008" class="node">
<title>Node8</title>
<g id="a_Node000008"><a xlink:title=" ">
<polygon fill="white" stroke="none" points="154.25,-1157 32.25,-1157 32.25,-1093 154.25,-1093 154.25,-1157"/>
<text text-anchor="start" x="36.25" y="-1143.5" font-family="Helvetica,sans-Serif" font-size="10.00">JpaRepository&lt; Software,</text>
<text text-anchor="start" x="76.75" y="-1131.5" font-family="Helvetica,sans-Serif" font-size="10.00"> Long &gt;</text>
<text text-anchor="start" x="91.75" y="-1115.5" font-family="Helvetica,sans-Serif" font-size="10.00"> </text>
<text text-anchor="start" x="91.75" y="-1099.5" font-family="Helvetica,sans-Serif" font-size="10.00"> </text>
<polygon fill="#666666" stroke="#666666" points="32.25,-1127 32.25,-1127 154.25,-1127 154.25,-1127 32.25,-1127"/>
<polygon fill="#666666" stroke="#666666" points="32.25,-1111 32.25,-1111 154.25,-1111 154.25,-1111 32.25,-1111"/>
<polygon fill="none" stroke="#666666" points="32.25,-1093 32.25,-1157 154.25,-1157 154.25,-1093 32.25,-1093"/>
</a>
</g>
</g>
<!-- Node8&#45;&gt;Node7 -->
<g id="edge7_Node000007_Node000008" class="edge">
<title>Node8&#45;&gt;Node7</title>
<g id="a_edge7_Node000007_Node000008"><a xlink:title=" ">
<path fill="none" stroke="#63b8ff" d="M93.25,-1081.91C93.25,-1068.79 93.25,-1054.44 93.25,-1041.72"/>
<polygon fill="none" stroke="#63b8ff" points="89.75,-1081.53 93.25,-1091.53 96.75,-1081.53 89.75,-1081.53"/>
</a>
</g>
</g>
<!-- Node9 -->
<g id="Node000009" class="node">
<title>Node9</title>
<g id="a_Node000009"><a xlink:href="interfacefr_1_1softsf_1_1sudofx2024_1_1interfaces_1_1mapper_1_1_i_software_mapper.html" target="_top" xlink:title="This interface defines methods for mapping objects of type Software to objects of type SoftwareDto an...">
<polygon fill="white" stroke="none" points="361.75,-1056 182.75,-1056 182.75,-952 361.75,-952 361.75,-1056"/>
<text text-anchor="start" x="186.75" y="-1042.5" font-family="Helvetica,sans-Serif" font-size="10.00">fr.softsf.sudofx2024.interfaces.mapper.</text>
<text text-anchor="start" x="235.12" y="-1030.5" font-family="Helvetica,sans-Serif" font-size="10.00">ISoftwareMapper</text>
<text text-anchor="start" x="270.75" y="-1014.5" font-family="Helvetica,sans-Serif" font-size="10.00"> </text>
<text text-anchor="start" x="195.5" y="-998.5" font-family="Helvetica,sans-Serif" font-size="10.00">+</text>
<text text-anchor="start" x="214.25" y="-998.5" font-family="Helvetica,sans-Serif" font-size="10.00">Software mapSoftwareDtoTo</text>
<text text-anchor="start" x="214.25" y="-986.5" font-family="Helvetica,sans-Serif" font-size="10.00">Software(SoftwareDto dto)</text>
<text text-anchor="start" x="195.5" y="-970.5" font-family="Helvetica,sans-Serif" font-size="10.00">+</text>
<text text-anchor="start" x="214.25" y="-970.5" font-family="Helvetica,sans-Serif" font-size="10.00">SoftwareDto mapSoftwareTo</text>
<text text-anchor="start" x="214.25" y="-958.5" font-family="Helvetica,sans-Serif" font-size="10.00">Dto(Software software)</text>
<polygon fill="#666666" stroke="#666666" points="182.75,-1026 182.75,-1026 361.75,-1026 361.75,-1026 182.75,-1026"/>
<polygon fill="#666666" stroke="#666666" points="182.75,-1010 182.75,-1010 361.75,-1010 361.75,-1010 182.75,-1010"/>
<polygon fill="none" stroke="#666666" points="182.75,-952 182.75,-1056 361.75,-1056 361.75,-952 182.75,-952"/>
</a>
</g>
</g>
<!-- Node9&#45;&gt;Node6 -->
<g id="edge8_Node000006_Node000009" class="edge">
<title>Node9&#45;&gt;Node6</title>
<g id="a_edge8_Node000006_Node000009"><a xlink:title=" ">
<path fill="none" stroke="#63b8ff" d="M259.59,-952.35C256.72,-940.86 253.62,-928.47 250.59,-916.35"/>
<polygon fill="none" stroke="#63b8ff" points="250.6,-916.4 245.26,-911.55 247.69,-904.75 253.02,-909.61 250.6,-916.4"/>
</a>
</g>
<text text-anchor="middle" x="293.67" y="-924.5" font-family="Helvetica,sans-Serif" font-size="10.00" fill="grey"> &#45;iSoftwareMapper</text>
</g>
<!-- Node9&#45;&gt;Node9 -->
<g id="edge9_Node000009_Node000009" class="edge">
<title>Node9&#45;&gt;Node9</title>
<g id="a_edge9_Node000009_Node000009"><a xlink:title=" ">
<path fill="none" stroke="#63b8ff" d="M361.63,-1015.44C372.58,-1013.39 379.75,-1009.58 379.75,-1004 379.75,-1000.95 377.6,-998.43 373.87,-996.43"/>
<polygon fill="none" stroke="#63b8ff" points="373.93,-996.45 367,-998.46 362.49,-992.84 369.42,-990.83 373.93,-996.45"/>
</a>
</g>
<text text-anchor="middle" x="409.75" y="-1000.5" font-family="Helvetica,sans-Serif" font-size="10.00" fill="grey"> +INSTANCE</text>
</g>
<!-- Node10 -->
<g id="Node000010" class="node">
<title>Node10</title>
<g id="a_Node000010"><a xlink:title=" ">
<polygon fill="white" stroke="none" points="399.38,-872 329.12,-872 329.12,-820 399.38,-820 399.38,-872"/>
<text text-anchor="start" x="333.12" y="-858.5" font-family="Helvetica,sans-Serif" font-size="10.00">StringProperty</text>
<text text-anchor="start" x="362.75" y="-842.5" font-family="Helvetica,sans-Serif" font-size="10.00"> </text>
<text text-anchor="start" x="362.75" y="-826.5" font-family="Helvetica,sans-Serif" font-size="10.00"> </text>
<polygon fill="#666666" stroke="#666666" points="329.12,-854 329.12,-854 399.38,-854 399.38,-854 329.12,-854"/>
<polygon fill="#666666" stroke="#666666" points="329.12,-838 329.12,-838 399.38,-838 399.38,-838 329.12,-838"/>
<polygon fill="none" stroke="#666666" points="329.12,-820 329.12,-872 399.38,-872 399.38,-820 329.12,-820"/>
</a>
</g>
</g>
<!-- Node10&#45;&gt;Node5 -->
<g id="edge10_Node000005_Node000010" class="edge">
<title>Node10&#45;&gt;Node5</title>
<g id="a_edge10_Node000005_Node000010"><a xlink:title=" ">
<path fill="none" stroke="#63b8ff" d="M364.64,-820C365.33,-775.63 366.79,-681.13 367.89,-610.57"/>
<polygon fill="none" stroke="#63b8ff" points="367.89,-610.6 363.98,-604.53 368.08,-598.6 371.98,-604.66 367.89,-610.6"/>
</a>
</g>
<text text-anchor="middle" x="392.22" y="-760.5" font-family="Helvetica,sans-Serif" font-size="10.00" fill="grey"> ~_welcome</text>
</g>
<!-- Node11 -->
<g id="Node000011" class="node">
<title>Node11</title>
<g id="a_Node000011"><a xlink:href="classfr_1_1softsf_1_1sudofx2024_1_1service_1_1_fxml_service.html" target="_top" xlink:title="FxmlService is a Spring service that manages the loading of FXML files and updating the root of the J...">
<polygon fill="white" stroke="none" points="609,-582 469.5,-582 469.5,-462 609,-462 609,-582"/>
<text text-anchor="start" x="477" y="-568.5" font-family="Helvetica,sans-Serif" font-size="10.00">fr.softsf.sudofx2024.service.</text>
<text text-anchor="start" x="511.88" y="-556.5" font-family="Helvetica,sans-Serif" font-size="10.00">FxmlService</text>
<text text-anchor="start" x="537.75" y="-540.5" font-family="Helvetica,sans-Serif" font-size="10.00"> </text>
<text text-anchor="start" x="473.5" y="-524.5" font-family="Helvetica,sans-Serif" font-size="10.00">+</text>
<text text-anchor="start" x="483.5" y="-524.5" font-family="Helvetica,sans-Serif" font-size="10.00">FxmlService(FXMLLoader</text>
<text text-anchor="start" x="483.5" y="-512.5" font-family="Helvetica,sans-Serif" font-size="10.00"> fxmlLoader)</text>
<text text-anchor="start" x="473.5" y="-496.5" font-family="Helvetica,sans-Serif" font-size="10.00">+</text>
<text text-anchor="start" x="483.5" y="-496.5" font-family="Helvetica,sans-Serif" font-size="10.00">void setRootByFXMLName</text>
<text text-anchor="start" x="483.5" y="-484.5" font-family="Helvetica,sans-Serif" font-size="10.00">(final String fxml)</text>
<text text-anchor="start" x="473.5" y="-468.5" font-family="Helvetica,sans-Serif" font-size="10.00">~</text>
<text text-anchor="start" x="483.5" y="-468.5" font-family="Helvetica,sans-Serif" font-size="10.00">public&lt; T &gt; T getController()</text>
<polygon fill="#666666" stroke="#666666" points="469.5,-552 469.5,-552 609,-552 609,-552 469.5,-552"/>
<polygon fill="#666666" stroke="#666666" points="469.5,-536 469.5,-536 609,-536 609,-536 469.5,-536"/>
<polygon fill="none" stroke="#666666" points="469.5,-462 469.5,-582 609,-582 609,-462 469.5,-462"/>
</a>
</g>
</g>
<!-- Node11&#45;&gt;Node1 -->
<g id="edge11_Node000001_Node000011" class="edge">
<title>Node11&#45;&gt;Node1</title>
<g id="a_edge11_Node000001_Node000011"><a xlink:title=" ">
<path fill="none" stroke="#63b8ff" d="M529.66,-462.1C520.78,-409.44 506.64,-330.26 491.25,-262 490.83,-260.13 490.4,-258.26 489.97,-256.37"/>
<polygon fill="none" stroke="#63b8ff" points="489.96,-256.34 484.69,-251.42 487.2,-244.66 492.47,-249.58 489.96,-256.34"/>
</a>
</g>
<text text-anchor="middle" x="524.72" y="-270.5" font-family="Helvetica,sans-Serif" font-size="10.00" fill="grey"> &#45;fxmlService</text>
</g>
<!-- Node12 -->
<g id="Node000012" class="node">
<title>Node12</title>
<g id="a_Node000012"><a xlink:title=" ">
<polygon fill="white" stroke="none" points="501.12,-1030 465.38,-1030 465.38,-978 501.12,-978 501.12,-1030"/>
<text text-anchor="start" x="469.38" y="-1016.5" font-family="Helvetica,sans-Serif" font-size="10.00">Scene</text>
<text text-anchor="start" x="481.75" y="-1000.5" font-family="Helvetica,sans-Serif" font-size="10.00"> </text>
<text text-anchor="start" x="481.75" y="-984.5" font-family="Helvetica,sans-Serif" font-size="10.00"> </text>
<polygon fill="#666666" stroke="#666666" points="465.38,-1012 465.38,-1012 501.12,-1012 501.12,-1012 465.38,-1012"/>
<polygon fill="#666666" stroke="#666666" points="465.38,-996 465.38,-996 501.12,-996 501.12,-996 465.38,-996"/>
<polygon fill="none" stroke="#666666" points="465.38,-978 465.38,-1030 501.12,-1030 501.12,-978 465.38,-978"/>
</a>
</g>
</g>
<!-- Node12&#45;&gt;Node11 -->
<g id="edge12_Node000011_Node000012" class="edge">
<title>Node12&#45;&gt;Node11</title>
<g id="a_edge12_Node000011_Node000012"><a xlink:title=" ">
<path fill="none" stroke="#63b8ff" d="M470.35,-978.16C460.95,-958.6 449.03,-930.33 444,-904 434.33,-853.36 435.15,-838.79 444,-788 444.88,-782.95 485.52,-670.7 513.42,-593.93"/>
<polygon fill="none" stroke="#63b8ff" points="513.38,-594.06 511.67,-587.05 517.48,-582.78 519.18,-589.79 513.38,-594.06"/>
</a>
</g>
<text text-anchor="middle" x="460.12" y="-842.5" font-family="Helvetica,sans-Serif" font-size="10.00" fill="grey"> &#45;scene</text>
</g>
<!-- Node14 -->
<g id="Node000014" class="node">
<title>Node14</title>
<g id="a_Node000014"><a xlink:href="classfr_1_1softsf_1_1sudofx2024_1_1utils_1_1_dynamic_font_size.html" target="_top" xlink:title="Manages dynamic font sizing based on the dimensions of a JavaFX Scene.">
<polygon fill="white" stroke="none" points="604.75,-892 485.75,-892 485.75,-800 604.75,-800 604.75,-892"/>
<text text-anchor="start" x="489.75" y="-878.5" font-family="Helvetica,sans-Serif" font-size="10.00">fr.softsf.sudofx2024.utils.</text>
<text text-anchor="start" x="506.25" y="-866.5" font-family="Helvetica,sans-Serif" font-size="10.00">DynamicFontSize</text>
<text text-anchor="start" x="491.38" y="-850.5" font-family="Helvetica,sans-Serif" font-size="10.00">&#45;</text>
<text text-anchor="start" x="500" y="-850.5" font-family="Helvetica,sans-Serif" font-size="10.00">double currentFontSize</text>
<text text-anchor="start" x="489.88" y="-834.5" font-family="Helvetica,sans-Serif" font-size="10.00">+</text>
<text text-anchor="start" x="500" y="-834.5" font-family="Helvetica,sans-Serif" font-size="10.00">DynamicFontSize(final</text>
<text text-anchor="start" x="500" y="-822.5" font-family="Helvetica,sans-Serif" font-size="10.00"> Scene theScene)</text>
<text text-anchor="start" x="489.88" y="-806.5" font-family="Helvetica,sans-Serif" font-size="10.00">+</text>
<text text-anchor="start" x="500" y="-806.5" font-family="Helvetica,sans-Serif" font-size="10.00">void updateFontSize()</text>
<polygon fill="#666666" stroke="#666666" points="485.75,-862 485.75,-862 604.75,-862 604.75,-862 485.75,-862"/>
<polygon fill="#666666" stroke="#666666" points="485.75,-846 485.75,-846 498,-846 498,-846 485.75,-846"/>
<polygon fill="#666666" stroke="#666666" points="498,-846 498,-846 604.75,-846 604.75,-846 498,-846"/>
<polygon fill="none" stroke="#666666" points="485.75,-800 485.75,-892 604.75,-892 604.75,-800 485.75,-800"/>
</a>
</g>
</g>
<!-- Node12&#45;&gt;Node14 -->
<g id="edge15_Node000014_Node000012" class="edge">
<title>Node12&#45;&gt;Node14</title>
<g id="a_edge15_Node000014_Node000012"><a xlink:title=" ">
<path fill="none" stroke="#63b8ff" d="M493.07,-978.28C501.03,-958.26 512.56,-929.26 522.75,-903.6"/>
<polygon fill="none" stroke="#63b8ff" points="522.71,-903.7 521.21,-896.65 527.15,-892.55 528.65,-899.61 522.71,-903.7"/>
</a>
</g>
<text text-anchor="middle" x="530.38" y="-924.5" font-family="Helvetica,sans-Serif" font-size="10.00" fill="grey"> &#45;scene</text>
</g>
<!-- Node13 -->
<g id="Node000013" class="node">
<title>Node13</title>
<g id="a_Node000013"><a xlink:title=" ">
<polygon fill="white" stroke="none" points="686,-872 622.5,-872 622.5,-820 686,-820 686,-872"/>
<text text-anchor="start" x="626.5" y="-858.5" font-family="Helvetica,sans-Serif" font-size="10.00">FXMLLoader</text>
<text text-anchor="start" x="652.75" y="-842.5" font-family="Helvetica,sans-Serif" font-size="10.00"> </text>
<text text-anchor="start" x="652.75" y="-826.5" font-family="Helvetica,sans-Serif" font-size="10.00"> </text>
<polygon fill="#666666" stroke="#666666" points="622.5,-854 622.5,-854 686,-854 686,-854 622.5,-854"/>
<polygon fill="#666666" stroke="#666666" points="622.5,-838 622.5,-838 686,-838 686,-838 622.5,-838"/>
<polygon fill="none" stroke="#666666" points="622.5,-820 622.5,-872 686,-872 686,-820 622.5,-820"/>
</a>
</g>
</g>
<!-- Node13&#45;&gt;Node11 -->
<g id="edge13_Node000011_Node000013" class="edge">
<title>Node13&#45;&gt;Node11</title>
<g id="a_edge13_Node000011_Node000013"><a xlink:title=" ">
<path fill="none" stroke="#63b8ff" d="M648.96,-820.01C644.75,-802.27 638.1,-778.14 629.25,-758 625.48,-749.42 622.32,-748.45 618.25,-740 595.53,-692.82 575.43,-637.3 561.19,-594.23"/>
<polygon fill="none" stroke="#63b8ff" points="561.15,-594.12 555.49,-589.66 557.43,-582.71 563.09,-587.18 561.15,-594.12"/>
</a>
</g>
<text text-anchor="middle" x="660.88" y="-760.5" font-family="Helvetica,sans-Serif" font-size="10.00" fill="grey"> &#45;fxmlLoader</text>
</g>
<!-- Node14&#45;&gt;Node11 -->
<g id="edge14_Node000011_Node000014" class="edge">
<title>Node14&#45;&gt;Node11</title>
<g id="a_edge14_Node000011_Node000014"><a xlink:title=" ">
<path fill="none" stroke="#63b8ff" d="M544.42,-800.23C543.43,-747.07 541.76,-657.71 540.59,-594.85"/>
<polygon fill="none" stroke="#63b8ff" points="540.59,-594.75 536.48,-588.83 540.36,-582.76 544.47,-588.68 540.59,-594.75"/>
</a>
</g>
<text text-anchor="middle" x="584.68" y="-760.5" font-family="Helvetica,sans-Serif" font-size="10.00" fill="grey"> &#45;dynamicFontSize</text>
</g>
<!-- Node15 -->
<g id="Node000015" class="node">
<title>Node15</title>
<g id="a_Node000015"><a xlink:href="classfr_1_1softsf_1_1sudofx2024_1_1view_1_1components_1_1_toaster_v_box.html" target="_top" xlink:title="A custom VBox component for displaying toast notifications.">
<polygon fill="white" stroke="none" points="803.62,-740 626.88,-740 626.88,-304 803.62,-304 803.62,-740"/>
<text text-anchor="start" x="630.88" y="-726.5" font-family="Helvetica,sans-Serif" font-size="10.00">fr.softsf.sudofx2024.view.components.</text>
<text text-anchor="start" x="687.12" y="-714.5" font-family="Helvetica,sans-Serif" font-size="10.00">ToasterVBox</text>
<text text-anchor="start" x="713.75" y="-698.5" font-family="Helvetica,sans-Serif" font-size="10.00"> </text>
<text text-anchor="start" x="632.12" y="-682.5" font-family="Helvetica,sans-Serif" font-size="10.00">+</text>
<text text-anchor="start" x="643.38" y="-682.5" font-family="Helvetica,sans-Serif" font-size="10.00">ToasterVBox()</text>
<text text-anchor="start" x="632.12" y="-666.5" font-family="Helvetica,sans-Serif" font-size="10.00">+</text>
<text text-anchor="start" x="643.38" y="-666.5" font-family="Helvetica,sans-Serif" font-size="10.00">void addToast(final</text>
<text text-anchor="start" x="643.38" y="-654.5" font-family="Helvetica,sans-Serif" font-size="10.00"> String text, final</text>
<text text-anchor="start" x="643.38" y="-642.5" font-family="Helvetica,sans-Serif" font-size="10.00"> MyEnums.ToastLevels</text>
<text text-anchor="start" x="643.38" y="-630.5" font-family="Helvetica,sans-Serif" font-size="10.00"> toastLevel)</text>
<text text-anchor="start" x="632.12" y="-614.5" font-family="Helvetica,sans-Serif" font-size="10.00">+</text>
<text text-anchor="start" x="643.38" y="-614.5" font-family="Helvetica,sans-Serif" font-size="10.00">void addToastWithDuration</text>
<text text-anchor="start" x="643.38" y="-602.5" font-family="Helvetica,sans-Serif" font-size="10.00">(final String text, final</text>
<text text-anchor="start" x="643.38" y="-590.5" font-family="Helvetica,sans-Serif" font-size="10.00"> MyEnums.ToastLevels toastLevel,</text>
<text text-anchor="start" x="643.38" y="-578.5" font-family="Helvetica,sans-Serif" font-size="10.00"> final double duration)</text>
<text text-anchor="start" x="633.62" y="-562.5" font-family="Helvetica,sans-Serif" font-size="10.00">&#45;</text>
<text text-anchor="start" x="643.38" y="-562.5" font-family="Helvetica,sans-Serif" font-size="10.00">void copyToClipboard</text>
<text text-anchor="start" x="643.38" y="-550.5" font-family="Helvetica,sans-Serif" font-size="10.00">(final Button button)</text>
<text text-anchor="start" x="633.62" y="-534.5" font-family="Helvetica,sans-Serif" font-size="10.00">&#45;</text>
<text text-anchor="start" x="643.38" y="-534.5" font-family="Helvetica,sans-Serif" font-size="10.00">String getToastInfo</text>
<text text-anchor="start" x="643.38" y="-522.5" font-family="Helvetica,sans-Serif" font-size="10.00">(MyEnums.ToastLevels</text>
<text text-anchor="start" x="643.38" y="-510.5" font-family="Helvetica,sans-Serif" font-size="10.00"> toastLevel)</text>
<text text-anchor="start" x="633.62" y="-494.5" font-family="Helvetica,sans-Serif" font-size="10.00">&#45;</text>
<text text-anchor="start" x="643.38" y="-494.5" font-family="Helvetica,sans-Serif" font-size="10.00">void removeToast(final</text>
<text text-anchor="start" x="643.38" y="-482.5" font-family="Helvetica,sans-Serif" font-size="10.00"> Button button)</text>
<text text-anchor="start" x="633.62" y="-466.5" font-family="Helvetica,sans-Serif" font-size="10.00">&#45;</text>
<text text-anchor="start" x="643.38" y="-466.5" font-family="Helvetica,sans-Serif" font-size="10.00">void setAccessibility</text>
<text text-anchor="start" x="643.38" y="-454.5" font-family="Helvetica,sans-Serif" font-size="10.00">(final Button toast,</text>
<text text-anchor="start" x="643.38" y="-442.5" font-family="Helvetica,sans-Serif" font-size="10.00"> final MyEnums.ToastLevels</text>
<text text-anchor="start" x="643.38" y="-430.5" font-family="Helvetica,sans-Serif" font-size="10.00"> toastLevel, final String text)</text>
<text text-anchor="start" x="633.62" y="-414.5" font-family="Helvetica,sans-Serif" font-size="10.00">&#45;</text>
<text text-anchor="start" x="643.38" y="-414.5" font-family="Helvetica,sans-Serif" font-size="10.00">void setToastStyle</text>
<text text-anchor="start" x="643.38" y="-402.5" font-family="Helvetica,sans-Serif" font-size="10.00">(final Button toast,</text>
<text text-anchor="start" x="643.38" y="-390.5" font-family="Helvetica,sans-Serif" font-size="10.00"> final MyEnums.ToastLevels</text>
<text text-anchor="start" x="643.38" y="-378.5" font-family="Helvetica,sans-Serif" font-size="10.00"> toastLevel)</text>
<text text-anchor="start" x="633.62" y="-362.5" font-family="Helvetica,sans-Serif" font-size="10.00">&#45;</text>
<text text-anchor="start" x="643.38" y="-362.5" font-family="Helvetica,sans-Serif" font-size="10.00">void temporizeToast</text>
<text text-anchor="start" x="643.38" y="-350.5" font-family="Helvetica,sans-Serif" font-size="10.00">(final Button toast,</text>
<text text-anchor="start" x="643.38" y="-338.5" font-family="Helvetica,sans-Serif" font-size="10.00"> final double duration)</text>
<text text-anchor="start" x="633.62" y="-322.5" font-family="Helvetica,sans-Serif" font-size="10.00">&#45;</text>
<text text-anchor="start" x="643.38" y="-322.5" font-family="Helvetica,sans-Serif" font-size="10.00">void toastActions(final</text>
<text text-anchor="start" x="643.38" y="-310.5" font-family="Helvetica,sans-Serif" font-size="10.00"> ActionEvent event)</text>
<polygon fill="#666666" stroke="#666666" points="626.88,-710 626.88,-710 803.62,-710 803.62,-710 626.88,-710"/>
<polygon fill="#666666" stroke="#666666" points="626.88,-694 626.88,-694 803.62,-694 803.62,-694 626.88,-694"/>
<polygon fill="none" stroke="#666666" points="626.88,-304 626.88,-740 803.62,-740 803.62,-304 626.88,-304"/>
</a>
</g>
</g>
<!-- Node15&#45;&gt;Node1 -->
<g id="edge16_Node000001_Node000015" class="edge">
<title>Node15&#45;&gt;Node1</title>
<g id="a_edge16_Node000001_Node000015"><a xlink:title=" ">
<path fill="none" stroke="#63b8ff" d="M626.9,-317.77C624.07,-313.09 621.18,-308.49 618.25,-304 595.66,-269.39 566.51,-234.91 539.06,-205.46"/>
<polygon fill="none" stroke="#63b8ff" points="539.07,-205.47 532.04,-203.85 530.83,-196.74 537.86,-198.36 539.07,-205.47"/>
</a>
</g>
<text text-anchor="middle" x="621.22" y="-270.5" font-family="Helvetica,sans-Serif" font-size="10.00" fill="grey"> &#45;toaster</text>
</g>
<!-- Node16 -->
<g id="Node000016" class="node">
<title>Node16</title>
<g id="a_Node000016"><a xlink:title=" ">
<polygon fill="white" stroke="none" points="736.25,-872 704.25,-872 704.25,-820 736.25,-820 736.25,-872"/>
<text text-anchor="start" x="708.25" y="-858.5" font-family="Helvetica,sans-Serif" font-size="10.00">VBox</text>
<text text-anchor="start" x="718.75" y="-842.5" font-family="Helvetica,sans-Serif" font-size="10.00"> </text>
<text text-anchor="start" x="718.75" y="-826.5" font-family="Helvetica,sans-Serif" font-size="10.00"> </text>
<polygon fill="#666666" stroke="#666666" points="704.25,-854 704.25,-854 736.25,-854 736.25,-854 704.25,-854"/>
<polygon fill="#666666" stroke="#666666" points="704.25,-838 704.25,-838 736.25,-838 736.25,-838 704.25,-838"/>
<polygon fill="none" stroke="#666666" points="704.25,-820 704.25,-872 736.25,-872 736.25,-820 704.25,-820"/>
</a>
</g>
</g>
<!-- Node16&#45;&gt;Node15 -->
<g id="edge17_Node000015_Node000016" class="edge">
<title>Node16&#45;&gt;Node15</title>
<g id="a_edge17_Node000015_Node000016"><a xlink:title=" ">
<path fill="none" stroke="#63b8ff" d="M719.69,-808.72C719.4,-790.28 719.03,-766.2 718.62,-739.83"/>
<polygon fill="none" stroke="#63b8ff" points="716.18,-808.54 719.84,-818.49 723.18,-808.43 716.18,-808.54"/>
</a>
</g>
</g>
<!-- Node17 -->
<g id="Node000017" class="node">
<title>Node17</title>
<g id="a_Node000017"><a xlink:title=" ">
<polygon fill="white" stroke="none" points="852.88,-548 821.62,-548 821.62,-496 852.88,-496 852.88,-548"/>
<text text-anchor="start" x="825.62" y="-534.5" font-family="Helvetica,sans-Serif" font-size="10.00">Label</text>
<text text-anchor="start" x="835.75" y="-518.5" font-family="Helvetica,sans-Serif" font-size="10.00"> </text>
<text text-anchor="start" x="835.75" y="-502.5" font-family="Helvetica,sans-Serif" font-size="10.00"> </text>
<polygon fill="#666666" stroke="#666666" points="821.62,-530 821.62,-530 852.88,-530 852.88,-530 821.62,-530"/>
<polygon fill="#666666" stroke="#666666" points="821.62,-514 821.62,-514 852.88,-514 852.88,-514 821.62,-514"/>
<polygon fill="none" stroke="#666666" points="821.62,-496 821.62,-548 852.88,-548 852.88,-496 821.62,-496"/>
</a>
</g>
</g>
<!-- Node17&#45;&gt;Node1 -->
<g id="edge18_Node000001_Node000017" class="edge">
<title>Node17&#45;&gt;Node1</title>
<g id="a_edge18_Node000001_Node000017"><a xlink:title=" ">
<path fill="none" stroke="#63b8ff" d="M841.43,-496.27C847.33,-453.06 853.23,-362.8 812.25,-304 749.02,-213.28 626.52,-165.47 542.59,-142.24"/>
<polygon fill="none" stroke="#63b8ff" points="542.69,-142.27 535.86,-144.57 531.11,-139.15 537.94,-136.85 542.69,-142.27"/>
</a>
</g>
<text text-anchor="middle" x="824.2" y="-270.5" font-family="Helvetica,sans-Serif" font-size="10.00" fill="grey"> &#45;welcomeText</text>
</g>
<!-- Node18 -->
<g id="Node000018" class="node">
<title>Node18</title>
<g id="a_Node000018"><a xlink:title=" ">
<polygon fill="white" stroke="none" points="924.5,-548 888,-548 888,-496 924.5,-496 924.5,-548"/>
<text text-anchor="start" x="892" y="-534.5" font-family="Helvetica,sans-Serif" font-size="10.00">Button</text>
<text text-anchor="start" x="904.75" y="-518.5" font-family="Helvetica,sans-Serif" font-size="10.00"> </text>
<text text-anchor="start" x="904.75" y="-502.5" font-family="Helvetica,sans-Serif" font-size="10.00"> </text>
<polygon fill="#666666" stroke="#666666" points="888,-530 888,-530 924.5,-530 924.5,-530 888,-530"/>
<polygon fill="#666666" stroke="#666666" points="888,-514 888,-514 924.5,-514 924.5,-514 888,-514"/>
<polygon fill="none" stroke="#666666" points="888,-496 888,-548 924.5,-548 924.5,-496 888,-496"/>
</a>
</g>
</g>
<!-- Node18&#45;&gt;Node1 -->
<g id="edge19_Node000001_Node000018" class="edge">
<title>Node18&#45;&gt;Node1</title>
<g id="a_edge19_Node000001_Node000018"><a xlink:title=" ">
<path fill="none" stroke="#63b8ff" d="M909.45,-496.19C914.51,-445.69 918.48,-329.98 860.25,-262 780.74,-169.19 636.43,-138.25 543.01,-127.99"/>
<polygon fill="none" stroke="#63b8ff" points="543.01,-127.99 536.63,-131.36 531.07,-126.77 537.45,-123.4 543.01,-127.99"/>
</a>
</g>
<text text-anchor="middle" x="904.29" y="-270.5" font-family="Helvetica,sans-Serif" font-size="10.00" fill="grey"> &#45;buttonHello</text>
</g>
</g>
</svg>
