<?xml version="1.0" encoding="UTF-8" standalone="no"?>
<!DOCTYPE svg PUBLIC "-//W3C//DTD SVG 1.1//EN"
 "http://www.w3.org/Graphics/SVG/1.1/DTD/svg11.dtd">
<!-- Generated by graphviz version 12.2.0 (20241103.1931)
 -->
<!-- Title: fr.softsf.sudofx2024.service.SoftwareService Pages: 1 -->
<svg width="426pt" height="377pt"
 viewBox="0.00 0.00 426.00 377.00" xmlns="http://www.w3.org/2000/svg" xmlns:xlink="http://www.w3.org/1999/xlink">

<svg id="main" version="1.1" xmlns="http://www.w3.org/2000/svg" xmlns:xlink="http://www.w3.org/1999/xlink" xml:space="preserve">

<style type="text/css"><![CDATA[
.node, .edge {opacity: 0.7;}
.node.selected, .edge.selected {opacity: 1;}
.edge:hover path { stroke: red; }
.edge:hover polygon { stroke: red; fill: red; }
]]></style>
<script type="application/ecmascript" xlink:href="svg.min.js"/>
<svg id="graph" class="graph">
<g id="graph0" class="graph" transform="scale(1 1) rotate(0) translate(4 373)">
<title>fr.softsf.sudofx2024.service.SoftwareService</title>
<!-- Node1 -->
<g id="Node000001" class="node">
<title>Node1</title>
<g id="a_Node000001"><a xlink:title=" ">
<polygon fill="#999999" stroke="none" points="238.5,-116 82.5,-116 82.5,0 238.5,0 238.5,-116"/>
<text text-anchor="start" x="98.25" y="-102.5" font-family="Helvetica,sans-Serif" font-size="10.00">fr.softsf.sudofx2024.service.</text>
<text text-anchor="start" x="124.5" y="-90.5" font-family="Helvetica,sans-Serif" font-size="10.00">SoftwareService</text>
<text text-anchor="start" x="159" y="-74.5" font-family="Helvetica,sans-Serif" font-size="10.00"> </text>
<text text-anchor="start" x="86.5" y="-58.5" font-family="Helvetica,sans-Serif" font-size="10.00">+</text>
<text text-anchor="start" x="96.5" y="-58.5" font-family="Helvetica,sans-Serif" font-size="10.00">Optional&lt; SoftwareDto</text>
<text text-anchor="start" x="96.5" y="-46.5" font-family="Helvetica,sans-Serif" font-size="10.00"> &gt; getSoftware()</text>
<text text-anchor="start" x="86.5" y="-30.5" font-family="Helvetica,sans-Serif" font-size="10.00">+</text>
<text text-anchor="start" x="96.5" y="-30.5" font-family="Helvetica,sans-Serif" font-size="10.00">Optional&lt; SoftwareDto</text>
<text text-anchor="start" x="96.5" y="-18.5" font-family="Helvetica,sans-Serif" font-size="10.00"> &gt; updateSoftware(SoftwareDto</text>
<text text-anchor="start" x="96.5" y="-6.5" font-family="Helvetica,sans-Serif" font-size="10.00"> softwareDto)</text>
<polygon fill="#666666" stroke="#666666" points="82.5,-86 82.5,-86 238.5,-86 238.5,-86 82.5,-86"/>
<polygon fill="#666666" stroke="#666666" points="82.5,-70 82.5,-70 238.5,-70 238.5,-70 82.5,-70"/>
<polygon fill="none" stroke="#666666" points="82.5,0 82.5,-116 238.5,-116 238.5,0 82.5,0"/>
</a>
</g>
</g>
<!-- Node2 -->
<g id="Node000002" class="node">
<title>Node2</title>
<g id="a_Node000002"><a xlink:href="interfacefr_1_1softsf_1_1sudofx2024_1_1repository_1_1_software_repository.html" target="_top" xlink:title=" ">
<polygon fill="white" stroke="none" points="143,-254 0,-254 0,-178 143,-178 143,-254"/>
<text text-anchor="start" x="4" y="-240.5" font-family="Helvetica,sans-Serif" font-size="10.00">fr.softsf.sudofx2024.repository.</text>
<text text-anchor="start" x="28.38" y="-228.5" font-family="Helvetica,sans-Serif" font-size="10.00">SoftwareRepository</text>
<text text-anchor="start" x="70" y="-212.5" font-family="Helvetica,sans-Serif" font-size="10.00"> </text>
<text text-anchor="start" x="12.19" y="-196.5" font-family="Helvetica,sans-Serif" font-size="10.00">+</text>
<text text-anchor="start" x="30.38" y="-196.5" font-family="Helvetica,sans-Serif" font-size="10.00">Optional&lt; Software</text>
<text text-anchor="start" x="30.38" y="-184.5" font-family="Helvetica,sans-Serif" font-size="10.00"> &gt; findFirstSoftware()</text>
<polygon fill="#666666" stroke="#666666" points="0,-224 0,-224 143,-224 143,-224 0,-224"/>
<polygon fill="#666666" stroke="#666666" points="0,-208 0,-208 143,-208 143,-208 0,-208"/>
<polygon fill="none" stroke="#666666" points="0,-178 0,-254 143,-254 143,-178 0,-178"/>
</a>
</g>
</g>
<!-- Node2&#45;&gt;Node1 -->
<g id="edge1_Node000001_Node000002" class="edge">
<title>Node2&#45;&gt;Node1</title>
<g id="a_edge1_Node000001_Node000002"><a xlink:title=" ">
<path fill="none" stroke="#63b8ff" d="M92.59,-178.03C101.36,-162.66 111.83,-144.32 121.88,-126.69"/>
<polygon fill="none" stroke="#63b8ff" points="121.68,-127.05 121.18,-119.85 127.63,-116.62 128.13,-123.82 121.68,-127.05"/>
</a>
</g>
<text text-anchor="middle" x="161.38" y="-136.5" font-family="Helvetica,sans-Serif" font-size="10.00" fill="grey"> &#45;softwareRepository</text>
</g>
<!-- Node3 -->
<g id="Node000003" class="node">
<title>Node3</title>
<g id="a_Node000003"><a xlink:title=" ">
<polygon fill="white" stroke="none" points="132.5,-369 10.5,-369 10.5,-305 132.5,-305 132.5,-369"/>
<text text-anchor="start" x="14.5" y="-355.5" font-family="Helvetica,sans-Serif" font-size="10.00">JpaRepository&lt; Software,</text>
<text text-anchor="start" x="55" y="-343.5" font-family="Helvetica,sans-Serif" font-size="10.00"> Long &gt;</text>
<text text-anchor="start" x="70" y="-327.5" font-family="Helvetica,sans-Serif" font-size="10.00"> </text>
<text text-anchor="start" x="70" y="-311.5" font-family="Helvetica,sans-Serif" font-size="10.00"> </text>
<polygon fill="#666666" stroke="#666666" points="10.5,-339 10.5,-339 132.5,-339 132.5,-339 10.5,-339"/>
<polygon fill="#666666" stroke="#666666" points="10.5,-323 10.5,-323 132.5,-323 132.5,-323 10.5,-323"/>
<polygon fill="none" stroke="#666666" points="10.5,-305 10.5,-369 132.5,-369 132.5,-305 10.5,-305"/>
</a>
</g>
</g>
<!-- Node3&#45;&gt;Node2 -->
<g id="edge2_Node000002_Node000003" class="edge">
<title>Node3&#45;&gt;Node2</title>
<g id="a_edge2_Node000002_Node000003"><a xlink:title=" ">
<path fill="none" stroke="#63b8ff" d="M71.5,-293.91C71.5,-280.79 71.5,-266.44 71.5,-253.72"/>
<polygon fill="none" stroke="#63b8ff" points="68,-293.53 71.5,-303.53 75,-293.53 68,-293.53"/>
</a>
</g>
</g>
<!-- Node4 -->
<g id="Node000004" class="node">
<title>Node4</title>
<g id="a_Node000004"><a xlink:href="interfacefr_1_1softsf_1_1sudofx2024_1_1interfaces_1_1mapper_1_1_i_software_mapper.html" target="_top" xlink:title="This interface defines methods for mapping objects of type Software to objects of type SoftwareDto an...">
<polygon fill="white" stroke="none" points="340,-268 161,-268 161,-164 340,-164 340,-268"/>
<text text-anchor="start" x="165" y="-254.5" font-family="Helvetica,sans-Serif" font-size="10.00">fr.softsf.sudofx2024.interfaces.mapper.</text>
<text text-anchor="start" x="213.38" y="-242.5" font-family="Helvetica,sans-Serif" font-size="10.00">ISoftwareMapper</text>
<text text-anchor="start" x="249" y="-226.5" font-family="Helvetica,sans-Serif" font-size="10.00"> </text>
<text text-anchor="start" x="173.75" y="-210.5" font-family="Helvetica,sans-Serif" font-size="10.00">+</text>
<text text-anchor="start" x="192.5" y="-210.5" font-family="Helvetica,sans-Serif" font-size="10.00">Software mapSoftwareDtoTo</text>
<text text-anchor="start" x="192.5" y="-198.5" font-family="Helvetica,sans-Serif" font-size="10.00">Software(SoftwareDto dto)</text>
<text text-anchor="start" x="173.75" y="-182.5" font-family="Helvetica,sans-Serif" font-size="10.00">+</text>
<text text-anchor="start" x="192.5" y="-182.5" font-family="Helvetica,sans-Serif" font-size="10.00">SoftwareDto mapSoftwareTo</text>
<text text-anchor="start" x="192.5" y="-170.5" font-family="Helvetica,sans-Serif" font-size="10.00">Dto(Software software)</text>
<polygon fill="#666666" stroke="#666666" points="161,-238 161,-238 340,-238 340,-238 161,-238"/>
<polygon fill="#666666" stroke="#666666" points="161,-222 161,-222 340,-222 340,-222 161,-222"/>
<polygon fill="none" stroke="#666666" points="161,-164 161,-268 340,-268 340,-164 161,-164"/>
</a>
</g>
</g>
<!-- Node4&#45;&gt;Node1 -->
<g id="edge3_Node000001_Node000004" class="edge">
<title>Node4&#45;&gt;Node1</title>
<g id="a_edge3_Node000001_Node000004"><a xlink:title=" ">
<path fill="none" stroke="#63b8ff" d="M226.74,-164.35C221.62,-154.17 216.07,-143.64 210.5,-134 209.16,-131.67 207.77,-129.32 206.34,-126.95"/>
<polygon fill="none" stroke="#63b8ff" points="206.27,-126.83 199.71,-123.82 199.97,-116.61 206.52,-119.62 206.27,-126.83"/>
</a>
</g>
<text text-anchor="middle" x="256.25" y="-136.5" font-family="Helvetica,sans-Serif" font-size="10.00" fill="grey"> &#45;iSoftwareMapper</text>
</g>
<!-- Node4&#45;&gt;Node4 -->
<g id="edge4_Node000004_Node000004" class="edge">
<title>Node4&#45;&gt;Node4</title>
<g id="a_edge4_Node000004_Node000004"><a xlink:title=" ">
<path fill="none" stroke="#63b8ff" d="M339.88,-227.44C350.83,-225.39 358,-221.58 358,-216 358,-212.95 355.85,-210.43 352.12,-208.43"/>
<polygon fill="none" stroke="#63b8ff" points="352.18,-208.45 345.25,-210.46 340.74,-204.84 347.67,-202.83 352.18,-208.45"/>
</a>
</g>
<text text-anchor="middle" x="388" y="-212.5" font-family="Helvetica,sans-Serif" font-size="10.00" fill="grey"> +INSTANCE</text>
</g>
</g>
</svg>
</svg>

<style type='text/css'>
<![CDATA[
[data-mouse-over-selected='false'] { opacity: 0.7; }
[data-mouse-over-selected='true']  { opacity: 1.0; }
]]>
</style>
<script type="application/ecmascript"><![CDATA[
document.addEventListener('DOMContentLoaded', (event) => {
  highlightEdges();
  highlightAdjacentNodes();
});
]]></script>
</svg>
