<?xml version="1.0" encoding="UTF-8" standalone="no"?>
<!DOCTYPE svg PUBLIC "-//W3C//DTD SVG 1.1//EN"
 "http://www.w3.org/Graphics/SVG/1.1/DTD/svg11.dtd">
<!-- Generated by graphviz version 12.2.0 (20241103.1931)
 -->
<!-- Title: fr.softsf.sudokufx.viewmodel.FullMenuViewModel.updateSoftware Pages: 1 -->
<!--zoomable 140 -->

<svg id="main" version="1.1" xmlns="http://www.w3.org/2000/svg" xmlns:xlink="http://www.w3.org/1999/xlink" xml:space="preserve" onload="init(evt)">

<style type="text/css"><![CDATA[
.node, .edge {opacity: 0.7;}
.node.selected, .edge.selected {opacity: 1;}
.edge:hover path { stroke: red; }
.edge:hover polygon { stroke: red; fill: red; }
]]></style>

<defs>
  <circle id="rim" cx="0" cy="0" r="7"/>
  <circle id="rim2" cx="0" cy="0" r="3.5"/>
  <g id="zoomPlus">
    <use xlink:href="#rim" fill="#404040"><set attributeName="fill" to="#808080" begin="zoomplus.mouseover" end="zoomplus.mouseout"/></use>
    <path d="M-4,0h8M0,-4v8" fill="none" stroke="white" stroke-width="1.5" pointer-events="none"/>
  </g>
  <g id="zoomMin">
    <use xlink:href="#rim" fill="#404040"><set attributeName="fill" to="#808080" begin="zoomminus.mouseover" end="zoomminus.mouseout"/></use>
    <path d="M-4,0h8" fill="none" stroke="white" stroke-width="1.5" pointer-events="none"/>
  </g>
  <g id="arrowUp" transform="translate(30 24)">
    <use xlink:href="#rim"/>
    <path pointer-events="none" fill="none" stroke="white" stroke-width="1.5" d="M0,-3.0v7 M-2.5,-0.5L0,-3.0L2.5,-0.5"/>
  </g>
  <g id="arrowRight" transform="rotate(90) translate(36 -43)">
    <use xlink:href="#rim"/>
    <path pointer-events="none" fill="none" stroke="white" stroke-width="1.5" d="M0,-3.0v7 M-2.5,-0.5L0,-3.0L2.5,-0.5"/>
  </g>
  <g id="arrowDown" transform="rotate(180) translate(-30 -48)">
    <use xlink:href="#rim"/>
    <path pointer-events="none" fill="none" stroke="white" stroke-width="1.5" d="M0,-3.0v7 M-2.5,-0.5L0,-3.0L2.5,-0.5"/>
  </g>
  <g id="arrowLeft" transform="rotate(270) translate(-36 17)">
    <use xlink:href="#rim"/>
    <path pointer-events="none" fill="none" stroke="white" stroke-width="1.5" d="M0,-3.0v7 M-2.5,-0.5L0,-3.0L2.5,-0.5"/>
  </g>
  <g id="resetDef">
    <use xlink:href="#rim2" fill="#404040"><set attributeName="fill" to="#808080" begin="reset.mouseover" end="reset.mouseout"/></use>
  </g>
</defs>
<script type="application/ecmascript">
var viewWidth = 632;
var viewHeight = 140;
var sectionId = 'dynsection-4';
</script>
<script type="application/ecmascript" xlink:href="svg.min.js"/>
<svg id="graph" class="graph">
<g id="viewport">
<title>fr.softsf.sudokufx.viewmodel.FullMenuViewModel.updateSoftware</title>
<!-- Node1 -->
<g id="Node000001" class="node">
<title>Node1</title>
<g id="a_Node000001"><a xlink:title=" ">
<polygon fill="#999999" stroke="#666666" points="175,-107 0,-107 0,-75 175,-75 175,-107"/>
<text text-anchor="start" x="8" y="-93.5" font-family="Helvetica,sans-Serif" font-size="10.00">fr.softsf.sudokufx.viewmodel.</text>
<text text-anchor="middle" x="87.5" y="-81.5" font-family="Helvetica,sans-Serif" font-size="10.00">FullMenuViewModel.updateSoftware</text>
</a>
</g>
</g>
<!-- Node2 -->
<g id="Node000002" class="node">
<title>Node2</title>
<g id="a_Node000002"><a xlink:href="classfr_1_1softsf_1_1sudokufx_1_1viewmodel_1_1_full_menu_view_model.html#a99e8ff186f421e303199bb273f082c40" target="_top" xlink:title=" ">
<polygon fill="white" stroke="#666666" points="371.75,-132 211,-132 211,-100 371.75,-100 371.75,-132"/>
<text text-anchor="start" x="219" y="-118.5" font-family="Helvetica,sans-Serif" font-size="10.00">fr.softsf.sudokufx.viewmodel.</text>
<text text-anchor="middle" x="291.38" y="-106.5" font-family="Helvetica,sans-Serif" font-size="10.00">FullMenuViewModel.setWelcome</text>
</a>
</g>
</g>
<!-- Node1&#45;&gt;Node2 -->
<g id="edge1_Node000001_Node000002" class="edge">
<title>Node1&#45;&gt;Node2</title>
<g id="a_edge1_Node000001_Node000002"><a xlink:title=" ">
<path fill="none" stroke="#63b8ff" d="M175.28,-101.75C183.27,-102.74 191.39,-103.74 199.41,-104.74"/>
<polygon fill="#63b8ff" stroke="#63b8ff" points="198.82,-108.19 209.18,-105.94 199.68,-101.24 198.82,-108.19"/>
</a>
</g>
</g>
<!-- Node4 -->
<g id="Node000004" class="node">
<title>Node4</title>
<g id="a_Node000004"><a xlink:href="classfr_1_1softsf_1_1sudokufx_1_1service_1_1_software_service.html#a74d93b9d4144d91d01a4b02369265f0f" target="_top" xlink:title=" ">
<polygon fill="white" stroke="#666666" points="371,-82 211.75,-82 211.75,-50 371,-50 371,-82"/>
<text text-anchor="start" x="219.75" y="-68.5" font-family="Helvetica,sans-Serif" font-size="10.00">fr.softsf.sudokufx.service.</text>
<text text-anchor="middle" x="291.38" y="-56.5" font-family="Helvetica,sans-Serif" font-size="10.00">SoftwareService.updateSoftware</text>
</a>
</g>
</g>
<!-- Node1&#45;&gt;Node4 -->
<g id="edge3_Node000001_Node000004" class="edge">
<title>Node1&#45;&gt;Node4</title>
<g id="a_edge3_Node000001_Node000004"><a xlink:title=" ">
<path fill="none" stroke="#63b8ff" d="M175.28,-80.25C183.51,-79.23 191.87,-78.2 200.13,-77.18"/>
<polygon fill="#63b8ff" stroke="#63b8ff" points="200.32,-80.68 209.81,-75.98 199.46,-73.73 200.32,-80.68"/>
</a>
</g>
</g>
<!-- Node3 -->
<g id="Node000003" class="node">
<title>Node3</title>
<g id="a_Node000003"><a xlink:href="classfr_1_1softsf_1_1sudokufx_1_1viewmodel_1_1_full_menu_view_model.html#a574eda9c01df428c38524cc5acf49fbf" target="_top" xlink:title=" ">
<polygon fill="white" stroke="#666666" points="607.12,-132 424.62,-132 424.62,-100 607.12,-100 607.12,-132"/>
<text text-anchor="start" x="432.62" y="-118.5" font-family="Helvetica,sans-Serif" font-size="10.00">fr.softsf.sudokufx.viewmodel.</text>
<text text-anchor="middle" x="515.88" y="-106.5" font-family="Helvetica,sans-Serif" font-size="10.00">FullMenuViewModel.welcomeProperty</text>
</a>
</g>
</g>
<!-- Node2&#45;&gt;Node3 -->
<g id="edge2_Node000002_Node000003" class="edge">
<title>Node2&#45;&gt;Node3</title>
<g id="a_edge2_Node000002_Node000003"><a xlink:title=" ">
<path fill="none" stroke="#63b8ff" d="M372.07,-116C385.32,-116 399.22,-116 412.93,-116"/>
<polygon fill="#63b8ff" stroke="#63b8ff" points="412.87,-119.5 422.87,-116 412.87,-112.5 412.87,-119.5"/>
</a>
</g>
</g>
<!-- Node5 -->
<g id="Node000005" class="node">
<title>Node5</title>
<g id="a_Node000005"><a xlink:href="interfacefr_1_1softsf_1_1sudokufx_1_1interfaces_1_1mapper_1_1_i_software_mapper.html#a85adc191251bde9870609d4b2cb23ee6" target="_top" xlink:title="Maps a SoftwareDto object to a Software object.">
<polygon fill="white" stroke="#666666" points="624,-82 407.75,-82 407.75,-50 624,-50 624,-82"/>
<text text-anchor="start" x="415.75" y="-68.5" font-family="Helvetica,sans-Serif" font-size="10.00">fr.softsf.sudokufx.interfaces.mapper.</text>
<text text-anchor="middle" x="515.88" y="-56.5" font-family="Helvetica,sans-Serif" font-size="10.00">ISoftwareMapper.mapSoftwareDtoToSoftware</text>
</a>
</g>
</g>
<!-- Node4&#45;&gt;Node5 -->
<g id="edge4_Node000004_Node000005" class="edge">
<title>Node4&#45;&gt;Node5</title>
<g id="a_edge4_Node000004_Node000005"><a xlink:title=" ">
<path fill="none" stroke="#63b8ff" d="M371.45,-66C379.43,-66 387.66,-66 395.95,-66"/>
<polygon fill="#63b8ff" stroke="#63b8ff" points="395.75,-69.5 405.75,-66 395.75,-62.5 395.75,-69.5"/>
</a>
</g>
</g>
<!-- Node6 -->
<g id="Node000006" class="node">
<title>Node6</title>
<g id="a_Node000006"><a xlink:href="interfacefr_1_1softsf_1_1sudokufx_1_1interfaces_1_1mapper_1_1_i_software_mapper.html#addc8516cb5cc6171c663e132d5fdddd6" target="_top" xlink:title="Maps a Software object to a SoftwareDto object.">
<polygon fill="white" stroke="#666666" points="604.5,-32 427.25,-32 427.25,0 604.5,0 604.5,-32"/>
<text text-anchor="start" x="435.25" y="-18.5" font-family="Helvetica,sans-Serif" font-size="10.00">fr.softsf.sudokufx.interfaces.mapper.</text>
<text text-anchor="middle" x="515.88" y="-6.5" font-family="Helvetica,sans-Serif" font-size="10.00">ISoftwareMapper.mapSoftwareToDto</text>
</a>
</g>
</g>
<!-- Node4&#45;&gt;Node6 -->
<g id="edge5_Node000004_Node000006" class="edge">
<title>Node4&#45;&gt;Node6</title>
<g id="a_edge5_Node000004_Node000006"><a xlink:title=" ">
<path fill="none" stroke="#63b8ff" d="M365.54,-49.56C386.35,-44.88 409.2,-39.75 430.61,-34.93"/>
<polygon fill="#63b8ff" stroke="#63b8ff" points="431.2,-38.39 440.19,-32.78 429.67,-31.56 431.2,-38.39"/>
</a>
</g>
</g>
</g>
</svg>

<g id="navigator" transform="translate(0 0)" fill="#404254">
  <rect fill="#f2f5e9" fill-opacity="0.5" stroke="#606060" stroke-width=".5" x="0" y="0" width="60" height="60"/>
  <use id="zoomplus" xlink:href="#zoomPlus" x="17" y="9" onmousedown="handleZoom(evt,'in')"/>
  <use id="zoomminus" xlink:href="#zoomMin" x="42" y="9" onmousedown="handleZoom(evt,'out')"/>
  <use id="reset" xlink:href="#resetDef" x="30" y="36" onmousedown="handleReset()"/>
   <use id="arrowup" xlink:href="#arrowUp" x="0" y="0" onmousedown="handlePan(0,-1)"/>
  <use id="arrowright" xlink:href="#arrowRight" x="0" y="0" onmousedown="handlePan(1,0)"/>
  <use id="arrowdown" xlink:href="#arrowDown" x="0" y="0" onmousedown="handlePan(0,1)"/>
  <use id="arrowleft" xlink:href="#arrowLeft" x="0" y="0" onmousedown="handlePan(-1,0)"/>
</g>
<svg viewBox="0 0 15 15" width="100%" height="30px" preserveAspectRatio="xMaxYMin meet">
 <g id="arrow_out" transform="scale(0.3 0.3)">
  <a xlink:href="classfr_1_1softsf_1_1sudokufx_1_1viewmodel_1_1_full_menu_view_model_abeb58caaac8ee5464bb0f851c94992f4_cgraph_org.svg" target="_base">
   <rect id="button" ry="5" rx="5" y="6" x="6" height="38" width="38"
        fill="#f2f5e9" fill-opacity="0.5" stroke="#606060" stroke-width="1.0"/>
   <path id="arrow"
     d="M 11.500037,31.436501 C 11.940474,20.09759 22.043105,11.32322 32.158766,21.979434 L 37.068811,17.246167 C 37.068811,17.246167 37.088388,32 37.088388,32 L 22.160133,31.978069 C 22.160133,31.978069 26.997745,27.140456 26.997745,27.140456 C 18.528582,18.264221 13.291696,25.230495 11.500037,31.436501 z"
     style="fill:#404040;"/>
  </a>
 </g>
</svg>

<style type='text/css'>
<![CDATA[
[data-mouse-over-selected='false'] { opacity: 0.7; }
[data-mouse-over-selected='true']  { opacity: 1.0; }
]]>
</style>
<script type="application/ecmascript"><![CDATA[
document.addEventListener('DOMContentLoaded', (event) => {
  highlightEdges();
  highlightAdjacentNodes();
});
]]></script>
</svg>
