<?xml version="1.0" encoding="UTF-8" standalone="no"?>
<!DOCTYPE svg PUBLIC "-//W3C//DTD SVG 1.1//EN"
 "http://www.w3.org/Graphics/SVG/1.1/DTD/svg11.dtd">
<!-- Generated by graphviz version 12.2.1 (20241206.2353)
 -->
<!-- Title: fr.softsf.sudokufx.view.DefaultView Pages: 1 -->
<svg width="332pt" height="412pt"
 viewBox="0.00 0.00 331.88 412.00" xmlns="http://www.w3.org/2000/svg" xmlns:xlink="http://www.w3.org/1999/xlink">
<g id="graph0" class="graph" transform="scale(1 1) rotate(0) translate(4 408)">
<title>fr.softsf.sudokufx.view.DefaultView</title>
<!-- Node1 -->
<g id="Node000001" class="node">
<title>Node1</title>
<g id="a_Node000001"><a xlink:title="Default view class of the Sudoku application.">
<polygon fill="#999999" stroke="none" points="245.5,-280 97,-280 97,0 245.5,0 245.5,-280"/>
<text text-anchor="start" x="120.25" y="-266.5" font-family="Helvetica,sans-Serif" font-size="10.00">fr.softsf.sudokufx.view.</text>
<text text-anchor="start" x="144.62" y="-254.5" font-family="Helvetica,sans-Serif" font-size="10.00">DefaultView</text>
<text text-anchor="start" x="102.5" y="-238.5" font-family="Helvetica,sans-Serif" font-size="10.00">&#45;</text>
<text text-anchor="start" x="111" y="-238.5" font-family="Helvetica,sans-Serif" font-size="10.00">Button buttonHello</text>
<text text-anchor="start" x="102.5" y="-222.5" font-family="Helvetica,sans-Serif" font-size="10.00">&#45;</text>
<text text-anchor="start" x="111" y="-222.5" font-family="Helvetica,sans-Serif" font-size="10.00">Label githubVersion</text>
<text text-anchor="start" x="102.5" y="-206.5" font-family="Helvetica,sans-Serif" font-size="10.00">&#45;</text>
<text text-anchor="start" x="111" y="-206.5" font-family="Helvetica,sans-Serif" font-size="10.00">final Stage primaryStage</text>
<text text-anchor="start" x="102.5" y="-190.5" font-family="Helvetica,sans-Serif" font-size="10.00">&#45;</text>
<text text-anchor="start" x="111" y="-190.5" font-family="Helvetica,sans-Serif" font-size="10.00">Label version</text>
<text text-anchor="start" x="102.5" y="-174.5" font-family="Helvetica,sans-Serif" font-size="10.00">&#45;</text>
<text text-anchor="start" x="111" y="-174.5" font-family="Helvetica,sans-Serif" font-size="10.00">Label welcomeText</text>
<text text-anchor="start" x="102.5" y="-158.5" font-family="Helvetica,sans-Serif" font-size="10.00">&#45;</text>
<text text-anchor="start" x="111" y="-158.5" font-family="Helvetica,sans-Serif" font-size="10.00">static final double</text>
<text text-anchor="start" x="111" y="-146.5" font-family="Helvetica,sans-Serif" font-size="10.00"> FADE_IN_IN_SECONDS</text>
<text text-anchor="start" x="111" y="-134.5" font-family="Helvetica,sans-Serif" font-size="10.00">_AFTER_SPLASHSCREEN</text>
<text text-anchor="start" x="101" y="-118.5" font-family="Helvetica,sans-Serif" font-size="10.00">+</text>
<text text-anchor="start" x="111" y="-118.5" font-family="Helvetica,sans-Serif" font-size="10.00">void openingMainStage</text>
<text text-anchor="start" x="111" y="-106.5" font-family="Helvetica,sans-Serif" font-size="10.00">(final ISplashScreenView</text>
<text text-anchor="start" x="111" y="-94.5" font-family="Helvetica,sans-Serif" font-size="10.00"> iSplashScreenView)</text>
<text text-anchor="start" x="102.5" y="-78.5" font-family="Helvetica,sans-Serif" font-size="10.00">&#45;</text>
<text text-anchor="start" x="111" y="-78.5" font-family="Helvetica,sans-Serif" font-size="10.00">void openingConfigureStage()</text>
<text text-anchor="start" x="102.5" y="-62.5" font-family="Helvetica,sans-Serif" font-size="10.00">&#45;</text>
<text text-anchor="start" x="111" y="-62.5" font-family="Helvetica,sans-Serif" font-size="10.00">void openingFadeIn</text>
<text text-anchor="start" x="111" y="-50.5" font-family="Helvetica,sans-Serif" font-size="10.00">(final Node node)</text>
<text text-anchor="start" x="102.5" y="-34.5" font-family="Helvetica,sans-Serif" font-size="10.00">&#45;</text>
<text text-anchor="start" x="111" y="-34.5" font-family="Helvetica,sans-Serif" font-size="10.00">void openingMaximizePrimary</text>
<text text-anchor="start" x="111" y="-22.5" font-family="Helvetica,sans-Serif" font-size="10.00">Stage()</text>
<text text-anchor="start" x="102.5" y="-6.5" font-family="Helvetica,sans-Serif" font-size="10.00">&#45;</text>
<text text-anchor="start" x="111" y="-6.5" font-family="Helvetica,sans-Serif" font-size="10.00">void openingShowStage()</text>
<polygon fill="#666666" stroke="#666666" points="97,-250 97,-250 245.5,-250 245.5,-250 97,-250"/>
<polygon fill="#666666" stroke="#666666" points="97,-130 97,-130 109,-130 109,-130 97,-130"/>
<polygon fill="#666666" stroke="#666666" points="109,-130 109,-130 245.5,-130 245.5,-130 109,-130"/>
<polygon fill="none" stroke="#666666" points="97,0 97,-280 245.5,-280 245.5,0 97,0"/>
</a>
</g>
</g>
<!-- Node2 -->
<g id="Node000002" class="node">
<title>Node2</title>
<g id="a_Node000002"><a xlink:href="interfacefr_1_1softsf_1_1sudokufx_1_1interfaces_1_1_i_main_stage_view.html" target="_top" xlink:title="Interface defining method to open the main stage.">
<polygon fill="white" stroke="none" points="172.5,-404 0,-404 0,-316 172.5,-316 172.5,-404"/>
<text text-anchor="start" x="23.62" y="-390.5" font-family="Helvetica,sans-Serif" font-size="10.00">fr.softsf.sudokufx.interfaces.</text>
<text text-anchor="start" x="50.62" y="-378.5" font-family="Helvetica,sans-Serif" font-size="10.00">IMainStageView</text>
<text text-anchor="start" x="84.75" y="-362.5" font-family="Helvetica,sans-Serif" font-size="10.00"> </text>
<text text-anchor="start" x="4" y="-346.5" font-family="Helvetica,sans-Serif" font-size="10.00">+</text>
<text text-anchor="start" x="14" y="-346.5" font-family="Helvetica,sans-Serif" font-size="10.00">void openingMainStage</text>
<text text-anchor="start" x="14" y="-334.5" font-family="Helvetica,sans-Serif" font-size="10.00">(ISplashScreenView iSplashScreen</text>
<text text-anchor="start" x="14" y="-322.5" font-family="Helvetica,sans-Serif" font-size="10.00">View)</text>
<polygon fill="#666666" stroke="#666666" points="0,-374 0,-374 172.5,-374 172.5,-374 0,-374"/>
<polygon fill="#666666" stroke="#666666" points="0,-358 0,-358 172.5,-358 172.5,-358 0,-358"/>
<polygon fill="none" stroke="#666666" points="0,-316 0,-404 172.5,-404 172.5,-316 0,-316"/>
</a>
</g>
</g>
<!-- Node2&#45;&gt;Node1 -->
<g id="edge1_Node000001_Node000002" class="edge">
<title>Node2&#45;&gt;Node1</title>
<g id="a_edge1_Node000001_Node000002"><a xlink:title=" ">
<path fill="none" stroke="#63b8ff" d="M107.08,-305.57C110.23,-297.51 113.58,-288.9 117.06,-279.99"/>
<polygon fill="none" stroke="#63b8ff" points="103.86,-304.19 103.49,-314.78 110.39,-306.73 103.86,-304.19"/>
</a>
</g>
</g>
<!-- Node3 -->
<g id="Node000003" class="node">
<title>Node3</title>
<g id="a_Node000003"><a xlink:href="interfacefr_1_1softsf_1_1sudokufx_1_1interfaces_1_1_i_scene_provider.html" target="_top" xlink:title="Interface ISceneProvider.">
<polygon fill="white" stroke="none" points="323.88,-392 190.62,-392 190.62,-328 323.88,-328 323.88,-392"/>
<text text-anchor="start" x="194.62" y="-378.5" font-family="Helvetica,sans-Serif" font-size="10.00">fr.softsf.sudokufx.interfaces.</text>
<text text-anchor="start" x="223.88" y="-366.5" font-family="Helvetica,sans-Serif" font-size="10.00">ISceneProvider</text>
<text text-anchor="start" x="255.75" y="-350.5" font-family="Helvetica,sans-Serif" font-size="10.00"> </text>
<text text-anchor="start" x="195.88" y="-334.5" font-family="Helvetica,sans-Serif" font-size="10.00">+</text>
<text text-anchor="start" x="207.12" y="-334.5" font-family="Helvetica,sans-Serif" font-size="10.00">default Scene getScene()</text>
<polygon fill="#666666" stroke="#666666" points="190.62,-362 190.62,-362 323.88,-362 323.88,-362 190.62,-362"/>
<polygon fill="#666666" stroke="#666666" points="190.62,-346 190.62,-346 323.88,-346 323.88,-346 190.62,-346"/>
<polygon fill="none" stroke="#666666" points="190.62,-328 190.62,-392 323.88,-392 323.88,-328 190.62,-328"/>
</a>
</g>
</g>
<!-- Node3&#45;&gt;Node1 -->
<g id="edge2_Node000001_Node000003" class="edge">
<title>Node3&#45;&gt;Node1</title>
<g id="a_edge2_Node000001_Node000003"><a xlink:title=" ">
<path fill="none" stroke="#63b8ff" d="M241.02,-317.86C236.53,-306.49 231.4,-293.48 226,-279.79"/>
<polygon fill="none" stroke="#63b8ff" points="237.63,-318.8 244.56,-326.82 244.14,-316.23 237.63,-318.8"/>
</a>
</g>
</g>
</g>
</svg>
