<?xml version="1.0" encoding="UTF-8" standalone="no"?>
<!DOCTYPE svg PUBLIC "-//W3C//DTD SVG 1.1//EN"
 "http://www.w3.org/Graphics/SVG/1.1/DTD/svg11.dtd">
<!-- Generated by graphviz version 12.2.0 (20241103.1931)
 -->
<!-- Title: fr.softsf.sudokufx.viewmodel.FullMenuViewModel Pages: 1 -->
<!--zoomable 645 -->

<svg id="main" version="1.1" xmlns="http://www.w3.org/2000/svg" xmlns:xlink="http://www.w3.org/1999/xlink" xml:space="preserve" onload="init(evt)">

<style type="text/css"><![CDATA[
.node, .edge {opacity: 0.7;}
.node.selected, .edge.selected {opacity: 1;}
.edge:hover path { stroke: red; }
.edge:hover polygon { stroke: red; fill: red; }
]]></style>

<defs>
  <circle id="rim" cx="0" cy="0" r="7"/>
  <circle id="rim2" cx="0" cy="0" r="3.5"/>
  <g id="zoomPlus">
    <use xlink:href="#rim" fill="#404040"><set attributeName="fill" to="#808080" begin="zoomplus.mouseover" end="zoomplus.mouseout"/></use>
    <path d="M-4,0h8M0,-4v8" fill="none" stroke="white" stroke-width="1.5" pointer-events="none"/>
  </g>
  <g id="zoomMin">
    <use xlink:href="#rim" fill="#404040"><set attributeName="fill" to="#808080" begin="zoomminus.mouseover" end="zoomminus.mouseout"/></use>
    <path d="M-4,0h8" fill="none" stroke="white" stroke-width="1.5" pointer-events="none"/>
  </g>
  <g id="arrowUp" transform="translate(30 24)">
    <use xlink:href="#rim"/>
    <path pointer-events="none" fill="none" stroke="white" stroke-width="1.5" d="M0,-3.0v7 M-2.5,-0.5L0,-3.0L2.5,-0.5"/>
  </g>
  <g id="arrowRight" transform="rotate(90) translate(36 -43)">
    <use xlink:href="#rim"/>
    <path pointer-events="none" fill="none" stroke="white" stroke-width="1.5" d="M0,-3.0v7 M-2.5,-0.5L0,-3.0L2.5,-0.5"/>
  </g>
  <g id="arrowDown" transform="rotate(180) translate(-30 -48)">
    <use xlink:href="#rim"/>
    <path pointer-events="none" fill="none" stroke="white" stroke-width="1.5" d="M0,-3.0v7 M-2.5,-0.5L0,-3.0L2.5,-0.5"/>
  </g>
  <g id="arrowLeft" transform="rotate(270) translate(-36 17)">
    <use xlink:href="#rim"/>
    <path pointer-events="none" fill="none" stroke="white" stroke-width="1.5" d="M0,-3.0v7 M-2.5,-0.5L0,-3.0L2.5,-0.5"/>
  </g>
  <g id="resetDef">
    <use xlink:href="#rim2" fill="#404040"><set attributeName="fill" to="#808080" begin="reset.mouseover" end="reset.mouseout"/></use>
  </g>
</defs>
<script type="application/ecmascript">
var viewWidth = 533;
var viewHeight = 645;
var sectionId = 'dynsection-0';
</script>
<script type="application/ecmascript" xlink:href="svg.min.js"/>
<svg id="graph" class="graph">
<g id="viewport">
<title>fr.softsf.sudokufx.viewmodel.FullMenuViewModel</title>
<!-- Node1 -->
<g id="Node000001" class="node">
<title>Node1</title>
<g id="a_Node000001"><a xlink:title="FullMenuViewModel with business logic (not final)">
<polygon fill="#999999" stroke="none" points="455,-192 285.5,-192 285.5,0 455,0 455,-192"/>
<text text-anchor="start" x="305.75" y="-178.5" font-family="Helvetica,sans-Serif" font-size="10.00">fr.softsf.sudokufx.viewmodel.</text>
<text text-anchor="start" x="326.38" y="-166.5" font-family="Helvetica,sans-Serif" font-size="10.00">FullMenuViewModel</text>
<text text-anchor="start" x="368.75" y="-150.5" font-family="Helvetica,sans-Serif" font-size="10.00"> </text>
<text text-anchor="start" x="289.5" y="-134.5" font-family="Helvetica,sans-Serif" font-size="10.00">+</text>
<text text-anchor="start" x="299.5" y="-134.5" font-family="Helvetica,sans-Serif" font-size="10.00">FullMenuViewModel</text>
<text text-anchor="start" x="299.5" y="-122.5" font-family="Helvetica,sans-Serif" font-size="10.00">(SoftwareService softwareService,</text>
<text text-anchor="start" x="299.5" y="-110.5" font-family="Helvetica,sans-Serif" font-size="10.00"> IGridMaster iGridMaster)</text>
<text text-anchor="start" x="289.5" y="-94.5" font-family="Helvetica,sans-Serif" font-size="10.00">+</text>
<text text-anchor="start" x="299.5" y="-94.5" font-family="Helvetica,sans-Serif" font-size="10.00">void test()</text>
<text text-anchor="start" x="289.5" y="-78.5" font-family="Helvetica,sans-Serif" font-size="10.00">+</text>
<text text-anchor="start" x="299.5" y="-78.5" font-family="Helvetica,sans-Serif" font-size="10.00">StringProperty welcomeProperty()</text>
<text text-anchor="start" x="291" y="-62.5" font-family="Helvetica,sans-Serif" font-size="10.00">&#45;</text>
<text text-anchor="start" x="299.5" y="-62.5" font-family="Helvetica,sans-Serif" font-size="10.00">void createSoftware()</text>
<text text-anchor="start" x="291" y="-46.5" font-family="Helvetica,sans-Serif" font-size="10.00">&#45;</text>
<text text-anchor="start" x="299.5" y="-46.5" font-family="Helvetica,sans-Serif" font-size="10.00">void setWelcome(String</text>
<text text-anchor="start" x="299.5" y="-34.5" font-family="Helvetica,sans-Serif" font-size="10.00"> output)</text>
<text text-anchor="start" x="291" y="-18.5" font-family="Helvetica,sans-Serif" font-size="10.00">&#45;</text>
<text text-anchor="start" x="299.5" y="-18.5" font-family="Helvetica,sans-Serif" font-size="10.00">void updateSoftware</text>
<text text-anchor="start" x="299.5" y="-6.5" font-family="Helvetica,sans-Serif" font-size="10.00">(SoftwareDto softwareToUpdate)</text>
<polygon fill="#666666" stroke="#666666" points="285.5,-162 285.5,-162 455,-162 455,-162 285.5,-162"/>
<polygon fill="#666666" stroke="#666666" points="285.5,-146 285.5,-146 455,-146 455,-146 285.5,-146"/>
<polygon fill="none" stroke="#666666" points="285.5,0 285.5,-192 455,-192 455,0 285.5,0"/>
</a>
</g>
</g>
<!-- Node2 -->
<g id="Node000002" class="node">
<title>Node2</title>
<g id="a_Node000002"><a xlink:href="classfr_1_1softsf_1_1sudokufx_1_1service_1_1_software_service.html" target="_top" xlink:title=" ">
<polygon fill="white" stroke="none" points="285.25,-384 129.25,-384 129.25,-240 285.25,-240 285.25,-384"/>
<text text-anchor="start" x="150.25" y="-370.5" font-family="Helvetica,sans-Serif" font-size="10.00">fr.softsf.sudokufx.service.</text>
<text text-anchor="start" x="171.25" y="-358.5" font-family="Helvetica,sans-Serif" font-size="10.00">SoftwareService</text>
<text text-anchor="start" x="205.75" y="-342.5" font-family="Helvetica,sans-Serif" font-size="10.00"> </text>
<text text-anchor="start" x="133.25" y="-326.5" font-family="Helvetica,sans-Serif" font-size="10.00">+</text>
<text text-anchor="start" x="143.25" y="-326.5" font-family="Helvetica,sans-Serif" font-size="10.00">SoftwareService(Software</text>
<text text-anchor="start" x="143.25" y="-314.5" font-family="Helvetica,sans-Serif" font-size="10.00">Repository softwareRepository)</text>
<text text-anchor="start" x="133.25" y="-298.5" font-family="Helvetica,sans-Serif" font-size="10.00">+</text>
<text text-anchor="start" x="143.25" y="-298.5" font-family="Helvetica,sans-Serif" font-size="10.00">Optional&lt; SoftwareDto</text>
<text text-anchor="start" x="143.25" y="-286.5" font-family="Helvetica,sans-Serif" font-size="10.00"> &gt; getSoftware()</text>
<text text-anchor="start" x="133.25" y="-270.5" font-family="Helvetica,sans-Serif" font-size="10.00">+</text>
<text text-anchor="start" x="143.25" y="-270.5" font-family="Helvetica,sans-Serif" font-size="10.00">Optional&lt; SoftwareDto</text>
<text text-anchor="start" x="143.25" y="-258.5" font-family="Helvetica,sans-Serif" font-size="10.00"> &gt; updateSoftware(SoftwareDto</text>
<text text-anchor="start" x="143.25" y="-246.5" font-family="Helvetica,sans-Serif" font-size="10.00"> softwareDto)</text>
<polygon fill="#666666" stroke="#666666" points="129.25,-354 129.25,-354 285.25,-354 285.25,-354 129.25,-354"/>
<polygon fill="#666666" stroke="#666666" points="129.25,-338 129.25,-338 285.25,-338 285.25,-338 129.25,-338"/>
<polygon fill="none" stroke="#666666" points="129.25,-240 129.25,-384 285.25,-384 285.25,-240 129.25,-240"/>
</a>
</g>
</g>
<!-- Node2&#45;&gt;Node1 -->
<g id="edge1_Node000001_Node000002" class="edge">
<title>Node2&#45;&gt;Node1</title>
<g id="a_edge1_Node000001_Node000002"><a xlink:title=" ">
<path fill="none" stroke="#63b8ff" d="M261.3,-240.04C270.59,-227.85 280.41,-214.95 290.21,-202.08"/>
<polygon fill="none" stroke="#63b8ff" points="290.23,-202.05 290.69,-194.86 297.5,-192.51 297.05,-199.71 290.23,-202.05"/>
</a>
</g>
<text text-anchor="middle" x="322.11" y="-212.5" font-family="Helvetica,sans-Serif" font-size="10.00" fill="grey"> &#45;softwareService</text>
</g>
<!-- Node3 -->
<g id="Node000003" class="node">
<title>Node3</title>
<g id="a_Node000003"><a xlink:href="interfacefr_1_1softsf_1_1sudokufx_1_1interfaces_1_1mapper_1_1_i_software_mapper.html" target="_top" xlink:title="This interface defines methods for mapping objects of type Software to objects of type SoftwareDto an...">
<polygon fill="white" stroke="none" points="168.5,-536 0,-536 0,-432 168.5,-432 168.5,-536"/>
<text text-anchor="start" x="4" y="-522.5" font-family="Helvetica,sans-Serif" font-size="10.00">fr.softsf.sudokufx.interfaces.mapper.</text>
<text text-anchor="start" x="47.12" y="-510.5" font-family="Helvetica,sans-Serif" font-size="10.00">ISoftwareMapper</text>
<text text-anchor="start" x="82.75" y="-494.5" font-family="Helvetica,sans-Serif" font-size="10.00"> </text>
<text text-anchor="start" x="10.12" y="-478.5" font-family="Helvetica,sans-Serif" font-size="10.00">+</text>
<text text-anchor="start" x="26.25" y="-478.5" font-family="Helvetica,sans-Serif" font-size="10.00">Software mapSoftwareDtoTo</text>
<text text-anchor="start" x="26.25" y="-466.5" font-family="Helvetica,sans-Serif" font-size="10.00">Software(SoftwareDto dto)</text>
<text text-anchor="start" x="10.12" y="-450.5" font-family="Helvetica,sans-Serif" font-size="10.00">+</text>
<text text-anchor="start" x="26.25" y="-450.5" font-family="Helvetica,sans-Serif" font-size="10.00">SoftwareDto mapSoftwareTo</text>
<text text-anchor="start" x="26.25" y="-438.5" font-family="Helvetica,sans-Serif" font-size="10.00">Dto(Software software)</text>
<polygon fill="#666666" stroke="#666666" points="0,-506 0,-506 168.5,-506 168.5,-506 0,-506"/>
<polygon fill="#666666" stroke="#666666" points="0,-490 0,-490 168.5,-490 168.5,-490 0,-490"/>
<polygon fill="none" stroke="#666666" points="0,-432 0,-536 168.5,-536 168.5,-432 0,-432"/>
</a>
</g>
</g>
<!-- Node3&#45;&gt;Node2 -->
<g id="edge2_Node000002_Node000003" class="edge">
<title>Node3&#45;&gt;Node2</title>
<g id="a_edge2_Node000002_Node000003"><a xlink:title=" ">
<path fill="none" stroke="#63b8ff" d="M120.82,-432.45C129.54,-420.41 139.06,-407.25 148.49,-394.21"/>
<polygon fill="none" stroke="#63b8ff" points="148.46,-394.25 148.74,-387.05 155.5,-384.53 155.22,-391.74 148.46,-394.25"/>
</a>
</g>
<text text-anchor="middle" x="181.81" y="-404.5" font-family="Helvetica,sans-Serif" font-size="10.00" fill="grey"> &#45;iSoftwareMapper</text>
</g>
<!-- Node3&#45;&gt;Node3 -->
<g id="edge3_Node000003_Node000003" class="edge">
<title>Node3&#45;&gt;Node3</title>
<g id="a_edge3_Node000003_Node000003"><a xlink:title=" ">
<path fill="none" stroke="#63b8ff" d="M168.49,-495.58C179.33,-493.58 186.5,-489.71 186.5,-484 186.5,-480.87 184.36,-478.3 180.64,-476.29"/>
<polygon fill="none" stroke="#63b8ff" points="180.78,-476.33 173.85,-478.32 169.35,-472.69 176.28,-470.7 180.78,-476.33"/>
</a>
</g>
<text text-anchor="middle" x="216.5" y="-480.5" font-family="Helvetica,sans-Serif" font-size="10.00" fill="grey"> +INSTANCE</text>
</g>
<!-- Node4 -->
<g id="Node000004" class="node">
<title>Node4</title>
<g id="a_Node000004"><a xlink:href="interfacefr_1_1softsf_1_1sudokufx_1_1repository_1_1_software_repository.html" target="_top" xlink:title=" ">
<polygon fill="white" stroke="none" points="397.5,-522 265,-522 265,-446 397.5,-446 397.5,-522"/>
<text text-anchor="start" x="269" y="-508.5" font-family="Helvetica,sans-Serif" font-size="10.00">fr.softsf.sudokufx.repository.</text>
<text text-anchor="start" x="288.12" y="-496.5" font-family="Helvetica,sans-Serif" font-size="10.00">SoftwareRepository</text>
<text text-anchor="start" x="329.75" y="-480.5" font-family="Helvetica,sans-Serif" font-size="10.00"> </text>
<text text-anchor="start" x="274.56" y="-464.5" font-family="Helvetica,sans-Serif" font-size="10.00">+</text>
<text text-anchor="start" x="290.12" y="-464.5" font-family="Helvetica,sans-Serif" font-size="10.00">Optional&lt; Software</text>
<text text-anchor="start" x="290.12" y="-452.5" font-family="Helvetica,sans-Serif" font-size="10.00"> &gt; findFirstSoftware()</text>
<polygon fill="#666666" stroke="#666666" points="265,-492 265,-492 397.5,-492 397.5,-492 265,-492"/>
<polygon fill="#666666" stroke="#666666" points="265,-476 265,-476 397.5,-476 397.5,-476 265,-476"/>
<polygon fill="none" stroke="#666666" points="265,-446 265,-522 397.5,-522 397.5,-446 265,-446"/>
</a>
</g>
</g>
<!-- Node4&#45;&gt;Node2 -->
<g id="edge4_Node000002_Node000004" class="edge">
<title>Node4&#45;&gt;Node2</title>
<g id="a_edge4_Node000002_Node000004"><a xlink:title=" ">
<path fill="none" stroke="#63b8ff" d="M304.34,-446.11C293.16,-430.78 279.7,-412.32 266.41,-394.11"/>
<polygon fill="none" stroke="#63b8ff" points="266.45,-394.16 259.68,-391.67 259.38,-384.47 266.15,-386.96 266.45,-394.16"/>
</a>
</g>
<text text-anchor="middle" x="325.73" y="-404.5" font-family="Helvetica,sans-Serif" font-size="10.00" fill="grey"> &#45;softwareRepository</text>
</g>
<!-- Node5 -->
<g id="Node000005" class="node">
<title>Node5</title>
<g id="a_Node000005"><a xlink:title=" ">
<polygon fill="white" stroke="none" points="392.25,-637 270.25,-637 270.25,-573 392.25,-573 392.25,-637"/>
<text text-anchor="start" x="274.25" y="-623.5" font-family="Helvetica,sans-Serif" font-size="10.00">JpaRepository&lt; Software,</text>
<text text-anchor="start" x="314.75" y="-611.5" font-family="Helvetica,sans-Serif" font-size="10.00"> Long &gt;</text>
<text text-anchor="start" x="329.75" y="-595.5" font-family="Helvetica,sans-Serif" font-size="10.00"> </text>
<text text-anchor="start" x="329.75" y="-579.5" font-family="Helvetica,sans-Serif" font-size="10.00"> </text>
<polygon fill="#666666" stroke="#666666" points="270.25,-607 270.25,-607 392.25,-607 392.25,-607 270.25,-607"/>
<polygon fill="#666666" stroke="#666666" points="270.25,-591 270.25,-591 392.25,-591 392.25,-591 270.25,-591"/>
<polygon fill="none" stroke="#666666" points="270.25,-573 270.25,-637 392.25,-637 392.25,-573 270.25,-573"/>
</a>
</g>
</g>
<!-- Node5&#45;&gt;Node4 -->
<g id="edge5_Node000004_Node000005" class="edge">
<title>Node5&#45;&gt;Node4</title>
<g id="a_edge5_Node000004_Node000005"><a xlink:title=" ">
<path fill="none" stroke="#63b8ff" d="M331.25,-561.91C331.25,-548.79 331.25,-534.44 331.25,-521.72"/>
<polygon fill="none" stroke="#63b8ff" points="327.75,-561.53 331.25,-571.53 334.75,-561.53 327.75,-561.53"/>
</a>
</g>
</g>
<!-- Node6 -->
<g id="Node000006" class="node">
<title>Node6</title>
<g id="a_Node000006"><a xlink:href="interfacefr_1_1softsf_1_1sudokufx_1_1interfaces_1_1_i_grid_master.html" target="_top" xlink:title="Interface defining methods to generate and solve Sudoku puzzles.">
<polygon fill="white" stroke="none" points="436.88,-364 303.62,-364 303.62,-260 436.88,-260 436.88,-364"/>
<text text-anchor="start" x="307.62" y="-350.5" font-family="Helvetica,sans-Serif" font-size="10.00">fr.softsf.sudokufx.interfaces.</text>
<text text-anchor="start" x="344.75" y="-338.5" font-family="Helvetica,sans-Serif" font-size="10.00">IGridMaster</text>
<text text-anchor="start" x="368.75" y="-322.5" font-family="Helvetica,sans-Serif" font-size="10.00"> </text>
<text text-anchor="start" x="313.75" y="-306.5" font-family="Helvetica,sans-Serif" font-size="10.00">+</text>
<text text-anchor="start" x="329.88" y="-306.5" font-family="Helvetica,sans-Serif" font-size="10.00">int[][] creerLesGrilles</text>
<text text-anchor="start" x="329.88" y="-294.5" font-family="Helvetica,sans-Serif" font-size="10.00">(final int niveau)</text>
<text text-anchor="start" x="313.75" y="-278.5" font-family="Helvetica,sans-Serif" font-size="10.00">+</text>
<text text-anchor="start" x="329.88" y="-278.5" font-family="Helvetica,sans-Serif" font-size="10.00">int resoudreLaGrille</text>
<text text-anchor="start" x="329.88" y="-266.5" font-family="Helvetica,sans-Serif" font-size="10.00">(final int[] grille)</text>
<polygon fill="#666666" stroke="#666666" points="303.62,-334 303.62,-334 436.88,-334 436.88,-334 303.62,-334"/>
<polygon fill="#666666" stroke="#666666" points="303.62,-318 303.62,-318 436.88,-318 436.88,-318 303.62,-318"/>
<polygon fill="none" stroke="#666666" points="303.62,-260 303.62,-364 436.88,-364 436.88,-260 303.62,-260"/>
</a>
</g>
</g>
<!-- Node6&#45;&gt;Node1 -->
<g id="edge6_Node000001_Node000006" class="edge">
<title>Node6&#45;&gt;Node1</title>
<g id="a_edge6_Node000001_Node000006"><a xlink:title=" ">
<path fill="none" stroke="#63b8ff" d="M370.25,-260.01C370.25,-243.26 370.25,-223.95 370.25,-204.62"/>
<polygon fill="none" stroke="#63b8ff" points="370.25,-204.5 366.25,-198.5 370.25,-192.5 374.25,-198.5 370.25,-204.5"/>
</a>
</g>
<text text-anchor="middle" x="398.38" y="-212.5" font-family="Helvetica,sans-Serif" font-size="10.00" fill="grey"> &#45;iGridMaster</text>
</g>
<!-- Node7 -->
<g id="Node000007" class="node">
<title>Node7</title>
<g id="a_Node000007"><a xlink:title=" ">
<polygon fill="white" stroke="none" points="525.38,-338 455.12,-338 455.12,-286 525.38,-286 525.38,-338"/>
<text text-anchor="start" x="459.12" y="-324.5" font-family="Helvetica,sans-Serif" font-size="10.00">StringProperty</text>
<text text-anchor="start" x="488.75" y="-308.5" font-family="Helvetica,sans-Serif" font-size="10.00"> </text>
<text text-anchor="start" x="488.75" y="-292.5" font-family="Helvetica,sans-Serif" font-size="10.00"> </text>
<polygon fill="#666666" stroke="#666666" points="455.12,-320 455.12,-320 525.38,-320 525.38,-320 455.12,-320"/>
<polygon fill="#666666" stroke="#666666" points="455.12,-304 455.12,-304 525.38,-304 525.38,-304 455.12,-304"/>
<polygon fill="none" stroke="#666666" points="455.12,-286 455.12,-338 525.38,-338 525.38,-286 455.12,-286"/>
</a>
</g>
</g>
<!-- Node7&#45;&gt;Node1 -->
<g id="edge7_Node000001_Node000007" class="edge">
<title>Node7&#45;&gt;Node1</title>
<g id="a_edge7_Node000001_Node000007"><a xlink:title=" ">
<path fill="none" stroke="#63b8ff" d="M476.25,-286.03C464.52,-265.12 446.94,-233.77 429.45,-202.58"/>
<polygon fill="none" stroke="#63b8ff" points="429.59,-202.82 423.17,-199.55 423.72,-192.36 430.14,-195.63 429.59,-202.82"/>
</a>
</g>
<text text-anchor="middle" x="459.93" y="-212.5" font-family="Helvetica,sans-Serif" font-size="10.00" fill="grey"> &#45;welcome</text>
</g>
</g>
</svg>

<g id="navigator" transform="translate(0 0)" fill="#404254">
  <rect fill="#f2f5e9" fill-opacity="0.5" stroke="#606060" stroke-width=".5" x="0" y="0" width="60" height="60"/>
  <use id="zoomplus" xlink:href="#zoomPlus" x="17" y="9" onmousedown="handleZoom(evt,'in')"/>
  <use id="zoomminus" xlink:href="#zoomMin" x="42" y="9" onmousedown="handleZoom(evt,'out')"/>
  <use id="reset" xlink:href="#resetDef" x="30" y="36" onmousedown="handleReset()"/>
   <use id="arrowup" xlink:href="#arrowUp" x="0" y="0" onmousedown="handlePan(0,-1)"/>
  <use id="arrowright" xlink:href="#arrowRight" x="0" y="0" onmousedown="handlePan(1,0)"/>
  <use id="arrowdown" xlink:href="#arrowDown" x="0" y="0" onmousedown="handlePan(0,1)"/>
  <use id="arrowleft" xlink:href="#arrowLeft" x="0" y="0" onmousedown="handlePan(-1,0)"/>
</g>
<svg viewBox="0 0 15 15" width="100%" height="30px" preserveAspectRatio="xMaxYMin meet">
 <g id="arrow_out" transform="scale(0.3 0.3)">
  <a xlink:href="classfr_1_1softsf_1_1sudokufx_1_1viewmodel_1_1_full_menu_view_model__coll__graph_org.svg" target="_base">
   <rect id="button" ry="5" rx="5" y="6" x="6" height="38" width="38"
        fill="#f2f5e9" fill-opacity="0.5" stroke="#606060" stroke-width="1.0"/>
   <path id="arrow"
     d="M 11.500037,31.436501 C 11.940474,20.09759 22.043105,11.32322 32.158766,21.979434 L 37.068811,17.246167 C 37.068811,17.246167 37.088388,32 37.088388,32 L 22.160133,31.978069 C 22.160133,31.978069 26.997745,27.140456 26.997745,27.140456 C 18.528582,18.264221 13.291696,25.230495 11.500037,31.436501 z"
     style="fill:#404040;"/>
  </a>
 </g>
</svg>

<style type='text/css'>
<![CDATA[
[data-mouse-over-selected='false'] { opacity: 0.7; }
[data-mouse-over-selected='true']  { opacity: 1.0; }
]]>
</style>
<script type="application/ecmascript"><![CDATA[
document.addEventListener('DOMContentLoaded', (event) => {
  highlightEdges();
  highlightAdjacentNodes();
});
]]></script>
</svg>
