<?xml version="1.0" encoding="UTF-8" standalone="no"?>
<!DOCTYPE svg PUBLIC "-//W3C//DTD SVG 1.1//EN"
 "http://www.w3.org/Graphics/SVG/1.1/DTD/svg11.dtd">
<!-- Generated by graphviz version 12.2.0 (20241103.1931)
 -->
<!-- Title: fr.softsf.sudofx2024.view.SplashScreenView Pages: 1 -->
<!--zoomable 584 -->

<svg id="main" version="1.1" xmlns="http://www.w3.org/2000/svg" xmlns:xlink="http://www.w3.org/1999/xlink" xml:space="preserve" onload="init(evt)">

<style type="text/css"><![CDATA[
.node, .edge {opacity: 0.7;}
.node.selected, .edge.selected {opacity: 1;}
.edge:hover path { stroke: red; }
.edge:hover polygon { stroke: red; fill: red; }
]]></style>

<defs>
  <circle id="rim" cx="0" cy="0" r="7"/>
  <circle id="rim2" cx="0" cy="0" r="3.5"/>
  <g id="zoomPlus">
    <use xlink:href="#rim" fill="#404040"><set attributeName="fill" to="#808080" begin="zoomplus.mouseover" end="zoomplus.mouseout"/></use>
    <path d="M-4,0h8M0,-4v8" fill="none" stroke="white" stroke-width="1.5" pointer-events="none"/>
  </g>
  <g id="zoomMin">
    <use xlink:href="#rim" fill="#404040"><set attributeName="fill" to="#808080" begin="zoomminus.mouseover" end="zoomminus.mouseout"/></use>
    <path d="M-4,0h8" fill="none" stroke="white" stroke-width="1.5" pointer-events="none"/>
  </g>
  <g id="arrowUp" transform="translate(30 24)">
    <use xlink:href="#rim"/>
    <path pointer-events="none" fill="none" stroke="white" stroke-width="1.5" d="M0,-3.0v7 M-2.5,-0.5L0,-3.0L2.5,-0.5"/>
  </g>
  <g id="arrowRight" transform="rotate(90) translate(36 -43)">
    <use xlink:href="#rim"/>
    <path pointer-events="none" fill="none" stroke="white" stroke-width="1.5" d="M0,-3.0v7 M-2.5,-0.5L0,-3.0L2.5,-0.5"/>
  </g>
  <g id="arrowDown" transform="rotate(180) translate(-30 -48)">
    <use xlink:href="#rim"/>
    <path pointer-events="none" fill="none" stroke="white" stroke-width="1.5" d="M0,-3.0v7 M-2.5,-0.5L0,-3.0L2.5,-0.5"/>
  </g>
  <g id="arrowLeft" transform="rotate(270) translate(-36 17)">
    <use xlink:href="#rim"/>
    <path pointer-events="none" fill="none" stroke="white" stroke-width="1.5" d="M0,-3.0v7 M-2.5,-0.5L0,-3.0L2.5,-0.5"/>
  </g>
  <g id="resetDef">
    <use xlink:href="#rim2" fill="#404040"><set attributeName="fill" to="#808080" begin="reset.mouseover" end="reset.mouseout"/></use>
  </g>
</defs>
<script type="application/ecmascript">
var viewWidth = 1258;
var viewHeight = 584;
var sectionId = 'dynsection-1';
</script>
<script type="application/ecmascript" xlink:href="svg.min.js"/>
<svg id="graph" class="graph">
<g id="viewport">
<title>fr.softsf.sudofx2024.view.SplashScreenView</title>
<!-- Node1 -->
<g id="Node000001" class="node">
<title>Node1</title>
<g id="a_Node000001"><a xlink:title="View class for the splash screen of the Sudoku application.">
<polygon fill="#999999" stroke="none" points="749.38,-388 565.62,-388 565.62,0 749.38,0 749.38,-388"/>
<text text-anchor="start" x="601.25" y="-374.5" font-family="Helvetica,sans-Serif" font-size="10.00">fr.softsf.sudofx2024.view.</text>
<text text-anchor="start" x="616.25" y="-362.5" font-family="Helvetica,sans-Serif" font-size="10.00">SplashScreenView</text>
<text text-anchor="start" x="569.62" y="-346.5" font-family="Helvetica,sans-Serif" font-size="10.00">+</text>
<text text-anchor="start" x="579.62" y="-346.5" font-family="Helvetica,sans-Serif" font-size="10.00">static final String</text>
<text text-anchor="start" x="579.62" y="-334.5" font-family="Helvetica,sans-Serif" font-size="10.00"> FX_FONT_SIZE_0_8_EM</text>
<text text-anchor="start" x="571.12" y="-318.5" font-family="Helvetica,sans-Serif" font-size="10.00">&#45;</text>
<text text-anchor="start" x="579.62" y="-318.5" font-family="Helvetica,sans-Serif" font-size="10.00">double splashScreenFontSize</text>
<text text-anchor="start" x="569.62" y="-302.5" font-family="Helvetica,sans-Serif" font-size="10.00">+</text>
<text text-anchor="start" x="579.62" y="-302.5" font-family="Helvetica,sans-Serif" font-size="10.00">SplashScreenView(final</text>
<text text-anchor="start" x="579.62" y="-290.5" font-family="Helvetica,sans-Serif" font-size="10.00"> Stage splashScreenStageP)</text>
<text text-anchor="start" x="569.62" y="-274.5" font-family="Helvetica,sans-Serif" font-size="10.00">+</text>
<text text-anchor="start" x="579.62" y="-274.5" font-family="Helvetica,sans-Serif" font-size="10.00">void hideSplashScreen()</text>
<text text-anchor="start" x="569.62" y="-258.5" font-family="Helvetica,sans-Serif" font-size="10.00">+</text>
<text text-anchor="start" x="579.62" y="-258.5" font-family="Helvetica,sans-Serif" font-size="10.00">void showSplashScreen()</text>
<text text-anchor="start" x="571.12" y="-242.5" font-family="Helvetica,sans-Serif" font-size="10.00">&#45;</text>
<text text-anchor="start" x="579.62" y="-242.5" font-family="Helvetica,sans-Serif" font-size="10.00">void animateFlowerSvg()</text>
<text text-anchor="start" x="571.12" y="-226.5" font-family="Helvetica,sans-Serif" font-size="10.00">&#45;</text>
<text text-anchor="start" x="579.62" y="-226.5" font-family="Helvetica,sans-Serif" font-size="10.00">void createSVG(final</text>
<text text-anchor="start" x="579.62" y="-214.5" font-family="Helvetica,sans-Serif" font-size="10.00"> Region region, final</text>
<text text-anchor="start" x="579.62" y="-202.5" font-family="Helvetica,sans-Serif" font-size="10.00"> String path, final double</text>
<text text-anchor="start" x="579.62" y="-190.5" font-family="Helvetica,sans-Serif" font-size="10.00"> width, final double height,</text>
<text text-anchor="start" x="579.62" y="-178.5" font-family="Helvetica,sans-Serif" font-size="10.00"> final double offsetX, final</text>
<text text-anchor="start" x="579.62" y="-166.5" font-family="Helvetica,sans-Serif" font-size="10.00"> double offsetY)</text>
<text text-anchor="start" x="571.12" y="-150.5" font-family="Helvetica,sans-Serif" font-size="10.00">&#45;</text>
<text text-anchor="start" x="579.62" y="-150.5" font-family="Helvetica,sans-Serif" font-size="10.00">void fxmlLikeStructure()</text>
<text text-anchor="start" x="571.12" y="-134.5" font-family="Helvetica,sans-Serif" font-size="10.00">&#45;</text>
<text text-anchor="start" x="579.62" y="-134.5" font-family="Helvetica,sans-Serif" font-size="10.00">String getLoadingOrOptimizing</text>
<text text-anchor="start" x="579.62" y="-122.5" font-family="Helvetica,sans-Serif" font-size="10.00">Message()</text>
<text text-anchor="start" x="571.12" y="-106.5" font-family="Helvetica,sans-Serif" font-size="10.00">&#45;</text>
<text text-anchor="start" x="579.62" y="-106.5" font-family="Helvetica,sans-Serif" font-size="10.00">void nestingOfNodes()</text>
<text text-anchor="start" x="571.12" y="-90.5" font-family="Helvetica,sans-Serif" font-size="10.00">&#45;</text>
<text text-anchor="start" x="579.62" y="-90.5" font-family="Helvetica,sans-Serif" font-size="10.00">void nodesConfiguration()</text>
<text text-anchor="start" x="571.12" y="-74.5" font-family="Helvetica,sans-Serif" font-size="10.00">&#45;</text>
<text text-anchor="start" x="579.62" y="-74.5" font-family="Helvetica,sans-Serif" font-size="10.00">void setSplashscreenvbox</text>
<text text-anchor="start" x="579.62" y="-62.5" font-family="Helvetica,sans-Serif" font-size="10.00">CenterhboxLogosoft64textsvg()</text>
<text text-anchor="start" x="571.12" y="-46.5" font-family="Helvetica,sans-Serif" font-size="10.00">&#45;</text>
<text text-anchor="start" x="579.62" y="-46.5" font-family="Helvetica,sans-Serif" font-size="10.00">void setSplashscreenvbox</text>
<text text-anchor="start" x="579.62" y="-34.5" font-family="Helvetica,sans-Serif" font-size="10.00">CenterhboxStackpaneLogoflowersvg()</text>
<text text-anchor="start" x="571.12" y="-18.5" font-family="Helvetica,sans-Serif" font-size="10.00">&#45;</text>
<text text-anchor="start" x="579.62" y="-18.5" font-family="Helvetica,sans-Serif" font-size="10.00">void setSplashscreenvbox</text>
<text text-anchor="start" x="579.62" y="-6.5" font-family="Helvetica,sans-Serif" font-size="10.00">TophboxLogosudosvg()</text>
<polygon fill="#666666" stroke="#666666" points="565.62,-358 565.62,-358 749.38,-358 749.38,-358 565.62,-358"/>
<polygon fill="#666666" stroke="#666666" points="565.62,-314 565.62,-314 577.62,-314 577.62,-314 565.62,-314"/>
<polygon fill="#666666" stroke="#666666" points="577.62,-314 577.62,-314 749.38,-314 749.38,-314 577.62,-314"/>
<polygon fill="none" stroke="#666666" points="565.62,0 565.62,-388 749.38,-388 749.38,0 565.62,0"/>
</a>
</g>
</g>
<!-- Node2 -->
<g id="Node000002" class="node">
<title>Node2</title>
<g id="a_Node000002"><a xlink:href="interfacefr_1_1softsf_1_1sudofx2024_1_1_sudo_main_1_1_i_splash_screen_view.html" target="_top" xlink:title="Interface for the splash screen view.">
<polygon fill="white" stroke="none" points="129,-576 0,-576 0,-496 129,-496 129,-576"/>
<text text-anchor="start" x="8.25" y="-562.5" font-family="Helvetica,sans-Serif" font-size="10.00">fr.softsf.sudofx2024.Sudo</text>
<text text-anchor="start" x="9.75" y="-550.5" font-family="Helvetica,sans-Serif" font-size="10.00">Main.ISplashScreenView</text>
<text text-anchor="start" x="63" y="-534.5" font-family="Helvetica,sans-Serif" font-size="10.00"> </text>
<text text-anchor="start" x="4" y="-518.5" font-family="Helvetica,sans-Serif" font-size="10.00">+</text>
<text text-anchor="start" x="14" y="-518.5" font-family="Helvetica,sans-Serif" font-size="10.00">void hideSplashScreen()</text>
<text text-anchor="start" x="4" y="-502.5" font-family="Helvetica,sans-Serif" font-size="10.00">+</text>
<text text-anchor="start" x="14" y="-502.5" font-family="Helvetica,sans-Serif" font-size="10.00">void showSplashScreen()</text>
<polygon fill="#666666" stroke="#666666" points="0,-546 0,-546 129,-546 129,-546 0,-546"/>
<polygon fill="#666666" stroke="#666666" points="0,-530 0,-530 129,-530 129,-530 0,-530"/>
<polygon fill="none" stroke="#666666" points="0,-496 0,-576 129,-576 129,-496 0,-496"/>
</a>
</g>
</g>
<!-- Node2&#45;&gt;Node1 -->
<g id="edge1_Node000001_Node000002" class="edge">
<title>Node2&#45;&gt;Node1</title>
<g id="a_edge1_Node000001_Node000002"><a xlink:title=" ">
<path fill="none" stroke="#63b8ff" d="M90.34,-486.25C106.44,-459.65 129.27,-427.8 156.5,-406 280.84,-306.48 458.95,-246.48 565.91,-217.14"/>
<polygon fill="none" stroke="#63b8ff" points="87.33,-484.46 85.27,-494.85 93.36,-488.01 87.33,-484.46"/>
</a>
</g>
</g>
<!-- Node3 -->
<g id="Node000003" class="node">
<title>Node3</title>
<g id="a_Node000003"><a xlink:title=" ">
<polygon fill="white" stroke="none" points="179.5,-562 147.5,-562 147.5,-510 179.5,-510 179.5,-562"/>
<text text-anchor="start" x="151.5" y="-548.5" font-family="Helvetica,sans-Serif" font-size="10.00">VBox</text>
<text text-anchor="start" x="162" y="-532.5" font-family="Helvetica,sans-Serif" font-size="10.00"> </text>
<text text-anchor="start" x="162" y="-516.5" font-family="Helvetica,sans-Serif" font-size="10.00"> </text>
<polygon fill="#666666" stroke="#666666" points="147.5,-544 147.5,-544 179.5,-544 179.5,-544 147.5,-544"/>
<polygon fill="#666666" stroke="#666666" points="147.5,-528 147.5,-528 179.5,-528 179.5,-528 147.5,-528"/>
<polygon fill="none" stroke="#666666" points="147.5,-510 147.5,-562 179.5,-562 179.5,-510 147.5,-510"/>
</a>
</g>
</g>
<!-- Node3&#45;&gt;Node1 -->
<g id="edge2_Node000001_Node000003" class="edge">
<title>Node3&#45;&gt;Node1</title>
<g id="a_edge2_Node000001_Node000003"><a xlink:title=" ">
<path fill="none" stroke="#63b8ff" d="M160.35,-510.25C158.15,-482.13 158.91,-436.23 181.75,-406 271.42,-287.29 442.55,-234 553.26,-211.08"/>
<polygon fill="none" stroke="#63b8ff" points="553.13,-211.11 558.23,-206 564.9,-208.74 559.81,-213.84 553.13,-211.11"/>
</a>
</g>
<text text-anchor="middle" x="224.12" y="-438.5" font-family="Helvetica,sans-Serif" font-size="10.00" fill="grey"> &#45;splashscreenvbox</text>
</g>
<!-- Node4 -->
<g id="Node000004" class="node">
<title>Node4</title>
<g id="a_Node000004"><a xlink:title=" ">
<polygon fill="white" stroke="none" points="287.88,-562 255.12,-562 255.12,-510 287.88,-510 287.88,-562"/>
<text text-anchor="start" x="259.12" y="-548.5" font-family="Helvetica,sans-Serif" font-size="10.00">HBox</text>
<text text-anchor="start" x="270" y="-532.5" font-family="Helvetica,sans-Serif" font-size="10.00"> </text>
<text text-anchor="start" x="270" y="-516.5" font-family="Helvetica,sans-Serif" font-size="10.00"> </text>
<polygon fill="#666666" stroke="#666666" points="255.12,-544 255.12,-544 287.88,-544 287.88,-544 255.12,-544"/>
<polygon fill="#666666" stroke="#666666" points="255.12,-528 255.12,-528 287.88,-528 287.88,-528 255.12,-528"/>
<polygon fill="none" stroke="#666666" points="255.12,-510 255.12,-562 287.88,-562 287.88,-510 255.12,-510"/>
</a>
</g>
</g>
<!-- Node4&#45;&gt;Node1 -->
<g id="edge3_Node000001_Node000004" class="edge">
<title>Node4&#45;&gt;Node1</title>
<g id="a_edge3_Node000001_Node000004"><a xlink:title=" ">
<path fill="none" stroke="#63b8ff" d="M269.36,-510.13C268.25,-482.33 270.39,-437.12 291.75,-406 354.03,-315.28 469.04,-258.4 553.52,-226.87"/>
<polygon fill="none" stroke="#63b8ff" points="553.63,-226.83 557.89,-221.01 564.9,-222.71 560.64,-228.52 553.63,-226.83"/>
</a>
</g>
<text text-anchor="middle" x="368.62" y="-456.5" font-family="Helvetica,sans-Serif" font-size="10.00" fill="grey"> &#45;splashScreenvboxtophbox</text>
<text text-anchor="middle" x="368.62" y="-444.5" font-family="Helvetica,sans-Serif" font-size="10.00" fill="grey">&#45;splashscreenvboxCenterhbox</text>
<text text-anchor="middle" x="368.62" y="-432.5" font-family="Helvetica,sans-Serif" font-size="10.00" fill="grey">&#45;splashscreenvboxbottomhbox</text>
<text text-anchor="middle" x="368.62" y="-420.5" font-family="Helvetica,sans-Serif" font-size="10.00" fill="grey">&#45;splashscreenvboxbottomhboxhbox</text>
</g>
<!-- Node5 -->
<g id="Node000005" class="node">
<title>Node5</title>
<g id="a_Node000005"><a xlink:title=" ">
<polygon fill="white" stroke="none" points="467.88,-562 429.12,-562 429.12,-510 467.88,-510 467.88,-562"/>
<text text-anchor="start" x="433.12" y="-548.5" font-family="Helvetica,sans-Serif" font-size="10.00">Region</text>
<text text-anchor="start" x="447" y="-532.5" font-family="Helvetica,sans-Serif" font-size="10.00"> </text>
<text text-anchor="start" x="447" y="-516.5" font-family="Helvetica,sans-Serif" font-size="10.00"> </text>
<polygon fill="#666666" stroke="#666666" points="429.12,-544 429.12,-544 467.88,-544 467.88,-544 429.12,-544"/>
<polygon fill="#666666" stroke="#666666" points="429.12,-528 429.12,-528 467.88,-528 467.88,-528 429.12,-528"/>
<polygon fill="none" stroke="#666666" points="429.12,-510 429.12,-562 467.88,-562 467.88,-510 429.12,-510"/>
</a>
</g>
</g>
<!-- Node5&#45;&gt;Node1 -->
<g id="edge4_Node000001_Node000005" class="edge">
<title>Node5&#45;&gt;Node1</title>
<g id="a_edge4_Node000001_Node000005"><a xlink:title=" ">
<path fill="none" stroke="#63b8ff" d="M447.98,-510.01C448.34,-483.09 451.7,-439.59 467.5,-406 488.88,-360.55 523.34,-317.85 557.08,-282.92"/>
<polygon fill="none" stroke="#63b8ff" points="557.06,-282.94 558.41,-275.86 565.47,-274.38 564.12,-281.47 557.06,-282.94"/>
</a>
</g>
<text text-anchor="start" x="467.5" y="-462.5" font-family="Helvetica,sans-Serif" font-size="10.00" fill="grey"> &#45;splashscreenvboxCenterhbox</text>
<text text-anchor="middle" x="560.5" y="-450.5" font-family="Helvetica,sans-Serif" font-size="10.00" fill="grey">Regionflowersvg</text>
<text text-anchor="start" x="467.5" y="-438.5" font-family="Helvetica,sans-Serif" font-size="10.00" fill="grey">&#45;splashscreenvboxCenterhbox</text>
<text text-anchor="middle" x="560.5" y="-426.5" font-family="Helvetica,sans-Serif" font-size="10.00" fill="grey">Regiontextsvg</text>
<text text-anchor="middle" x="560.5" y="-414.5" font-family="Helvetica,sans-Serif" font-size="10.00" fill="grey">&#45;splashscreenvboxTophboxRegionsudosvg</text>
</g>
<!-- Node6 -->
<g id="Node000006" class="node">
<title>Node6</title>
<g id="a_Node000006"><a xlink:title=" ">
<polygon fill="white" stroke="none" points="672.75,-562 642.25,-562 642.25,-510 672.75,-510 672.75,-562"/>
<text text-anchor="start" x="646.25" y="-548.5" font-family="Helvetica,sans-Serif" font-size="10.00">Pane</text>
<text text-anchor="start" x="656" y="-532.5" font-family="Helvetica,sans-Serif" font-size="10.00"> </text>
<text text-anchor="start" x="656" y="-516.5" font-family="Helvetica,sans-Serif" font-size="10.00"> </text>
<polygon fill="#666666" stroke="#666666" points="642.25,-544 642.25,-544 672.75,-544 672.75,-544 642.25,-544"/>
<polygon fill="#666666" stroke="#666666" points="642.25,-528 642.25,-528 672.75,-528 672.75,-528 642.25,-528"/>
<polygon fill="none" stroke="#666666" points="642.25,-510 642.25,-562 672.75,-562 672.75,-510 642.25,-510"/>
</a>
</g>
</g>
<!-- Node6&#45;&gt;Node1 -->
<g id="edge5_Node000001_Node000006" class="edge">
<title>Node6&#45;&gt;Node1</title>
<g id="a_edge5_Node000001_Node000006"><a xlink:title=" ">
<path fill="none" stroke="#63b8ff" d="M657.5,-510.27C657.5,-485.46 657.5,-444.69 657.5,-400.56"/>
<polygon fill="none" stroke="#63b8ff" points="657.5,-400.63 653.5,-394.63 657.5,-388.63 661.5,-394.63 657.5,-400.63"/>
</a>
</g>
<text text-anchor="middle" x="728.38" y="-438.5" font-family="Helvetica,sans-Serif" font-size="10.00" fill="grey"> &#45;splashScreenvboxtophboxpane</text>
</g>
<!-- Node7 -->
<g id="Node000007" class="node">
<title>Node7</title>
<g id="a_Node000007"><a xlink:title=" ">
<polygon fill="white" stroke="none" points="838.12,-562 806.88,-562 806.88,-510 838.12,-510 838.12,-562"/>
<text text-anchor="start" x="810.88" y="-548.5" font-family="Helvetica,sans-Serif" font-size="10.00">Label</text>
<text text-anchor="start" x="821" y="-532.5" font-family="Helvetica,sans-Serif" font-size="10.00"> </text>
<text text-anchor="start" x="821" y="-516.5" font-family="Helvetica,sans-Serif" font-size="10.00"> </text>
<polygon fill="#666666" stroke="#666666" points="806.88,-544 806.88,-544 838.12,-544 838.12,-544 806.88,-544"/>
<polygon fill="#666666" stroke="#666666" points="806.88,-528 806.88,-528 838.12,-528 838.12,-528 806.88,-528"/>
<polygon fill="none" stroke="#666666" points="806.88,-510 806.88,-562 838.12,-562 838.12,-510 806.88,-510"/>
</a>
</g>
</g>
<!-- Node7&#45;&gt;Node1 -->
<g id="edge6_Node000001_Node000007" class="edge">
<title>Node7&#45;&gt;Node1</title>
<g id="a_edge6_Node000001_Node000007"><a xlink:title=" ">
<path fill="none" stroke="#63b8ff" d="M821.4,-510.39C819.52,-483.79 814.4,-440.57 800.5,-406 789.04,-377.49 773.27,-348.93 756.39,-322.43"/>
<polygon fill="none" stroke="#63b8ff" points="756.38,-322.42 749.76,-319.57 749.84,-312.36 756.46,-315.21 756.38,-322.42"/>
</a>
</g>
<text text-anchor="start" x="817.62" y="-468.5" font-family="Helvetica,sans-Serif" font-size="10.00" fill="grey"> &#45;splashscreenvboxBottomhbox</text>
<text text-anchor="middle" x="904.62" y="-456.5" font-family="Helvetica,sans-Serif" font-size="10.00" fill="grey">HboxLoaderlabel</text>
<text text-anchor="start" x="817.62" y="-444.5" font-family="Helvetica,sans-Serif" font-size="10.00" fill="grey">&#45;splashscreenvboxBottomhbox</text>
<text text-anchor="middle" x="904.62" y="-432.5" font-family="Helvetica,sans-Serif" font-size="10.00" fill="grey">Versionlabel</text>
<text text-anchor="middle" x="904.62" y="-420.5" font-family="Helvetica,sans-Serif" font-size="10.00" fill="grey">&#45;splashscreenvboxBottomhboxYearlabel</text>
<text text-anchor="middle" x="904.62" y="-408.5" font-family="Helvetica,sans-Serif" font-size="10.00" fill="grey">&#45;splashscreenvboxTophboxNamelabel</text>
</g>
<!-- Node8 -->
<g id="Node000008" class="node">
<title>Node8</title>
<g id="a_Node000008"><a xlink:title=" ">
<polygon fill="white" stroke="none" points="1036.25,-562 1002.75,-562 1002.75,-510 1036.25,-510 1036.25,-562"/>
<text text-anchor="start" x="1006.75" y="-548.5" font-family="Helvetica,sans-Serif" font-size="10.00">Stage</text>
<text text-anchor="start" x="1018" y="-532.5" font-family="Helvetica,sans-Serif" font-size="10.00"> </text>
<text text-anchor="start" x="1018" y="-516.5" font-family="Helvetica,sans-Serif" font-size="10.00"> </text>
<polygon fill="#666666" stroke="#666666" points="1002.75,-544 1002.75,-544 1036.25,-544 1036.25,-544 1002.75,-544"/>
<polygon fill="#666666" stroke="#666666" points="1002.75,-528 1002.75,-528 1036.25,-528 1036.25,-528 1002.75,-528"/>
<polygon fill="none" stroke="#666666" points="1002.75,-510 1002.75,-562 1036.25,-562 1036.25,-510 1002.75,-510"/>
</a>
</g>
</g>
<!-- Node8&#45;&gt;Node1 -->
<g id="edge7_Node000001_Node000008" class="edge">
<title>Node8&#45;&gt;Node1</title>
<g id="a_edge7_Node000001_Node000008"><a xlink:title=" ">
<path fill="none" stroke="#63b8ff" d="M1020.58,-510.46C1020.61,-482.75 1016.93,-437.43 995.5,-406 938.89,-322.95 837.66,-266.21 760.7,-232.66"/>
<polygon fill="none" stroke="#63b8ff" points="760.91,-232.75 753.82,-234.07 749.88,-228.03 756.97,-226.71 760.91,-232.75"/>
</a>
</g>
<text text-anchor="middle" x="1063.94" y="-438.5" font-family="Helvetica,sans-Serif" font-size="10.00" fill="grey"> &#45;splashScreenStage</text>
</g>
<!-- Node9 -->
<g id="Node000009" class="node">
<title>Node9</title>
<g id="a_Node000009"><a xlink:title=" ">
<polygon fill="white" stroke="none" points="1165.62,-562 1101.38,-562 1101.38,-510 1165.62,-510 1165.62,-562"/>
<text text-anchor="start" x="1105.38" y="-548.5" font-family="Helvetica,sans-Serif" font-size="10.00">DropShadow</text>
<text text-anchor="start" x="1132" y="-532.5" font-family="Helvetica,sans-Serif" font-size="10.00"> </text>
<text text-anchor="start" x="1132" y="-516.5" font-family="Helvetica,sans-Serif" font-size="10.00"> </text>
<polygon fill="#666666" stroke="#666666" points="1101.38,-544 1101.38,-544 1165.62,-544 1165.62,-544 1101.38,-544"/>
<polygon fill="#666666" stroke="#666666" points="1101.38,-528 1101.38,-528 1165.62,-528 1165.62,-528 1101.38,-528"/>
<polygon fill="none" stroke="#666666" points="1101.38,-510 1101.38,-562 1165.62,-562 1165.62,-510 1101.38,-510"/>
</a>
</g>
</g>
<!-- Node9&#45;&gt;Node1 -->
<g id="edge8_Node000001_Node000009" class="edge">
<title>Node9&#45;&gt;Node1</title>
<g id="a_edge8_Node000001_Node000009"><a xlink:title=" ">
<path fill="none" stroke="#63b8ff" d="M1131.97,-510.01C1129.52,-477.22 1123.67,-421.93 1111.5,-406 1026.07,-294.16 867.09,-239.39 761.77,-214.23"/>
<polygon fill="none" stroke="#63b8ff" points="761.77,-214.23 755.02,-216.77 750.08,-211.51 756.83,-208.98 761.77,-214.23"/>
</a>
</g>
<text text-anchor="middle" x="1158.71" y="-438.5" font-family="Helvetica,sans-Serif" font-size="10.00" fill="grey"> &#45;dropShadow</text>
</g>
<!-- Node10 -->
<g id="Node000010" class="node">
<title>Node10</title>
<g id="a_Node000010"><a xlink:title=" ">
<polygon fill="white" stroke="none" points="1234.38,-562 1198.62,-562 1198.62,-510 1234.38,-510 1234.38,-562"/>
<text text-anchor="start" x="1202.62" y="-548.5" font-family="Helvetica,sans-Serif" font-size="10.00">Scene</text>
<text text-anchor="start" x="1215" y="-532.5" font-family="Helvetica,sans-Serif" font-size="10.00"> </text>
<text text-anchor="start" x="1215" y="-516.5" font-family="Helvetica,sans-Serif" font-size="10.00"> </text>
<polygon fill="#666666" stroke="#666666" points="1198.62,-544 1198.62,-544 1234.38,-544 1234.38,-544 1198.62,-544"/>
<polygon fill="#666666" stroke="#666666" points="1198.62,-528 1198.62,-528 1234.38,-528 1234.38,-528 1198.62,-528"/>
<polygon fill="none" stroke="#666666" points="1198.62,-510 1198.62,-562 1234.38,-562 1234.38,-510 1198.62,-510"/>
</a>
</g>
</g>
<!-- Node10&#45;&gt;Node1 -->
<g id="edge9_Node000001_Node000010" class="edge">
<title>Node10&#45;&gt;Node1</title>
<g id="a_edge9_Node000001_Node000010"><a xlink:title=" ">
<path fill="none" stroke="#63b8ff" d="M1218.57,-510.22C1219.57,-481.86 1216.85,-435.53 1192.5,-406 1084.68,-275.24 884.63,-225.12 762.06,-206.19"/>
<polygon fill="none" stroke="#63b8ff" points="762.11,-206.19 755.58,-209.26 750.24,-204.42 756.76,-201.35 762.11,-206.19"/>
</a>
</g>
<text text-anchor="middle" x="1233.83" y="-438.5" font-family="Helvetica,sans-Serif" font-size="10.00" fill="grey"> &#45;scene</text>
</g>
</g>
</svg>

<g id="navigator" transform="translate(0 0)" fill="#404254">
  <rect fill="#f2f5e9" fill-opacity="0.5" stroke="#606060" stroke-width=".5" x="0" y="0" width="60" height="60"/>
  <use id="zoomplus" xlink:href="#zoomPlus" x="17" y="9" onmousedown="handleZoom(evt,'in')"/>
  <use id="zoomminus" xlink:href="#zoomMin" x="42" y="9" onmousedown="handleZoom(evt,'out')"/>
  <use id="reset" xlink:href="#resetDef" x="30" y="36" onmousedown="handleReset()"/>
   <use id="arrowup" xlink:href="#arrowUp" x="0" y="0" onmousedown="handlePan(0,-1)"/>
  <use id="arrowright" xlink:href="#arrowRight" x="0" y="0" onmousedown="handlePan(1,0)"/>
  <use id="arrowdown" xlink:href="#arrowDown" x="0" y="0" onmousedown="handlePan(0,1)"/>
  <use id="arrowleft" xlink:href="#arrowLeft" x="0" y="0" onmousedown="handlePan(-1,0)"/>
</g>
<svg viewBox="0 0 15 15" width="100%" height="30px" preserveAspectRatio="xMaxYMin meet">
 <g id="arrow_out" transform="scale(0.3 0.3)">
  <a xlink:href="classfr_1_1softsf_1_1sudofx2024_1_1view_1_1_splash_screen_view__coll__graph_org.svg" target="_base">
   <rect id="button" ry="5" rx="5" y="6" x="6" height="38" width="38"
        fill="#f2f5e9" fill-opacity="0.5" stroke="#606060" stroke-width="1.0"/>
   <path id="arrow"
     d="M 11.500037,31.436501 C 11.940474,20.09759 22.043105,11.32322 32.158766,21.979434 L 37.068811,17.246167 C 37.068811,17.246167 37.088388,32 37.088388,32 L 22.160133,31.978069 C 22.160133,31.978069 26.997745,27.140456 26.997745,27.140456 C 18.528582,18.264221 13.291696,25.230495 11.500037,31.436501 z"
     style="fill:#404040;"/>
  </a>
 </g>
</svg>

<style type='text/css'>
<![CDATA[
[data-mouse-over-selected='false'] { opacity: 0.7; }
[data-mouse-over-selected='true']  { opacity: 1.0; }
]]>
</style>
<script type="application/ecmascript"><![CDATA[
document.addEventListener('DOMContentLoaded', (event) => {
  highlightEdges();
  highlightAdjacentNodes();
});
]]></script>
</svg>
