<?xml version="1.0" encoding="UTF-8" standalone="no"?>
<!DOCTYPE svg PUBLIC "-//W3C//DTD SVG 1.1//EN"
 "http://www.w3.org/Graphics/SVG/1.1/DTD/svg11.dtd">
<!-- Generated by graphviz version 12.2.0 (20241103.1931)
 -->
<!-- Title: fr.softsf.sudokufx.utils.database.keystore.SecretKeyEncryptionServiceAESGCM Pages: 1 -->
<svg width="371pt" height="292pt"
 viewBox="0.00 0.00 371.38 292.00" xmlns="http://www.w3.org/2000/svg" xmlns:xlink="http://www.w3.org/1999/xlink">

<svg id="main" version="1.1" xmlns="http://www.w3.org/2000/svg" xmlns:xlink="http://www.w3.org/1999/xlink" xml:space="preserve">

<style type="text/css"><![CDATA[
.node, .edge {opacity: 0.7;}
.node.selected, .edge.selected {opacity: 1;}
.edge:hover path { stroke: red; }
.edge:hover polygon { stroke: red; fill: red; }
]]></style>
<script type="application/ecmascript" xlink:href="svg.min.js"/>
<svg id="graph" class="graph">
<g id="graph0" class="graph" transform="scale(1 1) rotate(0) translate(4 288)">
<title>fr.softsf.sudokufx.utils.database.keystore.SecretKeyEncryptionServiceAESGCM</title>
<!-- Node1 -->
<g id="Node000001" class="node">
<title>Node1</title>
<g id="a_Node000001"><a xlink:title="Implementation of the ApplicationKeystore.IEncryptionService interface using AES&#45;GCM (Galois/Counter ...">
<polygon fill="#999999" stroke="none" points="310.5,-132 118.75,-132 118.75,0 310.5,0 310.5,-132"/>
<text text-anchor="start" x="122.75" y="-118.5" font-family="Helvetica,sans-Serif" font-size="10.00">fr.softsf.sudokufx.utils.database.keystore.</text>
<text text-anchor="start" x="130.25" y="-106.5" font-family="Helvetica,sans-Serif" font-size="10.00">SecretKeyEncryptionServiceAESGCM</text>
<text text-anchor="start" x="213.12" y="-90.5" font-family="Helvetica,sans-Serif" font-size="10.00"> </text>
<text text-anchor="start" x="123.62" y="-74.5" font-family="Helvetica,sans-Serif" font-size="10.00">+</text>
<text text-anchor="start" x="134.5" y="-74.5" font-family="Helvetica,sans-Serif" font-size="10.00">SecretKeyEncryptionService</text>
<text text-anchor="start" x="134.5" y="-62.5" font-family="Helvetica,sans-Serif" font-size="10.00">AESGCM(final SecretKey secretKeyP)</text>
<text text-anchor="start" x="123.62" y="-46.5" font-family="Helvetica,sans-Serif" font-size="10.00">+</text>
<text text-anchor="start" x="134.5" y="-46.5" font-family="Helvetica,sans-Serif" font-size="10.00">String decrypt(@NotBlank</text>
<text text-anchor="start" x="134.5" y="-34.5" font-family="Helvetica,sans-Serif" font-size="10.00"> final String cypher)</text>
<text text-anchor="start" x="123.62" y="-18.5" font-family="Helvetica,sans-Serif" font-size="10.00">+</text>
<text text-anchor="start" x="134.5" y="-18.5" font-family="Helvetica,sans-Serif" font-size="10.00">String encrypt(@NotBlank</text>
<text text-anchor="start" x="134.5" y="-6.5" font-family="Helvetica,sans-Serif" font-size="10.00"> final String original)</text>
<polygon fill="#666666" stroke="#666666" points="118.75,-102 118.75,-102 310.5,-102 310.5,-102 118.75,-102"/>
<polygon fill="#666666" stroke="#666666" points="118.75,-86 118.75,-86 310.5,-86 310.5,-86 118.75,-86"/>
<polygon fill="none" stroke="#666666" points="118.75,0 118.75,-132 310.5,-132 310.5,0 118.75,0"/>
</a>
</g>
</g>
<!-- Node2 -->
<g id="Node000002" class="node">
<title>Node2</title>
<g id="a_Node000002"><a xlink:href="interfacefr_1_1softsf_1_1sudokufx_1_1interfaces_1_1_i_encryption_service.html" target="_top" xlink:title=" ">
<polygon fill="white" stroke="none" points="133.25,-284 0,-284 0,-180 133.25,-180 133.25,-284"/>
<text text-anchor="start" x="4" y="-270.5" font-family="Helvetica,sans-Serif" font-size="10.00">fr.softsf.sudokufx.interfaces.</text>
<text text-anchor="start" x="25.38" y="-258.5" font-family="Helvetica,sans-Serif" font-size="10.00">IEncryptionService</text>
<text text-anchor="start" x="65.12" y="-242.5" font-family="Helvetica,sans-Serif" font-size="10.00"> </text>
<text text-anchor="start" x="10.5" y="-226.5" font-family="Helvetica,sans-Serif" font-size="10.00">+</text>
<text text-anchor="start" x="27" y="-226.5" font-family="Helvetica,sans-Serif" font-size="10.00">String decrypt(String</text>
<text text-anchor="start" x="27" y="-214.5" font-family="Helvetica,sans-Serif" font-size="10.00"> cypher)</text>
<text text-anchor="start" x="10.5" y="-198.5" font-family="Helvetica,sans-Serif" font-size="10.00">+</text>
<text text-anchor="start" x="27" y="-198.5" font-family="Helvetica,sans-Serif" font-size="10.00">String encrypt(String</text>
<text text-anchor="start" x="27" y="-186.5" font-family="Helvetica,sans-Serif" font-size="10.00"> original)</text>
<polygon fill="#666666" stroke="#666666" points="0,-254 0,-254 133.25,-254 133.25,-254 0,-254"/>
<polygon fill="#666666" stroke="#666666" points="0,-238 0,-238 133.25,-238 133.25,-238 0,-238"/>
<polygon fill="none" stroke="#666666" points="0,-180 0,-284 133.25,-284 133.25,-180 0,-180"/>
</a>
</g>
</g>
<!-- Node2&#45;&gt;Node1 -->
<g id="edge1_Node000001_Node000002" class="edge">
<title>Node2&#45;&gt;Node1</title>
<g id="a_edge1_Node000001_Node000002"><a xlink:title=" ">
<path fill="none" stroke="#63b8ff" d="M120.18,-171.65C131.84,-158.73 144.24,-144.99 156.08,-131.87"/>
<polygon fill="none" stroke="#63b8ff" points="117.76,-169.12 113.66,-178.88 122.95,-173.81 117.76,-169.12"/>
</a>
</g>
</g>
<!-- Node3 -->
<g id="Node000003" class="node">
<title>Node3</title>
<g id="a_Node000003"><a xlink:title=" ">
<polygon fill="white" stroke="none" points="205.5,-258 151.75,-258 151.75,-206 205.5,-206 205.5,-258"/>
<text text-anchor="start" x="155.75" y="-244.5" font-family="Helvetica,sans-Serif" font-size="10.00">SecretKey</text>
<text text-anchor="start" x="177.12" y="-228.5" font-family="Helvetica,sans-Serif" font-size="10.00"> </text>
<text text-anchor="start" x="177.12" y="-212.5" font-family="Helvetica,sans-Serif" font-size="10.00"> </text>
<polygon fill="#666666" stroke="#666666" points="151.75,-240 151.75,-240 205.5,-240 205.5,-240 151.75,-240"/>
<polygon fill="#666666" stroke="#666666" points="151.75,-224 151.75,-224 205.5,-224 205.5,-224 151.75,-224"/>
<polygon fill="none" stroke="#666666" points="151.75,-206 151.75,-258 205.5,-258 205.5,-206 151.75,-206"/>
</a>
</g>
</g>
<!-- Node3&#45;&gt;Node1 -->
<g id="edge2_Node000001_Node000003" class="edge">
<title>Node3&#45;&gt;Node1</title>
<g id="a_edge2_Node000001_Node000003"><a xlink:title=" ">
<path fill="none" stroke="#63b8ff" d="M176.37,-206.28C175.51,-190.09 175.5,-168.59 179.38,-150 179.76,-148.13 180.2,-146.25 180.67,-144.37"/>
<polygon fill="none" stroke="#63b8ff" points="180.68,-144.32 178.51,-137.44 184.01,-132.79 186.19,-139.66 180.68,-144.32"/>
</a>
</g>
<text text-anchor="middle" x="204.5" y="-152.5" font-family="Helvetica,sans-Serif" font-size="10.00" fill="grey"> &#45;secretKey</text>
</g>
<!-- Node4 -->
<g id="Node000004" class="node">
<title>Node4</title>
<g id="a_Node000004"><a xlink:title=" ">
<polygon fill="white" stroke="none" points="269.88,-258 233.38,-258 233.38,-206 269.88,-206 269.88,-258"/>
<text text-anchor="start" x="237.38" y="-244.5" font-family="Helvetica,sans-Serif" font-size="10.00">Cipher</text>
<text text-anchor="start" x="250.12" y="-228.5" font-family="Helvetica,sans-Serif" font-size="10.00"> </text>
<text text-anchor="start" x="250.12" y="-212.5" font-family="Helvetica,sans-Serif" font-size="10.00"> </text>
<polygon fill="#666666" stroke="#666666" points="233.38,-240 233.38,-240 269.88,-240 269.88,-240 233.38,-240"/>
<polygon fill="#666666" stroke="#666666" points="233.38,-224 233.38,-224 269.88,-224 269.88,-224 233.38,-224"/>
<polygon fill="none" stroke="#666666" points="233.38,-206 233.38,-258 269.88,-258 269.88,-206 233.38,-206"/>
</a>
</g>
</g>
<!-- Node4&#45;&gt;Node1 -->
<g id="edge3_Node000001_Node000004" class="edge">
<title>Node4&#45;&gt;Node1</title>
<g id="a_edge3_Node000001_Node000004"><a xlink:title=" ">
<path fill="none" stroke="#63b8ff" d="M246.01,-206.09C242.27,-189.54 237.14,-166.82 232.12,-144.54"/>
<polygon fill="none" stroke="#63b8ff" points="232.1,-144.47 226.88,-139.5 229.46,-132.76 234.68,-137.74 232.1,-144.47"/>
</a>
</g>
<text text-anchor="middle" x="251.47" y="-152.5" font-family="Helvetica,sans-Serif" font-size="10.00" fill="grey"> &#45;cipher</text>
</g>
<!-- Node5 -->
<g id="Node000005" class="node">
<title>Node5</title>
<g id="a_Node000005"><a xlink:title=" ">
<polygon fill="white" stroke="none" points="363.38,-258 287.88,-258 287.88,-206 363.38,-206 363.38,-258"/>
<text text-anchor="start" x="291.88" y="-244.5" font-family="Helvetica,sans-Serif" font-size="10.00">SecureRandom</text>
<text text-anchor="start" x="324.12" y="-228.5" font-family="Helvetica,sans-Serif" font-size="10.00"> </text>
<text text-anchor="start" x="324.12" y="-212.5" font-family="Helvetica,sans-Serif" font-size="10.00"> </text>
<polygon fill="#666666" stroke="#666666" points="287.88,-240 287.88,-240 363.38,-240 363.38,-240 287.88,-240"/>
<polygon fill="#666666" stroke="#666666" points="287.88,-224 287.88,-224 363.38,-224 363.38,-224 287.88,-224"/>
<polygon fill="none" stroke="#666666" points="287.88,-206 287.88,-258 363.38,-258 363.38,-206 287.88,-206"/>
</a>
</g>
</g>
<!-- Node5&#45;&gt;Node1 -->
<g id="edge4_Node000001_Node000005" class="edge">
<title>Node5&#45;&gt;Node1</title>
<g id="a_edge4_Node000001_Node000005"><a xlink:title=" ">
<path fill="none" stroke="#63b8ff" d="M309.17,-206.13C298.52,-190.07 284.32,-168.76 271.62,-150 269.93,-147.5 268.2,-144.95 266.46,-142.38"/>
<polygon fill="none" stroke="#63b8ff" points="266.47,-142.4 259.79,-139.69 259.72,-132.48 266.4,-135.19 266.47,-142.4"/>
</a>
</g>
<text text-anchor="middle" x="298.15" y="-152.5" font-family="Helvetica,sans-Serif" font-size="10.00" fill="grey"> &#45;random</text>
</g>
</g>
</svg>
</svg>

<style type='text/css'>
<![CDATA[
[data-mouse-over-selected='false'] { opacity: 0.7; }
[data-mouse-over-selected='true']  { opacity: 1.0; }
]]>
</style>
<script type="application/ecmascript"><![CDATA[
document.addEventListener('DOMContentLoaded', (event) => {
  highlightEdges();
  highlightAdjacentNodes();
});
]]></script>
</svg>
