<?xml version="1.0" encoding="UTF-8" standalone="no"?>
<!DOCTYPE svg PUBLIC "-//W3C//DTD SVG 1.1//EN"
 "http://www.w3.org/Graphics/SVG/1.1/DTD/svg11.dtd">
<!-- Generated by graphviz version 12.2.0 (20241103.1931)
 -->
<!-- Title: fr.softsf.sudokufx.service.FxmlService Pages: 1 -->
<svg width="349pt" height="412pt"
 viewBox="0.00 0.00 349.38 412.00" xmlns="http://www.w3.org/2000/svg" xmlns:xlink="http://www.w3.org/1999/xlink">

<svg id="main" version="1.1" xmlns="http://www.w3.org/2000/svg" xmlns:xlink="http://www.w3.org/1999/xlink" xml:space="preserve">

<style type="text/css"><![CDATA[
.node, .edge {opacity: 0.7;}
.node.selected, .edge.selected {opacity: 1;}
.edge:hover path { stroke: red; }
.edge:hover polygon { stroke: red; fill: red; }
]]></style>
<script type="application/ecmascript" xlink:href="svg.min.js"/>
<svg id="graph" class="graph">
<g id="graph0" class="graph" transform="scale(1 1) rotate(0) translate(4 408)">
<title>fr.softsf.sudokufx.service.FxmlService</title>
<!-- Node1 -->
<g id="Node000001" class="node">
<title>Node1</title>
<g id="a_Node000001"><a xlink:title="FxmlService is a Spring service that manages the loading of FXML files and updating the root of the J...">
<polygon fill="#999999" stroke="none" points="248.38,-136 108.88,-136 108.88,0 248.38,0 248.38,-136"/>
<text text-anchor="start" x="121.62" y="-122.5" font-family="Helvetica,sans-Serif" font-size="10.00">fr.softsf.sudokufx.service.</text>
<text text-anchor="start" x="151.25" y="-110.5" font-family="Helvetica,sans-Serif" font-size="10.00">FxmlService</text>
<text text-anchor="start" x="177.12" y="-94.5" font-family="Helvetica,sans-Serif" font-size="10.00"> </text>
<text text-anchor="start" x="112.88" y="-78.5" font-family="Helvetica,sans-Serif" font-size="10.00">+</text>
<text text-anchor="start" x="122.88" y="-78.5" font-family="Helvetica,sans-Serif" font-size="10.00">FxmlService(FXMLLoader</text>
<text text-anchor="start" x="122.88" y="-66.5" font-family="Helvetica,sans-Serif" font-size="10.00"> fxmlLoader)</text>
<text text-anchor="start" x="112.88" y="-50.5" font-family="Helvetica,sans-Serif" font-size="10.00">+</text>
<text text-anchor="start" x="122.88" y="-50.5" font-family="Helvetica,sans-Serif" font-size="10.00">void setDynamicFontSize()</text>
<text text-anchor="start" x="112.88" y="-34.5" font-family="Helvetica,sans-Serif" font-size="10.00">+</text>
<text text-anchor="start" x="122.88" y="-34.5" font-family="Helvetica,sans-Serif" font-size="10.00">void setRootByFXMLName</text>
<text text-anchor="start" x="122.88" y="-22.5" font-family="Helvetica,sans-Serif" font-size="10.00">(final String fxml)</text>
<text text-anchor="start" x="112.88" y="-6.5" font-family="Helvetica,sans-Serif" font-size="10.00">~</text>
<text text-anchor="start" x="122.88" y="-6.5" font-family="Helvetica,sans-Serif" font-size="10.00">public&lt; T &gt; T getController()</text>
<polygon fill="#666666" stroke="#666666" points="108.88,-106 108.88,-106 248.38,-106 248.38,-106 108.88,-106"/>
<polygon fill="#666666" stroke="#666666" points="108.88,-90 108.88,-90 248.38,-90 248.38,-90 108.88,-90"/>
<polygon fill="none" stroke="#666666" points="108.88,0 108.88,-136 248.38,-136 248.38,0 108.88,0"/>
</a>
</g>
</g>
<!-- Node2 -->
<g id="Node000002" class="node">
<title>Node2</title>
<g id="a_Node000002"><a xlink:href="interfacefr_1_1softsf_1_1sudokufx_1_1interfaces_1_1_i_scene_provider.html" target="_top" xlink:title="Interface ISceneProvider.">
<polygon fill="white" stroke="none" points="133.25,-404 0,-404 0,-340 133.25,-340 133.25,-404"/>
<text text-anchor="start" x="4" y="-390.5" font-family="Helvetica,sans-Serif" font-size="10.00">fr.softsf.sudokufx.interfaces.</text>
<text text-anchor="start" x="33.25" y="-378.5" font-family="Helvetica,sans-Serif" font-size="10.00">ISceneProvider</text>
<text text-anchor="start" x="65.12" y="-362.5" font-family="Helvetica,sans-Serif" font-size="10.00"> </text>
<text text-anchor="start" x="5.25" y="-346.5" font-family="Helvetica,sans-Serif" font-size="10.00">+</text>
<text text-anchor="start" x="16.5" y="-346.5" font-family="Helvetica,sans-Serif" font-size="10.00">default Scene getScene()</text>
<polygon fill="#666666" stroke="#666666" points="0,-374 0,-374 133.25,-374 133.25,-374 0,-374"/>
<polygon fill="#666666" stroke="#666666" points="0,-358 0,-358 133.25,-358 133.25,-358 0,-358"/>
<polygon fill="none" stroke="#666666" points="0,-340 0,-404 133.25,-404 133.25,-340 0,-340"/>
</a>
</g>
</g>
<!-- Node2&#45;&gt;Node1 -->
<g id="edge1_Node000001_Node000002" class="edge">
<title>Node2&#45;&gt;Node1</title>
<g id="a_edge1_Node000001_Node000002"><a xlink:title=" ">
<path fill="none" stroke="#63b8ff" d="M54.06,-329.08C44.65,-289.89 36.51,-230.59 56.62,-184 67.87,-157.94 88.25,-135.05 109.17,-116.7"/>
<polygon fill="none" stroke="#63b8ff" points="50.62,-329.77 56.48,-338.59 57.4,-328.04 50.62,-329.77"/>
</a>
</g>
</g>
<!-- Node5 -->
<g id="Node000005" class="node">
<title>Node5</title>
<g id="a_Node000005"><a xlink:href="classfr_1_1softsf_1_1sudokufx_1_1utils_1_1_dynamic_font_size.html" target="_top" xlink:title="Manages dynamic font sizing based on the dimensions of a JavaFX Scene.">
<polygon fill="white" stroke="none" points="192,-292 65.25,-292 65.25,-184 192,-184 192,-292"/>
<text text-anchor="start" x="78.38" y="-278.5" font-family="Helvetica,sans-Serif" font-size="10.00">fr.softsf.sudokufx.utils.</text>
<text text-anchor="start" x="89.62" y="-266.5" font-family="Helvetica,sans-Serif" font-size="10.00">DynamicFontSize</text>
<text text-anchor="start" x="70.75" y="-250.5" font-family="Helvetica,sans-Serif" font-size="10.00">&#45;</text>
<text text-anchor="start" x="79.25" y="-250.5" font-family="Helvetica,sans-Serif" font-size="10.00">double currentFontSize</text>
<text text-anchor="start" x="69.25" y="-234.5" font-family="Helvetica,sans-Serif" font-size="10.00">+</text>
<text text-anchor="start" x="79.25" y="-234.5" font-family="Helvetica,sans-Serif" font-size="10.00">DynamicFontSize()</text>
<text text-anchor="start" x="69.25" y="-218.5" font-family="Helvetica,sans-Serif" font-size="10.00">+</text>
<text text-anchor="start" x="79.25" y="-218.5" font-family="Helvetica,sans-Serif" font-size="10.00">void updateFontSize()</text>
<text text-anchor="start" x="69.25" y="-202.5" font-family="Helvetica,sans-Serif" font-size="10.00">~</text>
<text text-anchor="start" x="79.25" y="-202.5" font-family="Helvetica,sans-Serif" font-size="10.00">DynamicFontSize(Scene</text>
<text text-anchor="start" x="79.25" y="-190.5" font-family="Helvetica,sans-Serif" font-size="10.00"> scene)</text>
<polygon fill="#666666" stroke="#666666" points="65.25,-262 65.25,-262 192,-262 192,-262 65.25,-262"/>
<polygon fill="#666666" stroke="#666666" points="65.25,-246 65.25,-246 77.25,-246 77.25,-246 65.25,-246"/>
<polygon fill="#666666" stroke="#666666" points="77.25,-246 77.25,-246 192,-246 192,-246 77.25,-246"/>
<polygon fill="none" stroke="#666666" points="65.25,-184 65.25,-292 192,-292 192,-184 65.25,-184"/>
</a>
</g>
</g>
<!-- Node2&#45;&gt;Node5 -->
<g id="edge5_Node000005_Node000002" class="edge">
<title>Node2&#45;&gt;Node5</title>
<g id="a_edge5_Node000005_Node000002"><a xlink:title=" ">
<path fill="none" stroke="#63b8ff" d="M85.94,-329.89C91.57,-317.88 97.81,-304.6 103.74,-291.97"/>
<polygon fill="none" stroke="#63b8ff" points="82.89,-328.14 81.8,-338.68 89.22,-331.12 82.89,-328.14"/>
</a>
</g>
</g>
<!-- Node3 -->
<g id="Node000003" class="node">
<title>Node3</title>
<g id="a_Node000003"><a xlink:title=" ">
<polygon fill="white" stroke="none" points="216.5,-398 180.75,-398 180.75,-346 216.5,-346 216.5,-398"/>
<text text-anchor="start" x="184.75" y="-384.5" font-family="Helvetica,sans-Serif" font-size="10.00">Scene</text>
<text text-anchor="start" x="197.12" y="-368.5" font-family="Helvetica,sans-Serif" font-size="10.00"> </text>
<text text-anchor="start" x="197.12" y="-352.5" font-family="Helvetica,sans-Serif" font-size="10.00"> </text>
<polygon fill="#666666" stroke="#666666" points="180.75,-380 180.75,-380 216.5,-380 216.5,-380 180.75,-380"/>
<polygon fill="#666666" stroke="#666666" points="180.75,-364 180.75,-364 216.5,-364 216.5,-364 180.75,-364"/>
<polygon fill="none" stroke="#666666" points="180.75,-346 180.75,-398 216.5,-398 216.5,-346 180.75,-346"/>
</a>
</g>
</g>
<!-- Node3&#45;&gt;Node1 -->
<g id="edge2_Node000001_Node000003" class="edge">
<title>Node3&#45;&gt;Node1</title>
<g id="a_edge2_Node000001_Node000003"><a xlink:title=" ">
<path fill="none" stroke="#63b8ff" d="M204.5,-346.33C213.24,-305.79 227.22,-222.72 213.62,-154 213.26,-152.14 212.85,-150.27 212.4,-148.4"/>
<polygon fill="none" stroke="#63b8ff" points="212.41,-148.43 206.96,-143.71 209.22,-136.86 214.67,-141.58 212.41,-148.43"/>
</a>
</g>
<text text-anchor="middle" x="235.42" y="-234.5" font-family="Helvetica,sans-Serif" font-size="10.00" fill="grey"> &#45;scene</text>
</g>
<!-- Node3&#45;&gt;Node5 -->
<g id="edge6_Node000005_Node000003" class="edge">
<title>Node3&#45;&gt;Node5</title>
<g id="a_edge6_Node000005_Node000003"><a xlink:title=" ">
<path fill="none" stroke="#63b8ff" d="M185.46,-346.17C178.93,-333.85 170.7,-318.35 162.56,-302.99"/>
<polygon fill="none" stroke="#63b8ff" points="162.71,-303.27 156.36,-299.85 157.09,-292.67 163.43,-296.1 162.71,-303.27"/>
</a>
</g>
<text text-anchor="middle" x="188.08" y="-312.5" font-family="Helvetica,sans-Serif" font-size="10.00" fill="grey"> &#45;scene</text>
</g>
<!-- Node4 -->
<g id="Node000004" class="node">
<title>Node4</title>
<g id="a_Node000004"><a xlink:title=" ">
<polygon fill="white" stroke="none" points="341.38,-264 277.88,-264 277.88,-212 341.38,-212 341.38,-264"/>
<text text-anchor="start" x="281.88" y="-250.5" font-family="Helvetica,sans-Serif" font-size="10.00">FXMLLoader</text>
<text text-anchor="start" x="308.12" y="-234.5" font-family="Helvetica,sans-Serif" font-size="10.00"> </text>
<text text-anchor="start" x="308.12" y="-218.5" font-family="Helvetica,sans-Serif" font-size="10.00"> </text>
<polygon fill="#666666" stroke="#666666" points="277.88,-246 277.88,-246 341.38,-246 341.38,-246 277.88,-246"/>
<polygon fill="#666666" stroke="#666666" points="277.88,-230 277.88,-230 341.38,-230 341.38,-230 277.88,-230"/>
<polygon fill="none" stroke="#666666" points="277.88,-212 277.88,-264 341.38,-264 341.38,-212 277.88,-212"/>
</a>
</g>
</g>
<!-- Node4&#45;&gt;Node1 -->
<g id="edge3_Node000001_Node000004" class="edge">
<title>Node4&#45;&gt;Node1</title>
<g id="a_edge3_Node000001_Node000004"><a xlink:title=" ">
<path fill="none" stroke="#63b8ff" d="M290.3,-212.21C276.53,-194.56 257.24,-169.81 238.55,-145.85"/>
<polygon fill="none" stroke="#63b8ff" points="238.53,-145.82 231.69,-143.55 231.15,-136.36 237.99,-138.63 238.53,-145.82"/>
</a>
</g>
<text text-anchor="middle" x="278.97" y="-156.5" font-family="Helvetica,sans-Serif" font-size="10.00" fill="grey"> &#45;fxmlLoader</text>
</g>
<!-- Node5&#45;&gt;Node1 -->
<g id="edge4_Node000001_Node000005" class="edge">
<title>Node5&#45;&gt;Node1</title>
<g id="a_edge4_Node000001_Node000005"><a xlink:title=" ">
<path fill="none" stroke="#63b8ff" d="M127.03,-184.19C127.75,-174.04 129.21,-163.59 131.88,-154 132.46,-151.88 133.11,-149.76 133.82,-147.63"/>
<polygon fill="none" stroke="#63b8ff" points="133.83,-147.59 132.21,-140.57 138.07,-136.37 139.69,-143.39 133.83,-147.59"/>
</a>
</g>
<text text-anchor="middle" x="172.75" y="-156.5" font-family="Helvetica,sans-Serif" font-size="10.00" fill="grey"> &#45;dynamicFontSize</text>
</g>
</g>
</svg>
</svg>

<style type='text/css'>
<![CDATA[
[data-mouse-over-selected='false'] { opacity: 0.7; }
[data-mouse-over-selected='true']  { opacity: 1.0; }
]]>
</style>
<script type="application/ecmascript"><![CDATA[
document.addEventListener('DOMContentLoaded', (event) => {
  highlightEdges();
  highlightAdjacentNodes();
});
]]></script>
</svg>
