<?xml version="1.0" encoding="UTF-8" standalone="no"?>
<!DOCTYPE svg PUBLIC "-//W3C//DTD SVG 1.1//EN"
 "http://www.w3.org/Graphics/SVG/1.1/DTD/svg11.dtd">
<!-- Generated by graphviz version 12.2.0 (20241103.1931)
 -->
<!-- Title: fr.softsf.sudokufx.utils.I18n Pages: 1 -->
<svg width="219pt" height="324pt"
 viewBox="0.00 0.00 219.49 324.00" xmlns="http://www.w3.org/2000/svg" xmlns:xlink="http://www.w3.org/1999/xlink">
<g id="graph0" class="graph" transform="scale(1 1) rotate(0) translate(4 320)">
<title>fr.softsf.sudokufx.utils.I18n</title>
<!-- Node1 -->
<g id="Node000001" class="node">
<title>Node1</title>
<g id="a_Node000001"><a xlink:title="Utility class for internationalization (i18n) support.">
<polygon fill="#999999" stroke="none" points="162.75,-192 0,-192 0,0 162.75,0 162.75,-192"/>
<text text-anchor="start" x="21.75" y="-178.5" font-family="Helvetica,sans-Serif" font-size="10.00">fr.softsf.sudokufx.utils.I18n</text>
<text text-anchor="start" x="5.5" y="-162.5" font-family="Helvetica,sans-Serif" font-size="10.00">&#45;</text>
<text text-anchor="start" x="14" y="-162.5" font-family="Helvetica,sans-Serif" font-size="10.00">static final String</text>
<text text-anchor="start" x="14" y="-150.5" font-family="Helvetica,sans-Serif" font-size="10.00"> I_18_N_PATH</text>
<text text-anchor="start" x="4" y="-134.5" font-family="Helvetica,sans-Serif" font-size="10.00">+</text>
<text text-anchor="start" x="14" y="-134.5" font-family="Helvetica,sans-Serif" font-size="10.00">static String getHostEnvironment</text>
<text text-anchor="start" x="14" y="-122.5" font-family="Helvetica,sans-Serif" font-size="10.00">LanguageCode()</text>
<text text-anchor="start" x="4" y="-106.5" font-family="Helvetica,sans-Serif" font-size="10.00">+</text>
<text text-anchor="start" x="14" y="-106.5" font-family="Helvetica,sans-Serif" font-size="10.00">static String getLanguage()</text>
<text text-anchor="start" x="4" y="-90.5" font-family="Helvetica,sans-Serif" font-size="10.00">+</text>
<text text-anchor="start" x="14" y="-90.5" font-family="Helvetica,sans-Serif" font-size="10.00">static String getValue</text>
<text text-anchor="start" x="14" y="-78.5" font-family="Helvetica,sans-Serif" font-size="10.00">(final String key)</text>
<text text-anchor="start" x="4" y="-62.5" font-family="Helvetica,sans-Serif" font-size="10.00">+</text>
<text text-anchor="start" x="14" y="-62.5" font-family="Helvetica,sans-Serif" font-size="10.00">static void setLanguageBased</text>
<text text-anchor="start" x="14" y="-50.5" font-family="Helvetica,sans-Serif" font-size="10.00">OnTheHostEnvironment()</text>
<text text-anchor="start" x="4" y="-34.5" font-family="Helvetica,sans-Serif" font-size="10.00">+</text>
<text text-anchor="start" x="14" y="-34.5" font-family="Helvetica,sans-Serif" font-size="10.00">static void setLocaleBundle</text>
<text text-anchor="start" x="14" y="-22.5" font-family="Helvetica,sans-Serif" font-size="10.00">(final String i18n)</text>
<text text-anchor="start" x="5.5" y="-6.5" font-family="Helvetica,sans-Serif" font-size="10.00">&#45;</text>
<text text-anchor="start" x="14" y="-6.5" font-family="Helvetica,sans-Serif" font-size="10.00">I18n()</text>
<polygon fill="#666666" stroke="#666666" points="0,-174 0,-174 162.75,-174 162.75,-174 0,-174"/>
<polygon fill="#666666" stroke="#666666" points="0,-146 0,-146 12,-146 12,-146 0,-146"/>
<polygon fill="#666666" stroke="#666666" points="12,-146 12,-146 162.75,-146 162.75,-146 12,-146"/>
<polygon fill="none" stroke="#666666" points="0,0 0,-192 162.75,-192 162.75,0 0,0"/>
</a>
</g>
</g>
<!-- Node2 -->
<g id="Node000002" class="node">
<title>Node2</title>
<g id="a_Node000002"><a xlink:title=" ">
<polygon fill="white" stroke="none" points="55.62,-316 19.12,-316 19.12,-264 55.62,-264 55.62,-316"/>
<text text-anchor="start" x="23.12" y="-302.5" font-family="Helvetica,sans-Serif" font-size="10.00">Locale</text>
<text text-anchor="start" x="35.88" y="-286.5" font-family="Helvetica,sans-Serif" font-size="10.00"> </text>
<text text-anchor="start" x="35.88" y="-270.5" font-family="Helvetica,sans-Serif" font-size="10.00"> </text>
<polygon fill="#666666" stroke="#666666" points="19.12,-298 19.12,-298 55.62,-298 55.62,-298 19.12,-298"/>
<polygon fill="#666666" stroke="#666666" points="19.12,-282 19.12,-282 55.62,-282 55.62,-282 19.12,-282"/>
<polygon fill="none" stroke="#666666" points="19.12,-264 19.12,-316 55.62,-316 55.62,-264 19.12,-264"/>
</a>
</g>
</g>
<!-- Node2&#45;&gt;Node1 -->
<g id="edge1_Node000001_Node000002" class="edge">
<title>Node2&#45;&gt;Node1</title>
<g id="a_edge1_Node000001_Node000002"><a xlink:title=" ">
<path fill="none" stroke="#63b8ff" d="M35.7,-264.22C35.17,-248.54 35.44,-227.92 38.88,-210 39.23,-208.13 39.62,-206.26 40.03,-204.38"/>
<polygon fill="none" stroke="#63b8ff" points="40.02,-204.43 37.56,-197.65 42.87,-192.77 45.33,-199.55 40.02,-204.43"/>
</a>
</g>
<text text-anchor="middle" x="71.12" y="-230.5" font-family="Helvetica,sans-Serif" font-size="10.00" fill="grey"> &#45;LOCALE_EN</text>
<text text-anchor="middle" x="71.12" y="-218.5" font-family="Helvetica,sans-Serif" font-size="10.00" fill="grey">&#45;LOCALE_FR</text>
</g>
<!-- Node3 -->
<g id="Node000003" class="node">
<title>Node3</title>
<g id="a_Node000003"><a xlink:title=" ">
<polygon fill="white" stroke="none" points="165.38,-316 85.38,-316 85.38,-264 165.38,-264 165.38,-316"/>
<text text-anchor="start" x="89.38" y="-302.5" font-family="Helvetica,sans-Serif" font-size="10.00">ResourceBundle</text>
<text text-anchor="start" x="123.88" y="-286.5" font-family="Helvetica,sans-Serif" font-size="10.00"> </text>
<text text-anchor="start" x="123.88" y="-270.5" font-family="Helvetica,sans-Serif" font-size="10.00"> </text>
<polygon fill="#666666" stroke="#666666" points="85.38,-298 85.38,-298 165.38,-298 165.38,-298 85.38,-298"/>
<polygon fill="#666666" stroke="#666666" points="85.38,-282 85.38,-282 165.38,-282 165.38,-282 85.38,-282"/>
<polygon fill="none" stroke="#666666" points="85.38,-264 85.38,-316 165.38,-316 165.38,-264 85.38,-264"/>
</a>
</g>
</g>
<!-- Node3&#45;&gt;Node1 -->
<g id="edge2_Node000001_Node000003" class="edge">
<title>Node3&#45;&gt;Node1</title>
<g id="a_edge2_Node000001_Node000003"><a xlink:title=" ">
<path fill="none" stroke="#63b8ff" d="M119.71,-264.29C116.09,-248.48 111.11,-226.76 105.94,-204.21"/>
<polygon fill="none" stroke="#63b8ff" points="105.94,-204.2 100.7,-199.24 103.26,-192.5 108.5,-197.46 105.94,-204.2"/>
</a>
</g>
<text text-anchor="middle" x="163.12" y="-236.5" font-family="Helvetica,sans-Serif" font-size="10.00" fill="grey"> &#45;ENGLISH_BUNDLE</text>
<text text-anchor="middle" x="163.12" y="-224.5" font-family="Helvetica,sans-Serif" font-size="10.00" fill="grey">&#45;FRENCH_BUNDLE</text>
<text text-anchor="middle" x="163.12" y="-212.5" font-family="Helvetica,sans-Serif" font-size="10.00" fill="grey">&#45;bundle</text>
</g>
</g>
</svg>
