<?xml version="1.0" encoding="UTF-8" standalone="no"?>
<!DOCTYPE svg PUBLIC "-//W3C//DTD SVG 1.1//EN"
 "http://www.w3.org/Graphics/SVG/1.1/DTD/svg11.dtd">
<!-- Generated by graphviz version 12.2.0 (20241103.1931)
 -->
<!-- Title: fr.softsf.sudokufx.unit.utils.database.keystore.SecretKeyEncryptionServiceAESGCMUTest Pages: 1 -->
<!--zoomable 556 -->

<svg id="main" version="1.1" xmlns="http://www.w3.org/2000/svg" xmlns:xlink="http://www.w3.org/1999/xlink" xml:space="preserve" onload="init(evt)">

<style type="text/css"><![CDATA[
.node, .edge {opacity: 0.7;}
.node.selected, .edge.selected {opacity: 1;}
.edge:hover path { stroke: red; }
.edge:hover polygon { stroke: red; fill: red; }
]]></style>

<defs>
  <circle id="rim" cx="0" cy="0" r="7"/>
  <circle id="rim2" cx="0" cy="0" r="3.5"/>
  <g id="zoomPlus">
    <use xlink:href="#rim" fill="#404040"><set attributeName="fill" to="#808080" begin="zoomplus.mouseover" end="zoomplus.mouseout"/></use>
    <path d="M-4,0h8M0,-4v8" fill="none" stroke="white" stroke-width="1.5" pointer-events="none"/>
  </g>
  <g id="zoomMin">
    <use xlink:href="#rim" fill="#404040"><set attributeName="fill" to="#808080" begin="zoomminus.mouseover" end="zoomminus.mouseout"/></use>
    <path d="M-4,0h8" fill="none" stroke="white" stroke-width="1.5" pointer-events="none"/>
  </g>
  <g id="arrowUp" transform="translate(30 24)">
    <use xlink:href="#rim"/>
    <path pointer-events="none" fill="none" stroke="white" stroke-width="1.5" d="M0,-3.0v7 M-2.5,-0.5L0,-3.0L2.5,-0.5"/>
  </g>
  <g id="arrowRight" transform="rotate(90) translate(36 -43)">
    <use xlink:href="#rim"/>
    <path pointer-events="none" fill="none" stroke="white" stroke-width="1.5" d="M0,-3.0v7 M-2.5,-0.5L0,-3.0L2.5,-0.5"/>
  </g>
  <g id="arrowDown" transform="rotate(180) translate(-30 -48)">
    <use xlink:href="#rim"/>
    <path pointer-events="none" fill="none" stroke="white" stroke-width="1.5" d="M0,-3.0v7 M-2.5,-0.5L0,-3.0L2.5,-0.5"/>
  </g>
  <g id="arrowLeft" transform="rotate(270) translate(-36 17)">
    <use xlink:href="#rim"/>
    <path pointer-events="none" fill="none" stroke="white" stroke-width="1.5" d="M0,-3.0v7 M-2.5,-0.5L0,-3.0L2.5,-0.5"/>
  </g>
  <g id="resetDef">
    <use xlink:href="#rim2" fill="#404040"><set attributeName="fill" to="#808080" begin="reset.mouseover" end="reset.mouseout"/></use>
  </g>
</defs>
<script type="application/ecmascript">
var viewWidth = 517;
var viewHeight = 556;
var sectionId = 'dynsection-0';
</script>
<script type="application/ecmascript" xlink:href="svg.min.js"/>
<svg id="graph" class="graph">
<g id="viewport">
<title>fr.softsf.sudokufx.unit.utils.database.keystore.SecretKeyEncryptionServiceAESGCMUTest</title>
<!-- Node1 -->
<g id="Node000001" class="node">
<title>Node1</title>
<g id="a_Node000001"><a xlink:title=" ">
<polygon fill="#999999" stroke="none" points="436.88,-180 226.38,-180 226.38,0 436.88,0 436.88,-180"/>
<text text-anchor="start" x="230.38" y="-166.5" font-family="Helvetica,sans-Serif" font-size="10.00">fr.softsf.sudokufx.unit.utils.database.keystore.</text>
<text text-anchor="start" x="234.12" y="-154.5" font-family="Helvetica,sans-Serif" font-size="10.00">SecretKeyEncryptionServiceAESGCMUTest</text>
<text text-anchor="start" x="330.12" y="-138.5" font-family="Helvetica,sans-Serif" font-size="10.00"> </text>
<text text-anchor="start" x="248.69" y="-122.5" font-family="Helvetica,sans-Serif" font-size="10.00">~</text>
<text text-anchor="start" x="277" y="-122.5" font-family="Helvetica,sans-Serif" font-size="10.00">void decryptWithLessThan</text>
<text text-anchor="start" x="277" y="-110.5" font-family="Helvetica,sans-Serif" font-size="10.00">TwoBytesCypher_fail()</text>
<text text-anchor="start" x="248.69" y="-94.5" font-family="Helvetica,sans-Serif" font-size="10.00">~</text>
<text text-anchor="start" x="277" y="-94.5" font-family="Helvetica,sans-Serif" font-size="10.00">void encryptDecrypt</text>
<text text-anchor="start" x="277" y="-82.5" font-family="Helvetica,sans-Serif" font-size="10.00">_success()</text>
<text text-anchor="start" x="248.69" y="-66.5" font-family="Helvetica,sans-Serif" font-size="10.00">~</text>
<text text-anchor="start" x="277" y="-66.5" font-family="Helvetica,sans-Serif" font-size="10.00">void encryptWithNullSecret</text>
<text text-anchor="start" x="277" y="-54.5" font-family="Helvetica,sans-Serif" font-size="10.00">Key_fail()</text>
<text text-anchor="start" x="248.69" y="-38.5" font-family="Helvetica,sans-Serif" font-size="10.00">~</text>
<text text-anchor="start" x="277" y="-38.5" font-family="Helvetica,sans-Serif" font-size="10.00">void setup()</text>
<text text-anchor="start" x="248.69" y="-22.5" font-family="Helvetica,sans-Serif" font-size="10.00">~</text>
<text text-anchor="start" x="277" y="-22.5" font-family="Helvetica,sans-Serif" font-size="10.00">void tearDown()</text>
<text text-anchor="start" x="248.69" y="-6.5" font-family="Helvetica,sans-Serif" font-size="10.00">~</text>
<text text-anchor="start" x="277" y="-6.5" font-family="Helvetica,sans-Serif" font-size="10.00">static void setupAll()</text>
<polygon fill="#666666" stroke="#666666" points="226.38,-150 226.38,-150 436.88,-150 436.88,-150 226.38,-150"/>
<polygon fill="#666666" stroke="#666666" points="226.38,-134 226.38,-134 436.88,-134 436.88,-134 226.38,-134"/>
<polygon fill="none" stroke="#666666" points="226.38,0 226.38,-180 436.88,-180 436.88,0 226.38,0"/>
</a>
</g>
</g>
<!-- Node2 -->
<g id="Node000002" class="node">
<title>Node2</title>
<g id="a_Node000002"><a xlink:href="classfr_1_1softsf_1_1sudokufx_1_1utils_1_1database_1_1keystore_1_1_secret_key_encryption_service_a_e_s_g_c_m.html" target="_top" xlink:title="Implementation of the ApplicationKeystore.IEncryptionService interface using AES&#45;GCM (Galois/Counter ...">
<polygon fill="white" stroke="none" points="334.5,-396 142.75,-396 142.75,-264 334.5,-264 334.5,-396"/>
<text text-anchor="start" x="146.75" y="-382.5" font-family="Helvetica,sans-Serif" font-size="10.00">fr.softsf.sudokufx.utils.database.keystore.</text>
<text text-anchor="start" x="154.25" y="-370.5" font-family="Helvetica,sans-Serif" font-size="10.00">SecretKeyEncryptionServiceAESGCM</text>
<text text-anchor="start" x="237.12" y="-354.5" font-family="Helvetica,sans-Serif" font-size="10.00"> </text>
<text text-anchor="start" x="147.62" y="-338.5" font-family="Helvetica,sans-Serif" font-size="10.00">+</text>
<text text-anchor="start" x="158.5" y="-338.5" font-family="Helvetica,sans-Serif" font-size="10.00">SecretKeyEncryptionService</text>
<text text-anchor="start" x="158.5" y="-326.5" font-family="Helvetica,sans-Serif" font-size="10.00">AESGCM(final SecretKey secretKeyP)</text>
<text text-anchor="start" x="147.62" y="-310.5" font-family="Helvetica,sans-Serif" font-size="10.00">+</text>
<text text-anchor="start" x="158.5" y="-310.5" font-family="Helvetica,sans-Serif" font-size="10.00">String decrypt(@NotBlank</text>
<text text-anchor="start" x="158.5" y="-298.5" font-family="Helvetica,sans-Serif" font-size="10.00"> final String cypher)</text>
<text text-anchor="start" x="147.62" y="-282.5" font-family="Helvetica,sans-Serif" font-size="10.00">+</text>
<text text-anchor="start" x="158.5" y="-282.5" font-family="Helvetica,sans-Serif" font-size="10.00">String encrypt(@NotBlank</text>
<text text-anchor="start" x="158.5" y="-270.5" font-family="Helvetica,sans-Serif" font-size="10.00"> final String original)</text>
<polygon fill="#666666" stroke="#666666" points="142.75,-366 142.75,-366 334.5,-366 334.5,-366 142.75,-366"/>
<polygon fill="#666666" stroke="#666666" points="142.75,-350 142.75,-350 334.5,-350 334.5,-350 142.75,-350"/>
<polygon fill="none" stroke="#666666" points="142.75,-264 142.75,-396 334.5,-396 334.5,-264 142.75,-264"/>
</a>
</g>
</g>
<!-- Node2&#45;&gt;Node1 -->
<g id="edge1_Node000001_Node000002" class="edge">
<title>Node2&#45;&gt;Node1</title>
<g id="a_edge1_Node000001_Node000002"><a xlink:title=" ">
<path fill="none" stroke="#63b8ff" d="M246.88,-264.04C250.86,-242.54 256.62,-218.81 264.88,-198 265.69,-195.94 266.55,-193.87 267.45,-191.8"/>
<polygon fill="none" stroke="#63b8ff" points="267.5,-191.67 266.4,-184.55 272.55,-180.78 273.66,-187.91 267.5,-191.67"/>
</a>
</g>
<text text-anchor="start" x="264.88" y="-236.5" font-family="Helvetica,sans-Serif" font-size="10.00" fill="grey"> &#45;secretKeyEncryptionService</text>
<text text-anchor="middle" x="329.75" y="-224.5" font-family="Helvetica,sans-Serif" font-size="10.00" fill="grey">AESGCM</text>
<text text-anchor="start" x="264.88" y="-212.5" font-family="Helvetica,sans-Serif" font-size="10.00" fill="grey">&#45;secretKeyEncryptionService</text>
<text text-anchor="middle" x="329.75" y="-200.5" font-family="Helvetica,sans-Serif" font-size="10.00" fill="grey">AESGCMNullSecretKey</text>
</g>
<!-- Node3 -->
<g id="Node000003" class="node">
<title>Node3</title>
<g id="a_Node000003"><a xlink:href="interfacefr_1_1softsf_1_1sudokufx_1_1interfaces_1_1_i_encryption_service.html" target="_top" xlink:title=" ">
<polygon fill="white" stroke="none" points="133.25,-548 0,-548 0,-444 133.25,-444 133.25,-548"/>
<text text-anchor="start" x="4" y="-534.5" font-family="Helvetica,sans-Serif" font-size="10.00">fr.softsf.sudokufx.interfaces.</text>
<text text-anchor="start" x="25.38" y="-522.5" font-family="Helvetica,sans-Serif" font-size="10.00">IEncryptionService</text>
<text text-anchor="start" x="65.12" y="-506.5" font-family="Helvetica,sans-Serif" font-size="10.00"> </text>
<text text-anchor="start" x="10.5" y="-490.5" font-family="Helvetica,sans-Serif" font-size="10.00">+</text>
<text text-anchor="start" x="27" y="-490.5" font-family="Helvetica,sans-Serif" font-size="10.00">String decrypt(String</text>
<text text-anchor="start" x="27" y="-478.5" font-family="Helvetica,sans-Serif" font-size="10.00"> cypher)</text>
<text text-anchor="start" x="10.5" y="-462.5" font-family="Helvetica,sans-Serif" font-size="10.00">+</text>
<text text-anchor="start" x="27" y="-462.5" font-family="Helvetica,sans-Serif" font-size="10.00">String encrypt(String</text>
<text text-anchor="start" x="27" y="-450.5" font-family="Helvetica,sans-Serif" font-size="10.00"> original)</text>
<polygon fill="#666666" stroke="#666666" points="0,-518 0,-518 133.25,-518 133.25,-518 0,-518"/>
<polygon fill="#666666" stroke="#666666" points="0,-502 0,-502 133.25,-502 133.25,-502 0,-502"/>
<polygon fill="none" stroke="#666666" points="0,-444 0,-548 133.25,-548 133.25,-444 0,-444"/>
</a>
</g>
</g>
<!-- Node3&#45;&gt;Node2 -->
<g id="edge2_Node000002_Node000003" class="edge">
<title>Node3&#45;&gt;Node2</title>
<g id="a_edge2_Node000002_Node000003"><a xlink:title=" ">
<path fill="none" stroke="#63b8ff" d="M128.1,-436.39C141.87,-423.25 156.56,-409.24 170.59,-395.87"/>
<polygon fill="none" stroke="#63b8ff" points="126.02,-433.53 121.2,-442.96 130.85,-438.6 126.02,-433.53"/>
</a>
</g>
</g>
<!-- Node4 -->
<g id="Node000004" class="node">
<title>Node4</title>
<g id="a_Node000004"><a xlink:title=" ">
<polygon fill="white" stroke="none" points="205.5,-522 151.75,-522 151.75,-470 205.5,-470 205.5,-522"/>
<text text-anchor="start" x="155.75" y="-508.5" font-family="Helvetica,sans-Serif" font-size="10.00">SecretKey</text>
<text text-anchor="start" x="177.12" y="-492.5" font-family="Helvetica,sans-Serif" font-size="10.00"> </text>
<text text-anchor="start" x="177.12" y="-476.5" font-family="Helvetica,sans-Serif" font-size="10.00"> </text>
<polygon fill="#666666" stroke="#666666" points="151.75,-504 151.75,-504 205.5,-504 205.5,-504 151.75,-504"/>
<polygon fill="#666666" stroke="#666666" points="151.75,-488 151.75,-488 205.5,-488 205.5,-488 151.75,-488"/>
<polygon fill="none" stroke="#666666" points="151.75,-470 151.75,-522 205.5,-522 205.5,-470 151.75,-470"/>
</a>
</g>
</g>
<!-- Node4&#45;&gt;Node2 -->
<g id="edge3_Node000002_Node000004" class="edge">
<title>Node4&#45;&gt;Node2</title>
<g id="a_edge3_Node000002_Node000004"><a xlink:title=" ">
<path fill="none" stroke="#63b8ff" d="M180.19,-470.34C181.78,-453.99 184.98,-432.27 191.38,-414 192.14,-411.81 192.97,-409.6 193.84,-407.4"/>
<polygon fill="none" stroke="#63b8ff" points="193.81,-407.49 192.52,-400.39 198.58,-396.48 199.86,-403.58 193.81,-407.49"/>
</a>
</g>
<text text-anchor="middle" x="216.5" y="-416.5" font-family="Helvetica,sans-Serif" font-size="10.00" fill="grey"> &#45;secretKey</text>
</g>
<!-- Node5 -->
<g id="Node000005" class="node">
<title>Node5</title>
<g id="a_Node000005"><a xlink:title=" ">
<polygon fill="white" stroke="none" points="269.88,-522 233.38,-522 233.38,-470 269.88,-470 269.88,-522"/>
<text text-anchor="start" x="237.38" y="-508.5" font-family="Helvetica,sans-Serif" font-size="10.00">Cipher</text>
<text text-anchor="start" x="250.12" y="-492.5" font-family="Helvetica,sans-Serif" font-size="10.00"> </text>
<text text-anchor="start" x="250.12" y="-476.5" font-family="Helvetica,sans-Serif" font-size="10.00"> </text>
<polygon fill="#666666" stroke="#666666" points="233.38,-504 233.38,-504 269.88,-504 269.88,-504 233.38,-504"/>
<polygon fill="#666666" stroke="#666666" points="233.38,-488 233.38,-488 269.88,-488 269.88,-488 233.38,-488"/>
<polygon fill="none" stroke="#666666" points="233.38,-470 233.38,-522 269.88,-522 269.88,-470 233.38,-470"/>
</a>
</g>
</g>
<!-- Node5&#45;&gt;Node2 -->
<g id="edge4_Node000002_Node000005" class="edge">
<title>Node5&#45;&gt;Node2</title>
<g id="a_edge4_Node000002_Node000005"><a xlink:title=" ">
<path fill="none" stroke="#63b8ff" d="M249.65,-470.09C248.34,-453.61 246.55,-431.03 244.8,-408.85"/>
<polygon fill="none" stroke="#63b8ff" points="244.79,-408.74 240.33,-403.08 243.84,-396.78 248.3,-402.45 244.79,-408.74"/>
</a>
</g>
<text text-anchor="middle" x="262.03" y="-416.5" font-family="Helvetica,sans-Serif" font-size="10.00" fill="grey"> &#45;cipher</text>
</g>
<!-- Node6 -->
<g id="Node000006" class="node">
<title>Node6</title>
<g id="a_Node000006"><a xlink:title=" ">
<polygon fill="white" stroke="none" points="363.38,-522 287.88,-522 287.88,-470 363.38,-470 363.38,-522"/>
<text text-anchor="start" x="291.88" y="-508.5" font-family="Helvetica,sans-Serif" font-size="10.00">SecureRandom</text>
<text text-anchor="start" x="324.12" y="-492.5" font-family="Helvetica,sans-Serif" font-size="10.00"> </text>
<text text-anchor="start" x="324.12" y="-476.5" font-family="Helvetica,sans-Serif" font-size="10.00"> </text>
<polygon fill="#666666" stroke="#666666" points="287.88,-504 287.88,-504 363.38,-504 363.38,-504 287.88,-504"/>
<polygon fill="#666666" stroke="#666666" points="287.88,-488 287.88,-488 363.38,-488 363.38,-488 287.88,-488"/>
<polygon fill="none" stroke="#666666" points="287.88,-470 287.88,-522 363.38,-522 363.38,-470 287.88,-470"/>
</a>
</g>
</g>
<!-- Node6&#45;&gt;Node2 -->
<g id="edge5_Node000002_Node000006" class="edge">
<title>Node6&#45;&gt;Node2</title>
<g id="a_edge5_Node000002_Node000006"><a xlink:title=" ">
<path fill="none" stroke="#63b8ff" d="M312.41,-470.09C303.47,-453.23 291.13,-429.97 279.1,-407.29"/>
<polygon fill="none" stroke="#63b8ff" points="279.09,-407.28 272.75,-403.85 273.47,-396.68 279.81,-400.11 279.09,-407.28"/>
</a>
</g>
<text text-anchor="middle" x="306.46" y="-416.5" font-family="Helvetica,sans-Serif" font-size="10.00" fill="grey"> &#45;random</text>
</g>
<!-- Node7 -->
<g id="Node000007" class="node">
<title>Node7</title>
<g id="a_Node000007"><a xlink:title=" ">
<polygon fill="white" stroke="none" points="498.25,-356 353,-356 353,-304 498.25,-304 498.25,-356"/>
<text text-anchor="start" x="357" y="-342.5" font-family="Helvetica,sans-Serif" font-size="10.00">ListAppender&lt; ILoggingEvent &gt;</text>
<text text-anchor="start" x="424.12" y="-326.5" font-family="Helvetica,sans-Serif" font-size="10.00"> </text>
<text text-anchor="start" x="424.12" y="-310.5" font-family="Helvetica,sans-Serif" font-size="10.00"> </text>
<polygon fill="#666666" stroke="#666666" points="353,-338 353,-338 498.25,-338 498.25,-338 353,-338"/>
<polygon fill="#666666" stroke="#666666" points="353,-322 353,-322 498.25,-322 498.25,-322 353,-322"/>
<polygon fill="none" stroke="#666666" points="353,-304 353,-356 498.25,-356 498.25,-304 353,-304"/>
</a>
</g>
</g>
<!-- Node7&#45;&gt;Node1 -->
<g id="edge6_Node000001_Node000007" class="edge">
<title>Node7&#45;&gt;Node1</title>
<g id="a_edge6_Node000001_Node000007"><a xlink:title=" ">
<path fill="none" stroke="#63b8ff" d="M422.03,-304.18C417.62,-277.32 408.92,-233.56 394.62,-198 393.76,-195.84 392.85,-193.68 391.91,-191.51"/>
<polygon fill="none" stroke="#63b8ff" points="391.97,-191.63 385.83,-187.85 386.97,-180.73 393.1,-184.51 391.97,-191.63"/>
</a>
</g>
<text text-anchor="middle" x="436.73" y="-218.5" font-family="Helvetica,sans-Serif" font-size="10.00" fill="grey"> &#45;logWatcher</text>
</g>
<!-- Node8 -->
<g id="Node000008" class="node">
<title>Node8</title>
<g id="a_Node000008"><a xlink:title=" ">
<polygon fill="white" stroke="none" points="458.12,-522 393.12,-522 393.12,-470 458.12,-470 458.12,-522"/>
<text text-anchor="start" x="397.12" y="-508.5" font-family="Helvetica,sans-Serif" font-size="10.00">ListAppender</text>
<text text-anchor="start" x="424.12" y="-492.5" font-family="Helvetica,sans-Serif" font-size="10.00"> </text>
<text text-anchor="start" x="424.12" y="-476.5" font-family="Helvetica,sans-Serif" font-size="10.00"> </text>
<polygon fill="#666666" stroke="#666666" points="393.12,-504 393.12,-504 458.12,-504 458.12,-504 393.12,-504"/>
<polygon fill="#666666" stroke="#666666" points="393.12,-488 393.12,-488 458.12,-488 458.12,-488 393.12,-488"/>
<polygon fill="none" stroke="#666666" points="393.12,-470 393.12,-522 458.12,-522 458.12,-470 393.12,-470"/>
</a>
</g>
</g>
<!-- Node8&#45;&gt;Node7 -->
<g id="edge7_Node000007_Node000008" class="edge">
<title>Node8&#45;&gt;Node7</title>
<g id="a_edge7_Node000007_Node000008"><a xlink:title=" ">
<path fill="none" stroke="orange" d="M425.62,-458.82C425.62,-427.58 425.62,-383.27 425.62,-355.87"/>
<polygon fill="orange" stroke="orange" points="422.13,-458.58 425.63,-468.58 429.13,-458.58 422.13,-458.58"/>
</a>
</g>
<text text-anchor="middle" x="467.25" y="-416.5" font-family="Helvetica,sans-Serif" font-size="10.00" fill="grey"> &lt; ILoggingEvent &gt;</text>
</g>
</g>
</svg>

<g id="navigator" transform="translate(0 0)" fill="#404254">
  <rect fill="#f2f5e9" fill-opacity="0.5" stroke="#606060" stroke-width=".5" x="0" y="0" width="60" height="60"/>
  <use id="zoomplus" xlink:href="#zoomPlus" x="17" y="9" onmousedown="handleZoom(evt,'in')"/>
  <use id="zoomminus" xlink:href="#zoomMin" x="42" y="9" onmousedown="handleZoom(evt,'out')"/>
  <use id="reset" xlink:href="#resetDef" x="30" y="36" onmousedown="handleReset()"/>
   <use id="arrowup" xlink:href="#arrowUp" x="0" y="0" onmousedown="handlePan(0,-1)"/>
  <use id="arrowright" xlink:href="#arrowRight" x="0" y="0" onmousedown="handlePan(1,0)"/>
  <use id="arrowdown" xlink:href="#arrowDown" x="0" y="0" onmousedown="handlePan(0,1)"/>
  <use id="arrowleft" xlink:href="#arrowLeft" x="0" y="0" onmousedown="handlePan(-1,0)"/>
</g>
<svg viewBox="0 0 15 15" width="100%" height="30px" preserveAspectRatio="xMaxYMin meet">
 <g id="arrow_out" transform="scale(0.3 0.3)">
  <a xlink:href="classfr_1_1softsf_1_1sudokufx_1_1unit_1_1utils_1_1database_1_1keystore_1_1_secret_key_encryption5daf5b8ce0b5b2f9a74f2efca9151c0b_org.svg" target="_base">
   <rect id="button" ry="5" rx="5" y="6" x="6" height="38" width="38"
        fill="#f2f5e9" fill-opacity="0.5" stroke="#606060" stroke-width="1.0"/>
   <path id="arrow"
     d="M 11.500037,31.436501 C 11.940474,20.09759 22.043105,11.32322 32.158766,21.979434 L 37.068811,17.246167 C 37.068811,17.246167 37.088388,32 37.088388,32 L 22.160133,31.978069 C 22.160133,31.978069 26.997745,27.140456 26.997745,27.140456 C 18.528582,18.264221 13.291696,25.230495 11.500037,31.436501 z"
     style="fill:#404040;"/>
  </a>
 </g>
</svg>

<style type='text/css'>
<![CDATA[
[data-mouse-over-selected='false'] { opacity: 0.7; }
[data-mouse-over-selected='true']  { opacity: 1.0; }
]]>
</style>
<script type="application/ecmascript"><![CDATA[
document.addEventListener('DOMContentLoaded', (event) => {
  highlightEdges();
  highlightAdjacentNodes();
});
]]></script>
</svg>
