<?xml version="1.0" encoding="UTF-8" standalone="no"?>
<!DOCTYPE svg PUBLIC "-//W3C//DTD SVG 1.1//EN"
 "http://www.w3.org/Graphics/SVG/1.1/DTD/svg11.dtd">
<!-- Generated by graphviz version 12.2.0 (20241103.1931)
 -->
<!-- Title: fr.softsf.sudokufx.view.components.toaster.ToasterVBox Pages: 1 -->
<!--zoomable 580 -->

<svg id="main" version="1.1" xmlns="http://www.w3.org/2000/svg" xmlns:xlink="http://www.w3.org/1999/xlink" xml:space="preserve" onload="init(evt)">

<style type="text/css"><![CDATA[
.node, .edge {opacity: 0.7;}
.node.selected, .edge.selected {opacity: 1;}
.edge:hover path { stroke: red; }
.edge:hover polygon { stroke: red; fill: red; }
]]></style>

<defs>
  <circle id="rim" cx="0" cy="0" r="7"/>
  <circle id="rim2" cx="0" cy="0" r="3.5"/>
  <g id="zoomPlus">
    <use xlink:href="#rim" fill="#404040"><set attributeName="fill" to="#808080" begin="zoomplus.mouseover" end="zoomplus.mouseout"/></use>
    <path d="M-4,0h8M0,-4v8" fill="none" stroke="white" stroke-width="1.5" pointer-events="none"/>
  </g>
  <g id="zoomMin">
    <use xlink:href="#rim" fill="#404040"><set attributeName="fill" to="#808080" begin="zoomminus.mouseover" end="zoomminus.mouseout"/></use>
    <path d="M-4,0h8" fill="none" stroke="white" stroke-width="1.5" pointer-events="none"/>
  </g>
  <g id="arrowUp" transform="translate(30 24)">
    <use xlink:href="#rim"/>
    <path pointer-events="none" fill="none" stroke="white" stroke-width="1.5" d="M0,-3.0v7 M-2.5,-0.5L0,-3.0L2.5,-0.5"/>
  </g>
  <g id="arrowRight" transform="rotate(90) translate(36 -43)">
    <use xlink:href="#rim"/>
    <path pointer-events="none" fill="none" stroke="white" stroke-width="1.5" d="M0,-3.0v7 M-2.5,-0.5L0,-3.0L2.5,-0.5"/>
  </g>
  <g id="arrowDown" transform="rotate(180) translate(-30 -48)">
    <use xlink:href="#rim"/>
    <path pointer-events="none" fill="none" stroke="white" stroke-width="1.5" d="M0,-3.0v7 M-2.5,-0.5L0,-3.0L2.5,-0.5"/>
  </g>
  <g id="arrowLeft" transform="rotate(270) translate(-36 17)">
    <use xlink:href="#rim"/>
    <path pointer-events="none" fill="none" stroke="white" stroke-width="1.5" d="M0,-3.0v7 M-2.5,-0.5L0,-3.0L2.5,-0.5"/>
  </g>
  <g id="resetDef">
    <use xlink:href="#rim2" fill="#404040"><set attributeName="fill" to="#808080" begin="reset.mouseover" end="reset.mouseout"/></use>
  </g>
</defs>
<script type="application/ecmascript">
var viewWidth = 207;
var viewHeight = 580;
var sectionId = 'dynsection-1';
</script>
<script type="application/ecmascript" xlink:href="svg.min.js"/>
<svg id="graph" class="graph">
<g id="viewport">
<title>fr.softsf.sudokufx.view.components.toaster.ToasterVBox</title>
<!-- Node1 -->
<g id="Node000001" class="node">
<title>Node1</title>
<g id="a_Node000001"><a xlink:title="A custom VBox component for displaying toast notifications.">
<polygon fill="#999999" stroke="none" points="199.25,-484 0,-484 0,0 199.25,0 199.25,-484"/>
<text text-anchor="start" x="4" y="-470.5" font-family="Helvetica,sans-Serif" font-size="10.00">fr.softsf.sudokufx.view.components.toaster.</text>
<text text-anchor="start" x="71.5" y="-458.5" font-family="Helvetica,sans-Serif" font-size="10.00">ToasterVBox</text>
<text text-anchor="start" x="98.12" y="-442.5" font-family="Helvetica,sans-Serif" font-size="10.00"> </text>
<text text-anchor="start" x="11.44" y="-426.5" font-family="Helvetica,sans-Serif" font-size="10.00">+</text>
<text text-anchor="start" x="28.88" y="-426.5" font-family="Helvetica,sans-Serif" font-size="10.00">ToasterVBox()</text>
<text text-anchor="start" x="11.44" y="-410.5" font-family="Helvetica,sans-Serif" font-size="10.00">+</text>
<text text-anchor="start" x="28.88" y="-410.5" font-family="Helvetica,sans-Serif" font-size="10.00">void addToast(final</text>
<text text-anchor="start" x="28.88" y="-398.5" font-family="Helvetica,sans-Serif" font-size="10.00"> String visibleText,</text>
<text text-anchor="start" x="28.88" y="-386.5" font-family="Helvetica,sans-Serif" font-size="10.00"> final String detailedText,</text>
<text text-anchor="start" x="28.88" y="-374.5" font-family="Helvetica,sans-Serif" font-size="10.00"> final MyEnums.ToastLevels</text>
<text text-anchor="start" x="28.88" y="-362.5" font-family="Helvetica,sans-Serif" font-size="10.00"> toastLevel)</text>
<text text-anchor="start" x="11.44" y="-346.5" font-family="Helvetica,sans-Serif" font-size="10.00">+</text>
<text text-anchor="start" x="28.88" y="-346.5" font-family="Helvetica,sans-Serif" font-size="10.00">void addToastWithDuration</text>
<text text-anchor="start" x="28.88" y="-334.5" font-family="Helvetica,sans-Serif" font-size="10.00">(final String visibleText,</text>
<text text-anchor="start" x="28.88" y="-322.5" font-family="Helvetica,sans-Serif" font-size="10.00"> final String detailedText,</text>
<text text-anchor="start" x="28.88" y="-310.5" font-family="Helvetica,sans-Serif" font-size="10.00"> final MyEnums.ToastLevels</text>
<text text-anchor="start" x="28.88" y="-298.5" font-family="Helvetica,sans-Serif" font-size="10.00"> toastLevel, final double duration)</text>
<text text-anchor="start" x="12.94" y="-282.5" font-family="Helvetica,sans-Serif" font-size="10.00">&#45;</text>
<text text-anchor="start" x="28.88" y="-282.5" font-family="Helvetica,sans-Serif" font-size="10.00">void copyToClipboard</text>
<text text-anchor="start" x="28.88" y="-270.5" font-family="Helvetica,sans-Serif" font-size="10.00">(final ToasterButton</text>
<text text-anchor="start" x="28.88" y="-258.5" font-family="Helvetica,sans-Serif" font-size="10.00"> button)</text>
<text text-anchor="start" x="12.94" y="-242.5" font-family="Helvetica,sans-Serif" font-size="10.00">&#45;</text>
<text text-anchor="start" x="28.88" y="-242.5" font-family="Helvetica,sans-Serif" font-size="10.00">String getToastInfo</text>
<text text-anchor="start" x="28.88" y="-230.5" font-family="Helvetica,sans-Serif" font-size="10.00">(MyEnums.ToastLevels</text>
<text text-anchor="start" x="28.88" y="-218.5" font-family="Helvetica,sans-Serif" font-size="10.00"> toastLevel)</text>
<text text-anchor="start" x="12.94" y="-202.5" font-family="Helvetica,sans-Serif" font-size="10.00">&#45;</text>
<text text-anchor="start" x="28.88" y="-202.5" font-family="Helvetica,sans-Serif" font-size="10.00">void removeToast(final</text>
<text text-anchor="start" x="28.88" y="-190.5" font-family="Helvetica,sans-Serif" font-size="10.00"> ToasterButton button)</text>
<text text-anchor="start" x="12.94" y="-174.5" font-family="Helvetica,sans-Serif" font-size="10.00">&#45;</text>
<text text-anchor="start" x="28.88" y="-174.5" font-family="Helvetica,sans-Serif" font-size="10.00">void setAccessibility</text>
<text text-anchor="start" x="28.88" y="-162.5" font-family="Helvetica,sans-Serif" font-size="10.00">(final ToasterButton</text>
<text text-anchor="start" x="28.88" y="-150.5" font-family="Helvetica,sans-Serif" font-size="10.00"> toast, final MyEnums.ToastLevels</text>
<text text-anchor="start" x="28.88" y="-138.5" font-family="Helvetica,sans-Serif" font-size="10.00"> toastLevel, final String text)</text>
<text text-anchor="start" x="12.94" y="-122.5" font-family="Helvetica,sans-Serif" font-size="10.00">&#45;</text>
<text text-anchor="start" x="28.88" y="-122.5" font-family="Helvetica,sans-Serif" font-size="10.00">void setToastStyle</text>
<text text-anchor="start" x="28.88" y="-110.5" font-family="Helvetica,sans-Serif" font-size="10.00">(final ToasterButton</text>
<text text-anchor="start" x="28.88" y="-98.5" font-family="Helvetica,sans-Serif" font-size="10.00"> toast, final MyEnums.Toast</text>
<text text-anchor="start" x="28.88" y="-86.5" font-family="Helvetica,sans-Serif" font-size="10.00">Levels toastLevel)</text>
<text text-anchor="start" x="12.94" y="-70.5" font-family="Helvetica,sans-Serif" font-size="10.00">&#45;</text>
<text text-anchor="start" x="28.88" y="-70.5" font-family="Helvetica,sans-Serif" font-size="10.00">void temporizeToast</text>
<text text-anchor="start" x="28.88" y="-58.5" font-family="Helvetica,sans-Serif" font-size="10.00">(final ToasterButton</text>
<text text-anchor="start" x="28.88" y="-46.5" font-family="Helvetica,sans-Serif" font-size="10.00"> toast, final double</text>
<text text-anchor="start" x="28.88" y="-34.5" font-family="Helvetica,sans-Serif" font-size="10.00"> duration)</text>
<text text-anchor="start" x="12.94" y="-18.5" font-family="Helvetica,sans-Serif" font-size="10.00">&#45;</text>
<text text-anchor="start" x="28.88" y="-18.5" font-family="Helvetica,sans-Serif" font-size="10.00">void toastActions(final</text>
<text text-anchor="start" x="28.88" y="-6.5" font-family="Helvetica,sans-Serif" font-size="10.00"> ActionEvent event)</text>
<polygon fill="#666666" stroke="#666666" points="0,-454 0,-454 199.25,-454 199.25,-454 0,-454"/>
<polygon fill="#666666" stroke="#666666" points="0,-438 0,-438 199.25,-438 199.25,-438 0,-438"/>
<polygon fill="none" stroke="#666666" points="0,0 0,-484 199.25,-484 199.25,0 0,0"/>
</a>
</g>
</g>
<!-- Node2 -->
<g id="Node000002" class="node">
<title>Node2</title>
<g id="a_Node000002"><a xlink:title=" ">
<polygon fill="white" stroke="none" points="115.62,-572 83.62,-572 83.62,-520 115.62,-520 115.62,-572"/>
<text text-anchor="start" x="87.62" y="-558.5" font-family="Helvetica,sans-Serif" font-size="10.00">VBox</text>
<text text-anchor="start" x="98.12" y="-542.5" font-family="Helvetica,sans-Serif" font-size="10.00"> </text>
<text text-anchor="start" x="98.12" y="-526.5" font-family="Helvetica,sans-Serif" font-size="10.00"> </text>
<polygon fill="#666666" stroke="#666666" points="83.62,-554 83.62,-554 115.62,-554 115.62,-554 83.62,-554"/>
<polygon fill="#666666" stroke="#666666" points="83.62,-538 83.62,-538 115.62,-538 115.62,-538 83.62,-538"/>
<polygon fill="none" stroke="#666666" points="83.62,-520 83.62,-572 115.62,-572 115.62,-520 83.62,-520"/>
</a>
</g>
</g>
<!-- Node2&#45;&gt;Node1 -->
<g id="edge1_Node000001_Node000002" class="edge">
<title>Node2&#45;&gt;Node1</title>
<g id="a_edge1_Node000001_Node000002"><a xlink:title=" ">
<path fill="none" stroke="#63b8ff" d="M99.62,-508.72C99.62,-501.24 99.62,-492.86 99.62,-483.79"/>
<polygon fill="none" stroke="#63b8ff" points="96.13,-508.52 99.63,-518.52 103.13,-508.52 96.13,-508.52"/>
</a>
</g>
</g>
</g>
</svg>

<g id="navigator" transform="translate(0 0)" fill="#404254">
  <rect fill="#f2f5e9" fill-opacity="0.5" stroke="#606060" stroke-width=".5" x="0" y="0" width="60" height="60"/>
  <use id="zoomplus" xlink:href="#zoomPlus" x="17" y="9" onmousedown="handleZoom(evt,'in')"/>
  <use id="zoomminus" xlink:href="#zoomMin" x="42" y="9" onmousedown="handleZoom(evt,'out')"/>
  <use id="reset" xlink:href="#resetDef" x="30" y="36" onmousedown="handleReset()"/>
   <use id="arrowup" xlink:href="#arrowUp" x="0" y="0" onmousedown="handlePan(0,-1)"/>
  <use id="arrowright" xlink:href="#arrowRight" x="0" y="0" onmousedown="handlePan(1,0)"/>
  <use id="arrowdown" xlink:href="#arrowDown" x="0" y="0" onmousedown="handlePan(0,1)"/>
  <use id="arrowleft" xlink:href="#arrowLeft" x="0" y="0" onmousedown="handlePan(-1,0)"/>
</g>
<svg viewBox="0 0 15 15" width="100%" height="30px" preserveAspectRatio="xMaxYMin meet">
 <g id="arrow_out" transform="scale(0.3 0.3)">
  <a xlink:href="classfr_1_1softsf_1_1sudokufx_1_1view_1_1components_1_1toaster_1_1_toaster_v_box__coll__graph_org.svg" target="_base">
   <rect id="button" ry="5" rx="5" y="6" x="6" height="38" width="38"
        fill="#f2f5e9" fill-opacity="0.5" stroke="#606060" stroke-width="1.0"/>
   <path id="arrow"
     d="M 11.500037,31.436501 C 11.940474,20.09759 22.043105,11.32322 32.158766,21.979434 L 37.068811,17.246167 C 37.068811,17.246167 37.088388,32 37.088388,32 L 22.160133,31.978069 C 22.160133,31.978069 26.997745,27.140456 26.997745,27.140456 C 18.528582,18.264221 13.291696,25.230495 11.500037,31.436501 z"
     style="fill:#404040;"/>
  </a>
 </g>
</svg>

<style type='text/css'>
<![CDATA[
[data-mouse-over-selected='false'] { opacity: 0.7; }
[data-mouse-over-selected='true']  { opacity: 1.0; }
]]>
</style>
<script type="application/ecmascript"><![CDATA[
document.addEventListener('DOMContentLoaded', (event) => {
  highlightEdges();
  highlightAdjacentNodes();
});
]]></script>
</svg>
