<?xml version="1.0" encoding="UTF-8" standalone="no"?>
<!DOCTYPE svg PUBLIC "-//W3C//DTD SVG 1.1//EN"
 "http://www.w3.org/Graphics/SVG/1.1/DTD/svg11.dtd">
<!-- Generated by graphviz version 12.2.1 (20241206.2353)
 -->
<!-- Title: fr.softsf.sudokufx.utils.sudoku.GridMaster.getPossibilitesGrilleAResoudreMoyenne Pages: 1 -->
<svg width="1070pt" height="140pt"
 viewBox="0.00 0.00 1069.75 140.00" xmlns="http://www.w3.org/2000/svg" xmlns:xlink="http://www.w3.org/1999/xlink">
<g id="graph0" class="graph" transform="scale(1 1) rotate(0) translate(4 136)">
<title>fr.softsf.sudokufx.utils.sudoku.GridMaster.getPossibilitesGrilleAResoudreMoyenne</title>
<!-- Node1 -->
<g id="Node000001" class="node">
<title>Node1</title>
<g id="a_Node000001"><a xlink:title="Génère une grille de Sudoku de niveau moyen (sinon une grille par défaut est retournée après une seco...">
<polygon fill="#999999" stroke="#666666" points="202,-88 0,-88 0,-44 202,-44 202,-88"/>
<text text-anchor="start" x="8" y="-74.5" font-family="Helvetica,sans-Serif" font-size="10.00">fr.softsf.sudokufx.utils.sudoku.</text>
<text text-anchor="start" x="8" y="-62.5" font-family="Helvetica,sans-Serif" font-size="10.00">GridMaster.getPossibilitesGrilleAResoudre</text>
<text text-anchor="middle" x="101" y="-50.5" font-family="Helvetica,sans-Serif" font-size="10.00">Moyenne</text>
</a>
</g>
</g>
<!-- Node2 -->
<g id="Node000002" class="node">
<title>Node2</title>
<g id="a_Node000002"><a xlink:href="classfr_1_1softsf_1_1sudokufx_1_1utils_1_1sudoku_1_1_grid_master.html#a7cd9c1114c0d87a5341aedac86f6407a" target="_top" xlink:title="Calcule la durée de temps écoulé entre la dernière et la nouvelle demande de grille en millisecondes.">
<polygon fill="white" stroke="#666666" points="411.5,-132 260.5,-132 260.5,-100 411.5,-100 411.5,-132"/>
<text text-anchor="start" x="268.5" y="-118.5" font-family="Helvetica,sans-Serif" font-size="10.00">fr.softsf.sudokufx.utils.sudoku.</text>
<text text-anchor="middle" x="336" y="-106.5" font-family="Helvetica,sans-Serif" font-size="10.00">GridMaster.dureeEnMs</text>
</a>
</g>
</g>
<!-- Node1&#45;&gt;Node2 -->
<g id="edge1_Node000001_Node000002" class="edge">
<title>Node1&#45;&gt;Node2</title>
<g id="a_edge1_Node000001_Node000002"><a xlink:title=" ">
<path fill="none" stroke="#63b8ff" d="M202.17,-87.49C217.85,-90.86 233.93,-94.31 249.25,-97.6"/>
<polygon fill="#63b8ff" stroke="#63b8ff" points="248.26,-100.97 258.78,-99.64 249.73,-94.12 248.26,-100.97"/>
</a>
</g>
</g>
<!-- Node3 -->
<g id="Node000003" class="node">
<title>Node3</title>
<g id="a_Node000003"><a xlink:href="classfr_1_1softsf_1_1sudokufx_1_1utils_1_1sudoku_1_1_grid_master.html#a87c5a8d088aaceea8e0ca03806e30bcf" target="_top" xlink:title="Masque des cases dans la grille et calcule la somme des possibilités restantes.">
<polygon fill="white" stroke="#666666" points="434,-82 238,-82 238,-50 434,-50 434,-82"/>
<text text-anchor="start" x="246" y="-68.5" font-family="Helvetica,sans-Serif" font-size="10.00">fr.softsf.sudokufx.utils.sudoku.</text>
<text text-anchor="middle" x="336" y="-56.5" font-family="Helvetica,sans-Serif" font-size="10.00">GridMaster.getPossibilitesGrilleWhileNok</text>
</a>
</g>
</g>
<!-- Node1&#45;&gt;Node3 -->
<g id="edge2_Node000001_Node000003" class="edge">
<title>Node1&#45;&gt;Node3</title>
<g id="a_edge2_Node000001_Node000003"><a xlink:title=" ">
<path fill="none" stroke="#63b8ff" d="M202.17,-66C210.13,-66 218.2,-66 226.22,-66"/>
<polygon fill="#63b8ff" stroke="#63b8ff" points="225.99,-69.5 235.99,-66 225.99,-62.5 225.99,-69.5"/>
</a>
</g>
</g>
<!-- Node9 -->
<g id="Node000009" class="node">
<title>Node9</title>
<g id="a_Node000009"><a xlink:href="classfr_1_1softsf_1_1sudokufx_1_1utils_1_1sudoku_1_1_grid_master.html#a5bb14564ed4b6a7cded51e1bedc72faf" target="_top" xlink:title="Génère un nombre entier aléatoire dans un intervalle spécifié.">
<polygon fill="white" stroke="#666666" points="411.5,-32 260.5,-32 260.5,0 411.5,0 411.5,-32"/>
<text text-anchor="start" x="268.5" y="-18.5" font-family="Helvetica,sans-Serif" font-size="10.00">fr.softsf.sudokufx.utils.sudoku.</text>
<text text-anchor="middle" x="336" y="-6.5" font-family="Helvetica,sans-Serif" font-size="10.00">GridMaster.nombreAleatoire</text>
</a>
</g>
</g>
<!-- Node1&#45;&gt;Node9 -->
<g id="edge8_Node000001_Node000009" class="edge">
<title>Node1&#45;&gt;Node9</title>
<g id="a_edge8_Node000001_Node000009"><a xlink:title=" ">
<path fill="none" stroke="#63b8ff" d="M202.17,-44.51C217.85,-41.14 233.93,-37.69 249.25,-34.4"/>
<polygon fill="#63b8ff" stroke="#63b8ff" points="249.73,-37.88 258.78,-32.36 248.26,-31.03 249.73,-37.88"/>
</a>
</g>
</g>
<!-- Node4 -->
<g id="Node000004" class="node">
<title>Node4</title>
<g id="a_Node000004"><a xlink:href="classfr_1_1softsf_1_1sudokufx_1_1utils_1_1sudoku_1_1_grid_master.html#a89fed8ecc70b911e60ca540cca93ef78" target="_top" xlink:title="Cache un nombre spécifié de cases dans la grille à résoudre en les remplaçant par zéro.">
<polygon fill="white" stroke="#666666" points="652.12,-132 501.12,-132 501.12,-100 652.12,-100 652.12,-132"/>
<text text-anchor="start" x="509.12" y="-118.5" font-family="Helvetica,sans-Serif" font-size="10.00">fr.softsf.sudokufx.utils.sudoku.</text>
<text text-anchor="middle" x="576.62" y="-106.5" font-family="Helvetica,sans-Serif" font-size="10.00">GridMaster.cacherLesCases</text>
</a>
</g>
</g>
<!-- Node3&#45;&gt;Node4 -->
<g id="edge3_Node000003_Node000004" class="edge">
<title>Node3&#45;&gt;Node4</title>
<g id="a_edge3_Node000003_Node000004"><a xlink:title=" ">
<path fill="none" stroke="#63b8ff" d="M415.47,-82.44C439.26,-87.43 465.52,-92.93 489.77,-98.01"/>
<polygon fill="#63b8ff" stroke="#63b8ff" points="488.77,-101.38 499.28,-100 490.21,-94.53 488.77,-101.38"/>
</a>
</g>
</g>
<!-- Node5 -->
<g id="Node000005" class="node">
<title>Node5</title>
<g id="a_Node000005"><a xlink:href="classfr_1_1softsf_1_1sudokufx_1_1utils_1_1sudoku_1_1_grid_master.html#a46d1bfadcbb911b5a718508185da341f" target="_top" xlink:title="Calcule les possibilités pour chaque case de la grille de Sudoku.">
<polygon fill="white" stroke="#666666" points="652.12,-82 501.12,-82 501.12,-50 652.12,-50 652.12,-82"/>
<text text-anchor="start" x="509.12" y="-68.5" font-family="Helvetica,sans-Serif" font-size="10.00">fr.softsf.sudokufx.utils.sudoku.</text>
<text text-anchor="middle" x="576.62" y="-56.5" font-family="Helvetica,sans-Serif" font-size="10.00">GridMaster.getPossibilites</text>
</a>
</g>
</g>
<!-- Node3&#45;&gt;Node5 -->
<g id="edge4_Node000003_Node000005" class="edge">
<title>Node3&#45;&gt;Node5</title>
<g id="a_edge4_Node000003_Node000005"><a xlink:title=" ">
<path fill="none" stroke="#63b8ff" d="M434.4,-66C452.67,-66 471.65,-66 489.55,-66"/>
<polygon fill="#63b8ff" stroke="#63b8ff" points="489.32,-69.5 499.32,-66 489.32,-62.5 489.32,-69.5"/>
</a>
</g>
</g>
<!-- Node8 -->
<g id="Node000008" class="node">
<title>Node8</title>
<g id="a_Node000008"><a xlink:href="classfr_1_1softsf_1_1sudokufx_1_1utils_1_1sudoku_1_1_grid_master.html#a700c8e5d20670ded6ac4b56312846839" target="_top" xlink:title="Calcule la somme des possibilités de toutes les cases de la grille de Sudoku.">
<polygon fill="white" stroke="#666666" points="683.25,-32 470,-32 470,0 683.25,0 683.25,-32"/>
<text text-anchor="start" x="478" y="-18.5" font-family="Helvetica,sans-Serif" font-size="10.00">fr.softsf.sudokufx.utils.sudoku.</text>
<text text-anchor="middle" x="576.62" y="-6.5" font-family="Helvetica,sans-Serif" font-size="10.00">GridMaster.sommeDesPossibilitesDeLaGrille</text>
</a>
</g>
</g>
<!-- Node3&#45;&gt;Node8 -->
<g id="edge7_Node000003_Node000008" class="edge">
<title>Node3&#45;&gt;Node8</title>
<g id="a_edge7_Node000003_Node000008"><a xlink:title=" ">
<path fill="none" stroke="#63b8ff" d="M415.47,-49.56C438,-44.84 462.74,-39.65 485.89,-34.8"/>
<polygon fill="#63b8ff" stroke="#63b8ff" points="486.56,-38.24 495.63,-32.76 485.13,-31.39 486.56,-38.24"/>
</a>
</g>
</g>
<!-- Node6 -->
<g id="Node000006" class="node">
<title>Node6</title>
<g id="a_Node000006"><a xlink:href="classfr_1_1softsf_1_1sudokufx_1_1utils_1_1sudoku_1_1_grid_master.html#ad1a85240278a682b9cf73c8d8ec6398d" target="_top" xlink:title="Initialise le tableau des possibilités pour chaque case.">
<polygon fill="white" stroke="#666666" points="874.75,-82 719.25,-82 719.25,-50 874.75,-50 874.75,-82"/>
<text text-anchor="start" x="727.25" y="-68.5" font-family="Helvetica,sans-Serif" font-size="10.00">fr.softsf.sudokufx.utils.sudoku.</text>
<text text-anchor="middle" x="797" y="-56.5" font-family="Helvetica,sans-Serif" font-size="10.00">GridMaster.initialiserPossibilites</text>
</a>
</g>
</g>
<!-- Node5&#45;&gt;Node6 -->
<g id="edge5_Node000005_Node000006" class="edge">
<title>Node5&#45;&gt;Node6</title>
<g id="a_edge5_Node000005_Node000006"><a xlink:title=" ">
<path fill="none" stroke="#63b8ff" d="M652.47,-66C670.26,-66 689.41,-66 707.74,-66"/>
<polygon fill="#63b8ff" stroke="#63b8ff" points="707.51,-69.5 717.51,-66 707.51,-62.5 707.51,-69.5"/>
</a>
</g>
</g>
<!-- Node7 -->
<g id="Node000007" class="node">
<title>Node7</title>
<g id="a_Node000007"><a xlink:href="classfr_1_1softsf_1_1sudokufx_1_1utils_1_1sudoku_1_1_grid_master.html#aab28df678a8069dd22b13a687bb2ba5b" target="_top" xlink:title="Élimine la valeur des possibilités des cases alentours.">
<polygon fill="white" stroke="#666666" points="1061.75,-82 910.75,-82 910.75,-50 1061.75,-50 1061.75,-82"/>
<text text-anchor="start" x="918.75" y="-68.5" font-family="Helvetica,sans-Serif" font-size="10.00">fr.softsf.sudokufx.utils.sudoku.</text>
<text text-anchor="middle" x="986.25" y="-56.5" font-family="Helvetica,sans-Serif" font-size="10.00">GridMaster.eliminerPossibilite</text>
</a>
</g>
</g>
<!-- Node6&#45;&gt;Node7 -->
<g id="edge6_Node000006_Node000007" class="edge">
<title>Node6&#45;&gt;Node7</title>
<g id="a_edge6_Node000006_Node000007"><a xlink:title=" ">
<path fill="none" stroke="#63b8ff" d="M875.24,-66C883.03,-66 890.97,-66 898.84,-66"/>
<polygon fill="#63b8ff" stroke="#63b8ff" points="898.78,-69.5 908.78,-66 898.78,-62.5 898.78,-69.5"/>
</a>
</g>
</g>
</g>
</svg>
