<?xml version="1.0" encoding="UTF-8" standalone="no"?>
<!DOCTYPE svg PUBLIC "-//W3C//DTD SVG 1.1//EN"
 "http://www.w3.org/Graphics/SVG/1.1/DTD/svg11.dtd">
<!-- Generated by graphviz version 12.2.0 (20241103.1931)
 -->
<!-- Title: fr.softsf.sudofx2024.viewmodel.FullMenuViewModel Pages: 1 -->
<!--zoomable 577 -->

<svg id="main" version="1.1" xmlns="http://www.w3.org/2000/svg" xmlns:xlink="http://www.w3.org/1999/xlink" xml:space="preserve" onload="init(evt)">

<style type="text/css"><![CDATA[
.node, .edge {opacity: 0.7;}
.node.selected, .edge.selected {opacity: 1;}
.edge:hover path { stroke: red; }
.edge:hover polygon { stroke: red; fill: red; }
]]></style>

<defs>
  <circle id="rim" cx="0" cy="0" r="7"/>
  <circle id="rim2" cx="0" cy="0" r="3.5"/>
  <g id="zoomPlus">
    <use xlink:href="#rim" fill="#404040"><set attributeName="fill" to="#808080" begin="zoomplus.mouseover" end="zoomplus.mouseout"/></use>
    <path d="M-4,0h8M0,-4v8" fill="none" stroke="white" stroke-width="1.5" pointer-events="none"/>
  </g>
  <g id="zoomMin">
    <use xlink:href="#rim" fill="#404040"><set attributeName="fill" to="#808080" begin="zoomminus.mouseover" end="zoomminus.mouseout"/></use>
    <path d="M-4,0h8" fill="none" stroke="white" stroke-width="1.5" pointer-events="none"/>
  </g>
  <g id="arrowUp" transform="translate(30 24)">
    <use xlink:href="#rim"/>
    <path pointer-events="none" fill="none" stroke="white" stroke-width="1.5" d="M0,-3.0v7 M-2.5,-0.5L0,-3.0L2.5,-0.5"/>
  </g>
  <g id="arrowRight" transform="rotate(90) translate(36 -43)">
    <use xlink:href="#rim"/>
    <path pointer-events="none" fill="none" stroke="white" stroke-width="1.5" d="M0,-3.0v7 M-2.5,-0.5L0,-3.0L2.5,-0.5"/>
  </g>
  <g id="arrowDown" transform="rotate(180) translate(-30 -48)">
    <use xlink:href="#rim"/>
    <path pointer-events="none" fill="none" stroke="white" stroke-width="1.5" d="M0,-3.0v7 M-2.5,-0.5L0,-3.0L2.5,-0.5"/>
  </g>
  <g id="arrowLeft" transform="rotate(270) translate(-36 17)">
    <use xlink:href="#rim"/>
    <path pointer-events="none" fill="none" stroke="white" stroke-width="1.5" d="M0,-3.0v7 M-2.5,-0.5L0,-3.0L2.5,-0.5"/>
  </g>
  <g id="resetDef">
    <use xlink:href="#rim2" fill="#404040"><set attributeName="fill" to="#808080" begin="reset.mouseover" end="reset.mouseout"/></use>
  </g>
</defs>
<script type="application/ecmascript">
var viewWidth = 426;
var viewHeight = 577;
var sectionId = 'dynsection-0';
</script>
<script type="application/ecmascript" xlink:href="svg.min.js"/>
<svg id="graph" class="graph">
<g id="viewport">
<title>fr.softsf.sudofx2024.viewmodel.FullMenuViewModel</title>
<!-- Node1 -->
<g id="Node000001" class="node">
<title>Node1</title>
<g id="a_Node000001"><a xlink:title="FullMenuViewModel with business logic (not final)">
<polygon fill="#999999" stroke="none" points="308,-152 143,-152 143,0 308,0 308,-152"/>
<text text-anchor="start" x="155.75" y="-138.5" font-family="Helvetica,sans-Serif" font-size="10.00">fr.softsf.sudofx2024.viewmodel.</text>
<text text-anchor="start" x="181.62" y="-126.5" font-family="Helvetica,sans-Serif" font-size="10.00">FullMenuViewModel</text>
<text text-anchor="start" x="224" y="-110.5" font-family="Helvetica,sans-Serif" font-size="10.00"> </text>
<text text-anchor="start" x="147" y="-94.5" font-family="Helvetica,sans-Serif" font-size="10.00">+</text>
<text text-anchor="start" x="157" y="-94.5" font-family="Helvetica,sans-Serif" font-size="10.00">void test()</text>
<text text-anchor="start" x="147" y="-78.5" font-family="Helvetica,sans-Serif" font-size="10.00">+</text>
<text text-anchor="start" x="157" y="-78.5" font-family="Helvetica,sans-Serif" font-size="10.00">StringProperty welcomeProperty()</text>
<text text-anchor="start" x="148.5" y="-62.5" font-family="Helvetica,sans-Serif" font-size="10.00">&#45;</text>
<text text-anchor="start" x="157" y="-62.5" font-family="Helvetica,sans-Serif" font-size="10.00">void createSoftware()</text>
<text text-anchor="start" x="148.5" y="-46.5" font-family="Helvetica,sans-Serif" font-size="10.00">&#45;</text>
<text text-anchor="start" x="157" y="-46.5" font-family="Helvetica,sans-Serif" font-size="10.00">void setWelcome(String</text>
<text text-anchor="start" x="157" y="-34.5" font-family="Helvetica,sans-Serif" font-size="10.00"> output)</text>
<text text-anchor="start" x="148.5" y="-18.5" font-family="Helvetica,sans-Serif" font-size="10.00">&#45;</text>
<text text-anchor="start" x="157" y="-18.5" font-family="Helvetica,sans-Serif" font-size="10.00">void updateSoftware</text>
<text text-anchor="start" x="157" y="-6.5" font-family="Helvetica,sans-Serif" font-size="10.00">(SoftwareDto softwareToUpdate)</text>
<polygon fill="#666666" stroke="#666666" points="143,-122 143,-122 308,-122 308,-122 143,-122"/>
<polygon fill="#666666" stroke="#666666" points="143,-106 143,-106 308,-106 308,-106 143,-106"/>
<polygon fill="none" stroke="#666666" points="143,0 143,-152 308,-152 308,0 143,0"/>
</a>
</g>
</g>
<!-- Node2 -->
<g id="Node000002" class="node">
<title>Node2</title>
<g id="a_Node000002"><a xlink:href="classfr_1_1softsf_1_1sudofx2024_1_1service_1_1_software_service.html" target="_top" xlink:title=" ">
<polygon fill="white" stroke="none" points="238.5,-316 82.5,-316 82.5,-200 238.5,-200 238.5,-316"/>
<text text-anchor="start" x="98.25" y="-302.5" font-family="Helvetica,sans-Serif" font-size="10.00">fr.softsf.sudofx2024.service.</text>
<text text-anchor="start" x="124.5" y="-290.5" font-family="Helvetica,sans-Serif" font-size="10.00">SoftwareService</text>
<text text-anchor="start" x="159" y="-274.5" font-family="Helvetica,sans-Serif" font-size="10.00"> </text>
<text text-anchor="start" x="86.5" y="-258.5" font-family="Helvetica,sans-Serif" font-size="10.00">+</text>
<text text-anchor="start" x="96.5" y="-258.5" font-family="Helvetica,sans-Serif" font-size="10.00">Optional&lt; SoftwareDto</text>
<text text-anchor="start" x="96.5" y="-246.5" font-family="Helvetica,sans-Serif" font-size="10.00"> &gt; getSoftware()</text>
<text text-anchor="start" x="86.5" y="-230.5" font-family="Helvetica,sans-Serif" font-size="10.00">+</text>
<text text-anchor="start" x="96.5" y="-230.5" font-family="Helvetica,sans-Serif" font-size="10.00">Optional&lt; SoftwareDto</text>
<text text-anchor="start" x="96.5" y="-218.5" font-family="Helvetica,sans-Serif" font-size="10.00"> &gt; updateSoftware(SoftwareDto</text>
<text text-anchor="start" x="96.5" y="-206.5" font-family="Helvetica,sans-Serif" font-size="10.00"> softwareDto)</text>
<polygon fill="#666666" stroke="#666666" points="82.5,-286 82.5,-286 238.5,-286 238.5,-286 82.5,-286"/>
<polygon fill="#666666" stroke="#666666" points="82.5,-270 82.5,-270 238.5,-270 238.5,-270 82.5,-270"/>
<polygon fill="none" stroke="#666666" points="82.5,-200 82.5,-316 238.5,-316 238.5,-200 82.5,-200"/>
</a>
</g>
</g>
<!-- Node2&#45;&gt;Node1 -->
<g id="edge1_Node000001_Node000002" class="edge">
<title>Node2&#45;&gt;Node1</title>
<g id="a_edge1_Node000001_Node000002"><a xlink:title=" ">
<path fill="none" stroke="#63b8ff" d="M179.39,-200.27C182.86,-190.16 186.49,-179.75 190,-170 190.73,-167.96 191.48,-165.9 192.24,-163.82"/>
<polygon fill="none" stroke="#63b8ff" points="192.22,-163.89 190.54,-156.87 196.36,-152.62 198.04,-159.64 192.22,-163.89"/>
</a>
</g>
<text text-anchor="middle" x="229.75" y="-172.5" font-family="Helvetica,sans-Serif" font-size="10.00" fill="grey"> ~softwareService</text>
</g>
<!-- Node3 -->
<g id="Node000003" class="node">
<title>Node3</title>
<g id="a_Node000003"><a xlink:href="interfacefr_1_1softsf_1_1sudofx2024_1_1repository_1_1_software_repository.html" target="_top" xlink:title=" ">
<polygon fill="white" stroke="none" points="143,-454 0,-454 0,-378 143,-378 143,-454"/>
<text text-anchor="start" x="4" y="-440.5" font-family="Helvetica,sans-Serif" font-size="10.00">fr.softsf.sudofx2024.repository.</text>
<text text-anchor="start" x="28.38" y="-428.5" font-family="Helvetica,sans-Serif" font-size="10.00">SoftwareRepository</text>
<text text-anchor="start" x="70" y="-412.5" font-family="Helvetica,sans-Serif" font-size="10.00"> </text>
<text text-anchor="start" x="12.19" y="-396.5" font-family="Helvetica,sans-Serif" font-size="10.00">+</text>
<text text-anchor="start" x="30.38" y="-396.5" font-family="Helvetica,sans-Serif" font-size="10.00">Optional&lt; Software</text>
<text text-anchor="start" x="30.38" y="-384.5" font-family="Helvetica,sans-Serif" font-size="10.00"> &gt; findFirstSoftware()</text>
<polygon fill="#666666" stroke="#666666" points="0,-424 0,-424 143,-424 143,-424 0,-424"/>
<polygon fill="#666666" stroke="#666666" points="0,-408 0,-408 143,-408 143,-408 0,-408"/>
<polygon fill="none" stroke="#666666" points="0,-378 0,-454 143,-454 143,-378 0,-378"/>
</a>
</g>
</g>
<!-- Node3&#45;&gt;Node2 -->
<g id="edge2_Node000002_Node000003" class="edge">
<title>Node3&#45;&gt;Node2</title>
<g id="a_edge2_Node000002_Node000003"><a xlink:title=" ">
<path fill="none" stroke="#63b8ff" d="M92.59,-378.03C101.36,-362.66 111.83,-344.32 121.88,-326.69"/>
<polygon fill="none" stroke="#63b8ff" points="121.68,-327.05 121.18,-319.85 127.63,-316.62 128.13,-323.82 121.68,-327.05"/>
</a>
</g>
<text text-anchor="middle" x="161.38" y="-336.5" font-family="Helvetica,sans-Serif" font-size="10.00" fill="grey"> &#45;softwareRepository</text>
</g>
<!-- Node4 -->
<g id="Node000004" class="node">
<title>Node4</title>
<g id="a_Node000004"><a xlink:title=" ">
<polygon fill="white" stroke="none" points="132.5,-569 10.5,-569 10.5,-505 132.5,-505 132.5,-569"/>
<text text-anchor="start" x="14.5" y="-555.5" font-family="Helvetica,sans-Serif" font-size="10.00">JpaRepository&lt; Software,</text>
<text text-anchor="start" x="55" y="-543.5" font-family="Helvetica,sans-Serif" font-size="10.00"> Long &gt;</text>
<text text-anchor="start" x="70" y="-527.5" font-family="Helvetica,sans-Serif" font-size="10.00"> </text>
<text text-anchor="start" x="70" y="-511.5" font-family="Helvetica,sans-Serif" font-size="10.00"> </text>
<polygon fill="#666666" stroke="#666666" points="10.5,-539 10.5,-539 132.5,-539 132.5,-539 10.5,-539"/>
<polygon fill="#666666" stroke="#666666" points="10.5,-523 10.5,-523 132.5,-523 132.5,-523 10.5,-523"/>
<polygon fill="none" stroke="#666666" points="10.5,-505 10.5,-569 132.5,-569 132.5,-505 10.5,-505"/>
</a>
</g>
</g>
<!-- Node4&#45;&gt;Node3 -->
<g id="edge3_Node000003_Node000004" class="edge">
<title>Node4&#45;&gt;Node3</title>
<g id="a_edge3_Node000003_Node000004"><a xlink:title=" ">
<path fill="none" stroke="#63b8ff" d="M71.5,-493.91C71.5,-480.79 71.5,-466.44 71.5,-453.72"/>
<polygon fill="none" stroke="#63b8ff" points="68,-493.53 71.5,-503.53 75,-493.53 68,-493.53"/>
</a>
</g>
</g>
<!-- Node5 -->
<g id="Node000005" class="node">
<title>Node5</title>
<g id="a_Node000005"><a xlink:href="interfacefr_1_1softsf_1_1sudofx2024_1_1interfaces_1_1mapper_1_1_i_software_mapper.html" target="_top" xlink:title="This interface defines methods for mapping objects of type Software to objects of type SoftwareDto an...">
<polygon fill="white" stroke="none" points="340,-468 161,-468 161,-364 340,-364 340,-468"/>
<text text-anchor="start" x="165" y="-454.5" font-family="Helvetica,sans-Serif" font-size="10.00">fr.softsf.sudofx2024.interfaces.mapper.</text>
<text text-anchor="start" x="213.38" y="-442.5" font-family="Helvetica,sans-Serif" font-size="10.00">ISoftwareMapper</text>
<text text-anchor="start" x="249" y="-426.5" font-family="Helvetica,sans-Serif" font-size="10.00"> </text>
<text text-anchor="start" x="173.75" y="-410.5" font-family="Helvetica,sans-Serif" font-size="10.00">+</text>
<text text-anchor="start" x="192.5" y="-410.5" font-family="Helvetica,sans-Serif" font-size="10.00">Software mapSoftwareDtoTo</text>
<text text-anchor="start" x="192.5" y="-398.5" font-family="Helvetica,sans-Serif" font-size="10.00">Software(SoftwareDto dto)</text>
<text text-anchor="start" x="173.75" y="-382.5" font-family="Helvetica,sans-Serif" font-size="10.00">+</text>
<text text-anchor="start" x="192.5" y="-382.5" font-family="Helvetica,sans-Serif" font-size="10.00">SoftwareDto mapSoftwareTo</text>
<text text-anchor="start" x="192.5" y="-370.5" font-family="Helvetica,sans-Serif" font-size="10.00">Dto(Software software)</text>
<polygon fill="#666666" stroke="#666666" points="161,-438 161,-438 340,-438 340,-438 161,-438"/>
<polygon fill="#666666" stroke="#666666" points="161,-422 161,-422 340,-422 340,-422 161,-422"/>
<polygon fill="none" stroke="#666666" points="161,-364 161,-468 340,-468 340,-364 161,-364"/>
</a>
</g>
</g>
<!-- Node5&#45;&gt;Node2 -->
<g id="edge4_Node000002_Node000005" class="edge">
<title>Node5&#45;&gt;Node2</title>
<g id="a_edge4_Node000002_Node000005"><a xlink:title=" ">
<path fill="none" stroke="#63b8ff" d="M226.74,-364.35C221.62,-354.17 216.07,-343.64 210.5,-334 209.16,-331.67 207.77,-329.32 206.34,-326.95"/>
<polygon fill="none" stroke="#63b8ff" points="206.27,-326.83 199.71,-323.82 199.97,-316.61 206.52,-319.62 206.27,-326.83"/>
</a>
</g>
<text text-anchor="middle" x="256.25" y="-336.5" font-family="Helvetica,sans-Serif" font-size="10.00" fill="grey"> &#45;iSoftwareMapper</text>
</g>
<!-- Node5&#45;&gt;Node5 -->
<g id="edge5_Node000005_Node000005" class="edge">
<title>Node5&#45;&gt;Node5</title>
<g id="a_edge5_Node000005_Node000005"><a xlink:title=" ">
<path fill="none" stroke="#63b8ff" d="M339.88,-427.44C350.83,-425.39 358,-421.58 358,-416 358,-412.95 355.85,-410.43 352.12,-408.43"/>
<polygon fill="none" stroke="#63b8ff" points="352.18,-408.45 345.25,-410.46 340.74,-404.84 347.67,-402.83 352.18,-408.45"/>
</a>
</g>
<text text-anchor="middle" x="388" y="-412.5" font-family="Helvetica,sans-Serif" font-size="10.00" fill="grey"> +INSTANCE</text>
</g>
<!-- Node6 -->
<g id="Node000006" class="node">
<title>Node6</title>
<g id="a_Node000006"><a xlink:title=" ">
<polygon fill="white" stroke="none" points="326.62,-284 256.38,-284 256.38,-232 326.62,-232 326.62,-284"/>
<text text-anchor="start" x="260.38" y="-270.5" font-family="Helvetica,sans-Serif" font-size="10.00">StringProperty</text>
<text text-anchor="start" x="290" y="-254.5" font-family="Helvetica,sans-Serif" font-size="10.00"> </text>
<text text-anchor="start" x="290" y="-238.5" font-family="Helvetica,sans-Serif" font-size="10.00"> </text>
<polygon fill="#666666" stroke="#666666" points="256.38,-266 256.38,-266 326.62,-266 326.62,-266 256.38,-266"/>
<polygon fill="#666666" stroke="#666666" points="256.38,-250 256.38,-250 326.62,-250 326.62,-250 256.38,-250"/>
<polygon fill="none" stroke="#666666" points="256.38,-232 256.38,-284 326.62,-284 326.62,-232 256.38,-232"/>
</a>
</g>
</g>
<!-- Node6&#45;&gt;Node1 -->
<g id="edge6_Node000001_Node000006" class="edge">
<title>Node6&#45;&gt;Node1</title>
<g id="a_edge6_Node000001_Node000006"><a xlink:title=" ">
<path fill="none" stroke="#63b8ff" d="M286.58,-232.24C282.76,-214.62 276.87,-190.53 269.5,-170 268.76,-167.95 268,-165.88 267.21,-163.8"/>
<polygon fill="none" stroke="#63b8ff" points="267.21,-163.83 261.27,-159.74 262.76,-152.69 268.7,-156.77 267.21,-163.83"/>
</a>
</g>
<text text-anchor="middle" x="300.02" y="-172.5" font-family="Helvetica,sans-Serif" font-size="10.00" fill="grey"> ~_welcome</text>
</g>
</g>
</svg>

<g id="navigator" transform="translate(0 0)" fill="#404254">
  <rect fill="#f2f5e9" fill-opacity="0.5" stroke="#606060" stroke-width=".5" x="0" y="0" width="60" height="60"/>
  <use id="zoomplus" xlink:href="#zoomPlus" x="17" y="9" onmousedown="handleZoom(evt,'in')"/>
  <use id="zoomminus" xlink:href="#zoomMin" x="42" y="9" onmousedown="handleZoom(evt,'out')"/>
  <use id="reset" xlink:href="#resetDef" x="30" y="36" onmousedown="handleReset()"/>
   <use id="arrowup" xlink:href="#arrowUp" x="0" y="0" onmousedown="handlePan(0,-1)"/>
  <use id="arrowright" xlink:href="#arrowRight" x="0" y="0" onmousedown="handlePan(1,0)"/>
  <use id="arrowdown" xlink:href="#arrowDown" x="0" y="0" onmousedown="handlePan(0,1)"/>
  <use id="arrowleft" xlink:href="#arrowLeft" x="0" y="0" onmousedown="handlePan(-1,0)"/>
</g>
<svg viewBox="0 0 15 15" width="100%" height="30px" preserveAspectRatio="xMaxYMin meet">
 <g id="arrow_out" transform="scale(0.3 0.3)">
  <a xlink:href="classfr_1_1softsf_1_1sudofx2024_1_1viewmodel_1_1_full_menu_view_model__coll__graph_org.svg" target="_base">
   <rect id="button" ry="5" rx="5" y="6" x="6" height="38" width="38"
        fill="#f2f5e9" fill-opacity="0.5" stroke="#606060" stroke-width="1.0"/>
   <path id="arrow"
     d="M 11.500037,31.436501 C 11.940474,20.09759 22.043105,11.32322 32.158766,21.979434 L 37.068811,17.246167 C 37.068811,17.246167 37.088388,32 37.088388,32 L 22.160133,31.978069 C 22.160133,31.978069 26.997745,27.140456 26.997745,27.140456 C 18.528582,18.264221 13.291696,25.230495 11.500037,31.436501 z"
     style="fill:#404040;"/>
  </a>
 </g>
</svg>

<style type='text/css'>
<![CDATA[
[data-mouse-over-selected='false'] { opacity: 0.7; }
[data-mouse-over-selected='true']  { opacity: 1.0; }
]]>
</style>
<script type="application/ecmascript"><![CDATA[
document.addEventListener('DOMContentLoaded', (event) => {
  highlightEdges();
  highlightAdjacentNodes();
});
]]></script>
</svg>
