<?xml version="1.0" encoding="UTF-8" standalone="no"?>
<!DOCTYPE svg PUBLIC "-//W3C//DTD SVG 1.1//EN"
 "http://www.w3.org/Graphics/SVG/1.1/DTD/svg11.dtd">
<!-- Generated by graphviz version 12.2.1 (20241206.2353)
 -->
<!-- Title: fr.softsf.sudokufx.configuration.database.ApplicationKeystore.credentials Pages: 1 -->
<svg width="903pt" height="90pt"
 viewBox="0.00 0.00 903.00 90.00" xmlns="http://www.w3.org/2000/svg" xmlns:xlink="http://www.w3.org/1999/xlink">
<g id="graph0" class="graph" transform="scale(1 1) rotate(0) translate(4 86)">
<title>fr.softsf.sudokufx.configuration.database.ApplicationKeystore.credentials</title>
<!-- Node1 -->
<g id="Node000001" class="node">
<title>Node1</title>
<g id="a_Node000001"><a xlink:title="Get or set credentials by alias.">
<polygon fill="#999999" stroke="#666666" points="196.75,-57 0,-57 0,-25 196.75,-25 196.75,-57"/>
<text text-anchor="start" x="8" y="-43.5" font-family="Helvetica,sans-Serif" font-size="10.00">fr.softsf.sudokufx.configuration.database.</text>
<text text-anchor="middle" x="98.38" y="-31.5" font-family="Helvetica,sans-Serif" font-size="10.00">ApplicationKeystore.credentials</text>
</a>
</g>
</g>
<!-- Node2 -->
<g id="Node000002" class="node">
<title>Node2</title>
<g id="a_Node000002"><a xlink:href="classfr_1_1softsf_1_1sudokufx_1_1configuration_1_1database_1_1_application_keystore.html#a0d35372de341ee492a6d5fb3d51fb2ba" target="_top" xlink:title="Get credential by alias.">
<polygon fill="white" stroke="#666666" points="429.5,-82 232.75,-82 232.75,-50 429.5,-50 429.5,-82"/>
<text text-anchor="start" x="240.75" y="-68.5" font-family="Helvetica,sans-Serif" font-size="10.00">fr.softsf.sudokufx.configuration.database.</text>
<text text-anchor="middle" x="331.12" y="-56.5" font-family="Helvetica,sans-Serif" font-size="10.00">ApplicationKeystore.getCredentials</text>
</a>
</g>
</g>
<!-- Node1&#45;&gt;Node2 -->
<g id="edge1_Node000001_Node000002" class="edge">
<title>Node1&#45;&gt;Node2</title>
<g id="a_edge1_Node000001_Node000002"><a xlink:title=" ">
<path fill="none" stroke="#63b8ff" d="M197.23,-51.6C205.17,-52.46 213.21,-53.33 221.21,-54.2"/>
<polygon fill="#63b8ff" stroke="#63b8ff" points="220.66,-57.66 230.98,-55.26 221.41,-50.7 220.66,-57.66"/>
</a>
</g>
</g>
<!-- Node3 -->
<g id="Node000003" class="node">
<title>Node3</title>
<g id="a_Node000003"><a xlink:href="classfr_1_1softsf_1_1sudokufx_1_1configuration_1_1database_1_1_application_keystore.html#a11f7f45df04c2a5c9cf71776b142b488" target="_top" xlink:title="Set credential by alias.">
<polygon fill="white" stroke="#666666" points="429.5,-32 232.75,-32 232.75,0 429.5,0 429.5,-32"/>
<text text-anchor="start" x="240.75" y="-18.5" font-family="Helvetica,sans-Serif" font-size="10.00">fr.softsf.sudokufx.configuration.database.</text>
<text text-anchor="middle" x="331.12" y="-6.5" font-family="Helvetica,sans-Serif" font-size="10.00">ApplicationKeystore.setCredentials</text>
</a>
</g>
</g>
<!-- Node1&#45;&gt;Node3 -->
<g id="edge2_Node000001_Node000003" class="edge">
<title>Node1&#45;&gt;Node3</title>
<g id="a_edge2_Node000001_Node000003"><a xlink:title=" ">
<path fill="none" stroke="#63b8ff" d="M197.23,-30.4C205.17,-29.54 213.21,-28.67 221.21,-27.8"/>
<polygon fill="#63b8ff" stroke="#63b8ff" points="221.41,-31.3 230.98,-26.74 220.66,-24.34 221.41,-31.3"/>
</a>
</g>
</g>
<!-- Node4 -->
<g id="Node000004" class="node">
<title>Node4</title>
<g id="a_Node000004"><a xlink:href="classfr_1_1softsf_1_1sudokufx_1_1configuration_1_1database_1_1_application_keystore.html#a1632efeaf8085ba148777459a03da030" target="_top" xlink:title="Add alias:secret in the Keystore.">
<polygon fill="white" stroke="#666666" points="662.25,-32 465.5,-32 465.5,0 662.25,0 662.25,-32"/>
<text text-anchor="start" x="473.5" y="-18.5" font-family="Helvetica,sans-Serif" font-size="10.00">fr.softsf.sudokufx.configuration.database.</text>
<text text-anchor="middle" x="563.88" y="-6.5" font-family="Helvetica,sans-Serif" font-size="10.00">ApplicationKeystore.addToKeystore</text>
</a>
</g>
</g>
<!-- Node3&#45;&gt;Node4 -->
<g id="edge3_Node000003_Node000004" class="edge">
<title>Node3&#45;&gt;Node4</title>
<g id="a_edge3_Node000003_Node000004"><a xlink:title=" ">
<path fill="none" stroke="#63b8ff" d="M429.98,-16C437.92,-16 445.96,-16 453.96,-16"/>
<polygon fill="#63b8ff" stroke="#63b8ff" points="453.72,-19.5 463.72,-16 453.72,-12.5 453.72,-19.5"/>
</a>
</g>
</g>
<!-- Node5 -->
<g id="Node000005" class="node">
<title>Node5</title>
<g id="a_Node000005"><a xlink:href="classfr_1_1softsf_1_1sudokufx_1_1configuration_1_1database_1_1_application_keystore.html#a47a29c9d920c90352ec1a7226e2707bf" target="_top" xlink:title="Write data to the keystore file.">
<polygon fill="white" stroke="#666666" points="895,-32 698.25,-32 698.25,0 895,0 895,-32"/>
<text text-anchor="start" x="706.25" y="-18.5" font-family="Helvetica,sans-Serif" font-size="10.00">fr.softsf.sudokufx.configuration.database.</text>
<text text-anchor="middle" x="796.62" y="-6.5" font-family="Helvetica,sans-Serif" font-size="10.00">ApplicationKeystore.writeTheKeystore</text>
</a>
</g>
</g>
<!-- Node4&#45;&gt;Node5 -->
<g id="edge4_Node000004_Node000005" class="edge">
<title>Node4&#45;&gt;Node5</title>
<g id="a_edge4_Node000004_Node000005"><a xlink:title=" ">
<path fill="none" stroke="#63b8ff" d="M662.73,-16C670.67,-16 678.71,-16 686.71,-16"/>
<polygon fill="#63b8ff" stroke="#63b8ff" points="686.47,-19.5 696.47,-16 686.47,-12.5 686.47,-19.5"/>
</a>
</g>
</g>
</g>
</svg>
