<?xml version="1.0" encoding="UTF-8" standalone="no"?>
<!DOCTYPE svg PUBLIC "-//W3C//DTD SVG 1.1//EN"
 "http://www.w3.org/Graphics/SVG/1.1/DTD/svg11.dtd">
<!-- Generated by graphviz version 12.2.0 (20241103.1931)
 -->
<!-- Title: fr.softsf.sudofx2024.model.Game Pages: 1 -->
<!--zoomable 532 -->

<svg id="main" version="1.1" xmlns="http://www.w3.org/2000/svg" xmlns:xlink="http://www.w3.org/1999/xlink" xml:space="preserve" onload="init(evt)">

<style type="text/css"><![CDATA[
.node, .edge {opacity: 0.7;}
.node.selected, .edge.selected {opacity: 1;}
.edge:hover path { stroke: red; }
.edge:hover polygon { stroke: red; fill: red; }
]]></style>

<defs>
  <circle id="rim" cx="0" cy="0" r="7"/>
  <circle id="rim2" cx="0" cy="0" r="3.5"/>
  <g id="zoomPlus">
    <use xlink:href="#rim" fill="#404040"><set attributeName="fill" to="#808080" begin="zoomplus.mouseover" end="zoomplus.mouseout"/></use>
    <path d="M-4,0h8M0,-4v8" fill="none" stroke="white" stroke-width="1.5" pointer-events="none"/>
  </g>
  <g id="zoomMin">
    <use xlink:href="#rim" fill="#404040"><set attributeName="fill" to="#808080" begin="zoomminus.mouseover" end="zoomminus.mouseout"/></use>
    <path d="M-4,0h8" fill="none" stroke="white" stroke-width="1.5" pointer-events="none"/>
  </g>
  <g id="arrowUp" transform="translate(30 24)">
    <use xlink:href="#rim"/>
    <path pointer-events="none" fill="none" stroke="white" stroke-width="1.5" d="M0,-3.0v7 M-2.5,-0.5L0,-3.0L2.5,-0.5"/>
  </g>
  <g id="arrowRight" transform="rotate(90) translate(36 -43)">
    <use xlink:href="#rim"/>
    <path pointer-events="none" fill="none" stroke="white" stroke-width="1.5" d="M0,-3.0v7 M-2.5,-0.5L0,-3.0L2.5,-0.5"/>
  </g>
  <g id="arrowDown" transform="rotate(180) translate(-30 -48)">
    <use xlink:href="#rim"/>
    <path pointer-events="none" fill="none" stroke="white" stroke-width="1.5" d="M0,-3.0v7 M-2.5,-0.5L0,-3.0L2.5,-0.5"/>
  </g>
  <g id="arrowLeft" transform="rotate(270) translate(-36 17)">
    <use xlink:href="#rim"/>
    <path pointer-events="none" fill="none" stroke="white" stroke-width="1.5" d="M0,-3.0v7 M-2.5,-0.5L0,-3.0L2.5,-0.5"/>
  </g>
  <g id="resetDef">
    <use xlink:href="#rim2" fill="#404040"><set attributeName="fill" to="#808080" begin="reset.mouseover" end="reset.mouseout"/></use>
  </g>
</defs>
<script type="application/ecmascript">
var viewWidth = 800;
var viewHeight = 532;
var sectionId = 'dynsection-0';
</script>
<script type="application/ecmascript" xlink:href="svg.min.js"/>
<svg id="graph" class="graph">
<g id="viewport">
<title>fr.softsf.sudofx2024.model.Game</title>
<!-- Node1 -->
<g id="Node000001" class="node">
<title>Node1</title>
<g id="a_Node000001"><a xlink:title=" ">
<polygon fill="#999999" stroke="none" points="647.38,-68 493.88,-68 493.88,0 647.38,0 647.38,-68"/>
<text text-anchor="start" x="497.88" y="-54.5" font-family="Helvetica,sans-Serif" font-size="10.00">fr.softsf.sudofx2024.model.Game</text>
<text text-anchor="start" x="512.25" y="-38.5" font-family="Helvetica,sans-Serif" font-size="10.00">&#45;</text>
<text text-anchor="start" x="533.62" y="-38.5" font-family="Helvetica,sans-Serif" font-size="10.00">Long gameid</text>
<text text-anchor="start" x="512.25" y="-22.5" font-family="Helvetica,sans-Serif" font-size="10.00">&#45;</text>
<text text-anchor="start" x="533.62" y="-22.5" font-family="Helvetica,sans-Serif" font-size="10.00">boolean isselected</text>
<text text-anchor="start" x="569.12" y="-6.5" font-family="Helvetica,sans-Serif" font-size="10.00"> </text>
<polygon fill="#666666" stroke="#666666" points="493.88,-50 493.88,-50 647.38,-50 647.38,-50 493.88,-50"/>
<polygon fill="#666666" stroke="#666666" points="493.88,-18 493.88,-18 531.62,-18 531.62,-18 493.88,-18"/>
<polygon fill="#666666" stroke="#666666" points="531.62,-18 531.62,-18 647.38,-18 647.38,-18 531.62,-18"/>
<polygon fill="none" stroke="#666666" points="493.88,0 493.88,-68 647.38,-68 647.38,0 493.88,0"/>
</a>
</g>
</g>
<!-- Node2 -->
<g id="Node000002" class="node">
<title>Node2</title>
<g id="a_Node000002"><a xlink:href="classfr_1_1softsf_1_1sudofx2024_1_1model_1_1_grid.html" target="_top" xlink:title=" ">
<polygon fill="white" stroke="none" points="392.25,-220 247,-220 247,-136 392.25,-136 392.25,-220"/>
<text text-anchor="start" x="251" y="-206.5" font-family="Helvetica,sans-Serif" font-size="10.00">fr.softsf.sudofx2024.model.Grid</text>
<text text-anchor="start" x="259.38" y="-190.5" font-family="Helvetica,sans-Serif" font-size="10.00">&#45;</text>
<text text-anchor="start" x="274.75" y="-190.5" font-family="Helvetica,sans-Serif" font-size="10.00">String defaultgridvalue</text>
<text text-anchor="start" x="259.38" y="-174.5" font-family="Helvetica,sans-Serif" font-size="10.00">&#45;</text>
<text text-anchor="start" x="274.75" y="-174.5" font-family="Helvetica,sans-Serif" font-size="10.00">Long gridid</text>
<text text-anchor="start" x="259.38" y="-158.5" font-family="Helvetica,sans-Serif" font-size="10.00">&#45;</text>
<text text-anchor="start" x="274.75" y="-158.5" font-family="Helvetica,sans-Serif" font-size="10.00">String gridvalue</text>
<text text-anchor="start" x="318.12" y="-142.5" font-family="Helvetica,sans-Serif" font-size="10.00"> </text>
<polygon fill="#666666" stroke="#666666" points="247,-202 247,-202 392.25,-202 392.25,-202 247,-202"/>
<polygon fill="#666666" stroke="#666666" points="247,-154 247,-154 272.75,-154 272.75,-154 247,-154"/>
<polygon fill="#666666" stroke="#666666" points="272.75,-154 272.75,-154 392.25,-154 392.25,-154 272.75,-154"/>
<polygon fill="none" stroke="#666666" points="247,-136 247,-220 392.25,-220 392.25,-136 247,-136"/>
</a>
</g>
</g>
<!-- Node2&#45;&gt;Node1 -->
<g id="edge1_Node000001_Node000002" class="edge">
<title>Node2&#45;&gt;Node1</title>
<g id="a_edge1_Node000001_Node000002"><a xlink:title=" ">
<path fill="none" stroke="#63b8ff" d="M371.52,-136.08C381.29,-129.04 391.6,-122.05 401.62,-116 427.1,-100.62 455.94,-85.89 482.5,-73.3"/>
<polygon fill="none" stroke="#63b8ff" points="482.43,-73.34 486.17,-67.17 493.3,-68.25 489.56,-74.41 482.43,-73.34"/>
</a>
</g>
<text text-anchor="middle" x="470.43" y="-88.5" font-family="Helvetica,sans-Serif" font-size="10.00" fill="grey"> &#45;gridid</text>
</g>
<!-- Node3 -->
<g id="Node000003" class="node">
<title>Node3</title>
<g id="a_Node000003"><a xlink:href="classfr_1_1softsf_1_1sudofx2024_1_1model_1_1_player.html" target="_top" xlink:title=" ">
<polygon fill="white" stroke="none" points="550.75,-240 410.5,-240 410.5,-116 550.75,-116 550.75,-240"/>
<text text-anchor="start" x="421" y="-226.5" font-family="Helvetica,sans-Serif" font-size="10.00">fr.softsf.sudofx2024.model.</text>
<text text-anchor="start" x="466.75" y="-214.5" font-family="Helvetica,sans-Serif" font-size="10.00">Player</text>
<text text-anchor="start" x="416" y="-198.5" font-family="Helvetica,sans-Serif" font-size="10.00">&#45;</text>
<text text-anchor="start" x="424.5" y="-198.5" font-family="Helvetica,sans-Serif" font-size="10.00">boolean isselected</text>
<text text-anchor="start" x="416" y="-182.5" font-family="Helvetica,sans-Serif" font-size="10.00">&#45;</text>
<text text-anchor="start" x="424.5" y="-182.5" font-family="Helvetica,sans-Serif" font-size="10.00">String name</text>
<text text-anchor="start" x="416" y="-166.5" font-family="Helvetica,sans-Serif" font-size="10.00">&#45;</text>
<text text-anchor="start" x="424.5" y="-166.5" font-family="Helvetica,sans-Serif" font-size="10.00">Long playerid</text>
<text text-anchor="start" x="414.5" y="-150.5" font-family="Helvetica,sans-Serif" font-size="10.00">+</text>
<text text-anchor="start" x="424.5" y="-150.5" font-family="Helvetica,sans-Serif" font-size="10.00">void addGame(Game game)</text>
<text text-anchor="start" x="414.5" y="-134.5" font-family="Helvetica,sans-Serif" font-size="10.00">+</text>
<text text-anchor="start" x="424.5" y="-134.5" font-family="Helvetica,sans-Serif" font-size="10.00">void removeGame(Game</text>
<text text-anchor="start" x="424.5" y="-122.5" font-family="Helvetica,sans-Serif" font-size="10.00"> game)</text>
<polygon fill="#666666" stroke="#666666" points="410.5,-210 410.5,-210 550.75,-210 550.75,-210 410.5,-210"/>
<polygon fill="#666666" stroke="#666666" points="410.5,-162 410.5,-162 422.5,-162 422.5,-162 410.5,-162"/>
<polygon fill="#666666" stroke="#666666" points="422.5,-162 422.5,-162 550.75,-162 550.75,-162 422.5,-162"/>
<polygon fill="none" stroke="#666666" points="410.5,-116 410.5,-240 550.75,-240 550.75,-116 410.5,-116"/>
</a>
</g>
</g>
<!-- Node3&#45;&gt;Node1 -->
<g id="edge2_Node000001_Node000003" class="edge">
<title>Node3&#45;&gt;Node1</title>
<g id="a_edge2_Node000001_Node000003"><a xlink:title=" ">
<path fill="none" stroke="#63b8ff" d="M519.05,-116.37C527.09,-103.69 535.42,-90.55 542.97,-78.63"/>
<polygon fill="none" stroke="#63b8ff" points="543.03,-78.53 542.87,-71.32 549.46,-68.4 549.62,-75.61 543.03,-78.53"/>
</a>
</g>
<text text-anchor="middle" x="556.21" y="-88.5" font-family="Helvetica,sans-Serif" font-size="10.00" fill="grey"> &#45;playerid</text>
</g>
<!-- Node4 -->
<g id="Node000004" class="node">
<title>Node4</title>
<g id="a_Node000004"><a xlink:href="classfr_1_1softsf_1_1sudofx2024_1_1model_1_1_player_language.html" target="_top" xlink:title=" ">
<polygon fill="white" stroke="none" points="127.25,-396 0,-396 0,-316 127.25,-316 127.25,-396"/>
<text text-anchor="start" x="4" y="-382.5" font-family="Helvetica,sans-Serif" font-size="10.00">fr.softsf.sudofx2024.model.</text>
<text text-anchor="start" x="28.75" y="-370.5" font-family="Helvetica,sans-Serif" font-size="10.00">PlayerLanguage</text>
<text text-anchor="start" x="7.88" y="-354.5" font-family="Helvetica,sans-Serif" font-size="10.00">&#45;</text>
<text text-anchor="start" x="18.75" y="-354.5" font-family="Helvetica,sans-Serif" font-size="10.00">String iso</text>
<text text-anchor="start" x="7.88" y="-338.5" font-family="Helvetica,sans-Serif" font-size="10.00">&#45;</text>
<text text-anchor="start" x="18.75" y="-338.5" font-family="Helvetica,sans-Serif" font-size="10.00">Long playerlanguageid</text>
<text text-anchor="start" x="62.12" y="-322.5" font-family="Helvetica,sans-Serif" font-size="10.00"> </text>
<polygon fill="#666666" stroke="#666666" points="0,-366 0,-366 127.25,-366 127.25,-366 0,-366"/>
<polygon fill="#666666" stroke="#666666" points="0,-334 0,-334 16.75,-334 16.75,-334 0,-334"/>
<polygon fill="#666666" stroke="#666666" points="16.75,-334 16.75,-334 127.25,-334 127.25,-334 16.75,-334"/>
<polygon fill="none" stroke="#666666" points="0,-316 0,-396 127.25,-396 127.25,-316 0,-316"/>
</a>
</g>
</g>
<!-- Node4&#45;&gt;Node3 -->
<g id="edge3_Node000003_Node000004" class="edge">
<title>Node4&#45;&gt;Node3</title>
<g id="a_edge3_Node000003_Node000004"><a xlink:title=" ">
<path fill="none" stroke="#63b8ff" d="M111.84,-316.01C119.61,-310.37 127.7,-304.84 135.62,-300 172.7,-277.36 182.04,-269.69 223.88,-258 296.46,-237.71 324.94,-266.21 398.52,-240.51"/>
<polygon fill="none" stroke="#63b8ff" points="398.66,-240.46 402.86,-234.6 409.89,-236.23 405.68,-242.09 398.66,-240.46"/>
</a>
</g>
<text text-anchor="middle" x="263.25" y="-266.5" font-family="Helvetica,sans-Serif" font-size="10.00" fill="grey"> &#45;playerlanguageid</text>
</g>
<!-- Node5 -->
<g id="Node000005" class="node">
<title>Node5</title>
<g id="a_Node000005"><a xlink:href="classfr_1_1softsf_1_1sudofx2024_1_1model_1_1_background.html" target="_top" xlink:title=" ">
<polygon fill="white" stroke="none" points="272.25,-412 145,-412 145,-300 272.25,-300 272.25,-412"/>
<text text-anchor="start" x="149" y="-398.5" font-family="Helvetica,sans-Serif" font-size="10.00">fr.softsf.sudofx2024.model.</text>
<text text-anchor="start" x="182.75" y="-386.5" font-family="Helvetica,sans-Serif" font-size="10.00">Background</text>
<text text-anchor="start" x="156.62" y="-370.5" font-family="Helvetica,sans-Serif" font-size="10.00">&#45;</text>
<text text-anchor="start" x="171.25" y="-370.5" font-family="Helvetica,sans-Serif" font-size="10.00">Long backgroundid</text>
<text text-anchor="start" x="156.62" y="-354.5" font-family="Helvetica,sans-Serif" font-size="10.00">&#45;</text>
<text text-anchor="start" x="171.25" y="-354.5" font-family="Helvetica,sans-Serif" font-size="10.00">String hexcolor</text>
<text text-anchor="start" x="156.62" y="-338.5" font-family="Helvetica,sans-Serif" font-size="10.00">&#45;</text>
<text text-anchor="start" x="171.25" y="-338.5" font-family="Helvetica,sans-Serif" font-size="10.00">String imagepath</text>
<text text-anchor="start" x="156.62" y="-322.5" font-family="Helvetica,sans-Serif" font-size="10.00">&#45;</text>
<text text-anchor="start" x="171.25" y="-322.5" font-family="Helvetica,sans-Serif" font-size="10.00">boolean isimage</text>
<text text-anchor="start" x="207.12" y="-306.5" font-family="Helvetica,sans-Serif" font-size="10.00"> </text>
<polygon fill="#666666" stroke="#666666" points="145,-382 145,-382 272.25,-382 272.25,-382 145,-382"/>
<polygon fill="#666666" stroke="#666666" points="145,-318 145,-318 169.25,-318 169.25,-318 145,-318"/>
<polygon fill="#666666" stroke="#666666" points="169.25,-318 169.25,-318 272.25,-318 272.25,-318 169.25,-318"/>
<polygon fill="none" stroke="#666666" points="145,-300 145,-412 272.25,-412 272.25,-300 145,-300"/>
</a>
</g>
</g>
<!-- Node5&#45;&gt;Node3 -->
<g id="edge4_Node000003_Node000005" class="edge">
<title>Node5&#45;&gt;Node3</title>
<g id="a_edge4_Node000003_Node000005"><a xlink:title=" ">
<path fill="none" stroke="#63b8ff" d="M271.97,-306.06C274.88,-303.99 277.77,-301.96 280.62,-300 309.98,-279.83 316.65,-273.18 348.88,-258 368.22,-248.89 377.22,-250.83 399.24,-240.62"/>
<polygon fill="none" stroke="#63b8ff" points="399.28,-240.6 402.81,-234.32 409.98,-235.17 406.44,-241.45 399.28,-240.6"/>
</a>
</g>
<text text-anchor="middle" x="380.75" y="-266.5" font-family="Helvetica,sans-Serif" font-size="10.00" fill="grey"> &#45;backgroundid</text>
</g>
<!-- Node6 -->
<g id="Node000006" class="node">
<title>Node6</title>
<g id="a_Node000006"><a xlink:href="classfr_1_1softsf_1_1sudofx2024_1_1model_1_1_menu.html" target="_top" xlink:title=" ">
<polygon fill="white" stroke="none" points="441.25,-390 290,-390 290,-322 441.25,-322 441.25,-390"/>
<text text-anchor="start" x="294" y="-376.5" font-family="Helvetica,sans-Serif" font-size="10.00">fr.softsf.sudofx2024.model.Menu</text>
<text text-anchor="start" x="314.19" y="-360.5" font-family="Helvetica,sans-Serif" font-size="10.00">&#45;</text>
<text text-anchor="start" x="341.38" y="-360.5" font-family="Helvetica,sans-Serif" font-size="10.00">Long menuid</text>
<text text-anchor="start" x="314.19" y="-344.5" font-family="Helvetica,sans-Serif" font-size="10.00">&#45;</text>
<text text-anchor="start" x="341.38" y="-344.5" font-family="Helvetica,sans-Serif" font-size="10.00">int mode</text>
<text text-anchor="start" x="364.12" y="-328.5" font-family="Helvetica,sans-Serif" font-size="10.00"> </text>
<polygon fill="#666666" stroke="#666666" points="290,-372 290,-372 441.25,-372 441.25,-372 290,-372"/>
<polygon fill="#666666" stroke="#666666" points="290,-340 290,-340 339.38,-340 339.38,-340 290,-340"/>
<polygon fill="#666666" stroke="#666666" points="339.38,-340 339.38,-340 441.25,-340 441.25,-340 339.38,-340"/>
<polygon fill="none" stroke="#666666" points="290,-322 290,-390 441.25,-390 441.25,-322 290,-322"/>
</a>
</g>
</g>
<!-- Node6&#45;&gt;Node3 -->
<g id="edge5_Node000003_Node000006" class="edge">
<title>Node6&#45;&gt;Node3</title>
<g id="a_edge5_Node000003_Node000006"><a xlink:title=" ">
<path fill="none" stroke="#63b8ff" d="M386.99,-322.31C400.17,-302.13 417.62,-275.43 433.87,-250.55"/>
<polygon fill="none" stroke="#63b8ff" points="433.94,-250.45 433.87,-243.24 440.5,-240.41 440.57,-247.62 433.94,-250.45"/>
</a>
</g>
<text text-anchor="middle" x="445.32" y="-266.5" font-family="Helvetica,sans-Serif" font-size="10.00" fill="grey"> &#45;menuid</text>
</g>
<!-- Node7 -->
<g id="Node000007" class="node">
<title>Node7</title>
<g id="a_Node000007"><a xlink:title=" ">
<polygon fill="white" stroke="none" points="610.25,-388 459,-388 459,-324 610.25,-324 610.25,-388"/>
<text text-anchor="start" x="463" y="-374.5" font-family="Helvetica,sans-Serif" font-size="10.00">Set&lt; fr.softsf.sudofx2024.model.</text>
<text text-anchor="start" x="517" y="-362.5" font-family="Helvetica,sans-Serif" font-size="10.00">Game &gt;</text>
<text text-anchor="start" x="533.12" y="-346.5" font-family="Helvetica,sans-Serif" font-size="10.00"> </text>
<text text-anchor="start" x="533.12" y="-330.5" font-family="Helvetica,sans-Serif" font-size="10.00"> </text>
<polygon fill="#666666" stroke="#666666" points="459,-358 459,-358 610.25,-358 610.25,-358 459,-358"/>
<polygon fill="#666666" stroke="#666666" points="459,-342 459,-342 610.25,-342 610.25,-342 459,-342"/>
<polygon fill="none" stroke="#666666" points="459,-324 459,-388 610.25,-388 610.25,-324 459,-324"/>
</a>
</g>
</g>
<!-- Node7&#45;&gt;Node3 -->
<g id="edge6_Node000003_Node000007" class="edge">
<title>Node7&#45;&gt;Node3</title>
<g id="a_edge6_Node000003_Node000007"><a xlink:title=" ">
<path fill="none" stroke="#63b8ff" d="M505.44,-324.03C495.86,-311.87 486.39,-297.19 481.38,-282 478.34,-272.79 476.55,-262.86 475.62,-252.93"/>
<polygon fill="none" stroke="#63b8ff" points="475.62,-252.81 471.28,-247.05 474.92,-240.83 479.26,-246.59 475.62,-252.81"/>
</a>
</g>
<text text-anchor="middle" x="499" y="-266.5" font-family="Helvetica,sans-Serif" font-size="10.00" fill="grey"> &#45;games</text>
</g>
<!-- Node8 -->
<g id="Node000008" class="node">
<title>Node8</title>
<g id="a_Node000008"><a xlink:title=" ">
<polygon fill="white" stroke="none" points="546.12,-524 523.12,-524 523.12,-472 546.12,-472 546.12,-524"/>
<text text-anchor="start" x="527.12" y="-510.5" font-family="Helvetica,sans-Serif" font-size="10.00">Set</text>
<text text-anchor="start" x="533.12" y="-494.5" font-family="Helvetica,sans-Serif" font-size="10.00"> </text>
<text text-anchor="start" x="533.12" y="-478.5" font-family="Helvetica,sans-Serif" font-size="10.00"> </text>
<polygon fill="#666666" stroke="#666666" points="523.12,-506 523.12,-506 546.12,-506 546.12,-506 523.12,-506"/>
<polygon fill="#666666" stroke="#666666" points="523.12,-490 523.12,-490 546.12,-490 546.12,-490 523.12,-490"/>
<polygon fill="none" stroke="#666666" points="523.12,-472 523.12,-524 546.12,-524 546.12,-472 523.12,-472"/>
</a>
</g>
</g>
<!-- Node8&#45;&gt;Node7 -->
<g id="edge7_Node000007_Node000008" class="edge">
<title>Node8&#45;&gt;Node7</title>
<g id="a_edge7_Node000007_Node000008"><a xlink:title=" ">
<path fill="none" stroke="orange" d="M534.62,-461.09C534.62,-438.42 534.62,-409.44 534.62,-387.82"/>
<polygon fill="orange" stroke="orange" points="531.13,-460.78 534.63,-470.78 538.13,-460.78 531.13,-460.78"/>
</a>
</g>
<text text-anchor="start" x="534.62" y="-444.5" font-family="Helvetica,sans-Serif" font-size="10.00" fill="grey"> &lt; fr::softsf::sudofx2024</text>
<text text-anchor="middle" x="587.12" y="-432.5" font-family="Helvetica,sans-Serif" font-size="10.00" fill="grey">::model::Game &gt;</text>
</g>
<!-- Node9 -->
<g id="Node000009" class="node">
<title>Node9</title>
<g id="a_Node000009"><a xlink:title=" ">
<polygon fill="white" stroke="none" points="702.62,-382 628.62,-382 628.62,-330 702.62,-330 702.62,-382"/>
<text text-anchor="start" x="632.62" y="-368.5" font-family="Helvetica,sans-Serif" font-size="10.00">LocalDateTime</text>
<text text-anchor="start" x="664.12" y="-352.5" font-family="Helvetica,sans-Serif" font-size="10.00"> </text>
<text text-anchor="start" x="664.12" y="-336.5" font-family="Helvetica,sans-Serif" font-size="10.00"> </text>
<polygon fill="#666666" stroke="#666666" points="628.62,-364 628.62,-364 702.62,-364 702.62,-364 628.62,-364"/>
<polygon fill="#666666" stroke="#666666" points="628.62,-348 628.62,-348 702.62,-348 702.62,-348 628.62,-348"/>
<polygon fill="none" stroke="#666666" points="628.62,-330 628.62,-382 702.62,-382 702.62,-330 628.62,-330"/>
</a>
</g>
</g>
<!-- Node9&#45;&gt;Node1 -->
<g id="edge10_Node000001_Node000009" class="edge">
<title>Node9&#45;&gt;Node1</title>
<g id="a_edge10_Node000001_Node000009"><a xlink:title=" ">
<path fill="none" stroke="#63b8ff" d="M651.01,-330.26C638.19,-307.52 619.94,-272.51 609.12,-240 606.61,-232.43 589.32,-138.19 578.79,-80.16"/>
<polygon fill="none" stroke="#63b8ff" points="578.82,-80.36 573.82,-75.17 576.68,-68.55 581.69,-73.74 578.82,-80.36"/>
</a>
</g>
<text text-anchor="middle" x="632.38" y="-180.5" font-family="Helvetica,sans-Serif" font-size="10.00" fill="grey"> &#45;createdat</text>
<text text-anchor="middle" x="632.38" y="-168.5" font-family="Helvetica,sans-Serif" font-size="10.00" fill="grey">&#45;updatedat</text>
</g>
<!-- Node9&#45;&gt;Node3 -->
<g id="edge8_Node000003_Node000009" class="edge">
<title>Node9&#45;&gt;Node3</title>
<g id="a_edge8_Node000003_Node000009"><a xlink:title=" ">
<path fill="none" stroke="#63b8ff" d="M650.25,-330.12C642.36,-319.32 631.84,-307.46 619.62,-300 588.71,-281.11 569.29,-303.48 540.12,-282 528.92,-273.75 519.49,-262.71 511.68,-250.91"/>
<polygon fill="none" stroke="#63b8ff" points="511.7,-250.93 505.15,-247.91 505.43,-240.7 511.98,-243.73 511.7,-250.93"/>
</a>
</g>
<text text-anchor="middle" x="563.38" y="-272.5" font-family="Helvetica,sans-Serif" font-size="10.00" fill="grey"> &#45;createdat</text>
<text text-anchor="middle" x="563.38" y="-260.5" font-family="Helvetica,sans-Serif" font-size="10.00" fill="grey">&#45;updatedat</text>
</g>
<!-- Node10 -->
<g id="Node000010" class="node">
<title>Node10</title>
<g id="a_Node000010"><a xlink:href="classfr_1_1softsf_1_1sudofx2024_1_1model_1_1_game_level.html" target="_top" xlink:title=" ">
<polygon fill="white" stroke="none" points="792.25,-218 665,-218 665,-138 792.25,-138 792.25,-218"/>
<text text-anchor="start" x="669" y="-204.5" font-family="Helvetica,sans-Serif" font-size="10.00">fr.softsf.sudofx2024.model.</text>
<text text-anchor="start" x="703.88" y="-192.5" font-family="Helvetica,sans-Serif" font-size="10.00">GameLevel</text>
<text text-anchor="start" x="678.88" y="-176.5" font-family="Helvetica,sans-Serif" font-size="10.00">&#45;</text>
<text text-anchor="start" x="695.75" y="-176.5" font-family="Helvetica,sans-Serif" font-size="10.00">Long levelid</text>
<text text-anchor="start" x="678.88" y="-160.5" font-family="Helvetica,sans-Serif" font-size="10.00">&#45;</text>
<text text-anchor="start" x="695.75" y="-160.5" font-family="Helvetica,sans-Serif" font-size="10.00">String levelname</text>
<text text-anchor="start" x="727.12" y="-144.5" font-family="Helvetica,sans-Serif" font-size="10.00"> </text>
<polygon fill="#666666" stroke="#666666" points="665,-188 665,-188 792.25,-188 792.25,-188 665,-188"/>
<polygon fill="#666666" stroke="#666666" points="665,-156 665,-156 693.75,-156 693.75,-156 665,-156"/>
<polygon fill="#666666" stroke="#666666" points="693.75,-156 693.75,-156 792.25,-156 792.25,-156 693.75,-156"/>
<polygon fill="none" stroke="#666666" points="665,-138 665,-218 792.25,-218 792.25,-138 665,-138"/>
</a>
</g>
</g>
<!-- Node10&#45;&gt;Node1 -->
<g id="edge9_Node000001_Node000010" class="edge">
<title>Node10&#45;&gt;Node1</title>
<g id="a_edge9_Node000001_Node000010"><a xlink:title=" ">
<path fill="none" stroke="#63b8ff" d="M685.45,-138.2C664.22,-119.11 638.6,-96.09 616.96,-76.64"/>
<polygon fill="none" stroke="#63b8ff" points="616.92,-76.6 609.78,-75.57 607.99,-68.58 615.13,-69.62 616.92,-76.6"/>
</a>
</g>
<text text-anchor="middle" x="657.04" y="-88.5" font-family="Helvetica,sans-Serif" font-size="10.00" fill="grey"> &#45;levelid</text>
</g>
</g>
</svg>

<g id="navigator" transform="translate(0 0)" fill="#404254">
  <rect fill="#f2f5e9" fill-opacity="0.5" stroke="#606060" stroke-width=".5" x="0" y="0" width="60" height="60"/>
  <use id="zoomplus" xlink:href="#zoomPlus" x="17" y="9" onmousedown="handleZoom(evt,'in')"/>
  <use id="zoomminus" xlink:href="#zoomMin" x="42" y="9" onmousedown="handleZoom(evt,'out')"/>
  <use id="reset" xlink:href="#resetDef" x="30" y="36" onmousedown="handleReset()"/>
   <use id="arrowup" xlink:href="#arrowUp" x="0" y="0" onmousedown="handlePan(0,-1)"/>
  <use id="arrowright" xlink:href="#arrowRight" x="0" y="0" onmousedown="handlePan(1,0)"/>
  <use id="arrowdown" xlink:href="#arrowDown" x="0" y="0" onmousedown="handlePan(0,1)"/>
  <use id="arrowleft" xlink:href="#arrowLeft" x="0" y="0" onmousedown="handlePan(-1,0)"/>
</g>
<svg viewBox="0 0 15 15" width="100%" height="30px" preserveAspectRatio="xMaxYMin meet">
 <g id="arrow_out" transform="scale(0.3 0.3)">
  <a xlink:href="classfr_1_1softsf_1_1sudofx2024_1_1model_1_1_game__coll__graph_org.svg" target="_base">
   <rect id="button" ry="5" rx="5" y="6" x="6" height="38" width="38"
        fill="#f2f5e9" fill-opacity="0.5" stroke="#606060" stroke-width="1.0"/>
   <path id="arrow"
     d="M 11.500037,31.436501 C 11.940474,20.09759 22.043105,11.32322 32.158766,21.979434 L 37.068811,17.246167 C 37.068811,17.246167 37.088388,32 37.088388,32 L 22.160133,31.978069 C 22.160133,31.978069 26.997745,27.140456 26.997745,27.140456 C 18.528582,18.264221 13.291696,25.230495 11.500037,31.436501 z"
     style="fill:#404040;"/>
  </a>
 </g>
</svg>

<style type='text/css'>
<![CDATA[
[data-mouse-over-selected='false'] { opacity: 0.7; }
[data-mouse-over-selected='true']  { opacity: 1.0; }
]]>
</style>
<script type="application/ecmascript"><![CDATA[
document.addEventListener('DOMContentLoaded', (event) => {
  highlightEdges();
  highlightAdjacentNodes();
});
]]></script>
</svg>
