<?xml version="1.0" encoding="UTF-8" standalone="no"?>
<!DOCTYPE svg PUBLIC "-//W3C//DTD SVG 1.1//EN"
 "http://www.w3.org/Graphics/SVG/1.1/DTD/svg11.dtd">
<!-- Generated by graphviz version 12.2.0 (20241103.1931)
 -->
<!-- Title: fr.softsf.sudokufx.utils.sudoku.GridMaster.creerLesGrilles Pages: 1 -->
<svg width="1504pt" height="359pt"
 viewBox="0.00 0.00 1503.75 358.84" xmlns="http://www.w3.org/2000/svg" xmlns:xlink="http://www.w3.org/1999/xlink">
<g id="graph0" class="graph" transform="scale(1 1) rotate(0) translate(4 354.84)">
<title>fr.softsf.sudokufx.utils.sudoku.GridMaster.creerLesGrilles</title>
<!-- Node1 -->
<g id="Node000001" class="node">
<title>Node1</title>
<g id="a_Node000001"><a xlink:title="Crée les grilles de Sudoku (résolue et à résoudre) en fonction du niveau de difficulté.">
<polygon fill="#999999" stroke="#666666" points="151,-229.84 0,-229.84 0,-197.84 151,-197.84 151,-229.84"/>
<text text-anchor="start" x="8" y="-216.34" font-family="Helvetica,sans-Serif" font-size="10.00">fr.softsf.sudokufx.utils.sudoku.</text>
<text text-anchor="middle" x="75.5" y="-204.34" font-family="Helvetica,sans-Serif" font-size="10.00">GridMaster.creerLesGrilles</text>
</a>
</g>
</g>
<!-- Node2 -->
<g id="Node000002" class="node">
<title>Node2</title>
<g id="a_Node000002"><a xlink:href="classfr_1_1softsf_1_1sudokufx_1_1utils_1_1sudoku_1_1_grid_master.html#ae857c040b7e4c03981660d8cd0383f1f" target="_top" xlink:title="Génère une grille de Sudoku à résoudre en masquant des cases selon le niveau de difficulté.">
<polygon fill="white" stroke="#666666" points="368,-254.84 187,-254.84 187,-222.84 368,-222.84 368,-254.84"/>
<text text-anchor="start" x="195" y="-241.34" font-family="Helvetica,sans-Serif" font-size="10.00">fr.softsf.sudokufx.utils.sudoku.</text>
<text text-anchor="middle" x="277.5" y="-229.34" font-family="Helvetica,sans-Serif" font-size="10.00">GridMaster.genererLaGrilleAResoudre</text>
</a>
</g>
</g>
<!-- Node1&#45;&gt;Node2 -->
<g id="edge1_Node000001_Node000002" class="edge">
<title>Node1&#45;&gt;Node2</title>
<g id="a_edge1_Node000001_Node000002"><a xlink:title=" ">
<path fill="none" stroke="#63b8ff" d="M151.26,-223.19C159.1,-224.17 167.16,-225.18 175.24,-226.18"/>
<polygon fill="#63b8ff" stroke="#63b8ff" points="174.78,-229.66 185.14,-227.42 175.65,-222.71 174.78,-229.66"/>
</a>
</g>
</g>
<!-- Node15 -->
<g id="Node000015" class="node">
<title>Node15</title>
<g id="a_Node000015"><a xlink:href="classfr_1_1softsf_1_1sudokufx_1_1utils_1_1sudoku_1_1_grid_master.html#a8eba2a9a790e47d419e87446a003818f" target="_top" xlink:title="Génère une grille de Sudoku complète à partir d&#39;une grille vide ou partiellement remplie.">
<polygon fill="white" stroke="#666666" points="593.62,-154.84 442.62,-154.84 442.62,-122.84 593.62,-122.84 593.62,-154.84"/>
<text text-anchor="start" x="450.62" y="-141.34" font-family="Helvetica,sans-Serif" font-size="10.00">fr.softsf.sudokufx.utils.sudoku.</text>
<text text-anchor="middle" x="518.12" y="-129.34" font-family="Helvetica,sans-Serif" font-size="10.00">GridMaster.resoudreLaGrille</text>
</a>
</g>
</g>
<!-- Node1&#45;&gt;Node15 -->
<g id="edge21_Node000001_Node000015" class="edge">
<title>Node1&#45;&gt;Node15</title>
<g id="a_edge21_Node000001_Node000015"><a xlink:title=" ">
<path fill="none" stroke="#63b8ff" d="M151.5,-201.08C229.04,-187.88 349.94,-167.3 431.27,-153.46"/>
<polygon fill="#63b8ff" stroke="#63b8ff" points="431.71,-156.93 440.98,-151.8 430.53,-150.03 431.71,-156.93"/>
</a>
</g>
</g>
<!-- Node3 -->
<g id="Node000003" class="node">
<title>Node3</title>
<g id="a_Node000003"><a xlink:href="classfr_1_1softsf_1_1sudokufx_1_1utils_1_1sudoku_1_1_grid_master.html#a5a6f84fdb0becec787f87d0f11ce1b07" target="_top" xlink:title="Génère une grille de Sudoku de niveau difficile (sinon une grille par défaut est retournée après une ...">
<polygon fill="white" stroke="#666666" points="616.88,-288.84 419.38,-288.84 419.38,-244.84 616.88,-244.84 616.88,-288.84"/>
<text text-anchor="start" x="427.38" y="-275.34" font-family="Helvetica,sans-Serif" font-size="10.00">fr.softsf.sudokufx.utils.sudoku.</text>
<text text-anchor="start" x="427.38" y="-263.34" font-family="Helvetica,sans-Serif" font-size="10.00">GridMaster.getPossibilitesGrilleAresoudre</text>
<text text-anchor="middle" x="518.12" y="-251.34" font-family="Helvetica,sans-Serif" font-size="10.00">Difficile</text>
</a>
</g>
</g>
<!-- Node2&#45;&gt;Node3 -->
<g id="edge2_Node000002_Node000003" class="edge">
<title>Node2&#45;&gt;Node3</title>
<g id="a_edge2_Node000002_Node000003"><a xlink:title=" ">
<path fill="none" stroke="#63b8ff" d="M368.37,-249.39C381.28,-250.9 394.67,-252.47 407.89,-254.03"/>
<polygon fill="#63b8ff" stroke="#63b8ff" points="407.11,-257.46 417.45,-255.15 407.92,-250.5 407.11,-257.46"/>
</a>
</g>
</g>
<!-- Node13 -->
<g id="Node000013" class="node">
<title>Node13</title>
<g id="a_Node000013"><a xlink:href="classfr_1_1softsf_1_1sudokufx_1_1utils_1_1sudoku_1_1_grid_master.html#ad37a10f9784efa27bdcaa13b7cb10de6" target="_top" xlink:title="Génère une grille de Sudoku de niveau facile (sinon une grille par défaut est retournée après une sec...">
<polygon fill="white" stroke="#666666" points="632.25,-226.84 404,-226.84 404,-194.84 632.25,-194.84 632.25,-226.84"/>
<text text-anchor="start" x="412" y="-213.34" font-family="Helvetica,sans-Serif" font-size="10.00">fr.softsf.sudokufx.utils.sudoku.</text>
<text text-anchor="middle" x="518.12" y="-201.34" font-family="Helvetica,sans-Serif" font-size="10.00">GridMaster.getPossibilitesGrilleAResoudreFacile</text>
</a>
</g>
</g>
<!-- Node2&#45;&gt;Node13 -->
<g id="edge13_Node000002_Node000013" class="edge">
<title>Node2&#45;&gt;Node13</title>
<g id="a_edge13_Node000002_Node000013"><a xlink:title=" ">
<path fill="none" stroke="#63b8ff" d="M368.37,-228.3C376.19,-227.38 384.18,-226.44 392.2,-225.5"/>
<polygon fill="#63b8ff" stroke="#63b8ff" points="392.53,-228.99 402.06,-224.34 391.72,-222.03 392.53,-228.99"/>
</a>
</g>
</g>
<!-- Node14 -->
<g id="Node000014" class="node">
<title>Node14</title>
<g id="a_Node000014"><a xlink:href="classfr_1_1softsf_1_1sudokufx_1_1utils_1_1sudoku_1_1_grid_master.html#ac77d16b1a583a51dc5770fc275222d8f" target="_top" xlink:title="Génère une grille de Sudoku de niveau moyen (sinon une grille par défaut est retournée après une seco...">
<polygon fill="white" stroke="#666666" points="619.12,-350.84 417.12,-350.84 417.12,-306.84 619.12,-306.84 619.12,-350.84"/>
<text text-anchor="start" x="425.12" y="-337.34" font-family="Helvetica,sans-Serif" font-size="10.00">fr.softsf.sudokufx.utils.sudoku.</text>
<text text-anchor="start" x="425.12" y="-325.34" font-family="Helvetica,sans-Serif" font-size="10.00">GridMaster.getPossibilitesGrilleAResoudre</text>
<text text-anchor="middle" x="518.12" y="-313.34" font-family="Helvetica,sans-Serif" font-size="10.00">Moyenne</text>
</a>
</g>
</g>
<!-- Node2&#45;&gt;Node14 -->
<g id="edge17_Node000002_Node000014" class="edge">
<title>Node2&#45;&gt;Node14</title>
<g id="a_edge17_Node000002_Node000014"><a xlink:title=" ">
<path fill="none" stroke="#63b8ff" d="M309.58,-255.29C334.59,-268.08 370.91,-285.63 404,-297.84 408.69,-299.57 413.53,-301.26 418.44,-302.89"/>
<polygon fill="#63b8ff" stroke="#63b8ff" points="417.23,-306.18 427.82,-305.91 419.37,-299.52 417.23,-306.18"/>
</a>
</g>
</g>
<!-- Node4 -->
<g id="Node000004" class="node">
<title>Node4</title>
<g id="a_Node000004"><a xlink:href="classfr_1_1softsf_1_1sudokufx_1_1utils_1_1sudoku_1_1_grid_master.html#a7cd9c1114c0d87a5341aedac86f6407a" target="_top" xlink:title="Calcule la durée de temps écoulé entre la dernière et la nouvelle demande de grille en millisecondes.">
<polygon fill="white" stroke="#666666" points="841.75,-338.84 690.75,-338.84 690.75,-306.84 841.75,-306.84 841.75,-338.84"/>
<text text-anchor="start" x="698.75" y="-325.34" font-family="Helvetica,sans-Serif" font-size="10.00">fr.softsf.sudokufx.utils.sudoku.</text>
<text text-anchor="middle" x="766.25" y="-313.34" font-family="Helvetica,sans-Serif" font-size="10.00">GridMaster.dureeEnMs</text>
</a>
</g>
</g>
<!-- Node3&#45;&gt;Node4 -->
<g id="edge3_Node000003_Node000004" class="edge">
<title>Node3&#45;&gt;Node4</title>
<g id="a_edge3_Node000003_Node000004"><a xlink:title=" ">
<path fill="none" stroke="#63b8ff" d="M617.11,-289.14C638.58,-294.02 661.12,-299.15 681.96,-303.89"/>
<polygon fill="#63b8ff" stroke="#63b8ff" points="681.01,-307.27 691.54,-306.07 682.56,-300.44 681.01,-307.27"/>
</a>
</g>
</g>
<!-- Node5 -->
<g id="Node000005" class="node">
<title>Node5</title>
<g id="a_Node000005"><a xlink:href="classfr_1_1softsf_1_1sudokufx_1_1utils_1_1sudoku_1_1_grid_master.html#a87c5a8d088aaceea8e0ca03806e30bcf" target="_top" xlink:title="Masque des cases dans la grille et calcule la somme des possibilités restantes.">
<polygon fill="white" stroke="#666666" points="864.25,-238.84 668.25,-238.84 668.25,-206.84 864.25,-206.84 864.25,-238.84"/>
<text text-anchor="start" x="676.25" y="-225.34" font-family="Helvetica,sans-Serif" font-size="10.00">fr.softsf.sudokufx.utils.sudoku.</text>
<text text-anchor="middle" x="766.25" y="-213.34" font-family="Helvetica,sans-Serif" font-size="10.00">GridMaster.getPossibilitesGrilleWhileNok</text>
</a>
</g>
</g>
<!-- Node3&#45;&gt;Node5 -->
<g id="edge4_Node000003_Node000005" class="edge">
<title>Node3&#45;&gt;Node5</title>
<g id="a_edge4_Node000003_Node000005"><a xlink:title=" ">
<path fill="none" stroke="#63b8ff" d="M617.11,-249.33C631.85,-246.69 647.09,-243.97 661.94,-241.31"/>
<polygon fill="#63b8ff" stroke="#63b8ff" points="662.49,-244.77 671.72,-239.56 661.26,-237.88 662.49,-244.77"/>
</a>
</g>
</g>
<!-- Node12 -->
<g id="Node000012" class="node">
<title>Node12</title>
<g id="a_Node000012"><a xlink:href="classfr_1_1softsf_1_1sudokufx_1_1utils_1_1sudoku_1_1_grid_master.html#a5bb14564ed4b6a7cded51e1bedc72faf" target="_top" xlink:title="Génère un nombre entier aléatoire dans un intervalle spécifié.">
<polygon fill="white" stroke="#666666" points="841.75,-288.84 690.75,-288.84 690.75,-256.84 841.75,-256.84 841.75,-288.84"/>
<text text-anchor="start" x="698.75" y="-275.34" font-family="Helvetica,sans-Serif" font-size="10.00">fr.softsf.sudokufx.utils.sudoku.</text>
<text text-anchor="middle" x="766.25" y="-263.34" font-family="Helvetica,sans-Serif" font-size="10.00">GridMaster.nombreAleatoire</text>
</a>
</g>
</g>
<!-- Node3&#45;&gt;Node12 -->
<g id="edge11_Node000003_Node000012" class="edge">
<title>Node3&#45;&gt;Node12</title>
<g id="a_edge11_Node000003_Node000012"><a xlink:title=" ">
<path fill="none" stroke="#63b8ff" d="M617.11,-269.23C637.6,-269.73 659.06,-270.25 679.08,-270.74"/>
<polygon fill="#63b8ff" stroke="#63b8ff" points="678.77,-274.24 688.85,-270.98 678.94,-267.24 678.77,-274.24"/>
</a>
</g>
</g>
<!-- Node6 -->
<g id="Node000006" class="node">
<title>Node6</title>
<g id="a_Node000006"><a xlink:href="classfr_1_1softsf_1_1sudokufx_1_1utils_1_1sudoku_1_1_grid_master.html#a89fed8ecc70b911e60ca540cca93ef78" target="_top" xlink:title="Cache un nombre spécifié de cases dans la grille à résoudre en les remplaçant par zéro.">
<polygon fill="white" stroke="#666666" points="1082.38,-238.84 931.38,-238.84 931.38,-206.84 1082.38,-206.84 1082.38,-238.84"/>
<text text-anchor="start" x="939.38" y="-225.34" font-family="Helvetica,sans-Serif" font-size="10.00">fr.softsf.sudokufx.utils.sudoku.</text>
<text text-anchor="middle" x="1006.88" y="-213.34" font-family="Helvetica,sans-Serif" font-size="10.00">GridMaster.cacherLesCases</text>
</a>
</g>
</g>
<!-- Node5&#45;&gt;Node6 -->
<g id="edge5_Node000005_Node000006" class="edge">
<title>Node5&#45;&gt;Node6</title>
<g id="a_edge5_Node000005_Node000006"><a xlink:title=" ">
<path fill="none" stroke="#63b8ff" d="M864.65,-222.84C882.92,-222.84 901.9,-222.84 919.8,-222.84"/>
<polygon fill="#63b8ff" stroke="#63b8ff" points="919.57,-226.34 929.57,-222.84 919.57,-219.34 919.57,-226.34"/>
</a>
</g>
</g>
<!-- Node8 -->
<g id="Node000008" class="node">
<title>Node8</title>
<g id="a_Node000008"><a xlink:href="classfr_1_1softsf_1_1sudokufx_1_1utils_1_1sudoku_1_1_grid_master.html#a46d1bfadcbb911b5a718508185da341f" target="_top" xlink:title="Calcule les possibilités pour chaque case de la grille de Sudoku.">
<polygon fill="white" stroke="#666666" points="1082.38,-188.84 931.38,-188.84 931.38,-156.84 1082.38,-156.84 1082.38,-188.84"/>
<text text-anchor="start" x="939.38" y="-175.34" font-family="Helvetica,sans-Serif" font-size="10.00">fr.softsf.sudokufx.utils.sudoku.</text>
<text text-anchor="middle" x="1006.88" y="-163.34" font-family="Helvetica,sans-Serif" font-size="10.00">GridMaster.getPossibilites</text>
</a>
</g>
</g>
<!-- Node5&#45;&gt;Node8 -->
<g id="edge7_Node000005_Node000008" class="edge">
<title>Node5&#45;&gt;Node8</title>
<g id="a_edge7_Node000005_Node000008"><a xlink:title=" ">
<path fill="none" stroke="#63b8ff" d="M845.72,-206.4C869.51,-201.42 895.77,-195.91 920.02,-190.83"/>
<polygon fill="#63b8ff" stroke="#63b8ff" points="920.46,-194.32 929.53,-188.84 919.02,-187.46 920.46,-194.32"/>
</a>
</g>
</g>
<!-- Node11 -->
<g id="Node000011" class="node">
<title>Node11</title>
<g id="a_Node000011"><a xlink:href="classfr_1_1softsf_1_1sudokufx_1_1utils_1_1sudoku_1_1_grid_master.html#a700c8e5d20670ded6ac4b56312846839" target="_top" xlink:title="Calcule la somme des possibilités de toutes les cases de la grille de Sudoku.">
<polygon fill="white" stroke="#666666" points="1113.5,-288.84 900.25,-288.84 900.25,-256.84 1113.5,-256.84 1113.5,-288.84"/>
<text text-anchor="start" x="908.25" y="-275.34" font-family="Helvetica,sans-Serif" font-size="10.00">fr.softsf.sudokufx.utils.sudoku.</text>
<text text-anchor="middle" x="1006.88" y="-263.34" font-family="Helvetica,sans-Serif" font-size="10.00">GridMaster.sommeDesPossibilitesDeLaGrille</text>
</a>
</g>
</g>
<!-- Node5&#45;&gt;Node11 -->
<g id="edge10_Node000005_Node000011" class="edge">
<title>Node5&#45;&gt;Node11</title>
<g id="a_edge10_Node000005_Node000011"><a xlink:title=" ">
<path fill="none" stroke="#63b8ff" d="M845.72,-239.28C868.25,-244 892.99,-249.19 916.14,-254.04"/>
<polygon fill="#63b8ff" stroke="#63b8ff" points="915.38,-257.46 925.88,-256.08 916.81,-250.6 915.38,-257.46"/>
</a>
</g>
</g>
<!-- Node7 -->
<g id="Node000007" class="node">
<title>Node7</title>
<g id="a_Node000007"><a xlink:href="classfr_1_1softsf_1_1sudokufx_1_1utils_1_1_secure_random_generator.html#ab000b11e58735924b9fca8db827374ad" target="_top" xlink:title="Generates a random integer between 0 (inclusive) and the specified bound (exclusive).">
<polygon fill="white" stroke="#666666" points="1308.75,-238.84 1149.5,-238.84 1149.5,-206.84 1308.75,-206.84 1308.75,-238.84"/>
<text text-anchor="start" x="1157.5" y="-225.34" font-family="Helvetica,sans-Serif" font-size="10.00">fr.softsf.sudokufx.utils.</text>
<text text-anchor="middle" x="1229.12" y="-213.34" font-family="Helvetica,sans-Serif" font-size="10.00">SecureRandomGenerator.nextInt</text>
</a>
</g>
</g>
<!-- Node6&#45;&gt;Node7 -->
<g id="edge6_Node000006_Node000007" class="edge">
<title>Node6&#45;&gt;Node7</title>
<g id="a_edge6_Node000006_Node000007"><a xlink:title=" ">
<path fill="none" stroke="#63b8ff" d="M1082.75,-222.84C1100.51,-222.84 1119.64,-222.84 1138.01,-222.84"/>
<polygon fill="#63b8ff" stroke="#63b8ff" points="1137.81,-226.34 1147.81,-222.84 1137.81,-219.34 1137.81,-226.34"/>
</a>
</g>
</g>
<!-- Node9 -->
<g id="Node000009" class="node">
<title>Node9</title>
<g id="a_Node000009"><a xlink:href="classfr_1_1softsf_1_1sudokufx_1_1utils_1_1sudoku_1_1_grid_master.html#ad1a85240278a682b9cf73c8d8ec6398d" target="_top" xlink:title="Initialise le tableau des possibilités pour chaque case.">
<polygon fill="white" stroke="#666666" points="1306.88,-174.84 1151.38,-174.84 1151.38,-142.84 1306.88,-142.84 1306.88,-174.84"/>
<text text-anchor="start" x="1159.38" y="-161.34" font-family="Helvetica,sans-Serif" font-size="10.00">fr.softsf.sudokufx.utils.sudoku.</text>
<text text-anchor="middle" x="1229.12" y="-149.34" font-family="Helvetica,sans-Serif" font-size="10.00">GridMaster.initialiserPossibilites</text>
</a>
</g>
</g>
<!-- Node8&#45;&gt;Node9 -->
<g id="edge8_Node000008_Node000009" class="edge">
<title>Node8&#45;&gt;Node9</title>
<g id="a_edge8_Node000008_Node000009"><a xlink:title=" ">
<path fill="none" stroke="#63b8ff" d="M1082.75,-168.08C1101.11,-166.92 1120.94,-165.66 1139.87,-164.45"/>
<polygon fill="#63b8ff" stroke="#63b8ff" points="1139.94,-167.96 1149.7,-163.83 1139.5,-160.97 1139.94,-167.96"/>
</a>
</g>
</g>
<!-- Node10 -->
<g id="Node000010" class="node">
<title>Node10</title>
<g id="a_Node000010"><a xlink:href="classfr_1_1softsf_1_1sudokufx_1_1utils_1_1sudoku_1_1_grid_master.html#aab28df678a8069dd22b13a687bb2ba5b" target="_top" xlink:title="Élimine la valeur des possibilités des cases alentours.">
<polygon fill="white" stroke="#666666" points="1495.75,-110.84 1344.75,-110.84 1344.75,-78.84 1495.75,-78.84 1495.75,-110.84"/>
<text text-anchor="start" x="1352.75" y="-97.34" font-family="Helvetica,sans-Serif" font-size="10.00">fr.softsf.sudokufx.utils.sudoku.</text>
<text text-anchor="middle" x="1420.25" y="-85.34" font-family="Helvetica,sans-Serif" font-size="10.00">GridMaster.eliminerPossibilite</text>
</a>
</g>
</g>
<!-- Node9&#45;&gt;Node10 -->
<g id="edge9_Node000009_Node000010" class="edge">
<title>Node9&#45;&gt;Node10</title>
<g id="a_edge9_Node000009_Node000010"><a xlink:title=" ">
<path fill="none" stroke="#63b8ff" d="M1278.83,-142.36C1303.54,-134 1333.76,-123.77 1359.82,-114.95"/>
<polygon fill="#63b8ff" stroke="#63b8ff" points="1360.93,-118.27 1369.28,-111.75 1358.68,-111.64 1360.93,-118.27"/>
</a>
</g>
</g>
<!-- Node12&#45;&gt;Node7 -->
<g id="edge12_Node000012_Node000007" class="edge">
<title>Node12&#45;&gt;Node7</title>
<g id="a_edge12_Node000012_Node000007"><a xlink:title=" ">
<path fill="none" stroke="#63b8ff" d="M841.47,-289.31C860.53,-292.85 881.07,-296.06 900.25,-297.84 994.62,-306.63 1022.67,-324.92 1113.5,-297.84 1147,-287.86 1179.82,-264.61 1201.7,-246.62"/>
<polygon fill="#63b8ff" stroke="#63b8ff" points="1203.84,-249.4 1209.22,-240.27 1199.32,-244.05 1203.84,-249.4"/>
</a>
</g>
</g>
<!-- Node13&#45;&gt;Node4 -->
<g id="edge14_Node000013_Node000004" class="edge">
<title>Node13&#45;&gt;Node4</title>
<g id="a_edge14_Node000013_Node000004"><a xlink:title=" ">
<path fill="none" stroke="#63b8ff" d="M617.94,-227.24C622.97,-229.73 627.78,-232.58 632.25,-235.84 657.98,-254.64 642.85,-278.6 668.25,-297.84 671.99,-300.68 676.02,-303.19 680.24,-305.43"/>
<polygon fill="#63b8ff" stroke="#63b8ff" points="678.46,-308.46 689,-309.5 681.41,-302.11 678.46,-308.46"/>
</a>
</g>
</g>
<!-- Node13&#45;&gt;Node5 -->
<g id="edge15_Node000013_Node000005" class="edge">
<title>Node13&#45;&gt;Node5</title>
<g id="a_edge15_Node000013_Node000005"><a xlink:title=" ">
<path fill="none" stroke="#63b8ff" d="M632.46,-216.37C640.52,-216.76 648.64,-217.16 656.67,-217.55"/>
<polygon fill="#63b8ff" stroke="#63b8ff" points="656.29,-221.03 666.45,-218.03 656.63,-214.04 656.29,-221.03"/>
</a>
</g>
</g>
<!-- Node13&#45;&gt;Node12 -->
<g id="edge16_Node000013_Node000012" class="edge">
<title>Node13&#45;&gt;Node12</title>
<g id="a_edge16_Node000013_Node000012"><a xlink:title=" ">
<path fill="none" stroke="#63b8ff" d="M598.5,-227.28C609.87,-229.96 621.39,-232.84 632.25,-235.84 648.51,-240.33 652.07,-243.07 668.25,-247.84 674.55,-249.7 681.11,-251.56 687.71,-253.37"/>
<polygon fill="#63b8ff" stroke="#63b8ff" points="686.79,-256.75 697.35,-255.98 688.61,-249.99 686.79,-256.75"/>
</a>
</g>
</g>
<!-- Node14&#45;&gt;Node4 -->
<g id="edge18_Node000014_Node000004" class="edge">
<title>Node14&#45;&gt;Node4</title>
<g id="a_edge18_Node000014_Node000004"><a xlink:title=" ">
<path fill="none" stroke="#63b8ff" d="M619.59,-326.39C639.27,-325.91 659.76,-325.41 678.93,-324.95"/>
<polygon fill="#63b8ff" stroke="#63b8ff" points="678.94,-328.45 688.86,-324.7 678.77,-321.45 678.94,-328.45"/>
</a>
</g>
</g>
<!-- Node14&#45;&gt;Node5 -->
<g id="edge19_Node000014_Node000005" class="edge">
<title>Node14&#45;&gt;Node5</title>
<g id="a_edge19_Node000014_Node000005"><a xlink:title=" ">
<path fill="none" stroke="#63b8ff" d="M617.62,-306.47C622.73,-303.9 627.65,-301.04 632.25,-297.84 654.74,-282.22 645.64,-263.29 668.25,-247.84 669.88,-246.73 671.55,-245.67 673.27,-244.65"/>
<polygon fill="#63b8ff" stroke="#63b8ff" points="674.87,-247.76 682.11,-240.03 671.63,-241.56 674.87,-247.76"/>
</a>
</g>
</g>
<!-- Node14&#45;&gt;Node12 -->
<g id="edge20_Node000014_Node000012" class="edge">
<title>Node14&#45;&gt;Node12</title>
<g id="a_edge20_Node000014_Node000012"><a xlink:title=" ">
<path fill="none" stroke="#63b8ff" d="M617.82,-306.39C639.13,-301.54 661.46,-296.46 682.1,-291.76"/>
<polygon fill="#63b8ff" stroke="#63b8ff" points="682.61,-295.24 691.58,-289.6 681.05,-288.41 682.61,-295.24"/>
</a>
</g>
</g>
<!-- Node15&#45;&gt;Node8 -->
<g id="edge22_Node000015_Node000008" class="edge">
<title>Node15&#45;&gt;Node8</title>
<g id="a_edge22_Node000015_Node000008"><a xlink:title=" ">
<path fill="none" stroke="#63b8ff" d="M593.78,-147C617.57,-149.43 644,-151.94 668.25,-153.84 753.77,-160.55 851.65,-165.79 919.93,-169.05"/>
<polygon fill="#63b8ff" stroke="#63b8ff" points="919.38,-172.53 929.54,-169.51 919.72,-165.54 919.38,-172.53"/>
</a>
</g>
</g>
<!-- Node16 -->
<g id="Node000016" class="node">
<title>Node16</title>
<g id="a_Node000016"><a xlink:href="classfr_1_1softsf_1_1sudokufx_1_1utils_1_1sudoku_1_1_grid_master.html#ad07acfe4c763044df860c349c6c565ef" target="_top" xlink:title="Remplit récursivement la grille Sudoku (backtracking).">
<polygon fill="white" stroke="#666666" points="841.75,-126.84 690.75,-126.84 690.75,-94.84 841.75,-94.84 841.75,-126.84"/>
<text text-anchor="start" x="698.75" y="-113.34" font-family="Helvetica,sans-Serif" font-size="10.00">fr.softsf.sudokufx.utils.sudoku.</text>
<text text-anchor="middle" x="766.25" y="-101.34" font-family="Helvetica,sans-Serif" font-size="10.00">GridMaster.remplirLaGrille</text>
</a>
</g>
</g>
<!-- Node15&#45;&gt;Node16 -->
<g id="edge23_Node000015_Node000016" class="edge">
<title>Node15&#45;&gt;Node16</title>
<g id="a_edge23_Node000015_Node000016"><a xlink:title=" ">
<path fill="none" stroke="#63b8ff" d="M593.97,-130.33C620.82,-127.27 651.31,-123.8 679.04,-120.65"/>
<polygon fill="#63b8ff" stroke="#63b8ff" points="679.29,-124.14 688.83,-119.54 678.5,-117.19 679.29,-124.14"/>
</a>
</g>
</g>
<!-- Node20 -->
<g id="Node000020" class="node">
<title>Node20</title>
<g id="a_Node000020"><a xlink:href="classfr_1_1softsf_1_1sudokufx_1_1utils_1_1sudoku_1_1_grid_master.html#a5ead122504d9cd11a071e47ccd4610b3" target="_top" xlink:title="Vérifie la cohérence entre la grille et les possibilités.">
<polygon fill="white" stroke="#666666" points="854.88,-76.84 677.62,-76.84 677.62,-32.84 854.88,-32.84 854.88,-76.84"/>
<text text-anchor="start" x="685.62" y="-63.34" font-family="Helvetica,sans-Serif" font-size="10.00">fr.softsf.sudokufx.utils.sudoku.</text>
<text text-anchor="start" x="685.62" y="-51.34" font-family="Helvetica,sans-Serif" font-size="10.00">GridMaster.verifierLaCoherenceEntre</text>
<text text-anchor="middle" x="766.25" y="-39.34" font-family="Helvetica,sans-Serif" font-size="10.00">LaGrilleEtLesPossibilites</text>
</a>
</g>
</g>
<!-- Node15&#45;&gt;Node20 -->
<g id="edge31_Node000015_Node000020" class="edge">
<title>Node15&#45;&gt;Node20</title>
<g id="a_edge31_Node000015_Node000020"><a xlink:title=" ">
<path fill="none" stroke="#63b8ff" d="M564.35,-122.34C593.85,-111.69 633.23,-97.66 668.25,-85.84 673.22,-84.16 678.35,-82.46 683.52,-80.75"/>
<polygon fill="#63b8ff" stroke="#63b8ff" points="684.32,-84.17 692.74,-77.74 682.14,-77.52 684.32,-84.17"/>
</a>
</g>
</g>
<!-- Node16&#45;&gt;Node10 -->
<g id="edge27_Node000016_Node000010" class="edge">
<title>Node16&#45;&gt;Node10</title>
<g id="a_edge27_Node000016_Node000010"><a xlink:title=" ">
<path fill="none" stroke="#63b8ff" d="M842.15,-97.28C849.96,-94.22 857.5,-90.45 864.25,-85.84 886.86,-70.39 875.88,-48.33 900.25,-35.84 1059.18,45.57 1280.68,-33.17 1374.47,-73.85"/>
<polygon fill="#63b8ff" stroke="#63b8ff" points="1372.78,-76.93 1383.34,-77.76 1375.6,-70.53 1372.78,-76.93"/>
</a>
</g>
</g>
<!-- Node16&#45;&gt;Node16 -->
<g id="edge30_Node000016_Node000016" class="edge">
<title>Node16&#45;&gt;Node16</title>
<g id="a_edge30_Node000016_Node000016"><a xlink:title=" ">
<path fill="none" stroke="#63b8ff" d="M723.29,-127.29C715.27,-136.43 729.59,-144.84 766.25,-144.84 786.58,-144.84 800.04,-142.25 806.63,-138.39"/>
<polygon fill="#63b8ff" stroke="#63b8ff" points="810.01,-139.29 808.87,-128.76 803.2,-137.71 810.01,-139.29"/>
</a>
</g>
</g>
<!-- Node17 -->
<g id="Node000017" class="node">
<title>Node17</title>
<g id="a_Node000017"><a xlink:href="classfr_1_1softsf_1_1sudokufx_1_1utils_1_1sudoku_1_1_grid_master.html#a95ced6119d7d08726742be7d90c37948" target="_top" xlink:title="Choisit une valeur aléatoire parmi les possibilités données.">
<polygon fill="white" stroke="#666666" points="1087.25,-138.84 926.5,-138.84 926.5,-106.84 1087.25,-106.84 1087.25,-138.84"/>
<text text-anchor="start" x="934.5" y="-125.34" font-family="Helvetica,sans-Serif" font-size="10.00">fr.softsf.sudokufx.utils.sudoku.</text>
<text text-anchor="middle" x="1006.88" y="-113.34" font-family="Helvetica,sans-Serif" font-size="10.00">GridMaster.choisirValeurAleatoire</text>
</a>
</g>
</g>
<!-- Node16&#45;&gt;Node17 -->
<g id="edge24_Node000016_Node000017" class="edge">
<title>Node16&#45;&gt;Node17</title>
<g id="a_edge24_Node000016_Node000017"><a xlink:title=" ">
<path fill="none" stroke="#63b8ff" d="M842.1,-114.61C865.22,-115.77 890.95,-117.06 915.04,-118.27"/>
<polygon fill="#63b8ff" stroke="#63b8ff" points="914.66,-121.76 924.83,-118.77 915.02,-114.77 914.66,-121.76"/>
</a>
</g>
</g>
<!-- Node19 -->
<g id="Node000019" class="node">
<title>Node19</title>
<g id="a_Node000019"><a xlink:href="classfr_1_1softsf_1_1sudokufx_1_1utils_1_1sudoku_1_1_grid_master.html#a2bfd5ca8d30b4f51db2a81d8c9a5b641" target="_top" xlink:title="Trouve la case vide avec le moins de possibilités.">
<polygon fill="white" stroke="#666666" points="1101.5,-88.84 912.25,-88.84 912.25,-44.84 1101.5,-44.84 1101.5,-88.84"/>
<text text-anchor="start" x="920.25" y="-75.34" font-family="Helvetica,sans-Serif" font-size="10.00">fr.softsf.sudokufx.utils.sudoku.</text>
<text text-anchor="start" x="920.25" y="-63.34" font-family="Helvetica,sans-Serif" font-size="10.00">GridMaster.laCaseVideAvecLeMoinsDe</text>
<text text-anchor="middle" x="1006.88" y="-51.34" font-family="Helvetica,sans-Serif" font-size="10.00">Possibilites</text>
</a>
</g>
</g>
<!-- Node16&#45;&gt;Node19 -->
<g id="edge28_Node000016_Node000019" class="edge">
<title>Node16&#45;&gt;Node19</title>
<g id="a_edge28_Node000016_Node000019"><a xlink:title=" ">
<path fill="none" stroke="#63b8ff" d="M842.1,-97.04C860.69,-93.61 880.97,-89.87 900.72,-86.23"/>
<polygon fill="#63b8ff" stroke="#63b8ff" points="901.26,-89.69 910.46,-84.44 899.99,-82.81 901.26,-89.69"/>
</a>
</g>
</g>
<!-- Node17&#45;&gt;Node7 -->
<g id="edge26_Node000017_Node000007" class="edge">
<title>Node17&#45;&gt;Node7</title>
<g id="a_edge26_Node000017_Node000007"><a xlink:title=" ">
<path fill="none" stroke="#63b8ff" d="M1087.56,-136.62C1096.59,-139.65 1105.44,-143.34 1113.5,-147.84 1133.26,-158.87 1131.12,-170.64 1149.5,-183.84 1158.41,-190.24 1168.53,-196.13 1178.47,-201.28"/>
<polygon fill="#63b8ff" stroke="#63b8ff" points="1176.84,-204.38 1187.35,-205.7 1179.95,-198.11 1176.84,-204.38"/>
</a>
</g>
</g>
<!-- Node18 -->
<g id="Node000018" class="node">
<title>Node18</title>
<g id="a_Node000018"><a xlink:href="classfr_1_1softsf_1_1sudokufx_1_1utils_1_1sudoku_1_1_grid_master.html#afa58a9e419a56117d305014b687b8079" target="_top" xlink:title="Compte le nombre de bits à 1 dans un entier.">
<polygon fill="white" stroke="#666666" points="1304.62,-110.84 1153.62,-110.84 1153.62,-78.84 1304.62,-78.84 1304.62,-110.84"/>
<text text-anchor="start" x="1161.62" y="-97.34" font-family="Helvetica,sans-Serif" font-size="10.00">fr.softsf.sudokufx.utils.sudoku.</text>
<text text-anchor="middle" x="1229.12" y="-85.34" font-family="Helvetica,sans-Serif" font-size="10.00">GridMaster.compterBits</text>
</a>
</g>
</g>
<!-- Node17&#45;&gt;Node18 -->
<g id="edge25_Node000017_Node000018" class="edge">
<title>Node17&#45;&gt;Node18</title>
<g id="a_edge25_Node000017_Node000018"><a xlink:title=" ">
<path fill="none" stroke="#63b8ff" d="M1087.7,-112.69C1105.36,-110.45 1124.14,-108.06 1142.03,-105.79"/>
<polygon fill="#63b8ff" stroke="#63b8ff" points="1142.36,-109.27 1151.84,-104.54 1141.48,-102.33 1142.36,-109.27"/>
</a>
</g>
</g>
<!-- Node19&#45;&gt;Node18 -->
<g id="edge29_Node000019_Node000018" class="edge">
<title>Node19&#45;&gt;Node18</title>
<g id="a_edge29_Node000019_Node000018"><a xlink:title=" ">
<path fill="none" stroke="#63b8ff" d="M1101.92,-78.8C1115.21,-80.49 1128.83,-82.22 1141.96,-83.89"/>
<polygon fill="#63b8ff" stroke="#63b8ff" points="1141.5,-87.36 1151.86,-85.15 1142.38,-80.41 1141.5,-87.36"/>
</a>
</g>
</g>
</g>
</svg>
