<?xml version="1.0" encoding="UTF-8" standalone="no"?>
<!DOCTYPE svg PUBLIC "-//W3C//DTD SVG 1.1//EN"
 "http://www.w3.org/Graphics/SVG/1.1/DTD/svg11.dtd">
<!-- Generated by graphviz version 12.2.0 (20241103.1931)
 -->
<!-- Title: fr.softsf.sudokufx.view.SplashScreenView.nodesConfiguration Pages: 1 -->
<svg width="661pt" height="388pt"
 viewBox="0.00 0.00 660.50 388.00" xmlns="http://www.w3.org/2000/svg" xmlns:xlink="http://www.w3.org/1999/xlink">
<g id="graph0" class="graph" transform="scale(1 1) rotate(0) translate(4 384)">
<title>fr.softsf.sudokufx.view.SplashScreenView.nodesConfiguration</title>
<!-- Node1 -->
<g id="Node000001" class="node">
<title>Node1</title>
<g id="a_Node000001"><a xlink:title="Configures the properties and styles of the UI nodes.">
<polygon fill="#999999" stroke="#666666" points="184.75,-224 0,-224 0,-192 184.75,-192 184.75,-224"/>
<text text-anchor="start" x="8" y="-210.5" font-family="Helvetica,sans-Serif" font-size="10.00">fr.softsf.sudokufx.view.</text>
<text text-anchor="middle" x="92.38" y="-198.5" font-family="Helvetica,sans-Serif" font-size="10.00">SplashScreenView.nodesConfiguration</text>
</a>
</g>
</g>
<!-- Node2 -->
<g id="Node000002" class="node">
<title>Node2</title>
<g id="a_Node000002"><a xlink:href="classfr_1_1softsf_1_1sudokufx_1_1view_1_1_splash_screen_view.html#a05ceacbaf9b2149100b85aa1915a98a2" target="_top" xlink:title="Animates the SVG flower.">
<polygon fill="white" stroke="#666666" points="408.88,-380 227.12,-380 227.12,-348 408.88,-348 408.88,-380"/>
<text text-anchor="start" x="235.12" y="-366.5" font-family="Helvetica,sans-Serif" font-size="10.00">fr.softsf.sudokufx.view.</text>
<text text-anchor="middle" x="318" y="-354.5" font-family="Helvetica,sans-Serif" font-size="10.00">SplashScreenView.animateFlowerSvg</text>
</a>
</g>
</g>
<!-- Node1&#45;&gt;Node2 -->
<g id="edge1_Node000001_Node000002" class="edge">
<title>Node1&#45;&gt;Node2</title>
<g id="a_edge1_Node000001_Node000002"><a xlink:title=" ">
<path fill="none" stroke="#63b8ff" d="M104.65,-224.47C124.67,-252.42 169.2,-309.02 220.75,-339 223.23,-340.44 225.8,-341.8 228.42,-343.09"/>
<polygon fill="#63b8ff" stroke="#63b8ff" points="226.87,-346.23 237.43,-347.05 229.69,-339.82 226.87,-346.23"/>
</a>
</g>
</g>
<!-- Node3 -->
<g id="Node000003" class="node">
<title>Node3</title>
<g id="a_Node000003"><a xlink:href="classfr_1_1softsf_1_1sudokufx_1_1configuration_1_1_j_v_m_application_properties.html#a3f7b3c260ffbc879047a27ee9a1751f5" target="_top" xlink:title="Retrieves the current application name from system properties.">
<polygon fill="white" stroke="#666666" points="412.25,-330 223.75,-330 223.75,-298 412.25,-298 412.25,-330"/>
<text text-anchor="start" x="231.75" y="-316.5" font-family="Helvetica,sans-Serif" font-size="10.00">fr.softsf.sudokufx.configuration.</text>
<text text-anchor="middle" x="318" y="-304.5" font-family="Helvetica,sans-Serif" font-size="10.00">JVMApplicationProperties.getAppName</text>
</a>
</g>
</g>
<!-- Node1&#45;&gt;Node3 -->
<g id="edge2_Node000001_Node000003" class="edge">
<title>Node1&#45;&gt;Node3</title>
<g id="a_edge2_Node000001_Node000003"><a xlink:title=" ">
<path fill="none" stroke="#63b8ff" d="M114.3,-224.23C138.64,-242.39 180.62,-271.54 220.75,-289 224.73,-290.73 228.86,-292.37 233.07,-293.9"/>
<polygon fill="#63b8ff" stroke="#63b8ff" points="231.63,-297.11 242.23,-297.04 233.9,-290.49 231.63,-297.11"/>
</a>
</g>
</g>
<!-- Node5 -->
<g id="Node000005" class="node">
<title>Node5</title>
<g id="a_Node000005"><a xlink:href="classfr_1_1softsf_1_1sudokufx_1_1configuration_1_1_j_v_m_application_properties.html#aa3d30fcaecd7e5f4b1f8fe6fee13570a" target="_top" xlink:title="Retrieves the current application version from system properties.">
<polygon fill="white" stroke="#666666" points="415.25,-280 220.75,-280 220.75,-248 415.25,-248 415.25,-280"/>
<text text-anchor="start" x="228.75" y="-266.5" font-family="Helvetica,sans-Serif" font-size="10.00">fr.softsf.sudokufx.configuration.</text>
<text text-anchor="middle" x="318" y="-254.5" font-family="Helvetica,sans-Serif" font-size="10.00">JVMApplicationProperties.getAppVersion</text>
</a>
</g>
</g>
<!-- Node1&#45;&gt;Node5 -->
<g id="edge4_Node000001_Node000005" class="edge">
<title>Node1&#45;&gt;Node5</title>
<g id="a_edge4_Node000001_Node000005"><a xlink:title=" ">
<path fill="none" stroke="#63b8ff" d="M159.26,-224.5C184.62,-230.85 213.81,-238.16 240.12,-244.75"/>
<polygon fill="#63b8ff" stroke="#63b8ff" points="239.18,-248.12 249.73,-247.15 240.88,-241.33 239.18,-248.12"/>
</a>
</g>
</g>
<!-- Node6 -->
<g id="Node000006" class="node">
<title>Node6</title>
<g id="a_Node000006"><a xlink:href="classfr_1_1softsf_1_1sudokufx_1_1view_1_1_splash_screen_view.html#ad126ac2f2a90b2422490ca0d896fa398" target="_top" xlink:title="Retrieves a message indicating the current loading or optimizing state.">
<polygon fill="white" stroke="#666666" points="397.25,-230 238.75,-230 238.75,-186 397.25,-186 397.25,-230"/>
<text text-anchor="start" x="246.75" y="-216.5" font-family="Helvetica,sans-Serif" font-size="10.00">fr.softsf.sudokufx.view.</text>
<text text-anchor="start" x="246.75" y="-204.5" font-family="Helvetica,sans-Serif" font-size="10.00">SplashScreenView.getLoadingOr</text>
<text text-anchor="middle" x="318" y="-192.5" font-family="Helvetica,sans-Serif" font-size="10.00">OptimizingMessage</text>
</a>
</g>
</g>
<!-- Node1&#45;&gt;Node6 -->
<g id="edge6_Node000001_Node000006" class="edge">
<title>Node1&#45;&gt;Node6</title>
<g id="a_edge6_Node000001_Node000006"><a xlink:title=" ">
<path fill="none" stroke="#63b8ff" d="M184.98,-208C198.83,-208 213.11,-208 226.93,-208"/>
<polygon fill="#63b8ff" stroke="#63b8ff" points="226.9,-211.5 236.9,-208 226.9,-204.5 226.9,-211.5"/>
</a>
</g>
</g>
<!-- Node9 -->
<g id="Node000009" class="node">
<title>Node9</title>
<g id="a_Node000009"><a xlink:href="classfr_1_1softsf_1_1sudokufx_1_1view_1_1_splash_screen_view.html#aafe300850c83d75b03d338a68d19c892" target="_top" xlink:title="Sets up the SVG for the Soft64 text logo in the center of the splash screen.">
<polygon fill="white" stroke="#666666" points="415.25,-168 220.75,-168 220.75,-124 415.25,-124 415.25,-168"/>
<text text-anchor="start" x="228.75" y="-154.5" font-family="Helvetica,sans-Serif" font-size="10.00">fr.softsf.sudokufx.view.</text>
<text text-anchor="start" x="228.75" y="-142.5" font-family="Helvetica,sans-Serif" font-size="10.00">SplashScreenView.setSplashscreenvbox</text>
<text text-anchor="middle" x="318" y="-130.5" font-family="Helvetica,sans-Serif" font-size="10.00">CenterhboxLogosoft64textsvg</text>
</a>
</g>
</g>
<!-- Node1&#45;&gt;Node9 -->
<g id="edge10_Node000001_Node000009" class="edge">
<title>Node1&#45;&gt;Node9</title>
<g id="a_edge10_Node000001_Node000009"><a xlink:title=" ">
<path fill="none" stroke="#63b8ff" d="M152.72,-191.55C174.82,-185.42 200.46,-178.31 224.82,-171.56"/>
<polygon fill="#63b8ff" stroke="#63b8ff" points="225.75,-174.93 234.45,-168.89 223.88,-168.19 225.75,-174.93"/>
</a>
</g>
</g>
<!-- Node11 -->
<g id="Node000011" class="node">
<title>Node11</title>
<g id="a_Node000011"><a xlink:href="classfr_1_1softsf_1_1sudokufx_1_1view_1_1_splash_screen_view.html#a762ac1d676ca1be22b521cd731b8d9ba" target="_top" xlink:title="Sets up the SVG for the flower logo in the center of the splash screen.">
<polygon fill="white" stroke="#666666" points="415.25,-106 220.75,-106 220.75,-62 415.25,-62 415.25,-106"/>
<text text-anchor="start" x="228.75" y="-92.5" font-family="Helvetica,sans-Serif" font-size="10.00">fr.softsf.sudokufx.view.</text>
<text text-anchor="start" x="228.75" y="-80.5" font-family="Helvetica,sans-Serif" font-size="10.00">SplashScreenView.setSplashscreenvbox</text>
<text text-anchor="middle" x="318" y="-68.5" font-family="Helvetica,sans-Serif" font-size="10.00">CenterhboxStackpaneLogoflowersvg</text>
</a>
</g>
</g>
<!-- Node1&#45;&gt;Node11 -->
<g id="edge12_Node000001_Node000011" class="edge">
<title>Node1&#45;&gt;Node11</title>
<g id="a_edge12_Node000001_Node000011"><a xlink:title=" ">
<path fill="none" stroke="#63b8ff" d="M111.55,-191.79C135.21,-171.41 178.54,-136.5 220.75,-115 223.48,-113.61 226.28,-112.27 229.14,-110.97"/>
<polygon fill="#63b8ff" stroke="#63b8ff" points="230.46,-114.21 238.28,-107.06 227.71,-107.77 230.46,-114.21"/>
</a>
</g>
</g>
<!-- Node12 -->
<g id="Node000012" class="node">
<title>Node12</title>
<g id="a_Node000012"><a xlink:href="classfr_1_1softsf_1_1sudokufx_1_1view_1_1_splash_screen_view.html#a53ead1ea80a08e06c15ae42ae101fcdf" target="_top" xlink:title="Sets up the SVG for the Sudoku logo in the top section of the splash screen.">
<polygon fill="white" stroke="#666666" points="415.25,-44 220.75,-44 220.75,0 415.25,0 415.25,-44"/>
<text text-anchor="start" x="228.75" y="-30.5" font-family="Helvetica,sans-Serif" font-size="10.00">fr.softsf.sudokufx.view.</text>
<text text-anchor="start" x="228.75" y="-18.5" font-family="Helvetica,sans-Serif" font-size="10.00">SplashScreenView.setSplashscreenvbox</text>
<text text-anchor="middle" x="318" y="-6.5" font-family="Helvetica,sans-Serif" font-size="10.00">TophboxLogosudosvg</text>
</a>
</g>
</g>
<!-- Node1&#45;&gt;Node12 -->
<g id="edge14_Node000001_Node000012" class="edge">
<title>Node1&#45;&gt;Node12</title>
<g id="a_edge14_Node000001_Node000012"><a xlink:title=" ">
<path fill="none" stroke="#63b8ff" d="M102.34,-191.82C120.54,-160.42 164.88,-91 220.75,-53 222.35,-51.91 223.98,-50.86 225.66,-49.85"/>
<polygon fill="#63b8ff" stroke="#63b8ff" points="227.15,-53.02 234.23,-45.14 223.78,-46.89 227.15,-53.02"/>
</a>
</g>
</g>
<!-- Node4 -->
<g id="Node000004" class="node">
<title>Node4</title>
<g id="a_Node000004"><a xlink:href="classfr_1_1softsf_1_1sudokufx_1_1utils_1_1_my_regex.html#a981702b076ee54a416d676b6f7a182fc" target="_top" xlink:title="Validates the given text against the specified regular expression.">
<polygon fill="white" stroke="#666666" points="626.25,-317 477.5,-317 477.5,-285 626.25,-285 626.25,-317"/>
<text text-anchor="start" x="485.5" y="-303.5" font-family="Helvetica,sans-Serif" font-size="10.00">fr.softsf.sudokufx.utils.</text>
<text text-anchor="middle" x="551.88" y="-291.5" font-family="Helvetica,sans-Serif" font-size="10.00">MyRegex.isValidatedByRegex</text>
</a>
</g>
</g>
<!-- Node3&#45;&gt;Node4 -->
<g id="edge3_Node000003_Node000004" class="edge">
<title>Node3&#45;&gt;Node4</title>
<g id="a_edge3_Node000003_Node000004"><a xlink:title=" ">
<path fill="none" stroke="#63b8ff" d="M412.64,-308.75C430.28,-307.76 448.62,-306.73 465.97,-305.76"/>
<polygon fill="#63b8ff" stroke="#63b8ff" points="465.9,-309.27 475.69,-305.22 465.51,-302.28 465.9,-309.27"/>
</a>
</g>
</g>
<!-- Node5&#45;&gt;Node4 -->
<g id="edge5_Node000005_Node000004" class="edge">
<title>Node5&#45;&gt;Node4</title>
<g id="a_edge5_Node000005_Node000004"><a xlink:title=" ">
<path fill="none" stroke="#63b8ff" d="M415.66,-279.42C432.42,-282.1 449.73,-284.86 466.14,-287.48"/>
<polygon fill="#63b8ff" stroke="#63b8ff" points="465.42,-290.91 475.85,-289.03 466.52,-284 465.42,-290.91"/>
</a>
</g>
</g>
<!-- Node7 -->
<g id="Node000007" class="node">
<title>Node7</title>
<g id="a_Node000007"><a xlink:href="classfr_1_1softsf_1_1sudokufx_1_1utils_1_1_i18n.html#a7095fa285a498c3f20bf33488a69d22c" target="_top" xlink:title="Retrieves the localized string value for a given key.">
<polygon fill="white" stroke="#666666" points="610.12,-255 493.62,-255 493.62,-223 610.12,-223 610.12,-255"/>
<text text-anchor="start" x="501.62" y="-241.5" font-family="Helvetica,sans-Serif" font-size="10.00">fr.softsf.sudokufx.utils.</text>
<text text-anchor="middle" x="551.88" y="-229.5" font-family="Helvetica,sans-Serif" font-size="10.00">I18n.getValue</text>
</a>
</g>
</g>
<!-- Node6&#45;&gt;Node7 -->
<g id="edge7_Node000006_Node000007" class="edge">
<title>Node6&#45;&gt;Node7</title>
<g id="a_edge7_Node000006_Node000007"><a xlink:title=" ">
<path fill="none" stroke="#63b8ff" d="M397.5,-218.5C424.98,-222.17 455.6,-226.26 482.21,-229.82"/>
<polygon fill="#63b8ff" stroke="#63b8ff" points="481.47,-233.25 491.84,-231.11 482.4,-226.31 481.47,-233.25"/>
</a>
</g>
</g>
<!-- Node8 -->
<g id="Node000008" class="node">
<title>Node8</title>
<g id="a_Node000008"><a xlink:href="classfr_1_1softsf_1_1sudokufx_1_1configuration_1_1_j_v_m_application_properties.html#a46753fc32c7d3156f3aed0f0c63c758e" target="_top" xlink:title="Determines if the Spring context should exit on refresh.">
<polygon fill="white" stroke="#666666" points="652.5,-187 451.25,-187 451.25,-143 652.5,-143 652.5,-187"/>
<text text-anchor="start" x="459.25" y="-173.5" font-family="Helvetica,sans-Serif" font-size="10.00">fr.softsf.sudokufx.configuration.</text>
<text text-anchor="start" x="459.25" y="-161.5" font-family="Helvetica,sans-Serif" font-size="10.00">JVMApplicationProperties.isSpringContext</text>
<text text-anchor="middle" x="551.88" y="-149.5" font-family="Helvetica,sans-Serif" font-size="10.00">ExitOnRefresh</text>
</a>
</g>
</g>
<!-- Node6&#45;&gt;Node8 -->
<g id="edge8_Node000006_Node000008" class="edge">
<title>Node6&#45;&gt;Node8</title>
<g id="a_edge8_Node000006_Node000008"><a xlink:title=" ">
<path fill="none" stroke="#63b8ff" d="M397.5,-193.44C411.22,-190.9 425.72,-188.21 440.11,-185.54"/>
<polygon fill="#63b8ff" stroke="#63b8ff" points="440.4,-189.05 449.59,-183.78 439.12,-182.16 440.4,-189.05"/>
</a>
</g>
</g>
<!-- Node8&#45;&gt;Node8 -->
<g id="edge9_Node000008_Node000008" class="edge">
<title>Node8&#45;&gt;Node8</title>
<g id="a_edge9_Node000008_Node000008"><a xlink:title=" ">
<path fill="none" stroke="#63b8ff" d="M508.55,-187.21C505,-196.8 519.44,-205 551.88,-205 571.13,-205 584.05,-202.11 590.62,-197.75"/>
<polygon fill="#63b8ff" stroke="#63b8ff" points="593.82,-199.17 594.6,-188.6 587.4,-196.37 593.82,-199.17"/>
</a>
</g>
</g>
<!-- Node10 -->
<g id="Node000010" class="node">
<title>Node10</title>
<g id="a_Node000010"><a xlink:href="classfr_1_1softsf_1_1sudokufx_1_1view_1_1_splash_screen_view.html#a5d7017836e704c8e6db24f7d677041ba" target="_top" xlink:title="Creates an SVG shape and applies it to a Region.">
<polygon fill="white" stroke="#666666" points="626.25,-100 477.5,-100 477.5,-68 626.25,-68 626.25,-100"/>
<text text-anchor="start" x="485.5" y="-86.5" font-family="Helvetica,sans-Serif" font-size="10.00">fr.softsf.sudokufx.view.</text>
<text text-anchor="middle" x="551.88" y="-74.5" font-family="Helvetica,sans-Serif" font-size="10.00">SplashScreenView.createSVG</text>
</a>
</g>
</g>
<!-- Node9&#45;&gt;Node10 -->
<g id="edge11_Node000009_Node000010" class="edge">
<title>Node9&#45;&gt;Node10</title>
<g id="a_edge11_Node000009_Node000010"><a xlink:title=" ">
<path fill="none" stroke="#63b8ff" d="M403.04,-123.53C427.66,-116.95 454.35,-109.81 478.2,-103.43"/>
<polygon fill="#63b8ff" stroke="#63b8ff" points="479.07,-106.82 487.83,-100.86 477.26,-100.06 479.07,-106.82"/>
</a>
</g>
</g>
<!-- Node11&#45;&gt;Node10 -->
<g id="edge13_Node000011_Node000010" class="edge">
<title>Node11&#45;&gt;Node10</title>
<g id="a_edge13_Node000011_Node000010"><a xlink:title=" ">
<path fill="none" stroke="#63b8ff" d="M415.66,-84C432.42,-84 449.73,-84 466.14,-84"/>
<polygon fill="#63b8ff" stroke="#63b8ff" points="465.83,-87.5 475.83,-84 465.83,-80.5 465.83,-87.5"/>
</a>
</g>
</g>
<!-- Node12&#45;&gt;Node10 -->
<g id="edge15_Node000012_Node000010" class="edge">
<title>Node12&#45;&gt;Node10</title>
<g id="a_edge15_Node000012_Node000010"><a xlink:title=" ">
<path fill="none" stroke="#63b8ff" d="M403.04,-44.47C427.66,-51.05 454.35,-58.19 478.2,-64.57"/>
<polygon fill="#63b8ff" stroke="#63b8ff" points="477.26,-67.94 487.83,-67.14 479.07,-61.18 477.26,-67.94"/>
</a>
</g>
</g>
</g>
</svg>
