<?xml version="1.0" encoding="UTF-8" standalone="no"?>
<!DOCTYPE svg PUBLIC "-//W3C//DTD SVG 1.1//EN"
 "http://www.w3.org/Graphics/SVG/1.1/DTD/svg11.dtd">
<!-- Generated by graphviz version 12.2.0 (20241103.1931)
 -->
<!-- Title: fr.softsf.sudokufx.utils.database.keystore.ApplicationKeystore.setupApplicationKeystore Pages: 1 -->
<!--zoomable 240 -->

<svg id="main" version="1.1" xmlns="http://www.w3.org/2000/svg" xmlns:xlink="http://www.w3.org/1999/xlink" xml:space="preserve" onload="init(evt)">

<style type="text/css"><![CDATA[
.node, .edge {opacity: 0.7;}
.node.selected, .edge.selected {opacity: 1;}
.edge:hover path { stroke: red; }
.edge:hover polygon { stroke: red; fill: red; }
]]></style>

<defs>
  <circle id="rim" cx="0" cy="0" r="7"/>
  <circle id="rim2" cx="0" cy="0" r="3.5"/>
  <g id="zoomPlus">
    <use xlink:href="#rim" fill="#404040"><set attributeName="fill" to="#808080" begin="zoomplus.mouseover" end="zoomplus.mouseout"/></use>
    <path d="M-4,0h8M0,-4v8" fill="none" stroke="white" stroke-width="1.5" pointer-events="none"/>
  </g>
  <g id="zoomMin">
    <use xlink:href="#rim" fill="#404040"><set attributeName="fill" to="#808080" begin="zoomminus.mouseover" end="zoomminus.mouseout"/></use>
    <path d="M-4,0h8" fill="none" stroke="white" stroke-width="1.5" pointer-events="none"/>
  </g>
  <g id="arrowUp" transform="translate(30 24)">
    <use xlink:href="#rim"/>
    <path pointer-events="none" fill="none" stroke="white" stroke-width="1.5" d="M0,-3.0v7 M-2.5,-0.5L0,-3.0L2.5,-0.5"/>
  </g>
  <g id="arrowRight" transform="rotate(90) translate(36 -43)">
    <use xlink:href="#rim"/>
    <path pointer-events="none" fill="none" stroke="white" stroke-width="1.5" d="M0,-3.0v7 M-2.5,-0.5L0,-3.0L2.5,-0.5"/>
  </g>
  <g id="arrowDown" transform="rotate(180) translate(-30 -48)">
    <use xlink:href="#rim"/>
    <path pointer-events="none" fill="none" stroke="white" stroke-width="1.5" d="M0,-3.0v7 M-2.5,-0.5L0,-3.0L2.5,-0.5"/>
  </g>
  <g id="arrowLeft" transform="rotate(270) translate(-36 17)">
    <use xlink:href="#rim"/>
    <path pointer-events="none" fill="none" stroke="white" stroke-width="1.5" d="M0,-3.0v7 M-2.5,-0.5L0,-3.0L2.5,-0.5"/>
  </g>
  <g id="resetDef">
    <use xlink:href="#rim2" fill="#404040"><set attributeName="fill" to="#808080" begin="reset.mouseover" end="reset.mouseout"/></use>
  </g>
</defs>
<script type="application/ecmascript">
var viewWidth = 1215;
var viewHeight = 240;
var sectionId = 'dynsection-6';
</script>
<script type="application/ecmascript" xlink:href="svg.min.js"/>
<svg id="graph" class="graph">
<g id="viewport">
<title>fr.softsf.sudokufx.utils.database.keystore.ApplicationKeystore.setupApplicationKeystore</title>
<!-- Node1 -->
<g id="Node000001" class="node">
<title>Node1</title>
<g id="a_Node000001"><a xlink:title="Configures the keystore by managing the entire process of creating, loading, and encrypting the neces...">
<polygon fill="#999999" stroke="#666666" points="217,-132 0,-132 0,-100 217,-100 217,-132"/>
<text text-anchor="start" x="8" y="-118.5" font-family="Helvetica,sans-Serif" font-size="10.00">fr.softsf.sudokufx.utils.database.keystore.</text>
<text text-anchor="middle" x="108.5" y="-106.5" font-family="Helvetica,sans-Serif" font-size="10.00">ApplicationKeystore.setupApplicationKeystore</text>
</a>
</g>
</g>
<!-- Node2 -->
<g id="Node000002" class="node">
<title>Node2</title>
<g id="a_Node000002"><a xlink:href="classfr_1_1softsf_1_1sudokufx_1_1utils_1_1database_1_1keystore_1_1_application_keystore.html#a3c033211ab4f60945ef6ff9d202fbabd" target="_top" xlink:title="Create or update the Keystore.">
<polygon fill="white" stroke="#666666" points="467,-232 253,-232 253,-200 467,-200 467,-232"/>
<text text-anchor="start" x="261" y="-218.5" font-family="Helvetica,sans-Serif" font-size="10.00">fr.softsf.sudokufx.utils.database.keystore.</text>
<text text-anchor="middle" x="360" y="-206.5" font-family="Helvetica,sans-Serif" font-size="10.00">ApplicationKeystore.createOrUpdateKeystore</text>
</a>
</g>
</g>
<!-- Node1&#45;&gt;Node2 -->
<g id="edge1_Node000001_Node000002" class="edge">
<title>Node1&#45;&gt;Node2</title>
<g id="a_edge1_Node000001_Node000002"><a xlink:title=" ">
<path fill="none" stroke="#63b8ff" d="M136.07,-132.48C164.2,-149.29 210.33,-175.1 253,-191 258,-192.86 263.18,-194.62 268.45,-196.27"/>
<polygon fill="#63b8ff" stroke="#63b8ff" points="267.31,-199.58 277.89,-199.07 269.3,-192.87 267.31,-199.58"/>
</a>
</g>
</g>
<!-- Node3 -->
<g id="Node000003" class="node">
<title>Node3</title>
<g id="a_Node000003"><a xlink:href="classfr_1_1softsf_1_1sudokufx_1_1utils_1_1database_1_1keystore_1_1_application_keystore.html#a2a2525acabf35eaaf9dca60b9eb11589" target="_top" xlink:title="Get or set credentials by alias.">
<polygon fill="white" stroke="#666666" points="459.88,-182 260.12,-182 260.12,-150 459.88,-150 459.88,-182"/>
<text text-anchor="start" x="268.12" y="-168.5" font-family="Helvetica,sans-Serif" font-size="10.00">fr.softsf.sudokufx.utils.database.keystore.</text>
<text text-anchor="middle" x="360" y="-156.5" font-family="Helvetica,sans-Serif" font-size="10.00">ApplicationKeystore.credentials</text>
</a>
</g>
</g>
<!-- Node1&#45;&gt;Node3 -->
<g id="edge2_Node000001_Node000003" class="edge">
<title>Node1&#45;&gt;Node3</title>
<g id="a_edge2_Node000001_Node000003"><a xlink:title=" ">
<path fill="none" stroke="#63b8ff" d="M191.54,-132.44C215.31,-137.2 241.44,-142.44 265.84,-147.33"/>
<polygon fill="#63b8ff" stroke="#63b8ff" points="264.93,-150.72 275.43,-149.25 266.31,-143.85 264.93,-150.72"/>
</a>
</g>
</g>
<!-- Node12 -->
<g id="Node000012" class="node">
<title>Node12</title>
<g id="a_Node000012"><a xlink:href="interfacefr_1_1softsf_1_1sudokufx_1_1interfaces_1_1_i_os_folder_factory.html#ad2fbd0fa5081f7b023b0bbf262847cfb" target="_top" xlink:title="Retrieves the path to the OS&#45;specific data folder.">
<polygon fill="white" stroke="#666666" points="454.25,-132 265.75,-132 265.75,-100 454.25,-100 454.25,-132"/>
<text text-anchor="start" x="273.75" y="-118.5" font-family="Helvetica,sans-Serif" font-size="10.00">fr.softsf.sudokufx.interfaces.</text>
<text text-anchor="middle" x="360" y="-106.5" font-family="Helvetica,sans-Serif" font-size="10.00">IOsFolderFactory.getOsDataFolderPath</text>
</a>
</g>
</g>
<!-- Node1&#45;&gt;Node12 -->
<g id="edge11_Node000001_Node000012" class="edge">
<title>Node1&#45;&gt;Node12</title>
<g id="a_edge11_Node000001_Node000012"><a xlink:title=" ">
<path fill="none" stroke="#63b8ff" d="M217.48,-116C229.56,-116 241.85,-116 253.89,-116"/>
<polygon fill="#63b8ff" stroke="#63b8ff" points="253.83,-119.5 263.83,-116 253.83,-112.5 253.83,-119.5"/>
</a>
</g>
</g>
<!-- Node13 -->
<g id="Node000013" class="node">
<title>Node13</title>
<g id="a_Node000013"><a xlink:href="classfr_1_1softsf_1_1sudokufx_1_1utils_1_1database_1_1keystore_1_1_application_keystore.html#afa8d0bbf87d5470ae8e2307a5f6e53b0" target="_top" xlink:title="Load the Keystore.">
<polygon fill="white" stroke="#666666" points="459.88,-82 260.12,-82 260.12,-50 459.88,-50 459.88,-82"/>
<text text-anchor="start" x="268.12" y="-68.5" font-family="Helvetica,sans-Serif" font-size="10.00">fr.softsf.sudokufx.utils.database.keystore.</text>
<text text-anchor="middle" x="360" y="-56.5" font-family="Helvetica,sans-Serif" font-size="10.00">ApplicationKeystore.loadKeyStore</text>
</a>
</g>
</g>
<!-- Node1&#45;&gt;Node13 -->
<g id="edge12_Node000001_Node000013" class="edge">
<title>Node1&#45;&gt;Node13</title>
<g id="a_edge12_Node000001_Node000013"><a xlink:title=" ">
<path fill="none" stroke="#63b8ff" d="M191.54,-99.56C215.31,-94.8 241.44,-89.56 265.84,-84.67"/>
<polygon fill="#63b8ff" stroke="#63b8ff" points="266.31,-88.15 275.43,-82.75 264.93,-81.28 266.31,-88.15"/>
</a>
</g>
</g>
<!-- Node14 -->
<g id="Node000014" class="node">
<title>Node14</title>
<g id="a_Node000014"><a xlink:href="classfr_1_1softsf_1_1sudokufx_1_1utils_1_1database_1_1keystore_1_1_application_keystore.html#a5900042aba7b9c552aacf127f021da37" target="_top" xlink:title="Check the symmetric key presence.">
<polygon fill="white" stroke="#666666" points="459.88,-32 260.12,-32 260.12,0 459.88,0 459.88,-32"/>
<text text-anchor="start" x="268.12" y="-18.5" font-family="Helvetica,sans-Serif" font-size="10.00">fr.softsf.sudokufx.utils.database.keystore.</text>
<text text-anchor="middle" x="360" y="-6.5" font-family="Helvetica,sans-Serif" font-size="10.00">ApplicationKeystore.symmetricKey</text>
</a>
</g>
</g>
<!-- Node1&#45;&gt;Node14 -->
<g id="edge13_Node000001_Node000014" class="edge">
<title>Node1&#45;&gt;Node14</title>
<g id="a_edge13_Node000001_Node000014"><a xlink:title=" ">
<path fill="none" stroke="#63b8ff" d="M136.07,-99.52C164.2,-82.71 210.33,-56.9 253,-41 258,-39.14 263.18,-37.38 268.45,-35.73"/>
<polygon fill="#63b8ff" stroke="#63b8ff" points="269.3,-39.13 277.89,-32.93 267.31,-32.42 269.3,-39.13"/>
</a>
</g>
</g>
<!-- Node4 -->
<g id="Node000004" class="node">
<title>Node4</title>
<g id="a_Node000004"><a xlink:href="classfr_1_1softsf_1_1sudokufx_1_1utils_1_1database_1_1keystore_1_1_application_keystore.html#af5312fa49787830d1c7e73806a03b5bb" target="_top" xlink:title="Get credential by alias.">
<polygon fill="white" stroke="#666666" points="718.88,-182 519.12,-182 519.12,-150 718.88,-150 718.88,-182"/>
<text text-anchor="start" x="527.12" y="-168.5" font-family="Helvetica,sans-Serif" font-size="10.00">fr.softsf.sudokufx.utils.database.keystore.</text>
<text text-anchor="middle" x="619" y="-156.5" font-family="Helvetica,sans-Serif" font-size="10.00">ApplicationKeystore.getCredentials</text>
</a>
</g>
</g>
<!-- Node3&#45;&gt;Node4 -->
<g id="edge3_Node000003_Node000004" class="edge">
<title>Node3&#45;&gt;Node4</title>
<g id="a_edge3_Node000003_Node000004"><a xlink:title=" ">
<path fill="none" stroke="#63b8ff" d="M460.36,-166C475.82,-166 491.87,-166 507.56,-166"/>
<polygon fill="#63b8ff" stroke="#63b8ff" points="507.39,-169.5 517.39,-166 507.39,-162.5 507.39,-169.5"/>
</a>
</g>
</g>
<!-- Node6 -->
<g id="Node000006" class="node">
<title>Node6</title>
<g id="a_Node000006"><a xlink:href="classfr_1_1softsf_1_1sudokufx_1_1utils_1_1database_1_1keystore_1_1_application_keystore.html#aac0c74b44fb1dd6e9bef9b713a8ba609" target="_top" xlink:title="Set credential by alias.">
<polygon fill="white" stroke="#666666" points="718.88,-132 519.12,-132 519.12,-100 718.88,-100 718.88,-132"/>
<text text-anchor="start" x="527.12" y="-118.5" font-family="Helvetica,sans-Serif" font-size="10.00">fr.softsf.sudokufx.utils.database.keystore.</text>
<text text-anchor="middle" x="619" y="-106.5" font-family="Helvetica,sans-Serif" font-size="10.00">ApplicationKeystore.setCredentials</text>
</a>
</g>
</g>
<!-- Node3&#45;&gt;Node6 -->
<g id="edge5_Node000003_Node000006" class="edge">
<title>Node3&#45;&gt;Node6</title>
<g id="a_edge5_Node000003_Node000006"><a xlink:title=" ">
<path fill="none" stroke="#63b8ff" d="M445.51,-149.56C470.1,-144.77 497.15,-139.51 522.37,-134.6"/>
<polygon fill="#63b8ff" stroke="#63b8ff" points="522.81,-138.09 531.96,-132.74 521.47,-131.21 522.81,-138.09"/>
</a>
</g>
</g>
<!-- Node5 -->
<g id="Node000005" class="node">
<title>Node5</title>
<g id="a_Node000005"><a xlink:href="interfacefr_1_1softsf_1_1sudokufx_1_1interfaces_1_1_i_encryption_service.html#a605da446a6ec28faa7c6e1d26a4cb2ca" target="_top" xlink:title="Decrypts the given cipher text using AES&#45;GCM decryption.">
<polygon fill="white" stroke="#666666" points="941.5,-182 800.25,-182 800.25,-150 941.5,-150 941.5,-182"/>
<text text-anchor="start" x="808.25" y="-168.5" font-family="Helvetica,sans-Serif" font-size="10.00">fr.softsf.sudokufx.interfaces.</text>
<text text-anchor="middle" x="870.88" y="-156.5" font-family="Helvetica,sans-Serif" font-size="10.00">IEncryptionService.decrypt</text>
</a>
</g>
</g>
<!-- Node4&#45;&gt;Node5 -->
<g id="edge4_Node000004_Node000005" class="edge">
<title>Node4&#45;&gt;Node5</title>
<g id="a_edge4_Node000004_Node000005"><a xlink:title=" ">
<path fill="none" stroke="#63b8ff" d="M719.12,-166C742.09,-166 766.28,-166 788.4,-166"/>
<polygon fill="#63b8ff" stroke="#63b8ff" points="788.24,-169.5 798.24,-166 788.24,-162.5 788.24,-169.5"/>
</a>
</g>
</g>
<!-- Node7 -->
<g id="Node000007" class="node">
<title>Node7</title>
<g id="a_Node000007"><a xlink:href="classfr_1_1softsf_1_1sudokufx_1_1utils_1_1database_1_1keystore_1_1_application_keystore.html#a33216f8f54d7cd930bad1447d08019ba" target="_top" xlink:title="Add alias:secret in the Keystore.">
<polygon fill="white" stroke="#666666" points="970.75,-32 771,-32 771,0 970.75,0 970.75,-32"/>
<text text-anchor="start" x="779" y="-18.5" font-family="Helvetica,sans-Serif" font-size="10.00">fr.softsf.sudokufx.utils.database.keystore.</text>
<text text-anchor="middle" x="870.88" y="-6.5" font-family="Helvetica,sans-Serif" font-size="10.00">ApplicationKeystore.addToKeystore</text>
</a>
</g>
</g>
<!-- Node6&#45;&gt;Node7 -->
<g id="edge6_Node000006_Node000007" class="edge">
<title>Node6&#45;&gt;Node7</title>
<g id="a_edge6_Node000006_Node000007"><a xlink:title=" ">
<path fill="none" stroke="#63b8ff" d="M719.22,-99.55C724.74,-97.08 730.05,-94.25 735,-91 757.9,-75.98 748.36,-56.4 771,-41 772.81,-39.77 774.68,-38.6 776.59,-37.48"/>
<polygon fill="#63b8ff" stroke="#63b8ff" points="777.87,-40.76 785.16,-33.07 774.67,-34.54 777.87,-40.76"/>
</a>
</g>
</g>
<!-- Node9 -->
<g id="Node000009" class="node">
<title>Node9</title>
<g id="a_Node000009"><a xlink:href="interfacefr_1_1softsf_1_1sudokufx_1_1interfaces_1_1_i_encryption_service.html#a7cd39caadae83b3502b56b96d349cfc5" target="_top" xlink:title="Encrypts the given string using AES&#45;GCM encryption.">
<polygon fill="white" stroke="#666666" points="941.5,-132 800.25,-132 800.25,-100 941.5,-100 941.5,-132"/>
<text text-anchor="start" x="808.25" y="-118.5" font-family="Helvetica,sans-Serif" font-size="10.00">fr.softsf.sudokufx.interfaces.</text>
<text text-anchor="middle" x="870.88" y="-106.5" font-family="Helvetica,sans-Serif" font-size="10.00">IEncryptionService.encrypt</text>
</a>
</g>
</g>
<!-- Node6&#45;&gt;Node9 -->
<g id="edge8_Node000006_Node000009" class="edge">
<title>Node6&#45;&gt;Node9</title>
<g id="a_edge8_Node000006_Node000009"><a xlink:title=" ">
<path fill="none" stroke="#63b8ff" d="M719.12,-116C742.09,-116 766.28,-116 788.4,-116"/>
<polygon fill="#63b8ff" stroke="#63b8ff" points="788.24,-119.5 798.24,-116 788.24,-112.5 788.24,-119.5"/>
</a>
</g>
</g>
<!-- Node10 -->
<g id="Node000010" class="node">
<title>Node10</title>
<g id="a_Node000010"><a xlink:href="classfr_1_1softsf_1_1sudokufx_1_1utils_1_1database_1_1keystore_1_1_generate_secret.html#a4ee1cc58dacde12145b23253b133ce22" target="_top" xlink:title="Generate Passay secret.">
<polygon fill="white" stroke="#666666" points="970.75,-82 771,-82 771,-50 970.75,-50 970.75,-82"/>
<text text-anchor="start" x="779" y="-68.5" font-family="Helvetica,sans-Serif" font-size="10.00">fr.softsf.sudokufx.utils.database.keystore.</text>
<text text-anchor="middle" x="870.88" y="-56.5" font-family="Helvetica,sans-Serif" font-size="10.00">GenerateSecret.generatePassaySecret</text>
</a>
</g>
</g>
<!-- Node6&#45;&gt;Node10 -->
<g id="edge9_Node000006_Node000010" class="edge">
<title>Node6&#45;&gt;Node10</title>
<g id="a_edge9_Node000006_Node000010"><a xlink:title=" ">
<path fill="none" stroke="#63b8ff" d="M702.16,-99.56C725.97,-94.8 752.13,-89.56 776.57,-84.67"/>
<polygon fill="#63b8ff" stroke="#63b8ff" points="777.06,-88.14 786.18,-82.75 775.68,-81.28 777.06,-88.14"/>
</a>
</g>
</g>
<!-- Node8 -->
<g id="Node000008" class="node">
<title>Node8</title>
<g id="a_Node000008"><a xlink:href="classfr_1_1softsf_1_1sudokufx_1_1utils_1_1database_1_1keystore_1_1_application_keystore.html#af82e040ae05888410827f695338a3a07" target="_top" xlink:title="Write data to the keystore file.">
<polygon fill="white" stroke="#666666" points="1206.5,-32 1006.75,-32 1006.75,0 1206.5,0 1206.5,-32"/>
<text text-anchor="start" x="1014.75" y="-18.5" font-family="Helvetica,sans-Serif" font-size="10.00">fr.softsf.sudokufx.utils.database.keystore.</text>
<text text-anchor="middle" x="1106.62" y="-6.5" font-family="Helvetica,sans-Serif" font-size="10.00">ApplicationKeystore.writeTheKeystore</text>
</a>
</g>
</g>
<!-- Node7&#45;&gt;Node8 -->
<g id="edge7_Node000007_Node000008" class="edge">
<title>Node7&#45;&gt;Node8</title>
<g id="a_edge7_Node000007_Node000008"><a xlink:title=" ">
<path fill="none" stroke="#63b8ff" d="M971.01,-16C978.96,-16 987.02,-16 995.04,-16"/>
<polygon fill="#63b8ff" stroke="#63b8ff" points="994.83,-19.5 1004.83,-16 994.83,-12.5 994.83,-19.5"/>
</a>
</g>
</g>
<!-- Node11 -->
<g id="Node000011" class="node">
<title>Node11</title>
<g id="a_Node000011"><a xlink:href="classfr_1_1softsf_1_1sudokufx_1_1utils_1_1database_1_1keystore_1_1_generate_secret.html#a60e50e50087c5e2e578a7e14fa9d2b2e" target="_top" xlink:title="Define the secret special characters.">
<polygon fill="white" stroke="#666666" points="1206.5,-82 1006.75,-82 1006.75,-50 1206.5,-50 1206.5,-82"/>
<text text-anchor="start" x="1014.75" y="-68.5" font-family="Helvetica,sans-Serif" font-size="10.00">fr.softsf.sudokufx.utils.database.keystore.</text>
<text text-anchor="middle" x="1106.62" y="-56.5" font-family="Helvetica,sans-Serif" font-size="10.00">GenerateSecret.createSpecialChars</text>
</a>
</g>
</g>
<!-- Node10&#45;&gt;Node11 -->
<g id="edge10_Node000010_Node000011" class="edge">
<title>Node10&#45;&gt;Node11</title>
<g id="a_edge10_Node000010_Node000011"><a xlink:title=" ">
<path fill="none" stroke="#63b8ff" d="M971.01,-66C978.96,-66 987.02,-66 995.04,-66"/>
<polygon fill="#63b8ff" stroke="#63b8ff" points="994.83,-69.5 1004.83,-66 994.83,-62.5 994.83,-69.5"/>
</a>
</g>
</g>
<!-- Node15 -->
<g id="Node000015" class="node">
<title>Node15</title>
<g id="a_Node000015"><a xlink:href="classfr_1_1softsf_1_1sudokufx_1_1utils_1_1database_1_1keystore_1_1_application_keystore.html#a93c64173e1fcbc1b3cea7c653cec93fc" target="_top" xlink:title="Get the symmetric key and set encryption service.">
<polygon fill="white" stroke="#666666" points="731.25,-82 506.75,-82 506.75,-50 731.25,-50 731.25,-82"/>
<text text-anchor="start" x="514.75" y="-68.5" font-family="Helvetica,sans-Serif" font-size="10.00">fr.softsf.sudokufx.utils.database.keystore.</text>
<text text-anchor="middle" x="619" y="-56.5" font-family="Helvetica,sans-Serif" font-size="10.00">ApplicationKeystore.symmetricKeyIsInKeystore</text>
</a>
</g>
</g>
<!-- Node14&#45;&gt;Node15 -->
<g id="edge14_Node000014_Node000015" class="edge">
<title>Node14&#45;&gt;Node15</title>
<g id="a_edge14_Node000014_Node000015"><a xlink:title=" ">
<path fill="none" stroke="#63b8ff" d="M445.51,-32.44C470.1,-37.23 497.15,-42.49 522.37,-47.4"/>
<polygon fill="#63b8ff" stroke="#63b8ff" points="521.47,-50.79 531.96,-49.26 522.81,-43.91 521.47,-50.79"/>
</a>
</g>
</g>
<!-- Node16 -->
<g id="Node000016" class="node">
<title>Node16</title>
<g id="a_Node000016"><a xlink:href="classfr_1_1softsf_1_1sudokufx_1_1utils_1_1database_1_1keystore_1_1_application_keystore.html#a26a6110e68a3530dff60cf57f1616a25" target="_top" xlink:title="Set the symmetric key and set encryption service.">
<polygon fill="white" stroke="#666666" points="735,-32 503,-32 503,0 735,0 735,-32"/>
<text text-anchor="start" x="511" y="-18.5" font-family="Helvetica,sans-Serif" font-size="10.00">fr.softsf.sudokufx.utils.database.keystore.</text>
<text text-anchor="middle" x="619" y="-6.5" font-family="Helvetica,sans-Serif" font-size="10.00">ApplicationKeystore.symmetricKeyNotInKeystore</text>
</a>
</g>
</g>
<!-- Node14&#45;&gt;Node16 -->
<g id="edge15_Node000014_Node000016" class="edge">
<title>Node14&#45;&gt;Node16</title>
<g id="a_edge15_Node000014_Node000016"><a xlink:title=" ">
<path fill="none" stroke="#63b8ff" d="M460.36,-9.41C470.53,-9.3 480.95,-9.24 491.36,-9.25"/>
<polygon fill="#63b8ff" stroke="#63b8ff" points="491.11,-12.75 501.12,-9.28 491.13,-5.75 491.11,-12.75"/>
</a>
</g>
</g>
<!-- Node16&#45;&gt;Node7 -->
<g id="edge16_Node000016_Node000007" class="edge">
<title>Node16&#45;&gt;Node7</title>
<g id="a_edge16_Node000016_Node000007"><a xlink:title=" ">
<path fill="none" stroke="#63b8ff" d="M735.43,-16C743.33,-16 751.29,-16 759.17,-16"/>
<polygon fill="#63b8ff" stroke="#63b8ff" points="759.13,-19.5 769.13,-16 759.13,-12.5 759.13,-19.5"/>
</a>
</g>
</g>
<!-- Node16&#45;&gt;Node14 -->
<g id="edge17_Node000016_Node000014" class="edge">
<title>Node16&#45;&gt;Node14</title>
<g id="a_edge17_Node000016_Node000014"><a xlink:title=" ">
<path fill="none" stroke="#63b8ff" d="M502.63,-22.72C492.38,-22.77 482.02,-22.76 471.81,-22.69"/>
<polygon fill="#63b8ff" stroke="#63b8ff" points="471.91,-19.19 461.88,-22.61 471.85,-26.19 471.91,-19.19"/>
</a>
</g>
</g>
</g>
</svg>

<g id="navigator" transform="translate(0 0)" fill="#404254">
  <rect fill="#f2f5e9" fill-opacity="0.5" stroke="#606060" stroke-width=".5" x="0" y="0" width="60" height="60"/>
  <use id="zoomplus" xlink:href="#zoomPlus" x="17" y="9" onmousedown="handleZoom(evt,'in')"/>
  <use id="zoomminus" xlink:href="#zoomMin" x="42" y="9" onmousedown="handleZoom(evt,'out')"/>
  <use id="reset" xlink:href="#resetDef" x="30" y="36" onmousedown="handleReset()"/>
   <use id="arrowup" xlink:href="#arrowUp" x="0" y="0" onmousedown="handlePan(0,-1)"/>
  <use id="arrowright" xlink:href="#arrowRight" x="0" y="0" onmousedown="handlePan(1,0)"/>
  <use id="arrowdown" xlink:href="#arrowDown" x="0" y="0" onmousedown="handlePan(0,1)"/>
  <use id="arrowleft" xlink:href="#arrowLeft" x="0" y="0" onmousedown="handlePan(-1,0)"/>
</g>
<svg viewBox="0 0 15 15" width="100%" height="30px" preserveAspectRatio="xMaxYMin meet">
 <g id="arrow_out" transform="scale(0.3 0.3)">
  <a xlink:href="classfr_1_1softsf_1_1sudokufx_1_1utils_1_1database_1_1keystore_1_1_application_keystore_a983c1ac68091c9b5533cda1496c1ccc5_cgraph_org.svg" target="_base">
   <rect id="button" ry="5" rx="5" y="6" x="6" height="38" width="38"
        fill="#f2f5e9" fill-opacity="0.5" stroke="#606060" stroke-width="1.0"/>
   <path id="arrow"
     d="M 11.500037,31.436501 C 11.940474,20.09759 22.043105,11.32322 32.158766,21.979434 L 37.068811,17.246167 C 37.068811,17.246167 37.088388,32 37.088388,32 L 22.160133,31.978069 C 22.160133,31.978069 26.997745,27.140456 26.997745,27.140456 C 18.528582,18.264221 13.291696,25.230495 11.500037,31.436501 z"
     style="fill:#404040;"/>
  </a>
 </g>
</svg>

<style type='text/css'>
<![CDATA[
[data-mouse-over-selected='false'] { opacity: 0.7; }
[data-mouse-over-selected='true']  { opacity: 1.0; }
]]>
</style>
<script type="application/ecmascript"><![CDATA[
document.addEventListener('DOMContentLoaded', (event) => {
  highlightEdges();
  highlightAdjacentNodes();
});
]]></script>
</svg>
