<?xml version="1.0" encoding="UTF-8" standalone="no"?>
<!DOCTYPE svg PUBLIC "-//W3C//DTD SVG 1.1//EN"
 "http://www.w3.org/Graphics/SVG/1.1/DTD/svg11.dtd">
<!-- Generated by graphviz version 12.2.0 (20241103.1931)
 -->
<!-- Title: fr.softsf.sudokufx.model.Menu Pages: 1 -->
<svg width="149pt" height="76pt"
 viewBox="0.00 0.00 148.75 76.00" xmlns="http://www.w3.org/2000/svg" xmlns:xlink="http://www.w3.org/1999/xlink">

<svg id="main" version="1.1" xmlns="http://www.w3.org/2000/svg" xmlns:xlink="http://www.w3.org/1999/xlink" xml:space="preserve">

<style type="text/css"><![CDATA[
.node, .edge {opacity: 0.7;}
.node.selected, .edge.selected {opacity: 1;}
.edge:hover path { stroke: red; }
.edge:hover polygon { stroke: red; fill: red; }
]]></style>
<script type="application/ecmascript" xlink:href="svg.min.js"/>
<svg id="graph" class="graph">
<g id="graph0" class="graph" transform="scale(1 1) rotate(0) translate(4 72)">
<title>fr.softsf.sudokufx.model.Menu</title>
<!-- Node1 -->
<g id="Node000001" class="node">
<title>Node1</title>
<g id="a_Node000001"><a xlink:title=" ">
<polygon fill="#999999" stroke="none" points="140.75,-68 0,-68 0,0 140.75,0 140.75,-68"/>
<text text-anchor="start" x="4" y="-54.5" font-family="Helvetica,sans-Serif" font-size="10.00">fr.softsf.sudokufx.model.Menu</text>
<text text-anchor="start" x="21.75" y="-38.5" font-family="Helvetica,sans-Serif" font-size="10.00">&#45;</text>
<text text-anchor="start" x="46.5" y="-38.5" font-family="Helvetica,sans-Serif" font-size="10.00">Byte menuid</text>
<text text-anchor="start" x="21.75" y="-22.5" font-family="Helvetica,sans-Serif" font-size="10.00">&#45;</text>
<text text-anchor="start" x="46.5" y="-22.5" font-family="Helvetica,sans-Serif" font-size="10.00">Byte mode</text>
<text text-anchor="start" x="68.88" y="-6.5" font-family="Helvetica,sans-Serif" font-size="10.00"> </text>
<polygon fill="#666666" stroke="#666666" points="0,-50 0,-50 140.75,-50 140.75,-50 0,-50"/>
<polygon fill="#666666" stroke="#666666" points="0,-18 0,-18 44.5,-18 44.5,-18 0,-18"/>
<polygon fill="#666666" stroke="#666666" points="44.5,-18 44.5,-18 140.75,-18 140.75,-18 44.5,-18"/>
<polygon fill="none" stroke="#666666" points="0,0 0,-68 140.75,-68 140.75,0 0,0"/>
</a>
</g>
</g>
</g>
</svg>
</svg>

<style type='text/css'>
<![CDATA[
[data-mouse-over-selected='false'] { opacity: 0.7; }
[data-mouse-over-selected='true']  { opacity: 1.0; }
]]>
</style>
<script type="application/ecmascript"><![CDATA[
document.addEventListener('DOMContentLoaded', (event) => {
  highlightEdges();
  highlightAdjacentNodes();
});
]]></script>
</svg>
