<?xml version="1.0" encoding="UTF-8" standalone="no"?>
<!DOCTYPE svg PUBLIC "-//W3C//DTD SVG 1.1//EN"
 "http://www.w3.org/Graphics/SVG/1.1/DTD/svg11.dtd">
<!-- Generated by graphviz version 12.2.0 (20241103.1931)
 -->
<!-- Title: fr.softsf.sudokufx.utils.database.keystore.ApplicationKeystore Pages: 1 -->
<svg width="690pt" height="848pt"
 viewBox="0.00 0.00 689.62 848.00" xmlns="http://www.w3.org/2000/svg" xmlns:xlink="http://www.w3.org/1999/xlink">
<g id="graph0" class="graph" transform="scale(1 1) rotate(0) translate(4 844)">
<title>fr.softsf.sudokufx.utils.database.keystore.ApplicationKeystore</title>
<!-- Node1 -->
<g id="Node000001" class="node">
<title>Node1</title>
<g id="a_Node000001"><a xlink:title="Manages the application&#39;s keystore for the secure storage of a symmetric key and database credentials...">
<polygon fill="#999999" stroke="none" points="465.38,-688 260.62,-688 260.62,0 465.38,0 465.38,-688"/>
<text text-anchor="start" x="271.12" y="-674.5" font-family="Helvetica,sans-Serif" font-size="10.00">fr.softsf.sudokufx.utils.database.keystore.</text>
<text text-anchor="start" x="319.5" y="-662.5" font-family="Helvetica,sans-Serif" font-size="10.00">ApplicationKeystore</text>
<text text-anchor="start" x="266.12" y="-646.5" font-family="Helvetica,sans-Serif" font-size="10.00">&#45;</text>
<text text-anchor="start" x="274.62" y="-646.5" font-family="Helvetica,sans-Serif" font-size="10.00">String keystoreFilePath</text>
<text text-anchor="start" x="266.12" y="-630.5" font-family="Helvetica,sans-Serif" font-size="10.00">&#45;</text>
<text text-anchor="start" x="274.62" y="-630.5" font-family="Helvetica,sans-Serif" font-size="10.00">KeyStore ks</text>
<text text-anchor="start" x="266.12" y="-614.5" font-family="Helvetica,sans-Serif" font-size="10.00">&#45;</text>
<text text-anchor="start" x="274.62" y="-614.5" font-family="Helvetica,sans-Serif" font-size="10.00">String password</text>
<text text-anchor="start" x="266.12" y="-598.5" font-family="Helvetica,sans-Serif" font-size="10.00">&#45;</text>
<text text-anchor="start" x="274.62" y="-598.5" font-family="Helvetica,sans-Serif" font-size="10.00">String username</text>
<text text-anchor="start" x="266.12" y="-582.5" font-family="Helvetica,sans-Serif" font-size="10.00">&#45;</text>
<text text-anchor="start" x="274.62" y="-582.5" font-family="Helvetica,sans-Serif" font-size="10.00">static final String</text>
<text text-anchor="start" x="274.62" y="-570.5" font-family="Helvetica,sans-Serif" font-size="10.00"> KEYSTORE_FILE_PATH</text>
<text text-anchor="start" x="266.12" y="-554.5" font-family="Helvetica,sans-Serif" font-size="10.00">&#45;</text>
<text text-anchor="start" x="274.62" y="-554.5" font-family="Helvetica,sans-Serif" font-size="10.00">static final String</text>
<text text-anchor="start" x="274.62" y="-542.5" font-family="Helvetica,sans-Serif" font-size="10.00"> KEYSTORE_PASSWORD_FROM_UUID</text>
<text text-anchor="start" x="266.12" y="-526.5" font-family="Helvetica,sans-Serif" font-size="10.00">&#45;</text>
<text text-anchor="start" x="274.62" y="-526.5" font-family="Helvetica,sans-Serif" font-size="10.00">static final String</text>
<text text-anchor="start" x="274.62" y="-514.5" font-family="Helvetica,sans-Serif" font-size="10.00"> KEYSTORE_TYPE</text>
<text text-anchor="start" x="266.12" y="-498.5" font-family="Helvetica,sans-Serif" font-size="10.00">&#45;</text>
<text text-anchor="start" x="274.62" y="-498.5" font-family="Helvetica,sans-Serif" font-size="10.00">static final String</text>
<text text-anchor="start" x="274.62" y="-486.5" font-family="Helvetica,sans-Serif" font-size="10.00"> PASS_ALIAS</text>
<text text-anchor="start" x="266.12" y="-470.5" font-family="Helvetica,sans-Serif" font-size="10.00">&#45;</text>
<text text-anchor="start" x="274.62" y="-470.5" font-family="Helvetica,sans-Serif" font-size="10.00">static final char[]</text>
<text text-anchor="start" x="274.62" y="-458.5" font-family="Helvetica,sans-Serif" font-size="10.00"> pwdArray</text>
<text text-anchor="start" x="266.12" y="-442.5" font-family="Helvetica,sans-Serif" font-size="10.00">&#45;</text>
<text text-anchor="start" x="274.62" y="-442.5" font-family="Helvetica,sans-Serif" font-size="10.00">static final String</text>
<text text-anchor="start" x="274.62" y="-430.5" font-family="Helvetica,sans-Serif" font-size="10.00"> SYMMETRIC_KEY_ALIAS</text>
<text text-anchor="start" x="266.12" y="-414.5" font-family="Helvetica,sans-Serif" font-size="10.00">&#45;</text>
<text text-anchor="start" x="274.62" y="-414.5" font-family="Helvetica,sans-Serif" font-size="10.00">static final String</text>
<text text-anchor="start" x="274.62" y="-402.5" font-family="Helvetica,sans-Serif" font-size="10.00"> USERNAME_ALIAS</text>
<text text-anchor="start" x="264.62" y="-386.5" font-family="Helvetica,sans-Serif" font-size="10.00">+</text>
<text text-anchor="start" x="274.62" y="-386.5" font-family="Helvetica,sans-Serif" font-size="10.00">ApplicationKeystore</text>
<text text-anchor="start" x="274.62" y="-374.5" font-family="Helvetica,sans-Serif" font-size="10.00">(IOsFolderFactory iOsFolder</text>
<text text-anchor="start" x="274.62" y="-362.5" font-family="Helvetica,sans-Serif" font-size="10.00">Factory, GenerateSecret generate</text>
<text text-anchor="start" x="274.62" y="-350.5" font-family="Helvetica,sans-Serif" font-size="10.00">Secret)</text>
<text text-anchor="start" x="264.62" y="-334.5" font-family="Helvetica,sans-Serif" font-size="10.00">+</text>
<text text-anchor="start" x="274.62" y="-334.5" font-family="Helvetica,sans-Serif" font-size="10.00">String getPassword()</text>
<text text-anchor="start" x="264.62" y="-318.5" font-family="Helvetica,sans-Serif" font-size="10.00">+</text>
<text text-anchor="start" x="274.62" y="-318.5" font-family="Helvetica,sans-Serif" font-size="10.00">String getUsername()</text>
<text text-anchor="start" x="264.62" y="-302.5" font-family="Helvetica,sans-Serif" font-size="10.00">+</text>
<text text-anchor="start" x="274.62" y="-302.5" font-family="Helvetica,sans-Serif" font-size="10.00">void setupApplicationKeystore()</text>
<text text-anchor="start" x="264.62" y="-286.5" font-family="Helvetica,sans-Serif" font-size="10.00">~</text>
<text text-anchor="start" x="274.62" y="-286.5" font-family="Helvetica,sans-Serif" font-size="10.00">void setOsFolderFactoryFor</text>
<text text-anchor="start" x="274.62" y="-274.5" font-family="Helvetica,sans-Serif" font-size="10.00">Tests(IOsFolderFactory</text>
<text text-anchor="start" x="274.62" y="-262.5" font-family="Helvetica,sans-Serif" font-size="10.00"> osFolderFactoryP)</text>
<text text-anchor="start" x="266.12" y="-246.5" font-family="Helvetica,sans-Serif" font-size="10.00">&#45;</text>
<text text-anchor="start" x="274.62" y="-246.5" font-family="Helvetica,sans-Serif" font-size="10.00">void addToKeystore</text>
<text text-anchor="start" x="274.62" y="-234.5" font-family="Helvetica,sans-Serif" font-size="10.00">(final String alias,</text>
<text text-anchor="start" x="274.62" y="-222.5" font-family="Helvetica,sans-Serif" font-size="10.00"> final SecretKey secretKey)</text>
<text text-anchor="start" x="266.12" y="-206.5" font-family="Helvetica,sans-Serif" font-size="10.00">&#45;</text>
<text text-anchor="start" x="274.62" y="-206.5" font-family="Helvetica,sans-Serif" font-size="10.00">void createOrUpdateKeystore()</text>
<text text-anchor="start" x="266.12" y="-190.5" font-family="Helvetica,sans-Serif" font-size="10.00">&#45;</text>
<text text-anchor="start" x="274.62" y="-190.5" font-family="Helvetica,sans-Serif" font-size="10.00">void credentials(final</text>
<text text-anchor="start" x="274.62" y="-178.5" font-family="Helvetica,sans-Serif" font-size="10.00"> String alias)</text>
<text text-anchor="start" x="266.12" y="-162.5" font-family="Helvetica,sans-Serif" font-size="10.00">&#45;</text>
<text text-anchor="start" x="274.62" y="-162.5" font-family="Helvetica,sans-Serif" font-size="10.00">void getCredentials</text>
<text text-anchor="start" x="274.62" y="-150.5" font-family="Helvetica,sans-Serif" font-size="10.00">(final String alias)</text>
<text text-anchor="start" x="266.12" y="-134.5" font-family="Helvetica,sans-Serif" font-size="10.00">&#45;</text>
<text text-anchor="start" x="274.62" y="-134.5" font-family="Helvetica,sans-Serif" font-size="10.00">void loadKeyStore()</text>
<text text-anchor="start" x="266.12" y="-118.5" font-family="Helvetica,sans-Serif" font-size="10.00">&#45;</text>
<text text-anchor="start" x="274.62" y="-118.5" font-family="Helvetica,sans-Serif" font-size="10.00">void setCredentials</text>
<text text-anchor="start" x="274.62" y="-106.5" font-family="Helvetica,sans-Serif" font-size="10.00">(final String alias)</text>
<text text-anchor="start" x="266.12" y="-90.5" font-family="Helvetica,sans-Serif" font-size="10.00">&#45;</text>
<text text-anchor="start" x="274.62" y="-90.5" font-family="Helvetica,sans-Serif" font-size="10.00">void symmetricKey()</text>
<text text-anchor="start" x="266.12" y="-74.5" font-family="Helvetica,sans-Serif" font-size="10.00">&#45;</text>
<text text-anchor="start" x="274.62" y="-74.5" font-family="Helvetica,sans-Serif" font-size="10.00">void symmetricKeyIsInKeystore()</text>
<text text-anchor="start" x="266.12" y="-58.5" font-family="Helvetica,sans-Serif" font-size="10.00">&#45;</text>
<text text-anchor="start" x="274.62" y="-58.5" font-family="Helvetica,sans-Serif" font-size="10.00">void symmetricKeyNotInKeystore()</text>
<text text-anchor="start" x="266.12" y="-42.5" font-family="Helvetica,sans-Serif" font-size="10.00">&#45;</text>
<text text-anchor="start" x="274.62" y="-42.5" font-family="Helvetica,sans-Serif" font-size="10.00">static void writeTheKeystore</text>
<text text-anchor="start" x="274.62" y="-30.5" font-family="Helvetica,sans-Serif" font-size="10.00">(final KeyStore ks, final</text>
<text text-anchor="start" x="274.62" y="-18.5" font-family="Helvetica,sans-Serif" font-size="10.00"> String keystoreFileName,</text>
<text text-anchor="start" x="274.62" y="-6.5" font-family="Helvetica,sans-Serif" font-size="10.00"> final char[] pwdArray)</text>
<polygon fill="#666666" stroke="#666666" points="260.62,-658 260.62,-658 465.38,-658 465.38,-658 260.62,-658"/>
<polygon fill="#666666" stroke="#666666" points="260.62,-398 260.62,-398 272.62,-398 272.62,-398 260.62,-398"/>
<polygon fill="#666666" stroke="#666666" points="272.62,-398 272.62,-398 465.38,-398 465.38,-398 272.62,-398"/>
<polygon fill="none" stroke="#666666" points="260.62,0 260.62,-688 465.38,-688 465.38,0 260.62,0"/>
</a>
</g>
</g>
<!-- Node2 -->
<g id="Node000002" class="node">
<title>Node2</title>
<g id="a_Node000002"><a xlink:href="interfacefr_1_1softsf_1_1sudokufx_1_1interfaces_1_1_i_keystore.html" target="_top" xlink:title="Interface defining methods to get the database username and his password.">
<polygon fill="white" stroke="none" points="156,-836 0,-836 0,-740 156,-740 156,-836"/>
<text text-anchor="start" x="15.38" y="-822.5" font-family="Helvetica,sans-Serif" font-size="10.00">fr.softsf.sudokufx.interfaces.</text>
<text text-anchor="start" x="57" y="-810.5" font-family="Helvetica,sans-Serif" font-size="10.00">IKeystore</text>
<text text-anchor="start" x="76.5" y="-794.5" font-family="Helvetica,sans-Serif" font-size="10.00"> </text>
<text text-anchor="start" x="4" y="-778.5" font-family="Helvetica,sans-Serif" font-size="10.00">+</text>
<text text-anchor="start" x="14" y="-778.5" font-family="Helvetica,sans-Serif" font-size="10.00">String getPassword()</text>
<text text-anchor="start" x="4" y="-762.5" font-family="Helvetica,sans-Serif" font-size="10.00">+</text>
<text text-anchor="start" x="14" y="-762.5" font-family="Helvetica,sans-Serif" font-size="10.00">String getUsername()</text>
<text text-anchor="start" x="4" y="-746.5" font-family="Helvetica,sans-Serif" font-size="10.00">+</text>
<text text-anchor="start" x="14" y="-746.5" font-family="Helvetica,sans-Serif" font-size="10.00">void setupApplicationKeystore()</text>
<polygon fill="#666666" stroke="#666666" points="0,-806 0,-806 156,-806 156,-806 0,-806"/>
<polygon fill="#666666" stroke="#666666" points="0,-790 0,-790 156,-790 156,-790 0,-790"/>
<polygon fill="none" stroke="#666666" points="0,-740 0,-836 156,-836 156,-740 0,-740"/>
</a>
</g>
</g>
<!-- Node2&#45;&gt;Node1 -->
<g id="edge1_Node000001_Node000002" class="edge">
<title>Node2&#45;&gt;Node1</title>
<g id="a_edge1_Node000001_Node000002"><a xlink:title=" ">
<path fill="none" stroke="#63b8ff" d="M114.39,-730.56C151.21,-673.46 209.81,-582.57 260.88,-503.38"/>
<polygon fill="none" stroke="#63b8ff" points="111.53,-728.54 109.05,-738.84 117.41,-732.34 111.53,-728.54"/>
</a>
</g>
</g>
<!-- Node3 -->
<g id="Node000003" class="node">
<title>Node3</title>
<g id="a_Node000003"><a xlink:href="classfr_1_1softsf_1_1sudokufx_1_1utils_1_1database_1_1keystore_1_1_generate_secret.html" target="_top" xlink:title="Utility class for generating secure passwords using the Passay library.">
<polygon fill="white" stroke="none" points="365.88,-834 174.12,-834 174.12,-742 365.88,-742 365.88,-834"/>
<text text-anchor="start" x="178.12" y="-820.5" font-family="Helvetica,sans-Serif" font-size="10.00">fr.softsf.sudokufx.utils.database.keystore.</text>
<text text-anchor="start" x="235.88" y="-808.5" font-family="Helvetica,sans-Serif" font-size="10.00">GenerateSecret</text>
<text text-anchor="start" x="268.5" y="-792.5" font-family="Helvetica,sans-Serif" font-size="10.00"> </text>
<text text-anchor="start" x="188.19" y="-776.5" font-family="Helvetica,sans-Serif" font-size="10.00">+</text>
<text text-anchor="start" x="208.25" y="-776.5" font-family="Helvetica,sans-Serif" font-size="10.00">String generatePassaySecret()</text>
<text text-anchor="start" x="189.69" y="-760.5" font-family="Helvetica,sans-Serif" font-size="10.00">&#45;</text>
<text text-anchor="start" x="208.25" y="-760.5" font-family="Helvetica,sans-Serif" font-size="10.00">static CharacterData</text>
<text text-anchor="start" x="208.25" y="-748.5" font-family="Helvetica,sans-Serif" font-size="10.00"> createSpecialChars()</text>
<polygon fill="#666666" stroke="#666666" points="174.12,-804 174.12,-804 365.88,-804 365.88,-804 174.12,-804"/>
<polygon fill="#666666" stroke="#666666" points="174.12,-788 174.12,-788 365.88,-788 365.88,-788 174.12,-788"/>
<polygon fill="none" stroke="#666666" points="174.12,-742 174.12,-834 365.88,-834 365.88,-742 174.12,-742"/>
</a>
</g>
</g>
<!-- Node3&#45;&gt;Node1 -->
<g id="edge2_Node000001_Node000003" class="edge">
<title>Node3&#45;&gt;Node1</title>
<g id="a_edge2_Node000001_Node000003"><a xlink:title=" ">
<path fill="none" stroke="#63b8ff" d="M279.43,-742.19C282.01,-729.94 285.01,-715.65 288.32,-699.91"/>
<polygon fill="none" stroke="#63b8ff" points="288.26,-700.22 285.58,-693.53 290.73,-688.48 293.41,-695.17 288.26,-700.22"/>
</a>
</g>
<text text-anchor="middle" x="321.59" y="-708.5" font-family="Helvetica,sans-Serif" font-size="10.00" fill="grey"> &#45;generateSecret</text>
</g>
<!-- Node4 -->
<g id="Node000004" class="node">
<title>Node4</title>
<g id="a_Node000004"><a xlink:href="interfacefr_1_1softsf_1_1sudokufx_1_1interfaces_1_1_i_os_folder_factory.html" target="_top" xlink:title="Interface defining methods to access OS&#45;specific folder paths.">
<polygon fill="white" stroke="none" points="530.5,-828 383.5,-828 383.5,-748 530.5,-748 530.5,-828"/>
<text text-anchor="start" x="394.38" y="-814.5" font-family="Helvetica,sans-Serif" font-size="10.00">fr.softsf.sudokufx.interfaces.</text>
<text text-anchor="start" x="419.12" y="-802.5" font-family="Helvetica,sans-Serif" font-size="10.00">IOsFolderFactory</text>
<text text-anchor="start" x="455.5" y="-786.5" font-family="Helvetica,sans-Serif" font-size="10.00"> </text>
<text text-anchor="start" x="387.5" y="-770.5" font-family="Helvetica,sans-Serif" font-size="10.00">+</text>
<text text-anchor="start" x="397.5" y="-770.5" font-family="Helvetica,sans-Serif" font-size="10.00">String getOsDataFolderPath()</text>
<text text-anchor="start" x="387.5" y="-754.5" font-family="Helvetica,sans-Serif" font-size="10.00">+</text>
<text text-anchor="start" x="397.5" y="-754.5" font-family="Helvetica,sans-Serif" font-size="10.00">String getOsLogsFolderPath()</text>
<polygon fill="#666666" stroke="#666666" points="383.5,-798 383.5,-798 530.5,-798 530.5,-798 383.5,-798"/>
<polygon fill="#666666" stroke="#666666" points="383.5,-782 383.5,-782 530.5,-782 530.5,-782 383.5,-782"/>
<polygon fill="none" stroke="#666666" points="383.5,-748 383.5,-828 530.5,-828 530.5,-748 383.5,-748"/>
</a>
</g>
</g>
<!-- Node4&#45;&gt;Node1 -->
<g id="edge3_Node000001_Node000004" class="edge">
<title>Node4&#45;&gt;Node1</title>
<g id="a_edge3_Node000001_Node000004"><a xlink:title=" ">
<path fill="none" stroke="#63b8ff" d="M448.74,-748.16C445.91,-734.83 442.46,-718.64 438.6,-700.5"/>
<polygon fill="none" stroke="#63b8ff" points="438.62,-700.59 433.46,-695.56 436.13,-688.86 441.29,-693.89 438.62,-700.59"/>
</a>
</g>
<text text-anchor="middle" x="481.74" y="-708.5" font-family="Helvetica,sans-Serif" font-size="10.00" fill="grey"> &#45;iOsFolderFactory</text>
</g>
<!-- Node5 -->
<g id="Node000005" class="node">
<title>Node5</title>
<g id="a_Node000005"><a xlink:href="interfacefr_1_1softsf_1_1sudokufx_1_1interfaces_1_1_i_encryption_service.html" target="_top" xlink:title="Interface defining methods to encrypt and decrypt using AES&#45;GCM (Galois/Counter Mode) encryption.">
<polygon fill="white" stroke="none" points="681.62,-840 548.38,-840 548.38,-736 681.62,-736 681.62,-840"/>
<text text-anchor="start" x="552.38" y="-826.5" font-family="Helvetica,sans-Serif" font-size="10.00">fr.softsf.sudokufx.interfaces.</text>
<text text-anchor="start" x="573.75" y="-814.5" font-family="Helvetica,sans-Serif" font-size="10.00">IEncryptionService</text>
<text text-anchor="start" x="613.5" y="-798.5" font-family="Helvetica,sans-Serif" font-size="10.00"> </text>
<text text-anchor="start" x="558.88" y="-782.5" font-family="Helvetica,sans-Serif" font-size="10.00">+</text>
<text text-anchor="start" x="575.38" y="-782.5" font-family="Helvetica,sans-Serif" font-size="10.00">String decrypt(String</text>
<text text-anchor="start" x="575.38" y="-770.5" font-family="Helvetica,sans-Serif" font-size="10.00"> cypher)</text>
<text text-anchor="start" x="558.88" y="-754.5" font-family="Helvetica,sans-Serif" font-size="10.00">+</text>
<text text-anchor="start" x="575.38" y="-754.5" font-family="Helvetica,sans-Serif" font-size="10.00">String encrypt(String</text>
<text text-anchor="start" x="575.38" y="-742.5" font-family="Helvetica,sans-Serif" font-size="10.00"> original)</text>
<polygon fill="#666666" stroke="#666666" points="548.38,-810 548.38,-810 681.62,-810 681.62,-810 548.38,-810"/>
<polygon fill="#666666" stroke="#666666" points="548.38,-794 548.38,-794 681.62,-794 681.62,-794 548.38,-794"/>
<polygon fill="none" stroke="#666666" points="548.38,-736 548.38,-840 681.62,-840 681.62,-736 548.38,-736"/>
</a>
</g>
</g>
<!-- Node5&#45;&gt;Node1 -->
<g id="edge4_Node000001_Node000005" class="edge">
<title>Node5&#45;&gt;Node1</title>
<g id="a_edge4_Node000001_Node000005"><a xlink:title=" ">
<path fill="none" stroke="#63b8ff" d="M586.09,-736.3C557.99,-687.01 513.55,-609.06 471.7,-535.66"/>
<polygon fill="none" stroke="#63b8ff" points="471.67,-535.6 465.22,-532.37 465.73,-525.18 472.17,-528.41 471.67,-535.6"/>
</a>
</g>
<text text-anchor="middle" x="616.63" y="-708.5" font-family="Helvetica,sans-Serif" font-size="10.00" fill="grey"> &#45;iEncryptionService</text>
</g>
</g>
</svg>
