<?xml version="1.0" encoding="UTF-8" standalone="no"?>
<!DOCTYPE svg PUBLIC "-//W3C//DTD SVG 1.1//EN"
 "http://www.w3.org/Graphics/SVG/1.1/DTD/svg11.dtd">
<!-- Generated by graphviz version 12.2.1 (20241206.2353)
 -->
<!-- Title: fr.softsf.sudokufx.service.VersionService Pages: 1 -->
<svg width="175pt" height="400pt"
 viewBox="0.00 0.00 174.50 400.00" xmlns="http://www.w3.org/2000/svg" xmlns:xlink="http://www.w3.org/1999/xlink">
<g id="graph0" class="graph" transform="scale(1 1) rotate(0) translate(4 396)">
<title>fr.softsf.sudokufx.service.VersionService</title>
<!-- Node1 -->
<g id="Node000001" class="node">
<title>Node1</title>
<g id="a_Node000001"><a xlink:title="Service for checking if the application version is up to date by querying GitHub.">
<polygon fill="#999999" stroke="none" points="166.5,-256 0,-256 0,0 166.5,0 166.5,-256"/>
<text text-anchor="start" x="26.25" y="-242.5" font-family="Helvetica,sans-Serif" font-size="10.00">fr.softsf.sudokufx.service.</text>
<text text-anchor="start" x="50.62" y="-230.5" font-family="Helvetica,sans-Serif" font-size="10.00">VersionService</text>
<text text-anchor="start" x="5.5" y="-214.5" font-family="Helvetica,sans-Serif" font-size="10.00">&#45;</text>
<text text-anchor="start" x="14" y="-214.5" font-family="Helvetica,sans-Serif" font-size="10.00">final String currentVersion</text>
<text text-anchor="start" x="5.5" y="-198.5" font-family="Helvetica,sans-Serif" font-size="10.00">&#45;</text>
<text text-anchor="start" x="14" y="-198.5" font-family="Helvetica,sans-Serif" font-size="10.00">final HttpClient httpClient</text>
<text text-anchor="start" x="5.5" y="-182.5" font-family="Helvetica,sans-Serif" font-size="10.00">&#45;</text>
<text text-anchor="start" x="14" y="-182.5" font-family="Helvetica,sans-Serif" font-size="10.00">static final ObjectMapper</text>
<text text-anchor="start" x="14" y="-170.5" font-family="Helvetica,sans-Serif" font-size="10.00"> OBJECT_MAPPER</text>
<text text-anchor="start" x="4" y="-154.5" font-family="Helvetica,sans-Serif" font-size="10.00">+</text>
<text text-anchor="start" x="14" y="-154.5" font-family="Helvetica,sans-Serif" font-size="10.00">VersionService(HttpClient</text>
<text text-anchor="start" x="14" y="-142.5" font-family="Helvetica,sans-Serif" font-size="10.00"> httpClient, MyDateTime</text>
<text text-anchor="start" x="14" y="-130.5" font-family="Helvetica,sans-Serif" font-size="10.00"> myDateTime)</text>
<text text-anchor="start" x="4" y="-114.5" font-family="Helvetica,sans-Serif" font-size="10.00">+</text>
<text text-anchor="start" x="14" y="-114.5" font-family="Helvetica,sans-Serif" font-size="10.00">Task&lt; Boolean &gt; checkLatest</text>
<text text-anchor="start" x="14" y="-102.5" font-family="Helvetica,sans-Serif" font-size="10.00">Version()</text>
<text text-anchor="start" x="4" y="-86.5" font-family="Helvetica,sans-Serif" font-size="10.00">+</text>
<text text-anchor="start" x="14" y="-86.5" font-family="Helvetica,sans-Serif" font-size="10.00">String getGitHubLinkToRepository</text>
<text text-anchor="start" x="14" y="-74.5" font-family="Helvetica,sans-Serif" font-size="10.00">Releases()</text>
<text text-anchor="start" x="5.5" y="-58.5" font-family="Helvetica,sans-Serif" font-size="10.00">&#45;</text>
<text text-anchor="start" x="14" y="-58.5" font-family="Helvetica,sans-Serif" font-size="10.00">int compareVersions</text>
<text text-anchor="start" x="14" y="-46.5" font-family="Helvetica,sans-Serif" font-size="10.00">(final String version1,</text>
<text text-anchor="start" x="14" y="-34.5" font-family="Helvetica,sans-Serif" font-size="10.00"> final String version2)</text>
<text text-anchor="start" x="5.5" y="-18.5" font-family="Helvetica,sans-Serif" font-size="10.00">&#45;</text>
<text text-anchor="start" x="14" y="-18.5" font-family="Helvetica,sans-Serif" font-size="10.00">boolean parseResponse</text>
<text text-anchor="start" x="14" y="-6.5" font-family="Helvetica,sans-Serif" font-size="10.00">(String json)</text>
<polygon fill="#666666" stroke="#666666" points="0,-226 0,-226 166.5,-226 166.5,-226 0,-226"/>
<polygon fill="#666666" stroke="#666666" points="0,-166 0,-166 12,-166 12,-166 0,-166"/>
<polygon fill="#666666" stroke="#666666" points="12,-166 12,-166 166.5,-166 166.5,-166 12,-166"/>
<polygon fill="none" stroke="#666666" points="0,0 0,-256 166.5,-256 166.5,0 0,0"/>
</a>
</g>
</g>
<!-- Node2 -->
<g id="Node000002" class="node">
<title>Node2</title>
<g id="a_Node000002"><a xlink:href="classfr_1_1softsf_1_1sudokufx_1_1utils_1_1_my_date_time.html" target="_top" xlink:title="Utility class for working with date and time.">
<polygon fill="white" stroke="none" points="158.62,-392 7.88,-392 7.88,-304 158.62,-304 158.62,-392"/>
<text text-anchor="start" x="33" y="-378.5" font-family="Helvetica,sans-Serif" font-size="10.00">fr.softsf.sudokufx.utils.</text>
<text text-anchor="start" x="55.12" y="-366.5" font-family="Helvetica,sans-Serif" font-size="10.00">MyDateTime</text>
<text text-anchor="start" x="13.38" y="-350.5" font-family="Helvetica,sans-Serif" font-size="10.00">&#45;</text>
<text text-anchor="start" x="21.88" y="-350.5" font-family="Helvetica,sans-Serif" font-size="10.00">static final DateTimeFormatter</text>
<text text-anchor="start" x="21.88" y="-338.5" font-family="Helvetica,sans-Serif" font-size="10.00"> TIME_FORMATTER</text>
<text text-anchor="start" x="11.88" y="-322.5" font-family="Helvetica,sans-Serif" font-size="10.00">+</text>
<text text-anchor="start" x="21.88" y="-322.5" font-family="Helvetica,sans-Serif" font-size="10.00">String getFormattedCurrent</text>
<text text-anchor="start" x="21.88" y="-310.5" font-family="Helvetica,sans-Serif" font-size="10.00">Time()</text>
<polygon fill="#666666" stroke="#666666" points="7.88,-362 7.88,-362 158.62,-362 158.62,-362 7.88,-362"/>
<polygon fill="#666666" stroke="#666666" points="7.88,-334 7.88,-334 19.88,-334 19.88,-334 7.88,-334"/>
<polygon fill="#666666" stroke="#666666" points="19.88,-334 19.88,-334 158.62,-334 158.62,-334 19.88,-334"/>
<polygon fill="none" stroke="#666666" points="7.88,-304 7.88,-392 158.62,-392 158.62,-304 7.88,-304"/>
</a>
</g>
</g>
<!-- Node2&#45;&gt;Node1 -->
<g id="edge1_Node000001_Node000002" class="edge">
<title>Node2&#45;&gt;Node1</title>
<g id="a_edge1_Node000001_Node000002"><a xlink:title=" ">
<path fill="none" stroke="#63b8ff" d="M83.25,-304.19C83.25,-293.5 83.25,-281.43 83.25,-268.77"/>
<polygon fill="none" stroke="#63b8ff" points="83.25,-268.83 79.25,-262.83 83.25,-256.83 87.25,-262.83 83.25,-268.83"/>
</a>
</g>
<text text-anchor="middle" x="114.38" y="-276.5" font-family="Helvetica,sans-Serif" font-size="10.00" fill="grey"> &#45;myDateTime</text>
</g>
</g>
</svg>
