<?xml version="1.0" encoding="UTF-8" standalone="no"?>
<!DOCTYPE svg PUBLIC "-//W3C//DTD SVG 1.1//EN"
 "http://www.w3.org/Graphics/SVG/1.1/DTD/svg11.dtd">
<!-- Generated by graphviz version 12.2.0 (20241103.1931)
 -->
<!-- Title: fr.softsf.sudokufx.model.GameLevel Pages: 1 -->
<svg width="125pt" height="88pt"
 viewBox="0.00 0.00 124.75 88.00" xmlns="http://www.w3.org/2000/svg" xmlns:xlink="http://www.w3.org/1999/xlink">
<g id="graph0" class="graph" transform="scale(1 1) rotate(0) translate(4 84)">
<title>fr.softsf.sudokufx.model.GameLevel</title>
<!-- Node1 -->
<g id="Node000001" class="node">
<title>Node1</title>
<g id="a_Node000001"><a xlink:title=" ">
<polygon fill="#999999" stroke="none" points="116.75,-80 0,-80 0,0 116.75,0 116.75,-80"/>
<text text-anchor="start" x="4" y="-66.5" font-family="Helvetica,sans-Serif" font-size="10.00">fr.softsf.sudokufx.model.</text>
<text text-anchor="start" x="33.62" y="-54.5" font-family="Helvetica,sans-Serif" font-size="10.00">GameLevel</text>
<text text-anchor="start" x="16.69" y="-38.5" font-family="Helvetica,sans-Serif" font-size="10.00">&#45;</text>
<text text-anchor="start" x="36.38" y="-38.5" font-family="Helvetica,sans-Serif" font-size="10.00">Byte level</text>
<text text-anchor="start" x="16.69" y="-22.5" font-family="Helvetica,sans-Serif" font-size="10.00">&#45;</text>
<text text-anchor="start" x="36.38" y="-22.5" font-family="Helvetica,sans-Serif" font-size="10.00">Byte levelid</text>
<text text-anchor="start" x="56.88" y="-6.5" font-family="Helvetica,sans-Serif" font-size="10.00"> </text>
<polygon fill="#666666" stroke="#666666" points="0,-50 0,-50 116.75,-50 116.75,-50 0,-50"/>
<polygon fill="#666666" stroke="#666666" points="0,-18 0,-18 34.38,-18 34.38,-18 0,-18"/>
<polygon fill="#666666" stroke="#666666" points="34.38,-18 34.38,-18 116.75,-18 116.75,-18 34.38,-18"/>
<polygon fill="none" stroke="#666666" points="0,0 0,-80 116.75,-80 116.75,0 0,0"/>
</a>
</g>
</g>
</g>
</svg>
