<?xml version="1.0" encoding="UTF-8" standalone="no"?>
<!DOCTYPE svg PUBLIC "-//W3C//DTD SVG 1.1//EN"
 "http://www.w3.org/Graphics/SVG/1.1/DTD/svg11.dtd">
<!-- Generated by graphviz version 12.2.0 (20241103.1931)
 -->
<!-- Title: fr.softsf.sudofx2024.SudoMain.getPauseTransition Pages: 1 -->
<!--zoomable 152 -->

<svg id="main" version="1.1" xmlns="http://www.w3.org/2000/svg" xmlns:xlink="http://www.w3.org/1999/xlink" xml:space="preserve" onload="init(evt)">

<style type="text/css"><![CDATA[
.node, .edge {opacity: 0.7;}
.node.selected, .edge.selected {opacity: 1;}
.edge:hover path { stroke: red; }
.edge:hover polygon { stroke: red; fill: red; }
]]></style>

<defs>
  <circle id="rim" cx="0" cy="0" r="7"/>
  <circle id="rim2" cx="0" cy="0" r="3.5"/>
  <g id="zoomPlus">
    <use xlink:href="#rim" fill="#404040"><set attributeName="fill" to="#808080" begin="zoomplus.mouseover" end="zoomplus.mouseout"/></use>
    <path d="M-4,0h8M0,-4v8" fill="none" stroke="white" stroke-width="1.5" pointer-events="none"/>
  </g>
  <g id="zoomMin">
    <use xlink:href="#rim" fill="#404040"><set attributeName="fill" to="#808080" begin="zoomminus.mouseover" end="zoomminus.mouseout"/></use>
    <path d="M-4,0h8" fill="none" stroke="white" stroke-width="1.5" pointer-events="none"/>
  </g>
  <g id="arrowUp" transform="translate(30 24)">
    <use xlink:href="#rim"/>
    <path pointer-events="none" fill="none" stroke="white" stroke-width="1.5" d="M0,-3.0v7 M-2.5,-0.5L0,-3.0L2.5,-0.5"/>
  </g>
  <g id="arrowRight" transform="rotate(90) translate(36 -43)">
    <use xlink:href="#rim"/>
    <path pointer-events="none" fill="none" stroke="white" stroke-width="1.5" d="M0,-3.0v7 M-2.5,-0.5L0,-3.0L2.5,-0.5"/>
  </g>
  <g id="arrowDown" transform="rotate(180) translate(-30 -48)">
    <use xlink:href="#rim"/>
    <path pointer-events="none" fill="none" stroke="white" stroke-width="1.5" d="M0,-3.0v7 M-2.5,-0.5L0,-3.0L2.5,-0.5"/>
  </g>
  <g id="arrowLeft" transform="rotate(270) translate(-36 17)">
    <use xlink:href="#rim"/>
    <path pointer-events="none" fill="none" stroke="white" stroke-width="1.5" d="M0,-3.0v7 M-2.5,-0.5L0,-3.0L2.5,-0.5"/>
  </g>
  <g id="resetDef">
    <use xlink:href="#rim2" fill="#404040"><set attributeName="fill" to="#808080" begin="reset.mouseover" end="reset.mouseout"/></use>
  </g>
</defs>
<script type="application/ecmascript">
var viewWidth = 547;
var viewHeight = 152;
var sectionId = 'dynsection-2';
</script>
<script type="application/ecmascript" xlink:href="svg.min.js"/>
<svg id="graph" class="graph">
<g id="viewport">
<title>fr.softsf.sudofx2024.SudoMain.getPauseTransition</title>
<!-- Node1 -->
<g id="Node000001" class="node">
<title>Node1</title>
<g id="a_Node000001"><a xlink:title="Creates a PauseTransition to delay loading of the next view.">
<polygon fill="#999999" stroke="#666666" points="128.5,-88 0,-88 0,-56 128.5,-56 128.5,-88"/>
<text text-anchor="start" x="8" y="-74.5" font-family="Helvetica,sans-Serif" font-size="10.00">fr.softsf.sudofx2024.Sudo</text>
<text text-anchor="middle" x="64.25" y="-62.5" font-family="Helvetica,sans-Serif" font-size="10.00">Main.getPauseTransition</text>
</a>
</g>
</g>
<!-- Node2 -->
<g id="Node000002" class="node">
<title>Node2</title>
<g id="a_Node000002"><a xlink:href="classfr_1_1softsf_1_1sudofx2024_1_1service_1_1_fxml_service.html#ad0755c115f6de1b29902644947a51046" target="_top" xlink:title="Retrieves the controller associated with the loaded FXML file.">
<polygon fill="white" stroke="#666666" points="321.12,-144 180.62,-144 180.62,-112 321.12,-112 321.12,-144"/>
<text text-anchor="start" x="188.62" y="-130.5" font-family="Helvetica,sans-Serif" font-size="10.00">fr.softsf.sudofx2024.service.</text>
<text text-anchor="middle" x="250.88" y="-118.5" font-family="Helvetica,sans-Serif" font-size="10.00">FxmlService.getController</text>
</a>
</g>
</g>
<!-- Node1&#45;&gt;Node2 -->
<g id="edge1_Node000001_Node000002" class="edge">
<title>Node1&#45;&gt;Node2</title>
<g id="a_edge1_Node000001_Node000002"><a xlink:title=" ">
<path fill="none" stroke="#63b8ff" d="M117.22,-88.42C132.44,-93.18 149.12,-98.35 164.5,-103 170.32,-104.76 176.37,-106.57 182.44,-108.38"/>
<polygon fill="#63b8ff" stroke="#63b8ff" points="181.31,-111.69 191.9,-111.17 183.3,-104.98 181.31,-111.69"/>
</a>
</g>
</g>
<!-- Node3 -->
<g id="Node000003" class="node">
<title>Node3</title>
<g id="a_Node000003"><a xlink:href="interfacefr_1_1softsf_1_1sudofx2024_1_1_sudo_main_1_1_i_primary_stage_view.html#af9db2de476fffbb2feb7dbd83ecab967" target="_top" xlink:title=" ">
<polygon fill="white" stroke="#666666" points="330.88,-94 170.88,-94 170.88,-50 330.88,-50 330.88,-94"/>
<text text-anchor="start" x="178.88" y="-80.5" font-family="Helvetica,sans-Serif" font-size="10.00">fr.softsf.sudofx2024.Sudo</text>
<text text-anchor="start" x="178.88" y="-68.5" font-family="Helvetica,sans-Serif" font-size="10.00">Main.IPrimaryStageView.opening</text>
<text text-anchor="middle" x="250.88" y="-56.5" font-family="Helvetica,sans-Serif" font-size="10.00">MainStage</text>
</a>
</g>
</g>
<!-- Node1&#45;&gt;Node3 -->
<g id="edge2_Node000001_Node000003" class="edge">
<title>Node1&#45;&gt;Node3</title>
<g id="a_edge2_Node000001_Node000003"><a xlink:title=" ">
<path fill="none" stroke="#63b8ff" d="M128.79,-72C138.56,-72 148.82,-72 159.05,-72"/>
<polygon fill="#63b8ff" stroke="#63b8ff" points="159.05,-75.5 169.05,-72 159.05,-68.5 159.05,-75.5"/>
</a>
</g>
</g>
<!-- Node4 -->
<g id="Node000004" class="node">
<title>Node4</title>
<g id="a_Node000004"><a xlink:href="classfr_1_1softsf_1_1sudofx2024_1_1service_1_1_fxml_service.html#aab6ca18eddd23a7289d0b99919947aa0" target="_top" xlink:title="Sets the root of the scene based on the given FXML file name, and adapt the font size dynamically.">
<polygon fill="white" stroke="#666666" points="337.25,-32 164.5,-32 164.5,0 337.25,0 337.25,-32"/>
<text text-anchor="start" x="172.5" y="-18.5" font-family="Helvetica,sans-Serif" font-size="10.00">fr.softsf.sudofx2024.service.</text>
<text text-anchor="middle" x="250.88" y="-6.5" font-family="Helvetica,sans-Serif" font-size="10.00">FxmlService.setRootByFXMLName</text>
</a>
</g>
</g>
<!-- Node1&#45;&gt;Node4 -->
<g id="edge3_Node000001_Node000004" class="edge">
<title>Node1&#45;&gt;Node4</title>
<g id="a_edge3_Node000001_Node000004"><a xlink:title=" ">
<path fill="none" stroke="#63b8ff" d="M117.22,-55.58C132.44,-50.82 149.12,-45.65 164.5,-41 170.32,-39.24 176.37,-37.43 182.44,-35.62"/>
<polygon fill="#63b8ff" stroke="#63b8ff" points="183.3,-39.02 191.9,-32.83 181.31,-32.31 183.3,-39.02"/>
</a>
</g>
</g>
<!-- Node5 -->
<g id="Node000005" class="node">
<title>Node5</title>
<g id="a_Node000005"><a xlink:href="classfr_1_1softsf_1_1sudofx2024_1_1utils_1_1_dynamic_font_size.html#a1bc835c3deae920bc386895199a86338" target="_top" xlink:title="Updates the font size based on the current Scene dimensions.">
<polygon fill="white" stroke="#666666" points="538.5,-32 373.25,-32 373.25,0 538.5,0 538.5,-32"/>
<text text-anchor="start" x="381.25" y="-18.5" font-family="Helvetica,sans-Serif" font-size="10.00">fr.softsf.sudofx2024.utils.</text>
<text text-anchor="middle" x="455.88" y="-6.5" font-family="Helvetica,sans-Serif" font-size="10.00">DynamicFontSize.updateFontSize</text>
</a>
</g>
</g>
<!-- Node4&#45;&gt;Node5 -->
<g id="edge4_Node000004_Node000005" class="edge">
<title>Node4&#45;&gt;Node5</title>
<g id="a_edge4_Node000004_Node000005"><a xlink:title=" ">
<path fill="none" stroke="#63b8ff" d="M337.67,-16C345.61,-16 353.69,-16 361.69,-16"/>
<polygon fill="#63b8ff" stroke="#63b8ff" points="361.43,-19.5 371.43,-16 361.43,-12.5 361.43,-19.5"/>
</a>
</g>
</g>
</g>
</svg>

<g id="navigator" transform="translate(0 0)" fill="#404254">
  <rect fill="#f2f5e9" fill-opacity="0.5" stroke="#606060" stroke-width=".5" x="0" y="0" width="60" height="60"/>
  <use id="zoomplus" xlink:href="#zoomPlus" x="17" y="9" onmousedown="handleZoom(evt,'in')"/>
  <use id="zoomminus" xlink:href="#zoomMin" x="42" y="9" onmousedown="handleZoom(evt,'out')"/>
  <use id="reset" xlink:href="#resetDef" x="30" y="36" onmousedown="handleReset()"/>
   <use id="arrowup" xlink:href="#arrowUp" x="0" y="0" onmousedown="handlePan(0,-1)"/>
  <use id="arrowright" xlink:href="#arrowRight" x="0" y="0" onmousedown="handlePan(1,0)"/>
  <use id="arrowdown" xlink:href="#arrowDown" x="0" y="0" onmousedown="handlePan(0,1)"/>
  <use id="arrowleft" xlink:href="#arrowLeft" x="0" y="0" onmousedown="handlePan(-1,0)"/>
</g>
<svg viewBox="0 0 15 15" width="100%" height="30px" preserveAspectRatio="xMaxYMin meet">
 <g id="arrow_out" transform="scale(0.3 0.3)">
  <a xlink:href="classfr_1_1softsf_1_1sudofx2024_1_1_sudo_main_a47124f29db41508068095b5c9c559159_cgraph_org.svg" target="_base">
   <rect id="button" ry="5" rx="5" y="6" x="6" height="38" width="38"
        fill="#f2f5e9" fill-opacity="0.5" stroke="#606060" stroke-width="1.0"/>
   <path id="arrow"
     d="M 11.500037,31.436501 C 11.940474,20.09759 22.043105,11.32322 32.158766,21.979434 L 37.068811,17.246167 C 37.068811,17.246167 37.088388,32 37.088388,32 L 22.160133,31.978069 C 22.160133,31.978069 26.997745,27.140456 26.997745,27.140456 C 18.528582,18.264221 13.291696,25.230495 11.500037,31.436501 z"
     style="fill:#404040;"/>
  </a>
 </g>
</svg>

<style type='text/css'>
<![CDATA[
[data-mouse-over-selected='false'] { opacity: 0.7; }
[data-mouse-over-selected='true']  { opacity: 1.0; }
]]>
</style>
<script type="application/ecmascript"><![CDATA[
document.addEventListener('DOMContentLoaded', (event) => {
  highlightEdges();
  highlightAdjacentNodes();
});
]]></script>
</svg>
