<?xml version="1.0" encoding="UTF-8" standalone="no"?>
<!DOCTYPE svg PUBLIC "-//W3C//DTD SVG 1.1//EN"
 "http://www.w3.org/Graphics/SVG/1.1/DTD/svg11.dtd">
<!-- Generated by graphviz version 12.2.0 (20241103.1931)
 -->
<!-- Title: fr.softsf.sudofx2024.utils.database.keystore.GenerateSecret Pages: 1 -->
<svg width="210pt" height="128pt"
 viewBox="0.00 0.00 210.25 128.00" xmlns="http://www.w3.org/2000/svg" xmlns:xlink="http://www.w3.org/1999/xlink">
<g id="graph0" class="graph" transform="scale(1 1) rotate(0) translate(4 124)">
<title>fr.softsf.sudofx2024.utils.database.keystore.GenerateSecret</title>
<!-- Node1 -->
<g id="Node000001" class="node">
<title>Node1</title>
<g id="a_Node000001"><a xlink:title="Utility class for generating secure passwords using the Passay library.">
<polygon fill="#999999" stroke="none" points="202.25,-120 0,-120 0,0 202.25,0 202.25,-120"/>
<text text-anchor="start" x="4" y="-106.5" font-family="Helvetica,sans-Serif" font-size="10.00">fr.softsf.sudofx2024.utils.database.keystore.</text>
<text text-anchor="start" x="67" y="-94.5" font-family="Helvetica,sans-Serif" font-size="10.00">GenerateSecret</text>
<text text-anchor="start" x="99.62" y="-78.5" font-family="Helvetica,sans-Serif" font-size="10.00"> </text>
<text text-anchor="start" x="18.56" y="-62.5" font-family="Helvetica,sans-Serif" font-size="10.00">+</text>
<text text-anchor="start" x="43.12" y="-62.5" font-family="Helvetica,sans-Serif" font-size="10.00">static String generatePassay</text>
<text text-anchor="start" x="43.12" y="-50.5" font-family="Helvetica,sans-Serif" font-size="10.00">Secret()</text>
<text text-anchor="start" x="20.06" y="-34.5" font-family="Helvetica,sans-Serif" font-size="10.00">&#45;</text>
<text text-anchor="start" x="43.12" y="-34.5" font-family="Helvetica,sans-Serif" font-size="10.00">GenerateSecret()</text>
<text text-anchor="start" x="20.06" y="-18.5" font-family="Helvetica,sans-Serif" font-size="10.00">&#45;</text>
<text text-anchor="start" x="43.12" y="-18.5" font-family="Helvetica,sans-Serif" font-size="10.00">static CharacterData</text>
<text text-anchor="start" x="43.12" y="-6.5" font-family="Helvetica,sans-Serif" font-size="10.00"> createSpecialChars()</text>
<polygon fill="#666666" stroke="#666666" points="0,-90 0,-90 202.25,-90 202.25,-90 0,-90"/>
<polygon fill="#666666" stroke="#666666" points="0,-74 0,-74 202.25,-74 202.25,-74 0,-74"/>
<polygon fill="none" stroke="#666666" points="0,0 0,-120 202.25,-120 202.25,0 0,0"/>
</a>
</g>
</g>
</g>
</svg>
