<?xml version="1.0" encoding="UTF-8" standalone="no"?>
<!DOCTYPE svg PUBLIC "-//W3C//DTD SVG 1.1//EN"
 "http://www.w3.org/Graphics/SVG/1.1/DTD/svg11.dtd">
<!-- Generated by graphviz version 12.2.0 (20241103.1931)
 -->
<!-- Title: fr.softsf.sudokufx.utils.database.configuration.DataSource.logbackInitialization Pages: 1 -->
<svg width="631pt" height="70pt"
 viewBox="0.00 0.00 631.25 70.00" xmlns="http://www.w3.org/2000/svg" xmlns:xlink="http://www.w3.org/1999/xlink">
<g id="graph0" class="graph" transform="scale(1 1) rotate(0) translate(4 66)">
<title>fr.softsf.sudokufx.utils.database.configuration.DataSource.logbackInitialization</title>
<!-- Node1 -->
<g id="Node000001" class="node">
<title>Node1</title>
<g id="a_Node000001"><a xlink:title="Initializes Logback logging framework.">
<polygon fill="#999999" stroke="#666666" points="217.75,-38 0,-38 0,-6 217.75,-6 217.75,-38"/>
<text text-anchor="start" x="8" y="-24.5" font-family="Helvetica,sans-Serif" font-size="10.00">fr.softsf.sudokufx.utils.database.configuration.</text>
<text text-anchor="middle" x="108.88" y="-12.5" font-family="Helvetica,sans-Serif" font-size="10.00">DataSource.logbackInitialization</text>
</a>
</g>
</g>
<!-- Node2 -->
<g id="Node000002" class="node">
<title>Node2</title>
<g id="a_Node000002"><a xlink:href="classfr_1_1softsf_1_1sudokufx_1_1utils_1_1_my_logback.html#a9d9a6da723690c5a62719faf90766adb" target="_top" xlink:title="Prints the application&#39;s ASCII logo to the log as an entry message.">
<polygon fill="white" stroke="#666666" points="420.5,-38 253.75,-38 253.75,-6 420.5,-6 420.5,-38"/>
<text text-anchor="start" x="261.75" y="-24.5" font-family="Helvetica,sans-Serif" font-size="10.00">fr.softsf.sudokufx.utils.</text>
<text text-anchor="middle" x="337.12" y="-12.5" font-family="Helvetica,sans-Serif" font-size="10.00">MyLogback.printLogEntryMessage</text>
</a>
</g>
</g>
<!-- Node1&#45;&gt;Node2 -->
<g id="edge1_Node000001_Node000002" class="edge">
<title>Node1&#45;&gt;Node2</title>
<g id="a_edge1_Node000001_Node000002"><a xlink:title=" ">
<path fill="none" stroke="#63b8ff" d="M218.03,-22C226.05,-22 234.09,-22 242.01,-22"/>
<polygon fill="#63b8ff" stroke="#63b8ff" points="241.99,-25.5 251.99,-22 241.99,-18.5 241.99,-25.5"/>
</a>
</g>
</g>
<!-- Node3 -->
<g id="Node000003" class="node">
<title>Node3</title>
<g id="a_Node000003"><a xlink:href="classfr_1_1softsf_1_1sudokufx_1_1utils_1_1_j_v_m_application_properties.html#a7d07880db5617906582d43a95925ba8d" target="_top" xlink:title="Determines if the Spring context should exit on refresh.">
<polygon fill="white" stroke="#666666" points="623.25,-44 456.5,-44 456.5,0 623.25,0 623.25,-44"/>
<text text-anchor="start" x="464.5" y="-30.5" font-family="Helvetica,sans-Serif" font-size="10.00">fr.softsf.sudokufx.utils.</text>
<text text-anchor="start" x="464.5" y="-18.5" font-family="Helvetica,sans-Serif" font-size="10.00">JVMApplicationProperties.isSpring</text>
<text text-anchor="middle" x="539.88" y="-6.5" font-family="Helvetica,sans-Serif" font-size="10.00">ContextExitOnRefresh</text>
</a>
</g>
</g>
<!-- Node2&#45;&gt;Node3 -->
<g id="edge2_Node000002_Node000003" class="edge">
<title>Node2&#45;&gt;Node3</title>
<g id="a_edge2_Node000002_Node000003"><a xlink:title=" ">
<path fill="none" stroke="#63b8ff" d="M420.94,-22C428.87,-22 436.94,-22 444.97,-22"/>
<polygon fill="#63b8ff" stroke="#63b8ff" points="444.74,-25.5 454.74,-22 444.74,-18.5 444.74,-25.5"/>
</a>
</g>
</g>
<!-- Node3&#45;&gt;Node3 -->
<g id="edge3_Node000003_Node000003" class="edge">
<title>Node3&#45;&gt;Node3</title>
<g id="a_edge3_Node000003_Node000003"><a xlink:title=" ">
<path fill="none" stroke="#63b8ff" d="M502.31,-44.21C499.24,-53.8 511.76,-62 539.88,-62 556.57,-62 567.76,-59.11 573.46,-54.75"/>
<polygon fill="#63b8ff" stroke="#63b8ff" points="576.65,-56.22 576.9,-45.63 570.1,-53.75 576.65,-56.22"/>
</a>
</g>
</g>
</g>
</svg>
