<?xml version="1.0" encoding="UTF-8" standalone="no"?>
<!DOCTYPE svg PUBLIC "-//W3C//DTD SVG 1.1//EN"
 "http://www.w3.org/Graphics/SVG/1.1/DTD/svg11.dtd">
<!-- Generated by graphviz version 12.2.1 (20241206.2353)
 -->
<!-- Title: fr.softsf.sudokufx.service.VersionService.checkLatestVersion Pages: 1 -->
<svg width="596pt" height="165pt"
 viewBox="0.00 0.00 596.00 165.00" xmlns="http://www.w3.org/2000/svg" xmlns:xlink="http://www.w3.org/1999/xlink">
<g id="graph0" class="graph" transform="scale(1 1) rotate(0) translate(4 161)">
<title>fr.softsf.sudokufx.service.VersionService.checkLatestVersion</title>
<!-- Node1 -->
<g id="Node000001" class="node">
<title>Node1</title>
<g id="a_Node000001"><a xlink:title="Checks if the current application version is up&#45;to&#45;date by querying the GitHub API.">
<polygon fill="#999999" stroke="#666666" points="169.75,-107 0,-107 0,-75 169.75,-75 169.75,-107"/>
<text text-anchor="start" x="8" y="-93.5" font-family="Helvetica,sans-Serif" font-size="10.00">fr.softsf.sudokufx.service.</text>
<text text-anchor="middle" x="84.88" y="-81.5" font-family="Helvetica,sans-Serif" font-size="10.00">VersionService.checkLatestVersion</text>
</a>
</g>
</g>
<!-- Node2 -->
<g id="Node000002" class="node">
<title>Node2</title>
<g id="a_Node000002"><a xlink:href="classfr_1_1softsf_1_1sudokufx_1_1utils_1_1_my_date_time.html#abae0f89d793767dd24256fc660db8523" target="_top" xlink:title="Returns the current time formatted as &quot;HH:mm:ss&quot;.">
<polygon fill="white" stroke="#666666" points="392.75,-157 205.75,-157 205.75,-125 392.75,-125 392.75,-157"/>
<text text-anchor="start" x="213.75" y="-143.5" font-family="Helvetica,sans-Serif" font-size="10.00">fr.softsf.sudokufx.utils.</text>
<text text-anchor="middle" x="299.25" y="-131.5" font-family="Helvetica,sans-Serif" font-size="10.00">MyDateTime.getFormattedCurrentTime</text>
</a>
</g>
</g>
<!-- Node1&#45;&gt;Node2 -->
<g id="edge1_Node000001_Node000002" class="edge">
<title>Node1&#45;&gt;Node2</title>
<g id="a_edge1_Node000001_Node000002"><a xlink:title=" ">
<path fill="none" stroke="#63b8ff" d="M155.71,-107.44C175.4,-112.08 196.98,-117.16 217.26,-121.93"/>
<polygon fill="#63b8ff" stroke="#63b8ff" points="216.37,-125.32 226.9,-124.2 217.97,-118.5 216.37,-125.32"/>
</a>
</g>
</g>
<!-- Node3 -->
<g id="Node000003" class="node">
<title>Node3</title>
<g id="a_Node000003"><a xlink:href="classfr_1_1softsf_1_1sudokufx_1_1utils_1_1_i18n.html#a7095fa285a498c3f20bf33488a69d22c" target="_top" xlink:title="Retrieves the localized string value for a given key.">
<polygon fill="white" stroke="#666666" points="357.5,-107 241,-107 241,-75 357.5,-75 357.5,-107"/>
<text text-anchor="start" x="249" y="-93.5" font-family="Helvetica,sans-Serif" font-size="10.00">fr.softsf.sudokufx.utils.</text>
<text text-anchor="middle" x="299.25" y="-81.5" font-family="Helvetica,sans-Serif" font-size="10.00">I18n.getValue</text>
</a>
</g>
</g>
<!-- Node1&#45;&gt;Node3 -->
<g id="edge2_Node000001_Node000003" class="edge">
<title>Node1&#45;&gt;Node3</title>
<g id="a_edge2_Node000001_Node000003"><a xlink:title=" ">
<path fill="none" stroke="#63b8ff" d="M170.12,-91C189.68,-91 210.28,-91 229.11,-91"/>
<polygon fill="#63b8ff" stroke="#63b8ff" points="229.07,-94.5 239.07,-91 229.07,-87.5 229.07,-94.5"/>
</a>
</g>
</g>
<!-- Node4 -->
<g id="Node000004" class="node">
<title>Node4</title>
<g id="a_Node000004"><a xlink:href="classfr_1_1softsf_1_1sudokufx_1_1service_1_1_version_service.html#ac909ce26310a3c5b01262ad5f3affcbe" target="_top" xlink:title="Parses the JSON response from the GitHub API to extract the latest published version.">
<polygon fill="white" stroke="#666666" points="375.5,-57 223,-57 223,-25 375.5,-25 375.5,-57"/>
<text text-anchor="start" x="231" y="-43.5" font-family="Helvetica,sans-Serif" font-size="10.00">fr.softsf.sudokufx.service.</text>
<text text-anchor="middle" x="299.25" y="-31.5" font-family="Helvetica,sans-Serif" font-size="10.00">VersionService.parseResponse</text>
</a>
</g>
</g>
<!-- Node1&#45;&gt;Node4 -->
<g id="edge3_Node000001_Node000004" class="edge">
<title>Node1&#45;&gt;Node4</title>
<g id="a_edge3_Node000001_Node000004"><a xlink:title=" ">
<path fill="none" stroke="#63b8ff" d="M155.71,-74.56C175.4,-69.92 196.98,-64.84 217.26,-60.07"/>
<polygon fill="#63b8ff" stroke="#63b8ff" points="217.97,-63.5 226.9,-57.8 216.37,-56.68 217.97,-63.5"/>
</a>
</g>
</g>
<!-- Node5 -->
<g id="Node000005" class="node">
<title>Node5</title>
<g id="a_Node000005"><a xlink:href="classfr_1_1softsf_1_1sudokufx_1_1service_1_1_version_service.html#af166c049683464c03d118142b986ab71" target="_top" xlink:title="Compares two version strings in the format MAJOR.MINOR.PATCH (e.g., &quot;1.2.3&quot;).">
<polygon fill="white" stroke="#666666" points="588,-82 428.75,-82 428.75,-50 588,-50 588,-82"/>
<text text-anchor="start" x="436.75" y="-68.5" font-family="Helvetica,sans-Serif" font-size="10.00">fr.softsf.sudokufx.service.</text>
<text text-anchor="middle" x="508.38" y="-56.5" font-family="Helvetica,sans-Serif" font-size="10.00">VersionService.compareVersions</text>
</a>
</g>
</g>
<!-- Node4&#45;&gt;Node5 -->
<g id="edge4_Node000004_Node000005" class="edge">
<title>Node4&#45;&gt;Node5</title>
<g id="a_edge4_Node000004_Node000005"><a xlink:title=" ">
<path fill="none" stroke="#63b8ff" d="M375.91,-50.13C389.27,-51.74 403.3,-53.44 417.02,-55.09"/>
<polygon fill="#63b8ff" stroke="#63b8ff" points="416.59,-58.57 426.94,-56.29 417.43,-51.62 416.59,-58.57"/>
</a>
</g>
</g>
<!-- Node6 -->
<g id="Node000006" class="node">
<title>Node6</title>
<g id="a_Node000006"><a xlink:href="classfr_1_1softsf_1_1sudokufx_1_1utils_1_1_my_regex.html#a981702b076ee54a416d676b6f7a182fc" target="_top" xlink:title="Validates the given text against the specified regular expression.">
<polygon fill="white" stroke="#666666" points="582.75,-32 434,-32 434,0 582.75,0 582.75,-32"/>
<text text-anchor="start" x="442" y="-18.5" font-family="Helvetica,sans-Serif" font-size="10.00">fr.softsf.sudokufx.utils.</text>
<text text-anchor="middle" x="508.38" y="-6.5" font-family="Helvetica,sans-Serif" font-size="10.00">MyRegex.isValidatedByRegex</text>
</a>
</g>
</g>
<!-- Node4&#45;&gt;Node6 -->
<g id="edge5_Node000004_Node000006" class="edge">
<title>Node4&#45;&gt;Node6</title>
<g id="a_edge5_Node000004_Node000006"><a xlink:title=" ">
<path fill="none" stroke="#63b8ff" d="M375.91,-31.87C391.06,-30.04 407.08,-28.11 422.53,-26.24"/>
<polygon fill="#63b8ff" stroke="#63b8ff" points="422.64,-29.75 432.15,-25.08 421.8,-22.8 422.64,-29.75"/>
</a>
</g>
</g>
</g>
</svg>
