<?xml version="1.0" encoding="UTF-8" standalone="no"?>
<!DOCTYPE svg PUBLIC "-//W3C//DTD SVG 1.1//EN"
 "http://www.w3.org/Graphics/SVG/1.1/DTD/svg11.dtd">
<!-- Generated by graphviz version 12.2.1 (20241206.2353)
 -->
<!-- Title: fr.softsf.sudokufx.configuration.database.DataSourceConfig.flyway Pages: 1 -->
<svg width="438pt" height="58pt"
 viewBox="0.00 0.00 437.50 58.00" xmlns="http://www.w3.org/2000/svg" xmlns:xlink="http://www.w3.org/1999/xlink">
<g id="graph0" class="graph" transform="scale(1 1) rotate(0) translate(4 54)">
<title>fr.softsf.sudokufx.configuration.database.DataSourceConfig.flyway</title>
<!-- Node1 -->
<g id="Node000001" class="node">
<title>Node1</title>
<g id="a_Node000001"><a xlink:title="Configures Flyway with a specified location for migration scripts.">
<polygon fill="#999999" stroke="#666666" points="196.75,-32 0,-32 0,0 196.75,0 196.75,-32"/>
<text text-anchor="start" x="8" y="-18.5" font-family="Helvetica,sans-Serif" font-size="10.00">fr.softsf.sudokufx.configuration.database.</text>
<text text-anchor="middle" x="98.38" y="-6.5" font-family="Helvetica,sans-Serif" font-size="10.00">DataSourceConfig.flyway</text>
</a>
</g>
</g>
<!-- Node1&#45;&gt;Node1 -->
<g id="edge1_Node000001_Node000001" class="edge">
<title>Node1&#45;&gt;Node1</title>
<g id="a_edge1_Node000001_Node000001"><a xlink:title=" ">
<path fill="none" stroke="#63b8ff" d="M56.82,-32.44C49.07,-41.58 62.92,-50 98.38,-50 118.04,-50 131.06,-47.41 137.44,-43.54"/>
<polygon fill="#63b8ff" stroke="#63b8ff" points="140.82,-44.44 139.6,-33.92 133.99,-42.91 140.82,-44.44"/>
</a>
</g>
</g>
<!-- Node2 -->
<g id="Node000002" class="node">
<title>Node2</title>
<g id="a_Node000002"><a xlink:href="classfr_1_1softsf_1_1sudokufx_1_1configuration_1_1database_1_1_data_source_config.html#aeec3198d3b639d46c8bf715dc2e3581d" target="_top" xlink:title="Creates and configures the main DataSource for the application.">
<polygon fill="white" stroke="#666666" points="429.5,-32 232.75,-32 232.75,0 429.5,0 429.5,-32"/>
<text text-anchor="start" x="240.75" y="-18.5" font-family="Helvetica,sans-Serif" font-size="10.00">fr.softsf.sudokufx.configuration.database.</text>
<text text-anchor="middle" x="331.12" y="-6.5" font-family="Helvetica,sans-Serif" font-size="10.00">DataSourceConfig.hikariDataSource</text>
</a>
</g>
</g>
<!-- Node1&#45;&gt;Node2 -->
<g id="edge2_Node000001_Node000002" class="edge">
<title>Node1&#45;&gt;Node2</title>
<g id="a_edge2_Node000001_Node000002"><a xlink:title=" ">
<path fill="none" stroke="#63b8ff" d="M197.23,-16C205.17,-16 213.21,-16 221.21,-16"/>
<polygon fill="#63b8ff" stroke="#63b8ff" points="220.97,-19.5 230.97,-16 220.97,-12.5 220.97,-19.5"/>
</a>
</g>
</g>
</g>
</svg>
