<?xml version="1.0" encoding="UTF-8" standalone="no"?>
<!DOCTYPE svg PUBLIC "-//W3C//DTD SVG 1.1//EN"
 "http://www.w3.org/Graphics/SVG/1.1/DTD/svg11.dtd">
<!-- Generated by graphviz version 12.2.0 (20241103.1931)
 -->
<!-- Title: fr.softsf.sudofx2024.model.Software Pages: 1 -->
<svg width="135pt" height="216pt"
 viewBox="0.00 0.00 135.25 216.00" xmlns="http://www.w3.org/2000/svg" xmlns:xlink="http://www.w3.org/1999/xlink">
<g id="graph0" class="graph" transform="scale(1 1) rotate(0) translate(4 212)">
<title>fr.softsf.sudofx2024.model.Software</title>
<!-- Node1 -->
<g id="Node000001" class="node">
<title>Node1</title>
<g id="a_Node000001"><a xlink:title=" ">
<polygon fill="#999999" stroke="none" points="127.25,-96 0,-96 0,0 127.25,0 127.25,-96"/>
<text text-anchor="start" x="4" y="-82.5" font-family="Helvetica,sans-Serif" font-size="10.00">fr.softsf.sudofx2024.model.</text>
<text text-anchor="start" x="44.12" y="-70.5" font-family="Helvetica,sans-Serif" font-size="10.00">Software</text>
<text text-anchor="start" x="9.56" y="-54.5" font-family="Helvetica,sans-Serif" font-size="10.00">&#45;</text>
<text text-anchor="start" x="22.12" y="-54.5" font-family="Helvetica,sans-Serif" font-size="10.00">String currentversion</text>
<text text-anchor="start" x="9.56" y="-38.5" font-family="Helvetica,sans-Serif" font-size="10.00">&#45;</text>
<text text-anchor="start" x="22.12" y="-38.5" font-family="Helvetica,sans-Serif" font-size="10.00">String lastversion</text>
<text text-anchor="start" x="9.56" y="-22.5" font-family="Helvetica,sans-Serif" font-size="10.00">&#45;</text>
<text text-anchor="start" x="22.12" y="-22.5" font-family="Helvetica,sans-Serif" font-size="10.00">Long softwareid</text>
<text text-anchor="start" x="62.12" y="-6.5" font-family="Helvetica,sans-Serif" font-size="10.00"> </text>
<polygon fill="#666666" stroke="#666666" points="0,-66 0,-66 127.25,-66 127.25,-66 0,-66"/>
<polygon fill="#666666" stroke="#666666" points="0,-18 0,-18 20.12,-18 20.12,-18 0,-18"/>
<polygon fill="#666666" stroke="#666666" points="20.12,-18 20.12,-18 127.25,-18 127.25,-18 20.12,-18"/>
<polygon fill="none" stroke="#666666" points="0,0 0,-96 127.25,-96 127.25,0 0,0"/>
</a>
</g>
</g>
<!-- Node2 -->
<g id="Node000002" class="node">
<title>Node2</title>
<g id="a_Node000002"><a xlink:title=" ">
<polygon fill="white" stroke="none" points="100.62,-208 26.62,-208 26.62,-156 100.62,-156 100.62,-208"/>
<text text-anchor="start" x="30.62" y="-194.5" font-family="Helvetica,sans-Serif" font-size="10.00">LocalDateTime</text>
<text text-anchor="start" x="62.12" y="-178.5" font-family="Helvetica,sans-Serif" font-size="10.00"> </text>
<text text-anchor="start" x="62.12" y="-162.5" font-family="Helvetica,sans-Serif" font-size="10.00"> </text>
<polygon fill="#666666" stroke="#666666" points="26.62,-190 26.62,-190 100.62,-190 100.62,-190 26.62,-190"/>
<polygon fill="#666666" stroke="#666666" points="26.62,-174 26.62,-174 100.62,-174 100.62,-174 26.62,-174"/>
<polygon fill="none" stroke="#666666" points="26.62,-156 26.62,-208 100.62,-208 100.62,-156 26.62,-156"/>
</a>
</g>
</g>
<!-- Node2&#45;&gt;Node1 -->
<g id="edge1_Node000001_Node000002" class="edge">
<title>Node2&#45;&gt;Node1</title>
<g id="a_edge1_Node000001_Node000002"><a xlink:title=" ">
<path fill="none" stroke="#63b8ff" d="M63.62,-156.17C63.62,-142.66 63.62,-125.32 63.62,-108.54"/>
<polygon fill="none" stroke="#63b8ff" points="63.63,-108.8 59.63,-102.8 63.63,-96.8 67.63,-102.8 63.63,-108.8"/>
</a>
</g>
<text text-anchor="middle" x="86.88" y="-128.5" font-family="Helvetica,sans-Serif" font-size="10.00" fill="grey"> &#45;createdat</text>
<text text-anchor="middle" x="86.88" y="-116.5" font-family="Helvetica,sans-Serif" font-size="10.00" fill="grey">&#45;updatedat</text>
</g>
</g>
</svg>
