<?xml version="1.0" encoding="UTF-8" standalone="no"?>
<!DOCTYPE svg PUBLIC "-//W3C//DTD SVG 1.1//EN"
 "http://www.w3.org/Graphics/SVG/1.1/DTD/svg11.dtd">
<!-- Generated by graphviz version 12.2.0 (20241103.1931)
 -->
<!-- Title: fr.softsf.sudokufx.SudoMain Pages: 1 -->
<!--zoomable 776 -->

<svg id="main" version="1.1" xmlns="http://www.w3.org/2000/svg" xmlns:xlink="http://www.w3.org/1999/xlink" xml:space="preserve" onload="init(evt)">

<style type="text/css"><![CDATA[
.node, .edge {opacity: 0.7;}
.node.selected, .edge.selected {opacity: 1;}
.edge:hover path { stroke: red; }
.edge:hover polygon { stroke: red; fill: red; }
]]></style>

<defs>
  <circle id="rim" cx="0" cy="0" r="7"/>
  <circle id="rim2" cx="0" cy="0" r="3.5"/>
  <g id="zoomPlus">
    <use xlink:href="#rim" fill="#404040"><set attributeName="fill" to="#808080" begin="zoomplus.mouseover" end="zoomplus.mouseout"/></use>
    <path d="M-4,0h8M0,-4v8" fill="none" stroke="white" stroke-width="1.5" pointer-events="none"/>
  </g>
  <g id="zoomMin">
    <use xlink:href="#rim" fill="#404040"><set attributeName="fill" to="#808080" begin="zoomminus.mouseover" end="zoomminus.mouseout"/></use>
    <path d="M-4,0h8" fill="none" stroke="white" stroke-width="1.5" pointer-events="none"/>
  </g>
  <g id="arrowUp" transform="translate(30 24)">
    <use xlink:href="#rim"/>
    <path pointer-events="none" fill="none" stroke="white" stroke-width="1.5" d="M0,-3.0v7 M-2.5,-0.5L0,-3.0L2.5,-0.5"/>
  </g>
  <g id="arrowRight" transform="rotate(90) translate(36 -43)">
    <use xlink:href="#rim"/>
    <path pointer-events="none" fill="none" stroke="white" stroke-width="1.5" d="M0,-3.0v7 M-2.5,-0.5L0,-3.0L2.5,-0.5"/>
  </g>
  <g id="arrowDown" transform="rotate(180) translate(-30 -48)">
    <use xlink:href="#rim"/>
    <path pointer-events="none" fill="none" stroke="white" stroke-width="1.5" d="M0,-3.0v7 M-2.5,-0.5L0,-3.0L2.5,-0.5"/>
  </g>
  <g id="arrowLeft" transform="rotate(270) translate(-36 17)">
    <use xlink:href="#rim"/>
    <path pointer-events="none" fill="none" stroke="white" stroke-width="1.5" d="M0,-3.0v7 M-2.5,-0.5L0,-3.0L2.5,-0.5"/>
  </g>
  <g id="resetDef">
    <use xlink:href="#rim2" fill="#404040"><set attributeName="fill" to="#808080" begin="reset.mouseover" end="reset.mouseout"/></use>
  </g>
</defs>
<script type="application/ecmascript">
var viewWidth = 718;
var viewHeight = 776;
var sectionId = 'dynsection-1';
</script>
<script type="application/ecmascript" xlink:href="svg.min.js"/>
<svg id="graph" class="graph">
<g id="viewport">
<title>fr.softsf.sudokufx.SudoMain</title>
<!-- Node1 -->
<g id="Node000001" class="node">
<title>Node1</title>
<g id="a_Node000001"><a xlink:title="The application main class.">
<polygon fill="#999999" stroke="none" points="383.88,-300 200.12,-300 200.12,0 383.88,0 383.88,-300"/>
<text text-anchor="start" x="230.5" y="-286.5" font-family="Helvetica,sans-Serif" font-size="10.00">fr.softsf.sudokufx.SudoMain</text>
<text text-anchor="start" x="290.5" y="-270.5" font-family="Helvetica,sans-Serif" font-size="10.00"> </text>
<text text-anchor="start" x="204.12" y="-254.5" font-family="Helvetica,sans-Serif" font-size="10.00">+</text>
<text text-anchor="start" x="214.12" y="-254.5" font-family="Helvetica,sans-Serif" font-size="10.00">void start(final Stage</text>
<text text-anchor="start" x="214.12" y="-242.5" font-family="Helvetica,sans-Serif" font-size="10.00"> splashScreenStage)</text>
<text text-anchor="start" x="204.12" y="-226.5" font-family="Helvetica,sans-Serif" font-size="10.00">+</text>
<text text-anchor="start" x="214.12" y="-226.5" font-family="Helvetica,sans-Serif" font-size="10.00">static void main(String</text>
<text text-anchor="start" x="214.12" y="-214.5" font-family="Helvetica,sans-Serif" font-size="10.00">[] args)</text>
<text text-anchor="start" x="205.62" y="-198.5" font-family="Helvetica,sans-Serif" font-size="10.00">&#45;</text>
<text text-anchor="start" x="214.12" y="-198.5" font-family="Helvetica,sans-Serif" font-size="10.00">Task&lt; Void &gt; createSpring</text>
<text text-anchor="start" x="214.12" y="-186.5" font-family="Helvetica,sans-Serif" font-size="10.00">ContextTask()</text>
<text text-anchor="start" x="205.62" y="-170.5" font-family="Helvetica,sans-Serif" font-size="10.00">&#45;</text>
<text text-anchor="start" x="214.12" y="-170.5" font-family="Helvetica,sans-Serif" font-size="10.00">PauseTransition getPause</text>
<text text-anchor="start" x="214.12" y="-158.5" font-family="Helvetica,sans-Serif" font-size="10.00">Transition(String fxmlName,</text>
<text text-anchor="start" x="214.12" y="-146.5" font-family="Helvetica,sans-Serif" font-size="10.00"> long minimumTimelapse)</text>
<text text-anchor="start" x="205.62" y="-130.5" font-family="Helvetica,sans-Serif" font-size="10.00">&#45;</text>
<text text-anchor="start" x="214.12" y="-130.5" font-family="Helvetica,sans-Serif" font-size="10.00">void handleSpringContext</text>
<text text-anchor="start" x="214.12" y="-118.5" font-family="Helvetica,sans-Serif" font-size="10.00">TaskFailed(Throwable throwable)</text>
<text text-anchor="start" x="205.62" y="-102.5" font-family="Helvetica,sans-Serif" font-size="10.00">&#45;</text>
<text text-anchor="start" x="214.12" y="-102.5" font-family="Helvetica,sans-Serif" font-size="10.00">void handleSpringContext</text>
<text text-anchor="start" x="214.12" y="-90.5" font-family="Helvetica,sans-Serif" font-size="10.00">TaskSuccess(long startTime)</text>
<text text-anchor="start" x="205.62" y="-74.5" font-family="Helvetica,sans-Serif" font-size="10.00">&#45;</text>
<text text-anchor="start" x="214.12" y="-74.5" font-family="Helvetica,sans-Serif" font-size="10.00">void initializeFxmlService()</text>
<text text-anchor="start" x="205.62" y="-58.5" font-family="Helvetica,sans-Serif" font-size="10.00">&#45;</text>
<text text-anchor="start" x="214.12" y="-58.5" font-family="Helvetica,sans-Serif" font-size="10.00">static void initScene</text>
<text text-anchor="start" x="214.12" y="-46.5" font-family="Helvetica,sans-Serif" font-size="10.00">(Stage splashScreenStage)</text>
<text text-anchor="start" x="205.62" y="-30.5" font-family="Helvetica,sans-Serif" font-size="10.00">&#45;</text>
<text text-anchor="start" x="214.12" y="-30.5" font-family="Helvetica,sans-Serif" font-size="10.00">static void sqlInvalidAuthorization</text>
<text text-anchor="start" x="214.12" y="-18.5" font-family="Helvetica,sans-Serif" font-size="10.00">(Exception e, SQLInvalidAuthorization</text>
<text text-anchor="start" x="214.12" y="-6.5" font-family="Helvetica,sans-Serif" font-size="10.00">SpecException sqlException)</text>
<polygon fill="#666666" stroke="#666666" points="200.12,-282 200.12,-282 383.88,-282 383.88,-282 200.12,-282"/>
<polygon fill="#666666" stroke="#666666" points="200.12,-266 200.12,-266 383.88,-266 383.88,-266 200.12,-266"/>
<polygon fill="none" stroke="#666666" points="200.12,0 200.12,-300 383.88,-300 383.88,0 200.12,0"/>
</a>
</g>
</g>
<!-- Node2 -->
<g id="Node000002" class="node">
<title>Node2</title>
<g id="a_Node000002"><a xlink:title=" ">
<polygon fill="white" stroke="none" points="56,-442 0,-442 0,-390 56,-390 56,-442"/>
<text text-anchor="start" x="4" y="-428.5" font-family="Helvetica,sans-Serif" font-size="10.00">Application</text>
<text text-anchor="start" x="26.5" y="-412.5" font-family="Helvetica,sans-Serif" font-size="10.00"> </text>
<text text-anchor="start" x="26.5" y="-396.5" font-family="Helvetica,sans-Serif" font-size="10.00"> </text>
<polygon fill="#666666" stroke="#666666" points="0,-424 0,-424 56,-424 56,-424 0,-424"/>
<polygon fill="#666666" stroke="#666666" points="0,-408 0,-408 56,-408 56,-408 0,-408"/>
<polygon fill="none" stroke="#666666" points="0,-390 0,-442 56,-442 56,-390 0,-390"/>
</a>
</g>
</g>
<!-- Node2&#45;&gt;Node1 -->
<g id="edge1_Node000001_Node000002" class="edge">
<title>Node2&#45;&gt;Node1</title>
<g id="a_edge1_Node000001_Node000002"><a xlink:title=" ">
<path fill="none" stroke="#63b8ff" d="M38.52,-379.13C45.39,-359.72 55.76,-336.08 70,-318 105.66,-272.73 156.41,-233.33 200.38,-204.19"/>
<polygon fill="none" stroke="#63b8ff" points="35.22,-377.97 35.36,-388.57 41.86,-380.2 35.22,-377.97"/>
</a>
</g>
</g>
<!-- Node3 -->
<g id="Node000003" class="node">
<title>Node3</title>
<g id="a_Node000003"><a xlink:title=" ">
<polygon fill="white" stroke="none" points="147.88,-762 112.12,-762 112.12,-710 147.88,-710 147.88,-762"/>
<text text-anchor="start" x="116.12" y="-748.5" font-family="Helvetica,sans-Serif" font-size="10.00">Scene</text>
<text text-anchor="start" x="128.5" y="-732.5" font-family="Helvetica,sans-Serif" font-size="10.00"> </text>
<text text-anchor="start" x="128.5" y="-716.5" font-family="Helvetica,sans-Serif" font-size="10.00"> </text>
<polygon fill="#666666" stroke="#666666" points="112.12,-744 112.12,-744 147.88,-744 147.88,-744 112.12,-744"/>
<polygon fill="#666666" stroke="#666666" points="112.12,-728 112.12,-728 147.88,-728 147.88,-728 112.12,-728"/>
<polygon fill="none" stroke="#666666" points="112.12,-710 112.12,-762 147.88,-762 147.88,-710 112.12,-710"/>
</a>
</g>
</g>
<!-- Node3&#45;&gt;Node1 -->
<g id="edge2_Node000001_Node000003" class="edge">
<title>Node3&#45;&gt;Node1</title>
<g id="a_edge2_Node000001_Node000003"><a xlink:title=" ">
<path fill="none" stroke="#63b8ff" d="M123.6,-710.1C108.59,-646.54 76.36,-474.43 131,-348 145.88,-313.58 168.6,-280.32 192.32,-251.24"/>
<polygon fill="none" stroke="#63b8ff" points="192.14,-251.45 192.9,-244.28 199.81,-242.23 199.05,-249.4 192.14,-251.45"/>
</a>
</g>
<text text-anchor="middle" x="116.71" y="-504.5" font-family="Helvetica,sans-Serif" font-size="10.00" fill="grey"> &#45;scene</text>
</g>
<!-- Node7 -->
<g id="Node000007" class="node">
<title>Node7</title>
<g id="a_Node000007"><a xlink:href="classfr_1_1softsf_1_1sudokufx_1_1service_1_1_fxml_service.html" target="_top" xlink:title="FxmlService is a Spring service that manages the loading of FXML files and updating the root of the J...">
<polygon fill="white" stroke="none" points="279.75,-484 140.25,-484 140.25,-348 279.75,-348 279.75,-484"/>
<text text-anchor="start" x="153" y="-470.5" font-family="Helvetica,sans-Serif" font-size="10.00">fr.softsf.sudokufx.service.</text>
<text text-anchor="start" x="182.62" y="-458.5" font-family="Helvetica,sans-Serif" font-size="10.00">FxmlService</text>
<text text-anchor="start" x="208.5" y="-442.5" font-family="Helvetica,sans-Serif" font-size="10.00"> </text>
<text text-anchor="start" x="144.25" y="-426.5" font-family="Helvetica,sans-Serif" font-size="10.00">+</text>
<text text-anchor="start" x="154.25" y="-426.5" font-family="Helvetica,sans-Serif" font-size="10.00">FxmlService(FXMLLoader</text>
<text text-anchor="start" x="154.25" y="-414.5" font-family="Helvetica,sans-Serif" font-size="10.00"> fxmlLoader)</text>
<text text-anchor="start" x="144.25" y="-398.5" font-family="Helvetica,sans-Serif" font-size="10.00">+</text>
<text text-anchor="start" x="154.25" y="-398.5" font-family="Helvetica,sans-Serif" font-size="10.00">void setDynamicFontSize()</text>
<text text-anchor="start" x="144.25" y="-382.5" font-family="Helvetica,sans-Serif" font-size="10.00">+</text>
<text text-anchor="start" x="154.25" y="-382.5" font-family="Helvetica,sans-Serif" font-size="10.00">void setRootByFXMLName</text>
<text text-anchor="start" x="154.25" y="-370.5" font-family="Helvetica,sans-Serif" font-size="10.00">(final String fxml)</text>
<text text-anchor="start" x="144.25" y="-354.5" font-family="Helvetica,sans-Serif" font-size="10.00">~</text>
<text text-anchor="start" x="154.25" y="-354.5" font-family="Helvetica,sans-Serif" font-size="10.00">public&lt; T &gt; T getController()</text>
<polygon fill="#666666" stroke="#666666" points="140.25,-454 140.25,-454 279.75,-454 279.75,-454 140.25,-454"/>
<polygon fill="#666666" stroke="#666666" points="140.25,-438 140.25,-438 279.75,-438 279.75,-438 140.25,-438"/>
<polygon fill="none" stroke="#666666" points="140.25,-348 140.25,-484 279.75,-484 279.75,-348 140.25,-348"/>
</a>
</g>
</g>
<!-- Node3&#45;&gt;Node7 -->
<g id="edge8_Node000007_Node000003" class="edge">
<title>Node3&#45;&gt;Node7</title>
<g id="a_edge8_Node000007_Node000003"><a xlink:title=" ">
<path fill="none" stroke="#63b8ff" d="M127.33,-710.27C123.97,-671.35 120.73,-593.89 139.75,-532 143.58,-519.54 149.07,-507.06 155.31,-495.16"/>
<polygon fill="none" stroke="#63b8ff" points="155.27,-495.24 154.66,-488.05 161.06,-484.73 161.67,-491.92 155.27,-495.24"/>
</a>
</g>
<text text-anchor="middle" x="155.88" y="-590.5" font-family="Helvetica,sans-Serif" font-size="10.00" fill="grey"> &#45;scene</text>
</g>
<!-- Node10 -->
<g id="Node000010" class="node">
<title>Node10</title>
<g id="a_Node000010"><a xlink:href="classfr_1_1softsf_1_1sudokufx_1_1utils_1_1_dynamic_font_size.html" target="_top" xlink:title="Manages dynamic font sizing based on the dimensions of a JavaFX Scene.">
<polygon fill="white" stroke="none" points="307.38,-656 180.62,-656 180.62,-532 307.38,-532 307.38,-656"/>
<text text-anchor="start" x="193.75" y="-642.5" font-family="Helvetica,sans-Serif" font-size="10.00">fr.softsf.sudokufx.utils.</text>
<text text-anchor="start" x="205" y="-630.5" font-family="Helvetica,sans-Serif" font-size="10.00">DynamicFontSize</text>
<text text-anchor="start" x="186.12" y="-614.5" font-family="Helvetica,sans-Serif" font-size="10.00">&#45;</text>
<text text-anchor="start" x="194.62" y="-614.5" font-family="Helvetica,sans-Serif" font-size="10.00">double currentFontSize</text>
<text text-anchor="start" x="184.62" y="-598.5" font-family="Helvetica,sans-Serif" font-size="10.00">+</text>
<text text-anchor="start" x="194.62" y="-598.5" font-family="Helvetica,sans-Serif" font-size="10.00">DynamicFontSize()</text>
<text text-anchor="start" x="184.62" y="-582.5" font-family="Helvetica,sans-Serif" font-size="10.00">+</text>
<text text-anchor="start" x="194.62" y="-582.5" font-family="Helvetica,sans-Serif" font-size="10.00">void updateFontSize()</text>
<text text-anchor="start" x="184.62" y="-566.5" font-family="Helvetica,sans-Serif" font-size="10.00">~</text>
<text text-anchor="start" x="194.62" y="-566.5" font-family="Helvetica,sans-Serif" font-size="10.00">DynamicFontSize(Scene</text>
<text text-anchor="start" x="194.62" y="-554.5" font-family="Helvetica,sans-Serif" font-size="10.00"> scene)</text>
<text text-anchor="start" x="186.12" y="-538.5" font-family="Helvetica,sans-Serif" font-size="10.00">&#45;</text>
<text text-anchor="start" x="194.62" y="-538.5" font-family="Helvetica,sans-Serif" font-size="10.00">void initialize()</text>
<polygon fill="#666666" stroke="#666666" points="180.62,-626 180.62,-626 307.38,-626 307.38,-626 180.62,-626"/>
<polygon fill="#666666" stroke="#666666" points="180.62,-610 180.62,-610 192.62,-610 192.62,-610 180.62,-610"/>
<polygon fill="#666666" stroke="#666666" points="192.62,-610 192.62,-610 307.38,-610 307.38,-610 192.62,-610"/>
<polygon fill="none" stroke="#666666" points="180.62,-532 180.62,-656 307.38,-656 307.38,-532 180.62,-532"/>
</a>
</g>
</g>
<!-- Node3&#45;&gt;Node10 -->
<g id="edge12_Node000010_Node000003" class="edge">
<title>Node3&#45;&gt;Node10</title>
<g id="a_edge12_Node000010_Node000003"><a xlink:title=" ">
<path fill="none" stroke="#63b8ff" d="M147.81,-713.12C158.28,-700.27 172.17,-683.21 186.13,-666.07"/>
<polygon fill="none" stroke="#63b8ff" points="186.18,-666 186.87,-658.82 193.76,-656.7 193.07,-663.88 186.18,-666"/>
</a>
</g>
<text text-anchor="middle" x="192.91" y="-676.5" font-family="Helvetica,sans-Serif" font-size="10.00" fill="grey"> &#45;scene</text>
</g>
<!-- Node4 -->
<g id="Node000004" class="node">
<title>Node4</title>
<g id="a_Node000004"><a xlink:title=" ">
<polygon fill="white" stroke="none" points="368.12,-442 297.88,-442 297.88,-390 368.12,-390 368.12,-442"/>
<text text-anchor="start" x="301.88" y="-428.5" font-family="Helvetica,sans-Serif" font-size="10.00">SpringContext</text>
<text text-anchor="start" x="331.5" y="-412.5" font-family="Helvetica,sans-Serif" font-size="10.00"> </text>
<text text-anchor="start" x="331.5" y="-396.5" font-family="Helvetica,sans-Serif" font-size="10.00"> </text>
<polygon fill="#666666" stroke="#666666" points="297.88,-424 297.88,-424 368.12,-424 368.12,-424 297.88,-424"/>
<polygon fill="#666666" stroke="#666666" points="297.88,-408 297.88,-408 368.12,-408 368.12,-408 297.88,-408"/>
<polygon fill="none" stroke="#666666" points="297.88,-390 297.88,-442 368.12,-442 368.12,-390 297.88,-390"/>
</a>
</g>
</g>
<!-- Node4&#45;&gt;Node1 -->
<g id="edge3_Node000001_Node000004" class="edge">
<title>Node4&#45;&gt;Node1</title>
<g id="a_edge3_Node000001_Node000004"><a xlink:title=" ">
<path fill="none" stroke="#63b8ff" d="M329.14,-390.16C326.18,-371.1 321.81,-342.97 317.1,-312.63"/>
<polygon fill="none" stroke="#63b8ff" points="317.12,-312.74 312.24,-307.42 315.28,-300.88 320.15,-306.19 317.12,-312.74"/>
</a>
</g>
<text text-anchor="middle" x="338.86" y="-320.5" font-family="Helvetica,sans-Serif" font-size="10.00" fill="grey"> &#45;context</text>
</g>
<!-- Node5 -->
<g id="Node000005" class="node">
<title>Node5</title>
<g id="a_Node000005"><a xlink:href="interfacefr_1_1softsf_1_1sudokufx_1_1interfaces_1_1_i_splash_screen_view.html" target="_top" xlink:title="Interface defining methods to hide or show the splash screen.">
<polygon fill="white" stroke="none" points="519.62,-456 386.38,-456 386.38,-376 519.62,-376 519.62,-456"/>
<text text-anchor="start" x="390.38" y="-442.5" font-family="Helvetica,sans-Serif" font-size="10.00">fr.softsf.sudokufx.interfaces.</text>
<text text-anchor="start" x="410.25" y="-430.5" font-family="Helvetica,sans-Serif" font-size="10.00">ISplashScreenView</text>
<text text-anchor="start" x="451.5" y="-414.5" font-family="Helvetica,sans-Serif" font-size="10.00"> </text>
<text text-anchor="start" x="391.44" y="-398.5" font-family="Helvetica,sans-Serif" font-size="10.00">+</text>
<text text-anchor="start" x="402.5" y="-398.5" font-family="Helvetica,sans-Serif" font-size="10.00">void hideSplashScreen()</text>
<text text-anchor="start" x="391.44" y="-382.5" font-family="Helvetica,sans-Serif" font-size="10.00">+</text>
<text text-anchor="start" x="402.5" y="-382.5" font-family="Helvetica,sans-Serif" font-size="10.00">void showSplashScreen()</text>
<polygon fill="#666666" stroke="#666666" points="386.38,-426 386.38,-426 519.62,-426 519.62,-426 386.38,-426"/>
<polygon fill="#666666" stroke="#666666" points="386.38,-410 386.38,-410 519.62,-410 519.62,-410 386.38,-410"/>
<polygon fill="none" stroke="#666666" points="386.38,-376 386.38,-456 519.62,-456 519.62,-376 386.38,-376"/>
</a>
</g>
</g>
<!-- Node5&#45;&gt;Node1 -->
<g id="edge4_Node000001_Node000005" class="edge">
<title>Node5&#45;&gt;Node1</title>
<g id="a_edge4_Node000001_Node000005"><a xlink:title=" ">
<path fill="none" stroke="#63b8ff" d="M429.24,-376.05C418.16,-357.87 404.15,-334.9 389.35,-310.62"/>
<polygon fill="none" stroke="#63b8ff" points="389.45,-310.79 382.91,-307.75 383.2,-300.54 389.74,-303.58 389.45,-310.79"/>
</a>
</g>
<text text-anchor="middle" x="445.55" y="-320.5" font-family="Helvetica,sans-Serif" font-size="10.00" fill="grey"> &#45;isplashScreenView</text>
</g>
<!-- Node6 -->
<g id="Node000006" class="node">
<title>Node6</title>
<g id="a_Node000006"><a xlink:href="interfacefr_1_1softsf_1_1sudokufx_1_1interfaces_1_1_i_main_stage_view.html" target="_top" xlink:title="Interface defining method to open the main stage.">
<polygon fill="white" stroke="none" points="710.25,-460 537.75,-460 537.75,-372 710.25,-372 710.25,-460"/>
<text text-anchor="start" x="561.38" y="-446.5" font-family="Helvetica,sans-Serif" font-size="10.00">fr.softsf.sudokufx.interfaces.</text>
<text text-anchor="start" x="588.38" y="-434.5" font-family="Helvetica,sans-Serif" font-size="10.00">IMainStageView</text>
<text text-anchor="start" x="622.5" y="-418.5" font-family="Helvetica,sans-Serif" font-size="10.00"> </text>
<text text-anchor="start" x="541.75" y="-402.5" font-family="Helvetica,sans-Serif" font-size="10.00">+</text>
<text text-anchor="start" x="551.75" y="-402.5" font-family="Helvetica,sans-Serif" font-size="10.00">void openingMainStage</text>
<text text-anchor="start" x="551.75" y="-390.5" font-family="Helvetica,sans-Serif" font-size="10.00">(ISplashScreenView iSplashScreen</text>
<text text-anchor="start" x="551.75" y="-378.5" font-family="Helvetica,sans-Serif" font-size="10.00">View)</text>
<polygon fill="#666666" stroke="#666666" points="537.75,-430 537.75,-430 710.25,-430 710.25,-430 537.75,-430"/>
<polygon fill="#666666" stroke="#666666" points="537.75,-414 537.75,-414 710.25,-414 710.25,-414 537.75,-414"/>
<polygon fill="none" stroke="#666666" points="537.75,-372 537.75,-460 710.25,-460 710.25,-372 537.75,-372"/>
</a>
</g>
</g>
<!-- Node6&#45;&gt;Node1 -->
<g id="edge5_Node000001_Node000006" class="edge">
<title>Node6&#45;&gt;Node1</title>
<g id="a_edge5_Node000001_Node000006"><a xlink:title=" ">
<path fill="none" stroke="#63b8ff" d="M570.29,-372.29C522.67,-334.42 451.84,-278.1 393.55,-231.75"/>
<polygon fill="none" stroke="#63b8ff" points="393.67,-231.84 386.48,-231.24 384.27,-224.37 391.46,-224.98 393.67,-231.84"/>
</a>
</g>
<text text-anchor="middle" x="554.86" y="-320.5" font-family="Helvetica,sans-Serif" font-size="10.00" fill="grey"> &#45;iMainStageView</text>
</g>
<!-- Node7&#45;&gt;Node1 -->
<g id="edge6_Node000001_Node000007" class="edge">
<title>Node7&#45;&gt;Node1</title>
<g id="a_edge6_Node000001_Node000007"><a xlink:title=" ">
<path fill="none" stroke="#63b8ff" d="M230.8,-348.04C234.32,-336.7 238.11,-324.5 242.01,-311.93"/>
<polygon fill="none" stroke="#63b8ff" points="241.96,-312.1 239.92,-305.19 245.52,-300.64 247.56,-307.56 241.96,-312.1"/>
</a>
</g>
<text text-anchor="middle" x="267.74" y="-320.5" font-family="Helvetica,sans-Serif" font-size="10.00" fill="grey"> &#45;fxmlService</text>
</g>
<!-- Node8 -->
<g id="Node000008" class="node">
<title>Node8</title>
<g id="a_Node000008"><a xlink:href="interfacefr_1_1softsf_1_1sudokufx_1_1interfaces_1_1_i_scene_provider.html" target="_top" xlink:title="Interface ISceneProvider.">
<polygon fill="white" stroke="none" points="378.62,-768 245.38,-768 245.38,-704 378.62,-704 378.62,-768"/>
<text text-anchor="start" x="249.38" y="-754.5" font-family="Helvetica,sans-Serif" font-size="10.00">fr.softsf.sudokufx.interfaces.</text>
<text text-anchor="start" x="278.62" y="-742.5" font-family="Helvetica,sans-Serif" font-size="10.00">ISceneProvider</text>
<text text-anchor="start" x="310.5" y="-726.5" font-family="Helvetica,sans-Serif" font-size="10.00"> </text>
<text text-anchor="start" x="250.62" y="-710.5" font-family="Helvetica,sans-Serif" font-size="10.00">+</text>
<text text-anchor="start" x="261.88" y="-710.5" font-family="Helvetica,sans-Serif" font-size="10.00">default Scene getScene()</text>
<polygon fill="#666666" stroke="#666666" points="245.38,-738 245.38,-738 378.62,-738 378.62,-738 245.38,-738"/>
<polygon fill="#666666" stroke="#666666" points="245.38,-722 245.38,-722 378.62,-722 378.62,-722 245.38,-722"/>
<polygon fill="none" stroke="#666666" points="245.38,-704 245.38,-768 378.62,-768 378.62,-704 245.38,-704"/>
</a>
</g>
</g>
<!-- Node8&#45;&gt;Node7 -->
<g id="edge7_Node000007_Node000008" class="edge">
<title>Node8&#45;&gt;Node7</title>
<g id="a_edge7_Node000007_Node000008"><a xlink:title=" ">
<path fill="none" stroke="#63b8ff" d="M324.04,-693.23C335.68,-644.13 347.17,-561.76 314,-502 307.36,-490.03 299.78,-492.43 289,-484 285.88,-481.56 282.72,-479.05 279.54,-476.49"/>
<polygon fill="none" stroke="#63b8ff" points="320.65,-692.35 321.63,-702.9 327.44,-694.05 320.65,-692.35"/>
</a>
</g>
</g>
<!-- Node8&#45;&gt;Node10 -->
<g id="edge11_Node000010_Node000008" class="edge">
<title>Node8&#45;&gt;Node10</title>
<g id="a_edge11_Node000010_Node000008"><a xlink:title=" ">
<path fill="none" stroke="#63b8ff" d="M292.16,-694.14C286.33,-682.16 279.84,-668.78 273.55,-655.83"/>
<polygon fill="none" stroke="#63b8ff" points="288.9,-695.45 296.42,-702.91 295.2,-692.39 288.9,-695.45"/>
</a>
</g>
</g>
<!-- Node9 -->
<g id="Node000009" class="node">
<title>Node9</title>
<g id="a_Node000009"><a xlink:title=" ">
<polygon fill="white" stroke="none" points="426.75,-620 363.25,-620 363.25,-568 426.75,-568 426.75,-620"/>
<text text-anchor="start" x="367.25" y="-606.5" font-family="Helvetica,sans-Serif" font-size="10.00">FXMLLoader</text>
<text text-anchor="start" x="393.5" y="-590.5" font-family="Helvetica,sans-Serif" font-size="10.00"> </text>
<text text-anchor="start" x="393.5" y="-574.5" font-family="Helvetica,sans-Serif" font-size="10.00"> </text>
<polygon fill="#666666" stroke="#666666" points="363.25,-602 363.25,-602 426.75,-602 426.75,-602 363.25,-602"/>
<polygon fill="#666666" stroke="#666666" points="363.25,-586 363.25,-586 426.75,-586 426.75,-586 363.25,-586"/>
<polygon fill="none" stroke="#666666" points="363.25,-568 363.25,-620 426.75,-620 426.75,-568 363.25,-568"/>
</a>
</g>
</g>
<!-- Node9&#45;&gt;Node7 -->
<g id="edge9_Node000007_Node000009" class="edge">
<title>Node9&#45;&gt;Node7</title>
<g id="a_edge9_Node000007_Node000009"><a xlink:title=" ">
<path fill="none" stroke="#63b8ff" d="M388.48,-568.29C381.82,-547.74 369.49,-519.16 349,-502 330.24,-486.29 317.01,-494.55 291.06,-484"/>
<polygon fill="none" stroke="#63b8ff" points="291.19,-484.07 284.05,-485.06 280.38,-478.85 287.52,-477.86 291.19,-484.07"/>
</a>
</g>
<text text-anchor="middle" x="387.51" y="-504.5" font-family="Helvetica,sans-Serif" font-size="10.00" fill="grey"> &#45;fxmlLoader</text>
</g>
<!-- Node10&#45;&gt;Node7 -->
<g id="edge10_Node000007_Node000010" class="edge">
<title>Node10&#45;&gt;Node7</title>
<g id="a_edge10_Node000007_Node000010"><a xlink:title=" ">
<path fill="none" stroke="#63b8ff" d="M232.3,-532.43C230.05,-520.77 227.66,-508.4 225.31,-496.25"/>
<polygon fill="none" stroke="#63b8ff" points="225.33,-496.37 220.27,-491.24 223.06,-484.59 228.12,-489.72 225.33,-496.37"/>
</a>
</g>
<text text-anchor="middle" x="268.89" y="-504.5" font-family="Helvetica,sans-Serif" font-size="10.00" fill="grey"> &#45;dynamicFontSize</text>
</g>
</g>
</svg>

<g id="navigator" transform="translate(0 0)" fill="#404254">
  <rect fill="#f2f5e9" fill-opacity="0.5" stroke="#606060" stroke-width=".5" x="0" y="0" width="60" height="60"/>
  <use id="zoomplus" xlink:href="#zoomPlus" x="17" y="9" onmousedown="handleZoom(evt,'in')"/>
  <use id="zoomminus" xlink:href="#zoomMin" x="42" y="9" onmousedown="handleZoom(evt,'out')"/>
  <use id="reset" xlink:href="#resetDef" x="30" y="36" onmousedown="handleReset()"/>
   <use id="arrowup" xlink:href="#arrowUp" x="0" y="0" onmousedown="handlePan(0,-1)"/>
  <use id="arrowright" xlink:href="#arrowRight" x="0" y="0" onmousedown="handlePan(1,0)"/>
  <use id="arrowdown" xlink:href="#arrowDown" x="0" y="0" onmousedown="handlePan(0,1)"/>
  <use id="arrowleft" xlink:href="#arrowLeft" x="0" y="0" onmousedown="handlePan(-1,0)"/>
</g>
<svg viewBox="0 0 15 15" width="100%" height="30px" preserveAspectRatio="xMaxYMin meet">
 <g id="arrow_out" transform="scale(0.3 0.3)">
  <a xlink:href="classfr_1_1softsf_1_1sudokufx_1_1_sudo_main__coll__graph_org.svg" target="_base">
   <rect id="button" ry="5" rx="5" y="6" x="6" height="38" width="38"
        fill="#f2f5e9" fill-opacity="0.5" stroke="#606060" stroke-width="1.0"/>
   <path id="arrow"
     d="M 11.500037,31.436501 C 11.940474,20.09759 22.043105,11.32322 32.158766,21.979434 L 37.068811,17.246167 C 37.068811,17.246167 37.088388,32 37.088388,32 L 22.160133,31.978069 C 22.160133,31.978069 26.997745,27.140456 26.997745,27.140456 C 18.528582,18.264221 13.291696,25.230495 11.500037,31.436501 z"
     style="fill:#404040;"/>
  </a>
 </g>
</svg>

<style type='text/css'>
<![CDATA[
[data-mouse-over-selected='false'] { opacity: 0.7; }
[data-mouse-over-selected='true']  { opacity: 1.0; }
]]>
</style>
<script type="application/ecmascript"><![CDATA[
document.addEventListener('DOMContentLoaded', (event) => {
  highlightEdges();
  highlightAdjacentNodes();
});
]]></script>
</svg>
