<?xml version="1.0" encoding="UTF-8" standalone="no"?>
<!DOCTYPE svg PUBLIC "-//W3C//DTD SVG 1.1//EN"
 "http://www.w3.org/Graphics/SVG/1.1/DTD/svg11.dtd">
<!-- Generated by graphviz version 12.2.0 (20241103.1931)
 -->
<!-- Title: fr.softsf.sudokufx.model.Player Pages: 1 -->
<svg width="669pt" height="416pt"
 viewBox="0.00 0.00 669.38 416.00" xmlns="http://www.w3.org/2000/svg" xmlns:xlink="http://www.w3.org/1999/xlink">
<g id="graph0" class="graph" transform="scale(1 1) rotate(0) translate(4 412)">
<title>fr.softsf.sudokufx.model.Player</title>
<!-- Node1 -->
<g id="Node000001" class="node">
<title>Node1</title>
<g id="a_Node000001"><a xlink:title=" ">
<polygon fill="#999999" stroke="none" points="410.5,-124 270.25,-124 270.25,0 410.5,0 410.5,-124"/>
<text text-anchor="start" x="286" y="-110.5" font-family="Helvetica,sans-Serif" font-size="10.00">fr.softsf.sudokufx.model.</text>
<text text-anchor="start" x="326.5" y="-98.5" font-family="Helvetica,sans-Serif" font-size="10.00">Player</text>
<text text-anchor="start" x="275.75" y="-82.5" font-family="Helvetica,sans-Serif" font-size="10.00">&#45;</text>
<text text-anchor="start" x="284.25" y="-82.5" font-family="Helvetica,sans-Serif" font-size="10.00">boolean isselected</text>
<text text-anchor="start" x="275.75" y="-66.5" font-family="Helvetica,sans-Serif" font-size="10.00">&#45;</text>
<text text-anchor="start" x="284.25" y="-66.5" font-family="Helvetica,sans-Serif" font-size="10.00">String name</text>
<text text-anchor="start" x="275.75" y="-50.5" font-family="Helvetica,sans-Serif" font-size="10.00">&#45;</text>
<text text-anchor="start" x="284.25" y="-50.5" font-family="Helvetica,sans-Serif" font-size="10.00">Long playerid</text>
<text text-anchor="start" x="274.25" y="-34.5" font-family="Helvetica,sans-Serif" font-size="10.00">+</text>
<text text-anchor="start" x="284.25" y="-34.5" font-family="Helvetica,sans-Serif" font-size="10.00">void addGame(Game game)</text>
<text text-anchor="start" x="274.25" y="-18.5" font-family="Helvetica,sans-Serif" font-size="10.00">+</text>
<text text-anchor="start" x="284.25" y="-18.5" font-family="Helvetica,sans-Serif" font-size="10.00">void removeGame(Game</text>
<text text-anchor="start" x="284.25" y="-6.5" font-family="Helvetica,sans-Serif" font-size="10.00"> game)</text>
<polygon fill="#666666" stroke="#666666" points="270.25,-94 270.25,-94 410.5,-94 410.5,-94 270.25,-94"/>
<polygon fill="#666666" stroke="#666666" points="270.25,-46 270.25,-46 282.25,-46 282.25,-46 270.25,-46"/>
<polygon fill="#666666" stroke="#666666" points="282.25,-46 282.25,-46 410.5,-46 410.5,-46 282.25,-46"/>
<polygon fill="none" stroke="#666666" points="270.25,0 270.25,-124 410.5,-124 410.5,0 270.25,0"/>
</a>
</g>
</g>
<!-- Node2 -->
<g id="Node000002" class="node">
<title>Node2</title>
<g id="a_Node000002"><a xlink:href="classfr_1_1softsf_1_1sudokufx_1_1model_1_1_player_language.html" target="_top" xlink:title=" ">
<polygon fill="white" stroke="none" points="116.75,-280 0,-280 0,-200 116.75,-200 116.75,-280"/>
<text text-anchor="start" x="4" y="-266.5" font-family="Helvetica,sans-Serif" font-size="10.00">fr.softsf.sudokufx.model.</text>
<text text-anchor="start" x="23.5" y="-254.5" font-family="Helvetica,sans-Serif" font-size="10.00">PlayerLanguage</text>
<text text-anchor="start" x="5.25" y="-238.5" font-family="Helvetica,sans-Serif" font-size="10.00">&#45;</text>
<text text-anchor="start" x="13.5" y="-238.5" font-family="Helvetica,sans-Serif" font-size="10.00">String iso</text>
<text text-anchor="start" x="5.25" y="-222.5" font-family="Helvetica,sans-Serif" font-size="10.00">&#45;</text>
<text text-anchor="start" x="13.5" y="-222.5" font-family="Helvetica,sans-Serif" font-size="10.00">Long playerlanguageid</text>
<text text-anchor="start" x="56.88" y="-206.5" font-family="Helvetica,sans-Serif" font-size="10.00"> </text>
<polygon fill="#666666" stroke="#666666" points="0,-250 0,-250 116.75,-250 116.75,-250 0,-250"/>
<polygon fill="#666666" stroke="#666666" points="0,-218 0,-218 11.5,-218 11.5,-218 0,-218"/>
<polygon fill="#666666" stroke="#666666" points="11.5,-218 11.5,-218 116.75,-218 116.75,-218 11.5,-218"/>
<polygon fill="none" stroke="#666666" points="0,-200 0,-280 116.75,-280 116.75,-200 0,-200"/>
</a>
</g>
</g>
<!-- Node2&#45;&gt;Node1 -->
<g id="edge1_Node000001_Node000002" class="edge">
<title>Node2&#45;&gt;Node1</title>
<g id="a_edge1_Node000001_Node000002"><a xlink:title=" ">
<path fill="none" stroke="#63b8ff" d="M97.36,-200.12C117.77,-181.09 143.82,-158.73 169.62,-142 197.21,-124.12 229.49,-108.09 258.51,-95.22"/>
<polygon fill="none" stroke="#63b8ff" points="258.48,-95.23 262.38,-89.17 269.48,-90.44 265.58,-96.5 258.48,-95.23"/>
</a>
</g>
<text text-anchor="middle" x="209" y="-150.5" font-family="Helvetica,sans-Serif" font-size="10.00" fill="grey"> &#45;playerlanguageid</text>
</g>
<!-- Node3 -->
<g id="Node000003" class="node">
<title>Node3</title>
<g id="a_Node000003"><a xlink:href="classfr_1_1softsf_1_1sudokufx_1_1model_1_1_background.html" target="_top" xlink:title=" ">
<polygon fill="white" stroke="none" points="251.75,-296 135,-296 135,-184 251.75,-184 251.75,-296"/>
<text text-anchor="start" x="139" y="-282.5" font-family="Helvetica,sans-Serif" font-size="10.00">fr.softsf.sudokufx.model.</text>
<text text-anchor="start" x="167.5" y="-270.5" font-family="Helvetica,sans-Serif" font-size="10.00">Background</text>
<text text-anchor="start" x="144" y="-254.5" font-family="Helvetica,sans-Serif" font-size="10.00">&#45;</text>
<text text-anchor="start" x="156" y="-254.5" font-family="Helvetica,sans-Serif" font-size="10.00">Long backgroundid</text>
<text text-anchor="start" x="144" y="-238.5" font-family="Helvetica,sans-Serif" font-size="10.00">&#45;</text>
<text text-anchor="start" x="156" y="-238.5" font-family="Helvetica,sans-Serif" font-size="10.00">String hexcolor</text>
<text text-anchor="start" x="144" y="-222.5" font-family="Helvetica,sans-Serif" font-size="10.00">&#45;</text>
<text text-anchor="start" x="156" y="-222.5" font-family="Helvetica,sans-Serif" font-size="10.00">String imagepath</text>
<text text-anchor="start" x="144" y="-206.5" font-family="Helvetica,sans-Serif" font-size="10.00">&#45;</text>
<text text-anchor="start" x="156" y="-206.5" font-family="Helvetica,sans-Serif" font-size="10.00">boolean isimage</text>
<text text-anchor="start" x="191.88" y="-190.5" font-family="Helvetica,sans-Serif" font-size="10.00"> </text>
<polygon fill="#666666" stroke="#666666" points="135,-266 135,-266 251.75,-266 251.75,-266 135,-266"/>
<polygon fill="#666666" stroke="#666666" points="135,-202 135,-202 154,-202 154,-202 135,-202"/>
<polygon fill="#666666" stroke="#666666" points="154,-202 154,-202 251.75,-202 251.75,-202 154,-202"/>
<polygon fill="none" stroke="#666666" points="135,-184 135,-296 251.75,-296 251.75,-184 135,-184"/>
</a>
</g>
</g>
<!-- Node3&#45;&gt;Node1 -->
<g id="edge2_Node000001_Node000003" class="edge">
<title>Node3&#45;&gt;Node1</title>
<g id="a_edge2_Node000001_Node000003"><a xlink:title=" ">
<path fill="none" stroke="#63b8ff" d="M237.79,-184.18C249.08,-170.36 261.25,-155.59 272.62,-142 274.96,-139.21 277.35,-136.36 279.77,-133.5"/>
<polygon fill="none" stroke="#63b8ff" points="279.74,-133.54 280.56,-126.37 287.49,-124.38 286.67,-131.54 279.74,-133.54"/>
</a>
</g>
<text text-anchor="middle" x="304.5" y="-150.5" font-family="Helvetica,sans-Serif" font-size="10.00" fill="grey"> &#45;backgroundid</text>
</g>
<!-- Node4 -->
<g id="Node000004" class="node">
<title>Node4</title>
<g id="a_Node000004"><a xlink:href="classfr_1_1softsf_1_1sudokufx_1_1model_1_1_menu.html" target="_top" xlink:title=" ">
<polygon fill="white" stroke="none" points="410.75,-274 270,-274 270,-206 410.75,-206 410.75,-274"/>
<text text-anchor="start" x="274" y="-260.5" font-family="Helvetica,sans-Serif" font-size="10.00">fr.softsf.sudokufx.model.Menu</text>
<text text-anchor="start" x="291.75" y="-244.5" font-family="Helvetica,sans-Serif" font-size="10.00">&#45;</text>
<text text-anchor="start" x="316.5" y="-244.5" font-family="Helvetica,sans-Serif" font-size="10.00">Byte menuid</text>
<text text-anchor="start" x="291.75" y="-228.5" font-family="Helvetica,sans-Serif" font-size="10.00">&#45;</text>
<text text-anchor="start" x="316.5" y="-228.5" font-family="Helvetica,sans-Serif" font-size="10.00">Byte mode</text>
<text text-anchor="start" x="338.88" y="-212.5" font-family="Helvetica,sans-Serif" font-size="10.00"> </text>
<polygon fill="#666666" stroke="#666666" points="270,-256 270,-256 410.75,-256 410.75,-256 270,-256"/>
<polygon fill="#666666" stroke="#666666" points="270,-224 270,-224 314.5,-224 314.5,-224 270,-224"/>
<polygon fill="#666666" stroke="#666666" points="314.5,-224 314.5,-224 410.75,-224 410.75,-224 314.5,-224"/>
<polygon fill="none" stroke="#666666" points="270,-206 270,-274 410.75,-274 410.75,-206 270,-206"/>
</a>
</g>
</g>
<!-- Node4&#45;&gt;Node1 -->
<g id="edge3_Node000001_Node000004" class="edge">
<title>Node4&#45;&gt;Node1</title>
<g id="a_edge3_Node000001_Node000004"><a xlink:title=" ">
<path fill="none" stroke="#63b8ff" d="M340.38,-206.31C340.38,-186.67 340.38,-160.86 340.38,-136.56"/>
<polygon fill="none" stroke="#63b8ff" points="340.38,-136.55 336.38,-130.55 340.38,-124.55 344.38,-130.55 340.38,-136.55"/>
</a>
</g>
<text text-anchor="middle" x="359.12" y="-150.5" font-family="Helvetica,sans-Serif" font-size="10.00" fill="grey"> &#45;menuid</text>
</g>
<!-- Node5 -->
<g id="Node000005" class="node">
<title>Node5</title>
<g id="a_Node000005"><a xlink:title=" ">
<polygon fill="white" stroke="none" points="569.75,-272 429,-272 429,-208 569.75,-208 569.75,-272"/>
<text text-anchor="start" x="433" y="-258.5" font-family="Helvetica,sans-Serif" font-size="10.00">Set&lt; fr.softsf.sudokufx.model.</text>
<text text-anchor="start" x="481.75" y="-246.5" font-family="Helvetica,sans-Serif" font-size="10.00">Game &gt;</text>
<text text-anchor="start" x="497.88" y="-230.5" font-family="Helvetica,sans-Serif" font-size="10.00"> </text>
<text text-anchor="start" x="497.88" y="-214.5" font-family="Helvetica,sans-Serif" font-size="10.00"> </text>
<polygon fill="#666666" stroke="#666666" points="429,-242 429,-242 569.75,-242 569.75,-242 429,-242"/>
<polygon fill="#666666" stroke="#666666" points="429,-226 429,-226 569.75,-226 569.75,-226 429,-226"/>
<polygon fill="none" stroke="#666666" points="429,-208 429,-272 569.75,-272 569.75,-208 429,-208"/>
</a>
</g>
</g>
<!-- Node5&#45;&gt;Node1 -->
<g id="edge4_Node000001_Node000005" class="edge">
<title>Node5&#45;&gt;Node1</title>
<g id="a_edge4_Node000001_Node000005"><a xlink:title=" ">
<path fill="none" stroke="#63b8ff" d="M471.68,-208.34C452.98,-187.64 427.5,-159.44 403.97,-133.39"/>
<polygon fill="none" stroke="#63b8ff" points="404.05,-133.48 397.06,-131.71 396,-124.58 402.99,-126.35 404.05,-133.48"/>
</a>
</g>
<text text-anchor="middle" x="447.02" y="-150.5" font-family="Helvetica,sans-Serif" font-size="10.00" fill="grey"> &#45;games</text>
</g>
<!-- Node6 -->
<g id="Node000006" class="node">
<title>Node6</title>
<g id="a_Node000006"><a xlink:title=" ">
<polygon fill="white" stroke="none" points="510.88,-408 487.88,-408 487.88,-356 510.88,-356 510.88,-408"/>
<text text-anchor="start" x="491.88" y="-394.5" font-family="Helvetica,sans-Serif" font-size="10.00">Set</text>
<text text-anchor="start" x="497.88" y="-378.5" font-family="Helvetica,sans-Serif" font-size="10.00"> </text>
<text text-anchor="start" x="497.88" y="-362.5" font-family="Helvetica,sans-Serif" font-size="10.00"> </text>
<polygon fill="#666666" stroke="#666666" points="487.88,-390 487.88,-390 510.88,-390 510.88,-390 487.88,-390"/>
<polygon fill="#666666" stroke="#666666" points="487.88,-374 487.88,-374 510.88,-374 510.88,-374 487.88,-374"/>
<polygon fill="none" stroke="#666666" points="487.88,-356 487.88,-408 510.88,-408 510.88,-356 487.88,-356"/>
</a>
</g>
</g>
<!-- Node6&#45;&gt;Node5 -->
<g id="edge5_Node000005_Node000006" class="edge">
<title>Node6&#45;&gt;Node5</title>
<g id="a_edge5_Node000005_Node000006"><a xlink:title=" ">
<path fill="none" stroke="orange" d="M499.38,-345.09C499.38,-322.42 499.38,-293.44 499.38,-271.82"/>
<polygon fill="orange" stroke="orange" points="495.88,-344.78 499.38,-354.78 502.88,-344.78 495.88,-344.78"/>
</a>
</g>
<text text-anchor="start" x="499.38" y="-328.5" font-family="Helvetica,sans-Serif" font-size="10.00" fill="grey"> &lt; fr::softsf::sudokufx</text>
<text text-anchor="middle" x="546.62" y="-316.5" font-family="Helvetica,sans-Serif" font-size="10.00" fill="grey">::model::Game &gt;</text>
</g>
<!-- Node7 -->
<g id="Node000007" class="node">
<title>Node7</title>
<g id="a_Node000007"><a xlink:title=" ">
<polygon fill="white" stroke="none" points="661.38,-266 587.38,-266 587.38,-214 661.38,-214 661.38,-266"/>
<text text-anchor="start" x="591.38" y="-252.5" font-family="Helvetica,sans-Serif" font-size="10.00">LocalDateTime</text>
<text text-anchor="start" x="622.88" y="-236.5" font-family="Helvetica,sans-Serif" font-size="10.00"> </text>
<text text-anchor="start" x="622.88" y="-220.5" font-family="Helvetica,sans-Serif" font-size="10.00"> </text>
<polygon fill="#666666" stroke="#666666" points="587.38,-248 587.38,-248 661.38,-248 661.38,-248 587.38,-248"/>
<polygon fill="#666666" stroke="#666666" points="587.38,-232 587.38,-232 661.38,-232 661.38,-232 587.38,-232"/>
<polygon fill="none" stroke="#666666" points="587.38,-214 587.38,-266 661.38,-266 661.38,-214 587.38,-214"/>
</a>
</g>
</g>
<!-- Node7&#45;&gt;Node1 -->
<g id="edge6_Node000001_Node000007" class="edge">
<title>Node7&#45;&gt;Node1</title>
<g id="a_edge6_Node000001_Node000007"><a xlink:title=" ">
<path fill="none" stroke="#63b8ff" d="M607.01,-214.06C599.09,-203.88 589.09,-192.53 578.38,-184 531.24,-146.48 470.61,-115.86 422.34,-94.82"/>
<polygon fill="none" stroke="#63b8ff" points="422.21,-94.76 415.12,-96.07 411.18,-90.03 418.27,-88.72 422.21,-94.76"/>
</a>
</g>
<text text-anchor="middle" x="572.4" y="-156.5" font-family="Helvetica,sans-Serif" font-size="10.00" fill="grey"> &#45;createdat</text>
<text text-anchor="middle" x="572.4" y="-144.5" font-family="Helvetica,sans-Serif" font-size="10.00" fill="grey">&#45;updatedat</text>
</g>
</g>
</svg>
