<?xml version="1.0" encoding="UTF-8" standalone="no"?>
<!DOCTYPE svg PUBLIC "-//W3C//DTD SVG 1.1//EN"
 "http://www.w3.org/Graphics/SVG/1.1/DTD/svg11.dtd">
<!-- Generated by graphviz version 12.2.0 (20241103.1931)
 -->
<!-- Title: fr.softsf.sudokufx.utils.database.configuration.DataSourceConfig.hikariDataSource Pages: 1 -->
<svg width="1492pt" height="339pt"
 viewBox="0.00 0.00 1492.25 339.00" xmlns="http://www.w3.org/2000/svg" xmlns:xlink="http://www.w3.org/1999/xlink">
<g id="graph0" class="graph" transform="scale(1 1) rotate(0) translate(4 335)">
<title>fr.softsf.sudokufx.utils.database.configuration.DataSourceConfig.hikariDataSource</title>
<!-- Node1 -->
<g id="Node000001" class="node">
<title>Node1</title>
<g id="a_Node000001"><a xlink:title="Creates and configures the main DataSource for the application.">
<polygon fill="#999999" stroke="#666666" points="217.75,-219 0,-219 0,-187 217.75,-187 217.75,-219"/>
<text text-anchor="start" x="8" y="-205.5" font-family="Helvetica,sans-Serif" font-size="10.00">fr.softsf.sudokufx.utils.database.configuration.</text>
<text text-anchor="middle" x="108.88" y="-193.5" font-family="Helvetica,sans-Serif" font-size="10.00">DataSourceConfig.hikariDataSource</text>
</a>
</g>
</g>
<!-- Node2 -->
<g id="Node000002" class="node">
<title>Node2</title>
<g id="a_Node000002"><a xlink:href="interfacefr_1_1softsf_1_1sudokufx_1_1utils_1_1os_1_1_os_folder_factory_manager_1_1_i_os_folder_factory.html#a1d97b6311f75c1cbd0d7c42c327b8335" target="_top" xlink:title="Retrieves the path to the OS&#45;specific data folder.">
<polygon fill="white" stroke="#666666" points="448.25,-331 276.25,-331 276.25,-287 448.25,-287 448.25,-331"/>
<text text-anchor="start" x="284.25" y="-317.5" font-family="Helvetica,sans-Serif" font-size="10.00">fr.softsf.sudokufx.utils.os.</text>
<text text-anchor="start" x="284.25" y="-305.5" font-family="Helvetica,sans-Serif" font-size="10.00">OsFolderFactoryManager.IOsFolder</text>
<text text-anchor="middle" x="362.25" y="-293.5" font-family="Helvetica,sans-Serif" font-size="10.00">Factory.getOsDataFolderPath</text>
</a>
</g>
</g>
<!-- Node1&#45;&gt;Node2 -->
<g id="edge1_Node000001_Node000002" class="edge">
<title>Node1&#45;&gt;Node2</title>
<g id="a_edge1_Node000001_Node000002"><a xlink:title=" ">
<path fill="none" stroke="#63b8ff" d="M137.21,-219.36C165.59,-235.83 211.64,-261.15 253.75,-278 257.89,-279.66 262.16,-281.27 266.49,-282.82"/>
<polygon fill="#63b8ff" stroke="#63b8ff" points="265.33,-286.13 275.93,-286.09 267.62,-279.51 265.33,-286.13"/>
</a>
</g>
</g>
<!-- Node3 -->
<g id="Node000003" class="node">
<title>Node3</title>
<g id="a_Node000003"><a xlink:href="interfacefr_1_1softsf_1_1sudokufx_1_1interfaces_1_1_i_keystore.html#a5ec3c1f09b73ee031b270efd4ded0ce0" target="_top" xlink:title="Get database password.">
<polygon fill="white" stroke="#666666" points="432.88,-269 291.62,-269 291.62,-237 432.88,-237 432.88,-269"/>
<text text-anchor="start" x="299.62" y="-255.5" font-family="Helvetica,sans-Serif" font-size="10.00">fr.softsf.sudokufx.interfaces.</text>
<text text-anchor="middle" x="362.25" y="-243.5" font-family="Helvetica,sans-Serif" font-size="10.00">IKeystore.getPassword</text>
</a>
</g>
</g>
<!-- Node1&#45;&gt;Node3 -->
<g id="edge2_Node000001_Node000003" class="edge">
<title>Node1&#45;&gt;Node3</title>
<g id="a_edge2_Node000001_Node000003"><a xlink:title=" ">
<path fill="none" stroke="#63b8ff" d="M192.53,-219.44C220.7,-225.04 252.16,-231.3 280.2,-236.88"/>
<polygon fill="#63b8ff" stroke="#63b8ff" points="279.2,-240.25 289.69,-238.77 280.56,-233.38 279.2,-240.25"/>
</a>
</g>
</g>
<!-- Node4 -->
<g id="Node000004" class="node">
<title>Node4</title>
<g id="a_Node000004"><a xlink:href="interfacefr_1_1softsf_1_1sudokufx_1_1interfaces_1_1_i_keystore.html#a8b68edc0def5161907fbd2f55b0940f3" target="_top" xlink:title="Get database username.">
<polygon fill="white" stroke="#666666" points="432.88,-219 291.62,-219 291.62,-187 432.88,-187 432.88,-219"/>
<text text-anchor="start" x="299.62" y="-205.5" font-family="Helvetica,sans-Serif" font-size="10.00">fr.softsf.sudokufx.interfaces.</text>
<text text-anchor="middle" x="362.25" y="-193.5" font-family="Helvetica,sans-Serif" font-size="10.00">IKeystore.getUsername</text>
</a>
</g>
</g>
<!-- Node1&#45;&gt;Node4 -->
<g id="edge3_Node000001_Node000004" class="edge">
<title>Node1&#45;&gt;Node4</title>
<g id="a_edge3_Node000001_Node000004"><a xlink:title=" ">
<path fill="none" stroke="#63b8ff" d="M217.94,-203C238.74,-203 260.2,-203 279.97,-203"/>
<polygon fill="#63b8ff" stroke="#63b8ff" points="279.89,-206.5 289.89,-203 279.89,-199.5 279.89,-206.5"/>
</a>
</g>
</g>
<!-- Node5 -->
<g id="Node000005" class="node">
<title>Node5</title>
<g id="a_Node000005"><a xlink:href="classfr_1_1softsf_1_1sudokufx_1_1utils_1_1os_1_1_os_folder_factory_manager.html#abe170d1d4c6183a0a6e9d7dd7904fd19" target="_top" xlink:title="Creates and returns an OS&#45;specific folder factory.">
<polygon fill="white" stroke="#666666" points="445.62,-169 278.88,-169 278.88,-125 445.62,-125 445.62,-169"/>
<text text-anchor="start" x="286.88" y="-155.5" font-family="Helvetica,sans-Serif" font-size="10.00">fr.softsf.sudokufx.utils.os.</text>
<text text-anchor="start" x="286.88" y="-143.5" font-family="Helvetica,sans-Serif" font-size="10.00">OsFolderFactoryManager.osFolder</text>
<text text-anchor="middle" x="362.25" y="-131.5" font-family="Helvetica,sans-Serif" font-size="10.00">Factory</text>
</a>
</g>
</g>
<!-- Node1&#45;&gt;Node5 -->
<g id="edge4_Node000001_Node000005" class="edge">
<title>Node1&#45;&gt;Node5</title>
<g id="a_edge4_Node000001_Node000005"><a xlink:title=" ">
<path fill="none" stroke="#63b8ff" d="M183.94,-186.5C210.03,-180.69 239.72,-174.07 267.24,-167.94"/>
<polygon fill="#63b8ff" stroke="#63b8ff" points="268,-171.36 277,-165.77 266.47,-164.53 268,-171.36"/>
</a>
</g>
</g>
<!-- Node6 -->
<g id="Node000006" class="node">
<title>Node6</title>
<g id="a_Node000006"><a xlink:href="classfr_1_1softsf_1_1sudokufx_1_1utils_1_1database_1_1keystore_1_1_application_keystore.html#a983c1ac68091c9b5533cda1496c1ccc5" target="_top" xlink:title=" ">
<polygon fill="white" stroke="#666666" points="470.75,-107 253.75,-107 253.75,-75 470.75,-75 470.75,-107"/>
<text text-anchor="start" x="261.75" y="-93.5" font-family="Helvetica,sans-Serif" font-size="10.00">fr.softsf.sudokufx.utils.database.keystore.</text>
<text text-anchor="middle" x="362.25" y="-81.5" font-family="Helvetica,sans-Serif" font-size="10.00">ApplicationKeystore.setupApplicationKeystore</text>
</a>
</g>
</g>
<!-- Node1&#45;&gt;Node6 -->
<g id="edge5_Node000001_Node000006" class="edge">
<title>Node1&#45;&gt;Node6</title>
<g id="a_edge5_Node000001_Node000006"><a xlink:title=" ">
<path fill="none" stroke="#63b8ff" d="M131.63,-186.81C158.85,-167.3 207.51,-134.8 253.75,-116 258.32,-114.14 263.05,-112.41 267.87,-110.79"/>
<polygon fill="#63b8ff" stroke="#63b8ff" points="268.61,-114.22 277.1,-107.88 266.51,-107.55 268.61,-114.22"/>
</a>
</g>
</g>
<!-- Node7 -->
<g id="Node000007" class="node">
<title>Node7</title>
<g id="a_Node000007"><a xlink:href="classfr_1_1softsf_1_1sudokufx_1_1utils_1_1database_1_1keystore_1_1_application_keystore.html#a3c033211ab4f60945ef6ff9d202fbabd" target="_top" xlink:title="Create or update the Keystore.">
<polygon fill="white" stroke="#666666" points="720.75,-182 506.75,-182 506.75,-150 720.75,-150 720.75,-182"/>
<text text-anchor="start" x="514.75" y="-168.5" font-family="Helvetica,sans-Serif" font-size="10.00">fr.softsf.sudokufx.utils.database.keystore.</text>
<text text-anchor="middle" x="613.75" y="-156.5" font-family="Helvetica,sans-Serif" font-size="10.00">ApplicationKeystore.createOrUpdateKeystore</text>
</a>
</g>
</g>
<!-- Node6&#45;&gt;Node7 -->
<g id="edge6_Node000006_Node000007" class="edge">
<title>Node6&#45;&gt;Node7</title>
<g id="a_edge6_Node000006_Node000007"><a xlink:title=" ">
<path fill="none" stroke="#63b8ff" d="M447.88,-107.45C455.75,-109.94 463.48,-112.77 470.75,-116 488.55,-123.9 488.96,-133.07 506.75,-141 510.72,-142.77 514.82,-144.42 519.02,-145.96"/>
<polygon fill="#63b8ff" stroke="#63b8ff" points="517.55,-149.16 528.15,-149.09 519.82,-142.54 517.55,-149.16"/>
</a>
</g>
</g>
<!-- Node8 -->
<g id="Node000008" class="node">
<title>Node8</title>
<g id="a_Node000008"><a xlink:href="classfr_1_1softsf_1_1sudokufx_1_1utils_1_1database_1_1keystore_1_1_application_keystore.html#a2a2525acabf35eaaf9dca60b9eb11589" target="_top" xlink:title="Get or set credentials by alias.">
<polygon fill="white" stroke="#666666" points="713.62,-132 513.88,-132 513.88,-100 713.62,-100 713.62,-132"/>
<text text-anchor="start" x="521.88" y="-118.5" font-family="Helvetica,sans-Serif" font-size="10.00">fr.softsf.sudokufx.utils.database.keystore.</text>
<text text-anchor="middle" x="613.75" y="-106.5" font-family="Helvetica,sans-Serif" font-size="10.00">ApplicationKeystore.credentials</text>
</a>
</g>
</g>
<!-- Node6&#45;&gt;Node8 -->
<g id="edge7_Node000006_Node000008" class="edge">
<title>Node6&#45;&gt;Node8</title>
<g id="a_edge7_Node000006_Node000008"><a xlink:title=" ">
<path fill="none" stroke="#63b8ff" d="M471.23,-101.82C481.58,-102.86 492.09,-103.91 502.46,-104.95"/>
<polygon fill="#63b8ff" stroke="#63b8ff" points="501.84,-108.4 512.14,-105.92 502.54,-101.44 501.84,-108.4"/>
</a>
</g>
</g>
<!-- Node17 -->
<g id="Node000017" class="node">
<title>Node17</title>
<g id="a_Node000017"><a xlink:href="classfr_1_1softsf_1_1sudokufx_1_1utils_1_1database_1_1keystore_1_1_application_keystore.html#afa8d0bbf87d5470ae8e2307a5f6e53b0" target="_top" xlink:title="Load the Keystore.">
<polygon fill="white" stroke="#666666" points="713.62,-82 513.88,-82 513.88,-50 713.62,-50 713.62,-82"/>
<text text-anchor="start" x="521.88" y="-68.5" font-family="Helvetica,sans-Serif" font-size="10.00">fr.softsf.sudokufx.utils.database.keystore.</text>
<text text-anchor="middle" x="613.75" y="-56.5" font-family="Helvetica,sans-Serif" font-size="10.00">ApplicationKeystore.loadKeyStore</text>
</a>
</g>
</g>
<!-- Node6&#45;&gt;Node17 -->
<g id="edge16_Node000006_Node000017" class="edge">
<title>Node6&#45;&gt;Node17</title>
<g id="a_edge16_Node000006_Node000017"><a xlink:title=" ">
<path fill="none" stroke="#63b8ff" d="M471.23,-80.18C481.58,-79.14 492.09,-78.09 502.46,-77.05"/>
<polygon fill="#63b8ff" stroke="#63b8ff" points="502.54,-80.56 512.14,-76.08 501.84,-73.6 502.54,-80.56"/>
</a>
</g>
</g>
<!-- Node18 -->
<g id="Node000018" class="node">
<title>Node18</title>
<g id="a_Node000018"><a xlink:href="classfr_1_1softsf_1_1sudokufx_1_1utils_1_1database_1_1keystore_1_1_application_keystore.html#a5900042aba7b9c552aacf127f021da37" target="_top" xlink:title="Check the symmetric key presence.">
<polygon fill="white" stroke="#666666" points="713.62,-32 513.88,-32 513.88,0 713.62,0 713.62,-32"/>
<text text-anchor="start" x="521.88" y="-18.5" font-family="Helvetica,sans-Serif" font-size="10.00">fr.softsf.sudokufx.utils.database.keystore.</text>
<text text-anchor="middle" x="613.75" y="-6.5" font-family="Helvetica,sans-Serif" font-size="10.00">ApplicationKeystore.symmetricKey</text>
</a>
</g>
</g>
<!-- Node6&#45;&gt;Node18 -->
<g id="edge17_Node000006_Node000018" class="edge">
<title>Node6&#45;&gt;Node18</title>
<g id="a_edge17_Node000006_Node000018"><a xlink:title=" ">
<path fill="none" stroke="#63b8ff" d="M406.52,-74.61C434.8,-64.22 472.68,-50.92 506.75,-41 513.48,-39.04 520.49,-37.12 527.54,-35.28"/>
<polygon fill="#63b8ff" stroke="#63b8ff" points="528.36,-38.68 537.18,-32.82 526.63,-31.9 528.36,-38.68"/>
</a>
</g>
</g>
<!-- Node9 -->
<g id="Node000009" class="node">
<title>Node9</title>
<g id="a_Node000009"><a xlink:href="classfr_1_1softsf_1_1sudokufx_1_1utils_1_1database_1_1keystore_1_1_application_keystore.html#af5312fa49787830d1c7e73806a03b5bb" target="_top" xlink:title="Get credential by alias.">
<polygon fill="white" stroke="#666666" points="972.62,-182 772.88,-182 772.88,-150 972.62,-150 972.62,-182"/>
<text text-anchor="start" x="780.88" y="-168.5" font-family="Helvetica,sans-Serif" font-size="10.00">fr.softsf.sudokufx.utils.database.keystore.</text>
<text text-anchor="middle" x="872.75" y="-156.5" font-family="Helvetica,sans-Serif" font-size="10.00">ApplicationKeystore.getCredentials</text>
</a>
</g>
</g>
<!-- Node8&#45;&gt;Node9 -->
<g id="edge8_Node000008_Node000009" class="edge">
<title>Node8&#45;&gt;Node9</title>
<g id="a_edge8_Node000008_Node000009"><a xlink:title=" ">
<path fill="none" stroke="#63b8ff" d="M699.26,-132.44C723.85,-137.23 750.9,-142.49 776.12,-147.4"/>
<polygon fill="#63b8ff" stroke="#63b8ff" points="775.22,-150.79 785.71,-149.26 776.56,-143.91 775.22,-150.79"/>
</a>
</g>
</g>
<!-- Node11 -->
<g id="Node000011" class="node">
<title>Node11</title>
<g id="a_Node000011"><a xlink:href="classfr_1_1softsf_1_1sudokufx_1_1utils_1_1database_1_1keystore_1_1_application_keystore.html#aac0c74b44fb1dd6e9bef9b713a8ba609" target="_top" xlink:title="Set credential by alias.">
<polygon fill="white" stroke="#666666" points="972.62,-132 772.88,-132 772.88,-100 972.62,-100 972.62,-132"/>
<text text-anchor="start" x="780.88" y="-118.5" font-family="Helvetica,sans-Serif" font-size="10.00">fr.softsf.sudokufx.utils.database.keystore.</text>
<text text-anchor="middle" x="872.75" y="-106.5" font-family="Helvetica,sans-Serif" font-size="10.00">ApplicationKeystore.setCredentials</text>
</a>
</g>
</g>
<!-- Node8&#45;&gt;Node11 -->
<g id="edge10_Node000008_Node000011" class="edge">
<title>Node8&#45;&gt;Node11</title>
<g id="a_edge10_Node000008_Node000011"><a xlink:title=" ">
<path fill="none" stroke="#63b8ff" d="M714.11,-116C729.57,-116 745.62,-116 761.31,-116"/>
<polygon fill="#63b8ff" stroke="#63b8ff" points="761.14,-119.5 771.14,-116 761.14,-112.5 761.14,-119.5"/>
</a>
</g>
</g>
<!-- Node10 -->
<g id="Node000010" class="node">
<title>Node10</title>
<g id="a_Node000010"><a xlink:href="interfacefr_1_1softsf_1_1sudokufx_1_1utils_1_1database_1_1keystore_1_1_application_keystore_1_1_i_encryption_service.html#a90098a13cb1d162497b82b25f2379067" target="_top" xlink:title="Decrypt original.">
<polygon fill="white" stroke="#666666" points="1248.5,-182 1024.75,-182 1024.75,-150 1248.5,-150 1248.5,-182"/>
<text text-anchor="start" x="1032.75" y="-168.5" font-family="Helvetica,sans-Serif" font-size="10.00">fr.softsf.sudokufx.utils.database.keystore.</text>
<text text-anchor="middle" x="1136.62" y="-156.5" font-family="Helvetica,sans-Serif" font-size="10.00">ApplicationKeystore.IEncryptionService.decrypt</text>
</a>
</g>
</g>
<!-- Node9&#45;&gt;Node10 -->
<g id="edge9_Node000009_Node000010" class="edge">
<title>Node9&#45;&gt;Node10</title>
<g id="a_edge9_Node000009_Node000010"><a xlink:title=" ">
<path fill="none" stroke="#63b8ff" d="M972.75,-166C985.99,-166 999.7,-166 1013.28,-166"/>
<polygon fill="#63b8ff" stroke="#63b8ff" points="1013.13,-169.5 1023.13,-166 1013.13,-162.5 1013.13,-169.5"/>
</a>
</g>
</g>
<!-- Node12 -->
<g id="Node000012" class="node">
<title>Node12</title>
<g id="a_Node000012"><a xlink:href="classfr_1_1softsf_1_1sudokufx_1_1utils_1_1database_1_1keystore_1_1_application_keystore.html#a33216f8f54d7cd930bad1447d08019ba" target="_top" xlink:title="Add alias:secret in the Keystore.">
<polygon fill="white" stroke="#666666" points="1236.5,-32 1036.75,-32 1036.75,0 1236.5,0 1236.5,-32"/>
<text text-anchor="start" x="1044.75" y="-18.5" font-family="Helvetica,sans-Serif" font-size="10.00">fr.softsf.sudokufx.utils.database.keystore.</text>
<text text-anchor="middle" x="1136.62" y="-6.5" font-family="Helvetica,sans-Serif" font-size="10.00">ApplicationKeystore.addToKeystore</text>
</a>
</g>
</g>
<!-- Node11&#45;&gt;Node12 -->
<g id="edge11_Node000011_Node000012" class="edge">
<title>Node11&#45;&gt;Node12</title>
<g id="a_edge11_Node000011_Node000012"><a xlink:title=" ">
<path fill="none" stroke="#63b8ff" d="M972.97,-99.55C978.49,-97.08 983.8,-94.25 988.75,-91 1011.65,-75.98 1001.91,-56.1 1024.75,-41 1026.6,-39.78 1028.5,-38.61 1030.45,-37.5"/>
<polygon fill="#63b8ff" stroke="#63b8ff" points="1031.81,-40.74 1039.16,-33.1 1028.65,-34.49 1031.81,-40.74"/>
</a>
</g>
</g>
<!-- Node14 -->
<g id="Node000014" class="node">
<title>Node14</title>
<g id="a_Node000014"><a xlink:href="interfacefr_1_1softsf_1_1sudokufx_1_1utils_1_1database_1_1keystore_1_1_application_keystore_1_1_i_encryption_service.html#a6df504faaefed33e7ca30a8a6fed8d45" target="_top" xlink:title="Encrypt original.">
<polygon fill="white" stroke="#666666" points="1248.5,-132 1024.75,-132 1024.75,-100 1248.5,-100 1248.5,-132"/>
<text text-anchor="start" x="1032.75" y="-118.5" font-family="Helvetica,sans-Serif" font-size="10.00">fr.softsf.sudokufx.utils.database.keystore.</text>
<text text-anchor="middle" x="1136.62" y="-106.5" font-family="Helvetica,sans-Serif" font-size="10.00">ApplicationKeystore.IEncryptionService.encrypt</text>
</a>
</g>
</g>
<!-- Node11&#45;&gt;Node14 -->
<g id="edge13_Node000011_Node000014" class="edge">
<title>Node11&#45;&gt;Node14</title>
<g id="a_edge13_Node000011_Node000014"><a xlink:title=" ">
<path fill="none" stroke="#63b8ff" d="M972.75,-116C985.99,-116 999.7,-116 1013.28,-116"/>
<polygon fill="#63b8ff" stroke="#63b8ff" points="1013.13,-119.5 1023.13,-116 1013.13,-112.5 1013.13,-119.5"/>
</a>
</g>
</g>
<!-- Node15 -->
<g id="Node000015" class="node">
<title>Node15</title>
<g id="a_Node000015"><a xlink:href="classfr_1_1softsf_1_1sudokufx_1_1utils_1_1database_1_1keystore_1_1_generate_secret.html#ac1a554d432a1d4a3f2c32d9ca6594868" target="_top" xlink:title="Generate Passay secret.">
<polygon fill="white" stroke="#666666" points="1236.5,-82 1036.75,-82 1036.75,-50 1236.5,-50 1236.5,-82"/>
<text text-anchor="start" x="1044.75" y="-68.5" font-family="Helvetica,sans-Serif" font-size="10.00">fr.softsf.sudokufx.utils.database.keystore.</text>
<text text-anchor="middle" x="1136.62" y="-56.5" font-family="Helvetica,sans-Serif" font-size="10.00">GenerateSecret.generatePassaySecret</text>
</a>
</g>
</g>
<!-- Node11&#45;&gt;Node15 -->
<g id="edge14_Node000011_Node000015" class="edge">
<title>Node11&#45;&gt;Node15</title>
<g id="a_edge14_Node000011_Node000015"><a xlink:title=" ">
<path fill="none" stroke="#63b8ff" d="M959.86,-99.56C984.92,-94.77 1012.48,-89.51 1038.19,-84.6"/>
<polygon fill="#63b8ff" stroke="#63b8ff" points="1038.81,-88.05 1047.98,-82.73 1037.5,-81.17 1038.81,-88.05"/>
</a>
</g>
</g>
<!-- Node13 -->
<g id="Node000013" class="node">
<title>Node13</title>
<g id="a_Node000013"><a xlink:href="classfr_1_1softsf_1_1sudokufx_1_1utils_1_1database_1_1keystore_1_1_application_keystore.html#af82e040ae05888410827f695338a3a07" target="_top" xlink:title="Write data to the keystore file.">
<polygon fill="white" stroke="#666666" points="1484.25,-32 1284.5,-32 1284.5,0 1484.25,0 1484.25,-32"/>
<text text-anchor="start" x="1292.5" y="-18.5" font-family="Helvetica,sans-Serif" font-size="10.00">fr.softsf.sudokufx.utils.database.keystore.</text>
<text text-anchor="middle" x="1384.38" y="-6.5" font-family="Helvetica,sans-Serif" font-size="10.00">ApplicationKeystore.writeTheKeystore</text>
</a>
</g>
</g>
<!-- Node12&#45;&gt;Node13 -->
<g id="edge12_Node000012_Node000013" class="edge">
<title>Node12&#45;&gt;Node13</title>
<g id="a_edge12_Node000012_Node000013"><a xlink:title=" ">
<path fill="none" stroke="#63b8ff" d="M1236.87,-16C1248.68,-16 1260.8,-16 1272.75,-16"/>
<polygon fill="#63b8ff" stroke="#63b8ff" points="1272.64,-19.5 1282.64,-16 1272.64,-12.5 1272.64,-19.5"/>
</a>
</g>
</g>
<!-- Node16 -->
<g id="Node000016" class="node">
<title>Node16</title>
<g id="a_Node000016"><a xlink:href="classfr_1_1softsf_1_1sudokufx_1_1utils_1_1database_1_1keystore_1_1_generate_secret.html#a60e50e50087c5e2e578a7e14fa9d2b2e" target="_top" xlink:title="Define the secret special characters.">
<polygon fill="white" stroke="#666666" points="1484.25,-82 1284.5,-82 1284.5,-50 1484.25,-50 1484.25,-82"/>
<text text-anchor="start" x="1292.5" y="-68.5" font-family="Helvetica,sans-Serif" font-size="10.00">fr.softsf.sudokufx.utils.database.keystore.</text>
<text text-anchor="middle" x="1384.38" y="-56.5" font-family="Helvetica,sans-Serif" font-size="10.00">GenerateSecret.createSpecialChars</text>
</a>
</g>
</g>
<!-- Node15&#45;&gt;Node16 -->
<g id="edge15_Node000015_Node000016" class="edge">
<title>Node15&#45;&gt;Node16</title>
<g id="a_edge15_Node000015_Node000016"><a xlink:title=" ">
<path fill="none" stroke="#63b8ff" d="M1236.87,-66C1248.68,-66 1260.8,-66 1272.75,-66"/>
<polygon fill="#63b8ff" stroke="#63b8ff" points="1272.64,-69.5 1282.64,-66 1272.64,-62.5 1272.64,-69.5"/>
</a>
</g>
</g>
<!-- Node19 -->
<g id="Node000019" class="node">
<title>Node19</title>
<g id="a_Node000019"><a xlink:href="classfr_1_1softsf_1_1sudokufx_1_1utils_1_1database_1_1keystore_1_1_application_keystore.html#a93c64173e1fcbc1b3cea7c653cec93fc" target="_top" xlink:title="Get the symmetric key and set encryption service.">
<polygon fill="white" stroke="#666666" points="985,-82 760.5,-82 760.5,-50 985,-50 985,-82"/>
<text text-anchor="start" x="768.5" y="-68.5" font-family="Helvetica,sans-Serif" font-size="10.00">fr.softsf.sudokufx.utils.database.keystore.</text>
<text text-anchor="middle" x="872.75" y="-56.5" font-family="Helvetica,sans-Serif" font-size="10.00">ApplicationKeystore.symmetricKeyIsInKeystore</text>
</a>
</g>
</g>
<!-- Node18&#45;&gt;Node19 -->
<g id="edge18_Node000018_Node000019" class="edge">
<title>Node18&#45;&gt;Node19</title>
<g id="a_edge18_Node000018_Node000019"><a xlink:title=" ">
<path fill="none" stroke="#63b8ff" d="M699.26,-32.44C723.85,-37.23 750.9,-42.49 776.12,-47.4"/>
<polygon fill="#63b8ff" stroke="#63b8ff" points="775.22,-50.79 785.71,-49.26 776.56,-43.91 775.22,-50.79"/>
</a>
</g>
</g>
<!-- Node20 -->
<g id="Node000020" class="node">
<title>Node20</title>
<g id="a_Node000020"><a xlink:href="classfr_1_1softsf_1_1sudokufx_1_1utils_1_1database_1_1keystore_1_1_application_keystore.html#a26a6110e68a3530dff60cf57f1616a25" target="_top" xlink:title="Set the symmetric key and set encryption service.">
<polygon fill="white" stroke="#666666" points="988.75,-32 756.75,-32 756.75,0 988.75,0 988.75,-32"/>
<text text-anchor="start" x="764.75" y="-18.5" font-family="Helvetica,sans-Serif" font-size="10.00">fr.softsf.sudokufx.utils.database.keystore.</text>
<text text-anchor="middle" x="872.75" y="-6.5" font-family="Helvetica,sans-Serif" font-size="10.00">ApplicationKeystore.symmetricKeyNotInKeystore</text>
</a>
</g>
</g>
<!-- Node18&#45;&gt;Node20 -->
<g id="edge19_Node000018_Node000020" class="edge">
<title>Node18&#45;&gt;Node20</title>
<g id="a_edge19_Node000018_Node000020"><a xlink:title=" ">
<path fill="none" stroke="#63b8ff" d="M714.11,-9.41C724.28,-9.3 734.7,-9.24 745.11,-9.25"/>
<polygon fill="#63b8ff" stroke="#63b8ff" points="744.86,-12.75 754.87,-9.28 744.88,-5.75 744.86,-12.75"/>
</a>
</g>
</g>
<!-- Node20&#45;&gt;Node12 -->
<g id="edge20_Node000020_Node000012" class="edge">
<title>Node20&#45;&gt;Node12</title>
<g id="a_edge20_Node000020_Node000012"><a xlink:title=" ">
<path fill="none" stroke="#63b8ff" d="M988.99,-16C1000.95,-16 1013.09,-16 1024.99,-16"/>
<polygon fill="#63b8ff" stroke="#63b8ff" points="1024.81,-19.5 1034.81,-16 1024.81,-12.5 1024.81,-19.5"/>
</a>
</g>
</g>
<!-- Node20&#45;&gt;Node18 -->
<g id="edge21_Node000020_Node000018" class="edge">
<title>Node20&#45;&gt;Node18</title>
<g id="a_edge21_Node000020_Node000018"><a xlink:title=" ">
<path fill="none" stroke="#63b8ff" d="M756.38,-22.72C746.13,-22.77 735.77,-22.76 725.56,-22.69"/>
<polygon fill="#63b8ff" stroke="#63b8ff" points="725.66,-19.19 715.63,-22.61 725.6,-26.19 725.66,-19.19"/>
</a>
</g>
</g>
</g>
</svg>
