<?xml version="1.0" encoding="UTF-8" standalone="no"?>
<!DOCTYPE svg PUBLIC "-//W3C//DTD SVG 1.1//EN"
 "http://www.w3.org/Graphics/SVG/1.1/DTD/svg11.dtd">
<!-- Generated by graphviz version 12.2.0 (20241103.1931)
 -->
<!-- Title: fr.softsf.sudokufx.view.CrashScreenView Pages: 1 -->
<svg width="1453pt" height="556pt"
 viewBox="0.00 0.00 1453.42 556.00" xmlns="http://www.w3.org/2000/svg" xmlns:xlink="http://www.w3.org/1999/xlink">
<g id="graph0" class="graph" transform="scale(1 1) rotate(0) translate(4 552)">
<title>fr.softsf.sudokufx.view.CrashScreenView</title>
<!-- Node1 -->
<g id="Node000001" class="node">
<title>Node1</title>
<g id="a_Node000001"><a xlink:title="View class for the crash screen without business logic.">
<polygon fill="#999999" stroke="none" points="754.5,-340 582,-340 582,0 754.5,0 754.5,-340"/>
<text text-anchor="start" x="617.25" y="-326.5" font-family="Helvetica,sans-Serif" font-size="10.00">fr.softsf.sudokufx.view.</text>
<text text-anchor="start" x="628.88" y="-314.5" font-family="Helvetica,sans-Serif" font-size="10.00">CrashScreenView</text>
<text text-anchor="start" x="587.5" y="-298.5" font-family="Helvetica,sans-Serif" font-size="10.00">&#45;</text>
<text text-anchor="start" x="596" y="-298.5" font-family="Helvetica,sans-Serif" font-size="10.00">double crashScreenFontSize</text>
<text text-anchor="start" x="587.5" y="-282.5" font-family="Helvetica,sans-Serif" font-size="10.00">&#45;</text>
<text text-anchor="start" x="596" y="-282.5" font-family="Helvetica,sans-Serif" font-size="10.00">static final double</text>
<text text-anchor="start" x="596" y="-270.5" font-family="Helvetica,sans-Serif" font-size="10.00"> FADE_IN_IN_SECONDS</text>
<text text-anchor="start" x="596" y="-258.5" font-family="Helvetica,sans-Serif" font-size="10.00">_AFTER_SPLASHSCREEN</text>
<text text-anchor="start" x="586" y="-242.5" font-family="Helvetica,sans-Serif" font-size="10.00">+</text>
<text text-anchor="start" x="596" y="-242.5" font-family="Helvetica,sans-Serif" font-size="10.00">void openingMainStage</text>
<text text-anchor="start" x="596" y="-230.5" font-family="Helvetica,sans-Serif" font-size="10.00">(ISplashScreenView iSplashScreen</text>
<text text-anchor="start" x="596" y="-218.5" font-family="Helvetica,sans-Serif" font-size="10.00">View)</text>
<text text-anchor="start" x="587.5" y="-202.5" font-family="Helvetica,sans-Serif" font-size="10.00">&#45;</text>
<text text-anchor="start" x="596" y="-202.5" font-family="Helvetica,sans-Serif" font-size="10.00">void closeButtonClick()</text>
<text text-anchor="start" x="587.5" y="-186.5" font-family="Helvetica,sans-Serif" font-size="10.00">&#45;</text>
<text text-anchor="start" x="596" y="-186.5" font-family="Helvetica,sans-Serif" font-size="10.00">void createSVG(final</text>
<text text-anchor="start" x="596" y="-174.5" font-family="Helvetica,sans-Serif" font-size="10.00"> Region region, final</text>
<text text-anchor="start" x="596" y="-162.5" font-family="Helvetica,sans-Serif" font-size="10.00"> String path, final double</text>
<text text-anchor="start" x="596" y="-150.5" font-family="Helvetica,sans-Serif" font-size="10.00"> width, final double height,</text>
<text text-anchor="start" x="596" y="-138.5" font-family="Helvetica,sans-Serif" font-size="10.00"> final double offsetX, final</text>
<text text-anchor="start" x="596" y="-126.5" font-family="Helvetica,sans-Serif" font-size="10.00"> double offsetY)</text>
<text text-anchor="start" x="587.5" y="-110.5" font-family="Helvetica,sans-Serif" font-size="10.00">&#45;</text>
<text text-anchor="start" x="596" y="-110.5" font-family="Helvetica,sans-Serif" font-size="10.00">void fadeIn(final Node</text>
<text text-anchor="start" x="596" y="-98.5" font-family="Helvetica,sans-Serif" font-size="10.00"> node)</text>
<text text-anchor="start" x="587.5" y="-82.5" font-family="Helvetica,sans-Serif" font-size="10.00">&#45;</text>
<text text-anchor="start" x="596" y="-82.5" font-family="Helvetica,sans-Serif" font-size="10.00">void hidecrashscreen()</text>
<text text-anchor="start" x="587.5" y="-66.5" font-family="Helvetica,sans-Serif" font-size="10.00">&#45;</text>
<text text-anchor="start" x="596" y="-66.5" font-family="Helvetica,sans-Serif" font-size="10.00">void initialize()</text>
<text text-anchor="start" x="587.5" y="-50.5" font-family="Helvetica,sans-Serif" font-size="10.00">&#45;</text>
<text text-anchor="start" x="596" y="-50.5" font-family="Helvetica,sans-Serif" font-size="10.00">void resetButtonClick()</text>
<text text-anchor="start" x="587.5" y="-34.5" font-family="Helvetica,sans-Serif" font-size="10.00">&#45;</text>
<text text-anchor="start" x="596" y="-34.5" font-family="Helvetica,sans-Serif" font-size="10.00">void setCrashscreenvboxTophbox</text>
<text text-anchor="start" x="596" y="-22.5" font-family="Helvetica,sans-Serif" font-size="10.00">Logosudosvg()</text>
<text text-anchor="start" x="587.5" y="-6.5" font-family="Helvetica,sans-Serif" font-size="10.00">&#45;</text>
<text text-anchor="start" x="596" y="-6.5" font-family="Helvetica,sans-Serif" font-size="10.00">void showcrashscreen()</text>
<polygon fill="#666666" stroke="#666666" points="582,-310 582,-310 754.5,-310 754.5,-310 582,-310"/>
<polygon fill="#666666" stroke="#666666" points="582,-254 582,-254 594,-254 594,-254 582,-254"/>
<polygon fill="#666666" stroke="#666666" points="594,-254 594,-254 754.5,-254 754.5,-254 594,-254"/>
<polygon fill="none" stroke="#666666" points="582,0 582,-340 754.5,-340 754.5,0 582,0"/>
</a>
</g>
</g>
<!-- Node2 -->
<g id="Node000002" class="node">
<title>Node2</title>
<g id="a_Node000002"><a xlink:href="interfacefr_1_1softsf_1_1sudokufx_1_1_sudo_main_1_1_i_primary_stage_view.html" target="_top" xlink:title="Interface for the primary stage view.">
<polygon fill="white" stroke="none" points="172.5,-548 0,-548 0,-460 172.5,-460 172.5,-548"/>
<text text-anchor="start" x="23.25" y="-534.5" font-family="Helvetica,sans-Serif" font-size="10.00">fr.softsf.sudokufx.SudoMain.</text>
<text text-anchor="start" x="44.25" y="-522.5" font-family="Helvetica,sans-Serif" font-size="10.00">IPrimaryStageView</text>
<text text-anchor="start" x="84.75" y="-506.5" font-family="Helvetica,sans-Serif" font-size="10.00"> </text>
<text text-anchor="start" x="4" y="-490.5" font-family="Helvetica,sans-Serif" font-size="10.00">+</text>
<text text-anchor="start" x="14" y="-490.5" font-family="Helvetica,sans-Serif" font-size="10.00">void openingMainStage</text>
<text text-anchor="start" x="14" y="-478.5" font-family="Helvetica,sans-Serif" font-size="10.00">(ISplashScreenView iSplashScreen</text>
<text text-anchor="start" x="14" y="-466.5" font-family="Helvetica,sans-Serif" font-size="10.00">View)</text>
<polygon fill="#666666" stroke="#666666" points="0,-518 0,-518 172.5,-518 172.5,-518 0,-518"/>
<polygon fill="#666666" stroke="#666666" points="0,-502 0,-502 172.5,-502 172.5,-502 0,-502"/>
<polygon fill="none" stroke="#666666" points="0,-460 0,-548 172.5,-548 172.5,-460 0,-460"/>
</a>
</g>
</g>
<!-- Node2&#45;&gt;Node1 -->
<g id="edge1_Node000001_Node000002" class="edge">
<title>Node2&#45;&gt;Node1</title>
<g id="a_edge1_Node000001_Node000002"><a xlink:title=" ">
<path fill="none" stroke="#63b8ff" d="M161.7,-454.03C206.69,-425.29 265.21,-388.7 318.25,-358 406.94,-306.67 510.74,-251.85 582.13,-214.93"/>
<polygon fill="none" stroke="#63b8ff" points="159.84,-451.07 153.3,-459.41 163.61,-456.97 159.84,-451.07"/>
</a>
</g>
</g>
<!-- Node3 -->
<g id="Node000003" class="node">
<title>Node3</title>
<g id="a_Node000003"><a xlink:href="interfacefr_1_1softsf_1_1sudokufx_1_1interfaces_1_1_i_scene_provider.html" target="_top" xlink:title="Interface ISceneProvider.">
<polygon fill="white" stroke="none" points="323.88,-536 190.62,-536 190.62,-472 323.88,-472 323.88,-536"/>
<text text-anchor="start" x="194.62" y="-522.5" font-family="Helvetica,sans-Serif" font-size="10.00">fr.softsf.sudokufx.interfaces.</text>
<text text-anchor="start" x="223.88" y="-510.5" font-family="Helvetica,sans-Serif" font-size="10.00">ISceneProvider</text>
<text text-anchor="start" x="255.75" y="-494.5" font-family="Helvetica,sans-Serif" font-size="10.00"> </text>
<text text-anchor="start" x="195.88" y="-478.5" font-family="Helvetica,sans-Serif" font-size="10.00">+</text>
<text text-anchor="start" x="207.12" y="-478.5" font-family="Helvetica,sans-Serif" font-size="10.00">default Scene getScene()</text>
<polygon fill="#666666" stroke="#666666" points="190.62,-506 190.62,-506 323.88,-506 323.88,-506 190.62,-506"/>
<polygon fill="#666666" stroke="#666666" points="190.62,-490 190.62,-490 323.88,-490 323.88,-490 190.62,-490"/>
<polygon fill="none" stroke="#666666" points="190.62,-472 190.62,-536 323.88,-536 323.88,-472 190.62,-472"/>
</a>
</g>
</g>
<!-- Node3&#45;&gt;Node1 -->
<g id="edge2_Node000001_Node000003" class="edge">
<title>Node3&#45;&gt;Node1</title>
<g id="a_edge2_Node000001_Node000003"><a xlink:title=" ">
<path fill="none" stroke="#63b8ff" d="M295.57,-464.33C325.99,-434.28 370.12,-392.1 411.25,-358 466.16,-312.48 531.13,-265.26 582.01,-229.66"/>
<polygon fill="none" stroke="#63b8ff" points="293.46,-461.49 288.82,-471.02 298.39,-466.46 293.46,-461.49"/>
</a>
</g>
</g>
<!-- Node4 -->
<g id="Node000004" class="node">
<title>Node4</title>
<g id="a_Node000004"><a xlink:href="interfacefr_1_1softsf_1_1sudokufx_1_1interfaces_1_1_i_os_folder_factory.html" target="_top" xlink:title="Interface defining methods to access OS&#45;specific folder paths.">
<polygon fill="white" stroke="none" points="488.75,-544 341.75,-544 341.75,-464 488.75,-464 488.75,-544"/>
<text text-anchor="start" x="352.62" y="-530.5" font-family="Helvetica,sans-Serif" font-size="10.00">fr.softsf.sudokufx.interfaces.</text>
<text text-anchor="start" x="377.38" y="-518.5" font-family="Helvetica,sans-Serif" font-size="10.00">IOsFolderFactory</text>
<text text-anchor="start" x="413.75" y="-502.5" font-family="Helvetica,sans-Serif" font-size="10.00"> </text>
<text text-anchor="start" x="345.75" y="-486.5" font-family="Helvetica,sans-Serif" font-size="10.00">+</text>
<text text-anchor="start" x="355.75" y="-486.5" font-family="Helvetica,sans-Serif" font-size="10.00">String getOsDataFolderPath()</text>
<text text-anchor="start" x="345.75" y="-470.5" font-family="Helvetica,sans-Serif" font-size="10.00">+</text>
<text text-anchor="start" x="355.75" y="-470.5" font-family="Helvetica,sans-Serif" font-size="10.00">String getOsLogsFolderPath()</text>
<polygon fill="#666666" stroke="#666666" points="341.75,-514 341.75,-514 488.75,-514 488.75,-514 341.75,-514"/>
<polygon fill="#666666" stroke="#666666" points="341.75,-498 341.75,-498 488.75,-498 488.75,-498 341.75,-498"/>
<polygon fill="none" stroke="#666666" points="341.75,-464 341.75,-544 488.75,-544 488.75,-464 341.75,-464"/>
</a>
</g>
</g>
<!-- Node4&#45;&gt;Node1 -->
<g id="edge3_Node000001_Node000004" class="edge">
<title>Node4&#45;&gt;Node1</title>
<g id="a_edge3_Node000001_Node000004"><a xlink:title=" ">
<path fill="none" stroke="#63b8ff" d="M413.7,-464.19C414.15,-433.46 418.64,-390.47 437.25,-358 468.74,-303.06 523.12,-257.82 571.21,-225.61"/>
<polygon fill="none" stroke="#63b8ff" points="571.22,-225.61 574.04,-218.97 581.25,-219.02 578.43,-225.66 571.22,-225.61"/>
</a>
</g>
<text text-anchor="middle" x="477.75" y="-396.5" font-family="Helvetica,sans-Serif" font-size="10.00" fill="grey"> &#45;iOsFolderFactory</text>
</g>
<!-- Node5 -->
<g id="Node000005" class="node">
<title>Node5</title>
<g id="a_Node000005"><a xlink:title=" ">
<polygon fill="white" stroke="none" points="540,-530 506.5,-530 506.5,-478 540,-478 540,-530"/>
<text text-anchor="start" x="510.5" y="-516.5" font-family="Helvetica,sans-Serif" font-size="10.00">Stage</text>
<text text-anchor="start" x="521.75" y="-500.5" font-family="Helvetica,sans-Serif" font-size="10.00"> </text>
<text text-anchor="start" x="521.75" y="-484.5" font-family="Helvetica,sans-Serif" font-size="10.00"> </text>
<polygon fill="#666666" stroke="#666666" points="506.5,-512 506.5,-512 540,-512 540,-512 506.5,-512"/>
<polygon fill="#666666" stroke="#666666" points="506.5,-496 506.5,-496 540,-496 540,-496 506.5,-496"/>
<polygon fill="none" stroke="#666666" points="506.5,-478 506.5,-530 540,-530 540,-478 506.5,-478"/>
</a>
</g>
</g>
<!-- Node5&#45;&gt;Node1 -->
<g id="edge4_Node000001_Node000005" class="edge">
<title>Node5&#45;&gt;Node1</title>
<g id="a_edge4_Node000001_Node000005"><a xlink:title=" ">
<path fill="none" stroke="#63b8ff" d="M521.69,-478.03C520.7,-448.44 521.75,-398.09 536.5,-358 545.95,-332.3 559.87,-306.89 575.16,-283.46"/>
<polygon fill="none" stroke="#63b8ff" points="575.09,-283.56 575.1,-276.35 581.77,-273.59 581.75,-280.8 575.09,-283.56"/>
</a>
</g>
<text text-anchor="middle" x="578.88" y="-402.5" font-family="Helvetica,sans-Serif" font-size="10.00" fill="grey"> &#45;crashscreenStage</text>
<text text-anchor="middle" x="578.88" y="-390.5" font-family="Helvetica,sans-Serif" font-size="10.00" fill="grey">&#45;primaryStage</text>
</g>
<!-- Node6 -->
<g id="Node000006" class="node">
<title>Node6</title>
<g id="a_Node000006"><a xlink:title=" ">
<polygon fill="white" stroke="none" points="659.38,-530 595.12,-530 595.12,-478 659.38,-478 659.38,-530"/>
<text text-anchor="start" x="599.12" y="-516.5" font-family="Helvetica,sans-Serif" font-size="10.00">DropShadow</text>
<text text-anchor="start" x="625.75" y="-500.5" font-family="Helvetica,sans-Serif" font-size="10.00"> </text>
<text text-anchor="start" x="625.75" y="-484.5" font-family="Helvetica,sans-Serif" font-size="10.00"> </text>
<polygon fill="#666666" stroke="#666666" points="595.12,-512 595.12,-512 659.38,-512 659.38,-512 595.12,-512"/>
<polygon fill="#666666" stroke="#666666" points="595.12,-496 595.12,-496 659.38,-496 659.38,-496 595.12,-496"/>
<polygon fill="none" stroke="#666666" points="595.12,-478 595.12,-530 659.38,-530 659.38,-478 595.12,-478"/>
</a>
</g>
</g>
<!-- Node6&#45;&gt;Node1 -->
<g id="edge5_Node000001_Node000006" class="edge">
<title>Node6&#45;&gt;Node1</title>
<g id="a_edge5_Node000001_Node000006"><a xlink:title=" ">
<path fill="none" stroke="#63b8ff" d="M625.88,-478.02C624.66,-449.06 623.67,-399.92 628.25,-358 628.44,-356.24 628.64,-354.46 628.86,-352.69"/>
<polygon fill="none" stroke="#63b8ff" points="628.85,-352.75 625.65,-346.29 630.38,-340.85 633.58,-347.31 628.85,-352.75"/>
</a>
</g>
<text text-anchor="middle" x="658.25" y="-396.5" font-family="Helvetica,sans-Serif" font-size="10.00" fill="grey"> &#45;dropShadow</text>
</g>
<!-- Node7 -->
<g id="Node000007" class="node">
<title>Node7</title>
<g id="a_Node000007"><a xlink:title=" ">
<polygon fill="white" stroke="none" points="726.25,-530 694.25,-530 694.25,-478 726.25,-478 726.25,-530"/>
<text text-anchor="start" x="698.25" y="-516.5" font-family="Helvetica,sans-Serif" font-size="10.00">VBox</text>
<text text-anchor="start" x="708.75" y="-500.5" font-family="Helvetica,sans-Serif" font-size="10.00"> </text>
<text text-anchor="start" x="708.75" y="-484.5" font-family="Helvetica,sans-Serif" font-size="10.00"> </text>
<polygon fill="#666666" stroke="#666666" points="694.25,-512 694.25,-512 726.25,-512 726.25,-512 694.25,-512"/>
<polygon fill="#666666" stroke="#666666" points="694.25,-496 694.25,-496 726.25,-496 726.25,-496 694.25,-496"/>
<polygon fill="none" stroke="#666666" points="694.25,-478 694.25,-530 726.25,-530 726.25,-478 694.25,-478"/>
</a>
</g>
</g>
<!-- Node7&#45;&gt;Node1 -->
<g id="edge6_Node000001_Node000007" class="edge">
<title>Node7&#45;&gt;Node1</title>
<g id="a_edge6_Node000001_Node000007"><a xlink:title=" ">
<path fill="none" stroke="#63b8ff" d="M707.09,-478.05C703.56,-450.1 697.49,-402.17 691.2,-352.37"/>
<polygon fill="none" stroke="#63b8ff" points="691.21,-352.49 686.49,-347.03 689.7,-340.58 694.42,-346.03 691.21,-352.49"/>
</a>
</g>
<text text-anchor="middle" x="742.34" y="-396.5" font-family="Helvetica,sans-Serif" font-size="10.00" fill="grey"> &#45;crashscreenvbox</text>
</g>
<!-- Node8 -->
<g id="Node000008" class="node">
<title>Node8</title>
<g id="a_Node000008"><a xlink:title=" ">
<polygon fill="white" stroke="none" points="832.62,-530 793.88,-530 793.88,-478 832.62,-478 832.62,-530"/>
<text text-anchor="start" x="797.88" y="-516.5" font-family="Helvetica,sans-Serif" font-size="10.00">Region</text>
<text text-anchor="start" x="811.75" y="-500.5" font-family="Helvetica,sans-Serif" font-size="10.00"> </text>
<text text-anchor="start" x="811.75" y="-484.5" font-family="Helvetica,sans-Serif" font-size="10.00"> </text>
<polygon fill="#666666" stroke="#666666" points="793.88,-512 793.88,-512 832.62,-512 832.62,-512 793.88,-512"/>
<polygon fill="#666666" stroke="#666666" points="793.88,-496 793.88,-496 832.62,-496 832.62,-496 793.88,-496"/>
<polygon fill="none" stroke="#666666" points="793.88,-478 793.88,-530 832.62,-530 832.62,-478 793.88,-478"/>
</a>
</g>
</g>
<!-- Node8&#45;&gt;Node1 -->
<g id="edge7_Node000001_Node000008" class="edge">
<title>Node8&#45;&gt;Node1</title>
<g id="a_edge7_Node000001_Node000008"><a xlink:title=" ">
<path fill="none" stroke="#63b8ff" d="M811.49,-478.1C808.75,-448.58 802.04,-398.29 786.25,-358 779.17,-339.94 770.3,-321.73 760.6,-304.13"/>
<polygon fill="none" stroke="#63b8ff" points="760.81,-304.49 754.38,-301.23 754.91,-294.04 761.34,-297.3 760.81,-304.49"/>
</a>
</g>
<text text-anchor="middle" x="898.93" y="-396.5" font-family="Helvetica,sans-Serif" font-size="10.00" fill="grey"> &#45;crashscreenvboxTophboxRegionsudosvg</text>
</g>
<!-- Node9 -->
<g id="Node000009" class="node">
<title>Node9</title>
<g id="a_Node000009"><a xlink:title=" ">
<polygon fill="white" stroke="none" points="1036.88,-530 1005.62,-530 1005.62,-478 1036.88,-478 1036.88,-530"/>
<text text-anchor="start" x="1009.62" y="-516.5" font-family="Helvetica,sans-Serif" font-size="10.00">Label</text>
<text text-anchor="start" x="1019.75" y="-500.5" font-family="Helvetica,sans-Serif" font-size="10.00"> </text>
<text text-anchor="start" x="1019.75" y="-484.5" font-family="Helvetica,sans-Serif" font-size="10.00"> </text>
<polygon fill="#666666" stroke="#666666" points="1005.62,-512 1005.62,-512 1036.88,-512 1036.88,-512 1005.62,-512"/>
<polygon fill="#666666" stroke="#666666" points="1005.62,-496 1005.62,-496 1036.88,-496 1036.88,-496 1005.62,-496"/>
<polygon fill="none" stroke="#666666" points="1005.62,-478 1005.62,-530 1036.88,-530 1036.88,-478 1005.62,-478"/>
</a>
</g>
</g>
<!-- Node9&#45;&gt;Node1 -->
<g id="edge8_Node000001_Node000009" class="edge">
<title>Node9&#45;&gt;Node1</title>
<g id="a_edge8_Node000001_Node000009"><a xlink:title=" ">
<path fill="none" stroke="#63b8ff" d="M1022.88,-478.02C1023.63,-447.04 1020.61,-393.95 995.25,-358 940.08,-279.79 841.11,-229.89 766.46,-201.49"/>
<polygon fill="none" stroke="#63b8ff" points="766.33,-201.44 759.31,-203.1 755.08,-197.26 762.1,-195.6 766.33,-201.44"/>
</a>
</g>
<text text-anchor="start" x="1021.54" y="-432.5" font-family="Helvetica,sans-Serif" font-size="10.00" fill="grey"> &#45;crashscreenvboxBottomhbox</text>
<text text-anchor="middle" x="1101.79" y="-420.5" font-family="Helvetica,sans-Serif" font-size="10.00" fill="grey">Versionlabel</text>
<text text-anchor="start" x="1021.54" y="-408.5" font-family="Helvetica,sans-Serif" font-size="10.00" fill="grey">&#45;crashscreenvboxBottomhbox</text>
<text text-anchor="middle" x="1101.79" y="-396.5" font-family="Helvetica,sans-Serif" font-size="10.00" fill="grey">Yearlabel</text>
<text text-anchor="middle" x="1101.79" y="-384.5" font-family="Helvetica,sans-Serif" font-size="10.00" fill="grey">&#45;crashscreenvboxCenterhboxLabel</text>
<text text-anchor="middle" x="1101.79" y="-372.5" font-family="Helvetica,sans-Serif" font-size="10.00" fill="grey">&#45;crashscreenvboxCenterhboxLabel2</text>
<text text-anchor="middle" x="1101.79" y="-360.5" font-family="Helvetica,sans-Serif" font-size="10.00" fill="grey">&#45;crashscreenvboxTophboxNamelabel</text>
</g>
<!-- Node10 -->
<g id="Node000010" class="node">
<title>Node10</title>
<g id="a_Node000010"><a xlink:title=" ">
<polygon fill="white" stroke="none" points="1221.62,-530 1188.88,-530 1188.88,-478 1221.62,-478 1221.62,-530"/>
<text text-anchor="start" x="1192.88" y="-516.5" font-family="Helvetica,sans-Serif" font-size="10.00">HBox</text>
<text text-anchor="start" x="1203.75" y="-500.5" font-family="Helvetica,sans-Serif" font-size="10.00"> </text>
<text text-anchor="start" x="1203.75" y="-484.5" font-family="Helvetica,sans-Serif" font-size="10.00"> </text>
<polygon fill="#666666" stroke="#666666" points="1188.88,-512 1188.88,-512 1221.62,-512 1221.62,-512 1188.88,-512"/>
<polygon fill="#666666" stroke="#666666" points="1188.88,-496 1188.88,-496 1221.62,-496 1221.62,-496 1188.88,-496"/>
<polygon fill="none" stroke="#666666" points="1188.88,-478 1188.88,-530 1221.62,-530 1221.62,-478 1188.88,-478"/>
</a>
</g>
</g>
<!-- Node10&#45;&gt;Node1 -->
<g id="edge9_Node000001_Node000010" class="edge">
<title>Node10&#45;&gt;Node1</title>
<g id="a_edge9_Node000001_Node000010"><a xlink:title=" ">
<path fill="none" stroke="#63b8ff" d="M1204.48,-478.15C1202.86,-441.65 1197.94,-375.92 1183.25,-358 1080.24,-232.31 885.35,-191.09 767.1,-177.58"/>
<polygon fill="none" stroke="#63b8ff" points="766.96,-177.57 760.56,-180.9 755.03,-176.28 761.42,-172.95 766.96,-177.57"/>
</a>
</g>
<text text-anchor="middle" x="1278.87" y="-396.5" font-family="Helvetica,sans-Serif" font-size="10.00" fill="grey"> &#45;crashscreenvboxCenterhboxHbox</text>
</g>
<!-- Node11 -->
<g id="Node000011" class="node">
<title>Node11</title>
<g id="a_Node000011"><a xlink:title=" ">
<polygon fill="white" stroke="none" points="1400.5,-530 1364,-530 1364,-478 1400.5,-478 1400.5,-530"/>
<text text-anchor="start" x="1368" y="-516.5" font-family="Helvetica,sans-Serif" font-size="10.00">Button</text>
<text text-anchor="start" x="1380.75" y="-500.5" font-family="Helvetica,sans-Serif" font-size="10.00"> </text>
<text text-anchor="start" x="1380.75" y="-484.5" font-family="Helvetica,sans-Serif" font-size="10.00"> </text>
<polygon fill="#666666" stroke="#666666" points="1364,-512 1364,-512 1400.5,-512 1400.5,-512 1364,-512"/>
<polygon fill="#666666" stroke="#666666" points="1364,-496 1364,-496 1400.5,-496 1400.5,-496 1364,-496"/>
<polygon fill="none" stroke="#666666" points="1364,-478 1364,-530 1400.5,-530 1400.5,-478 1364,-478"/>
</a>
</g>
</g>
<!-- Node11&#45;&gt;Node1 -->
<g id="edge10_Node000001_Node000011" class="edge">
<title>Node11&#45;&gt;Node1</title>
<g id="a_edge10_Node000001_Node000011"><a xlink:title=" ">
<path fill="none" stroke="#63b8ff" d="M1385.81,-478.05C1388.86,-446.12 1388.89,-390.99 1359.25,-358 1280.44,-270.27 938.73,-209.85 767.22,-184.45"/>
<polygon fill="none" stroke="#63b8ff" points="767.19,-184.45 760.67,-187.54 755.31,-182.71 761.83,-179.62 767.19,-184.45"/>
</a>
</g>
<text text-anchor="middle" x="1416.17" y="-402.5" font-family="Helvetica,sans-Serif" font-size="10.00" fill="grey"> &#45;buttonClose</text>
<text text-anchor="middle" x="1416.17" y="-390.5" font-family="Helvetica,sans-Serif" font-size="10.00" fill="grey">&#45;buttonReset</text>
</g>
</g>
</svg>
