<?xml version="1.0" encoding="UTF-8" standalone="no"?>
<!DOCTYPE svg PUBLIC "-//W3C//DTD SVG 1.1//EN"
 "http://www.w3.org/Graphics/SVG/1.1/DTD/svg11.dtd">
<!-- Generated by graphviz version 12.2.0 (20241103.1931)
 -->
<!-- Title: fr.softsf.sudokufx.utils.I18n Pages: 1 -->
<svg width="206pt" height="268pt"
 viewBox="0.00 0.00 205.95 268.00" xmlns="http://www.w3.org/2000/svg" xmlns:xlink="http://www.w3.org/1999/xlink">
<g id="graph0" class="graph" transform="scale(1 1) rotate(0) translate(4 264)">
<title>fr.softsf.sudokufx.utils.I18n</title>
<!-- Node1 -->
<g id="Node000001" class="node">
<title>Node1</title>
<g id="a_Node000001"><a xlink:title="Utility class for internationalization (i18n) support.">
<polygon fill="#999999" stroke="none" points="138,-136 0,-136 0,0 138,0 138,-136"/>
<text text-anchor="start" x="9.38" y="-122.5" font-family="Helvetica,sans-Serif" font-size="10.00">fr.softsf.sudokufx.utils.I18n</text>
<text text-anchor="start" x="5.5" y="-106.5" font-family="Helvetica,sans-Serif" font-size="10.00">&#45;</text>
<text text-anchor="start" x="14" y="-106.5" font-family="Helvetica,sans-Serif" font-size="10.00">static final String</text>
<text text-anchor="start" x="14" y="-94.5" font-family="Helvetica,sans-Serif" font-size="10.00"> I_18_N_PATH</text>
<text text-anchor="start" x="4" y="-78.5" font-family="Helvetica,sans-Serif" font-size="10.00">+</text>
<text text-anchor="start" x="14" y="-78.5" font-family="Helvetica,sans-Serif" font-size="10.00">static String getLanguage()</text>
<text text-anchor="start" x="4" y="-62.5" font-family="Helvetica,sans-Serif" font-size="10.00">+</text>
<text text-anchor="start" x="14" y="-62.5" font-family="Helvetica,sans-Serif" font-size="10.00">static String getValue</text>
<text text-anchor="start" x="14" y="-50.5" font-family="Helvetica,sans-Serif" font-size="10.00">(final String key)</text>
<text text-anchor="start" x="4" y="-34.5" font-family="Helvetica,sans-Serif" font-size="10.00">+</text>
<text text-anchor="start" x="14" y="-34.5" font-family="Helvetica,sans-Serif" font-size="10.00">static void setLocaleBundle</text>
<text text-anchor="start" x="14" y="-22.5" font-family="Helvetica,sans-Serif" font-size="10.00">(final String i18n)</text>
<text text-anchor="start" x="5.5" y="-6.5" font-family="Helvetica,sans-Serif" font-size="10.00">&#45;</text>
<text text-anchor="start" x="14" y="-6.5" font-family="Helvetica,sans-Serif" font-size="10.00">I18n()</text>
<polygon fill="#666666" stroke="#666666" points="0,-118 0,-118 138,-118 138,-118 0,-118"/>
<polygon fill="#666666" stroke="#666666" points="0,-90 0,-90 12,-90 12,-90 0,-90"/>
<polygon fill="#666666" stroke="#666666" points="12,-90 12,-90 138,-90 138,-90 12,-90"/>
<polygon fill="none" stroke="#666666" points="0,0 0,-136 138,-136 138,0 0,0"/>
</a>
</g>
</g>
<!-- Node2 -->
<g id="Node000002" class="node">
<title>Node2</title>
<g id="a_Node000002"><a xlink:title=" ">
<polygon fill="white" stroke="none" points="43.25,-260 6.75,-260 6.75,-208 43.25,-208 43.25,-260"/>
<text text-anchor="start" x="10.75" y="-246.5" font-family="Helvetica,sans-Serif" font-size="10.00">Locale</text>
<text text-anchor="start" x="23.5" y="-230.5" font-family="Helvetica,sans-Serif" font-size="10.00"> </text>
<text text-anchor="start" x="23.5" y="-214.5" font-family="Helvetica,sans-Serif" font-size="10.00"> </text>
<polygon fill="#666666" stroke="#666666" points="6.75,-242 6.75,-242 43.25,-242 43.25,-242 6.75,-242"/>
<polygon fill="#666666" stroke="#666666" points="6.75,-226 6.75,-226 43.25,-226 43.25,-226 6.75,-226"/>
<polygon fill="none" stroke="#666666" points="6.75,-208 6.75,-260 43.25,-260 43.25,-208 6.75,-208"/>
</a>
</g>
</g>
<!-- Node2&#45;&gt;Node1 -->
<g id="edge1_Node000001_Node000002" class="edge">
<title>Node2&#45;&gt;Node1</title>
<g id="a_edge1_Node000001_Node000002"><a xlink:title=" ">
<path fill="none" stroke="#63b8ff" d="M22.69,-208.08C21.91,-192.35 22.14,-171.72 26.5,-154 26.99,-152 27.54,-150 28.13,-147.99"/>
<polygon fill="none" stroke="#63b8ff" points="28.15,-147.91 26.29,-140.95 32,-136.55 33.87,-143.51 28.15,-147.91"/>
</a>
</g>
<text text-anchor="middle" x="58.75" y="-174.5" font-family="Helvetica,sans-Serif" font-size="10.00" fill="grey"> &#45;LOCALE_EN</text>
<text text-anchor="middle" x="58.75" y="-162.5" font-family="Helvetica,sans-Serif" font-size="10.00" fill="grey">&#45;LOCALE_FR</text>
</g>
<!-- Node3 -->
<g id="Node000003" class="node">
<title>Node3</title>
<g id="a_Node000003"><a xlink:title=" ">
<polygon fill="white" stroke="none" points="153,-260 73,-260 73,-208 153,-208 153,-260"/>
<text text-anchor="start" x="77" y="-246.5" font-family="Helvetica,sans-Serif" font-size="10.00">ResourceBundle</text>
<text text-anchor="start" x="111.5" y="-230.5" font-family="Helvetica,sans-Serif" font-size="10.00"> </text>
<text text-anchor="start" x="111.5" y="-214.5" font-family="Helvetica,sans-Serif" font-size="10.00"> </text>
<polygon fill="#666666" stroke="#666666" points="73,-242 73,-242 153,-242 153,-242 73,-242"/>
<polygon fill="#666666" stroke="#666666" points="73,-226 73,-226 153,-226 153,-226 73,-226"/>
<polygon fill="none" stroke="#666666" points="73,-208 73,-260 153,-260 153,-208 73,-208"/>
</a>
</g>
</g>
<!-- Node3&#45;&gt;Node1 -->
<g id="edge2_Node000001_Node000003" class="edge">
<title>Node3&#45;&gt;Node1</title>
<g id="a_edge2_Node000001_Node000003"><a xlink:title=" ">
<path fill="none" stroke="#63b8ff" d="M106.32,-208.09C101.98,-191.91 96.06,-169.84 90.21,-148.06"/>
<polygon fill="none" stroke="#63b8ff" points="90.23,-148.12 84.81,-143.36 87.12,-136.53 92.54,-141.29 90.23,-148.12"/>
</a>
</g>
<text text-anchor="middle" x="149.57" y="-180.5" font-family="Helvetica,sans-Serif" font-size="10.00" fill="grey"> &#45;ENGLISH_BUNDLE</text>
<text text-anchor="middle" x="149.57" y="-168.5" font-family="Helvetica,sans-Serif" font-size="10.00" fill="grey">&#45;FRENCH_BUNDLE</text>
<text text-anchor="middle" x="149.57" y="-156.5" font-family="Helvetica,sans-Serif" font-size="10.00" fill="grey">&#45;bundle</text>
</g>
</g>
</svg>
