<?xml version="1.0" encoding="UTF-8" standalone="no"?>
<!DOCTYPE svg PUBLIC "-//W3C//DTD SVG 1.1//EN"
 "http://www.w3.org/Graphics/SVG/1.1/DTD/svg11.dtd">
<!-- Generated by graphviz version 12.2.1 (20241206.2353)
 -->
<!-- Title: fr.softsf.sudokufx.configuration.database.keystore.ApplicationKeystore Pages: 1 -->
<!--zoomable 912 -->

<svg id="main" version="1.1" xmlns="http://www.w3.org/2000/svg" xmlns:xlink="http://www.w3.org/1999/xlink" xml:space="preserve" onload="init(evt)">

<style type="text/css"><![CDATA[
.node, .edge {opacity: 0.7;}
.node.selected, .edge.selected {opacity: 1;}
.edge:hover path { stroke: red; }
.edge:hover polygon { stroke: red; fill: red; }
]]></style>

<defs>
  <circle id="rim" cx="0" cy="0" r="7"/>
  <circle id="rim2" cx="0" cy="0" r="3.5"/>
  <g id="zoomPlus">
    <use xlink:href="#rim" fill="#404040"><set attributeName="fill" to="#808080" begin="zoomplus.mouseover" end="zoomplus.mouseout"/></use>
    <path d="M-4,0h8M0,-4v8" fill="none" stroke="white" stroke-width="1.5" pointer-events="none"/>
  </g>
  <g id="zoomMin">
    <use xlink:href="#rim" fill="#404040"><set attributeName="fill" to="#808080" begin="zoomminus.mouseover" end="zoomminus.mouseout"/></use>
    <path d="M-4,0h8" fill="none" stroke="white" stroke-width="1.5" pointer-events="none"/>
  </g>
  <g id="arrowUp" transform="translate(30 24)">
    <use xlink:href="#rim"/>
    <path pointer-events="none" fill="none" stroke="white" stroke-width="1.5" d="M0,-3.0v7 M-2.5,-0.5L0,-3.0L2.5,-0.5"/>
  </g>
  <g id="arrowRight" transform="rotate(90) translate(36 -43)">
    <use xlink:href="#rim"/>
    <path pointer-events="none" fill="none" stroke="white" stroke-width="1.5" d="M0,-3.0v7 M-2.5,-0.5L0,-3.0L2.5,-0.5"/>
  </g>
  <g id="arrowDown" transform="rotate(180) translate(-30 -48)">
    <use xlink:href="#rim"/>
    <path pointer-events="none" fill="none" stroke="white" stroke-width="1.5" d="M0,-3.0v7 M-2.5,-0.5L0,-3.0L2.5,-0.5"/>
  </g>
  <g id="arrowLeft" transform="rotate(270) translate(-36 17)">
    <use xlink:href="#rim"/>
    <path pointer-events="none" fill="none" stroke="white" stroke-width="1.5" d="M0,-3.0v7 M-2.5,-0.5L0,-3.0L2.5,-0.5"/>
  </g>
  <g id="resetDef">
    <use xlink:href="#rim2" fill="#404040"><set attributeName="fill" to="#808080" begin="reset.mouseover" end="reset.mouseout"/></use>
  </g>
</defs>
<script type="application/ecmascript">
var viewWidth = 471;
var viewHeight = 912;
var sectionId = 'dynsection-1';
</script>
<script type="application/ecmascript" xlink:href="svg.min.js"/>
<svg id="graph" class="graph">
<g id="viewport">
<title>fr.softsf.sudokufx.configuration.database.keystore.ApplicationKeystore</title>
<!-- Node1 -->
<g id="Node000001" class="node">
<title>Node1</title>
<g id="a_Node000001"><a xlink:title="Manages the application&#39;s keystore for the secure storage of a symmetric key and database credentials...">
<polygon fill="#999999" stroke="none" points="297.62,-764 68.38,-764 68.38,0 297.62,0 297.62,-764"/>
<text text-anchor="start" x="72.38" y="-750.5" font-family="Helvetica,sans-Serif" font-size="10.00">fr.softsf.sudokufx.configuration.database.keystore.</text>
<text text-anchor="start" x="139.5" y="-738.5" font-family="Helvetica,sans-Serif" font-size="10.00">ApplicationKeystore</text>
<text text-anchor="start" x="80" y="-722.5" font-family="Helvetica,sans-Serif" font-size="10.00">&#45;</text>
<text text-anchor="start" x="94.62" y="-722.5" font-family="Helvetica,sans-Serif" font-size="10.00">IEncryptionService</text>
<text text-anchor="start" x="94.62" y="-710.5" font-family="Helvetica,sans-Serif" font-size="10.00"> iEncryptionService</text>
<text text-anchor="start" x="80" y="-694.5" font-family="Helvetica,sans-Serif" font-size="10.00">&#45;</text>
<text text-anchor="start" x="94.62" y="-694.5" font-family="Helvetica,sans-Serif" font-size="10.00">String keystoreFilePath</text>
<text text-anchor="start" x="80" y="-678.5" font-family="Helvetica,sans-Serif" font-size="10.00">&#45;</text>
<text text-anchor="start" x="94.62" y="-678.5" font-family="Helvetica,sans-Serif" font-size="10.00">KeyStore ks</text>
<text text-anchor="start" x="80" y="-662.5" font-family="Helvetica,sans-Serif" font-size="10.00">&#45;</text>
<text text-anchor="start" x="94.62" y="-662.5" font-family="Helvetica,sans-Serif" font-size="10.00">String password</text>
<text text-anchor="start" x="80" y="-646.5" font-family="Helvetica,sans-Serif" font-size="10.00">&#45;</text>
<text text-anchor="start" x="94.62" y="-646.5" font-family="Helvetica,sans-Serif" font-size="10.00">String username</text>
<text text-anchor="start" x="80" y="-630.5" font-family="Helvetica,sans-Serif" font-size="10.00">&#45;</text>
<text text-anchor="start" x="94.62" y="-630.5" font-family="Helvetica,sans-Serif" font-size="10.00">static final String</text>
<text text-anchor="start" x="94.62" y="-618.5" font-family="Helvetica,sans-Serif" font-size="10.00"> KEYSTORE_FILE_PATH</text>
<text text-anchor="start" x="80" y="-602.5" font-family="Helvetica,sans-Serif" font-size="10.00">&#45;</text>
<text text-anchor="start" x="94.62" y="-602.5" font-family="Helvetica,sans-Serif" font-size="10.00">static final String</text>
<text text-anchor="start" x="94.62" y="-590.5" font-family="Helvetica,sans-Serif" font-size="10.00"> KEYSTORE_PASSWORD_FROM_UUID</text>
<text text-anchor="start" x="80" y="-574.5" font-family="Helvetica,sans-Serif" font-size="10.00">&#45;</text>
<text text-anchor="start" x="94.62" y="-574.5" font-family="Helvetica,sans-Serif" font-size="10.00">static final String</text>
<text text-anchor="start" x="94.62" y="-562.5" font-family="Helvetica,sans-Serif" font-size="10.00"> KEYSTORE_TYPE</text>
<text text-anchor="start" x="80" y="-546.5" font-family="Helvetica,sans-Serif" font-size="10.00">&#45;</text>
<text text-anchor="start" x="94.62" y="-546.5" font-family="Helvetica,sans-Serif" font-size="10.00">static final String</text>
<text text-anchor="start" x="94.62" y="-534.5" font-family="Helvetica,sans-Serif" font-size="10.00"> PASS_ALIAS</text>
<text text-anchor="start" x="80" y="-518.5" font-family="Helvetica,sans-Serif" font-size="10.00">&#45;</text>
<text text-anchor="start" x="94.62" y="-518.5" font-family="Helvetica,sans-Serif" font-size="10.00">static final char[]</text>
<text text-anchor="start" x="94.62" y="-506.5" font-family="Helvetica,sans-Serif" font-size="10.00"> pwdArray</text>
<text text-anchor="start" x="80" y="-490.5" font-family="Helvetica,sans-Serif" font-size="10.00">&#45;</text>
<text text-anchor="start" x="94.62" y="-490.5" font-family="Helvetica,sans-Serif" font-size="10.00">static final String</text>
<text text-anchor="start" x="94.62" y="-478.5" font-family="Helvetica,sans-Serif" font-size="10.00"> SYMMETRIC_KEY_ALIAS</text>
<text text-anchor="start" x="80" y="-462.5" font-family="Helvetica,sans-Serif" font-size="10.00">&#45;</text>
<text text-anchor="start" x="94.62" y="-462.5" font-family="Helvetica,sans-Serif" font-size="10.00">static final String</text>
<text text-anchor="start" x="94.62" y="-450.5" font-family="Helvetica,sans-Serif" font-size="10.00"> USERNAME_ALIAS</text>
<text text-anchor="start" x="78.5" y="-434.5" font-family="Helvetica,sans-Serif" font-size="10.00">+</text>
<text text-anchor="start" x="94.62" y="-434.5" font-family="Helvetica,sans-Serif" font-size="10.00">ApplicationKeystore</text>
<text text-anchor="start" x="94.62" y="-422.5" font-family="Helvetica,sans-Serif" font-size="10.00">(IOsFolderFactory iOsFolder</text>
<text text-anchor="start" x="94.62" y="-410.5" font-family="Helvetica,sans-Serif" font-size="10.00">Factory, GenerateSecret generate</text>
<text text-anchor="start" x="94.62" y="-398.5" font-family="Helvetica,sans-Serif" font-size="10.00">Secret)</text>
<text text-anchor="start" x="78.5" y="-382.5" font-family="Helvetica,sans-Serif" font-size="10.00">+</text>
<text text-anchor="start" x="94.62" y="-382.5" font-family="Helvetica,sans-Serif" font-size="10.00">String getPassword()</text>
<text text-anchor="start" x="78.5" y="-366.5" font-family="Helvetica,sans-Serif" font-size="10.00">+</text>
<text text-anchor="start" x="94.62" y="-366.5" font-family="Helvetica,sans-Serif" font-size="10.00">String getPassword()</text>
<text text-anchor="start" x="78.5" y="-350.5" font-family="Helvetica,sans-Serif" font-size="10.00">+</text>
<text text-anchor="start" x="94.62" y="-350.5" font-family="Helvetica,sans-Serif" font-size="10.00">String getUsername()</text>
<text text-anchor="start" x="78.5" y="-334.5" font-family="Helvetica,sans-Serif" font-size="10.00">+</text>
<text text-anchor="start" x="94.62" y="-334.5" font-family="Helvetica,sans-Serif" font-size="10.00">String getUsername()</text>
<text text-anchor="start" x="78.5" y="-318.5" font-family="Helvetica,sans-Serif" font-size="10.00">+</text>
<text text-anchor="start" x="94.62" y="-318.5" font-family="Helvetica,sans-Serif" font-size="10.00">void setupApplicationKeystore()</text>
<text text-anchor="start" x="78.5" y="-302.5" font-family="Helvetica,sans-Serif" font-size="10.00">+</text>
<text text-anchor="start" x="94.62" y="-302.5" font-family="Helvetica,sans-Serif" font-size="10.00">void setupApplicationKeystore()</text>
<text text-anchor="start" x="78.5" y="-286.5" font-family="Helvetica,sans-Serif" font-size="10.00">~</text>
<text text-anchor="start" x="94.62" y="-286.5" font-family="Helvetica,sans-Serif" font-size="10.00">void setOsFolderFactoryFor</text>
<text text-anchor="start" x="94.62" y="-274.5" font-family="Helvetica,sans-Serif" font-size="10.00">Tests(IOsFolderFactory</text>
<text text-anchor="start" x="94.62" y="-262.5" font-family="Helvetica,sans-Serif" font-size="10.00"> osFolderFactoryP)</text>
<text text-anchor="start" x="80" y="-246.5" font-family="Helvetica,sans-Serif" font-size="10.00">&#45;</text>
<text text-anchor="start" x="94.62" y="-246.5" font-family="Helvetica,sans-Serif" font-size="10.00">void addToKeystore</text>
<text text-anchor="start" x="94.62" y="-234.5" font-family="Helvetica,sans-Serif" font-size="10.00">(final String alias,</text>
<text text-anchor="start" x="94.62" y="-222.5" font-family="Helvetica,sans-Serif" font-size="10.00"> final SecretKey secretKey)</text>
<text text-anchor="start" x="80" y="-206.5" font-family="Helvetica,sans-Serif" font-size="10.00">&#45;</text>
<text text-anchor="start" x="94.62" y="-206.5" font-family="Helvetica,sans-Serif" font-size="10.00">void createOrUpdateKeystore()</text>
<text text-anchor="start" x="80" y="-190.5" font-family="Helvetica,sans-Serif" font-size="10.00">&#45;</text>
<text text-anchor="start" x="94.62" y="-190.5" font-family="Helvetica,sans-Serif" font-size="10.00">void credentials(final</text>
<text text-anchor="start" x="94.62" y="-178.5" font-family="Helvetica,sans-Serif" font-size="10.00"> String alias)</text>
<text text-anchor="start" x="80" y="-162.5" font-family="Helvetica,sans-Serif" font-size="10.00">&#45;</text>
<text text-anchor="start" x="94.62" y="-162.5" font-family="Helvetica,sans-Serif" font-size="10.00">void getCredentials</text>
<text text-anchor="start" x="94.62" y="-150.5" font-family="Helvetica,sans-Serif" font-size="10.00">(final String alias)</text>
<text text-anchor="start" x="80" y="-134.5" font-family="Helvetica,sans-Serif" font-size="10.00">&#45;</text>
<text text-anchor="start" x="94.62" y="-134.5" font-family="Helvetica,sans-Serif" font-size="10.00">void loadKeyStore()</text>
<text text-anchor="start" x="80" y="-118.5" font-family="Helvetica,sans-Serif" font-size="10.00">&#45;</text>
<text text-anchor="start" x="94.62" y="-118.5" font-family="Helvetica,sans-Serif" font-size="10.00">void setCredentials</text>
<text text-anchor="start" x="94.62" y="-106.5" font-family="Helvetica,sans-Serif" font-size="10.00">(final String alias)</text>
<text text-anchor="start" x="80" y="-90.5" font-family="Helvetica,sans-Serif" font-size="10.00">&#45;</text>
<text text-anchor="start" x="94.62" y="-90.5" font-family="Helvetica,sans-Serif" font-size="10.00">void symmetricKey()</text>
<text text-anchor="start" x="80" y="-74.5" font-family="Helvetica,sans-Serif" font-size="10.00">&#45;</text>
<text text-anchor="start" x="94.62" y="-74.5" font-family="Helvetica,sans-Serif" font-size="10.00">void symmetricKeyIsInKeystore()</text>
<text text-anchor="start" x="80" y="-58.5" font-family="Helvetica,sans-Serif" font-size="10.00">&#45;</text>
<text text-anchor="start" x="94.62" y="-58.5" font-family="Helvetica,sans-Serif" font-size="10.00">void symmetricKeyNotInKeystore()</text>
<text text-anchor="start" x="80" y="-42.5" font-family="Helvetica,sans-Serif" font-size="10.00">&#45;</text>
<text text-anchor="start" x="94.62" y="-42.5" font-family="Helvetica,sans-Serif" font-size="10.00">static void writeTheKeystore</text>
<text text-anchor="start" x="94.62" y="-30.5" font-family="Helvetica,sans-Serif" font-size="10.00">(final KeyStore ks, final</text>
<text text-anchor="start" x="94.62" y="-18.5" font-family="Helvetica,sans-Serif" font-size="10.00"> String keystoreFileName,</text>
<text text-anchor="start" x="94.62" y="-6.5" font-family="Helvetica,sans-Serif" font-size="10.00"> final char[] pwdArray)</text>
<polygon fill="#666666" stroke="#666666" points="68.38,-734 68.38,-734 297.62,-734 297.62,-734 68.38,-734"/>
<polygon fill="#666666" stroke="#666666" points="68.38,-446 68.38,-446 92.62,-446 92.62,-446 68.38,-446"/>
<polygon fill="#666666" stroke="#666666" points="92.62,-446 92.62,-446 297.62,-446 297.62,-446 92.62,-446"/>
<polygon fill="none" stroke="#666666" points="68.38,0 68.38,-764 297.62,-764 297.62,0 68.38,0"/>
</a>
</g>
</g>
<!-- Node2 -->
<g id="Node000002" class="node">
<title>Node2</title>
<g id="a_Node000002"><a xlink:title=" ">
<polygon fill="white" stroke="none" points="50,-884 0,-884 0,-832 50,-832 50,-884"/>
<text text-anchor="start" x="4" y="-870.5" font-family="Helvetica,sans-Serif" font-size="10.00">IKeystore</text>
<text text-anchor="start" x="23.5" y="-854.5" font-family="Helvetica,sans-Serif" font-size="10.00"> </text>
<text text-anchor="start" x="23.5" y="-838.5" font-family="Helvetica,sans-Serif" font-size="10.00"> </text>
<polygon fill="#666666" stroke="#666666" points="0,-866 0,-866 50,-866 50,-866 0,-866"/>
<polygon fill="#666666" stroke="#666666" points="0,-850 0,-850 50,-850 50,-850 0,-850"/>
<polygon fill="none" stroke="#666666" points="0,-832 0,-884 50,-884 50,-832 0,-832"/>
</a>
</g>
</g>
<!-- Node2&#45;&gt;Node1 -->
<g id="edge1_Node000001_Node000002" class="edge">
<title>Node2&#45;&gt;Node1</title>
<g id="a_edge1_Node000001_Node000002"><a xlink:title=" ">
<path fill="none" stroke="#63b8ff" d="M36.83,-821.5C44.64,-798.07 55.75,-764.76 68.39,-726.83"/>
<polygon fill="none" stroke="#63b8ff" points="33.59,-820.15 33.75,-830.75 40.23,-822.37 33.59,-820.15"/>
</a>
</g>
</g>
<!-- Node3 -->
<g id="Node000003" class="node">
<title>Node3</title>
<g id="a_Node000003"><a xlink:href="classfr_1_1softsf_1_1sudokufx_1_1configuration_1_1database_1_1keystore_1_1_generate_secret.html" target="_top" xlink:title="Utility class for generating secure passwords using the Passay library.">
<polygon fill="white" stroke="none" points="297.62,-904 68.38,-904 68.38,-812 297.62,-812 297.62,-904"/>
<text text-anchor="start" x="72.38" y="-890.5" font-family="Helvetica,sans-Serif" font-size="10.00">fr.softsf.sudokufx.configuration.database.keystore.</text>
<text text-anchor="start" x="148.88" y="-878.5" font-family="Helvetica,sans-Serif" font-size="10.00">GenerateSecret</text>
<text text-anchor="start" x="181.5" y="-862.5" font-family="Helvetica,sans-Serif" font-size="10.00"> </text>
<text text-anchor="start" x="91.81" y="-846.5" font-family="Helvetica,sans-Serif" font-size="10.00">+</text>
<text text-anchor="start" x="121.25" y="-846.5" font-family="Helvetica,sans-Serif" font-size="10.00">String generatePassaySecret()</text>
<text text-anchor="start" x="93.31" y="-830.5" font-family="Helvetica,sans-Serif" font-size="10.00">&#45;</text>
<text text-anchor="start" x="121.25" y="-830.5" font-family="Helvetica,sans-Serif" font-size="10.00">static CharacterData</text>
<text text-anchor="start" x="121.25" y="-818.5" font-family="Helvetica,sans-Serif" font-size="10.00"> createSpecialChars()</text>
<polygon fill="#666666" stroke="#666666" points="68.38,-874 68.38,-874 297.62,-874 297.62,-874 68.38,-874"/>
<polygon fill="#666666" stroke="#666666" points="68.38,-858 68.38,-858 297.62,-858 297.62,-858 68.38,-858"/>
<polygon fill="none" stroke="#666666" points="68.38,-812 68.38,-904 297.62,-904 297.62,-812 68.38,-812"/>
</a>
</g>
</g>
<!-- Node3&#45;&gt;Node1 -->
<g id="edge2_Node000001_Node000003" class="edge">
<title>Node3&#45;&gt;Node1</title>
<g id="a_edge2_Node000001_Node000003"><a xlink:title=" ">
<path fill="none" stroke="#63b8ff" d="M183,-812.41C183,-801.93 183,-789.92 183,-776.75"/>
<polygon fill="none" stroke="#63b8ff" points="183,-776.67 179,-770.67 183,-764.67 187,-770.67 183,-776.67"/>
</a>
</g>
<text text-anchor="middle" x="219" y="-784.5" font-family="Helvetica,sans-Serif" font-size="10.00" fill="grey"> &#45;generateSecret</text>
</g>
<!-- Node4 -->
<g id="Node000004" class="node">
<title>Node4</title>
<g id="a_Node000004"><a xlink:href="interfacefr_1_1softsf_1_1sudokufx_1_1interfaces_1_1_i_os_folder_factory.html" target="_top" xlink:title="Interface defining methods to access OS&#45;specific folder paths.">
<polygon fill="white" stroke="none" points="462.5,-898 315.5,-898 315.5,-818 462.5,-818 462.5,-898"/>
<text text-anchor="start" x="326.38" y="-884.5" font-family="Helvetica,sans-Serif" font-size="10.00">fr.softsf.sudokufx.interfaces.</text>
<text text-anchor="start" x="351.12" y="-872.5" font-family="Helvetica,sans-Serif" font-size="10.00">IOsFolderFactory</text>
<text text-anchor="start" x="387.5" y="-856.5" font-family="Helvetica,sans-Serif" font-size="10.00"> </text>
<text text-anchor="start" x="319.5" y="-840.5" font-family="Helvetica,sans-Serif" font-size="10.00">+</text>
<text text-anchor="start" x="329.5" y="-840.5" font-family="Helvetica,sans-Serif" font-size="10.00">String getOsDataFolderPath()</text>
<text text-anchor="start" x="319.5" y="-824.5" font-family="Helvetica,sans-Serif" font-size="10.00">+</text>
<text text-anchor="start" x="329.5" y="-824.5" font-family="Helvetica,sans-Serif" font-size="10.00">String getOsLogsFolderPath()</text>
<polygon fill="#666666" stroke="#666666" points="315.5,-868 315.5,-868 462.5,-868 462.5,-868 315.5,-868"/>
<polygon fill="#666666" stroke="#666666" points="315.5,-852 315.5,-852 462.5,-852 462.5,-852 315.5,-852"/>
<polygon fill="none" stroke="#666666" points="315.5,-818 315.5,-898 462.5,-898 462.5,-818 315.5,-818"/>
</a>
</g>
</g>
<!-- Node4&#45;&gt;Node1 -->
<g id="edge3_Node000001_Node000004" class="edge">
<title>Node4&#45;&gt;Node1</title>
<g id="a_edge3_Node000001_Node000004"><a xlink:title=" ">
<path fill="none" stroke="#63b8ff" d="M372.14,-818.21C356.04,-781.16 330.22,-721.74 302.76,-658.57"/>
<polygon fill="none" stroke="#63b8ff" points="302.76,-658.57 296.7,-654.66 297.98,-647.56 304.04,-651.47 302.76,-658.57"/>
</a>
</g>
<text text-anchor="middle" x="399.6" y="-784.5" font-family="Helvetica,sans-Serif" font-size="10.00" fill="grey"> &#45;iOsFolderFactory</text>
</g>
</g>
</svg>

<g id="navigator" transform="translate(0 0)" fill="#404254">
  <rect fill="#f2f5e9" fill-opacity="0.5" stroke="#606060" stroke-width=".5" x="0" y="0" width="60" height="60"/>
  <use id="zoomplus" xlink:href="#zoomPlus" x="17" y="9" onmousedown="handleZoom(evt,'in')"/>
  <use id="zoomminus" xlink:href="#zoomMin" x="42" y="9" onmousedown="handleZoom(evt,'out')"/>
  <use id="reset" xlink:href="#resetDef" x="30" y="36" onmousedown="handleReset()"/>
   <use id="arrowup" xlink:href="#arrowUp" x="0" y="0" onmousedown="handlePan(0,-1)"/>
  <use id="arrowright" xlink:href="#arrowRight" x="0" y="0" onmousedown="handlePan(1,0)"/>
  <use id="arrowdown" xlink:href="#arrowDown" x="0" y="0" onmousedown="handlePan(0,1)"/>
  <use id="arrowleft" xlink:href="#arrowLeft" x="0" y="0" onmousedown="handlePan(-1,0)"/>
</g>
<svg viewBox="0 0 15 15" width="100%" height="30px" preserveAspectRatio="xMaxYMin meet">
 <g id="arrow_out" transform="scale(0.3 0.3)">
  <a xlink:href="classfr_1_1softsf_1_1sudokufx_1_1configuration_1_1database_1_1keystore_1_1_application_keystore__coll__graph_org.svg" target="_base">
   <rect id="button" ry="5" rx="5" y="6" x="6" height="38" width="38"
        fill="#f2f5e9" fill-opacity="0.5" stroke="#606060" stroke-width="1.0"/>
   <path id="arrow"
     d="M 11.500037,31.436501 C 11.940474,20.09759 22.043105,11.32322 32.158766,21.979434 L 37.068811,17.246167 C 37.068811,17.246167 37.088388,32 37.088388,32 L 22.160133,31.978069 C 22.160133,31.978069 26.997745,27.140456 26.997745,27.140456 C 18.528582,18.264221 13.291696,25.230495 11.500037,31.436501 z"
     style="fill:#404040;"/>
  </a>
 </g>
</svg>

<style type='text/css'>
<![CDATA[
[data-mouse-over-selected='false'] { opacity: 0.7; }
[data-mouse-over-selected='true']  { opacity: 1.0; }
]]>
</style>
<script type="application/ecmascript"><![CDATA[
document.addEventListener('DOMContentLoaded', (event) => {
  highlightEdges();
  highlightAdjacentNodes();
});
]]></script>
</svg>
