<?xml version="1.0" encoding="UTF-8" standalone="no"?>
<!DOCTYPE svg PUBLIC "-//W3C//DTD SVG 1.1//EN"
 "http://www.w3.org/Graphics/SVG/1.1/DTD/svg11.dtd">
<!-- Generated by graphviz version 12.2.0 (20241103.1931)
 -->
<!-- Title: fr.softsf.sudokufx.view.FullMenuView.onHelloButtonClick Pages: 1 -->
<svg width="1060pt" height="290pt"
 viewBox="0.00 0.00 1060.00 290.00" xmlns="http://www.w3.org/2000/svg" xmlns:xlink="http://www.w3.org/1999/xlink">
<g id="graph0" class="graph" transform="scale(1 1) rotate(0) translate(4 286)">
<title>fr.softsf.sudokufx.view.FullMenuView.onHelloButtonClick</title>
<!-- Node1 -->
<g id="Node000001" class="node">
<title>Node1</title>
<g id="a_Node000001"><a xlink:title="Handles the click event of the Hello button.">
<polygon fill="#999999" stroke="#666666" points="163.75,-182 0,-182 0,-150 163.75,-150 163.75,-182"/>
<text text-anchor="start" x="8" y="-168.5" font-family="Helvetica,sans-Serif" font-size="10.00">fr.softsf.sudokufx.view.</text>
<text text-anchor="middle" x="81.88" y="-156.5" font-family="Helvetica,sans-Serif" font-size="10.00">FullMenuView.onHelloButtonClick</text>
</a>
</g>
</g>
<!-- Node2 -->
<g id="Node000002" class="node">
<title>Node2</title>
<g id="a_Node000002"><a xlink:href="classfr_1_1softsf_1_1sudokufx_1_1view_1_1components_1_1_toaster_v_box.html#a1b19810ab82b9dcac03ec0b5872716d3" target="_top" xlink:title="Adds a toast notification with an automatically calculated duration based on text length.">
<polygon fill="white" stroke="#666666" points="374,-182 199.75,-182 199.75,-150 374,-150 374,-182"/>
<text text-anchor="start" x="207.75" y="-168.5" font-family="Helvetica,sans-Serif" font-size="10.00">fr.softsf.sudokufx.view.components.</text>
<text text-anchor="middle" x="286.88" y="-156.5" font-family="Helvetica,sans-Serif" font-size="10.00">ToasterVBox.addToast</text>
</a>
</g>
</g>
<!-- Node1&#45;&gt;Node2 -->
<g id="edge1_Node000001_Node000002" class="edge">
<title>Node1&#45;&gt;Node2</title>
<g id="a_edge1_Node000001_Node000002"><a xlink:title=" ">
<path fill="none" stroke="#63b8ff" d="M163.98,-166C171.94,-166 180.07,-166 188.17,-166"/>
<polygon fill="#63b8ff" stroke="#63b8ff" points="188.06,-169.5 198.06,-166 188.06,-162.5 188.06,-169.5"/>
</a>
</g>
</g>
<!-- Node8 -->
<g id="Node000008" class="node">
<title>Node8</title>
<g id="a_Node000008"><a xlink:href="classfr_1_1softsf_1_1sudokufx_1_1view_1_1components_1_1_toaster_v_box.html#ab87668da59b32d671cd3cca8975382f0" target="_top" xlink:title="Adds a toast notification with a specified duration.">
<polygon fill="white" stroke="#666666" points="374,-232 199.75,-232 199.75,-200 374,-200 374,-232"/>
<text text-anchor="start" x="207.75" y="-218.5" font-family="Helvetica,sans-Serif" font-size="10.00">fr.softsf.sudokufx.view.components.</text>
<text text-anchor="middle" x="286.88" y="-206.5" font-family="Helvetica,sans-Serif" font-size="10.00">ToasterVBox.addToastWithDuration</text>
</a>
</g>
</g>
<!-- Node1&#45;&gt;Node8 -->
<g id="edge7_Node000001_Node000008" class="edge">
<title>Node1&#45;&gt;Node8</title>
<g id="a_edge7_Node000001_Node000008"><a xlink:title=" ">
<path fill="none" stroke="#63b8ff" d="M149.63,-182.44C168.27,-187.03 188.69,-192.06 207.92,-196.8"/>
<polygon fill="#63b8ff" stroke="#63b8ff" points="207.07,-200.19 217.61,-199.19 208.74,-193.4 207.07,-200.19"/>
</a>
</g>
</g>
<!-- Node9 -->
<g id="Node000009" class="node">
<title>Node9</title>
<g id="a_Node000009"><a xlink:href="classfr_1_1softsf_1_1sudokufx_1_1viewmodel_1_1_full_menu_view_model.html#a2eca0432ba5e82eeea338615f06d5eea" target="_top" xlink:title=" ">
<polygon fill="white" stroke="#666666" points="359.38,-107 214.38,-107 214.38,-75 359.38,-75 359.38,-107"/>
<text text-anchor="start" x="222.38" y="-93.5" font-family="Helvetica,sans-Serif" font-size="10.00">fr.softsf.sudokufx.viewmodel.</text>
<text text-anchor="middle" x="286.88" y="-81.5" font-family="Helvetica,sans-Serif" font-size="10.00">FullMenuViewModel.test</text>
</a>
</g>
</g>
<!-- Node1&#45;&gt;Node9 -->
<g id="edge11_Node000001_Node000009" class="edge">
<title>Node1&#45;&gt;Node9</title>
<g id="a_edge11_Node000001_Node000009"><a xlink:title=" ">
<path fill="none" stroke="#63b8ff" d="M127.42,-149.54C157.83,-138.31 198.33,-123.35 230.76,-111.36"/>
<polygon fill="#63b8ff" stroke="#63b8ff" points="231.84,-114.69 240.01,-107.95 229.42,-108.13 231.84,-114.69"/>
</a>
</g>
</g>
<!-- Node3 -->
<g id="Node000003" class="node">
<title>Node3</title>
<g id="a_Node000003"><a xlink:href="classfr_1_1softsf_1_1sudokufx_1_1view_1_1components_1_1_toaster_v_box.html#a7defa217c0655eafd9f2e17e82165097" target="_top" xlink:title="Sets the accessibility text for the toast based on its level.">
<polygon fill="white" stroke="#666666" points="584.62,-282 410.38,-282 410.38,-250 584.62,-250 584.62,-282"/>
<text text-anchor="start" x="418.38" y="-268.5" font-family="Helvetica,sans-Serif" font-size="10.00">fr.softsf.sudokufx.view.components.</text>
<text text-anchor="middle" x="497.5" y="-256.5" font-family="Helvetica,sans-Serif" font-size="10.00">ToasterVBox.setAccessibility</text>
</a>
</g>
</g>
<!-- Node2&#45;&gt;Node3 -->
<g id="edge2_Node000002_Node000003" class="edge">
<title>Node2&#45;&gt;Node3</title>
<g id="a_edge2_Node000002_Node000003"><a xlink:title=" ">
<path fill="none" stroke="#63b8ff" d="M359.22,-182.49C364.43,-184.95 369.42,-187.77 374,-191 396.37,-206.79 387.62,-225.22 410,-241 411.58,-242.11 413.21,-243.18 414.88,-244.2"/>
<polygon fill="#63b8ff" stroke="#63b8ff" points="413.04,-247.18 423.51,-248.81 416.34,-241.01 413.04,-247.18"/>
</a>
</g>
</g>
<!-- Node6 -->
<g id="Node000006" class="node">
<title>Node6</title>
<g id="a_Node000006"><a xlink:href="classfr_1_1softsf_1_1sudokufx_1_1view_1_1components_1_1_toaster_v_box.html#af3cb545c1c6451f4d2d58f6adf039f7f" target="_top" xlink:title="Sets the style of the toast based on its level.">
<polygon fill="white" stroke="#666666" points="584.62,-232 410.38,-232 410.38,-200 584.62,-200 584.62,-232"/>
<text text-anchor="start" x="418.38" y="-218.5" font-family="Helvetica,sans-Serif" font-size="10.00">fr.softsf.sudokufx.view.components.</text>
<text text-anchor="middle" x="497.5" y="-206.5" font-family="Helvetica,sans-Serif" font-size="10.00">ToasterVBox.setToastStyle</text>
</a>
</g>
</g>
<!-- Node2&#45;&gt;Node6 -->
<g id="edge5_Node000002_Node000006" class="edge">
<title>Node2&#45;&gt;Node6</title>
<g id="a_edge5_Node000002_Node000006"><a xlink:title=" ">
<path fill="none" stroke="#63b8ff" d="M356.48,-182.44C375.73,-187.05 396.82,-192.11 416.66,-196.87"/>
<polygon fill="#63b8ff" stroke="#63b8ff" points="415.85,-200.27 426.39,-199.2 417.48,-193.46 415.85,-200.27"/>
</a>
</g>
</g>
<!-- Node7 -->
<g id="Node000007" class="node">
<title>Node7</title>
<g id="a_Node000007"><a xlink:href="classfr_1_1softsf_1_1sudokufx_1_1view_1_1components_1_1_toaster_v_box.html#a42c18c25aa73214c9c2d309a96efbcba" target="_top" xlink:title="Sets a timer to automatically remove the toast after a specified duration.">
<polygon fill="white" stroke="#666666" points="584.62,-182 410.38,-182 410.38,-150 584.62,-150 584.62,-182"/>
<text text-anchor="start" x="418.38" y="-168.5" font-family="Helvetica,sans-Serif" font-size="10.00">fr.softsf.sudokufx.view.components.</text>
<text text-anchor="middle" x="497.5" y="-156.5" font-family="Helvetica,sans-Serif" font-size="10.00">ToasterVBox.temporizeToast</text>
</a>
</g>
</g>
<!-- Node2&#45;&gt;Node7 -->
<g id="edge6_Node000002_Node000007" class="edge">
<title>Node2&#45;&gt;Node7</title>
<g id="a_edge6_Node000002_Node000007"><a xlink:title=" ">
<path fill="none" stroke="#63b8ff" d="M374.24,-166C382.31,-166 390.54,-166 398.71,-166"/>
<polygon fill="#63b8ff" stroke="#63b8ff" points="398.69,-169.5 408.69,-166 398.69,-162.5 398.69,-169.5"/>
</a>
</g>
</g>
<!-- Node4 -->
<g id="Node000004" class="node">
<title>Node4</title>
<g id="a_Node000004"><a xlink:href="classfr_1_1softsf_1_1sudokufx_1_1view_1_1components_1_1_toaster_v_box.html#a4b5a9581798c4700253d244f3e09cb57" target="_top" xlink:title="Retrieves the information text corresponding to the specified toast level.">
<polygon fill="white" stroke="#666666" points="797.5,-282 623.25,-282 623.25,-250 797.5,-250 797.5,-282"/>
<text text-anchor="start" x="631.25" y="-268.5" font-family="Helvetica,sans-Serif" font-size="10.00">fr.softsf.sudokufx.view.components.</text>
<text text-anchor="middle" x="710.38" y="-256.5" font-family="Helvetica,sans-Serif" font-size="10.00">ToasterVBox.getToastInfo</text>
</a>
</g>
</g>
<!-- Node3&#45;&gt;Node4 -->
<g id="edge3_Node000003_Node000004" class="edge">
<title>Node3&#45;&gt;Node4</title>
<g id="a_edge3_Node000003_Node000004"><a xlink:title=" ">
<path fill="none" stroke="#63b8ff" d="M584.88,-266C593.68,-266 602.66,-266 611.56,-266"/>
<polygon fill="#63b8ff" stroke="#63b8ff" points="611.28,-269.5 621.28,-266 611.28,-262.5 611.28,-269.5"/>
</a>
</g>
</g>
<!-- Node5 -->
<g id="Node000005" class="node">
<title>Node5</title>
<g id="a_Node000005"><a xlink:href="classfr_1_1softsf_1_1sudokufx_1_1utils_1_1_i18n.html#a7095fa285a498c3f20bf33488a69d22c" target="_top" xlink:title="Retrieves the localized string value for a given key.">
<polygon fill="white" stroke="#666666" points="1002.12,-282 885.62,-282 885.62,-250 1002.12,-250 1002.12,-282"/>
<text text-anchor="start" x="893.62" y="-268.5" font-family="Helvetica,sans-Serif" font-size="10.00">fr.softsf.sudokufx.utils.</text>
<text text-anchor="middle" x="943.88" y="-256.5" font-family="Helvetica,sans-Serif" font-size="10.00">I18n.getValue</text>
</a>
</g>
</g>
<!-- Node4&#45;&gt;Node5 -->
<g id="edge4_Node000004_Node000005" class="edge">
<title>Node4&#45;&gt;Node5</title>
<g id="a_edge4_Node000004_Node000005"><a xlink:title=" ">
<path fill="none" stroke="#63b8ff" d="M797.91,-266C822.96,-266 849.97,-266 873.8,-266"/>
<polygon fill="#63b8ff" stroke="#63b8ff" points="873.71,-269.5 883.71,-266 873.71,-262.5 873.71,-269.5"/>
</a>
</g>
</g>
<!-- Node8&#45;&gt;Node3 -->
<g id="edge8_Node000008_Node000003" class="edge">
<title>Node8&#45;&gt;Node3</title>
<g id="a_edge8_Node000008_Node000003"><a xlink:title=" ">
<path fill="none" stroke="#63b8ff" d="M356.48,-232.44C375.73,-237.05 396.82,-242.11 416.66,-246.87"/>
<polygon fill="#63b8ff" stroke="#63b8ff" points="415.85,-250.27 426.39,-249.2 417.48,-243.46 415.85,-250.27"/>
</a>
</g>
</g>
<!-- Node8&#45;&gt;Node6 -->
<g id="edge9_Node000008_Node000006" class="edge">
<title>Node8&#45;&gt;Node6</title>
<g id="a_edge9_Node000008_Node000006"><a xlink:title=" ">
<path fill="none" stroke="#63b8ff" d="M374.24,-216C382.31,-216 390.54,-216 398.71,-216"/>
<polygon fill="#63b8ff" stroke="#63b8ff" points="398.69,-219.5 408.69,-216 398.69,-212.5 398.69,-219.5"/>
</a>
</g>
</g>
<!-- Node8&#45;&gt;Node7 -->
<g id="edge10_Node000008_Node000007" class="edge">
<title>Node8&#45;&gt;Node7</title>
<g id="a_edge10_Node000008_Node000007"><a xlink:title=" ">
<path fill="none" stroke="#63b8ff" d="M356.48,-199.56C375.73,-194.95 396.82,-189.89 416.66,-185.13"/>
<polygon fill="#63b8ff" stroke="#63b8ff" points="417.48,-188.54 426.39,-182.8 415.85,-181.73 417.48,-188.54"/>
</a>
</g>
</g>
<!-- Node10 -->
<g id="Node000010" class="node">
<title>Node10</title>
<g id="a_Node000010"><a xlink:href="classfr_1_1softsf_1_1sudokufx_1_1viewmodel_1_1_full_menu_view_model.html#adce6b8020bad713a5457f19529475669" target="_top" xlink:title=" ">
<polygon fill="white" stroke="#666666" points="583.88,-132 411.12,-132 411.12,-100 583.88,-100 583.88,-132"/>
<text text-anchor="start" x="419.12" y="-118.5" font-family="Helvetica,sans-Serif" font-size="10.00">fr.softsf.sudokufx.viewmodel.</text>
<text text-anchor="middle" x="497.5" y="-106.5" font-family="Helvetica,sans-Serif" font-size="10.00">FullMenuViewModel.createSoftware</text>
</a>
</g>
</g>
<!-- Node9&#45;&gt;Node10 -->
<g id="edge12_Node000009_Node000010" class="edge">
<title>Node9&#45;&gt;Node10</title>
<g id="a_edge12_Node000009_Node000010"><a xlink:title=" ">
<path fill="none" stroke="#63b8ff" d="M359.67,-99.6C372.56,-101.15 386.19,-102.78 399.65,-104.39"/>
<polygon fill="#63b8ff" stroke="#63b8ff" points="399.05,-107.85 409.4,-105.56 399.89,-100.9 399.05,-107.85"/>
</a>
</g>
</g>
<!-- Node14 -->
<g id="Node000014" class="node">
<title>Node14</title>
<g id="a_Node000014"><a xlink:href="classfr_1_1softsf_1_1sudokufx_1_1service_1_1_software_service.html#a19dc59ca2cea75458d2d0a92ada59b34" target="_top" xlink:title=" ">
<polygon fill="white" stroke="#666666" points="569.25,-32 425.75,-32 425.75,0 569.25,0 569.25,-32"/>
<text text-anchor="start" x="433.75" y="-18.5" font-family="Helvetica,sans-Serif" font-size="10.00">fr.softsf.sudokufx.service.</text>
<text text-anchor="middle" x="497.5" y="-6.5" font-family="Helvetica,sans-Serif" font-size="10.00">SoftwareService.getSoftware</text>
</a>
</g>
</g>
<!-- Node9&#45;&gt;Node14 -->
<g id="edge16_Node000009_Node000014" class="edge">
<title>Node9&#45;&gt;Node14</title>
<g id="a_edge16_Node000009_Node000014"><a xlink:title=" ">
<path fill="none" stroke="#63b8ff" d="M325.16,-74.52C349.14,-64.22 381.11,-51.05 410,-41 415.08,-39.23 420.37,-37.48 425.7,-35.79"/>
<polygon fill="#63b8ff" stroke="#63b8ff" points="426.72,-39.14 435.23,-32.83 424.64,-32.45 426.72,-39.14"/>
</a>
</g>
</g>
<!-- Node16 -->
<g id="Node000016" class="node">
<title>Node16</title>
<g id="a_Node000016"><a xlink:href="classfr_1_1softsf_1_1sudokufx_1_1viewmodel_1_1_full_menu_view_model.html#abeb58caaac8ee5464bb0f851c94992f4" target="_top" xlink:title=" ">
<polygon fill="white" stroke="#666666" points="585,-82 410,-82 410,-50 585,-50 585,-82"/>
<text text-anchor="start" x="418" y="-68.5" font-family="Helvetica,sans-Serif" font-size="10.00">fr.softsf.sudokufx.viewmodel.</text>
<text text-anchor="middle" x="497.5" y="-56.5" font-family="Helvetica,sans-Serif" font-size="10.00">FullMenuViewModel.updateSoftware</text>
</a>
</g>
</g>
<!-- Node9&#45;&gt;Node16 -->
<g id="edge18_Node000009_Node000016" class="edge">
<title>Node9&#45;&gt;Node16</title>
<g id="a_edge18_Node000009_Node000016"><a xlink:title=" ">
<path fill="none" stroke="#63b8ff" d="M359.67,-82.4C372.16,-80.9 385.34,-79.32 398.39,-77.76"/>
<polygon fill="#63b8ff" stroke="#63b8ff" points="398.79,-81.23 408.3,-76.57 397.96,-74.28 398.79,-81.23"/>
</a>
</g>
</g>
<!-- Node11 -->
<g id="Node000011" class="node">
<title>Node11</title>
<g id="a_Node000011"><a xlink:href="classfr_1_1softsf_1_1sudokufx_1_1service_1_1_software_service.html#a74d93b9d4144d91d01a4b02369265f0f" target="_top" xlink:title=" ">
<polygon fill="white" stroke="#666666" points="790,-132 630.75,-132 630.75,-100 790,-100 790,-132"/>
<text text-anchor="start" x="638.75" y="-118.5" font-family="Helvetica,sans-Serif" font-size="10.00">fr.softsf.sudokufx.service.</text>
<text text-anchor="middle" x="710.38" y="-106.5" font-family="Helvetica,sans-Serif" font-size="10.00">SoftwareService.updateSoftware</text>
</a>
</g>
</g>
<!-- Node10&#45;&gt;Node11 -->
<g id="edge13_Node000010_Node000011" class="edge">
<title>Node10&#45;&gt;Node11</title>
<g id="a_edge13_Node000010_Node000011"><a xlink:title=" ">
<path fill="none" stroke="#63b8ff" d="M584.27,-116C595.73,-116 607.51,-116 619.05,-116"/>
<polygon fill="#63b8ff" stroke="#63b8ff" points="618.96,-119.5 628.96,-116 618.96,-112.5 618.96,-119.5"/>
</a>
</g>
</g>
<!-- Node12 -->
<g id="Node000012" class="node">
<title>Node12</title>
<g id="a_Node000012"><a xlink:href="interfacefr_1_1softsf_1_1sudokufx_1_1interfaces_1_1mapper_1_1_i_software_mapper.html#a85adc191251bde9870609d4b2cb23ee6" target="_top" xlink:title="Maps a SoftwareDto object to a Software object.">
<polygon fill="white" stroke="#666666" points="1052,-182 835.75,-182 835.75,-150 1052,-150 1052,-182"/>
<text text-anchor="start" x="843.75" y="-168.5" font-family="Helvetica,sans-Serif" font-size="10.00">fr.softsf.sudokufx.interfaces.mapper.</text>
<text text-anchor="middle" x="943.88" y="-156.5" font-family="Helvetica,sans-Serif" font-size="10.00">ISoftwareMapper.mapSoftwareDtoToSoftware</text>
</a>
</g>
</g>
<!-- Node11&#45;&gt;Node12 -->
<g id="edge14_Node000011_Node000012" class="edge">
<title>Node11&#45;&gt;Node12</title>
<g id="a_edge14_Node000011_Node000012"><a xlink:title=" ">
<path fill="none" stroke="#63b8ff" d="M787.5,-132.44C809.26,-137.14 833.14,-142.3 855.51,-147.13"/>
<polygon fill="#63b8ff" stroke="#63b8ff" points="854.71,-150.54 865.23,-149.23 856.19,-143.7 854.71,-150.54"/>
</a>
</g>
</g>
<!-- Node13 -->
<g id="Node000013" class="node">
<title>Node13</title>
<g id="a_Node000013"><a xlink:href="interfacefr_1_1softsf_1_1sudokufx_1_1interfaces_1_1mapper_1_1_i_software_mapper.html#addc8516cb5cc6171c663e132d5fdddd6" target="_top" xlink:title="Maps a Software object to a SoftwareDto object.">
<polygon fill="white" stroke="#666666" points="1032.5,-132 855.25,-132 855.25,-100 1032.5,-100 1032.5,-132"/>
<text text-anchor="start" x="863.25" y="-118.5" font-family="Helvetica,sans-Serif" font-size="10.00">fr.softsf.sudokufx.interfaces.mapper.</text>
<text text-anchor="middle" x="943.88" y="-106.5" font-family="Helvetica,sans-Serif" font-size="10.00">ISoftwareMapper.mapSoftwareToDto</text>
</a>
</g>
</g>
<!-- Node11&#45;&gt;Node13 -->
<g id="edge15_Node000011_Node000013" class="edge">
<title>Node11&#45;&gt;Node13</title>
<g id="a_edge15_Node000011_Node000013"><a xlink:title=" ">
<path fill="none" stroke="#63b8ff" d="M790.4,-116C807.56,-116 825.93,-116 843.76,-116"/>
<polygon fill="#63b8ff" stroke="#63b8ff" points="843.56,-119.5 853.56,-116 843.56,-112.5 843.56,-119.5"/>
</a>
</g>
</g>
<!-- Node15 -->
<g id="Node000015" class="node">
<title>Node15</title>
<g id="a_Node000015"><a xlink:href="interfacefr_1_1softsf_1_1sudokufx_1_1repository_1_1_software_repository.html#ae83142c4226c94b3b24f050848ae74c4" target="_top" xlink:title=" ">
<polygon fill="white" stroke="#666666" points="799.75,-32 621,-32 621,0 799.75,0 799.75,-32"/>
<text text-anchor="start" x="629" y="-18.5" font-family="Helvetica,sans-Serif" font-size="10.00">fr.softsf.sudokufx.repository.</text>
<text text-anchor="middle" x="710.38" y="-6.5" font-family="Helvetica,sans-Serif" font-size="10.00">SoftwareRepository.findFirstSoftware</text>
</a>
</g>
</g>
<!-- Node14&#45;&gt;Node15 -->
<g id="edge17_Node000014_Node000015" class="edge">
<title>Node14&#45;&gt;Node15</title>
<g id="a_edge17_Node000014_Node000015"><a xlink:title=" ">
<path fill="none" stroke="#63b8ff" d="M569.6,-16C582.4,-16 595.95,-16 609.39,-16"/>
<polygon fill="#63b8ff" stroke="#63b8ff" points="609.11,-19.5 619.11,-16 609.11,-12.5 609.11,-19.5"/>
</a>
</g>
</g>
<!-- Node16&#45;&gt;Node11 -->
<g id="edge21_Node000016_Node000011" class="edge">
<title>Node16&#45;&gt;Node11</title>
<g id="a_edge21_Node000016_Node000011"><a xlink:title=" ">
<path fill="none" stroke="#63b8ff" d="M567.84,-82.44C587.39,-87.08 608.82,-92.16 628.96,-96.93"/>
<polygon fill="#63b8ff" stroke="#63b8ff" points="627.98,-100.3 638.52,-99.2 629.6,-93.49 627.98,-100.3"/>
</a>
</g>
</g>
<!-- Node17 -->
<g id="Node000017" class="node">
<title>Node17</title>
<g id="a_Node000017"><a xlink:href="classfr_1_1softsf_1_1sudokufx_1_1viewmodel_1_1_full_menu_view_model.html#a99e8ff186f421e303199bb273f082c40" target="_top" xlink:title=" ">
<polygon fill="white" stroke="#666666" points="790.75,-82 630,-82 630,-50 790.75,-50 790.75,-82"/>
<text text-anchor="start" x="638" y="-68.5" font-family="Helvetica,sans-Serif" font-size="10.00">fr.softsf.sudokufx.viewmodel.</text>
<text text-anchor="middle" x="710.38" y="-56.5" font-family="Helvetica,sans-Serif" font-size="10.00">FullMenuViewModel.setWelcome</text>
</a>
</g>
</g>
<!-- Node16&#45;&gt;Node17 -->
<g id="edge19_Node000016_Node000017" class="edge">
<title>Node16&#45;&gt;Node17</title>
<g id="a_edge19_Node000016_Node000017"><a xlink:title=" ">
<path fill="none" stroke="#63b8ff" d="M585.49,-66C596.35,-66 607.48,-66 618.4,-66"/>
<polygon fill="#63b8ff" stroke="#63b8ff" points="618.17,-69.5 628.17,-66 618.17,-62.5 618.17,-69.5"/>
</a>
</g>
</g>
<!-- Node18 -->
<g id="Node000018" class="node">
<title>Node18</title>
<g id="a_Node000018"><a xlink:href="classfr_1_1softsf_1_1sudokufx_1_1viewmodel_1_1_full_menu_view_model.html#a574eda9c01df428c38524cc5acf49fbf" target="_top" xlink:title=" ">
<polygon fill="white" stroke="#666666" points="1035.12,-82 852.62,-82 852.62,-50 1035.12,-50 1035.12,-82"/>
<text text-anchor="start" x="860.62" y="-68.5" font-family="Helvetica,sans-Serif" font-size="10.00">fr.softsf.sudokufx.viewmodel.</text>
<text text-anchor="middle" x="943.88" y="-56.5" font-family="Helvetica,sans-Serif" font-size="10.00">FullMenuViewModel.welcomeProperty</text>
</a>
</g>
</g>
<!-- Node17&#45;&gt;Node18 -->
<g id="edge20_Node000017_Node000018" class="edge">
<title>Node17&#45;&gt;Node18</title>
<g id="a_edge20_Node000017_Node000018"><a xlink:title=" ">
<path fill="none" stroke="#63b8ff" d="M791.04,-66C807.09,-66 824.16,-66 840.85,-66"/>
<polygon fill="#63b8ff" stroke="#63b8ff" points="840.81,-69.5 850.81,-66 840.81,-62.5 840.81,-69.5"/>
</a>
</g>
</g>
</g>
</svg>
