<?xml version="1.0" encoding="UTF-8" standalone="no"?>
<!DOCTYPE svg PUBLIC "-//W3C//DTD SVG 1.1//EN"
 "http://www.w3.org/Graphics/SVG/1.1/DTD/svg11.dtd">
<!-- Generated by graphviz version 12.2.1 (20241206.2353)
 -->
<!-- Title: fr.softsf.sudokufx.view.CrashScreenView.initialize Pages: 1 -->
<svg width="556pt" height="202pt"
 viewBox="0.00 0.00 555.50 202.00" xmlns="http://www.w3.org/2000/svg" xmlns:xlink="http://www.w3.org/1999/xlink">
<g id="graph0" class="graph" transform="scale(1 1) rotate(0) translate(4 198)">
<title>fr.softsf.sudokufx.view.CrashScreenView.initialize</title>
<!-- Node1 -->
<g id="Node000001" class="node">
<title>Node1</title>
<g id="a_Node000001"><a xlink:title="Initializes the crash screen components.">
<polygon fill="#999999" stroke="#666666" points="132.25,-119 0,-119 0,-87 132.25,-87 132.25,-119"/>
<text text-anchor="start" x="8" y="-105.5" font-family="Helvetica,sans-Serif" font-size="10.00">fr.softsf.sudokufx.view.</text>
<text text-anchor="middle" x="66.12" y="-93.5" font-family="Helvetica,sans-Serif" font-size="10.00">CrashScreenView.initialize</text>
</a>
</g>
</g>
<!-- Node2 -->
<g id="Node000002" class="node">
<title>Node2</title>
<g id="a_Node000002"><a xlink:href="classfr_1_1softsf_1_1sudokufx_1_1configuration_1_1_j_v_m_application_properties.html#a3f7b3c260ffbc879047a27ee9a1751f5" target="_top" xlink:title="Retrieves the current application name from system properties.">
<polygon fill="white" stroke="#666666" points="359.75,-194 171.25,-194 171.25,-162 359.75,-162 359.75,-194"/>
<text text-anchor="start" x="179.25" y="-180.5" font-family="Helvetica,sans-Serif" font-size="10.00">fr.softsf.sudokufx.configuration.</text>
<text text-anchor="middle" x="265.5" y="-168.5" font-family="Helvetica,sans-Serif" font-size="10.00">JVMApplicationProperties.getAppName</text>
</a>
</g>
</g>
<!-- Node1&#45;&gt;Node2 -->
<g id="edge1_Node000001_Node000002" class="edge">
<title>Node1&#45;&gt;Node2</title>
<g id="a_edge1_Node000001_Node000002"><a xlink:title=" ">
<path fill="none" stroke="#63b8ff" d="M96.06,-119.29C115.91,-129.97 143.11,-143.63 168.25,-153 173.2,-154.84 178.34,-156.6 183.55,-158.27"/>
<polygon fill="#63b8ff" stroke="#63b8ff" points="182.28,-161.55 192.87,-161.13 184.33,-154.85 182.28,-161.55"/>
</a>
</g>
</g>
<!-- Node4 -->
<g id="Node000004" class="node">
<title>Node4</title>
<g id="a_Node000004"><a xlink:href="classfr_1_1softsf_1_1sudokufx_1_1configuration_1_1_j_v_m_application_properties.html#aa3d30fcaecd7e5f4b1f8fe6fee13570a" target="_top" xlink:title="Retrieves the current application version from system properties.">
<polygon fill="white" stroke="#666666" points="362.75,-144 168.25,-144 168.25,-112 362.75,-112 362.75,-144"/>
<text text-anchor="start" x="176.25" y="-130.5" font-family="Helvetica,sans-Serif" font-size="10.00">fr.softsf.sudokufx.configuration.</text>
<text text-anchor="middle" x="265.5" y="-118.5" font-family="Helvetica,sans-Serif" font-size="10.00">JVMApplicationProperties.getAppVersion</text>
</a>
</g>
</g>
<!-- Node1&#45;&gt;Node4 -->
<g id="edge3_Node000001_Node000004" class="edge">
<title>Node1&#45;&gt;Node4</title>
<g id="a_edge3_Node000001_Node000004"><a xlink:title=" ">
<path fill="none" stroke="#63b8ff" d="M132.57,-111.29C140.37,-112.28 148.47,-113.3 156.66,-114.34"/>
<polygon fill="#63b8ff" stroke="#63b8ff" points="156,-117.78 166.36,-115.57 156.88,-110.84 156,-117.78"/>
</a>
</g>
</g>
<!-- Node5 -->
<g id="Node000005" class="node">
<title>Node5</title>
<g id="a_Node000005"><a xlink:href="classfr_1_1softsf_1_1sudokufx_1_1utils_1_1_i18n.html#a7095fa285a498c3f20bf33488a69d22c" target="_top" xlink:title="Retrieves the localized string value for a given key.">
<polygon fill="white" stroke="#666666" points="323.75,-94 207.25,-94 207.25,-62 323.75,-62 323.75,-94"/>
<text text-anchor="start" x="215.25" y="-80.5" font-family="Helvetica,sans-Serif" font-size="10.00">fr.softsf.sudokufx.utils.</text>
<text text-anchor="middle" x="265.5" y="-68.5" font-family="Helvetica,sans-Serif" font-size="10.00">I18n.getValue</text>
</a>
</g>
</g>
<!-- Node1&#45;&gt;Node5 -->
<g id="edge5_Node000001_Node000005" class="edge">
<title>Node1&#45;&gt;Node5</title>
<g id="a_edge5_Node000001_Node000005"><a xlink:title=" ">
<path fill="none" stroke="#63b8ff" d="M132.57,-94.71C152.84,-92.14 175.21,-89.31 195.7,-86.71"/>
<polygon fill="#63b8ff" stroke="#63b8ff" points="195.87,-90.22 205.35,-85.49 194.99,-83.28 195.87,-90.22"/>
</a>
</g>
</g>
<!-- Node6 -->
<g id="Node000006" class="node">
<title>Node6</title>
<g id="a_Node000006"><a xlink:href="classfr_1_1softsf_1_1sudokufx_1_1view_1_1_crash_screen_view.html#a5a135e72f1765ad2dc90d69994f7b657" target="_top" xlink:title="Sets up the SVG logo for the crash screen.">
<polygon fill="white" stroke="#666666" points="359,-44 172,-44 172,0 359,0 359,-44"/>
<text text-anchor="start" x="180" y="-30.5" font-family="Helvetica,sans-Serif" font-size="10.00">fr.softsf.sudokufx.view.</text>
<text text-anchor="start" x="180" y="-18.5" font-family="Helvetica,sans-Serif" font-size="10.00">CrashScreenView.setCrashscreenvbox</text>
<text text-anchor="middle" x="265.5" y="-6.5" font-family="Helvetica,sans-Serif" font-size="10.00">TophboxLogosudosvg</text>
</a>
</g>
</g>
<!-- Node1&#45;&gt;Node6 -->
<g id="edge6_Node000001_Node000006" class="edge">
<title>Node1&#45;&gt;Node6</title>
<g id="a_edge6_Node000001_Node000006"><a xlink:title=" ">
<path fill="none" stroke="#63b8ff" d="M97.12,-86.71C116.97,-76.3 143.75,-62.94 168.25,-53 172.25,-51.38 176.38,-49.78 180.56,-48.22"/>
<polygon fill="#63b8ff" stroke="#63b8ff" points="181.42,-51.63 189.62,-44.93 179.03,-45.05 181.42,-51.63"/>
</a>
</g>
</g>
<!-- Node3 -->
<g id="Node000003" class="node">
<title>Node3</title>
<g id="a_Node000003"><a xlink:href="classfr_1_1softsf_1_1sudokufx_1_1utils_1_1_my_regex.html#a981702b076ee54a416d676b6f7a182fc" target="_top" xlink:title="Validates the given text against the specified regular expression.">
<polygon fill="white" stroke="#666666" points="547.5,-169 398.75,-169 398.75,-137 547.5,-137 547.5,-169"/>
<text text-anchor="start" x="406.75" y="-155.5" font-family="Helvetica,sans-Serif" font-size="10.00">fr.softsf.sudokufx.utils.</text>
<text text-anchor="middle" x="473.12" y="-143.5" font-family="Helvetica,sans-Serif" font-size="10.00">MyRegex.isValidatedByRegex</text>
</a>
</g>
</g>
<!-- Node2&#45;&gt;Node3 -->
<g id="edge2_Node000002_Node000003" class="edge">
<title>Node2&#45;&gt;Node3</title>
<g id="a_edge2_Node000002_Node000003"><a xlink:title=" ">
<path fill="none" stroke="#63b8ff" d="M359.99,-166.63C369.01,-165.54 378.14,-164.43 387.07,-163.34"/>
<polygon fill="#63b8ff" stroke="#63b8ff" points="387.27,-166.84 396.77,-162.16 386.42,-159.89 387.27,-166.84"/>
</a>
</g>
</g>
<!-- Node4&#45;&gt;Node3 -->
<g id="edge4_Node000004_Node000003" class="edge">
<title>Node4&#45;&gt;Node3</title>
<g id="a_edge4_Node000004_Node000003"><a xlink:title=" ">
<path fill="none" stroke="#63b8ff" d="M362.99,-139.73C371.08,-140.71 379.21,-141.7 387.2,-142.68"/>
<polygon fill="#63b8ff" stroke="#63b8ff" points="386.52,-146.12 396.87,-143.85 387.37,-139.17 386.52,-146.12"/>
</a>
</g>
</g>
<!-- Node7 -->
<g id="Node000007" class="node">
<title>Node7</title>
<g id="a_Node000007"><a xlink:href="classfr_1_1softsf_1_1sudokufx_1_1view_1_1_crash_screen_view.html#aef8eba37009f641a92196a638a62d82c" target="_top" xlink:title="Creates an SVG shape and applies it to a Region.">
<polygon fill="white" stroke="#666666" points="545.62,-38 400.62,-38 400.62,-6 545.62,-6 545.62,-38"/>
<text text-anchor="start" x="408.62" y="-24.5" font-family="Helvetica,sans-Serif" font-size="10.00">fr.softsf.sudokufx.view.</text>
<text text-anchor="middle" x="473.12" y="-12.5" font-family="Helvetica,sans-Serif" font-size="10.00">CrashScreenView.createSVG</text>
</a>
</g>
</g>
<!-- Node6&#45;&gt;Node7 -->
<g id="edge7_Node000006_Node000007" class="edge">
<title>Node6&#45;&gt;Node7</title>
<g id="a_edge7_Node000006_Node000007"><a xlink:title=" ">
<path fill="none" stroke="#63b8ff" d="M359.39,-22C369.25,-22 379.25,-22 388.99,-22"/>
<polygon fill="#63b8ff" stroke="#63b8ff" points="388.78,-25.5 398.78,-22 388.78,-18.5 388.78,-25.5"/>
</a>
</g>
</g>
</g>
</svg>
