<?xml version="1.0" encoding="UTF-8" standalone="no"?>
<!DOCTYPE svg PUBLIC "-//W3C//DTD SVG 1.1//EN"
 "http://www.w3.org/Graphics/SVG/1.1/DTD/svg11.dtd">
<!-- Generated by graphviz version 12.2.0 (20241103.1931)
 -->
<!-- Title: fr.softsf.sudokufx.utils.database.configuration.DataSourceConfig.flyway Pages: 1 -->
<svg width="1722pt" height="290pt"
 viewBox="0.00 0.00 1722.00 290.00" xmlns="http://www.w3.org/2000/svg" xmlns:xlink="http://www.w3.org/1999/xlink">
<g id="graph0" class="graph" transform="scale(1 1) rotate(0) translate(4 286)">
<title>fr.softsf.sudokufx.utils.database.configuration.DataSourceConfig.flyway</title>
<!-- Node1 -->
<g id="Node000001" class="node">
<title>Node1</title>
<g id="a_Node000001"><a xlink:title="Configures Flyway with a specified location for migration scripts.">
<polygon fill="#999999" stroke="#666666" points="217.75,-157 0,-157 0,-125 217.75,-125 217.75,-157"/>
<text text-anchor="start" x="8" y="-143.5" font-family="Helvetica,sans-Serif" font-size="10.00">fr.softsf.sudokufx.utils.database.configuration.</text>
<text text-anchor="middle" x="108.88" y="-131.5" font-family="Helvetica,sans-Serif" font-size="10.00">DataSourceConfig.flyway</text>
</a>
</g>
</g>
<!-- Node2 -->
<g id="Node000002" class="node">
<title>Node2</title>
<g id="a_Node000002"><a xlink:href="classfr_1_1softsf_1_1sudokufx_1_1utils_1_1database_1_1configuration_1_1_data_source_config.html#af209137f3f6ca75437eb476f51f80cb7" target="_top" xlink:title="Creates and configures the main DataSource for the application.">
<polygon fill="white" stroke="#666666" points="471.5,-157 253.75,-157 253.75,-125 471.5,-125 471.5,-157"/>
<text text-anchor="start" x="261.75" y="-143.5" font-family="Helvetica,sans-Serif" font-size="10.00">fr.softsf.sudokufx.utils.database.configuration.</text>
<text text-anchor="middle" x="362.62" y="-131.5" font-family="Helvetica,sans-Serif" font-size="10.00">DataSourceConfig.hikariDataSource</text>
</a>
</g>
</g>
<!-- Node1&#45;&gt;Node2 -->
<g id="edge1_Node000001_Node000002" class="edge">
<title>Node1&#45;&gt;Node2</title>
<g id="a_edge1_Node000001_Node000002"><a xlink:title=" ">
<path fill="none" stroke="#63b8ff" d="M218.1,-141C226.07,-141 234.14,-141 242.17,-141"/>
<polygon fill="#63b8ff" stroke="#63b8ff" points="241.98,-144.5 251.98,-141 241.98,-137.5 241.98,-144.5"/>
</a>
</g>
</g>
<!-- Node3 -->
<g id="Node000003" class="node">
<title>Node3</title>
<g id="a_Node000003"><a xlink:href="interfacefr_1_1softsf_1_1sudokufx_1_1interfaces_1_1_i_os_folder_factory.html#ad2fbd0fa5081f7b023b0bbf262847cfb" target="_top" xlink:title="Retrieves the path to the OS&#45;specific data folder.">
<polygon fill="white" stroke="#666666" points="961.75,-282 773.25,-282 773.25,-250 961.75,-250 961.75,-282"/>
<text text-anchor="start" x="781.25" y="-268.5" font-family="Helvetica,sans-Serif" font-size="10.00">fr.softsf.sudokufx.interfaces.</text>
<text text-anchor="middle" x="867.5" y="-256.5" font-family="Helvetica,sans-Serif" font-size="10.00">IOsFolderFactory.getOsDataFolderPath</text>
</a>
</g>
</g>
<!-- Node2&#45;&gt;Node3 -->
<g id="edge2_Node000002_Node000003" class="edge">
<title>Node2&#45;&gt;Node3</title>
<g id="a_edge2_Node000002_Node000003"><a xlink:title=" ">
<path fill="none" stroke="#63b8ff" d="M388.71,-157.49C416.54,-174.94 463.36,-201.89 507.5,-216 590.57,-242.56 688.91,-255.02 761.64,-260.85"/>
<polygon fill="#63b8ff" stroke="#63b8ff" points="761.34,-264.34 771.58,-261.62 761.87,-257.36 761.34,-264.34"/>
</a>
</g>
</g>
<!-- Node4 -->
<g id="Node000004" class="node">
<title>Node4</title>
<g id="a_Node000004"><a xlink:href="classfr_1_1softsf_1_1sudokufx_1_1utils_1_1database_1_1keystore_1_1_application_keystore.html#a4035c6a874207a20aa0740af0594742a" target="_top" xlink:title="Get database password.">
<polygon fill="white" stroke="#666666" points="715.88,-157 516.12,-157 516.12,-125 715.88,-125 715.88,-157"/>
<text text-anchor="start" x="524.12" y="-143.5" font-family="Helvetica,sans-Serif" font-size="10.00">fr.softsf.sudokufx.utils.database.keystore.</text>
<text text-anchor="middle" x="616" y="-131.5" font-family="Helvetica,sans-Serif" font-size="10.00">ApplicationKeystore.getPassword</text>
</a>
</g>
</g>
<!-- Node2&#45;&gt;Node4 -->
<g id="edge3_Node000002_Node000004" class="edge">
<title>Node2&#45;&gt;Node4</title>
<g id="a_edge3_Node000002_Node000004"><a xlink:title=" ">
<path fill="none" stroke="#63b8ff" d="M471.69,-141C482.55,-141 493.6,-141 504.49,-141"/>
<polygon fill="#63b8ff" stroke="#63b8ff" points="504.25,-144.5 514.25,-141 504.25,-137.5 504.25,-144.5"/>
</a>
</g>
</g>
<!-- Node5 -->
<g id="Node000005" class="node">
<title>Node5</title>
<g id="a_Node000005"><a xlink:href="classfr_1_1softsf_1_1sudokufx_1_1utils_1_1database_1_1keystore_1_1_application_keystore.html#a3cebafd3f87c717fc974513f34c9de39" target="_top" xlink:title="Get database username.">
<polygon fill="white" stroke="#666666" points="715.88,-107 516.12,-107 516.12,-75 715.88,-75 715.88,-107"/>
<text text-anchor="start" x="524.12" y="-93.5" font-family="Helvetica,sans-Serif" font-size="10.00">fr.softsf.sudokufx.utils.database.keystore.</text>
<text text-anchor="middle" x="616" y="-81.5" font-family="Helvetica,sans-Serif" font-size="10.00">ApplicationKeystore.getUsername</text>
</a>
</g>
</g>
<!-- Node2&#45;&gt;Node5 -->
<g id="edge4_Node000002_Node000005" class="edge">
<title>Node2&#45;&gt;Node5</title>
<g id="a_edge4_Node000002_Node000005"><a xlink:title=" ">
<path fill="none" stroke="#63b8ff" d="M446.28,-124.56C470.23,-119.8 496.55,-114.56 521.14,-109.67"/>
<polygon fill="#63b8ff" stroke="#63b8ff" points="521.68,-113.13 530.81,-107.75 520.32,-106.26 521.68,-113.13"/>
</a>
</g>
</g>
<!-- Node6 -->
<g id="Node000006" class="node">
<title>Node6</title>
<g id="a_Node000006"><a xlink:href="classfr_1_1softsf_1_1sudokufx_1_1utils_1_1os_1_1_os_folder_factory_manager.html#abe170d1d4c6183a0a6e9d7dd7904fd19" target="_top" xlink:title="Creates and returns an OS&#45;specific folder factory.">
<polygon fill="white" stroke="#666666" points="699.38,-57 532.62,-57 532.62,-13 699.38,-13 699.38,-57"/>
<text text-anchor="start" x="540.62" y="-43.5" font-family="Helvetica,sans-Serif" font-size="10.00">fr.softsf.sudokufx.utils.os.</text>
<text text-anchor="start" x="540.62" y="-31.5" font-family="Helvetica,sans-Serif" font-size="10.00">OsFolderFactoryManager.osFolder</text>
<text text-anchor="middle" x="616" y="-19.5" font-family="Helvetica,sans-Serif" font-size="10.00">Factory</text>
</a>
</g>
</g>
<!-- Node2&#45;&gt;Node6 -->
<g id="edge5_Node000002_Node000006" class="edge">
<title>Node2&#45;&gt;Node6</title>
<g id="a_edge5_Node000002_Node000006"><a xlink:title=" ">
<path fill="none" stroke="#63b8ff" d="M390.96,-124.64C419.34,-108.17 465.39,-82.85 507.5,-66 512.09,-64.16 516.82,-62.39 521.64,-60.68"/>
<polygon fill="#63b8ff" stroke="#63b8ff" points="522.5,-64.08 530.83,-57.53 520.23,-57.46 522.5,-64.08"/>
</a>
</g>
</g>
<!-- Node7 -->
<g id="Node000007" class="node">
<title>Node7</title>
<g id="a_Node000007"><a xlink:href="classfr_1_1softsf_1_1sudokufx_1_1utils_1_1database_1_1keystore_1_1_application_keystore.html#a983c1ac68091c9b5533cda1496c1ccc5" target="_top" xlink:title="Configures the keystore by managing the entire process of creating, loading, and encrypting the neces...">
<polygon fill="white" stroke="#666666" points="724.5,-207 507.5,-207 507.5,-175 724.5,-175 724.5,-207"/>
<text text-anchor="start" x="515.5" y="-193.5" font-family="Helvetica,sans-Serif" font-size="10.00">fr.softsf.sudokufx.utils.database.keystore.</text>
<text text-anchor="middle" x="616" y="-181.5" font-family="Helvetica,sans-Serif" font-size="10.00">ApplicationKeystore.setupApplicationKeystore</text>
</a>
</g>
</g>
<!-- Node2&#45;&gt;Node7 -->
<g id="edge6_Node000002_Node000007" class="edge">
<title>Node2&#45;&gt;Node7</title>
<g id="a_edge6_Node000002_Node000007"><a xlink:title=" ">
<path fill="none" stroke="#63b8ff" d="M446.28,-157.44C470.23,-162.2 496.55,-167.44 521.14,-172.33"/>
<polygon fill="#63b8ff" stroke="#63b8ff" points="520.32,-175.74 530.81,-174.25 521.68,-168.87 520.32,-175.74"/>
</a>
</g>
</g>
<!-- Node7&#45;&gt;Node3 -->
<g id="edge17_Node000007_Node000003" class="edge">
<title>Node7&#45;&gt;Node3</title>
<g id="a_edge17_Node000007_Node000003"><a xlink:title=" ">
<path fill="none" stroke="#63b8ff" d="M660.27,-207.39C688.55,-217.78 726.43,-231.08 760.5,-241 767.23,-242.96 774.24,-244.88 781.29,-246.72"/>
<polygon fill="#63b8ff" stroke="#63b8ff" points="780.38,-250.1 790.93,-249.18 782.11,-243.32 780.38,-250.1"/>
</a>
</g>
</g>
<!-- Node8 -->
<g id="Node000008" class="node">
<title>Node8</title>
<g id="a_Node000008"><a xlink:href="classfr_1_1softsf_1_1sudokufx_1_1utils_1_1database_1_1keystore_1_1_application_keystore.html#a3c033211ab4f60945ef6ff9d202fbabd" target="_top" xlink:title="Create or update the Keystore.">
<polygon fill="white" stroke="#666666" points="974.5,-182 760.5,-182 760.5,-150 974.5,-150 974.5,-182"/>
<text text-anchor="start" x="768.5" y="-168.5" font-family="Helvetica,sans-Serif" font-size="10.00">fr.softsf.sudokufx.utils.database.keystore.</text>
<text text-anchor="middle" x="867.5" y="-156.5" font-family="Helvetica,sans-Serif" font-size="10.00">ApplicationKeystore.createOrUpdateKeystore</text>
</a>
</g>
</g>
<!-- Node7&#45;&gt;Node8 -->
<g id="edge7_Node000007_Node000008" class="edge">
<title>Node7&#45;&gt;Node8</title>
<g id="a_edge7_Node000007_Node000008"><a xlink:title=" ">
<path fill="none" stroke="#63b8ff" d="M724.98,-180.18C732.95,-179.38 741.01,-178.57 749.03,-177.77"/>
<polygon fill="#63b8ff" stroke="#63b8ff" points="749.22,-181.27 758.82,-176.79 748.52,-174.3 749.22,-181.27"/>
</a>
</g>
</g>
<!-- Node9 -->
<g id="Node000009" class="node">
<title>Node9</title>
<g id="a_Node000009"><a xlink:href="classfr_1_1softsf_1_1sudokufx_1_1utils_1_1database_1_1keystore_1_1_application_keystore.html#a2a2525acabf35eaaf9dca60b9eb11589" target="_top" xlink:title="Get or set credentials by alias.">
<polygon fill="white" stroke="#666666" points="967.38,-132 767.62,-132 767.62,-100 967.38,-100 967.38,-132"/>
<text text-anchor="start" x="775.62" y="-118.5" font-family="Helvetica,sans-Serif" font-size="10.00">fr.softsf.sudokufx.utils.database.keystore.</text>
<text text-anchor="middle" x="867.5" y="-106.5" font-family="Helvetica,sans-Serif" font-size="10.00">ApplicationKeystore.credentials</text>
</a>
</g>
</g>
<!-- Node7&#45;&gt;Node9 -->
<g id="edge8_Node000007_Node000009" class="edge">
<title>Node7&#45;&gt;Node9</title>
<g id="a_edge8_Node000007_Node000009"><a xlink:title=" ">
<path fill="none" stroke="#63b8ff" d="M701.63,-174.55C709.5,-172.06 717.23,-169.23 724.5,-166 742.3,-158.1 742.71,-148.93 760.5,-141 764.47,-139.23 768.57,-137.58 772.77,-136.04"/>
<polygon fill="#63b8ff" stroke="#63b8ff" points="773.57,-139.46 781.9,-132.91 771.3,-132.84 773.57,-139.46"/>
</a>
</g>
</g>
<!-- Node18 -->
<g id="Node000018" class="node">
<title>Node18</title>
<g id="a_Node000018"><a xlink:href="classfr_1_1softsf_1_1sudokufx_1_1utils_1_1database_1_1keystore_1_1_application_keystore.html#afa8d0bbf87d5470ae8e2307a5f6e53b0" target="_top" xlink:title="Load the Keystore.">
<polygon fill="white" stroke="#666666" points="967.38,-232 767.62,-232 767.62,-200 967.38,-200 967.38,-232"/>
<text text-anchor="start" x="775.62" y="-218.5" font-family="Helvetica,sans-Serif" font-size="10.00">fr.softsf.sudokufx.utils.database.keystore.</text>
<text text-anchor="middle" x="867.5" y="-206.5" font-family="Helvetica,sans-Serif" font-size="10.00">ApplicationKeystore.loadKeyStore</text>
</a>
</g>
</g>
<!-- Node7&#45;&gt;Node18 -->
<g id="edge18_Node000007_Node000018" class="edge">
<title>Node7&#45;&gt;Node18</title>
<g id="a_edge18_Node000007_Node000018"><a xlink:title=" ">
<path fill="none" stroke="#63b8ff" d="M724.98,-201.82C735.33,-202.86 745.84,-203.91 756.21,-204.95"/>
<polygon fill="#63b8ff" stroke="#63b8ff" points="755.59,-208.4 765.89,-205.92 756.29,-201.44 755.59,-208.4"/>
</a>
</g>
</g>
<!-- Node19 -->
<g id="Node000019" class="node">
<title>Node19</title>
<g id="a_Node000019"><a xlink:href="classfr_1_1softsf_1_1sudokufx_1_1utils_1_1database_1_1keystore_1_1_application_keystore.html#a5900042aba7b9c552aacf127f021da37" target="_top" xlink:title="Check the symmetric key presence.">
<polygon fill="white" stroke="#666666" points="967.38,-82 767.62,-82 767.62,-50 967.38,-50 967.38,-82"/>
<text text-anchor="start" x="775.62" y="-68.5" font-family="Helvetica,sans-Serif" font-size="10.00">fr.softsf.sudokufx.utils.database.keystore.</text>
<text text-anchor="middle" x="867.5" y="-56.5" font-family="Helvetica,sans-Serif" font-size="10.00">ApplicationKeystore.symmetricKey</text>
</a>
</g>
</g>
<!-- Node7&#45;&gt;Node19 -->
<g id="edge19_Node000007_Node000019" class="edge">
<title>Node7&#45;&gt;Node19</title>
<g id="a_edge19_Node000007_Node000019"><a xlink:title=" ">
<path fill="none" stroke="#63b8ff" d="M711.48,-174.55C716.08,-172.07 720.46,-169.24 724.5,-166 753.35,-142.87 731.69,-114.18 760.5,-91 761.64,-90.08 762.81,-89.2 764,-88.35"/>
<polygon fill="#63b8ff" stroke="#63b8ff" points="765.64,-91.44 772.3,-83.2 761.96,-85.49 765.64,-91.44"/>
</a>
</g>
</g>
<!-- Node10 -->
<g id="Node000010" class="node">
<title>Node10</title>
<g id="a_Node000010"><a xlink:href="classfr_1_1softsf_1_1sudokufx_1_1utils_1_1database_1_1keystore_1_1_application_keystore.html#af5312fa49787830d1c7e73806a03b5bb" target="_top" xlink:title="Get credential by alias.">
<polygon fill="white" stroke="#666666" points="1226.38,-207 1026.62,-207 1026.62,-175 1226.38,-175 1226.38,-207"/>
<text text-anchor="start" x="1034.62" y="-193.5" font-family="Helvetica,sans-Serif" font-size="10.00">fr.softsf.sudokufx.utils.database.keystore.</text>
<text text-anchor="middle" x="1126.5" y="-181.5" font-family="Helvetica,sans-Serif" font-size="10.00">ApplicationKeystore.getCredentials</text>
</a>
</g>
</g>
<!-- Node9&#45;&gt;Node10 -->
<g id="edge9_Node000009_Node000010" class="edge">
<title>Node9&#45;&gt;Node10</title>
<g id="a_edge9_Node000009_Node000010"><a xlink:title=" ">
<path fill="none" stroke="#63b8ff" d="M941.99,-132.44C952.93,-135.15 964.04,-138.04 974.5,-141 1005.82,-149.86 1040.3,-161.16 1068.4,-170.77"/>
<polygon fill="#63b8ff" stroke="#63b8ff" points="1067.21,-174.06 1077.8,-174.01 1069.49,-167.45 1067.21,-174.06"/>
</a>
</g>
</g>
<!-- Node12 -->
<g id="Node000012" class="node">
<title>Node12</title>
<g id="a_Node000012"><a xlink:href="classfr_1_1softsf_1_1sudokufx_1_1utils_1_1database_1_1keystore_1_1_application_keystore.html#aac0c74b44fb1dd6e9bef9b713a8ba609" target="_top" xlink:title="Set credential by alias.">
<polygon fill="white" stroke="#666666" points="1226.38,-132 1026.62,-132 1026.62,-100 1226.38,-100 1226.38,-132"/>
<text text-anchor="start" x="1034.62" y="-118.5" font-family="Helvetica,sans-Serif" font-size="10.00">fr.softsf.sudokufx.utils.database.keystore.</text>
<text text-anchor="middle" x="1126.5" y="-106.5" font-family="Helvetica,sans-Serif" font-size="10.00">ApplicationKeystore.setCredentials</text>
</a>
</g>
</g>
<!-- Node9&#45;&gt;Node12 -->
<g id="edge11_Node000009_Node000012" class="edge">
<title>Node9&#45;&gt;Node12</title>
<g id="a_edge11_Node000009_Node000012"><a xlink:title=" ">
<path fill="none" stroke="#63b8ff" d="M967.86,-116C983.32,-116 999.37,-116 1015.06,-116"/>
<polygon fill="#63b8ff" stroke="#63b8ff" points="1014.89,-119.5 1024.89,-116 1014.89,-112.5 1014.89,-119.5"/>
</a>
</g>
</g>
<!-- Node11 -->
<g id="Node000011" class="node">
<title>Node11</title>
<g id="a_Node000011"><a xlink:href="interfacefr_1_1softsf_1_1sudokufx_1_1interfaces_1_1_i_encryption_service.html#a605da446a6ec28faa7c6e1d26a4cb2ca" target="_top" xlink:title="Decrypts the given cipher text using AES&#45;GCM decryption.">
<polygon fill="white" stroke="#666666" points="1449,-232 1307.75,-232 1307.75,-200 1449,-200 1449,-232"/>
<text text-anchor="start" x="1315.75" y="-218.5" font-family="Helvetica,sans-Serif" font-size="10.00">fr.softsf.sudokufx.interfaces.</text>
<text text-anchor="middle" x="1378.38" y="-206.5" font-family="Helvetica,sans-Serif" font-size="10.00">IEncryptionService.decrypt</text>
</a>
</g>
</g>
<!-- Node10&#45;&gt;Node11 -->
<g id="edge10_Node000010_Node000011" class="edge">
<title>Node10&#45;&gt;Node11</title>
<g id="a_edge10_Node000010_Node000011"><a xlink:title=" ">
<path fill="none" stroke="#63b8ff" d="M1226.62,-200.92C1249.59,-203.22 1273.78,-205.64 1295.9,-207.85"/>
<polygon fill="#63b8ff" stroke="#63b8ff" points="1295.45,-211.32 1305.75,-208.83 1296.15,-204.36 1295.45,-211.32"/>
</a>
</g>
</g>
<!-- Node13 -->
<g id="Node000013" class="node">
<title>Node13</title>
<g id="a_Node000013"><a xlink:href="classfr_1_1softsf_1_1sudokufx_1_1utils_1_1database_1_1keystore_1_1_application_keystore.html#a33216f8f54d7cd930bad1447d08019ba" target="_top" xlink:title="Add alias:secret in the Keystore.">
<polygon fill="white" stroke="#666666" points="1478.25,-82 1278.5,-82 1278.5,-50 1478.25,-50 1478.25,-82"/>
<text text-anchor="start" x="1286.5" y="-68.5" font-family="Helvetica,sans-Serif" font-size="10.00">fr.softsf.sudokufx.utils.database.keystore.</text>
<text text-anchor="middle" x="1378.38" y="-56.5" font-family="Helvetica,sans-Serif" font-size="10.00">ApplicationKeystore.addToKeystore</text>
</a>
</g>
</g>
<!-- Node12&#45;&gt;Node13 -->
<g id="edge12_Node000012_Node000013" class="edge">
<title>Node12&#45;&gt;Node13</title>
<g id="a_edge12_Node000012_Node000013"><a xlink:title=" ">
<path fill="none" stroke="#63b8ff" d="M1209.66,-99.56C1233.47,-94.8 1259.63,-89.56 1284.07,-84.67"/>
<polygon fill="#63b8ff" stroke="#63b8ff" points="1284.56,-88.14 1293.68,-82.75 1283.18,-81.28 1284.56,-88.14"/>
</a>
</g>
</g>
<!-- Node15 -->
<g id="Node000015" class="node">
<title>Node15</title>
<g id="a_Node000015"><a xlink:href="interfacefr_1_1softsf_1_1sudokufx_1_1interfaces_1_1_i_encryption_service.html#a7cd39caadae83b3502b56b96d349cfc5" target="_top" xlink:title="Encrypts the given string using AES&#45;GCM encryption.">
<polygon fill="white" stroke="#666666" points="1449,-182 1307.75,-182 1307.75,-150 1449,-150 1449,-182"/>
<text text-anchor="start" x="1315.75" y="-168.5" font-family="Helvetica,sans-Serif" font-size="10.00">fr.softsf.sudokufx.interfaces.</text>
<text text-anchor="middle" x="1378.38" y="-156.5" font-family="Helvetica,sans-Serif" font-size="10.00">IEncryptionService.encrypt</text>
</a>
</g>
</g>
<!-- Node12&#45;&gt;Node15 -->
<g id="edge14_Node000012_Node000015" class="edge">
<title>Node12&#45;&gt;Node15</title>
<g id="a_edge14_Node000012_Node000015"><a xlink:title=" ">
<path fill="none" stroke="#63b8ff" d="M1209.66,-132.44C1237.42,-137.99 1268.38,-144.19 1296.06,-149.73"/>
<polygon fill="#63b8ff" stroke="#63b8ff" points="1295.33,-153.15 1305.82,-151.68 1296.7,-146.29 1295.33,-153.15"/>
</a>
</g>
</g>
<!-- Node16 -->
<g id="Node000016" class="node">
<title>Node16</title>
<g id="a_Node000016"><a xlink:href="classfr_1_1softsf_1_1sudokufx_1_1utils_1_1database_1_1keystore_1_1_generate_secret.html#ac1a554d432a1d4a3f2c32d9ca6594868" target="_top" xlink:title="Generate Passay secret.">
<polygon fill="white" stroke="#666666" points="1478.25,-132 1278.5,-132 1278.5,-100 1478.25,-100 1478.25,-132"/>
<text text-anchor="start" x="1286.5" y="-118.5" font-family="Helvetica,sans-Serif" font-size="10.00">fr.softsf.sudokufx.utils.database.keystore.</text>
<text text-anchor="middle" x="1378.38" y="-106.5" font-family="Helvetica,sans-Serif" font-size="10.00">GenerateSecret.generatePassaySecret</text>
</a>
</g>
</g>
<!-- Node12&#45;&gt;Node16 -->
<g id="edge15_Node000012_Node000016" class="edge">
<title>Node12&#45;&gt;Node16</title>
<g id="a_edge15_Node000012_Node000016"><a xlink:title=" ">
<path fill="none" stroke="#63b8ff" d="M1226.62,-116C1239.92,-116 1253.64,-116 1267.12,-116"/>
<polygon fill="#63b8ff" stroke="#63b8ff" points="1266.87,-119.5 1276.87,-116 1266.87,-112.5 1266.87,-119.5"/>
</a>
</g>
</g>
<!-- Node14 -->
<g id="Node000014" class="node">
<title>Node14</title>
<g id="a_Node000014"><a xlink:href="classfr_1_1softsf_1_1sudokufx_1_1utils_1_1database_1_1keystore_1_1_application_keystore.html#af82e040ae05888410827f695338a3a07" target="_top" xlink:title="Write data to the keystore file.">
<polygon fill="white" stroke="#666666" points="1714,-82 1514.25,-82 1514.25,-50 1714,-50 1714,-82"/>
<text text-anchor="start" x="1522.25" y="-68.5" font-family="Helvetica,sans-Serif" font-size="10.00">fr.softsf.sudokufx.utils.database.keystore.</text>
<text text-anchor="middle" x="1614.12" y="-56.5" font-family="Helvetica,sans-Serif" font-size="10.00">ApplicationKeystore.writeTheKeystore</text>
</a>
</g>
</g>
<!-- Node13&#45;&gt;Node14 -->
<g id="edge13_Node000013_Node000014" class="edge">
<title>Node13&#45;&gt;Node14</title>
<g id="a_edge13_Node000013_Node000014"><a xlink:title=" ">
<path fill="none" stroke="#63b8ff" d="M1478.51,-66C1486.46,-66 1494.52,-66 1502.54,-66"/>
<polygon fill="#63b8ff" stroke="#63b8ff" points="1502.33,-69.5 1512.33,-66 1502.33,-62.5 1502.33,-69.5"/>
</a>
</g>
</g>
<!-- Node17 -->
<g id="Node000017" class="node">
<title>Node17</title>
<g id="a_Node000017"><a xlink:href="classfr_1_1softsf_1_1sudokufx_1_1utils_1_1database_1_1keystore_1_1_generate_secret.html#a60e50e50087c5e2e578a7e14fa9d2b2e" target="_top" xlink:title="Define the secret special characters.">
<polygon fill="white" stroke="#666666" points="1714,-132 1514.25,-132 1514.25,-100 1714,-100 1714,-132"/>
<text text-anchor="start" x="1522.25" y="-118.5" font-family="Helvetica,sans-Serif" font-size="10.00">fr.softsf.sudokufx.utils.database.keystore.</text>
<text text-anchor="middle" x="1614.12" y="-106.5" font-family="Helvetica,sans-Serif" font-size="10.00">GenerateSecret.createSpecialChars</text>
</a>
</g>
</g>
<!-- Node16&#45;&gt;Node17 -->
<g id="edge16_Node000016_Node000017" class="edge">
<title>Node16&#45;&gt;Node17</title>
<g id="a_edge16_Node000016_Node000017"><a xlink:title=" ">
<path fill="none" stroke="#63b8ff" d="M1478.51,-116C1486.46,-116 1494.52,-116 1502.54,-116"/>
<polygon fill="#63b8ff" stroke="#63b8ff" points="1502.33,-119.5 1512.33,-116 1502.33,-112.5 1502.33,-119.5"/>
</a>
</g>
</g>
<!-- Node20 -->
<g id="Node000020" class="node">
<title>Node20</title>
<g id="a_Node000020"><a xlink:href="classfr_1_1softsf_1_1sudokufx_1_1utils_1_1database_1_1keystore_1_1_application_keystore.html#a93c64173e1fcbc1b3cea7c653cec93fc" target="_top" xlink:title="Get the symmetric key and set encryption service.">
<polygon fill="white" stroke="#666666" points="1238.75,-32 1014.25,-32 1014.25,0 1238.75,0 1238.75,-32"/>
<text text-anchor="start" x="1022.25" y="-18.5" font-family="Helvetica,sans-Serif" font-size="10.00">fr.softsf.sudokufx.utils.database.keystore.</text>
<text text-anchor="middle" x="1126.5" y="-6.5" font-family="Helvetica,sans-Serif" font-size="10.00">ApplicationKeystore.symmetricKeyIsInKeystore</text>
</a>
</g>
</g>
<!-- Node19&#45;&gt;Node20 -->
<g id="edge20_Node000019_Node000020" class="edge">
<title>Node19&#45;&gt;Node20</title>
<g id="a_edge20_Node000019_Node000020"><a xlink:title=" ">
<path fill="none" stroke="#63b8ff" d="M953.01,-49.56C977.6,-44.77 1004.65,-39.51 1029.87,-34.6"/>
<polygon fill="#63b8ff" stroke="#63b8ff" points="1030.31,-38.09 1039.46,-32.74 1028.97,-31.21 1030.31,-38.09"/>
</a>
</g>
</g>
<!-- Node21 -->
<g id="Node000021" class="node">
<title>Node21</title>
<g id="a_Node000021"><a xlink:href="classfr_1_1softsf_1_1sudokufx_1_1utils_1_1database_1_1keystore_1_1_application_keystore.html#a26a6110e68a3530dff60cf57f1616a25" target="_top" xlink:title="Set the symmetric key and set encryption service.">
<polygon fill="white" stroke="#666666" points="1242.5,-82 1010.5,-82 1010.5,-50 1242.5,-50 1242.5,-82"/>
<text text-anchor="start" x="1018.5" y="-68.5" font-family="Helvetica,sans-Serif" font-size="10.00">fr.softsf.sudokufx.utils.database.keystore.</text>
<text text-anchor="middle" x="1126.5" y="-56.5" font-family="Helvetica,sans-Serif" font-size="10.00">ApplicationKeystore.symmetricKeyNotInKeystore</text>
</a>
</g>
</g>
<!-- Node19&#45;&gt;Node21 -->
<g id="edge21_Node000019_Node000021" class="edge">
<title>Node19&#45;&gt;Node21</title>
<g id="a_edge21_Node000019_Node000021"><a xlink:title=" ">
<path fill="none" stroke="#63b8ff" d="M967.86,-59.41C978.03,-59.3 988.45,-59.24 998.86,-59.25"/>
<polygon fill="#63b8ff" stroke="#63b8ff" points="998.61,-62.75 1008.62,-59.28 998.63,-55.75 998.61,-62.75"/>
</a>
</g>
</g>
<!-- Node21&#45;&gt;Node13 -->
<g id="edge22_Node000021_Node000013" class="edge">
<title>Node21&#45;&gt;Node13</title>
<g id="a_edge22_Node000021_Node000013"><a xlink:title=" ">
<path fill="none" stroke="#63b8ff" d="M1242.93,-66C1250.83,-66 1258.79,-66 1266.67,-66"/>
<polygon fill="#63b8ff" stroke="#63b8ff" points="1266.63,-69.5 1276.63,-66 1266.63,-62.5 1266.63,-69.5"/>
</a>
</g>
</g>
<!-- Node21&#45;&gt;Node19 -->
<g id="edge23_Node000021_Node000019" class="edge">
<title>Node21&#45;&gt;Node19</title>
<g id="a_edge23_Node000021_Node000019"><a xlink:title=" ">
<path fill="none" stroke="#63b8ff" d="M1010.13,-72.72C999.88,-72.77 989.52,-72.76 979.31,-72.69"/>
<polygon fill="#63b8ff" stroke="#63b8ff" points="979.41,-69.19 969.38,-72.61 979.35,-76.19 979.41,-69.19"/>
</a>
</g>
</g>
</g>
</svg>
