<?xml version="1.0" encoding="UTF-8" standalone="no"?>
<!DOCTYPE svg PUBLIC "-//W3C//DTD SVG 1.1//EN"
 "http://www.w3.org/Graphics/SVG/1.1/DTD/svg11.dtd">
<!-- Generated by graphviz version 12.2.0 (20241103.1931)
 -->
<!-- Title: fr.softsf.sudokufx.utils.sudoku.GridMaster.genererLaGrilleAResoudre Pages: 1 -->
<svg width="1317pt" height="171pt"
 viewBox="0.00 0.00 1316.75 171.00" xmlns="http://www.w3.org/2000/svg" xmlns:xlink="http://www.w3.org/1999/xlink">
<g id="graph0" class="graph" transform="scale(1 1) rotate(0) translate(4 167)">
<title>fr.softsf.sudokufx.utils.sudoku.GridMaster.genererLaGrilleAResoudre</title>
<!-- Node1 -->
<g id="Node000001" class="node">
<title>Node1</title>
<g id="a_Node000001"><a xlink:title="Génère une grille de Sudoku à résoudre en masquant des cases selon le niveau de difficulté.">
<polygon fill="#999999" stroke="#666666" points="181,-94 0,-94 0,-62 181,-62 181,-94"/>
<text text-anchor="start" x="8" y="-80.5" font-family="Helvetica,sans-Serif" font-size="10.00">fr.softsf.sudokufx.utils.sudoku.</text>
<text text-anchor="middle" x="90.5" y="-68.5" font-family="Helvetica,sans-Serif" font-size="10.00">GridMaster.genererLaGrilleAResoudre</text>
</a>
</g>
</g>
<!-- Node2 -->
<g id="Node000002" class="node">
<title>Node2</title>
<g id="a_Node000002"><a xlink:href="classfr_1_1softsf_1_1sudokufx_1_1utils_1_1sudoku_1_1_grid_master.html#a5a6f84fdb0becec787f87d0f11ce1b07" target="_top" xlink:title="Génère une grille de Sudoku de niveau difficile.">
<polygon fill="white" stroke="#666666" points="429.88,-156 232.38,-156 232.38,-112 429.88,-112 429.88,-156"/>
<text text-anchor="start" x="240.38" y="-142.5" font-family="Helvetica,sans-Serif" font-size="10.00">fr.softsf.sudokufx.utils.sudoku.</text>
<text text-anchor="start" x="240.38" y="-130.5" font-family="Helvetica,sans-Serif" font-size="10.00">GridMaster.getPossibilitesGrilleAresoudre</text>
<text text-anchor="middle" x="331.12" y="-118.5" font-family="Helvetica,sans-Serif" font-size="10.00">Difficile</text>
</a>
</g>
</g>
<!-- Node1&#45;&gt;Node2 -->
<g id="edge1_Node000001_Node000002" class="edge">
<title>Node1&#45;&gt;Node2</title>
<g id="a_edge1_Node000001_Node000002"><a xlink:title=" ">
<path fill="none" stroke="#63b8ff" d="M161.8,-94.5C181.15,-99.04 202.57,-104.07 223.47,-108.97"/>
<polygon fill="#63b8ff" stroke="#63b8ff" points="222.67,-112.38 233.2,-111.25 224.27,-105.56 222.67,-112.38"/>
</a>
</g>
</g>
<!-- Node12 -->
<g id="Node000012" class="node">
<title>Node12</title>
<g id="a_Node000012"><a xlink:href="classfr_1_1softsf_1_1sudokufx_1_1utils_1_1sudoku_1_1_grid_master.html#ad37a10f9784efa27bdcaa13b7cb10de6" target="_top" xlink:title="Génère une grille de Sudoku de niveau facile.">
<polygon fill="white" stroke="#666666" points="445.25,-94 217,-94 217,-62 445.25,-62 445.25,-94"/>
<text text-anchor="start" x="225" y="-80.5" font-family="Helvetica,sans-Serif" font-size="10.00">fr.softsf.sudokufx.utils.sudoku.</text>
<text text-anchor="middle" x="331.12" y="-68.5" font-family="Helvetica,sans-Serif" font-size="10.00">GridMaster.getPossibilitesGrilleAResoudreFacile</text>
</a>
</g>
</g>
<!-- Node1&#45;&gt;Node12 -->
<g id="edge12_Node000001_Node000012" class="edge">
<title>Node1&#45;&gt;Node12</title>
<g id="a_edge12_Node000001_Node000012"><a xlink:title=" ">
<path fill="none" stroke="#63b8ff" d="M181.37,-78C189.19,-78 197.18,-78 205.2,-78"/>
<polygon fill="#63b8ff" stroke="#63b8ff" points="205.04,-81.5 215.04,-78 205.04,-74.5 205.04,-81.5"/>
</a>
</g>
</g>
<!-- Node13 -->
<g id="Node000013" class="node">
<title>Node13</title>
<g id="a_Node000013"><a xlink:href="classfr_1_1softsf_1_1sudokufx_1_1utils_1_1sudoku_1_1_grid_master.html#ac77d16b1a583a51dc5770fc275222d8f" target="_top" xlink:title="Génère une grille de Sudoku de niveau moyen.">
<polygon fill="white" stroke="#666666" points="432.12,-44 230.12,-44 230.12,0 432.12,0 432.12,-44"/>
<text text-anchor="start" x="238.12" y="-30.5" font-family="Helvetica,sans-Serif" font-size="10.00">fr.softsf.sudokufx.utils.sudoku.</text>
<text text-anchor="start" x="238.12" y="-18.5" font-family="Helvetica,sans-Serif" font-size="10.00">GridMaster.getPossibilitesGrilleAResoudre</text>
<text text-anchor="middle" x="331.12" y="-6.5" font-family="Helvetica,sans-Serif" font-size="10.00">Moyenne</text>
</a>
</g>
</g>
<!-- Node1&#45;&gt;Node13 -->
<g id="edge16_Node000001_Node000013" class="edge">
<title>Node1&#45;&gt;Node13</title>
<g id="a_edge16_Node000001_Node000013"><a xlink:title=" ">
<path fill="none" stroke="#63b8ff" d="M161.8,-61.5C181.15,-56.96 202.57,-51.93 223.47,-47.03"/>
<polygon fill="#63b8ff" stroke="#63b8ff" points="224.27,-50.44 233.2,-44.75 222.67,-43.62 224.27,-50.44"/>
</a>
</g>
</g>
<!-- Node3 -->
<g id="Node000003" class="node">
<title>Node3</title>
<g id="a_Node000003"><a xlink:href="classfr_1_1softsf_1_1sudokufx_1_1utils_1_1sudoku_1_1_grid_master.html#a7cd9c1114c0d87a5341aedac86f6407a" target="_top" xlink:title="Calcule la durée de temps écoulé entre la dernière et la nouvelle demande de grille en millisecondes.">
<polygon fill="white" stroke="#666666" points="654.75,-144 503.75,-144 503.75,-112 654.75,-112 654.75,-144"/>
<text text-anchor="start" x="511.75" y="-130.5" font-family="Helvetica,sans-Serif" font-size="10.00">fr.softsf.sudokufx.utils.sudoku.</text>
<text text-anchor="middle" x="579.25" y="-118.5" font-family="Helvetica,sans-Serif" font-size="10.00">GridMaster.dureeEnMs</text>
</a>
</g>
</g>
<!-- Node2&#45;&gt;Node3 -->
<g id="edge2_Node000002_Node000003" class="edge">
<title>Node2&#45;&gt;Node3</title>
<g id="a_edge2_Node000002_Node000003"><a xlink:title=" ">
<path fill="none" stroke="#63b8ff" d="M430.11,-131.61C450.6,-131.11 472.06,-130.59 492.08,-130.1"/>
<polygon fill="#63b8ff" stroke="#63b8ff" points="491.94,-133.61 501.85,-129.86 491.77,-126.61 491.94,-133.61"/>
</a>
</g>
</g>
<!-- Node4 -->
<g id="Node000004" class="node">
<title>Node4</title>
<g id="a_Node000004"><a xlink:href="classfr_1_1softsf_1_1sudokufx_1_1utils_1_1sudoku_1_1_grid_master.html#a87c5a8d088aaceea8e0ca03806e30bcf" target="_top" xlink:title="Masque des cases dans la grille et calcule la somme des possibilités restantes.">
<polygon fill="white" stroke="#666666" points="677.25,-94 481.25,-94 481.25,-62 677.25,-62 677.25,-94"/>
<text text-anchor="start" x="489.25" y="-80.5" font-family="Helvetica,sans-Serif" font-size="10.00">fr.softsf.sudokufx.utils.sudoku.</text>
<text text-anchor="middle" x="579.25" y="-68.5" font-family="Helvetica,sans-Serif" font-size="10.00">GridMaster.getPossibilitesGrilleWhileNok</text>
</a>
</g>
</g>
<!-- Node2&#45;&gt;Node4 -->
<g id="edge3_Node000002_Node000004" class="edge">
<title>Node2&#45;&gt;Node4</title>
<g id="a_edge3_Node000002_Node000004"><a xlink:title=" ">
<path fill="none" stroke="#63b8ff" d="M430.11,-111.71C451.58,-106.82 474.12,-101.69 494.96,-96.95"/>
<polygon fill="#63b8ff" stroke="#63b8ff" points="495.56,-100.4 504.54,-94.77 494.01,-93.58 495.56,-100.4"/>
</a>
</g>
</g>
<!-- Node11 -->
<g id="Node000011" class="node">
<title>Node11</title>
<g id="a_Node000011"><a xlink:href="classfr_1_1softsf_1_1sudokufx_1_1utils_1_1sudoku_1_1_grid_master.html#a5bb14564ed4b6a7cded51e1bedc72faf" target="_top" xlink:title="Génère un nombre entier aléatoire dans un intervalle spécifié.">
<polygon fill="white" stroke="#666666" points="654.75,-41 503.75,-41 503.75,-9 654.75,-9 654.75,-41"/>
<text text-anchor="start" x="511.75" y="-27.5" font-family="Helvetica,sans-Serif" font-size="10.00">fr.softsf.sudokufx.utils.sudoku.</text>
<text text-anchor="middle" x="579.25" y="-15.5" font-family="Helvetica,sans-Serif" font-size="10.00">GridMaster.nombreAleatoire</text>
</a>
</g>
</g>
<!-- Node2&#45;&gt;Node11 -->
<g id="edge10_Node000002_Node000011" class="edge">
<title>Node2&#45;&gt;Node11</title>
<g id="a_edge10_Node000002_Node000011"><a xlink:title=" ">
<path fill="none" stroke="#63b8ff" d="M430.34,-111.77C435.56,-109.17 440.57,-106.25 445.25,-103 467.74,-87.38 458.87,-68.77 481.25,-53 484.93,-50.4 488.85,-48.05 492.93,-45.91"/>
<polygon fill="#63b8ff" stroke="#63b8ff" points="494.39,-49.09 501.95,-41.67 491.41,-42.75 494.39,-49.09"/>
</a>
</g>
</g>
<!-- Node5 -->
<g id="Node000005" class="node">
<title>Node5</title>
<g id="a_Node000005"><a xlink:href="classfr_1_1softsf_1_1sudokufx_1_1utils_1_1sudoku_1_1_grid_master.html#a89fed8ecc70b911e60ca540cca93ef78" target="_top" xlink:title="Cache un nombre spécifié de cases dans la grille à résoudre en les remplaçant par zéro.">
<polygon fill="white" stroke="#666666" points="895.38,-63 744.38,-63 744.38,-31 895.38,-31 895.38,-63"/>
<text text-anchor="start" x="752.38" y="-49.5" font-family="Helvetica,sans-Serif" font-size="10.00">fr.softsf.sudokufx.utils.sudoku.</text>
<text text-anchor="middle" x="819.88" y="-37.5" font-family="Helvetica,sans-Serif" font-size="10.00">GridMaster.cacherLesCases</text>
</a>
</g>
</g>
<!-- Node4&#45;&gt;Node5 -->
<g id="edge4_Node000004_Node000005" class="edge">
<title>Node4&#45;&gt;Node5</title>
<g id="a_edge4_Node000004_Node000005"><a xlink:title=" ">
<path fill="none" stroke="#63b8ff" d="M677.65,-65.35C695.92,-62.97 714.9,-60.51 732.8,-58.18"/>
<polygon fill="#63b8ff" stroke="#63b8ff" points="733.11,-61.67 742.58,-56.91 732.21,-54.73 733.11,-61.67"/>
</a>
</g>
</g>
<!-- Node7 -->
<g id="Node000007" class="node">
<title>Node7</title>
<g id="a_Node000007"><a xlink:href="classfr_1_1softsf_1_1sudokufx_1_1utils_1_1sudoku_1_1_grid_master.html#a46d1bfadcbb911b5a718508185da341f" target="_top" xlink:title="Calcule les possibilités pour chaque case de la grille de Sudoku.">
<polygon fill="white" stroke="#666666" points="895.38,-113 744.38,-113 744.38,-81 895.38,-81 895.38,-113"/>
<text text-anchor="start" x="752.38" y="-99.5" font-family="Helvetica,sans-Serif" font-size="10.00">fr.softsf.sudokufx.utils.sudoku.</text>
<text text-anchor="middle" x="819.88" y="-87.5" font-family="Helvetica,sans-Serif" font-size="10.00">GridMaster.getPossibilites</text>
</a>
</g>
</g>
<!-- Node4&#45;&gt;Node7 -->
<g id="edge6_Node000004_Node000007" class="edge">
<title>Node4&#45;&gt;Node7</title>
<g id="a_edge6_Node000004_Node000007"><a xlink:title=" ">
<path fill="none" stroke="#63b8ff" d="M677.65,-85.76C695.92,-87.21 714.9,-88.72 732.8,-90.15"/>
<polygon fill="#63b8ff" stroke="#63b8ff" points="732.33,-93.62 742.57,-90.92 732.88,-86.64 732.33,-93.62"/>
</a>
</g>
</g>
<!-- Node10 -->
<g id="Node000010" class="node">
<title>Node10</title>
<g id="a_Node000010"><a xlink:href="classfr_1_1softsf_1_1sudokufx_1_1utils_1_1sudoku_1_1_grid_master.html#a700c8e5d20670ded6ac4b56312846839" target="_top" xlink:title="Calcule la somme des possibilités de toutes les cases de la grille de Sudoku.">
<polygon fill="white" stroke="#666666" points="926.5,-163 713.25,-163 713.25,-131 926.5,-131 926.5,-163"/>
<text text-anchor="start" x="721.25" y="-149.5" font-family="Helvetica,sans-Serif" font-size="10.00">fr.softsf.sudokufx.utils.sudoku.</text>
<text text-anchor="middle" x="819.88" y="-137.5" font-family="Helvetica,sans-Serif" font-size="10.00">GridMaster.sommeDesPossibilitesDeLaGrille</text>
</a>
</g>
</g>
<!-- Node4&#45;&gt;Node10 -->
<g id="edge9_Node000004_Node000010" class="edge">
<title>Node4&#45;&gt;Node10</title>
<g id="a_edge9_Node000004_Node000010"><a xlink:title=" ">
<path fill="none" stroke="#63b8ff" d="M652.1,-94.5C660.67,-97.06 669.22,-99.9 677.25,-103 694.12,-109.52 696.31,-115.64 713.25,-122 718.23,-123.87 723.39,-125.63 728.63,-127.28"/>
<polygon fill="#63b8ff" stroke="#63b8ff" points="727.45,-130.58 738.04,-130.09 729.46,-123.87 727.45,-130.58"/>
</a>
</g>
</g>
<!-- Node6 -->
<g id="Node000006" class="node">
<title>Node6</title>
<g id="a_Node000006"><a xlink:href="classfr_1_1softsf_1_1sudokufx_1_1utils_1_1_secure_random_generator.html#ab000b11e58735924b9fca8db827374ad" target="_top" xlink:title="Generates a random integer between 0 (inclusive) and the specified bound (exclusive).">
<polygon fill="white" stroke="#666666" points="1121.75,-41 962.5,-41 962.5,-9 1121.75,-9 1121.75,-41"/>
<text text-anchor="start" x="970.5" y="-27.5" font-family="Helvetica,sans-Serif" font-size="10.00">fr.softsf.sudokufx.utils.</text>
<text text-anchor="middle" x="1042.12" y="-15.5" font-family="Helvetica,sans-Serif" font-size="10.00">SecureRandomGenerator.nextInt</text>
</a>
</g>
</g>
<!-- Node5&#45;&gt;Node6 -->
<g id="edge5_Node000005_Node000006" class="edge">
<title>Node5&#45;&gt;Node6</title>
<g id="a_edge5_Node000005_Node000006"><a xlink:title=" ">
<path fill="none" stroke="#63b8ff" d="M895.75,-39.52C913.51,-37.75 932.64,-35.84 951.01,-34"/>
<polygon fill="#63b8ff" stroke="#63b8ff" points="951.21,-37.5 960.82,-33.02 950.52,-30.53 951.21,-37.5"/>
</a>
</g>
</g>
<!-- Node8 -->
<g id="Node000008" class="node">
<title>Node8</title>
<g id="a_Node000008"><a xlink:href="classfr_1_1softsf_1_1sudokufx_1_1utils_1_1sudoku_1_1_grid_master.html#ad1a85240278a682b9cf73c8d8ec6398d" target="_top" xlink:title="Initialise le tableau des possibilités pour chaque case.">
<polygon fill="white" stroke="#666666" points="1119.88,-113 964.38,-113 964.38,-81 1119.88,-81 1119.88,-113"/>
<text text-anchor="start" x="972.38" y="-99.5" font-family="Helvetica,sans-Serif" font-size="10.00">fr.softsf.sudokufx.utils.sudoku.</text>
<text text-anchor="middle" x="1042.12" y="-87.5" font-family="Helvetica,sans-Serif" font-size="10.00">GridMaster.initialiserPossibilites</text>
</a>
</g>
</g>
<!-- Node7&#45;&gt;Node8 -->
<g id="edge7_Node000007_Node000008" class="edge">
<title>Node7&#45;&gt;Node8</title>
<g id="a_edge7_Node000007_Node000008"><a xlink:title=" ">
<path fill="none" stroke="#63b8ff" d="M895.75,-97C914.11,-97 933.94,-97 952.87,-97"/>
<polygon fill="#63b8ff" stroke="#63b8ff" points="952.69,-100.5 962.69,-97 952.69,-93.5 952.69,-100.5"/>
</a>
</g>
</g>
<!-- Node9 -->
<g id="Node000009" class="node">
<title>Node9</title>
<g id="a_Node000009"><a xlink:href="classfr_1_1softsf_1_1sudokufx_1_1utils_1_1sudoku_1_1_grid_master.html#aab28df678a8069dd22b13a687bb2ba5b" target="_top" xlink:title="Élimine la valeur des possibilités des cases alentours.">
<polygon fill="white" stroke="#666666" points="1308.75,-113 1157.75,-113 1157.75,-81 1308.75,-81 1308.75,-113"/>
<text text-anchor="start" x="1165.75" y="-99.5" font-family="Helvetica,sans-Serif" font-size="10.00">fr.softsf.sudokufx.utils.sudoku.</text>
<text text-anchor="middle" x="1233.25" y="-87.5" font-family="Helvetica,sans-Serif" font-size="10.00">GridMaster.eliminerPossibilite</text>
</a>
</g>
</g>
<!-- Node8&#45;&gt;Node9 -->
<g id="edge8_Node000008_Node000009" class="edge">
<title>Node8&#45;&gt;Node9</title>
<g id="a_edge8_Node000008_Node000009"><a xlink:title=" ">
<path fill="none" stroke="#63b8ff" d="M1120.32,-97C1128.84,-97 1137.56,-97 1146.18,-97"/>
<polygon fill="#63b8ff" stroke="#63b8ff" points="1145.93,-100.5 1155.93,-97 1145.93,-93.5 1145.93,-100.5"/>
</a>
</g>
</g>
<!-- Node11&#45;&gt;Node6 -->
<g id="edge11_Node000011_Node000006" class="edge">
<title>Node11&#45;&gt;Node6</title>
<g id="a_edge11_Node000011_Node000006"><a xlink:title=" ">
<path fill="none" stroke="#63b8ff" d="M655.16,-23.01C674.11,-22.59 694.43,-22.21 713.25,-22 808.02,-20.93 831.73,-20.76 926.5,-22 934.44,-22.1 942.68,-22.25 950.95,-22.42"/>
<polygon fill="#63b8ff" stroke="#63b8ff" points="950.62,-25.91 960.69,-22.63 950.77,-18.91 950.62,-25.91"/>
</a>
</g>
</g>
<!-- Node12&#45;&gt;Node3 -->
<g id="edge13_Node000012_Node000003" class="edge">
<title>Node12&#45;&gt;Node3</title>
<g id="a_edge13_Node000012_Node000003"><a xlink:title=" ">
<path fill="none" stroke="#63b8ff" d="M413.06,-94.44C438.44,-99.6 466.55,-105.31 492.27,-110.53"/>
<polygon fill="#63b8ff" stroke="#63b8ff" points="491.54,-113.96 502.03,-112.52 492.93,-107.1 491.54,-113.96"/>
</a>
</g>
</g>
<!-- Node12&#45;&gt;Node4 -->
<g id="edge14_Node000012_Node000004" class="edge">
<title>Node12&#45;&gt;Node4</title>
<g id="a_edge14_Node000012_Node000004"><a xlink:title=" ">
<path fill="none" stroke="#63b8ff" d="M445.46,-78C453.52,-78 461.64,-78 469.67,-78"/>
<polygon fill="#63b8ff" stroke="#63b8ff" points="469.45,-81.5 479.45,-78 469.45,-74.5 469.45,-81.5"/>
</a>
</g>
</g>
<!-- Node12&#45;&gt;Node11 -->
<g id="edge15_Node000012_Node000011" class="edge">
<title>Node12&#45;&gt;Node11</title>
<g id="a_edge15_Node000012_Node000011"><a xlink:title=" ">
<path fill="none" stroke="#63b8ff" d="M408.65,-61.52C435.19,-55.81 465.12,-49.36 492.37,-43.49"/>
<polygon fill="#63b8ff" stroke="#63b8ff" points="492.94,-46.95 501.98,-41.42 491.47,-40.11 492.94,-46.95"/>
</a>
</g>
</g>
<!-- Node13&#45;&gt;Node3 -->
<g id="edge17_Node000013_Node000003" class="edge">
<title>Node13&#45;&gt;Node3</title>
<g id="a_edge17_Node000013_Node000003"><a xlink:title=" ">
<path fill="none" stroke="#63b8ff" d="M430.62,-44.37C435.73,-46.94 440.65,-49.81 445.25,-53 467.74,-68.62 458.64,-87.55 481.25,-103 484.94,-105.52 488.87,-107.79 492.95,-109.83"/>
<polygon fill="#63b8ff" stroke="#63b8ff" points="491.41,-112.97 501.97,-113.83 494.24,-106.58 491.41,-112.97"/>
</a>
</g>
</g>
<!-- Node13&#45;&gt;Node4 -->
<g id="edge18_Node000013_Node000004" class="edge">
<title>Node13&#45;&gt;Node4</title>
<g id="a_edge18_Node000013_Node000004"><a xlink:title=" ">
<path fill="none" stroke="#63b8ff" d="M430.82,-44.45C452.13,-49.3 474.46,-54.38 495.1,-59.08"/>
<polygon fill="#63b8ff" stroke="#63b8ff" points="494.05,-62.43 504.58,-61.24 495.61,-55.61 494.05,-62.43"/>
</a>
</g>
</g>
<!-- Node13&#45;&gt;Node11 -->
<g id="edge19_Node000013_Node000011" class="edge">
<title>Node13&#45;&gt;Node11</title>
<g id="a_edge19_Node000013_Node000011"><a xlink:title=" ">
<path fill="none" stroke="#63b8ff" d="M432.59,-23.22C452.27,-23.46 472.76,-23.71 491.93,-23.95"/>
<polygon fill="#63b8ff" stroke="#63b8ff" points="491.81,-27.45 501.86,-24.07 491.9,-20.45 491.81,-27.45"/>
</a>
</g>
</g>
</g>
</svg>
