<?xml version="1.0" encoding="UTF-8" standalone="no"?>
<!DOCTYPE svg PUBLIC "-//W3C//DTD SVG 1.1//EN"
 "http://www.w3.org/Graphics/SVG/1.1/DTD/svg11.dtd">
<!-- Generated by graphviz version 12.2.1 (20241206.2353)
 -->
<!-- Title: fr.softsf.sudokufx.view.CrashScreenView Pages: 1 -->
<svg width="720pt" height="764pt"
 viewBox="0.00 0.00 719.62 764.00" xmlns="http://www.w3.org/2000/svg" xmlns:xlink="http://www.w3.org/1999/xlink">
<g id="graph0" class="graph" transform="scale(1 1) rotate(0) translate(4 760)">
<title>fr.softsf.sudokufx.view.CrashScreenView</title>
<!-- Node1 -->
<g id="Node000001" class="node">
<title>Node1</title>
<g id="a_Node000001"><a xlink:title="View class for the crash screen without business logic.">
<polygon fill="#999999" stroke="none" points="433,-620 239.5,-620 239.5,0 433,0 433,-620"/>
<text text-anchor="start" x="285.25" y="-606.5" font-family="Helvetica,sans-Serif" font-size="10.00">fr.softsf.sudokufx.view.</text>
<text text-anchor="start" x="296.88" y="-594.5" font-family="Helvetica,sans-Serif" font-size="10.00">CrashScreenView</text>
<text text-anchor="start" x="245" y="-578.5" font-family="Helvetica,sans-Serif" font-size="10.00">&#45;</text>
<text text-anchor="start" x="253.5" y="-578.5" font-family="Helvetica,sans-Serif" font-size="10.00">Button buttonClose</text>
<text text-anchor="start" x="245" y="-562.5" font-family="Helvetica,sans-Serif" font-size="10.00">&#45;</text>
<text text-anchor="start" x="253.5" y="-562.5" font-family="Helvetica,sans-Serif" font-size="10.00">Button buttonReset</text>
<text text-anchor="start" x="245" y="-546.5" font-family="Helvetica,sans-Serif" font-size="10.00">&#45;</text>
<text text-anchor="start" x="253.5" y="-546.5" font-family="Helvetica,sans-Serif" font-size="10.00">double crashScreenFontSize</text>
<text text-anchor="start" x="245" y="-530.5" font-family="Helvetica,sans-Serif" font-size="10.00">&#45;</text>
<text text-anchor="start" x="253.5" y="-530.5" font-family="Helvetica,sans-Serif" font-size="10.00">final Stage crashscreenStage</text>
<text text-anchor="start" x="245" y="-514.5" font-family="Helvetica,sans-Serif" font-size="10.00">&#45;</text>
<text text-anchor="start" x="253.5" y="-514.5" font-family="Helvetica,sans-Serif" font-size="10.00">VBox crashscreenvbox</text>
<text text-anchor="start" x="245" y="-498.5" font-family="Helvetica,sans-Serif" font-size="10.00">&#45;</text>
<text text-anchor="start" x="253.5" y="-498.5" font-family="Helvetica,sans-Serif" font-size="10.00">Label crashscreenvboxBottomhbox</text>
<text text-anchor="start" x="253.5" y="-486.5" font-family="Helvetica,sans-Serif" font-size="10.00">Versionlabel</text>
<text text-anchor="start" x="245" y="-470.5" font-family="Helvetica,sans-Serif" font-size="10.00">&#45;</text>
<text text-anchor="start" x="253.5" y="-470.5" font-family="Helvetica,sans-Serif" font-size="10.00">Label crashscreenvboxBottomhbox</text>
<text text-anchor="start" x="253.5" y="-458.5" font-family="Helvetica,sans-Serif" font-size="10.00">Yearlabel</text>
<text text-anchor="start" x="245" y="-442.5" font-family="Helvetica,sans-Serif" font-size="10.00">&#45;</text>
<text text-anchor="start" x="253.5" y="-442.5" font-family="Helvetica,sans-Serif" font-size="10.00">HBox crashscreenvboxCenterhboxHbox</text>
<text text-anchor="start" x="245" y="-426.5" font-family="Helvetica,sans-Serif" font-size="10.00">&#45;</text>
<text text-anchor="start" x="253.5" y="-426.5" font-family="Helvetica,sans-Serif" font-size="10.00">Label crashscreenvboxCenterhbox</text>
<text text-anchor="start" x="253.5" y="-414.5" font-family="Helvetica,sans-Serif" font-size="10.00">Label</text>
<text text-anchor="start" x="245" y="-398.5" font-family="Helvetica,sans-Serif" font-size="10.00">&#45;</text>
<text text-anchor="start" x="253.5" y="-398.5" font-family="Helvetica,sans-Serif" font-size="10.00">Label crashscreenvboxCenterhbox</text>
<text text-anchor="start" x="253.5" y="-386.5" font-family="Helvetica,sans-Serif" font-size="10.00">Label2</text>
<text text-anchor="start" x="245" y="-370.5" font-family="Helvetica,sans-Serif" font-size="10.00">&#45;</text>
<text text-anchor="start" x="253.5" y="-370.5" font-family="Helvetica,sans-Serif" font-size="10.00">Label crashscreenvboxTophbox</text>
<text text-anchor="start" x="253.5" y="-358.5" font-family="Helvetica,sans-Serif" font-size="10.00">Namelabel</text>
<text text-anchor="start" x="245" y="-342.5" font-family="Helvetica,sans-Serif" font-size="10.00">&#45;</text>
<text text-anchor="start" x="253.5" y="-342.5" font-family="Helvetica,sans-Serif" font-size="10.00">Region crashscreenvboxTophbox</text>
<text text-anchor="start" x="253.5" y="-330.5" font-family="Helvetica,sans-Serif" font-size="10.00">Regionsudosvg</text>
<text text-anchor="start" x="245" y="-314.5" font-family="Helvetica,sans-Serif" font-size="10.00">&#45;</text>
<text text-anchor="start" x="253.5" y="-314.5" font-family="Helvetica,sans-Serif" font-size="10.00">final DropShadow dropShadow</text>
<text text-anchor="start" x="245" y="-298.5" font-family="Helvetica,sans-Serif" font-size="10.00">&#45;</text>
<text text-anchor="start" x="253.5" y="-298.5" font-family="Helvetica,sans-Serif" font-size="10.00">final Stage primaryStage</text>
<text text-anchor="start" x="245" y="-282.5" font-family="Helvetica,sans-Serif" font-size="10.00">&#45;</text>
<text text-anchor="start" x="253.5" y="-282.5" font-family="Helvetica,sans-Serif" font-size="10.00">static final double</text>
<text text-anchor="start" x="253.5" y="-270.5" font-family="Helvetica,sans-Serif" font-size="10.00"> FADE_IN_IN_SECONDS</text>
<text text-anchor="start" x="253.5" y="-258.5" font-family="Helvetica,sans-Serif" font-size="10.00">_AFTER_SPLASHSCREEN</text>
<text text-anchor="start" x="243.5" y="-242.5" font-family="Helvetica,sans-Serif" font-size="10.00">+</text>
<text text-anchor="start" x="253.5" y="-242.5" font-family="Helvetica,sans-Serif" font-size="10.00">void openingMainStage</text>
<text text-anchor="start" x="253.5" y="-230.5" font-family="Helvetica,sans-Serif" font-size="10.00">(ISplashScreenView iSplashScreen</text>
<text text-anchor="start" x="253.5" y="-218.5" font-family="Helvetica,sans-Serif" font-size="10.00">View)</text>
<text text-anchor="start" x="245" y="-202.5" font-family="Helvetica,sans-Serif" font-size="10.00">&#45;</text>
<text text-anchor="start" x="253.5" y="-202.5" font-family="Helvetica,sans-Serif" font-size="10.00">void closeButtonClick()</text>
<text text-anchor="start" x="245" y="-186.5" font-family="Helvetica,sans-Serif" font-size="10.00">&#45;</text>
<text text-anchor="start" x="253.5" y="-186.5" font-family="Helvetica,sans-Serif" font-size="10.00">void createSVG(final</text>
<text text-anchor="start" x="253.5" y="-174.5" font-family="Helvetica,sans-Serif" font-size="10.00"> Region region, final</text>
<text text-anchor="start" x="253.5" y="-162.5" font-family="Helvetica,sans-Serif" font-size="10.00"> String path, final double</text>
<text text-anchor="start" x="253.5" y="-150.5" font-family="Helvetica,sans-Serif" font-size="10.00"> width, final double height,</text>
<text text-anchor="start" x="253.5" y="-138.5" font-family="Helvetica,sans-Serif" font-size="10.00"> final double offsetX, final</text>
<text text-anchor="start" x="253.5" y="-126.5" font-family="Helvetica,sans-Serif" font-size="10.00"> double offsetY)</text>
<text text-anchor="start" x="245" y="-110.5" font-family="Helvetica,sans-Serif" font-size="10.00">&#45;</text>
<text text-anchor="start" x="253.5" y="-110.5" font-family="Helvetica,sans-Serif" font-size="10.00">void fadeIn(final Node</text>
<text text-anchor="start" x="253.5" y="-98.5" font-family="Helvetica,sans-Serif" font-size="10.00"> node)</text>
<text text-anchor="start" x="245" y="-82.5" font-family="Helvetica,sans-Serif" font-size="10.00">&#45;</text>
<text text-anchor="start" x="253.5" y="-82.5" font-family="Helvetica,sans-Serif" font-size="10.00">void hidecrashscreen()</text>
<text text-anchor="start" x="245" y="-66.5" font-family="Helvetica,sans-Serif" font-size="10.00">&#45;</text>
<text text-anchor="start" x="253.5" y="-66.5" font-family="Helvetica,sans-Serif" font-size="10.00">void initialize()</text>
<text text-anchor="start" x="245" y="-50.5" font-family="Helvetica,sans-Serif" font-size="10.00">&#45;</text>
<text text-anchor="start" x="253.5" y="-50.5" font-family="Helvetica,sans-Serif" font-size="10.00">void resetButtonClick()</text>
<text text-anchor="start" x="245" y="-34.5" font-family="Helvetica,sans-Serif" font-size="10.00">&#45;</text>
<text text-anchor="start" x="253.5" y="-34.5" font-family="Helvetica,sans-Serif" font-size="10.00">void setCrashscreenvboxTophbox</text>
<text text-anchor="start" x="253.5" y="-22.5" font-family="Helvetica,sans-Serif" font-size="10.00">Logosudosvg()</text>
<text text-anchor="start" x="245" y="-6.5" font-family="Helvetica,sans-Serif" font-size="10.00">&#45;</text>
<text text-anchor="start" x="253.5" y="-6.5" font-family="Helvetica,sans-Serif" font-size="10.00">void showcrashscreen()</text>
<polygon fill="#666666" stroke="#666666" points="239.5,-590 239.5,-590 433,-590 433,-590 239.5,-590"/>
<polygon fill="#666666" stroke="#666666" points="239.5,-254 239.5,-254 251.5,-254 251.5,-254 239.5,-254"/>
<polygon fill="#666666" stroke="#666666" points="251.5,-254 251.5,-254 433,-254 433,-254 251.5,-254"/>
<polygon fill="none" stroke="#666666" points="239.5,0 239.5,-620 433,-620 433,0 239.5,0"/>
</a>
</g>
</g>
<!-- Node2 -->
<g id="Node000002" class="node">
<title>Node2</title>
<g id="a_Node000002"><a xlink:href="interfacefr_1_1softsf_1_1sudokufx_1_1interfaces_1_1_i_main_stage_view.html" target="_top" xlink:title="Interface defining method to open the main stage.">
<polygon fill="white" stroke="none" points="172.5,-756 0,-756 0,-668 172.5,-668 172.5,-756"/>
<text text-anchor="start" x="23.62" y="-742.5" font-family="Helvetica,sans-Serif" font-size="10.00">fr.softsf.sudokufx.interfaces.</text>
<text text-anchor="start" x="50.62" y="-730.5" font-family="Helvetica,sans-Serif" font-size="10.00">IMainStageView</text>
<text text-anchor="start" x="84.75" y="-714.5" font-family="Helvetica,sans-Serif" font-size="10.00"> </text>
<text text-anchor="start" x="4" y="-698.5" font-family="Helvetica,sans-Serif" font-size="10.00">+</text>
<text text-anchor="start" x="14" y="-698.5" font-family="Helvetica,sans-Serif" font-size="10.00">void openingMainStage</text>
<text text-anchor="start" x="14" y="-686.5" font-family="Helvetica,sans-Serif" font-size="10.00">(ISplashScreenView iSplashScreen</text>
<text text-anchor="start" x="14" y="-674.5" font-family="Helvetica,sans-Serif" font-size="10.00">View)</text>
<polygon fill="#666666" stroke="#666666" points="0,-726 0,-726 172.5,-726 172.5,-726 0,-726"/>
<polygon fill="#666666" stroke="#666666" points="0,-710 0,-710 172.5,-710 172.5,-710 0,-710"/>
<polygon fill="none" stroke="#666666" points="0,-668 0,-756 172.5,-756 172.5,-668 0,-668"/>
</a>
</g>
</g>
<!-- Node2&#45;&gt;Node1 -->
<g id="edge1_Node000001_Node000002" class="edge">
<title>Node2&#45;&gt;Node1</title>
<g id="a_edge1_Node000001_Node000002"><a xlink:title=" ">
<path fill="none" stroke="#63b8ff" d="M119.1,-658.44C149.78,-609.35 197.12,-533.61 239.77,-465.36"/>
<polygon fill="none" stroke="#63b8ff" points="116.14,-656.57 113.81,-666.91 122.07,-660.28 116.14,-656.57"/>
</a>
</g>
</g>
<!-- Node3 -->
<g id="Node000003" class="node">
<title>Node3</title>
<g id="a_Node000003"><a xlink:href="interfacefr_1_1softsf_1_1sudokufx_1_1interfaces_1_1_i_scene_provider.html" target="_top" xlink:title="Interface ISceneProvider.">
<polygon fill="white" stroke="none" points="323.88,-744 190.62,-744 190.62,-680 323.88,-680 323.88,-744"/>
<text text-anchor="start" x="194.62" y="-730.5" font-family="Helvetica,sans-Serif" font-size="10.00">fr.softsf.sudokufx.interfaces.</text>
<text text-anchor="start" x="223.88" y="-718.5" font-family="Helvetica,sans-Serif" font-size="10.00">ISceneProvider</text>
<text text-anchor="start" x="255.75" y="-702.5" font-family="Helvetica,sans-Serif" font-size="10.00"> </text>
<text text-anchor="start" x="195.88" y="-686.5" font-family="Helvetica,sans-Serif" font-size="10.00">+</text>
<text text-anchor="start" x="207.12" y="-686.5" font-family="Helvetica,sans-Serif" font-size="10.00">default Scene getScene()</text>
<polygon fill="#666666" stroke="#666666" points="190.62,-714 190.62,-714 323.88,-714 323.88,-714 190.62,-714"/>
<polygon fill="#666666" stroke="#666666" points="190.62,-698 190.62,-698 323.88,-698 323.88,-698 190.62,-698"/>
<polygon fill="none" stroke="#666666" points="190.62,-680 190.62,-744 323.88,-744 323.88,-680 190.62,-680"/>
</a>
</g>
</g>
<!-- Node3&#45;&gt;Node1 -->
<g id="edge2_Node000001_Node000003" class="edge">
<title>Node3&#45;&gt;Node1</title>
<g id="a_edge2_Node000001_Node000003"><a xlink:title=" ">
<path fill="none" stroke="#63b8ff" d="M265.5,-669.24C268.26,-655.27 271.58,-638.46 275.25,-619.85"/>
<polygon fill="none" stroke="#63b8ff" points="262.12,-668.3 263.61,-678.79 268.98,-669.66 262.12,-668.3"/>
</a>
</g>
</g>
<!-- Node4 -->
<g id="Node000004" class="node">
<title>Node4</title>
<g id="a_Node000004"><a xlink:href="interfacefr_1_1softsf_1_1sudokufx_1_1interfaces_1_1_i_os_folder_factory.html" target="_top" xlink:title="Interface defining methods to access OS&#45;specific folder paths.">
<polygon fill="white" stroke="none" points="488.75,-752 341.75,-752 341.75,-672 488.75,-672 488.75,-752"/>
<text text-anchor="start" x="352.62" y="-738.5" font-family="Helvetica,sans-Serif" font-size="10.00">fr.softsf.sudokufx.interfaces.</text>
<text text-anchor="start" x="377.38" y="-726.5" font-family="Helvetica,sans-Serif" font-size="10.00">IOsFolderFactory</text>
<text text-anchor="start" x="413.75" y="-710.5" font-family="Helvetica,sans-Serif" font-size="10.00"> </text>
<text text-anchor="start" x="345.75" y="-694.5" font-family="Helvetica,sans-Serif" font-size="10.00">+</text>
<text text-anchor="start" x="355.75" y="-694.5" font-family="Helvetica,sans-Serif" font-size="10.00">String getOsDataFolderPath()</text>
<text text-anchor="start" x="345.75" y="-678.5" font-family="Helvetica,sans-Serif" font-size="10.00">+</text>
<text text-anchor="start" x="355.75" y="-678.5" font-family="Helvetica,sans-Serif" font-size="10.00">String getOsLogsFolderPath()</text>
<polygon fill="#666666" stroke="#666666" points="341.75,-722 341.75,-722 488.75,-722 488.75,-722 341.75,-722"/>
<polygon fill="#666666" stroke="#666666" points="341.75,-706 341.75,-706 488.75,-706 488.75,-706 341.75,-706"/>
<polygon fill="none" stroke="#666666" points="341.75,-672 341.75,-752 488.75,-752 488.75,-672 341.75,-672"/>
</a>
</g>
</g>
<!-- Node4&#45;&gt;Node1 -->
<g id="edge3_Node000001_Node000004" class="edge">
<title>Node4&#45;&gt;Node1</title>
<g id="a_edge3_Node000001_Node000004"><a xlink:title=" ">
<path fill="none" stroke="#63b8ff" d="M407.6,-672.28C405.36,-660.95 402.72,-647.57 399.79,-632.75"/>
<polygon fill="none" stroke="#63b8ff" points="399.77,-632.63 394.68,-627.52 397.45,-620.85 402.53,-625.97 399.77,-632.63"/>
</a>
</g>
<text text-anchor="middle" x="442.51" y="-640.5" font-family="Helvetica,sans-Serif" font-size="10.00" fill="grey"> &#45;iOsFolderFactory</text>
</g>
<!-- Node5 -->
<g id="Node000005" class="node">
<title>Node5</title>
<g id="a_Node000005"><a xlink:href="interfacefr_1_1softsf_1_1sudokufx_1_1interfaces_1_1_i_file_system.html" target="_top" xlink:title="Interface defining a method to recursively deletes a folder and its contents.">
<polygon fill="white" stroke="none" points="711.62,-750 506.88,-750 506.88,-674 711.62,-674 711.62,-750"/>
<text text-anchor="start" x="546.62" y="-736.5" font-family="Helvetica,sans-Serif" font-size="10.00">fr.softsf.sudokufx.interfaces.</text>
<text text-anchor="start" x="583" y="-724.5" font-family="Helvetica,sans-Serif" font-size="10.00">IFileSystem</text>
<text text-anchor="start" x="607.75" y="-708.5" font-family="Helvetica,sans-Serif" font-size="10.00"> </text>
<text text-anchor="start" x="510.88" y="-692.5" font-family="Helvetica,sans-Serif" font-size="10.00">+</text>
<text text-anchor="start" x="520.88" y="-692.5" font-family="Helvetica,sans-Serif" font-size="10.00">boolean deleteFolderRecursively</text>
<text text-anchor="start" x="520.88" y="-680.5" font-family="Helvetica,sans-Serif" font-size="10.00">(Path folderPath, String mustEndWithThat)</text>
<polygon fill="#666666" stroke="#666666" points="506.88,-720 506.88,-720 711.62,-720 711.62,-720 506.88,-720"/>
<polygon fill="#666666" stroke="#666666" points="506.88,-704 506.88,-704 711.62,-704 711.62,-704 506.88,-704"/>
<polygon fill="none" stroke="#666666" points="506.88,-674 506.88,-750 711.62,-750 711.62,-674 506.88,-674"/>
</a>
</g>
</g>
<!-- Node5&#45;&gt;Node1 -->
<g id="edge4_Node000001_Node000005" class="edge">
<title>Node5&#45;&gt;Node1</title>
<g id="a_edge4_Node000001_Node000005"><a xlink:title=" ">
<path fill="none" stroke="#63b8ff" d="M584.06,-674.09C551.4,-626.24 492.46,-539.88 440.25,-463.38"/>
<polygon fill="none" stroke="#63b8ff" points="440.2,-463.31 433.52,-460.61 433.44,-453.4 440.13,-456.1 440.2,-463.31"/>
</a>
</g>
<text text-anchor="middle" x="592.36" y="-640.5" font-family="Helvetica,sans-Serif" font-size="10.00" fill="grey"> &#45;iFileSystem</text>
</g>
</g>
</svg>
