<?xml version="1.0" encoding="UTF-8" standalone="no"?>
<!DOCTYPE svg PUBLIC "-//W3C//DTD SVG 1.1//EN"
 "http://www.w3.org/Graphics/SVG/1.1/DTD/svg11.dtd">
<!-- Generated by graphviz version 12.2.0 (20241103.1931)
 -->
<!-- Title: fr.softsf.sudokufx.configuration.database.DataSourceConfig Pages: 1 -->
<svg width="197pt" height="192pt"
 viewBox="0.00 0.00 196.75 192.00" xmlns="http://www.w3.org/2000/svg" xmlns:xlink="http://www.w3.org/1999/xlink">
<g id="graph0" class="graph" transform="scale(1 1) rotate(0) translate(4 188)">
<title>fr.softsf.sudokufx.configuration.database.DataSourceConfig</title>
<!-- Node1 -->
<g id="Node000001" class="node">
<title>Node1</title>
<g id="a_Node000001"><a xlink:title="Abstract configuration class for setting up the application&#39;s data source.">
<polygon fill="#999999" stroke="none" points="188.75,-184 0,-184 0,0 188.75,0 188.75,-184"/>
<text text-anchor="start" x="4" y="-170.5" font-family="Helvetica,sans-Serif" font-size="10.00">fr.softsf.sudokufx.configuration.database.</text>
<text text-anchor="start" x="54.25" y="-158.5" font-family="Helvetica,sans-Serif" font-size="10.00">DataSourceConfig</text>
<text text-anchor="start" x="8.25" y="-142.5" font-family="Helvetica,sans-Serif" font-size="10.00">&#45;</text>
<text text-anchor="start" x="19.5" y="-142.5" font-family="Helvetica,sans-Serif" font-size="10.00">String jdbcUrl</text>
<text text-anchor="start" x="8.25" y="-126.5" font-family="Helvetica,sans-Serif" font-size="10.00">&#45;</text>
<text text-anchor="start" x="19.5" y="-126.5" font-family="Helvetica,sans-Serif" font-size="10.00">String poolName</text>
<text text-anchor="start" x="6.75" y="-110.5" font-family="Helvetica,sans-Serif" font-size="10.00">~</text>
<text text-anchor="start" x="19.5" y="-110.5" font-family="Helvetica,sans-Serif" font-size="10.00">Flyway flyway(final</text>
<text text-anchor="start" x="19.5" y="-98.5" font-family="Helvetica,sans-Serif" font-size="10.00"> HikariDataSource hikariData</text>
<text text-anchor="start" x="19.5" y="-86.5" font-family="Helvetica,sans-Serif" font-size="10.00">Source)</text>
<text text-anchor="start" x="6.75" y="-70.5" font-family="Helvetica,sans-Serif" font-size="10.00">~</text>
<text text-anchor="start" x="19.5" y="-70.5" font-family="Helvetica,sans-Serif" font-size="10.00">HikariDataSource hikariData</text>
<text text-anchor="start" x="19.5" y="-58.5" font-family="Helvetica,sans-Serif" font-size="10.00">Source(final IKeystore iKeystore,</text>
<text text-anchor="start" x="19.5" y="-46.5" font-family="Helvetica,sans-Serif" font-size="10.00"> IOsFolderFactory iOsFolderFactory)</text>
<text text-anchor="start" x="6.75" y="-30.5" font-family="Helvetica,sans-Serif" font-size="10.00">~</text>
<text text-anchor="start" x="19.5" y="-30.5" font-family="Helvetica,sans-Serif" font-size="10.00">int logbackInitialization</text>
<text text-anchor="start" x="19.5" y="-18.5" font-family="Helvetica,sans-Serif" font-size="10.00">(final MyLogbackConfig</text>
<text text-anchor="start" x="19.5" y="-6.5" font-family="Helvetica,sans-Serif" font-size="10.00"> myLogbackConfig)</text>
<polygon fill="#666666" stroke="#666666" points="0,-154 0,-154 188.75,-154 188.75,-154 0,-154"/>
<polygon fill="#666666" stroke="#666666" points="0,-122 0,-122 17.5,-122 17.5,-122 0,-122"/>
<polygon fill="#666666" stroke="#666666" points="17.5,-122 17.5,-122 188.75,-122 188.75,-122 17.5,-122"/>
<polygon fill="none" stroke="#666666" points="0,0 0,-184 188.75,-184 188.75,0 0,0"/>
</a>
</g>
</g>
</g>
</svg>
