<?xml version="1.0" encoding="UTF-8" standalone="no"?>
<!DOCTYPE svg PUBLIC "-//W3C//DTD SVG 1.1//EN"
 "http://www.w3.org/Graphics/SVG/1.1/DTD/svg11.dtd">
<!-- Generated by graphviz version 12.2.0 (20241103.1931)
 -->
<!-- Title: fr.softsf.sudofx2024.utils.database.keystore.ApplicationKeystore.symmetricKeyNotInKeystore Pages: 1 -->
<svg width="747pt" height="90pt"
 viewBox="0.00 0.00 746.75 90.00" xmlns="http://www.w3.org/2000/svg" xmlns:xlink="http://www.w3.org/1999/xlink">
<g id="graph0" class="graph" transform="scale(1 1) rotate(0) translate(4 86)">
<title>fr.softsf.sudofx2024.utils.database.keystore.ApplicationKeystore.symmetricKeyNotInKeystore</title>
<!-- Node1 -->
<g id="Node000001" class="node">
<title>Node1</title>
<g id="a_Node000001"><a xlink:title="Set the symmetric key and set encryption service.">
<polygon fill="#999999" stroke="#666666" points="232,-32 0,-32 0,0 232,0 232,-32"/>
<text text-anchor="start" x="8" y="-18.5" font-family="Helvetica,sans-Serif" font-size="10.00">fr.softsf.sudofx2024.utils.database.keystore.</text>
<text text-anchor="middle" x="116" y="-6.5" font-family="Helvetica,sans-Serif" font-size="10.00">ApplicationKeystore.symmetricKeyNotInKeystore</text>
</a>
</g>
</g>
<!-- Node2 -->
<g id="Node000002" class="node">
<title>Node2</title>
<g id="a_Node000002"><a xlink:href="classfr_1_1softsf_1_1sudofx2024_1_1utils_1_1database_1_1keystore_1_1_application_keystore.html#a66b4511230a0a8390a1d43d6b7efbe21" target="_top" xlink:title="Add alias:secret in the Keystore.">
<polygon fill="white" stroke="#666666" points="478.25,-82 268,-82 268,-50 478.25,-50 478.25,-82"/>
<text text-anchor="start" x="276" y="-68.5" font-family="Helvetica,sans-Serif" font-size="10.00">fr.softsf.sudofx2024.utils.database.keystore.</text>
<text text-anchor="middle" x="373.12" y="-56.5" font-family="Helvetica,sans-Serif" font-size="10.00">ApplicationKeystore.addToKeystore</text>
</a>
</g>
</g>
<!-- Node1&#45;&gt;Node2 -->
<g id="edge1_Node000001_Node000002" class="edge">
<title>Node1&#45;&gt;Node2</title>
<g id="a_edge1_Node000001_Node000002"><a xlink:title=" ">
<path fill="none" stroke="#63b8ff" d="M200.89,-32.44C225.31,-37.23 252.15,-42.49 277.2,-47.4"/>
<polygon fill="#63b8ff" stroke="#63b8ff" points="276.21,-50.77 286.7,-49.26 277.56,-43.9 276.21,-50.77"/>
</a>
</g>
</g>
<!-- Node4 -->
<g id="Node000004" class="node">
<title>Node4</title>
<g id="a_Node000004"><a xlink:href="classfr_1_1softsf_1_1sudofx2024_1_1utils_1_1database_1_1keystore_1_1_application_keystore.html#a689ef651e59f787115966dc6b164d575" target="_top" xlink:title="Check the symmetric key presence.">
<polygon fill="white" stroke="#666666" points="478.25,-32 268,-32 268,0 478.25,0 478.25,-32"/>
<text text-anchor="start" x="276" y="-18.5" font-family="Helvetica,sans-Serif" font-size="10.00">fr.softsf.sudofx2024.utils.database.keystore.</text>
<text text-anchor="middle" x="373.12" y="-6.5" font-family="Helvetica,sans-Serif" font-size="10.00">ApplicationKeystore.symmetricKey</text>
</a>
</g>
</g>
<!-- Node1&#45;&gt;Node4 -->
<g id="edge3_Node000001_Node000004" class="edge">
<title>Node1&#45;&gt;Node4</title>
<g id="a_edge3_Node000001_Node000004"><a xlink:title=" ">
<path fill="none" stroke="#63b8ff" d="M232.25,-9.28C240.23,-9.24 248.29,-9.24 256.28,-9.28"/>
<polygon fill="#63b8ff" stroke="#63b8ff" points="255.99,-12.77 266.01,-9.34 256.03,-5.77 255.99,-12.77"/>
</a>
</g>
</g>
<!-- Node3 -->
<g id="Node000003" class="node">
<title>Node3</title>
<g id="a_Node000003"><a xlink:href="classfr_1_1softsf_1_1sudofx2024_1_1utils_1_1database_1_1keystore_1_1_application_keystore.html#abcb102074a1e953ef3fe4031145dbf9d" target="_top" xlink:title="Write data to the keystore file.">
<polygon fill="white" stroke="#666666" points="731.62,-82 521.38,-82 521.38,-50 731.62,-50 731.62,-82"/>
<text text-anchor="start" x="529.38" y="-68.5" font-family="Helvetica,sans-Serif" font-size="10.00">fr.softsf.sudofx2024.utils.database.keystore.</text>
<text text-anchor="middle" x="626.5" y="-56.5" font-family="Helvetica,sans-Serif" font-size="10.00">ApplicationKeystore.writeTheKeystore</text>
</a>
</g>
</g>
<!-- Node2&#45;&gt;Node3 -->
<g id="edge2_Node000002_Node000003" class="edge">
<title>Node2&#45;&gt;Node3</title>
<g id="a_edge2_Node000002_Node000003"><a xlink:title=" ">
<path fill="none" stroke="#63b8ff" d="M478.55,-66C488.85,-66 499.35,-66 509.76,-66"/>
<polygon fill="#63b8ff" stroke="#63b8ff" points="509.49,-69.5 519.49,-66 509.49,-62.5 509.49,-69.5"/>
</a>
</g>
</g>
<!-- Node4&#45;&gt;Node1 -->
<g id="edge5_Node000004_Node000001" class="edge">
<title>Node4&#45;&gt;Node1</title>
<g id="a_edge5_Node000004_Node000001"><a xlink:title=" ">
<path fill="none" stroke="#63b8ff" d="M267.52,-22.65C259.62,-22.72 251.59,-22.75 243.57,-22.75"/>
<polygon fill="#63b8ff" stroke="#63b8ff" points="243.77,-19.25 233.76,-22.73 243.75,-26.25 243.77,-19.25"/>
</a>
</g>
</g>
<!-- Node5 -->
<g id="Node000005" class="node">
<title>Node5</title>
<g id="a_Node000005"><a xlink:href="classfr_1_1softsf_1_1sudofx2024_1_1utils_1_1database_1_1keystore_1_1_application_keystore.html#a952a6119cdb4303221ac9952f226990b" target="_top" xlink:title="Get the symmetric key and set encryption service.">
<polygon fill="white" stroke="#666666" points="738.75,-32 514.25,-32 514.25,0 738.75,0 738.75,-32"/>
<text text-anchor="start" x="522.25" y="-18.5" font-family="Helvetica,sans-Serif" font-size="10.00">fr.softsf.sudofx2024.utils.database.keystore.</text>
<text text-anchor="middle" x="626.5" y="-6.5" font-family="Helvetica,sans-Serif" font-size="10.00">ApplicationKeystore.symmetricKeyIsInKeystore</text>
</a>
</g>
</g>
<!-- Node4&#45;&gt;Node5 -->
<g id="edge4_Node000004_Node000005" class="edge">
<title>Node4&#45;&gt;Node5</title>
<g id="a_edge4_Node000004_Node000005"><a xlink:title=" ">
<path fill="none" stroke="#63b8ff" d="M478.55,-16C486.52,-16 494.62,-16 502.7,-16"/>
<polygon fill="#63b8ff" stroke="#63b8ff" points="502.58,-19.5 512.58,-16 502.58,-12.5 502.58,-19.5"/>
</a>
</g>
</g>
</g>
</svg>
