<?xml version="1.0" encoding="UTF-8" standalone="no"?>
<!DOCTYPE svg PUBLIC "-//W3C//DTD SVG 1.1//EN"
 "http://www.w3.org/Graphics/SVG/1.1/DTD/svg11.dtd">
<!-- Generated by graphviz version 12.2.0 (20241103.1931)
 -->
<!-- Title: fr.softsf.sudokufx.utils.sudoku.GridMaster Pages: 1 -->
<!--zoomable 1384 -->

<svg id="main" version="1.1" xmlns="http://www.w3.org/2000/svg" xmlns:xlink="http://www.w3.org/1999/xlink" xml:space="preserve" onload="init(evt)">

<style type="text/css"><![CDATA[
.node, .edge {opacity: 0.7;}
.node.selected, .edge.selected {opacity: 1;}
.edge:hover path { stroke: red; }
.edge:hover polygon { stroke: red; fill: red; }
]]></style>

<defs>
  <circle id="rim" cx="0" cy="0" r="7"/>
  <circle id="rim2" cx="0" cy="0" r="3.5"/>
  <g id="zoomPlus">
    <use xlink:href="#rim" fill="#404040"><set attributeName="fill" to="#808080" begin="zoomplus.mouseover" end="zoomplus.mouseout"/></use>
    <path d="M-4,0h8M0,-4v8" fill="none" stroke="white" stroke-width="1.5" pointer-events="none"/>
  </g>
  <g id="zoomMin">
    <use xlink:href="#rim" fill="#404040"><set attributeName="fill" to="#808080" begin="zoomminus.mouseover" end="zoomminus.mouseout"/></use>
    <path d="M-4,0h8" fill="none" stroke="white" stroke-width="1.5" pointer-events="none"/>
  </g>
  <g id="arrowUp" transform="translate(30 24)">
    <use xlink:href="#rim"/>
    <path pointer-events="none" fill="none" stroke="white" stroke-width="1.5" d="M0,-3.0v7 M-2.5,-0.5L0,-3.0L2.5,-0.5"/>
  </g>
  <g id="arrowRight" transform="rotate(90) translate(36 -43)">
    <use xlink:href="#rim"/>
    <path pointer-events="none" fill="none" stroke="white" stroke-width="1.5" d="M0,-3.0v7 M-2.5,-0.5L0,-3.0L2.5,-0.5"/>
  </g>
  <g id="arrowDown" transform="rotate(180) translate(-30 -48)">
    <use xlink:href="#rim"/>
    <path pointer-events="none" fill="none" stroke="white" stroke-width="1.5" d="M0,-3.0v7 M-2.5,-0.5L0,-3.0L2.5,-0.5"/>
  </g>
  <g id="arrowLeft" transform="rotate(270) translate(-36 17)">
    <use xlink:href="#rim"/>
    <path pointer-events="none" fill="none" stroke="white" stroke-width="1.5" d="M0,-3.0v7 M-2.5,-0.5L0,-3.0L2.5,-0.5"/>
  </g>
  <g id="resetDef">
    <use xlink:href="#rim2" fill="#404040"><set attributeName="fill" to="#808080" begin="reset.mouseover" end="reset.mouseout"/></use>
  </g>
</defs>
<script type="application/ecmascript">
var viewWidth = 422;
var viewHeight = 1384;
var sectionId = 'dynsection-1';
</script>
<script type="application/ecmascript" xlink:href="svg.min.js"/>
<svg id="graph" class="graph">
<g id="viewport">
<title>fr.softsf.sudokufx.utils.sudoku.GridMaster</title>
<!-- Node1 -->
<g id="Node000001" class="node">
<title>Node1</title>
<g id="a_Node000001"><a xlink:title="Provides essential functionalities for generating and solving Sudoku puzzles.">
<polygon fill="#999999" stroke="none" points="298.38,-1108 122.88,-1108 122.88,0 298.38,0 298.38,-1108"/>
<text text-anchor="start" x="143.12" y="-1094.5" font-family="Helvetica,sans-Serif" font-size="10.00">fr.softsf.sudokufx.utils.sudoku.</text>
<text text-anchor="start" x="186.62" y="-1082.5" font-family="Helvetica,sans-Serif" font-size="10.00">GridMaster</text>
<text text-anchor="start" x="128.38" y="-1066.5" font-family="Helvetica,sans-Serif" font-size="10.00">&#45;</text>
<text text-anchor="start" x="136.88" y="-1066.5" font-family="Helvetica,sans-Serif" font-size="10.00">static final int DIFFICILE</text>
<text text-anchor="start" x="136.88" y="-1054.5" font-family="Helvetica,sans-Serif" font-size="10.00">_MAX_CACHEES</text>
<text text-anchor="start" x="128.38" y="-1038.5" font-family="Helvetica,sans-Serif" font-size="10.00">&#45;</text>
<text text-anchor="start" x="136.88" y="-1038.5" font-family="Helvetica,sans-Serif" font-size="10.00">static final int DIFFICILE</text>
<text text-anchor="start" x="136.88" y="-1026.5" font-family="Helvetica,sans-Serif" font-size="10.00">_MOY_CACHEES</text>
<text text-anchor="start" x="128.38" y="-1010.5" font-family="Helvetica,sans-Serif" font-size="10.00">&#45;</text>
<text text-anchor="start" x="136.88" y="-1010.5" font-family="Helvetica,sans-Serif" font-size="10.00">static final int DIMENSION</text>
<text text-anchor="start" x="128.38" y="-994.5" font-family="Helvetica,sans-Serif" font-size="10.00">&#45;</text>
<text text-anchor="start" x="136.88" y="-994.5" font-family="Helvetica,sans-Serif" font-size="10.00">static final int FACILE</text>
<text text-anchor="start" x="136.88" y="-982.5" font-family="Helvetica,sans-Serif" font-size="10.00">_MIN_CACHEES</text>
<text text-anchor="start" x="128.38" y="-966.5" font-family="Helvetica,sans-Serif" font-size="10.00">&#45;</text>
<text text-anchor="start" x="136.88" y="-966.5" font-family="Helvetica,sans-Serif" font-size="10.00">static final int FACILE</text>
<text text-anchor="start" x="136.88" y="-954.5" font-family="Helvetica,sans-Serif" font-size="10.00">_MOY_CACHEES</text>
<text text-anchor="start" x="128.38" y="-938.5" font-family="Helvetica,sans-Serif" font-size="10.00">&#45;</text>
<text text-anchor="start" x="136.88" y="-938.5" font-family="Helvetica,sans-Serif" font-size="10.00">static final int MOYEN</text>
<text text-anchor="start" x="136.88" y="-926.5" font-family="Helvetica,sans-Serif" font-size="10.00">_MAX_CACHEES</text>
<text text-anchor="start" x="128.38" y="-910.5" font-family="Helvetica,sans-Serif" font-size="10.00">&#45;</text>
<text text-anchor="start" x="136.88" y="-910.5" font-family="Helvetica,sans-Serif" font-size="10.00">static final int MOYEN</text>
<text text-anchor="start" x="136.88" y="-898.5" font-family="Helvetica,sans-Serif" font-size="10.00">_MAX_DIFFICULTE</text>
<text text-anchor="start" x="128.38" y="-882.5" font-family="Helvetica,sans-Serif" font-size="10.00">&#45;</text>
<text text-anchor="start" x="136.88" y="-882.5" font-family="Helvetica,sans-Serif" font-size="10.00">static final int MOYEN</text>
<text text-anchor="start" x="136.88" y="-870.5" font-family="Helvetica,sans-Serif" font-size="10.00">_MIN_CACHEES</text>
<text text-anchor="start" x="128.38" y="-854.5" font-family="Helvetica,sans-Serif" font-size="10.00">&#45;</text>
<text text-anchor="start" x="136.88" y="-854.5" font-family="Helvetica,sans-Serif" font-size="10.00">static final int MOYEN</text>
<text text-anchor="start" x="136.88" y="-842.5" font-family="Helvetica,sans-Serif" font-size="10.00">_MIN_DIFFICULTE</text>
<text text-anchor="start" x="128.38" y="-826.5" font-family="Helvetica,sans-Serif" font-size="10.00">&#45;</text>
<text text-anchor="start" x="136.88" y="-826.5" font-family="Helvetica,sans-Serif" font-size="10.00">static final int MOYEN</text>
<text text-anchor="start" x="136.88" y="-814.5" font-family="Helvetica,sans-Serif" font-size="10.00">_MOY_CACHEES</text>
<text text-anchor="start" x="128.38" y="-798.5" font-family="Helvetica,sans-Serif" font-size="10.00">&#45;</text>
<text text-anchor="start" x="136.88" y="-798.5" font-family="Helvetica,sans-Serif" font-size="10.00">static final int NOMBRE</text>
<text text-anchor="start" x="136.88" y="-786.5" font-family="Helvetica,sans-Serif" font-size="10.00">_CASES</text>
<text text-anchor="start" x="128.38" y="-770.5" font-family="Helvetica,sans-Serif" font-size="10.00">&#45;</text>
<text text-anchor="start" x="136.88" y="-770.5" font-family="Helvetica,sans-Serif" font-size="10.00">static final int ORDRE</text>
<text text-anchor="start" x="126.88" y="-754.5" font-family="Helvetica,sans-Serif" font-size="10.00">+</text>
<text text-anchor="start" x="136.88" y="-754.5" font-family="Helvetica,sans-Serif" font-size="10.00">GridMaster(SecureRandom</text>
<text text-anchor="start" x="136.88" y="-742.5" font-family="Helvetica,sans-Serif" font-size="10.00">Generator secureRandomGenerator)</text>
<text text-anchor="start" x="126.88" y="-726.5" font-family="Helvetica,sans-Serif" font-size="10.00">+</text>
<text text-anchor="start" x="136.88" y="-726.5" font-family="Helvetica,sans-Serif" font-size="10.00">final int[][] creerLesGrilles</text>
<text text-anchor="start" x="136.88" y="-714.5" font-family="Helvetica,sans-Serif" font-size="10.00">(final int niveau)</text>
<text text-anchor="start" x="126.88" y="-698.5" font-family="Helvetica,sans-Serif" font-size="10.00">+</text>
<text text-anchor="start" x="136.88" y="-698.5" font-family="Helvetica,sans-Serif" font-size="10.00">final int resoudreLaGrille</text>
<text text-anchor="start" x="136.88" y="-686.5" font-family="Helvetica,sans-Serif" font-size="10.00">(final int[] grille)</text>
<text text-anchor="start" x="128.38" y="-670.5" font-family="Helvetica,sans-Serif" font-size="10.00">&#45;</text>
<text text-anchor="start" x="136.88" y="-670.5" font-family="Helvetica,sans-Serif" font-size="10.00">void cacherLesCases</text>
<text text-anchor="start" x="136.88" y="-658.5" font-family="Helvetica,sans-Serif" font-size="10.00">(int nombreDeCasesACacher,</text>
<text text-anchor="start" x="136.88" y="-646.5" font-family="Helvetica,sans-Serif" font-size="10.00"> final int[] grilleAResoudre)</text>
<text text-anchor="start" x="128.38" y="-630.5" font-family="Helvetica,sans-Serif" font-size="10.00">&#45;</text>
<text text-anchor="start" x="136.88" y="-630.5" font-family="Helvetica,sans-Serif" font-size="10.00">int choisirValeurAleatoire</text>
<text text-anchor="start" x="136.88" y="-618.5" font-family="Helvetica,sans-Serif" font-size="10.00">(final int possibilitesDeLaCase)</text>
<text text-anchor="start" x="128.38" y="-602.5" font-family="Helvetica,sans-Serif" font-size="10.00">&#45;</text>
<text text-anchor="start" x="136.88" y="-602.5" font-family="Helvetica,sans-Serif" font-size="10.00">long dureeEnMs()</text>
<text text-anchor="start" x="128.38" y="-586.5" font-family="Helvetica,sans-Serif" font-size="10.00">&#45;</text>
<text text-anchor="start" x="136.88" y="-586.5" font-family="Helvetica,sans-Serif" font-size="10.00">int genererLaGrilleAResoudre</text>
<text text-anchor="start" x="136.88" y="-574.5" font-family="Helvetica,sans-Serif" font-size="10.00">(final int niveau, final</text>
<text text-anchor="start" x="136.88" y="-562.5" font-family="Helvetica,sans-Serif" font-size="10.00"> int[] grilleResolue, final</text>
<text text-anchor="start" x="136.88" y="-550.5" font-family="Helvetica,sans-Serif" font-size="10.00"> int[] grilleAResoudre)</text>
<text text-anchor="start" x="128.38" y="-534.5" font-family="Helvetica,sans-Serif" font-size="10.00">&#45;</text>
<text text-anchor="start" x="136.88" y="-534.5" font-family="Helvetica,sans-Serif" font-size="10.00">int getPossibilitesGrille</text>
<text text-anchor="start" x="136.88" y="-522.5" font-family="Helvetica,sans-Serif" font-size="10.00">AresoudreDifficile(int</text>
<text text-anchor="start" x="136.88" y="-510.5" font-family="Helvetica,sans-Serif" font-size="10.00">[] grilleResolue, int[]</text>
<text text-anchor="start" x="136.88" y="-498.5" font-family="Helvetica,sans-Serif" font-size="10.00"> grilleAResoudre)</text>
<text text-anchor="start" x="128.38" y="-482.5" font-family="Helvetica,sans-Serif" font-size="10.00">&#45;</text>
<text text-anchor="start" x="136.88" y="-482.5" font-family="Helvetica,sans-Serif" font-size="10.00">int getPossibilitesGrille</text>
<text text-anchor="start" x="136.88" y="-470.5" font-family="Helvetica,sans-Serif" font-size="10.00">AResoudreFacile(int[] grilleResolue,</text>
<text text-anchor="start" x="136.88" y="-458.5" font-family="Helvetica,sans-Serif" font-size="10.00"> int[] grilleAResoudre)</text>
<text text-anchor="start" x="128.38" y="-442.5" font-family="Helvetica,sans-Serif" font-size="10.00">&#45;</text>
<text text-anchor="start" x="136.88" y="-442.5" font-family="Helvetica,sans-Serif" font-size="10.00">int getPossibilitesGrille</text>
<text text-anchor="start" x="136.88" y="-430.5" font-family="Helvetica,sans-Serif" font-size="10.00">AResoudreMoyenne(int[]</text>
<text text-anchor="start" x="136.88" y="-418.5" font-family="Helvetica,sans-Serif" font-size="10.00"> grilleResolue, int[] grilleAResoudre)</text>
<text text-anchor="start" x="128.38" y="-402.5" font-family="Helvetica,sans-Serif" font-size="10.00">&#45;</text>
<text text-anchor="start" x="136.88" y="-402.5" font-family="Helvetica,sans-Serif" font-size="10.00">int getPossibilitesGrille</text>
<text text-anchor="start" x="136.88" y="-390.5" font-family="Helvetica,sans-Serif" font-size="10.00">WhileNok(int[] grilleResolue,</text>
<text text-anchor="start" x="136.88" y="-378.5" font-family="Helvetica,sans-Serif" font-size="10.00"> int[] grilleAResoudre, int</text>
<text text-anchor="start" x="136.88" y="-366.5" font-family="Helvetica,sans-Serif" font-size="10.00"> nombreDeCasesACacher)</text>
<text text-anchor="start" x="128.38" y="-350.5" font-family="Helvetica,sans-Serif" font-size="10.00">&#45;</text>
<text text-anchor="start" x="136.88" y="-350.5" font-family="Helvetica,sans-Serif" font-size="10.00">int nombreAleatoire</text>
<text text-anchor="start" x="136.88" y="-338.5" font-family="Helvetica,sans-Serif" font-size="10.00">(final int minInclus,</text>
<text text-anchor="start" x="136.88" y="-326.5" font-family="Helvetica,sans-Serif" font-size="10.00"> final int maxExclus)</text>
<text text-anchor="start" x="128.38" y="-310.5" font-family="Helvetica,sans-Serif" font-size="10.00">&#45;</text>
<text text-anchor="start" x="136.88" y="-310.5" font-family="Helvetica,sans-Serif" font-size="10.00">boolean remplirLaGrille</text>
<text text-anchor="start" x="136.88" y="-298.5" font-family="Helvetica,sans-Serif" font-size="10.00">(final int[] grille, final</text>
<text text-anchor="start" x="136.88" y="-286.5" font-family="Helvetica,sans-Serif" font-size="10.00"> int[] possibilites)</text>
<text text-anchor="start" x="128.38" y="-270.5" font-family="Helvetica,sans-Serif" font-size="10.00">&#45;</text>
<text text-anchor="start" x="136.88" y="-270.5" font-family="Helvetica,sans-Serif" font-size="10.00">static int compterBits</text>
<text text-anchor="start" x="136.88" y="-258.5" font-family="Helvetica,sans-Serif" font-size="10.00">(final int x)</text>
<text text-anchor="start" x="128.38" y="-242.5" font-family="Helvetica,sans-Serif" font-size="10.00">&#45;</text>
<text text-anchor="start" x="136.88" y="-242.5" font-family="Helvetica,sans-Serif" font-size="10.00">static void eliminerPossibilite</text>
<text text-anchor="start" x="136.88" y="-230.5" font-family="Helvetica,sans-Serif" font-size="10.00">(final int[] possibilites,</text>
<text text-anchor="start" x="136.88" y="-218.5" font-family="Helvetica,sans-Serif" font-size="10.00"> final int ligne, final int</text>
<text text-anchor="start" x="136.88" y="-206.5" font-family="Helvetica,sans-Serif" font-size="10.00"> colonne, final int valeur)</text>
<text text-anchor="start" x="128.38" y="-190.5" font-family="Helvetica,sans-Serif" font-size="10.00">&#45;</text>
<text text-anchor="start" x="136.88" y="-190.5" font-family="Helvetica,sans-Serif" font-size="10.00">static int[] getPossibilites</text>
<text text-anchor="start" x="136.88" y="-178.5" font-family="Helvetica,sans-Serif" font-size="10.00">(final int[] grille)</text>
<text text-anchor="start" x="128.38" y="-162.5" font-family="Helvetica,sans-Serif" font-size="10.00">&#45;</text>
<text text-anchor="start" x="136.88" y="-162.5" font-family="Helvetica,sans-Serif" font-size="10.00">static void initialiserPossibilites</text>
<text text-anchor="start" x="136.88" y="-150.5" font-family="Helvetica,sans-Serif" font-size="10.00">(final int[] grille, final int</text>
<text text-anchor="start" x="136.88" y="-138.5" font-family="Helvetica,sans-Serif" font-size="10.00">[] possibilites)</text>
<text text-anchor="start" x="128.38" y="-122.5" font-family="Helvetica,sans-Serif" font-size="10.00">&#45;</text>
<text text-anchor="start" x="136.88" y="-122.5" font-family="Helvetica,sans-Serif" font-size="10.00">static int laCaseVideAvec</text>
<text text-anchor="start" x="136.88" y="-110.5" font-family="Helvetica,sans-Serif" font-size="10.00">LeMoinsDePossibilites(final</text>
<text text-anchor="start" x="136.88" y="-98.5" font-family="Helvetica,sans-Serif" font-size="10.00"> int[] grille, final int[]</text>
<text text-anchor="start" x="136.88" y="-86.5" font-family="Helvetica,sans-Serif" font-size="10.00"> possibilites)</text>
<text text-anchor="start" x="128.38" y="-70.5" font-family="Helvetica,sans-Serif" font-size="10.00">&#45;</text>
<text text-anchor="start" x="136.88" y="-70.5" font-family="Helvetica,sans-Serif" font-size="10.00">static int sommeDesPossibilites</text>
<text text-anchor="start" x="136.88" y="-58.5" font-family="Helvetica,sans-Serif" font-size="10.00">DeLaGrille(final int[] possibilites)</text>
<text text-anchor="start" x="128.38" y="-42.5" font-family="Helvetica,sans-Serif" font-size="10.00">&#45;</text>
<text text-anchor="start" x="136.88" y="-42.5" font-family="Helvetica,sans-Serif" font-size="10.00">static int verifierLaCoherence</text>
<text text-anchor="start" x="136.88" y="-30.5" font-family="Helvetica,sans-Serif" font-size="10.00">EntreLaGrilleEtLesPossibilites</text>
<text text-anchor="start" x="136.88" y="-18.5" font-family="Helvetica,sans-Serif" font-size="10.00">(final int[] grille, final int</text>
<text text-anchor="start" x="136.88" y="-6.5" font-family="Helvetica,sans-Serif" font-size="10.00">[] possibilites)</text>
<polygon fill="#666666" stroke="#666666" points="122.88,-1078 122.88,-1078 298.38,-1078 298.38,-1078 122.88,-1078"/>
<polygon fill="#666666" stroke="#666666" points="122.88,-766 122.88,-766 134.88,-766 134.88,-766 122.88,-766"/>
<polygon fill="#666666" stroke="#666666" points="134.88,-766 134.88,-766 298.38,-766 298.38,-766 134.88,-766"/>
<polygon fill="none" stroke="#666666" points="122.88,0 122.88,-1108 298.38,-1108 298.38,0 122.88,0"/>
</a>
</g>
</g>
<!-- Node2 -->
<g id="Node000002" class="node">
<title>Node2</title>
<g id="a_Node000002"><a xlink:href="interfacefr_1_1softsf_1_1sudokufx_1_1interfaces_1_1_i_grid_master.html" target="_top" xlink:title="Interface defining methods to generate and solve Sudoku puzzles.">
<polygon fill="white" stroke="none" points="133.25,-1268 0,-1268 0,-1164 133.25,-1164 133.25,-1268"/>
<text text-anchor="start" x="4" y="-1254.5" font-family="Helvetica,sans-Serif" font-size="10.00">fr.softsf.sudokufx.interfaces.</text>
<text text-anchor="start" x="41.12" y="-1242.5" font-family="Helvetica,sans-Serif" font-size="10.00">IGridMaster</text>
<text text-anchor="start" x="65.12" y="-1226.5" font-family="Helvetica,sans-Serif" font-size="10.00"> </text>
<text text-anchor="start" x="10.12" y="-1210.5" font-family="Helvetica,sans-Serif" font-size="10.00">+</text>
<text text-anchor="start" x="26.25" y="-1210.5" font-family="Helvetica,sans-Serif" font-size="10.00">int[][] creerLesGrilles</text>
<text text-anchor="start" x="26.25" y="-1198.5" font-family="Helvetica,sans-Serif" font-size="10.00">(final int niveau)</text>
<text text-anchor="start" x="10.12" y="-1182.5" font-family="Helvetica,sans-Serif" font-size="10.00">+</text>
<text text-anchor="start" x="26.25" y="-1182.5" font-family="Helvetica,sans-Serif" font-size="10.00">int resoudreLaGrille</text>
<text text-anchor="start" x="26.25" y="-1170.5" font-family="Helvetica,sans-Serif" font-size="10.00">(final int[] grille)</text>
<polygon fill="#666666" stroke="#666666" points="0,-1238 0,-1238 133.25,-1238 133.25,-1238 0,-1238"/>
<polygon fill="#666666" stroke="#666666" points="0,-1222 0,-1222 133.25,-1222 133.25,-1222 0,-1222"/>
<polygon fill="none" stroke="#666666" points="0,-1164 0,-1268 133.25,-1268 133.25,-1164 0,-1164"/>
</a>
</g>
</g>
<!-- Node2&#45;&gt;Node1 -->
<g id="edge1_Node000001_Node000002" class="edge">
<title>Node2&#45;&gt;Node1</title>
<g id="a_edge1_Node000001_Node000002"><a xlink:title=" ">
<path fill="none" stroke="#63b8ff" d="M80.17,-1152.92C90.67,-1104.8 106.21,-1033.59 122.93,-956.93"/>
<polygon fill="none" stroke="#63b8ff" points="76.78,-1152.04 78.07,-1162.56 83.62,-1153.53 76.78,-1152.04"/>
</a>
</g>
</g>
<!-- Node3 -->
<g id="Node000003" class="node">
<title>Node3</title>
<g id="a_Node000003"><a xlink:href="classfr_1_1softsf_1_1sudokufx_1_1utils_1_1_secure_random_generator.html" target="_top" xlink:title="The SecureRandomGenerator class provides methods to generate random numbers securely using Java&#39;s Sec...">
<polygon fill="white" stroke="none" points="285.75,-1276 151.5,-1276 151.5,-1156 285.75,-1156 285.75,-1276"/>
<text text-anchor="start" x="163.5" y="-1262.5" font-family="Helvetica,sans-Serif" font-size="10.00">fr.softsf.sudokufx.utils.</text>
<text text-anchor="start" x="163.5" y="-1250.5" font-family="Helvetica,sans-Serif" font-size="10.00">SecureRandomGenerator</text>
<text text-anchor="start" x="217.12" y="-1234.5" font-family="Helvetica,sans-Serif" font-size="10.00"> </text>
<text text-anchor="start" x="155.5" y="-1218.5" font-family="Helvetica,sans-Serif" font-size="10.00">+</text>
<text text-anchor="start" x="165.5" y="-1218.5" font-family="Helvetica,sans-Serif" font-size="10.00">SecureRandomGenerator()</text>
<text text-anchor="start" x="155.5" y="-1202.5" font-family="Helvetica,sans-Serif" font-size="10.00">+</text>
<text text-anchor="start" x="165.5" y="-1202.5" font-family="Helvetica,sans-Serif" font-size="10.00">final int nextInt(int</text>
<text text-anchor="start" x="165.5" y="-1190.5" font-family="Helvetica,sans-Serif" font-size="10.00"> bound)</text>
<text text-anchor="start" x="155.5" y="-1174.5" font-family="Helvetica,sans-Serif" font-size="10.00">+</text>
<text text-anchor="start" x="165.5" y="-1174.5" font-family="Helvetica,sans-Serif" font-size="10.00">final int nextInt(int</text>
<text text-anchor="start" x="165.5" y="-1162.5" font-family="Helvetica,sans-Serif" font-size="10.00"> origin, int bound)</text>
<polygon fill="#666666" stroke="#666666" points="151.5,-1246 151.5,-1246 285.75,-1246 285.75,-1246 151.5,-1246"/>
<polygon fill="#666666" stroke="#666666" points="151.5,-1230 151.5,-1230 285.75,-1230 285.75,-1230 151.5,-1230"/>
<polygon fill="none" stroke="#666666" points="151.5,-1156 151.5,-1276 285.75,-1276 285.75,-1156 151.5,-1156"/>
</a>
</g>
</g>
<!-- Node3&#45;&gt;Node1 -->
<g id="edge2_Node000001_Node000003" class="edge">
<title>Node3&#45;&gt;Node1</title>
<g id="a_edge2_Node000001_Node000003"><a xlink:title=" ">
<path fill="none" stroke="#63b8ff" d="M212.95,-1156.18C212.51,-1150.04 212.14,-1143.9 211.88,-1138 211.62,-1132.23 211.37,-1126.42 211.13,-1120.59"/>
<polygon fill="none" stroke="#63b8ff" points="211.13,-1120.67 206.9,-1114.83 210.66,-1108.68 214.9,-1114.52 211.13,-1120.67"/>
</a>
</g>
<text text-anchor="middle" x="269.25" y="-1128.5" font-family="Helvetica,sans-Serif" font-size="10.00" fill="grey"> &#45;secureRandomGenerator</text>
</g>
<!-- Node4 -->
<g id="Node000004" class="node">
<title>Node4</title>
<g id="a_Node000004"><a xlink:title=" ">
<polygon fill="white" stroke="none" points="256.38,-1376 180.88,-1376 180.88,-1324 256.38,-1324 256.38,-1376"/>
<text text-anchor="start" x="184.88" y="-1362.5" font-family="Helvetica,sans-Serif" font-size="10.00">SecureRandom</text>
<text text-anchor="start" x="217.12" y="-1346.5" font-family="Helvetica,sans-Serif" font-size="10.00"> </text>
<text text-anchor="start" x="217.12" y="-1330.5" font-family="Helvetica,sans-Serif" font-size="10.00"> </text>
<polygon fill="#666666" stroke="#666666" points="180.88,-1358 180.88,-1358 256.38,-1358 256.38,-1358 180.88,-1358"/>
<polygon fill="#666666" stroke="#666666" points="180.88,-1342 180.88,-1342 256.38,-1342 256.38,-1342 180.88,-1342"/>
<polygon fill="none" stroke="#666666" points="180.88,-1324 180.88,-1376 256.38,-1376 256.38,-1324 180.88,-1324"/>
</a>
</g>
</g>
<!-- Node4&#45;&gt;Node3 -->
<g id="edge3_Node000003_Node000004" class="edge">
<title>Node4&#45;&gt;Node3</title>
<g id="a_edge3_Node000003_Node000004"><a xlink:title=" ">
<path fill="none" stroke="#63b8ff" d="M218.62,-1324.17C218.62,-1313.92 218.62,-1301.47 218.62,-1288.72"/>
<polygon fill="none" stroke="#63b8ff" points="218.63,-1288.86 214.63,-1282.86 218.63,-1276.86 222.63,-1282.86 218.63,-1288.86"/>
</a>
</g>
<text text-anchor="middle" x="254.62" y="-1296.5" font-family="Helvetica,sans-Serif" font-size="10.00" fill="grey"> &#45;secureRandom</text>
</g>
<!-- Node5 -->
<g id="Node000005" class="node">
<title>Node5</title>
<g id="a_Node000005"><a xlink:title=" ">
<polygon fill="white" stroke="none" points="385.62,-1242 311.62,-1242 311.62,-1190 385.62,-1190 385.62,-1242"/>
<text text-anchor="start" x="315.62" y="-1228.5" font-family="Helvetica,sans-Serif" font-size="10.00">LocalDateTime</text>
<text text-anchor="start" x="347.12" y="-1212.5" font-family="Helvetica,sans-Serif" font-size="10.00"> </text>
<text text-anchor="start" x="347.12" y="-1196.5" font-family="Helvetica,sans-Serif" font-size="10.00"> </text>
<polygon fill="#666666" stroke="#666666" points="311.62,-1224 311.62,-1224 385.62,-1224 385.62,-1224 311.62,-1224"/>
<polygon fill="#666666" stroke="#666666" points="311.62,-1208 311.62,-1208 385.62,-1208 385.62,-1208 311.62,-1208"/>
<polygon fill="none" stroke="#666666" points="311.62,-1190 311.62,-1242 385.62,-1242 385.62,-1190 311.62,-1190"/>
</a>
</g>
</g>
<!-- Node5&#45;&gt;Node1 -->
<g id="edge4_Node000001_Node000005" class="edge">
<title>Node5&#45;&gt;Node1</title>
<g id="a_edge4_Node000001_Node000005"><a xlink:title=" ">
<path fill="none" stroke="#63b8ff" d="M343.47,-1190.33C335.55,-1152.45 319.35,-1075 300.91,-986.81"/>
<polygon fill="none" stroke="#63b8ff" points="300.94,-986.92 295.79,-981.87 298.48,-975.18 303.62,-980.23 300.94,-986.92"/>
</a>
</g>
<text text-anchor="middle" x="372.78" y="-1128.5" font-family="Helvetica,sans-Serif" font-size="10.00" fill="grey"> &#45;derniereDemande</text>
</g>
</g>
</svg>

<g id="navigator" transform="translate(0 0)" fill="#404254">
  <rect fill="#f2f5e9" fill-opacity="0.5" stroke="#606060" stroke-width=".5" x="0" y="0" width="60" height="60"/>
  <use id="zoomplus" xlink:href="#zoomPlus" x="17" y="9" onmousedown="handleZoom(evt,'in')"/>
  <use id="zoomminus" xlink:href="#zoomMin" x="42" y="9" onmousedown="handleZoom(evt,'out')"/>
  <use id="reset" xlink:href="#resetDef" x="30" y="36" onmousedown="handleReset()"/>
   <use id="arrowup" xlink:href="#arrowUp" x="0" y="0" onmousedown="handlePan(0,-1)"/>
  <use id="arrowright" xlink:href="#arrowRight" x="0" y="0" onmousedown="handlePan(1,0)"/>
  <use id="arrowdown" xlink:href="#arrowDown" x="0" y="0" onmousedown="handlePan(0,1)"/>
  <use id="arrowleft" xlink:href="#arrowLeft" x="0" y="0" onmousedown="handlePan(-1,0)"/>
</g>
<svg viewBox="0 0 15 15" width="100%" height="30px" preserveAspectRatio="xMaxYMin meet">
 <g id="arrow_out" transform="scale(0.3 0.3)">
  <a xlink:href="classfr_1_1softsf_1_1sudokufx_1_1utils_1_1sudoku_1_1_grid_master__coll__graph_org.svg" target="_base">
   <rect id="button" ry="5" rx="5" y="6" x="6" height="38" width="38"
        fill="#f2f5e9" fill-opacity="0.5" stroke="#606060" stroke-width="1.0"/>
   <path id="arrow"
     d="M 11.500037,31.436501 C 11.940474,20.09759 22.043105,11.32322 32.158766,21.979434 L 37.068811,17.246167 C 37.068811,17.246167 37.088388,32 37.088388,32 L 22.160133,31.978069 C 22.160133,31.978069 26.997745,27.140456 26.997745,27.140456 C 18.528582,18.264221 13.291696,25.230495 11.500037,31.436501 z"
     style="fill:#404040;"/>
  </a>
 </g>
</svg>

<style type='text/css'>
<![CDATA[
[data-mouse-over-selected='false'] { opacity: 0.7; }
[data-mouse-over-selected='true']  { opacity: 1.0; }
]]>
</style>
<script type="application/ecmascript"><![CDATA[
document.addEventListener('DOMContentLoaded', (event) => {
  highlightEdges();
  highlightAdjacentNodes();
});
]]></script>
</svg>
