<?xml version="1.0" encoding="UTF-8" standalone="no"?>
<!DOCTYPE svg PUBLIC "-//W3C//DTD SVG 1.1//EN"
 "http://www.w3.org/Graphics/SVG/1.1/DTD/svg11.dtd">
<!-- Generated by graphviz version 12.2.0 (20241103.1931)
 -->
<!-- Title: fr.softsf.sudokufx.viewmodel.FullMenuViewModel.test Pages: 1 -->
<svg width="831pt" height="218pt"
 viewBox="0.00 0.00 831.00 218.00" xmlns="http://www.w3.org/2000/svg" xmlns:xlink="http://www.w3.org/1999/xlink">
<g id="graph0" class="graph" transform="scale(1 1) rotate(0) translate(4 214)">
<title>fr.softsf.sudokufx.viewmodel.FullMenuViewModel.test</title>
<!-- Node1 -->
<g id="Node000001" class="node">
<title>Node1</title>
<g id="a_Node000001"><a xlink:title=" ">
<polygon fill="#999999" stroke="#666666" points="145,-107 0,-107 0,-75 145,-75 145,-107"/>
<text text-anchor="start" x="8" y="-93.5" font-family="Helvetica,sans-Serif" font-size="10.00">fr.softsf.sudokufx.viewmodel.</text>
<text text-anchor="middle" x="72.5" y="-81.5" font-family="Helvetica,sans-Serif" font-size="10.00">FullMenuViewModel.test</text>
</a>
</g>
</g>
<!-- Node2 -->
<g id="Node000002" class="node">
<title>Node2</title>
<g id="a_Node000002"><a xlink:href="classfr_1_1softsf_1_1sudokufx_1_1viewmodel_1_1_full_menu_view_model.html#adce6b8020bad713a5457f19529475669" target="_top" xlink:title=" ">
<polygon fill="white" stroke="#666666" points="354.88,-157 182.12,-157 182.12,-125 354.88,-125 354.88,-157"/>
<text text-anchor="start" x="190.12" y="-143.5" font-family="Helvetica,sans-Serif" font-size="10.00">fr.softsf.sudokufx.viewmodel.</text>
<text text-anchor="middle" x="268.5" y="-131.5" font-family="Helvetica,sans-Serif" font-size="10.00">FullMenuViewModel.createSoftware</text>
</a>
</g>
</g>
<!-- Node1&#45;&gt;Node2 -->
<g id="edge1_Node000001_Node000002" class="edge">
<title>Node1&#45;&gt;Node2</title>
<g id="a_edge1_Node000001_Node000002"><a xlink:title=" ">
<path fill="none" stroke="#63b8ff" d="M137.29,-107.44C155.03,-112.01 174.44,-117.02 192.75,-121.73"/>
<polygon fill="#63b8ff" stroke="#63b8ff" points="191.65,-125.06 202.2,-124.17 193.39,-118.29 191.65,-125.06"/>
</a>
</g>
</g>
<!-- Node8 -->
<g id="Node000008" class="node">
<title>Node8</title>
<g id="a_Node000008"><a xlink:href="classfr_1_1softsf_1_1sudokufx_1_1service_1_1_software_service.html#a19dc59ca2cea75458d2d0a92ada59b34" target="_top" xlink:title=" ">
<polygon fill="white" stroke="#666666" points="340.25,-57 196.75,-57 196.75,-25 340.25,-25 340.25,-57"/>
<text text-anchor="start" x="204.75" y="-43.5" font-family="Helvetica,sans-Serif" font-size="10.00">fr.softsf.sudokufx.service.</text>
<text text-anchor="middle" x="268.5" y="-31.5" font-family="Helvetica,sans-Serif" font-size="10.00">SoftwareService.getSoftware</text>
</a>
</g>
</g>
<!-- Node1&#45;&gt;Node8 -->
<g id="edge7_Node000001_Node000008" class="edge">
<title>Node1&#45;&gt;Node8</title>
<g id="a_edge7_Node000001_Node000008"><a xlink:title=" ">
<path fill="none" stroke="#63b8ff" d="M137.29,-74.56C155.03,-69.99 174.44,-64.98 192.75,-60.27"/>
<polygon fill="#63b8ff" stroke="#63b8ff" points="193.39,-63.71 202.2,-57.83 191.65,-56.94 193.39,-63.71"/>
</a>
</g>
</g>
<!-- Node10 -->
<g id="Node000010" class="node">
<title>Node10</title>
<g id="a_Node000010"><a xlink:href="classfr_1_1softsf_1_1sudokufx_1_1viewmodel_1_1_full_menu_view_model.html#abeb58caaac8ee5464bb0f851c94992f4" target="_top" xlink:title=" ">
<polygon fill="white" stroke="#666666" points="356,-107 181,-107 181,-75 356,-75 356,-107"/>
<text text-anchor="start" x="189" y="-93.5" font-family="Helvetica,sans-Serif" font-size="10.00">fr.softsf.sudokufx.viewmodel.</text>
<text text-anchor="middle" x="268.5" y="-81.5" font-family="Helvetica,sans-Serif" font-size="10.00">FullMenuViewModel.updateSoftware</text>
</a>
</g>
</g>
<!-- Node1&#45;&gt;Node10 -->
<g id="edge9_Node000001_Node000010" class="edge">
<title>Node1&#45;&gt;Node10</title>
<g id="a_edge9_Node000001_Node000010"><a xlink:title=" ">
<path fill="none" stroke="#63b8ff" d="M145.46,-91C153.23,-91 161.23,-91 169.24,-91"/>
<polygon fill="#63b8ff" stroke="#63b8ff" points="169.04,-94.5 179.04,-91 169.04,-87.5 169.04,-94.5"/>
</a>
</g>
</g>
<!-- Node3 -->
<g id="Node000003" class="node">
<title>Node3</title>
<g id="a_Node000003"><a xlink:href="classfr_1_1softsf_1_1sudokufx_1_1utils_1_1_j_v_m_application_properties.html#afd79a2aeab3fe69dbb2ace62b5eddf83" target="_top" xlink:title="Retrieves the current application version from system properties.">
<polygon fill="white" stroke="#666666" points="562.5,-194 400.25,-194 400.25,-150 562.5,-150 562.5,-194"/>
<text text-anchor="start" x="408.25" y="-180.5" font-family="Helvetica,sans-Serif" font-size="10.00">fr.softsf.sudokufx.utils.</text>
<text text-anchor="start" x="408.25" y="-168.5" font-family="Helvetica,sans-Serif" font-size="10.00">JVMApplicationProperties.getApp</text>
<text text-anchor="middle" x="481.38" y="-156.5" font-family="Helvetica,sans-Serif" font-size="10.00">Version</text>
</a>
</g>
</g>
<!-- Node2&#45;&gt;Node3 -->
<g id="edge2_Node000002_Node000003" class="edge">
<title>Node2&#45;&gt;Node3</title>
<g id="a_edge2_Node000002_Node000003"><a xlink:title=" ">
<path fill="none" stroke="#63b8ff" d="M355.27,-153.61C366.19,-155.21 377.4,-156.86 388.41,-158.48"/>
<polygon fill="#63b8ff" stroke="#63b8ff" points="387.89,-161.94 398.29,-159.93 388.91,-155.02 387.89,-161.94"/>
</a>
</g>
</g>
<!-- Node5 -->
<g id="Node000005" class="node">
<title>Node5</title>
<g id="a_Node000005"><a xlink:href="classfr_1_1softsf_1_1sudokufx_1_1service_1_1_software_service.html#a74d93b9d4144d91d01a4b02369265f0f" target="_top" xlink:title=" ">
<polygon fill="white" stroke="#666666" points="561,-132 401.75,-132 401.75,-100 561,-100 561,-132"/>
<text text-anchor="start" x="409.75" y="-118.5" font-family="Helvetica,sans-Serif" font-size="10.00">fr.softsf.sudokufx.service.</text>
<text text-anchor="middle" x="481.38" y="-106.5" font-family="Helvetica,sans-Serif" font-size="10.00">SoftwareService.updateSoftware</text>
</a>
</g>
</g>
<!-- Node2&#45;&gt;Node5 -->
<g id="edge4_Node000002_Node000005" class="edge">
<title>Node2&#45;&gt;Node5</title>
<g id="a_edge4_Node000002_Node000005"><a xlink:title=" ">
<path fill="none" stroke="#63b8ff" d="M355.27,-130.83C366.73,-129.47 378.51,-128.08 390.05,-126.71"/>
<polygon fill="#63b8ff" stroke="#63b8ff" points="390.46,-130.18 399.98,-125.53 389.63,-123.23 390.46,-130.18"/>
</a>
</g>
</g>
<!-- Node4 -->
<g id="Node000004" class="node">
<title>Node4</title>
<g id="a_Node000004"><a xlink:href="classfr_1_1softsf_1_1sudokufx_1_1utils_1_1_my_regex.html#a981702b076ee54a416d676b6f7a182fc" target="_top" xlink:title="Validates a given text against a specified regular expression.">
<polygon fill="white" stroke="#666666" points="789.25,-210 640.5,-210 640.5,-178 789.25,-178 789.25,-210"/>
<text text-anchor="start" x="648.5" y="-196.5" font-family="Helvetica,sans-Serif" font-size="10.00">fr.softsf.sudokufx.utils.</text>
<text text-anchor="middle" x="714.88" y="-184.5" font-family="Helvetica,sans-Serif" font-size="10.00">MyRegex.isValidatedByRegex</text>
</a>
</g>
</g>
<!-- Node3&#45;&gt;Node4 -->
<g id="edge3_Node000003_Node000004" class="edge">
<title>Node3&#45;&gt;Node4</title>
<g id="a_edge3_Node000003_Node000004"><a xlink:title=" ">
<path fill="none" stroke="#63b8ff" d="M562.69,-179.63C584.16,-181.67 607.42,-183.88 629.11,-185.94"/>
<polygon fill="#63b8ff" stroke="#63b8ff" points="628.5,-189.4 638.79,-186.86 629.16,-182.43 628.5,-189.4"/>
</a>
</g>
</g>
<!-- Node6 -->
<g id="Node000006" class="node">
<title>Node6</title>
<g id="a_Node000006"><a xlink:href="interfacefr_1_1softsf_1_1sudokufx_1_1interfaces_1_1mapper_1_1_i_software_mapper.html#a85adc191251bde9870609d4b2cb23ee6" target="_top" xlink:title="Maps a SoftwareDto object to a Software object.">
<polygon fill="white" stroke="#666666" points="823,-160 606.75,-160 606.75,-128 823,-128 823,-160"/>
<text text-anchor="start" x="614.75" y="-146.5" font-family="Helvetica,sans-Serif" font-size="10.00">fr.softsf.sudokufx.interfaces.mapper.</text>
<text text-anchor="middle" x="714.88" y="-134.5" font-family="Helvetica,sans-Serif" font-size="10.00">ISoftwareMapper.mapSoftwareDtoToSoftware</text>
</a>
</g>
</g>
<!-- Node5&#45;&gt;Node6 -->
<g id="edge5_Node000005_Node000006" class="edge">
<title>Node5&#45;&gt;Node6</title>
<g id="a_edge5_Node000005_Node000006"><a xlink:title=" ">
<path fill="none" stroke="#63b8ff" d="M561.4,-125.56C572.3,-126.88 583.69,-128.25 595.12,-129.64"/>
<polygon fill="#63b8ff" stroke="#63b8ff" points="594.69,-133.11 605.04,-130.84 595.53,-126.16 594.69,-133.11"/>
</a>
</g>
</g>
<!-- Node7 -->
<g id="Node000007" class="node">
<title>Node7</title>
<g id="a_Node000007"><a xlink:href="interfacefr_1_1softsf_1_1sudokufx_1_1interfaces_1_1mapper_1_1_i_software_mapper.html#addc8516cb5cc6171c663e132d5fdddd6" target="_top" xlink:title="Maps a Software object to a SoftwareDto object.">
<polygon fill="white" stroke="#666666" points="803.5,-110 626.25,-110 626.25,-78 803.5,-78 803.5,-110"/>
<text text-anchor="start" x="634.25" y="-96.5" font-family="Helvetica,sans-Serif" font-size="10.00">fr.softsf.sudokufx.interfaces.mapper.</text>
<text text-anchor="middle" x="714.88" y="-84.5" font-family="Helvetica,sans-Serif" font-size="10.00">ISoftwareMapper.mapSoftwareToDto</text>
</a>
</g>
</g>
<!-- Node5&#45;&gt;Node7 -->
<g id="edge6_Node000005_Node000007" class="edge">
<title>Node5&#45;&gt;Node7</title>
<g id="a_edge6_Node000005_Node000007"><a xlink:title=" ">
<path fill="none" stroke="#63b8ff" d="M561.4,-108.49C578.56,-106.86 596.93,-105.11 614.76,-103.42"/>
<polygon fill="#63b8ff" stroke="#63b8ff" points="614.95,-106.92 624.57,-102.49 614.28,-99.95 614.95,-106.92"/>
</a>
</g>
</g>
<!-- Node9 -->
<g id="Node000009" class="node">
<title>Node9</title>
<g id="a_Node000009"><a xlink:href="interfacefr_1_1softsf_1_1sudokufx_1_1repository_1_1_software_repository.html#ae83142c4226c94b3b24f050848ae74c4" target="_top" xlink:title=" ">
<polygon fill="white" stroke="#666666" points="570.75,-32 392,-32 392,0 570.75,0 570.75,-32"/>
<text text-anchor="start" x="400" y="-18.5" font-family="Helvetica,sans-Serif" font-size="10.00">fr.softsf.sudokufx.repository.</text>
<text text-anchor="middle" x="481.38" y="-6.5" font-family="Helvetica,sans-Serif" font-size="10.00">SoftwareRepository.findFirstSoftware</text>
</a>
</g>
</g>
<!-- Node8&#45;&gt;Node9 -->
<g id="edge8_Node000008_Node000009" class="edge">
<title>Node8&#45;&gt;Node9</title>
<g id="a_edge8_Node000008_Node000009"><a xlink:title=" ">
<path fill="none" stroke="#63b8ff" d="M340.6,-32.57C353.4,-31.05 366.95,-29.45 380.39,-27.85"/>
<polygon fill="#63b8ff" stroke="#63b8ff" points="380.61,-31.35 390.13,-26.7 379.78,-24.4 380.61,-31.35"/>
</a>
</g>
</g>
<!-- Node10&#45;&gt;Node3 -->
<g id="edge10_Node000010_Node000003" class="edge">
<title>Node10&#45;&gt;Node3</title>
<g id="a_edge10_Node000010_Node000003"><a xlink:title=" ">
<path fill="none" stroke="#63b8ff" d="M335.06,-107.47C342.25,-110 349.37,-112.84 356,-116 373.59,-124.37 374.65,-132.14 392,-141 394.69,-142.37 397.46,-143.71 400.27,-145.01"/>
<polygon fill="#63b8ff" stroke="#63b8ff" points="398.69,-148.14 409.25,-148.94 401.49,-141.73 398.69,-148.14"/>
</a>
</g>
</g>
<!-- Node10&#45;&gt;Node5 -->
<g id="edge13_Node000010_Node000005" class="edge">
<title>Node10&#45;&gt;Node5</title>
<g id="a_edge13_Node000010_Node000005"><a xlink:title=" ">
<path fill="none" stroke="#63b8ff" d="M356.49,-101.31C367.64,-102.63 379.07,-103.99 390.26,-105.32"/>
<polygon fill="#63b8ff" stroke="#63b8ff" points="389.51,-108.75 399.86,-106.45 390.34,-101.8 389.51,-108.75"/>
</a>
</g>
</g>
<!-- Node11 -->
<g id="Node000011" class="node">
<title>Node11</title>
<g id="a_Node000011"><a xlink:href="classfr_1_1softsf_1_1sudokufx_1_1viewmodel_1_1_full_menu_view_model.html#a99e8ff186f421e303199bb273f082c40" target="_top" xlink:title=" ">
<polygon fill="white" stroke="#666666" points="561.75,-82 401,-82 401,-50 561.75,-50 561.75,-82"/>
<text text-anchor="start" x="409" y="-68.5" font-family="Helvetica,sans-Serif" font-size="10.00">fr.softsf.sudokufx.viewmodel.</text>
<text text-anchor="middle" x="481.38" y="-56.5" font-family="Helvetica,sans-Serif" font-size="10.00">FullMenuViewModel.setWelcome</text>
</a>
</g>
</g>
<!-- Node10&#45;&gt;Node11 -->
<g id="edge11_Node000010_Node000011" class="edge">
<title>Node10&#45;&gt;Node11</title>
<g id="a_edge11_Node000010_Node000011"><a xlink:title=" ">
<path fill="none" stroke="#63b8ff" d="M356.49,-80.69C367.35,-79.4 378.48,-78.08 389.4,-76.79"/>
<polygon fill="#63b8ff" stroke="#63b8ff" points="389.67,-80.28 399.18,-75.63 388.84,-73.33 389.67,-80.28"/>
</a>
</g>
</g>
<!-- Node12 -->
<g id="Node000012" class="node">
<title>Node12</title>
<g id="a_Node000012"><a xlink:href="classfr_1_1softsf_1_1sudokufx_1_1viewmodel_1_1_full_menu_view_model.html#a574eda9c01df428c38524cc5acf49fbf" target="_top" xlink:title=" ">
<polygon fill="white" stroke="#666666" points="806.12,-60 623.62,-60 623.62,-28 806.12,-28 806.12,-60"/>
<text text-anchor="start" x="631.62" y="-46.5" font-family="Helvetica,sans-Serif" font-size="10.00">fr.softsf.sudokufx.viewmodel.</text>
<text text-anchor="middle" x="714.88" y="-34.5" font-family="Helvetica,sans-Serif" font-size="10.00">FullMenuViewModel.welcomeProperty</text>
</a>
</g>
</g>
<!-- Node11&#45;&gt;Node12 -->
<g id="edge12_Node000011_Node000012" class="edge">
<title>Node11&#45;&gt;Node12</title>
<g id="a_edge12_Node000011_Node000012"><a xlink:title=" ">
<path fill="none" stroke="#63b8ff" d="M562.04,-58.43C578.24,-56.89 595.49,-55.25 612.33,-53.65"/>
<polygon fill="#63b8ff" stroke="#63b8ff" points="612.2,-57.18 621.82,-52.75 611.53,-50.21 612.2,-57.18"/>
</a>
</g>
</g>
</g>
</svg>
