<?xml version="1.0" encoding="UTF-8" standalone="no"?>
<!DOCTYPE svg PUBLIC "-//W3C//DTD SVG 1.1//EN"
 "http://www.w3.org/Graphics/SVG/1.1/DTD/svg11.dtd">
<!-- Generated by graphviz version 12.2.0 (20241103.1931)
 -->
<!-- Title: fr.softsf.sudokufx.viewmodel.FullMenuViewModel Pages: 1 -->
<svg width="625pt" height="869pt"
 viewBox="0.00 0.00 625.38 869.00" xmlns="http://www.w3.org/2000/svg" xmlns:xlink="http://www.w3.org/1999/xlink">
<g id="graph0" class="graph" transform="scale(1 1) rotate(0) translate(4 865)">
<title>fr.softsf.sudokufx.viewmodel.FullMenuViewModel</title>
<!-- Node1 -->
<g id="Node000001" class="node">
<title>Node1</title>
<g id="a_Node000001"><a xlink:title="FullMenuViewModel with business logic (not final)">
<polygon fill="#999999" stroke="none" points="432.5,-204 236,-204 236,0 432.5,0 432.5,-204"/>
<text text-anchor="start" x="269.75" y="-190.5" font-family="Helvetica,sans-Serif" font-size="10.00">fr.softsf.sudokufx.viewmodel.</text>
<text text-anchor="start" x="290.38" y="-178.5" font-family="Helvetica,sans-Serif" font-size="10.00">FullMenuViewModel</text>
<text text-anchor="start" x="332.75" y="-162.5" font-family="Helvetica,sans-Serif" font-size="10.00"> </text>
<text text-anchor="start" x="240" y="-146.5" font-family="Helvetica,sans-Serif" font-size="10.00">+</text>
<text text-anchor="start" x="250" y="-146.5" font-family="Helvetica,sans-Serif" font-size="10.00">FullMenuViewModel</text>
<text text-anchor="start" x="250" y="-134.5" font-family="Helvetica,sans-Serif" font-size="10.00">(SoftwareService softwareService,</text>
<text text-anchor="start" x="250" y="-122.5" font-family="Helvetica,sans-Serif" font-size="10.00"> IGridMaster iGridMaster, VersionService</text>
<text text-anchor="start" x="250" y="-110.5" font-family="Helvetica,sans-Serif" font-size="10.00"> versionService)</text>
<text text-anchor="start" x="240" y="-94.5" font-family="Helvetica,sans-Serif" font-size="10.00">+</text>
<text text-anchor="start" x="250" y="-94.5" font-family="Helvetica,sans-Serif" font-size="10.00">void test()</text>
<text text-anchor="start" x="240" y="-78.5" font-family="Helvetica,sans-Serif" font-size="10.00">+</text>
<text text-anchor="start" x="250" y="-78.5" font-family="Helvetica,sans-Serif" font-size="10.00">StringProperty welcomeProperty()</text>
<text text-anchor="start" x="241.5" y="-62.5" font-family="Helvetica,sans-Serif" font-size="10.00">&#45;</text>
<text text-anchor="start" x="250" y="-62.5" font-family="Helvetica,sans-Serif" font-size="10.00">void createSoftware()</text>
<text text-anchor="start" x="241.5" y="-46.5" font-family="Helvetica,sans-Serif" font-size="10.00">&#45;</text>
<text text-anchor="start" x="250" y="-46.5" font-family="Helvetica,sans-Serif" font-size="10.00">void setWelcome(String</text>
<text text-anchor="start" x="250" y="-34.5" font-family="Helvetica,sans-Serif" font-size="10.00"> output)</text>
<text text-anchor="start" x="241.5" y="-18.5" font-family="Helvetica,sans-Serif" font-size="10.00">&#45;</text>
<text text-anchor="start" x="250" y="-18.5" font-family="Helvetica,sans-Serif" font-size="10.00">void updateSoftware</text>
<text text-anchor="start" x="250" y="-6.5" font-family="Helvetica,sans-Serif" font-size="10.00">(SoftwareDto softwareToUpdate)</text>
<polygon fill="#666666" stroke="#666666" points="236,-174 236,-174 432.5,-174 432.5,-174 236,-174"/>
<polygon fill="#666666" stroke="#666666" points="236,-158 236,-158 432.5,-158 432.5,-158 236,-158"/>
<polygon fill="none" stroke="#666666" points="236,0 236,-204 432.5,-204 432.5,0 236,0"/>
</a>
</g>
</g>
<!-- Node2 -->
<g id="Node000002" class="node">
<title>Node2</title>
<g id="a_Node000002"><a xlink:href="classfr_1_1softsf_1_1sudokufx_1_1service_1_1_software_service.html" target="_top" xlink:title=" ">
<polygon fill="white" stroke="none" points="187.25,-502 31.25,-502 31.25,-358 187.25,-358 187.25,-502"/>
<text text-anchor="start" x="52.25" y="-488.5" font-family="Helvetica,sans-Serif" font-size="10.00">fr.softsf.sudokufx.service.</text>
<text text-anchor="start" x="73.25" y="-476.5" font-family="Helvetica,sans-Serif" font-size="10.00">SoftwareService</text>
<text text-anchor="start" x="107.75" y="-460.5" font-family="Helvetica,sans-Serif" font-size="10.00"> </text>
<text text-anchor="start" x="35.25" y="-444.5" font-family="Helvetica,sans-Serif" font-size="10.00">+</text>
<text text-anchor="start" x="45.25" y="-444.5" font-family="Helvetica,sans-Serif" font-size="10.00">SoftwareService(Software</text>
<text text-anchor="start" x="45.25" y="-432.5" font-family="Helvetica,sans-Serif" font-size="10.00">Repository softwareRepository)</text>
<text text-anchor="start" x="35.25" y="-416.5" font-family="Helvetica,sans-Serif" font-size="10.00">+</text>
<text text-anchor="start" x="45.25" y="-416.5" font-family="Helvetica,sans-Serif" font-size="10.00">Optional&lt; SoftwareDto</text>
<text text-anchor="start" x="45.25" y="-404.5" font-family="Helvetica,sans-Serif" font-size="10.00"> &gt; getSoftware()</text>
<text text-anchor="start" x="35.25" y="-388.5" font-family="Helvetica,sans-Serif" font-size="10.00">+</text>
<text text-anchor="start" x="45.25" y="-388.5" font-family="Helvetica,sans-Serif" font-size="10.00">Optional&lt; SoftwareDto</text>
<text text-anchor="start" x="45.25" y="-376.5" font-family="Helvetica,sans-Serif" font-size="10.00"> &gt; updateSoftware(SoftwareDto</text>
<text text-anchor="start" x="45.25" y="-364.5" font-family="Helvetica,sans-Serif" font-size="10.00"> softwareDto)</text>
<polygon fill="#666666" stroke="#666666" points="31.25,-472 31.25,-472 187.25,-472 187.25,-472 31.25,-472"/>
<polygon fill="#666666" stroke="#666666" points="31.25,-456 31.25,-456 187.25,-456 187.25,-456 31.25,-456"/>
<polygon fill="none" stroke="#666666" points="31.25,-358 31.25,-502 187.25,-502 187.25,-358 31.25,-358"/>
</a>
</g>
</g>
<!-- Node2&#45;&gt;Node1 -->
<g id="edge1_Node000001_Node000002" class="edge">
<title>Node2&#45;&gt;Node1</title>
<g id="a_edge1_Node000001_Node000002"><a xlink:title=" ">
<path fill="none" stroke="#63b8ff" d="M138.28,-358.32C153.44,-324.83 173.56,-285.02 196.25,-252 205.81,-238.09 216.62,-224.16 227.88,-210.73"/>
<polygon fill="none" stroke="#63b8ff" points="227.77,-210.85 228.62,-203.69 235.56,-201.72 234.71,-208.88 227.77,-210.85"/>
</a>
</g>
<text text-anchor="middle" x="254.23" y="-224.5" font-family="Helvetica,sans-Serif" font-size="10.00" fill="grey"> &#45;softwareService</text>
</g>
<!-- Node3 -->
<g id="Node000003" class="node">
<title>Node3</title>
<g id="a_Node000003"><a xlink:href="interfacefr_1_1softsf_1_1sudokufx_1_1interfaces_1_1mapper_1_1_i_software_mapper.html" target="_top" xlink:title="This interface defines methods for mapping objects of type Software to objects of type SoftwareDto an...">
<polygon fill="white" stroke="none" points="168.5,-760 0,-760 0,-656 168.5,-656 168.5,-760"/>
<text text-anchor="start" x="4" y="-746.5" font-family="Helvetica,sans-Serif" font-size="10.00">fr.softsf.sudokufx.interfaces.mapper.</text>
<text text-anchor="start" x="47.12" y="-734.5" font-family="Helvetica,sans-Serif" font-size="10.00">ISoftwareMapper</text>
<text text-anchor="start" x="82.75" y="-718.5" font-family="Helvetica,sans-Serif" font-size="10.00"> </text>
<text text-anchor="start" x="10.12" y="-702.5" font-family="Helvetica,sans-Serif" font-size="10.00">+</text>
<text text-anchor="start" x="26.25" y="-702.5" font-family="Helvetica,sans-Serif" font-size="10.00">Software mapSoftwareDtoTo</text>
<text text-anchor="start" x="26.25" y="-690.5" font-family="Helvetica,sans-Serif" font-size="10.00">Software(SoftwareDto dto)</text>
<text text-anchor="start" x="10.12" y="-674.5" font-family="Helvetica,sans-Serif" font-size="10.00">+</text>
<text text-anchor="start" x="26.25" y="-674.5" font-family="Helvetica,sans-Serif" font-size="10.00">SoftwareDto mapSoftwareTo</text>
<text text-anchor="start" x="26.25" y="-662.5" font-family="Helvetica,sans-Serif" font-size="10.00">Dto(Software software)</text>
<polygon fill="#666666" stroke="#666666" points="0,-730 0,-730 168.5,-730 168.5,-730 0,-730"/>
<polygon fill="#666666" stroke="#666666" points="0,-714 0,-714 168.5,-714 168.5,-714 0,-714"/>
<polygon fill="none" stroke="#666666" points="0,-656 0,-760 168.5,-760 168.5,-656 0,-656"/>
</a>
</g>
</g>
<!-- Node3&#45;&gt;Node2 -->
<g id="edge2_Node000002_Node000003" class="edge">
<title>Node3&#45;&gt;Node2</title>
<g id="a_edge2_Node000002_Node000003"><a xlink:title=" ">
<path fill="none" stroke="#63b8ff" d="M88.86,-656.06C92.45,-616.48 97.5,-560.75 101.67,-514.65"/>
<polygon fill="none" stroke="#63b8ff" points="101.66,-514.77 98.22,-508.44 102.74,-502.82 106.19,-509.16 101.66,-514.77"/>
</a>
</g>
<text text-anchor="middle" x="130.7" y="-628.5" font-family="Helvetica,sans-Serif" font-size="10.00" fill="grey"> &#45;iSoftwareMapper</text>
</g>
<!-- Node3&#45;&gt;Node3 -->
<g id="edge3_Node000003_Node000003" class="edge">
<title>Node3&#45;&gt;Node3</title>
<g id="a_edge3_Node000003_Node000003"><a xlink:title=" ">
<path fill="none" stroke="#63b8ff" d="M168.49,-719.58C179.33,-717.58 186.5,-713.71 186.5,-708 186.5,-704.87 184.36,-702.3 180.64,-700.29"/>
<polygon fill="none" stroke="#63b8ff" points="180.78,-700.33 173.85,-702.32 169.35,-696.69 176.28,-694.7 180.78,-700.33"/>
</a>
</g>
<text text-anchor="middle" x="216.5" y="-704.5" font-family="Helvetica,sans-Serif" font-size="10.00" fill="grey"> +INSTANCE</text>
</g>
<!-- Node4 -->
<g id="Node000004" class="node">
<title>Node4</title>
<g id="a_Node000004"><a xlink:href="interfacefr_1_1softsf_1_1sudokufx_1_1repository_1_1_software_repository.html" target="_top" xlink:title=" ">
<polygon fill="white" stroke="none" points="397.5,-746 265,-746 265,-670 397.5,-670 397.5,-746"/>
<text text-anchor="start" x="269" y="-732.5" font-family="Helvetica,sans-Serif" font-size="10.00">fr.softsf.sudokufx.repository.</text>
<text text-anchor="start" x="288.12" y="-720.5" font-family="Helvetica,sans-Serif" font-size="10.00">SoftwareRepository</text>
<text text-anchor="start" x="329.75" y="-704.5" font-family="Helvetica,sans-Serif" font-size="10.00"> </text>
<text text-anchor="start" x="274.56" y="-688.5" font-family="Helvetica,sans-Serif" font-size="10.00">+</text>
<text text-anchor="start" x="290.12" y="-688.5" font-family="Helvetica,sans-Serif" font-size="10.00">Optional&lt; Software</text>
<text text-anchor="start" x="290.12" y="-676.5" font-family="Helvetica,sans-Serif" font-size="10.00"> &gt; findFirstSoftware()</text>
<polygon fill="#666666" stroke="#666666" points="265,-716 265,-716 397.5,-716 397.5,-716 265,-716"/>
<polygon fill="#666666" stroke="#666666" points="265,-700 265,-700 397.5,-700 397.5,-700 265,-700"/>
<polygon fill="none" stroke="#666666" points="265,-670 265,-746 397.5,-746 397.5,-670 265,-670"/>
</a>
</g>
</g>
<!-- Node4&#45;&gt;Node2 -->
<g id="edge4_Node000002_Node000004" class="edge">
<title>Node4&#45;&gt;Node2</title>
<g id="a_edge4_Node000002_Node000004"><a xlink:title=" ">
<path fill="none" stroke="#63b8ff" d="M275.58,-670.17C244.08,-648.56 208.57,-622.7 196.25,-608 173.04,-580.31 154.19,-545.37 140.04,-513.87"/>
<polygon fill="none" stroke="#63b8ff" points="140.01,-513.81 133.94,-509.91 135.21,-502.81 141.27,-506.71 140.01,-513.81"/>
</a>
</g>
<text text-anchor="middle" x="274.46" y="-628.5" font-family="Helvetica,sans-Serif" font-size="10.00" fill="grey"> &#45;softwareRepository</text>
</g>
<!-- Node5 -->
<g id="Node000005" class="node">
<title>Node5</title>
<g id="a_Node000005"><a xlink:title=" ">
<polygon fill="white" stroke="none" points="392.25,-861 270.25,-861 270.25,-797 392.25,-797 392.25,-861"/>
<text text-anchor="start" x="274.25" y="-847.5" font-family="Helvetica,sans-Serif" font-size="10.00">JpaRepository&lt; Software,</text>
<text text-anchor="start" x="314.75" y="-835.5" font-family="Helvetica,sans-Serif" font-size="10.00"> Long &gt;</text>
<text text-anchor="start" x="329.75" y="-819.5" font-family="Helvetica,sans-Serif" font-size="10.00"> </text>
<text text-anchor="start" x="329.75" y="-803.5" font-family="Helvetica,sans-Serif" font-size="10.00"> </text>
<polygon fill="#666666" stroke="#666666" points="270.25,-831 270.25,-831 392.25,-831 392.25,-831 270.25,-831"/>
<polygon fill="#666666" stroke="#666666" points="270.25,-815 270.25,-815 392.25,-815 392.25,-815 270.25,-815"/>
<polygon fill="none" stroke="#666666" points="270.25,-797 270.25,-861 392.25,-861 392.25,-797 270.25,-797"/>
</a>
</g>
</g>
<!-- Node5&#45;&gt;Node4 -->
<g id="edge5_Node000004_Node000005" class="edge">
<title>Node5&#45;&gt;Node4</title>
<g id="a_edge5_Node000004_Node000005"><a xlink:title=" ">
<path fill="none" stroke="#63b8ff" d="M331.25,-785.91C331.25,-772.79 331.25,-758.44 331.25,-745.72"/>
<polygon fill="none" stroke="#63b8ff" points="327.75,-785.53 331.25,-795.53 334.75,-785.53 327.75,-785.53"/>
</a>
</g>
</g>
<!-- Node6 -->
<g id="Node000006" class="node">
<title>Node6</title>
<g id="a_Node000006"><a xlink:href="interfacefr_1_1softsf_1_1sudokufx_1_1interfaces_1_1_i_grid_master.html" target="_top" xlink:title="Interface defining methods to generate and solve Sudoku puzzles.">
<polygon fill="white" stroke="none" points="338.88,-482 205.62,-482 205.62,-378 338.88,-378 338.88,-482"/>
<text text-anchor="start" x="209.62" y="-468.5" font-family="Helvetica,sans-Serif" font-size="10.00">fr.softsf.sudokufx.interfaces.</text>
<text text-anchor="start" x="246.75" y="-456.5" font-family="Helvetica,sans-Serif" font-size="10.00">IGridMaster</text>
<text text-anchor="start" x="270.75" y="-440.5" font-family="Helvetica,sans-Serif" font-size="10.00"> </text>
<text text-anchor="start" x="215.75" y="-424.5" font-family="Helvetica,sans-Serif" font-size="10.00">+</text>
<text text-anchor="start" x="231.88" y="-424.5" font-family="Helvetica,sans-Serif" font-size="10.00">int[][] creerLesGrilles</text>
<text text-anchor="start" x="231.88" y="-412.5" font-family="Helvetica,sans-Serif" font-size="10.00">(final int niveau)</text>
<text text-anchor="start" x="215.75" y="-396.5" font-family="Helvetica,sans-Serif" font-size="10.00">+</text>
<text text-anchor="start" x="231.88" y="-396.5" font-family="Helvetica,sans-Serif" font-size="10.00">int resoudreLaGrille</text>
<text text-anchor="start" x="231.88" y="-384.5" font-family="Helvetica,sans-Serif" font-size="10.00">(final int[] grille)</text>
<polygon fill="#666666" stroke="#666666" points="205.62,-452 205.62,-452 338.88,-452 338.88,-452 205.62,-452"/>
<polygon fill="#666666" stroke="#666666" points="205.62,-436 205.62,-436 338.88,-436 338.88,-436 205.62,-436"/>
<polygon fill="none" stroke="#666666" points="205.62,-378 205.62,-482 338.88,-482 338.88,-378 205.62,-378"/>
</a>
</g>
</g>
<!-- Node6&#45;&gt;Node1 -->
<g id="edge6_Node000001_Node000006" class="edge">
<title>Node6&#45;&gt;Node1</title>
<g id="a_edge6_Node000001_Node000006"><a xlink:title=" ">
<path fill="none" stroke="#63b8ff" d="M281.94,-378.06C290.14,-334.95 302.19,-271.57 312.66,-216.51"/>
<polygon fill="none" stroke="#63b8ff" points="312.67,-216.48 309.86,-209.84 314.91,-204.69 317.72,-211.33 312.67,-216.48"/>
</a>
</g>
<text text-anchor="middle" x="338.75" y="-224.5" font-family="Helvetica,sans-Serif" font-size="10.00" fill="grey"> &#45;iGridMaster</text>
</g>
<!-- Node7 -->
<g id="Node000007" class="node">
<title>Node7</title>
<g id="a_Node000007"><a xlink:href="classfr_1_1softsf_1_1sudokufx_1_1service_1_1_version_service.html" target="_top" xlink:title="Service for managing version information from a GitHub repository.">
<polygon fill="white" stroke="none" points="529.12,-608 357.38,-608 357.38,-252 529.12,-252 529.12,-608"/>
<text text-anchor="start" x="386.25" y="-594.5" font-family="Helvetica,sans-Serif" font-size="10.00">fr.softsf.sudokufx.service.</text>
<text text-anchor="start" x="410.62" y="-582.5" font-family="Helvetica,sans-Serif" font-size="10.00">VersionService</text>
<text text-anchor="start" x="362.88" y="-566.5" font-family="Helvetica,sans-Serif" font-size="10.00">&#45;</text>
<text text-anchor="start" x="371.38" y="-566.5" font-family="Helvetica,sans-Serif" font-size="10.00">final String currentVersion</text>
<text text-anchor="start" x="362.88" y="-550.5" font-family="Helvetica,sans-Serif" font-size="10.00">&#45;</text>
<text text-anchor="start" x="371.38" y="-550.5" font-family="Helvetica,sans-Serif" font-size="10.00">String lastVersion</text>
<text text-anchor="start" x="362.88" y="-534.5" font-family="Helvetica,sans-Serif" font-size="10.00">&#45;</text>
<text text-anchor="start" x="371.38" y="-534.5" font-family="Helvetica,sans-Serif" font-size="10.00">static final String</text>
<text text-anchor="start" x="371.38" y="-522.5" font-family="Helvetica,sans-Serif" font-size="10.00"> GITHUB_API_URL</text>
<text text-anchor="start" x="362.88" y="-506.5" font-family="Helvetica,sans-Serif" font-size="10.00">&#45;</text>
<text text-anchor="start" x="371.38" y="-506.5" font-family="Helvetica,sans-Serif" font-size="10.00">static final String</text>
<text text-anchor="start" x="371.38" y="-494.5" font-family="Helvetica,sans-Serif" font-size="10.00"> GITHUB_API_URL_REPO_TAGS</text>
<text text-anchor="start" x="362.88" y="-478.5" font-family="Helvetica,sans-Serif" font-size="10.00">&#45;</text>
<text text-anchor="start" x="371.38" y="-478.5" font-family="Helvetica,sans-Serif" font-size="10.00">static final String</text>
<text text-anchor="start" x="371.38" y="-466.5" font-family="Helvetica,sans-Serif" font-size="10.00"> GITHUB_URL</text>
<text text-anchor="start" x="362.88" y="-450.5" font-family="Helvetica,sans-Serif" font-size="10.00">&#45;</text>
<text text-anchor="start" x="371.38" y="-450.5" font-family="Helvetica,sans-Serif" font-size="10.00">static final String</text>
<text text-anchor="start" x="371.38" y="-438.5" font-family="Helvetica,sans-Serif" font-size="10.00"> OWNER</text>
<text text-anchor="start" x="362.88" y="-422.5" font-family="Helvetica,sans-Serif" font-size="10.00">&#45;</text>
<text text-anchor="start" x="371.38" y="-422.5" font-family="Helvetica,sans-Serif" font-size="10.00">static final String REPO</text>
<text text-anchor="start" x="361.38" y="-406.5" font-family="Helvetica,sans-Serif" font-size="10.00">+</text>
<text text-anchor="start" x="371.38" y="-406.5" font-family="Helvetica,sans-Serif" font-size="10.00">VersionService(HttpClient</text>
<text text-anchor="start" x="371.38" y="-394.5" font-family="Helvetica,sans-Serif" font-size="10.00"> httpClient)</text>
<text text-anchor="start" x="361.38" y="-378.5" font-family="Helvetica,sans-Serif" font-size="10.00">+</text>
<text text-anchor="start" x="371.38" y="-378.5" font-family="Helvetica,sans-Serif" font-size="10.00">String getGitHubLinkToRepository</text>
<text text-anchor="start" x="371.38" y="-366.5" font-family="Helvetica,sans-Serif" font-size="10.00">Releases()</text>
<text text-anchor="start" x="361.38" y="-350.5" font-family="Helvetica,sans-Serif" font-size="10.00">+</text>
<text text-anchor="start" x="371.38" y="-350.5" font-family="Helvetica,sans-Serif" font-size="10.00">boolean isLatestGitHubPublished</text>
<text text-anchor="start" x="371.38" y="-338.5" font-family="Helvetica,sans-Serif" font-size="10.00">PackageVersion()</text>
<text text-anchor="start" x="362.88" y="-322.5" font-family="Helvetica,sans-Serif" font-size="10.00">&#45;</text>
<text text-anchor="start" x="371.38" y="-322.5" font-family="Helvetica,sans-Serif" font-size="10.00">int compareVersions</text>
<text text-anchor="start" x="371.38" y="-310.5" font-family="Helvetica,sans-Serif" font-size="10.00">(final String version1,</text>
<text text-anchor="start" x="371.38" y="-298.5" font-family="Helvetica,sans-Serif" font-size="10.00"> final String version2)</text>
<text text-anchor="start" x="362.88" y="-282.5" font-family="Helvetica,sans-Serif" font-size="10.00">&#45;</text>
<text text-anchor="start" x="371.38" y="-282.5" font-family="Helvetica,sans-Serif" font-size="10.00">String getFormattedVersion</text>
<text text-anchor="start" x="371.38" y="-270.5" font-family="Helvetica,sans-Serif" font-size="10.00">NumberOnly(final String</text>
<text text-anchor="start" x="371.38" y="-258.5" font-family="Helvetica,sans-Serif" font-size="10.00"> version)</text>
<polygon fill="#666666" stroke="#666666" points="357.38,-578 357.38,-578 529.12,-578 529.12,-578 357.38,-578"/>
<polygon fill="#666666" stroke="#666666" points="357.38,-418 357.38,-418 369.38,-418 369.38,-418 357.38,-418"/>
<polygon fill="#666666" stroke="#666666" points="369.38,-418 369.38,-418 529.12,-418 529.12,-418 369.38,-418"/>
<polygon fill="none" stroke="#666666" points="357.38,-252 357.38,-608 529.12,-608 529.12,-252 357.38,-252"/>
</a>
</g>
</g>
<!-- Node7&#45;&gt;Node1 -->
<g id="edge7_Node000001_Node000007" class="edge">
<title>Node7&#45;&gt;Node1</title>
<g id="a_edge7_Node000001_Node000007"><a xlink:title=" ">
<path fill="none" stroke="#63b8ff" d="M384.12,-252.17C380,-239.83 375.91,-227.61 371.96,-215.78"/>
<polygon fill="none" stroke="#63b8ff" points="371.98,-215.83 366.28,-211.41 368.17,-204.45 373.87,-208.88 371.98,-215.83"/>
</a>
</g>
<text text-anchor="middle" x="411.03" y="-224.5" font-family="Helvetica,sans-Serif" font-size="10.00" fill="grey"> &#45;versionService</text>
</g>
<!-- Node8 -->
<g id="Node000008" class="node">
<title>Node8</title>
<g id="a_Node000008"><a xlink:title=" ">
<polygon fill="white" stroke="none" points="469.38,-734 417.12,-734 417.12,-682 469.38,-682 469.38,-734"/>
<text text-anchor="start" x="421.12" y="-720.5" font-family="Helvetica,sans-Serif" font-size="10.00">HttpClient</text>
<text text-anchor="start" x="441.75" y="-704.5" font-family="Helvetica,sans-Serif" font-size="10.00"> </text>
<text text-anchor="start" x="441.75" y="-688.5" font-family="Helvetica,sans-Serif" font-size="10.00"> </text>
<polygon fill="#666666" stroke="#666666" points="417.12,-716 417.12,-716 469.38,-716 469.38,-716 417.12,-716"/>
<polygon fill="#666666" stroke="#666666" points="417.12,-700 417.12,-700 469.38,-700 469.38,-700 417.12,-700"/>
<polygon fill="none" stroke="#666666" points="417.12,-682 417.12,-734 469.38,-734 469.38,-682 417.12,-682"/>
</a>
</g>
</g>
<!-- Node8&#45;&gt;Node7 -->
<g id="edge8_Node000007_Node000008" class="edge">
<title>Node8&#45;&gt;Node7</title>
<g id="a_edge8_Node000007_Node000008"><a xlink:title=" ">
<path fill="none" stroke="#63b8ff" d="M443.25,-682.02C443.25,-666.43 443.25,-644.77 443.25,-620.65"/>
<polygon fill="none" stroke="#63b8ff" points="443.25,-620.73 439.25,-614.73 443.25,-608.73 447.25,-614.73 443.25,-620.73"/>
</a>
</g>
<text text-anchor="middle" x="467.25" y="-628.5" font-family="Helvetica,sans-Serif" font-size="10.00" fill="grey"> &#45;httpClient</text>
</g>
<!-- Node9 -->
<g id="Node000009" class="node">
<title>Node9</title>
<g id="a_Node000009"><a xlink:title=" ">
<polygon fill="white" stroke="none" points="617.38,-456 547.12,-456 547.12,-404 617.38,-404 617.38,-456"/>
<text text-anchor="start" x="551.12" y="-442.5" font-family="Helvetica,sans-Serif" font-size="10.00">StringProperty</text>
<text text-anchor="start" x="580.75" y="-426.5" font-family="Helvetica,sans-Serif" font-size="10.00"> </text>
<text text-anchor="start" x="580.75" y="-410.5" font-family="Helvetica,sans-Serif" font-size="10.00"> </text>
<polygon fill="#666666" stroke="#666666" points="547.12,-438 547.12,-438 617.38,-438 617.38,-438 547.12,-438"/>
<polygon fill="#666666" stroke="#666666" points="547.12,-422 547.12,-422 617.38,-422 617.38,-422 547.12,-422"/>
<polygon fill="none" stroke="#666666" points="547.12,-404 547.12,-456 617.38,-456 617.38,-404 547.12,-404"/>
</a>
</g>
</g>
<!-- Node9&#45;&gt;Node1 -->
<g id="edge9_Node000001_Node000009" class="edge">
<title>Node9&#45;&gt;Node1</title>
<g id="a_edge9_Node000001_Node000009"><a xlink:title=" ">
<path fill="none" stroke="#63b8ff" d="M581.35,-404.27C578.93,-367.97 570.13,-299.43 538.25,-252 514.08,-216.04 478.19,-185.65 443.22,-161.88"/>
<polygon fill="none" stroke="#63b8ff" points="443.17,-161.85 435.96,-161.87 433.17,-155.22 440.38,-155.2 443.17,-161.85"/>
</a>
</g>
<text text-anchor="middle" x="544.32" y="-224.5" font-family="Helvetica,sans-Serif" font-size="10.00" fill="grey"> &#45;welcome</text>
</g>
</g>
</svg>
