<?xml version="1.0" encoding="UTF-8" standalone="no"?>
<!DOCTYPE svg PUBLIC "-//W3C//DTD SVG 1.1//EN"
 "http://www.w3.org/Graphics/SVG/1.1/DTD/svg11.dtd">
<!-- Generated by graphviz version 12.2.0 (20241103.1931)
 -->
<!-- Title: fr.softsf.sudokufx.SudoMain Pages: 1 -->
<svg width="192pt" height="496pt"
 viewBox="0.00 0.00 191.75 496.00" xmlns="http://www.w3.org/2000/svg" xmlns:xlink="http://www.w3.org/1999/xlink">
<g id="graph0" class="graph" transform="scale(1 1) rotate(0) translate(4 492)">
<title>fr.softsf.sudokufx.SudoMain</title>
<!-- Node1 -->
<g id="Node000001" class="node">
<title>Node1</title>
<g id="a_Node000001"><a xlink:title="The application main class.">
<polygon fill="#999999" stroke="none" points="183.75,-400 0,-400 0,0 183.75,0 183.75,-400"/>
<text text-anchor="start" x="30.38" y="-386.5" font-family="Helvetica,sans-Serif" font-size="10.00">fr.softsf.sudokufx.SudoMain</text>
<text text-anchor="start" x="5.5" y="-370.5" font-family="Helvetica,sans-Serif" font-size="10.00">&#45;</text>
<text text-anchor="start" x="14" y="-370.5" font-family="Helvetica,sans-Serif" font-size="10.00">final SpringContext</text>
<text text-anchor="start" x="14" y="-358.5" font-family="Helvetica,sans-Serif" font-size="10.00"> context</text>
<text text-anchor="start" x="5.5" y="-342.5" font-family="Helvetica,sans-Serif" font-size="10.00">&#45;</text>
<text text-anchor="start" x="14" y="-342.5" font-family="Helvetica,sans-Serif" font-size="10.00">FxmlService fxmlService</text>
<text text-anchor="start" x="5.5" y="-326.5" font-family="Helvetica,sans-Serif" font-size="10.00">&#45;</text>
<text text-anchor="start" x="14" y="-326.5" font-family="Helvetica,sans-Serif" font-size="10.00">IPrimaryStageView iPrimary</text>
<text text-anchor="start" x="14" y="-314.5" font-family="Helvetica,sans-Serif" font-size="10.00">StageView</text>
<text text-anchor="start" x="5.5" y="-298.5" font-family="Helvetica,sans-Serif" font-size="10.00">&#45;</text>
<text text-anchor="start" x="14" y="-298.5" font-family="Helvetica,sans-Serif" font-size="10.00">ISplashScreenView isplash</text>
<text text-anchor="start" x="14" y="-286.5" font-family="Helvetica,sans-Serif" font-size="10.00">ScreenView</text>
<text text-anchor="start" x="5.5" y="-270.5" font-family="Helvetica,sans-Serif" font-size="10.00">&#45;</text>
<text text-anchor="start" x="14" y="-270.5" font-family="Helvetica,sans-Serif" font-size="10.00">static Scene scene</text>
<text text-anchor="start" x="4" y="-254.5" font-family="Helvetica,sans-Serif" font-size="10.00">+</text>
<text text-anchor="start" x="14" y="-254.5" font-family="Helvetica,sans-Serif" font-size="10.00">void start(final Stage</text>
<text text-anchor="start" x="14" y="-242.5" font-family="Helvetica,sans-Serif" font-size="10.00"> splashScreenStage)</text>
<text text-anchor="start" x="4" y="-226.5" font-family="Helvetica,sans-Serif" font-size="10.00">+</text>
<text text-anchor="start" x="14" y="-226.5" font-family="Helvetica,sans-Serif" font-size="10.00">static void main(String</text>
<text text-anchor="start" x="14" y="-214.5" font-family="Helvetica,sans-Serif" font-size="10.00">[] args)</text>
<text text-anchor="start" x="5.5" y="-198.5" font-family="Helvetica,sans-Serif" font-size="10.00">&#45;</text>
<text text-anchor="start" x="14" y="-198.5" font-family="Helvetica,sans-Serif" font-size="10.00">Task&lt; Void &gt; createSpring</text>
<text text-anchor="start" x="14" y="-186.5" font-family="Helvetica,sans-Serif" font-size="10.00">ContextTask()</text>
<text text-anchor="start" x="5.5" y="-170.5" font-family="Helvetica,sans-Serif" font-size="10.00">&#45;</text>
<text text-anchor="start" x="14" y="-170.5" font-family="Helvetica,sans-Serif" font-size="10.00">PauseTransition getPause</text>
<text text-anchor="start" x="14" y="-158.5" font-family="Helvetica,sans-Serif" font-size="10.00">Transition(String fxmlName,</text>
<text text-anchor="start" x="14" y="-146.5" font-family="Helvetica,sans-Serif" font-size="10.00"> long minimumTimelapse)</text>
<text text-anchor="start" x="5.5" y="-130.5" font-family="Helvetica,sans-Serif" font-size="10.00">&#45;</text>
<text text-anchor="start" x="14" y="-130.5" font-family="Helvetica,sans-Serif" font-size="10.00">void handleSpringContext</text>
<text text-anchor="start" x="14" y="-118.5" font-family="Helvetica,sans-Serif" font-size="10.00">TaskFailed(Throwable throwable)</text>
<text text-anchor="start" x="5.5" y="-102.5" font-family="Helvetica,sans-Serif" font-size="10.00">&#45;</text>
<text text-anchor="start" x="14" y="-102.5" font-family="Helvetica,sans-Serif" font-size="10.00">void handleSpringContext</text>
<text text-anchor="start" x="14" y="-90.5" font-family="Helvetica,sans-Serif" font-size="10.00">TaskSuccess(long startTime)</text>
<text text-anchor="start" x="5.5" y="-74.5" font-family="Helvetica,sans-Serif" font-size="10.00">&#45;</text>
<text text-anchor="start" x="14" y="-74.5" font-family="Helvetica,sans-Serif" font-size="10.00">void initializeFxmlService()</text>
<text text-anchor="start" x="5.5" y="-58.5" font-family="Helvetica,sans-Serif" font-size="10.00">&#45;</text>
<text text-anchor="start" x="14" y="-58.5" font-family="Helvetica,sans-Serif" font-size="10.00">static void initScene</text>
<text text-anchor="start" x="14" y="-46.5" font-family="Helvetica,sans-Serif" font-size="10.00">(Stage splashScreenStage)</text>
<text text-anchor="start" x="5.5" y="-30.5" font-family="Helvetica,sans-Serif" font-size="10.00">&#45;</text>
<text text-anchor="start" x="14" y="-30.5" font-family="Helvetica,sans-Serif" font-size="10.00">static void sqlInvalidAuthorization</text>
<text text-anchor="start" x="14" y="-18.5" font-family="Helvetica,sans-Serif" font-size="10.00">(Exception e, SQLInvalidAuthorization</text>
<text text-anchor="start" x="14" y="-6.5" font-family="Helvetica,sans-Serif" font-size="10.00">SpecException sqlException)</text>
<polygon fill="#666666" stroke="#666666" points="0,-382 0,-382 183.75,-382 183.75,-382 0,-382"/>
<polygon fill="#666666" stroke="#666666" points="0,-266 0,-266 12,-266 12,-266 0,-266"/>
<polygon fill="#666666" stroke="#666666" points="12,-266 12,-266 183.75,-266 183.75,-266 12,-266"/>
<polygon fill="none" stroke="#666666" points="0,0 0,-400 183.75,-400 183.75,0 0,0"/>
</a>
</g>
</g>
<!-- Node2 -->
<g id="Node000002" class="node">
<title>Node2</title>
<g id="a_Node000002"><a xlink:title=" ">
<polygon fill="white" stroke="none" points="119.88,-488 63.88,-488 63.88,-436 119.88,-436 119.88,-488"/>
<text text-anchor="start" x="67.88" y="-474.5" font-family="Helvetica,sans-Serif" font-size="10.00">Application</text>
<text text-anchor="start" x="90.38" y="-458.5" font-family="Helvetica,sans-Serif" font-size="10.00"> </text>
<text text-anchor="start" x="90.38" y="-442.5" font-family="Helvetica,sans-Serif" font-size="10.00"> </text>
<polygon fill="#666666" stroke="#666666" points="63.88,-470 63.88,-470 119.88,-470 119.88,-470 63.88,-470"/>
<polygon fill="#666666" stroke="#666666" points="63.88,-454 63.88,-454 119.88,-454 119.88,-454 63.88,-454"/>
<polygon fill="none" stroke="#666666" points="63.88,-436 63.88,-488 119.88,-488 119.88,-436 63.88,-436"/>
</a>
</g>
</g>
<!-- Node2&#45;&gt;Node1 -->
<g id="edge1_Node000001_Node000002" class="edge">
<title>Node2&#45;&gt;Node1</title>
<g id="a_edge1_Node000001_Node000002"><a xlink:title=" ">
<path fill="none" stroke="#63b8ff" d="M91.88,-424.75C91.88,-417.29 91.88,-408.95 91.88,-400"/>
<polygon fill="none" stroke="#63b8ff" points="88.38,-424.56 91.88,-434.56 95.38,-424.56 88.38,-424.56"/>
</a>
</g>
</g>
</g>
</svg>
