<?xml version="1.0" encoding="UTF-8" standalone="no"?>
<!DOCTYPE svg PUBLIC "-//W3C//DTD SVG 1.1//EN"
 "http://www.w3.org/Graphics/SVG/1.1/DTD/svg11.dtd">
<!-- Generated by graphviz version 12.2.0 (20241103.1931)
 -->
<!-- Title: fr.softsf.sudofx2024.SudoMain.getPauseTransition Pages: 1 -->
<svg width="547pt" height="152pt"
 viewBox="0.00 0.00 546.50 152.00" xmlns="http://www.w3.org/2000/svg" xmlns:xlink="http://www.w3.org/1999/xlink">
<g id="graph0" class="graph" transform="scale(1 1) rotate(0) translate(4 148)">
<title>fr.softsf.sudofx2024.SudoMain.getPauseTransition</title>
<!-- Node1 -->
<g id="Node000001" class="node">
<title>Node1</title>
<g id="a_Node000001"><a xlink:title="Creates a PauseTransition to delay loading of the next view.">
<polygon fill="#999999" stroke="#666666" points="128.5,-88 0,-88 0,-56 128.5,-56 128.5,-88"/>
<text text-anchor="start" x="8" y="-74.5" font-family="Helvetica,sans-Serif" font-size="10.00">fr.softsf.sudofx2024.Sudo</text>
<text text-anchor="middle" x="64.25" y="-62.5" font-family="Helvetica,sans-Serif" font-size="10.00">Main.getPauseTransition</text>
</a>
</g>
</g>
<!-- Node2 -->
<g id="Node000002" class="node">
<title>Node2</title>
<g id="a_Node000002"><a xlink:href="classfr_1_1softsf_1_1sudofx2024_1_1service_1_1_fxml_service.html#ad0755c115f6de1b29902644947a51046" target="_top" xlink:title="Retrieves the controller associated with the loaded FXML file.">
<polygon fill="white" stroke="#666666" points="321.12,-144 180.62,-144 180.62,-112 321.12,-112 321.12,-144"/>
<text text-anchor="start" x="188.62" y="-130.5" font-family="Helvetica,sans-Serif" font-size="10.00">fr.softsf.sudofx2024.service.</text>
<text text-anchor="middle" x="250.88" y="-118.5" font-family="Helvetica,sans-Serif" font-size="10.00">FxmlService.getController</text>
</a>
</g>
</g>
<!-- Node1&#45;&gt;Node2 -->
<g id="edge1_Node000001_Node000002" class="edge">
<title>Node1&#45;&gt;Node2</title>
<g id="a_edge1_Node000001_Node000002"><a xlink:title=" ">
<path fill="none" stroke="#63b8ff" d="M117.22,-88.42C132.44,-93.18 149.12,-98.35 164.5,-103 170.32,-104.76 176.37,-106.57 182.44,-108.38"/>
<polygon fill="#63b8ff" stroke="#63b8ff" points="181.31,-111.69 191.9,-111.17 183.3,-104.98 181.31,-111.69"/>
</a>
</g>
</g>
<!-- Node3 -->
<g id="Node000003" class="node">
<title>Node3</title>
<g id="a_Node000003"><a xlink:href="interfacefr_1_1softsf_1_1sudofx2024_1_1_sudo_main_1_1_i_primary_stage_view.html#af9db2de476fffbb2feb7dbd83ecab967" target="_top" xlink:title=" ">
<polygon fill="white" stroke="#666666" points="330.88,-94 170.88,-94 170.88,-50 330.88,-50 330.88,-94"/>
<text text-anchor="start" x="178.88" y="-80.5" font-family="Helvetica,sans-Serif" font-size="10.00">fr.softsf.sudofx2024.Sudo</text>
<text text-anchor="start" x="178.88" y="-68.5" font-family="Helvetica,sans-Serif" font-size="10.00">Main.IPrimaryStageView.opening</text>
<text text-anchor="middle" x="250.88" y="-56.5" font-family="Helvetica,sans-Serif" font-size="10.00">MainStage</text>
</a>
</g>
</g>
<!-- Node1&#45;&gt;Node3 -->
<g id="edge2_Node000001_Node000003" class="edge">
<title>Node1&#45;&gt;Node3</title>
<g id="a_edge2_Node000001_Node000003"><a xlink:title=" ">
<path fill="none" stroke="#63b8ff" d="M128.79,-72C138.56,-72 148.82,-72 159.05,-72"/>
<polygon fill="#63b8ff" stroke="#63b8ff" points="159.05,-75.5 169.05,-72 159.05,-68.5 159.05,-75.5"/>
</a>
</g>
</g>
<!-- Node4 -->
<g id="Node000004" class="node">
<title>Node4</title>
<g id="a_Node000004"><a xlink:href="classfr_1_1softsf_1_1sudofx2024_1_1service_1_1_fxml_service.html#aab6ca18eddd23a7289d0b99919947aa0" target="_top" xlink:title="Sets the root of the scene based on the given FXML file name, and adapt the font size dynamically.">
<polygon fill="white" stroke="#666666" points="337.25,-32 164.5,-32 164.5,0 337.25,0 337.25,-32"/>
<text text-anchor="start" x="172.5" y="-18.5" font-family="Helvetica,sans-Serif" font-size="10.00">fr.softsf.sudofx2024.service.</text>
<text text-anchor="middle" x="250.88" y="-6.5" font-family="Helvetica,sans-Serif" font-size="10.00">FxmlService.setRootByFXMLName</text>
</a>
</g>
</g>
<!-- Node1&#45;&gt;Node4 -->
<g id="edge3_Node000001_Node000004" class="edge">
<title>Node1&#45;&gt;Node4</title>
<g id="a_edge3_Node000001_Node000004"><a xlink:title=" ">
<path fill="none" stroke="#63b8ff" d="M117.22,-55.58C132.44,-50.82 149.12,-45.65 164.5,-41 170.32,-39.24 176.37,-37.43 182.44,-35.62"/>
<polygon fill="#63b8ff" stroke="#63b8ff" points="183.3,-39.02 191.9,-32.83 181.31,-32.31 183.3,-39.02"/>
</a>
</g>
</g>
<!-- Node5 -->
<g id="Node000005" class="node">
<title>Node5</title>
<g id="a_Node000005"><a xlink:href="classfr_1_1softsf_1_1sudofx2024_1_1utils_1_1_dynamic_font_size.html#a1bc835c3deae920bc386895199a86338" target="_top" xlink:title="Updates the font size based on the current Scene dimensions.">
<polygon fill="white" stroke="#666666" points="538.5,-32 373.25,-32 373.25,0 538.5,0 538.5,-32"/>
<text text-anchor="start" x="381.25" y="-18.5" font-family="Helvetica,sans-Serif" font-size="10.00">fr.softsf.sudofx2024.utils.</text>
<text text-anchor="middle" x="455.88" y="-6.5" font-family="Helvetica,sans-Serif" font-size="10.00">DynamicFontSize.updateFontSize</text>
</a>
</g>
</g>
<!-- Node4&#45;&gt;Node5 -->
<g id="edge4_Node000004_Node000005" class="edge">
<title>Node4&#45;&gt;Node5</title>
<g id="a_edge4_Node000004_Node000005"><a xlink:title=" ">
<path fill="none" stroke="#63b8ff" d="M337.67,-16C345.61,-16 353.69,-16 361.69,-16"/>
<polygon fill="#63b8ff" stroke="#63b8ff" points="361.43,-19.5 371.43,-16 361.43,-12.5 361.43,-19.5"/>
</a>
</g>
</g>
</g>
</svg>
