<?xml version="1.0" encoding="UTF-8" standalone="no"?>
<!DOCTYPE svg PUBLIC "-//W3C//DTD SVG 1.1//EN"
 "http://www.w3.org/Graphics/SVG/1.1/DTD/svg11.dtd">
<!-- Generated by graphviz version 12.2.0 (20241103.1931)
 -->
<!-- Title: fr.softsf.sudokufx.viewmodel.FullMenuViewModel Pages: 1 -->
<svg width="406pt" height="605pt"
 viewBox="0.00 0.00 405.50 605.00" xmlns="http://www.w3.org/2000/svg" xmlns:xlink="http://www.w3.org/1999/xlink">
<g id="graph0" class="graph" transform="scale(1 1) rotate(0) translate(4 601)">
<title>fr.softsf.sudokufx.viewmodel.FullMenuViewModel</title>
<!-- Node1 -->
<g id="Node000001" class="node">
<title>Node1</title>
<g id="a_Node000001"><a xlink:title="FullMenuViewModel with business logic (not final)">
<polygon fill="#999999" stroke="none" points="297.75,-152 132.75,-152 132.75,0 297.75,0 297.75,-152"/>
<text text-anchor="start" x="150.75" y="-138.5" font-family="Helvetica,sans-Serif" font-size="10.00">fr.softsf.sudokufx.viewmodel.</text>
<text text-anchor="start" x="171.38" y="-126.5" font-family="Helvetica,sans-Serif" font-size="10.00">FullMenuViewModel</text>
<text text-anchor="start" x="213.75" y="-110.5" font-family="Helvetica,sans-Serif" font-size="10.00"> </text>
<text text-anchor="start" x="136.75" y="-94.5" font-family="Helvetica,sans-Serif" font-size="10.00">+</text>
<text text-anchor="start" x="146.75" y="-94.5" font-family="Helvetica,sans-Serif" font-size="10.00">void test()</text>
<text text-anchor="start" x="136.75" y="-78.5" font-family="Helvetica,sans-Serif" font-size="10.00">+</text>
<text text-anchor="start" x="146.75" y="-78.5" font-family="Helvetica,sans-Serif" font-size="10.00">StringProperty welcomeProperty()</text>
<text text-anchor="start" x="138.25" y="-62.5" font-family="Helvetica,sans-Serif" font-size="10.00">&#45;</text>
<text text-anchor="start" x="146.75" y="-62.5" font-family="Helvetica,sans-Serif" font-size="10.00">void createSoftware()</text>
<text text-anchor="start" x="138.25" y="-46.5" font-family="Helvetica,sans-Serif" font-size="10.00">&#45;</text>
<text text-anchor="start" x="146.75" y="-46.5" font-family="Helvetica,sans-Serif" font-size="10.00">void setWelcome(String</text>
<text text-anchor="start" x="146.75" y="-34.5" font-family="Helvetica,sans-Serif" font-size="10.00"> output)</text>
<text text-anchor="start" x="138.25" y="-18.5" font-family="Helvetica,sans-Serif" font-size="10.00">&#45;</text>
<text text-anchor="start" x="146.75" y="-18.5" font-family="Helvetica,sans-Serif" font-size="10.00">void updateSoftware</text>
<text text-anchor="start" x="146.75" y="-6.5" font-family="Helvetica,sans-Serif" font-size="10.00">(SoftwareDto softwareToUpdate)</text>
<polygon fill="#666666" stroke="#666666" points="132.75,-122 132.75,-122 297.75,-122 297.75,-122 132.75,-122"/>
<polygon fill="#666666" stroke="#666666" points="132.75,-106 132.75,-106 297.75,-106 297.75,-106 132.75,-106"/>
<polygon fill="none" stroke="#666666" points="132.75,0 132.75,-152 297.75,-152 297.75,0 132.75,0"/>
</a>
</g>
</g>
<!-- Node2 -->
<g id="Node000002" class="node">
<title>Node2</title>
<g id="a_Node000002"><a xlink:href="classfr_1_1softsf_1_1sudokufx_1_1service_1_1_software_service.html" target="_top" xlink:title=" ">
<polygon fill="white" stroke="none" points="228.25,-344 72.25,-344 72.25,-200 228.25,-200 228.25,-344"/>
<text text-anchor="start" x="93.25" y="-330.5" font-family="Helvetica,sans-Serif" font-size="10.00">fr.softsf.sudokufx.service.</text>
<text text-anchor="start" x="114.25" y="-318.5" font-family="Helvetica,sans-Serif" font-size="10.00">SoftwareService</text>
<text text-anchor="start" x="148.75" y="-302.5" font-family="Helvetica,sans-Serif" font-size="10.00"> </text>
<text text-anchor="start" x="76.25" y="-286.5" font-family="Helvetica,sans-Serif" font-size="10.00">+</text>
<text text-anchor="start" x="86.25" y="-286.5" font-family="Helvetica,sans-Serif" font-size="10.00">SoftwareService(Software</text>
<text text-anchor="start" x="86.25" y="-274.5" font-family="Helvetica,sans-Serif" font-size="10.00">Repository softwareRepository)</text>
<text text-anchor="start" x="76.25" y="-258.5" font-family="Helvetica,sans-Serif" font-size="10.00">+</text>
<text text-anchor="start" x="86.25" y="-258.5" font-family="Helvetica,sans-Serif" font-size="10.00">Optional&lt; SoftwareDto</text>
<text text-anchor="start" x="86.25" y="-246.5" font-family="Helvetica,sans-Serif" font-size="10.00"> &gt; getSoftware()</text>
<text text-anchor="start" x="76.25" y="-230.5" font-family="Helvetica,sans-Serif" font-size="10.00">+</text>
<text text-anchor="start" x="86.25" y="-230.5" font-family="Helvetica,sans-Serif" font-size="10.00">Optional&lt; SoftwareDto</text>
<text text-anchor="start" x="86.25" y="-218.5" font-family="Helvetica,sans-Serif" font-size="10.00"> &gt; updateSoftware(SoftwareDto</text>
<text text-anchor="start" x="86.25" y="-206.5" font-family="Helvetica,sans-Serif" font-size="10.00"> softwareDto)</text>
<polygon fill="#666666" stroke="#666666" points="72.25,-314 72.25,-314 228.25,-314 228.25,-314 72.25,-314"/>
<polygon fill="#666666" stroke="#666666" points="72.25,-298 72.25,-298 228.25,-298 228.25,-298 72.25,-298"/>
<polygon fill="none" stroke="#666666" points="72.25,-200 72.25,-344 228.25,-344 228.25,-200 72.25,-200"/>
</a>
</g>
</g>
<!-- Node2&#45;&gt;Node1 -->
<g id="edge1_Node000001_Node000002" class="edge">
<title>Node2&#45;&gt;Node1</title>
<g id="a_edge1_Node000001_Node000002"><a xlink:title=" ">
<path fill="none" stroke="#63b8ff" d="M170.16,-200.14C173.24,-189.98 176.49,-179.7 179.75,-170 180.4,-168.07 181.07,-166.11 181.75,-164.14"/>
<polygon fill="none" stroke="#63b8ff" points="181.76,-164.1 179.98,-157.11 185.75,-152.78 187.53,-159.77 181.76,-164.1"/>
</a>
</g>
<text text-anchor="middle" x="219.5" y="-172.5" font-family="Helvetica,sans-Serif" font-size="10.00" fill="grey"> ~softwareService</text>
</g>
<!-- Node3 -->
<g id="Node000003" class="node">
<title>Node3</title>
<g id="a_Node000003"><a xlink:href="interfacefr_1_1softsf_1_1sudokufx_1_1repository_1_1_software_repository.html" target="_top" xlink:title=" ">
<polygon fill="white" stroke="none" points="132.5,-482 0,-482 0,-406 132.5,-406 132.5,-482"/>
<text text-anchor="start" x="4" y="-468.5" font-family="Helvetica,sans-Serif" font-size="10.00">fr.softsf.sudokufx.repository.</text>
<text text-anchor="start" x="23.12" y="-456.5" font-family="Helvetica,sans-Serif" font-size="10.00">SoftwareRepository</text>
<text text-anchor="start" x="64.75" y="-440.5" font-family="Helvetica,sans-Serif" font-size="10.00"> </text>
<text text-anchor="start" x="9.56" y="-424.5" font-family="Helvetica,sans-Serif" font-size="10.00">+</text>
<text text-anchor="start" x="25.12" y="-424.5" font-family="Helvetica,sans-Serif" font-size="10.00">Optional&lt; Software</text>
<text text-anchor="start" x="25.12" y="-412.5" font-family="Helvetica,sans-Serif" font-size="10.00"> &gt; findFirstSoftware()</text>
<polygon fill="#666666" stroke="#666666" points="0,-452 0,-452 132.5,-452 132.5,-452 0,-452"/>
<polygon fill="#666666" stroke="#666666" points="0,-436 0,-436 132.5,-436 132.5,-436 0,-436"/>
<polygon fill="none" stroke="#666666" points="0,-406 0,-482 132.5,-482 132.5,-406 0,-406"/>
</a>
</g>
</g>
<!-- Node3&#45;&gt;Node2 -->
<g id="edge2_Node000002_Node000003" class="edge">
<title>Node3&#45;&gt;Node2</title>
<g id="a_edge2_Node000002_Node000003"><a xlink:title=" ">
<path fill="none" stroke="#63b8ff" d="M84.48,-406.11C91.88,-391.13 100.75,-373.18 109.54,-355.38"/>
<polygon fill="none" stroke="#63b8ff" points="109.58,-355.31 108.65,-348.15 114.9,-344.55 115.83,-351.7 109.58,-355.31"/>
</a>
</g>
<text text-anchor="middle" x="151.11" y="-364.5" font-family="Helvetica,sans-Serif" font-size="10.00" fill="grey"> &#45;softwareRepository</text>
</g>
<!-- Node4 -->
<g id="Node000004" class="node">
<title>Node4</title>
<g id="a_Node000004"><a xlink:title=" ">
<polygon fill="white" stroke="none" points="127.25,-597 5.25,-597 5.25,-533 127.25,-533 127.25,-597"/>
<text text-anchor="start" x="9.25" y="-583.5" font-family="Helvetica,sans-Serif" font-size="10.00">JpaRepository&lt; Software,</text>
<text text-anchor="start" x="49.75" y="-571.5" font-family="Helvetica,sans-Serif" font-size="10.00"> Long &gt;</text>
<text text-anchor="start" x="64.75" y="-555.5" font-family="Helvetica,sans-Serif" font-size="10.00"> </text>
<text text-anchor="start" x="64.75" y="-539.5" font-family="Helvetica,sans-Serif" font-size="10.00"> </text>
<polygon fill="#666666" stroke="#666666" points="5.25,-567 5.25,-567 127.25,-567 127.25,-567 5.25,-567"/>
<polygon fill="#666666" stroke="#666666" points="5.25,-551 5.25,-551 127.25,-551 127.25,-551 5.25,-551"/>
<polygon fill="none" stroke="#666666" points="5.25,-533 5.25,-597 127.25,-597 127.25,-533 5.25,-533"/>
</a>
</g>
</g>
<!-- Node4&#45;&gt;Node3 -->
<g id="edge3_Node000003_Node000004" class="edge">
<title>Node4&#45;&gt;Node3</title>
<g id="a_edge3_Node000003_Node000004"><a xlink:title=" ">
<path fill="none" stroke="#63b8ff" d="M66.25,-521.91C66.25,-508.79 66.25,-494.44 66.25,-481.72"/>
<polygon fill="none" stroke="#63b8ff" points="62.75,-521.53 66.25,-531.53 69.75,-521.53 62.75,-521.53"/>
</a>
</g>
</g>
<!-- Node5 -->
<g id="Node000005" class="node">
<title>Node5</title>
<g id="a_Node000005"><a xlink:href="interfacefr_1_1softsf_1_1sudokufx_1_1interfaces_1_1mapper_1_1_i_software_mapper.html" target="_top" xlink:title="This interface defines methods for mapping objects of type Software to objects of type SoftwareDto an...">
<polygon fill="white" stroke="none" points="319.5,-496 151,-496 151,-392 319.5,-392 319.5,-496"/>
<text text-anchor="start" x="155" y="-482.5" font-family="Helvetica,sans-Serif" font-size="10.00">fr.softsf.sudokufx.interfaces.mapper.</text>
<text text-anchor="start" x="198.12" y="-470.5" font-family="Helvetica,sans-Serif" font-size="10.00">ISoftwareMapper</text>
<text text-anchor="start" x="233.75" y="-454.5" font-family="Helvetica,sans-Serif" font-size="10.00"> </text>
<text text-anchor="start" x="161.12" y="-438.5" font-family="Helvetica,sans-Serif" font-size="10.00">+</text>
<text text-anchor="start" x="177.25" y="-438.5" font-family="Helvetica,sans-Serif" font-size="10.00">Software mapSoftwareDtoTo</text>
<text text-anchor="start" x="177.25" y="-426.5" font-family="Helvetica,sans-Serif" font-size="10.00">Software(SoftwareDto dto)</text>
<text text-anchor="start" x="161.12" y="-410.5" font-family="Helvetica,sans-Serif" font-size="10.00">+</text>
<text text-anchor="start" x="177.25" y="-410.5" font-family="Helvetica,sans-Serif" font-size="10.00">SoftwareDto mapSoftwareTo</text>
<text text-anchor="start" x="177.25" y="-398.5" font-family="Helvetica,sans-Serif" font-size="10.00">Dto(Software software)</text>
<polygon fill="#666666" stroke="#666666" points="151,-466 151,-466 319.5,-466 319.5,-466 151,-466"/>
<polygon fill="#666666" stroke="#666666" points="151,-450 151,-450 319.5,-450 319.5,-450 151,-450"/>
<polygon fill="none" stroke="#666666" points="151,-392 151,-496 319.5,-496 319.5,-392 151,-392"/>
</a>
</g>
</g>
<!-- Node5&#45;&gt;Node2 -->
<g id="edge4_Node000002_Node000005" class="edge">
<title>Node5&#45;&gt;Node2</title>
<g id="a_edge4_Node000002_Node000005"><a xlink:title=" ">
<path fill="none" stroke="#63b8ff" d="M213.44,-392.14C208.9,-382.08 204.04,-371.65 199.25,-362 198.13,-359.75 196.99,-357.47 195.82,-355.18"/>
<polygon fill="none" stroke="#63b8ff" points="195.78,-355.1 189.47,-351.61 190.26,-344.44 196.57,-347.93 195.78,-355.1"/>
</a>
</g>
<text text-anchor="middle" x="244.26" y="-364.5" font-family="Helvetica,sans-Serif" font-size="10.00" fill="grey"> &#45;iSoftwareMapper</text>
</g>
<!-- Node5&#45;&gt;Node5 -->
<g id="edge5_Node000005_Node000005" class="edge">
<title>Node5&#45;&gt;Node5</title>
<g id="a_edge5_Node000005_Node000005"><a xlink:title=" ">
<path fill="none" stroke="#63b8ff" d="M319.49,-455.58C330.33,-453.58 337.5,-449.71 337.5,-444 337.5,-440.87 335.36,-438.3 331.64,-436.29"/>
<polygon fill="none" stroke="#63b8ff" points="331.78,-436.33 324.85,-438.32 320.35,-432.69 327.28,-430.7 331.78,-436.33"/>
</a>
</g>
<text text-anchor="middle" x="367.5" y="-440.5" font-family="Helvetica,sans-Serif" font-size="10.00" fill="grey"> +INSTANCE</text>
</g>
<!-- Node6 -->
<g id="Node000006" class="node">
<title>Node6</title>
<g id="a_Node000006"><a xlink:title=" ">
<polygon fill="white" stroke="none" points="316.38,-298 246.12,-298 246.12,-246 316.38,-246 316.38,-298"/>
<text text-anchor="start" x="250.12" y="-284.5" font-family="Helvetica,sans-Serif" font-size="10.00">StringProperty</text>
<text text-anchor="start" x="279.75" y="-268.5" font-family="Helvetica,sans-Serif" font-size="10.00"> </text>
<text text-anchor="start" x="279.75" y="-252.5" font-family="Helvetica,sans-Serif" font-size="10.00"> </text>
<polygon fill="#666666" stroke="#666666" points="246.12,-280 246.12,-280 316.38,-280 316.38,-280 246.12,-280"/>
<polygon fill="#666666" stroke="#666666" points="246.12,-264 246.12,-264 316.38,-264 316.38,-264 246.12,-264"/>
<polygon fill="none" stroke="#666666" points="246.12,-246 246.12,-298 316.38,-298 316.38,-246 246.12,-246"/>
</a>
</g>
</g>
<!-- Node6&#45;&gt;Node1 -->
<g id="edge6_Node000001_Node000006" class="edge">
<title>Node6&#45;&gt;Node1</title>
<g id="a_edge6_Node000001_Node000006"><a xlink:title=" ">
<path fill="none" stroke="#63b8ff" d="M277.45,-246.08C273.91,-225.37 267.87,-195.31 259.25,-170 258.55,-167.94 257.81,-165.86 257.05,-163.77"/>
<polygon fill="none" stroke="#63b8ff" points="257.06,-163.8 251.16,-159.65 252.72,-152.61 258.62,-156.76 257.06,-163.8"/>
</a>
</g>
<text text-anchor="middle" x="289.28" y="-172.5" font-family="Helvetica,sans-Serif" font-size="10.00" fill="grey"> ~_welcome</text>
</g>
</g>
</svg>
