<?xml version="1.0" encoding="UTF-8" standalone="no"?>
<!DOCTYPE svg PUBLIC "-//W3C//DTD SVG 1.1//EN"
 "http://www.w3.org/Graphics/SVG/1.1/DTD/svg11.dtd">
<!-- Generated by graphviz version 12.2.0 (20241103.1931)
 -->
<!-- Title: fr.softsf.sudokufx.service.FxmlService Pages: 1 -->
<svg width="266pt" height="368pt"
 viewBox="0.00 0.00 266.03 368.00" xmlns="http://www.w3.org/2000/svg" xmlns:xlink="http://www.w3.org/1999/xlink">
<g id="graph0" class="graph" transform="scale(1 1) rotate(0) translate(4 364)">
<title>fr.softsf.sudokufx.service.FxmlService</title>
<!-- Node1 -->
<g id="Node000001" class="node">
<title>Node1</title>
<g id="a_Node000001"><a xlink:title="FxmlService is a Spring service that manages the loading of FXML files and updating the root of the J...">
<polygon fill="#999999" stroke="none" points="181.62,-120 42.12,-120 42.12,0 181.62,0 181.62,-120"/>
<text text-anchor="start" x="54.88" y="-106.5" font-family="Helvetica,sans-Serif" font-size="10.00">fr.softsf.sudokufx.service.</text>
<text text-anchor="start" x="84.5" y="-94.5" font-family="Helvetica,sans-Serif" font-size="10.00">FxmlService</text>
<text text-anchor="start" x="110.38" y="-78.5" font-family="Helvetica,sans-Serif" font-size="10.00"> </text>
<text text-anchor="start" x="46.12" y="-62.5" font-family="Helvetica,sans-Serif" font-size="10.00">+</text>
<text text-anchor="start" x="56.12" y="-62.5" font-family="Helvetica,sans-Serif" font-size="10.00">FxmlService(FXMLLoader</text>
<text text-anchor="start" x="56.12" y="-50.5" font-family="Helvetica,sans-Serif" font-size="10.00"> fxmlLoader)</text>
<text text-anchor="start" x="46.12" y="-34.5" font-family="Helvetica,sans-Serif" font-size="10.00">+</text>
<text text-anchor="start" x="56.12" y="-34.5" font-family="Helvetica,sans-Serif" font-size="10.00">void setRootByFXMLName</text>
<text text-anchor="start" x="56.12" y="-22.5" font-family="Helvetica,sans-Serif" font-size="10.00">(final String fxml)</text>
<text text-anchor="start" x="46.12" y="-6.5" font-family="Helvetica,sans-Serif" font-size="10.00">~</text>
<text text-anchor="start" x="56.12" y="-6.5" font-family="Helvetica,sans-Serif" font-size="10.00">public&lt; T &gt; T getController()</text>
<polygon fill="#666666" stroke="#666666" points="42.12,-90 42.12,-90 181.62,-90 181.62,-90 42.12,-90"/>
<polygon fill="#666666" stroke="#666666" points="42.12,-74 42.12,-74 181.62,-74 181.62,-74 42.12,-74"/>
<polygon fill="none" stroke="#666666" points="42.12,0 42.12,-120 181.62,-120 181.62,0 42.12,0"/>
</a>
</g>
</g>
<!-- Node2 -->
<g id="Node000002" class="node">
<title>Node2</title>
<g id="a_Node000002"><a xlink:title=" ">
<polygon fill="white" stroke="none" points="35.75,-360 0,-360 0,-308 35.75,-308 35.75,-360"/>
<text text-anchor="start" x="4" y="-346.5" font-family="Helvetica,sans-Serif" font-size="10.00">Scene</text>
<text text-anchor="start" x="16.38" y="-330.5" font-family="Helvetica,sans-Serif" font-size="10.00"> </text>
<text text-anchor="start" x="16.38" y="-314.5" font-family="Helvetica,sans-Serif" font-size="10.00"> </text>
<polygon fill="#666666" stroke="#666666" points="0,-342 0,-342 35.75,-342 35.75,-342 0,-342"/>
<polygon fill="#666666" stroke="#666666" points="0,-326 0,-326 35.75,-326 35.75,-326 0,-326"/>
<polygon fill="none" stroke="#666666" points="0,-308 0,-360 35.75,-360 35.75,-308 0,-308"/>
</a>
</g>
</g>
<!-- Node2&#45;&gt;Node1 -->
<g id="edge1_Node000001_Node000002" class="edge">
<title>Node2&#45;&gt;Node1</title>
<g id="a_edge1_Node000001_Node000002"><a xlink:title=" ">
<path fill="none" stroke="#63b8ff" d="M10.92,-308.19C2.93,-274.97 -6.87,-214.79 11.62,-168 16.98,-154.45 24.95,-141.61 34.1,-129.84"/>
<polygon fill="none" stroke="#63b8ff" points="34.2,-129.73 34.93,-122.56 41.84,-120.48 41.1,-127.65 34.2,-129.73"/>
</a>
</g>
<text text-anchor="middle" x="27.75" y="-210.5" font-family="Helvetica,sans-Serif" font-size="10.00" fill="grey"> &#45;scene</text>
</g>
<!-- Node4 -->
<g id="Node000004" class="node">
<title>Node4</title>
<g id="a_Node000004"><a xlink:href="classfr_1_1softsf_1_1sudokufx_1_1utils_1_1_dynamic_font_size.html" target="_top" xlink:title="Manages dynamic font sizing based on the dimensions of a JavaFX Scene.">
<polygon fill="white" stroke="none" points="171.12,-260 52.62,-260 52.62,-168 171.12,-168 171.12,-260"/>
<text text-anchor="start" x="61.62" y="-246.5" font-family="Helvetica,sans-Serif" font-size="10.00">fr.softsf.sudokufx.utils.</text>
<text text-anchor="start" x="72.88" y="-234.5" font-family="Helvetica,sans-Serif" font-size="10.00">DynamicFontSize</text>
<text text-anchor="start" x="58.12" y="-218.5" font-family="Helvetica,sans-Serif" font-size="10.00">&#45;</text>
<text text-anchor="start" x="66.62" y="-218.5" font-family="Helvetica,sans-Serif" font-size="10.00">double currentFontSize</text>
<text text-anchor="start" x="56.62" y="-202.5" font-family="Helvetica,sans-Serif" font-size="10.00">+</text>
<text text-anchor="start" x="66.62" y="-202.5" font-family="Helvetica,sans-Serif" font-size="10.00">DynamicFontSize(final</text>
<text text-anchor="start" x="66.62" y="-190.5" font-family="Helvetica,sans-Serif" font-size="10.00"> Scene theScene)</text>
<text text-anchor="start" x="56.62" y="-174.5" font-family="Helvetica,sans-Serif" font-size="10.00">+</text>
<text text-anchor="start" x="66.62" y="-174.5" font-family="Helvetica,sans-Serif" font-size="10.00">void updateFontSize()</text>
<polygon fill="#666666" stroke="#666666" points="52.62,-230 52.62,-230 171.12,-230 171.12,-230 52.62,-230"/>
<polygon fill="#666666" stroke="#666666" points="52.62,-214 52.62,-214 64.62,-214 64.62,-214 52.62,-214"/>
<polygon fill="#666666" stroke="#666666" points="64.62,-214 64.62,-214 171.12,-214 171.12,-214 64.62,-214"/>
<polygon fill="none" stroke="#666666" points="52.62,-168 52.62,-260 171.12,-260 171.12,-168 52.62,-168"/>
</a>
</g>
</g>
<!-- Node2&#45;&gt;Node4 -->
<g id="edge4_Node000004_Node000002" class="edge">
<title>Node2&#45;&gt;Node4</title>
<g id="a_edge4_Node000004_Node000002"><a xlink:title=" ">
<path fill="none" stroke="#63b8ff" d="M35.56,-310.81C44.89,-299.09 56.79,-284.15 68.4,-269.57"/>
<polygon fill="none" stroke="#63b8ff" points="68.32,-269.67 68.93,-262.48 75.8,-260.28 75.19,-267.47 68.32,-269.67"/>
</a>
</g>
<text text-anchor="middle" x="75.37" y="-280.5" font-family="Helvetica,sans-Serif" font-size="10.00" fill="grey"> &#45;scene</text>
</g>
<!-- Node3 -->
<g id="Node000003" class="node">
<title>Node3</title>
<g id="a_Node000003"><a xlink:title=" ">
<polygon fill="white" stroke="none" points="252.62,-240 189.12,-240 189.12,-188 252.62,-188 252.62,-240"/>
<text text-anchor="start" x="193.12" y="-226.5" font-family="Helvetica,sans-Serif" font-size="10.00">FXMLLoader</text>
<text text-anchor="start" x="219.38" y="-210.5" font-family="Helvetica,sans-Serif" font-size="10.00"> </text>
<text text-anchor="start" x="219.38" y="-194.5" font-family="Helvetica,sans-Serif" font-size="10.00"> </text>
<polygon fill="#666666" stroke="#666666" points="189.12,-222 189.12,-222 252.62,-222 252.62,-222 189.12,-222"/>
<polygon fill="#666666" stroke="#666666" points="189.12,-206 189.12,-206 252.62,-206 252.62,-206 189.12,-206"/>
<polygon fill="none" stroke="#666666" points="189.12,-188 189.12,-240 252.62,-240 252.62,-188 189.12,-188"/>
</a>
</g>
</g>
<!-- Node3&#45;&gt;Node1 -->
<g id="edge2_Node000001_Node000003" class="edge">
<title>Node3&#45;&gt;Node1</title>
<g id="a_edge2_Node000001_Node000003"><a xlink:title=" ">
<path fill="none" stroke="#63b8ff" d="M216.81,-188.26C213.46,-172.91 207.64,-153.26 197.88,-138 195.35,-134.05 192.57,-130.19 189.6,-126.42"/>
<polygon fill="none" stroke="#63b8ff" points="189.69,-126.52 182.76,-124.53 181.93,-117.36 188.86,-119.36 189.69,-126.52"/>
</a>
</g>
<text text-anchor="middle" x="231.03" y="-140.5" font-family="Helvetica,sans-Serif" font-size="10.00" fill="grey"> &#45;fxmlLoader</text>
</g>
<!-- Node4&#45;&gt;Node1 -->
<g id="edge3_Node000001_Node000004" class="edge">
<title>Node4&#45;&gt;Node1</title>
<g id="a_edge3_Node000001_Node000004"><a xlink:title=" ">
<path fill="none" stroke="#63b8ff" d="M111.88,-168.22C111.88,-157.09 111.88,-144.89 111.88,-132.82"/>
<polygon fill="none" stroke="#63b8ff" points="111.88,-132.74 107.88,-126.74 111.88,-120.74 115.88,-126.74 111.88,-132.74"/>
</a>
</g>
<text text-anchor="middle" x="152.75" y="-140.5" font-family="Helvetica,sans-Serif" font-size="10.00" fill="grey"> &#45;dynamicFontSize</text>
</g>
</g>
</svg>
