<?xml version="1.0" encoding="UTF-8" standalone="no"?>
<!DOCTYPE svg PUBLIC "-//W3C//DTD SVG 1.1//EN"
 "http://www.w3.org/Graphics/SVG/1.1/DTD/svg11.dtd">
<!-- Generated by graphviz version 12.2.0 (20241103.1931)
 -->
<!-- Title: fr.softsf.sudofx2024.view.components.ToasterVBox Pages: 1 -->
<svg width="185pt" height="532pt"
 viewBox="0.00 0.00 184.75 532.00" xmlns="http://www.w3.org/2000/svg" xmlns:xlink="http://www.w3.org/1999/xlink">
<g id="graph0" class="graph" transform="scale(1 1) rotate(0) translate(4 528)">
<title>fr.softsf.sudofx2024.view.components.ToasterVBox</title>
<!-- Node1 -->
<g id="Node000001" class="node">
<title>Node1</title>
<g id="a_Node000001"><a xlink:title="A custom VBox component for displaying toast notifications.">
<polygon fill="#999999" stroke="none" points="176.75,-436 0,-436 0,0 176.75,0 176.75,-436"/>
<text text-anchor="start" x="4" y="-422.5" font-family="Helvetica,sans-Serif" font-size="10.00">fr.softsf.sudofx2024.view.components.</text>
<text text-anchor="start" x="60.25" y="-410.5" font-family="Helvetica,sans-Serif" font-size="10.00">ToasterVBox</text>
<text text-anchor="start" x="86.88" y="-394.5" font-family="Helvetica,sans-Serif" font-size="10.00"> </text>
<text text-anchor="start" x="5.25" y="-378.5" font-family="Helvetica,sans-Serif" font-size="10.00">+</text>
<text text-anchor="start" x="16.5" y="-378.5" font-family="Helvetica,sans-Serif" font-size="10.00">ToasterVBox()</text>
<text text-anchor="start" x="5.25" y="-362.5" font-family="Helvetica,sans-Serif" font-size="10.00">+</text>
<text text-anchor="start" x="16.5" y="-362.5" font-family="Helvetica,sans-Serif" font-size="10.00">void addToast(final</text>
<text text-anchor="start" x="16.5" y="-350.5" font-family="Helvetica,sans-Serif" font-size="10.00"> String text, final</text>
<text text-anchor="start" x="16.5" y="-338.5" font-family="Helvetica,sans-Serif" font-size="10.00"> MyEnums.ToastLevels</text>
<text text-anchor="start" x="16.5" y="-326.5" font-family="Helvetica,sans-Serif" font-size="10.00"> toastLevel)</text>
<text text-anchor="start" x="5.25" y="-310.5" font-family="Helvetica,sans-Serif" font-size="10.00">+</text>
<text text-anchor="start" x="16.5" y="-310.5" font-family="Helvetica,sans-Serif" font-size="10.00">void addToastWithDuration</text>
<text text-anchor="start" x="16.5" y="-298.5" font-family="Helvetica,sans-Serif" font-size="10.00">(final String text, final</text>
<text text-anchor="start" x="16.5" y="-286.5" font-family="Helvetica,sans-Serif" font-size="10.00"> MyEnums.ToastLevels toastLevel,</text>
<text text-anchor="start" x="16.5" y="-274.5" font-family="Helvetica,sans-Serif" font-size="10.00"> final double duration)</text>
<text text-anchor="start" x="6.75" y="-258.5" font-family="Helvetica,sans-Serif" font-size="10.00">&#45;</text>
<text text-anchor="start" x="16.5" y="-258.5" font-family="Helvetica,sans-Serif" font-size="10.00">void copyToClipboard</text>
<text text-anchor="start" x="16.5" y="-246.5" font-family="Helvetica,sans-Serif" font-size="10.00">(final Button button)</text>
<text text-anchor="start" x="6.75" y="-230.5" font-family="Helvetica,sans-Serif" font-size="10.00">&#45;</text>
<text text-anchor="start" x="16.5" y="-230.5" font-family="Helvetica,sans-Serif" font-size="10.00">String getToastInfo</text>
<text text-anchor="start" x="16.5" y="-218.5" font-family="Helvetica,sans-Serif" font-size="10.00">(MyEnums.ToastLevels</text>
<text text-anchor="start" x="16.5" y="-206.5" font-family="Helvetica,sans-Serif" font-size="10.00"> toastLevel)</text>
<text text-anchor="start" x="6.75" y="-190.5" font-family="Helvetica,sans-Serif" font-size="10.00">&#45;</text>
<text text-anchor="start" x="16.5" y="-190.5" font-family="Helvetica,sans-Serif" font-size="10.00">void removeToast(final</text>
<text text-anchor="start" x="16.5" y="-178.5" font-family="Helvetica,sans-Serif" font-size="10.00"> Button button)</text>
<text text-anchor="start" x="6.75" y="-162.5" font-family="Helvetica,sans-Serif" font-size="10.00">&#45;</text>
<text text-anchor="start" x="16.5" y="-162.5" font-family="Helvetica,sans-Serif" font-size="10.00">void setAccessibility</text>
<text text-anchor="start" x="16.5" y="-150.5" font-family="Helvetica,sans-Serif" font-size="10.00">(final Button toast,</text>
<text text-anchor="start" x="16.5" y="-138.5" font-family="Helvetica,sans-Serif" font-size="10.00"> final MyEnums.ToastLevels</text>
<text text-anchor="start" x="16.5" y="-126.5" font-family="Helvetica,sans-Serif" font-size="10.00"> toastLevel, final String text)</text>
<text text-anchor="start" x="6.75" y="-110.5" font-family="Helvetica,sans-Serif" font-size="10.00">&#45;</text>
<text text-anchor="start" x="16.5" y="-110.5" font-family="Helvetica,sans-Serif" font-size="10.00">void setToastStyle</text>
<text text-anchor="start" x="16.5" y="-98.5" font-family="Helvetica,sans-Serif" font-size="10.00">(final Button toast,</text>
<text text-anchor="start" x="16.5" y="-86.5" font-family="Helvetica,sans-Serif" font-size="10.00"> final MyEnums.ToastLevels</text>
<text text-anchor="start" x="16.5" y="-74.5" font-family="Helvetica,sans-Serif" font-size="10.00"> toastLevel)</text>
<text text-anchor="start" x="6.75" y="-58.5" font-family="Helvetica,sans-Serif" font-size="10.00">&#45;</text>
<text text-anchor="start" x="16.5" y="-58.5" font-family="Helvetica,sans-Serif" font-size="10.00">void temporizeToast</text>
<text text-anchor="start" x="16.5" y="-46.5" font-family="Helvetica,sans-Serif" font-size="10.00">(final Button toast,</text>
<text text-anchor="start" x="16.5" y="-34.5" font-family="Helvetica,sans-Serif" font-size="10.00"> final double duration)</text>
<text text-anchor="start" x="6.75" y="-18.5" font-family="Helvetica,sans-Serif" font-size="10.00">&#45;</text>
<text text-anchor="start" x="16.5" y="-18.5" font-family="Helvetica,sans-Serif" font-size="10.00">void toastActions(final</text>
<text text-anchor="start" x="16.5" y="-6.5" font-family="Helvetica,sans-Serif" font-size="10.00"> ActionEvent event)</text>
<polygon fill="#666666" stroke="#666666" points="0,-406 0,-406 176.75,-406 176.75,-406 0,-406"/>
<polygon fill="#666666" stroke="#666666" points="0,-390 0,-390 176.75,-390 176.75,-390 0,-390"/>
<polygon fill="none" stroke="#666666" points="0,0 0,-436 176.75,-436 176.75,0 0,0"/>
</a>
</g>
</g>
<!-- Node2 -->
<g id="Node000002" class="node">
<title>Node2</title>
<g id="a_Node000002"><a xlink:title=" ">
<polygon fill="white" stroke="none" points="104.38,-524 72.38,-524 72.38,-472 104.38,-472 104.38,-524"/>
<text text-anchor="start" x="76.38" y="-510.5" font-family="Helvetica,sans-Serif" font-size="10.00">VBox</text>
<text text-anchor="start" x="86.88" y="-494.5" font-family="Helvetica,sans-Serif" font-size="10.00"> </text>
<text text-anchor="start" x="86.88" y="-478.5" font-family="Helvetica,sans-Serif" font-size="10.00"> </text>
<polygon fill="#666666" stroke="#666666" points="72.38,-506 72.38,-506 104.38,-506 104.38,-506 72.38,-506"/>
<polygon fill="#666666" stroke="#666666" points="72.38,-490 72.38,-490 104.38,-490 104.38,-490 72.38,-490"/>
<polygon fill="none" stroke="#666666" points="72.38,-472 72.38,-524 104.38,-524 104.38,-472 72.38,-472"/>
</a>
</g>
</g>
<!-- Node2&#45;&gt;Node1 -->
<g id="edge1_Node000001_Node000002" class="edge">
<title>Node2&#45;&gt;Node1</title>
<g id="a_edge1_Node000001_Node000002"><a xlink:title=" ">
<path fill="none" stroke="#63b8ff" d="M88.38,-460.93C88.38,-453.39 88.38,-444.94 88.38,-435.83"/>
<polygon fill="none" stroke="#63b8ff" points="84.88,-460.82 88.38,-470.82 91.88,-460.82 84.88,-460.82"/>
</a>
</g>
</g>
</g>
</svg>
