<?xml version="1.0" encoding="UTF-8" standalone="no"?>
<!DOCTYPE svg PUBLIC "-//W3C//DTD SVG 1.1//EN"
 "http://www.w3.org/Graphics/SVG/1.1/DTD/svg11.dtd">
<!-- Generated by graphviz version 12.2.0 (20241103.1931)
 -->
<!-- Title: fr.softsf.sudokufx.SudoMain.getPauseTransition Pages: 1 -->
<svg width="583pt" height="140pt"
 viewBox="0.00 0.00 583.25 140.00" xmlns="http://www.w3.org/2000/svg" xmlns:xlink="http://www.w3.org/1999/xlink">
<g id="graph0" class="graph" transform="scale(1 1) rotate(0) translate(4 136)">
<title>fr.softsf.sudokufx.SudoMain.getPauseTransition</title>
<!-- Node1 -->
<g id="Node000001" class="node">
<title>Node1</title>
<g id="a_Node000001"><a xlink:title="Creates a PauseTransition to delay loading of the next view.">
<polygon fill="#999999" stroke="#666666" points="155.5,-82 0,-82 0,-50 155.5,-50 155.5,-82"/>
<text text-anchor="start" x="8" y="-68.5" font-family="Helvetica,sans-Serif" font-size="10.00">fr.softsf.sudokufx.SudoMain.get</text>
<text text-anchor="middle" x="77.75" y="-56.5" font-family="Helvetica,sans-Serif" font-size="10.00">PauseTransition</text>
</a>
</g>
</g>
<!-- Node2 -->
<g id="Node000002" class="node">
<title>Node2</title>
<g id="a_Node000002"><a xlink:href="classfr_1_1softsf_1_1sudokufx_1_1service_1_1_fxml_service.html#a341c0d4daa25339aec7c3371c47a176f" target="_top" xlink:title="Retrieves the controller associated with the loaded FXML file.">
<polygon fill="white" stroke="#666666" points="347.75,-132 217.75,-132 217.75,-100 347.75,-100 347.75,-132"/>
<text text-anchor="start" x="225.75" y="-118.5" font-family="Helvetica,sans-Serif" font-size="10.00">fr.softsf.sudokufx.service.</text>
<text text-anchor="middle" x="282.75" y="-106.5" font-family="Helvetica,sans-Serif" font-size="10.00">FxmlService.getController</text>
</a>
</g>
</g>
<!-- Node1&#45;&gt;Node2 -->
<g id="edge1_Node000001_Node000002" class="edge">
<title>Node1&#45;&gt;Node2</title>
<g id="a_edge1_Node000001_Node000002"><a xlink:title=" ">
<path fill="none" stroke="#63b8ff" d="M145.5,-82.44C165,-87.24 186.45,-92.53 206.44,-97.45"/>
<polygon fill="#63b8ff" stroke="#63b8ff" points="205.36,-100.79 215.91,-99.78 207.03,-93.99 205.36,-100.79"/>
</a>
</g>
</g>
<!-- Node3 -->
<g id="Node000003" class="node">
<title>Node3</title>
<g id="a_Node000003"><a xlink:href="interfacefr_1_1softsf_1_1sudokufx_1_1_sudo_main_1_1_i_primary_stage_view.html#a58ceeab55c5f349cf79c8541ecad1000" target="_top" xlink:title=" ">
<polygon fill="white" stroke="#666666" points="374,-82 191.5,-82 191.5,-50 374,-50 374,-82"/>
<text text-anchor="start" x="199.5" y="-68.5" font-family="Helvetica,sans-Serif" font-size="10.00">fr.softsf.sudokufx.SudoMain.</text>
<text text-anchor="middle" x="282.75" y="-56.5" font-family="Helvetica,sans-Serif" font-size="10.00">IPrimaryStageView.openingMainStage</text>
</a>
</g>
</g>
<!-- Node1&#45;&gt;Node3 -->
<g id="edge2_Node000001_Node000003" class="edge">
<title>Node1&#45;&gt;Node3</title>
<g id="a_edge2_Node000001_Node000003"><a xlink:title=" ">
<path fill="none" stroke="#63b8ff" d="M155.79,-66C163.64,-66 171.7,-66 179.76,-66"/>
<polygon fill="#63b8ff" stroke="#63b8ff" points="179.63,-69.5 189.63,-66 179.63,-62.5 179.63,-69.5"/>
</a>
</g>
</g>
<!-- Node4 -->
<g id="Node000004" class="node">
<title>Node4</title>
<g id="a_Node000004"><a xlink:href="classfr_1_1softsf_1_1sudokufx_1_1service_1_1_fxml_service.html#a6f673386a7e51168e928301644ef3bbc" target="_top" xlink:title="Sets the root of the scene based on the given FXML file name, and adapt the font size dynamically.">
<polygon fill="white" stroke="#666666" points="369.12,-32 196.38,-32 196.38,0 369.12,0 369.12,-32"/>
<text text-anchor="start" x="204.38" y="-18.5" font-family="Helvetica,sans-Serif" font-size="10.00">fr.softsf.sudokufx.service.</text>
<text text-anchor="middle" x="282.75" y="-6.5" font-family="Helvetica,sans-Serif" font-size="10.00">FxmlService.setRootByFXMLName</text>
</a>
</g>
</g>
<!-- Node1&#45;&gt;Node4 -->
<g id="edge3_Node000001_Node000004" class="edge">
<title>Node1&#45;&gt;Node4</title>
<g id="a_edge3_Node000001_Node000004"><a xlink:title=" ">
<path fill="none" stroke="#63b8ff" d="M145.5,-49.56C164.14,-44.97 184.57,-39.94 203.8,-35.2"/>
<polygon fill="#63b8ff" stroke="#63b8ff" points="204.62,-38.6 213.49,-32.81 202.94,-31.81 204.62,-38.6"/>
</a>
</g>
</g>
<!-- Node5 -->
<g id="Node000005" class="node">
<title>Node5</title>
<g id="a_Node000005"><a xlink:href="classfr_1_1softsf_1_1sudokufx_1_1utils_1_1_dynamic_font_size.html#acc10f950b0d6b555ba72cbac31bd9900" target="_top" xlink:title="Updates the font size based on the current Scene dimensions.">
<polygon fill="white" stroke="#666666" points="575.25,-32 410,-32 410,0 575.25,0 575.25,-32"/>
<text text-anchor="start" x="418" y="-18.5" font-family="Helvetica,sans-Serif" font-size="10.00">fr.softsf.sudokufx.utils.</text>
<text text-anchor="middle" x="492.62" y="-6.5" font-family="Helvetica,sans-Serif" font-size="10.00">DynamicFontSize.updateFontSize</text>
</a>
</g>
</g>
<!-- Node4&#45;&gt;Node5 -->
<g id="edge4_Node000004_Node000005" class="edge">
<title>Node4&#45;&gt;Node5</title>
<g id="a_edge4_Node000004_Node000005"><a xlink:title=" ">
<path fill="none" stroke="#63b8ff" d="M369.5,-16C379.07,-16 388.84,-16 398.5,-16"/>
<polygon fill="#63b8ff" stroke="#63b8ff" points="398.24,-19.5 408.24,-16 398.24,-12.5 398.24,-19.5"/>
</a>
</g>
</g>
</g>
</svg>
