<?xml version="1.0" encoding="UTF-8" standalone="no"?>
<!DOCTYPE svg PUBLIC "-//W3C//DTD SVG 1.1//EN"
 "http://www.w3.org/Graphics/SVG/1.1/DTD/svg11.dtd">
<!-- Generated by graphviz version 12.2.0 (20241103.1931)
 -->
<!-- Title: fr.softsf.sudokufx.view.CrashScreenView.initialize Pages: 1 -->
<!--zoomable 264 -->

<svg id="main" version="1.1" xmlns="http://www.w3.org/2000/svg" xmlns:xlink="http://www.w3.org/1999/xlink" xml:space="preserve" onload="init(evt)">

<style type="text/css"><![CDATA[
.node, .edge {opacity: 0.7;}
.node.selected, .edge.selected {opacity: 1;}
.edge:hover path { stroke: red; }
.edge:hover polygon { stroke: red; fill: red; }
]]></style>

<defs>
  <circle id="rim" cx="0" cy="0" r="7"/>
  <circle id="rim2" cx="0" cy="0" r="3.5"/>
  <g id="zoomPlus">
    <use xlink:href="#rim" fill="#404040"><set attributeName="fill" to="#808080" begin="zoomplus.mouseover" end="zoomplus.mouseout"/></use>
    <path d="M-4,0h8M0,-4v8" fill="none" stroke="white" stroke-width="1.5" pointer-events="none"/>
  </g>
  <g id="zoomMin">
    <use xlink:href="#rim" fill="#404040"><set attributeName="fill" to="#808080" begin="zoomminus.mouseover" end="zoomminus.mouseout"/></use>
    <path d="M-4,0h8" fill="none" stroke="white" stroke-width="1.5" pointer-events="none"/>
  </g>
  <g id="arrowUp" transform="translate(30 24)">
    <use xlink:href="#rim"/>
    <path pointer-events="none" fill="none" stroke="white" stroke-width="1.5" d="M0,-3.0v7 M-2.5,-0.5L0,-3.0L2.5,-0.5"/>
  </g>
  <g id="arrowRight" transform="rotate(90) translate(36 -43)">
    <use xlink:href="#rim"/>
    <path pointer-events="none" fill="none" stroke="white" stroke-width="1.5" d="M0,-3.0v7 M-2.5,-0.5L0,-3.0L2.5,-0.5"/>
  </g>
  <g id="arrowDown" transform="rotate(180) translate(-30 -48)">
    <use xlink:href="#rim"/>
    <path pointer-events="none" fill="none" stroke="white" stroke-width="1.5" d="M0,-3.0v7 M-2.5,-0.5L0,-3.0L2.5,-0.5"/>
  </g>
  <g id="arrowLeft" transform="rotate(270) translate(-36 17)">
    <use xlink:href="#rim"/>
    <path pointer-events="none" fill="none" stroke="white" stroke-width="1.5" d="M0,-3.0v7 M-2.5,-0.5L0,-3.0L2.5,-0.5"/>
  </g>
  <g id="resetDef">
    <use xlink:href="#rim2" fill="#404040"><set attributeName="fill" to="#808080" begin="reset.mouseover" end="reset.mouseout"/></use>
  </g>
</defs>
<script type="application/ecmascript">
var viewWidth = 550;
var viewHeight = 264;
var sectionId = 'dynsection-4';
</script>
<script type="application/ecmascript" xlink:href="svg.min.js"/>
<svg id="graph" class="graph">
<g id="viewport">
<title>fr.softsf.sudokufx.view.CrashScreenView.initialize</title>
<!-- Node1 -->
<g id="Node000001" class="node">
<title>Node1</title>
<g id="a_Node000001"><a xlink:title="Initializes the crash screen components.">
<polygon fill="#999999" stroke="#666666" points="132.25,-144 0,-144 0,-112 132.25,-112 132.25,-144"/>
<text text-anchor="start" x="8" y="-130.5" font-family="Helvetica,sans-Serif" font-size="10.00">fr.softsf.sudokufx.view.</text>
<text text-anchor="middle" x="66.12" y="-118.5" font-family="Helvetica,sans-Serif" font-size="10.00">CrashScreenView.initialize</text>
</a>
</g>
</g>
<!-- Node2 -->
<g id="Node000002" class="node">
<title>Node2</title>
<g id="a_Node000002"><a xlink:href="classfr_1_1softsf_1_1sudokufx_1_1utils_1_1_j_v_m_application_properties.html#a3c1aafe7e06f8e614ae7a2c249f364a6" target="_top" xlink:title="Retrieves the current application name from system properties.">
<polygon fill="white" stroke="#666666" points="356.75,-256 168.25,-256 168.25,-224 356.75,-224 356.75,-256"/>
<text text-anchor="start" x="176.25" y="-242.5" font-family="Helvetica,sans-Serif" font-size="10.00">fr.softsf.sudokufx.utils.</text>
<text text-anchor="middle" x="262.5" y="-230.5" font-family="Helvetica,sans-Serif" font-size="10.00">JVMApplicationProperties.getAppName</text>
</a>
</g>
</g>
<!-- Node1&#45;&gt;Node2 -->
<g id="edge1_Node000001_Node000002" class="edge">
<title>Node1&#45;&gt;Node2</title>
<g id="a_edge1_Node000001_Node000002"><a xlink:title=" ">
<path fill="none" stroke="#63b8ff" d="M81.59,-144.28C99.88,-163.89 133.24,-196.49 168.25,-215 171.1,-216.51 174.04,-217.93 177.06,-219.26"/>
<polygon fill="#63b8ff" stroke="#63b8ff" points="175.53,-222.42 186.11,-222.94 178.17,-215.94 175.53,-222.42"/>
</a>
</g>
</g>
<!-- Node4 -->
<g id="Node000004" class="node">
<title>Node4</title>
<g id="a_Node000004"><a xlink:href="classfr_1_1softsf_1_1sudokufx_1_1utils_1_1_j_v_m_application_properties.html#afd79a2aeab3fe69dbb2ace62b5eddf83" target="_top" xlink:title="Retrieves the current application version from system properties.">
<polygon fill="white" stroke="#666666" points="343.62,-206 181.38,-206 181.38,-162 343.62,-162 343.62,-206"/>
<text text-anchor="start" x="189.38" y="-192.5" font-family="Helvetica,sans-Serif" font-size="10.00">fr.softsf.sudokufx.utils.</text>
<text text-anchor="start" x="189.38" y="-180.5" font-family="Helvetica,sans-Serif" font-size="10.00">JVMApplicationProperties.getApp</text>
<text text-anchor="middle" x="262.5" y="-168.5" font-family="Helvetica,sans-Serif" font-size="10.00">Version</text>
</a>
</g>
</g>
<!-- Node1&#45;&gt;Node4 -->
<g id="edge3_Node000001_Node000004" class="edge">
<title>Node1&#45;&gt;Node4</title>
<g id="a_edge3_Node000001_Node000004"><a xlink:title=" ">
<path fill="none" stroke="#63b8ff" d="M124.39,-144.5C139.64,-148.89 156.48,-153.74 172.98,-158.5"/>
<polygon fill="#63b8ff" stroke="#63b8ff" points="171.72,-161.78 182.3,-161.18 173.66,-155.05 171.72,-161.78"/>
</a>
</g>
</g>
<!-- Node5 -->
<g id="Node000005" class="node">
<title>Node5</title>
<g id="a_Node000005"><a xlink:href="interfacefr_1_1softsf_1_1sudokufx_1_1interfaces_1_1_i_os_folder_factory.html#ad2fbd0fa5081f7b023b0bbf262847cfb" target="_top" xlink:title="Retrieves the path to the OS&#45;specific data folder.">
<polygon fill="white" stroke="#666666" points="356.75,-144 168.25,-144 168.25,-112 356.75,-112 356.75,-144"/>
<text text-anchor="start" x="176.25" y="-130.5" font-family="Helvetica,sans-Serif" font-size="10.00">fr.softsf.sudokufx.interfaces.</text>
<text text-anchor="middle" x="262.5" y="-118.5" font-family="Helvetica,sans-Serif" font-size="10.00">IOsFolderFactory.getOsDataFolderPath</text>
</a>
</g>
</g>
<!-- Node1&#45;&gt;Node5 -->
<g id="edge5_Node000001_Node000005" class="edge">
<title>Node1&#45;&gt;Node5</title>
<g id="a_edge5_Node000001_Node000005"><a xlink:title=" ">
<path fill="none" stroke="#63b8ff" d="M132.66,-128C140.38,-128 148.39,-128 156.48,-128"/>
<polygon fill="#63b8ff" stroke="#63b8ff" points="156.42,-131.5 166.42,-128 156.42,-124.5 156.42,-131.5"/>
</a>
</g>
</g>
<!-- Node6 -->
<g id="Node000006" class="node">
<title>Node6</title>
<g id="a_Node000006"><a xlink:href="classfr_1_1softsf_1_1sudokufx_1_1utils_1_1_i18n.html#a7095fa285a498c3f20bf33488a69d22c" target="_top" xlink:title="Retrieves the localized string value for a given key.">
<polygon fill="white" stroke="#666666" points="320.75,-94 204.25,-94 204.25,-62 320.75,-62 320.75,-94"/>
<text text-anchor="start" x="212.25" y="-80.5" font-family="Helvetica,sans-Serif" font-size="10.00">fr.softsf.sudokufx.utils.</text>
<text text-anchor="middle" x="262.5" y="-68.5" font-family="Helvetica,sans-Serif" font-size="10.00">I18n.getValue</text>
</a>
</g>
</g>
<!-- Node1&#45;&gt;Node6 -->
<g id="edge6_Node000001_Node000006" class="edge">
<title>Node1&#45;&gt;Node6</title>
<g id="a_edge6_Node000001_Node000006"><a xlink:title=" ">
<path fill="none" stroke="#63b8ff" d="M131.04,-111.56C150.83,-106.47 172.72,-100.84 192.82,-95.67"/>
<polygon fill="#63b8ff" stroke="#63b8ff" points="193.5,-99.11 202.31,-93.22 191.76,-92.33 193.5,-99.11"/>
</a>
</g>
</g>
<!-- Node7 -->
<g id="Node000007" class="node">
<title>Node7</title>
<g id="a_Node000007"><a xlink:href="classfr_1_1softsf_1_1sudokufx_1_1view_1_1_crash_screen_view.html#a5a135e72f1765ad2dc90d69994f7b657" target="_top" xlink:title="Sets up the SVG logo for the crash screen.">
<polygon fill="white" stroke="#666666" points="356,-44 169,-44 169,0 356,0 356,-44"/>
<text text-anchor="start" x="177" y="-30.5" font-family="Helvetica,sans-Serif" font-size="10.00">fr.softsf.sudokufx.view.</text>
<text text-anchor="start" x="177" y="-18.5" font-family="Helvetica,sans-Serif" font-size="10.00">CrashScreenView.setCrashscreenvbox</text>
<text text-anchor="middle" x="262.5" y="-6.5" font-family="Helvetica,sans-Serif" font-size="10.00">TophboxLogosudosvg</text>
</a>
</g>
</g>
<!-- Node1&#45;&gt;Node7 -->
<g id="edge7_Node000001_Node000007" class="edge">
<title>Node1&#45;&gt;Node7</title>
<g id="a_edge7_Node000001_Node000007"><a xlink:title=" ">
<path fill="none" stroke="#63b8ff" d="M85.31,-111.7C104.68,-95.03 136.83,-69.34 168.25,-53 170.92,-51.61 173.67,-50.26 176.48,-48.96"/>
<polygon fill="#63b8ff" stroke="#63b8ff" points="177.66,-52.26 185.42,-45.05 174.86,-45.85 177.66,-52.26"/>
</a>
</g>
</g>
<!-- Node3 -->
<g id="Node000003" class="node">
<title>Node3</title>
<g id="a_Node000003"><a xlink:href="classfr_1_1softsf_1_1sudokufx_1_1utils_1_1_my_regex.html#a981702b076ee54a416d676b6f7a182fc" target="_top" xlink:title="Validates a given text against a specified regular expression.">
<polygon fill="white" stroke="#666666" points="541.5,-228 392.75,-228 392.75,-196 541.5,-196 541.5,-228"/>
<text text-anchor="start" x="400.75" y="-214.5" font-family="Helvetica,sans-Serif" font-size="10.00">fr.softsf.sudokufx.utils.</text>
<text text-anchor="middle" x="467.12" y="-202.5" font-family="Helvetica,sans-Serif" font-size="10.00">MyRegex.isValidatedByRegex</text>
</a>
</g>
</g>
<!-- Node2&#45;&gt;Node3 -->
<g id="edge2_Node000002_Node000003" class="edge">
<title>Node2&#45;&gt;Node3</title>
<g id="a_edge2_Node000002_Node000003"><a xlink:title=" ">
<path fill="none" stroke="#63b8ff" d="M357.1,-227.07C365.14,-225.96 373.24,-224.84 381.2,-223.74"/>
<polygon fill="#63b8ff" stroke="#63b8ff" points="381.41,-227.24 390.84,-222.4 380.45,-220.31 381.41,-227.24"/>
</a>
</g>
</g>
<!-- Node4&#45;&gt;Node3 -->
<g id="edge4_Node000004_Node000003" class="edge">
<title>Node4&#45;&gt;Node3</title>
<g id="a_edge4_Node000004_Node000003"><a xlink:title=" ">
<path fill="none" stroke="#63b8ff" d="M343.87,-195.11C356.14,-196.8 368.83,-198.56 381.19,-200.26"/>
<polygon fill="#63b8ff" stroke="#63b8ff" points="380.55,-203.71 390.93,-201.61 381.5,-196.77 380.55,-203.71"/>
</a>
</g>
</g>
<!-- Node8 -->
<g id="Node000008" class="node">
<title>Node8</title>
<g id="a_Node000008"><a xlink:href="classfr_1_1softsf_1_1sudokufx_1_1view_1_1_crash_screen_view.html#aef8eba37009f641a92196a638a62d82c" target="_top" xlink:title="Creates an SVG shape and applies it to a Region.">
<polygon fill="white" stroke="#666666" points="539.62,-38 394.62,-38 394.62,-6 539.62,-6 539.62,-38"/>
<text text-anchor="start" x="402.62" y="-24.5" font-family="Helvetica,sans-Serif" font-size="10.00">fr.softsf.sudokufx.view.</text>
<text text-anchor="middle" x="467.12" y="-12.5" font-family="Helvetica,sans-Serif" font-size="10.00">CrashScreenView.createSVG</text>
</a>
</g>
</g>
<!-- Node7&#45;&gt;Node8 -->
<g id="edge8_Node000007_Node000008" class="edge">
<title>Node7&#45;&gt;Node8</title>
<g id="a_edge8_Node000007_Node000008"><a xlink:title=" ">
<path fill="none" stroke="#63b8ff" d="M356.21,-22C365.13,-22 374.13,-22 382.94,-22"/>
<polygon fill="#63b8ff" stroke="#63b8ff" points="382.88,-25.5 392.88,-22 382.88,-18.5 382.88,-25.5"/>
</a>
</g>
</g>
</g>
</svg>

<g id="navigator" transform="translate(0 0)" fill="#404254">
  <rect fill="#f2f5e9" fill-opacity="0.5" stroke="#606060" stroke-width=".5" x="0" y="0" width="60" height="60"/>
  <use id="zoomplus" xlink:href="#zoomPlus" x="17" y="9" onmousedown="handleZoom(evt,'in')"/>
  <use id="zoomminus" xlink:href="#zoomMin" x="42" y="9" onmousedown="handleZoom(evt,'out')"/>
  <use id="reset" xlink:href="#resetDef" x="30" y="36" onmousedown="handleReset()"/>
   <use id="arrowup" xlink:href="#arrowUp" x="0" y="0" onmousedown="handlePan(0,-1)"/>
  <use id="arrowright" xlink:href="#arrowRight" x="0" y="0" onmousedown="handlePan(1,0)"/>
  <use id="arrowdown" xlink:href="#arrowDown" x="0" y="0" onmousedown="handlePan(0,1)"/>
  <use id="arrowleft" xlink:href="#arrowLeft" x="0" y="0" onmousedown="handlePan(-1,0)"/>
</g>
<svg viewBox="0 0 15 15" width="100%" height="30px" preserveAspectRatio="xMaxYMin meet">
 <g id="arrow_out" transform="scale(0.3 0.3)">
  <a xlink:href="classfr_1_1softsf_1_1sudokufx_1_1view_1_1_crash_screen_view_a3112d5c4618e967b16dce35a5a584eca_cgraph_org.svg" target="_base">
   <rect id="button" ry="5" rx="5" y="6" x="6" height="38" width="38"
        fill="#f2f5e9" fill-opacity="0.5" stroke="#606060" stroke-width="1.0"/>
   <path id="arrow"
     d="M 11.500037,31.436501 C 11.940474,20.09759 22.043105,11.32322 32.158766,21.979434 L 37.068811,17.246167 C 37.068811,17.246167 37.088388,32 37.088388,32 L 22.160133,31.978069 C 22.160133,31.978069 26.997745,27.140456 26.997745,27.140456 C 18.528582,18.264221 13.291696,25.230495 11.500037,31.436501 z"
     style="fill:#404040;"/>
  </a>
 </g>
</svg>

<style type='text/css'>
<![CDATA[
[data-mouse-over-selected='false'] { opacity: 0.7; }
[data-mouse-over-selected='true']  { opacity: 1.0; }
]]>
</style>
<script type="application/ecmascript"><![CDATA[
document.addEventListener('DOMContentLoaded', (event) => {
  highlightEdges();
  highlightAdjacentNodes();
});
]]></script>
</svg>
