<?xml version="1.0" encoding="UTF-8" standalone="no"?>
<!DOCTYPE svg PUBLIC "-//W3C//DTD SVG 1.1//EN"
 "http://www.w3.org/Graphics/SVG/1.1/DTD/svg11.dtd">
<!-- Generated by graphviz version 12.2.0 (20241103.1931)
 -->
<!-- Title: fr.softsf.sudokufx.viewmodel.FullMenuViewModel.updateSoftware Pages: 1 -->
<svg width="664pt" height="252pt"
 viewBox="0.00 0.00 663.50 252.00" xmlns="http://www.w3.org/2000/svg" xmlns:xlink="http://www.w3.org/1999/xlink">
<g id="graph0" class="graph" transform="scale(1 1) rotate(0) translate(4 248)">
<title>fr.softsf.sudokufx.viewmodel.FullMenuViewModel.updateSoftware</title>
<!-- Node1 -->
<g id="Node000001" class="node">
<title>Node1</title>
<g id="a_Node000001"><a xlink:title=" ">
<polygon fill="#999999" stroke="#666666" points="175,-160 0,-160 0,-128 175,-128 175,-160"/>
<text text-anchor="start" x="8" y="-146.5" font-family="Helvetica,sans-Serif" font-size="10.00">fr.softsf.sudokufx.viewmodel.</text>
<text text-anchor="middle" x="87.5" y="-134.5" font-family="Helvetica,sans-Serif" font-size="10.00">FullMenuViewModel.updateSoftware</text>
</a>
</g>
</g>
<!-- Node2 -->
<g id="Node000002" class="node">
<title>Node2</title>
<g id="a_Node000002"><a xlink:href="interfacefr_1_1softsf_1_1sudokufx_1_1interfaces_1_1_i_grid_master.html#a7ae916d7f64607637b7bf5bf33fd0eb3" target="_top" xlink:title="Crée les grilles de Sudoku (résolue et à résoudre) en fonction du niveau de difficulté.">
<polygon fill="white" stroke="#666666" points="377.75,-244 236.5,-244 236.5,-212 377.75,-212 377.75,-244"/>
<text text-anchor="start" x="244.5" y="-230.5" font-family="Helvetica,sans-Serif" font-size="10.00">fr.softsf.sudokufx.interfaces.</text>
<text text-anchor="middle" x="307.12" y="-218.5" font-family="Helvetica,sans-Serif" font-size="10.00">IGridMaster.creerLesGrilles</text>
</a>
</g>
</g>
<!-- Node1&#45;&gt;Node2 -->
<g id="edge1_Node000001_Node000002" class="edge">
<title>Node1&#45;&gt;Node2</title>
<g id="a_edge1_Node000001_Node000002"><a xlink:title=" ">
<path fill="none" stroke="#63b8ff" d="M118.5,-160.46C142.88,-173.33 178.44,-191.01 211,-203 215.95,-204.82 221.08,-206.57 226.29,-208.23"/>
<polygon fill="#63b8ff" stroke="#63b8ff" points="225.02,-211.5 235.61,-211.08 227.07,-204.81 225.02,-211.5"/>
</a>
</g>
</g>
<!-- Node3 -->
<g id="Node000003" class="node">
<title>Node3</title>
<g id="a_Node000003"><a xlink:href="classfr_1_1softsf_1_1sudokufx_1_1service_1_1_version_service.html#a5cc42147532c0bb27ac6cc0da4a27ba0" target="_top" xlink:title="Checks if the current version is the latest published package version on GitHub.">
<polygon fill="white" stroke="#666666" points="403.25,-194 211,-194 211,-150 403.25,-150 403.25,-194"/>
<text text-anchor="start" x="219" y="-180.5" font-family="Helvetica,sans-Serif" font-size="10.00">fr.softsf.sudokufx.service.</text>
<text text-anchor="start" x="219" y="-168.5" font-family="Helvetica,sans-Serif" font-size="10.00">VersionService.isLatestGitHubPublished</text>
<text text-anchor="middle" x="307.12" y="-156.5" font-family="Helvetica,sans-Serif" font-size="10.00">PackageVersion</text>
</a>
</g>
</g>
<!-- Node1&#45;&gt;Node3 -->
<g id="edge2_Node000001_Node000003" class="edge">
<title>Node1&#45;&gt;Node3</title>
<g id="a_edge2_Node000001_Node000003"><a xlink:title=" ">
<path fill="none" stroke="#63b8ff" d="M175.45,-155.19C183.34,-156.2 191.38,-157.24 199.41,-158.27"/>
<polygon fill="#63b8ff" stroke="#63b8ff" points="198.87,-161.73 209.24,-159.53 199.76,-154.79 198.87,-161.73"/>
</a>
</g>
</g>
<!-- Node6 -->
<g id="Node000006" class="node">
<title>Node6</title>
<g id="a_Node000006"><a xlink:href="classfr_1_1softsf_1_1sudokufx_1_1viewmodel_1_1_full_menu_view_model.html#a99e8ff186f421e303199bb273f082c40" target="_top" xlink:title=" ">
<polygon fill="white" stroke="#666666" points="387.5,-132 226.75,-132 226.75,-100 387.5,-100 387.5,-132"/>
<text text-anchor="start" x="234.75" y="-118.5" font-family="Helvetica,sans-Serif" font-size="10.00">fr.softsf.sudokufx.viewmodel.</text>
<text text-anchor="middle" x="307.12" y="-106.5" font-family="Helvetica,sans-Serif" font-size="10.00">FullMenuViewModel.setWelcome</text>
</a>
</g>
</g>
<!-- Node1&#45;&gt;Node6 -->
<g id="edge5_Node000001_Node000006" class="edge">
<title>Node1&#45;&gt;Node6</title>
<g id="a_edge5_Node000001_Node000006"><a xlink:title=" ">
<path fill="none" stroke="#63b8ff" d="M175.45,-132.81C188.45,-131.14 201.89,-129.41 214.98,-127.73"/>
<polygon fill="#63b8ff" stroke="#63b8ff" points="215.39,-131.2 224.87,-126.45 214.5,-124.26 215.39,-131.2"/>
</a>
</g>
</g>
<!-- Node8 -->
<g id="Node000008" class="node">
<title>Node8</title>
<g id="a_Node000008"><a xlink:href="classfr_1_1softsf_1_1sudokufx_1_1service_1_1_software_service.html#a74d93b9d4144d91d01a4b02369265f0f" target="_top" xlink:title=" ">
<polygon fill="white" stroke="#666666" points="386.75,-82 227.5,-82 227.5,-50 386.75,-50 386.75,-82"/>
<text text-anchor="start" x="235.5" y="-68.5" font-family="Helvetica,sans-Serif" font-size="10.00">fr.softsf.sudokufx.service.</text>
<text text-anchor="middle" x="307.12" y="-56.5" font-family="Helvetica,sans-Serif" font-size="10.00">SoftwareService.updateSoftware</text>
</a>
</g>
</g>
<!-- Node1&#45;&gt;Node8 -->
<g id="edge7_Node000001_Node000008" class="edge">
<title>Node1&#45;&gt;Node8</title>
<g id="a_edge7_Node000001_Node000008"><a xlink:title=" ">
<path fill="none" stroke="#63b8ff" d="M122.54,-127.62C146.82,-116.35 180.45,-101.56 211,-91 216.36,-89.15 221.93,-87.36 227.57,-85.64"/>
<polygon fill="#63b8ff" stroke="#63b8ff" points="228.39,-89.04 236.99,-82.86 226.41,-82.33 228.39,-89.04"/>
</a>
</g>
</g>
<!-- Node4 -->
<g id="Node000004" class="node">
<title>Node4</title>
<g id="a_Node000004"><a xlink:href="classfr_1_1softsf_1_1sudokufx_1_1service_1_1_version_service.html#af166c049683464c03d118142b986ab71" target="_top" xlink:title="Compares two version strings.">
<polygon fill="white" stroke="#666666" points="627,-244 467.75,-244 467.75,-212 627,-212 627,-244"/>
<text text-anchor="start" x="475.75" y="-230.5" font-family="Helvetica,sans-Serif" font-size="10.00">fr.softsf.sudokufx.service.</text>
<text text-anchor="middle" x="547.38" y="-218.5" font-family="Helvetica,sans-Serif" font-size="10.00">VersionService.compareVersions</text>
</a>
</g>
</g>
<!-- Node3&#45;&gt;Node4 -->
<g id="edge3_Node000003_Node000004" class="edge">
<title>Node3&#45;&gt;Node4</title>
<g id="a_edge3_Node000003_Node000004"><a xlink:title=" ">
<path fill="none" stroke="#63b8ff" d="M403.01,-194.47C415.21,-197.34 427.52,-200.25 439.25,-203 447.46,-204.93 456.02,-206.93 464.57,-208.94"/>
<polygon fill="#63b8ff" stroke="#63b8ff" points="463.77,-212.34 474.31,-211.21 465.37,-205.53 463.77,-212.34"/>
</a>
</g>
</g>
<!-- Node5 -->
<g id="Node000005" class="node">
<title>Node5</title>
<g id="a_Node000005"><a xlink:href="classfr_1_1softsf_1_1sudokufx_1_1service_1_1_version_service.html#a8922905373c21cbcfec9775ece45f9e5" target="_top" xlink:title="Extracts the version number from a string.">
<polygon fill="white" stroke="#666666" points="634.5,-194 460.25,-194 460.25,-150 634.5,-150 634.5,-194"/>
<text text-anchor="start" x="468.25" y="-180.5" font-family="Helvetica,sans-Serif" font-size="10.00">fr.softsf.sudokufx.service.</text>
<text text-anchor="start" x="468.25" y="-168.5" font-family="Helvetica,sans-Serif" font-size="10.00">VersionService.getFormattedVersion</text>
<text text-anchor="middle" x="547.38" y="-156.5" font-family="Helvetica,sans-Serif" font-size="10.00">NumberOnly</text>
</a>
</g>
</g>
<!-- Node3&#45;&gt;Node5 -->
<g id="edge4_Node000003_Node000005" class="edge">
<title>Node3&#45;&gt;Node5</title>
<g id="a_edge4_Node000003_Node000005"><a xlink:title=" ">
<path fill="none" stroke="#63b8ff" d="M403.66,-172C418.51,-172 433.88,-172 448.78,-172"/>
<polygon fill="#63b8ff" stroke="#63b8ff" points="448.55,-175.5 458.55,-172 448.55,-168.5 448.55,-175.5"/>
</a>
</g>
</g>
<!-- Node7 -->
<g id="Node000007" class="node">
<title>Node7</title>
<g id="a_Node000007"><a xlink:href="classfr_1_1softsf_1_1sudokufx_1_1viewmodel_1_1_full_menu_view_model.html#a574eda9c01df428c38524cc5acf49fbf" target="_top" xlink:title=" ">
<polygon fill="white" stroke="#666666" points="638.62,-132 456.12,-132 456.12,-100 638.62,-100 638.62,-132"/>
<text text-anchor="start" x="464.12" y="-118.5" font-family="Helvetica,sans-Serif" font-size="10.00">fr.softsf.sudokufx.viewmodel.</text>
<text text-anchor="middle" x="547.38" y="-106.5" font-family="Helvetica,sans-Serif" font-size="10.00">FullMenuViewModel.welcomeProperty</text>
</a>
</g>
</g>
<!-- Node6&#45;&gt;Node7 -->
<g id="edge6_Node000006_Node000007" class="edge">
<title>Node6&#45;&gt;Node7</title>
<g id="a_edge6_Node000006_Node000007"><a xlink:title=" ">
<path fill="none" stroke="#63b8ff" d="M387.79,-116C405.91,-116 425.41,-116 444.31,-116"/>
<polygon fill="#63b8ff" stroke="#63b8ff" points="444.16,-119.5 454.16,-116 444.16,-112.5 444.16,-119.5"/>
</a>
</g>
</g>
<!-- Node9 -->
<g id="Node000009" class="node">
<title>Node9</title>
<g id="a_Node000009"><a xlink:href="interfacefr_1_1softsf_1_1sudokufx_1_1interfaces_1_1mapper_1_1_i_software_mapper.html#a85adc191251bde9870609d4b2cb23ee6" target="_top" xlink:title="Maps a SoftwareDto object to a Software object.">
<polygon fill="white" stroke="#666666" points="655.5,-82 439.25,-82 439.25,-50 655.5,-50 655.5,-82"/>
<text text-anchor="start" x="447.25" y="-68.5" font-family="Helvetica,sans-Serif" font-size="10.00">fr.softsf.sudokufx.interfaces.mapper.</text>
<text text-anchor="middle" x="547.38" y="-56.5" font-family="Helvetica,sans-Serif" font-size="10.00">ISoftwareMapper.mapSoftwareDtoToSoftware</text>
</a>
</g>
</g>
<!-- Node8&#45;&gt;Node9 -->
<g id="edge8_Node000008_Node000009" class="edge">
<title>Node8&#45;&gt;Node9</title>
<g id="a_edge8_Node000008_Node000009"><a xlink:title=" ">
<path fill="none" stroke="#63b8ff" d="M387.13,-66C400.27,-66 414.16,-66 428.03,-66"/>
<polygon fill="#63b8ff" stroke="#63b8ff" points="427.62,-69.5 437.62,-66 427.62,-62.5 427.62,-69.5"/>
</a>
</g>
</g>
<!-- Node10 -->
<g id="Node000010" class="node">
<title>Node10</title>
<g id="a_Node000010"><a xlink:href="interfacefr_1_1softsf_1_1sudokufx_1_1interfaces_1_1mapper_1_1_i_software_mapper.html#addc8516cb5cc6171c663e132d5fdddd6" target="_top" xlink:title="Maps a Software object to a SoftwareDto object.">
<polygon fill="white" stroke="#666666" points="636,-32 458.75,-32 458.75,0 636,0 636,-32"/>
<text text-anchor="start" x="466.75" y="-18.5" font-family="Helvetica,sans-Serif" font-size="10.00">fr.softsf.sudokufx.interfaces.mapper.</text>
<text text-anchor="middle" x="547.38" y="-6.5" font-family="Helvetica,sans-Serif" font-size="10.00">ISoftwareMapper.mapSoftwareToDto</text>
</a>
</g>
</g>
<!-- Node8&#45;&gt;Node10 -->
<g id="edge9_Node000008_Node000010" class="edge">
<title>Node8&#45;&gt;Node10</title>
<g id="a_edge9_Node000008_Node000010"><a xlink:title=" ">
<path fill="none" stroke="#63b8ff" d="M386.47,-49.56C408.96,-44.84 433.66,-39.65 456.78,-34.8"/>
<polygon fill="#63b8ff" stroke="#63b8ff" points="457.44,-38.24 466.5,-32.76 456,-31.39 457.44,-38.24"/>
</a>
</g>
</g>
</g>
</svg>
