<?xml version="1.0" encoding="UTF-8" standalone="no"?>
<!DOCTYPE svg PUBLIC "-//W3C//DTD SVG 1.1//EN"
 "http://www.w3.org/Graphics/SVG/1.1/DTD/svg11.dtd">
<!-- Generated by graphviz version 12.2.0 (20241103.1931)
 -->
<!-- Title: fr.softsf.sudokufx.unit.utils.database.keystore.SecretKeyEncryptionServiceAESGCMUTest Pages: 1 -->
<svg width="315pt" height="476pt"
 viewBox="0.00 0.00 314.88 476.00" xmlns="http://www.w3.org/2000/svg" xmlns:xlink="http://www.w3.org/1999/xlink">
<g id="graph0" class="graph" transform="scale(1 1) rotate(0) translate(4 472)">
<title>fr.softsf.sudokufx.unit.utils.database.keystore.SecretKeyEncryptionServiceAESGCMUTest</title>
<!-- Node1 -->
<g id="Node000001" class="node">
<title>Node1</title>
<g id="a_Node000001"><a xlink:title=" ">
<polygon fill="#999999" stroke="none" points="249.88,-180 39.38,-180 39.38,0 249.88,0 249.88,-180"/>
<text text-anchor="start" x="43.38" y="-166.5" font-family="Helvetica,sans-Serif" font-size="10.00">fr.softsf.sudokufx.unit.utils.database.keystore.</text>
<text text-anchor="start" x="47.12" y="-154.5" font-family="Helvetica,sans-Serif" font-size="10.00">SecretKeyEncryptionServiceAESGCMUTest</text>
<text text-anchor="start" x="143.12" y="-138.5" font-family="Helvetica,sans-Serif" font-size="10.00"> </text>
<text text-anchor="start" x="61.69" y="-122.5" font-family="Helvetica,sans-Serif" font-size="10.00">~</text>
<text text-anchor="start" x="90" y="-122.5" font-family="Helvetica,sans-Serif" font-size="10.00">void decryptWithLessThan</text>
<text text-anchor="start" x="90" y="-110.5" font-family="Helvetica,sans-Serif" font-size="10.00">TwoBytesCypher_fail()</text>
<text text-anchor="start" x="61.69" y="-94.5" font-family="Helvetica,sans-Serif" font-size="10.00">~</text>
<text text-anchor="start" x="90" y="-94.5" font-family="Helvetica,sans-Serif" font-size="10.00">void encryptDecrypt</text>
<text text-anchor="start" x="90" y="-82.5" font-family="Helvetica,sans-Serif" font-size="10.00">_success()</text>
<text text-anchor="start" x="61.69" y="-66.5" font-family="Helvetica,sans-Serif" font-size="10.00">~</text>
<text text-anchor="start" x="90" y="-66.5" font-family="Helvetica,sans-Serif" font-size="10.00">void encryptWithNullSecret</text>
<text text-anchor="start" x="90" y="-54.5" font-family="Helvetica,sans-Serif" font-size="10.00">Key_fail()</text>
<text text-anchor="start" x="61.69" y="-38.5" font-family="Helvetica,sans-Serif" font-size="10.00">~</text>
<text text-anchor="start" x="90" y="-38.5" font-family="Helvetica,sans-Serif" font-size="10.00">void setup()</text>
<text text-anchor="start" x="61.69" y="-22.5" font-family="Helvetica,sans-Serif" font-size="10.00">~</text>
<text text-anchor="start" x="90" y="-22.5" font-family="Helvetica,sans-Serif" font-size="10.00">void tearDown()</text>
<text text-anchor="start" x="61.69" y="-6.5" font-family="Helvetica,sans-Serif" font-size="10.00">~</text>
<text text-anchor="start" x="90" y="-6.5" font-family="Helvetica,sans-Serif" font-size="10.00">static void setupAll()</text>
<polygon fill="#666666" stroke="#666666" points="39.38,-150 39.38,-150 249.88,-150 249.88,-150 39.38,-150"/>
<polygon fill="#666666" stroke="#666666" points="39.38,-134 39.38,-134 249.88,-134 249.88,-134 39.38,-134"/>
<polygon fill="none" stroke="#666666" points="39.38,0 39.38,-180 249.88,-180 249.88,0 39.38,0"/>
</a>
</g>
</g>
<!-- Node2 -->
<g id="Node000002" class="node">
<title>Node2</title>
<g id="a_Node000002"><a xlink:href="interfacefr_1_1softsf_1_1sudokufx_1_1interfaces_1_1_i_encryption_service.html" target="_top" xlink:title="Interface defining methods to encrypt and decrypt using AES&#45;GCM (Galois/Counter Mode) encryption.">
<polygon fill="white" stroke="none" points="133.25,-368 0,-368 0,-264 133.25,-264 133.25,-368"/>
<text text-anchor="start" x="4" y="-354.5" font-family="Helvetica,sans-Serif" font-size="10.00">fr.softsf.sudokufx.interfaces.</text>
<text text-anchor="start" x="25.38" y="-342.5" font-family="Helvetica,sans-Serif" font-size="10.00">IEncryptionService</text>
<text text-anchor="start" x="65.12" y="-326.5" font-family="Helvetica,sans-Serif" font-size="10.00"> </text>
<text text-anchor="start" x="10.5" y="-310.5" font-family="Helvetica,sans-Serif" font-size="10.00">+</text>
<text text-anchor="start" x="27" y="-310.5" font-family="Helvetica,sans-Serif" font-size="10.00">String decrypt(String</text>
<text text-anchor="start" x="27" y="-298.5" font-family="Helvetica,sans-Serif" font-size="10.00"> cypher)</text>
<text text-anchor="start" x="10.5" y="-282.5" font-family="Helvetica,sans-Serif" font-size="10.00">+</text>
<text text-anchor="start" x="27" y="-282.5" font-family="Helvetica,sans-Serif" font-size="10.00">String encrypt(String</text>
<text text-anchor="start" x="27" y="-270.5" font-family="Helvetica,sans-Serif" font-size="10.00"> original)</text>
<polygon fill="#666666" stroke="#666666" points="0,-338 0,-338 133.25,-338 133.25,-338 0,-338"/>
<polygon fill="#666666" stroke="#666666" points="0,-322 0,-322 133.25,-322 133.25,-322 0,-322"/>
<polygon fill="none" stroke="#666666" points="0,-264 0,-368 133.25,-368 133.25,-264 0,-264"/>
</a>
</g>
</g>
<!-- Node2&#45;&gt;Node1 -->
<g id="edge1_Node000001_Node000002" class="edge">
<title>Node2&#45;&gt;Node1</title>
<g id="a_edge1_Node000001_Node000002"><a xlink:title=" ">
<path fill="none" stroke="#63b8ff" d="M60.71,-264.09C59.94,-243.15 61.26,-218.94 68.12,-198 68.81,-195.91 69.55,-193.83 70.34,-191.75"/>
<polygon fill="none" stroke="#63b8ff" points="70.31,-191.83 69.01,-184.74 75.05,-180.81 76.36,-187.9 70.31,-191.83"/>
</a>
</g>
<text text-anchor="start" x="68.12" y="-236.5" font-family="Helvetica,sans-Serif" font-size="10.00" fill="grey"> &#45;iSecretKeyEncryptionService</text>
<text text-anchor="middle" x="134.88" y="-224.5" font-family="Helvetica,sans-Serif" font-size="10.00" fill="grey">AESGCM</text>
<text text-anchor="start" x="68.12" y="-212.5" font-family="Helvetica,sans-Serif" font-size="10.00" fill="grey">&#45;iSecretKeyEncryptionService</text>
<text text-anchor="middle" x="134.88" y="-200.5" font-family="Helvetica,sans-Serif" font-size="10.00" fill="grey">AESGCMNullSecretKey</text>
</g>
<!-- Node3 -->
<g id="Node000003" class="node">
<title>Node3</title>
<g id="a_Node000003"><a xlink:title=" ">
<polygon fill="white" stroke="none" points="296.25,-342 151,-342 151,-290 296.25,-290 296.25,-342"/>
<text text-anchor="start" x="155" y="-328.5" font-family="Helvetica,sans-Serif" font-size="10.00">ListAppender&lt; ILoggingEvent &gt;</text>
<text text-anchor="start" x="222.12" y="-312.5" font-family="Helvetica,sans-Serif" font-size="10.00"> </text>
<text text-anchor="start" x="222.12" y="-296.5" font-family="Helvetica,sans-Serif" font-size="10.00"> </text>
<polygon fill="#666666" stroke="#666666" points="151,-324 151,-324 296.25,-324 296.25,-324 151,-324"/>
<polygon fill="#666666" stroke="#666666" points="151,-308 151,-308 296.25,-308 296.25,-308 151,-308"/>
<polygon fill="none" stroke="#666666" points="151,-290 151,-342 296.25,-342 296.25,-290 151,-290"/>
</a>
</g>
</g>
<!-- Node3&#45;&gt;Node1 -->
<g id="edge2_Node000001_Node000003" class="edge">
<title>Node3&#45;&gt;Node1</title>
<g id="a_edge2_Node000001_Node000003"><a xlink:title=" ">
<path fill="none" stroke="#63b8ff" d="M221.18,-290.24C218.29,-266.16 212.44,-228.81 201.62,-198 200.89,-195.92 200.13,-193.83 199.33,-191.73"/>
<polygon fill="none" stroke="#63b8ff" points="199.3,-191.66 193.33,-187.61 194.78,-180.54 200.74,-184.59 199.3,-191.66"/>
</a>
</g>
<text text-anchor="middle" x="241.48" y="-218.5" font-family="Helvetica,sans-Serif" font-size="10.00" fill="grey"> &#45;logWatcher</text>
</g>
<!-- Node4 -->
<g id="Node000004" class="node">
<title>Node4</title>
<g id="a_Node000004"><a xlink:title=" ">
<polygon fill="white" stroke="none" points="256.12,-468 191.12,-468 191.12,-416 256.12,-416 256.12,-468"/>
<text text-anchor="start" x="195.12" y="-454.5" font-family="Helvetica,sans-Serif" font-size="10.00">ListAppender</text>
<text text-anchor="start" x="222.12" y="-438.5" font-family="Helvetica,sans-Serif" font-size="10.00"> </text>
<text text-anchor="start" x="222.12" y="-422.5" font-family="Helvetica,sans-Serif" font-size="10.00"> </text>
<polygon fill="#666666" stroke="#666666" points="191.12,-450 191.12,-450 256.12,-450 256.12,-450 191.12,-450"/>
<polygon fill="#666666" stroke="#666666" points="191.12,-434 191.12,-434 256.12,-434 256.12,-434 191.12,-434"/>
<polygon fill="none" stroke="#666666" points="191.12,-416 191.12,-468 256.12,-468 256.12,-416 191.12,-416"/>
</a>
</g>
</g>
<!-- Node4&#45;&gt;Node3 -->
<g id="edge3_Node000003_Node000004" class="edge">
<title>Node4&#45;&gt;Node3</title>
<g id="a_edge3_Node000003_Node000004"><a xlink:title=" ">
<path fill="none" stroke="orange" d="M223.62,-404.87C223.62,-384.59 223.62,-359.82 223.62,-341.75"/>
<polygon fill="orange" stroke="orange" points="220.13,-404.69 223.63,-414.69 227.13,-404.69 220.13,-404.69"/>
</a>
</g>
<text text-anchor="middle" x="265.25" y="-388.5" font-family="Helvetica,sans-Serif" font-size="10.00" fill="grey"> &lt; ILoggingEvent &gt;</text>
</g>
</g>
</svg>
