<?xml version="1.0" encoding="UTF-8" standalone="no"?>
<!DOCTYPE svg PUBLIC "-//W3C//DTD SVG 1.1//EN"
 "http://www.w3.org/Graphics/SVG/1.1/DTD/svg11.dtd">
<!-- Generated by graphviz version 12.2.0 (20241103.1931)
 -->
<!-- Title: fr.softsf.sudokufx.viewmodel.FullMenuViewModel.updateSoftware Pages: 1 -->
<svg width="836pt" height="265pt"
 viewBox="0.00 0.00 836.25 265.00" xmlns="http://www.w3.org/2000/svg" xmlns:xlink="http://www.w3.org/1999/xlink">
<g id="graph0" class="graph" transform="scale(1 1) rotate(0) translate(4 261)">
<title>fr.softsf.sudokufx.viewmodel.FullMenuViewModel.updateSoftware</title>
<!-- Node1 -->
<g id="Node000001" class="node">
<title>Node1</title>
<g id="a_Node000001"><a xlink:title=" ">
<polygon fill="#999999" stroke="#666666" points="175,-157 0,-157 0,-125 175,-125 175,-157"/>
<text text-anchor="start" x="8" y="-143.5" font-family="Helvetica,sans-Serif" font-size="10.00">fr.softsf.sudokufx.viewmodel.</text>
<text text-anchor="middle" x="87.5" y="-131.5" font-family="Helvetica,sans-Serif" font-size="10.00">FullMenuViewModel.updateSoftware</text>
</a>
</g>
</g>
<!-- Node2 -->
<g id="Node000002" class="node">
<title>Node2</title>
<g id="a_Node000002"><a xlink:href="classfr_1_1softsf_1_1sudokufx_1_1service_1_1_version_service.html#a5d1ec54faf65957f9b2dc35dd5a2bedb" target="_top" xlink:title="Checks the latest version of the software by querying the GitHub API for the repository&#39;s tags.">
<polygon fill="white" stroke="#666666" points="380.75,-232 211,-232 211,-200 380.75,-200 380.75,-232"/>
<text text-anchor="start" x="219" y="-218.5" font-family="Helvetica,sans-Serif" font-size="10.00">fr.softsf.sudokufx.service.</text>
<text text-anchor="middle" x="295.88" y="-206.5" font-family="Helvetica,sans-Serif" font-size="10.00">VersionService.checkLatestVersion</text>
</a>
</g>
</g>
<!-- Node1&#45;&gt;Node2 -->
<g id="edge1_Node000001_Node000002" class="edge">
<title>Node1&#45;&gt;Node2</title>
<g id="a_edge1_Node000001_Node000002"><a xlink:title=" ">
<path fill="none" stroke="#63b8ff" d="M125.94,-157.39C150,-167.65 182.08,-180.81 211,-191 215.94,-192.74 221.06,-194.46 226.24,-196.14"/>
<polygon fill="#63b8ff" stroke="#63b8ff" points="224.85,-199.37 235.44,-199.06 226.97,-192.7 224.85,-199.37"/>
</a>
</g>
</g>
<!-- Node6 -->
<g id="Node000006" class="node">
<title>Node6</title>
<g id="a_Node000006"><a xlink:href="interfacefr_1_1softsf_1_1sudokufx_1_1interfaces_1_1_i_grid_master.html#a7ae916d7f64607637b7bf5bf33fd0eb3" target="_top" xlink:title="Crée les grilles de Sudoku (résolue et à résoudre) en fonction du niveau de difficulté.">
<polygon fill="white" stroke="#666666" points="366.5,-182 225.25,-182 225.25,-150 366.5,-150 366.5,-182"/>
<text text-anchor="start" x="233.25" y="-168.5" font-family="Helvetica,sans-Serif" font-size="10.00">fr.softsf.sudokufx.interfaces.</text>
<text text-anchor="middle" x="295.88" y="-156.5" font-family="Helvetica,sans-Serif" font-size="10.00">IGridMaster.creerLesGrilles</text>
</a>
</g>
</g>
<!-- Node1&#45;&gt;Node6 -->
<g id="edge5_Node000001_Node000006" class="edge">
<title>Node1&#45;&gt;Node6</title>
<g id="a_edge5_Node000001_Node000006"><a xlink:title=" ">
<path fill="none" stroke="#63b8ff" d="M175.42,-151.53C188.07,-153.06 201.06,-154.64 213.59,-156.15"/>
<polygon fill="#63b8ff" stroke="#63b8ff" points="213.1,-159.62 223.45,-157.35 213.95,-152.67 213.1,-159.62"/>
</a>
</g>
</g>
<!-- Node7 -->
<g id="Node000007" class="node">
<title>Node7</title>
<g id="a_Node000007"><a xlink:href="classfr_1_1softsf_1_1sudokufx_1_1viewmodel_1_1_full_menu_view_model.html#a99e8ff186f421e303199bb273f082c40" target="_top" xlink:title=" ">
<polygon fill="white" stroke="#666666" points="376.25,-132 215.5,-132 215.5,-100 376.25,-100 376.25,-132"/>
<text text-anchor="start" x="223.5" y="-118.5" font-family="Helvetica,sans-Serif" font-size="10.00">fr.softsf.sudokufx.viewmodel.</text>
<text text-anchor="middle" x="295.88" y="-106.5" font-family="Helvetica,sans-Serif" font-size="10.00">FullMenuViewModel.setWelcome</text>
</a>
</g>
</g>
<!-- Node1&#45;&gt;Node7 -->
<g id="edge6_Node000001_Node000007" class="edge">
<title>Node1&#45;&gt;Node7</title>
<g id="a_edge6_Node000001_Node000007"><a xlink:title=" ">
<path fill="none" stroke="#63b8ff" d="M175.42,-130.47C184.92,-129.32 194.61,-128.15 204.16,-126.99"/>
<polygon fill="#63b8ff" stroke="#63b8ff" points="204.27,-130.5 213.78,-125.82 203.43,-123.55 204.27,-130.5"/>
</a>
</g>
</g>
<!-- Node9 -->
<g id="Node000009" class="node">
<title>Node9</title>
<g id="a_Node000009"><a xlink:href="classfr_1_1softsf_1_1sudokufx_1_1service_1_1_software_service.html#a74d93b9d4144d91d01a4b02369265f0f" target="_top" xlink:title=" ">
<polygon fill="white" stroke="#666666" points="375.5,-82 216.25,-82 216.25,-50 375.5,-50 375.5,-82"/>
<text text-anchor="start" x="224.25" y="-68.5" font-family="Helvetica,sans-Serif" font-size="10.00">fr.softsf.sudokufx.service.</text>
<text text-anchor="middle" x="295.88" y="-56.5" font-family="Helvetica,sans-Serif" font-size="10.00">SoftwareService.updateSoftware</text>
</a>
</g>
</g>
<!-- Node1&#45;&gt;Node9 -->
<g id="edge8_Node000001_Node000009" class="edge">
<title>Node1&#45;&gt;Node9</title>
<g id="a_edge8_Node000001_Node000009"><a xlink:title=" ">
<path fill="none" stroke="#63b8ff" d="M125.94,-124.61C150,-114.35 182.08,-101.19 211,-91 215.94,-89.26 221.06,-87.54 226.24,-85.86"/>
<polygon fill="#63b8ff" stroke="#63b8ff" points="226.97,-89.3 235.44,-82.94 224.85,-82.63 226.97,-89.3"/>
</a>
</g>
</g>
<!-- Node3 -->
<g id="Node000003" class="node">
<title>Node3</title>
<g id="a_Node000003"><a xlink:href="classfr_1_1softsf_1_1sudokufx_1_1service_1_1_version_service.html#ac909ce26310a3c5b01262ad5f3affcbe" target="_top" xlink:title="Parses the JSON response from the GitHub API to extract the latest published version.">
<polygon fill="white" stroke="#666666" points="601.12,-232 448.62,-232 448.62,-200 601.12,-200 601.12,-232"/>
<text text-anchor="start" x="456.62" y="-218.5" font-family="Helvetica,sans-Serif" font-size="10.00">fr.softsf.sudokufx.service.</text>
<text text-anchor="middle" x="524.88" y="-206.5" font-family="Helvetica,sans-Serif" font-size="10.00">VersionService.parseResponse</text>
</a>
</g>
</g>
<!-- Node2&#45;&gt;Node3 -->
<g id="edge2_Node000002_Node000003" class="edge">
<title>Node2&#45;&gt;Node3</title>
<g id="a_edge2_Node000002_Node000003"><a xlink:title=" ">
<path fill="none" stroke="#63b8ff" d="M381.08,-216C399.36,-216 418.74,-216 437.12,-216"/>
<polygon fill="#63b8ff" stroke="#63b8ff" points="436.91,-219.5 446.91,-216 436.91,-212.5 436.91,-219.5"/>
</a>
</g>
</g>
<!-- Node4 -->
<g id="Node000004" class="node">
<title>Node4</title>
<g id="a_Node000004"><a xlink:href="classfr_1_1softsf_1_1sudokufx_1_1service_1_1_version_service.html#af166c049683464c03d118142b986ab71" target="_top" xlink:title="Compares two version strings in the format MAJOR.MINOR.PATCH.">
<polygon fill="white" stroke="#666666" points="828.25,-257 669,-257 669,-225 828.25,-225 828.25,-257"/>
<text text-anchor="start" x="677" y="-243.5" font-family="Helvetica,sans-Serif" font-size="10.00">fr.softsf.sudokufx.service.</text>
<text text-anchor="middle" x="748.62" y="-231.5" font-family="Helvetica,sans-Serif" font-size="10.00">VersionService.compareVersions</text>
</a>
</g>
</g>
<!-- Node3&#45;&gt;Node4 -->
<g id="edge3_Node000003_Node000004" class="edge">
<title>Node3&#45;&gt;Node4</title>
<g id="a_edge3_Node000003_Node000004"><a xlink:title=" ">
<path fill="none" stroke="#63b8ff" d="M601.57,-224.53C619.54,-226.56 638.9,-228.74 657.45,-230.83"/>
<polygon fill="#63b8ff" stroke="#63b8ff" points="657.04,-234.31 667.37,-231.95 657.82,-227.35 657.04,-234.31"/>
</a>
</g>
</g>
<!-- Node5 -->
<g id="Node000005" class="node">
<title>Node5</title>
<g id="a_Node000005"><a xlink:href="classfr_1_1softsf_1_1sudokufx_1_1utils_1_1_my_regex.html#a981702b076ee54a416d676b6f7a182fc" target="_top" xlink:title="Validates the given text against the specified regular expression.">
<polygon fill="white" stroke="#666666" points="823,-207 674.25,-207 674.25,-175 823,-175 823,-207"/>
<text text-anchor="start" x="682.25" y="-193.5" font-family="Helvetica,sans-Serif" font-size="10.00">fr.softsf.sudokufx.utils.</text>
<text text-anchor="middle" x="748.62" y="-181.5" font-family="Helvetica,sans-Serif" font-size="10.00">MyRegex.isValidatedByRegex</text>
</a>
</g>
</g>
<!-- Node3&#45;&gt;Node5 -->
<g id="edge4_Node000003_Node000005" class="edge">
<title>Node3&#45;&gt;Node5</title>
<g id="a_edge4_Node000003_Node000005"><a xlink:title=" ">
<path fill="none" stroke="#63b8ff" d="M601.57,-207.47C621.17,-205.26 642.4,-202.86 662.45,-200.6"/>
<polygon fill="#63b8ff" stroke="#63b8ff" points="662.72,-204.09 672.27,-199.5 661.94,-197.14 662.72,-204.09"/>
</a>
</g>
</g>
<!-- Node8 -->
<g id="Node000008" class="node">
<title>Node8</title>
<g id="a_Node000008"><a xlink:href="classfr_1_1softsf_1_1sudokufx_1_1viewmodel_1_1_full_menu_view_model.html#a574eda9c01df428c38524cc5acf49fbf" target="_top" xlink:title=" ">
<polygon fill="white" stroke="#666666" points="616.12,-132 433.62,-132 433.62,-100 616.12,-100 616.12,-132"/>
<text text-anchor="start" x="441.62" y="-118.5" font-family="Helvetica,sans-Serif" font-size="10.00">fr.softsf.sudokufx.viewmodel.</text>
<text text-anchor="middle" x="524.88" y="-106.5" font-family="Helvetica,sans-Serif" font-size="10.00">FullMenuViewModel.welcomeProperty</text>
</a>
</g>
</g>
<!-- Node7&#45;&gt;Node8 -->
<g id="edge7_Node000007_Node000008" class="edge">
<title>Node7&#45;&gt;Node8</title>
<g id="a_edge7_Node000007_Node000008"><a xlink:title=" ">
<path fill="none" stroke="#63b8ff" d="M376.59,-116C391.39,-116 407.04,-116 422.39,-116"/>
<polygon fill="#63b8ff" stroke="#63b8ff" points="421.98,-119.5 431.98,-116 421.98,-112.5 421.98,-119.5"/>
</a>
</g>
</g>
<!-- Node10 -->
<g id="Node000010" class="node">
<title>Node10</title>
<g id="a_Node000010"><a xlink:href="interfacefr_1_1softsf_1_1sudokufx_1_1interfaces_1_1mapper_1_1_i_software_mapper.html#a85adc191251bde9870609d4b2cb23ee6" target="_top" xlink:title="Maps a SoftwareDto object to a Software object.">
<polygon fill="white" stroke="#666666" points="633,-82 416.75,-82 416.75,-50 633,-50 633,-82"/>
<text text-anchor="start" x="424.75" y="-68.5" font-family="Helvetica,sans-Serif" font-size="10.00">fr.softsf.sudokufx.interfaces.mapper.</text>
<text text-anchor="middle" x="524.88" y="-56.5" font-family="Helvetica,sans-Serif" font-size="10.00">ISoftwareMapper.mapSoftwareDtoToSoftware</text>
</a>
</g>
</g>
<!-- Node9&#45;&gt;Node10 -->
<g id="edge9_Node000009_Node000010" class="edge">
<title>Node9&#45;&gt;Node10</title>
<g id="a_edge9_Node000009_Node000010"><a xlink:title=" ">
<path fill="none" stroke="#63b8ff" d="M375.95,-66C385.33,-66 395.06,-66 404.84,-66"/>
<polygon fill="#63b8ff" stroke="#63b8ff" points="404.82,-69.5 414.82,-66 404.82,-62.5 404.82,-69.5"/>
</a>
</g>
</g>
<!-- Node11 -->
<g id="Node000011" class="node">
<title>Node11</title>
<g id="a_Node000011"><a xlink:href="interfacefr_1_1softsf_1_1sudokufx_1_1interfaces_1_1mapper_1_1_i_software_mapper.html#addc8516cb5cc6171c663e132d5fdddd6" target="_top" xlink:title="Maps a Software object to a SoftwareDto object.">
<polygon fill="white" stroke="#666666" points="613.5,-32 436.25,-32 436.25,0 613.5,0 613.5,-32"/>
<text text-anchor="start" x="444.25" y="-18.5" font-family="Helvetica,sans-Serif" font-size="10.00">fr.softsf.sudokufx.interfaces.mapper.</text>
<text text-anchor="middle" x="524.88" y="-6.5" font-family="Helvetica,sans-Serif" font-size="10.00">ISoftwareMapper.mapSoftwareToDto</text>
</a>
</g>
</g>
<!-- Node9&#45;&gt;Node11 -->
<g id="edge10_Node000009_Node000011" class="edge">
<title>Node9&#45;&gt;Node11</title>
<g id="a_edge10_Node000009_Node000011"><a xlink:title=" ">
<path fill="none" stroke="#63b8ff" d="M371.52,-49.56C392.85,-44.86 416.27,-39.7 438.21,-34.87"/>
<polygon fill="#63b8ff" stroke="#63b8ff" points="438.7,-38.35 447.71,-32.78 437.19,-31.51 438.7,-38.35"/>
</a>
</g>
</g>
</g>
</svg>
