<?xml version="1.0" encoding="UTF-8" standalone="no"?>
<!DOCTYPE svg PUBLIC "-//W3C//DTD SVG 1.1//EN"
 "http://www.w3.org/Graphics/SVG/1.1/DTD/svg11.dtd">
<!-- Generated by graphviz version 12.2.0 (20241103.1931)
 -->
<!-- Title: fr.softsf.sudofx2024.utils.database.keystore.ApplicationKeystore.credentials Pages: 1 -->
<!--zoomable 190 -->

<svg id="main" version="1.1" xmlns="http://www.w3.org/2000/svg" xmlns:xlink="http://www.w3.org/1999/xlink" xml:space="preserve" onload="init(evt)">

<style type="text/css"><![CDATA[
.node, .edge {opacity: 0.7;}
.node.selected, .edge.selected {opacity: 1;}
.edge:hover path { stroke: red; }
.edge:hover polygon { stroke: red; fill: red; }
]]></style>

<defs>
  <circle id="rim" cx="0" cy="0" r="7"/>
  <circle id="rim2" cx="0" cy="0" r="3.5"/>
  <g id="zoomPlus">
    <use xlink:href="#rim" fill="#404040"><set attributeName="fill" to="#808080" begin="zoomplus.mouseover" end="zoomplus.mouseout"/></use>
    <path d="M-4,0h8M0,-4v8" fill="none" stroke="white" stroke-width="1.5" pointer-events="none"/>
  </g>
  <g id="zoomMin">
    <use xlink:href="#rim" fill="#404040"><set attributeName="fill" to="#808080" begin="zoomminus.mouseover" end="zoomminus.mouseout"/></use>
    <path d="M-4,0h8" fill="none" stroke="white" stroke-width="1.5" pointer-events="none"/>
  </g>
  <g id="arrowUp" transform="translate(30 24)">
    <use xlink:href="#rim"/>
    <path pointer-events="none" fill="none" stroke="white" stroke-width="1.5" d="M0,-3.0v7 M-2.5,-0.5L0,-3.0L2.5,-0.5"/>
  </g>
  <g id="arrowRight" transform="rotate(90) translate(36 -43)">
    <use xlink:href="#rim"/>
    <path pointer-events="none" fill="none" stroke="white" stroke-width="1.5" d="M0,-3.0v7 M-2.5,-0.5L0,-3.0L2.5,-0.5"/>
  </g>
  <g id="arrowDown" transform="rotate(180) translate(-30 -48)">
    <use xlink:href="#rim"/>
    <path pointer-events="none" fill="none" stroke="white" stroke-width="1.5" d="M0,-3.0v7 M-2.5,-0.5L0,-3.0L2.5,-0.5"/>
  </g>
  <g id="arrowLeft" transform="rotate(270) translate(-36 17)">
    <use xlink:href="#rim"/>
    <path pointer-events="none" fill="none" stroke="white" stroke-width="1.5" d="M0,-3.0v7 M-2.5,-0.5L0,-3.0L2.5,-0.5"/>
  </g>
  <g id="resetDef">
    <use xlink:href="#rim2" fill="#404040"><set attributeName="fill" to="#808080" begin="reset.mouseover" end="reset.mouseout"/></use>
  </g>
</defs>
<script type="application/ecmascript">
var viewWidth = 971;
var viewHeight = 190;
var sectionId = 'dynsection-3';
</script>
<script type="application/ecmascript" xlink:href="svg.min.js"/>
<svg id="graph" class="graph">
<g id="viewport">
<title>fr.softsf.sudofx2024.utils.database.keystore.ApplicationKeystore.credentials</title>
<!-- Node1 -->
<g id="Node000001" class="node">
<title>Node1</title>
<g id="a_Node000001"><a xlink:title="Get or set credentials by alias.">
<polygon fill="#999999" stroke="#666666" points="210.25,-132 0,-132 0,-100 210.25,-100 210.25,-132"/>
<text text-anchor="start" x="8" y="-118.5" font-family="Helvetica,sans-Serif" font-size="10.00">fr.softsf.sudofx2024.utils.database.keystore.</text>
<text text-anchor="middle" x="105.12" y="-106.5" font-family="Helvetica,sans-Serif" font-size="10.00">ApplicationKeystore.credentials</text>
</a>
</g>
</g>
<!-- Node2 -->
<g id="Node000002" class="node">
<title>Node2</title>
<g id="a_Node000002"><a xlink:href="classfr_1_1softsf_1_1sudofx2024_1_1utils_1_1database_1_1keystore_1_1_application_keystore.html#a4e13fcbba16db5a0182f996ad02a799c" target="_top" xlink:title="Get credential by alias.">
<polygon fill="white" stroke="#666666" points="456.5,-169 246.25,-169 246.25,-137 456.5,-137 456.5,-169"/>
<text text-anchor="start" x="254.25" y="-155.5" font-family="Helvetica,sans-Serif" font-size="10.00">fr.softsf.sudofx2024.utils.database.keystore.</text>
<text text-anchor="middle" x="351.38" y="-143.5" font-family="Helvetica,sans-Serif" font-size="10.00">ApplicationKeystore.getCredentials</text>
</a>
</g>
</g>
<!-- Node1&#45;&gt;Node2 -->
<g id="edge1_Node000001_Node000002" class="edge">
<title>Node1&#45;&gt;Node2</title>
<g id="a_edge1_Node000001_Node000002"><a xlink:title=" ">
<path fill="none" stroke="#63b8ff" d="M210.42,-131.8C218.53,-133.03 226.75,-134.27 234.93,-135.51"/>
<polygon fill="#63b8ff" stroke="#63b8ff" points="234.13,-138.93 244.55,-136.97 235.18,-132.01 234.13,-138.93"/>
</a>
</g>
</g>
<!-- Node4 -->
<g id="Node000004" class="node">
<title>Node4</title>
<g id="a_Node000004"><a xlink:href="classfr_1_1softsf_1_1sudofx2024_1_1utils_1_1database_1_1keystore_1_1_application_keystore.html#a149153fd7b892ec9c6329b34f6bbad50" target="_top" xlink:title="Set credential by alias.">
<polygon fill="white" stroke="#666666" points="456.5,-107 246.25,-107 246.25,-75 456.5,-75 456.5,-107"/>
<text text-anchor="start" x="254.25" y="-93.5" font-family="Helvetica,sans-Serif" font-size="10.00">fr.softsf.sudofx2024.utils.database.keystore.</text>
<text text-anchor="middle" x="351.38" y="-81.5" font-family="Helvetica,sans-Serif" font-size="10.00">ApplicationKeystore.setCredentials</text>
</a>
</g>
</g>
<!-- Node1&#45;&gt;Node4 -->
<g id="edge3_Node000001_Node000004" class="edge">
<title>Node1&#45;&gt;Node4</title>
<g id="a_edge3_Node000001_Node000004"><a xlink:title=" ">
<path fill="none" stroke="#63b8ff" d="M210.42,-105.33C218.44,-104.5 226.56,-103.67 234.65,-102.85"/>
<polygon fill="#63b8ff" stroke="#63b8ff" points="234.95,-106.33 244.54,-101.83 234.23,-99.37 234.95,-106.33"/>
</a>
</g>
</g>
<!-- Node3 -->
<g id="Node000003" class="node">
<title>Node3</title>
<g id="a_Node000003"><a xlink:href="interfacefr_1_1softsf_1_1sudofx2024_1_1utils_1_1database_1_1keystore_1_1_application_keystore_1_1_i_encryption_service.html#ac3c866fe2af78726210f159d3bcf8faf" target="_top" xlink:title="Decrypt original.">
<polygon fill="white" stroke="#666666" points="716.25,-182 492.5,-182 492.5,-150 716.25,-150 716.25,-182"/>
<text text-anchor="start" x="500.5" y="-168.5" font-family="Helvetica,sans-Serif" font-size="10.00">fr.softsf.sudofx2024.utils.database.keystore.</text>
<text text-anchor="middle" x="604.38" y="-156.5" font-family="Helvetica,sans-Serif" font-size="10.00">ApplicationKeystore.IEncryptionService.decrypt</text>
</a>
</g>
</g>
<!-- Node2&#45;&gt;Node3 -->
<g id="edge2_Node000002_Node000003" class="edge">
<title>Node2&#45;&gt;Node3</title>
<g id="a_edge2_Node000002_Node000003"><a xlink:title=" ">
<path fill="none" stroke="#63b8ff" d="M456.64,-158.4C464.61,-158.81 472.69,-159.23 480.75,-159.65"/>
<polygon fill="#63b8ff" stroke="#63b8ff" points="480.45,-163.14 490.62,-160.16 480.82,-156.15 480.45,-163.14"/>
</a>
</g>
</g>
<!-- Node5 -->
<g id="Node000005" class="node">
<title>Node5</title>
<g id="a_Node000005"><a xlink:href="classfr_1_1softsf_1_1sudofx2024_1_1utils_1_1database_1_1keystore_1_1_application_keystore.html#a66b4511230a0a8390a1d43d6b7efbe21" target="_top" xlink:title="Add alias:secret in the Keystore.">
<polygon fill="white" stroke="#666666" points="709.5,-132 499.25,-132 499.25,-100 709.5,-100 709.5,-132"/>
<text text-anchor="start" x="507.25" y="-118.5" font-family="Helvetica,sans-Serif" font-size="10.00">fr.softsf.sudofx2024.utils.database.keystore.</text>
<text text-anchor="middle" x="604.38" y="-106.5" font-family="Helvetica,sans-Serif" font-size="10.00">ApplicationKeystore.addToKeystore</text>
</a>
</g>
</g>
<!-- Node4&#45;&gt;Node5 -->
<g id="edge4_Node000004_Node000005" class="edge">
<title>Node4&#45;&gt;Node5</title>
<g id="a_edge4_Node000004_Node000005"><a xlink:title=" ">
<path fill="none" stroke="#63b8ff" d="M456.64,-101.39C466.93,-102.41 477.41,-103.45 487.8,-104.49"/>
<polygon fill="#63b8ff" stroke="#63b8ff" points="487.23,-107.95 497.52,-105.46 487.92,-100.98 487.23,-107.95"/>
</a>
</g>
</g>
<!-- Node7 -->
<g id="Node000007" class="node">
<title>Node7</title>
<g id="a_Node000007"><a xlink:href="interfacefr_1_1softsf_1_1sudofx2024_1_1utils_1_1database_1_1keystore_1_1_application_keystore_1_1_i_encryption_service.html#a3463474a525a55bcf09e6b69f25abdc7" target="_top" xlink:title="Encrypt original.">
<polygon fill="white" stroke="#666666" points="716.25,-82 492.5,-82 492.5,-50 716.25,-50 716.25,-82"/>
<text text-anchor="start" x="500.5" y="-68.5" font-family="Helvetica,sans-Serif" font-size="10.00">fr.softsf.sudofx2024.utils.database.keystore.</text>
<text text-anchor="middle" x="604.38" y="-56.5" font-family="Helvetica,sans-Serif" font-size="10.00">ApplicationKeystore.IEncryptionService.encrypt</text>
</a>
</g>
</g>
<!-- Node4&#45;&gt;Node7 -->
<g id="edge6_Node000004_Node000007" class="edge">
<title>Node4&#45;&gt;Node7</title>
<g id="a_edge6_Node000004_Node000007"><a xlink:title=" ">
<path fill="none" stroke="#63b8ff" d="M456.64,-80.61C464.61,-79.82 472.69,-79.02 480.75,-78.21"/>
<polygon fill="#63b8ff" stroke="#63b8ff" points="481.02,-81.7 490.63,-77.23 480.33,-74.74 481.02,-81.7"/>
</a>
</g>
</g>
<!-- Node8 -->
<g id="Node000008" class="node">
<title>Node8</title>
<g id="a_Node000008"><a xlink:href="classfr_1_1softsf_1_1sudofx2024_1_1utils_1_1database_1_1keystore_1_1_generate_secret.html#aff423fb11bf834a8620df64c396cbe78" target="_top" xlink:title="Generate Passay secret.">
<polygon fill="white" stroke="#666666" points="709.5,-32 499.25,-32 499.25,0 709.5,0 709.5,-32"/>
<text text-anchor="start" x="507.25" y="-18.5" font-family="Helvetica,sans-Serif" font-size="10.00">fr.softsf.sudofx2024.utils.database.keystore.</text>
<text text-anchor="middle" x="604.38" y="-6.5" font-family="Helvetica,sans-Serif" font-size="10.00">GenerateSecret.generatePassaySecret</text>
</a>
</g>
</g>
<!-- Node4&#45;&gt;Node8 -->
<g id="edge7_Node000004_Node000008" class="edge">
<title>Node4&#45;&gt;Node8</title>
<g id="a_edge7_Node000004_Node000008"><a xlink:title=" ">
<path fill="none" stroke="#63b8ff" d="M394.25,-74.56C421.87,-64.09 459.01,-50.71 492.5,-41 499.42,-38.99 506.63,-37.05 513.89,-35.19"/>
<polygon fill="#63b8ff" stroke="#63b8ff" points="514.6,-38.62 523.46,-32.81 512.91,-31.83 514.6,-38.62"/>
</a>
</g>
</g>
<!-- Node6 -->
<g id="Node000006" class="node">
<title>Node6</title>
<g id="a_Node000006"><a xlink:href="classfr_1_1softsf_1_1sudofx2024_1_1utils_1_1database_1_1keystore_1_1_application_keystore.html#abcb102074a1e953ef3fe4031145dbf9d" target="_top" xlink:title="Write data to the keystore file.">
<polygon fill="white" stroke="#666666" points="962.5,-132 752.25,-132 752.25,-100 962.5,-100 962.5,-132"/>
<text text-anchor="start" x="760.25" y="-118.5" font-family="Helvetica,sans-Serif" font-size="10.00">fr.softsf.sudofx2024.utils.database.keystore.</text>
<text text-anchor="middle" x="857.38" y="-106.5" font-family="Helvetica,sans-Serif" font-size="10.00">ApplicationKeystore.writeTheKeystore</text>
</a>
</g>
</g>
<!-- Node5&#45;&gt;Node6 -->
<g id="edge5_Node000005_Node000006" class="edge">
<title>Node5&#45;&gt;Node6</title>
<g id="a_edge5_Node000005_Node000006"><a xlink:title=" ">
<path fill="none" stroke="#63b8ff" d="M709.64,-116C719.93,-116 730.41,-116 740.8,-116"/>
<polygon fill="#63b8ff" stroke="#63b8ff" points="740.52,-119.5 750.52,-116 740.52,-112.5 740.52,-119.5"/>
</a>
</g>
</g>
<!-- Node9 -->
<g id="Node000009" class="node">
<title>Node9</title>
<g id="a_Node000009"><a xlink:href="classfr_1_1softsf_1_1sudofx2024_1_1utils_1_1database_1_1keystore_1_1_generate_secret.html#aa539c32d1bb6a5d9ff767f4e6b64959d" target="_top" xlink:title="Define the secret special characters.">
<polygon fill="white" stroke="#666666" points="962.5,-32 752.25,-32 752.25,0 962.5,0 962.5,-32"/>
<text text-anchor="start" x="760.25" y="-18.5" font-family="Helvetica,sans-Serif" font-size="10.00">fr.softsf.sudofx2024.utils.database.keystore.</text>
<text text-anchor="middle" x="857.38" y="-6.5" font-family="Helvetica,sans-Serif" font-size="10.00">GenerateSecret.createSpecialChars</text>
</a>
</g>
</g>
<!-- Node8&#45;&gt;Node9 -->
<g id="edge8_Node000008_Node000009" class="edge">
<title>Node8&#45;&gt;Node9</title>
<g id="a_edge8_Node000008_Node000009"><a xlink:title=" ">
<path fill="none" stroke="#63b8ff" d="M709.64,-16C719.93,-16 730.41,-16 740.8,-16"/>
<polygon fill="#63b8ff" stroke="#63b8ff" points="740.52,-19.5 750.52,-16 740.52,-12.5 740.52,-19.5"/>
</a>
</g>
</g>
</g>
</svg>

<g id="navigator" transform="translate(0 0)" fill="#404254">
  <rect fill="#f2f5e9" fill-opacity="0.5" stroke="#606060" stroke-width=".5" x="0" y="0" width="60" height="60"/>
  <use id="zoomplus" xlink:href="#zoomPlus" x="17" y="9" onmousedown="handleZoom(evt,'in')"/>
  <use id="zoomminus" xlink:href="#zoomMin" x="42" y="9" onmousedown="handleZoom(evt,'out')"/>
  <use id="reset" xlink:href="#resetDef" x="30" y="36" onmousedown="handleReset()"/>
   <use id="arrowup" xlink:href="#arrowUp" x="0" y="0" onmousedown="handlePan(0,-1)"/>
  <use id="arrowright" xlink:href="#arrowRight" x="0" y="0" onmousedown="handlePan(1,0)"/>
  <use id="arrowdown" xlink:href="#arrowDown" x="0" y="0" onmousedown="handlePan(0,1)"/>
  <use id="arrowleft" xlink:href="#arrowLeft" x="0" y="0" onmousedown="handlePan(-1,0)"/>
</g>
<svg viewBox="0 0 15 15" width="100%" height="30px" preserveAspectRatio="xMaxYMin meet">
 <g id="arrow_out" transform="scale(0.3 0.3)">
  <a xlink:href="classfr_1_1softsf_1_1sudofx2024_1_1utils_1_1database_1_1keystore_1_1_application_keystore_a0317c3df974d0e6c92ddac1211512b3d_cgraph_org.svg" target="_base">
   <rect id="button" ry="5" rx="5" y="6" x="6" height="38" width="38"
        fill="#f2f5e9" fill-opacity="0.5" stroke="#606060" stroke-width="1.0"/>
   <path id="arrow"
     d="M 11.500037,31.436501 C 11.940474,20.09759 22.043105,11.32322 32.158766,21.979434 L 37.068811,17.246167 C 37.068811,17.246167 37.088388,32 37.088388,32 L 22.160133,31.978069 C 22.160133,31.978069 26.997745,27.140456 26.997745,27.140456 C 18.528582,18.264221 13.291696,25.230495 11.500037,31.436501 z"
     style="fill:#404040;"/>
  </a>
 </g>
</svg>

<style type='text/css'>
<![CDATA[
[data-mouse-over-selected='false'] { opacity: 0.7; }
[data-mouse-over-selected='true']  { opacity: 1.0; }
]]>
</style>
<script type="application/ecmascript"><![CDATA[
document.addEventListener('DOMContentLoaded', (event) => {
  highlightEdges();
  highlightAdjacentNodes();
});
]]></script>
</svg>
