<?xml version="1.0" encoding="UTF-8" standalone="no"?>
<!DOCTYPE svg PUBLIC "-//W3C//DTD SVG 1.1//EN"
 "http://www.w3.org/Graphics/SVG/1.1/DTD/svg11.dtd">
<!-- Generated by graphviz version 12.2.0 (20241103.1931)
 -->
<!-- Title: fr.softsf.sudokufx.utils.database.configuration.DataSource Pages: 1 -->
<svg width="674pt" height="304pt"
 viewBox="0.00 0.00 673.75 304.00" xmlns="http://www.w3.org/2000/svg" xmlns:xlink="http://www.w3.org/1999/xlink">
<g id="graph0" class="graph" transform="scale(1 1) rotate(0) translate(4 300)">
<title>fr.softsf.sudokufx.utils.database.configuration.DataSource</title>
<!-- Node1 -->
<g id="Node000001" class="node">
<title>Node1</title>
<g id="a_Node000001"><a xlink:title="Abstract configuration class for setting up the application&#39;s data source.">
<polygon fill="#999999" stroke="none" points="437.75,-296 228,-296 228,-124 437.75,-124 437.75,-296"/>
<text text-anchor="start" x="232" y="-282.5" font-family="Helvetica,sans-Serif" font-size="10.00">fr.softsf.sudokufx.utils.database.configuration.</text>
<text text-anchor="start" x="307" y="-270.5" font-family="Helvetica,sans-Serif" font-size="10.00">DataSource</text>
<text text-anchor="start" x="246.19" y="-254.5" font-family="Helvetica,sans-Serif" font-size="10.00">&#45;</text>
<text text-anchor="start" x="267.38" y="-254.5" font-family="Helvetica,sans-Serif" font-size="10.00">String jdbcUrl</text>
<text text-anchor="start" x="246.19" y="-238.5" font-family="Helvetica,sans-Serif" font-size="10.00">&#45;</text>
<text text-anchor="start" x="267.38" y="-238.5" font-family="Helvetica,sans-Serif" font-size="10.00">String poolName</text>
<text text-anchor="start" x="244.69" y="-222.5" font-family="Helvetica,sans-Serif" font-size="10.00">~</text>
<text text-anchor="start" x="267.38" y="-222.5" font-family="Helvetica,sans-Serif" font-size="10.00">Flyway flyway(final</text>
<text text-anchor="start" x="267.38" y="-210.5" font-family="Helvetica,sans-Serif" font-size="10.00"> HikariDataSource hikariData</text>
<text text-anchor="start" x="267.38" y="-198.5" font-family="Helvetica,sans-Serif" font-size="10.00">Source)</text>
<text text-anchor="start" x="244.69" y="-182.5" font-family="Helvetica,sans-Serif" font-size="10.00">~</text>
<text text-anchor="start" x="267.38" y="-182.5" font-family="Helvetica,sans-Serif" font-size="10.00">HikariDataSource hikariData</text>
<text text-anchor="start" x="267.38" y="-170.5" font-family="Helvetica,sans-Serif" font-size="10.00">Source(final ApplicationKeystore</text>
<text text-anchor="start" x="267.38" y="-158.5" font-family="Helvetica,sans-Serif" font-size="10.00"> keystore)</text>
<text text-anchor="start" x="244.69" y="-142.5" font-family="Helvetica,sans-Serif" font-size="10.00">~</text>
<text text-anchor="start" x="267.38" y="-142.5" font-family="Helvetica,sans-Serif" font-size="10.00">int logbackInitialization</text>
<text text-anchor="start" x="267.38" y="-130.5" font-family="Helvetica,sans-Serif" font-size="10.00">(final MyLogback myLogback)</text>
<polygon fill="#666666" stroke="#666666" points="228,-266 228,-266 437.75,-266 437.75,-266 228,-266"/>
<polygon fill="#666666" stroke="#666666" points="228,-234 228,-234 265.38,-234 265.38,-234 228,-234"/>
<polygon fill="#666666" stroke="#666666" points="265.38,-234 265.38,-234 437.75,-234 437.75,-234 265.38,-234"/>
<polygon fill="none" stroke="#666666" points="228,-124 228,-296 437.75,-296 437.75,-124 228,-124"/>
</a>
</g>
</g>
<!-- Node2 -->
<g id="Node000002" class="node">
<title>Node2</title>
<g id="a_Node000002"><a xlink:href="classfr_1_1softsf_1_1sudokufx_1_1utils_1_1database_1_1configuration_1_1_data_source_cds.html" target="_top" xlink:title="Overrides Abstract DataSource hikariDataSource for the CDS profile.">
<polygon fill="white" stroke="none" points="209.75,-88 0,-88 0,0 209.75,0 209.75,-88"/>
<text text-anchor="start" x="4" y="-74.5" font-family="Helvetica,sans-Serif" font-size="10.00">fr.softsf.sudokufx.utils.database.configuration.</text>
<text text-anchor="start" x="70" y="-62.5" font-family="Helvetica,sans-Serif" font-size="10.00">DataSourceCds</text>
<text text-anchor="start" x="103.38" y="-46.5" font-family="Helvetica,sans-Serif" font-size="10.00"> </text>
<text text-anchor="start" x="16.69" y="-30.5" font-family="Helvetica,sans-Serif" font-size="10.00">~</text>
<text text-anchor="start" x="39.38" y="-30.5" font-family="Helvetica,sans-Serif" font-size="10.00">HikariDataSource hikariData</text>
<text text-anchor="start" x="39.38" y="-18.5" font-family="Helvetica,sans-Serif" font-size="10.00">Source(final ApplicationKeystore</text>
<text text-anchor="start" x="39.38" y="-6.5" font-family="Helvetica,sans-Serif" font-size="10.00"> keystore)</text>
<polygon fill="#666666" stroke="#666666" points="0,-58 0,-58 209.75,-58 209.75,-58 0,-58"/>
<polygon fill="#666666" stroke="#666666" points="0,-42 0,-42 209.75,-42 209.75,-42 0,-42"/>
<polygon fill="none" stroke="#666666" points="0,0 0,-88 209.75,-88 209.75,0 0,0"/>
</a>
</g>
</g>
<!-- Node1&#45;&gt;Node2 -->
<g id="edge1_Node000001_Node000002" class="edge">
<title>Node1&#45;&gt;Node2</title>
<g id="a_edge1_Node000001_Node000002"><a xlink:title=" ">
<path fill="none" stroke="#63b8ff" d="M218.96,-127.06C200.09,-113.49 181.22,-99.92 164.41,-87.83"/>
<polygon fill="none" stroke="#63b8ff" points="216.83,-129.84 226.99,-132.84 220.91,-124.16 216.83,-129.84"/>
</a>
</g>
</g>
<!-- Node3 -->
<g id="Node000003" class="node">
<title>Node3</title>
<g id="a_Node000003"><a xlink:href="classfr_1_1softsf_1_1sudokufx_1_1utils_1_1database_1_1configuration_1_1_data_source_default.html" target="_top" xlink:title="Overrides Abstract DataSource hikariDataSource for the default profile.">
<polygon fill="white" stroke="none" points="437.75,-88 228,-88 228,0 437.75,0 437.75,-88"/>
<text text-anchor="start" x="232" y="-74.5" font-family="Helvetica,sans-Serif" font-size="10.00">fr.softsf.sudokufx.utils.database.configuration.</text>
<text text-anchor="start" x="291.25" y="-62.5" font-family="Helvetica,sans-Serif" font-size="10.00">DataSourceDefault</text>
<text text-anchor="start" x="331.38" y="-46.5" font-family="Helvetica,sans-Serif" font-size="10.00"> </text>
<text text-anchor="start" x="244.69" y="-30.5" font-family="Helvetica,sans-Serif" font-size="10.00">~</text>
<text text-anchor="start" x="267.38" y="-30.5" font-family="Helvetica,sans-Serif" font-size="10.00">HikariDataSource hikariData</text>
<text text-anchor="start" x="267.38" y="-18.5" font-family="Helvetica,sans-Serif" font-size="10.00">Source(final ApplicationKeystore</text>
<text text-anchor="start" x="267.38" y="-6.5" font-family="Helvetica,sans-Serif" font-size="10.00"> keystore)</text>
<polygon fill="#666666" stroke="#666666" points="228,-58 228,-58 437.75,-58 437.75,-58 228,-58"/>
<polygon fill="#666666" stroke="#666666" points="228,-42 228,-42 437.75,-42 437.75,-42 228,-42"/>
<polygon fill="none" stroke="#666666" points="228,0 228,-88 437.75,-88 437.75,0 228,0"/>
</a>
</g>
</g>
<!-- Node1&#45;&gt;Node3 -->
<g id="edge2_Node000001_Node000003" class="edge">
<title>Node1&#45;&gt;Node3</title>
<g id="a_edge2_Node000001_Node000003"><a xlink:title=" ">
<path fill="none" stroke="#63b8ff" d="M332.88,-112.9C332.88,-104.11 332.88,-95.54 332.88,-87.62"/>
<polygon fill="none" stroke="#63b8ff" points="329.38,-112.6 332.88,-122.6 336.38,-112.6 329.38,-112.6"/>
</a>
</g>
</g>
<!-- Node4 -->
<g id="Node000004" class="node">
<title>Node4</title>
<g id="a_Node000004"><a xlink:href="classfr_1_1softsf_1_1sudokufx_1_1utils_1_1database_1_1configuration_1_1_data_source_test.html" target="_top" xlink:title="Overrides Abstract DataSource hikariDataSource for the test profile.">
<polygon fill="white" stroke="none" points="665.75,-88 456,-88 456,0 665.75,0 665.75,-88"/>
<text text-anchor="start" x="460" y="-74.5" font-family="Helvetica,sans-Serif" font-size="10.00">fr.softsf.sudokufx.utils.database.configuration.</text>
<text text-anchor="start" x="525.62" y="-62.5" font-family="Helvetica,sans-Serif" font-size="10.00">DataSourceTest</text>
<text text-anchor="start" x="559.38" y="-46.5" font-family="Helvetica,sans-Serif" font-size="10.00"> </text>
<text text-anchor="start" x="472.69" y="-30.5" font-family="Helvetica,sans-Serif" font-size="10.00">~</text>
<text text-anchor="start" x="495.38" y="-30.5" font-family="Helvetica,sans-Serif" font-size="10.00">HikariDataSource hikariData</text>
<text text-anchor="start" x="495.38" y="-18.5" font-family="Helvetica,sans-Serif" font-size="10.00">Source(final ApplicationKeystore</text>
<text text-anchor="start" x="495.38" y="-6.5" font-family="Helvetica,sans-Serif" font-size="10.00"> keystore)</text>
<polygon fill="#666666" stroke="#666666" points="456,-58 456,-58 665.75,-58 665.75,-58 456,-58"/>
<polygon fill="#666666" stroke="#666666" points="456,-42 456,-42 665.75,-42 665.75,-42 456,-42"/>
<polygon fill="none" stroke="#666666" points="456,0 456,-88 665.75,-88 665.75,0 456,0"/>
</a>
</g>
</g>
<!-- Node1&#45;&gt;Node4 -->
<g id="edge3_Node000001_Node000004" class="edge">
<title>Node1&#45;&gt;Node4</title>
<g id="a_edge3_Node000001_Node000004"><a xlink:title=" ">
<path fill="none" stroke="#63b8ff" d="M446.79,-127.06C465.66,-113.49 484.53,-99.92 501.34,-87.83"/>
<polygon fill="none" stroke="#63b8ff" points="444.84,-124.16 438.76,-132.84 448.92,-129.84 444.84,-124.16"/>
</a>
</g>
</g>
</g>
</svg>
