<?xml version="1.0" encoding="UTF-8" standalone="no"?>
<!DOCTYPE svg PUBLIC "-//W3C//DTD SVG 1.1//EN"
 "http://www.w3.org/Graphics/SVG/1.1/DTD/svg11.dtd">
<!-- Generated by graphviz version 12.2.0 (20241103.1931)
 -->
<!-- Title: fr.softsf.sudokufx.utils.database.configuration.DataSource Pages: 1 -->
<!--zoomable 304 -->

<svg id="main" version="1.1" xmlns="http://www.w3.org/2000/svg" xmlns:xlink="http://www.w3.org/1999/xlink" xml:space="preserve" onload="init(evt)">

<style type="text/css"><![CDATA[
.node, .edge {opacity: 0.7;}
.node.selected, .edge.selected {opacity: 1;}
.edge:hover path { stroke: red; }
.edge:hover polygon { stroke: red; fill: red; }
]]></style>

<defs>
  <circle id="rim" cx="0" cy="0" r="7"/>
  <circle id="rim2" cx="0" cy="0" r="3.5"/>
  <g id="zoomPlus">
    <use xlink:href="#rim" fill="#404040"><set attributeName="fill" to="#808080" begin="zoomplus.mouseover" end="zoomplus.mouseout"/></use>
    <path d="M-4,0h8M0,-4v8" fill="none" stroke="white" stroke-width="1.5" pointer-events="none"/>
  </g>
  <g id="zoomMin">
    <use xlink:href="#rim" fill="#404040"><set attributeName="fill" to="#808080" begin="zoomminus.mouseover" end="zoomminus.mouseout"/></use>
    <path d="M-4,0h8" fill="none" stroke="white" stroke-width="1.5" pointer-events="none"/>
  </g>
  <g id="arrowUp" transform="translate(30 24)">
    <use xlink:href="#rim"/>
    <path pointer-events="none" fill="none" stroke="white" stroke-width="1.5" d="M0,-3.0v7 M-2.5,-0.5L0,-3.0L2.5,-0.5"/>
  </g>
  <g id="arrowRight" transform="rotate(90) translate(36 -43)">
    <use xlink:href="#rim"/>
    <path pointer-events="none" fill="none" stroke="white" stroke-width="1.5" d="M0,-3.0v7 M-2.5,-0.5L0,-3.0L2.5,-0.5"/>
  </g>
  <g id="arrowDown" transform="rotate(180) translate(-30 -48)">
    <use xlink:href="#rim"/>
    <path pointer-events="none" fill="none" stroke="white" stroke-width="1.5" d="M0,-3.0v7 M-2.5,-0.5L0,-3.0L2.5,-0.5"/>
  </g>
  <g id="arrowLeft" transform="rotate(270) translate(-36 17)">
    <use xlink:href="#rim"/>
    <path pointer-events="none" fill="none" stroke="white" stroke-width="1.5" d="M0,-3.0v7 M-2.5,-0.5L0,-3.0L2.5,-0.5"/>
  </g>
  <g id="resetDef">
    <use xlink:href="#rim2" fill="#404040"><set attributeName="fill" to="#808080" begin="reset.mouseover" end="reset.mouseout"/></use>
  </g>
</defs>
<script type="application/ecmascript">
var viewWidth = 674;
var viewHeight = 304;
var sectionId = 'dynsection-0';
</script>
<script type="application/ecmascript" xlink:href="svg.min.js"/>
<svg id="graph" class="graph">
<g id="viewport">
<title>fr.softsf.sudokufx.utils.database.configuration.DataSource</title>
<!-- Node1 -->
<g id="Node000001" class="node">
<title>Node1</title>
<g id="a_Node000001"><a xlink:title="Abstract configuration class for setting up the application&#39;s data source.">
<polygon fill="#999999" stroke="none" points="437.75,-296 228,-296 228,-124 437.75,-124 437.75,-296"/>
<text text-anchor="start" x="232" y="-282.5" font-family="Helvetica,sans-Serif" font-size="10.00">fr.softsf.sudokufx.utils.database.configuration.</text>
<text text-anchor="start" x="307" y="-270.5" font-family="Helvetica,sans-Serif" font-size="10.00">DataSource</text>
<text text-anchor="start" x="246.19" y="-254.5" font-family="Helvetica,sans-Serif" font-size="10.00">&#45;</text>
<text text-anchor="start" x="267.38" y="-254.5" font-family="Helvetica,sans-Serif" font-size="10.00">String jdbcUrl</text>
<text text-anchor="start" x="246.19" y="-238.5" font-family="Helvetica,sans-Serif" font-size="10.00">&#45;</text>
<text text-anchor="start" x="267.38" y="-238.5" font-family="Helvetica,sans-Serif" font-size="10.00">String poolName</text>
<text text-anchor="start" x="244.69" y="-222.5" font-family="Helvetica,sans-Serif" font-size="10.00">~</text>
<text text-anchor="start" x="267.38" y="-222.5" font-family="Helvetica,sans-Serif" font-size="10.00">Flyway flyway(final</text>
<text text-anchor="start" x="267.38" y="-210.5" font-family="Helvetica,sans-Serif" font-size="10.00"> HikariDataSource hikariData</text>
<text text-anchor="start" x="267.38" y="-198.5" font-family="Helvetica,sans-Serif" font-size="10.00">Source)</text>
<text text-anchor="start" x="244.69" y="-182.5" font-family="Helvetica,sans-Serif" font-size="10.00">~</text>
<text text-anchor="start" x="267.38" y="-182.5" font-family="Helvetica,sans-Serif" font-size="10.00">HikariDataSource hikariData</text>
<text text-anchor="start" x="267.38" y="-170.5" font-family="Helvetica,sans-Serif" font-size="10.00">Source(final ApplicationKeystore</text>
<text text-anchor="start" x="267.38" y="-158.5" font-family="Helvetica,sans-Serif" font-size="10.00"> keystore)</text>
<text text-anchor="start" x="244.69" y="-142.5" font-family="Helvetica,sans-Serif" font-size="10.00">~</text>
<text text-anchor="start" x="267.38" y="-142.5" font-family="Helvetica,sans-Serif" font-size="10.00">int logbackInitialization</text>
<text text-anchor="start" x="267.38" y="-130.5" font-family="Helvetica,sans-Serif" font-size="10.00">(final MyLogback myLogback)</text>
<polygon fill="#666666" stroke="#666666" points="228,-266 228,-266 437.75,-266 437.75,-266 228,-266"/>
<polygon fill="#666666" stroke="#666666" points="228,-234 228,-234 265.38,-234 265.38,-234 228,-234"/>
<polygon fill="#666666" stroke="#666666" points="265.38,-234 265.38,-234 437.75,-234 437.75,-234 265.38,-234"/>
<polygon fill="none" stroke="#666666" points="228,-124 228,-296 437.75,-296 437.75,-124 228,-124"/>
</a>
</g>
</g>
<!-- Node2 -->
<g id="Node000002" class="node">
<title>Node2</title>
<g id="a_Node000002"><a xlink:href="classfr_1_1softsf_1_1sudokufx_1_1utils_1_1database_1_1configuration_1_1_data_source_cds.html" target="_top" xlink:title="Overrides Abstract DataSource hikariDataSource for the CDS profile.">
<polygon fill="white" stroke="none" points="209.75,-88 0,-88 0,0 209.75,0 209.75,-88"/>
<text text-anchor="start" x="4" y="-74.5" font-family="Helvetica,sans-Serif" font-size="10.00">fr.softsf.sudokufx.utils.database.configuration.</text>
<text text-anchor="start" x="70" y="-62.5" font-family="Helvetica,sans-Serif" font-size="10.00">DataSourceCds</text>
<text text-anchor="start" x="103.38" y="-46.5" font-family="Helvetica,sans-Serif" font-size="10.00"> </text>
<text text-anchor="start" x="16.69" y="-30.5" font-family="Helvetica,sans-Serif" font-size="10.00">~</text>
<text text-anchor="start" x="39.38" y="-30.5" font-family="Helvetica,sans-Serif" font-size="10.00">HikariDataSource hikariData</text>
<text text-anchor="start" x="39.38" y="-18.5" font-family="Helvetica,sans-Serif" font-size="10.00">Source(final ApplicationKeystore</text>
<text text-anchor="start" x="39.38" y="-6.5" font-family="Helvetica,sans-Serif" font-size="10.00"> keystore)</text>
<polygon fill="#666666" stroke="#666666" points="0,-58 0,-58 209.75,-58 209.75,-58 0,-58"/>
<polygon fill="#666666" stroke="#666666" points="0,-42 0,-42 209.75,-42 209.75,-42 0,-42"/>
<polygon fill="none" stroke="#666666" points="0,0 0,-88 209.75,-88 209.75,0 0,0"/>
</a>
</g>
</g>
<!-- Node1&#45;&gt;Node2 -->
<g id="edge1_Node000001_Node000002" class="edge">
<title>Node1&#45;&gt;Node2</title>
<g id="a_edge1_Node000001_Node000002"><a xlink:title=" ">
<path fill="none" stroke="#63b8ff" d="M218.96,-127.06C200.09,-113.49 181.22,-99.92 164.41,-87.83"/>
<polygon fill="none" stroke="#63b8ff" points="216.83,-129.84 226.99,-132.84 220.91,-124.16 216.83,-129.84"/>
</a>
</g>
</g>
<!-- Node3 -->
<g id="Node000003" class="node">
<title>Node3</title>
<g id="a_Node000003"><a xlink:href="classfr_1_1softsf_1_1sudokufx_1_1utils_1_1database_1_1configuration_1_1_data_source_default.html" target="_top" xlink:title="Overrides Abstract DataSource hikariDataSource for the default profile.">
<polygon fill="white" stroke="none" points="437.75,-88 228,-88 228,0 437.75,0 437.75,-88"/>
<text text-anchor="start" x="232" y="-74.5" font-family="Helvetica,sans-Serif" font-size="10.00">fr.softsf.sudokufx.utils.database.configuration.</text>
<text text-anchor="start" x="291.25" y="-62.5" font-family="Helvetica,sans-Serif" font-size="10.00">DataSourceDefault</text>
<text text-anchor="start" x="331.38" y="-46.5" font-family="Helvetica,sans-Serif" font-size="10.00"> </text>
<text text-anchor="start" x="244.69" y="-30.5" font-family="Helvetica,sans-Serif" font-size="10.00">~</text>
<text text-anchor="start" x="267.38" y="-30.5" font-family="Helvetica,sans-Serif" font-size="10.00">HikariDataSource hikariData</text>
<text text-anchor="start" x="267.38" y="-18.5" font-family="Helvetica,sans-Serif" font-size="10.00">Source(final ApplicationKeystore</text>
<text text-anchor="start" x="267.38" y="-6.5" font-family="Helvetica,sans-Serif" font-size="10.00"> keystore)</text>
<polygon fill="#666666" stroke="#666666" points="228,-58 228,-58 437.75,-58 437.75,-58 228,-58"/>
<polygon fill="#666666" stroke="#666666" points="228,-42 228,-42 437.75,-42 437.75,-42 228,-42"/>
<polygon fill="none" stroke="#666666" points="228,0 228,-88 437.75,-88 437.75,0 228,0"/>
</a>
</g>
</g>
<!-- Node1&#45;&gt;Node3 -->
<g id="edge2_Node000001_Node000003" class="edge">
<title>Node1&#45;&gt;Node3</title>
<g id="a_edge2_Node000001_Node000003"><a xlink:title=" ">
<path fill="none" stroke="#63b8ff" d="M332.88,-112.9C332.88,-104.11 332.88,-95.54 332.88,-87.62"/>
<polygon fill="none" stroke="#63b8ff" points="329.38,-112.6 332.88,-122.6 336.38,-112.6 329.38,-112.6"/>
</a>
</g>
</g>
<!-- Node4 -->
<g id="Node000004" class="node">
<title>Node4</title>
<g id="a_Node000004"><a xlink:href="classfr_1_1softsf_1_1sudokufx_1_1utils_1_1database_1_1configuration_1_1_data_source_test.html" target="_top" xlink:title="Overrides Abstract DataSource hikariDataSource for the test profile.">
<polygon fill="white" stroke="none" points="665.75,-88 456,-88 456,0 665.75,0 665.75,-88"/>
<text text-anchor="start" x="460" y="-74.5" font-family="Helvetica,sans-Serif" font-size="10.00">fr.softsf.sudokufx.utils.database.configuration.</text>
<text text-anchor="start" x="525.62" y="-62.5" font-family="Helvetica,sans-Serif" font-size="10.00">DataSourceTest</text>
<text text-anchor="start" x="559.38" y="-46.5" font-family="Helvetica,sans-Serif" font-size="10.00"> </text>
<text text-anchor="start" x="472.69" y="-30.5" font-family="Helvetica,sans-Serif" font-size="10.00">~</text>
<text text-anchor="start" x="495.38" y="-30.5" font-family="Helvetica,sans-Serif" font-size="10.00">HikariDataSource hikariData</text>
<text text-anchor="start" x="495.38" y="-18.5" font-family="Helvetica,sans-Serif" font-size="10.00">Source(final ApplicationKeystore</text>
<text text-anchor="start" x="495.38" y="-6.5" font-family="Helvetica,sans-Serif" font-size="10.00"> keystore)</text>
<polygon fill="#666666" stroke="#666666" points="456,-58 456,-58 665.75,-58 665.75,-58 456,-58"/>
<polygon fill="#666666" stroke="#666666" points="456,-42 456,-42 665.75,-42 665.75,-42 456,-42"/>
<polygon fill="none" stroke="#666666" points="456,0 456,-88 665.75,-88 665.75,0 456,0"/>
</a>
</g>
</g>
<!-- Node1&#45;&gt;Node4 -->
<g id="edge3_Node000001_Node000004" class="edge">
<title>Node1&#45;&gt;Node4</title>
<g id="a_edge3_Node000001_Node000004"><a xlink:title=" ">
<path fill="none" stroke="#63b8ff" d="M446.79,-127.06C465.66,-113.49 484.53,-99.92 501.34,-87.83"/>
<polygon fill="none" stroke="#63b8ff" points="444.84,-124.16 438.76,-132.84 448.92,-129.84 444.84,-124.16"/>
</a>
</g>
</g>
</g>
</svg>

<g id="navigator" transform="translate(0 0)" fill="#404254">
  <rect fill="#f2f5e9" fill-opacity="0.5" stroke="#606060" stroke-width=".5" x="0" y="0" width="60" height="60"/>
  <use id="zoomplus" xlink:href="#zoomPlus" x="17" y="9" onmousedown="handleZoom(evt,'in')"/>
  <use id="zoomminus" xlink:href="#zoomMin" x="42" y="9" onmousedown="handleZoom(evt,'out')"/>
  <use id="reset" xlink:href="#resetDef" x="30" y="36" onmousedown="handleReset()"/>
   <use id="arrowup" xlink:href="#arrowUp" x="0" y="0" onmousedown="handlePan(0,-1)"/>
  <use id="arrowright" xlink:href="#arrowRight" x="0" y="0" onmousedown="handlePan(1,0)"/>
  <use id="arrowdown" xlink:href="#arrowDown" x="0" y="0" onmousedown="handlePan(0,1)"/>
  <use id="arrowleft" xlink:href="#arrowLeft" x="0" y="0" onmousedown="handlePan(-1,0)"/>
</g>
<svg viewBox="0 0 15 15" width="100%" height="30px" preserveAspectRatio="xMaxYMin meet">
 <g id="arrow_out" transform="scale(0.3 0.3)">
  <a xlink:href="classfr_1_1softsf_1_1sudokufx_1_1utils_1_1database_1_1configuration_1_1_data_source__inherit__graph_org.svg" target="_base">
   <rect id="button" ry="5" rx="5" y="6" x="6" height="38" width="38"
        fill="#f2f5e9" fill-opacity="0.5" stroke="#606060" stroke-width="1.0"/>
   <path id="arrow"
     d="M 11.500037,31.436501 C 11.940474,20.09759 22.043105,11.32322 32.158766,21.979434 L 37.068811,17.246167 C 37.068811,17.246167 37.088388,32 37.088388,32 L 22.160133,31.978069 C 22.160133,31.978069 26.997745,27.140456 26.997745,27.140456 C 18.528582,18.264221 13.291696,25.230495 11.500037,31.436501 z"
     style="fill:#404040;"/>
  </a>
 </g>
</svg>

<style type='text/css'>
<![CDATA[
[data-mouse-over-selected='false'] { opacity: 0.7; }
[data-mouse-over-selected='true']  { opacity: 1.0; }
]]>
</style>
<script type="application/ecmascript"><![CDATA[
document.addEventListener('DOMContentLoaded', (event) => {
  highlightEdges();
  highlightAdjacentNodes();
});
]]></script>
</svg>
