<?xml version="1.0" encoding="UTF-8" standalone="no"?>
<!DOCTYPE svg PUBLIC "-//W3C//DTD SVG 1.1//EN"
 "http://www.w3.org/Graphics/SVG/1.1/DTD/svg11.dtd">
<!-- Generated by graphviz version 12.2.1 (20241206.2353)
 -->
<!-- Title: fr.softsf.sudokufx.configuration.MyLogbackConfig.configureLogback Pages: 1 -->
<svg width="592pt" height="40pt"
 viewBox="0.00 0.00 591.50 40.00" xmlns="http://www.w3.org/2000/svg" xmlns:xlink="http://www.w3.org/1999/xlink">
<g id="graph0" class="graph" transform="scale(1 1) rotate(0) translate(4 36)">
<title>fr.softsf.sudokufx.configuration.MyLogbackConfig.configureLogback</title>
<!-- Node1 -->
<g id="Node000001" class="node">
<title>Node1</title>
<g id="a_Node000001"><a xlink:title="Configures Logback using the specified configuration file.">
<polygon fill="#999999" stroke="#666666" points="174.25,-32 0,-32 0,0 174.25,0 174.25,-32"/>
<text text-anchor="start" x="8" y="-18.5" font-family="Helvetica,sans-Serif" font-size="10.00">fr.softsf.sudokufx.configuration.</text>
<text text-anchor="middle" x="87.12" y="-6.5" font-family="Helvetica,sans-Serif" font-size="10.00">MyLogbackConfig.configureLogback</text>
</a>
</g>
</g>
<!-- Node2 -->
<g id="Node000002" class="node">
<title>Node2</title>
<g id="a_Node000002"><a xlink:href="classfr_1_1softsf_1_1sudokufx_1_1configuration_1_1_my_logback_config.html#a6f72c3e944dc4bad5ad7ebf8e60ac763" target="_top" xlink:title="Constructor that initializes the logging configuration.">
<polygon fill="white" stroke="#666666" points="386.75,-32 210.25,-32 210.25,0 386.75,0 386.75,-32"/>
<text text-anchor="start" x="218.25" y="-18.5" font-family="Helvetica,sans-Serif" font-size="10.00">fr.softsf.sudokufx.configuration.</text>
<text text-anchor="middle" x="298.5" y="-6.5" font-family="Helvetica,sans-Serif" font-size="10.00">MyLogbackConfig.MyLogbackConfig</text>
</a>
</g>
</g>
<!-- Node1&#45;&gt;Node2 -->
<g id="edge1_Node000001_Node000002" class="edge">
<title>Node1&#45;&gt;Node2</title>
<g id="a_edge1_Node000001_Node000002"><a xlink:title=" ">
<path fill="none" stroke="#63b8ff" d="M174.49,-9.34C182.46,-9.26 190.57,-9.23 198.63,-9.26"/>
<polygon fill="#63b8ff" stroke="#63b8ff" points="198.44,-12.76 208.46,-9.32 198.49,-5.76 198.44,-12.76"/>
</a>
</g>
</g>
<!-- Node2&#45;&gt;Node1 -->
<g id="edge2_Node000002_Node000001" class="edge">
<title>Node2&#45;&gt;Node1</title>
<g id="a_edge2_Node000002_Node000001"><a xlink:title=" ">
<path fill="none" stroke="#63b8ff" d="M209.98,-22.67C202,-22.74 193.89,-22.77 185.83,-22.74"/>
<polygon fill="#63b8ff" stroke="#63b8ff" points="186.03,-19.24 176.01,-22.67 185.98,-26.24 186.03,-19.24"/>
</a>
</g>
</g>
<!-- Node3 -->
<g id="Node000003" class="node">
<title>Node3</title>
<g id="a_Node000003"><a xlink:href="classfr_1_1softsf_1_1sudokufx_1_1configuration_1_1_my_logback_config.html#a764a3472e63655858b4d301df2d22520" target="_top" xlink:title="Prints the logger status to the log in case of errors or warnings.">
<polygon fill="white" stroke="#666666" points="583.5,-32 422.75,-32 422.75,0 583.5,0 583.5,-32"/>
<text text-anchor="start" x="430.75" y="-18.5" font-family="Helvetica,sans-Serif" font-size="10.00">fr.softsf.sudokufx.configuration.</text>
<text text-anchor="middle" x="503.12" y="-6.5" font-family="Helvetica,sans-Serif" font-size="10.00">MyLogbackConfig.printLogStatus</text>
</a>
</g>
</g>
<!-- Node2&#45;&gt;Node3 -->
<g id="edge3_Node000002_Node000003" class="edge">
<title>Node2&#45;&gt;Node3</title>
<g id="a_edge3_Node000002_Node000003"><a xlink:title=" ">
<path fill="none" stroke="#63b8ff" d="M387.2,-16C395.03,-16 402.97,-16 410.83,-16"/>
<polygon fill="#63b8ff" stroke="#63b8ff" points="410.76,-19.5 420.76,-16 410.76,-12.5 410.76,-19.5"/>
</a>
</g>
</g>
</g>
</svg>
