<?xml version="1.0" encoding="UTF-8" standalone="no"?>
<!DOCTYPE svg PUBLIC "-//W3C//DTD SVG 1.1//EN"
 "http://www.w3.org/Graphics/SVG/1.1/DTD/svg11.dtd">
<!-- Generated by graphviz version 12.2.1 (20241206.2353)
 -->
<!-- Title: fr.softsf.sudokufx.configuration.MyLogbackConfig.configureLogback Pages: 1 -->
<svg width="619pt" height="90pt"
 viewBox="0.00 0.00 619.25 90.00" xmlns="http://www.w3.org/2000/svg" xmlns:xlink="http://www.w3.org/1999/xlink">
<g id="graph0" class="graph" transform="scale(1 1) rotate(0) translate(4 86)">
<title>fr.softsf.sudokufx.configuration.MyLogbackConfig.configureLogback</title>
<!-- Node1 -->
<g id="Node000001" class="node">
<title>Node1</title>
<g id="a_Node000001"><a xlink:title="Configures Logback using the specified configuration file.">
<polygon fill="#999999" stroke="#666666" points="174.25,-57 0,-57 0,-25 174.25,-25 174.25,-57"/>
<text text-anchor="start" x="8" y="-43.5" font-family="Helvetica,sans-Serif" font-size="10.00">fr.softsf.sudokufx.configuration.</text>
<text text-anchor="middle" x="87.12" y="-31.5" font-family="Helvetica,sans-Serif" font-size="10.00">MyLogbackConfig.configureLogback</text>
</a>
</g>
</g>
<!-- Node2 -->
<g id="Node000002" class="node">
<title>Node2</title>
<g id="a_Node000002"><a xlink:href="classfr_1_1softsf_1_1sudokufx_1_1configuration_1_1_my_logback_config.html#a6f72c3e944dc4bad5ad7ebf8e60ac763" target="_top" xlink:title="Constructor that initializes the logging configuration.">
<polygon fill="white" stroke="#666666" points="386.75,-57 210.25,-57 210.25,-25 386.75,-25 386.75,-57"/>
<text text-anchor="start" x="218.25" y="-43.5" font-family="Helvetica,sans-Serif" font-size="10.00">fr.softsf.sudokufx.configuration.</text>
<text text-anchor="middle" x="298.5" y="-31.5" font-family="Helvetica,sans-Serif" font-size="10.00">MyLogbackConfig.MyLogbackConfig</text>
</a>
</g>
</g>
<!-- Node1&#45;&gt;Node2 -->
<g id="edge1_Node000001_Node000002" class="edge">
<title>Node1&#45;&gt;Node2</title>
<g id="a_edge1_Node000001_Node000002"><a xlink:title=" ">
<path fill="none" stroke="#63b8ff" d="M174.49,-34.34C182.46,-34.26 190.57,-34.23 198.63,-34.26"/>
<polygon fill="#63b8ff" stroke="#63b8ff" points="198.44,-37.76 208.46,-34.32 198.49,-30.76 198.44,-37.76"/>
</a>
</g>
</g>
<!-- Node2&#45;&gt;Node1 -->
<g id="edge2_Node000002_Node000001" class="edge">
<title>Node2&#45;&gt;Node1</title>
<g id="a_edge2_Node000002_Node000001"><a xlink:title=" ">
<path fill="none" stroke="#63b8ff" d="M209.98,-47.67C202,-47.74 193.89,-47.77 185.83,-47.74"/>
<polygon fill="#63b8ff" stroke="#63b8ff" points="186.03,-44.24 176.01,-47.67 185.98,-51.24 186.03,-44.24"/>
</a>
</g>
</g>
<!-- Node3 -->
<g id="Node000003" class="node">
<title>Node3</title>
<g id="a_Node000003"><a xlink:href="interfacefr_1_1softsf_1_1sudokufx_1_1interfaces_1_1_i_os_folder_factory.html#a1977295e62b8132b09defe7cb7858534" target="_top" xlink:title="Retrieves the path to the OS&#45;specific logs folder.">
<polygon fill="white" stroke="#666666" points="611.25,-82 422.75,-82 422.75,-50 611.25,-50 611.25,-82"/>
<text text-anchor="start" x="430.75" y="-68.5" font-family="Helvetica,sans-Serif" font-size="10.00">fr.softsf.sudokufx.interfaces.</text>
<text text-anchor="middle" x="517" y="-56.5" font-family="Helvetica,sans-Serif" font-size="10.00">IOsFolderFactory.getOsLogsFolderPath</text>
</a>
</g>
</g>
<!-- Node2&#45;&gt;Node3 -->
<g id="edge3_Node000002_Node000003" class="edge">
<title>Node2&#45;&gt;Node3</title>
<g id="a_edge3_Node000002_Node000003"><a xlink:title=" ">
<path fill="none" stroke="#63b8ff" d="M387.25,-51.13C395.13,-52.04 403.17,-52.97 411.18,-53.9"/>
<polygon fill="#63b8ff" stroke="#63b8ff" points="410.64,-57.36 420.97,-55.03 411.44,-50.4 410.64,-57.36"/>
</a>
</g>
</g>
<!-- Node4 -->
<g id="Node000004" class="node">
<title>Node4</title>
<g id="a_Node000004"><a xlink:href="classfr_1_1softsf_1_1sudokufx_1_1configuration_1_1_my_logback_config.html#a764a3472e63655858b4d301df2d22520" target="_top" xlink:title="Prints the logger status to the log in case of errors or warnings.">
<polygon fill="white" stroke="#666666" points="597.38,-32 436.62,-32 436.62,0 597.38,0 597.38,-32"/>
<text text-anchor="start" x="444.62" y="-18.5" font-family="Helvetica,sans-Serif" font-size="10.00">fr.softsf.sudokufx.configuration.</text>
<text text-anchor="middle" x="517" y="-6.5" font-family="Helvetica,sans-Serif" font-size="10.00">MyLogbackConfig.printLogStatus</text>
</a>
</g>
</g>
<!-- Node2&#45;&gt;Node4 -->
<g id="edge4_Node000002_Node000004" class="edge">
<title>Node2&#45;&gt;Node4</title>
<g id="a_edge4_Node000002_Node000004"><a xlink:title=" ">
<path fill="none" stroke="#63b8ff" d="M387.25,-30.87C399.63,-29.44 412.39,-27.96 424.83,-26.53"/>
<polygon fill="#63b8ff" stroke="#63b8ff" points="425.12,-30.02 434.65,-25.39 424.32,-23.06 425.12,-30.02"/>
</a>
</g>
</g>
</g>
</svg>
