<?xml version="1.0" encoding="UTF-8" standalone="no"?>
<!DOCTYPE svg PUBLIC "-//W3C//DTD SVG 1.1//EN"
 "http://www.w3.org/Graphics/SVG/1.1/DTD/svg11.dtd">
<!-- Generated by graphviz version 12.2.0 (20241103.1931)
 -->
<!-- Title: fr.softsf.sudokufx.service.FxmlService Pages: 1 -->
<svg width="349pt" height="428pt"
 viewBox="0.00 0.00 349.38 428.00" xmlns="http://www.w3.org/2000/svg" xmlns:xlink="http://www.w3.org/1999/xlink">

<svg id="main" version="1.1" xmlns="http://www.w3.org/2000/svg" xmlns:xlink="http://www.w3.org/1999/xlink" xml:space="preserve">

<style type="text/css"><![CDATA[
.node, .edge {opacity: 0.7;}
.node.selected, .edge.selected {opacity: 1;}
.edge:hover path { stroke: red; }
.edge:hover polygon { stroke: red; fill: red; }
]]></style>
<script type="application/ecmascript" xlink:href="svg.min.js"/>
<svg id="graph" class="graph">
<g id="graph0" class="graph" transform="scale(1 1) rotate(0) translate(4 424)">
<title>fr.softsf.sudokufx.service.FxmlService</title>
<!-- Node1 -->
<g id="Node000001" class="node">
<title>Node1</title>
<g id="a_Node000001"><a xlink:title="FxmlService is a Spring service that manages the loading of FXML files and updating the root of the J...">
<polygon fill="#999999" stroke="none" points="248.38,-136 108.88,-136 108.88,0 248.38,0 248.38,-136"/>
<text text-anchor="start" x="121.62" y="-122.5" font-family="Helvetica,sans-Serif" font-size="10.00">fr.softsf.sudokufx.service.</text>
<text text-anchor="start" x="151.25" y="-110.5" font-family="Helvetica,sans-Serif" font-size="10.00">FxmlService</text>
<text text-anchor="start" x="177.12" y="-94.5" font-family="Helvetica,sans-Serif" font-size="10.00"> </text>
<text text-anchor="start" x="112.88" y="-78.5" font-family="Helvetica,sans-Serif" font-size="10.00">+</text>
<text text-anchor="start" x="122.88" y="-78.5" font-family="Helvetica,sans-Serif" font-size="10.00">FxmlService(FXMLLoader</text>
<text text-anchor="start" x="122.88" y="-66.5" font-family="Helvetica,sans-Serif" font-size="10.00"> fxmlLoader)</text>
<text text-anchor="start" x="112.88" y="-50.5" font-family="Helvetica,sans-Serif" font-size="10.00">+</text>
<text text-anchor="start" x="122.88" y="-50.5" font-family="Helvetica,sans-Serif" font-size="10.00">void setDynamicFontSize()</text>
<text text-anchor="start" x="112.88" y="-34.5" font-family="Helvetica,sans-Serif" font-size="10.00">+</text>
<text text-anchor="start" x="122.88" y="-34.5" font-family="Helvetica,sans-Serif" font-size="10.00">void setRootByFXMLName</text>
<text text-anchor="start" x="122.88" y="-22.5" font-family="Helvetica,sans-Serif" font-size="10.00">(final String fxml)</text>
<text text-anchor="start" x="112.88" y="-6.5" font-family="Helvetica,sans-Serif" font-size="10.00">~</text>
<text text-anchor="start" x="122.88" y="-6.5" font-family="Helvetica,sans-Serif" font-size="10.00">public&lt; T &gt; T getController()</text>
<polygon fill="#666666" stroke="#666666" points="108.88,-106 108.88,-106 248.38,-106 248.38,-106 108.88,-106"/>
<polygon fill="#666666" stroke="#666666" points="108.88,-90 108.88,-90 248.38,-90 248.38,-90 108.88,-90"/>
<polygon fill="none" stroke="#666666" points="108.88,0 108.88,-136 248.38,-136 248.38,0 108.88,0"/>
</a>
</g>
</g>
<!-- Node2 -->
<g id="Node000002" class="node">
<title>Node2</title>
<g id="a_Node000002"><a xlink:href="interfacefr_1_1softsf_1_1sudokufx_1_1interfaces_1_1_i_scene_provider.html" target="_top" xlink:title="Interface ISceneProvider.">
<polygon fill="white" stroke="none" points="133.25,-420 0,-420 0,-356 133.25,-356 133.25,-420"/>
<text text-anchor="start" x="4" y="-406.5" font-family="Helvetica,sans-Serif" font-size="10.00">fr.softsf.sudokufx.interfaces.</text>
<text text-anchor="start" x="33.25" y="-394.5" font-family="Helvetica,sans-Serif" font-size="10.00">ISceneProvider</text>
<text text-anchor="start" x="65.12" y="-378.5" font-family="Helvetica,sans-Serif" font-size="10.00"> </text>
<text text-anchor="start" x="5.25" y="-362.5" font-family="Helvetica,sans-Serif" font-size="10.00">+</text>
<text text-anchor="start" x="16.5" y="-362.5" font-family="Helvetica,sans-Serif" font-size="10.00">default Scene getScene()</text>
<polygon fill="#666666" stroke="#666666" points="0,-390 0,-390 133.25,-390 133.25,-390 0,-390"/>
<polygon fill="#666666" stroke="#666666" points="0,-374 0,-374 133.25,-374 133.25,-374 0,-374"/>
<polygon fill="none" stroke="#666666" points="0,-356 0,-420 133.25,-420 133.25,-356 0,-356"/>
</a>
</g>
</g>
<!-- Node2&#45;&gt;Node1 -->
<g id="edge1_Node000001_Node000002" class="edge">
<title>Node2&#45;&gt;Node1</title>
<g id="a_edge1_Node000001_Node000002"><a xlink:title=" ">
<path fill="none" stroke="#63b8ff" d="M54.17,-345.24C43.84,-302.8 34.15,-236.08 56.62,-184 67.87,-157.94 88.25,-135.05 109.17,-116.7"/>
<polygon fill="none" stroke="#63b8ff" points="50.75,-345.99 56.62,-354.81 57.53,-344.25 50.75,-345.99"/>
</a>
</g>
</g>
<!-- Node5 -->
<g id="Node000005" class="node">
<title>Node5</title>
<g id="a_Node000005"><a xlink:href="classfr_1_1softsf_1_1sudokufx_1_1utils_1_1_dynamic_font_size.html" target="_top" xlink:title="Manages dynamic font sizing based on the dimensions of a JavaFX Scene.">
<polygon fill="white" stroke="none" points="192,-308 65.25,-308 65.25,-184 192,-184 192,-308"/>
<text text-anchor="start" x="78.38" y="-294.5" font-family="Helvetica,sans-Serif" font-size="10.00">fr.softsf.sudokufx.utils.</text>
<text text-anchor="start" x="89.62" y="-282.5" font-family="Helvetica,sans-Serif" font-size="10.00">DynamicFontSize</text>
<text text-anchor="start" x="70.75" y="-266.5" font-family="Helvetica,sans-Serif" font-size="10.00">&#45;</text>
<text text-anchor="start" x="79.25" y="-266.5" font-family="Helvetica,sans-Serif" font-size="10.00">double currentFontSize</text>
<text text-anchor="start" x="69.25" y="-250.5" font-family="Helvetica,sans-Serif" font-size="10.00">+</text>
<text text-anchor="start" x="79.25" y="-250.5" font-family="Helvetica,sans-Serif" font-size="10.00">DynamicFontSize()</text>
<text text-anchor="start" x="69.25" y="-234.5" font-family="Helvetica,sans-Serif" font-size="10.00">+</text>
<text text-anchor="start" x="79.25" y="-234.5" font-family="Helvetica,sans-Serif" font-size="10.00">void updateFontSize()</text>
<text text-anchor="start" x="69.25" y="-218.5" font-family="Helvetica,sans-Serif" font-size="10.00">~</text>
<text text-anchor="start" x="79.25" y="-218.5" font-family="Helvetica,sans-Serif" font-size="10.00">DynamicFontSize(Scene</text>
<text text-anchor="start" x="79.25" y="-206.5" font-family="Helvetica,sans-Serif" font-size="10.00"> scene)</text>
<text text-anchor="start" x="70.75" y="-190.5" font-family="Helvetica,sans-Serif" font-size="10.00">&#45;</text>
<text text-anchor="start" x="79.25" y="-190.5" font-family="Helvetica,sans-Serif" font-size="10.00">void initialize()</text>
<polygon fill="#666666" stroke="#666666" points="65.25,-278 65.25,-278 192,-278 192,-278 65.25,-278"/>
<polygon fill="#666666" stroke="#666666" points="65.25,-262 65.25,-262 77.25,-262 77.25,-262 65.25,-262"/>
<polygon fill="#666666" stroke="#666666" points="77.25,-262 77.25,-262 192,-262 192,-262 77.25,-262"/>
<polygon fill="none" stroke="#666666" points="65.25,-184 65.25,-308 192,-308 192,-184 65.25,-184"/>
</a>
</g>
</g>
<!-- Node2&#45;&gt;Node5 -->
<g id="edge5_Node000005_Node000002" class="edge">
<title>Node2&#45;&gt;Node5</title>
<g id="a_edge5_Node000005_Node000002"><a xlink:title=" ">
<path fill="none" stroke="#63b8ff" d="M84.88,-345.78C90.15,-333.89 96.01,-320.65 101.69,-307.83"/>
<polygon fill="none" stroke="#63b8ff" points="81.69,-344.33 80.84,-354.89 88.09,-347.17 81.69,-344.33"/>
</a>
</g>
</g>
<!-- Node3 -->
<g id="Node000003" class="node">
<title>Node3</title>
<g id="a_Node000003"><a xlink:title=" ">
<polygon fill="white" stroke="none" points="216.5,-414 180.75,-414 180.75,-362 216.5,-362 216.5,-414"/>
<text text-anchor="start" x="184.75" y="-400.5" font-family="Helvetica,sans-Serif" font-size="10.00">Scene</text>
<text text-anchor="start" x="197.12" y="-384.5" font-family="Helvetica,sans-Serif" font-size="10.00"> </text>
<text text-anchor="start" x="197.12" y="-368.5" font-family="Helvetica,sans-Serif" font-size="10.00"> </text>
<polygon fill="#666666" stroke="#666666" points="180.75,-396 180.75,-396 216.5,-396 216.5,-396 180.75,-396"/>
<polygon fill="#666666" stroke="#666666" points="180.75,-380 180.75,-380 216.5,-380 216.5,-380 180.75,-380"/>
<polygon fill="none" stroke="#666666" points="180.75,-362 180.75,-414 216.5,-414 216.5,-362 180.75,-362"/>
</a>
</g>
</g>
<!-- Node3&#45;&gt;Node1 -->
<g id="edge2_Node000001_Node000003" class="edge">
<title>Node3&#45;&gt;Node1</title>
<g id="a_edge2_Node000001_Node000003"><a xlink:title=" ">
<path fill="none" stroke="#63b8ff" d="M205.88,-362.02C207.79,-354.38 209.6,-345.9 210.62,-338 221.13,-256.89 229.5,-234.23 213.62,-154 213.26,-152.14 212.85,-150.27 212.4,-148.4"/>
<polygon fill="none" stroke="#63b8ff" points="212.41,-148.43 206.96,-143.71 209.22,-136.86 214.67,-141.58 212.41,-148.43"/>
</a>
</g>
<text text-anchor="middle" x="238.58" y="-242.5" font-family="Helvetica,sans-Serif" font-size="10.00" fill="grey"> &#45;scene</text>
</g>
<!-- Node3&#45;&gt;Node5 -->
<g id="edge6_Node000005_Node000003" class="edge">
<title>Node3&#45;&gt;Node5</title>
<g id="a_edge6_Node000005_Node000003"><a xlink:title=" ">
<path fill="none" stroke="#63b8ff" d="M186.27,-362.29C180.18,-350.1 172.47,-334.7 164.7,-319.15"/>
<polygon fill="none" stroke="#63b8ff" points="164.82,-319.39 158.56,-315.81 159.45,-308.66 165.72,-312.24 164.82,-319.39"/>
</a>
</g>
<text text-anchor="middle" x="190.11" y="-328.5" font-family="Helvetica,sans-Serif" font-size="10.00" fill="grey"> &#45;scene</text>
</g>
<!-- Node4 -->
<g id="Node000004" class="node">
<title>Node4</title>
<g id="a_Node000004"><a xlink:title=" ">
<polygon fill="white" stroke="none" points="341.38,-272 277.88,-272 277.88,-220 341.38,-220 341.38,-272"/>
<text text-anchor="start" x="281.88" y="-258.5" font-family="Helvetica,sans-Serif" font-size="10.00">FXMLLoader</text>
<text text-anchor="start" x="308.12" y="-242.5" font-family="Helvetica,sans-Serif" font-size="10.00"> </text>
<text text-anchor="start" x="308.12" y="-226.5" font-family="Helvetica,sans-Serif" font-size="10.00"> </text>
<polygon fill="#666666" stroke="#666666" points="277.88,-254 277.88,-254 341.38,-254 341.38,-254 277.88,-254"/>
<polygon fill="#666666" stroke="#666666" points="277.88,-238 277.88,-238 341.38,-238 341.38,-238 277.88,-238"/>
<polygon fill="none" stroke="#666666" points="277.88,-220 277.88,-272 341.38,-272 341.38,-220 277.88,-220"/>
</a>
</g>
</g>
<!-- Node4&#45;&gt;Node1 -->
<g id="edge3_Node000001_Node000004" class="edge">
<title>Node4&#45;&gt;Node1</title>
<g id="a_edge3_Node000001_Node000004"><a xlink:title=" ">
<path fill="none" stroke="#63b8ff" d="M291.13,-220.16C276.69,-200.75 255.79,-172.68 235.92,-145.98"/>
<polygon fill="none" stroke="#63b8ff" points="236.07,-146.18 229.28,-143.76 228.91,-136.56 235.7,-138.98 236.07,-146.18"/>
</a>
</g>
<text text-anchor="middle" x="275.05" y="-156.5" font-family="Helvetica,sans-Serif" font-size="10.00" fill="grey"> &#45;fxmlLoader</text>
</g>
<!-- Node5&#45;&gt;Node1 -->
<g id="edge4_Node000001_Node000005" class="edge">
<title>Node5&#45;&gt;Node1</title>
<g id="a_edge4_Node000001_Node000005"><a xlink:title=" ">
<path fill="none" stroke="#63b8ff" d="M126.86,-184.19C127.68,-173.99 129.23,-163.6 131.88,-154 132.42,-152.03 133.02,-150.05 133.66,-148.08"/>
<polygon fill="none" stroke="#63b8ff" points="133.66,-148.09 132,-141.07 137.85,-136.84 139.5,-143.86 133.66,-148.09"/>
</a>
</g>
<text text-anchor="middle" x="172.75" y="-156.5" font-family="Helvetica,sans-Serif" font-size="10.00" fill="grey"> &#45;dynamicFontSize</text>
</g>
</g>
</svg>
</svg>

<style type='text/css'>
<![CDATA[
[data-mouse-over-selected='false'] { opacity: 0.7; }
[data-mouse-over-selected='true']  { opacity: 1.0; }
]]>
</style>
<script type="application/ecmascript"><![CDATA[
document.addEventListener('DOMContentLoaded', (event) => {
  highlightEdges();
  highlightAdjacentNodes();
});
]]></script>
</svg>
