<?xml version="1.0" encoding="UTF-8" standalone="no"?>
<!DOCTYPE svg PUBLIC "-//W3C//DTD SVG 1.1//EN"
 "http://www.w3.org/Graphics/SVG/1.1/DTD/svg11.dtd">
<!-- Generated by graphviz version 12.2.1 (20241206.2353)
 -->
<!-- Title: fr.softsf.sudokufx.utils.sudoku.GridMaster.resoudreLaGrille Pages: 1 -->
<svg width="785pt" height="190pt"
 viewBox="0.00 0.00 784.50 190.00" xmlns="http://www.w3.org/2000/svg" xmlns:xlink="http://www.w3.org/1999/xlink">
<g id="graph0" class="graph" transform="scale(1 1) rotate(0) translate(4 186)">
<title>fr.softsf.sudokufx.utils.sudoku.GridMaster.resoudreLaGrille</title>
<!-- Node1 -->
<g id="Node000001" class="node">
<title>Node1</title>
<g id="a_Node000001"><a xlink:title=" ">
<polygon fill="#999999" stroke="#666666" points="151,-104 0,-104 0,-72 151,-72 151,-104"/>
<text text-anchor="start" x="8" y="-90.5" font-family="Helvetica,sans-Serif" font-size="10.00">fr.softsf.sudokufx.utils.sudoku.</text>
<text text-anchor="middle" x="75.5" y="-78.5" font-family="Helvetica,sans-Serif" font-size="10.00">GridMaster.resoudreLaGrille</text>
</a>
</g>
</g>
<!-- Node2 -->
<g id="Node000002" class="node">
<title>Node2</title>
<g id="a_Node000002"><a xlink:href="classfr_1_1softsf_1_1sudokufx_1_1utils_1_1sudoku_1_1_grid_master.html#a46d1bfadcbb911b5a718508185da341f" target="_top" xlink:title="Calcule les possibilités pour chaque case de la grille de Sudoku.">
<polygon fill="white" stroke="#666666" points="351.12,-177 200.12,-177 200.12,-145 351.12,-145 351.12,-177"/>
<text text-anchor="start" x="208.12" y="-163.5" font-family="Helvetica,sans-Serif" font-size="10.00">fr.softsf.sudokufx.utils.sudoku.</text>
<text text-anchor="middle" x="275.62" y="-151.5" font-family="Helvetica,sans-Serif" font-size="10.00">GridMaster.getPossibilites</text>
</a>
</g>
</g>
<!-- Node1&#45;&gt;Node2 -->
<g id="edge1_Node000001_Node000002" class="edge">
<title>Node1&#45;&gt;Node2</title>
<g id="a_edge1_Node000001_Node000002"><a xlink:title=" ">
<path fill="none" stroke="#63b8ff" d="M117.54,-104.43C138.28,-112.62 163.9,-122.55 187,-131 195.9,-134.25 205.35,-137.6 214.62,-140.82"/>
<polygon fill="#63b8ff" stroke="#63b8ff" points="213.35,-144.09 223.94,-144.04 215.63,-137.47 213.35,-144.09"/>
</a>
</g>
</g>
<!-- Node5 -->
<g id="Node000005" class="node">
<title>Node5</title>
<g id="a_Node000005"><a xlink:href="classfr_1_1softsf_1_1sudokufx_1_1utils_1_1sudoku_1_1_grid_master.html#ad07acfe4c763044df860c349c6c565ef" target="_top" xlink:title="Remplit récursivement la grille Sudoku (backtracking).">
<polygon fill="white" stroke="#666666" points="351.12,-104 200.12,-104 200.12,-72 351.12,-72 351.12,-104"/>
<text text-anchor="start" x="208.12" y="-90.5" font-family="Helvetica,sans-Serif" font-size="10.00">fr.softsf.sudokufx.utils.sudoku.</text>
<text text-anchor="middle" x="275.62" y="-78.5" font-family="Helvetica,sans-Serif" font-size="10.00">GridMaster.remplirLaGrille</text>
</a>
</g>
</g>
<!-- Node1&#45;&gt;Node5 -->
<g id="edge4_Node000001_Node000005" class="edge">
<title>Node1&#45;&gt;Node5</title>
<g id="a_edge4_Node000001_Node000005"><a xlink:title=" ">
<path fill="none" stroke="#63b8ff" d="M151.4,-88C163.57,-88 176.25,-88 188.65,-88"/>
<polygon fill="#63b8ff" stroke="#63b8ff" points="188.43,-91.5 198.43,-88 188.43,-84.5 188.43,-91.5"/>
</a>
</g>
</g>
<!-- Node9 -->
<g id="Node000009" class="node">
<title>Node9</title>
<g id="a_Node000009"><a xlink:href="classfr_1_1softsf_1_1sudokufx_1_1utils_1_1sudoku_1_1_grid_master.html#a5ead122504d9cd11a071e47ccd4610b3" target="_top" xlink:title="Vérifie la cohérence entre la grille et les possibilités.">
<polygon fill="white" stroke="#666666" points="364.25,-54 187,-54 187,-10 364.25,-10 364.25,-54"/>
<text text-anchor="start" x="195" y="-40.5" font-family="Helvetica,sans-Serif" font-size="10.00">fr.softsf.sudokufx.utils.sudoku.</text>
<text text-anchor="start" x="195" y="-28.5" font-family="Helvetica,sans-Serif" font-size="10.00">GridMaster.verifierLaCoherenceEntre</text>
<text text-anchor="middle" x="275.62" y="-16.5" font-family="Helvetica,sans-Serif" font-size="10.00">LaGrilleEtLesPossibilites</text>
</a>
</g>
</g>
<!-- Node1&#45;&gt;Node9 -->
<g id="edge11_Node000001_Node000009" class="edge">
<title>Node1&#45;&gt;Node9</title>
<g id="a_edge11_Node000001_Node000009"><a xlink:title=" ">
<path fill="none" stroke="#63b8ff" d="M134.87,-71.5C150.42,-67.11 167.58,-62.26 184.4,-57.5"/>
<polygon fill="#63b8ff" stroke="#63b8ff" points="185.25,-60.9 193.92,-54.81 183.35,-54.16 185.25,-60.9"/>
</a>
</g>
</g>
<!-- Node3 -->
<g id="Node000003" class="node">
<title>Node3</title>
<g id="a_Node000003"><a xlink:href="classfr_1_1softsf_1_1sudokufx_1_1utils_1_1sudoku_1_1_grid_master.html#ad1a85240278a682b9cf73c8d8ec6398d" target="_top" xlink:title="Initialise le tableau des possibilités pour chaque case.">
<polygon fill="white" stroke="#666666" points="572.62,-182 417.12,-182 417.12,-150 572.62,-150 572.62,-182"/>
<text text-anchor="start" x="425.12" y="-168.5" font-family="Helvetica,sans-Serif" font-size="10.00">fr.softsf.sudokufx.utils.sudoku.</text>
<text text-anchor="middle" x="494.88" y="-156.5" font-family="Helvetica,sans-Serif" font-size="10.00">GridMaster.initialiserPossibilites</text>
</a>
</g>
</g>
<!-- Node2&#45;&gt;Node3 -->
<g id="edge2_Node000002_Node000003" class="edge">
<title>Node2&#45;&gt;Node3</title>
<g id="a_edge2_Node000002_Node000003"><a xlink:title=" ">
<path fill="none" stroke="#63b8ff" d="M351.39,-162.72C368.79,-163.12 387.48,-163.55 405.41,-163.96"/>
<polygon fill="#63b8ff" stroke="#63b8ff" points="405.16,-167.46 415.24,-164.19 405.33,-160.46 405.16,-167.46"/>
</a>
</g>
</g>
<!-- Node4 -->
<g id="Node000004" class="node">
<title>Node4</title>
<g id="a_Node000004"><a xlink:href="classfr_1_1softsf_1_1sudokufx_1_1utils_1_1sudoku_1_1_grid_master.html#aab28df678a8069dd22b13a687bb2ba5b" target="_top" xlink:title="Élimine la valeur des possibilités des cases alentours.">
<polygon fill="white" stroke="#666666" points="776.5,-153 625.5,-153 625.5,-121 776.5,-121 776.5,-153"/>
<text text-anchor="start" x="633.5" y="-139.5" font-family="Helvetica,sans-Serif" font-size="10.00">fr.softsf.sudokufx.utils.sudoku.</text>
<text text-anchor="middle" x="701" y="-127.5" font-family="Helvetica,sans-Serif" font-size="10.00">GridMaster.eliminerPossibilite</text>
</a>
</g>
</g>
<!-- Node3&#45;&gt;Node4 -->
<g id="edge3_Node000003_Node000004" class="edge">
<title>Node3&#45;&gt;Node4</title>
<g id="a_edge3_Node000003_Node000004"><a xlink:title=" ">
<path fill="none" stroke="#63b8ff" d="M573.05,-155.04C586.36,-153.14 600.29,-151.17 613.82,-149.24"/>
<polygon fill="#63b8ff" stroke="#63b8ff" points="614.18,-152.73 623.59,-147.86 613.19,-145.8 614.18,-152.73"/>
</a>
</g>
</g>
<!-- Node5&#45;&gt;Node4 -->
<g id="edge7_Node000005_Node000004" class="edge">
<title>Node5&#45;&gt;Node4</title>
<g id="a_edge7_Node000005_Node000004"><a xlink:title=" ">
<path fill="none" stroke="#63b8ff" d="M351.47,-97.18C367.56,-99.12 384.47,-101.15 400.25,-103 472.21,-111.45 553.92,-120.69 613.84,-127.41"/>
<polygon fill="#63b8ff" stroke="#63b8ff" points="613.31,-130.87 623.64,-128.5 614.09,-123.91 613.31,-130.87"/>
</a>
</g>
</g>
<!-- Node5&#45;&gt;Node5 -->
<g id="edge10_Node000005_Node000005" class="edge">
<title>Node5&#45;&gt;Node5</title>
<g id="a_edge10_Node000005_Node000005"><a xlink:title=" ">
<path fill="none" stroke="#63b8ff" d="M239.9,-104.44C233.23,-113.58 245.14,-122 275.62,-122 292.3,-122 303.41,-119.48 308.98,-115.71"/>
<polygon fill="#63b8ff" stroke="#63b8ff" points="312.4,-116.43 311.04,-105.92 305.55,-114.99 312.4,-116.43"/>
</a>
</g>
</g>
<!-- Node6 -->
<g id="Node000006" class="node">
<title>Node6</title>
<g id="a_Node000006"><a xlink:href="classfr_1_1softsf_1_1sudokufx_1_1utils_1_1sudoku_1_1_grid_master.html#a95ced6119d7d08726742be7d90c37948" target="_top" xlink:title="Choisit une valeur aléatoire parmi les possibilités données.">
<polygon fill="white" stroke="#666666" points="575.25,-94 414.5,-94 414.5,-62 575.25,-62 575.25,-94"/>
<text text-anchor="start" x="422.5" y="-80.5" font-family="Helvetica,sans-Serif" font-size="10.00">fr.softsf.sudokufx.utils.sudoku.</text>
<text text-anchor="middle" x="494.88" y="-68.5" font-family="Helvetica,sans-Serif" font-size="10.00">GridMaster.choisirValeurAleatoire</text>
</a>
</g>
</g>
<!-- Node5&#45;&gt;Node6 -->
<g id="edge5_Node000005_Node000006" class="edge">
<title>Node5&#45;&gt;Node6</title>
<g id="a_edge5_Node000005_Node000006"><a xlink:title=" ">
<path fill="none" stroke="#63b8ff" d="M351.39,-84.56C368,-83.79 385.79,-82.98 402.97,-82.18"/>
<polygon fill="#63b8ff" stroke="#63b8ff" points="402.81,-85.7 412.64,-81.74 402.49,-78.7 402.81,-85.7"/>
</a>
</g>
</g>
<!-- Node8 -->
<g id="Node000008" class="node">
<title>Node8</title>
<g id="a_Node000008"><a xlink:href="classfr_1_1softsf_1_1sudokufx_1_1utils_1_1sudoku_1_1_grid_master.html#a2bfd5ca8d30b4f51db2a81d8c9a5b641" target="_top" xlink:title="Trouve la case vide avec le moins de possibilités.">
<polygon fill="white" stroke="#666666" points="589.5,-44 400.25,-44 400.25,0 589.5,0 589.5,-44"/>
<text text-anchor="start" x="408.25" y="-30.5" font-family="Helvetica,sans-Serif" font-size="10.00">fr.softsf.sudokufx.utils.sudoku.</text>
<text text-anchor="start" x="408.25" y="-18.5" font-family="Helvetica,sans-Serif" font-size="10.00">GridMaster.laCaseVideAvecLeMoinsDe</text>
<text text-anchor="middle" x="494.88" y="-6.5" font-family="Helvetica,sans-Serif" font-size="10.00">Possibilites</text>
</a>
</g>
</g>
<!-- Node5&#45;&gt;Node8 -->
<g id="edge8_Node000005_Node000008" class="edge">
<title>Node5&#45;&gt;Node8</title>
<g id="a_edge8_Node000005_Node000008"><a xlink:title=" ">
<path fill="none" stroke="#63b8ff" d="M335.14,-71.56C344.87,-68.75 354.86,-65.82 364.25,-63 380.2,-58.2 397.2,-52.94 413.46,-47.83"/>
<polygon fill="#63b8ff" stroke="#63b8ff" points="414.1,-51.3 422.58,-44.95 411.99,-44.62 414.1,-51.3"/>
</a>
</g>
</g>
<!-- Node7 -->
<g id="Node000007" class="node">
<title>Node7</title>
<g id="a_Node000007"><a xlink:href="classfr_1_1softsf_1_1sudokufx_1_1utils_1_1sudoku_1_1_grid_master.html#afa58a9e419a56117d305014b687b8079" target="_top" xlink:title="Compte le nombre de bits à 1 dans un entier.">
<polygon fill="white" stroke="#666666" points="776.5,-78 625.5,-78 625.5,-46 776.5,-46 776.5,-78"/>
<text text-anchor="start" x="633.5" y="-64.5" font-family="Helvetica,sans-Serif" font-size="10.00">fr.softsf.sudokufx.utils.sudoku.</text>
<text text-anchor="middle" x="701" y="-52.5" font-family="Helvetica,sans-Serif" font-size="10.00">GridMaster.compterBits</text>
</a>
</g>
</g>
<!-- Node6&#45;&gt;Node7 -->
<g id="edge6_Node000006_Node000007" class="edge">
<title>Node6&#45;&gt;Node7</title>
<g id="a_edge6_Node000006_Node000007"><a xlink:title=" ">
<path fill="none" stroke="#63b8ff" d="M575.67,-71.75C588.3,-70.76 601.4,-69.73 614.16,-68.73"/>
<polygon fill="#63b8ff" stroke="#63b8ff" points="614.06,-72.25 623.75,-67.98 613.51,-65.27 614.06,-72.25"/>
</a>
</g>
</g>
<!-- Node8&#45;&gt;Node7 -->
<g id="edge9_Node000008_Node000007" class="edge">
<title>Node8&#45;&gt;Node7</title>
<g id="a_edge9_Node000008_Node000007"><a xlink:title=" ">
<path fill="none" stroke="#63b8ff" d="M589.87,-40.42C597.91,-41.99 606.01,-43.58 613.98,-45.14"/>
<polygon fill="#63b8ff" stroke="#63b8ff" points="613.17,-48.55 623.65,-47.04 614.51,-41.68 613.17,-48.55"/>
</a>
</g>
</g>
</g>
</svg>
