<?xml version="1.0" encoding="UTF-8" standalone="no"?>
<!DOCTYPE svg PUBLIC "-//W3C//DTD SVG 1.1//EN"
 "http://www.w3.org/Graphics/SVG/1.1/DTD/svg11.dtd">
<!-- Generated by graphviz version 12.2.0 (20241103.1931)
 -->
<!-- Title: fr.softsf.sudofx2024.view.FullMenuView.openingMainStage Pages: 1 -->
<svg width="419pt" height="190pt"
 viewBox="0.00 0.00 418.75 190.00" xmlns="http://www.w3.org/2000/svg" xmlns:xlink="http://www.w3.org/1999/xlink">
<g id="graph0" class="graph" transform="scale(1 1) rotate(0) translate(4 186)">
<title>fr.softsf.sudofx2024.view.FullMenuView.openingMainStage</title>
<!-- Node1 -->
<g id="Node000001" class="node">
<title>Node1</title>
<g id="a_Node000001"><a xlink:title="Opens the main stage and handles the transition from splash screen to full menu.">
<polygon fill="#999999" stroke="#666666" points="160,-107 0,-107 0,-75 160,-75 160,-107"/>
<text text-anchor="start" x="8" y="-93.5" font-family="Helvetica,sans-Serif" font-size="10.00">fr.softsf.sudofx2024.view.</text>
<text text-anchor="middle" x="80" y="-81.5" font-family="Helvetica,sans-Serif" font-size="10.00">FullMenuView.openingMainStage</text>
</a>
</g>
</g>
<!-- Node2 -->
<g id="Node000002" class="node">
<title>Node2</title>
<g id="a_Node000002"><a xlink:href="classfr_1_1softsf_1_1sudofx2024_1_1view_1_1_full_menu_view.html#a54c9fa2f80d9e90ad2b5f617834904ad" target="_top" xlink:title="Configures the primary stage for the full menu view.">
<polygon fill="white" stroke="#666666" points="393.88,-182 212.88,-182 212.88,-150 393.88,-150 393.88,-182"/>
<text text-anchor="start" x="220.88" y="-168.5" font-family="Helvetica,sans-Serif" font-size="10.00">fr.softsf.sudofx2024.view.</text>
<text text-anchor="middle" x="303.38" y="-156.5" font-family="Helvetica,sans-Serif" font-size="10.00">FullMenuView.openingConfigureStage</text>
</a>
</g>
</g>
<!-- Node1&#45;&gt;Node2 -->
<g id="edge1_Node000001_Node000002" class="edge">
<title>Node1&#45;&gt;Node2</title>
<g id="a_edge1_Node000001_Node000002"><a xlink:title=" ">
<path fill="none" stroke="#63b8ff" d="M114.1,-107.28C136.75,-117.95 167.69,-131.6 196,-141 201.8,-142.92 207.82,-144.76 213.91,-146.5"/>
<polygon fill="#63b8ff" stroke="#63b8ff" points="212.91,-149.85 223.47,-149.12 214.76,-143.1 212.91,-149.85"/>
</a>
</g>
</g>
<!-- Node3 -->
<g id="Node000003" class="node">
<title>Node3</title>
<g id="a_Node000003"><a xlink:href="classfr_1_1softsf_1_1sudofx2024_1_1view_1_1_full_menu_view.html#aac7199e762729a483f0b031a3baebc78" target="_top" xlink:title="Applies a fade&#45;in effect to the given node.">
<polygon fill="white" stroke="#666666" points="375.12,-132 231.62,-132 231.62,-100 375.12,-100 375.12,-132"/>
<text text-anchor="start" x="239.62" y="-118.5" font-family="Helvetica,sans-Serif" font-size="10.00">fr.softsf.sudofx2024.view.</text>
<text text-anchor="middle" x="303.38" y="-106.5" font-family="Helvetica,sans-Serif" font-size="10.00">FullMenuView.openingFadeIn</text>
</a>
</g>
</g>
<!-- Node1&#45;&gt;Node3 -->
<g id="edge2_Node000001_Node000003" class="edge">
<title>Node1&#45;&gt;Node3</title>
<g id="a_edge2_Node000001_Node000003"><a xlink:title=" ">
<path fill="none" stroke="#63b8ff" d="M160.3,-99.95C179.69,-102.15 200.49,-104.49 220.02,-106.7"/>
<polygon fill="#63b8ff" stroke="#63b8ff" points="219.52,-110.17 229.85,-107.81 220.31,-103.21 219.52,-110.17"/>
</a>
</g>
</g>
<!-- Node4 -->
<g id="Node000004" class="node">
<title>Node4</title>
<g id="a_Node000004"><a xlink:href="classfr_1_1softsf_1_1sudofx2024_1_1view_1_1_full_menu_view.html#a66e9003bac689360d53d9a052e59285d" target="_top" xlink:title="Maximizes the primary stage to fill the primary screen.">
<polygon fill="white" stroke="#666666" points="410.75,-82 196,-82 196,-50 410.75,-50 410.75,-82"/>
<text text-anchor="start" x="204" y="-68.5" font-family="Helvetica,sans-Serif" font-size="10.00">fr.softsf.sudofx2024.view.</text>
<text text-anchor="middle" x="303.38" y="-56.5" font-family="Helvetica,sans-Serif" font-size="10.00">FullMenuView.openingMaximizePrimaryStage</text>
</a>
</g>
</g>
<!-- Node1&#45;&gt;Node4 -->
<g id="edge3_Node000001_Node000004" class="edge">
<title>Node1&#45;&gt;Node4</title>
<g id="a_edge3_Node000001_Node000004"><a xlink:title=" ">
<path fill="none" stroke="#63b8ff" d="M160.3,-82.05C168.23,-81.15 176.4,-80.23 184.61,-79.3"/>
<polygon fill="#63b8ff" stroke="#63b8ff" points="184.79,-82.8 194.33,-78.2 184,-75.85 184.79,-82.8"/>
</a>
</g>
</g>
<!-- Node5 -->
<g id="Node000005" class="node">
<title>Node5</title>
<g id="a_Node000005"><a xlink:href="classfr_1_1softsf_1_1sudofx2024_1_1view_1_1_full_menu_view.html#ab5ff7e8f782048e410a01a3e4bd08aa0" target="_top" xlink:title="Shows the primary stage.">
<polygon fill="white" stroke="#666666" points="385.25,-32 221.5,-32 221.5,0 385.25,0 385.25,-32"/>
<text text-anchor="start" x="229.5" y="-18.5" font-family="Helvetica,sans-Serif" font-size="10.00">fr.softsf.sudofx2024.view.</text>
<text text-anchor="middle" x="303.38" y="-6.5" font-family="Helvetica,sans-Serif" font-size="10.00">FullMenuView.openingShowStage</text>
</a>
</g>
</g>
<!-- Node1&#45;&gt;Node5 -->
<g id="edge4_Node000001_Node000005" class="edge">
<title>Node1&#45;&gt;Node5</title>
<g id="a_edge4_Node000001_Node000005"><a xlink:title=" ">
<path fill="none" stroke="#63b8ff" d="M114.1,-74.72C136.75,-64.05 167.69,-50.4 196,-41 201.8,-39.08 207.82,-37.24 213.91,-35.5"/>
<polygon fill="#63b8ff" stroke="#63b8ff" points="214.76,-38.9 223.47,-32.88 212.91,-32.15 214.76,-38.9"/>
</a>
</g>
</g>
</g>
</svg>
