<?xml version="1.0" encoding="UTF-8" standalone="no"?>
<!DOCTYPE svg PUBLIC "-//W3C//DTD SVG 1.1//EN"
 "http://www.w3.org/Graphics/SVG/1.1/DTD/svg11.dtd">
<!-- Generated by graphviz version 12.2.1 (20241206.2353)
 -->
<!-- Title: fr.softsf.sudokufx.configuration.os.WindowsFolderFactory Pages: 1 -->
<svg width="168pt" height="256pt"
 viewBox="0.00 0.00 167.50 256.00" xmlns="http://www.w3.org/2000/svg" xmlns:xlink="http://www.w3.org/1999/xlink">
<g id="graph0" class="graph" transform="scale(1 1) rotate(0) translate(4 252)">
<title>fr.softsf.sudokufx.configuration.os.WindowsFolderFactory</title>
<!-- Node1 -->
<g id="Node000001" class="node">
<title>Node1</title>
<g id="a_Node000001"><a xlink:title="Factory class for creating and managing WINDOWS OS&#45;specific folders for the SudoFX application.">
<polygon fill="#999999" stroke="none" points="159.5,-160 0,-160 0,0 159.5,0 159.5,-160"/>
<text text-anchor="start" x="4" y="-146.5" font-family="Helvetica,sans-Serif" font-size="10.00">fr.softsf.sudokufx.configuration.os.</text>
<text text-anchor="start" x="29.5" y="-134.5" font-family="Helvetica,sans-Serif" font-size="10.00">WindowsFolderFactory</text>
<text text-anchor="start" x="8.62" y="-118.5" font-family="Helvetica,sans-Serif" font-size="10.00">&#45;</text>
<text text-anchor="start" x="20.25" y="-118.5" font-family="Helvetica,sans-Serif" font-size="10.00">final String dataFolderFor</text>
<text text-anchor="start" x="20.25" y="-106.5" font-family="Helvetica,sans-Serif" font-size="10.00">SudoFx</text>
<text text-anchor="start" x="8.62" y="-90.5" font-family="Helvetica,sans-Serif" font-size="10.00">&#45;</text>
<text text-anchor="start" x="20.25" y="-90.5" font-family="Helvetica,sans-Serif" font-size="10.00">final String logsFolderFor</text>
<text text-anchor="start" x="20.25" y="-78.5" font-family="Helvetica,sans-Serif" font-size="10.00">SudoFx</text>
<text text-anchor="start" x="7.12" y="-62.5" font-family="Helvetica,sans-Serif" font-size="10.00">+</text>
<text text-anchor="start" x="20.25" y="-62.5" font-family="Helvetica,sans-Serif" font-size="10.00">WindowsFolderFactory</text>
<text text-anchor="start" x="20.25" y="-50.5" font-family="Helvetica,sans-Serif" font-size="10.00">(String dataFolderPath,</text>
<text text-anchor="start" x="20.25" y="-38.5" font-family="Helvetica,sans-Serif" font-size="10.00"> String logsFolderPath)</text>
<text text-anchor="start" x="7.12" y="-22.5" font-family="Helvetica,sans-Serif" font-size="10.00">+</text>
<text text-anchor="start" x="20.25" y="-22.5" font-family="Helvetica,sans-Serif" font-size="10.00">String getOsDataFolderPath()</text>
<text text-anchor="start" x="7.12" y="-6.5" font-family="Helvetica,sans-Serif" font-size="10.00">+</text>
<text text-anchor="start" x="20.25" y="-6.5" font-family="Helvetica,sans-Serif" font-size="10.00">String getOsLogsFolderPath()</text>
<polygon fill="#666666" stroke="#666666" points="0,-130 0,-130 159.5,-130 159.5,-130 0,-130"/>
<polygon fill="#666666" stroke="#666666" points="0,-74 0,-74 18.25,-74 18.25,-74 0,-74"/>
<polygon fill="#666666" stroke="#666666" points="18.25,-74 18.25,-74 159.5,-74 159.5,-74 18.25,-74"/>
<polygon fill="none" stroke="#666666" points="0,0 0,-160 159.5,-160 159.5,0 0,0"/>
</a>
</g>
</g>
<!-- Node2 -->
<g id="Node000002" class="node">
<title>Node2</title>
<g id="a_Node000002"><a xlink:title=" ">
<polygon fill="white" stroke="none" points="121.62,-248 37.88,-248 37.88,-196 121.62,-196 121.62,-248"/>
<text text-anchor="start" x="41.88" y="-234.5" font-family="Helvetica,sans-Serif" font-size="10.00">IOsFolderFactory</text>
<text text-anchor="start" x="78.25" y="-218.5" font-family="Helvetica,sans-Serif" font-size="10.00"> </text>
<text text-anchor="start" x="78.25" y="-202.5" font-family="Helvetica,sans-Serif" font-size="10.00"> </text>
<polygon fill="#666666" stroke="#666666" points="37.88,-230 37.88,-230 121.62,-230 121.62,-230 37.88,-230"/>
<polygon fill="#666666" stroke="#666666" points="37.88,-214 37.88,-214 121.62,-214 121.62,-214 37.88,-214"/>
<polygon fill="none" stroke="#666666" points="37.88,-196 37.88,-248 121.62,-248 121.62,-196 37.88,-196"/>
</a>
</g>
</g>
<!-- Node2&#45;&gt;Node1 -->
<g id="edge1_Node000001_Node000002" class="edge">
<title>Node2&#45;&gt;Node1</title>
<g id="a_edge1_Node000001_Node000002"><a xlink:title=" ">
<path fill="none" stroke="#63b8ff" d="M79.75,-185.05C79.75,-177.21 79.75,-168.61 79.75,-159.83"/>
<polygon fill="none" stroke="#63b8ff" points="76.25,-184.78 79.75,-194.78 83.25,-184.78 76.25,-184.78"/>
</a>
</g>
</g>
</g>
</svg>
