<?xml version="1.0" encoding="UTF-8" standalone="no"?>
<!DOCTYPE svg PUBLIC "-//W3C//DTD SVG 1.1//EN"
 "http://www.w3.org/Graphics/SVG/1.1/DTD/svg11.dtd">
<!-- Generated by graphviz version 12.2.0 (20241103.1931)
 -->
<!-- Title: fr.softsf.sudofx2024.view.SplashScreenView.nodesConfiguration Pages: 1 -->
<svg width="619pt" height="400pt"
 viewBox="0.00 0.00 618.50 400.00" xmlns="http://www.w3.org/2000/svg" xmlns:xlink="http://www.w3.org/1999/xlink">
<g id="graph0" class="graph" transform="scale(1 1) rotate(0) translate(4 396)">
<title>fr.softsf.sudofx2024.view.SplashScreenView.nodesConfiguration</title>
<!-- Node1 -->
<g id="Node000001" class="node">
<title>Node1</title>
<g id="a_Node000001"><a xlink:title="Configures the properties and styles of the UI nodes.">
<polygon fill="#999999" stroke="#666666" points="184.75,-224 0,-224 0,-192 184.75,-192 184.75,-224"/>
<text text-anchor="start" x="8" y="-210.5" font-family="Helvetica,sans-Serif" font-size="10.00">fr.softsf.sudofx2024.view.</text>
<text text-anchor="middle" x="92.38" y="-198.5" font-family="Helvetica,sans-Serif" font-size="10.00">SplashScreenView.nodesConfiguration</text>
</a>
</g>
</g>
<!-- Node2 -->
<g id="Node000002" class="node">
<title>Node2</title>
<g id="a_Node000002"><a xlink:href="classfr_1_1softsf_1_1sudofx2024_1_1view_1_1_splash_screen_view.html#a2b93424a2f3aed2d4d5657907882bf32" target="_top" xlink:title="Animates the SVG flower.">
<polygon fill="white" stroke="#666666" points="414.12,-392 232.38,-392 232.38,-360 414.12,-360 414.12,-392"/>
<text text-anchor="start" x="240.38" y="-378.5" font-family="Helvetica,sans-Serif" font-size="10.00">fr.softsf.sudofx2024.view.</text>
<text text-anchor="middle" x="323.25" y="-366.5" font-family="Helvetica,sans-Serif" font-size="10.00">SplashScreenView.animateFlowerSvg</text>
</a>
</g>
</g>
<!-- Node1&#45;&gt;Node2 -->
<g id="edge1_Node000001_Node000002" class="edge">
<title>Node1&#45;&gt;Node2</title>
<g id="a_edge1_Node000001_Node000002"><a xlink:title=" ">
<path fill="none" stroke="#63b8ff" d="M103.03,-224.17C121.76,-254.09 166.07,-318.05 220.75,-351 223.05,-352.38 225.41,-353.69 227.84,-354.92"/>
<polygon fill="#63b8ff" stroke="#63b8ff" points="226.16,-358.01 236.71,-358.97 229.07,-351.64 226.16,-358.01"/>
</a>
</g>
</g>
<!-- Node3 -->
<g id="Node000003" class="node">
<title>Node3</title>
<g id="a_Node000003"><a xlink:href="classfr_1_1softsf_1_1sudofx2024_1_1utils_1_1_j_v_m_application_properties.html#ae7e5d0f7f5f71697b1e87f2a1d73085f" target="_top" xlink:title="Retrieves the current application name from system properties.">
<polygon fill="white" stroke="#666666" points="417.5,-342 229,-342 229,-310 417.5,-310 417.5,-342"/>
<text text-anchor="start" x="237" y="-328.5" font-family="Helvetica,sans-Serif" font-size="10.00">fr.softsf.sudofx2024.utils.</text>
<text text-anchor="middle" x="323.25" y="-316.5" font-family="Helvetica,sans-Serif" font-size="10.00">JVMApplicationProperties.getAppName</text>
</a>
</g>
</g>
<!-- Node1&#45;&gt;Node3 -->
<g id="edge2_Node000001_Node000003" class="edge">
<title>Node1&#45;&gt;Node3</title>
<g id="a_edge2_Node000001_Node000003"><a xlink:title=" ">
<path fill="none" stroke="#63b8ff" d="M110.92,-224.32C134.24,-245.14 177.57,-280.88 220.75,-301 224.31,-302.66 228,-304.22 231.76,-305.68"/>
<polygon fill="#63b8ff" stroke="#63b8ff" points="230.51,-308.95 241.11,-309.04 232.88,-302.36 230.51,-308.95"/>
</a>
</g>
</g>
<!-- Node5 -->
<g id="Node000005" class="node">
<title>Node5</title>
<g id="a_Node000005"><a xlink:href="classfr_1_1softsf_1_1sudofx2024_1_1utils_1_1_j_v_m_application_properties.html#a78302d86084a4cb9a23a91cbcf1326ab" target="_top" xlink:title="Retrieves the current application version from system properties.">
<polygon fill="white" stroke="#666666" points="404.38,-292 242.12,-292 242.12,-248 404.38,-248 404.38,-292"/>
<text text-anchor="start" x="250.12" y="-278.5" font-family="Helvetica,sans-Serif" font-size="10.00">fr.softsf.sudofx2024.utils.</text>
<text text-anchor="start" x="250.12" y="-266.5" font-family="Helvetica,sans-Serif" font-size="10.00">JVMApplicationProperties.getApp</text>
<text text-anchor="middle" x="323.25" y="-254.5" font-family="Helvetica,sans-Serif" font-size="10.00">Version</text>
</a>
</g>
</g>
<!-- Node1&#45;&gt;Node5 -->
<g id="edge4_Node000001_Node000005" class="edge">
<title>Node1&#45;&gt;Node5</title>
<g id="a_edge4_Node000001_Node000005"><a xlink:title=" ">
<path fill="none" stroke="#63b8ff" d="M154.11,-224.45C177.63,-230.82 205.07,-238.26 230.88,-245.25"/>
<polygon fill="#63b8ff" stroke="#63b8ff" points="229.79,-248.58 240.36,-247.82 231.62,-241.82 229.79,-248.58"/>
</a>
</g>
</g>
<!-- Node6 -->
<g id="Node000006" class="node">
<title>Node6</title>
<g id="a_Node000006"><a xlink:href="classfr_1_1softsf_1_1sudofx2024_1_1view_1_1_splash_screen_view.html#a4af4a75277695a0f5cc59b1a3a0aa7d9" target="_top" xlink:title="Retrieves a message indicating the current loading or optimizing state.">
<polygon fill="white" stroke="#666666" points="425.75,-230 220.75,-230 220.75,-186 425.75,-186 425.75,-230"/>
<text text-anchor="start" x="228.75" y="-216.5" font-family="Helvetica,sans-Serif" font-size="10.00">fr.softsf.sudofx2024.view.</text>
<text text-anchor="start" x="228.75" y="-204.5" font-family="Helvetica,sans-Serif" font-size="10.00">SplashScreenView.getLoadingOrOptimizing</text>
<text text-anchor="middle" x="323.25" y="-192.5" font-family="Helvetica,sans-Serif" font-size="10.00">Message</text>
</a>
</g>
</g>
<!-- Node1&#45;&gt;Node6 -->
<g id="edge6_Node000001_Node000006" class="edge">
<title>Node1&#45;&gt;Node6</title>
<g id="a_edge6_Node000001_Node000006"><a xlink:title=" ">
<path fill="none" stroke="#63b8ff" d="M185.15,-208C193.01,-208 201.02,-208 209.02,-208"/>
<polygon fill="#63b8ff" stroke="#63b8ff" points="208.8,-211.5 218.8,-208 208.8,-204.5 208.8,-211.5"/>
</a>
</g>
</g>
<!-- Node8 -->
<g id="Node000008" class="node">
<title>Node8</title>
<g id="a_Node000008"><a xlink:href="classfr_1_1softsf_1_1sudofx2024_1_1view_1_1_splash_screen_view.html#a672339a416dac35399f19b75ee2b30d6" target="_top" xlink:title="Sets up the SVG for the Soft64 text logo in the center of the splash screen.">
<polygon fill="white" stroke="#666666" points="420.5,-168 226,-168 226,-124 420.5,-124 420.5,-168"/>
<text text-anchor="start" x="234" y="-154.5" font-family="Helvetica,sans-Serif" font-size="10.00">fr.softsf.sudofx2024.view.</text>
<text text-anchor="start" x="234" y="-142.5" font-family="Helvetica,sans-Serif" font-size="10.00">SplashScreenView.setSplashscreenvbox</text>
<text text-anchor="middle" x="323.25" y="-130.5" font-family="Helvetica,sans-Serif" font-size="10.00">CenterhboxLogosoft64textsvg</text>
</a>
</g>
</g>
<!-- Node1&#45;&gt;Node8 -->
<g id="edge8_Node000001_Node000008" class="edge">
<title>Node1&#45;&gt;Node8</title>
<g id="a_edge8_Node000001_Node000008"><a xlink:title=" ">
<path fill="none" stroke="#63b8ff" d="M154.11,-191.55C176.83,-185.39 203.22,-178.25 228.25,-171.46"/>
<polygon fill="#63b8ff" stroke="#63b8ff" points="229.06,-174.87 237.79,-168.88 227.23,-168.11 229.06,-174.87"/>
</a>
</g>
</g>
<!-- Node10 -->
<g id="Node000010" class="node">
<title>Node10</title>
<g id="a_Node000010"><a xlink:href="classfr_1_1softsf_1_1sudofx2024_1_1view_1_1_splash_screen_view.html#ad20a23d42d560ce8fa5f66e4f619191c" target="_top" xlink:title="Sets up the SVG for the flower logo in the center of the splash screen.">
<polygon fill="white" stroke="#666666" points="420.5,-106 226,-106 226,-62 420.5,-62 420.5,-106"/>
<text text-anchor="start" x="234" y="-92.5" font-family="Helvetica,sans-Serif" font-size="10.00">fr.softsf.sudofx2024.view.</text>
<text text-anchor="start" x="234" y="-80.5" font-family="Helvetica,sans-Serif" font-size="10.00">SplashScreenView.setSplashscreenvbox</text>
<text text-anchor="middle" x="323.25" y="-68.5" font-family="Helvetica,sans-Serif" font-size="10.00">CenterhboxStackpaneLogoflowersvg</text>
</a>
</g>
</g>
<!-- Node1&#45;&gt;Node10 -->
<g id="edge10_Node000001_Node000010" class="edge">
<title>Node1&#45;&gt;Node10</title>
<g id="a_edge10_Node000001_Node000010"><a xlink:title=" ">
<path fill="none" stroke="#63b8ff" d="M111.5,-191.69C135.11,-171.2 178.38,-136.18 220.75,-115 223.65,-113.55 226.62,-112.16 229.66,-110.81"/>
<polygon fill="#63b8ff" stroke="#63b8ff" points="230.87,-114.1 238.76,-107.03 228.18,-107.64 230.87,-114.1"/>
</a>
</g>
</g>
<!-- Node11 -->
<g id="Node000011" class="node">
<title>Node11</title>
<g id="a_Node000011"><a xlink:href="classfr_1_1softsf_1_1sudofx2024_1_1view_1_1_splash_screen_view.html#a9ee623283777fb8b6a1d129ca18053eb" target="_top" xlink:title="Sets up the SVG for the Sudoku logo in the top section of the splash screen.">
<polygon fill="white" stroke="#666666" points="420.5,-44 226,-44 226,0 420.5,0 420.5,-44"/>
<text text-anchor="start" x="234" y="-30.5" font-family="Helvetica,sans-Serif" font-size="10.00">fr.softsf.sudofx2024.view.</text>
<text text-anchor="start" x="234" y="-18.5" font-family="Helvetica,sans-Serif" font-size="10.00">SplashScreenView.setSplashscreenvbox</text>
<text text-anchor="middle" x="323.25" y="-6.5" font-family="Helvetica,sans-Serif" font-size="10.00">TophboxLogosudosvg</text>
</a>
</g>
</g>
<!-- Node1&#45;&gt;Node11 -->
<g id="edge12_Node000001_Node000011" class="edge">
<title>Node1&#45;&gt;Node11</title>
<g id="a_edge12_Node000001_Node000011"><a xlink:title=" ">
<path fill="none" stroke="#63b8ff" d="M102.29,-191.74C120.4,-160.21 164.59,-90.58 220.75,-53 222.38,-51.91 224.05,-50.85 225.76,-49.83"/>
<polygon fill="#63b8ff" stroke="#63b8ff" points="227.39,-52.93 234.52,-45.1 224.06,-46.77 227.39,-52.93"/>
</a>
</g>
</g>
<!-- Node4 -->
<g id="Node000004" class="node">
<title>Node4</title>
<g id="a_Node000004"><a xlink:href="classfr_1_1softsf_1_1sudofx2024_1_1utils_1_1_my_regex.html#af88c87dd9f51b56c5c60ccab7f9f2bd2" target="_top" xlink:title="Validates a given text against a specified regular expression.">
<polygon fill="white" stroke="#666666" points="610.5,-314 461.75,-314 461.75,-282 610.5,-282 610.5,-314"/>
<text text-anchor="start" x="469.75" y="-300.5" font-family="Helvetica,sans-Serif" font-size="10.00">fr.softsf.sudofx2024.utils.</text>
<text text-anchor="middle" x="536.12" y="-288.5" font-family="Helvetica,sans-Serif" font-size="10.00">MyRegex.isValidatedByRegex</text>
</a>
</g>
</g>
<!-- Node3&#45;&gt;Node4 -->
<g id="edge3_Node000003_Node000004" class="edge">
<title>Node3&#45;&gt;Node4</title>
<g id="a_edge3_Node000003_Node000004"><a xlink:title=" ">
<path fill="none" stroke="#63b8ff" d="M417.97,-313.56C428.63,-312.14 439.46,-310.7 450,-309.3"/>
<polygon fill="#63b8ff" stroke="#63b8ff" points="450.36,-312.79 459.81,-308 449.44,-305.85 450.36,-312.79"/>
</a>
</g>
</g>
<!-- Node5&#45;&gt;Node4 -->
<g id="edge5_Node000005_Node000004" class="edge">
<title>Node5&#45;&gt;Node4</title>
<g id="a_edge5_Node000005_Node000004"><a xlink:title=" ">
<path fill="none" stroke="#63b8ff" d="M404.57,-280.67C419.41,-282.64 434.96,-284.7 449.94,-286.69"/>
<polygon fill="#63b8ff" stroke="#63b8ff" points="449.39,-290.15 459.76,-287.99 450.31,-283.21 449.39,-290.15"/>
</a>
</g>
</g>
<!-- Node7 -->
<g id="Node000007" class="node">
<title>Node7</title>
<g id="a_Node000007"><a xlink:href="classfr_1_1softsf_1_1sudofx2024_1_1utils_1_1_i18n.html#ae6e5beaf9c6e573f50f4eb244e099942" target="_top" xlink:title="Retrieves the localized string value for a given key.">
<polygon fill="white" stroke="#666666" points="599.62,-224 472.62,-224 472.62,-192 599.62,-192 599.62,-224"/>
<text text-anchor="start" x="480.62" y="-210.5" font-family="Helvetica,sans-Serif" font-size="10.00">fr.softsf.sudofx2024.utils.</text>
<text text-anchor="middle" x="536.12" y="-198.5" font-family="Helvetica,sans-Serif" font-size="10.00">I18n.getValue</text>
</a>
</g>
</g>
<!-- Node6&#45;&gt;Node7 -->
<g id="edge7_Node000006_Node000007" class="edge">
<title>Node6&#45;&gt;Node7</title>
<g id="a_edge7_Node000006_Node000007"><a xlink:title=" ">
<path fill="none" stroke="#63b8ff" d="M425.98,-208C437.83,-208 449.74,-208 461.12,-208"/>
<polygon fill="#63b8ff" stroke="#63b8ff" points="460.77,-211.5 470.77,-208 460.77,-204.5 460.77,-211.5"/>
</a>
</g>
</g>
<!-- Node9 -->
<g id="Node000009" class="node">
<title>Node9</title>
<g id="a_Node000009"><a xlink:href="classfr_1_1softsf_1_1sudofx2024_1_1view_1_1_splash_screen_view.html#ad9ca7207c3215d181ab11a4c97956850" target="_top" xlink:title="Creates an SVG shape and applies it to a Region.">
<polygon fill="white" stroke="#666666" points="610.5,-100 461.75,-100 461.75,-68 610.5,-68 610.5,-100"/>
<text text-anchor="start" x="469.75" y="-86.5" font-family="Helvetica,sans-Serif" font-size="10.00">fr.softsf.sudofx2024.view.</text>
<text text-anchor="middle" x="536.12" y="-74.5" font-family="Helvetica,sans-Serif" font-size="10.00">SplashScreenView.createSVG</text>
</a>
</g>
</g>
<!-- Node8&#45;&gt;Node9 -->
<g id="edge9_Node000008_Node000009" class="edge">
<title>Node8&#45;&gt;Node9</title>
<g id="a_edge9_Node000008_Node000009"><a xlink:title=" ">
<path fill="none" stroke="#63b8ff" d="M400.68,-123.53C422.76,-117.04 446.68,-110 468.14,-103.69"/>
<polygon fill="#63b8ff" stroke="#63b8ff" points="469.06,-107.07 477.67,-100.89 467.09,-100.36 469.06,-107.07"/>
</a>
</g>
</g>
<!-- Node10&#45;&gt;Node9 -->
<g id="edge11_Node000010_Node000009" class="edge">
<title>Node10&#45;&gt;Node9</title>
<g id="a_edge11_Node000010_Node000009"><a xlink:title=" ">
<path fill="none" stroke="#63b8ff" d="M420.74,-84C430.56,-84 440.49,-84 450.17,-84"/>
<polygon fill="#63b8ff" stroke="#63b8ff" points="449.9,-87.5 459.9,-84 449.9,-80.5 449.9,-87.5"/>
</a>
</g>
</g>
<!-- Node11&#45;&gt;Node9 -->
<g id="edge13_Node000011_Node000009" class="edge">
<title>Node11&#45;&gt;Node9</title>
<g id="a_edge13_Node000011_Node000009"><a xlink:title=" ">
<path fill="none" stroke="#63b8ff" d="M400.68,-44.47C422.76,-50.96 446.68,-58 468.14,-64.31"/>
<polygon fill="#63b8ff" stroke="#63b8ff" points="467.09,-67.64 477.67,-67.11 469.06,-60.93 467.09,-67.64"/>
</a>
</g>
</g>
</g>
</svg>
