<?xml version="1.0" encoding="UTF-8" standalone="no"?>
<!DOCTYPE svg PUBLIC "-//W3C//DTD SVG 1.1//EN"
 "http://www.w3.org/Graphics/SVG/1.1/DTD/svg11.dtd">
<!-- Generated by graphviz version 12.2.1 (20241206.2353)
 -->
<!-- Title: src/main/java/fr/softsf/sudokufx Pages: 1 -->
<!--zoomable 96 -->

<svg id="main" version="1.1" xmlns="http://www.w3.org/2000/svg" xmlns:xlink="http://www.w3.org/1999/xlink" xml:space="preserve" onload="init(evt)">

<style type="text/css"><![CDATA[
.node, .edge {opacity: 0.7;}
.node.selected, .edge.selected {opacity: 1;}
.edge:hover path { stroke: red; }
.edge:hover polygon { stroke: red; fill: red; }
]]></style>

<defs>
  <circle id="rim" cx="0" cy="0" r="7"/>
  <circle id="rim2" cx="0" cy="0" r="3.5"/>
  <g id="zoomPlus">
    <use xlink:href="#rim" fill="#404040"><set attributeName="fill" to="#808080" begin="zoomplus.mouseover" end="zoomplus.mouseout"/></use>
    <path d="M-4,0h8M0,-4v8" fill="none" stroke="white" stroke-width="1.5" pointer-events="none"/>
  </g>
  <g id="zoomMin">
    <use xlink:href="#rim" fill="#404040"><set attributeName="fill" to="#808080" begin="zoomminus.mouseover" end="zoomminus.mouseout"/></use>
    <path d="M-4,0h8" fill="none" stroke="white" stroke-width="1.5" pointer-events="none"/>
  </g>
  <g id="arrowUp" transform="translate(30 24)">
    <use xlink:href="#rim"/>
    <path pointer-events="none" fill="none" stroke="white" stroke-width="1.5" d="M0,-3.0v7 M-2.5,-0.5L0,-3.0L2.5,-0.5"/>
  </g>
  <g id="arrowRight" transform="rotate(90) translate(36 -43)">
    <use xlink:href="#rim"/>
    <path pointer-events="none" fill="none" stroke="white" stroke-width="1.5" d="M0,-3.0v7 M-2.5,-0.5L0,-3.0L2.5,-0.5"/>
  </g>
  <g id="arrowDown" transform="rotate(180) translate(-30 -48)">
    <use xlink:href="#rim"/>
    <path pointer-events="none" fill="none" stroke="white" stroke-width="1.5" d="M0,-3.0v7 M-2.5,-0.5L0,-3.0L2.5,-0.5"/>
  </g>
  <g id="arrowLeft" transform="rotate(270) translate(-36 17)">
    <use xlink:href="#rim"/>
    <path pointer-events="none" fill="none" stroke="white" stroke-width="1.5" d="M0,-3.0v7 M-2.5,-0.5L0,-3.0L2.5,-0.5"/>
  </g>
  <g id="resetDef">
    <use xlink:href="#rim2" fill="#404040"><set attributeName="fill" to="#808080" begin="reset.mouseover" end="reset.mouseout"/></use>
  </g>
</defs>
<script type="application/ecmascript">
var viewWidth = 944;
var viewHeight = 96;
var sectionId = 'dynsection-0';
</script>
<script type="application/ecmascript" xlink:href="svg.min.js"/>
<svg id="graph" class="graph">
<g id="viewport">
<title>src/main/java/fr/softsf/sudokufx</title>
<g id="clust1" class="cluster">
<title>clusterdir_df66706d7efa0a9fd8002f7f6346de3d</title>
<g id="a_clust1"><a xlink:href="dir_df66706d7efa0a9fd8002f7f6346de3d.html" target="_top" xlink:title="softsf">
<polygon fill="#edf0f7" stroke="#7f7f7f" stroke-dasharray="5,2" points="8,-8 8,-80 928,-80 928,-8 8,-8"/>
<text text-anchor="middle" x="468" y="-66.5" font-family="Helvetica,sans-Serif" font-size="10.00">softsf</text>
</a>
</g>
</g>
<g id="clust2" class="cluster">
<title>clusterdir_757e38ffca8cea164996faf0234210f9</title>
<g id="a_clust2"><a xlink:href="dir_757e38ffca8cea164996faf0234210f9.html" target="_top">
<polygon fill="#edf0f7" stroke="#404040" stroke-width="2" points="16,-16 16,-52 920,-52 920,-16 16,-16"/>
</a>
</g>
</g>
<!-- dir_757e38ffca8cea164996faf0234210f9 -->
<g id="node1" class="node">
<title>dir_757e38ffca8cea164996faf0234210f9</title>
<text text-anchor="middle" x="52" y="-30.5" font-family="Helvetica,sans-Serif" font-size="10.00">sudokufx</text>
</g>
<!-- dir_b505b9574563ce0f663725cb1494ca32 -->
<g id="node2" class="node">
<title>dir_b505b9574563ce0f663725cb1494ca32</title>
<g id="a_node2"><a xlink:href="dir_b505b9574563ce0f663725cb1494ca32.html" target="_top" xlink:title="annotations">
<polygon fill="#a2b4d6" stroke="#404040" points="164.12,-44 97.88,-44 97.88,-24 164.12,-24 164.12,-44"/>
<text text-anchor="middle" x="131" y="-30.5" font-family="Helvetica,sans-Serif" font-size="10.00">annotations</text>
</a>
</g>
</g>
<!-- dir_5755d0788bd1e876ee75224cd106d57f -->
<g id="node3" class="node">
<title>dir_5755d0788bd1e876ee75224cd106d57f</title>
<g id="a_node3"><a xlink:href="dir_5755d0788bd1e876ee75224cd106d57f.html" target="_top" xlink:title="configuration">
<polygon fill="#a2b4d6" stroke="#404040" points="253.75,-44 182.25,-44 182.25,-24 253.75,-24 253.75,-44"/>
<text text-anchor="middle" x="218" y="-30.5" font-family="Helvetica,sans-Serif" font-size="10.00">configuration</text>
</a>
</g>
</g>
<!-- dir_312f66a432e0f9af30adae5d0c1eacbb -->
<g id="node4" class="node">
<title>dir_312f66a432e0f9af30adae5d0c1eacbb</title>
<g id="a_node4"><a xlink:href="dir_312f66a432e0f9af30adae5d0c1eacbb.html" target="_top" xlink:title="dto">
<polygon fill="#a2b4d6" stroke="#404040" points="301.75,-44 272.25,-44 272.25,-24 301.75,-24 301.75,-44"/>
<text text-anchor="middle" x="287" y="-30.5" font-family="Helvetica,sans-Serif" font-size="10.00">dto</text>
</a>
</g>
</g>
<!-- dir_d85cbe12af1a4f99994853d0b2fcc0f1 -->
<g id="node5" class="node">
<title>dir_d85cbe12af1a4f99994853d0b2fcc0f1</title>
<g id="a_node5"><a xlink:href="dir_d85cbe12af1a4f99994853d0b2fcc0f1.html" target="_top" xlink:title="enums">
<polygon fill="#a2b4d6" stroke="#404040" points="364.62,-44 319.38,-44 319.38,-24 364.62,-24 364.62,-44"/>
<text text-anchor="middle" x="342" y="-30.5" font-family="Helvetica,sans-Serif" font-size="10.00">enums</text>
</a>
</g>
</g>
<!-- dir_0c849daf085a7d1757b31ba9f003b72c -->
<g id="node6" class="node">
<title>dir_0c849daf085a7d1757b31ba9f003b72c</title>
<g id="a_node6"><a xlink:href="dir_0c849daf085a7d1757b31ba9f003b72c.html" target="_top" xlink:title="exceptions">
<polygon fill="#a2b4d6" stroke="#404040" points="445.62,-44 382.38,-44 382.38,-24 445.62,-24 445.62,-44"/>
<text text-anchor="middle" x="414" y="-30.5" font-family="Helvetica,sans-Serif" font-size="10.00">exceptions</text>
</a>
</g>
</g>
<!-- dir_07ad125c8f84d51d6217005f13950550 -->
<g id="node7" class="node">
<title>dir_07ad125c8f84d51d6217005f13950550</title>
<g id="a_node7"><a xlink:href="dir_07ad125c8f84d51d6217005f13950550.html" target="_top" xlink:title="interfaces">
<polygon fill="#a2b4d6" stroke="#404040" points="522.38,-44 463.62,-44 463.62,-24 522.38,-24 522.38,-44"/>
<text text-anchor="middle" x="493" y="-30.5" font-family="Helvetica,sans-Serif" font-size="10.00">interfaces</text>
</a>
</g>
</g>
<!-- dir_30ddad1f18ea0f0414c7deedb4a3f813 -->
<g id="node8" class="node">
<title>dir_30ddad1f18ea0f0414c7deedb4a3f813</title>
<g id="a_node8"><a xlink:href="dir_30ddad1f18ea0f0414c7deedb4a3f813.html" target="_top" xlink:title="model">
<polygon fill="#a2b4d6" stroke="#404040" points="583.12,-44 540.88,-44 540.88,-24 583.12,-24 583.12,-44"/>
<text text-anchor="middle" x="562" y="-30.5" font-family="Helvetica,sans-Serif" font-size="10.00">model</text>
</a>
</g>
</g>
<!-- dir_13f5623da1adebc733daf34fff753157 -->
<g id="node9" class="node">
<title>dir_13f5623da1adebc733daf34fff753157</title>
<g id="a_node9"><a xlink:href="dir_13f5623da1adebc733daf34fff753157.html" target="_top" xlink:title="repository">
<polygon fill="#a2b4d6" stroke="#404040" points="660.38,-44 601.62,-44 601.62,-24 660.38,-24 660.38,-44"/>
<text text-anchor="middle" x="631" y="-30.5" font-family="Helvetica,sans-Serif" font-size="10.00">repository</text>
</a>
</g>
</g>
<!-- dir_1a3c94203ddb35bf8a6cccc0d80c7ad5 -->
<g id="node10" class="node">
<title>dir_1a3c94203ddb35bf8a6cccc0d80c7ad5</title>
<g id="a_node10"><a xlink:href="dir_1a3c94203ddb35bf8a6cccc0d80c7ad5.html" target="_top" xlink:title="service">
<polygon fill="#a2b4d6" stroke="#404040" points="725.75,-44 678.25,-44 678.25,-24 725.75,-24 725.75,-44"/>
<text text-anchor="middle" x="702" y="-30.5" font-family="Helvetica,sans-Serif" font-size="10.00">service</text>
</a>
</g>
</g>
<!-- dir_482b4657db61503fe15b7ae1f26e885d -->
<g id="node11" class="node">
<title>dir_482b4657db61503fe15b7ae1f26e885d</title>
<g id="a_node11"><a xlink:href="dir_482b4657db61503fe15b7ae1f26e885d.html" target="_top" xlink:title="utils">
<polygon fill="#a2b4d6" stroke="#404040" points="778,-44 744,-44 744,-24 778,-24 778,-44"/>
<text text-anchor="middle" x="761" y="-30.5" font-family="Helvetica,sans-Serif" font-size="10.00">utils</text>
</a>
</g>
</g>
<!-- dir_664d5835105ddaaeb330d567537f6eef -->
<g id="node12" class="node">
<title>dir_664d5835105ddaaeb330d567537f6eef</title>
<g id="a_node12"><a xlink:href="dir_664d5835105ddaaeb330d567537f6eef.html" target="_top" xlink:title="view">
<polygon fill="#a2b4d6" stroke="#404040" points="832.12,-44 795.88,-44 795.88,-24 832.12,-24 832.12,-44"/>
<text text-anchor="middle" x="814" y="-30.5" font-family="Helvetica,sans-Serif" font-size="10.00">view</text>
</a>
</g>
</g>
<!-- dir_b56e19f1982a33341ef13b7017338f1f -->
<g id="node13" class="node">
<title>dir_b56e19f1982a33341ef13b7017338f1f</title>
<g id="a_node13"><a xlink:href="dir_b56e19f1982a33341ef13b7017338f1f.html" target="_top" xlink:title="viewmodel">
<polygon fill="#a2b4d6" stroke="#404040" points="912.25,-44 849.75,-44 849.75,-24 912.25,-24 912.25,-44"/>
<text text-anchor="middle" x="881" y="-30.5" font-family="Helvetica,sans-Serif" font-size="10.00">viewmodel</text>
</a>
</g>
</g>
</g>
</svg>

<g id="navigator" transform="translate(0 0)" fill="#404254">
  <rect fill="#f2f5e9" fill-opacity="0.5" stroke="#606060" stroke-width=".5" x="0" y="0" width="60" height="60"/>
  <use id="zoomplus" xlink:href="#zoomPlus" x="17" y="9" onmousedown="handleZoom(evt,'in')"/>
  <use id="zoomminus" xlink:href="#zoomMin" x="42" y="9" onmousedown="handleZoom(evt,'out')"/>
  <use id="reset" xlink:href="#resetDef" x="30" y="36" onmousedown="handleReset()"/>
   <use id="arrowup" xlink:href="#arrowUp" x="0" y="0" onmousedown="handlePan(0,-1)"/>
  <use id="arrowright" xlink:href="#arrowRight" x="0" y="0" onmousedown="handlePan(1,0)"/>
  <use id="arrowdown" xlink:href="#arrowDown" x="0" y="0" onmousedown="handlePan(0,1)"/>
  <use id="arrowleft" xlink:href="#arrowLeft" x="0" y="0" onmousedown="handlePan(-1,0)"/>
</g>
<svg viewBox="0 0 15 15" width="100%" height="30px" preserveAspectRatio="xMaxYMin meet">
 <g id="arrow_out" transform="scale(0.3 0.3)">
  <a xlink:href="dir_757e38ffca8cea164996faf0234210f9_dep_org.svg" target="_base">
   <rect id="button" ry="5" rx="5" y="6" x="6" height="38" width="38"
        fill="#f2f5e9" fill-opacity="0.5" stroke="#606060" stroke-width="1.0"/>
   <path id="arrow"
     d="M 11.500037,31.436501 C 11.940474,20.09759 22.043105,11.32322 32.158766,21.979434 L 37.068811,17.246167 C 37.068811,17.246167 37.088388,32 37.088388,32 L 22.160133,31.978069 C 22.160133,31.978069 26.997745,27.140456 26.997745,27.140456 C 18.528582,18.264221 13.291696,25.230495 11.500037,31.436501 z"
     style="fill:#404040;"/>
  </a>
 </g>
</svg>

<style type='text/css'>
<![CDATA[
[data-mouse-over-selected='false'] { opacity: 0.7; }
[data-mouse-over-selected='true']  { opacity: 1.0; }
]]>
</style>
<script type="application/ecmascript"><![CDATA[
document.addEventListener('DOMContentLoaded', (event) => {
  highlightEdges();
  highlightAdjacentNodes();
});
]]></script>
</svg>
