<?xml version="1.0" encoding="UTF-8" standalone="no"?>
<!DOCTYPE svg PUBLIC "-//W3C//DTD SVG 1.1//EN"
 "http://www.w3.org/Graphics/SVG/1.1/DTD/svg11.dtd">
<!-- Generated by graphviz version 12.2.0 (20241103.1931)
 -->
<!-- Title: Graphical Class Hierarchy Pages: 1 -->
<svg width="316pt" height="190pt"
 viewBox="0.00 0.00 316.00 190.00" xmlns="http://www.w3.org/2000/svg" xmlns:xlink="http://www.w3.org/1999/xlink">
<g id="graph0" class="graph" transform="scale(1 1) rotate(0) translate(4 186)">
<title>Graphical Class Hierarchy</title>
<!-- Node0 -->
<g id="Node000000" class="node">
<title>Node0</title>
<g id="a_Node000000"><a xlink:href="interfacefr_1_1softsf_1_1sudokufx_1_1_sudo_main_1_1_i_primary_stage_view.html" target="_top" xlink:title="Interface for the primary stage view.">
<polygon fill="white" stroke="#666666" points="142,-169 0,-169 0,-137 142,-137 142,-169"/>
<text text-anchor="start" x="8" y="-155.5" font-family="Helvetica,sans-Serif" font-size="10.00">fr.softsf.sudokufx.SudoMain.</text>
<text text-anchor="middle" x="71" y="-143.5" font-family="Helvetica,sans-Serif" font-size="10.00">IPrimaryStageView</text>
</a>
</g>
</g>
<!-- Node1 -->
<g id="Node000001" class="node">
<title>Node1</title>
<g id="a_Node000001"><a xlink:href="classfr_1_1softsf_1_1sudokufx_1_1view_1_1_crash_screen_view.html" target="_top" xlink:title="View class for the crash screen without business logic.">
<polygon fill="white" stroke="#666666" points="302,-182 184,-182 184,-150 302,-150 302,-182"/>
<text text-anchor="start" x="192" y="-168.5" font-family="Helvetica,sans-Serif" font-size="10.00">fr.softsf.sudokufx.view.</text>
<text text-anchor="middle" x="243" y="-156.5" font-family="Helvetica,sans-Serif" font-size="10.00">CrashScreenView</text>
</a>
</g>
</g>
<!-- Node0&#45;&gt;Node1 -->
<g id="edge10_Node000000_Node000001" class="edge">
<title>Node0&#45;&gt;Node1</title>
<g id="a_edge10_Node000000_Node000001"><a xlink:title=" ">
<path fill="none" stroke="#63b8ff" d="M153.55,-159.24C163.71,-160.01 173.95,-160.8 183.66,-161.54"/>
<polygon fill="#63b8ff" stroke="#63b8ff" points="153.87,-155.75 143.64,-158.48 153.34,-162.73 153.87,-155.75"/>
</a>
</g>
</g>
<!-- Node5 -->
<g id="Node000005" class="node">
<title>Node5</title>
<g id="a_Node000005"><a xlink:href="classfr_1_1softsf_1_1sudokufx_1_1view_1_1_full_menu_view.html" target="_top" xlink:title="View class for the full menu screen of the Sudoku application.">
<polygon fill="white" stroke="#666666" points="302,-132 184,-132 184,-100 302,-100 302,-132"/>
<text text-anchor="start" x="192" y="-118.5" font-family="Helvetica,sans-Serif" font-size="10.00">fr.softsf.sudokufx.view.</text>
<text text-anchor="middle" x="243" y="-106.5" font-family="Helvetica,sans-Serif" font-size="10.00">FullMenuView</text>
</a>
</g>
</g>
<!-- Node0&#45;&gt;Node5 -->
<g id="edge11_Node000000_Node000005" class="edge">
<title>Node0&#45;&gt;Node5</title>
<g id="a_edge11_Node000000_Node000005"><a xlink:title=" ">
<path fill="none" stroke="#63b8ff" d="M153.22,-135.32C163.49,-133.09 173.84,-130.83 183.66,-128.7"/>
<polygon fill="#63b8ff" stroke="#63b8ff" points="152.63,-131.87 143.61,-137.42 154.12,-138.71 152.63,-131.87"/>
</a>
</g>
</g>
<!-- Node2 -->
<g id="Node000002" class="node">
<title>Node2</title>
<g id="a_Node000002"><a xlink:href="interfacefr_1_1softsf_1_1sudokufx_1_1interfaces_1_1_i_scene_provider.html" target="_top" xlink:title="Interface ISceneProvider.">
<polygon fill="white" stroke="#666666" points="141.62,-107 0.38,-107 0.38,-75 141.62,-75 141.62,-107"/>
<text text-anchor="start" x="8.38" y="-93.5" font-family="Helvetica,sans-Serif" font-size="10.00">fr.softsf.sudokufx.interfaces.</text>
<text text-anchor="middle" x="71" y="-81.5" font-family="Helvetica,sans-Serif" font-size="10.00">ISceneProvider</text>
</a>
</g>
</g>
<!-- Node2&#45;&gt;Node1 -->
<g id="edge14_Node000002_Node000001" class="edge">
<title>Node2&#45;&gt;Node1</title>
<g id="a_edge14_Node000002_Node000001"><a xlink:title=" ">
<path fill="none" stroke="#63b8ff" d="M115.34,-112.26C134.42,-121.41 157.19,-132.04 178,-141 184.68,-143.88 191.82,-146.8 198.8,-149.59"/>
<polygon fill="#63b8ff" stroke="#63b8ff" points="117.04,-109.2 106.52,-108.01 114,-115.5 117.04,-109.2"/>
</a>
</g>
</g>
<!-- Node2&#45;&gt;Node5 -->
<g id="edge15_Node000002_Node000005" class="edge">
<title>Node2&#45;&gt;Node5</title>
<g id="a_edge15_Node000002_Node000005"><a xlink:title=" ">
<path fill="none" stroke="#63b8ff" d="M152.83,-102.89C163.21,-104.41 173.67,-105.95 183.59,-107.41"/>
<polygon fill="#63b8ff" stroke="#63b8ff" points="153.54,-99.45 143.13,-101.46 152.52,-106.38 153.54,-99.45"/>
</a>
</g>
</g>
<!-- Node3 -->
<g id="Node000003" class="node">
<title>Node3</title>
<g id="a_Node000003"><a xlink:href="classfr_1_1softsf_1_1sudokufx_1_1service_1_1_fxml_service.html" target="_top" xlink:title="FxmlService is a Spring service that manages the loading of FXML files and updating the root of the J...">
<polygon fill="white" stroke="#666666" points="308,-82 178,-82 178,-50 308,-50 308,-82"/>
<text text-anchor="start" x="186" y="-68.5" font-family="Helvetica,sans-Serif" font-size="10.00">fr.softsf.sudokufx.service.</text>
<text text-anchor="middle" x="243" y="-56.5" font-family="Helvetica,sans-Serif" font-size="10.00">FxmlService</text>
</a>
</g>
</g>
<!-- Node2&#45;&gt;Node3 -->
<g id="edge12_Node000002_Node000003" class="edge">
<title>Node2&#45;&gt;Node3</title>
<g id="a_edge12_Node000002_Node000003"><a xlink:title=" ">
<path fill="none" stroke="#63b8ff" d="M152.9,-79.1C161.21,-77.88 169.57,-76.65 177.67,-75.46"/>
<polygon fill="#63b8ff" stroke="#63b8ff" points="152.52,-75.62 143.13,-80.54 153.54,-82.55 152.52,-75.62"/>
</a>
</g>
</g>
<!-- Node4 -->
<g id="Node000004" class="node">
<title>Node4</title>
<g id="a_Node000004"><a xlink:href="classfr_1_1softsf_1_1sudokufx_1_1utils_1_1_dynamic_font_size.html" target="_top" xlink:title="Manages dynamic font sizing based on the dimensions of a JavaFX Scene.">
<polygon fill="white" stroke="#666666" points="301.25,-32 184.75,-32 184.75,0 301.25,0 301.25,-32"/>
<text text-anchor="start" x="192.75" y="-18.5" font-family="Helvetica,sans-Serif" font-size="10.00">fr.softsf.sudokufx.utils.</text>
<text text-anchor="middle" x="243" y="-6.5" font-family="Helvetica,sans-Serif" font-size="10.00">DynamicFontSize</text>
</a>
</g>
</g>
<!-- Node2&#45;&gt;Node4 -->
<g id="edge13_Node000002_Node000004" class="edge">
<title>Node2&#45;&gt;Node4</title>
<g id="a_edge13_Node000002_Node000004"><a xlink:title=" ">
<path fill="none" stroke="#63b8ff" d="M115.34,-69.74C134.42,-60.59 157.19,-49.96 178,-41 184.68,-38.12 191.82,-35.2 198.8,-32.41"/>
<polygon fill="#63b8ff" stroke="#63b8ff" points="114,-66.5 106.52,-73.99 117.04,-72.8 114,-66.5"/>
</a>
</g>
</g>
</g>
</svg>
