<?xml version="1.0" encoding="UTF-8" standalone="no"?>
<!DOCTYPE svg PUBLIC "-//W3C//DTD SVG 1.1//EN"
 "http://www.w3.org/Graphics/SVG/1.1/DTD/svg11.dtd">
<!-- Generated by graphviz version 12.2.1 (20241206.2353)
 -->
<!-- Title: Graphical Class Hierarchy Pages: 1 -->
<svg width="264pt" height="390pt"
 viewBox="0.00 0.00 263.50 390.00" xmlns="http://www.w3.org/2000/svg" xmlns:xlink="http://www.w3.org/1999/xlink">
<g id="graph0" class="graph" transform="scale(1 1) rotate(0) translate(4 386)">
<title>Graphical Class Hierarchy</title>
<!-- Node0 -->
<g id="Node000000" class="node">
<title>Node0</title>
<g id="a_Node000000"><a xlink:title=" ">
<polygon fill="#e0e0e0" stroke="#999999" points="79,-201 0,-201 0,-181 79,-181 79,-201"/>
<text text-anchor="middle" x="39.5" y="-187.5" font-family="Helvetica,sans-Serif" font-size="10.00">JpaRepository</text>
</a>
</g>
</g>
<!-- Node1 -->
<g id="Node000001" class="node">
<title>Node1</title>
<g id="a_Node000001"><a xlink:href="interfacefr_1_1softsf_1_1sudokufx_1_1repository_1_1_background_repository.html" target="_top" xlink:title=" ">
<polygon fill="white" stroke="#666666" points="255.5,-382 115,-382 115,-350 255.5,-350 255.5,-382"/>
<text text-anchor="start" x="123" y="-368.5" font-family="Helvetica,sans-Serif" font-size="10.00">fr.softsf.sudokufx.repository.</text>
<text text-anchor="middle" x="185.25" y="-356.5" font-family="Helvetica,sans-Serif" font-size="10.00">BackgroundRepository</text>
</a>
</g>
</g>
<!-- Node0&#45;&gt;Node1 -->
<g id="edge23_Node000000_Node000001" class="edge">
<title>Node0&#45;&gt;Node1</title>
<g id="a_edge23_Node000000_Node000001"><a xlink:title=" ">
<path fill="none" stroke="#63b8ff" d="M45.58,-212.17C54.36,-244.38 75.36,-305.65 115,-341 118.63,-344.23 122.7,-347.06 127.01,-349.52"/>
<polygon fill="#63b8ff" stroke="#63b8ff" points="49.06,-211.65 43.18,-202.84 42.28,-213.39 49.06,-211.65"/>
</a>
</g>
</g>
<!-- Node2 -->
<g id="Node000002" class="node">
<title>Node2</title>
<g id="a_Node000002"><a xlink:href="interfacefr_1_1softsf_1_1sudokufx_1_1repository_1_1_game_level_repository.html" target="_top" xlink:title=" ">
<polygon fill="white" stroke="#666666" points="255.5,-332 115,-332 115,-300 255.5,-300 255.5,-332"/>
<text text-anchor="start" x="123" y="-318.5" font-family="Helvetica,sans-Serif" font-size="10.00">fr.softsf.sudokufx.repository.</text>
<text text-anchor="middle" x="185.25" y="-306.5" font-family="Helvetica,sans-Serif" font-size="10.00">GameLevelRepository</text>
</a>
</g>
</g>
<!-- Node0&#45;&gt;Node2 -->
<g id="edge24_Node000000_Node000002" class="edge">
<title>Node0&#45;&gt;Node2</title>
<g id="a_edge24_Node000000_Node000002"><a xlink:title=" ">
<path fill="none" stroke="#63b8ff" d="M50.96,-211.46C63.39,-233.91 86.15,-269.59 115,-291 119.31,-294.2 124.07,-297.02 129.02,-299.51"/>
<polygon fill="#63b8ff" stroke="#63b8ff" points="54.07,-209.86 46.27,-202.69 47.89,-213.16 54.07,-209.86"/>
</a>
</g>
</g>
<!-- Node3 -->
<g id="Node000003" class="node">
<title>Node3</title>
<g id="a_Node000003"><a xlink:href="interfacefr_1_1softsf_1_1sudokufx_1_1repository_1_1_game_repository.html" target="_top" xlink:title=" ">
<polygon fill="white" stroke="#666666" points="255.5,-282 115,-282 115,-250 255.5,-250 255.5,-282"/>
<text text-anchor="start" x="123" y="-268.5" font-family="Helvetica,sans-Serif" font-size="10.00">fr.softsf.sudokufx.repository.</text>
<text text-anchor="middle" x="185.25" y="-256.5" font-family="Helvetica,sans-Serif" font-size="10.00">GameRepository</text>
</a>
</g>
</g>
<!-- Node0&#45;&gt;Node3 -->
<g id="edge25_Node000000_Node000003" class="edge">
<title>Node0&#45;&gt;Node3</title>
<g id="a_edge25_Node000000_Node000003"><a xlink:title=" ">
<path fill="none" stroke="#63b8ff" d="M62.95,-208.19C77.3,-218.62 96.6,-231.68 115,-241 121.04,-244.06 127.55,-246.93 134.08,-249.54"/>
<polygon fill="#63b8ff" stroke="#63b8ff" points="65.22,-205.51 55.1,-202.36 61.05,-211.13 65.22,-205.51"/>
</a>
</g>
</g>
<!-- Node4 -->
<g id="Node000004" class="node">
<title>Node4</title>
<g id="a_Node000004"><a xlink:href="interfacefr_1_1softsf_1_1sudokufx_1_1repository_1_1_grid_repository.html" target="_top" xlink:title=" ">
<polygon fill="white" stroke="#666666" points="255.5,-232 115,-232 115,-200 255.5,-200 255.5,-232"/>
<text text-anchor="start" x="123" y="-218.5" font-family="Helvetica,sans-Serif" font-size="10.00">fr.softsf.sudokufx.repository.</text>
<text text-anchor="middle" x="185.25" y="-206.5" font-family="Helvetica,sans-Serif" font-size="10.00">GridRepository</text>
</a>
</g>
</g>
<!-- Node0&#45;&gt;Node4 -->
<g id="edge26_Node000000_Node000004" class="edge">
<title>Node0&#45;&gt;Node4</title>
<g id="a_edge26_Node000000_Node000004"><a xlink:title=" ">
<path fill="none" stroke="#63b8ff" d="M90.49,-199.69C98.28,-201.05 106.45,-202.47 114.57,-203.88"/>
<polygon fill="#63b8ff" stroke="#63b8ff" points="91.34,-196.29 80.89,-198.02 90.14,-203.19 91.34,-196.29"/>
</a>
</g>
</g>
<!-- Node5 -->
<g id="Node000005" class="node">
<title>Node5</title>
<g id="a_Node000005"><a xlink:href="interfacefr_1_1softsf_1_1sudokufx_1_1repository_1_1_menu_repository.html" target="_top" xlink:title=" ">
<polygon fill="white" stroke="#666666" points="255.5,-182 115,-182 115,-150 255.5,-150 255.5,-182"/>
<text text-anchor="start" x="123" y="-168.5" font-family="Helvetica,sans-Serif" font-size="10.00">fr.softsf.sudokufx.repository.</text>
<text text-anchor="middle" x="185.25" y="-156.5" font-family="Helvetica,sans-Serif" font-size="10.00">MenuRepository</text>
</a>
</g>
</g>
<!-- Node0&#45;&gt;Node5 -->
<g id="edge27_Node000000_Node000005" class="edge">
<title>Node0&#45;&gt;Node5</title>
<g id="a_edge27_Node000000_Node000005"><a xlink:title=" ">
<path fill="none" stroke="#63b8ff" d="M90.49,-182.31C98.28,-180.95 106.45,-179.53 114.57,-178.12"/>
<polygon fill="#63b8ff" stroke="#63b8ff" points="90.14,-178.81 80.89,-183.98 91.34,-185.71 90.14,-178.81"/>
</a>
</g>
</g>
<!-- Node6 -->
<g id="Node000006" class="node">
<title>Node6</title>
<g id="a_Node000006"><a xlink:href="interfacefr_1_1softsf_1_1sudokufx_1_1repository_1_1_player_language_repository.html" target="_top" xlink:title=" ">
<polygon fill="white" stroke="#666666" points="255.5,-132 115,-132 115,-100 255.5,-100 255.5,-132"/>
<text text-anchor="start" x="123" y="-118.5" font-family="Helvetica,sans-Serif" font-size="10.00">fr.softsf.sudokufx.repository.</text>
<text text-anchor="middle" x="185.25" y="-106.5" font-family="Helvetica,sans-Serif" font-size="10.00">PlayerLanguageRepository</text>
</a>
</g>
</g>
<!-- Node0&#45;&gt;Node6 -->
<g id="edge28_Node000000_Node000006" class="edge">
<title>Node0&#45;&gt;Node6</title>
<g id="a_edge28_Node000000_Node000006"><a xlink:title=" ">
<path fill="none" stroke="#63b8ff" d="M62.95,-173.81C77.3,-163.38 96.6,-150.32 115,-141 121.04,-137.94 127.55,-135.07 134.08,-132.46"/>
<polygon fill="#63b8ff" stroke="#63b8ff" points="61.05,-170.87 55.1,-179.64 65.22,-176.49 61.05,-170.87"/>
</a>
</g>
</g>
<!-- Node7 -->
<g id="Node000007" class="node">
<title>Node7</title>
<g id="a_Node000007"><a xlink:href="interfacefr_1_1softsf_1_1sudokufx_1_1repository_1_1_player_repository.html" target="_top" xlink:title=" ">
<polygon fill="white" stroke="#666666" points="255.5,-82 115,-82 115,-50 255.5,-50 255.5,-82"/>
<text text-anchor="start" x="123" y="-68.5" font-family="Helvetica,sans-Serif" font-size="10.00">fr.softsf.sudokufx.repository.</text>
<text text-anchor="middle" x="185.25" y="-56.5" font-family="Helvetica,sans-Serif" font-size="10.00">PlayerRepository</text>
</a>
</g>
</g>
<!-- Node0&#45;&gt;Node7 -->
<g id="edge29_Node000000_Node000007" class="edge">
<title>Node0&#45;&gt;Node7</title>
<g id="a_edge29_Node000000_Node000007"><a xlink:title=" ">
<path fill="none" stroke="#63b8ff" d="M50.96,-170.54C63.39,-148.09 86.15,-112.41 115,-91 119.31,-87.8 124.07,-84.98 129.02,-82.49"/>
<polygon fill="#63b8ff" stroke="#63b8ff" points="47.89,-168.84 46.27,-179.31 54.07,-172.14 47.89,-168.84"/>
</a>
</g>
</g>
<!-- Node8 -->
<g id="Node000008" class="node">
<title>Node8</title>
<g id="a_Node000008"><a xlink:href="interfacefr_1_1softsf_1_1sudokufx_1_1repository_1_1_software_repository.html" target="_top" xlink:title=" ">
<polygon fill="white" stroke="#666666" points="255.5,-32 115,-32 115,0 255.5,0 255.5,-32"/>
<text text-anchor="start" x="123" y="-18.5" font-family="Helvetica,sans-Serif" font-size="10.00">fr.softsf.sudokufx.repository.</text>
<text text-anchor="middle" x="185.25" y="-6.5" font-family="Helvetica,sans-Serif" font-size="10.00">SoftwareRepository</text>
</a>
</g>
</g>
<!-- Node0&#45;&gt;Node8 -->
<g id="edge30_Node000000_Node000008" class="edge">
<title>Node0&#45;&gt;Node8</title>
<g id="a_edge30_Node000000_Node000008"><a xlink:title=" ">
<path fill="none" stroke="#63b8ff" d="M45.58,-169.83C54.36,-137.62 75.36,-76.35 115,-41 118.63,-37.77 122.7,-34.94 127.01,-32.48"/>
<polygon fill="#63b8ff" stroke="#63b8ff" points="42.28,-168.61 43.18,-179.16 49.06,-170.35 42.28,-168.61"/>
</a>
</g>
</g>
</g>
</svg>
