<?xml version="1.0" encoding="UTF-8" standalone="no"?>
<!DOCTYPE svg PUBLIC "-//W3C//DTD SVG 1.1//EN"
 "http://www.w3.org/Graphics/SVG/1.1/DTD/svg11.dtd">
<!-- Generated by graphviz version 12.2.1 (20241206.2353)
 -->
<!-- Title: Graphical Class Hierarchy Pages: 1 -->
<svg width="303pt" height="190pt"
 viewBox="0.00 0.00 303.25 190.00" xmlns="http://www.w3.org/2000/svg" xmlns:xlink="http://www.w3.org/1999/xlink">
<g id="graph0" class="graph" transform="scale(1 1) rotate(0) translate(4 186)">
<title>Graphical Class Hierarchy</title>
<!-- Node0 -->
<g id="Node000000" class="node">
<title>Node0</title>
<g id="a_Node000000"><a xlink:title=" ">
<polygon fill="#e0e0e0" stroke="#999999" points="91.75,-101 0,-101 0,-81 91.75,-81 91.75,-101"/>
<text text-anchor="middle" x="45.88" y="-87.5" font-family="Helvetica,sans-Serif" font-size="10.00">IOsFolderFactory</text>
</a>
</g>
</g>
<!-- Node1 -->
<g id="Node000001" class="node">
<title>Node1</title>
<g id="a_Node000001"><a xlink:href="interfacefr_1_1softsf_1_1sudokufx_1_1configuration_1_1os_1_1_i_mock_i_os_folder_factory.html" target="_top" xlink:title="Mock interface for testing, extending the sealed IOsFolderFactory.">
<polygon fill="white" stroke="#666666" points="295.25,-182 127.75,-182 127.75,-150 295.25,-150 295.25,-182"/>
<text text-anchor="start" x="135.75" y="-168.5" font-family="Helvetica,sans-Serif" font-size="10.00">fr.softsf.sudokufx.configuration.os.</text>
<text text-anchor="middle" x="211.5" y="-156.5" font-family="Helvetica,sans-Serif" font-size="10.00">IMockIOsFolderFactory</text>
</a>
</g>
</g>
<!-- Node0&#45;&gt;Node1 -->
<g id="edge20_Node000000_Node000001" class="edge">
<title>Node0&#45;&gt;Node1</title>
<g id="a_edge20_Node000000_Node000001"><a xlink:title=" ">
<path fill="none" stroke="#63b8ff" d="M70.55,-107.92C86.2,-118.53 107.5,-131.87 127.75,-141 134.73,-144.15 142.21,-147.03 149.72,-149.63"/>
<polygon fill="#63b8ff" stroke="#63b8ff" points="72.6,-105.09 62.39,-102.28 68.62,-110.85 72.6,-105.09"/>
</a>
</g>
</g>
<!-- Node2 -->
<g id="Node000002" class="node">
<title>Node2</title>
<g id="a_Node000002"><a xlink:href="classfr_1_1softsf_1_1sudokufx_1_1configuration_1_1os_1_1_linux_folder_factory.html" target="_top" xlink:title="Factory class for creating and managing LINUX OS&#45;specific folders for the SudoFX application.">
<polygon fill="white" stroke="#666666" points="295.25,-132 127.75,-132 127.75,-100 295.25,-100 295.25,-132"/>
<text text-anchor="start" x="135.75" y="-118.5" font-family="Helvetica,sans-Serif" font-size="10.00">fr.softsf.sudokufx.configuration.os.</text>
<text text-anchor="middle" x="211.5" y="-106.5" font-family="Helvetica,sans-Serif" font-size="10.00">LinuxFolderFactory</text>
</a>
</g>
</g>
<!-- Node0&#45;&gt;Node2 -->
<g id="edge21_Node000000_Node000002" class="edge">
<title>Node0&#45;&gt;Node2</title>
<g id="a_edge21_Node000000_Node000002"><a xlink:title=" ">
<path fill="none" stroke="#63b8ff" d="M103.24,-99.61C111.09,-100.81 119.3,-102.07 127.51,-103.32"/>
<polygon fill="#63b8ff" stroke="#63b8ff" points="103.93,-96.18 93.52,-98.13 102.87,-103.1 103.93,-96.18"/>
</a>
</g>
</g>
<!-- Node3 -->
<g id="Node000003" class="node">
<title>Node3</title>
<g id="a_Node000003"><a xlink:href="classfr_1_1softsf_1_1sudokufx_1_1configuration_1_1os_1_1_macos_folder_factory.html" target="_top" xlink:title="Factory class for creating and managing MACOS OS&#45;specific folders for the SudoFX application.">
<polygon fill="white" stroke="#666666" points="295.25,-82 127.75,-82 127.75,-50 295.25,-50 295.25,-82"/>
<text text-anchor="start" x="135.75" y="-68.5" font-family="Helvetica,sans-Serif" font-size="10.00">fr.softsf.sudokufx.configuration.os.</text>
<text text-anchor="middle" x="211.5" y="-56.5" font-family="Helvetica,sans-Serif" font-size="10.00">MacosFolderFactory</text>
</a>
</g>
</g>
<!-- Node0&#45;&gt;Node3 -->
<g id="edge22_Node000000_Node000003" class="edge">
<title>Node0&#45;&gt;Node3</title>
<g id="a_edge22_Node000000_Node000003"><a xlink:title=" ">
<path fill="none" stroke="#63b8ff" d="M103.24,-82.39C111.09,-81.19 119.3,-79.93 127.51,-78.68"/>
<polygon fill="#63b8ff" stroke="#63b8ff" points="102.87,-78.9 93.52,-83.87 103.93,-85.82 102.87,-78.9"/>
</a>
</g>
</g>
<!-- Node4 -->
<g id="Node000004" class="node">
<title>Node4</title>
<g id="a_Node000004"><a xlink:href="classfr_1_1softsf_1_1sudokufx_1_1configuration_1_1os_1_1_windows_folder_factory.html" target="_top" xlink:title="Factory class for creating and managing WINDOWS OS&#45;specific folders for the SudoFX application.">
<polygon fill="white" stroke="#666666" points="295.25,-32 127.75,-32 127.75,0 295.25,0 295.25,-32"/>
<text text-anchor="start" x="135.75" y="-18.5" font-family="Helvetica,sans-Serif" font-size="10.00">fr.softsf.sudokufx.configuration.os.</text>
<text text-anchor="middle" x="211.5" y="-6.5" font-family="Helvetica,sans-Serif" font-size="10.00">WindowsFolderFactory</text>
</a>
</g>
</g>
<!-- Node0&#45;&gt;Node4 -->
<g id="edge23_Node000000_Node000004" class="edge">
<title>Node0&#45;&gt;Node4</title>
<g id="a_edge23_Node000000_Node000004"><a xlink:title=" ">
<path fill="none" stroke="#63b8ff" d="M70.55,-74.08C86.2,-63.47 107.5,-50.13 127.75,-41 134.73,-37.85 142.21,-34.97 149.72,-32.37"/>
<polygon fill="#63b8ff" stroke="#63b8ff" points="68.62,-71.15 62.39,-79.72 72.6,-76.91 68.62,-71.15"/>
</a>
</g>
</g>
</g>
</svg>
