<?xml version="1.0" encoding="UTF-8" standalone="no"?>
<!DOCTYPE svg PUBLIC "-//W3C//DTD SVG 1.1//EN"
 "http://www.w3.org/Graphics/SVG/1.1/DTD/svg11.dtd">
<!-- Generated by graphviz version 12.2.0 (20241103.1931)
 -->
<!-- Title: Graphical Class Hierarchy Pages: 1 -->
<svg width="301pt" height="90pt"
 viewBox="0.00 0.00 301.00 90.00" xmlns="http://www.w3.org/2000/svg" xmlns:xlink="http://www.w3.org/1999/xlink">
<g id="graph0" class="graph" transform="scale(1 1) rotate(0) translate(4 86)">
<title>Graphical Class Hierarchy</title>
<!-- Node0 -->
<g id="Node000000" class="node">
<title>Node0</title>
<g id="a_Node000000"><a xlink:href="interfacefr_1_1softsf_1_1sudofx2024_1_1_sudo_main_1_1_i_primary_stage_view.html" target="_top" xlink:title="Interface for the primary stage view.">
<polygon fill="white" stroke="#666666" points="128.5,-57 0,-57 0,-25 128.5,-25 128.5,-57"/>
<text text-anchor="start" x="8" y="-43.5" font-family="Helvetica,sans-Serif" font-size="10.00">fr.softsf.sudofx2024.Sudo</text>
<text text-anchor="middle" x="64.25" y="-31.5" font-family="Helvetica,sans-Serif" font-size="10.00">Main.IPrimaryStageView</text>
</a>
</g>
</g>
<!-- Node1 -->
<g id="Node000001" class="node">
<title>Node1</title>
<g id="a_Node000001"><a xlink:href="classfr_1_1softsf_1_1sudofx2024_1_1view_1_1_crash_screen_view.html" target="_top" xlink:title="View class for the crash screen without business logic.">
<polygon fill="white" stroke="#666666" points="293,-82 164.5,-82 164.5,-50 293,-50 293,-82"/>
<text text-anchor="start" x="172.5" y="-68.5" font-family="Helvetica,sans-Serif" font-size="10.00">fr.softsf.sudofx2024.view.</text>
<text text-anchor="middle" x="228.75" y="-56.5" font-family="Helvetica,sans-Serif" font-size="10.00">CrashScreenView</text>
</a>
</g>
</g>
<!-- Node0&#45;&gt;Node1 -->
<g id="edge4_Node000000_Node000001" class="edge">
<title>Node0&#45;&gt;Node1</title>
<g id="a_edge4_Node000000_Node000001"><a xlink:title=" ">
<path fill="none" stroke="#63b8ff" d="M139.89,-52.48C147.98,-53.73 156.15,-54.99 164.1,-56.21"/>
<polygon fill="#63b8ff" stroke="#63b8ff" points="140.45,-49.03 130.04,-50.97 139.39,-55.95 140.45,-49.03"/>
</a>
</g>
</g>
<!-- Node2 -->
<g id="Node000002" class="node">
<title>Node2</title>
<g id="a_Node000002"><a xlink:href="classfr_1_1softsf_1_1sudofx2024_1_1view_1_1_full_menu_view.html" target="_top" xlink:title="View class for the full menu screen of the Sudoku application.">
<polygon fill="white" stroke="#666666" points="293,-32 164.5,-32 164.5,0 293,0 293,-32"/>
<text text-anchor="start" x="172.5" y="-18.5" font-family="Helvetica,sans-Serif" font-size="10.00">fr.softsf.sudofx2024.view.</text>
<text text-anchor="middle" x="228.75" y="-6.5" font-family="Helvetica,sans-Serif" font-size="10.00">FullMenuView</text>
</a>
</g>
</g>
<!-- Node0&#45;&gt;Node2 -->
<g id="edge5_Node000000_Node000002" class="edge">
<title>Node0&#45;&gt;Node2</title>
<g id="a_edge5_Node000000_Node000002"><a xlink:title=" ">
<path fill="none" stroke="#63b8ff" d="M139.89,-29.52C147.98,-28.27 156.15,-27.01 164.1,-25.79"/>
<polygon fill="#63b8ff" stroke="#63b8ff" points="139.39,-26.05 130.04,-31.03 140.45,-32.97 139.39,-26.05"/>
</a>
</g>
</g>
</g>
</svg>
