<?xml version="1.0" encoding="UTF-8" standalone="no"?>
<!DOCTYPE svg PUBLIC "-//W3C//DTD SVG 1.1//EN"
 "http://www.w3.org/Graphics/SVG/1.1/DTD/svg11.dtd">
<!-- Generated by graphviz version 12.2.1 (20241206.2353)
 -->
<!-- Title: Graphical Class Hierarchy Pages: 1 -->
<svg width="303pt" height="140pt"
 viewBox="0.00 0.00 303.25 140.00" xmlns="http://www.w3.org/2000/svg" xmlns:xlink="http://www.w3.org/1999/xlink">
<g id="graph0" class="graph" transform="scale(1 1) rotate(0) translate(4 136)">
<title>Graphical Class Hierarchy</title>
<!-- Node0 -->
<g id="Node000000" class="node">
<title>Node0</title>
<g id="a_Node000000"><a xlink:title=" ">
<polygon fill="#e0e0e0" stroke="#999999" points="91.75,-76 0,-76 0,-56 91.75,-56 91.75,-76"/>
<text text-anchor="middle" x="45.88" y="-62.5" font-family="Helvetica,sans-Serif" font-size="10.00">IOsFolderFactory</text>
</a>
</g>
</g>
<!-- Node1 -->
<g id="Node000001" class="node">
<title>Node1</title>
<g id="a_Node000001"><a xlink:href="classfr_1_1softsf_1_1sudokufx_1_1configuration_1_1os_1_1_linux_folder_factory.html" target="_top" xlink:title="Factory class for creating and managing LINUX OS&#45;specific folders for the SudoFX application.">
<polygon fill="white" stroke="#666666" points="295.25,-132 127.75,-132 127.75,-100 295.25,-100 295.25,-132"/>
<text text-anchor="start" x="135.75" y="-118.5" font-family="Helvetica,sans-Serif" font-size="10.00">fr.softsf.sudokufx.configuration.os.</text>
<text text-anchor="middle" x="211.5" y="-106.5" font-family="Helvetica,sans-Serif" font-size="10.00">LinuxFolderFactory</text>
</a>
</g>
</g>
<!-- Node0&#45;&gt;Node1 -->
<g id="edge20_Node000000_Node000001" class="edge">
<title>Node0&#45;&gt;Node1</title>
<g id="a_edge20_Node000000_Node000001"><a xlink:title=" ">
<path fill="none" stroke="#63b8ff" d="M91.3,-79.79C103.14,-83.45 115.93,-87.39 127.75,-91 136.79,-93.76 146.4,-96.68 155.74,-99.51"/>
<polygon fill="#63b8ff" stroke="#63b8ff" points="92.34,-76.45 81.75,-76.83 90.27,-83.13 92.34,-76.45"/>
</a>
</g>
</g>
<!-- Node2 -->
<g id="Node000002" class="node">
<title>Node2</title>
<g id="a_Node000002"><a xlink:href="classfr_1_1softsf_1_1sudokufx_1_1configuration_1_1os_1_1_macos_folder_factory.html" target="_top" xlink:title="Factory class for creating and managing MACOS OS&#45;specific folders for the SudoFX application.">
<polygon fill="white" stroke="#666666" points="295.25,-82 127.75,-82 127.75,-50 295.25,-50 295.25,-82"/>
<text text-anchor="start" x="135.75" y="-68.5" font-family="Helvetica,sans-Serif" font-size="10.00">fr.softsf.sudokufx.configuration.os.</text>
<text text-anchor="middle" x="211.5" y="-56.5" font-family="Helvetica,sans-Serif" font-size="10.00">MacosFolderFactory</text>
</a>
</g>
</g>
<!-- Node0&#45;&gt;Node2 -->
<g id="edge21_Node000000_Node000002" class="edge">
<title>Node0&#45;&gt;Node2</title>
<g id="a_edge21_Node000000_Node000002"><a xlink:title=" ">
<path fill="none" stroke="#63b8ff" d="M103.51,-66C111.29,-66 119.39,-66 127.51,-66"/>
<polygon fill="#63b8ff" stroke="#63b8ff" points="103.53,-62.5 93.53,-66 103.53,-69.5 103.53,-62.5"/>
</a>
</g>
</g>
<!-- Node3 -->
<g id="Node000003" class="node">
<title>Node3</title>
<g id="a_Node000003"><a xlink:href="interfacefr_1_1softsf_1_1sudokufx_1_1configuration_1_1os_1_1_windows_folder_factory.html" target="_top" xlink:title="Interface defining methods to access OS&#45;specific folder paths.">
<polygon fill="white" stroke="#666666" points="295.25,-32 127.75,-32 127.75,0 295.25,0 295.25,-32"/>
<text text-anchor="start" x="135.75" y="-18.5" font-family="Helvetica,sans-Serif" font-size="10.00">fr.softsf.sudokufx.configuration.os.</text>
<text text-anchor="middle" x="211.5" y="-6.5" font-family="Helvetica,sans-Serif" font-size="10.00">WindowsFolderFactory</text>
</a>
</g>
</g>
<!-- Node0&#45;&gt;Node3 -->
<g id="edge22_Node000000_Node000003" class="edge">
<title>Node0&#45;&gt;Node3</title>
<g id="a_edge22_Node000000_Node000003"><a xlink:title=" ">
<path fill="none" stroke="#63b8ff" d="M91.3,-52.21C103.14,-48.55 115.93,-44.61 127.75,-41 136.79,-38.24 146.4,-35.32 155.74,-32.49"/>
<polygon fill="#63b8ff" stroke="#63b8ff" points="90.27,-48.87 81.75,-55.17 92.34,-55.55 90.27,-48.87"/>
</a>
</g>
</g>
</g>
</svg>
