<?xml version="1.0" encoding="UTF-8" standalone="no"?>
<!DOCTYPE svg PUBLIC "-//W3C//DTD SVG 1.1//EN"
 "http://www.w3.org/Graphics/SVG/1.1/DTD/svg11.dtd">
<!-- Generated by graphviz version 12.2.0 (20241103.1931)
 -->
<!-- Title: Graphical Class Hierarchy Pages: 1 -->
<svg width="274pt" height="390pt"
 viewBox="0.00 0.00 274.00 390.00" xmlns="http://www.w3.org/2000/svg" xmlns:xlink="http://www.w3.org/1999/xlink">
<g id="graph0" class="graph" transform="scale(1 1) rotate(0) translate(4 386)">
<title>Graphical Class Hierarchy</title>
<!-- Node0 -->
<g id="Node000000" class="node">
<title>Node0</title>
<g id="a_Node000000"><a xlink:title=" ">
<polygon fill="#e0e0e0" stroke="#999999" points="79,-201 0,-201 0,-181 79,-181 79,-201"/>
<text text-anchor="middle" x="39.5" y="-187.5" font-family="Helvetica,sans-Serif" font-size="10.00">JpaRepository</text>
</a>
</g>
</g>
<!-- Node1 -->
<g id="Node000001" class="node">
<title>Node1</title>
<g id="a_Node000001"><a xlink:href="interfacefr_1_1softsf_1_1sudofx2024_1_1repository_1_1_background_repository.html" target="_top" xlink:title=" ">
<polygon fill="white" stroke="#666666" points="266,-382 115,-382 115,-350 266,-350 266,-382"/>
<text text-anchor="start" x="123" y="-368.5" font-family="Helvetica,sans-Serif" font-size="10.00">fr.softsf.sudofx2024.repository.</text>
<text text-anchor="middle" x="190.5" y="-356.5" font-family="Helvetica,sans-Serif" font-size="10.00">BackgroundRepository</text>
</a>
</g>
</g>
<!-- Node0&#45;&gt;Node1 -->
<g id="edge11_Node000000_Node000001" class="edge">
<title>Node0&#45;&gt;Node1</title>
<g id="a_edge11_Node000000_Node000001"><a xlink:title=" ">
<path fill="none" stroke="#63b8ff" d="M45.48,-212.29C54.13,-244.64 74.96,-306.11 115,-341 118.81,-344.32 123.07,-347.2 127.57,-349.7"/>
<polygon fill="#63b8ff" stroke="#63b8ff" points="48.95,-211.74 43.12,-202.9 42.16,-213.45 48.95,-211.74"/>
</a>
</g>
</g>
<!-- Node2 -->
<g id="Node000002" class="node">
<title>Node2</title>
<g id="a_Node000002"><a xlink:href="interfacefr_1_1softsf_1_1sudofx2024_1_1repository_1_1_game_level_repository.html" target="_top" xlink:title=" ">
<polygon fill="white" stroke="#666666" points="266,-332 115,-332 115,-300 266,-300 266,-332"/>
<text text-anchor="start" x="123" y="-318.5" font-family="Helvetica,sans-Serif" font-size="10.00">fr.softsf.sudofx2024.repository.</text>
<text text-anchor="middle" x="190.5" y="-306.5" font-family="Helvetica,sans-Serif" font-size="10.00">GameLevelRepository</text>
</a>
</g>
</g>
<!-- Node0&#45;&gt;Node2 -->
<g id="edge12_Node000000_Node000002" class="edge">
<title>Node0&#45;&gt;Node2</title>
<g id="a_edge12_Node000000_Node000002"><a xlink:title=" ">
<path fill="none" stroke="#63b8ff" d="M50.87,-211.58C63.22,-234.14 85.91,-269.92 115,-291 119.53,-294.28 124.52,-297.15 129.7,-299.66"/>
<polygon fill="#63b8ff" stroke="#63b8ff" points="53.97,-209.97 46.21,-202.76 47.78,-213.24 53.97,-209.97"/>
</a>
</g>
</g>
<!-- Node3 -->
<g id="Node000003" class="node">
<title>Node3</title>
<g id="a_Node000003"><a xlink:href="interfacefr_1_1softsf_1_1sudofx2024_1_1repository_1_1_game_repository.html" target="_top" xlink:title=" ">
<polygon fill="white" stroke="#666666" points="266,-282 115,-282 115,-250 266,-250 266,-282"/>
<text text-anchor="start" x="123" y="-268.5" font-family="Helvetica,sans-Serif" font-size="10.00">fr.softsf.sudofx2024.repository.</text>
<text text-anchor="middle" x="190.5" y="-256.5" font-family="Helvetica,sans-Serif" font-size="10.00">GameRepository</text>
</a>
</g>
</g>
<!-- Node0&#45;&gt;Node3 -->
<g id="edge13_Node000000_Node000003" class="edge">
<title>Node0&#45;&gt;Node3</title>
<g id="a_edge13_Node000000_Node000003"><a xlink:title=" ">
<path fill="none" stroke="#63b8ff" d="M62.61,-208.14C76.96,-218.66 96.38,-231.83 115,-241 121.36,-244.13 128.22,-247.02 135.1,-249.64"/>
<polygon fill="#63b8ff" stroke="#63b8ff" points="64.88,-205.46 54.78,-202.27 60.68,-211.07 64.88,-205.46"/>
</a>
</g>
</g>
<!-- Node4 -->
<g id="Node000004" class="node">
<title>Node4</title>
<g id="a_Node000004"><a xlink:href="interfacefr_1_1softsf_1_1sudofx2024_1_1repository_1_1_grid_repository.html" target="_top" xlink:title=" ">
<polygon fill="white" stroke="#666666" points="266,-232 115,-232 115,-200 266,-200 266,-232"/>
<text text-anchor="start" x="123" y="-218.5" font-family="Helvetica,sans-Serif" font-size="10.00">fr.softsf.sudofx2024.repository.</text>
<text text-anchor="middle" x="190.5" y="-206.5" font-family="Helvetica,sans-Serif" font-size="10.00">GridRepository</text>
</a>
</g>
</g>
<!-- Node0&#45;&gt;Node4 -->
<g id="edge14_Node000000_Node000004" class="edge">
<title>Node0&#45;&gt;Node4</title>
<g id="a_edge14_Node000000_Node000004"><a xlink:title=" ">
<path fill="none" stroke="#63b8ff" d="M90.61,-199.41C98.32,-200.7 106.42,-202.06 114.53,-203.42"/>
<polygon fill="#63b8ff" stroke="#63b8ff" points="91.19,-195.96 80.75,-197.75 90.03,-202.86 91.19,-195.96"/>
</a>
</g>
</g>
<!-- Node5 -->
<g id="Node000005" class="node">
<title>Node5</title>
<g id="a_Node000005"><a xlink:href="interfacefr_1_1softsf_1_1sudofx2024_1_1repository_1_1_menu_repository.html" target="_top" xlink:title=" ">
<polygon fill="white" stroke="#666666" points="266,-182 115,-182 115,-150 266,-150 266,-182"/>
<text text-anchor="start" x="123" y="-168.5" font-family="Helvetica,sans-Serif" font-size="10.00">fr.softsf.sudofx2024.repository.</text>
<text text-anchor="middle" x="190.5" y="-156.5" font-family="Helvetica,sans-Serif" font-size="10.00">MenuRepository</text>
</a>
</g>
</g>
<!-- Node0&#45;&gt;Node5 -->
<g id="edge15_Node000000_Node000005" class="edge">
<title>Node0&#45;&gt;Node5</title>
<g id="a_edge15_Node000000_Node000005"><a xlink:title=" ">
<path fill="none" stroke="#63b8ff" d="M90.61,-182.59C98.32,-181.3 106.42,-179.94 114.53,-178.58"/>
<polygon fill="#63b8ff" stroke="#63b8ff" points="90.03,-179.14 80.75,-184.25 91.19,-186.04 90.03,-179.14"/>
</a>
</g>
</g>
<!-- Node6 -->
<g id="Node000006" class="node">
<title>Node6</title>
<g id="a_Node000006"><a xlink:href="interfacefr_1_1softsf_1_1sudofx2024_1_1repository_1_1_player_language_repository.html" target="_top" xlink:title=" ">
<polygon fill="white" stroke="#666666" points="266,-132 115,-132 115,-100 266,-100 266,-132"/>
<text text-anchor="start" x="123" y="-118.5" font-family="Helvetica,sans-Serif" font-size="10.00">fr.softsf.sudofx2024.repository.</text>
<text text-anchor="middle" x="190.5" y="-106.5" font-family="Helvetica,sans-Serif" font-size="10.00">PlayerLanguageRepository</text>
</a>
</g>
</g>
<!-- Node0&#45;&gt;Node6 -->
<g id="edge16_Node000000_Node000006" class="edge">
<title>Node0&#45;&gt;Node6</title>
<g id="a_edge16_Node000000_Node000006"><a xlink:title=" ">
<path fill="none" stroke="#63b8ff" d="M62.61,-173.86C76.96,-163.34 96.38,-150.17 115,-141 121.36,-137.87 128.22,-134.98 135.1,-132.36"/>
<polygon fill="#63b8ff" stroke="#63b8ff" points="60.68,-170.93 54.78,-179.73 64.88,-176.54 60.68,-170.93"/>
</a>
</g>
</g>
<!-- Node7 -->
<g id="Node000007" class="node">
<title>Node7</title>
<g id="a_Node000007"><a xlink:href="interfacefr_1_1softsf_1_1sudofx2024_1_1repository_1_1_player_repository.html" target="_top" xlink:title=" ">
<polygon fill="white" stroke="#666666" points="266,-82 115,-82 115,-50 266,-50 266,-82"/>
<text text-anchor="start" x="123" y="-68.5" font-family="Helvetica,sans-Serif" font-size="10.00">fr.softsf.sudofx2024.repository.</text>
<text text-anchor="middle" x="190.5" y="-56.5" font-family="Helvetica,sans-Serif" font-size="10.00">PlayerRepository</text>
</a>
</g>
</g>
<!-- Node0&#45;&gt;Node7 -->
<g id="edge17_Node000000_Node000007" class="edge">
<title>Node0&#45;&gt;Node7</title>
<g id="a_edge17_Node000000_Node000007"><a xlink:title=" ">
<path fill="none" stroke="#63b8ff" d="M50.87,-170.42C63.22,-147.86 85.91,-112.08 115,-91 119.53,-87.72 124.52,-84.85 129.7,-82.34"/>
<polygon fill="#63b8ff" stroke="#63b8ff" points="47.78,-168.76 46.21,-179.24 53.97,-172.03 47.78,-168.76"/>
</a>
</g>
</g>
<!-- Node8 -->
<g id="Node000008" class="node">
<title>Node8</title>
<g id="a_Node000008"><a xlink:href="interfacefr_1_1softsf_1_1sudofx2024_1_1repository_1_1_software_repository.html" target="_top" xlink:title=" ">
<polygon fill="white" stroke="#666666" points="266,-32 115,-32 115,0 266,0 266,-32"/>
<text text-anchor="start" x="123" y="-18.5" font-family="Helvetica,sans-Serif" font-size="10.00">fr.softsf.sudofx2024.repository.</text>
<text text-anchor="middle" x="190.5" y="-6.5" font-family="Helvetica,sans-Serif" font-size="10.00">SoftwareRepository</text>
</a>
</g>
</g>
<!-- Node0&#45;&gt;Node8 -->
<g id="edge18_Node000000_Node000008" class="edge">
<title>Node0&#45;&gt;Node8</title>
<g id="a_edge18_Node000000_Node000008"><a xlink:title=" ">
<path fill="none" stroke="#63b8ff" d="M45.48,-169.71C54.13,-137.36 74.96,-75.89 115,-41 118.81,-37.68 123.07,-34.8 127.57,-32.3"/>
<polygon fill="#63b8ff" stroke="#63b8ff" points="42.16,-168.55 43.12,-179.1 48.95,-170.26 42.16,-168.55"/>
</a>
</g>
</g>
</g>
</svg>
