<?xml version="1.0" encoding="UTF-8" standalone="no"?>
<!DOCTYPE svg PUBLIC "-//W3C//DTD SVG 1.1//EN"
 "http://www.w3.org/Graphics/SVG/1.1/DTD/svg11.dtd">
<!-- Generated by graphviz version 12.2.1 (20241206.2353)
 -->
<!-- Title: fr.softsf.sudokufx.interfaces.ISceneProvider Pages: 1 -->
<svg width="873pt" height="784pt"
 viewBox="0.00 0.00 872.62 784.00" xmlns="http://www.w3.org/2000/svg" xmlns:xlink="http://www.w3.org/1999/xlink">
<g id="graph0" class="graph" transform="scale(1 1) rotate(0) translate(4 780)">
<title>fr.softsf.sudokufx.interfaces.ISceneProvider</title>
<!-- Node1 -->
<g id="Node000001" class="node">
<title>Node1</title>
<g id="a_Node000001"><a xlink:title="Interface ISceneProvider.">
<polygon fill="#999999" stroke="none" points="501,-776 367.75,-776 367.75,-712 501,-712 501,-776"/>
<text text-anchor="start" x="371.75" y="-762.5" font-family="Helvetica,sans-Serif" font-size="10.00">fr.softsf.sudokufx.interfaces.</text>
<text text-anchor="start" x="401" y="-750.5" font-family="Helvetica,sans-Serif" font-size="10.00">ISceneProvider</text>
<text text-anchor="start" x="432.88" y="-734.5" font-family="Helvetica,sans-Serif" font-size="10.00"> </text>
<text text-anchor="start" x="373" y="-718.5" font-family="Helvetica,sans-Serif" font-size="10.00">+</text>
<text text-anchor="start" x="384.25" y="-718.5" font-family="Helvetica,sans-Serif" font-size="10.00">default Scene getScene()</text>
<polygon fill="#666666" stroke="#666666" points="367.75,-746 367.75,-746 501,-746 501,-746 367.75,-746"/>
<polygon fill="#666666" stroke="#666666" points="367.75,-730 367.75,-730 501,-730 501,-730 367.75,-730"/>
<polygon fill="none" stroke="#666666" points="367.75,-712 367.75,-776 501,-776 501,-712 367.75,-712"/>
</a>
</g>
</g>
<!-- Node2 -->
<g id="Node000002" class="node">
<title>Node2</title>
<g id="a_Node000002"><a xlink:href="classfr_1_1softsf_1_1sudokufx_1_1service_1_1_fxml_service.html" target="_top" xlink:title="FxmlService is a Spring service that manages the loading of FXML files and updating the root of the J...">
<polygon fill="white" stroke="none" points="174.75,-422 0,-422 0,-254 174.75,-254 174.75,-422"/>
<text text-anchor="start" x="30.38" y="-408.5" font-family="Helvetica,sans-Serif" font-size="10.00">fr.softsf.sudokufx.service.</text>
<text text-anchor="start" x="60" y="-396.5" font-family="Helvetica,sans-Serif" font-size="10.00">FxmlService</text>
<text text-anchor="start" x="5.5" y="-380.5" font-family="Helvetica,sans-Serif" font-size="10.00">&#45;</text>
<text text-anchor="start" x="14" y="-380.5" font-family="Helvetica,sans-Serif" font-size="10.00">DynamicFontSize dynamicFontSize</text>
<text text-anchor="start" x="5.5" y="-364.5" font-family="Helvetica,sans-Serif" font-size="10.00">&#45;</text>
<text text-anchor="start" x="14" y="-364.5" font-family="Helvetica,sans-Serif" font-size="10.00">final FXMLLoader fxmlLoader</text>
<text text-anchor="start" x="5.5" y="-348.5" font-family="Helvetica,sans-Serif" font-size="10.00">&#45;</text>
<text text-anchor="start" x="14" y="-348.5" font-family="Helvetica,sans-Serif" font-size="10.00">final Scene scene</text>
<text text-anchor="start" x="4" y="-332.5" font-family="Helvetica,sans-Serif" font-size="10.00">+</text>
<text text-anchor="start" x="14" y="-332.5" font-family="Helvetica,sans-Serif" font-size="10.00">FxmlService(FXMLLoader</text>
<text text-anchor="start" x="14" y="-320.5" font-family="Helvetica,sans-Serif" font-size="10.00"> fxmlLoader)</text>
<text text-anchor="start" x="4" y="-304.5" font-family="Helvetica,sans-Serif" font-size="10.00">+</text>
<text text-anchor="start" x="14" y="-304.5" font-family="Helvetica,sans-Serif" font-size="10.00">void setDynamicFontSize()</text>
<text text-anchor="start" x="4" y="-288.5" font-family="Helvetica,sans-Serif" font-size="10.00">+</text>
<text text-anchor="start" x="14" y="-288.5" font-family="Helvetica,sans-Serif" font-size="10.00">void setRootByFXMLName</text>
<text text-anchor="start" x="14" y="-276.5" font-family="Helvetica,sans-Serif" font-size="10.00">(final String fxml)</text>
<text text-anchor="start" x="4" y="-260.5" font-family="Helvetica,sans-Serif" font-size="10.00">~</text>
<text text-anchor="start" x="14" y="-260.5" font-family="Helvetica,sans-Serif" font-size="10.00">public&lt; T &gt; T getController()</text>
<polygon fill="#666666" stroke="#666666" points="0,-392 0,-392 174.75,-392 174.75,-392 0,-392"/>
<polygon fill="#666666" stroke="#666666" points="0,-344 0,-344 12,-344 12,-344 0,-344"/>
<polygon fill="#666666" stroke="#666666" points="12,-344 12,-344 174.75,-344 174.75,-344 12,-344"/>
<polygon fill="none" stroke="#666666" points="0,-254 0,-422 174.75,-422 174.75,-254 0,-254"/>
</a>
</g>
</g>
<!-- Node1&#45;&gt;Node2 -->
<g id="edge1_Node000001_Node000002" class="edge">
<title>Node1&#45;&gt;Node2</title>
<g id="a_edge1_Node000001_Node000002"><a xlink:title=" ">
<path fill="none" stroke="#63b8ff" d="M356.51,-741.53C301.51,-736.35 229.8,-720.6 184.38,-676 116.38,-609.25 95.27,-498.17 89.13,-421.9"/>
<polygon fill="none" stroke="#63b8ff" points="356.21,-745.02 366.46,-742.36 356.79,-738.04 356.21,-745.02"/>
</a>
</g>
</g>
<!-- Node3 -->
<g id="Node000003" class="node">
<title>Node3</title>
<g id="a_Node000003"><a xlink:href="classfr_1_1softsf_1_1sudokufx_1_1utils_1_1_dynamic_font_size.html" target="_top" xlink:title="Manages dynamic font sizing based on the dimensions of a JavaFX Scene.">
<polygon fill="white" stroke="none" points="319.75,-408 193,-408 193,-268 319.75,-268 319.75,-408"/>
<text text-anchor="start" x="206.12" y="-394.5" font-family="Helvetica,sans-Serif" font-size="10.00">fr.softsf.sudokufx.utils.</text>
<text text-anchor="start" x="217.38" y="-382.5" font-family="Helvetica,sans-Serif" font-size="10.00">DynamicFontSize</text>
<text text-anchor="start" x="198.5" y="-366.5" font-family="Helvetica,sans-Serif" font-size="10.00">&#45;</text>
<text text-anchor="start" x="207" y="-366.5" font-family="Helvetica,sans-Serif" font-size="10.00">double currentFontSize</text>
<text text-anchor="start" x="198.5" y="-350.5" font-family="Helvetica,sans-Serif" font-size="10.00">&#45;</text>
<text text-anchor="start" x="207" y="-350.5" font-family="Helvetica,sans-Serif" font-size="10.00">Scene scene</text>
<text text-anchor="start" x="197" y="-334.5" font-family="Helvetica,sans-Serif" font-size="10.00">+</text>
<text text-anchor="start" x="207" y="-334.5" font-family="Helvetica,sans-Serif" font-size="10.00">DynamicFontSize()</text>
<text text-anchor="start" x="197" y="-318.5" font-family="Helvetica,sans-Serif" font-size="10.00">+</text>
<text text-anchor="start" x="207" y="-318.5" font-family="Helvetica,sans-Serif" font-size="10.00">void updateFontSize()</text>
<text text-anchor="start" x="197" y="-302.5" font-family="Helvetica,sans-Serif" font-size="10.00">~</text>
<text text-anchor="start" x="207" y="-302.5" font-family="Helvetica,sans-Serif" font-size="10.00">DynamicFontSize(Scene</text>
<text text-anchor="start" x="207" y="-290.5" font-family="Helvetica,sans-Serif" font-size="10.00"> scene)</text>
<text text-anchor="start" x="198.5" y="-274.5" font-family="Helvetica,sans-Serif" font-size="10.00">&#45;</text>
<text text-anchor="start" x="207" y="-274.5" font-family="Helvetica,sans-Serif" font-size="10.00">void initialize()</text>
<polygon fill="#666666" stroke="#666666" points="193,-378 193,-378 319.75,-378 319.75,-378 193,-378"/>
<polygon fill="#666666" stroke="#666666" points="193,-346 193,-346 205,-346 205,-346 193,-346"/>
<polygon fill="#666666" stroke="#666666" points="205,-346 205,-346 319.75,-346 319.75,-346 205,-346"/>
<polygon fill="none" stroke="#666666" points="193,-268 193,-408 319.75,-408 319.75,-268 193,-268"/>
</a>
</g>
</g>
<!-- Node1&#45;&gt;Node3 -->
<g id="edge2_Node000001_Node000003" class="edge">
<title>Node1&#45;&gt;Node3</title>
<g id="a_edge2_Node000001_Node000003"><a xlink:title=" ">
<path fill="none" stroke="#63b8ff" d="M358.55,-705.88C347.05,-697.43 336.38,-687.49 328.38,-676 272.43,-595.76 258.58,-480.55 255.87,-407.77"/>
<polygon fill="none" stroke="#63b8ff" points="356.44,-708.68 366.66,-711.48 360.42,-702.92 356.44,-708.68"/>
</a>
</g>
</g>
<!-- Node4 -->
<g id="Node000004" class="node">
<title>Node4</title>
<g id="a_Node000004"><a xlink:href="classfr_1_1softsf_1_1sudokufx_1_1view_1_1_crash_screen_view.html" target="_top" xlink:title="View class for the crash screen without business logic.">
<polygon fill="white" stroke="none" points="531.12,-676 337.62,-676 337.62,0 531.12,0 531.12,-676"/>
<text text-anchor="start" x="383.38" y="-662.5" font-family="Helvetica,sans-Serif" font-size="10.00">fr.softsf.sudokufx.view.</text>
<text text-anchor="start" x="395" y="-650.5" font-family="Helvetica,sans-Serif" font-size="10.00">CrashScreenView</text>
<text text-anchor="start" x="343.12" y="-634.5" font-family="Helvetica,sans-Serif" font-size="10.00">&#45;</text>
<text text-anchor="start" x="351.62" y="-634.5" font-family="Helvetica,sans-Serif" font-size="10.00">Button buttonClose</text>
<text text-anchor="start" x="343.12" y="-618.5" font-family="Helvetica,sans-Serif" font-size="10.00">&#45;</text>
<text text-anchor="start" x="351.62" y="-618.5" font-family="Helvetica,sans-Serif" font-size="10.00">Button buttonReset</text>
<text text-anchor="start" x="343.12" y="-602.5" font-family="Helvetica,sans-Serif" font-size="10.00">&#45;</text>
<text text-anchor="start" x="351.62" y="-602.5" font-family="Helvetica,sans-Serif" font-size="10.00">double crashScreenFontSize</text>
<text text-anchor="start" x="343.12" y="-586.5" font-family="Helvetica,sans-Serif" font-size="10.00">&#45;</text>
<text text-anchor="start" x="351.62" y="-586.5" font-family="Helvetica,sans-Serif" font-size="10.00">final Stage crashscreenStage</text>
<text text-anchor="start" x="343.12" y="-570.5" font-family="Helvetica,sans-Serif" font-size="10.00">&#45;</text>
<text text-anchor="start" x="351.62" y="-570.5" font-family="Helvetica,sans-Serif" font-size="10.00">VBox crashscreenvbox</text>
<text text-anchor="start" x="343.12" y="-554.5" font-family="Helvetica,sans-Serif" font-size="10.00">&#45;</text>
<text text-anchor="start" x="351.62" y="-554.5" font-family="Helvetica,sans-Serif" font-size="10.00">Label crashscreenvboxBottomhbox</text>
<text text-anchor="start" x="351.62" y="-542.5" font-family="Helvetica,sans-Serif" font-size="10.00">Versionlabel</text>
<text text-anchor="start" x="343.12" y="-526.5" font-family="Helvetica,sans-Serif" font-size="10.00">&#45;</text>
<text text-anchor="start" x="351.62" y="-526.5" font-family="Helvetica,sans-Serif" font-size="10.00">Label crashscreenvboxBottomhbox</text>
<text text-anchor="start" x="351.62" y="-514.5" font-family="Helvetica,sans-Serif" font-size="10.00">Yearlabel</text>
<text text-anchor="start" x="343.12" y="-498.5" font-family="Helvetica,sans-Serif" font-size="10.00">&#45;</text>
<text text-anchor="start" x="351.62" y="-498.5" font-family="Helvetica,sans-Serif" font-size="10.00">HBox crashscreenvboxCenterhboxHbox</text>
<text text-anchor="start" x="343.12" y="-482.5" font-family="Helvetica,sans-Serif" font-size="10.00">&#45;</text>
<text text-anchor="start" x="351.62" y="-482.5" font-family="Helvetica,sans-Serif" font-size="10.00">Label crashscreenvboxCenterhbox</text>
<text text-anchor="start" x="351.62" y="-470.5" font-family="Helvetica,sans-Serif" font-size="10.00">Label</text>
<text text-anchor="start" x="343.12" y="-454.5" font-family="Helvetica,sans-Serif" font-size="10.00">&#45;</text>
<text text-anchor="start" x="351.62" y="-454.5" font-family="Helvetica,sans-Serif" font-size="10.00">Label crashscreenvboxCenterhbox</text>
<text text-anchor="start" x="351.62" y="-442.5" font-family="Helvetica,sans-Serif" font-size="10.00">Label2</text>
<text text-anchor="start" x="343.12" y="-426.5" font-family="Helvetica,sans-Serif" font-size="10.00">&#45;</text>
<text text-anchor="start" x="351.62" y="-426.5" font-family="Helvetica,sans-Serif" font-size="10.00">Label crashscreenvboxTophbox</text>
<text text-anchor="start" x="351.62" y="-414.5" font-family="Helvetica,sans-Serif" font-size="10.00">Namelabel</text>
<text text-anchor="start" x="343.12" y="-398.5" font-family="Helvetica,sans-Serif" font-size="10.00">&#45;</text>
<text text-anchor="start" x="351.62" y="-398.5" font-family="Helvetica,sans-Serif" font-size="10.00">Region crashscreenvboxTophbox</text>
<text text-anchor="start" x="351.62" y="-386.5" font-family="Helvetica,sans-Serif" font-size="10.00">Regionsudosvg</text>
<text text-anchor="start" x="343.12" y="-370.5" font-family="Helvetica,sans-Serif" font-size="10.00">&#45;</text>
<text text-anchor="start" x="351.62" y="-370.5" font-family="Helvetica,sans-Serif" font-size="10.00">final DropShadow dropShadow</text>
<text text-anchor="start" x="343.12" y="-354.5" font-family="Helvetica,sans-Serif" font-size="10.00">&#45;</text>
<text text-anchor="start" x="351.62" y="-354.5" font-family="Helvetica,sans-Serif" font-size="10.00">final Stage primaryStage</text>
<text text-anchor="start" x="343.12" y="-338.5" font-family="Helvetica,sans-Serif" font-size="10.00">&#45;</text>
<text text-anchor="start" x="351.62" y="-338.5" font-family="Helvetica,sans-Serif" font-size="10.00">static final double</text>
<text text-anchor="start" x="351.62" y="-326.5" font-family="Helvetica,sans-Serif" font-size="10.00"> FADE_IN_IN_SECONDS</text>
<text text-anchor="start" x="351.62" y="-314.5" font-family="Helvetica,sans-Serif" font-size="10.00">_AFTER_SPLASHSCREEN</text>
<text text-anchor="start" x="343.12" y="-298.5" font-family="Helvetica,sans-Serif" font-size="10.00">&#45;</text>
<text text-anchor="start" x="351.62" y="-298.5" font-family="Helvetica,sans-Serif" font-size="10.00">static final IFileSystem</text>
<text text-anchor="start" x="351.62" y="-286.5" font-family="Helvetica,sans-Serif" font-size="10.00"> iFileSystem</text>
<text text-anchor="start" x="343.12" y="-270.5" font-family="Helvetica,sans-Serif" font-size="10.00">&#45;</text>
<text text-anchor="start" x="351.62" y="-270.5" font-family="Helvetica,sans-Serif" font-size="10.00">static final IOsFolderFactory</text>
<text text-anchor="start" x="351.62" y="-258.5" font-family="Helvetica,sans-Serif" font-size="10.00"> iOsFolderFactory</text>
<text text-anchor="start" x="341.62" y="-242.5" font-family="Helvetica,sans-Serif" font-size="10.00">+</text>
<text text-anchor="start" x="351.62" y="-242.5" font-family="Helvetica,sans-Serif" font-size="10.00">void openingMainStage</text>
<text text-anchor="start" x="351.62" y="-230.5" font-family="Helvetica,sans-Serif" font-size="10.00">(ISplashScreenView iSplashScreen</text>
<text text-anchor="start" x="351.62" y="-218.5" font-family="Helvetica,sans-Serif" font-size="10.00">View)</text>
<text text-anchor="start" x="343.12" y="-202.5" font-family="Helvetica,sans-Serif" font-size="10.00">&#45;</text>
<text text-anchor="start" x="351.62" y="-202.5" font-family="Helvetica,sans-Serif" font-size="10.00">void closeButtonClick()</text>
<text text-anchor="start" x="343.12" y="-186.5" font-family="Helvetica,sans-Serif" font-size="10.00">&#45;</text>
<text text-anchor="start" x="351.62" y="-186.5" font-family="Helvetica,sans-Serif" font-size="10.00">void createSVG(final</text>
<text text-anchor="start" x="351.62" y="-174.5" font-family="Helvetica,sans-Serif" font-size="10.00"> Region region, final</text>
<text text-anchor="start" x="351.62" y="-162.5" font-family="Helvetica,sans-Serif" font-size="10.00"> String path, final double</text>
<text text-anchor="start" x="351.62" y="-150.5" font-family="Helvetica,sans-Serif" font-size="10.00"> width, final double height,</text>
<text text-anchor="start" x="351.62" y="-138.5" font-family="Helvetica,sans-Serif" font-size="10.00"> final double offsetX, final</text>
<text text-anchor="start" x="351.62" y="-126.5" font-family="Helvetica,sans-Serif" font-size="10.00"> double offsetY)</text>
<text text-anchor="start" x="343.12" y="-110.5" font-family="Helvetica,sans-Serif" font-size="10.00">&#45;</text>
<text text-anchor="start" x="351.62" y="-110.5" font-family="Helvetica,sans-Serif" font-size="10.00">void fadeIn(final Node</text>
<text text-anchor="start" x="351.62" y="-98.5" font-family="Helvetica,sans-Serif" font-size="10.00"> node)</text>
<text text-anchor="start" x="343.12" y="-82.5" font-family="Helvetica,sans-Serif" font-size="10.00">&#45;</text>
<text text-anchor="start" x="351.62" y="-82.5" font-family="Helvetica,sans-Serif" font-size="10.00">void hidecrashscreen()</text>
<text text-anchor="start" x="343.12" y="-66.5" font-family="Helvetica,sans-Serif" font-size="10.00">&#45;</text>
<text text-anchor="start" x="351.62" y="-66.5" font-family="Helvetica,sans-Serif" font-size="10.00">void initialize()</text>
<text text-anchor="start" x="343.12" y="-50.5" font-family="Helvetica,sans-Serif" font-size="10.00">&#45;</text>
<text text-anchor="start" x="351.62" y="-50.5" font-family="Helvetica,sans-Serif" font-size="10.00">void resetButtonClick()</text>
<text text-anchor="start" x="343.12" y="-34.5" font-family="Helvetica,sans-Serif" font-size="10.00">&#45;</text>
<text text-anchor="start" x="351.62" y="-34.5" font-family="Helvetica,sans-Serif" font-size="10.00">void setCrashscreenvboxTophbox</text>
<text text-anchor="start" x="351.62" y="-22.5" font-family="Helvetica,sans-Serif" font-size="10.00">Logosudosvg()</text>
<text text-anchor="start" x="343.12" y="-6.5" font-family="Helvetica,sans-Serif" font-size="10.00">&#45;</text>
<text text-anchor="start" x="351.62" y="-6.5" font-family="Helvetica,sans-Serif" font-size="10.00">void showcrashscreen()</text>
<polygon fill="#666666" stroke="#666666" points="337.62,-646 337.62,-646 531.12,-646 531.12,-646 337.62,-646"/>
<polygon fill="#666666" stroke="#666666" points="337.62,-254 337.62,-254 349.62,-254 349.62,-254 337.62,-254"/>
<polygon fill="#666666" stroke="#666666" points="349.62,-254 349.62,-254 531.12,-254 531.12,-254 349.62,-254"/>
<polygon fill="none" stroke="#666666" points="337.62,0 337.62,-676 531.12,-676 531.12,0 337.62,0"/>
</a>
</g>
</g>
<!-- Node1&#45;&gt;Node4 -->
<g id="edge3_Node000001_Node000004" class="edge">
<title>Node1&#45;&gt;Node4</title>
<g id="a_edge3_Node000001_Node000004"><a xlink:title=" ">
<path fill="none" stroke="#63b8ff" d="M434.38,-701.02C434.38,-693.38 434.38,-684.89 434.38,-675.72"/>
<polygon fill="none" stroke="#63b8ff" points="430.88,-700.79 434.38,-710.79 437.88,-700.79 430.88,-700.79"/>
</a>
</g>
</g>
<!-- Node5 -->
<g id="Node000005" class="node">
<title>Node5</title>
<g id="a_Node000005"><a xlink:href="classfr_1_1softsf_1_1sudokufx_1_1view_1_1_default_view.html" target="_top" xlink:title="Default view class of the Sudoku application.">
<polygon fill="white" stroke="none" points="697.62,-478 549.12,-478 549.12,-198 697.62,-198 697.62,-478"/>
<text text-anchor="start" x="572.38" y="-464.5" font-family="Helvetica,sans-Serif" font-size="10.00">fr.softsf.sudokufx.view.</text>
<text text-anchor="start" x="596.75" y="-452.5" font-family="Helvetica,sans-Serif" font-size="10.00">DefaultView</text>
<text text-anchor="start" x="554.62" y="-436.5" font-family="Helvetica,sans-Serif" font-size="10.00">&#45;</text>
<text text-anchor="start" x="563.12" y="-436.5" font-family="Helvetica,sans-Serif" font-size="10.00">Button buttonHello</text>
<text text-anchor="start" x="554.62" y="-420.5" font-family="Helvetica,sans-Serif" font-size="10.00">&#45;</text>
<text text-anchor="start" x="563.12" y="-420.5" font-family="Helvetica,sans-Serif" font-size="10.00">Label githubVersion</text>
<text text-anchor="start" x="554.62" y="-404.5" font-family="Helvetica,sans-Serif" font-size="10.00">&#45;</text>
<text text-anchor="start" x="563.12" y="-404.5" font-family="Helvetica,sans-Serif" font-size="10.00">final Stage primaryStage</text>
<text text-anchor="start" x="554.62" y="-388.5" font-family="Helvetica,sans-Serif" font-size="10.00">&#45;</text>
<text text-anchor="start" x="563.12" y="-388.5" font-family="Helvetica,sans-Serif" font-size="10.00">Label version</text>
<text text-anchor="start" x="554.62" y="-372.5" font-family="Helvetica,sans-Serif" font-size="10.00">&#45;</text>
<text text-anchor="start" x="563.12" y="-372.5" font-family="Helvetica,sans-Serif" font-size="10.00">Label welcomeText</text>
<text text-anchor="start" x="554.62" y="-356.5" font-family="Helvetica,sans-Serif" font-size="10.00">&#45;</text>
<text text-anchor="start" x="563.12" y="-356.5" font-family="Helvetica,sans-Serif" font-size="10.00">static final double</text>
<text text-anchor="start" x="563.12" y="-344.5" font-family="Helvetica,sans-Serif" font-size="10.00"> FADE_IN_IN_SECONDS</text>
<text text-anchor="start" x="563.12" y="-332.5" font-family="Helvetica,sans-Serif" font-size="10.00">_AFTER_SPLASHSCREEN</text>
<text text-anchor="start" x="553.12" y="-316.5" font-family="Helvetica,sans-Serif" font-size="10.00">+</text>
<text text-anchor="start" x="563.12" y="-316.5" font-family="Helvetica,sans-Serif" font-size="10.00">void openingMainStage</text>
<text text-anchor="start" x="563.12" y="-304.5" font-family="Helvetica,sans-Serif" font-size="10.00">(final ISplashScreenView</text>
<text text-anchor="start" x="563.12" y="-292.5" font-family="Helvetica,sans-Serif" font-size="10.00"> iSplashScreenView)</text>
<text text-anchor="start" x="554.62" y="-276.5" font-family="Helvetica,sans-Serif" font-size="10.00">&#45;</text>
<text text-anchor="start" x="563.12" y="-276.5" font-family="Helvetica,sans-Serif" font-size="10.00">void openingConfigureStage()</text>
<text text-anchor="start" x="554.62" y="-260.5" font-family="Helvetica,sans-Serif" font-size="10.00">&#45;</text>
<text text-anchor="start" x="563.12" y="-260.5" font-family="Helvetica,sans-Serif" font-size="10.00">void openingFadeIn</text>
<text text-anchor="start" x="563.12" y="-248.5" font-family="Helvetica,sans-Serif" font-size="10.00">(final Node node)</text>
<text text-anchor="start" x="554.62" y="-232.5" font-family="Helvetica,sans-Serif" font-size="10.00">&#45;</text>
<text text-anchor="start" x="563.12" y="-232.5" font-family="Helvetica,sans-Serif" font-size="10.00">void openingMaximizePrimary</text>
<text text-anchor="start" x="563.12" y="-220.5" font-family="Helvetica,sans-Serif" font-size="10.00">Stage()</text>
<text text-anchor="start" x="554.62" y="-204.5" font-family="Helvetica,sans-Serif" font-size="10.00">&#45;</text>
<text text-anchor="start" x="563.12" y="-204.5" font-family="Helvetica,sans-Serif" font-size="10.00">void openingShowStage()</text>
<polygon fill="#666666" stroke="#666666" points="549.12,-448 549.12,-448 697.62,-448 697.62,-448 549.12,-448"/>
<polygon fill="#666666" stroke="#666666" points="549.12,-328 549.12,-328 561.12,-328 561.12,-328 549.12,-328"/>
<polygon fill="#666666" stroke="#666666" points="561.12,-328 561.12,-328 697.62,-328 697.62,-328 561.12,-328"/>
<polygon fill="none" stroke="#666666" points="549.12,-198 549.12,-478 697.62,-478 697.62,-198 549.12,-198"/>
</a>
</g>
</g>
<!-- Node1&#45;&gt;Node5 -->
<g id="edge4_Node000001_Node000005" class="edge">
<title>Node1&#45;&gt;Node5</title>
<g id="a_edge4_Node000001_Node000005"><a xlink:title=" ">
<path fill="none" stroke="#63b8ff" d="M509.9,-705.67C521.43,-697.24 532.19,-687.36 540.38,-676 581.76,-618.56 602.64,-542.85 613.12,-477.74"/>
<polygon fill="none" stroke="#63b8ff" points="508.03,-702.71 501.78,-711.26 512,-708.47 508.03,-702.71"/>
</a>
</g>
</g>
<!-- Node6 -->
<g id="Node000006" class="node">
<title>Node6</title>
<g id="a_Node000006"><a xlink:href="classfr_1_1softsf_1_1sudokufx_1_1view_1_1_full_menu_view.html" target="_top" xlink:title="View class for the full menu screen of the Sudoku application.">
<polygon fill="white" stroke="none" points="864.62,-546 716.12,-546 716.12,-130 864.62,-130 864.62,-546"/>
<text text-anchor="start" x="739.38" y="-532.5" font-family="Helvetica,sans-Serif" font-size="10.00">fr.softsf.sudokufx.view.</text>
<text text-anchor="start" x="759.62" y="-520.5" font-family="Helvetica,sans-Serif" font-size="10.00">FullMenuView</text>
<text text-anchor="start" x="721.62" y="-504.5" font-family="Helvetica,sans-Serif" font-size="10.00">&#45;</text>
<text text-anchor="start" x="730.12" y="-504.5" font-family="Helvetica,sans-Serif" font-size="10.00">Button buttonHello</text>
<text text-anchor="start" x="721.62" y="-488.5" font-family="Helvetica,sans-Serif" font-size="10.00">&#45;</text>
<text text-anchor="start" x="730.12" y="-488.5" font-family="Helvetica,sans-Serif" font-size="10.00">FullMenuViewModel fullMenu</text>
<text text-anchor="start" x="730.12" y="-476.5" font-family="Helvetica,sans-Serif" font-size="10.00">ViewModel</text>
<text text-anchor="start" x="721.62" y="-460.5" font-family="Helvetica,sans-Serif" font-size="10.00">&#45;</text>
<text text-anchor="start" x="730.12" y="-460.5" font-family="Helvetica,sans-Serif" font-size="10.00">FxmlService fxmlService</text>
<text text-anchor="start" x="721.62" y="-444.5" font-family="Helvetica,sans-Serif" font-size="10.00">&#45;</text>
<text text-anchor="start" x="730.12" y="-444.5" font-family="Helvetica,sans-Serif" font-size="10.00">Label githubVersion</text>
<text text-anchor="start" x="721.62" y="-428.5" font-family="Helvetica,sans-Serif" font-size="10.00">&#45;</text>
<text text-anchor="start" x="730.12" y="-428.5" font-family="Helvetica,sans-Serif" font-size="10.00">final Stage primaryStage</text>
<text text-anchor="start" x="721.62" y="-412.5" font-family="Helvetica,sans-Serif" font-size="10.00">&#45;</text>
<text text-anchor="start" x="730.12" y="-412.5" font-family="Helvetica,sans-Serif" font-size="10.00">final Text text1</text>
<text text-anchor="start" x="721.62" y="-396.5" font-family="Helvetica,sans-Serif" font-size="10.00">&#45;</text>
<text text-anchor="start" x="730.12" y="-396.5" font-family="Helvetica,sans-Serif" font-size="10.00">Text text2</text>
<text text-anchor="start" x="721.62" y="-380.5" font-family="Helvetica,sans-Serif" font-size="10.00">&#45;</text>
<text text-anchor="start" x="730.12" y="-380.5" font-family="Helvetica,sans-Serif" font-size="10.00">ToasterVBox toaster</text>
<text text-anchor="start" x="721.62" y="-364.5" font-family="Helvetica,sans-Serif" font-size="10.00">&#45;</text>
<text text-anchor="start" x="730.12" y="-364.5" font-family="Helvetica,sans-Serif" font-size="10.00">Label version</text>
<text text-anchor="start" x="721.62" y="-348.5" font-family="Helvetica,sans-Serif" font-size="10.00">&#45;</text>
<text text-anchor="start" x="730.12" y="-348.5" font-family="Helvetica,sans-Serif" font-size="10.00">Label welcomeText</text>
<text text-anchor="start" x="721.62" y="-332.5" font-family="Helvetica,sans-Serif" font-size="10.00">&#45;</text>
<text text-anchor="start" x="730.12" y="-332.5" font-family="Helvetica,sans-Serif" font-size="10.00">static final double</text>
<text text-anchor="start" x="730.12" y="-320.5" font-family="Helvetica,sans-Serif" font-size="10.00"> FADE_IN_IN_SECONDS</text>
<text text-anchor="start" x="730.12" y="-308.5" font-family="Helvetica,sans-Serif" font-size="10.00">_AFTER_SPLASHSCREEN</text>
<text text-anchor="start" x="720.12" y="-292.5" font-family="Helvetica,sans-Serif" font-size="10.00">+</text>
<text text-anchor="start" x="730.12" y="-292.5" font-family="Helvetica,sans-Serif" font-size="10.00">void openingMainStage</text>
<text text-anchor="start" x="730.12" y="-280.5" font-family="Helvetica,sans-Serif" font-size="10.00">(final ISplashScreenView</text>
<text text-anchor="start" x="730.12" y="-268.5" font-family="Helvetica,sans-Serif" font-size="10.00"> iSplashScreenView)</text>
<text text-anchor="start" x="721.62" y="-252.5" font-family="Helvetica,sans-Serif" font-size="10.00">&#45;</text>
<text text-anchor="start" x="730.12" y="-252.5" font-family="Helvetica,sans-Serif" font-size="10.00">void initialize()</text>
<text text-anchor="start" x="721.62" y="-236.5" font-family="Helvetica,sans-Serif" font-size="10.00">&#45;</text>
<text text-anchor="start" x="730.12" y="-236.5" font-family="Helvetica,sans-Serif" font-size="10.00">void onHelloButtonClick</text>
<text text-anchor="start" x="730.12" y="-224.5" font-family="Helvetica,sans-Serif" font-size="10.00">(ActionEvent event)</text>
<text text-anchor="start" x="721.62" y="-208.5" font-family="Helvetica,sans-Serif" font-size="10.00">&#45;</text>
<text text-anchor="start" x="730.12" y="-208.5" font-family="Helvetica,sans-Serif" font-size="10.00">void openingConfigureStage()</text>
<text text-anchor="start" x="721.62" y="-192.5" font-family="Helvetica,sans-Serif" font-size="10.00">&#45;</text>
<text text-anchor="start" x="730.12" y="-192.5" font-family="Helvetica,sans-Serif" font-size="10.00">void openingFadeIn</text>
<text text-anchor="start" x="730.12" y="-180.5" font-family="Helvetica,sans-Serif" font-size="10.00">(final Node node)</text>
<text text-anchor="start" x="721.62" y="-164.5" font-family="Helvetica,sans-Serif" font-size="10.00">&#45;</text>
<text text-anchor="start" x="730.12" y="-164.5" font-family="Helvetica,sans-Serif" font-size="10.00">void openingMaximizePrimary</text>
<text text-anchor="start" x="730.12" y="-152.5" font-family="Helvetica,sans-Serif" font-size="10.00">Stage()</text>
<text text-anchor="start" x="721.62" y="-136.5" font-family="Helvetica,sans-Serif" font-size="10.00">&#45;</text>
<text text-anchor="start" x="730.12" y="-136.5" font-family="Helvetica,sans-Serif" font-size="10.00">void openingShowStage()</text>
<polygon fill="#666666" stroke="#666666" points="716.12,-516 716.12,-516 864.62,-516 864.62,-516 716.12,-516"/>
<polygon fill="#666666" stroke="#666666" points="716.12,-304 716.12,-304 728.12,-304 728.12,-304 716.12,-304"/>
<polygon fill="#666666" stroke="#666666" points="728.12,-304 728.12,-304 864.62,-304 864.62,-304 728.12,-304"/>
<polygon fill="none" stroke="#666666" points="716.12,-130 716.12,-546 864.62,-546 864.62,-130 716.12,-130"/>
</a>
</g>
</g>
<!-- Node1&#45;&gt;Node6 -->
<g id="edge5_Node000001_Node000006" class="edge">
<title>Node1&#45;&gt;Node6</title>
<g id="a_edge5_Node000001_Node000006"><a xlink:title=" ">
<path fill="none" stroke="#63b8ff" d="M512.05,-732.9C582.46,-722.19 679.24,-703.06 706.38,-676 741.49,-640.98 762.71,-593.68 775.35,-545.6"/>
<polygon fill="none" stroke="#63b8ff" points="511.87,-729.39 502.49,-734.33 512.9,-736.31 511.87,-729.39"/>
</a>
</g>
</g>
</g>
</svg>
