<?xml version="1.0" encoding="UTF-8" standalone="no"?>
<!DOCTYPE svg PUBLIC "-//W3C//DTD SVG 1.1//EN"
 "http://www.w3.org/Graphics/SVG/1.1/DTD/svg11.dtd">
<!-- Generated by graphviz version 12.2.0 (20241103.1931)
 -->
<!-- Title: fr.softsf.sudofx2024.interfaces.mapper.IPlayerLanguageMapper Pages: 1 -->
<svg width="265pt" height="312pt"
 viewBox="0.00 0.00 265.00 312.00" xmlns="http://www.w3.org/2000/svg" xmlns:xlink="http://www.w3.org/1999/xlink">
<g id="graph0" class="graph" transform="scale(1 1) rotate(0) translate(4 308)">
<title>fr.softsf.sudofx2024.interfaces.mapper.IPlayerLanguageMapper</title>
<!-- Node1 -->
<g id="Node000001" class="node">
<title>Node1</title>
<g id="a_Node000001"><a xlink:title="This interface defines methods for mapping objects of type PlayerLanguage to objects of type PlayerLa...">
<polygon fill="#999999" stroke="none" points="179,-128 0,-128 0,0 179,0 179,-128"/>
<text text-anchor="start" x="4" y="-114.5" font-family="Helvetica,sans-Serif" font-size="10.00">fr.softsf.sudofx2024.interfaces.mapper.</text>
<text text-anchor="start" x="37" y="-102.5" font-family="Helvetica,sans-Serif" font-size="10.00">IPlayerLanguageMapper</text>
<text text-anchor="start" x="88" y="-86.5" font-family="Helvetica,sans-Serif" font-size="10.00"> </text>
<text text-anchor="start" x="9" y="-70.5" font-family="Helvetica,sans-Serif" font-size="10.00">+</text>
<text text-anchor="start" x="24" y="-70.5" font-family="Helvetica,sans-Serif" font-size="10.00">PlayerLanguage mapPlayer</text>
<text text-anchor="start" x="24" y="-58.5" font-family="Helvetica,sans-Serif" font-size="10.00">LanguageDtoToPlayerLanguage</text>
<text text-anchor="start" x="24" y="-46.5" font-family="Helvetica,sans-Serif" font-size="10.00">(PlayerLanguageDto dto)</text>
<text text-anchor="start" x="9" y="-30.5" font-family="Helvetica,sans-Serif" font-size="10.00">+</text>
<text text-anchor="start" x="24" y="-30.5" font-family="Helvetica,sans-Serif" font-size="10.00">PlayerLanguageDto mapPlayer</text>
<text text-anchor="start" x="24" y="-18.5" font-family="Helvetica,sans-Serif" font-size="10.00">LanguageToDto(PlayerLanguage</text>
<text text-anchor="start" x="24" y="-6.5" font-family="Helvetica,sans-Serif" font-size="10.00"> playerLanguage)</text>
<polygon fill="#666666" stroke="#666666" points="0,-98 0,-98 179,-98 179,-98 0,-98"/>
<polygon fill="#666666" stroke="#666666" points="0,-82 0,-82 179,-82 179,-82 0,-82"/>
<polygon fill="none" stroke="#666666" points="0,0 0,-128 179,-128 179,0 0,0"/>
</a>
</g>
</g>
<!-- Node2 -->
<g id="Node000002" class="node">
<title>Node2</title>
<g id="a_Node000002"><a xlink:href="interfacefr_1_1softsf_1_1sudofx2024_1_1interfaces_1_1mapper_1_1_i_player_language_mapper.html" target="_top" xlink:title="This interface defines methods for mapping objects of type PlayerLanguage to objects of type PlayerLa...">
<polygon fill="white" stroke="none" points="179,-304 0,-304 0,-176 179,-176 179,-304"/>
<text text-anchor="start" x="4" y="-290.5" font-family="Helvetica,sans-Serif" font-size="10.00">fr.softsf.sudofx2024.interfaces.mapper.</text>
<text text-anchor="start" x="37" y="-278.5" font-family="Helvetica,sans-Serif" font-size="10.00">IPlayerLanguageMapper</text>
<text text-anchor="start" x="88" y="-262.5" font-family="Helvetica,sans-Serif" font-size="10.00"> </text>
<text text-anchor="start" x="9" y="-246.5" font-family="Helvetica,sans-Serif" font-size="10.00">+</text>
<text text-anchor="start" x="24" y="-246.5" font-family="Helvetica,sans-Serif" font-size="10.00">PlayerLanguage mapPlayer</text>
<text text-anchor="start" x="24" y="-234.5" font-family="Helvetica,sans-Serif" font-size="10.00">LanguageDtoToPlayerLanguage</text>
<text text-anchor="start" x="24" y="-222.5" font-family="Helvetica,sans-Serif" font-size="10.00">(PlayerLanguageDto dto)</text>
<text text-anchor="start" x="9" y="-206.5" font-family="Helvetica,sans-Serif" font-size="10.00">+</text>
<text text-anchor="start" x="24" y="-206.5" font-family="Helvetica,sans-Serif" font-size="10.00">PlayerLanguageDto mapPlayer</text>
<text text-anchor="start" x="24" y="-194.5" font-family="Helvetica,sans-Serif" font-size="10.00">LanguageToDto(PlayerLanguage</text>
<text text-anchor="start" x="24" y="-182.5" font-family="Helvetica,sans-Serif" font-size="10.00"> playerLanguage)</text>
<polygon fill="#666666" stroke="#666666" points="0,-274 0,-274 179,-274 179,-274 0,-274"/>
<polygon fill="#666666" stroke="#666666" points="0,-258 0,-258 179,-258 179,-258 0,-258"/>
<polygon fill="none" stroke="#666666" points="0,-176 0,-304 179,-304 179,-176 0,-176"/>
</a>
</g>
</g>
<!-- Node2&#45;&gt;Node1 -->
<g id="edge1_Node000001_Node000002" class="edge">
<title>Node2&#45;&gt;Node1</title>
<g id="a_edge1_Node000001_Node000002"><a xlink:title=" ">
<path fill="none" stroke="#63b8ff" d="M89.5,-176.18C89.5,-164.6 89.5,-152.4 89.5,-140.49"/>
<polygon fill="none" stroke="#63b8ff" points="89.5,-140.63 85.5,-134.63 89.5,-128.63 93.5,-134.63 89.5,-140.63"/>
</a>
</g>
<text text-anchor="middle" x="119.5" y="-148.5" font-family="Helvetica,sans-Serif" font-size="10.00" fill="grey"> +INSTANCE</text>
</g>
<!-- Node2&#45;&gt;Node2 -->
<g id="edge2_Node000002_Node000002" class="edge">
<title>Node2&#45;&gt;Node2</title>
<g id="a_edge2_Node000002_Node000002"><a xlink:title=" ">
<path fill="none" stroke="#63b8ff" d="M178.88,-254.28C189.83,-251.72 197,-246.96 197,-240 197,-236.08 194.73,-232.87 190.8,-230.34"/>
<polygon fill="none" stroke="#63b8ff" points="190.91,-230.39 183.87,-231.95 179.72,-226.05 186.76,-224.49 190.91,-230.39"/>
</a>
</g>
<text text-anchor="middle" x="227" y="-236.5" font-family="Helvetica,sans-Serif" font-size="10.00" fill="grey"> +INSTANCE</text>
</g>
</g>
</svg>
