<?xml version="1.0" encoding="UTF-8" standalone="no"?>
<!DOCTYPE svg PUBLIC "-//W3C//DTD SVG 1.1//EN"
 "http://www.w3.org/Graphics/SVG/1.1/DTD/svg11.dtd">
<!-- Generated by graphviz version 12.2.0 (20241103.1931)
 -->
<!-- Title: fr.softsf.sudofx2024.utils.os.OsFolderFactoryManager.IOsFolderFactory Pages: 1 -->
<svg width="485pt" height="296pt"
 viewBox="0.00 0.00 485.00 296.00" xmlns="http://www.w3.org/2000/svg" xmlns:xlink="http://www.w3.org/1999/xlink">
<g id="graph0" class="graph" transform="scale(1 1) rotate(0) translate(4 292)">
<title>fr.softsf.sudofx2024.utils.os.OsFolderFactoryManager.IOsFolderFactory</title>
<!-- Node1 -->
<g id="Node000001" class="node">
<title>Node1</title>
<g id="a_Node000001"><a xlink:title="Interface defining methods for accessing OS&#45;specific folder paths.">
<polygon fill="#999999" stroke="none" points="320.5,-288 156.5,-288 156.5,-196 320.5,-196 320.5,-288"/>
<text text-anchor="start" x="160.5" y="-274.5" font-family="Helvetica,sans-Serif" font-size="10.00">fr.softsf.sudofx2024.utils.os.</text>
<text text-anchor="start" x="160.5" y="-262.5" font-family="Helvetica,sans-Serif" font-size="10.00">OsFolderFactoryManager.IOsFolder</text>
<text text-anchor="start" x="222" y="-250.5" font-family="Helvetica,sans-Serif" font-size="10.00">Factory</text>
<text text-anchor="start" x="237" y="-234.5" font-family="Helvetica,sans-Serif" font-size="10.00"> </text>
<text text-anchor="start" x="164.75" y="-218.5" font-family="Helvetica,sans-Serif" font-size="10.00">+</text>
<text text-anchor="start" x="179" y="-218.5" font-family="Helvetica,sans-Serif" font-size="10.00">String getOsDataFolderPath()</text>
<text text-anchor="start" x="164.75" y="-202.5" font-family="Helvetica,sans-Serif" font-size="10.00">+</text>
<text text-anchor="start" x="179" y="-202.5" font-family="Helvetica,sans-Serif" font-size="10.00">String getOsLogsFolderPath()</text>
<polygon fill="#666666" stroke="#666666" points="156.5,-246 156.5,-246 320.5,-246 320.5,-246 156.5,-246"/>
<polygon fill="#666666" stroke="#666666" points="156.5,-230 156.5,-230 320.5,-230 320.5,-230 156.5,-230"/>
<polygon fill="none" stroke="#666666" points="156.5,-196 156.5,-288 320.5,-288 320.5,-196 156.5,-196"/>
</a>
</g>
</g>
<!-- Node2 -->
<g id="Node000002" class="node">
<title>Node2</title>
<g id="a_Node000002"><a xlink:href="classfr_1_1softsf_1_1sudofx2024_1_1utils_1_1os_1_1_linux_folder_factory.html" target="_top" xlink:title="Factory class for creating and managing LINUX OS&#45;specific folders for the SudoFX application.">
<polygon fill="white" stroke="none" points="147,-160 0,-160 0,0 147,0 147,-160"/>
<text text-anchor="start" x="11.25" y="-146.5" font-family="Helvetica,sans-Serif" font-size="10.00">fr.softsf.sudofx2024.utils.os.</text>
<text text-anchor="start" x="31.88" y="-134.5" font-family="Helvetica,sans-Serif" font-size="10.00">LinuxFolderFactory</text>
<text text-anchor="start" x="5.5" y="-118.5" font-family="Helvetica,sans-Serif" font-size="10.00">&#45;</text>
<text text-anchor="start" x="14" y="-118.5" font-family="Helvetica,sans-Serif" font-size="10.00">final String DATA_FOLDER</text>
<text text-anchor="start" x="14" y="-106.5" font-family="Helvetica,sans-Serif" font-size="10.00">_FOR_SUDO_FX</text>
<text text-anchor="start" x="5.5" y="-90.5" font-family="Helvetica,sans-Serif" font-size="10.00">&#45;</text>
<text text-anchor="start" x="14" y="-90.5" font-family="Helvetica,sans-Serif" font-size="10.00">final String LOGS_FOLDER</text>
<text text-anchor="start" x="14" y="-78.5" font-family="Helvetica,sans-Serif" font-size="10.00">_FOR_SUDO_FX</text>
<text text-anchor="start" x="4" y="-62.5" font-family="Helvetica,sans-Serif" font-size="10.00">+</text>
<text text-anchor="start" x="14" y="-62.5" font-family="Helvetica,sans-Serif" font-size="10.00">LinuxFolderFactory</text>
<text text-anchor="start" x="14" y="-50.5" font-family="Helvetica,sans-Serif" font-size="10.00">(String dataFolderPath,</text>
<text text-anchor="start" x="14" y="-38.5" font-family="Helvetica,sans-Serif" font-size="10.00"> String logsFolderPath)</text>
<text text-anchor="start" x="4" y="-22.5" font-family="Helvetica,sans-Serif" font-size="10.00">+</text>
<text text-anchor="start" x="14" y="-22.5" font-family="Helvetica,sans-Serif" font-size="10.00">String getOsDataFolderPath()</text>
<text text-anchor="start" x="4" y="-6.5" font-family="Helvetica,sans-Serif" font-size="10.00">+</text>
<text text-anchor="start" x="14" y="-6.5" font-family="Helvetica,sans-Serif" font-size="10.00">String getOsLogsFolderPath()</text>
<polygon fill="#666666" stroke="#666666" points="0,-130 0,-130 147,-130 147,-130 0,-130"/>
<polygon fill="#666666" stroke="#666666" points="0,-74 0,-74 12,-74 12,-74 0,-74"/>
<polygon fill="#666666" stroke="#666666" points="12,-74 12,-74 147,-74 147,-74 12,-74"/>
<polygon fill="none" stroke="#666666" points="0,0 0,-160 147,-160 147,0 0,0"/>
</a>
</g>
</g>
<!-- Node1&#45;&gt;Node2 -->
<g id="edge1_Node000001_Node000002" class="edge">
<title>Node1&#45;&gt;Node2</title>
<g id="a_edge1_Node000001_Node000002"><a xlink:title=" ">
<path fill="none" stroke="#63b8ff" d="M183.99,-188.15C172.06,-176.57 159.24,-164.14 146.71,-151.99"/>
<polygon fill="none" stroke="#63b8ff" points="181.4,-190.5 191.01,-194.95 186.27,-185.48 181.4,-190.5"/>
</a>
</g>
</g>
<!-- Node3 -->
<g id="Node000003" class="node">
<title>Node3</title>
<g id="a_Node000003"><a xlink:href="classfr_1_1softsf_1_1sudofx2024_1_1utils_1_1os_1_1_macos_folder_factory.html" target="_top" xlink:title="Factory class for creating and managing MACOS OS&#45;specific folders for the SudoFX application.">
<polygon fill="white" stroke="none" points="312,-160 165,-160 165,0 312,0 312,-160"/>
<text text-anchor="start" x="176.25" y="-146.5" font-family="Helvetica,sans-Serif" font-size="10.00">fr.softsf.sudofx2024.utils.os.</text>
<text text-anchor="start" x="193.88" y="-134.5" font-family="Helvetica,sans-Serif" font-size="10.00">MacosFolderFactory</text>
<text text-anchor="start" x="170.5" y="-118.5" font-family="Helvetica,sans-Serif" font-size="10.00">&#45;</text>
<text text-anchor="start" x="179" y="-118.5" font-family="Helvetica,sans-Serif" font-size="10.00">final String DATA_FOLDER</text>
<text text-anchor="start" x="179" y="-106.5" font-family="Helvetica,sans-Serif" font-size="10.00">_FOR_SUDO_FX</text>
<text text-anchor="start" x="170.5" y="-90.5" font-family="Helvetica,sans-Serif" font-size="10.00">&#45;</text>
<text text-anchor="start" x="179" y="-90.5" font-family="Helvetica,sans-Serif" font-size="10.00">final String LOGS_FOLDER</text>
<text text-anchor="start" x="179" y="-78.5" font-family="Helvetica,sans-Serif" font-size="10.00">_FOR_SUDO_FX</text>
<text text-anchor="start" x="169" y="-62.5" font-family="Helvetica,sans-Serif" font-size="10.00">+</text>
<text text-anchor="start" x="179" y="-62.5" font-family="Helvetica,sans-Serif" font-size="10.00">MacosFolderFactory</text>
<text text-anchor="start" x="179" y="-50.5" font-family="Helvetica,sans-Serif" font-size="10.00">(String dataFolderPath,</text>
<text text-anchor="start" x="179" y="-38.5" font-family="Helvetica,sans-Serif" font-size="10.00"> String logsFolderPath)</text>
<text text-anchor="start" x="169" y="-22.5" font-family="Helvetica,sans-Serif" font-size="10.00">+</text>
<text text-anchor="start" x="179" y="-22.5" font-family="Helvetica,sans-Serif" font-size="10.00">String getOsDataFolderPath()</text>
<text text-anchor="start" x="169" y="-6.5" font-family="Helvetica,sans-Serif" font-size="10.00">+</text>
<text text-anchor="start" x="179" y="-6.5" font-family="Helvetica,sans-Serif" font-size="10.00">String getOsLogsFolderPath()</text>
<polygon fill="#666666" stroke="#666666" points="165,-130 165,-130 312,-130 312,-130 165,-130"/>
<polygon fill="#666666" stroke="#666666" points="165,-74 165,-74 177,-74 177,-74 165,-74"/>
<polygon fill="#666666" stroke="#666666" points="177,-74 177,-74 312,-74 312,-74 177,-74"/>
<polygon fill="none" stroke="#666666" points="165,0 165,-160 312,-160 312,0 165,0"/>
</a>
</g>
</g>
<!-- Node1&#45;&gt;Node3 -->
<g id="edge2_Node000001_Node000003" class="edge">
<title>Node1&#45;&gt;Node3</title>
<g id="a_edge2_Node000001_Node000003"><a xlink:title=" ">
<path fill="none" stroke="#63b8ff" d="M238.5,-184.57C238.5,-176.57 238.5,-168.23 238.5,-159.9"/>
<polygon fill="none" stroke="#63b8ff" points="235,-184.49 238.5,-194.49 242,-184.49 235,-184.49"/>
</a>
</g>
</g>
<!-- Node4 -->
<g id="Node000004" class="node">
<title>Node4</title>
<g id="a_Node000004"><a xlink:href="classfr_1_1softsf_1_1sudofx2024_1_1utils_1_1os_1_1_windows_folder_factory.html" target="_top" xlink:title="Factory class for creating and managing WINDOWS OS&#45;specific folders for the SudoFX application.">
<polygon fill="white" stroke="none" points="477,-160 330,-160 330,0 477,0 477,-160"/>
<text text-anchor="start" x="341.25" y="-146.5" font-family="Helvetica,sans-Serif" font-size="10.00">fr.softsf.sudofx2024.utils.os.</text>
<text text-anchor="start" x="353.25" y="-134.5" font-family="Helvetica,sans-Serif" font-size="10.00">WindowsFolderFactory</text>
<text text-anchor="start" x="335.5" y="-118.5" font-family="Helvetica,sans-Serif" font-size="10.00">&#45;</text>
<text text-anchor="start" x="344" y="-118.5" font-family="Helvetica,sans-Serif" font-size="10.00">final String DATA_FOLDER</text>
<text text-anchor="start" x="344" y="-106.5" font-family="Helvetica,sans-Serif" font-size="10.00">_FOR_SUDO_FX</text>
<text text-anchor="start" x="335.5" y="-90.5" font-family="Helvetica,sans-Serif" font-size="10.00">&#45;</text>
<text text-anchor="start" x="344" y="-90.5" font-family="Helvetica,sans-Serif" font-size="10.00">final String LOGS_FOLDER</text>
<text text-anchor="start" x="344" y="-78.5" font-family="Helvetica,sans-Serif" font-size="10.00">_FOR_SUDO_FX</text>
<text text-anchor="start" x="334" y="-62.5" font-family="Helvetica,sans-Serif" font-size="10.00">+</text>
<text text-anchor="start" x="344" y="-62.5" font-family="Helvetica,sans-Serif" font-size="10.00">WindowsFolderFactory</text>
<text text-anchor="start" x="344" y="-50.5" font-family="Helvetica,sans-Serif" font-size="10.00">(String dataFolderPath,</text>
<text text-anchor="start" x="344" y="-38.5" font-family="Helvetica,sans-Serif" font-size="10.00"> String logsFolderPath)</text>
<text text-anchor="start" x="334" y="-22.5" font-family="Helvetica,sans-Serif" font-size="10.00">+</text>
<text text-anchor="start" x="344" y="-22.5" font-family="Helvetica,sans-Serif" font-size="10.00">String getOsDataFolderPath()</text>
<text text-anchor="start" x="334" y="-6.5" font-family="Helvetica,sans-Serif" font-size="10.00">+</text>
<text text-anchor="start" x="344" y="-6.5" font-family="Helvetica,sans-Serif" font-size="10.00">String getOsLogsFolderPath()</text>
<polygon fill="#666666" stroke="#666666" points="330,-130 330,-130 477,-130 477,-130 330,-130"/>
<polygon fill="#666666" stroke="#666666" points="330,-74 330,-74 342,-74 342,-74 330,-74"/>
<polygon fill="#666666" stroke="#666666" points="342,-74 342,-74 477,-74 477,-74 342,-74"/>
<polygon fill="none" stroke="#666666" points="330,0 330,-160 477,-160 477,0 330,0"/>
</a>
</g>
</g>
<!-- Node1&#45;&gt;Node4 -->
<g id="edge3_Node000001_Node000004" class="edge">
<title>Node1&#45;&gt;Node4</title>
<g id="a_edge3_Node000001_Node000004"><a xlink:title=" ">
<path fill="none" stroke="#63b8ff" d="M293.01,-188.15C304.94,-176.57 317.76,-164.14 330.29,-151.99"/>
<polygon fill="none" stroke="#63b8ff" points="290.73,-185.48 285.99,-194.95 295.6,-190.5 290.73,-185.48"/>
</a>
</g>
</g>
</g>
</svg>
