<?xml version="1.0" encoding="UTF-8" standalone="no"?>
<!DOCTYPE svg PUBLIC "-//W3C//DTD SVG 1.1//EN"
 "http://www.w3.org/Graphics/SVG/1.1/DTD/svg11.dtd">
<!-- Generated by graphviz version 12.2.0 (20241103.1931)
 -->
<!-- Title: fr.softsf.sudofx2024.repository.GameRepository Pages: 1 -->
<svg width="151pt" height="172pt"
 viewBox="0.00 0.00 151.00 172.00" xmlns="http://www.w3.org/2000/svg" xmlns:xlink="http://www.w3.org/1999/xlink">

<svg id="main" version="1.1" xmlns="http://www.w3.org/2000/svg" xmlns:xlink="http://www.w3.org/1999/xlink" xml:space="preserve">

<style type="text/css"><![CDATA[
.node, .edge {opacity: 0.7;}
.node.selected, .edge.selected {opacity: 1;}
.edge:hover path { stroke: red; }
.edge:hover polygon { stroke: red; fill: red; }
]]></style>
<script type="application/ecmascript" xlink:href="svg.min.js"/>
<svg id="graph" class="graph">
<g id="graph0" class="graph" transform="scale(1 1) rotate(0) translate(4 168)">
<title>fr.softsf.sudofx2024.repository.GameRepository</title>
<!-- Node1 -->
<g id="Node000001" class="node">
<title>Node1</title>
<g id="a_Node000001"><a xlink:title=" ">
<polygon fill="#999999" stroke="none" points="143,-64 0,-64 0,0 143,0 143,-64"/>
<text text-anchor="start" x="4" y="-50.5" font-family="Helvetica,sans-Serif" font-size="10.00">fr.softsf.sudofx2024.repository.</text>
<text text-anchor="start" x="34.75" y="-38.5" font-family="Helvetica,sans-Serif" font-size="10.00">GameRepository</text>
<text text-anchor="start" x="70" y="-22.5" font-family="Helvetica,sans-Serif" font-size="10.00"> </text>
<text text-anchor="start" x="70" y="-6.5" font-family="Helvetica,sans-Serif" font-size="10.00"> </text>
<polygon fill="#666666" stroke="#666666" points="0,-34 0,-34 143,-34 143,-34 0,-34"/>
<polygon fill="#666666" stroke="#666666" points="0,-18 0,-18 143,-18 143,-18 0,-18"/>
<polygon fill="none" stroke="#666666" points="0,0 0,-64 143,-64 143,0 0,0"/>
</a>
</g>
</g>
<!-- Node2 -->
<g id="Node000002" class="node">
<title>Node2</title>
<g id="a_Node000002"><a xlink:title=" ">
<polygon fill="white" stroke="none" points="126.12,-164 16.87,-164 16.87,-100 126.12,-100 126.12,-164"/>
<text text-anchor="start" x="20.88" y="-150.5" font-family="Helvetica,sans-Serif" font-size="10.00">JpaRepository&lt; Game,</text>
<text text-anchor="start" x="55" y="-138.5" font-family="Helvetica,sans-Serif" font-size="10.00"> Long &gt;</text>
<text text-anchor="start" x="70" y="-122.5" font-family="Helvetica,sans-Serif" font-size="10.00"> </text>
<text text-anchor="start" x="70" y="-106.5" font-family="Helvetica,sans-Serif" font-size="10.00"> </text>
<polygon fill="#666666" stroke="#666666" points="16.88,-134 16.88,-134 126.12,-134 126.12,-134 16.88,-134"/>
<polygon fill="#666666" stroke="#666666" points="16.88,-118 16.88,-118 126.12,-118 126.12,-118 16.88,-118"/>
<polygon fill="none" stroke="#666666" points="16.88,-100 16.88,-164 126.12,-164 126.12,-100 16.88,-100"/>
</a>
</g>
</g>
<!-- Node2&#45;&gt;Node1 -->
<g id="edge1_Node000001_Node000002" class="edge">
<title>Node2&#45;&gt;Node1</title>
<g id="a_edge1_Node000001_Node000002"><a xlink:title=" ">
<path fill="none" stroke="#63b8ff" d="M71.5,-88.77C71.5,-80.44 71.5,-71.84 71.5,-63.97"/>
<polygon fill="none" stroke="#63b8ff" points="68,-88.75 71.5,-98.75 75,-88.75 68,-88.75"/>
</a>
</g>
</g>
</g>
</svg>
</svg>

<style type='text/css'>
<![CDATA[
[data-mouse-over-selected='false'] { opacity: 0.7; }
[data-mouse-over-selected='true']  { opacity: 1.0; }
]]>
</style>
<script type="application/ecmascript"><![CDATA[
document.addEventListener('DOMContentLoaded', (event) => {
  highlightEdges();
  highlightAdjacentNodes();
});
]]></script>
</svg>
