<?xml version="1.0" encoding="UTF-8" standalone="no"?>
<!DOCTYPE svg PUBLIC "-//W3C//DTD SVG 1.1//EN"
 "http://www.w3.org/Graphics/SVG/1.1/DTD/svg11.dtd">
<!-- Generated by graphviz version 12.2.0 (20241103.1931)
 -->
<!-- Title: fr.softsf.sudokufx.interfaces.IOsFolderFactory Pages: 1 -->
<svg width="155pt" height="88pt"
 viewBox="0.00 0.00 155.00 88.00" xmlns="http://www.w3.org/2000/svg" xmlns:xlink="http://www.w3.org/1999/xlink">
<g id="graph0" class="graph" transform="scale(1 1) rotate(0) translate(4 84)">
<title>fr.softsf.sudokufx.interfaces.IOsFolderFactory</title>
<!-- Node1 -->
<g id="Node000001" class="node">
<title>Node1</title>
<g id="a_Node000001"><a xlink:title="Interface defining methods to access OS&#45;specific folder paths.">
<polygon fill="#999999" stroke="none" points="147,-80 0,-80 0,0 147,0 147,-80"/>
<text text-anchor="start" x="10.88" y="-66.5" font-family="Helvetica,sans-Serif" font-size="10.00">fr.softsf.sudokufx.interfaces.</text>
<text text-anchor="start" x="35.62" y="-54.5" font-family="Helvetica,sans-Serif" font-size="10.00">IOsFolderFactory</text>
<text text-anchor="start" x="72" y="-38.5" font-family="Helvetica,sans-Serif" font-size="10.00"> </text>
<text text-anchor="start" x="4" y="-22.5" font-family="Helvetica,sans-Serif" font-size="10.00">+</text>
<text text-anchor="start" x="14" y="-22.5" font-family="Helvetica,sans-Serif" font-size="10.00">String getOsDataFolderPath()</text>
<text text-anchor="start" x="4" y="-6.5" font-family="Helvetica,sans-Serif" font-size="10.00">+</text>
<text text-anchor="start" x="14" y="-6.5" font-family="Helvetica,sans-Serif" font-size="10.00">String getOsLogsFolderPath()</text>
<polygon fill="#666666" stroke="#666666" points="0,-50 0,-50 147,-50 147,-50 0,-50"/>
<polygon fill="#666666" stroke="#666666" points="0,-34 0,-34 147,-34 147,-34 0,-34"/>
<polygon fill="none" stroke="#666666" points="0,0 0,-80 147,-80 147,0 0,0"/>
</a>
</g>
</g>
</g>
</svg>
