<?xml version="1.0" encoding="UTF-8" standalone="no"?>
<!DOCTYPE svg PUBLIC "-//W3C//DTD SVG 1.1//EN"
 "http://www.w3.org/Graphics/SVG/1.1/DTD/svg11.dtd">
<!-- Generated by graphviz version 12.2.0 (20241103.1931)
 -->
<!-- Title: fr.softsf.sudofx2024.utils.os.OsFolderFactoryManager.IOsFolderFactory Pages: 1 -->
<svg width="172pt" height="100pt"
 viewBox="0.00 0.00 172.00 100.00" xmlns="http://www.w3.org/2000/svg" xmlns:xlink="http://www.w3.org/1999/xlink">
<g id="graph0" class="graph" transform="scale(1 1) rotate(0) translate(4 96)">
<title>fr.softsf.sudofx2024.utils.os.OsFolderFactoryManager.IOsFolderFactory</title>
<!-- Node1 -->
<g id="Node000001" class="node">
<title>Node1</title>
<g id="a_Node000001"><a xlink:title="Interface defining methods for accessing OS&#45;specific folder paths.">
<polygon fill="#999999" stroke="none" points="164,-92 0,-92 0,0 164,0 164,-92"/>
<text text-anchor="start" x="4" y="-78.5" font-family="Helvetica,sans-Serif" font-size="10.00">fr.softsf.sudofx2024.utils.os.</text>
<text text-anchor="start" x="4" y="-66.5" font-family="Helvetica,sans-Serif" font-size="10.00">OsFolderFactoryManager.IOsFolder</text>
<text text-anchor="start" x="65.5" y="-54.5" font-family="Helvetica,sans-Serif" font-size="10.00">Factory</text>
<text text-anchor="start" x="80.5" y="-38.5" font-family="Helvetica,sans-Serif" font-size="10.00"> </text>
<text text-anchor="start" x="8.25" y="-22.5" font-family="Helvetica,sans-Serif" font-size="10.00">+</text>
<text text-anchor="start" x="22.5" y="-22.5" font-family="Helvetica,sans-Serif" font-size="10.00">String getOsDataFolderPath()</text>
<text text-anchor="start" x="8.25" y="-6.5" font-family="Helvetica,sans-Serif" font-size="10.00">+</text>
<text text-anchor="start" x="22.5" y="-6.5" font-family="Helvetica,sans-Serif" font-size="10.00">String getOsLogsFolderPath()</text>
<polygon fill="#666666" stroke="#666666" points="0,-50 0,-50 164,-50 164,-50 0,-50"/>
<polygon fill="#666666" stroke="#666666" points="0,-34 0,-34 164,-34 164,-34 0,-34"/>
<polygon fill="none" stroke="#666666" points="0,0 0,-92 164,-92 164,0 0,0"/>
</a>
</g>
</g>
</g>
</svg>
