<?xml version="1.0" encoding="UTF-8" standalone="no"?>
<!DOCTYPE svg PUBLIC "-//W3C//DTD SVG 1.1//EN"
 "http://www.w3.org/Graphics/SVG/1.1/DTD/svg11.dtd">
<!-- Generated by graphviz version 12.2.1 (20241206.2353)
 -->
<!-- Title: fr.softsf.sudokufx.configuration.database.keystore.SecretKeyEncryptionServiceAESGCM Pages: 1 -->
<svg width="237pt" height="328pt"
 viewBox="0.00 0.00 237.25 328.00" xmlns="http://www.w3.org/2000/svg" xmlns:xlink="http://www.w3.org/1999/xlink">
<g id="graph0" class="graph" transform="scale(1 1) rotate(0) translate(4 324)">
<title>fr.softsf.sudokufx.configuration.database.keystore.SecretKeyEncryptionServiceAESGCM</title>
<!-- Node1 -->
<g id="Node000001" class="node">
<title>Node1</title>
<g id="a_Node000001"><a xlink:title="Interface defining methods to encrypt and decrypt using AES&#45;GCM (Galois/Counter Mode) encryption.">
<polygon fill="#999999" stroke="none" points="229.25,-232 0,-232 0,0 229.25,0 229.25,-232"/>
<text text-anchor="start" x="4" y="-218.5" font-family="Helvetica,sans-Serif" font-size="10.00">fr.softsf.sudokufx.configuration.database.keystore.</text>
<text text-anchor="start" x="30.25" y="-206.5" font-family="Helvetica,sans-Serif" font-size="10.00">SecretKeyEncryptionServiceAESGCM</text>
<text text-anchor="start" x="15.75" y="-190.5" font-family="Helvetica,sans-Serif" font-size="10.00">&#45;</text>
<text text-anchor="start" x="34.5" y="-190.5" font-family="Helvetica,sans-Serif" font-size="10.00">Cipher cipher</text>
<text text-anchor="start" x="15.75" y="-174.5" font-family="Helvetica,sans-Serif" font-size="10.00">&#45;</text>
<text text-anchor="start" x="34.5" y="-174.5" font-family="Helvetica,sans-Serif" font-size="10.00">final SecretKey secretKey</text>
<text text-anchor="start" x="15.75" y="-158.5" font-family="Helvetica,sans-Serif" font-size="10.00">&#45;</text>
<text text-anchor="start" x="34.5" y="-158.5" font-family="Helvetica,sans-Serif" font-size="10.00">static final SecureRandom</text>
<text text-anchor="start" x="34.5" y="-146.5" font-family="Helvetica,sans-Serif" font-size="10.00"> random</text>
<text text-anchor="start" x="14.25" y="-130.5" font-family="Helvetica,sans-Serif" font-size="10.00">+</text>
<text text-anchor="start" x="34.5" y="-130.5" font-family="Helvetica,sans-Serif" font-size="10.00">SecretKeyEncryptionService</text>
<text text-anchor="start" x="34.5" y="-118.5" font-family="Helvetica,sans-Serif" font-size="10.00">AESGCM(final SecretKey secretKeyP)</text>
<text text-anchor="start" x="14.25" y="-102.5" font-family="Helvetica,sans-Serif" font-size="10.00">+</text>
<text text-anchor="start" x="34.5" y="-102.5" font-family="Helvetica,sans-Serif" font-size="10.00">String decrypt(@NotBlank</text>
<text text-anchor="start" x="34.5" y="-90.5" font-family="Helvetica,sans-Serif" font-size="10.00"> final String cypher)</text>
<text text-anchor="start" x="14.25" y="-74.5" font-family="Helvetica,sans-Serif" font-size="10.00">+</text>
<text text-anchor="start" x="34.5" y="-74.5" font-family="Helvetica,sans-Serif" font-size="10.00">String decrypt(String</text>
<text text-anchor="start" x="34.5" y="-62.5" font-family="Helvetica,sans-Serif" font-size="10.00"> cypher)</text>
<text text-anchor="start" x="14.25" y="-46.5" font-family="Helvetica,sans-Serif" font-size="10.00">+</text>
<text text-anchor="start" x="34.5" y="-46.5" font-family="Helvetica,sans-Serif" font-size="10.00">String encrypt(@NotBlank</text>
<text text-anchor="start" x="34.5" y="-34.5" font-family="Helvetica,sans-Serif" font-size="10.00"> final String original)</text>
<text text-anchor="start" x="14.25" y="-18.5" font-family="Helvetica,sans-Serif" font-size="10.00">+</text>
<text text-anchor="start" x="34.5" y="-18.5" font-family="Helvetica,sans-Serif" font-size="10.00">String encrypt(String</text>
<text text-anchor="start" x="34.5" y="-6.5" font-family="Helvetica,sans-Serif" font-size="10.00"> original)</text>
<polygon fill="#666666" stroke="#666666" points="0,-202 0,-202 229.25,-202 229.25,-202 0,-202"/>
<polygon fill="#666666" stroke="#666666" points="0,-142 0,-142 32.5,-142 32.5,-142 0,-142"/>
<polygon fill="#666666" stroke="#666666" points="32.5,-142 32.5,-142 229.25,-142 229.25,-142 32.5,-142"/>
<polygon fill="none" stroke="#666666" points="0,0 0,-232 229.25,-232 229.25,0 0,0"/>
</a>
</g>
</g>
<!-- Node2 -->
<g id="Node000002" class="node">
<title>Node2</title>
<g id="a_Node000002"><a xlink:title=" ">
<polygon fill="white" stroke="none" points="159.88,-320 69.38,-320 69.38,-268 159.88,-268 159.88,-320"/>
<text text-anchor="start" x="73.38" y="-306.5" font-family="Helvetica,sans-Serif" font-size="10.00">IEncryptionService</text>
<text text-anchor="start" x="113.12" y="-290.5" font-family="Helvetica,sans-Serif" font-size="10.00"> </text>
<text text-anchor="start" x="113.12" y="-274.5" font-family="Helvetica,sans-Serif" font-size="10.00"> </text>
<polygon fill="#666666" stroke="#666666" points="69.38,-302 69.38,-302 159.88,-302 159.88,-302 69.38,-302"/>
<polygon fill="#666666" stroke="#666666" points="69.38,-286 69.38,-286 159.88,-286 159.88,-286 69.38,-286"/>
<polygon fill="none" stroke="#666666" points="69.38,-268 69.38,-320 159.88,-320 159.88,-268 69.38,-268"/>
</a>
</g>
</g>
<!-- Node2&#45;&gt;Node1 -->
<g id="edge1_Node000001_Node000002" class="edge">
<title>Node2&#45;&gt;Node1</title>
<g id="a_edge1_Node000001_Node000002"><a xlink:title=" ">
<path fill="none" stroke="#63b8ff" d="M114.62,-256.81C114.62,-249.12 114.62,-240.61 114.62,-231.7"/>
<polygon fill="none" stroke="#63b8ff" points="111.13,-256.64 114.63,-266.64 118.13,-256.64 111.13,-256.64"/>
</a>
</g>
</g>
</g>
</svg>
