<?xml version="1.0" encoding="UTF-8" standalone="no"?>
<!DOCTYPE svg PUBLIC "-//W3C//DTD SVG 1.1//EN"
 "http://www.w3.org/Graphics/SVG/1.1/DTD/svg11.dtd">
<!-- Generated by graphviz version 12.2.1 (20241206.2353)
 -->
<!-- Title: fr.softsf.sudokufx.configuration.database.SecretKeyEncryptionServiceAESGCM Pages: 1 -->
<svg width="197pt" height="328pt"
 viewBox="0.00 0.00 196.75 328.00" xmlns="http://www.w3.org/2000/svg" xmlns:xlink="http://www.w3.org/1999/xlink">
<g id="graph0" class="graph" transform="scale(1 1) rotate(0) translate(4 324)">
<title>fr.softsf.sudokufx.configuration.database.SecretKeyEncryptionServiceAESGCM</title>
<!-- Node1 -->
<g id="Node000001" class="node">
<title>Node1</title>
<g id="a_Node000001"><a xlink:title="Interface defining methods to encrypt and decrypt using AES&#45;GCM (Galois/Counter Mode) encryption.">
<polygon fill="#999999" stroke="none" points="188.75,-232 0,-232 0,0 188.75,0 188.75,-232"/>
<text text-anchor="start" x="4" y="-218.5" font-family="Helvetica,sans-Serif" font-size="10.00">fr.softsf.sudokufx.configuration.database.</text>
<text text-anchor="start" x="10" y="-206.5" font-family="Helvetica,sans-Serif" font-size="10.00">SecretKeyEncryptionServiceAESGCM</text>
<text text-anchor="start" x="5.62" y="-190.5" font-family="Helvetica,sans-Serif" font-size="10.00">&#45;</text>
<text text-anchor="start" x="14.25" y="-190.5" font-family="Helvetica,sans-Serif" font-size="10.00">Cipher cipher</text>
<text text-anchor="start" x="5.62" y="-174.5" font-family="Helvetica,sans-Serif" font-size="10.00">&#45;</text>
<text text-anchor="start" x="14.25" y="-174.5" font-family="Helvetica,sans-Serif" font-size="10.00">final SecretKey secretKey</text>
<text text-anchor="start" x="5.62" y="-158.5" font-family="Helvetica,sans-Serif" font-size="10.00">&#45;</text>
<text text-anchor="start" x="14.25" y="-158.5" font-family="Helvetica,sans-Serif" font-size="10.00">static final SecureRandom</text>
<text text-anchor="start" x="14.25" y="-146.5" font-family="Helvetica,sans-Serif" font-size="10.00"> random</text>
<text text-anchor="start" x="4.12" y="-130.5" font-family="Helvetica,sans-Serif" font-size="10.00">+</text>
<text text-anchor="start" x="14.25" y="-130.5" font-family="Helvetica,sans-Serif" font-size="10.00">SecretKeyEncryptionService</text>
<text text-anchor="start" x="14.25" y="-118.5" font-family="Helvetica,sans-Serif" font-size="10.00">AESGCM(final SecretKey secretKeyP)</text>
<text text-anchor="start" x="4.12" y="-102.5" font-family="Helvetica,sans-Serif" font-size="10.00">+</text>
<text text-anchor="start" x="14.25" y="-102.5" font-family="Helvetica,sans-Serif" font-size="10.00">String decrypt(@NotBlank</text>
<text text-anchor="start" x="14.25" y="-90.5" font-family="Helvetica,sans-Serif" font-size="10.00"> final String cypher)</text>
<text text-anchor="start" x="4.12" y="-74.5" font-family="Helvetica,sans-Serif" font-size="10.00">+</text>
<text text-anchor="start" x="14.25" y="-74.5" font-family="Helvetica,sans-Serif" font-size="10.00">String decrypt(String</text>
<text text-anchor="start" x="14.25" y="-62.5" font-family="Helvetica,sans-Serif" font-size="10.00"> cypher)</text>
<text text-anchor="start" x="4.12" y="-46.5" font-family="Helvetica,sans-Serif" font-size="10.00">+</text>
<text text-anchor="start" x="14.25" y="-46.5" font-family="Helvetica,sans-Serif" font-size="10.00">String encrypt(@NotBlank</text>
<text text-anchor="start" x="14.25" y="-34.5" font-family="Helvetica,sans-Serif" font-size="10.00"> final String original)</text>
<text text-anchor="start" x="4.12" y="-18.5" font-family="Helvetica,sans-Serif" font-size="10.00">+</text>
<text text-anchor="start" x="14.25" y="-18.5" font-family="Helvetica,sans-Serif" font-size="10.00">String encrypt(String</text>
<text text-anchor="start" x="14.25" y="-6.5" font-family="Helvetica,sans-Serif" font-size="10.00"> original)</text>
<polygon fill="#666666" stroke="#666666" points="0,-202 0,-202 188.75,-202 188.75,-202 0,-202"/>
<polygon fill="#666666" stroke="#666666" points="0,-142 0,-142 12.25,-142 12.25,-142 0,-142"/>
<polygon fill="#666666" stroke="#666666" points="12.25,-142 12.25,-142 188.75,-142 188.75,-142 12.25,-142"/>
<polygon fill="none" stroke="#666666" points="0,0 0,-232 188.75,-232 188.75,0 0,0"/>
</a>
</g>
</g>
<!-- Node2 -->
<g id="Node000002" class="node">
<title>Node2</title>
<g id="a_Node000002"><a xlink:title=" ">
<polygon fill="white" stroke="none" points="139.62,-320 49.12,-320 49.12,-268 139.62,-268 139.62,-320"/>
<text text-anchor="start" x="53.12" y="-306.5" font-family="Helvetica,sans-Serif" font-size="10.00">IEncryptionService</text>
<text text-anchor="start" x="92.88" y="-290.5" font-family="Helvetica,sans-Serif" font-size="10.00"> </text>
<text text-anchor="start" x="92.88" y="-274.5" font-family="Helvetica,sans-Serif" font-size="10.00"> </text>
<polygon fill="#666666" stroke="#666666" points="49.12,-302 49.12,-302 139.62,-302 139.62,-302 49.12,-302"/>
<polygon fill="#666666" stroke="#666666" points="49.12,-286 49.12,-286 139.62,-286 139.62,-286 49.12,-286"/>
<polygon fill="none" stroke="#666666" points="49.12,-268 49.12,-320 139.62,-320 139.62,-268 49.12,-268"/>
</a>
</g>
</g>
<!-- Node2&#45;&gt;Node1 -->
<g id="edge1_Node000001_Node000002" class="edge">
<title>Node2&#45;&gt;Node1</title>
<g id="a_edge1_Node000001_Node000002"><a xlink:title=" ">
<path fill="none" stroke="#63b8ff" d="M94.38,-256.81C94.38,-249.12 94.38,-240.61 94.38,-231.7"/>
<polygon fill="none" stroke="#63b8ff" points="90.88,-256.64 94.38,-266.64 97.88,-256.64 90.88,-256.64"/>
</a>
</g>
</g>
</g>
</svg>
