<?xml version="1.0" encoding="UTF-8" standalone="no"?>
<!DOCTYPE svg PUBLIC "-//W3C//DTD SVG 1.1//EN"
 "http://www.w3.org/Graphics/SVG/1.1/DTD/svg11.dtd">
<!-- Generated by graphviz version 12.2.0 (20241103.1931)
 -->
<!-- Title: fr.softsf.sudofx2024.interfaces.mapper.IBackgroundMapper Pages: 1 -->
<svg width="272pt" height="264pt"
 viewBox="0.00 0.00 272.00 264.00" xmlns="http://www.w3.org/2000/svg" xmlns:xlink="http://www.w3.org/1999/xlink">
<g id="graph0" class="graph" transform="scale(1 1) rotate(0) translate(4 260)">
<title>fr.softsf.sudofx2024.interfaces.mapper.IBackgroundMapper</title>
<!-- Node1 -->
<g id="Node000001" class="node">
<title>Node1</title>
<g id="a_Node000001"><a xlink:title="This interface defines methods for mapping objects of type Background to objects of type BackgroundDt...">
<polygon fill="#999999" stroke="none" points="186,-104 0,-104 0,0 186,0 186,-104"/>
<text text-anchor="start" x="7.5" y="-90.5" font-family="Helvetica,sans-Serif" font-size="10.00">fr.softsf.sudofx2024.interfaces.mapper.</text>
<text text-anchor="start" x="49.5" y="-78.5" font-family="Helvetica,sans-Serif" font-size="10.00">IBackgroundMapper</text>
<text text-anchor="start" x="91.5" y="-62.5" font-family="Helvetica,sans-Serif" font-size="10.00"> </text>
<text text-anchor="start" x="4" y="-46.5" font-family="Helvetica,sans-Serif" font-size="10.00">+</text>
<text text-anchor="start" x="14" y="-46.5" font-family="Helvetica,sans-Serif" font-size="10.00">Background mapBackground</text>
<text text-anchor="start" x="14" y="-34.5" font-family="Helvetica,sans-Serif" font-size="10.00">DtoToBackground(BackgroundDto dto)</text>
<text text-anchor="start" x="4" y="-18.5" font-family="Helvetica,sans-Serif" font-size="10.00">+</text>
<text text-anchor="start" x="14" y="-18.5" font-family="Helvetica,sans-Serif" font-size="10.00">BackgroundDto mapBackground</text>
<text text-anchor="start" x="14" y="-6.5" font-family="Helvetica,sans-Serif" font-size="10.00">ToDto(Background background)</text>
<polygon fill="#666666" stroke="#666666" points="0,-74 0,-74 186,-74 186,-74 0,-74"/>
<polygon fill="#666666" stroke="#666666" points="0,-58 0,-58 186,-58 186,-58 0,-58"/>
<polygon fill="none" stroke="#666666" points="0,0 0,-104 186,-104 186,0 0,0"/>
</a>
</g>
</g>
<!-- Node2 -->
<g id="Node000002" class="node">
<title>Node2</title>
<g id="a_Node000002"><a xlink:href="interfacefr_1_1softsf_1_1sudofx2024_1_1interfaces_1_1mapper_1_1_i_background_mapper.html" target="_top" xlink:title="This interface defines methods for mapping objects of type Background to objects of type BackgroundDt...">
<polygon fill="white" stroke="none" points="186,-256 0,-256 0,-152 186,-152 186,-256"/>
<text text-anchor="start" x="7.5" y="-242.5" font-family="Helvetica,sans-Serif" font-size="10.00">fr.softsf.sudofx2024.interfaces.mapper.</text>
<text text-anchor="start" x="49.5" y="-230.5" font-family="Helvetica,sans-Serif" font-size="10.00">IBackgroundMapper</text>
<text text-anchor="start" x="91.5" y="-214.5" font-family="Helvetica,sans-Serif" font-size="10.00"> </text>
<text text-anchor="start" x="4" y="-198.5" font-family="Helvetica,sans-Serif" font-size="10.00">+</text>
<text text-anchor="start" x="14" y="-198.5" font-family="Helvetica,sans-Serif" font-size="10.00">Background mapBackground</text>
<text text-anchor="start" x="14" y="-186.5" font-family="Helvetica,sans-Serif" font-size="10.00">DtoToBackground(BackgroundDto dto)</text>
<text text-anchor="start" x="4" y="-170.5" font-family="Helvetica,sans-Serif" font-size="10.00">+</text>
<text text-anchor="start" x="14" y="-170.5" font-family="Helvetica,sans-Serif" font-size="10.00">BackgroundDto mapBackground</text>
<text text-anchor="start" x="14" y="-158.5" font-family="Helvetica,sans-Serif" font-size="10.00">ToDto(Background background)</text>
<polygon fill="#666666" stroke="#666666" points="0,-226 0,-226 186,-226 186,-226 0,-226"/>
<polygon fill="#666666" stroke="#666666" points="0,-210 0,-210 186,-210 186,-210 0,-210"/>
<polygon fill="none" stroke="#666666" points="0,-152 0,-256 186,-256 186,-152 0,-152"/>
</a>
</g>
</g>
<!-- Node2&#45;&gt;Node1 -->
<g id="edge1_Node000001_Node000002" class="edge">
<title>Node2&#45;&gt;Node1</title>
<g id="a_edge1_Node000001_Node000002"><a xlink:title=" ">
<path fill="none" stroke="#63b8ff" d="M93,-152.22C93,-140.92 93,-128.79 93,-117.04"/>
<polygon fill="none" stroke="#63b8ff" points="93,-116.89 89,-110.89 93,-104.89 97,-110.89 93,-116.89"/>
</a>
</g>
<text text-anchor="middle" x="123" y="-124.5" font-family="Helvetica,sans-Serif" font-size="10.00" fill="grey"> +INSTANCE</text>
</g>
<!-- Node2&#45;&gt;Node2 -->
<g id="edge2_Node000002_Node000002" class="edge">
<title>Node2&#45;&gt;Node2</title>
<g id="a_edge2_Node000002_Node000002"><a xlink:title=" ">
<path fill="none" stroke="#63b8ff" d="M185.71,-216.25C196.77,-214.02 204,-209.94 204,-204 204,-200.75 201.84,-198.06 198.07,-195.92"/>
<polygon fill="none" stroke="#63b8ff" points="197.93,-195.88 190.97,-197.75 186.56,-192.04 193.53,-190.17 197.93,-195.88"/>
</a>
</g>
<text text-anchor="middle" x="234" y="-200.5" font-family="Helvetica,sans-Serif" font-size="10.00" fill="grey"> +INSTANCE</text>
</g>
</g>
</svg>
