<?xml version="1.0" encoding="UTF-8" standalone="no"?>
<!DOCTYPE svg PUBLIC "-//W3C//DTD SVG 1.1//EN"
 "http://www.w3.org/Graphics/SVG/1.1/DTD/svg11.dtd">
<!-- Generated by graphviz version 12.2.0 (20241103.1931)
 -->
<!-- Title: fr.softsf.sudokufx.interfaces.IOsFolderFactory Pages: 1 -->
<svg width="524pt" height="284pt"
 viewBox="0.00 0.00 523.50 284.00" xmlns="http://www.w3.org/2000/svg" xmlns:xlink="http://www.w3.org/1999/xlink">
<g id="graph0" class="graph" transform="scale(1 1) rotate(0) translate(4 280)">
<title>fr.softsf.sudokufx.interfaces.IOsFolderFactory</title>
<!-- Node1 -->
<g id="Node000001" class="node">
<title>Node1</title>
<g id="a_Node000001"><a xlink:title="Interface defining methods to access OS&#45;specific folder paths.">
<polygon fill="#999999" stroke="none" points="331.25,-276 184.25,-276 184.25,-196 331.25,-196 331.25,-276"/>
<text text-anchor="start" x="195.12" y="-262.5" font-family="Helvetica,sans-Serif" font-size="10.00">fr.softsf.sudokufx.interfaces.</text>
<text text-anchor="start" x="219.88" y="-250.5" font-family="Helvetica,sans-Serif" font-size="10.00">IOsFolderFactory</text>
<text text-anchor="start" x="256.25" y="-234.5" font-family="Helvetica,sans-Serif" font-size="10.00"> </text>
<text text-anchor="start" x="188.25" y="-218.5" font-family="Helvetica,sans-Serif" font-size="10.00">+</text>
<text text-anchor="start" x="198.25" y="-218.5" font-family="Helvetica,sans-Serif" font-size="10.00">String getOsDataFolderPath()</text>
<text text-anchor="start" x="188.25" y="-202.5" font-family="Helvetica,sans-Serif" font-size="10.00">+</text>
<text text-anchor="start" x="198.25" y="-202.5" font-family="Helvetica,sans-Serif" font-size="10.00">String getOsLogsFolderPath()</text>
<polygon fill="#666666" stroke="#666666" points="184.25,-246 184.25,-246 331.25,-246 331.25,-246 184.25,-246"/>
<polygon fill="#666666" stroke="#666666" points="184.25,-230 184.25,-230 331.25,-230 331.25,-230 184.25,-230"/>
<polygon fill="none" stroke="#666666" points="184.25,-196 184.25,-276 331.25,-276 331.25,-196 184.25,-196"/>
</a>
</g>
</g>
<!-- Node2 -->
<g id="Node000002" class="node">
<title>Node2</title>
<g id="a_Node000002"><a xlink:href="classfr_1_1softsf_1_1sudokufx_1_1configuration_1_1os_1_1_linux_folder_factory.html" target="_top" xlink:title="Factory class for creating and managing LINUX OS&#45;specific folders for the SudoFX application.">
<polygon fill="white" stroke="none" points="159.5,-160 0,-160 0,0 159.5,0 159.5,-160"/>
<text text-anchor="start" x="4" y="-146.5" font-family="Helvetica,sans-Serif" font-size="10.00">fr.softsf.sudokufx.configuration.os.</text>
<text text-anchor="start" x="38.12" y="-134.5" font-family="Helvetica,sans-Serif" font-size="10.00">LinuxFolderFactory</text>
<text text-anchor="start" x="8.62" y="-118.5" font-family="Helvetica,sans-Serif" font-size="10.00">&#45;</text>
<text text-anchor="start" x="20.25" y="-118.5" font-family="Helvetica,sans-Serif" font-size="10.00">final String dataFolderFor</text>
<text text-anchor="start" x="20.25" y="-106.5" font-family="Helvetica,sans-Serif" font-size="10.00">SudoFx</text>
<text text-anchor="start" x="8.62" y="-90.5" font-family="Helvetica,sans-Serif" font-size="10.00">&#45;</text>
<text text-anchor="start" x="20.25" y="-90.5" font-family="Helvetica,sans-Serif" font-size="10.00">final String logsFolderFor</text>
<text text-anchor="start" x="20.25" y="-78.5" font-family="Helvetica,sans-Serif" font-size="10.00">SudoFx</text>
<text text-anchor="start" x="7.12" y="-62.5" font-family="Helvetica,sans-Serif" font-size="10.00">+</text>
<text text-anchor="start" x="20.25" y="-62.5" font-family="Helvetica,sans-Serif" font-size="10.00">LinuxFolderFactory</text>
<text text-anchor="start" x="20.25" y="-50.5" font-family="Helvetica,sans-Serif" font-size="10.00">(String dataFolderPath,</text>
<text text-anchor="start" x="20.25" y="-38.5" font-family="Helvetica,sans-Serif" font-size="10.00"> String logsFolderPath)</text>
<text text-anchor="start" x="7.12" y="-22.5" font-family="Helvetica,sans-Serif" font-size="10.00">+</text>
<text text-anchor="start" x="20.25" y="-22.5" font-family="Helvetica,sans-Serif" font-size="10.00">String getOsDataFolderPath()</text>
<text text-anchor="start" x="7.12" y="-6.5" font-family="Helvetica,sans-Serif" font-size="10.00">+</text>
<text text-anchor="start" x="20.25" y="-6.5" font-family="Helvetica,sans-Serif" font-size="10.00">String getOsLogsFolderPath()</text>
<polygon fill="#666666" stroke="#666666" points="0,-130 0,-130 159.5,-130 159.5,-130 0,-130"/>
<polygon fill="#666666" stroke="#666666" points="0,-74 0,-74 18.25,-74 18.25,-74 0,-74"/>
<polygon fill="#666666" stroke="#666666" points="18.25,-74 18.25,-74 159.5,-74 159.5,-74 18.25,-74"/>
<polygon fill="none" stroke="#666666" points="0,0 0,-160 159.5,-160 159.5,0 0,0"/>
</a>
</g>
</g>
<!-- Node1&#45;&gt;Node2 -->
<g id="edge1_Node000001_Node000002" class="edge">
<title>Node1&#45;&gt;Node2</title>
<g id="a_edge1_Node000001_Node000002"><a xlink:title=" ">
<path fill="none" stroke="#63b8ff" d="M202.83,-189.1C191.52,-179.53 179.71,-169.48 168.75,-160 165.62,-157.3 162.44,-154.53 159.24,-151.74"/>
<polygon fill="none" stroke="#63b8ff" points="200.31,-191.55 210.21,-195.32 204.82,-186.2 200.31,-191.55"/>
</a>
</g>
</g>
<!-- Node3 -->
<g id="Node000003" class="node">
<title>Node3</title>
<g id="a_Node000003"><a xlink:href="classfr_1_1softsf_1_1sudokufx_1_1configuration_1_1os_1_1_macos_folder_factory.html" target="_top" xlink:title="Factory class for creating and managing MACOS OS&#45;specific folders for the SudoFX application.">
<polygon fill="white" stroke="none" points="337.5,-160 178,-160 178,0 337.5,0 337.5,-160"/>
<text text-anchor="start" x="182" y="-146.5" font-family="Helvetica,sans-Serif" font-size="10.00">fr.softsf.sudokufx.configuration.os.</text>
<text text-anchor="start" x="213.12" y="-134.5" font-family="Helvetica,sans-Serif" font-size="10.00">MacosFolderFactory</text>
<text text-anchor="start" x="186.62" y="-118.5" font-family="Helvetica,sans-Serif" font-size="10.00">&#45;</text>
<text text-anchor="start" x="198.25" y="-118.5" font-family="Helvetica,sans-Serif" font-size="10.00">final String dataFolderFor</text>
<text text-anchor="start" x="198.25" y="-106.5" font-family="Helvetica,sans-Serif" font-size="10.00">SudoFx</text>
<text text-anchor="start" x="186.62" y="-90.5" font-family="Helvetica,sans-Serif" font-size="10.00">&#45;</text>
<text text-anchor="start" x="198.25" y="-90.5" font-family="Helvetica,sans-Serif" font-size="10.00">final String logsFolderFor</text>
<text text-anchor="start" x="198.25" y="-78.5" font-family="Helvetica,sans-Serif" font-size="10.00">SudoFx</text>
<text text-anchor="start" x="185.12" y="-62.5" font-family="Helvetica,sans-Serif" font-size="10.00">+</text>
<text text-anchor="start" x="198.25" y="-62.5" font-family="Helvetica,sans-Serif" font-size="10.00">MacosFolderFactory</text>
<text text-anchor="start" x="198.25" y="-50.5" font-family="Helvetica,sans-Serif" font-size="10.00">(String dataFolderPath,</text>
<text text-anchor="start" x="198.25" y="-38.5" font-family="Helvetica,sans-Serif" font-size="10.00"> String logsFolderPath)</text>
<text text-anchor="start" x="185.12" y="-22.5" font-family="Helvetica,sans-Serif" font-size="10.00">+</text>
<text text-anchor="start" x="198.25" y="-22.5" font-family="Helvetica,sans-Serif" font-size="10.00">String getOsDataFolderPath()</text>
<text text-anchor="start" x="185.12" y="-6.5" font-family="Helvetica,sans-Serif" font-size="10.00">+</text>
<text text-anchor="start" x="198.25" y="-6.5" font-family="Helvetica,sans-Serif" font-size="10.00">String getOsLogsFolderPath()</text>
<polygon fill="#666666" stroke="#666666" points="178,-130 178,-130 337.5,-130 337.5,-130 178,-130"/>
<polygon fill="#666666" stroke="#666666" points="178,-74 178,-74 196.25,-74 196.25,-74 178,-74"/>
<polygon fill="#666666" stroke="#666666" points="196.25,-74 196.25,-74 337.5,-74 337.5,-74 196.25,-74"/>
<polygon fill="none" stroke="#666666" points="178,0 178,-160 337.5,-160 337.5,0 178,0"/>
</a>
</g>
</g>
<!-- Node1&#45;&gt;Node3 -->
<g id="edge2_Node000001_Node000003" class="edge">
<title>Node1&#45;&gt;Node3</title>
<g id="a_edge2_Node000001_Node000003"><a xlink:title=" ">
<path fill="none" stroke="#63b8ff" d="M257.75,-184.76C257.75,-176.75 257.75,-168.3 257.75,-159.81"/>
<polygon fill="none" stroke="#63b8ff" points="254.25,-184.63 257.75,-194.63 261.25,-184.63 254.25,-184.63"/>
</a>
</g>
</g>
<!-- Node4 -->
<g id="Node000004" class="node">
<title>Node4</title>
<g id="a_Node000004"><a xlink:href="classfr_1_1softsf_1_1sudokufx_1_1configuration_1_1os_1_1_windows_folder_factory.html" target="_top" xlink:title="Factory class for creating and managing WINDOWS OS&#45;specific folders for the SudoFX application.">
<polygon fill="white" stroke="none" points="515.5,-160 356,-160 356,0 515.5,0 515.5,-160"/>
<text text-anchor="start" x="360" y="-146.5" font-family="Helvetica,sans-Serif" font-size="10.00">fr.softsf.sudokufx.configuration.os.</text>
<text text-anchor="start" x="385.5" y="-134.5" font-family="Helvetica,sans-Serif" font-size="10.00">WindowsFolderFactory</text>
<text text-anchor="start" x="364.62" y="-118.5" font-family="Helvetica,sans-Serif" font-size="10.00">&#45;</text>
<text text-anchor="start" x="376.25" y="-118.5" font-family="Helvetica,sans-Serif" font-size="10.00">final String dataFolderFor</text>
<text text-anchor="start" x="376.25" y="-106.5" font-family="Helvetica,sans-Serif" font-size="10.00">SudoFx</text>
<text text-anchor="start" x="364.62" y="-90.5" font-family="Helvetica,sans-Serif" font-size="10.00">&#45;</text>
<text text-anchor="start" x="376.25" y="-90.5" font-family="Helvetica,sans-Serif" font-size="10.00">final String logsFolderFor</text>
<text text-anchor="start" x="376.25" y="-78.5" font-family="Helvetica,sans-Serif" font-size="10.00">SudoFx</text>
<text text-anchor="start" x="363.12" y="-62.5" font-family="Helvetica,sans-Serif" font-size="10.00">+</text>
<text text-anchor="start" x="376.25" y="-62.5" font-family="Helvetica,sans-Serif" font-size="10.00">WindowsFolderFactory</text>
<text text-anchor="start" x="376.25" y="-50.5" font-family="Helvetica,sans-Serif" font-size="10.00">(String dataFolderPath,</text>
<text text-anchor="start" x="376.25" y="-38.5" font-family="Helvetica,sans-Serif" font-size="10.00"> String logsFolderPath)</text>
<text text-anchor="start" x="363.12" y="-22.5" font-family="Helvetica,sans-Serif" font-size="10.00">+</text>
<text text-anchor="start" x="376.25" y="-22.5" font-family="Helvetica,sans-Serif" font-size="10.00">String getOsDataFolderPath()</text>
<text text-anchor="start" x="363.12" y="-6.5" font-family="Helvetica,sans-Serif" font-size="10.00">+</text>
<text text-anchor="start" x="376.25" y="-6.5" font-family="Helvetica,sans-Serif" font-size="10.00">String getOsLogsFolderPath()</text>
<polygon fill="#666666" stroke="#666666" points="356,-130 356,-130 515.5,-130 515.5,-130 356,-130"/>
<polygon fill="#666666" stroke="#666666" points="356,-74 356,-74 374.25,-74 374.25,-74 356,-74"/>
<polygon fill="#666666" stroke="#666666" points="374.25,-74 374.25,-74 515.5,-74 515.5,-74 374.25,-74"/>
<polygon fill="none" stroke="#666666" points="356,0 356,-160 515.5,-160 515.5,0 356,0"/>
</a>
</g>
</g>
<!-- Node1&#45;&gt;Node4 -->
<g id="edge3_Node000001_Node000004" class="edge">
<title>Node1&#45;&gt;Node4</title>
<g id="a_edge3_Node000001_Node000004"><a xlink:title=" ">
<path fill="none" stroke="#63b8ff" d="M312.67,-189.1C323.98,-179.53 335.79,-169.48 346.75,-160 349.88,-157.3 353.06,-154.53 356.26,-151.74"/>
<polygon fill="none" stroke="#63b8ff" points="310.68,-186.2 305.29,-195.32 315.19,-191.55 310.68,-186.2"/>
</a>
</g>
</g>
</g>
</svg>
