<?xml version="1.0" encoding="UTF-8" standalone="no"?>
<!DOCTYPE svg PUBLIC "-//W3C//DTD SVG 1.1//EN"
 "http://www.w3.org/Graphics/SVG/1.1/DTD/svg11.dtd">
<!-- Generated by graphviz version 12.2.0 (20241103.1931)
 -->
<!-- Title: fr.softsf.sudofx2024.repository.SoftwareRepository Pages: 1 -->
<svg width="151pt" height="184pt"
 viewBox="0.00 0.00 151.00 184.00" xmlns="http://www.w3.org/2000/svg" xmlns:xlink="http://www.w3.org/1999/xlink">
<g id="graph0" class="graph" transform="scale(1 1) rotate(0) translate(4 180)">
<title>fr.softsf.sudofx2024.repository.SoftwareRepository</title>
<!-- Node1 -->
<g id="Node000001" class="node">
<title>Node1</title>
<g id="a_Node000001"><a xlink:title=" ">
<polygon fill="#999999" stroke="none" points="143,-76 0,-76 0,0 143,0 143,-76"/>
<text text-anchor="start" x="4" y="-62.5" font-family="Helvetica,sans-Serif" font-size="10.00">fr.softsf.sudofx2024.repository.</text>
<text text-anchor="start" x="28.38" y="-50.5" font-family="Helvetica,sans-Serif" font-size="10.00">SoftwareRepository</text>
<text text-anchor="start" x="70" y="-34.5" font-family="Helvetica,sans-Serif" font-size="10.00"> </text>
<text text-anchor="start" x="12.19" y="-18.5" font-family="Helvetica,sans-Serif" font-size="10.00">+</text>
<text text-anchor="start" x="30.38" y="-18.5" font-family="Helvetica,sans-Serif" font-size="10.00">Optional&lt; Software</text>
<text text-anchor="start" x="30.38" y="-6.5" font-family="Helvetica,sans-Serif" font-size="10.00"> &gt; findFirstSoftware()</text>
<polygon fill="#666666" stroke="#666666" points="0,-46 0,-46 143,-46 143,-46 0,-46"/>
<polygon fill="#666666" stroke="#666666" points="0,-30 0,-30 143,-30 143,-30 0,-30"/>
<polygon fill="none" stroke="#666666" points="0,0 0,-76 143,-76 143,0 0,0"/>
</a>
</g>
</g>
<!-- Node2 -->
<g id="Node000002" class="node">
<title>Node2</title>
<g id="a_Node000002"><a xlink:title=" ">
<polygon fill="white" stroke="none" points="132.5,-176 10.5,-176 10.5,-112 132.5,-112 132.5,-176"/>
<text text-anchor="start" x="14.5" y="-162.5" font-family="Helvetica,sans-Serif" font-size="10.00">JpaRepository&lt; Software,</text>
<text text-anchor="start" x="55" y="-150.5" font-family="Helvetica,sans-Serif" font-size="10.00"> Long &gt;</text>
<text text-anchor="start" x="70" y="-134.5" font-family="Helvetica,sans-Serif" font-size="10.00"> </text>
<text text-anchor="start" x="70" y="-118.5" font-family="Helvetica,sans-Serif" font-size="10.00"> </text>
<polygon fill="#666666" stroke="#666666" points="10.5,-146 10.5,-146 132.5,-146 132.5,-146 10.5,-146"/>
<polygon fill="#666666" stroke="#666666" points="10.5,-130 10.5,-130 132.5,-130 132.5,-130 10.5,-130"/>
<polygon fill="none" stroke="#666666" points="10.5,-112 10.5,-176 132.5,-176 132.5,-112 10.5,-112"/>
</a>
</g>
</g>
<!-- Node2&#45;&gt;Node1 -->
<g id="edge1_Node000001_Node000002" class="edge">
<title>Node2&#45;&gt;Node1</title>
<g id="a_edge1_Node000001_Node000002"><a xlink:title=" ">
<path fill="none" stroke="#63b8ff" d="M71.5,-100.74C71.5,-92.49 71.5,-83.91 71.5,-75.86"/>
<polygon fill="none" stroke="#63b8ff" points="68,-100.56 71.5,-110.56 75,-100.56 68,-100.56"/>
</a>
</g>
</g>
</g>
</svg>
