<?xml version="1.0" encoding="UTF-8" standalone="no"?>
<!DOCTYPE svg PUBLIC "-//W3C//DTD SVG 1.1//EN"
 "http://www.w3.org/Graphics/SVG/1.1/DTD/svg11.dtd">
<!-- Generated by graphviz version 12.2.0 (20241103.1931)
 -->
<!-- Title: fr.softsf.sudokufx.repository.PlayerLanguageRepository Pages: 1 -->
<svg width="161pt" height="172pt"
 viewBox="0.00 0.00 160.75 172.00" xmlns="http://www.w3.org/2000/svg" xmlns:xlink="http://www.w3.org/1999/xlink">

<svg id="main" version="1.1" xmlns="http://www.w3.org/2000/svg" xmlns:xlink="http://www.w3.org/1999/xlink" xml:space="preserve">

<style type="text/css"><![CDATA[
.node, .edge {opacity: 0.7;}
.node.selected, .edge.selected {opacity: 1;}
.edge:hover path { stroke: red; }
.edge:hover polygon { stroke: red; fill: red; }
]]></style>
<script type="application/ecmascript" xlink:href="svg.min.js"/>
<svg id="graph" class="graph">
<g id="graph0" class="graph" transform="scale(1 1) rotate(0) translate(4 168)">
<title>fr.softsf.sudokufx.repository.PlayerLanguageRepository</title>
<!-- Node1 -->
<g id="Node000001" class="node">
<title>Node1</title>
<g id="a_Node000001"><a xlink:title=" ">
<polygon fill="#999999" stroke="none" points="142.62,-64 10.12,-64 10.12,0 142.62,0 142.62,-64"/>
<text text-anchor="start" x="14.12" y="-50.5" font-family="Helvetica,sans-Serif" font-size="10.00">fr.softsf.sudokufx.repository.</text>
<text text-anchor="start" x="17.88" y="-38.5" font-family="Helvetica,sans-Serif" font-size="10.00">PlayerLanguageRepository</text>
<text text-anchor="start" x="74.88" y="-22.5" font-family="Helvetica,sans-Serif" font-size="10.00"> </text>
<text text-anchor="start" x="74.88" y="-6.5" font-family="Helvetica,sans-Serif" font-size="10.00"> </text>
<polygon fill="#666666" stroke="#666666" points="10.12,-34 10.12,-34 142.62,-34 142.62,-34 10.12,-34"/>
<polygon fill="#666666" stroke="#666666" points="10.12,-18 10.12,-18 142.62,-18 142.62,-18 10.12,-18"/>
<polygon fill="none" stroke="#666666" points="10.12,0 10.12,-64 142.62,-64 142.62,0 10.12,0"/>
</a>
</g>
</g>
<!-- Node2 -->
<g id="Node000002" class="node">
<title>Node2</title>
<g id="a_Node000002"><a xlink:title=" ">
<polygon fill="white" stroke="none" points="152.75,-164 0,-164 0,-100 152.75,-100 152.75,-164"/>
<text text-anchor="start" x="4" y="-150.5" font-family="Helvetica,sans-Serif" font-size="10.00">JpaRepository&lt; PlayerLanguage,</text>
<text text-anchor="start" x="59.88" y="-138.5" font-family="Helvetica,sans-Serif" font-size="10.00"> Long &gt;</text>
<text text-anchor="start" x="74.88" y="-122.5" font-family="Helvetica,sans-Serif" font-size="10.00"> </text>
<text text-anchor="start" x="74.88" y="-106.5" font-family="Helvetica,sans-Serif" font-size="10.00"> </text>
<polygon fill="#666666" stroke="#666666" points="0,-134 0,-134 152.75,-134 152.75,-134 0,-134"/>
<polygon fill="#666666" stroke="#666666" points="0,-118 0,-118 152.75,-118 152.75,-118 0,-118"/>
<polygon fill="none" stroke="#666666" points="0,-100 0,-164 152.75,-164 152.75,-100 0,-100"/>
</a>
</g>
</g>
<!-- Node2&#45;&gt;Node1 -->
<g id="edge1_Node000001_Node000002" class="edge">
<title>Node2&#45;&gt;Node1</title>
<g id="a_edge1_Node000001_Node000002"><a xlink:title=" ">
<path fill="none" stroke="#63b8ff" d="M76.38,-88.77C76.38,-80.44 76.38,-71.84 76.38,-63.97"/>
<polygon fill="none" stroke="#63b8ff" points="72.88,-88.75 76.38,-98.75 79.88,-88.75 72.88,-88.75"/>
</a>
</g>
</g>
</g>
</svg>
</svg>

<style type='text/css'>
<![CDATA[
[data-mouse-over-selected='false'] { opacity: 0.7; }
[data-mouse-over-selected='true']  { opacity: 1.0; }
]]>
</style>
<script type="application/ecmascript"><![CDATA[
document.addEventListener('DOMContentLoaded', (event) => {
  highlightEdges();
  highlightAdjacentNodes();
});
]]></script>
</svg>
