<?xml version="1.0" encoding="UTF-8" standalone="no"?>
<!DOCTYPE svg PUBLIC "-//W3C//DTD SVG 1.1//EN"
 "http://www.w3.org/Graphics/SVG/1.1/DTD/svg11.dtd">
<!-- Generated by graphviz version 12.2.0 (20241103.1931)
 -->
<!-- Title: fr.softsf.sudokufx.repository.GridRepository Pages: 1 -->
<svg width="141pt" height="172pt"
 viewBox="0.00 0.00 140.50 172.00" xmlns="http://www.w3.org/2000/svg" xmlns:xlink="http://www.w3.org/1999/xlink">
<g id="graph0" class="graph" transform="scale(1 1) rotate(0) translate(4 168)">
<title>fr.softsf.sudokufx.repository.GridRepository</title>
<!-- Node1 -->
<g id="Node000001" class="node">
<title>Node1</title>
<g id="a_Node000001"><a xlink:title=" ">
<polygon fill="#999999" stroke="none" points="132.5,-64 0,-64 0,0 132.5,0 132.5,-64"/>
<text text-anchor="start" x="4" y="-50.5" font-family="Helvetica,sans-Serif" font-size="10.00">fr.softsf.sudokufx.repository.</text>
<text text-anchor="start" x="33.62" y="-38.5" font-family="Helvetica,sans-Serif" font-size="10.00">GridRepository</text>
<text text-anchor="start" x="64.75" y="-22.5" font-family="Helvetica,sans-Serif" font-size="10.00"> </text>
<text text-anchor="start" x="64.75" y="-6.5" font-family="Helvetica,sans-Serif" font-size="10.00"> </text>
<polygon fill="#666666" stroke="#666666" points="0,-34 0,-34 132.5,-34 132.5,-34 0,-34"/>
<polygon fill="#666666" stroke="#666666" points="0,-18 0,-18 132.5,-18 132.5,-18 0,-18"/>
<polygon fill="none" stroke="#666666" points="0,0 0,-64 132.5,-64 132.5,0 0,0"/>
</a>
</g>
</g>
<!-- Node2 -->
<g id="Node000002" class="node">
<title>Node2</title>
<g id="a_Node000002"><a xlink:title=" ">
<polygon fill="white" stroke="none" points="116.75,-164 15.75,-164 15.75,-100 116.75,-100 116.75,-164"/>
<text text-anchor="start" x="19.75" y="-150.5" font-family="Helvetica,sans-Serif" font-size="10.00">JpaRepository&lt; Grid,</text>
<text text-anchor="start" x="49.75" y="-138.5" font-family="Helvetica,sans-Serif" font-size="10.00"> Long &gt;</text>
<text text-anchor="start" x="64.75" y="-122.5" font-family="Helvetica,sans-Serif" font-size="10.00"> </text>
<text text-anchor="start" x="64.75" y="-106.5" font-family="Helvetica,sans-Serif" font-size="10.00"> </text>
<polygon fill="#666666" stroke="#666666" points="15.75,-134 15.75,-134 116.75,-134 116.75,-134 15.75,-134"/>
<polygon fill="#666666" stroke="#666666" points="15.75,-118 15.75,-118 116.75,-118 116.75,-118 15.75,-118"/>
<polygon fill="none" stroke="#666666" points="15.75,-100 15.75,-164 116.75,-164 116.75,-100 15.75,-100"/>
</a>
</g>
</g>
<!-- Node2&#45;&gt;Node1 -->
<g id="edge1_Node000001_Node000002" class="edge">
<title>Node2&#45;&gt;Node1</title>
<g id="a_edge1_Node000001_Node000002"><a xlink:title=" ">
<path fill="none" stroke="#63b8ff" d="M66.25,-88.77C66.25,-80.44 66.25,-71.84 66.25,-63.97"/>
<polygon fill="none" stroke="#63b8ff" points="62.75,-88.75 66.25,-98.75 69.75,-88.75 62.75,-88.75"/>
</a>
</g>
</g>
</g>
</svg>
