<?xml version="1.0" encoding="UTF-8" standalone="no"?>
<!DOCTYPE svg PUBLIC "-//W3C//DTD SVG 1.1//EN"
 "http://www.w3.org/Graphics/SVG/1.1/DTD/svg11.dtd">
<!-- Generated by graphviz version 12.2.1 (20241206.2353)
 -->
<!-- Title: fr.softsf.sudokufx.dto.PlayerDto Pages: 1 -->
<svg width="379pt" height="116pt"
 viewBox="0.00 0.00 379.00 116.00" xmlns="http://www.w3.org/2000/svg" xmlns:xlink="http://www.w3.org/1999/xlink">
<g id="graph0" class="graph" transform="scale(1 1) rotate(0) translate(4 112)">
<title>fr.softsf.sudokufx.dto.PlayerDto</title>
<!-- Node1 -->
<g id="Node000001" class="node">
<title>Node1</title>
<g id="a_Node000001"><a xlink:title=" ">
<polygon fill="#999999" stroke="#666666" points="155.5,-70 0,-70 0,-50 155.5,-50 155.5,-70"/>
<text text-anchor="middle" x="77.75" y="-56.5" font-family="Helvetica,sans-Serif" font-size="10.00">fr.softsf.sudokufx.dto.PlayerDto</text>
</a>
</g>
</g>
<!-- Node1&#45;&gt;Node1 -->
<g id="edge3_Node000001_Node000001" class="edge">
<title>Node1&#45;&gt;Node1</title>
<g id="a_edge3_Node000001_Node000001"><a xlink:title=" ">
<path fill="none" stroke="#63b8ff" d="M45.42,-70.34C31.6,-78.98 42.38,-88 77.75,-88 97.65,-88 109.76,-85.14 114.1,-81.11"/>
<polygon fill="#63b8ff" stroke="#63b8ff" points="117.38,-79.91 110.61,-71.76 110.82,-82.35 117.38,-79.91"/>
</a>
</g>
</g>
<!-- Node2 -->
<g id="Node000002" class="node">
<title>Node2</title>
<g id="a_Node000002"><a xlink:href="namespacefr_1_1softsf_1_1sudokufx_1_1dto.html#ab71438b60cd714ddb76aa22248390565" target="_top" xlink:title=" ">
<polygon fill="white" stroke="#666666" points="371,-108 191.5,-108 191.5,-88 371,-88 371,-108"/>
<text text-anchor="middle" x="281.25" y="-94.5" font-family="Helvetica,sans-Serif" font-size="10.00">fr.softsf.sudokufx.dto.BackgroundDto</text>
</a>
</g>
</g>
<!-- Node1&#45;&gt;Node2 -->
<g id="edge1_Node000001_Node000002" class="edge">
<title>Node1&#45;&gt;Node2</title>
<g id="a_edge1_Node000001_Node000002"><a xlink:title=" ">
<path fill="none" stroke="#63b8ff" d="M134.34,-70.48C158.9,-75.12 187.97,-80.6 213.67,-85.44"/>
<polygon fill="#63b8ff" stroke="#63b8ff" points="212.87,-88.86 223.35,-87.27 214.17,-81.98 212.87,-88.86"/>
</a>
</g>
</g>
<!-- Node3 -->
<g id="Node000003" class="node">
<title>Node3</title>
<g id="a_Node000003"><a xlink:href="namespacefr_1_1softsf_1_1sudokufx_1_1dto.html#a4b93797829452798604adaaaf4b0da89" target="_top" xlink:title=" ">
<polygon fill="white" stroke="#666666" points="357.12,-70 205.38,-70 205.38,-50 357.12,-50 357.12,-70"/>
<text text-anchor="middle" x="281.25" y="-56.5" font-family="Helvetica,sans-Serif" font-size="10.00">fr.softsf.sudokufx.dto.MenuDto</text>
</a>
</g>
</g>
<!-- Node1&#45;&gt;Node3 -->
<g id="edge2_Node000001_Node000003" class="edge">
<title>Node1&#45;&gt;Node3</title>
<g id="a_edge2_Node000001_Node000003"><a xlink:title=" ">
<path fill="none" stroke="#63b8ff" d="M155.79,-60C168.13,-60 180.96,-60 193.5,-60"/>
<polygon fill="#63b8ff" stroke="#63b8ff" points="193.4,-63.5 203.4,-60 193.4,-56.5 193.4,-63.5"/>
</a>
</g>
</g>
<!-- Node4 -->
<g id="Node000004" class="node">
<title>Node4</title>
<g id="a_Node000004"><a xlink:href="namespacefr_1_1softsf_1_1sudokufx_1_1dto.html#a57e3465d00d6e83a9d0fd8c03223868d" target="_top" xlink:title=" ">
<polygon fill="white" stroke="#666666" points="351.12,-32 211.38,-32 211.38,0 351.12,0 351.12,-32"/>
<text text-anchor="start" x="219.38" y="-18.5" font-family="Helvetica,sans-Serif" font-size="10.00">fr.softsf.sudokufx.dto.Player</text>
<text text-anchor="middle" x="281.25" y="-6.5" font-family="Helvetica,sans-Serif" font-size="10.00">LanguageDto</text>
</a>
</g>
</g>
<!-- Node1&#45;&gt;Node4 -->
<g id="edge4_Node000001_Node000004" class="edge">
<title>Node1&#45;&gt;Node4</title>
<g id="a_edge4_Node000001_Node000004"><a xlink:title=" ">
<path fill="none" stroke="#63b8ff" d="M126.76,-49.52C148.76,-44.71 175.44,-38.89 200.34,-33.45"/>
<polygon fill="#63b8ff" stroke="#63b8ff" points="200.76,-36.94 209.78,-31.39 199.26,-30.1 200.76,-36.94"/>
</a>
</g>
</g>
</g>
</svg>
